<?xml version="1.0" encoding="UTF-8" standalone="no"?>
<!-- Created with Inkscape (http://www.inkscape.org/) -->

<svg
   xmlns:dc="http://purl.org/dc/elements/1.1/"
   xmlns:cc="http://creativecommons.org/ns#"
   xmlns:rdf="http://www.w3.org/1999/02/22-rdf-syntax-ns#"
   xmlns:svg="http://www.w3.org/2000/svg"
   xmlns="http://www.w3.org/2000/svg"
   xmlns:sodipodi="http://sodipodi.sourceforge.net/DTD/sodipodi-0.dtd"
   xmlns:inkscape="http://www.inkscape.org/namespaces/inkscape"
   width="6.5132999mm"
   height="6.5132999mm"
   viewBox="0 0 6.5132997 6.5133"
   version="1.1"
   id="svg863"
   inkscape:version="0.92.2 (5c3e80d, 2017-08-06)"
   sodipodi:docname="9.15.svg">
  <defs
     id="defs857" />
  <sodipodi:namedview
     id="base"
     pagecolor="#ffffff"
     bordercolor="#666666"
     borderopacity="1.0"
     inkscape:pageopacity="0.0"
     inkscape:pageshadow="2"
     inkscape:zoom="21.571698"
     inkscape:cx="8.8605825"
     inkscape:cy="11.617142"
     inkscape:document-units="mm"
     inkscape:current-layer="layer1"
     showgrid="false"
     inkscape:window-width="1920"
     inkscape:window-height="1018"
     inkscape:window-x="-8"
     inkscape:window-y="-8"
     inkscape:window-maximized="1" />
  <metadata
     id="metadata860">
    <rdf:RDF>
      <cc:Work
         rdf:about="">
        <dc:format>image/svg+xml</dc:format>
        <dc:type
           rdf:resource="http://purl.org/dc/dcmitype/StillImage" />
        <dc:title></dc:title>
      </cc:Work>
    </rdf:RDF>
  </metadata>
  <g
     inkscape:label="Layer 1"
     inkscape:groupmode="layer"
     id="layer1"
     transform="translate(-105.13463,-145.57919)">
    <g
       id="g909"
       transform="translate(2.5606928,-7.5005807e-6)">
      <g
         transform="rotate(-90,105.83321,148.83596)"
         id="g890">
        <path
           style="fill:#211e1e;fill-opacity:1;fill-rule:nonzero;stroke:#211e1e;stroke-width:0.2032;stroke-linecap:butt;stroke-linejoin:miter;stroke-miterlimit:4;stroke-opacity:1"
           d="m 104.93886,148.84697 c 0,-0.12678 0.0165,-0.33073 0.17914,-0.41203 0.14745,-0.073 0.49747,0 0.70418,0.062 0.226,0.0675 0.56224,0.11989 0.70556,0.17363 0.1819,0.0675 0.28249,0.04 0.28249,0.17639"
           id="path2489"
           inkscape:connector-curvature="0" />
        <path
           style="fill:#211e1e;fill-opacity:1;fill-rule:nonzero;stroke:#211e1e;stroke-width:0.2032;stroke-linecap:butt;stroke-linejoin:miter;stroke-miterlimit:4;stroke-opacity:1"
           d="m 104.93886,148.85386 c 0,0.12679 0.0165,0.33073 0.17914,0.41204 0.14745,0.073 0.49747,0 0.70418,-0.0634 0.226,-0.0661 0.56224,-0.11989 0.70556,-0.17226 0.1819,-0.0675 0.28249,-0.04 0.28249,-0.17639"
           id="path2491"
           inkscape:connector-curvature="0" />
        <path
           style="fill:none;stroke:#000000;stroke-width:0.2032;stroke-linecap:butt;stroke-linejoin:miter;stroke-miterlimit:4;stroke-opacity:1"
           d="m 103.75237,148.84973 h 4.17683"
           id="path2589"
           inkscape:connector-curvature="0" />
        <path
           style="fill:#211e1e;fill-opacity:1;fill-rule:nonzero;stroke:#000000;stroke-width:0.2032;stroke-linecap:butt;stroke-linejoin:miter;stroke-miterlimit:4;stroke-opacity:1"
           d="m 107.9292,148.85386 -0.23564,-0.51262 1.14101,0.51262 -1.14101,0.47681 z"
           id="path2826"
           inkscape:connector-curvature="0" />
        <path
           style="fill:#211e1e;fill-opacity:1;fill-rule:nonzero;stroke:#000000;stroke-width:0.2032;stroke-linecap:butt;stroke-linejoin:miter;stroke-miterlimit:4;stroke-opacity:1"
           d="M 107.9292,148.85386"
           id="path2591"
           inkscape:connector-curvature="0" />
        <path
           style="fill:#211e1e;fill-opacity:1;fill-rule:nonzero;stroke:#000000;stroke-width:0.2032;stroke-linecap:butt;stroke-linejoin:miter;stroke-miterlimit:4;stroke-opacity:1"
           d="m 103.73583,148.85386 0.23564,-0.51262 -1.13963,0.51262 1.13963,0.47681 z"
           id="path2822"
           inkscape:connector-curvature="0" />
        <path
           style="fill:#211e1e;fill-opacity:1;fill-rule:nonzero;stroke:#000000;stroke-width:0.2032;stroke-linecap:butt;stroke-linejoin:miter;stroke-miterlimit:4;stroke-opacity:1"
           d="M 103.73583,148.85386"
           id="path2593"
           inkscape:connector-curvature="0" />
      </g>
      <path
         transform="scale(0.26458333)"
         inkscape:connector-curvature="0"
         id="path892"
         d="m 399.19084,566.1745 c -0.53968,-0.14855 -0.97805,-0.54087 -1.10956,-0.99303 -0.084,-0.28885 -0.0711,-1.08806 0.026,-1.6039 0.0432,-0.22946 0.15093,-0.6884 0.23944,-1.01985 0.0885,-0.33145 0.26447,-1.05115 0.39102,-1.59932 0.37552,-1.62662 0.59043,-2.23358 0.83772,-2.36593 0.0881,-0.0471 0.0895,0.0127 0.0895,3.80137 v 3.84926 l -0.12748,-0.004 c -0.0701,-0.002 -0.22609,-0.0313 -0.34662,-0.0645 z"
         style="fill:#000000;stroke-width:0.04635704" />
      <path
         transform="scale(0.26458333)"
         inkscape:connector-curvature="0"
         id="path894"
         d="m 399.49019,571.63327 c -0.30731,-0.68267 -0.55337,-1.2467 -0.54679,-1.25342 0.007,-0.007 0.25931,0.10401 0.56161,0.24605 l 0.54963,0.25826 0.46574,-0.21593 c 0.25616,-0.11877 0.48959,-0.22566 0.51875,-0.23753 0.0398,-0.0162 -0.91894,2.36564 -0.97857,2.43103 -0.006,0.007 -0.26306,-0.5458 -0.57037,-1.22846 z"
         style="fill:#000000;stroke-width:0.04635704" />
      <path
         transform="scale(0.26458333)"
         inkscape:connector-curvature="0"
         id="path896"
         d="m 398.96959,554.61604 c 0,-0.0418 1.04219,-2.3642 1.07624,-2.39825 0.0117,-0.0117 0.25167,0.53159 0.5332,1.20737 0.28152,0.67577 0.50419,1.22868 0.4948,1.22868 -0.009,0 -0.23458,-0.10817 -0.50043,-0.24039 l -0.48337,-0.2404 -0.53072,0.2404 c -0.55688,0.25225 -0.58972,0.26353 -0.58972,0.20259 z"
         style="fill:#000000;stroke-width:0.04635704" />
    </g>
    <path
       style="fill:#000000;stroke-width:0.04635704"
       d="M 12.782388,12.171069 V 8.3090779 l 0.164273,0.1592198 c 0.120518,0.1168106 0.189515,0.2457947 0.259042,0.4842534 0.05212,0.1787684 0.144917,0.4814885 0.206211,0.6727113 0.06129,0.1912227 0.20669,0.7747986 0.323104,1.2968346 0.116413,0.522036 0.27553,1.179147 0.353591,1.460246 0.30793,1.108851 0.399067,2.092933 0.242619,2.619752 -0.144949,0.488095 -0.698562,0.903458 -1.330466,0.998218 l -0.218374,0.03275 z"
       id="path911"
       inkscape:connector-curvature="0"
       transform="matrix(0.26458333,0,0,0.26458333,105.13463,145.57919)" />
  </g>
</svg>
