<?xml version="1.0" encoding="UTF-8" standalone="no"?>
<!-- Created with Inkscape (http://www.inkscape.org/) -->

<svg
   xmlns:dc="http://purl.org/dc/elements/1.1/"
   xmlns:cc="http://creativecommons.org/ns#"
   xmlns:rdf="http://www.w3.org/1999/02/22-rdf-syntax-ns#"
   xmlns:svg="http://www.w3.org/2000/svg"
   xmlns="http://www.w3.org/2000/svg"
   xmlns:sodipodi="http://sodipodi.sourceforge.net/DTD/sodipodi-0.dtd"
   xmlns:inkscape="http://www.inkscape.org/namespaces/inkscape"
   width="6.0988002mm"
   height="6.0988002mm"
   viewBox="0 0 6.0988 6.0988002"
   version="1.1"
   id="svg1061"
   inkscape:version="0.92.2 (5c3e80d, 2017-08-06)"
   sodipodi:docname="9.17.svg">
  <defs
     id="defs1055" />
  <sodipodi:namedview
     id="base"
     pagecolor="#ffffff"
     bordercolor="#666666"
     borderopacity="1.0"
     inkscape:pageopacity="0.0"
     inkscape:pageshadow="2"
     inkscape:zoom="32.580464"
     inkscape:cx="14.135101"
     inkscape:cy="10.798183"
     inkscape:document-units="mm"
     inkscape:current-layer="layer1"
     showgrid="false"
     inkscape:window-width="1920"
     inkscape:window-height="1018"
     inkscape:window-x="-8"
     inkscape:window-y="-8"
     inkscape:window-maximized="1" />
  <metadata
     id="metadata1058">
    <rdf:RDF>
      <cc:Work
         rdf:about="">
        <dc:format>image/svg+xml</dc:format>
        <dc:type
           rdf:resource="http://purl.org/dc/dcmitype/StillImage" />
        <dc:title></dc:title>
      </cc:Work>
    </rdf:RDF>
  </metadata>
  <g
     inkscape:label="Layer 1"
     inkscape:groupmode="layer"
     id="layer1"
     transform="translate(-105.18347,-145.73314)">
    <g
       id="g1134">
      <g
         transform="translate(2.450331)"
         id="g1112">
        <g
           id="g1107"
           transform="rotate(-90,105.78254,148.83333)">
          <g
             id="g1116">
            <path
               style="fill:none;stroke:#000000;stroke-width:0.2032;stroke-linecap:butt;stroke-linejoin:miter;stroke-miterlimit:4;stroke-opacity:1"
               d="m 102.78393,148.83334 h 4.38216"
               id="path2633"
               inkscape:connector-curvature="0"
               sodipodi:nodetypes="cc" />
            <path
               style="fill:none;stroke:#000000;stroke-width:0.2032;stroke-linecap:round;stroke-linejoin:round;stroke-miterlimit:4;stroke-opacity:1"
               d="m 107.96535,149.3308 0.8158,-0.49747 -0.8158,-0.49747 h 0.001 l -0.81305,0.49747 z"
               id="path2772"
               inkscape:connector-curvature="0"
               sodipodi:nodetypes="ccccccc" />
          </g>
        </g>
      </g>
      <path
         transform="matrix(0.26458333,0,0,0.26458333,105.18347,145.73314)"
         inkscape:connector-curvature="0"
         id="path1118"
         d="M 10.824542,4.6155213 C 10.456341,4.0142011 10.148721,3.506784 10.140944,3.4879278 10.126016,3.4517383 11.48482,1.1978447 11.52283,1.1957461 c 0.02512,-0.00139 1.388586,2.2286264 1.388586,2.2710919 0,0.052223 -1.352828,2.2419927 -1.385091,2.2419927 -0.01778,0 -0.333581,-0.4919892 -0.701783,-1.0933094 z"
         style="fill:#000000;fill-opacity:1;stroke-width:0.0434068" />
      <path
         id="path1124"
         transform="matrix(0.26458333,0,0,0.26458333,105.18347,145.73314)"
         d="M 11.175144,14.8433 V 6.658459 L 10.269209,5.1744366 C 9.2047447,3.4307279 9.2523875,3.5171637 9.2901504,3.3981832 9.3391532,3.2437891 11.217009,0.18064407 11.313014,0.09850238 c 0.113644,-0.09723399 0.304441,-0.09723399 0.421213,0 0.05017,0.04177904 0.54074,0.81447682 1.090147,1.71710622 0.896777,1.4733269 0.993732,1.6508717 0.948158,1.7362718 -0.02792,0.05232 -0.439076,0.7277511 -0.913679,1.5009577 -0.474603,0.7732066 -0.891329,1.4607767 -0.926058,1.527934 -0.0546,0.1055753 -0.06314,1.2270246 -0.06314,8.2847369 v 8.162633 h -0.347256 -0.347255 z"
         style="fill:#000000;fill-opacity:1;stroke-width:0.0434068" />
      <path
         id="path1120"
         transform="matrix(0.26458333,0,0,0.26458333,105.18347,145.73314)"
         d="M 12.260274,4.6440985 C 12.744718,3.8504056 12.954265,3.46934 12.934581,3.4178564 12.89172,3.3057545 11.547496,1.1080532 11.522399,1.1090506 c -0.02209,8.777e-4 -1.337453,2.1508717 -1.403424,2.2939313 -0.02763,0.059922 0.129524,0.3499686 0.669427,1.2354837 0.388045,0.6364482 0.719818,1.1571787 0.737272,1.1571787 0.01745,0 0.348024,-0.5181955 0.7346,-1.1515458 z"
         style="fill:#000000;fill-opacity:1;stroke-width:0.0434068" />
    </g>
  </g>
</svg>
