<?xml version="1.0" encoding="UTF-8" standalone="no"?>
<!-- Created with Inkscape (http://www.inkscape.org/) -->

<svg
   xmlns:dc="http://purl.org/dc/elements/1.1/"
   xmlns:cc="http://creativecommons.org/ns#"
   xmlns:rdf="http://www.w3.org/1999/02/22-rdf-syntax-ns#"
   xmlns:svg="http://www.w3.org/2000/svg"
   xmlns="http://www.w3.org/2000/svg"
   xmlns:sodipodi="http://sodipodi.sourceforge.net/DTD/sodipodi-0.dtd"
   xmlns:inkscape="http://www.inkscape.org/namespaces/inkscape"
   width="6.5086002mm"
   height="6.5086002mm"
   viewBox="0 0 6.5086004 6.5086002"
   version="1.1"
   id="svg488"
   inkscape:version="0.92.2 (5c3e80d, 2017-08-06)"
   sodipodi:docname="9.27.svg">
  <defs
     id="defs482" />
  <sodipodi:namedview
     id="base"
     pagecolor="#ffffff"
     bordercolor="#666666"
     borderopacity="1.0"
     inkscape:pageopacity="0.0"
     inkscape:pageshadow="2"
     inkscape:zoom="30.528754"
     inkscape:cx="7.4951191"
     inkscape:cy="9.9184764"
     inkscape:document-units="mm"
     inkscape:current-layer="layer1"
     showgrid="false"
     inkscape:window-width="1920"
     inkscape:window-height="1018"
     inkscape:window-x="-8"
     inkscape:window-y="-8"
     inkscape:window-maximized="1" />
  <metadata
     id="metadata485">
    <rdf:RDF>
      <cc:Work
         rdf:about="">
        <dc:format>image/svg+xml</dc:format>
        <dc:type
           rdf:resource="http://purl.org/dc/dcmitype/StillImage" />
        <dc:title></dc:title>
      </cc:Work>
    </rdf:RDF>
  </metadata>
  <g
     inkscape:label="Layer 1"
     inkscape:groupmode="layer"
     id="layer1"
     transform="translate(-105.12486,-145.59188)">
    <g
       id="g527"
       transform="rotate(-90,107.11264,147.56682)">
      <path
         inkscape:connector-curvature="0"
         id="path3646"
         d="m 106.33192,148.8519 c 0,0.27561 -0.22324,0.49885 -0.49885,0.49885 -0.27698,0 -0.50022,-0.22324 -0.50022,-0.49885 0,-0.27699 0.22324,-0.50023 0.50022,-0.50023 0.27561,0 0.49885,0.22324 0.49885,0.50023 z"
         style="fill:#211e1e;fill-opacity:1;fill-rule:nonzero;stroke:#000000;stroke-width:0.2032;stroke-linecap:butt;stroke-linejoin:miter;stroke-miterlimit:4;stroke-opacity:1" />
      <path
         inkscape:connector-curvature="0"
         id="path3079"
         d="M 106.33192,148.8519"
         style="fill:#211e1e;fill-opacity:1;fill-rule:nonzero;stroke:#000000;stroke-width:0.2032;stroke-linecap:butt;stroke-linejoin:miter;stroke-miterlimit:4;stroke-opacity:1" />
      <path
         inkscape:connector-curvature="0"
         id="path3127"
         d="m 103.75499,148.85052 h 4.16995"
         style="fill:none;stroke:#000000;stroke-width:0.2032;stroke-linecap:butt;stroke-linejoin:miter;stroke-miterlimit:4;stroke-opacity:1" />
      <path
         inkscape:connector-curvature="0"
         id="path3560"
         d="m 107.92494,148.85466 -0.23565,-0.51263 1.14239,0.51263 -1.14239,0.47542 z"
         style="fill:#211e1e;fill-opacity:1;fill-rule:nonzero;stroke:#000000;stroke-width:0.2032;stroke-linecap:butt;stroke-linejoin:miter;stroke-miterlimit:4;stroke-opacity:1" />
      <path
         inkscape:connector-curvature="0"
         id="path3129"
         d="M 107.92494,148.85466"
         style="fill:#211e1e;fill-opacity:1;fill-rule:nonzero;stroke:#000000;stroke-width:0.2032;stroke-linecap:butt;stroke-linejoin:miter;stroke-miterlimit:4;stroke-opacity:1" />
      <path
         inkscape:connector-curvature="0"
         id="path3556"
         d="m 103.73846,148.85466 0.23564,-0.51263 -1.13964,0.51263 1.13964,0.47542 z"
         style="fill:#211e1e;fill-opacity:1;fill-rule:nonzero;stroke:#000000;stroke-width:0.2032;stroke-linecap:butt;stroke-linejoin:miter;stroke-miterlimit:4;stroke-opacity:1" />
      <path
         inkscape:connector-curvature="0"
         id="path3131"
         d="M 103.73846,148.85466"
         style="fill:#211e1e;fill-opacity:1;fill-rule:nonzero;stroke:#000000;stroke-width:0.2032;stroke-linecap:butt;stroke-linejoin:miter;stroke-miterlimit:4;stroke-opacity:1" />
      <path
         transform="scale(0.26458333)"
         inkscape:connector-curvature="0"
         id="path508"
         d="m 390.88473,563.10741 c -0.65303,-0.27431 -1.19425,-0.50567 -1.20271,-0.51414 -0.011,-0.011 2.22298,-1.03636 2.47588,-1.13636 0.0147,-0.006 -0.0934,0.25004 -0.24022,0.56857 l -0.26697,0.57914 0.25148,0.50419 c 0.13831,0.27731 0.23311,0.50266 0.21067,0.50077 -0.0224,-0.002 -0.57511,-0.22786 -1.22813,-0.50217 z"
         style="fill:#000000;stroke-width:0.032756" />
      <path
         transform="scale(0.26458333)"
         inkscape:connector-curvature="0"
         id="path510"
         d="m 398.5658,562.1308 c 0.0584,-0.19292 0.23922,-0.46909 0.4118,-0.62887 0.60348,-0.55872 1.50626,-0.54277 2.08059,0.0367 0.15537,0.15678 0.37225,0.51911 0.37225,0.62192 0,0.036 -0.25868,0.0439 -1.44347,0.0439 h -1.44348 z"
         style="fill:#000000;stroke-width:0.032756" />
      <path
         transform="scale(0.26458333)"
         inkscape:connector-curvature="0"
         id="path512"
         d="m 399.57972,564.0256 c -0.45718,-0.1452 -0.80779,-0.46681 -0.97652,-0.89574 l -0.0548,-0.13921 h 1.44321 1.4432 l -0.0228,0.0737 c -0.13343,0.43081 -0.51613,0.80479 -0.96724,0.94519 -0.23222,0.0723 -0.66289,0.0803 -0.86506,0.0161 z"
         style="fill:#000000;stroke-width:0.032756" />
      <path
         transform="scale(0.26458333)"
         inkscape:connector-curvature="0"
         id="path514"
         d="m 407.85061,563.59622 c 0,-0.009 0.10954,-0.23548 0.24341,-0.50278 l 0.24341,-0.486 -0.26033,-0.5667 c -0.14318,-0.31169 -0.25631,-0.57072 -0.25141,-0.57562 0.005,-0.005 0.57252,0.24386 1.26137,0.55281 1.12083,0.5027 1.24473,0.5657 1.17903,0.59953 -0.0999,0.0514 -2.3725,0.99555 -2.39642,0.99555 -0.0105,0 -0.0191,-0.008 -0.0191,-0.0168 z"
         style="fill:#000000;stroke-width:0.032756" />
    </g>
  </g>
</svg>
