<?xml version="1.0" encoding="UTF-8" standalone="no"?>
<!-- Created with Inkscape (http://www.inkscape.org/) -->

<svg
   xmlns:dc="http://purl.org/dc/elements/1.1/"
   xmlns:cc="http://creativecommons.org/ns#"
   xmlns:rdf="http://www.w3.org/1999/02/22-rdf-syntax-ns#"
   xmlns:svg="http://www.w3.org/2000/svg"
   xmlns="http://www.w3.org/2000/svg"
   xmlns:sodipodi="http://sodipodi.sourceforge.net/DTD/sodipodi-0.dtd"
   xmlns:inkscape="http://www.inkscape.org/namespaces/inkscape"
   width="6.2530999mm"
   height="6.2530999mm"
   viewBox="0 0 6.2531001 6.2530999"
   version="1.1"
   id="svg862"
   inkscape:version="0.92.2 (5c3e80d, 2017-08-06)"
   sodipodi:docname="9.81.svg">
  <defs
     id="defs856" />
  <sodipodi:namedview
     id="base"
     pagecolor="#ffffff"
     bordercolor="#666666"
     borderopacity="1.0"
     inkscape:pageopacity="0.0"
     inkscape:pageshadow="2"
     inkscape:zoom="16.067933"
     inkscape:cx="27.390855"
     inkscape:cy="8.2699918"
     inkscape:document-units="mm"
     inkscape:current-layer="layer1"
     showgrid="false"
     inkscape:window-width="1920"
     inkscape:window-height="1018"
     inkscape:window-x="-8"
     inkscape:window-y="-8"
     inkscape:window-maximized="1" />
  <metadata
     id="metadata859">
    <rdf:RDF>
      <cc:Work
         rdf:about="">
        <dc:format>image/svg+xml</dc:format>
        <dc:type
           rdf:resource="http://purl.org/dc/dcmitype/StillImage" />
        <dc:title></dc:title>
      </cc:Work>
    </rdf:RDF>
  </metadata>
  <g
     inkscape:label="Layer 1"
     inkscape:groupmode="layer"
     id="layer1"
     transform="translate(-104.99915,-145.58959)">
    <g
       id="g898"
       transform="rotate(-90,106.9209,147.62854)">
      <path
         inkscape:connector-curvature="0"
         id="path5231"
         d="m 106.68377,148.2737 -1.13826,1.14377"
         style="fill:none;stroke:#211e1e;stroke-width:0.2032;stroke-linecap:butt;stroke-linejoin:miter;stroke-miterlimit:4;stroke-opacity:1" />
      <path
         inkscape:connector-curvature="0"
         id="path5229"
         d="m 105.86245,148.2737 -1.13825,1.14377"
         style="fill:none;stroke:#211e1e;stroke-width:0.2032;stroke-linecap:butt;stroke-linejoin:miter;stroke-miterlimit:4;stroke-opacity:1" />
      <path
         inkscape:connector-curvature="0"
         id="path4810"
         d="m 102.70675,148.84972 h 5.08909"
         style="fill:none;stroke:#000000;stroke-width:0.2032;stroke-linecap:butt;stroke-linejoin:miter;stroke-miterlimit:4;stroke-opacity:1" />
      <path
         inkscape:connector-curvature="0"
         id="path5087"
         d="m 107.79584,148.85385 -0.23564,-0.51263 1.14377,0.51263 -1.14377,0.4768 z"
         style="fill:#211e1e;fill-opacity:1;fill-rule:nonzero;stroke:#000000;stroke-width:0.2032;stroke-linecap:butt;stroke-linejoin:miter;stroke-miterlimit:4;stroke-opacity:1" />
      <path
         inkscape:connector-curvature="0"
         id="path4812"
         d="M 107.79584,148.85385"
         style="fill:#211e1e;fill-opacity:1;fill-rule:nonzero;stroke:#000000;stroke-width:0.2032;stroke-linecap:butt;stroke-linejoin:miter;stroke-miterlimit:4;stroke-opacity:1" />
      <path
         transform="scale(0.26458333)"
         inkscape:connector-curvature="0"
         id="path878"
         d="m 395.81516,564.71139 -0.263,-0.26368 0.7363,-0.73807 0.73629,-0.73807 0.5227,0.006 0.5227,0.006 -0.99599,0.99579 -0.996,0.99579 z"
         style="fill:#000000;fill-opacity:1;stroke-width:0.02200366" />
      <path
         transform="scale(0.26458333)"
         inkscape:connector-curvature="0"
         id="path880"
         d="m 398.5804,561.41574 c 0.42773,-0.43265 0.88486,-0.89545 1.01584,-1.02844 l 0.23816,-0.24181 0.26256,0.26188 0.26256,0.26187 -0.75062,0.76656 -0.75061,0.76657 h -0.52779 -0.52779 z"
         style="fill:#000000;fill-opacity:1;stroke-width:0.02200366" />
      <path
         transform="scale(0.26458333)"
         inkscape:connector-curvature="0"
         id="path882"
         d="m 401.91579,561.1847 c 0.55526,-0.55972 1.0148,-1.02019 1.02121,-1.02326 0.006,-0.003 0.12767,0.1108 0.26946,0.25304 l 0.2578,0.25863 -0.74951,0.76463 -0.7495,0.76463 h -0.5295 -0.52951 z"
         style="fill:#000000;fill-opacity:1;stroke-width:0.02200366" />
      <path
         transform="scale(0.26458333)"
         inkscape:connector-curvature="0"
         id="path884"
         d="m 398.92697,564.71777 c -0.1422,-0.14093 -0.25854,-0.26185 -0.25854,-0.26871 0,-0.007 0.33135,-0.34437 0.73633,-0.75002 l 0.73634,-0.73755 0.518,0.011 0.51801,0.011 -0.9958,0.99525 -0.9958,0.99526 z"
         style="fill:#000000;fill-opacity:1;stroke-width:0.02200366" />
      <path
         transform="scale(0.26458333)"
         inkscape:connector-curvature="0"
         id="path886"
         d="m 407.59252,563.1221 0.25637,-0.51588 -0.26699,-0.57918 c -0.14684,-0.31855 -0.26429,-0.58107 -0.26101,-0.58338 0.006,-0.004 2.52497,1.12501 2.53753,1.13756 0.005,0.005 -2.331,0.986 -2.48291,1.04219 -0.0275,0.0102 0.0381,-0.14139 0.21701,-0.50131 z"
         style="fill:#000000;fill-opacity:1;stroke-width:0.02200366" />
    </g>
  </g>
</svg>
