<?xml version="1.0" encoding="UTF-8" standalone="no"?>
<!-- Created with Inkscape (http://www.inkscape.org/) -->

<svg
   xmlns:dc="http://purl.org/dc/elements/1.1/"
   xmlns:cc="http://creativecommons.org/ns#"
   xmlns:rdf="http://www.w3.org/1999/02/22-rdf-syntax-ns#"
   xmlns:svg="http://www.w3.org/2000/svg"
   xmlns="http://www.w3.org/2000/svg"
   xmlns:sodipodi="http://sodipodi.sourceforge.net/DTD/sodipodi-0.dtd"
   xmlns:inkscape="http://www.inkscape.org/namespaces/inkscape"
   width="5.17733mm"
   height="5.17733mm"
   viewBox="0 0 5.17733 5.17733"
   version="1.1"
   id="svg16191"
   inkscape:version="0.92.2 (5c3e80d, 2017-08-06)"
   sodipodi:docname="21.15.svg">
  <defs
     id="defs16185" />
  <sodipodi:namedview
     id="base"
     pagecolor="#ffffff"
     bordercolor="#666666"
     borderopacity="1.0"
     inkscape:pageopacity="0.0"
     inkscape:pageshadow="2"
     inkscape:zoom="15.839192"
     inkscape:cx="5.5758524"
     inkscape:cy="10.810068"
     inkscape:document-units="mm"
     inkscape:current-layer="layer1"
     showgrid="false"
     inkscape:window-width="1920"
     inkscape:window-height="1018"
     inkscape:window-x="-8"
     inkscape:window-y="-8"
     inkscape:window-maximized="1" />
  <metadata
     id="metadata16188">
    <rdf:RDF>
      <cc:Work
         rdf:about="">
        <dc:format>image/svg+xml</dc:format>
        <dc:type
           rdf:resource="http://purl.org/dc/dcmitype/StillImage" />
        <dc:title></dc:title>
      </cc:Work>
    </rdf:RDF>
  </metadata>
  <g
     inkscape:label="Layer 1"
     inkscape:groupmode="layer"
     id="layer1"
     transform="translate(-103.24467,-146.24467)">
    <g
       id="g16215">
      <path
         id="path15519"
         d="m 103.33357,148.83333 c 0,1.3808 1.11897,2.49977 2.49976,2.49977 1.3808,0 2.49977,-1.11897 2.49977,-2.49977 0,-1.38079 -1.11897,-2.49976 -2.49977,-2.49976 -1.38079,0 -2.49976,1.11897 -2.49976,2.49976 z"
         style="fill:none;stroke:#211e1e;stroke-width:0.1778;stroke-linecap:round;stroke-linejoin:round;stroke-miterlimit:4;stroke-opacity:1"
         inkscape:connector-curvature="0" />
      <path
         id="path8957"
         d="M 103.33357,148.83333"
         style="fill:none;stroke:#211e1e;stroke-width:0.1778;stroke-linecap:round;stroke-linejoin:round;stroke-miterlimit:4;stroke-opacity:1"
         inkscape:connector-curvature="0" />
      <path
         id="path15461"
         d="m 107.59585,150.59584 -0.0289,0.003 -0.0275,0.001 -0.0289,0.001 h -0.0868 l -0.0868,-0.004 -0.0276,-10e-4 -0.0868,-0.008 -0.0579,-0.008 -0.0275,-0.004 -0.0289,-0.005 -0.0289,-0.004 -0.0276,-0.007 -0.0579,-0.011 -0.0579,-0.0138 -0.0276,-0.007 -0.0289,-0.008 -0.0276,-0.008 -0.0289,-0.007 -0.0275,-0.008 -0.0289,-0.01 -0.0276,-0.008 -0.0289,-0.01 -0.0275,-0.01 -0.0276,-0.011 -0.0289,-0.01 -0.0276,-0.01 -0.0275,-0.0124 -0.0289,-0.01 -0.0276,-0.0124 -0.0275,-0.011 -0.0565,-0.0248 -0.0276,-0.0124 -0.0262,-0.0124 -0.0551,-0.0276 -0.0289,-0.0138 -0.0262,-0.0138 -0.0551,-0.0276 -0.0262,-0.0152 -0.0276,-0.0138 -0.0262,-0.0165 -0.0276,-0.0138 -0.0262,-0.0165 -0.0276,-0.0165 -0.0262,-0.0152 -0.0524,-0.0331 -0.0276,-0.0165 -0.0262,-0.0179 -0.0248,-0.0152 -0.0262,-0.0193 -0.0262,-0.0166 -0.0262,-0.0179 -0.051,-0.0358 -0.0524,-0.0386 -0.0248,-0.0179 -0.0744,-0.0579 -0.0262,-0.0193 -0.0248,-0.0193 -0.0248,-0.0207 -0.0234,-0.0207 -0.0248,-0.0207 -0.0248,-0.0193 -0.0234,-0.0207 -0.0248,-0.022 -0.0234,-0.0207 -0.0248,-0.0207 -0.0469,-0.0441 -0.0234,-0.0207 -0.0468,-0.0441 -0.13505,-0.13506 -0.022,-0.0234 -0.0207,-0.0234 -0.0661,-0.0703 -0.0207,-0.0248 -0.0207,-0.0234 -0.022,-0.0248 -0.0193,-0.0234 -0.0207,-0.0248 -0.0207,-0.0234 -0.0207,-0.0248 -0.0193,-0.0248 -0.0207,-0.0248 -0.0386,-0.0496 -0.0193,-0.0262 -0.0193,-0.0248 -0.0179,-0.0248 -0.0193,-0.0262 -0.0179,-0.0248 -0.0179,-0.0262 -0.0193,-0.0248 -0.0165,-0.0262 -0.0358,-0.0524 -0.0166,-0.0262 -0.0179,-0.0262 -0.0165,-0.0275 -0.0165,-0.0248 -0.0165,-0.0275 -0.0152,-0.0262 -0.0165,-0.0262 -0.0152,-0.0276 -0.0152,-0.0262 -0.0152,-0.0275 -0.0152,-0.0262 -0.0152,-0.0275 -0.0276,-0.0551 -0.0138,-0.0262 -0.0413,-0.0827 -0.011,-0.0275 -0.0138,-0.0276 -0.0124,-0.0289 -0.0221,-0.0551 -0.0138,-0.0275 -0.01,-0.0276 -0.022,-0.0551 c 0,0 -0.0537,-0.0289 -0.01,-0.0289 l -0.011,-0.0275 -0.01,-0.0289 -0.01,-0.0275 -0.008,-0.0289 -0.008,-0.0276 -0.01,-0.0289 -0.007,-0.0275 -0.0165,-0.0579 -0.007,-0.0276 -0.007,-0.0289 -0.007,-0.0276 -0.0221,-0.11575 -0.004,-0.0276 -0.005,-0.0289 -0.004,-0.0289 -0.003,-0.0289 -0.004,-0.0289 -0.003,-0.0289 -0.003,-0.0276 -0.003,-0.0579 v -0.0289 l -0.003,-0.0579 v -0.0275 l 0.003,-0.0579 v -0.0289 l 0.003,-0.0289"
         style="fill:none;stroke:#000000;stroke-width:0.08467019;stroke-linecap:round;stroke-linejoin:round;stroke-miterlimit:4;stroke-opacity:1"
         inkscape:connector-curvature="0" />
      <path
         id="path8999"
         d="m 103.33503,149.00753 0.0124,-0.0317 0.0124,-0.0344 0.0138,-0.0317 0.0138,-0.0331 0.0138,-0.0317 0.0303,-0.0634 0.0165,-0.0303 0.0165,-0.0317 0.0331,-0.0606 0.0179,-0.0303 0.0358,-0.0579 0.0386,-0.0579 0.0193,-0.0275 0.0207,-0.0275 0.0207,-0.0262 0.0207,-0.0275 0.0207,-0.0262 0.0882,-0.10473 0.0234,-0.0234 0.0234,-0.0248 0.0234,-0.0234 0.0234,-0.0248 0.0234,-0.0234 0.0262,-0.0234 0.0234,-0.022 0.0262,-0.0234 0.0248,-0.0207 0.0524,-0.0441 0.0785,-0.062 0.0276,-0.0207 0.0276,-0.0179 0.0262,-0.0207 0.0276,-0.0193 0.0289,-0.0179 0.0276,-0.0179 0.0289,-0.0193 0.0289,-0.0165 0.0289,-0.0179 0.0579,-0.0331 0.0303,-0.0165 0.0289,-0.0165 0.0303,-0.0138 0.0289,-0.0165 0.0303,-0.0138 0.0303,-0.0152 0.0303,-0.0138 0.0317,-0.0138 0.0303,-0.0138 0.0317,-0.0138 0.0317,-0.0124 0.0303,-0.0124 0.0317,-0.011 0.0317,-0.0124 0.0317,-0.011 0.0317,-0.0124 0.0331,-0.01 0.0317,-0.011 0.0634,-0.0193 0.0331,-0.008 0.0317,-0.01 0.0345,-0.008 0.0331,-0.008 0.0317,-0.008 0.0331,-0.007 0.0331,-0.008 0.0331,-0.007 0.0331,-0.006 0.0331,-0.007 0.0345,-0.005 0.0662,-0.011 0.033,-0.004 0.0345,-0.004 0.0331,-0.004 0.0331,-0.003 0.0344,-0.004 0.0331,-0.003 0.0345,-0.003 0.0675,-0.004 0.0345,-0.001 0.033,-0.001 h 0.0345 l 0.0331,-0.001 h 0.0675 l 0.0345,0.001 h 0.0345 l 0.0331,0.003 h 0.0331 l 0.0344,0.003 0.0331,0.003 0.0345,0.003 0.0331,0.003 0.0344,0.003 0.0331,0.004 0.033,0.006 0.0331,0.004 0.0345,0.004 0.0331,0.004 0.0331,0.007 0.0331,0.006 0.0992,0.0207 0.0661,0.0152 0.0317,0.008 0.0662,0.0165 0.0317,0.01 0.0648,0.0193 0.0317,0.011 0.0331,0.011 0.0303,0.011 0.0331,0.011 0.0317,0.011 0.0303,0.0138 0.0317,0.0124 0.0303,0.0124 0.0317,0.0138 0.0289,0.0138 0.0317,0.0138 0.0303,0.0152 0.0303,0.0138 0.0303,0.0165 0.0579,0.0303 0.0303,0.0165 0.0289,0.0165 0.0289,0.0179 0.0289,0.0165 0.0565,0.0372 0.0289,0.0179 0.0827,0.0579 0.0524,0.0413 0.0276,0.0207 0.0262,0.022 0.0262,0.0207 0.0248,0.022 0.0248,0.0234 0.0262,0.0234 0.0248,0.0221 0.0248,0.0248 0.0248,0.0234 0.022,0.0248 0.0234,0.0248 0.0234,0.0262 0.0234,0.0248 0.022,0.0248 0.0441,0.0551 0.0207,0.0262 0.022,0.0275 0.0193,0.0289 0.0207,0.0276 0.0193,0.0303 0.0193,0.0289 0.0193,0.0303 0.0358,0.0606 0.0179,0.0317 0.0165,0.0303"
         style="fill:none;stroke:#000000;stroke-width:0.08467019;stroke-linecap:round;stroke-linejoin:round;stroke-miterlimit:4;stroke-opacity:1"
         inkscape:connector-curvature="0" />
      <path
         id="path9001"
         d="m 104.18382,147.91832 0.13918,-0.0951 0.20533,-0.11438 0.15159,-0.073 0.12402,-0.0524 0.22324,-0.0772 0.16399,-0.0441 0.19706,-0.0427 0.10059,-0.0165 0.16812,-0.0193 0.1695,-0.011 0.13505,-0.003 0.13505,0.004 0.16812,0.011 0.20119,0.0248 0.0992,0.0193 0.13229,0.0289 0.0978,0.0248 0.0965,0.0289 0.12815,0.0441 0.12403,0.0496 0.12264,0.0565 0.11852,0.0606 0.0882,0.051 0.0854,0.0537 0.0841,0.0565 0.0799,0.0606 0.0799,0.0634 0.1006,0.0909 0.0717,0.073 0.0469,0.051 0.0675,0.0772 0.0841,0.11025 0.0593,0.0868 0.0372,0.0606 0.0358,0.062 0.0138,0.10886 v 0.1958 l -0.011,0.2067 -0.0317,0.16261 -0.0331,0.1819 -0.0537,0.14332 -0.0551,0.13091 -0.0648,0.15159 -0.0758,0.17776 -0.0978,0.13643 -0.0868,0.11989 -0.12953,0.14056 -0.0703,0.0868 -0.0221,0.0221 -0.25081,0.0124 -0.22875,-0.0275 -0.28526,-0.0661 -0.28112,-0.0978 -0.30316,-0.14194 -0.24116,-0.1378 -0.22187,-0.14883 -0.22875,-0.16261 -0.22738,-0.20671 -0.21635,-0.20532 -0.22186,-0.25632 -0.15572,-0.19981 -0.12678,-0.18053 -0.13091,-0.19981 -0.10198,-0.2012 -0.0896,-0.1943 -0.0923,-0.25218"
         style="fill:#000000;fill-opacity:1;fill-rule:nonzero;stroke:none;stroke-width:0.35277775"
         inkscape:connector-curvature="0" />
      <path
         id="path9003"
         d="m 104.06118,147.06118 -0.006,0.15985 0.006,0.17363 0.0165,0.113 0.0262,0.14194 0.0276,0.113 0.0524,0.15572 -0.17225,0.13229 -0.15158,0.13091 -0.14608,0.1695 -0.12402,0.16123 -0.10887,0.17639 -0.0648,0.12402 -0.0772,0.1819 -0.006,-0.17914 0.004,-0.20395 0.0289,-0.19706 0.0427,-0.21222 0.0551,-0.1943 0.0593,-0.15159 0.0923,-0.19568 0.11989,-0.19568 0.11299,-0.1571 0.11438,-0.14607 0.0978,-0.10059"
         style="fill:#000000;fill-opacity:1;fill-rule:nonzero;stroke:none;stroke-width:0.35277775"
         inkscape:connector-curvature="0" />
    </g>
  </g>
</svg>
