<?xml version="1.0"?>
<!-- Converted with SVG Converter - Version 0.9.5 (Compiled Fri Feb 21 09:53:38 2020) - Copyright (C) 2011 Nokia -->
<svg xmlns="http://www.w3.org/2000/svg" height="71.714" viewBox="0 -71.714 71.714 71.714" baseProfile="tiny" x="0px" xml:space="preserve" xmlns:xlink="http://www.w3.org/1999/xlink" version="1.1" y="0px" width="71.714">
 <g>
  <rect height="71.714" style="fill:none;" x="0" y="-71.714" width="71.714"/>
  <line x2="0.979" style="fill-rule:evenodd;clip-rule:evenodd;fill:none;stroke:#EC008C;stroke-width:0.43;" y1="-71.714" x1="0.979" y2="0"/>
  <line x2="2.917" style="fill-rule:evenodd;clip-rule:evenodd;fill:none;stroke:#EC008C;stroke-width:0.43;" y1="-71.714" x1="2.917" y2="0"/>
  <line x2="4.854" style="fill-rule:evenodd;clip-rule:evenodd;fill:none;stroke:#EC008C;stroke-width:0.43;" y1="-71.714" x1="4.854" y2="0"/>
  <line x2="6.792" style="fill-rule:evenodd;clip-rule:evenodd;fill:none;stroke:#EC008C;stroke-width:0.43;" y1="-71.714" x1="6.792" y2="0"/>
  <line x2="8.729" style="fill-rule:evenodd;clip-rule:evenodd;fill:none;stroke:#EC008C;stroke-width:0.43;" y1="-71.714" x1="8.729" y2="0"/>
  <line x2="10.667" style="fill-rule:evenodd;clip-rule:evenodd;fill:none;stroke:#EC008C;stroke-width:0.43;" y1="-71.714" x1="10.667" y2="0"/>
  <line x2="12.604" style="fill-rule:evenodd;clip-rule:evenodd;fill:none;stroke:#EC008C;stroke-width:0.43;" y1="-71.714" x1="12.604" y2="0"/>
  <line x2="14.542" style="fill-rule:evenodd;clip-rule:evenodd;fill:none;stroke:#EC008C;stroke-width:0.43;" y1="-71.714" x1="14.542" y2="0"/>
  <line x2="16.479" style="fill-rule:evenodd;clip-rule:evenodd;fill:none;stroke:#EC008C;stroke-width:0.43;" y1="-71.714" x1="16.479" y2="0"/>
  <line x2="18.417" style="fill-rule:evenodd;clip-rule:evenodd;fill:none;stroke:#EC008C;stroke-width:0.43;" y1="-71.714" x1="18.417" y2="0"/>
  <line x2="20.354" style="fill-rule:evenodd;clip-rule:evenodd;fill:none;stroke:#EC008C;stroke-width:0.43;" y1="-71.714" x1="20.354" y2="0"/>
  <line x2="22.292" style="fill-rule:evenodd;clip-rule:evenodd;fill:none;stroke:#EC008C;stroke-width:0.43;" y1="-71.714" x1="22.292" y2="0"/>
  <line x2="24.229" style="fill-rule:evenodd;clip-rule:evenodd;fill:none;stroke:#EC008C;stroke-width:0.43;" y1="-71.714" x1="24.229" y2="0"/>
  <line x2="26.167" style="fill-rule:evenodd;clip-rule:evenodd;fill:none;stroke:#EC008C;stroke-width:0.43;" y1="-71.714" x1="26.167" y2="0"/>
  <line x2="28.104" style="fill-rule:evenodd;clip-rule:evenodd;fill:none;stroke:#EC008C;stroke-width:0.43;" y1="-71.714" x1="28.104" y2="0"/>
  <line x2="30.042" style="fill-rule:evenodd;clip-rule:evenodd;fill:none;stroke:#EC008C;stroke-width:0.43;" y1="-71.714" x1="30.042" y2="0"/>
  <line x2="31.979" style="fill-rule:evenodd;clip-rule:evenodd;fill:none;stroke:#EC008C;stroke-width:0.43;" y1="-71.714" x1="31.979" y2="0"/>
  <line x2="33.917" style="fill-rule:evenodd;clip-rule:evenodd;fill:none;stroke:#EC008C;stroke-width:0.43;" y1="-71.714" x1="33.917" y2="0"/>
  <line x2="35.854" style="fill-rule:evenodd;clip-rule:evenodd;fill:none;stroke:#EC008C;stroke-width:0.43;" y1="-71.714" x1="35.854" y2="0"/>
  <line x2="37.792" style="fill-rule:evenodd;clip-rule:evenodd;fill:none;stroke:#EC008C;stroke-width:0.43;" y1="-71.714" x1="37.792" y2="0"/>
  <line x2="39.729" style="fill-rule:evenodd;clip-rule:evenodd;fill:none;stroke:#EC008C;stroke-width:0.43;" y1="-71.714" x1="39.729" y2="0"/>
  <line x2="41.667" style="fill-rule:evenodd;clip-rule:evenodd;fill:none;stroke:#EC008C;stroke-width:0.43;" y1="-71.714" x1="41.667" y2="0"/>
  <line x2="43.604" style="fill-rule:evenodd;clip-rule:evenodd;fill:none;stroke:#EC008C;stroke-width:0.43;" y1="-71.714" x1="43.604" y2="0"/>
  <line x2="45.542" style="fill-rule:evenodd;clip-rule:evenodd;fill:none;stroke:#EC008C;stroke-width:0.43;" y1="-71.714" x1="45.542" y2="0"/>
  <line x2="47.479" style="fill-rule:evenodd;clip-rule:evenodd;fill:none;stroke:#EC008C;stroke-width:0.43;" y1="-71.714" x1="47.479" y2="0"/>
  <line x2="49.417" style="fill-rule:evenodd;clip-rule:evenodd;fill:none;stroke:#EC008C;stroke-width:0.43;" y1="-71.714" x1="49.417" y2="0"/>
  <line x2="51.354" style="fill-rule:evenodd;clip-rule:evenodd;fill:none;stroke:#EC008C;stroke-width:0.43;" y1="-71.714" x1="51.354" y2="0"/>
  <line x2="53.292" style="fill-rule:evenodd;clip-rule:evenodd;fill:none;stroke:#EC008C;stroke-width:0.43;" y1="-71.714" x1="53.292" y2="0"/>
  <line x2="55.229" style="fill-rule:evenodd;clip-rule:evenodd;fill:none;stroke:#EC008C;stroke-width:0.43;" y1="-71.714" x1="55.229" y2="0"/>
  <line x2="57.167" style="fill-rule:evenodd;clip-rule:evenodd;fill:none;stroke:#EC008C;stroke-width:0.43;" y1="-71.714" x1="57.167" y2="0"/>
  <line x2="59.104" style="fill-rule:evenodd;clip-rule:evenodd;fill:none;stroke:#EC008C;stroke-width:0.43;" y1="-71.714" x1="59.104" y2="0"/>
  <line x2="61.042" style="fill-rule:evenodd;clip-rule:evenodd;fill:none;stroke:#EC008C;stroke-width:0.43;" y1="-71.714" x1="61.042" y2="0"/>
  <line x2="62.979" style="fill-rule:evenodd;clip-rule:evenodd;fill:none;stroke:#EC008C;stroke-width:0.43;" y1="-71.714" x1="62.979" y2="0"/>
  <line x2="64.916" style="fill-rule:evenodd;clip-rule:evenodd;fill:none;stroke:#EC008C;stroke-width:0.43;" y1="-71.714" x1="64.916" y2="0"/>
  <line x2="66.854" style="fill-rule:evenodd;clip-rule:evenodd;fill:none;stroke:#EC008C;stroke-width:0.43;" y1="-71.714" x1="66.854" y2="0"/>
  <line x2="68.791" style="fill-rule:evenodd;clip-rule:evenodd;fill:none;stroke:#EC008C;stroke-width:0.43;" y1="-71.714" x1="68.791" y2="0"/>
  <line x2="70.729" style="fill-rule:evenodd;clip-rule:evenodd;fill:none;stroke:#EC008C;stroke-width:0.43;" y1="-71.714" x1="70.729" y2="0"/>
 </g>
</svg>
