<?xml version="1.0"?>
<!-- Converted with SVG Converter - Version 0.9.5 (Compiled Fri Feb 21 09:53:38 2020) - Copyright (C) 2011 Nokia -->
<svg xmlns="http://www.w3.org/2000/svg" width="73.642" height="73.643" version="1.1" xml:space="preserve" xmlns:xlink="http://www.w3.org/1999/xlink" viewBox="0 -73.642 73.642 73.643" y="0px" baseProfile="tiny" x="0px">
 <g>
  <rect width="73.642" height="73.643" y="-73.642" style="fill:none;" x="0"/>
  <line y1="-73.642" x2="1.192" y2="0" style="fill-rule:evenodd;clip-rule:evenodd;fill:none;stroke:#000000;stroke-width:0.6;" x1="1.192"/>
  <line y1="-73.642" x2="3.567" y2="0" style="fill-rule:evenodd;clip-rule:evenodd;fill:none;stroke:#000000;stroke-width:0.6;" x1="3.567"/>
  <line y1="-73.642" x2="5.942" y2="0" style="fill-rule:evenodd;clip-rule:evenodd;fill:none;stroke:#000000;stroke-width:0.6;" x1="5.942"/>
  <line y1="-73.642" x2="8.317" y2="0" style="fill-rule:evenodd;clip-rule:evenodd;fill:none;stroke:#000000;stroke-width:0.6;" x1="8.317"/>
  <line y1="-73.642" x2="10.692" y2="0" style="fill-rule:evenodd;clip-rule:evenodd;fill:none;stroke:#000000;stroke-width:0.6;" x1="10.692"/>
  <line y1="-73.642" x2="13.067" y2="0" style="fill-rule:evenodd;clip-rule:evenodd;fill:none;stroke:#000000;stroke-width:0.6;" x1="13.067"/>
  <line y1="-73.642" x2="15.442" y2="0" style="fill-rule:evenodd;clip-rule:evenodd;fill:none;stroke:#000000;stroke-width:0.6;" x1="15.442"/>
  <line y1="-73.642" x2="17.817" y2="0" style="fill-rule:evenodd;clip-rule:evenodd;fill:none;stroke:#000000;stroke-width:0.6;" x1="17.817"/>
  <line y1="-73.642" x2="20.192" y2="0" style="fill-rule:evenodd;clip-rule:evenodd;fill:none;stroke:#000000;stroke-width:0.6;" x1="20.192"/>
  <line y1="-73.642" x2="22.567" y2="0" style="fill-rule:evenodd;clip-rule:evenodd;fill:none;stroke:#000000;stroke-width:0.6;" x1="22.567"/>
  <line y1="-73.642" x2="24.942" y2="0" style="fill-rule:evenodd;clip-rule:evenodd;fill:none;stroke:#000000;stroke-width:0.6;" x1="24.942"/>
  <line y1="-73.642" x2="27.317" y2="0" style="fill-rule:evenodd;clip-rule:evenodd;fill:none;stroke:#000000;stroke-width:0.6;" x1="27.317"/>
  <line y1="-73.642" x2="29.692" y2="0" style="fill-rule:evenodd;clip-rule:evenodd;fill:none;stroke:#000000;stroke-width:0.6;" x1="29.692"/>
  <line y1="-73.642" x2="32.067" y2="0" style="fill-rule:evenodd;clip-rule:evenodd;fill:none;stroke:#000000;stroke-width:0.6;" x1="32.067"/>
  <line y1="-73.642" x2="34.442" y2="0" style="fill-rule:evenodd;clip-rule:evenodd;fill:none;stroke:#000000;stroke-width:0.6;" x1="34.442"/>
  <line y1="-73.642" x2="36.817" y2="0" style="fill-rule:evenodd;clip-rule:evenodd;fill:none;stroke:#000000;stroke-width:0.6;" x1="36.817"/>
  <line y1="-73.642" x2="39.192" y2="0" style="fill-rule:evenodd;clip-rule:evenodd;fill:none;stroke:#000000;stroke-width:0.6;" x1="39.192"/>
  <line y1="-73.642" x2="41.567" y2="0" style="fill-rule:evenodd;clip-rule:evenodd;fill:none;stroke:#000000;stroke-width:0.6;" x1="41.567"/>
  <line y1="-73.642" x2="43.942" y2="0" style="fill-rule:evenodd;clip-rule:evenodd;fill:none;stroke:#000000;stroke-width:0.6;" x1="43.942"/>
  <line y1="-73.642" x2="46.317" y2="0" style="fill-rule:evenodd;clip-rule:evenodd;fill:none;stroke:#000000;stroke-width:0.6;" x1="46.317"/>
  <line y1="-73.642" x2="48.692" y2="0" style="fill-rule:evenodd;clip-rule:evenodd;fill:none;stroke:#000000;stroke-width:0.6;" x1="48.692"/>
  <line y1="-73.642" x2="51.067" y2="0" style="fill-rule:evenodd;clip-rule:evenodd;fill:none;stroke:#000000;stroke-width:0.6;" x1="51.067"/>
  <line y1="-73.642" x2="53.442" y2="0" style="fill-rule:evenodd;clip-rule:evenodd;fill:none;stroke:#000000;stroke-width:0.6;" x1="53.442"/>
  <line y1="-73.642" x2="55.817" y2="0" style="fill-rule:evenodd;clip-rule:evenodd;fill:none;stroke:#000000;stroke-width:0.6;" x1="55.817"/>
  <line y1="-73.642" x2="58.192" y2="0" style="fill-rule:evenodd;clip-rule:evenodd;fill:none;stroke:#000000;stroke-width:0.6;" x1="58.192"/>
  <line y1="-73.642" x2="60.567" y2="0" style="fill-rule:evenodd;clip-rule:evenodd;fill:none;stroke:#000000;stroke-width:0.6;" x1="60.567"/>
  <line y1="-73.642" x2="62.942" y2="0" style="fill-rule:evenodd;clip-rule:evenodd;fill:none;stroke:#000000;stroke-width:0.6;" x1="62.942"/>
  <line y1="-73.642" x2="65.317" y2="0" style="fill-rule:evenodd;clip-rule:evenodd;fill:none;stroke:#000000;stroke-width:0.6;" x1="65.317"/>
  <line y1="-73.642" x2="67.692" y2="0" style="fill-rule:evenodd;clip-rule:evenodd;fill:none;stroke:#000000;stroke-width:0.6;" x1="67.692"/>
  <line y1="-73.642" x2="70.067" y2="0" style="fill-rule:evenodd;clip-rule:evenodd;fill:none;stroke:#000000;stroke-width:0.6;" x1="70.067"/>
  <line y1="-73.642" x2="72.442" y2="0" style="fill-rule:evenodd;clip-rule:evenodd;fill:none;stroke:#000000;stroke-width:0.6;" x1="72.442"/>
 </g>
</svg>
