<?xml version="1.0"?>
<!-- Converted with SVG Converter - Version 0.9.5 (Compiled Fri Feb 21 09:53:38 2020) - Copyright (C) 2011 Nokia -->
<svg xmlns="http://www.w3.org/2000/svg" viewBox="1.083 -79.742 75.642 75.642" height="75.642" baseProfile="tiny" x="0px" y="0px" xmlns:xlink="http://www.w3.org/1999/xlink" version="1.1" xml:space="preserve" width="75.642">
 <g>
  <rect height="75.642" x="1.083" y="-79.742" style="fill:none;" width="75.642"/>
  <rect height="75.642" x="1.083" y="-79.742" width="75.642"/>
  <line y2="-4.1" style="fill-rule:evenodd;clip-rule:evenodd;fill:none;stroke:#FFFFFF;stroke-width:0.7;" x2="2.4" y1="-79.742" x1="2.4"/>
  <line y2="-4.1" style="fill-rule:evenodd;clip-rule:evenodd;fill:none;stroke:#FFFFFF;stroke-width:1.55;" x2="4.919" y1="-79.742" x1="4.919"/>
  <line y2="-4.1" style="fill-rule:evenodd;clip-rule:evenodd;fill:none;stroke:#FFFFFF;stroke-width:0.7;" x2="7.438" y1="-79.742" x1="7.438"/>
  <line y2="-4.1" style="fill-rule:evenodd;clip-rule:evenodd;fill:none;stroke:#FFFFFF;stroke-width:1.55;" x2="9.958" y1="-79.742" x1="9.958"/>
  <line y2="-4.1" style="fill-rule:evenodd;clip-rule:evenodd;fill:none;stroke:#FFFFFF;stroke-width:0.7;" x2="12.477" y1="-79.742" x1="12.477"/>
  <line y2="-4.1" style="fill-rule:evenodd;clip-rule:evenodd;fill:none;stroke:#FFFFFF;stroke-width:1.55;" x2="14.996" y1="-79.742" x1="14.996"/>
  <line y2="-4.1" style="fill-rule:evenodd;clip-rule:evenodd;fill:none;stroke:#FFFFFF;stroke-width:0.7;" x2="17.515" y1="-79.742" x1="17.515"/>
  <line y2="-4.1" style="fill-rule:evenodd;clip-rule:evenodd;fill:none;stroke:#FFFFFF;stroke-width:1.55;" x2="20.034" y1="-79.742" x1="20.034"/>
  <line y2="-4.1" style="fill-rule:evenodd;clip-rule:evenodd;fill:none;stroke:#FFFFFF;stroke-width:0.7;" x2="22.553" y1="-79.742" x1="22.553"/>
  <line y2="-4.1" style="fill-rule:evenodd;clip-rule:evenodd;fill:none;stroke:#FFFFFF;stroke-width:1.55;" x2="25.072" y1="-79.742" x1="25.072"/>
  <line y2="-4.1" style="fill-rule:evenodd;clip-rule:evenodd;fill:none;stroke:#FFFFFF;stroke-width:0.7;" x2="27.592" y1="-79.742" x1="27.592"/>
  <line y2="-4.1" style="fill-rule:evenodd;clip-rule:evenodd;fill:none;stroke:#FFFFFF;stroke-width:1.55;" x2="30.111" y1="-79.742" x1="30.111"/>
  <line y2="-4.1" style="fill-rule:evenodd;clip-rule:evenodd;fill:none;stroke:#FFFFFF;stroke-width:0.7;" x2="32.63" y1="-79.742" x1="32.63"/>
  <line y2="-4.1" style="fill-rule:evenodd;clip-rule:evenodd;fill:none;stroke:#FFFFFF;stroke-width:1.55;" x2="35.149" y1="-79.742" x1="35.149"/>
  <line y2="-4.1" style="fill-rule:evenodd;clip-rule:evenodd;fill:none;stroke:#FFFFFF;stroke-width:0.7;" x2="37.668" y1="-79.742" x1="37.668"/>
  <line y2="-4.1" style="fill-rule:evenodd;clip-rule:evenodd;fill:none;stroke:#FFFFFF;stroke-width:1.55;" x2="40.188" y1="-79.742" x1="40.188"/>
  <line y2="-4.1" style="fill-rule:evenodd;clip-rule:evenodd;fill:none;stroke:#FFFFFF;stroke-width:0.7;" x2="42.707" y1="-79.742" x1="42.707"/>
  <line y2="-4.1" style="fill-rule:evenodd;clip-rule:evenodd;fill:none;stroke:#FFFFFF;stroke-width:1.55;" x2="45.226" y1="-79.742" x1="45.226"/>
  <line y2="-4.1" style="fill-rule:evenodd;clip-rule:evenodd;fill:none;stroke:#FFFFFF;stroke-width:0.7;" x2="47.745" y1="-79.742" x1="47.745"/>
  <line y2="-4.1" style="fill-rule:evenodd;clip-rule:evenodd;fill:none;stroke:#FFFFFF;stroke-width:1.55;" x2="50.264" y1="-79.742" x1="50.264"/>
  <line y2="-4.1" style="fill-rule:evenodd;clip-rule:evenodd;fill:none;stroke:#FFFFFF;stroke-width:0.7;" x2="52.783" y1="-79.742" x1="52.783"/>
  <line y2="-4.1" style="fill-rule:evenodd;clip-rule:evenodd;fill:none;stroke:#FFFFFF;stroke-width:1.55;" x2="55.302" y1="-79.742" x1="55.302"/>
  <line y2="-4.1" style="fill-rule:evenodd;clip-rule:evenodd;fill:none;stroke:#FFFFFF;stroke-width:0.7;" x2="57.822" y1="-79.742" x1="57.822"/>
  <line y2="-4.1" style="fill-rule:evenodd;clip-rule:evenodd;fill:none;stroke:#FFFFFF;stroke-width:1.55;" x2="60.341" y1="-79.742" x1="60.341"/>
  <line y2="-4.1" style="fill-rule:evenodd;clip-rule:evenodd;fill:none;stroke:#FFFFFF;stroke-width:0.7;" x2="62.86" y1="-79.742" x1="62.86"/>
  <line y2="-4.1" style="fill-rule:evenodd;clip-rule:evenodd;fill:none;stroke:#FFFFFF;stroke-width:1.55;" x2="65.379" y1="-79.742" x1="65.379"/>
  <line y2="-4.1" style="fill-rule:evenodd;clip-rule:evenodd;fill:none;stroke:#FFFFFF;stroke-width:0.7;" x2="67.898" y1="-79.742" x1="67.898"/>
  <line y2="-4.1" style="fill-rule:evenodd;clip-rule:evenodd;fill:none;stroke:#FFFFFF;stroke-width:1.55;" x2="70.418" y1="-79.742" x1="70.418"/>
  <line y2="-4.1" style="fill-rule:evenodd;clip-rule:evenodd;fill:none;stroke:#FFFFFF;stroke-width:0.7;" x2="72.937" y1="-79.742" x1="72.937"/>
  <line y2="-4.1" style="fill-rule:evenodd;clip-rule:evenodd;fill:none;stroke:#FFFFFF;stroke-width:1.55;" x2="75.456" y1="-79.742" x1="75.456"/>
 </g>
</svg>
