<?xml version="1.0"?>
<!-- Converted with SVG Converter - Version 0.9.5 (Compiled Fri Feb 21 09:53:38 2020) - Copyright (C) 2011 Nokia -->
<svg xmlns="http://www.w3.org/2000/svg" x="0px" baseProfile="tiny" version="1.1" height="74.286" y="0px" xml:space="preserve" width="74.285" viewBox="0 -74.286 74.285 74.286" xmlns:xlink="http://www.w3.org/1999/xlink">
 <g>
  <rect x="0" height="74.286" y="-74.286" width="74.285" style="fill:none;"/>
  <line y1="-74.286" x2="2.041" x1="2.041" y2="0" style="fill-rule:evenodd;clip-rule:evenodd;fill:none;stroke:#EC008C;stroke-width:0.43;"/>
  <line y1="-74.286" x2="6.166" x1="6.166" y2="0" style="fill-rule:evenodd;clip-rule:evenodd;fill:none;stroke:#EC008C;stroke-width:0.7;"/>
  <line y1="-74.286" x2="10.291" x1="10.291" y2="0" style="fill-rule:evenodd;clip-rule:evenodd;fill:none;stroke:#EC008C;stroke-width:0.43;"/>
  <line y1="-74.286" x2="14.416" x1="14.416" y2="0" style="fill-rule:evenodd;clip-rule:evenodd;fill:none;stroke:#EC008C;stroke-width:0.7;"/>
  <line y1="-74.286" x2="18.541" x1="18.541" y2="0" style="fill-rule:evenodd;clip-rule:evenodd;fill:none;stroke:#EC008C;stroke-width:0.43;"/>
  <line y1="-74.286" x2="22.666" x1="22.666" y2="0" style="fill-rule:evenodd;clip-rule:evenodd;fill:none;stroke:#EC008C;stroke-width:0.7;"/>
  <line y1="-74.286" x2="26.791" x1="26.791" y2="0" style="fill-rule:evenodd;clip-rule:evenodd;fill:none;stroke:#EC008C;stroke-width:0.43;"/>
  <line y1="-74.286" x2="30.916" x1="30.916" y2="0" style="fill-rule:evenodd;clip-rule:evenodd;fill:none;stroke:#EC008C;stroke-width:0.7;"/>
  <line y1="-74.286" x2="35.041" x1="35.041" y2="0" style="fill-rule:evenodd;clip-rule:evenodd;fill:none;stroke:#EC008C;stroke-width:0.43;"/>
  <line y1="-74.286" x2="39.166" x1="39.166" y2="0" style="fill-rule:evenodd;clip-rule:evenodd;fill:none;stroke:#EC008C;stroke-width:0.7;"/>
  <line y1="-74.286" x2="43.291" x1="43.291" y2="0" style="fill-rule:evenodd;clip-rule:evenodd;fill:none;stroke:#EC008C;stroke-width:0.43;"/>
  <line y1="-74.286" x2="47.416" x1="47.416" y2="0" style="fill-rule:evenodd;clip-rule:evenodd;fill:none;stroke:#EC008C;stroke-width:0.7;"/>
  <line y1="-74.286" x2="51.541" x1="51.541" y2="0" style="fill-rule:evenodd;clip-rule:evenodd;fill:none;stroke:#EC008C;stroke-width:0.43;"/>
  <line y1="-74.286" x2="55.666" x1="55.666" y2="0" style="fill-rule:evenodd;clip-rule:evenodd;fill:none;stroke:#EC008C;stroke-width:0.7;"/>
  <line y1="-74.286" x2="59.791" x1="59.791" y2="0" style="fill-rule:evenodd;clip-rule:evenodd;fill:none;stroke:#EC008C;stroke-width:0.43;"/>
  <line y1="-74.286" x2="63.916" x1="63.916" y2="0" style="fill-rule:evenodd;clip-rule:evenodd;fill:none;stroke:#EC008C;stroke-width:0.7;"/>
  <line y1="-74.286" x2="68.041" x1="68.041" y2="0" style="fill-rule:evenodd;clip-rule:evenodd;fill:none;stroke:#EC008C;stroke-width:0.43;"/>
  <line y1="-74.286" x2="72.166" x1="72.166" y2="0" style="fill-rule:evenodd;clip-rule:evenodd;fill:none;stroke:#EC008C;stroke-width:0.7;"/>
 </g>
</svg>
