<?xml version="1.0"?>
<!-- Converted with SVG Converter - Version 0.9.5 (Compiled Fri Feb 21 09:53:38 2020) - Copyright (C) 2011 Nokia -->
<svg xmlns="http://www.w3.org/2000/svg" xmlns:xlink="http://www.w3.org/1999/xlink" x="0px" height="72.857" y="0px" xml:space="preserve" viewBox="1 -74.517 72.857 72.857" width="72.857" baseProfile="tiny" version="1.1">
 <g>
  <rect x="1" height="72.857" y="-74.517" width="72.857" style="fill:none;"/>
  <line y2="-1.66" x2="1.794" x1="1.794" y1="-74.517" style="fill-rule:evenodd;clip-rule:evenodd;fill:none;stroke:#000000;stroke-width:0.33;"/>
  <line y2="-1.66" x2="3.378" x1="3.378" y1="-74.517" style="fill-rule:evenodd;clip-rule:evenodd;fill:none;stroke:#000000;stroke-width:0.33;"/>
  <line y2="-1.66" x2="4.961" x1="4.961" y1="-74.517" style="fill-rule:evenodd;clip-rule:evenodd;fill:none;stroke:#000000;stroke-width:0.33;"/>
  <line y2="-1.66" x2="6.544" x1="6.544" y1="-74.517" style="fill-rule:evenodd;clip-rule:evenodd;fill:none;stroke:#000000;stroke-width:0.33;"/>
  <line y2="-1.66" x2="8.127" x1="8.127" y1="-74.517" style="fill-rule:evenodd;clip-rule:evenodd;fill:none;stroke:#000000;stroke-width:0.33;"/>
  <line y2="-1.66" x2="9.71" x1="9.71" y1="-74.517" style="fill-rule:evenodd;clip-rule:evenodd;fill:none;stroke:#000000;stroke-width:0.33;"/>
  <line y2="-1.66" x2="11.293" x1="11.293" y1="-74.517" style="fill-rule:evenodd;clip-rule:evenodd;fill:none;stroke:#000000;stroke-width:0.33;"/>
  <line y2="-1.66" x2="12.877" x1="12.877" y1="-74.517" style="fill-rule:evenodd;clip-rule:evenodd;fill:none;stroke:#000000;stroke-width:0.33;"/>
  <line y2="-1.66" x2="14.46" x1="14.46" y1="-74.517" style="fill-rule:evenodd;clip-rule:evenodd;fill:none;stroke:#000000;stroke-width:0.33;"/>
  <line y2="-1.66" x2="16.043" x1="16.043" y1="-74.517" style="fill-rule:evenodd;clip-rule:evenodd;fill:none;stroke:#000000;stroke-width:0.33;"/>
  <line y2="-1.66" x2="17.626" x1="17.626" y1="-74.517" style="fill-rule:evenodd;clip-rule:evenodd;fill:none;stroke:#000000;stroke-width:0.33;"/>
  <line y2="-1.66" x2="19.209" x1="19.209" y1="-74.517" style="fill-rule:evenodd;clip-rule:evenodd;fill:none;stroke:#000000;stroke-width:0.33;"/>
  <line y2="-1.66" x2="20.792" x1="20.792" y1="-74.517" style="fill-rule:evenodd;clip-rule:evenodd;fill:none;stroke:#000000;stroke-width:0.33;"/>
  <line y2="-1.66" x2="22.375" x1="22.375" y1="-74.517" style="fill-rule:evenodd;clip-rule:evenodd;fill:none;stroke:#000000;stroke-width:0.33;"/>
  <line y2="-1.66" x2="23.958" x1="23.958" y1="-74.517" style="fill-rule:evenodd;clip-rule:evenodd;fill:none;stroke:#000000;stroke-width:0.33;"/>
  <line y2="-1.66" x2="25.542" x1="25.542" y1="-74.517" style="fill-rule:evenodd;clip-rule:evenodd;fill:none;stroke:#000000;stroke-width:0.33;"/>
  <line y2="-1.66" x2="27.125" x1="27.125" y1="-74.517" style="fill-rule:evenodd;clip-rule:evenodd;fill:none;stroke:#000000;stroke-width:0.33;"/>
  <line y2="-1.66" x2="28.708" x1="28.708" y1="-74.517" style="fill-rule:evenodd;clip-rule:evenodd;fill:none;stroke:#000000;stroke-width:0.33;"/>
  <line y2="-1.66" x2="30.291" x1="30.291" y1="-74.517" style="fill-rule:evenodd;clip-rule:evenodd;fill:none;stroke:#000000;stroke-width:0.33;"/>
  <line y2="-1.66" x2="31.874" x1="31.874" y1="-74.517" style="fill-rule:evenodd;clip-rule:evenodd;fill:none;stroke:#000000;stroke-width:0.33;"/>
  <line y2="-1.66" x2="33.457" x1="33.457" y1="-74.517" style="fill-rule:evenodd;clip-rule:evenodd;fill:none;stroke:#000000;stroke-width:0.33;"/>
  <line y2="-1.66" x2="35.041" x1="35.041" y1="-74.517" style="fill-rule:evenodd;clip-rule:evenodd;fill:none;stroke:#000000;stroke-width:0.33;"/>
  <line y2="-1.66" x2="36.624" x1="36.624" y1="-74.517" style="fill-rule:evenodd;clip-rule:evenodd;fill:none;stroke:#000000;stroke-width:0.33;"/>
  <line y2="-1.66" x2="38.207" x1="38.207" y1="-74.517" style="fill-rule:evenodd;clip-rule:evenodd;fill:none;stroke:#000000;stroke-width:0.33;"/>
  <line y2="-1.66" x2="39.79" x1="39.79" y1="-74.517" style="fill-rule:evenodd;clip-rule:evenodd;fill:none;stroke:#000000;stroke-width:0.33;"/>
  <line y2="-1.66" x2="41.373" x1="41.373" y1="-74.517" style="fill-rule:evenodd;clip-rule:evenodd;fill:none;stroke:#000000;stroke-width:0.33;"/>
  <line y2="-1.66" x2="42.956" x1="42.956" y1="-74.517" style="fill-rule:evenodd;clip-rule:evenodd;fill:none;stroke:#000000;stroke-width:0.33;"/>
  <line y2="-1.66" x2="44.539" x1="44.539" y1="-74.517" style="fill-rule:evenodd;clip-rule:evenodd;fill:none;stroke:#000000;stroke-width:0.33;"/>
  <line y2="-1.66" x2="46.122" x1="46.122" y1="-74.517" style="fill-rule:evenodd;clip-rule:evenodd;fill:none;stroke:#000000;stroke-width:0.33;"/>
  <line y2="-1.66" x2="47.706" x1="47.706" y1="-74.517" style="fill-rule:evenodd;clip-rule:evenodd;fill:none;stroke:#000000;stroke-width:0.33;"/>
  <line y2="-1.66" x2="49.289" x1="49.289" y1="-74.517" style="fill-rule:evenodd;clip-rule:evenodd;fill:none;stroke:#000000;stroke-width:0.33;"/>
  <line y2="-1.66" x2="50.872" x1="50.872" y1="-74.517" style="fill-rule:evenodd;clip-rule:evenodd;fill:none;stroke:#000000;stroke-width:0.33;"/>
  <line y2="-1.66" x2="52.455" x1="52.455" y1="-74.517" style="fill-rule:evenodd;clip-rule:evenodd;fill:none;stroke:#000000;stroke-width:0.33;"/>
  <line y2="-1.66" x2="54.038" x1="54.038" y1="-74.517" style="fill-rule:evenodd;clip-rule:evenodd;fill:none;stroke:#000000;stroke-width:0.33;"/>
  <line y2="-1.66" x2="55.621" x1="55.621" y1="-74.517" style="fill-rule:evenodd;clip-rule:evenodd;fill:none;stroke:#000000;stroke-width:0.33;"/>
  <line y2="-1.66" x2="57.204" x1="57.204" y1="-74.517" style="fill-rule:evenodd;clip-rule:evenodd;fill:none;stroke:#000000;stroke-width:0.33;"/>
  <line y2="-1.66" x2="58.787" x1="58.787" y1="-74.517" style="fill-rule:evenodd;clip-rule:evenodd;fill:none;stroke:#000000;stroke-width:0.33;"/>
  <line y2="-1.66" x2="60.371" x1="60.371" y1="-74.517" style="fill-rule:evenodd;clip-rule:evenodd;fill:none;stroke:#000000;stroke-width:0.33;"/>
  <line y2="-1.66" x2="61.954" x1="61.954" y1="-74.517" style="fill-rule:evenodd;clip-rule:evenodd;fill:none;stroke:#000000;stroke-width:0.33;"/>
  <line y2="-1.66" x2="63.537" x1="63.537" y1="-74.517" style="fill-rule:evenodd;clip-rule:evenodd;fill:none;stroke:#000000;stroke-width:0.33;"/>
  <line y2="-1.66" x2="65.12" x1="65.12" y1="-74.517" style="fill-rule:evenodd;clip-rule:evenodd;fill:none;stroke:#000000;stroke-width:0.33;"/>
  <line y2="-1.66" x2="66.703" x1="66.703" y1="-74.517" style="fill-rule:evenodd;clip-rule:evenodd;fill:none;stroke:#000000;stroke-width:0.33;"/>
  <line y2="-1.66" x2="68.286" x1="68.286" y1="-74.517" style="fill:none;stroke:#000000;stroke-width:0.33;"/>
  <line y2="-1.66" x2="69.869" x1="69.869" y1="-74.517" style="fill-rule:evenodd;clip-rule:evenodd;fill:none;stroke:#000000;stroke-width:0.33;"/>
  <line y2="-1.66" x2="71.452" x1="71.452" y1="-74.517" style="fill-rule:evenodd;clip-rule:evenodd;fill:none;stroke:#000000;stroke-width:0.33;"/>
  <line y2="-1.66" x2="73.045" x1="73.045" y1="-74.517" style="fill-rule:evenodd;clip-rule:evenodd;fill:none;stroke:#000000;stroke-width:0.33;"/>
 </g>
</svg>
