<?xml version="1.0"?>
<!-- Converted with SVG Converter - Version 0.9.5 (Compiled Fri Feb 21 09:53:38 2020) - Copyright (C) 2011 Nokia -->
<svg xmlns="http://www.w3.org/2000/svg" x="0px" xmlns:xlink="http://www.w3.org/1999/xlink" width="72.857" height="72.857" viewBox="1.066 -74.717 72.857 72.857" baseProfile="tiny" xml:space="preserve" version="1.1" y="0px">
 <g>
  <rect style="fill:none;" x="1.066" width="72.857" height="72.857" y="-74.717"/>
  <rect x="1.066" width="72.857" height="72.857" y="-74.717"/>
  <line style="fill-rule:evenodd;clip-rule:evenodd;fill:none;stroke:#FFFFFF;stroke-width:0.43;" x2="1.86" y2="-1.86" y1="-74.717" x1="1.86"/>
  <line style="fill-rule:evenodd;clip-rule:evenodd;fill:none;stroke:#FFFFFF;stroke-width:0.43;" x2="3.444" y2="-1.86" y1="-74.717" x1="3.444"/>
  <line style="fill-rule:evenodd;clip-rule:evenodd;fill:none;stroke:#FFFFFF;stroke-width:0.43;" x2="5.027" y2="-1.86" y1="-74.717" x1="5.027"/>
  <line style="fill-rule:evenodd;clip-rule:evenodd;fill:none;stroke:#FFFFFF;stroke-width:0.43;" x2="6.61" y2="-1.86" y1="-74.717" x1="6.61"/>
  <line style="fill-rule:evenodd;clip-rule:evenodd;fill:none;stroke:#FFFFFF;stroke-width:0.43;" x2="8.193" y2="-1.86" y1="-74.717" x1="8.193"/>
  <line style="fill-rule:evenodd;clip-rule:evenodd;fill:none;stroke:#FFFFFF;stroke-width:0.43;" x2="9.776" y2="-1.86" y1="-74.717" x1="9.776"/>
  <line style="fill-rule:evenodd;clip-rule:evenodd;fill:none;stroke:#FFFFFF;stroke-width:0.43;" x2="11.359" y2="-1.86" y1="-74.717" x1="11.359"/>
  <line style="fill-rule:evenodd;clip-rule:evenodd;fill:none;stroke:#FFFFFF;stroke-width:0.43;" x2="12.942" y2="-1.86" y1="-74.717" x1="12.942"/>
  <line style="fill-rule:evenodd;clip-rule:evenodd;fill:none;stroke:#FFFFFF;stroke-width:0.43;" x2="14.525" y2="-1.86" y1="-74.717" x1="14.525"/>
  <line style="fill-rule:evenodd;clip-rule:evenodd;fill:none;stroke:#FFFFFF;stroke-width:0.43;" x2="16.109" y2="-1.86" y1="-74.717" x1="16.109"/>
  <line style="fill-rule:evenodd;clip-rule:evenodd;fill:none;stroke:#FFFFFF;stroke-width:0.43;" x2="17.692" y2="-1.86" y1="-74.717" x1="17.692"/>
  <line style="fill-rule:evenodd;clip-rule:evenodd;fill:none;stroke:#FFFFFF;stroke-width:0.43;" x2="19.275" y2="-1.86" y1="-74.717" x1="19.275"/>
  <line style="fill-rule:evenodd;clip-rule:evenodd;fill:none;stroke:#FFFFFF;stroke-width:0.43;" x2="20.858" y2="-1.86" y1="-74.717" x1="20.858"/>
  <line style="fill-rule:evenodd;clip-rule:evenodd;fill:none;stroke:#FFFFFF;stroke-width:0.43;" x2="22.441" y2="-1.86" y1="-74.717" x1="22.441"/>
  <line style="fill-rule:evenodd;clip-rule:evenodd;fill:none;stroke:#FFFFFF;stroke-width:0.43;" x2="24.024" y2="-1.86" y1="-74.717" x1="24.024"/>
  <line style="fill-rule:evenodd;clip-rule:evenodd;fill:none;stroke:#FFFFFF;stroke-width:0.43;" x2="25.607" y2="-1.86" y1="-74.717" x1="25.607"/>
  <line style="fill-rule:evenodd;clip-rule:evenodd;fill:none;stroke:#FFFFFF;stroke-width:0.43;" x2="27.19" y2="-1.86" y1="-74.717" x1="27.19"/>
  <line style="fill-rule:evenodd;clip-rule:evenodd;fill:none;stroke:#FFFFFF;stroke-width:0.43;" x2="28.774" y2="-1.86" y1="-74.717" x1="28.774"/>
  <line style="fill-rule:evenodd;clip-rule:evenodd;fill:none;stroke:#FFFFFF;stroke-width:0.43;" x2="30.357" y2="-1.86" y1="-74.717" x1="30.357"/>
  <line style="fill-rule:evenodd;clip-rule:evenodd;fill:none;stroke:#FFFFFF;stroke-width:0.43;" x2="31.94" y2="-1.86" y1="-74.717" x1="31.94"/>
  <line style="fill-rule:evenodd;clip-rule:evenodd;fill:none;stroke:#FFFFFF;stroke-width:0.43;" x2="33.523" y2="-1.86" y1="-74.717" x1="33.523"/>
  <line style="fill-rule:evenodd;clip-rule:evenodd;fill:none;stroke:#FFFFFF;stroke-width:0.43;" x2="35.106" y2="-1.86" y1="-74.717" x1="35.106"/>
  <line style="fill-rule:evenodd;clip-rule:evenodd;fill:none;stroke:#FFFFFF;stroke-width:0.43;" x2="36.689" y2="-1.86" y1="-74.717" x1="36.689"/>
  <line style="fill-rule:evenodd;clip-rule:evenodd;fill:none;stroke:#FFFFFF;stroke-width:0.43;" x2="38.272" y2="-1.86" y1="-74.717" x1="38.272"/>
  <line style="fill-rule:evenodd;clip-rule:evenodd;fill:none;stroke:#FFFFFF;stroke-width:0.43;" x2="39.855" y2="-1.86" y1="-74.717" x1="39.855"/>
  <line style="fill-rule:evenodd;clip-rule:evenodd;fill:none;stroke:#FFFFFF;stroke-width:0.43;" x2="41.439" y2="-1.86" y1="-74.717" x1="41.439"/>
  <line style="fill-rule:evenodd;clip-rule:evenodd;fill:none;stroke:#FFFFFF;stroke-width:0.43;" x2="43.022" y2="-1.86" y1="-74.717" x1="43.022"/>
  <line style="fill-rule:evenodd;clip-rule:evenodd;fill:none;stroke:#FFFFFF;stroke-width:0.43;" x2="44.605" y2="-1.86" y1="-74.717" x1="44.605"/>
  <line style="fill-rule:evenodd;clip-rule:evenodd;fill:none;stroke:#FFFFFF;stroke-width:0.43;" x2="46.188" y2="-1.86" y1="-74.717" x1="46.188"/>
  <line style="fill-rule:evenodd;clip-rule:evenodd;fill:none;stroke:#FFFFFF;stroke-width:0.43;" x2="47.771" y2="-1.86" y1="-74.717" x1="47.771"/>
  <line style="fill-rule:evenodd;clip-rule:evenodd;fill:none;stroke:#FFFFFF;stroke-width:0.43;" x2="49.354" y2="-1.86" y1="-74.717" x1="49.354"/>
  <line style="fill-rule:evenodd;clip-rule:evenodd;fill:none;stroke:#FFFFFF;stroke-width:0.43;" x2="50.938" y2="-1.86" y1="-74.717" x1="50.938"/>
  <line style="fill-rule:evenodd;clip-rule:evenodd;fill:none;stroke:#FFFFFF;stroke-width:0.43;" x2="52.521" y2="-1.86" y1="-74.717" x1="52.521"/>
  <line style="fill-rule:evenodd;clip-rule:evenodd;fill:none;stroke:#FFFFFF;stroke-width:0.43;" x2="54.104" y2="-1.86" y1="-74.717" x1="54.104"/>
  <line style="fill-rule:evenodd;clip-rule:evenodd;fill:none;stroke:#FFFFFF;stroke-width:0.43;" x2="55.687" y2="-1.86" y1="-74.717" x1="55.687"/>
  <line style="fill-rule:evenodd;clip-rule:evenodd;fill:none;stroke:#FFFFFF;stroke-width:0.43;" x2="57.27" y2="-1.86" y1="-74.717" x1="57.27"/>
  <line style="fill-rule:evenodd;clip-rule:evenodd;fill:none;stroke:#FFFFFF;stroke-width:0.43;" x2="58.853" y2="-1.86" y1="-74.717" x1="58.853"/>
  <line style="fill-rule:evenodd;clip-rule:evenodd;fill:none;stroke:#FFFFFF;stroke-width:0.43;" x2="60.437" y2="-1.86" y1="-74.717" x1="60.437"/>
  <line style="fill-rule:evenodd;clip-rule:evenodd;fill:none;stroke:#FFFFFF;stroke-width:0.43;" x2="62.02" y2="-1.86" y1="-74.717" x1="62.02"/>
  <line style="fill-rule:evenodd;clip-rule:evenodd;fill:none;stroke:#FFFFFF;stroke-width:0.43;" x2="63.603" y2="-1.86" y1="-74.717" x1="63.603"/>
  <line style="fill-rule:evenodd;clip-rule:evenodd;fill:none;stroke:#FFFFFF;stroke-width:0.43;" x2="65.186" y2="-1.86" y1="-74.717" x1="65.186"/>
  <line style="fill-rule:evenodd;clip-rule:evenodd;fill:none;stroke:#FFFFFF;stroke-width:0.43;" x2="66.769" y2="-1.86" y1="-74.717" x1="66.769"/>
  <line style="fill:none;stroke:#FFFFFF;stroke-width:0.43;" x2="68.352" y2="-1.86" y1="-74.717" x1="68.352"/>
  <line style="fill-rule:evenodd;clip-rule:evenodd;fill:none;stroke:#FFFFFF;stroke-width:0.43;" x2="69.935" y2="-1.86" y1="-74.717" x1="69.935"/>
  <line style="fill-rule:evenodd;clip-rule:evenodd;fill:none;stroke:#FFFFFF;stroke-width:0.43;" x2="71.518" y2="-1.86" y1="-74.717" x1="71.518"/>
  <line style="fill-rule:evenodd;clip-rule:evenodd;fill:none;stroke:#FFFFFF;stroke-width:0.43;" x2="73.111" y2="-1.86" y1="-74.717" x1="73.111"/>
 </g>
</svg>
