<?xml version="1.0"?>
<!-- Converted with SVG Converter - Version 0.9.5 (Compiled Fri Feb 21 09:53:38 2020) - Copyright (C) 2011 Nokia -->
<svg xmlns="http://www.w3.org/2000/svg" xml:space="preserve" y="0px" width="74.499" x="0px" version="1.1" baseProfile="tiny" viewBox="0 -74.5 74.499 74.499" height="74.499" xmlns:xlink="http://www.w3.org/1999/xlink">
 <g>
  <rect y="-74.5" width="74.499" x="0" style="fill:none;" height="74.499"/>
  <line y2="0" y1="-74.5" x1="1.701" style="fill-rule:evenodd;clip-rule:evenodd;fill:none;stroke:#000000;stroke-width:1.55;" x2="1.701"/>
  <line y2="0" y1="-74.5" x1="4.94" style="fill-rule:evenodd;clip-rule:evenodd;fill:none;stroke:#000000;stroke-width:1.55;" x2="4.94"/>
  <line y2="0" y1="-74.5" x1="8.18" style="fill-rule:evenodd;clip-rule:evenodd;fill:none;stroke:#000000;stroke-width:1.55;" x2="8.18"/>
  <line y2="0" y1="-74.5" x1="11.42" style="fill-rule:evenodd;clip-rule:evenodd;fill:none;stroke:#000000;stroke-width:1.55;" x2="11.42"/>
  <line y2="0" y1="-74.5" x1="14.66" style="fill-rule:evenodd;clip-rule:evenodd;fill:none;stroke:#000000;stroke-width:1.55;" x2="14.66"/>
  <line y2="0" y1="-74.5" x1="17.9" style="fill:none;stroke:#000000;stroke-width:1.55;" x2="17.9"/>
  <line y2="0" y1="-74.5" x1="21.14" style="fill-rule:evenodd;clip-rule:evenodd;fill:none;stroke:#000000;stroke-width:1.55;" x2="21.14"/>
  <line y2="0" y1="-74.5" x1="24.38" style="fill-rule:evenodd;clip-rule:evenodd;fill:none;stroke:#000000;stroke-width:1.55;" x2="24.38"/>
  <line y2="0" y1="-74.5" x1="27.619" style="fill-rule:evenodd;clip-rule:evenodd;fill:none;stroke:#000000;stroke-width:1.55;" x2="27.619"/>
  <line y2="0" y1="-74.5" x1="30.859" style="fill-rule:evenodd;clip-rule:evenodd;fill:none;stroke:#000000;stroke-width:1.55;" x2="30.859"/>
  <line y2="0" y1="-74.5" x1="34.099" style="fill-rule:evenodd;clip-rule:evenodd;fill:none;stroke:#000000;stroke-width:1.55;" x2="34.099"/>
  <line y2="0" y1="-74.5" x1="37.339" style="fill-rule:evenodd;clip-rule:evenodd;fill:none;stroke:#000000;stroke-width:1.55;" x2="37.339"/>
  <line y2="0" y1="-74.5" x1="40.579" style="fill-rule:evenodd;clip-rule:evenodd;fill:none;stroke:#000000;stroke-width:1.55;" x2="40.579"/>
  <line y2="0" y1="-74.5" x1="43.819" style="fill-rule:evenodd;clip-rule:evenodd;fill:none;stroke:#000000;stroke-width:1.55;" x2="43.819"/>
  <line y2="0" y1="-74.5" x1="47.059" style="fill-rule:evenodd;clip-rule:evenodd;fill:none;stroke:#000000;stroke-width:1.55;" x2="47.059"/>
  <line y2="0" y1="-74.5" x1="50.299" style="fill-rule:evenodd;clip-rule:evenodd;fill:none;stroke:#000000;stroke-width:1.55;" x2="50.299"/>
  <line y2="0" y1="-74.5" x1="53.539" style="fill-rule:evenodd;clip-rule:evenodd;fill:none;stroke:#000000;stroke-width:1.55;" x2="53.539"/>
  <line y2="0" y1="-74.5" x1="56.778" style="fill-rule:evenodd;clip-rule:evenodd;fill:none;stroke:#000000;stroke-width:1.55;" x2="56.778"/>
  <line y2="0" y1="-74.5" x1="60.018" style="fill-rule:evenodd;clip-rule:evenodd;fill:none;stroke:#000000;stroke-width:1.55;" x2="60.018"/>
  <line y2="0" y1="-74.5" x1="63.258" style="fill-rule:evenodd;clip-rule:evenodd;fill:none;stroke:#000000;stroke-width:1.55;" x2="63.258"/>
  <line y2="0" y1="-74.5" x1="66.498" style="fill-rule:evenodd;clip-rule:evenodd;fill:none;stroke:#000000;stroke-width:1.55;" x2="66.498"/>
  <line y2="0" y1="-74.5" x1="69.738" style="fill-rule:evenodd;clip-rule:evenodd;fill:none;stroke:#000000;stroke-width:1.55;" x2="69.738"/>
  <line y2="0" y1="-74.5" x1="72.978" style="fill-rule:evenodd;clip-rule:evenodd;fill:none;stroke:#000000;stroke-width:1.55;" x2="72.978"/>
  <rect y="-74.5" width="74.499" x="0" style="fill-rule:evenodd;clip-rule:evenodd;fill:none;" height="74.499"/>
 </g>
</svg>
