<?xml version="1.0"?>
<!-- Converted with SVG Converter - Version 0.9.5 (Compiled Fri Feb 21 09:53:38 2020) - Copyright (C) 2011 Nokia -->
<svg xmlns="http://www.w3.org/2000/svg" y="0px" baseProfile="tiny" xmlns:xlink="http://www.w3.org/1999/xlink" height="74.499" version="1.1" x="0px" xml:space="preserve" width="74.499" viewBox="2.399 -78.6 74.499 74.499">
 <g>
  <rect y="-78.6" height="74.499" style="fill:none;" x="2.399" width="74.499"/>
  <line style="fill-rule:evenodd;clip-rule:evenodd;fill:none;stroke:#EC008C;stroke-width:1.55;" x2="4.1" y2="-4.1" y1="-78.6" x1="4.1"/>
  <line style="fill-rule:evenodd;clip-rule:evenodd;fill:none;stroke:#EC008C;stroke-width:1.55;" x2="7.34" y2="-4.1" y1="-78.6" x1="7.34"/>
  <line style="fill-rule:evenodd;clip-rule:evenodd;fill:none;stroke:#EC008C;stroke-width:1.55;" x2="10.58" y2="-4.1" y1="-78.6" x1="10.58"/>
  <line style="fill-rule:evenodd;clip-rule:evenodd;fill:none;stroke:#EC008C;stroke-width:1.55;" x2="13.82" y2="-4.1" y1="-78.6" x1="13.82"/>
  <line style="fill-rule:evenodd;clip-rule:evenodd;fill:none;stroke:#EC008C;stroke-width:1.55;" x2="17.06" y2="-4.1" y1="-78.6" x1="17.06"/>
  <line style="fill:none;stroke:#EC008C;stroke-width:1.55;" x2="20.299" y2="-4.1" y1="-78.6" x1="20.299"/>
  <line style="fill-rule:evenodd;clip-rule:evenodd;fill:none;stroke:#EC008C;stroke-width:1.55;" x2="23.539" y2="-4.1" y1="-78.6" x1="23.539"/>
  <line style="fill-rule:evenodd;clip-rule:evenodd;fill:none;stroke:#EC008C;stroke-width:1.55;" x2="26.779" y2="-4.1" y1="-78.6" x1="26.779"/>
  <line style="fill-rule:evenodd;clip-rule:evenodd;fill:none;stroke:#EC008C;stroke-width:1.55;" x2="30.019" y2="-4.1" y1="-78.6" x1="30.019"/>
  <line style="fill-rule:evenodd;clip-rule:evenodd;fill:none;stroke:#EC008C;stroke-width:1.55;" x2="33.259" y2="-4.1" y1="-78.6" x1="33.259"/>
  <line style="fill-rule:evenodd;clip-rule:evenodd;fill:none;stroke:#EC008C;stroke-width:1.55;" x2="36.499" y2="-4.1" y1="-78.6" x1="36.499"/>
  <line style="fill-rule:evenodd;clip-rule:evenodd;fill:none;stroke:#EC008C;stroke-width:1.55;" x2="39.738" y2="-4.1" y1="-78.6" x1="39.738"/>
  <line style="fill-rule:evenodd;clip-rule:evenodd;fill:none;stroke:#EC008C;stroke-width:1.55;" x2="42.979" y2="-4.1" y1="-78.6" x1="42.979"/>
  <line style="fill-rule:evenodd;clip-rule:evenodd;fill:none;stroke:#EC008C;stroke-width:1.55;" x2="46.218" y2="-4.1" y1="-78.6" x1="46.218"/>
  <line style="fill-rule:evenodd;clip-rule:evenodd;fill:none;stroke:#EC008C;stroke-width:1.55;" x2="49.458" y2="-4.1" y1="-78.6" x1="49.458"/>
  <line style="fill-rule:evenodd;clip-rule:evenodd;fill:none;stroke:#EC008C;stroke-width:1.55;" x2="52.698" y2="-4.1" y1="-78.6" x1="52.698"/>
  <line style="fill-rule:evenodd;clip-rule:evenodd;fill:none;stroke:#EC008C;stroke-width:1.55;" x2="55.938" y2="-4.1" y1="-78.6" x1="55.938"/>
  <line style="fill-rule:evenodd;clip-rule:evenodd;fill:none;stroke:#EC008C;stroke-width:1.55;" x2="59.178" y2="-4.1" y1="-78.6" x1="59.178"/>
  <line style="fill-rule:evenodd;clip-rule:evenodd;fill:none;stroke:#EC008C;stroke-width:1.55;" x2="62.417" y2="-4.1" y1="-78.6" x1="62.417"/>
  <line style="fill-rule:evenodd;clip-rule:evenodd;fill:none;stroke:#EC008C;stroke-width:1.55;" x2="65.658" y2="-4.1" y1="-78.6" x1="65.658"/>
  <line style="fill-rule:evenodd;clip-rule:evenodd;fill:none;stroke:#EC008C;stroke-width:1.55;" x2="68.897" y2="-4.1" y1="-78.6" x1="68.897"/>
  <line style="fill-rule:evenodd;clip-rule:evenodd;fill:none;stroke:#EC008C;stroke-width:1.55;" x2="72.137" y2="-4.1" y1="-78.6" x1="72.137"/>
  <line style="fill-rule:evenodd;clip-rule:evenodd;fill:none;stroke:#EC008C;stroke-width:1.55;" x2="75.377" y2="-4.1" y1="-78.6" x1="75.377"/>
 </g>
</svg>
