<?xml version="1.0"?>
<!-- Converted with SVG Converter - Version 0.9.5 (Compiled Fri Feb 21 09:53:38 2020) - Copyright (C) 2011 Nokia -->
<svg xmlns="http://www.w3.org/2000/svg" y="0px" viewBox="2.399 -78.6 74.499 74.499" width="74.499" xmlns:xlink="http://www.w3.org/1999/xlink" x="0px" version="1.1" height="74.499" baseProfile="tiny" xml:space="preserve">
 <g>
  <rect y="-78.6" width="74.499" x="2.399" height="74.499" style="fill:none;"/>
  <rect y="-78.6" width="74.499" x="2.399" height="74.499" style="fill-rule:evenodd;clip-rule:evenodd;"/>
  <line y2="-4.1" y1="-78.6" x2="4.1" style="fill-rule:evenodd;clip-rule:evenodd;fill:none;stroke:#FFFFFF;stroke-width:1.55;" x1="4.1"/>
  <line y2="-4.1" y1="-78.6" x2="7.34" style="fill-rule:evenodd;clip-rule:evenodd;fill:none;stroke:#FFFFFF;stroke-width:1.55;" x1="7.34"/>
  <line y2="-4.1" y1="-78.6" x2="10.58" style="fill-rule:evenodd;clip-rule:evenodd;fill:none;stroke:#FFFFFF;stroke-width:1.55;" x1="10.58"/>
  <line y2="-4.1" y1="-78.6" x2="13.82" style="fill-rule:evenodd;clip-rule:evenodd;fill:none;stroke:#FFFFFF;stroke-width:1.55;" x1="13.82"/>
  <line y2="-4.1" y1="-78.6" x2="17.06" style="fill-rule:evenodd;clip-rule:evenodd;fill:none;stroke:#FFFFFF;stroke-width:1.55;" x1="17.06"/>
  <line y2="-4.1" y1="-78.6" x2="20.299" style="fill:none;stroke:#FFFFFF;stroke-width:1.55;" x1="20.299"/>
  <line y2="-4.1" y1="-78.6" x2="23.539" style="fill-rule:evenodd;clip-rule:evenodd;fill:none;stroke:#FFFFFF;stroke-width:1.55;" x1="23.539"/>
  <line y2="-4.1" y1="-78.6" x2="26.779" style="fill-rule:evenodd;clip-rule:evenodd;fill:none;stroke:#FFFFFF;stroke-width:1.55;" x1="26.779"/>
  <line y2="-4.1" y1="-78.6" x2="30.019" style="fill-rule:evenodd;clip-rule:evenodd;fill:none;stroke:#FFFFFF;stroke-width:1.55;" x1="30.019"/>
  <line y2="-4.1" y1="-78.6" x2="33.259" style="fill-rule:evenodd;clip-rule:evenodd;fill:none;stroke:#FFFFFF;stroke-width:1.55;" x1="33.259"/>
  <line y2="-4.1" y1="-78.6" x2="36.499" style="fill-rule:evenodd;clip-rule:evenodd;fill:none;stroke:#FFFFFF;stroke-width:1.55;" x1="36.499"/>
  <line y2="-4.1" y1="-78.6" x2="39.738" style="fill-rule:evenodd;clip-rule:evenodd;fill:none;stroke:#FFFFFF;stroke-width:1.55;" x1="39.738"/>
  <line y2="-4.1" y1="-78.6" x2="42.979" style="fill-rule:evenodd;clip-rule:evenodd;fill:none;stroke:#FFFFFF;stroke-width:1.55;" x1="42.979"/>
  <line y2="-4.1" y1="-78.6" x2="46.218" style="fill-rule:evenodd;clip-rule:evenodd;fill:none;stroke:#FFFFFF;stroke-width:1.55;" x1="46.218"/>
  <line y2="-4.1" y1="-78.6" x2="49.458" style="fill-rule:evenodd;clip-rule:evenodd;fill:none;stroke:#FFFFFF;stroke-width:1.55;" x1="49.458"/>
  <line y2="-4.1" y1="-78.6" x2="52.698" style="fill-rule:evenodd;clip-rule:evenodd;fill:none;stroke:#FFFFFF;stroke-width:1.55;" x1="52.698"/>
  <line y2="-4.1" y1="-78.6" x2="55.938" style="fill-rule:evenodd;clip-rule:evenodd;fill:none;stroke:#FFFFFF;stroke-width:1.55;" x1="55.938"/>
  <line y2="-4.1" y1="-78.6" x2="59.178" style="fill-rule:evenodd;clip-rule:evenodd;fill:none;stroke:#FFFFFF;stroke-width:1.55;" x1="59.178"/>
  <line y2="-4.1" y1="-78.6" x2="62.417" style="fill-rule:evenodd;clip-rule:evenodd;fill:none;stroke:#FFFFFF;stroke-width:1.55;" x1="62.417"/>
  <line y2="-4.1" y1="-78.6" x2="65.658" style="fill-rule:evenodd;clip-rule:evenodd;fill:none;stroke:#FFFFFF;stroke-width:1.55;" x1="65.658"/>
  <line y2="-4.1" y1="-78.6" x2="68.897" style="fill-rule:evenodd;clip-rule:evenodd;fill:none;stroke:#FFFFFF;stroke-width:1.55;" x1="68.897"/>
  <line y2="-4.1" y1="-78.6" x2="72.137" style="fill-rule:evenodd;clip-rule:evenodd;fill:none;stroke:#FFFFFF;stroke-width:1.55;" x1="72.137"/>
  <line y2="-4.1" y1="-78.6" x2="75.377" style="fill-rule:evenodd;clip-rule:evenodd;fill:none;stroke:#FFFFFF;stroke-width:1.55;" x1="75.377"/>
 </g>
</svg>
