<?xml version="1.0"?>
<!-- Converted with SVG Converter - Version 0.9.5 (Compiled Fri Feb 21 09:53:38 2020) - Copyright (C) 2011 Nokia -->
<svg xmlns="http://www.w3.org/2000/svg" baseProfile="tiny" viewBox="0 -72.571 72.571 72.571" height="72.571" width="72.571" xml:space="preserve" x="0px" y="0px" xmlns:xlink="http://www.w3.org/1999/xlink" version="1.1">
 <g>
  <rect height="72.571" width="72.571" y="-72.571" style="fill:none;"/>
  <line x1="1.701" y2="0" style="fill-rule:evenodd;clip-rule:evenodd;fill:none;stroke:#00AEEF;stroke-width:0.43;" y1="-72.571" x2="1.701"/>
  <line x1="5.156" y2="0" style="fill-rule:evenodd;clip-rule:evenodd;fill:none;stroke:#00AEEF;stroke-width:0.43;" y1="-72.571" x2="5.156"/>
  <line x1="8.611" y2="0" style="fill-rule:evenodd;clip-rule:evenodd;fill:none;stroke:#00AEEF;stroke-width:0.43;" y1="-72.571" x2="8.611"/>
  <line x1="12.067" y2="0" style="fill-rule:evenodd;clip-rule:evenodd;fill:none;stroke:#00AEEF;stroke-width:0.43;" y1="-72.571" x2="12.067"/>
  <line x1="15.522" y2="0" style="fill-rule:evenodd;clip-rule:evenodd;fill:none;stroke:#00AEEF;stroke-width:0.43;" y1="-72.571" x2="15.522"/>
  <line x1="18.977" y2="0" style="fill-rule:evenodd;clip-rule:evenodd;fill:none;stroke:#00AEEF;stroke-width:0.43;" y1="-72.571" x2="18.977"/>
  <line x1="22.432" y2="0" style="fill-rule:evenodd;clip-rule:evenodd;fill:none;stroke:#00AEEF;stroke-width:0.43;" y1="-72.571" x2="22.432"/>
  <line x1="25.888" y2="0" style="fill-rule:evenodd;clip-rule:evenodd;fill:none;stroke:#00AEEF;stroke-width:0.43;" y1="-72.571" x2="25.888"/>
  <line x1="29.343" y2="0" style="fill-rule:evenodd;clip-rule:evenodd;fill:none;stroke:#00AEEF;stroke-width:0.43;" y1="-72.571" x2="29.343"/>
  <line x1="32.798" y2="0" style="fill-rule:evenodd;clip-rule:evenodd;fill:none;stroke:#00AEEF;stroke-width:0.43;" y1="-72.571" x2="32.798"/>
  <line x1="36.253" y2="0" style="fill-rule:evenodd;clip-rule:evenodd;fill:none;stroke:#00AEEF;stroke-width:0.43;" y1="-72.571" x2="36.253"/>
  <line x1="39.708" y2="0" style="fill-rule:evenodd;clip-rule:evenodd;fill:none;stroke:#00AEEF;stroke-width:0.43;" y1="-72.571" x2="39.708"/>
  <line x1="43.164" y2="0" style="fill-rule:evenodd;clip-rule:evenodd;fill:none;stroke:#00AEEF;stroke-width:0.43;" y1="-72.571" x2="43.164"/>
  <line x1="46.619" y2="0" style="fill-rule:evenodd;clip-rule:evenodd;fill:none;stroke:#00AEEF;stroke-width:0.43;" y1="-72.571" x2="46.619"/>
  <line x1="50.074" y2="0" style="fill-rule:evenodd;clip-rule:evenodd;fill:none;stroke:#00AEEF;stroke-width:0.43;" y1="-72.571" x2="50.074"/>
  <line x1="53.529" y2="0" style="fill-rule:evenodd;clip-rule:evenodd;fill:none;stroke:#00AEEF;stroke-width:0.43;" y1="-72.571" x2="53.529"/>
  <line x1="56.984" y2="0" style="fill-rule:evenodd;clip-rule:evenodd;fill:none;stroke:#00AEEF;stroke-width:0.43;" y1="-72.571" x2="56.984"/>
  <line x1="60.439" y2="0" style="fill-rule:evenodd;clip-rule:evenodd;fill:none;stroke:#00AEEF;stroke-width:0.43;" y1="-72.571" x2="60.439"/>
  <line x1="63.895" y2="0" style="fill-rule:evenodd;clip-rule:evenodd;fill:none;stroke:#00AEEF;stroke-width:0.43;" y1="-72.571" x2="63.895"/>
  <line x1="67.35" y2="0" style="fill-rule:evenodd;clip-rule:evenodd;fill:none;stroke:#00AEEF;stroke-width:0.43;" y1="-72.571" x2="67.35"/>
  <line x1="70.805" y2="0" style="fill-rule:evenodd;clip-rule:evenodd;fill:none;stroke:#00AEEF;stroke-width:0.43;" y1="-72.571" x2="70.805"/>
 </g>
</svg>
