<?xml version="1.0"?>
<!-- Converted with SVG Converter - Version 0.9.5 (Compiled Fri Feb 21 09:53:38 2020) - Copyright (C) 2011 Nokia -->
<svg xmlns="http://www.w3.org/2000/svg" xml:space="preserve" height="72.571" version="1.1" width="72.571" xmlns:xlink="http://www.w3.org/1999/xlink" y="0px" baseProfile="tiny" viewBox="0 -72.572 72.571 72.571" x="0px">
 <g>
  <rect height="72.571" width="72.571" y="-72.572" style="fill:none;"/>
  <line y2="-0.001" x2="1.701" style="fill-rule:evenodd;clip-rule:evenodd;fill:none;stroke:#EC008C;stroke-width:0.43;" x1="1.701" y1="-72.572"/>
  <line y2="-0.001" x2="5.156" style="fill-rule:evenodd;clip-rule:evenodd;fill:none;stroke:#EC008C;stroke-width:0.43;" x1="5.156" y1="-72.572"/>
  <line y2="-0.001" x2="8.611" style="fill-rule:evenodd;clip-rule:evenodd;fill:none;stroke:#EC008C;stroke-width:0.43;" x1="8.611" y1="-72.572"/>
  <line y2="-0.001" x2="12.067" style="fill-rule:evenodd;clip-rule:evenodd;fill:none;stroke:#EC008C;stroke-width:0.43;" x1="12.067" y1="-72.572"/>
  <line y2="-0.001" x2="15.522" style="fill-rule:evenodd;clip-rule:evenodd;fill:none;stroke:#EC008C;stroke-width:0.43;" x1="15.522" y1="-72.572"/>
  <line y2="-0.001" x2="18.977" style="fill-rule:evenodd;clip-rule:evenodd;fill:none;stroke:#EC008C;stroke-width:0.43;" x1="18.977" y1="-72.572"/>
  <line y2="-0.001" x2="22.432" style="fill-rule:evenodd;clip-rule:evenodd;fill:none;stroke:#EC008C;stroke-width:0.43;" x1="22.432" y1="-72.572"/>
  <line y2="-0.001" x2="25.888" style="fill-rule:evenodd;clip-rule:evenodd;fill:none;stroke:#EC008C;stroke-width:0.43;" x1="25.888" y1="-72.572"/>
  <line y2="-0.001" x2="29.343" style="fill-rule:evenodd;clip-rule:evenodd;fill:none;stroke:#EC008C;stroke-width:0.43;" x1="29.343" y1="-72.572"/>
  <line y2="-0.001" x2="32.798" style="fill-rule:evenodd;clip-rule:evenodd;fill:none;stroke:#EC008C;stroke-width:0.43;" x1="32.798" y1="-72.572"/>
  <line y2="-0.001" x2="36.253" style="fill-rule:evenodd;clip-rule:evenodd;fill:none;stroke:#EC008C;stroke-width:0.43;" x1="36.253" y1="-72.572"/>
  <line y2="-0.001" x2="39.708" style="fill-rule:evenodd;clip-rule:evenodd;fill:none;stroke:#EC008C;stroke-width:0.43;" x1="39.708" y1="-72.572"/>
  <line y2="-0.001" x2="43.164" style="fill-rule:evenodd;clip-rule:evenodd;fill:none;stroke:#EC008C;stroke-width:0.43;" x1="43.164" y1="-72.572"/>
  <line y2="-0.001" x2="46.619" style="fill-rule:evenodd;clip-rule:evenodd;fill:none;stroke:#EC008C;stroke-width:0.43;" x1="46.619" y1="-72.572"/>
  <line y2="-0.001" x2="50.074" style="fill-rule:evenodd;clip-rule:evenodd;fill:none;stroke:#EC008C;stroke-width:0.43;" x1="50.074" y1="-72.572"/>
  <line y2="-0.001" x2="53.529" style="fill-rule:evenodd;clip-rule:evenodd;fill:none;stroke:#EC008C;stroke-width:0.43;" x1="53.529" y1="-72.572"/>
  <line y2="-0.001" x2="56.984" style="fill-rule:evenodd;clip-rule:evenodd;fill:none;stroke:#EC008C;stroke-width:0.43;" x1="56.984" y1="-72.572"/>
  <line y2="-0.001" x2="60.439" style="fill-rule:evenodd;clip-rule:evenodd;fill:none;stroke:#EC008C;stroke-width:0.43;" x1="60.439" y1="-72.572"/>
  <line y2="-0.001" x2="63.895" style="fill-rule:evenodd;clip-rule:evenodd;fill:none;stroke:#EC008C;stroke-width:0.43;" x1="63.895" y1="-72.572"/>
  <line y2="-0.001" x2="67.35" style="fill-rule:evenodd;clip-rule:evenodd;fill:none;stroke:#EC008C;stroke-width:0.43;" x1="67.35" y1="-72.572"/>
  <line y2="-0.001" x2="70.805" style="fill-rule:evenodd;clip-rule:evenodd;fill:none;stroke:#EC008C;stroke-width:0.43;" x1="70.805" y1="-72.572"/>
 </g>
</svg>
