<?xml version="1.0"?>
<!-- Converted with SVG Converter - Version 0.9.5 (Compiled Fri Feb 21 09:53:38 2020) - Copyright (C) 2011 Nokia -->
<svg xmlns="http://www.w3.org/2000/svg" xmlns:xlink="http://www.w3.org/1999/xlink" y="0px" xml:space="preserve" x="0px" baseProfile="tiny" height="73.08" version="1.1" viewBox="0 -73.08 73.08 73.08" width="73.08">
 <g>
  <rect y="-73.08" x="0" height="73.08" style="fill:none;" width="73.08"/>
  <rect y="-73.08" x="0" height="73.08" width="73.08"/>
  <line x2="1.301" y1="-73.08" y2="0" style="fill-rule:evenodd;clip-rule:evenodd;fill:none;stroke:#FFFFFF;stroke-width:0.43;" x1="1.301"/>
  <line x2="3.82" y1="-73.08" y2="0" style="fill-rule:evenodd;clip-rule:evenodd;fill:none;stroke:#FFFFFF;stroke-width:0.43;" x1="3.82"/>
  <line x2="6.339" y1="-73.08" y2="0" style="fill-rule:evenodd;clip-rule:evenodd;fill:none;stroke:#FFFFFF;stroke-width:0.43;" x1="6.339"/>
  <line x2="8.858" y1="-73.08" y2="0" style="fill-rule:evenodd;clip-rule:evenodd;fill:none;stroke:#FFFFFF;stroke-width:0.43;" x1="8.858"/>
  <line x2="11.378" y1="-73.08" y2="0" style="fill-rule:evenodd;clip-rule:evenodd;fill:none;stroke:#FFFFFF;stroke-width:0.43;" x1="11.378"/>
  <line x2="13.897" y1="-73.08" y2="0" style="fill-rule:evenodd;clip-rule:evenodd;fill:none;stroke:#FFFFFF;stroke-width:0.43;" x1="13.897"/>
  <line x2="16.416" y1="-73.08" y2="0" style="fill-rule:evenodd;clip-rule:evenodd;fill:none;stroke:#FFFFFF;stroke-width:0.43;" x1="16.416"/>
  <line x2="18.935" y1="-73.08" y2="0" style="fill-rule:evenodd;clip-rule:evenodd;fill:none;stroke:#FFFFFF;stroke-width:0.43;" x1="18.935"/>
  <line x2="21.454" y1="-73.08" y2="0" style="fill-rule:evenodd;clip-rule:evenodd;fill:none;stroke:#FFFFFF;stroke-width:0.43;" x1="21.454"/>
  <line x2="23.974" y1="-73.08" y2="0" style="fill-rule:evenodd;clip-rule:evenodd;fill:none;stroke:#FFFFFF;stroke-width:0.43;" x1="23.974"/>
  <line x2="26.493" y1="-73.08" y2="0" style="fill-rule:evenodd;clip-rule:evenodd;fill:none;stroke:#FFFFFF;stroke-width:0.43;" x1="26.493"/>
  <line x2="29.012" y1="-73.08" y2="0" style="fill-rule:evenodd;clip-rule:evenodd;fill:none;stroke:#FFFFFF;stroke-width:0.43;" x1="29.012"/>
  <line x2="31.531" y1="-73.08" y2="0" style="fill-rule:evenodd;clip-rule:evenodd;fill:none;stroke:#FFFFFF;stroke-width:0.43;" x1="31.531"/>
  <line x2="34.05" y1="-73.08" y2="0" style="fill-rule:evenodd;clip-rule:evenodd;fill:none;stroke:#FFFFFF;stroke-width:0.43;" x1="34.05"/>
  <line x2="36.569" y1="-73.08" y2="0" style="fill-rule:evenodd;clip-rule:evenodd;fill:none;stroke:#FFFFFF;stroke-width:0.43;" x1="36.569"/>
  <line x2="39.088" y1="-73.08" y2="0" style="fill-rule:evenodd;clip-rule:evenodd;fill:none;stroke:#FFFFFF;stroke-width:0.43;" x1="39.088"/>
  <line x2="41.607" y1="-73.08" y2="0" style="fill-rule:evenodd;clip-rule:evenodd;fill:none;stroke:#FFFFFF;stroke-width:0.43;" x1="41.607"/>
  <line x2="44.127" y1="-73.08" y2="0" style="fill-rule:evenodd;clip-rule:evenodd;fill:none;stroke:#FFFFFF;stroke-width:0.43;" x1="44.127"/>
  <line x2="46.646" y1="-73.08" y2="0" style="fill-rule:evenodd;clip-rule:evenodd;fill:none;stroke:#FFFFFF;stroke-width:0.43;" x1="46.646"/>
  <line x2="49.165" y1="-73.08" y2="0" style="fill-rule:evenodd;clip-rule:evenodd;fill:none;stroke:#FFFFFF;stroke-width:0.43;" x1="49.165"/>
  <line x2="51.684" y1="-73.08" y2="0" style="fill-rule:evenodd;clip-rule:evenodd;fill:none;stroke:#FFFFFF;stroke-width:0.43;" x1="51.684"/>
  <line x2="54.204" y1="-73.08" y2="0" style="fill-rule:evenodd;clip-rule:evenodd;fill:none;stroke:#FFFFFF;stroke-width:0.43;" x1="54.204"/>
  <line x2="56.723" y1="-73.08" y2="0" style="fill-rule:evenodd;clip-rule:evenodd;fill:none;stroke:#FFFFFF;stroke-width:0.43;" x1="56.723"/>
  <line x2="59.242" y1="-73.08" y2="0" style="fill-rule:evenodd;clip-rule:evenodd;fill:none;stroke:#FFFFFF;stroke-width:0.43;" x1="59.242"/>
  <line x2="61.761" y1="-73.08" y2="0" style="fill-rule:evenodd;clip-rule:evenodd;fill:none;stroke:#FFFFFF;stroke-width:0.43;" x1="61.761"/>
  <line x2="64.28" y1="-73.08" y2="0" style="fill-rule:evenodd;clip-rule:evenodd;fill:none;stroke:#FFFFFF;stroke-width:0.43;" x1="64.28"/>
  <line x2="66.799" y1="-73.08" y2="0" style="fill-rule:evenodd;clip-rule:evenodd;fill:none;stroke:#FFFFFF;stroke-width:0.43;" x1="66.799"/>
  <line x2="69.318" y1="-73.08" y2="0" style="fill-rule:evenodd;clip-rule:evenodd;fill:none;stroke:#FFFFFF;stroke-width:0.43;" x1="69.318"/>
  <line x2="71.837" y1="-73.08" y2="0" style="fill-rule:evenodd;clip-rule:evenodd;fill:none;stroke:#FFFFFF;stroke-width:0.43;" x1="71.837"/>
 </g>
</svg>
