<?xml version="1.0"?>
<!-- Converted with SVG Converter - Version 0.9.5 (Compiled Fri Feb 21 09:53:38 2020) - Copyright (C) 2011 Nokia -->
<svg xmlns="http://www.w3.org/2000/svg" baseProfile="tiny" y="0px" x="0px" xmlns:xlink="http://www.w3.org/1999/xlink" version="1.1" width="73.08" xml:space="preserve" height="73.08" viewBox="0 -73.081 73.08 73.08">
 <g>
  <rect y="-73.081" x="0" style="fill:none;" width="73.08" height="73.08"/>
  <line x1="1.301" x2="1.301" style="fill-rule:evenodd;clip-rule:evenodd;fill:none;stroke:#00AEEF;stroke-width:0.43;" y1="-73.081" y2="-0.001"/>
  <line x1="3.82" x2="3.82" style="fill-rule:evenodd;clip-rule:evenodd;fill:none;stroke:#00AEEF;stroke-width:0.43;" y1="-73.081" y2="-0.001"/>
  <line x1="6.339" x2="6.339" style="fill-rule:evenodd;clip-rule:evenodd;fill:none;stroke:#00AEEF;stroke-width:0.43;" y1="-73.081" y2="-0.001"/>
  <line x1="8.858" x2="8.858" style="fill-rule:evenodd;clip-rule:evenodd;fill:none;stroke:#00AEEF;stroke-width:0.43;" y1="-73.081" y2="-0.001"/>
  <line x1="11.378" x2="11.378" style="fill-rule:evenodd;clip-rule:evenodd;fill:none;stroke:#00AEEF;stroke-width:0.43;" y1="-73.081" y2="-0.001"/>
  <line x1="13.897" x2="13.897" style="fill-rule:evenodd;clip-rule:evenodd;fill:none;stroke:#00AEEF;stroke-width:0.43;" y1="-73.081" y2="-0.001"/>
  <line x1="16.416" x2="16.416" style="fill-rule:evenodd;clip-rule:evenodd;fill:none;stroke:#00AEEF;stroke-width:0.43;" y1="-73.081" y2="-0.001"/>
  <line x1="18.935" x2="18.935" style="fill-rule:evenodd;clip-rule:evenodd;fill:none;stroke:#00AEEF;stroke-width:0.43;" y1="-73.081" y2="-0.001"/>
  <line x1="21.454" x2="21.454" style="fill-rule:evenodd;clip-rule:evenodd;fill:none;stroke:#00AEEF;stroke-width:0.43;" y1="-73.081" y2="-0.001"/>
  <line x1="23.974" x2="23.974" style="fill-rule:evenodd;clip-rule:evenodd;fill:none;stroke:#00AEEF;stroke-width:0.43;" y1="-73.081" y2="-0.001"/>
  <line x1="26.493" x2="26.493" style="fill-rule:evenodd;clip-rule:evenodd;fill:none;stroke:#00AEEF;stroke-width:0.43;" y1="-73.081" y2="-0.001"/>
  <line x1="29.012" x2="29.012" style="fill-rule:evenodd;clip-rule:evenodd;fill:none;stroke:#00AEEF;stroke-width:0.43;" y1="-73.081" y2="-0.001"/>
  <line x1="31.531" x2="31.531" style="fill-rule:evenodd;clip-rule:evenodd;fill:none;stroke:#00AEEF;stroke-width:0.43;" y1="-73.081" y2="-0.001"/>
  <line x1="34.05" x2="34.05" style="fill-rule:evenodd;clip-rule:evenodd;fill:none;stroke:#00AEEF;stroke-width:0.43;" y1="-73.081" y2="-0.001"/>
  <line x1="36.569" x2="36.569" style="fill-rule:evenodd;clip-rule:evenodd;fill:none;stroke:#00AEEF;stroke-width:0.43;" y1="-73.081" y2="-0.001"/>
  <line x1="39.088" x2="39.088" style="fill-rule:evenodd;clip-rule:evenodd;fill:none;stroke:#00AEEF;stroke-width:0.43;" y1="-73.081" y2="-0.001"/>
  <line x1="41.607" x2="41.607" style="fill-rule:evenodd;clip-rule:evenodd;fill:none;stroke:#00AEEF;stroke-width:0.43;" y1="-73.081" y2="-0.001"/>
  <line x1="44.127" x2="44.127" style="fill-rule:evenodd;clip-rule:evenodd;fill:none;stroke:#00AEEF;stroke-width:0.43;" y1="-73.081" y2="-0.001"/>
  <line x1="46.646" x2="46.646" style="fill-rule:evenodd;clip-rule:evenodd;fill:none;stroke:#00AEEF;stroke-width:0.43;" y1="-73.081" y2="-0.001"/>
  <line x1="49.165" x2="49.165" style="fill-rule:evenodd;clip-rule:evenodd;fill:none;stroke:#00AEEF;stroke-width:0.43;" y1="-73.081" y2="-0.001"/>
  <line x1="51.684" x2="51.684" style="fill-rule:evenodd;clip-rule:evenodd;fill:none;stroke:#00AEEF;stroke-width:0.43;" y1="-73.081" y2="-0.001"/>
  <line x1="54.204" x2="54.204" style="fill-rule:evenodd;clip-rule:evenodd;fill:none;stroke:#00AEEF;stroke-width:0.43;" y1="-73.081" y2="-0.001"/>
  <line x1="56.723" x2="56.723" style="fill-rule:evenodd;clip-rule:evenodd;fill:none;stroke:#00AEEF;stroke-width:0.43;" y1="-73.081" y2="-0.001"/>
  <line x1="59.242" x2="59.242" style="fill-rule:evenodd;clip-rule:evenodd;fill:none;stroke:#00AEEF;stroke-width:0.43;" y1="-73.081" y2="-0.001"/>
  <line x1="61.761" x2="61.761" style="fill-rule:evenodd;clip-rule:evenodd;fill:none;stroke:#00AEEF;stroke-width:0.43;" y1="-73.081" y2="-0.001"/>
  <line x1="64.28" x2="64.28" style="fill-rule:evenodd;clip-rule:evenodd;fill:none;stroke:#00AEEF;stroke-width:0.43;" y1="-73.081" y2="-0.001"/>
  <line x1="66.799" x2="66.799" style="fill-rule:evenodd;clip-rule:evenodd;fill:none;stroke:#00AEEF;stroke-width:0.43;" y1="-73.081" y2="-0.001"/>
  <line x1="69.318" x2="69.318" style="fill-rule:evenodd;clip-rule:evenodd;fill:none;stroke:#00AEEF;stroke-width:0.43;" y1="-73.081" y2="-0.001"/>
  <line x1="71.837" x2="71.837" style="fill-rule:evenodd;clip-rule:evenodd;fill:none;stroke:#00AEEF;stroke-width:0.43;" y1="-73.081" y2="-0.001"/>
 </g>
</svg>
