<?xml version="1.0"?>
<!-- Converted with SVG Converter - Version 0.9.5 (Compiled Fri Feb 21 09:53:38 2020) - Copyright (C) 2011 Nokia -->
<svg xmlns="http://www.w3.org/2000/svg" version="1.1" x="0px" width="73.428" xmlns:xlink="http://www.w3.org/1999/xlink" height="73.428" y="0px" viewBox="1 -75.088 73.428 73.428" xml:space="preserve" baseProfile="tiny">
 <g>
  <rect x="1" width="73.428" style="fill:none;" height="73.428" y="-75.088"/>
  <line x1="3.283" y2="-1.66" style="fill-rule:evenodd;clip-rule:evenodd;fill:none;stroke:#000000;stroke-width:0.33;" y1="-75.088" x2="3.283"/>
  <line x1="7.602" y2="-1.66" style="fill-rule:evenodd;clip-rule:evenodd;fill:none;stroke:#000000;stroke-width:0.33;" y1="-75.088" x2="7.602"/>
  <line x1="11.922" y2="-1.66" style="fill-rule:evenodd;clip-rule:evenodd;fill:none;stroke:#000000;stroke-width:0.33;" y1="-75.088" x2="11.922"/>
  <line x1="16.242" y2="-1.66" style="fill-rule:evenodd;clip-rule:evenodd;fill:none;stroke:#000000;stroke-width:0.33;" y1="-75.088" x2="16.242"/>
  <line x1="20.562" y2="-1.66" style="fill-rule:evenodd;clip-rule:evenodd;fill:none;stroke:#000000;stroke-width:0.33;" y1="-75.088" x2="20.562"/>
  <line x1="24.882" y2="-1.66" style="fill-rule:evenodd;clip-rule:evenodd;fill:none;stroke:#000000;stroke-width:0.33;" y1="-75.088" x2="24.882"/>
  <line x1="29.202" y2="-1.66" style="fill-rule:evenodd;clip-rule:evenodd;fill:none;stroke:#000000;stroke-width:0.33;" y1="-75.088" x2="29.202"/>
  <line x1="33.521" y2="-1.66" style="fill-rule:evenodd;clip-rule:evenodd;fill:none;stroke:#000000;stroke-width:0.33;" y1="-75.088" x2="33.521"/>
  <line x1="37.841" y2="-1.66" style="fill-rule:evenodd;clip-rule:evenodd;fill:none;stroke:#000000;stroke-width:0.33;" y1="-75.088" x2="37.841"/>
  <line x1="42.161" y2="-1.66" style="fill-rule:evenodd;clip-rule:evenodd;fill:none;stroke:#000000;stroke-width:0.33;" y1="-75.088" x2="42.161"/>
  <line x1="46.481" y2="-1.66" style="fill-rule:evenodd;clip-rule:evenodd;fill:none;stroke:#000000;stroke-width:0.33;" y1="-75.088" x2="46.481"/>
  <line x1="50.801" y2="-1.66" style="fill-rule:evenodd;clip-rule:evenodd;fill:none;stroke:#000000;stroke-width:0.33;" y1="-75.088" x2="50.801"/>
  <line x1="55.121" y2="-1.66" style="fill-rule:evenodd;clip-rule:evenodd;fill:none;stroke:#000000;stroke-width:0.33;" y1="-75.088" x2="55.121"/>
  <line x1="59.44" y2="-1.66" style="fill-rule:evenodd;clip-rule:evenodd;fill:none;stroke:#000000;stroke-width:0.33;" y1="-75.088" x2="59.44"/>
  <line x1="63.76" y2="-1.66" style="fill-rule:evenodd;clip-rule:evenodd;fill:none;stroke:#000000;stroke-width:0.33;" y1="-75.088" x2="63.76"/>
  <line x1="68.08" y2="-1.66" style="fill-rule:evenodd;clip-rule:evenodd;fill:none;stroke:#000000;stroke-width:0.33;" y1="-75.088" x2="68.08"/>
  <line x1="72.4" y2="-1.66" style="fill-rule:evenodd;clip-rule:evenodd;fill:none;stroke:#000000;stroke-width:0.33;" y1="-75.088" x2="72.4"/>
  <rect x="1" width="73.428" style="fill-rule:evenodd;clip-rule:evenodd;fill:none;" height="73.428" y="-75.088"/>
 </g>
</svg>
