<?xml version="1.0"?>
<!-- Converted with SVG Converter - Version 0.9.5 (Compiled Fri Feb 21 09:53:38 2020) - Copyright (C) 2011 Nokia -->
<svg xmlns="http://www.w3.org/2000/svg" width="80.646" y="0px" baseProfile="tiny" version="1.1" xmlns:xlink="http://www.w3.org/1999/xlink" viewBox="0 -80.646 80.646 80.646" x="0px" xml:space="preserve" height="80.646">
 <g>
  <rect width="80.646" y="-80.646" x="0" style="fill:none;" height="80.646"/>
  <rect width="80.646" y="-80.646" x="0" style="fill-rule:evenodd;clip-rule:evenodd;" height="80.646"/>
  <line x2="1.843" x1="1.843" y2="-77.968" y1="-80.646" style="fill-rule:evenodd;clip-rule:evenodd;fill:none;stroke:#FFFFFF;stroke-width:0.58;"/>
  <line x2="1.843" x1="1.843" y2="0" y1="-2.53" style="fill-rule:evenodd;clip-rule:evenodd;fill:none;stroke:#FFFFFF;stroke-width:0.58;"/>
  <line x2="7.602" x1="7.602" y2="-77.968" y1="-80.646" style="fill-rule:evenodd;clip-rule:evenodd;fill:none;stroke:#FFFFFF;stroke-width:0.58;"/>
  <line x2="7.602" x1="7.602" y2="0" y1="-2.53" style="fill-rule:evenodd;clip-rule:evenodd;fill:none;stroke:#FFFFFF;stroke-width:0.58;"/>
  <line x2="13.361" x1="13.361" y2="-77.968" y1="-80.646" style="fill-rule:evenodd;clip-rule:evenodd;fill:none;stroke:#FFFFFF;stroke-width:0.58;"/>
  <line x2="13.361" x1="13.361" y2="0" y1="-2.53" style="fill-rule:evenodd;clip-rule:evenodd;fill:none;stroke:#FFFFFF;stroke-width:0.58;"/>
  <line x2="19.12" x1="19.12" y2="-77.968" y1="-80.646" style="fill-rule:evenodd;clip-rule:evenodd;fill:none;stroke:#FFFFFF;stroke-width:0.58;"/>
  <line x2="19.12" x1="19.12" y2="0" y1="-2.53" style="fill-rule:evenodd;clip-rule:evenodd;fill:none;stroke:#FFFFFF;stroke-width:0.58;"/>
  <line x2="24.879" x1="24.879" y2="-77.968" y1="-80.646" style="fill-rule:evenodd;clip-rule:evenodd;fill:none;stroke:#FFFFFF;stroke-width:0.58;"/>
  <line x2="24.879" x1="24.879" y2="0" y1="-2.53" style="fill-rule:evenodd;clip-rule:evenodd;fill:none;stroke:#FFFFFF;stroke-width:0.58;"/>
  <line x2="30.638" x1="30.638" y2="-77.968" y1="-80.646" style="fill-rule:evenodd;clip-rule:evenodd;fill:none;stroke:#FFFFFF;stroke-width:0.58;"/>
  <line x2="30.638" x1="30.638" y2="0" y1="-2.53" style="fill-rule:evenodd;clip-rule:evenodd;fill:none;stroke:#FFFFFF;stroke-width:0.58;"/>
  <line x2="36.397" x1="36.397" y2="-77.968" y1="-80.646" style="fill-rule:evenodd;clip-rule:evenodd;fill:none;stroke:#FFFFFF;stroke-width:0.58;"/>
  <line x2="36.397" x1="36.397" y2="0" y1="-2.53" style="fill-rule:evenodd;clip-rule:evenodd;fill:none;stroke:#FFFFFF;stroke-width:0.58;"/>
  <line x2="42.156" x1="42.156" y2="-77.968" y1="-80.646" style="fill-rule:evenodd;clip-rule:evenodd;fill:none;stroke:#FFFFFF;stroke-width:0.58;"/>
  <line x2="42.156" x1="42.156" y2="0" y1="-2.53" style="fill-rule:evenodd;clip-rule:evenodd;fill:none;stroke:#FFFFFF;stroke-width:0.58;"/>
  <line x2="47.915" x1="47.915" y2="-77.968" y1="-80.646" style="fill-rule:evenodd;clip-rule:evenodd;fill:none;stroke:#FFFFFF;stroke-width:0.58;"/>
  <line x2="47.915" x1="47.915" y2="0" y1="-2.53" style="fill-rule:evenodd;clip-rule:evenodd;fill:none;stroke:#FFFFFF;stroke-width:0.58;"/>
  <line x2="53.674" x1="53.674" y2="-77.968" y1="-80.646" style="fill-rule:evenodd;clip-rule:evenodd;fill:none;stroke:#FFFFFF;stroke-width:0.58;"/>
  <line x2="53.674" x1="53.674" y2="0" y1="-2.53" style="fill-rule:evenodd;clip-rule:evenodd;fill:none;stroke:#FFFFFF;stroke-width:0.58;"/>
  <line x2="59.433" x1="59.433" y2="-77.968" y1="-80.646" style="fill-rule:evenodd;clip-rule:evenodd;fill:none;stroke:#FFFFFF;stroke-width:0.58;"/>
  <line x2="59.433" x1="59.433" y2="0" y1="-2.53" style="fill-rule:evenodd;clip-rule:evenodd;fill:none;stroke:#FFFFFF;stroke-width:0.58;"/>
  <line x2="65.192" x1="65.192" y2="-77.968" y1="-80.646" style="fill-rule:evenodd;clip-rule:evenodd;fill:none;stroke:#FFFFFF;stroke-width:0.58;"/>
  <line x2="65.192" x1="65.192" y2="0" y1="-2.53" style="fill-rule:evenodd;clip-rule:evenodd;fill:none;stroke:#FFFFFF;stroke-width:0.58;"/>
  <line x2="70.951" x1="70.951" y2="-77.968" y1="-80.646" style="fill-rule:evenodd;clip-rule:evenodd;fill:none;stroke:#FFFFFF;stroke-width:0.58;"/>
  <line x2="70.951" x1="70.951" y2="0" y1="-2.53" style="fill-rule:evenodd;clip-rule:evenodd;fill:none;stroke:#FFFFFF;stroke-width:0.58;"/>
  <line x2="76.71" x1="76.71" y2="-77.968" y1="-80.646" style="fill-rule:evenodd;clip-rule:evenodd;fill:none;stroke:#FFFFFF;stroke-width:0.58;"/>
  <line x2="76.71" x1="76.71" y2="0" y1="-2.53" style="fill-rule:evenodd;clip-rule:evenodd;fill:none;stroke:#FFFFFF;stroke-width:0.58;"/>
  <line x2="1.843" x1="1.843" y2="-68.968" y1="-74.53" style="fill-rule:evenodd;clip-rule:evenodd;fill:none;stroke:#FFFFFF;stroke-width:0.58;"/>
  <line x2="1.843" x1="1.843" y2="-59.968" y1="-65.53" style="fill-rule:evenodd;clip-rule:evenodd;fill:none;stroke:#FFFFFF;stroke-width:0.58;"/>
  <line x2="1.843" x1="1.843" y2="-50.968" y1="-56.53" style="fill-rule:evenodd;clip-rule:evenodd;fill:none;stroke:#FFFFFF;stroke-width:0.58;"/>
  <line x2="1.843" x1="1.843" y2="-41.968" y1="-47.53" style="fill-rule:evenodd;clip-rule:evenodd;fill:none;stroke:#FFFFFF;stroke-width:0.58;"/>
  <line x2="1.843" x1="1.843" y2="-32.968" y1="-38.53" style="fill-rule:evenodd;clip-rule:evenodd;fill:none;stroke:#FFFFFF;stroke-width:0.58;"/>
  <line x2="1.843" x1="1.843" y2="-23.968" y1="-29.53" style="fill-rule:evenodd;clip-rule:evenodd;fill:none;stroke:#FFFFFF;stroke-width:0.58;"/>
  <line x2="1.843" x1="1.843" y2="-14.968" y1="-20.53" style="fill-rule:evenodd;clip-rule:evenodd;fill:none;stroke:#FFFFFF;stroke-width:0.58;"/>
  <line x2="1.843" x1="1.843" y2="-5.968" y1="-11.53" style="fill-rule:evenodd;clip-rule:evenodd;fill:none;stroke:#FFFFFF;stroke-width:0.58;"/>
  <line x2="7.602" x1="7.602" y2="-68.968" y1="-74.53" style="fill-rule:evenodd;clip-rule:evenodd;fill:none;stroke:#FFFFFF;stroke-width:0.58;"/>
  <line x2="7.602" x1="7.602" y2="-59.968" y1="-65.53" style="fill-rule:evenodd;clip-rule:evenodd;fill:none;stroke:#FFFFFF;stroke-width:0.58;"/>
  <line x2="7.602" x1="7.602" y2="-50.968" y1="-56.53" style="fill-rule:evenodd;clip-rule:evenodd;fill:none;stroke:#FFFFFF;stroke-width:0.58;"/>
  <line x2="7.602" x1="7.602" y2="-41.968" y1="-47.53" style="fill-rule:evenodd;clip-rule:evenodd;fill:none;stroke:#FFFFFF;stroke-width:0.58;"/>
  <line x2="7.602" x1="7.602" y2="-32.968" y1="-38.53" style="fill-rule:evenodd;clip-rule:evenodd;fill:none;stroke:#FFFFFF;stroke-width:0.58;"/>
  <line x2="7.602" x1="7.602" y2="-23.968" y1="-29.53" style="fill-rule:evenodd;clip-rule:evenodd;fill:none;stroke:#FFFFFF;stroke-width:0.58;"/>
  <line x2="7.602" x1="7.602" y2="-14.968" y1="-20.53" style="fill-rule:evenodd;clip-rule:evenodd;fill:none;stroke:#FFFFFF;stroke-width:0.58;"/>
  <line x2="7.602" x1="7.602" y2="-5.968" y1="-11.53" style="fill-rule:evenodd;clip-rule:evenodd;fill:none;stroke:#FFFFFF;stroke-width:0.58;"/>
  <line x2="13.361" x1="13.361" y2="-68.968" y1="-74.53" style="fill-rule:evenodd;clip-rule:evenodd;fill:none;stroke:#FFFFFF;stroke-width:0.58;"/>
  <line x2="13.361" x1="13.361" y2="-59.968" y1="-65.53" style="fill-rule:evenodd;clip-rule:evenodd;fill:none;stroke:#FFFFFF;stroke-width:0.58;"/>
  <line x2="13.361" x1="13.361" y2="-50.968" y1="-56.53" style="fill-rule:evenodd;clip-rule:evenodd;fill:none;stroke:#FFFFFF;stroke-width:0.58;"/>
  <line x2="13.361" x1="13.361" y2="-41.968" y1="-47.53" style="fill-rule:evenodd;clip-rule:evenodd;fill:none;stroke:#FFFFFF;stroke-width:0.58;"/>
  <line x2="13.361" x1="13.361" y2="-32.968" y1="-38.53" style="fill-rule:evenodd;clip-rule:evenodd;fill:none;stroke:#FFFFFF;stroke-width:0.58;"/>
  <line x2="13.361" x1="13.361" y2="-23.968" y1="-29.53" style="fill-rule:evenodd;clip-rule:evenodd;fill:none;stroke:#FFFFFF;stroke-width:0.58;"/>
  <line x2="13.361" x1="13.361" y2="-14.968" y1="-20.53" style="fill-rule:evenodd;clip-rule:evenodd;fill:none;stroke:#FFFFFF;stroke-width:0.58;"/>
  <line x2="13.361" x1="13.361" y2="-5.968" y1="-11.53" style="fill-rule:evenodd;clip-rule:evenodd;fill:none;stroke:#FFFFFF;stroke-width:0.58;"/>
  <line x2="19.12" x1="19.12" y2="-68.968" y1="-74.53" style="fill-rule:evenodd;clip-rule:evenodd;fill:none;stroke:#FFFFFF;stroke-width:0.58;"/>
  <line x2="19.12" x1="19.12" y2="-59.968" y1="-65.53" style="fill-rule:evenodd;clip-rule:evenodd;fill:none;stroke:#FFFFFF;stroke-width:0.58;"/>
  <line x2="19.12" x1="19.12" y2="-50.968" y1="-56.53" style="fill-rule:evenodd;clip-rule:evenodd;fill:none;stroke:#FFFFFF;stroke-width:0.58;"/>
  <line x2="19.12" x1="19.12" y2="-41.968" y1="-47.53" style="fill-rule:evenodd;clip-rule:evenodd;fill:none;stroke:#FFFFFF;stroke-width:0.58;"/>
  <line x2="19.12" x1="19.12" y2="-32.968" y1="-38.53" style="fill-rule:evenodd;clip-rule:evenodd;fill:none;stroke:#FFFFFF;stroke-width:0.58;"/>
  <line x2="19.12" x1="19.12" y2="-23.968" y1="-29.53" style="fill-rule:evenodd;clip-rule:evenodd;fill:none;stroke:#FFFFFF;stroke-width:0.58;"/>
  <line x2="19.12" x1="19.12" y2="-14.968" y1="-20.53" style="fill-rule:evenodd;clip-rule:evenodd;fill:none;stroke:#FFFFFF;stroke-width:0.58;"/>
  <line x2="19.12" x1="19.12" y2="-5.968" y1="-11.53" style="fill-rule:evenodd;clip-rule:evenodd;fill:none;stroke:#FFFFFF;stroke-width:0.58;"/>
  <line x2="24.879" x1="24.879" y2="-68.968" y1="-74.53" style="fill-rule:evenodd;clip-rule:evenodd;fill:none;stroke:#FFFFFF;stroke-width:0.58;"/>
  <line x2="24.879" x1="24.879" y2="-59.968" y1="-65.53" style="fill-rule:evenodd;clip-rule:evenodd;fill:none;stroke:#FFFFFF;stroke-width:0.58;"/>
  <line x2="24.879" x1="24.879" y2="-50.968" y1="-56.53" style="fill-rule:evenodd;clip-rule:evenodd;fill:none;stroke:#FFFFFF;stroke-width:0.58;"/>
  <line x2="24.879" x1="24.879" y2="-41.968" y1="-47.53" style="fill-rule:evenodd;clip-rule:evenodd;fill:none;stroke:#FFFFFF;stroke-width:0.58;"/>
  <line x2="24.879" x1="24.879" y2="-32.968" y1="-38.53" style="fill-rule:evenodd;clip-rule:evenodd;fill:none;stroke:#FFFFFF;stroke-width:0.58;"/>
  <line x2="24.879" x1="24.879" y2="-23.968" y1="-29.53" style="fill-rule:evenodd;clip-rule:evenodd;fill:none;stroke:#FFFFFF;stroke-width:0.58;"/>
  <line x2="24.879" x1="24.879" y2="-14.968" y1="-20.53" style="fill-rule:evenodd;clip-rule:evenodd;fill:none;stroke:#FFFFFF;stroke-width:0.58;"/>
  <line x2="24.879" x1="24.879" y2="-5.968" y1="-11.53" style="fill-rule:evenodd;clip-rule:evenodd;fill:none;stroke:#FFFFFF;stroke-width:0.58;"/>
  <line x2="30.638" x1="30.638" y2="-68.968" y1="-74.53" style="fill-rule:evenodd;clip-rule:evenodd;fill:none;stroke:#FFFFFF;stroke-width:0.58;"/>
  <line x2="30.638" x1="30.638" y2="-59.968" y1="-65.53" style="fill-rule:evenodd;clip-rule:evenodd;fill:none;stroke:#FFFFFF;stroke-width:0.58;"/>
  <line x2="30.638" x1="30.638" y2="-50.968" y1="-56.53" style="fill-rule:evenodd;clip-rule:evenodd;fill:none;stroke:#FFFFFF;stroke-width:0.58;"/>
  <line x2="30.638" x1="30.638" y2="-41.968" y1="-47.53" style="fill-rule:evenodd;clip-rule:evenodd;fill:none;stroke:#FFFFFF;stroke-width:0.58;"/>
  <line x2="30.638" x1="30.638" y2="-32.968" y1="-38.53" style="fill-rule:evenodd;clip-rule:evenodd;fill:none;stroke:#FFFFFF;stroke-width:0.58;"/>
  <line x2="30.638" x1="30.638" y2="-23.968" y1="-29.53" style="fill-rule:evenodd;clip-rule:evenodd;fill:none;stroke:#FFFFFF;stroke-width:0.58;"/>
  <line x2="30.638" x1="30.638" y2="-14.968" y1="-20.53" style="fill-rule:evenodd;clip-rule:evenodd;fill:none;stroke:#FFFFFF;stroke-width:0.58;"/>
  <line x2="30.638" x1="30.638" y2="-5.968" y1="-11.53" style="fill-rule:evenodd;clip-rule:evenodd;fill:none;stroke:#FFFFFF;stroke-width:0.58;"/>
  <line x2="36.397" x1="36.397" y2="-68.968" y1="-74.53" style="fill-rule:evenodd;clip-rule:evenodd;fill:none;stroke:#FFFFFF;stroke-width:0.58;"/>
  <line x2="36.397" x1="36.397" y2="-59.968" y1="-65.53" style="fill-rule:evenodd;clip-rule:evenodd;fill:none;stroke:#FFFFFF;stroke-width:0.58;"/>
  <line x2="36.397" x1="36.397" y2="-50.968" y1="-56.53" style="fill-rule:evenodd;clip-rule:evenodd;fill:none;stroke:#FFFFFF;stroke-width:0.58;"/>
  <line x2="36.397" x1="36.397" y2="-41.968" y1="-47.53" style="fill-rule:evenodd;clip-rule:evenodd;fill:none;stroke:#FFFFFF;stroke-width:0.58;"/>
  <line x2="36.397" x1="36.397" y2="-32.968" y1="-38.53" style="fill-rule:evenodd;clip-rule:evenodd;fill:none;stroke:#FFFFFF;stroke-width:0.58;"/>
  <line x2="36.397" x1="36.397" y2="-23.968" y1="-29.53" style="fill-rule:evenodd;clip-rule:evenodd;fill:none;stroke:#FFFFFF;stroke-width:0.58;"/>
  <line x2="36.397" x1="36.397" y2="-14.968" y1="-20.53" style="fill-rule:evenodd;clip-rule:evenodd;fill:none;stroke:#FFFFFF;stroke-width:0.58;"/>
  <line x2="36.397" x1="36.397" y2="-5.968" y1="-11.53" style="fill-rule:evenodd;clip-rule:evenodd;fill:none;stroke:#FFFFFF;stroke-width:0.58;"/>
  <line x2="42.156" x1="42.156" y2="-68.968" y1="-74.53" style="fill-rule:evenodd;clip-rule:evenodd;fill:none;stroke:#FFFFFF;stroke-width:0.58;"/>
  <line x2="42.156" x1="42.156" y2="-59.968" y1="-65.53" style="fill-rule:evenodd;clip-rule:evenodd;fill:none;stroke:#FFFFFF;stroke-width:0.58;"/>
  <line x2="42.156" x1="42.156" y2="-50.968" y1="-56.53" style="fill-rule:evenodd;clip-rule:evenodd;fill:none;stroke:#FFFFFF;stroke-width:0.58;"/>
  <line x2="42.156" x1="42.156" y2="-41.968" y1="-47.53" style="fill-rule:evenodd;clip-rule:evenodd;fill:none;stroke:#FFFFFF;stroke-width:0.58;"/>
  <line x2="42.156" x1="42.156" y2="-32.968" y1="-38.53" style="fill-rule:evenodd;clip-rule:evenodd;fill:none;stroke:#FFFFFF;stroke-width:0.58;"/>
  <line x2="42.156" x1="42.156" y2="-23.968" y1="-29.53" style="fill-rule:evenodd;clip-rule:evenodd;fill:none;stroke:#FFFFFF;stroke-width:0.58;"/>
  <line x2="42.156" x1="42.156" y2="-14.968" y1="-20.53" style="fill-rule:evenodd;clip-rule:evenodd;fill:none;stroke:#FFFFFF;stroke-width:0.58;"/>
  <line x2="42.156" x1="42.156" y2="-5.968" y1="-11.53" style="fill-rule:evenodd;clip-rule:evenodd;fill:none;stroke:#FFFFFF;stroke-width:0.58;"/>
  <line x2="47.915" x1="47.915" y2="-68.968" y1="-74.53" style="fill-rule:evenodd;clip-rule:evenodd;fill:none;stroke:#FFFFFF;stroke-width:0.58;"/>
  <line x2="47.915" x1="47.915" y2="-59.968" y1="-65.53" style="fill-rule:evenodd;clip-rule:evenodd;fill:none;stroke:#FFFFFF;stroke-width:0.58;"/>
  <line x2="47.915" x1="47.915" y2="-50.968" y1="-56.53" style="fill-rule:evenodd;clip-rule:evenodd;fill:none;stroke:#FFFFFF;stroke-width:0.58;"/>
  <line x2="47.915" x1="47.915" y2="-41.968" y1="-47.53" style="fill-rule:evenodd;clip-rule:evenodd;fill:none;stroke:#FFFFFF;stroke-width:0.58;"/>
  <line x2="47.915" x1="47.915" y2="-32.968" y1="-38.53" style="fill-rule:evenodd;clip-rule:evenodd;fill:none;stroke:#FFFFFF;stroke-width:0.58;"/>
  <line x2="47.915" x1="47.915" y2="-23.968" y1="-29.53" style="fill-rule:evenodd;clip-rule:evenodd;fill:none;stroke:#FFFFFF;stroke-width:0.58;"/>
  <line x2="47.915" x1="47.915" y2="-14.968" y1="-20.53" style="fill-rule:evenodd;clip-rule:evenodd;fill:none;stroke:#FFFFFF;stroke-width:0.58;"/>
  <line x2="47.915" x1="47.915" y2="-5.968" y1="-11.53" style="fill-rule:evenodd;clip-rule:evenodd;fill:none;stroke:#FFFFFF;stroke-width:0.58;"/>
  <line x2="53.674" x1="53.674" y2="-68.968" y1="-74.53" style="fill-rule:evenodd;clip-rule:evenodd;fill:none;stroke:#FFFFFF;stroke-width:0.58;"/>
  <line x2="53.674" x1="53.674" y2="-59.968" y1="-65.53" style="fill-rule:evenodd;clip-rule:evenodd;fill:none;stroke:#FFFFFF;stroke-width:0.58;"/>
  <line x2="53.674" x1="53.674" y2="-50.968" y1="-56.53" style="fill-rule:evenodd;clip-rule:evenodd;fill:none;stroke:#FFFFFF;stroke-width:0.58;"/>
  <line x2="53.674" x1="53.674" y2="-41.968" y1="-47.53" style="fill-rule:evenodd;clip-rule:evenodd;fill:none;stroke:#FFFFFF;stroke-width:0.58;"/>
  <line x2="53.674" x1="53.674" y2="-32.968" y1="-38.53" style="fill-rule:evenodd;clip-rule:evenodd;fill:none;stroke:#FFFFFF;stroke-width:0.58;"/>
  <line x2="53.674" x1="53.674" y2="-23.968" y1="-29.53" style="fill-rule:evenodd;clip-rule:evenodd;fill:none;stroke:#FFFFFF;stroke-width:0.58;"/>
  <line x2="53.674" x1="53.674" y2="-14.968" y1="-20.53" style="fill-rule:evenodd;clip-rule:evenodd;fill:none;stroke:#FFFFFF;stroke-width:0.58;"/>
  <line x2="53.674" x1="53.674" y2="-5.968" y1="-11.53" style="fill-rule:evenodd;clip-rule:evenodd;fill:none;stroke:#FFFFFF;stroke-width:0.58;"/>
  <line x2="59.433" x1="59.433" y2="-68.968" y1="-74.53" style="fill-rule:evenodd;clip-rule:evenodd;fill:none;stroke:#FFFFFF;stroke-width:0.58;"/>
  <line x2="59.433" x1="59.433" y2="-59.968" y1="-65.53" style="fill-rule:evenodd;clip-rule:evenodd;fill:none;stroke:#FFFFFF;stroke-width:0.58;"/>
  <line x2="59.433" x1="59.433" y2="-50.968" y1="-56.53" style="fill-rule:evenodd;clip-rule:evenodd;fill:none;stroke:#FFFFFF;stroke-width:0.58;"/>
  <line x2="59.433" x1="59.433" y2="-41.968" y1="-47.53" style="fill-rule:evenodd;clip-rule:evenodd;fill:none;stroke:#FFFFFF;stroke-width:0.58;"/>
  <line x2="59.433" x1="59.433" y2="-32.968" y1="-38.53" style="fill-rule:evenodd;clip-rule:evenodd;fill:none;stroke:#FFFFFF;stroke-width:0.58;"/>
  <line x2="59.433" x1="59.433" y2="-23.968" y1="-29.53" style="fill-rule:evenodd;clip-rule:evenodd;fill:none;stroke:#FFFFFF;stroke-width:0.58;"/>
  <line x2="59.433" x1="59.433" y2="-14.968" y1="-20.53" style="fill-rule:evenodd;clip-rule:evenodd;fill:none;stroke:#FFFFFF;stroke-width:0.58;"/>
  <line x2="59.433" x1="59.433" y2="-5.968" y1="-11.53" style="fill-rule:evenodd;clip-rule:evenodd;fill:none;stroke:#FFFFFF;stroke-width:0.58;"/>
  <line x2="65.192" x1="65.192" y2="-68.968" y1="-74.53" style="fill-rule:evenodd;clip-rule:evenodd;fill:none;stroke:#FFFFFF;stroke-width:0.58;"/>
  <line x2="65.192" x1="65.192" y2="-59.968" y1="-65.53" style="fill-rule:evenodd;clip-rule:evenodd;fill:none;stroke:#FFFFFF;stroke-width:0.58;"/>
  <line x2="65.192" x1="65.192" y2="-50.968" y1="-56.53" style="fill-rule:evenodd;clip-rule:evenodd;fill:none;stroke:#FFFFFF;stroke-width:0.58;"/>
  <line x2="65.192" x1="65.192" y2="-41.968" y1="-47.53" style="fill-rule:evenodd;clip-rule:evenodd;fill:none;stroke:#FFFFFF;stroke-width:0.58;"/>
  <line x2="65.192" x1="65.192" y2="-32.968" y1="-38.53" style="fill-rule:evenodd;clip-rule:evenodd;fill:none;stroke:#FFFFFF;stroke-width:0.58;"/>
  <line x2="65.192" x1="65.192" y2="-23.968" y1="-29.53" style="fill-rule:evenodd;clip-rule:evenodd;fill:none;stroke:#FFFFFF;stroke-width:0.58;"/>
  <line x2="65.192" x1="65.192" y2="-14.968" y1="-20.53" style="fill-rule:evenodd;clip-rule:evenodd;fill:none;stroke:#FFFFFF;stroke-width:0.58;"/>
  <line x2="65.192" x1="65.192" y2="-5.968" y1="-11.53" style="fill-rule:evenodd;clip-rule:evenodd;fill:none;stroke:#FFFFFF;stroke-width:0.58;"/>
  <line x2="70.951" x1="70.951" y2="-68.968" y1="-74.53" style="fill-rule:evenodd;clip-rule:evenodd;fill:none;stroke:#FFFFFF;stroke-width:0.58;"/>
  <line x2="70.951" x1="70.951" y2="-59.968" y1="-65.53" style="fill-rule:evenodd;clip-rule:evenodd;fill:none;stroke:#FFFFFF;stroke-width:0.58;"/>
  <line x2="70.951" x1="70.951" y2="-50.968" y1="-56.53" style="fill-rule:evenodd;clip-rule:evenodd;fill:none;stroke:#FFFFFF;stroke-width:0.58;"/>
  <line x2="70.951" x1="70.951" y2="-41.968" y1="-47.53" style="fill-rule:evenodd;clip-rule:evenodd;fill:none;stroke:#FFFFFF;stroke-width:0.58;"/>
  <line x2="70.951" x1="70.951" y2="-32.968" y1="-38.53" style="fill-rule:evenodd;clip-rule:evenodd;fill:none;stroke:#FFFFFF;stroke-width:0.58;"/>
  <line x2="70.951" x1="70.951" y2="-23.968" y1="-29.53" style="fill-rule:evenodd;clip-rule:evenodd;fill:none;stroke:#FFFFFF;stroke-width:0.58;"/>
  <line x2="70.951" x1="70.951" y2="-14.968" y1="-20.53" style="fill-rule:evenodd;clip-rule:evenodd;fill:none;stroke:#FFFFFF;stroke-width:0.58;"/>
  <line x2="70.951" x1="70.951" y2="-5.968" y1="-11.53" style="fill-rule:evenodd;clip-rule:evenodd;fill:none;stroke:#FFFFFF;stroke-width:0.58;"/>
  <line x2="76.71" x1="76.71" y2="-68.968" y1="-74.53" style="fill-rule:evenodd;clip-rule:evenodd;fill:none;stroke:#FFFFFF;stroke-width:0.58;"/>
  <line x2="76.71" x1="76.71" y2="-59.968" y1="-65.53" style="fill-rule:evenodd;clip-rule:evenodd;fill:none;stroke:#FFFFFF;stroke-width:0.58;"/>
  <line x2="76.71" x1="76.71" y2="-50.968" y1="-56.53" style="fill-rule:evenodd;clip-rule:evenodd;fill:none;stroke:#FFFFFF;stroke-width:0.58;"/>
  <line x2="76.71" x1="76.71" y2="-41.968" y1="-47.53" style="fill-rule:evenodd;clip-rule:evenodd;fill:none;stroke:#FFFFFF;stroke-width:0.58;"/>
  <line x2="76.71" x1="76.71" y2="-32.968" y1="-38.53" style="fill-rule:evenodd;clip-rule:evenodd;fill:none;stroke:#FFFFFF;stroke-width:0.58;"/>
  <line x2="76.71" x1="76.71" y2="-23.968" y1="-29.53" style="fill-rule:evenodd;clip-rule:evenodd;fill:none;stroke:#FFFFFF;stroke-width:0.58;"/>
  <line x2="76.71" x1="76.71" y2="-14.968" y1="-20.53" style="fill-rule:evenodd;clip-rule:evenodd;fill:none;stroke:#FFFFFF;stroke-width:0.58;"/>
  <line x2="76.71" x1="76.71" y2="-5.968" y1="-11.53" style="fill-rule:evenodd;clip-rule:evenodd;fill:none;stroke:#FFFFFF;stroke-width:0.58;"/>
  <line x2="4.722" x1="4.722" y2="-73.826" y1="-79.388" style="fill-rule:evenodd;clip-rule:evenodd;fill:none;stroke:#FFFFFF;stroke-width:0.58;"/>
  <line x2="4.722" x1="4.722" y2="-64.826" y1="-70.388" style="fill-rule:evenodd;clip-rule:evenodd;fill:none;stroke:#FFFFFF;stroke-width:0.58;"/>
  <line x2="4.722" x1="4.722" y2="-55.826" y1="-61.388" style="fill-rule:evenodd;clip-rule:evenodd;fill:none;stroke:#FFFFFF;stroke-width:0.58;"/>
  <line x2="4.722" x1="4.722" y2="-46.826" y1="-52.388" style="fill-rule:evenodd;clip-rule:evenodd;fill:none;stroke:#FFFFFF;stroke-width:0.58;"/>
  <line x2="4.722" x1="4.722" y2="-37.826" y1="-43.388" style="fill-rule:evenodd;clip-rule:evenodd;fill:none;stroke:#FFFFFF;stroke-width:0.58;"/>
  <line x2="4.722" x1="4.722" y2="-28.826" y1="-34.388" style="fill-rule:evenodd;clip-rule:evenodd;fill:none;stroke:#FFFFFF;stroke-width:0.58;"/>
  <line x2="4.722" x1="4.722" y2="-19.826" y1="-25.388" style="fill-rule:evenodd;clip-rule:evenodd;fill:none;stroke:#FFFFFF;stroke-width:0.58;"/>
  <line x2="4.722" x1="4.722" y2="-10.826" y1="-16.388" style="fill-rule:evenodd;clip-rule:evenodd;fill:none;stroke:#FFFFFF;stroke-width:0.58;"/>
  <line x2="4.722" x1="4.722" y2="-1.826" y1="-7.388" style="fill-rule:evenodd;clip-rule:evenodd;fill:none;stroke:#FFFFFF;stroke-width:0.58;"/>
  <line x2="10.481" x1="10.481" y2="-73.826" y1="-79.388" style="fill-rule:evenodd;clip-rule:evenodd;fill:none;stroke:#FFFFFF;stroke-width:0.58;"/>
  <line x2="10.481" x1="10.481" y2="-64.826" y1="-70.388" style="fill-rule:evenodd;clip-rule:evenodd;fill:none;stroke:#FFFFFF;stroke-width:0.58;"/>
  <line x2="10.481" x1="10.481" y2="-55.826" y1="-61.388" style="fill-rule:evenodd;clip-rule:evenodd;fill:none;stroke:#FFFFFF;stroke-width:0.58;"/>
  <line x2="10.481" x1="10.481" y2="-46.826" y1="-52.388" style="fill-rule:evenodd;clip-rule:evenodd;fill:none;stroke:#FFFFFF;stroke-width:0.58;"/>
  <line x2="10.481" x1="10.481" y2="-37.826" y1="-43.388" style="fill-rule:evenodd;clip-rule:evenodd;fill:none;stroke:#FFFFFF;stroke-width:0.58;"/>
  <line x2="10.481" x1="10.481" y2="-28.826" y1="-34.388" style="fill-rule:evenodd;clip-rule:evenodd;fill:none;stroke:#FFFFFF;stroke-width:0.58;"/>
  <line x2="10.481" x1="10.481" y2="-19.826" y1="-25.388" style="fill-rule:evenodd;clip-rule:evenodd;fill:none;stroke:#FFFFFF;stroke-width:0.58;"/>
  <line x2="10.481" x1="10.481" y2="-10.826" y1="-16.388" style="fill-rule:evenodd;clip-rule:evenodd;fill:none;stroke:#FFFFFF;stroke-width:0.58;"/>
  <line x2="10.481" x1="10.481" y2="-1.826" y1="-7.388" style="fill-rule:evenodd;clip-rule:evenodd;fill:none;stroke:#FFFFFF;stroke-width:0.58;"/>
  <line x2="16.24" x1="16.24" y2="-73.826" y1="-79.388" style="fill-rule:evenodd;clip-rule:evenodd;fill:none;stroke:#FFFFFF;stroke-width:0.58;"/>
  <line x2="16.24" x1="16.24" y2="-64.826" y1="-70.388" style="fill-rule:evenodd;clip-rule:evenodd;fill:none;stroke:#FFFFFF;stroke-width:0.58;"/>
  <line x2="16.24" x1="16.24" y2="-55.826" y1="-61.388" style="fill-rule:evenodd;clip-rule:evenodd;fill:none;stroke:#FFFFFF;stroke-width:0.58;"/>
  <line x2="16.24" x1="16.24" y2="-46.826" y1="-52.388" style="fill-rule:evenodd;clip-rule:evenodd;fill:none;stroke:#FFFFFF;stroke-width:0.58;"/>
  <line x2="16.24" x1="16.24" y2="-37.826" y1="-43.388" style="fill-rule:evenodd;clip-rule:evenodd;fill:none;stroke:#FFFFFF;stroke-width:0.58;"/>
  <line x2="16.24" x1="16.24" y2="-28.826" y1="-34.388" style="fill-rule:evenodd;clip-rule:evenodd;fill:none;stroke:#FFFFFF;stroke-width:0.58;"/>
  <line x2="16.24" x1="16.24" y2="-19.826" y1="-25.388" style="fill-rule:evenodd;clip-rule:evenodd;fill:none;stroke:#FFFFFF;stroke-width:0.58;"/>
  <line x2="16.24" x1="16.24" y2="-10.826" y1="-16.388" style="fill-rule:evenodd;clip-rule:evenodd;fill:none;stroke:#FFFFFF;stroke-width:0.58;"/>
  <line x2="16.24" x1="16.24" y2="-1.826" y1="-7.388" style="fill-rule:evenodd;clip-rule:evenodd;fill:none;stroke:#FFFFFF;stroke-width:0.58;"/>
  <line x2="22" x1="22" y2="-73.826" y1="-79.388" style="fill-rule:evenodd;clip-rule:evenodd;fill:none;stroke:#FFFFFF;stroke-width:0.58;"/>
  <line x2="22" x1="22" y2="-64.826" y1="-70.388" style="fill-rule:evenodd;clip-rule:evenodd;fill:none;stroke:#FFFFFF;stroke-width:0.58;"/>
  <line x2="22" x1="22" y2="-55.826" y1="-61.388" style="fill-rule:evenodd;clip-rule:evenodd;fill:none;stroke:#FFFFFF;stroke-width:0.58;"/>
  <line x2="22" x1="22" y2="-46.826" y1="-52.388" style="fill-rule:evenodd;clip-rule:evenodd;fill:none;stroke:#FFFFFF;stroke-width:0.58;"/>
  <line x2="22" x1="22" y2="-37.826" y1="-43.388" style="fill-rule:evenodd;clip-rule:evenodd;fill:none;stroke:#FFFFFF;stroke-width:0.58;"/>
  <line x2="22" x1="22" y2="-28.826" y1="-34.388" style="fill-rule:evenodd;clip-rule:evenodd;fill:none;stroke:#FFFFFF;stroke-width:0.58;"/>
  <line x2="22" x1="22" y2="-19.826" y1="-25.388" style="fill-rule:evenodd;clip-rule:evenodd;fill:none;stroke:#FFFFFF;stroke-width:0.58;"/>
  <line x2="22" x1="22" y2="-10.826" y1="-16.388" style="fill-rule:evenodd;clip-rule:evenodd;fill:none;stroke:#FFFFFF;stroke-width:0.58;"/>
  <line x2="22" x1="22" y2="-1.826" y1="-7.388" style="fill-rule:evenodd;clip-rule:evenodd;fill:none;stroke:#FFFFFF;stroke-width:0.58;"/>
  <line x2="27.758" x1="27.758" y2="-73.826" y1="-79.388" style="fill-rule:evenodd;clip-rule:evenodd;fill:none;stroke:#FFFFFF;stroke-width:0.58;"/>
  <line x2="27.758" x1="27.758" y2="-64.826" y1="-70.388" style="fill-rule:evenodd;clip-rule:evenodd;fill:none;stroke:#FFFFFF;stroke-width:0.58;"/>
  <line x2="27.758" x1="27.758" y2="-55.826" y1="-61.388" style="fill-rule:evenodd;clip-rule:evenodd;fill:none;stroke:#FFFFFF;stroke-width:0.58;"/>
  <line x2="27.758" x1="27.758" y2="-46.826" y1="-52.388" style="fill-rule:evenodd;clip-rule:evenodd;fill:none;stroke:#FFFFFF;stroke-width:0.58;"/>
  <line x2="27.758" x1="27.758" y2="-37.826" y1="-43.388" style="fill-rule:evenodd;clip-rule:evenodd;fill:none;stroke:#FFFFFF;stroke-width:0.58;"/>
  <line x2="27.758" x1="27.758" y2="-28.826" y1="-34.388" style="fill-rule:evenodd;clip-rule:evenodd;fill:none;stroke:#FFFFFF;stroke-width:0.58;"/>
  <line x2="27.758" x1="27.758" y2="-19.826" y1="-25.388" style="fill-rule:evenodd;clip-rule:evenodd;fill:none;stroke:#FFFFFF;stroke-width:0.58;"/>
  <line x2="27.758" x1="27.758" y2="-10.826" y1="-16.388" style="fill-rule:evenodd;clip-rule:evenodd;fill:none;stroke:#FFFFFF;stroke-width:0.58;"/>
  <line x2="27.758" x1="27.758" y2="-1.826" y1="-7.388" style="fill-rule:evenodd;clip-rule:evenodd;fill:none;stroke:#FFFFFF;stroke-width:0.58;"/>
  <line x2="33.518" x1="33.518" y2="-73.826" y1="-79.388" style="fill-rule:evenodd;clip-rule:evenodd;fill:none;stroke:#FFFFFF;stroke-width:0.58;"/>
  <line x2="33.518" x1="33.518" y2="-64.826" y1="-70.388" style="fill-rule:evenodd;clip-rule:evenodd;fill:none;stroke:#FFFFFF;stroke-width:0.58;"/>
  <line x2="33.518" x1="33.518" y2="-55.826" y1="-61.388" style="fill-rule:evenodd;clip-rule:evenodd;fill:none;stroke:#FFFFFF;stroke-width:0.58;"/>
  <line x2="33.518" x1="33.518" y2="-46.826" y1="-52.388" style="fill-rule:evenodd;clip-rule:evenodd;fill:none;stroke:#FFFFFF;stroke-width:0.58;"/>
  <line x2="33.518" x1="33.518" y2="-37.826" y1="-43.388" style="fill-rule:evenodd;clip-rule:evenodd;fill:none;stroke:#FFFFFF;stroke-width:0.58;"/>
  <line x2="33.518" x1="33.518" y2="-28.826" y1="-34.388" style="fill-rule:evenodd;clip-rule:evenodd;fill:none;stroke:#FFFFFF;stroke-width:0.58;"/>
  <line x2="33.518" x1="33.518" y2="-19.826" y1="-25.388" style="fill-rule:evenodd;clip-rule:evenodd;fill:none;stroke:#FFFFFF;stroke-width:0.58;"/>
  <line x2="33.518" x1="33.518" y2="-10.826" y1="-16.388" style="fill-rule:evenodd;clip-rule:evenodd;fill:none;stroke:#FFFFFF;stroke-width:0.58;"/>
  <line x2="33.518" x1="33.518" y2="-1.826" y1="-7.388" style="fill-rule:evenodd;clip-rule:evenodd;fill:none;stroke:#FFFFFF;stroke-width:0.58;"/>
  <line x2="39.276" x1="39.276" y2="-73.826" y1="-79.388" style="fill-rule:evenodd;clip-rule:evenodd;fill:none;stroke:#FFFFFF;stroke-width:0.58;"/>
  <line x2="39.276" x1="39.276" y2="-64.826" y1="-70.388" style="fill-rule:evenodd;clip-rule:evenodd;fill:none;stroke:#FFFFFF;stroke-width:0.58;"/>
  <line x2="39.276" x1="39.276" y2="-55.826" y1="-61.388" style="fill-rule:evenodd;clip-rule:evenodd;fill:none;stroke:#FFFFFF;stroke-width:0.58;"/>
  <line x2="39.276" x1="39.276" y2="-46.826" y1="-52.388" style="fill-rule:evenodd;clip-rule:evenodd;fill:none;stroke:#FFFFFF;stroke-width:0.58;"/>
  <line x2="39.276" x1="39.276" y2="-37.826" y1="-43.388" style="fill-rule:evenodd;clip-rule:evenodd;fill:none;stroke:#FFFFFF;stroke-width:0.58;"/>
  <line x2="39.276" x1="39.276" y2="-28.826" y1="-34.388" style="fill-rule:evenodd;clip-rule:evenodd;fill:none;stroke:#FFFFFF;stroke-width:0.58;"/>
  <line x2="39.276" x1="39.276" y2="-19.826" y1="-25.388" style="fill-rule:evenodd;clip-rule:evenodd;fill:none;stroke:#FFFFFF;stroke-width:0.58;"/>
  <line x2="39.276" x1="39.276" y2="-10.826" y1="-16.388" style="fill-rule:evenodd;clip-rule:evenodd;fill:none;stroke:#FFFFFF;stroke-width:0.58;"/>
  <line x2="39.276" x1="39.276" y2="-1.826" y1="-7.388" style="fill-rule:evenodd;clip-rule:evenodd;fill:none;stroke:#FFFFFF;stroke-width:0.58;"/>
  <line x2="45.036" x1="45.036" y2="-73.826" y1="-79.388" style="fill-rule:evenodd;clip-rule:evenodd;fill:none;stroke:#FFFFFF;stroke-width:0.58;"/>
  <line x2="45.036" x1="45.036" y2="-64.826" y1="-70.388" style="fill-rule:evenodd;clip-rule:evenodd;fill:none;stroke:#FFFFFF;stroke-width:0.58;"/>
  <line x2="45.036" x1="45.036" y2="-55.826" y1="-61.388" style="fill-rule:evenodd;clip-rule:evenodd;fill:none;stroke:#FFFFFF;stroke-width:0.58;"/>
  <line x2="45.036" x1="45.036" y2="-46.826" y1="-52.388" style="fill-rule:evenodd;clip-rule:evenodd;fill:none;stroke:#FFFFFF;stroke-width:0.58;"/>
  <line x2="45.036" x1="45.036" y2="-37.826" y1="-43.388" style="fill-rule:evenodd;clip-rule:evenodd;fill:none;stroke:#FFFFFF;stroke-width:0.58;"/>
  <line x2="45.036" x1="45.036" y2="-28.826" y1="-34.388" style="fill-rule:evenodd;clip-rule:evenodd;fill:none;stroke:#FFFFFF;stroke-width:0.58;"/>
  <line x2="45.036" x1="45.036" y2="-19.826" y1="-25.388" style="fill-rule:evenodd;clip-rule:evenodd;fill:none;stroke:#FFFFFF;stroke-width:0.58;"/>
  <line x2="45.036" x1="45.036" y2="-10.826" y1="-16.388" style="fill-rule:evenodd;clip-rule:evenodd;fill:none;stroke:#FFFFFF;stroke-width:0.58;"/>
  <line x2="45.036" x1="45.036" y2="-1.826" y1="-7.388" style="fill-rule:evenodd;clip-rule:evenodd;fill:none;stroke:#FFFFFF;stroke-width:0.58;"/>
  <line x2="50.794" x1="50.794" y2="-73.826" y1="-79.388" style="fill-rule:evenodd;clip-rule:evenodd;fill:none;stroke:#FFFFFF;stroke-width:0.58;"/>
  <line x2="50.794" x1="50.794" y2="-64.826" y1="-70.388" style="fill-rule:evenodd;clip-rule:evenodd;fill:none;stroke:#FFFFFF;stroke-width:0.58;"/>
  <line x2="50.794" x1="50.794" y2="-55.826" y1="-61.388" style="fill-rule:evenodd;clip-rule:evenodd;fill:none;stroke:#FFFFFF;stroke-width:0.58;"/>
  <line x2="50.794" x1="50.794" y2="-46.826" y1="-52.388" style="fill-rule:evenodd;clip-rule:evenodd;fill:none;stroke:#FFFFFF;stroke-width:0.58;"/>
  <line x2="50.794" x1="50.794" y2="-37.826" y1="-43.388" style="fill-rule:evenodd;clip-rule:evenodd;fill:none;stroke:#FFFFFF;stroke-width:0.58;"/>
  <line x2="50.794" x1="50.794" y2="-28.826" y1="-34.388" style="fill-rule:evenodd;clip-rule:evenodd;fill:none;stroke:#FFFFFF;stroke-width:0.58;"/>
  <line x2="50.794" x1="50.794" y2="-19.826" y1="-25.388" style="fill-rule:evenodd;clip-rule:evenodd;fill:none;stroke:#FFFFFF;stroke-width:0.58;"/>
  <line x2="50.794" x1="50.794" y2="-10.826" y1="-16.388" style="fill-rule:evenodd;clip-rule:evenodd;fill:none;stroke:#FFFFFF;stroke-width:0.58;"/>
  <line x2="50.794" x1="50.794" y2="-1.826" y1="-7.388" style="fill-rule:evenodd;clip-rule:evenodd;fill:none;stroke:#FFFFFF;stroke-width:0.58;"/>
  <line x2="56.554" x1="56.554" y2="-73.826" y1="-79.388" style="fill-rule:evenodd;clip-rule:evenodd;fill:none;stroke:#FFFFFF;stroke-width:0.58;"/>
  <line x2="56.554" x1="56.554" y2="-64.826" y1="-70.388" style="fill-rule:evenodd;clip-rule:evenodd;fill:none;stroke:#FFFFFF;stroke-width:0.58;"/>
  <line x2="56.554" x1="56.554" y2="-55.826" y1="-61.388" style="fill-rule:evenodd;clip-rule:evenodd;fill:none;stroke:#FFFFFF;stroke-width:0.58;"/>
  <line x2="56.554" x1="56.554" y2="-46.826" y1="-52.388" style="fill-rule:evenodd;clip-rule:evenodd;fill:none;stroke:#FFFFFF;stroke-width:0.58;"/>
  <line x2="56.554" x1="56.554" y2="-37.826" y1="-43.388" style="fill-rule:evenodd;clip-rule:evenodd;fill:none;stroke:#FFFFFF;stroke-width:0.58;"/>
  <line x2="56.554" x1="56.554" y2="-28.826" y1="-34.388" style="fill-rule:evenodd;clip-rule:evenodd;fill:none;stroke:#FFFFFF;stroke-width:0.58;"/>
  <line x2="56.554" x1="56.554" y2="-19.826" y1="-25.388" style="fill-rule:evenodd;clip-rule:evenodd;fill:none;stroke:#FFFFFF;stroke-width:0.58;"/>
  <line x2="56.554" x1="56.554" y2="-10.826" y1="-16.388" style="fill-rule:evenodd;clip-rule:evenodd;fill:none;stroke:#FFFFFF;stroke-width:0.58;"/>
  <line x2="56.554" x1="56.554" y2="-1.826" y1="-7.388" style="fill-rule:evenodd;clip-rule:evenodd;fill:none;stroke:#FFFFFF;stroke-width:0.58;"/>
  <line x2="62.312" x1="62.312" y2="-73.826" y1="-79.388" style="fill-rule:evenodd;clip-rule:evenodd;fill:none;stroke:#FFFFFF;stroke-width:0.58;"/>
  <line x2="62.312" x1="62.312" y2="-64.826" y1="-70.388" style="fill-rule:evenodd;clip-rule:evenodd;fill:none;stroke:#FFFFFF;stroke-width:0.58;"/>
  <line x2="62.312" x1="62.312" y2="-55.826" y1="-61.388" style="fill-rule:evenodd;clip-rule:evenodd;fill:none;stroke:#FFFFFF;stroke-width:0.58;"/>
  <line x2="62.312" x1="62.312" y2="-46.826" y1="-52.388" style="fill-rule:evenodd;clip-rule:evenodd;fill:none;stroke:#FFFFFF;stroke-width:0.58;"/>
  <line x2="62.312" x1="62.312" y2="-37.826" y1="-43.388" style="fill-rule:evenodd;clip-rule:evenodd;fill:none;stroke:#FFFFFF;stroke-width:0.58;"/>
  <line x2="62.312" x1="62.312" y2="-28.826" y1="-34.388" style="fill-rule:evenodd;clip-rule:evenodd;fill:none;stroke:#FFFFFF;stroke-width:0.58;"/>
  <line x2="62.312" x1="62.312" y2="-19.826" y1="-25.388" style="fill-rule:evenodd;clip-rule:evenodd;fill:none;stroke:#FFFFFF;stroke-width:0.58;"/>
  <line x2="62.312" x1="62.312" y2="-10.826" y1="-16.388" style="fill-rule:evenodd;clip-rule:evenodd;fill:none;stroke:#FFFFFF;stroke-width:0.58;"/>
  <line x2="62.312" x1="62.312" y2="-1.826" y1="-7.388" style="fill-rule:evenodd;clip-rule:evenodd;fill:none;stroke:#FFFFFF;stroke-width:0.58;"/>
  <line x2="68.072" x1="68.072" y2="-73.826" y1="-79.388" style="fill-rule:evenodd;clip-rule:evenodd;fill:none;stroke:#FFFFFF;stroke-width:0.58;"/>
  <line x2="68.072" x1="68.072" y2="-64.826" y1="-70.388" style="fill-rule:evenodd;clip-rule:evenodd;fill:none;stroke:#FFFFFF;stroke-width:0.58;"/>
  <line x2="68.072" x1="68.072" y2="-55.826" y1="-61.388" style="fill-rule:evenodd;clip-rule:evenodd;fill:none;stroke:#FFFFFF;stroke-width:0.58;"/>
  <line x2="68.072" x1="68.072" y2="-46.826" y1="-52.388" style="fill-rule:evenodd;clip-rule:evenodd;fill:none;stroke:#FFFFFF;stroke-width:0.58;"/>
  <line x2="68.072" x1="68.072" y2="-37.826" y1="-43.388" style="fill-rule:evenodd;clip-rule:evenodd;fill:none;stroke:#FFFFFF;stroke-width:0.58;"/>
  <line x2="68.072" x1="68.072" y2="-28.826" y1="-34.388" style="fill-rule:evenodd;clip-rule:evenodd;fill:none;stroke:#FFFFFF;stroke-width:0.58;"/>
  <line x2="68.072" x1="68.072" y2="-19.826" y1="-25.388" style="fill-rule:evenodd;clip-rule:evenodd;fill:none;stroke:#FFFFFF;stroke-width:0.58;"/>
  <line x2="68.072" x1="68.072" y2="-10.826" y1="-16.388" style="fill-rule:evenodd;clip-rule:evenodd;fill:none;stroke:#FFFFFF;stroke-width:0.58;"/>
  <line x2="68.072" x1="68.072" y2="-1.826" y1="-7.388" style="fill-rule:evenodd;clip-rule:evenodd;fill:none;stroke:#FFFFFF;stroke-width:0.58;"/>
  <line x2="73.831" x1="73.831" y2="-73.826" y1="-79.388" style="fill-rule:evenodd;clip-rule:evenodd;fill:none;stroke:#FFFFFF;stroke-width:0.58;"/>
  <line x2="73.831" x1="73.831" y2="-64.826" y1="-70.388" style="fill-rule:evenodd;clip-rule:evenodd;fill:none;stroke:#FFFFFF;stroke-width:0.58;"/>
  <line x2="73.831" x1="73.831" y2="-55.826" y1="-61.388" style="fill-rule:evenodd;clip-rule:evenodd;fill:none;stroke:#FFFFFF;stroke-width:0.58;"/>
  <line x2="73.831" x1="73.831" y2="-46.826" y1="-52.388" style="fill-rule:evenodd;clip-rule:evenodd;fill:none;stroke:#FFFFFF;stroke-width:0.58;"/>
  <line x2="73.831" x1="73.831" y2="-37.826" y1="-43.388" style="fill-rule:evenodd;clip-rule:evenodd;fill:none;stroke:#FFFFFF;stroke-width:0.58;"/>
  <line x2="73.831" x1="73.831" y2="-28.826" y1="-34.388" style="fill-rule:evenodd;clip-rule:evenodd;fill:none;stroke:#FFFFFF;stroke-width:0.58;"/>
  <line x2="73.831" x1="73.831" y2="-19.826" y1="-25.388" style="fill-rule:evenodd;clip-rule:evenodd;fill:none;stroke:#FFFFFF;stroke-width:0.58;"/>
  <line x2="73.831" x1="73.831" y2="-10.826" y1="-16.388" style="fill-rule:evenodd;clip-rule:evenodd;fill:none;stroke:#FFFFFF;stroke-width:0.58;"/>
  <line x2="73.831" x1="73.831" y2="-1.826" y1="-7.388" style="fill-rule:evenodd;clip-rule:evenodd;fill:none;stroke:#FFFFFF;stroke-width:0.58;"/>
  <line x2="79.59" x1="79.59" y2="-73.826" y1="-79.388" style="fill-rule:evenodd;clip-rule:evenodd;fill:none;stroke:#FFFFFF;stroke-width:0.58;"/>
  <line x2="79.59" x1="79.59" y2="-64.826" y1="-70.388" style="fill-rule:evenodd;clip-rule:evenodd;fill:none;stroke:#FFFFFF;stroke-width:0.58;"/>
  <line x2="79.59" x1="79.59" y2="-55.826" y1="-61.388" style="fill-rule:evenodd;clip-rule:evenodd;fill:none;stroke:#FFFFFF;stroke-width:0.58;"/>
  <line x2="79.59" x1="79.59" y2="-46.826" y1="-52.388" style="fill-rule:evenodd;clip-rule:evenodd;fill:none;stroke:#FFFFFF;stroke-width:0.58;"/>
  <line x2="79.59" x1="79.59" y2="-37.826" y1="-43.388" style="fill-rule:evenodd;clip-rule:evenodd;fill:none;stroke:#FFFFFF;stroke-width:0.58;"/>
  <line x2="79.59" x1="79.59" y2="-28.826" y1="-34.388" style="fill-rule:evenodd;clip-rule:evenodd;fill:none;stroke:#FFFFFF;stroke-width:0.58;"/>
  <line x2="79.59" x1="79.59" y2="-19.826" y1="-25.388" style="fill-rule:evenodd;clip-rule:evenodd;fill:none;stroke:#FFFFFF;stroke-width:0.58;"/>
  <line x2="79.59" x1="79.59" y2="-10.826" y1="-16.388" style="fill-rule:evenodd;clip-rule:evenodd;fill:none;stroke:#FFFFFF;stroke-width:0.58;"/>
  <line x2="79.59" x1="79.59" y2="-1.826" y1="-7.388" style="fill-rule:evenodd;clip-rule:evenodd;fill:none;stroke:#FFFFFF;stroke-width:0.58;"/>
 </g>
</svg>
