<?xml version="1.0"?>
<!-- Converted with SVG Converter - Version 0.9.5 (Compiled Fri Feb 21 09:53:38 2020) - Copyright (C) 2011 Nokia -->
<svg xmlns="http://www.w3.org/2000/svg" y="0px" height="80.646" baseProfile="tiny" viewBox="0 -80.646 80.646 80.646" xmlns:xlink="http://www.w3.org/1999/xlink" version="1.1" x="0px" width="80.646" xml:space="preserve">
 <g>
  <rect y="-80.646" style="fill:none;" height="80.646" x="0" width="80.646"/>
  <line y2="-77.967" style="fill-rule:evenodd;clip-rule:evenodd;fill:none;stroke:#00AEEF;stroke-width:0.58;" x1="1.843" y1="-80.646" x2="1.843"/>
  <line y2="0" style="fill-rule:evenodd;clip-rule:evenodd;fill:none;stroke:#00AEEF;stroke-width:0.58;" x1="1.843" y1="-2.529" x2="1.843"/>
  <line y2="-77.967" style="fill-rule:evenodd;clip-rule:evenodd;fill:none;stroke:#00AEEF;stroke-width:0.58;" x1="7.602" y1="-80.646" x2="7.602"/>
  <line y2="0" style="fill-rule:evenodd;clip-rule:evenodd;fill:none;stroke:#00AEEF;stroke-width:0.58;" x1="7.602" y1="-2.529" x2="7.602"/>
  <line y2="-77.967" style="fill-rule:evenodd;clip-rule:evenodd;fill:none;stroke:#00AEEF;stroke-width:0.58;" x1="13.361" y1="-80.646" x2="13.361"/>
  <line y2="0" style="fill-rule:evenodd;clip-rule:evenodd;fill:none;stroke:#00AEEF;stroke-width:0.58;" x1="13.361" y1="-2.529" x2="13.361"/>
  <line y2="-77.967" style="fill-rule:evenodd;clip-rule:evenodd;fill:none;stroke:#00AEEF;stroke-width:0.58;" x1="19.12" y1="-80.646" x2="19.12"/>
  <line y2="0" style="fill-rule:evenodd;clip-rule:evenodd;fill:none;stroke:#00AEEF;stroke-width:0.58;" x1="19.12" y1="-2.529" x2="19.12"/>
  <line y2="-77.967" style="fill-rule:evenodd;clip-rule:evenodd;fill:none;stroke:#00AEEF;stroke-width:0.58;" x1="24.879" y1="-80.646" x2="24.879"/>
  <line y2="0" style="fill-rule:evenodd;clip-rule:evenodd;fill:none;stroke:#00AEEF;stroke-width:0.58;" x1="24.879" y1="-2.529" x2="24.879"/>
  <line y2="-77.967" style="fill-rule:evenodd;clip-rule:evenodd;fill:none;stroke:#00AEEF;stroke-width:0.58;" x1="30.638" y1="-80.646" x2="30.638"/>
  <line y2="0" style="fill-rule:evenodd;clip-rule:evenodd;fill:none;stroke:#00AEEF;stroke-width:0.58;" x1="30.638" y1="-2.529" x2="30.638"/>
  <line y2="-77.967" style="fill-rule:evenodd;clip-rule:evenodd;fill:none;stroke:#00AEEF;stroke-width:0.58;" x1="36.397" y1="-80.646" x2="36.397"/>
  <line y2="0" style="fill-rule:evenodd;clip-rule:evenodd;fill:none;stroke:#00AEEF;stroke-width:0.58;" x1="36.397" y1="-2.529" x2="36.397"/>
  <line y2="-77.967" style="fill-rule:evenodd;clip-rule:evenodd;fill:none;stroke:#00AEEF;stroke-width:0.58;" x1="42.156" y1="-80.646" x2="42.156"/>
  <line y2="0" style="fill-rule:evenodd;clip-rule:evenodd;fill:none;stroke:#00AEEF;stroke-width:0.58;" x1="42.156" y1="-2.529" x2="42.156"/>
  <line y2="-77.967" style="fill-rule:evenodd;clip-rule:evenodd;fill:none;stroke:#00AEEF;stroke-width:0.58;" x1="47.915" y1="-80.646" x2="47.915"/>
  <line y2="0" style="fill-rule:evenodd;clip-rule:evenodd;fill:none;stroke:#00AEEF;stroke-width:0.58;" x1="47.915" y1="-2.529" x2="47.915"/>
  <line y2="-77.967" style="fill-rule:evenodd;clip-rule:evenodd;fill:none;stroke:#00AEEF;stroke-width:0.58;" x1="53.674" y1="-80.646" x2="53.674"/>
  <line y2="0" style="fill-rule:evenodd;clip-rule:evenodd;fill:none;stroke:#00AEEF;stroke-width:0.58;" x1="53.674" y1="-2.529" x2="53.674"/>
  <line y2="-77.967" style="fill-rule:evenodd;clip-rule:evenodd;fill:none;stroke:#00AEEF;stroke-width:0.58;" x1="59.433" y1="-80.646" x2="59.433"/>
  <line y2="0" style="fill-rule:evenodd;clip-rule:evenodd;fill:none;stroke:#00AEEF;stroke-width:0.58;" x1="59.433" y1="-2.529" x2="59.433"/>
  <line y2="-77.967" style="fill-rule:evenodd;clip-rule:evenodd;fill:none;stroke:#00AEEF;stroke-width:0.58;" x1="65.192" y1="-80.646" x2="65.192"/>
  <line y2="0" style="fill-rule:evenodd;clip-rule:evenodd;fill:none;stroke:#00AEEF;stroke-width:0.58;" x1="65.192" y1="-2.529" x2="65.192"/>
  <line y2="-77.967" style="fill-rule:evenodd;clip-rule:evenodd;fill:none;stroke:#00AEEF;stroke-width:0.58;" x1="70.951" y1="-80.646" x2="70.951"/>
  <line y2="0" style="fill-rule:evenodd;clip-rule:evenodd;fill:none;stroke:#00AEEF;stroke-width:0.58;" x1="70.951" y1="-2.529" x2="70.951"/>
  <line y2="-77.967" style="fill-rule:evenodd;clip-rule:evenodd;fill:none;stroke:#00AEEF;stroke-width:0.58;" x1="76.71" y1="-80.646" x2="76.71"/>
  <line y2="0" style="fill-rule:evenodd;clip-rule:evenodd;fill:none;stroke:#00AEEF;stroke-width:0.58;" x1="76.71" y1="-2.529" x2="76.71"/>
  <line y2="-68.967" style="fill-rule:evenodd;clip-rule:evenodd;fill:none;stroke:#00AEEF;stroke-width:0.58;" x1="1.843" y1="-74.53" x2="1.843"/>
  <line y2="-59.967" style="fill-rule:evenodd;clip-rule:evenodd;fill:none;stroke:#00AEEF;stroke-width:0.58;" x1="1.843" y1="-65.53" x2="1.843"/>
  <line y2="-50.967" style="fill-rule:evenodd;clip-rule:evenodd;fill:none;stroke:#00AEEF;stroke-width:0.58;" x1="1.843" y1="-56.53" x2="1.843"/>
  <line y2="-41.967" style="fill-rule:evenodd;clip-rule:evenodd;fill:none;stroke:#00AEEF;stroke-width:0.58;" x1="1.843" y1="-47.53" x2="1.843"/>
  <line y2="-32.967" style="fill-rule:evenodd;clip-rule:evenodd;fill:none;stroke:#00AEEF;stroke-width:0.58;" x1="1.843" y1="-38.53" x2="1.843"/>
  <line y2="-23.967" style="fill-rule:evenodd;clip-rule:evenodd;fill:none;stroke:#00AEEF;stroke-width:0.58;" x1="1.843" y1="-29.529" x2="1.843"/>
  <line y2="-14.967" style="fill-rule:evenodd;clip-rule:evenodd;fill:none;stroke:#00AEEF;stroke-width:0.58;" x1="1.843" y1="-20.529" x2="1.843"/>
  <line y2="-5.967" style="fill-rule:evenodd;clip-rule:evenodd;fill:none;stroke:#00AEEF;stroke-width:0.58;" x1="1.843" y1="-11.529" x2="1.843"/>
  <line y2="-68.967" style="fill-rule:evenodd;clip-rule:evenodd;fill:none;stroke:#00AEEF;stroke-width:0.58;" x1="7.602" y1="-74.53" x2="7.602"/>
  <line y2="-59.967" style="fill-rule:evenodd;clip-rule:evenodd;fill:none;stroke:#00AEEF;stroke-width:0.58;" x1="7.602" y1="-65.53" x2="7.602"/>
  <line y2="-50.967" style="fill-rule:evenodd;clip-rule:evenodd;fill:none;stroke:#00AEEF;stroke-width:0.58;" x1="7.602" y1="-56.53" x2="7.602"/>
  <line y2="-41.967" style="fill-rule:evenodd;clip-rule:evenodd;fill:none;stroke:#00AEEF;stroke-width:0.58;" x1="7.602" y1="-47.53" x2="7.602"/>
  <line y2="-32.967" style="fill-rule:evenodd;clip-rule:evenodd;fill:none;stroke:#00AEEF;stroke-width:0.58;" x1="7.602" y1="-38.53" x2="7.602"/>
  <line y2="-23.967" style="fill-rule:evenodd;clip-rule:evenodd;fill:none;stroke:#00AEEF;stroke-width:0.58;" x1="7.602" y1="-29.529" x2="7.602"/>
  <line y2="-14.967" style="fill-rule:evenodd;clip-rule:evenodd;fill:none;stroke:#00AEEF;stroke-width:0.58;" x1="7.602" y1="-20.529" x2="7.602"/>
  <line y2="-5.967" style="fill-rule:evenodd;clip-rule:evenodd;fill:none;stroke:#00AEEF;stroke-width:0.58;" x1="7.602" y1="-11.529" x2="7.602"/>
  <line y2="-68.967" style="fill-rule:evenodd;clip-rule:evenodd;fill:none;stroke:#00AEEF;stroke-width:0.58;" x1="13.361" y1="-74.53" x2="13.361"/>
  <line y2="-59.967" style="fill-rule:evenodd;clip-rule:evenodd;fill:none;stroke:#00AEEF;stroke-width:0.58;" x1="13.361" y1="-65.53" x2="13.361"/>
  <line y2="-50.967" style="fill-rule:evenodd;clip-rule:evenodd;fill:none;stroke:#00AEEF;stroke-width:0.58;" x1="13.361" y1="-56.53" x2="13.361"/>
  <line y2="-41.967" style="fill-rule:evenodd;clip-rule:evenodd;fill:none;stroke:#00AEEF;stroke-width:0.58;" x1="13.361" y1="-47.53" x2="13.361"/>
  <line y2="-32.967" style="fill-rule:evenodd;clip-rule:evenodd;fill:none;stroke:#00AEEF;stroke-width:0.58;" x1="13.361" y1="-38.53" x2="13.361"/>
  <line y2="-23.967" style="fill-rule:evenodd;clip-rule:evenodd;fill:none;stroke:#00AEEF;stroke-width:0.58;" x1="13.361" y1="-29.529" x2="13.361"/>
  <line y2="-14.967" style="fill-rule:evenodd;clip-rule:evenodd;fill:none;stroke:#00AEEF;stroke-width:0.58;" x1="13.361" y1="-20.529" x2="13.361"/>
  <line y2="-5.967" style="fill-rule:evenodd;clip-rule:evenodd;fill:none;stroke:#00AEEF;stroke-width:0.58;" x1="13.361" y1="-11.529" x2="13.361"/>
  <line y2="-68.967" style="fill-rule:evenodd;clip-rule:evenodd;fill:none;stroke:#00AEEF;stroke-width:0.58;" x1="19.12" y1="-74.53" x2="19.12"/>
  <line y2="-59.967" style="fill-rule:evenodd;clip-rule:evenodd;fill:none;stroke:#00AEEF;stroke-width:0.58;" x1="19.12" y1="-65.53" x2="19.12"/>
  <line y2="-50.967" style="fill-rule:evenodd;clip-rule:evenodd;fill:none;stroke:#00AEEF;stroke-width:0.58;" x1="19.12" y1="-56.53" x2="19.12"/>
  <line y2="-41.967" style="fill-rule:evenodd;clip-rule:evenodd;fill:none;stroke:#00AEEF;stroke-width:0.58;" x1="19.12" y1="-47.53" x2="19.12"/>
  <line y2="-32.967" style="fill-rule:evenodd;clip-rule:evenodd;fill:none;stroke:#00AEEF;stroke-width:0.58;" x1="19.12" y1="-38.53" x2="19.12"/>
  <line y2="-23.967" style="fill-rule:evenodd;clip-rule:evenodd;fill:none;stroke:#00AEEF;stroke-width:0.58;" x1="19.12" y1="-29.529" x2="19.12"/>
  <line y2="-14.967" style="fill-rule:evenodd;clip-rule:evenodd;fill:none;stroke:#00AEEF;stroke-width:0.58;" x1="19.12" y1="-20.529" x2="19.12"/>
  <line y2="-5.967" style="fill-rule:evenodd;clip-rule:evenodd;fill:none;stroke:#00AEEF;stroke-width:0.58;" x1="19.12" y1="-11.529" x2="19.12"/>
  <line y2="-68.967" style="fill-rule:evenodd;clip-rule:evenodd;fill:none;stroke:#00AEEF;stroke-width:0.58;" x1="24.879" y1="-74.53" x2="24.879"/>
  <line y2="-59.967" style="fill-rule:evenodd;clip-rule:evenodd;fill:none;stroke:#00AEEF;stroke-width:0.58;" x1="24.879" y1="-65.53" x2="24.879"/>
  <line y2="-50.967" style="fill-rule:evenodd;clip-rule:evenodd;fill:none;stroke:#00AEEF;stroke-width:0.58;" x1="24.879" y1="-56.53" x2="24.879"/>
  <line y2="-41.967" style="fill-rule:evenodd;clip-rule:evenodd;fill:none;stroke:#00AEEF;stroke-width:0.58;" x1="24.879" y1="-47.53" x2="24.879"/>
  <line y2="-32.967" style="fill-rule:evenodd;clip-rule:evenodd;fill:none;stroke:#00AEEF;stroke-width:0.58;" x1="24.879" y1="-38.53" x2="24.879"/>
  <line y2="-23.967" style="fill-rule:evenodd;clip-rule:evenodd;fill:none;stroke:#00AEEF;stroke-width:0.58;" x1="24.879" y1="-29.529" x2="24.879"/>
  <line y2="-14.967" style="fill-rule:evenodd;clip-rule:evenodd;fill:none;stroke:#00AEEF;stroke-width:0.58;" x1="24.879" y1="-20.529" x2="24.879"/>
  <line y2="-5.967" style="fill-rule:evenodd;clip-rule:evenodd;fill:none;stroke:#00AEEF;stroke-width:0.58;" x1="24.879" y1="-11.529" x2="24.879"/>
  <line y2="-68.967" style="fill-rule:evenodd;clip-rule:evenodd;fill:none;stroke:#00AEEF;stroke-width:0.58;" x1="30.638" y1="-74.53" x2="30.638"/>
  <line y2="-59.967" style="fill-rule:evenodd;clip-rule:evenodd;fill:none;stroke:#00AEEF;stroke-width:0.58;" x1="30.638" y1="-65.53" x2="30.638"/>
  <line y2="-50.967" style="fill-rule:evenodd;clip-rule:evenodd;fill:none;stroke:#00AEEF;stroke-width:0.58;" x1="30.638" y1="-56.53" x2="30.638"/>
  <line y2="-41.967" style="fill-rule:evenodd;clip-rule:evenodd;fill:none;stroke:#00AEEF;stroke-width:0.58;" x1="30.638" y1="-47.53" x2="30.638"/>
  <line y2="-32.967" style="fill-rule:evenodd;clip-rule:evenodd;fill:none;stroke:#00AEEF;stroke-width:0.58;" x1="30.638" y1="-38.53" x2="30.638"/>
  <line y2="-23.967" style="fill-rule:evenodd;clip-rule:evenodd;fill:none;stroke:#00AEEF;stroke-width:0.58;" x1="30.638" y1="-29.529" x2="30.638"/>
  <line y2="-14.967" style="fill-rule:evenodd;clip-rule:evenodd;fill:none;stroke:#00AEEF;stroke-width:0.58;" x1="30.638" y1="-20.529" x2="30.638"/>
  <line y2="-5.967" style="fill-rule:evenodd;clip-rule:evenodd;fill:none;stroke:#00AEEF;stroke-width:0.58;" x1="30.638" y1="-11.529" x2="30.638"/>
  <line y2="-68.967" style="fill-rule:evenodd;clip-rule:evenodd;fill:none;stroke:#00AEEF;stroke-width:0.58;" x1="36.397" y1="-74.53" x2="36.397"/>
  <line y2="-59.967" style="fill-rule:evenodd;clip-rule:evenodd;fill:none;stroke:#00AEEF;stroke-width:0.58;" x1="36.397" y1="-65.53" x2="36.397"/>
  <line y2="-50.967" style="fill-rule:evenodd;clip-rule:evenodd;fill:none;stroke:#00AEEF;stroke-width:0.58;" x1="36.397" y1="-56.53" x2="36.397"/>
  <line y2="-41.967" style="fill-rule:evenodd;clip-rule:evenodd;fill:none;stroke:#00AEEF;stroke-width:0.58;" x1="36.397" y1="-47.53" x2="36.397"/>
  <line y2="-32.967" style="fill-rule:evenodd;clip-rule:evenodd;fill:none;stroke:#00AEEF;stroke-width:0.58;" x1="36.397" y1="-38.53" x2="36.397"/>
  <line y2="-23.967" style="fill-rule:evenodd;clip-rule:evenodd;fill:none;stroke:#00AEEF;stroke-width:0.58;" x1="36.397" y1="-29.529" x2="36.397"/>
  <line y2="-14.967" style="fill-rule:evenodd;clip-rule:evenodd;fill:none;stroke:#00AEEF;stroke-width:0.58;" x1="36.397" y1="-20.529" x2="36.397"/>
  <line y2="-5.967" style="fill-rule:evenodd;clip-rule:evenodd;fill:none;stroke:#00AEEF;stroke-width:0.58;" x1="36.397" y1="-11.529" x2="36.397"/>
  <line y2="-68.967" style="fill-rule:evenodd;clip-rule:evenodd;fill:none;stroke:#00AEEF;stroke-width:0.58;" x1="42.156" y1="-74.53" x2="42.156"/>
  <line y2="-59.967" style="fill-rule:evenodd;clip-rule:evenodd;fill:none;stroke:#00AEEF;stroke-width:0.58;" x1="42.156" y1="-65.53" x2="42.156"/>
  <line y2="-50.967" style="fill-rule:evenodd;clip-rule:evenodd;fill:none;stroke:#00AEEF;stroke-width:0.58;" x1="42.156" y1="-56.53" x2="42.156"/>
  <line y2="-41.967" style="fill-rule:evenodd;clip-rule:evenodd;fill:none;stroke:#00AEEF;stroke-width:0.58;" x1="42.156" y1="-47.53" x2="42.156"/>
  <line y2="-32.967" style="fill-rule:evenodd;clip-rule:evenodd;fill:none;stroke:#00AEEF;stroke-width:0.58;" x1="42.156" y1="-38.53" x2="42.156"/>
  <line y2="-23.967" style="fill-rule:evenodd;clip-rule:evenodd;fill:none;stroke:#00AEEF;stroke-width:0.58;" x1="42.156" y1="-29.529" x2="42.156"/>
  <line y2="-14.967" style="fill-rule:evenodd;clip-rule:evenodd;fill:none;stroke:#00AEEF;stroke-width:0.58;" x1="42.156" y1="-20.529" x2="42.156"/>
  <line y2="-5.967" style="fill-rule:evenodd;clip-rule:evenodd;fill:none;stroke:#00AEEF;stroke-width:0.58;" x1="42.156" y1="-11.529" x2="42.156"/>
  <line y2="-68.967" style="fill-rule:evenodd;clip-rule:evenodd;fill:none;stroke:#00AEEF;stroke-width:0.58;" x1="47.915" y1="-74.53" x2="47.915"/>
  <line y2="-59.967" style="fill-rule:evenodd;clip-rule:evenodd;fill:none;stroke:#00AEEF;stroke-width:0.58;" x1="47.915" y1="-65.53" x2="47.915"/>
  <line y2="-50.967" style="fill-rule:evenodd;clip-rule:evenodd;fill:none;stroke:#00AEEF;stroke-width:0.58;" x1="47.915" y1="-56.53" x2="47.915"/>
  <line y2="-41.967" style="fill-rule:evenodd;clip-rule:evenodd;fill:none;stroke:#00AEEF;stroke-width:0.58;" x1="47.915" y1="-47.53" x2="47.915"/>
  <line y2="-32.967" style="fill-rule:evenodd;clip-rule:evenodd;fill:none;stroke:#00AEEF;stroke-width:0.58;" x1="47.915" y1="-38.53" x2="47.915"/>
  <line y2="-23.967" style="fill-rule:evenodd;clip-rule:evenodd;fill:none;stroke:#00AEEF;stroke-width:0.58;" x1="47.915" y1="-29.529" x2="47.915"/>
  <line y2="-14.967" style="fill-rule:evenodd;clip-rule:evenodd;fill:none;stroke:#00AEEF;stroke-width:0.58;" x1="47.915" y1="-20.529" x2="47.915"/>
  <line y2="-5.967" style="fill-rule:evenodd;clip-rule:evenodd;fill:none;stroke:#00AEEF;stroke-width:0.58;" x1="47.915" y1="-11.529" x2="47.915"/>
  <line y2="-68.967" style="fill-rule:evenodd;clip-rule:evenodd;fill:none;stroke:#00AEEF;stroke-width:0.58;" x1="53.674" y1="-74.53" x2="53.674"/>
  <line y2="-59.967" style="fill-rule:evenodd;clip-rule:evenodd;fill:none;stroke:#00AEEF;stroke-width:0.58;" x1="53.674" y1="-65.53" x2="53.674"/>
  <line y2="-50.967" style="fill-rule:evenodd;clip-rule:evenodd;fill:none;stroke:#00AEEF;stroke-width:0.58;" x1="53.674" y1="-56.53" x2="53.674"/>
  <line y2="-41.967" style="fill-rule:evenodd;clip-rule:evenodd;fill:none;stroke:#00AEEF;stroke-width:0.58;" x1="53.674" y1="-47.53" x2="53.674"/>
  <line y2="-32.967" style="fill-rule:evenodd;clip-rule:evenodd;fill:none;stroke:#00AEEF;stroke-width:0.58;" x1="53.674" y1="-38.53" x2="53.674"/>
  <line y2="-23.967" style="fill-rule:evenodd;clip-rule:evenodd;fill:none;stroke:#00AEEF;stroke-width:0.58;" x1="53.674" y1="-29.529" x2="53.674"/>
  <line y2="-14.967" style="fill-rule:evenodd;clip-rule:evenodd;fill:none;stroke:#00AEEF;stroke-width:0.58;" x1="53.674" y1="-20.529" x2="53.674"/>
  <line y2="-5.967" style="fill-rule:evenodd;clip-rule:evenodd;fill:none;stroke:#00AEEF;stroke-width:0.58;" x1="53.674" y1="-11.529" x2="53.674"/>
  <line y2="-68.967" style="fill-rule:evenodd;clip-rule:evenodd;fill:none;stroke:#00AEEF;stroke-width:0.58;" x1="59.433" y1="-74.53" x2="59.433"/>
  <line y2="-59.967" style="fill-rule:evenodd;clip-rule:evenodd;fill:none;stroke:#00AEEF;stroke-width:0.58;" x1="59.433" y1="-65.53" x2="59.433"/>
  <line y2="-50.967" style="fill-rule:evenodd;clip-rule:evenodd;fill:none;stroke:#00AEEF;stroke-width:0.58;" x1="59.433" y1="-56.53" x2="59.433"/>
  <line y2="-41.967" style="fill-rule:evenodd;clip-rule:evenodd;fill:none;stroke:#00AEEF;stroke-width:0.58;" x1="59.433" y1="-47.53" x2="59.433"/>
  <line y2="-32.967" style="fill-rule:evenodd;clip-rule:evenodd;fill:none;stroke:#00AEEF;stroke-width:0.58;" x1="59.433" y1="-38.53" x2="59.433"/>
  <line y2="-23.967" style="fill-rule:evenodd;clip-rule:evenodd;fill:none;stroke:#00AEEF;stroke-width:0.58;" x1="59.433" y1="-29.529" x2="59.433"/>
  <line y2="-14.967" style="fill-rule:evenodd;clip-rule:evenodd;fill:none;stroke:#00AEEF;stroke-width:0.58;" x1="59.433" y1="-20.529" x2="59.433"/>
  <line y2="-5.967" style="fill-rule:evenodd;clip-rule:evenodd;fill:none;stroke:#00AEEF;stroke-width:0.58;" x1="59.433" y1="-11.529" x2="59.433"/>
  <line y2="-68.967" style="fill-rule:evenodd;clip-rule:evenodd;fill:none;stroke:#00AEEF;stroke-width:0.58;" x1="65.192" y1="-74.53" x2="65.192"/>
  <line y2="-59.967" style="fill-rule:evenodd;clip-rule:evenodd;fill:none;stroke:#00AEEF;stroke-width:0.58;" x1="65.192" y1="-65.53" x2="65.192"/>
  <line y2="-50.967" style="fill-rule:evenodd;clip-rule:evenodd;fill:none;stroke:#00AEEF;stroke-width:0.58;" x1="65.192" y1="-56.53" x2="65.192"/>
  <line y2="-41.967" style="fill-rule:evenodd;clip-rule:evenodd;fill:none;stroke:#00AEEF;stroke-width:0.58;" x1="65.192" y1="-47.53" x2="65.192"/>
  <line y2="-32.967" style="fill-rule:evenodd;clip-rule:evenodd;fill:none;stroke:#00AEEF;stroke-width:0.58;" x1="65.192" y1="-38.53" x2="65.192"/>
  <line y2="-23.967" style="fill-rule:evenodd;clip-rule:evenodd;fill:none;stroke:#00AEEF;stroke-width:0.58;" x1="65.192" y1="-29.529" x2="65.192"/>
  <line y2="-14.967" style="fill-rule:evenodd;clip-rule:evenodd;fill:none;stroke:#00AEEF;stroke-width:0.58;" x1="65.192" y1="-20.529" x2="65.192"/>
  <line y2="-5.967" style="fill-rule:evenodd;clip-rule:evenodd;fill:none;stroke:#00AEEF;stroke-width:0.58;" x1="65.192" y1="-11.529" x2="65.192"/>
  <line y2="-68.967" style="fill-rule:evenodd;clip-rule:evenodd;fill:none;stroke:#00AEEF;stroke-width:0.58;" x1="70.951" y1="-74.53" x2="70.951"/>
  <line y2="-59.967" style="fill-rule:evenodd;clip-rule:evenodd;fill:none;stroke:#00AEEF;stroke-width:0.58;" x1="70.951" y1="-65.53" x2="70.951"/>
  <line y2="-50.967" style="fill-rule:evenodd;clip-rule:evenodd;fill:none;stroke:#00AEEF;stroke-width:0.58;" x1="70.951" y1="-56.53" x2="70.951"/>
  <line y2="-41.967" style="fill-rule:evenodd;clip-rule:evenodd;fill:none;stroke:#00AEEF;stroke-width:0.58;" x1="70.951" y1="-47.53" x2="70.951"/>
  <line y2="-32.967" style="fill-rule:evenodd;clip-rule:evenodd;fill:none;stroke:#00AEEF;stroke-width:0.58;" x1="70.951" y1="-38.53" x2="70.951"/>
  <line y2="-23.967" style="fill-rule:evenodd;clip-rule:evenodd;fill:none;stroke:#00AEEF;stroke-width:0.58;" x1="70.951" y1="-29.529" x2="70.951"/>
  <line y2="-14.967" style="fill-rule:evenodd;clip-rule:evenodd;fill:none;stroke:#00AEEF;stroke-width:0.58;" x1="70.951" y1="-20.529" x2="70.951"/>
  <line y2="-5.967" style="fill-rule:evenodd;clip-rule:evenodd;fill:none;stroke:#00AEEF;stroke-width:0.58;" x1="70.951" y1="-11.529" x2="70.951"/>
  <line y2="-68.967" style="fill-rule:evenodd;clip-rule:evenodd;fill:none;stroke:#00AEEF;stroke-width:0.58;" x1="76.71" y1="-74.53" x2="76.71"/>
  <line y2="-59.967" style="fill-rule:evenodd;clip-rule:evenodd;fill:none;stroke:#00AEEF;stroke-width:0.58;" x1="76.71" y1="-65.53" x2="76.71"/>
  <line y2="-50.967" style="fill-rule:evenodd;clip-rule:evenodd;fill:none;stroke:#00AEEF;stroke-width:0.58;" x1="76.71" y1="-56.53" x2="76.71"/>
  <line y2="-41.967" style="fill-rule:evenodd;clip-rule:evenodd;fill:none;stroke:#00AEEF;stroke-width:0.58;" x1="76.71" y1="-47.53" x2="76.71"/>
  <line y2="-32.967" style="fill-rule:evenodd;clip-rule:evenodd;fill:none;stroke:#00AEEF;stroke-width:0.58;" x1="76.71" y1="-38.53" x2="76.71"/>
  <line y2="-23.967" style="fill-rule:evenodd;clip-rule:evenodd;fill:none;stroke:#00AEEF;stroke-width:0.58;" x1="76.71" y1="-29.529" x2="76.71"/>
  <line y2="-14.967" style="fill-rule:evenodd;clip-rule:evenodd;fill:none;stroke:#00AEEF;stroke-width:0.58;" x1="76.71" y1="-20.529" x2="76.71"/>
  <line y2="-5.967" style="fill-rule:evenodd;clip-rule:evenodd;fill:none;stroke:#00AEEF;stroke-width:0.58;" x1="76.71" y1="-11.529" x2="76.71"/>
  <line y2="-73.825" style="fill-rule:evenodd;clip-rule:evenodd;fill:none;stroke:#00AEEF;stroke-width:0.58;" x1="4.722" y1="-79.388" x2="4.722"/>
  <line y2="-64.825" style="fill-rule:evenodd;clip-rule:evenodd;fill:none;stroke:#00AEEF;stroke-width:0.58;" x1="4.722" y1="-70.388" x2="4.722"/>
  <line y2="-55.825" style="fill-rule:evenodd;clip-rule:evenodd;fill:none;stroke:#00AEEF;stroke-width:0.58;" x1="4.722" y1="-61.388" x2="4.722"/>
  <line y2="-46.825" style="fill-rule:evenodd;clip-rule:evenodd;fill:none;stroke:#00AEEF;stroke-width:0.58;" x1="4.722" y1="-52.388" x2="4.722"/>
  <line y2="-37.825" style="fill-rule:evenodd;clip-rule:evenodd;fill:none;stroke:#00AEEF;stroke-width:0.58;" x1="4.722" y1="-43.388" x2="4.722"/>
  <line y2="-28.825" style="fill-rule:evenodd;clip-rule:evenodd;fill:none;stroke:#00AEEF;stroke-width:0.58;" x1="4.722" y1="-34.388" x2="4.722"/>
  <line y2="-19.825" style="fill-rule:evenodd;clip-rule:evenodd;fill:none;stroke:#00AEEF;stroke-width:0.58;" x1="4.722" y1="-25.388" x2="4.722"/>
  <line y2="-10.825" style="fill-rule:evenodd;clip-rule:evenodd;fill:none;stroke:#00AEEF;stroke-width:0.58;" x1="4.722" y1="-16.388" x2="4.722"/>
  <line y2="-1.825" style="fill-rule:evenodd;clip-rule:evenodd;fill:none;stroke:#00AEEF;stroke-width:0.58;" x1="4.722" y1="-7.388" x2="4.722"/>
  <line y2="-73.825" style="fill-rule:evenodd;clip-rule:evenodd;fill:none;stroke:#00AEEF;stroke-width:0.58;" x1="10.481" y1="-79.388" x2="10.481"/>
  <line y2="-64.825" style="fill-rule:evenodd;clip-rule:evenodd;fill:none;stroke:#00AEEF;stroke-width:0.58;" x1="10.481" y1="-70.388" x2="10.481"/>
  <line y2="-55.825" style="fill-rule:evenodd;clip-rule:evenodd;fill:none;stroke:#00AEEF;stroke-width:0.58;" x1="10.481" y1="-61.388" x2="10.481"/>
  <line y2="-46.825" style="fill-rule:evenodd;clip-rule:evenodd;fill:none;stroke:#00AEEF;stroke-width:0.58;" x1="10.481" y1="-52.388" x2="10.481"/>
  <line y2="-37.825" style="fill-rule:evenodd;clip-rule:evenodd;fill:none;stroke:#00AEEF;stroke-width:0.58;" x1="10.481" y1="-43.388" x2="10.481"/>
  <line y2="-28.825" style="fill-rule:evenodd;clip-rule:evenodd;fill:none;stroke:#00AEEF;stroke-width:0.58;" x1="10.481" y1="-34.388" x2="10.481"/>
  <line y2="-19.825" style="fill-rule:evenodd;clip-rule:evenodd;fill:none;stroke:#00AEEF;stroke-width:0.58;" x1="10.481" y1="-25.388" x2="10.481"/>
  <line y2="-10.825" style="fill-rule:evenodd;clip-rule:evenodd;fill:none;stroke:#00AEEF;stroke-width:0.58;" x1="10.481" y1="-16.388" x2="10.481"/>
  <line y2="-1.825" style="fill-rule:evenodd;clip-rule:evenodd;fill:none;stroke:#00AEEF;stroke-width:0.58;" x1="10.481" y1="-7.388" x2="10.481"/>
  <line y2="-73.825" style="fill-rule:evenodd;clip-rule:evenodd;fill:none;stroke:#00AEEF;stroke-width:0.58;" x1="16.24" y1="-79.388" x2="16.24"/>
  <line y2="-64.825" style="fill-rule:evenodd;clip-rule:evenodd;fill:none;stroke:#00AEEF;stroke-width:0.58;" x1="16.24" y1="-70.388" x2="16.24"/>
  <line y2="-55.825" style="fill-rule:evenodd;clip-rule:evenodd;fill:none;stroke:#00AEEF;stroke-width:0.58;" x1="16.24" y1="-61.388" x2="16.24"/>
  <line y2="-46.825" style="fill-rule:evenodd;clip-rule:evenodd;fill:none;stroke:#00AEEF;stroke-width:0.58;" x1="16.24" y1="-52.388" x2="16.24"/>
  <line y2="-37.825" style="fill-rule:evenodd;clip-rule:evenodd;fill:none;stroke:#00AEEF;stroke-width:0.58;" x1="16.24" y1="-43.388" x2="16.24"/>
  <line y2="-28.825" style="fill-rule:evenodd;clip-rule:evenodd;fill:none;stroke:#00AEEF;stroke-width:0.58;" x1="16.24" y1="-34.388" x2="16.24"/>
  <line y2="-19.825" style="fill-rule:evenodd;clip-rule:evenodd;fill:none;stroke:#00AEEF;stroke-width:0.58;" x1="16.24" y1="-25.388" x2="16.24"/>
  <line y2="-10.825" style="fill-rule:evenodd;clip-rule:evenodd;fill:none;stroke:#00AEEF;stroke-width:0.58;" x1="16.24" y1="-16.388" x2="16.24"/>
  <line y2="-1.825" style="fill-rule:evenodd;clip-rule:evenodd;fill:none;stroke:#00AEEF;stroke-width:0.58;" x1="16.24" y1="-7.388" x2="16.24"/>
  <line y2="-73.825" style="fill-rule:evenodd;clip-rule:evenodd;fill:none;stroke:#00AEEF;stroke-width:0.58;" x1="22" y1="-79.388" x2="22"/>
  <line y2="-64.825" style="fill-rule:evenodd;clip-rule:evenodd;fill:none;stroke:#00AEEF;stroke-width:0.58;" x1="22" y1="-70.388" x2="22"/>
  <line y2="-55.825" style="fill-rule:evenodd;clip-rule:evenodd;fill:none;stroke:#00AEEF;stroke-width:0.58;" x1="22" y1="-61.388" x2="22"/>
  <line y2="-46.825" style="fill-rule:evenodd;clip-rule:evenodd;fill:none;stroke:#00AEEF;stroke-width:0.58;" x1="22" y1="-52.388" x2="22"/>
  <line y2="-37.825" style="fill-rule:evenodd;clip-rule:evenodd;fill:none;stroke:#00AEEF;stroke-width:0.58;" x1="22" y1="-43.388" x2="22"/>
  <line y2="-28.825" style="fill-rule:evenodd;clip-rule:evenodd;fill:none;stroke:#00AEEF;stroke-width:0.58;" x1="22" y1="-34.388" x2="22"/>
  <line y2="-19.825" style="fill-rule:evenodd;clip-rule:evenodd;fill:none;stroke:#00AEEF;stroke-width:0.58;" x1="22" y1="-25.388" x2="22"/>
  <line y2="-10.825" style="fill-rule:evenodd;clip-rule:evenodd;fill:none;stroke:#00AEEF;stroke-width:0.58;" x1="22" y1="-16.388" x2="22"/>
  <line y2="-1.825" style="fill-rule:evenodd;clip-rule:evenodd;fill:none;stroke:#00AEEF;stroke-width:0.58;" x1="22" y1="-7.388" x2="22"/>
  <line y2="-73.825" style="fill-rule:evenodd;clip-rule:evenodd;fill:none;stroke:#00AEEF;stroke-width:0.58;" x1="27.758" y1="-79.388" x2="27.758"/>
  <line y2="-64.825" style="fill-rule:evenodd;clip-rule:evenodd;fill:none;stroke:#00AEEF;stroke-width:0.58;" x1="27.758" y1="-70.388" x2="27.758"/>
  <line y2="-55.825" style="fill-rule:evenodd;clip-rule:evenodd;fill:none;stroke:#00AEEF;stroke-width:0.58;" x1="27.758" y1="-61.388" x2="27.758"/>
  <line y2="-46.825" style="fill-rule:evenodd;clip-rule:evenodd;fill:none;stroke:#00AEEF;stroke-width:0.58;" x1="27.758" y1="-52.388" x2="27.758"/>
  <line y2="-37.825" style="fill-rule:evenodd;clip-rule:evenodd;fill:none;stroke:#00AEEF;stroke-width:0.58;" x1="27.758" y1="-43.388" x2="27.758"/>
  <line y2="-28.825" style="fill-rule:evenodd;clip-rule:evenodd;fill:none;stroke:#00AEEF;stroke-width:0.58;" x1="27.758" y1="-34.388" x2="27.758"/>
  <line y2="-19.825" style="fill-rule:evenodd;clip-rule:evenodd;fill:none;stroke:#00AEEF;stroke-width:0.58;" x1="27.758" y1="-25.388" x2="27.758"/>
  <line y2="-10.825" style="fill-rule:evenodd;clip-rule:evenodd;fill:none;stroke:#00AEEF;stroke-width:0.58;" x1="27.758" y1="-16.388" x2="27.758"/>
  <line y2="-1.825" style="fill-rule:evenodd;clip-rule:evenodd;fill:none;stroke:#00AEEF;stroke-width:0.58;" x1="27.758" y1="-7.388" x2="27.758"/>
  <line y2="-73.825" style="fill-rule:evenodd;clip-rule:evenodd;fill:none;stroke:#00AEEF;stroke-width:0.58;" x1="33.518" y1="-79.388" x2="33.518"/>
  <line y2="-64.825" style="fill-rule:evenodd;clip-rule:evenodd;fill:none;stroke:#00AEEF;stroke-width:0.58;" x1="33.518" y1="-70.388" x2="33.518"/>
  <line y2="-55.825" style="fill-rule:evenodd;clip-rule:evenodd;fill:none;stroke:#00AEEF;stroke-width:0.58;" x1="33.518" y1="-61.388" x2="33.518"/>
  <line y2="-46.825" style="fill-rule:evenodd;clip-rule:evenodd;fill:none;stroke:#00AEEF;stroke-width:0.58;" x1="33.518" y1="-52.388" x2="33.518"/>
  <line y2="-37.825" style="fill-rule:evenodd;clip-rule:evenodd;fill:none;stroke:#00AEEF;stroke-width:0.58;" x1="33.518" y1="-43.388" x2="33.518"/>
  <line y2="-28.825" style="fill-rule:evenodd;clip-rule:evenodd;fill:none;stroke:#00AEEF;stroke-width:0.58;" x1="33.518" y1="-34.388" x2="33.518"/>
  <line y2="-19.825" style="fill-rule:evenodd;clip-rule:evenodd;fill:none;stroke:#00AEEF;stroke-width:0.58;" x1="33.518" y1="-25.388" x2="33.518"/>
  <line y2="-10.825" style="fill-rule:evenodd;clip-rule:evenodd;fill:none;stroke:#00AEEF;stroke-width:0.58;" x1="33.518" y1="-16.388" x2="33.518"/>
  <line y2="-1.825" style="fill-rule:evenodd;clip-rule:evenodd;fill:none;stroke:#00AEEF;stroke-width:0.58;" x1="33.518" y1="-7.388" x2="33.518"/>
  <line y2="-73.825" style="fill-rule:evenodd;clip-rule:evenodd;fill:none;stroke:#00AEEF;stroke-width:0.58;" x1="39.276" y1="-79.388" x2="39.276"/>
  <line y2="-64.825" style="fill-rule:evenodd;clip-rule:evenodd;fill:none;stroke:#00AEEF;stroke-width:0.58;" x1="39.276" y1="-70.388" x2="39.276"/>
  <line y2="-55.825" style="fill-rule:evenodd;clip-rule:evenodd;fill:none;stroke:#00AEEF;stroke-width:0.58;" x1="39.276" y1="-61.388" x2="39.276"/>
  <line y2="-46.825" style="fill-rule:evenodd;clip-rule:evenodd;fill:none;stroke:#00AEEF;stroke-width:0.58;" x1="39.276" y1="-52.388" x2="39.276"/>
  <line y2="-37.825" style="fill-rule:evenodd;clip-rule:evenodd;fill:none;stroke:#00AEEF;stroke-width:0.58;" x1="39.276" y1="-43.388" x2="39.276"/>
  <line y2="-28.825" style="fill-rule:evenodd;clip-rule:evenodd;fill:none;stroke:#00AEEF;stroke-width:0.58;" x1="39.276" y1="-34.388" x2="39.276"/>
  <line y2="-19.825" style="fill-rule:evenodd;clip-rule:evenodd;fill:none;stroke:#00AEEF;stroke-width:0.58;" x1="39.276" y1="-25.388" x2="39.276"/>
  <line y2="-10.825" style="fill-rule:evenodd;clip-rule:evenodd;fill:none;stroke:#00AEEF;stroke-width:0.58;" x1="39.276" y1="-16.388" x2="39.276"/>
  <line y2="-1.825" style="fill-rule:evenodd;clip-rule:evenodd;fill:none;stroke:#00AEEF;stroke-width:0.58;" x1="39.276" y1="-7.388" x2="39.276"/>
  <line y2="-73.825" style="fill-rule:evenodd;clip-rule:evenodd;fill:none;stroke:#00AEEF;stroke-width:0.58;" x1="45.036" y1="-79.388" x2="45.036"/>
  <line y2="-64.825" style="fill-rule:evenodd;clip-rule:evenodd;fill:none;stroke:#00AEEF;stroke-width:0.58;" x1="45.036" y1="-70.388" x2="45.036"/>
  <line y2="-55.825" style="fill-rule:evenodd;clip-rule:evenodd;fill:none;stroke:#00AEEF;stroke-width:0.58;" x1="45.036" y1="-61.388" x2="45.036"/>
  <line y2="-46.825" style="fill-rule:evenodd;clip-rule:evenodd;fill:none;stroke:#00AEEF;stroke-width:0.58;" x1="45.036" y1="-52.388" x2="45.036"/>
  <line y2="-37.825" style="fill-rule:evenodd;clip-rule:evenodd;fill:none;stroke:#00AEEF;stroke-width:0.58;" x1="45.036" y1="-43.388" x2="45.036"/>
  <line y2="-28.825" style="fill-rule:evenodd;clip-rule:evenodd;fill:none;stroke:#00AEEF;stroke-width:0.58;" x1="45.036" y1="-34.388" x2="45.036"/>
  <line y2="-19.825" style="fill-rule:evenodd;clip-rule:evenodd;fill:none;stroke:#00AEEF;stroke-width:0.58;" x1="45.036" y1="-25.388" x2="45.036"/>
  <line y2="-10.825" style="fill-rule:evenodd;clip-rule:evenodd;fill:none;stroke:#00AEEF;stroke-width:0.58;" x1="45.036" y1="-16.388" x2="45.036"/>
  <line y2="-1.825" style="fill-rule:evenodd;clip-rule:evenodd;fill:none;stroke:#00AEEF;stroke-width:0.58;" x1="45.036" y1="-7.388" x2="45.036"/>
  <line y2="-73.825" style="fill-rule:evenodd;clip-rule:evenodd;fill:none;stroke:#00AEEF;stroke-width:0.58;" x1="50.794" y1="-79.388" x2="50.794"/>
  <line y2="-64.825" style="fill-rule:evenodd;clip-rule:evenodd;fill:none;stroke:#00AEEF;stroke-width:0.58;" x1="50.794" y1="-70.388" x2="50.794"/>
  <line y2="-55.825" style="fill-rule:evenodd;clip-rule:evenodd;fill:none;stroke:#00AEEF;stroke-width:0.58;" x1="50.794" y1="-61.388" x2="50.794"/>
  <line y2="-46.825" style="fill-rule:evenodd;clip-rule:evenodd;fill:none;stroke:#00AEEF;stroke-width:0.58;" x1="50.794" y1="-52.388" x2="50.794"/>
  <line y2="-37.825" style="fill-rule:evenodd;clip-rule:evenodd;fill:none;stroke:#00AEEF;stroke-width:0.58;" x1="50.794" y1="-43.388" x2="50.794"/>
  <line y2="-28.825" style="fill-rule:evenodd;clip-rule:evenodd;fill:none;stroke:#00AEEF;stroke-width:0.58;" x1="50.794" y1="-34.388" x2="50.794"/>
  <line y2="-19.825" style="fill-rule:evenodd;clip-rule:evenodd;fill:none;stroke:#00AEEF;stroke-width:0.58;" x1="50.794" y1="-25.388" x2="50.794"/>
  <line y2="-10.825" style="fill-rule:evenodd;clip-rule:evenodd;fill:none;stroke:#00AEEF;stroke-width:0.58;" x1="50.794" y1="-16.388" x2="50.794"/>
  <line y2="-1.825" style="fill-rule:evenodd;clip-rule:evenodd;fill:none;stroke:#00AEEF;stroke-width:0.58;" x1="50.794" y1="-7.388" x2="50.794"/>
  <line y2="-73.825" style="fill-rule:evenodd;clip-rule:evenodd;fill:none;stroke:#00AEEF;stroke-width:0.58;" x1="56.554" y1="-79.388" x2="56.554"/>
  <line y2="-64.825" style="fill-rule:evenodd;clip-rule:evenodd;fill:none;stroke:#00AEEF;stroke-width:0.58;" x1="56.554" y1="-70.388" x2="56.554"/>
  <line y2="-55.825" style="fill-rule:evenodd;clip-rule:evenodd;fill:none;stroke:#00AEEF;stroke-width:0.58;" x1="56.554" y1="-61.388" x2="56.554"/>
  <line y2="-46.825" style="fill-rule:evenodd;clip-rule:evenodd;fill:none;stroke:#00AEEF;stroke-width:0.58;" x1="56.554" y1="-52.388" x2="56.554"/>
  <line y2="-37.825" style="fill-rule:evenodd;clip-rule:evenodd;fill:none;stroke:#00AEEF;stroke-width:0.58;" x1="56.554" y1="-43.388" x2="56.554"/>
  <line y2="-28.825" style="fill-rule:evenodd;clip-rule:evenodd;fill:none;stroke:#00AEEF;stroke-width:0.58;" x1="56.554" y1="-34.388" x2="56.554"/>
  <line y2="-19.825" style="fill-rule:evenodd;clip-rule:evenodd;fill:none;stroke:#00AEEF;stroke-width:0.58;" x1="56.554" y1="-25.388" x2="56.554"/>
  <line y2="-10.825" style="fill-rule:evenodd;clip-rule:evenodd;fill:none;stroke:#00AEEF;stroke-width:0.58;" x1="56.554" y1="-16.388" x2="56.554"/>
  <line y2="-1.825" style="fill-rule:evenodd;clip-rule:evenodd;fill:none;stroke:#00AEEF;stroke-width:0.58;" x1="56.554" y1="-7.388" x2="56.554"/>
  <line y2="-73.825" style="fill-rule:evenodd;clip-rule:evenodd;fill:none;stroke:#00AEEF;stroke-width:0.58;" x1="62.312" y1="-79.388" x2="62.312"/>
  <line y2="-64.825" style="fill-rule:evenodd;clip-rule:evenodd;fill:none;stroke:#00AEEF;stroke-width:0.58;" x1="62.312" y1="-70.388" x2="62.312"/>
  <line y2="-55.825" style="fill-rule:evenodd;clip-rule:evenodd;fill:none;stroke:#00AEEF;stroke-width:0.58;" x1="62.312" y1="-61.388" x2="62.312"/>
  <line y2="-46.825" style="fill-rule:evenodd;clip-rule:evenodd;fill:none;stroke:#00AEEF;stroke-width:0.58;" x1="62.312" y1="-52.388" x2="62.312"/>
  <line y2="-37.825" style="fill-rule:evenodd;clip-rule:evenodd;fill:none;stroke:#00AEEF;stroke-width:0.58;" x1="62.312" y1="-43.388" x2="62.312"/>
  <line y2="-28.825" style="fill-rule:evenodd;clip-rule:evenodd;fill:none;stroke:#00AEEF;stroke-width:0.58;" x1="62.312" y1="-34.388" x2="62.312"/>
  <line y2="-19.825" style="fill-rule:evenodd;clip-rule:evenodd;fill:none;stroke:#00AEEF;stroke-width:0.58;" x1="62.312" y1="-25.388" x2="62.312"/>
  <line y2="-10.825" style="fill-rule:evenodd;clip-rule:evenodd;fill:none;stroke:#00AEEF;stroke-width:0.58;" x1="62.312" y1="-16.388" x2="62.312"/>
  <line y2="-1.825" style="fill-rule:evenodd;clip-rule:evenodd;fill:none;stroke:#00AEEF;stroke-width:0.58;" x1="62.312" y1="-7.388" x2="62.312"/>
  <line y2="-73.825" style="fill-rule:evenodd;clip-rule:evenodd;fill:none;stroke:#00AEEF;stroke-width:0.58;" x1="68.072" y1="-79.388" x2="68.072"/>
  <line y2="-64.825" style="fill-rule:evenodd;clip-rule:evenodd;fill:none;stroke:#00AEEF;stroke-width:0.58;" x1="68.072" y1="-70.388" x2="68.072"/>
  <line y2="-55.825" style="fill-rule:evenodd;clip-rule:evenodd;fill:none;stroke:#00AEEF;stroke-width:0.58;" x1="68.072" y1="-61.388" x2="68.072"/>
  <line y2="-46.825" style="fill-rule:evenodd;clip-rule:evenodd;fill:none;stroke:#00AEEF;stroke-width:0.58;" x1="68.072" y1="-52.388" x2="68.072"/>
  <line y2="-37.825" style="fill-rule:evenodd;clip-rule:evenodd;fill:none;stroke:#00AEEF;stroke-width:0.58;" x1="68.072" y1="-43.388" x2="68.072"/>
  <line y2="-28.825" style="fill-rule:evenodd;clip-rule:evenodd;fill:none;stroke:#00AEEF;stroke-width:0.58;" x1="68.072" y1="-34.388" x2="68.072"/>
  <line y2="-19.825" style="fill-rule:evenodd;clip-rule:evenodd;fill:none;stroke:#00AEEF;stroke-width:0.58;" x1="68.072" y1="-25.388" x2="68.072"/>
  <line y2="-10.825" style="fill-rule:evenodd;clip-rule:evenodd;fill:none;stroke:#00AEEF;stroke-width:0.58;" x1="68.072" y1="-16.388" x2="68.072"/>
  <line y2="-1.825" style="fill-rule:evenodd;clip-rule:evenodd;fill:none;stroke:#00AEEF;stroke-width:0.58;" x1="68.072" y1="-7.388" x2="68.072"/>
  <line y2="-73.825" style="fill-rule:evenodd;clip-rule:evenodd;fill:none;stroke:#00AEEF;stroke-width:0.58;" x1="73.831" y1="-79.388" x2="73.831"/>
  <line y2="-64.825" style="fill-rule:evenodd;clip-rule:evenodd;fill:none;stroke:#00AEEF;stroke-width:0.58;" x1="73.831" y1="-70.388" x2="73.831"/>
  <line y2="-55.825" style="fill-rule:evenodd;clip-rule:evenodd;fill:none;stroke:#00AEEF;stroke-width:0.58;" x1="73.831" y1="-61.388" x2="73.831"/>
  <line y2="-46.825" style="fill-rule:evenodd;clip-rule:evenodd;fill:none;stroke:#00AEEF;stroke-width:0.58;" x1="73.831" y1="-52.388" x2="73.831"/>
  <line y2="-37.825" style="fill-rule:evenodd;clip-rule:evenodd;fill:none;stroke:#00AEEF;stroke-width:0.58;" x1="73.831" y1="-43.388" x2="73.831"/>
  <line y2="-28.825" style="fill-rule:evenodd;clip-rule:evenodd;fill:none;stroke:#00AEEF;stroke-width:0.58;" x1="73.831" y1="-34.388" x2="73.831"/>
  <line y2="-19.825" style="fill-rule:evenodd;clip-rule:evenodd;fill:none;stroke:#00AEEF;stroke-width:0.58;" x1="73.831" y1="-25.388" x2="73.831"/>
  <line y2="-10.825" style="fill-rule:evenodd;clip-rule:evenodd;fill:none;stroke:#00AEEF;stroke-width:0.58;" x1="73.831" y1="-16.388" x2="73.831"/>
  <line y2="-1.825" style="fill-rule:evenodd;clip-rule:evenodd;fill:none;stroke:#00AEEF;stroke-width:0.58;" x1="73.831" y1="-7.388" x2="73.831"/>
  <line y2="-73.825" style="fill-rule:evenodd;clip-rule:evenodd;fill:none;stroke:#00AEEF;stroke-width:0.58;" x1="79.59" y1="-79.388" x2="79.59"/>
  <line y2="-64.825" style="fill-rule:evenodd;clip-rule:evenodd;fill:none;stroke:#00AEEF;stroke-width:0.58;" x1="79.59" y1="-70.388" x2="79.59"/>
  <line y2="-55.825" style="fill-rule:evenodd;clip-rule:evenodd;fill:none;stroke:#00AEEF;stroke-width:0.58;" x1="79.59" y1="-61.388" x2="79.59"/>
  <line y2="-46.825" style="fill-rule:evenodd;clip-rule:evenodd;fill:none;stroke:#00AEEF;stroke-width:0.58;" x1="79.59" y1="-52.388" x2="79.59"/>
  <line y2="-37.825" style="fill-rule:evenodd;clip-rule:evenodd;fill:none;stroke:#00AEEF;stroke-width:0.58;" x1="79.59" y1="-43.388" x2="79.59"/>
  <line y2="-28.825" style="fill-rule:evenodd;clip-rule:evenodd;fill:none;stroke:#00AEEF;stroke-width:0.58;" x1="79.59" y1="-34.388" x2="79.59"/>
  <line y2="-19.825" style="fill-rule:evenodd;clip-rule:evenodd;fill:none;stroke:#00AEEF;stroke-width:0.58;" x1="79.59" y1="-25.388" x2="79.59"/>
  <line y2="-10.825" style="fill-rule:evenodd;clip-rule:evenodd;fill:none;stroke:#00AEEF;stroke-width:0.58;" x1="79.59" y1="-16.388" x2="79.59"/>
  <line y2="-1.825" style="fill-rule:evenodd;clip-rule:evenodd;fill:none;stroke:#00AEEF;stroke-width:0.58;" x1="79.59" y1="-7.388" x2="79.59"/>
  <rect y="-80.646" style="fill-rule:evenodd;clip-rule:evenodd;fill:none;" height="80.646" x="0" width="80.646"/>
  <rect y="-80.646" style="fill-rule:evenodd;clip-rule:evenodd;fill:none;" height="80.646" x="0" width="80.646"/>
 </g>
</svg>
