<?xml version="1.0"?>
<!-- Converted with SVG Converter - Version 0.9.5 (Compiled Fri Feb 21 09:53:38 2020) - Copyright (C) 2011 Nokia -->
<svg xmlns="http://www.w3.org/2000/svg" baseProfile="tiny" version="1.1" x="0px" width="80.646" y="0px" height="80.646" xmlns:xlink="http://www.w3.org/1999/xlink" xml:space="preserve" viewBox="0 -80.646 80.646 80.646">
 <g>
  <rect style="fill:none;" x="0" width="80.646" y="-80.646" height="80.646"/>
  <line style="fill-rule:evenodd;clip-rule:evenodd;fill:none;stroke:#EC008C;stroke-width:0.58;" x1="1.843" x2="1.843" y2="-77.967" y1="-80.646"/>
  <line style="fill-rule:evenodd;clip-rule:evenodd;fill:none;stroke:#EC008C;stroke-width:0.58;" x1="1.843" x2="1.843" y2="0" y1="-2.529"/>
  <line style="fill-rule:evenodd;clip-rule:evenodd;fill:none;stroke:#EC008C;stroke-width:0.58;" x1="7.602" x2="7.602" y2="-77.967" y1="-80.646"/>
  <line style="fill-rule:evenodd;clip-rule:evenodd;fill:none;stroke:#EC008C;stroke-width:0.58;" x1="7.602" x2="7.602" y2="0" y1="-2.529"/>
  <line style="fill-rule:evenodd;clip-rule:evenodd;fill:none;stroke:#EC008C;stroke-width:0.58;" x1="13.361" x2="13.361" y2="-77.967" y1="-80.646"/>
  <line style="fill-rule:evenodd;clip-rule:evenodd;fill:none;stroke:#EC008C;stroke-width:0.58;" x1="13.361" x2="13.361" y2="0" y1="-2.529"/>
  <line style="fill-rule:evenodd;clip-rule:evenodd;fill:none;stroke:#EC008C;stroke-width:0.58;" x1="19.12" x2="19.12" y2="-77.967" y1="-80.646"/>
  <line style="fill-rule:evenodd;clip-rule:evenodd;fill:none;stroke:#EC008C;stroke-width:0.58;" x1="19.12" x2="19.12" y2="0" y1="-2.529"/>
  <line style="fill-rule:evenodd;clip-rule:evenodd;fill:none;stroke:#EC008C;stroke-width:0.58;" x1="24.879" x2="24.879" y2="-77.967" y1="-80.646"/>
  <line style="fill-rule:evenodd;clip-rule:evenodd;fill:none;stroke:#EC008C;stroke-width:0.58;" x1="24.879" x2="24.879" y2="0" y1="-2.529"/>
  <line style="fill-rule:evenodd;clip-rule:evenodd;fill:none;stroke:#EC008C;stroke-width:0.58;" x1="30.638" x2="30.638" y2="-77.967" y1="-80.646"/>
  <line style="fill-rule:evenodd;clip-rule:evenodd;fill:none;stroke:#EC008C;stroke-width:0.58;" x1="30.638" x2="30.638" y2="0" y1="-2.529"/>
  <line style="fill-rule:evenodd;clip-rule:evenodd;fill:none;stroke:#EC008C;stroke-width:0.58;" x1="36.397" x2="36.397" y2="-77.967" y1="-80.646"/>
  <line style="fill-rule:evenodd;clip-rule:evenodd;fill:none;stroke:#EC008C;stroke-width:0.58;" x1="36.397" x2="36.397" y2="0" y1="-2.529"/>
  <line style="fill-rule:evenodd;clip-rule:evenodd;fill:none;stroke:#EC008C;stroke-width:0.58;" x1="42.156" x2="42.156" y2="-77.967" y1="-80.646"/>
  <line style="fill-rule:evenodd;clip-rule:evenodd;fill:none;stroke:#EC008C;stroke-width:0.58;" x1="42.156" x2="42.156" y2="0" y1="-2.529"/>
  <line style="fill-rule:evenodd;clip-rule:evenodd;fill:none;stroke:#EC008C;stroke-width:0.58;" x1="47.915" x2="47.915" y2="-77.967" y1="-80.646"/>
  <line style="fill-rule:evenodd;clip-rule:evenodd;fill:none;stroke:#EC008C;stroke-width:0.58;" x1="47.915" x2="47.915" y2="0" y1="-2.529"/>
  <line style="fill-rule:evenodd;clip-rule:evenodd;fill:none;stroke:#EC008C;stroke-width:0.58;" x1="53.674" x2="53.674" y2="-77.967" y1="-80.646"/>
  <line style="fill-rule:evenodd;clip-rule:evenodd;fill:none;stroke:#EC008C;stroke-width:0.58;" x1="53.674" x2="53.674" y2="0" y1="-2.529"/>
  <line style="fill-rule:evenodd;clip-rule:evenodd;fill:none;stroke:#EC008C;stroke-width:0.58;" x1="59.433" x2="59.433" y2="-77.967" y1="-80.646"/>
  <line style="fill-rule:evenodd;clip-rule:evenodd;fill:none;stroke:#EC008C;stroke-width:0.58;" x1="59.433" x2="59.433" y2="0" y1="-2.529"/>
  <line style="fill-rule:evenodd;clip-rule:evenodd;fill:none;stroke:#EC008C;stroke-width:0.58;" x1="65.192" x2="65.192" y2="-77.967" y1="-80.646"/>
  <line style="fill-rule:evenodd;clip-rule:evenodd;fill:none;stroke:#EC008C;stroke-width:0.58;" x1="65.192" x2="65.192" y2="0" y1="-2.529"/>
  <line style="fill-rule:evenodd;clip-rule:evenodd;fill:none;stroke:#EC008C;stroke-width:0.58;" x1="70.951" x2="70.951" y2="-77.967" y1="-80.646"/>
  <line style="fill-rule:evenodd;clip-rule:evenodd;fill:none;stroke:#EC008C;stroke-width:0.58;" x1="70.951" x2="70.951" y2="0" y1="-2.529"/>
  <line style="fill-rule:evenodd;clip-rule:evenodd;fill:none;stroke:#EC008C;stroke-width:0.58;" x1="76.71" x2="76.71" y2="-77.967" y1="-80.646"/>
  <line style="fill-rule:evenodd;clip-rule:evenodd;fill:none;stroke:#EC008C;stroke-width:0.58;" x1="76.71" x2="76.71" y2="0" y1="-2.529"/>
  <line style="fill-rule:evenodd;clip-rule:evenodd;fill:none;stroke:#EC008C;stroke-width:0.58;" x1="1.843" x2="1.843" y2="-68.967" y1="-74.53"/>
  <line style="fill-rule:evenodd;clip-rule:evenodd;fill:none;stroke:#EC008C;stroke-width:0.58;" x1="1.843" x2="1.843" y2="-59.968" y1="-65.53"/>
  <line style="fill-rule:evenodd;clip-rule:evenodd;fill:none;stroke:#EC008C;stroke-width:0.58;" x1="1.843" x2="1.843" y2="-50.968" y1="-56.53"/>
  <line style="fill-rule:evenodd;clip-rule:evenodd;fill:none;stroke:#EC008C;stroke-width:0.58;" x1="1.843" x2="1.843" y2="-41.968" y1="-47.53"/>
  <line style="fill-rule:evenodd;clip-rule:evenodd;fill:none;stroke:#EC008C;stroke-width:0.58;" x1="1.843" x2="1.843" y2="-32.967" y1="-38.53"/>
  <line style="fill-rule:evenodd;clip-rule:evenodd;fill:none;stroke:#EC008C;stroke-width:0.58;" x1="1.843" x2="1.843" y2="-23.967" y1="-29.529"/>
  <line style="fill-rule:evenodd;clip-rule:evenodd;fill:none;stroke:#EC008C;stroke-width:0.58;" x1="1.843" x2="1.843" y2="-14.967" y1="-20.529"/>
  <line style="fill-rule:evenodd;clip-rule:evenodd;fill:none;stroke:#EC008C;stroke-width:0.58;" x1="1.843" x2="1.843" y2="-5.967" y1="-11.529"/>
  <line style="fill-rule:evenodd;clip-rule:evenodd;fill:none;stroke:#EC008C;stroke-width:0.58;" x1="7.602" x2="7.602" y2="-68.967" y1="-74.53"/>
  <line style="fill-rule:evenodd;clip-rule:evenodd;fill:none;stroke:#EC008C;stroke-width:0.58;" x1="7.602" x2="7.602" y2="-59.968" y1="-65.53"/>
  <line style="fill-rule:evenodd;clip-rule:evenodd;fill:none;stroke:#EC008C;stroke-width:0.58;" x1="7.602" x2="7.602" y2="-50.968" y1="-56.53"/>
  <line style="fill-rule:evenodd;clip-rule:evenodd;fill:none;stroke:#EC008C;stroke-width:0.58;" x1="7.602" x2="7.602" y2="-41.968" y1="-47.53"/>
  <line style="fill-rule:evenodd;clip-rule:evenodd;fill:none;stroke:#EC008C;stroke-width:0.58;" x1="7.602" x2="7.602" y2="-32.967" y1="-38.53"/>
  <line style="fill-rule:evenodd;clip-rule:evenodd;fill:none;stroke:#EC008C;stroke-width:0.58;" x1="7.602" x2="7.602" y2="-23.967" y1="-29.529"/>
  <line style="fill-rule:evenodd;clip-rule:evenodd;fill:none;stroke:#EC008C;stroke-width:0.58;" x1="7.602" x2="7.602" y2="-14.967" y1="-20.529"/>
  <line style="fill-rule:evenodd;clip-rule:evenodd;fill:none;stroke:#EC008C;stroke-width:0.58;" x1="7.602" x2="7.602" y2="-5.967" y1="-11.529"/>
  <line style="fill-rule:evenodd;clip-rule:evenodd;fill:none;stroke:#EC008C;stroke-width:0.58;" x1="13.361" x2="13.361" y2="-68.967" y1="-74.53"/>
  <line style="fill-rule:evenodd;clip-rule:evenodd;fill:none;stroke:#EC008C;stroke-width:0.58;" x1="13.361" x2="13.361" y2="-59.968" y1="-65.53"/>
  <line style="fill-rule:evenodd;clip-rule:evenodd;fill:none;stroke:#EC008C;stroke-width:0.58;" x1="13.361" x2="13.361" y2="-50.968" y1="-56.53"/>
  <line style="fill-rule:evenodd;clip-rule:evenodd;fill:none;stroke:#EC008C;stroke-width:0.58;" x1="13.361" x2="13.361" y2="-41.968" y1="-47.53"/>
  <line style="fill-rule:evenodd;clip-rule:evenodd;fill:none;stroke:#EC008C;stroke-width:0.58;" x1="13.361" x2="13.361" y2="-32.967" y1="-38.53"/>
  <line style="fill-rule:evenodd;clip-rule:evenodd;fill:none;stroke:#EC008C;stroke-width:0.58;" x1="13.361" x2="13.361" y2="-23.967" y1="-29.529"/>
  <line style="fill-rule:evenodd;clip-rule:evenodd;fill:none;stroke:#EC008C;stroke-width:0.58;" x1="13.361" x2="13.361" y2="-14.967" y1="-20.529"/>
  <line style="fill-rule:evenodd;clip-rule:evenodd;fill:none;stroke:#EC008C;stroke-width:0.58;" x1="13.361" x2="13.361" y2="-5.967" y1="-11.529"/>
  <line style="fill-rule:evenodd;clip-rule:evenodd;fill:none;stroke:#EC008C;stroke-width:0.58;" x1="19.12" x2="19.12" y2="-68.967" y1="-74.53"/>
  <line style="fill-rule:evenodd;clip-rule:evenodd;fill:none;stroke:#EC008C;stroke-width:0.58;" x1="19.12" x2="19.12" y2="-59.968" y1="-65.53"/>
  <line style="fill-rule:evenodd;clip-rule:evenodd;fill:none;stroke:#EC008C;stroke-width:0.58;" x1="19.12" x2="19.12" y2="-50.968" y1="-56.53"/>
  <line style="fill-rule:evenodd;clip-rule:evenodd;fill:none;stroke:#EC008C;stroke-width:0.58;" x1="19.12" x2="19.12" y2="-41.968" y1="-47.53"/>
  <line style="fill-rule:evenodd;clip-rule:evenodd;fill:none;stroke:#EC008C;stroke-width:0.58;" x1="19.12" x2="19.12" y2="-32.967" y1="-38.53"/>
  <line style="fill-rule:evenodd;clip-rule:evenodd;fill:none;stroke:#EC008C;stroke-width:0.58;" x1="19.12" x2="19.12" y2="-23.967" y1="-29.529"/>
  <line style="fill-rule:evenodd;clip-rule:evenodd;fill:none;stroke:#EC008C;stroke-width:0.58;" x1="19.12" x2="19.12" y2="-14.967" y1="-20.529"/>
  <line style="fill-rule:evenodd;clip-rule:evenodd;fill:none;stroke:#EC008C;stroke-width:0.58;" x1="19.12" x2="19.12" y2="-5.967" y1="-11.529"/>
  <line style="fill-rule:evenodd;clip-rule:evenodd;fill:none;stroke:#EC008C;stroke-width:0.58;" x1="24.879" x2="24.879" y2="-68.967" y1="-74.53"/>
  <line style="fill-rule:evenodd;clip-rule:evenodd;fill:none;stroke:#EC008C;stroke-width:0.58;" x1="24.879" x2="24.879" y2="-59.968" y1="-65.53"/>
  <line style="fill-rule:evenodd;clip-rule:evenodd;fill:none;stroke:#EC008C;stroke-width:0.58;" x1="24.879" x2="24.879" y2="-50.968" y1="-56.53"/>
  <line style="fill-rule:evenodd;clip-rule:evenodd;fill:none;stroke:#EC008C;stroke-width:0.58;" x1="24.879" x2="24.879" y2="-41.968" y1="-47.53"/>
  <line style="fill-rule:evenodd;clip-rule:evenodd;fill:none;stroke:#EC008C;stroke-width:0.58;" x1="24.879" x2="24.879" y2="-32.967" y1="-38.53"/>
  <line style="fill-rule:evenodd;clip-rule:evenodd;fill:none;stroke:#EC008C;stroke-width:0.58;" x1="24.879" x2="24.879" y2="-23.967" y1="-29.529"/>
  <line style="fill-rule:evenodd;clip-rule:evenodd;fill:none;stroke:#EC008C;stroke-width:0.58;" x1="24.879" x2="24.879" y2="-14.967" y1="-20.529"/>
  <line style="fill-rule:evenodd;clip-rule:evenodd;fill:none;stroke:#EC008C;stroke-width:0.58;" x1="24.879" x2="24.879" y2="-5.967" y1="-11.529"/>
  <line style="fill-rule:evenodd;clip-rule:evenodd;fill:none;stroke:#EC008C;stroke-width:0.58;" x1="30.638" x2="30.638" y2="-68.967" y1="-74.53"/>
  <line style="fill-rule:evenodd;clip-rule:evenodd;fill:none;stroke:#EC008C;stroke-width:0.58;" x1="30.638" x2="30.638" y2="-59.968" y1="-65.53"/>
  <line style="fill-rule:evenodd;clip-rule:evenodd;fill:none;stroke:#EC008C;stroke-width:0.58;" x1="30.638" x2="30.638" y2="-50.968" y1="-56.53"/>
  <line style="fill-rule:evenodd;clip-rule:evenodd;fill:none;stroke:#EC008C;stroke-width:0.58;" x1="30.638" x2="30.638" y2="-41.968" y1="-47.53"/>
  <line style="fill-rule:evenodd;clip-rule:evenodd;fill:none;stroke:#EC008C;stroke-width:0.58;" x1="30.638" x2="30.638" y2="-32.967" y1="-38.53"/>
  <line style="fill-rule:evenodd;clip-rule:evenodd;fill:none;stroke:#EC008C;stroke-width:0.58;" x1="30.638" x2="30.638" y2="-23.967" y1="-29.529"/>
  <line style="fill-rule:evenodd;clip-rule:evenodd;fill:none;stroke:#EC008C;stroke-width:0.58;" x1="30.638" x2="30.638" y2="-14.967" y1="-20.529"/>
  <line style="fill-rule:evenodd;clip-rule:evenodd;fill:none;stroke:#EC008C;stroke-width:0.58;" x1="30.638" x2="30.638" y2="-5.967" y1="-11.529"/>
  <line style="fill-rule:evenodd;clip-rule:evenodd;fill:none;stroke:#EC008C;stroke-width:0.58;" x1="36.397" x2="36.397" y2="-68.967" y1="-74.53"/>
  <line style="fill-rule:evenodd;clip-rule:evenodd;fill:none;stroke:#EC008C;stroke-width:0.58;" x1="36.397" x2="36.397" y2="-59.968" y1="-65.53"/>
  <line style="fill-rule:evenodd;clip-rule:evenodd;fill:none;stroke:#EC008C;stroke-width:0.58;" x1="36.397" x2="36.397" y2="-50.968" y1="-56.53"/>
  <line style="fill-rule:evenodd;clip-rule:evenodd;fill:none;stroke:#EC008C;stroke-width:0.58;" x1="36.397" x2="36.397" y2="-41.968" y1="-47.53"/>
  <line style="fill-rule:evenodd;clip-rule:evenodd;fill:none;stroke:#EC008C;stroke-width:0.58;" x1="36.397" x2="36.397" y2="-32.967" y1="-38.53"/>
  <line style="fill-rule:evenodd;clip-rule:evenodd;fill:none;stroke:#EC008C;stroke-width:0.58;" x1="36.397" x2="36.397" y2="-23.967" y1="-29.529"/>
  <line style="fill-rule:evenodd;clip-rule:evenodd;fill:none;stroke:#EC008C;stroke-width:0.58;" x1="36.397" x2="36.397" y2="-14.967" y1="-20.529"/>
  <line style="fill-rule:evenodd;clip-rule:evenodd;fill:none;stroke:#EC008C;stroke-width:0.58;" x1="36.397" x2="36.397" y2="-5.967" y1="-11.529"/>
  <line style="fill-rule:evenodd;clip-rule:evenodd;fill:none;stroke:#EC008C;stroke-width:0.58;" x1="42.156" x2="42.156" y2="-68.967" y1="-74.53"/>
  <line style="fill-rule:evenodd;clip-rule:evenodd;fill:none;stroke:#EC008C;stroke-width:0.58;" x1="42.156" x2="42.156" y2="-59.968" y1="-65.53"/>
  <line style="fill-rule:evenodd;clip-rule:evenodd;fill:none;stroke:#EC008C;stroke-width:0.58;" x1="42.156" x2="42.156" y2="-50.968" y1="-56.53"/>
  <line style="fill-rule:evenodd;clip-rule:evenodd;fill:none;stroke:#EC008C;stroke-width:0.58;" x1="42.156" x2="42.156" y2="-41.968" y1="-47.53"/>
  <line style="fill-rule:evenodd;clip-rule:evenodd;fill:none;stroke:#EC008C;stroke-width:0.58;" x1="42.156" x2="42.156" y2="-32.967" y1="-38.53"/>
  <line style="fill-rule:evenodd;clip-rule:evenodd;fill:none;stroke:#EC008C;stroke-width:0.58;" x1="42.156" x2="42.156" y2="-23.967" y1="-29.529"/>
  <line style="fill-rule:evenodd;clip-rule:evenodd;fill:none;stroke:#EC008C;stroke-width:0.58;" x1="42.156" x2="42.156" y2="-14.967" y1="-20.529"/>
  <line style="fill-rule:evenodd;clip-rule:evenodd;fill:none;stroke:#EC008C;stroke-width:0.58;" x1="42.156" x2="42.156" y2="-5.967" y1="-11.529"/>
  <line style="fill-rule:evenodd;clip-rule:evenodd;fill:none;stroke:#EC008C;stroke-width:0.58;" x1="47.915" x2="47.915" y2="-68.967" y1="-74.53"/>
  <line style="fill-rule:evenodd;clip-rule:evenodd;fill:none;stroke:#EC008C;stroke-width:0.58;" x1="47.915" x2="47.915" y2="-59.968" y1="-65.53"/>
  <line style="fill-rule:evenodd;clip-rule:evenodd;fill:none;stroke:#EC008C;stroke-width:0.58;" x1="47.915" x2="47.915" y2="-50.968" y1="-56.53"/>
  <line style="fill-rule:evenodd;clip-rule:evenodd;fill:none;stroke:#EC008C;stroke-width:0.58;" x1="47.915" x2="47.915" y2="-41.968" y1="-47.53"/>
  <line style="fill-rule:evenodd;clip-rule:evenodd;fill:none;stroke:#EC008C;stroke-width:0.58;" x1="47.915" x2="47.915" y2="-32.967" y1="-38.53"/>
  <line style="fill-rule:evenodd;clip-rule:evenodd;fill:none;stroke:#EC008C;stroke-width:0.58;" x1="47.915" x2="47.915" y2="-23.967" y1="-29.529"/>
  <line style="fill-rule:evenodd;clip-rule:evenodd;fill:none;stroke:#EC008C;stroke-width:0.58;" x1="47.915" x2="47.915" y2="-14.967" y1="-20.529"/>
  <line style="fill-rule:evenodd;clip-rule:evenodd;fill:none;stroke:#EC008C;stroke-width:0.58;" x1="47.915" x2="47.915" y2="-5.967" y1="-11.529"/>
  <line style="fill-rule:evenodd;clip-rule:evenodd;fill:none;stroke:#EC008C;stroke-width:0.58;" x1="53.674" x2="53.674" y2="-68.967" y1="-74.53"/>
  <line style="fill-rule:evenodd;clip-rule:evenodd;fill:none;stroke:#EC008C;stroke-width:0.58;" x1="53.674" x2="53.674" y2="-59.968" y1="-65.53"/>
  <line style="fill-rule:evenodd;clip-rule:evenodd;fill:none;stroke:#EC008C;stroke-width:0.58;" x1="53.674" x2="53.674" y2="-50.968" y1="-56.53"/>
  <line style="fill-rule:evenodd;clip-rule:evenodd;fill:none;stroke:#EC008C;stroke-width:0.58;" x1="53.674" x2="53.674" y2="-41.968" y1="-47.53"/>
  <line style="fill-rule:evenodd;clip-rule:evenodd;fill:none;stroke:#EC008C;stroke-width:0.58;" x1="53.674" x2="53.674" y2="-32.967" y1="-38.53"/>
  <line style="fill-rule:evenodd;clip-rule:evenodd;fill:none;stroke:#EC008C;stroke-width:0.58;" x1="53.674" x2="53.674" y2="-23.967" y1="-29.529"/>
  <line style="fill-rule:evenodd;clip-rule:evenodd;fill:none;stroke:#EC008C;stroke-width:0.58;" x1="53.674" x2="53.674" y2="-14.967" y1="-20.529"/>
  <line style="fill-rule:evenodd;clip-rule:evenodd;fill:none;stroke:#EC008C;stroke-width:0.58;" x1="53.674" x2="53.674" y2="-5.967" y1="-11.529"/>
  <line style="fill-rule:evenodd;clip-rule:evenodd;fill:none;stroke:#EC008C;stroke-width:0.58;" x1="59.433" x2="59.433" y2="-68.967" y1="-74.53"/>
  <line style="fill-rule:evenodd;clip-rule:evenodd;fill:none;stroke:#EC008C;stroke-width:0.58;" x1="59.433" x2="59.433" y2="-59.968" y1="-65.53"/>
  <line style="fill-rule:evenodd;clip-rule:evenodd;fill:none;stroke:#EC008C;stroke-width:0.58;" x1="59.433" x2="59.433" y2="-50.968" y1="-56.53"/>
  <line style="fill-rule:evenodd;clip-rule:evenodd;fill:none;stroke:#EC008C;stroke-width:0.58;" x1="59.433" x2="59.433" y2="-41.968" y1="-47.53"/>
  <line style="fill-rule:evenodd;clip-rule:evenodd;fill:none;stroke:#EC008C;stroke-width:0.58;" x1="59.433" x2="59.433" y2="-32.967" y1="-38.53"/>
  <line style="fill-rule:evenodd;clip-rule:evenodd;fill:none;stroke:#EC008C;stroke-width:0.58;" x1="59.433" x2="59.433" y2="-23.967" y1="-29.529"/>
  <line style="fill-rule:evenodd;clip-rule:evenodd;fill:none;stroke:#EC008C;stroke-width:0.58;" x1="59.433" x2="59.433" y2="-14.967" y1="-20.529"/>
  <line style="fill-rule:evenodd;clip-rule:evenodd;fill:none;stroke:#EC008C;stroke-width:0.58;" x1="59.433" x2="59.433" y2="-5.967" y1="-11.529"/>
  <line style="fill-rule:evenodd;clip-rule:evenodd;fill:none;stroke:#EC008C;stroke-width:0.58;" x1="65.192" x2="65.192" y2="-68.967" y1="-74.53"/>
  <line style="fill-rule:evenodd;clip-rule:evenodd;fill:none;stroke:#EC008C;stroke-width:0.58;" x1="65.192" x2="65.192" y2="-59.968" y1="-65.53"/>
  <line style="fill-rule:evenodd;clip-rule:evenodd;fill:none;stroke:#EC008C;stroke-width:0.58;" x1="65.192" x2="65.192" y2="-50.968" y1="-56.53"/>
  <line style="fill-rule:evenodd;clip-rule:evenodd;fill:none;stroke:#EC008C;stroke-width:0.58;" x1="65.192" x2="65.192" y2="-41.968" y1="-47.53"/>
  <line style="fill-rule:evenodd;clip-rule:evenodd;fill:none;stroke:#EC008C;stroke-width:0.58;" x1="65.192" x2="65.192" y2="-32.967" y1="-38.53"/>
  <line style="fill-rule:evenodd;clip-rule:evenodd;fill:none;stroke:#EC008C;stroke-width:0.58;" x1="65.192" x2="65.192" y2="-23.967" y1="-29.529"/>
  <line style="fill-rule:evenodd;clip-rule:evenodd;fill:none;stroke:#EC008C;stroke-width:0.58;" x1="65.192" x2="65.192" y2="-14.967" y1="-20.529"/>
  <line style="fill-rule:evenodd;clip-rule:evenodd;fill:none;stroke:#EC008C;stroke-width:0.58;" x1="65.192" x2="65.192" y2="-5.967" y1="-11.529"/>
  <line style="fill-rule:evenodd;clip-rule:evenodd;fill:none;stroke:#EC008C;stroke-width:0.58;" x1="70.951" x2="70.951" y2="-68.967" y1="-74.53"/>
  <line style="fill-rule:evenodd;clip-rule:evenodd;fill:none;stroke:#EC008C;stroke-width:0.58;" x1="70.951" x2="70.951" y2="-59.968" y1="-65.53"/>
  <line style="fill-rule:evenodd;clip-rule:evenodd;fill:none;stroke:#EC008C;stroke-width:0.58;" x1="70.951" x2="70.951" y2="-50.968" y1="-56.53"/>
  <line style="fill-rule:evenodd;clip-rule:evenodd;fill:none;stroke:#EC008C;stroke-width:0.58;" x1="70.951" x2="70.951" y2="-41.968" y1="-47.53"/>
  <line style="fill-rule:evenodd;clip-rule:evenodd;fill:none;stroke:#EC008C;stroke-width:0.58;" x1="70.951" x2="70.951" y2="-32.967" y1="-38.53"/>
  <line style="fill-rule:evenodd;clip-rule:evenodd;fill:none;stroke:#EC008C;stroke-width:0.58;" x1="70.951" x2="70.951" y2="-23.967" y1="-29.529"/>
  <line style="fill-rule:evenodd;clip-rule:evenodd;fill:none;stroke:#EC008C;stroke-width:0.58;" x1="70.951" x2="70.951" y2="-14.967" y1="-20.529"/>
  <line style="fill-rule:evenodd;clip-rule:evenodd;fill:none;stroke:#EC008C;stroke-width:0.58;" x1="70.951" x2="70.951" y2="-5.967" y1="-11.529"/>
  <line style="fill-rule:evenodd;clip-rule:evenodd;fill:none;stroke:#EC008C;stroke-width:0.58;" x1="76.71" x2="76.71" y2="-68.967" y1="-74.53"/>
  <line style="fill-rule:evenodd;clip-rule:evenodd;fill:none;stroke:#EC008C;stroke-width:0.58;" x1="76.71" x2="76.71" y2="-59.968" y1="-65.53"/>
  <line style="fill-rule:evenodd;clip-rule:evenodd;fill:none;stroke:#EC008C;stroke-width:0.58;" x1="76.71" x2="76.71" y2="-50.968" y1="-56.53"/>
  <line style="fill-rule:evenodd;clip-rule:evenodd;fill:none;stroke:#EC008C;stroke-width:0.58;" x1="76.71" x2="76.71" y2="-41.968" y1="-47.53"/>
  <line style="fill-rule:evenodd;clip-rule:evenodd;fill:none;stroke:#EC008C;stroke-width:0.58;" x1="76.71" x2="76.71" y2="-32.967" y1="-38.53"/>
  <line style="fill-rule:evenodd;clip-rule:evenodd;fill:none;stroke:#EC008C;stroke-width:0.58;" x1="76.71" x2="76.71" y2="-23.967" y1="-29.529"/>
  <line style="fill-rule:evenodd;clip-rule:evenodd;fill:none;stroke:#EC008C;stroke-width:0.58;" x1="76.71" x2="76.71" y2="-14.967" y1="-20.529"/>
  <line style="fill-rule:evenodd;clip-rule:evenodd;fill:none;stroke:#EC008C;stroke-width:0.58;" x1="76.71" x2="76.71" y2="-5.967" y1="-11.529"/>
  <line style="fill-rule:evenodd;clip-rule:evenodd;fill:none;stroke:#EC008C;stroke-width:0.58;" x1="4.722" x2="4.722" y2="-73.825" y1="-79.388"/>
  <line style="fill-rule:evenodd;clip-rule:evenodd;fill:none;stroke:#EC008C;stroke-width:0.58;" x1="4.722" x2="4.722" y2="-64.825" y1="-70.388"/>
  <line style="fill-rule:evenodd;clip-rule:evenodd;fill:none;stroke:#EC008C;stroke-width:0.58;" x1="4.722" x2="4.722" y2="-55.825" y1="-61.388"/>
  <line style="fill-rule:evenodd;clip-rule:evenodd;fill:none;stroke:#EC008C;stroke-width:0.58;" x1="4.722" x2="4.722" y2="-46.825" y1="-52.388"/>
  <line style="fill-rule:evenodd;clip-rule:evenodd;fill:none;stroke:#EC008C;stroke-width:0.58;" x1="4.722" x2="4.722" y2="-37.825" y1="-43.388"/>
  <line style="fill-rule:evenodd;clip-rule:evenodd;fill:none;stroke:#EC008C;stroke-width:0.58;" x1="4.722" x2="4.722" y2="-28.825" y1="-34.388"/>
  <line style="fill-rule:evenodd;clip-rule:evenodd;fill:none;stroke:#EC008C;stroke-width:0.58;" x1="4.722" x2="4.722" y2="-19.825" y1="-25.388"/>
  <line style="fill-rule:evenodd;clip-rule:evenodd;fill:none;stroke:#EC008C;stroke-width:0.58;" x1="4.722" x2="4.722" y2="-10.825" y1="-16.388"/>
  <line style="fill-rule:evenodd;clip-rule:evenodd;fill:none;stroke:#EC008C;stroke-width:0.58;" x1="4.722" x2="4.722" y2="-1.825" y1="-7.388"/>
  <line style="fill-rule:evenodd;clip-rule:evenodd;fill:none;stroke:#EC008C;stroke-width:0.58;" x1="10.481" x2="10.481" y2="-73.825" y1="-79.388"/>
  <line style="fill-rule:evenodd;clip-rule:evenodd;fill:none;stroke:#EC008C;stroke-width:0.58;" x1="10.481" x2="10.481" y2="-64.825" y1="-70.388"/>
  <line style="fill-rule:evenodd;clip-rule:evenodd;fill:none;stroke:#EC008C;stroke-width:0.58;" x1="10.481" x2="10.481" y2="-55.825" y1="-61.388"/>
  <line style="fill-rule:evenodd;clip-rule:evenodd;fill:none;stroke:#EC008C;stroke-width:0.58;" x1="10.481" x2="10.481" y2="-46.825" y1="-52.388"/>
  <line style="fill-rule:evenodd;clip-rule:evenodd;fill:none;stroke:#EC008C;stroke-width:0.58;" x1="10.481" x2="10.481" y2="-37.825" y1="-43.388"/>
  <line style="fill-rule:evenodd;clip-rule:evenodd;fill:none;stroke:#EC008C;stroke-width:0.58;" x1="10.481" x2="10.481" y2="-28.825" y1="-34.388"/>
  <line style="fill-rule:evenodd;clip-rule:evenodd;fill:none;stroke:#EC008C;stroke-width:0.58;" x1="10.481" x2="10.481" y2="-19.825" y1="-25.388"/>
  <line style="fill-rule:evenodd;clip-rule:evenodd;fill:none;stroke:#EC008C;stroke-width:0.58;" x1="10.481" x2="10.481" y2="-10.825" y1="-16.388"/>
  <line style="fill-rule:evenodd;clip-rule:evenodd;fill:none;stroke:#EC008C;stroke-width:0.58;" x1="10.481" x2="10.481" y2="-1.825" y1="-7.388"/>
  <line style="fill-rule:evenodd;clip-rule:evenodd;fill:none;stroke:#EC008C;stroke-width:0.58;" x1="16.24" x2="16.24" y2="-73.825" y1="-79.388"/>
  <line style="fill-rule:evenodd;clip-rule:evenodd;fill:none;stroke:#EC008C;stroke-width:0.58;" x1="16.24" x2="16.24" y2="-64.825" y1="-70.388"/>
  <line style="fill-rule:evenodd;clip-rule:evenodd;fill:none;stroke:#EC008C;stroke-width:0.58;" x1="16.24" x2="16.24" y2="-55.825" y1="-61.388"/>
  <line style="fill-rule:evenodd;clip-rule:evenodd;fill:none;stroke:#EC008C;stroke-width:0.58;" x1="16.24" x2="16.24" y2="-46.825" y1="-52.388"/>
  <line style="fill-rule:evenodd;clip-rule:evenodd;fill:none;stroke:#EC008C;stroke-width:0.58;" x1="16.24" x2="16.24" y2="-37.825" y1="-43.388"/>
  <line style="fill-rule:evenodd;clip-rule:evenodd;fill:none;stroke:#EC008C;stroke-width:0.58;" x1="16.24" x2="16.24" y2="-28.825" y1="-34.388"/>
  <line style="fill-rule:evenodd;clip-rule:evenodd;fill:none;stroke:#EC008C;stroke-width:0.58;" x1="16.24" x2="16.24" y2="-19.825" y1="-25.388"/>
  <line style="fill-rule:evenodd;clip-rule:evenodd;fill:none;stroke:#EC008C;stroke-width:0.58;" x1="16.24" x2="16.24" y2="-10.825" y1="-16.388"/>
  <line style="fill-rule:evenodd;clip-rule:evenodd;fill:none;stroke:#EC008C;stroke-width:0.58;" x1="16.24" x2="16.24" y2="-1.825" y1="-7.388"/>
  <line style="fill-rule:evenodd;clip-rule:evenodd;fill:none;stroke:#EC008C;stroke-width:0.58;" x1="22" x2="22" y2="-73.825" y1="-79.388"/>
  <line style="fill-rule:evenodd;clip-rule:evenodd;fill:none;stroke:#EC008C;stroke-width:0.58;" x1="22" x2="22" y2="-64.825" y1="-70.388"/>
  <line style="fill-rule:evenodd;clip-rule:evenodd;fill:none;stroke:#EC008C;stroke-width:0.58;" x1="22" x2="22" y2="-55.825" y1="-61.388"/>
  <line style="fill-rule:evenodd;clip-rule:evenodd;fill:none;stroke:#EC008C;stroke-width:0.58;" x1="22" x2="22" y2="-46.825" y1="-52.388"/>
  <line style="fill-rule:evenodd;clip-rule:evenodd;fill:none;stroke:#EC008C;stroke-width:0.58;" x1="22" x2="22" y2="-37.825" y1="-43.388"/>
  <line style="fill-rule:evenodd;clip-rule:evenodd;fill:none;stroke:#EC008C;stroke-width:0.58;" x1="22" x2="22" y2="-28.825" y1="-34.388"/>
  <line style="fill-rule:evenodd;clip-rule:evenodd;fill:none;stroke:#EC008C;stroke-width:0.58;" x1="22" x2="22" y2="-19.825" y1="-25.388"/>
  <line style="fill-rule:evenodd;clip-rule:evenodd;fill:none;stroke:#EC008C;stroke-width:0.58;" x1="22" x2="22" y2="-10.825" y1="-16.388"/>
  <line style="fill-rule:evenodd;clip-rule:evenodd;fill:none;stroke:#EC008C;stroke-width:0.58;" x1="22" x2="22" y2="-1.825" y1="-7.388"/>
  <line style="fill-rule:evenodd;clip-rule:evenodd;fill:none;stroke:#EC008C;stroke-width:0.58;" x1="27.758" x2="27.758" y2="-73.825" y1="-79.388"/>
  <line style="fill-rule:evenodd;clip-rule:evenodd;fill:none;stroke:#EC008C;stroke-width:0.58;" x1="27.758" x2="27.758" y2="-64.825" y1="-70.388"/>
  <line style="fill-rule:evenodd;clip-rule:evenodd;fill:none;stroke:#EC008C;stroke-width:0.58;" x1="27.758" x2="27.758" y2="-55.825" y1="-61.388"/>
  <line style="fill-rule:evenodd;clip-rule:evenodd;fill:none;stroke:#EC008C;stroke-width:0.58;" x1="27.758" x2="27.758" y2="-46.825" y1="-52.388"/>
  <line style="fill-rule:evenodd;clip-rule:evenodd;fill:none;stroke:#EC008C;stroke-width:0.58;" x1="27.758" x2="27.758" y2="-37.825" y1="-43.388"/>
  <line style="fill-rule:evenodd;clip-rule:evenodd;fill:none;stroke:#EC008C;stroke-width:0.58;" x1="27.758" x2="27.758" y2="-28.825" y1="-34.388"/>
  <line style="fill-rule:evenodd;clip-rule:evenodd;fill:none;stroke:#EC008C;stroke-width:0.58;" x1="27.758" x2="27.758" y2="-19.825" y1="-25.388"/>
  <line style="fill-rule:evenodd;clip-rule:evenodd;fill:none;stroke:#EC008C;stroke-width:0.58;" x1="27.758" x2="27.758" y2="-10.825" y1="-16.388"/>
  <line style="fill-rule:evenodd;clip-rule:evenodd;fill:none;stroke:#EC008C;stroke-width:0.58;" x1="27.758" x2="27.758" y2="-1.825" y1="-7.388"/>
  <line style="fill-rule:evenodd;clip-rule:evenodd;fill:none;stroke:#EC008C;stroke-width:0.58;" x1="33.518" x2="33.518" y2="-73.825" y1="-79.388"/>
  <line style="fill-rule:evenodd;clip-rule:evenodd;fill:none;stroke:#EC008C;stroke-width:0.58;" x1="33.518" x2="33.518" y2="-64.825" y1="-70.388"/>
  <line style="fill-rule:evenodd;clip-rule:evenodd;fill:none;stroke:#EC008C;stroke-width:0.58;" x1="33.518" x2="33.518" y2="-55.825" y1="-61.388"/>
  <line style="fill-rule:evenodd;clip-rule:evenodd;fill:none;stroke:#EC008C;stroke-width:0.58;" x1="33.518" x2="33.518" y2="-46.825" y1="-52.388"/>
  <line style="fill-rule:evenodd;clip-rule:evenodd;fill:none;stroke:#EC008C;stroke-width:0.58;" x1="33.518" x2="33.518" y2="-37.825" y1="-43.388"/>
  <line style="fill-rule:evenodd;clip-rule:evenodd;fill:none;stroke:#EC008C;stroke-width:0.58;" x1="33.518" x2="33.518" y2="-28.825" y1="-34.388"/>
  <line style="fill-rule:evenodd;clip-rule:evenodd;fill:none;stroke:#EC008C;stroke-width:0.58;" x1="33.518" x2="33.518" y2="-19.825" y1="-25.388"/>
  <line style="fill-rule:evenodd;clip-rule:evenodd;fill:none;stroke:#EC008C;stroke-width:0.58;" x1="33.518" x2="33.518" y2="-10.825" y1="-16.388"/>
  <line style="fill-rule:evenodd;clip-rule:evenodd;fill:none;stroke:#EC008C;stroke-width:0.58;" x1="33.518" x2="33.518" y2="-1.825" y1="-7.388"/>
  <line style="fill-rule:evenodd;clip-rule:evenodd;fill:none;stroke:#EC008C;stroke-width:0.58;" x1="39.276" x2="39.276" y2="-73.825" y1="-79.388"/>
  <line style="fill-rule:evenodd;clip-rule:evenodd;fill:none;stroke:#EC008C;stroke-width:0.58;" x1="39.276" x2="39.276" y2="-64.825" y1="-70.388"/>
  <line style="fill-rule:evenodd;clip-rule:evenodd;fill:none;stroke:#EC008C;stroke-width:0.58;" x1="39.276" x2="39.276" y2="-55.825" y1="-61.388"/>
  <line style="fill-rule:evenodd;clip-rule:evenodd;fill:none;stroke:#EC008C;stroke-width:0.58;" x1="39.276" x2="39.276" y2="-46.825" y1="-52.388"/>
  <line style="fill-rule:evenodd;clip-rule:evenodd;fill:none;stroke:#EC008C;stroke-width:0.58;" x1="39.276" x2="39.276" y2="-37.825" y1="-43.388"/>
  <line style="fill-rule:evenodd;clip-rule:evenodd;fill:none;stroke:#EC008C;stroke-width:0.58;" x1="39.276" x2="39.276" y2="-28.825" y1="-34.388"/>
  <line style="fill-rule:evenodd;clip-rule:evenodd;fill:none;stroke:#EC008C;stroke-width:0.58;" x1="39.276" x2="39.276" y2="-19.825" y1="-25.388"/>
  <line style="fill-rule:evenodd;clip-rule:evenodd;fill:none;stroke:#EC008C;stroke-width:0.58;" x1="39.276" x2="39.276" y2="-10.825" y1="-16.388"/>
  <line style="fill-rule:evenodd;clip-rule:evenodd;fill:none;stroke:#EC008C;stroke-width:0.58;" x1="39.276" x2="39.276" y2="-1.825" y1="-7.388"/>
  <line style="fill-rule:evenodd;clip-rule:evenodd;fill:none;stroke:#EC008C;stroke-width:0.58;" x1="45.036" x2="45.036" y2="-73.825" y1="-79.388"/>
  <line style="fill-rule:evenodd;clip-rule:evenodd;fill:none;stroke:#EC008C;stroke-width:0.58;" x1="45.036" x2="45.036" y2="-64.825" y1="-70.388"/>
  <line style="fill-rule:evenodd;clip-rule:evenodd;fill:none;stroke:#EC008C;stroke-width:0.58;" x1="45.036" x2="45.036" y2="-55.825" y1="-61.388"/>
  <line style="fill-rule:evenodd;clip-rule:evenodd;fill:none;stroke:#EC008C;stroke-width:0.58;" x1="45.036" x2="45.036" y2="-46.825" y1="-52.388"/>
  <line style="fill-rule:evenodd;clip-rule:evenodd;fill:none;stroke:#EC008C;stroke-width:0.58;" x1="45.036" x2="45.036" y2="-37.825" y1="-43.388"/>
  <line style="fill-rule:evenodd;clip-rule:evenodd;fill:none;stroke:#EC008C;stroke-width:0.58;" x1="45.036" x2="45.036" y2="-28.825" y1="-34.388"/>
  <line style="fill-rule:evenodd;clip-rule:evenodd;fill:none;stroke:#EC008C;stroke-width:0.58;" x1="45.036" x2="45.036" y2="-19.825" y1="-25.388"/>
  <line style="fill-rule:evenodd;clip-rule:evenodd;fill:none;stroke:#EC008C;stroke-width:0.58;" x1="45.036" x2="45.036" y2="-10.825" y1="-16.388"/>
  <line style="fill-rule:evenodd;clip-rule:evenodd;fill:none;stroke:#EC008C;stroke-width:0.58;" x1="45.036" x2="45.036" y2="-1.825" y1="-7.388"/>
  <line style="fill-rule:evenodd;clip-rule:evenodd;fill:none;stroke:#EC008C;stroke-width:0.58;" x1="50.794" x2="50.794" y2="-73.825" y1="-79.388"/>
  <line style="fill-rule:evenodd;clip-rule:evenodd;fill:none;stroke:#EC008C;stroke-width:0.58;" x1="50.794" x2="50.794" y2="-64.825" y1="-70.388"/>
  <line style="fill-rule:evenodd;clip-rule:evenodd;fill:none;stroke:#EC008C;stroke-width:0.58;" x1="50.794" x2="50.794" y2="-55.825" y1="-61.388"/>
  <line style="fill-rule:evenodd;clip-rule:evenodd;fill:none;stroke:#EC008C;stroke-width:0.58;" x1="50.794" x2="50.794" y2="-46.825" y1="-52.388"/>
  <line style="fill-rule:evenodd;clip-rule:evenodd;fill:none;stroke:#EC008C;stroke-width:0.58;" x1="50.794" x2="50.794" y2="-37.825" y1="-43.388"/>
  <line style="fill-rule:evenodd;clip-rule:evenodd;fill:none;stroke:#EC008C;stroke-width:0.58;" x1="50.794" x2="50.794" y2="-28.825" y1="-34.388"/>
  <line style="fill-rule:evenodd;clip-rule:evenodd;fill:none;stroke:#EC008C;stroke-width:0.58;" x1="50.794" x2="50.794" y2="-19.825" y1="-25.388"/>
  <line style="fill-rule:evenodd;clip-rule:evenodd;fill:none;stroke:#EC008C;stroke-width:0.58;" x1="50.794" x2="50.794" y2="-10.825" y1="-16.388"/>
  <line style="fill-rule:evenodd;clip-rule:evenodd;fill:none;stroke:#EC008C;stroke-width:0.58;" x1="50.794" x2="50.794" y2="-1.825" y1="-7.388"/>
  <line style="fill-rule:evenodd;clip-rule:evenodd;fill:none;stroke:#EC008C;stroke-width:0.58;" x1="56.554" x2="56.554" y2="-73.825" y1="-79.388"/>
  <line style="fill-rule:evenodd;clip-rule:evenodd;fill:none;stroke:#EC008C;stroke-width:0.58;" x1="56.554" x2="56.554" y2="-64.825" y1="-70.388"/>
  <line style="fill-rule:evenodd;clip-rule:evenodd;fill:none;stroke:#EC008C;stroke-width:0.58;" x1="56.554" x2="56.554" y2="-55.825" y1="-61.388"/>
  <line style="fill-rule:evenodd;clip-rule:evenodd;fill:none;stroke:#EC008C;stroke-width:0.58;" x1="56.554" x2="56.554" y2="-46.825" y1="-52.388"/>
  <line style="fill-rule:evenodd;clip-rule:evenodd;fill:none;stroke:#EC008C;stroke-width:0.58;" x1="56.554" x2="56.554" y2="-37.825" y1="-43.388"/>
  <line style="fill-rule:evenodd;clip-rule:evenodd;fill:none;stroke:#EC008C;stroke-width:0.58;" x1="56.554" x2="56.554" y2="-28.825" y1="-34.388"/>
  <line style="fill-rule:evenodd;clip-rule:evenodd;fill:none;stroke:#EC008C;stroke-width:0.58;" x1="56.554" x2="56.554" y2="-19.825" y1="-25.388"/>
  <line style="fill-rule:evenodd;clip-rule:evenodd;fill:none;stroke:#EC008C;stroke-width:0.58;" x1="56.554" x2="56.554" y2="-10.825" y1="-16.388"/>
  <line style="fill-rule:evenodd;clip-rule:evenodd;fill:none;stroke:#EC008C;stroke-width:0.58;" x1="56.554" x2="56.554" y2="-1.825" y1="-7.388"/>
  <line style="fill-rule:evenodd;clip-rule:evenodd;fill:none;stroke:#EC008C;stroke-width:0.58;" x1="62.312" x2="62.312" y2="-73.825" y1="-79.388"/>
  <line style="fill-rule:evenodd;clip-rule:evenodd;fill:none;stroke:#EC008C;stroke-width:0.58;" x1="62.312" x2="62.312" y2="-64.825" y1="-70.388"/>
  <line style="fill-rule:evenodd;clip-rule:evenodd;fill:none;stroke:#EC008C;stroke-width:0.58;" x1="62.312" x2="62.312" y2="-55.825" y1="-61.388"/>
  <line style="fill-rule:evenodd;clip-rule:evenodd;fill:none;stroke:#EC008C;stroke-width:0.58;" x1="62.312" x2="62.312" y2="-46.825" y1="-52.388"/>
  <line style="fill-rule:evenodd;clip-rule:evenodd;fill:none;stroke:#EC008C;stroke-width:0.58;" x1="62.312" x2="62.312" y2="-37.825" y1="-43.388"/>
  <line style="fill-rule:evenodd;clip-rule:evenodd;fill:none;stroke:#EC008C;stroke-width:0.58;" x1="62.312" x2="62.312" y2="-28.825" y1="-34.388"/>
  <line style="fill-rule:evenodd;clip-rule:evenodd;fill:none;stroke:#EC008C;stroke-width:0.58;" x1="62.312" x2="62.312" y2="-19.825" y1="-25.388"/>
  <line style="fill-rule:evenodd;clip-rule:evenodd;fill:none;stroke:#EC008C;stroke-width:0.58;" x1="62.312" x2="62.312" y2="-10.825" y1="-16.388"/>
  <line style="fill-rule:evenodd;clip-rule:evenodd;fill:none;stroke:#EC008C;stroke-width:0.58;" x1="62.312" x2="62.312" y2="-1.825" y1="-7.388"/>
  <line style="fill-rule:evenodd;clip-rule:evenodd;fill:none;stroke:#EC008C;stroke-width:0.58;" x1="68.072" x2="68.072" y2="-73.825" y1="-79.388"/>
  <line style="fill-rule:evenodd;clip-rule:evenodd;fill:none;stroke:#EC008C;stroke-width:0.58;" x1="68.072" x2="68.072" y2="-64.825" y1="-70.388"/>
  <line style="fill-rule:evenodd;clip-rule:evenodd;fill:none;stroke:#EC008C;stroke-width:0.58;" x1="68.072" x2="68.072" y2="-55.825" y1="-61.388"/>
  <line style="fill-rule:evenodd;clip-rule:evenodd;fill:none;stroke:#EC008C;stroke-width:0.58;" x1="68.072" x2="68.072" y2="-46.825" y1="-52.388"/>
  <line style="fill-rule:evenodd;clip-rule:evenodd;fill:none;stroke:#EC008C;stroke-width:0.58;" x1="68.072" x2="68.072" y2="-37.825" y1="-43.388"/>
  <line style="fill-rule:evenodd;clip-rule:evenodd;fill:none;stroke:#EC008C;stroke-width:0.58;" x1="68.072" x2="68.072" y2="-28.825" y1="-34.388"/>
  <line style="fill-rule:evenodd;clip-rule:evenodd;fill:none;stroke:#EC008C;stroke-width:0.58;" x1="68.072" x2="68.072" y2="-19.825" y1="-25.388"/>
  <line style="fill-rule:evenodd;clip-rule:evenodd;fill:none;stroke:#EC008C;stroke-width:0.58;" x1="68.072" x2="68.072" y2="-10.825" y1="-16.388"/>
  <line style="fill-rule:evenodd;clip-rule:evenodd;fill:none;stroke:#EC008C;stroke-width:0.58;" x1="68.072" x2="68.072" y2="-1.825" y1="-7.388"/>
  <line style="fill-rule:evenodd;clip-rule:evenodd;fill:none;stroke:#EC008C;stroke-width:0.58;" x1="73.831" x2="73.831" y2="-73.825" y1="-79.388"/>
  <line style="fill-rule:evenodd;clip-rule:evenodd;fill:none;stroke:#EC008C;stroke-width:0.58;" x1="73.831" x2="73.831" y2="-64.825" y1="-70.388"/>
  <line style="fill-rule:evenodd;clip-rule:evenodd;fill:none;stroke:#EC008C;stroke-width:0.58;" x1="73.831" x2="73.831" y2="-55.825" y1="-61.388"/>
  <line style="fill-rule:evenodd;clip-rule:evenodd;fill:none;stroke:#EC008C;stroke-width:0.58;" x1="73.831" x2="73.831" y2="-46.825" y1="-52.388"/>
  <line style="fill-rule:evenodd;clip-rule:evenodd;fill:none;stroke:#EC008C;stroke-width:0.58;" x1="73.831" x2="73.831" y2="-37.825" y1="-43.388"/>
  <line style="fill-rule:evenodd;clip-rule:evenodd;fill:none;stroke:#EC008C;stroke-width:0.58;" x1="73.831" x2="73.831" y2="-28.825" y1="-34.388"/>
  <line style="fill-rule:evenodd;clip-rule:evenodd;fill:none;stroke:#EC008C;stroke-width:0.58;" x1="73.831" x2="73.831" y2="-19.825" y1="-25.388"/>
  <line style="fill-rule:evenodd;clip-rule:evenodd;fill:none;stroke:#EC008C;stroke-width:0.58;" x1="73.831" x2="73.831" y2="-10.825" y1="-16.388"/>
  <line style="fill-rule:evenodd;clip-rule:evenodd;fill:none;stroke:#EC008C;stroke-width:0.58;" x1="73.831" x2="73.831" y2="-1.825" y1="-7.388"/>
  <line style="fill-rule:evenodd;clip-rule:evenodd;fill:none;stroke:#EC008C;stroke-width:0.58;" x1="79.59" x2="79.59" y2="-73.825" y1="-79.388"/>
  <line style="fill-rule:evenodd;clip-rule:evenodd;fill:none;stroke:#EC008C;stroke-width:0.58;" x1="79.59" x2="79.59" y2="-64.825" y1="-70.388"/>
  <line style="fill-rule:evenodd;clip-rule:evenodd;fill:none;stroke:#EC008C;stroke-width:0.58;" x1="79.59" x2="79.59" y2="-55.825" y1="-61.388"/>
  <line style="fill-rule:evenodd;clip-rule:evenodd;fill:none;stroke:#EC008C;stroke-width:0.58;" x1="79.59" x2="79.59" y2="-46.825" y1="-52.388"/>
  <line style="fill-rule:evenodd;clip-rule:evenodd;fill:none;stroke:#EC008C;stroke-width:0.58;" x1="79.59" x2="79.59" y2="-37.825" y1="-43.388"/>
  <line style="fill-rule:evenodd;clip-rule:evenodd;fill:none;stroke:#EC008C;stroke-width:0.58;" x1="79.59" x2="79.59" y2="-28.825" y1="-34.388"/>
  <line style="fill-rule:evenodd;clip-rule:evenodd;fill:none;stroke:#EC008C;stroke-width:0.58;" x1="79.59" x2="79.59" y2="-19.825" y1="-25.388"/>
  <line style="fill-rule:evenodd;clip-rule:evenodd;fill:none;stroke:#EC008C;stroke-width:0.58;" x1="79.59" x2="79.59" y2="-10.825" y1="-16.388"/>
  <line style="fill-rule:evenodd;clip-rule:evenodd;fill:none;stroke:#EC008C;stroke-width:0.58;" x1="79.59" x2="79.59" y2="-1.825" y1="-7.388"/>
  <rect style="fill-rule:evenodd;clip-rule:evenodd;fill:none;" x="0" width="80.646" y="-80.646" height="80.646"/>
  <rect style="fill-rule:evenodd;clip-rule:evenodd;fill:none;" x="0" width="80.646" y="-80.646" height="80.646"/>
 </g>
</svg>
