<?xml version="1.0"?>
<!-- Converted with SVG Converter - Version 0.9.5 (Compiled Fri Feb 21 09:53:38 2020) - Copyright (C) 2011 Nokia -->
<svg xmlns="http://www.w3.org/2000/svg" height="23.125" x="0px" viewBox="0 -23.125 23.125 23.125" y="0px" baseProfile="tiny" xmlns:xlink="http://www.w3.org/1999/xlink" version="1.1" xml:space="preserve" width="23.125">
 <g>
  <rect height="23.125" y="-23.125" width="23.125" style="fill:none;"/>
  <line x2="0.688" y2="-19.812" x1="0" y1="-19.812" style="fill:none;stroke:#000000;stroke-width:0.43;"/>
  <line x2="2.375" y2="-22.125" x1="1.062" y1="-22.125" style="fill:none;stroke:#000000;stroke-width:0.43;"/>
  <line x2="5.625" y2="-22.125" x1="4.312" y1="-22.125" style="fill:none;stroke:#000000;stroke-width:0.43;"/>
  <line x2="8.875" y2="-22.125" x1="7.562" y1="-22.125" style="fill:none;stroke:#000000;stroke-width:0.43;"/>
  <line x2="12.125" y2="-22.125" x1="10.812" y1="-22.125" style="fill:none;stroke:#000000;stroke-width:0.43;"/>
  <line x2="15.375" y2="-22.125" x1="14.062" y1="-22.125" style="fill:none;stroke:#000000;stroke-width:0.43;"/>
  <line x2="18.625" y2="-22.125" x1="17.312" y1="-22.125" style="fill:none;stroke:#000000;stroke-width:0.43;"/>
  <line x2="21.875" y2="-22.125" x1="20.562" y1="-22.125" style="fill:none;stroke:#000000;stroke-width:0.43;"/>
  <line x2="0" y2="-10.562" x1="0.688" y1="-10.562" style="fill:none;stroke:#000000;stroke-width:0.43;"/>
  <line x2="0.688" y2="-15.188" x1="0" y1="-15.188" style="fill:none;stroke:#000000;stroke-width:0.43;"/>
  <line x2="0.688" y2="-1.312" x1="0" y1="-1.312" style="fill:none;stroke:#000000;stroke-width:0.43;"/>
  <line x2="0.688" y2="-5.938" x1="0" y1="-5.938" style="fill:none;stroke:#000000;stroke-width:0.43;"/>
  <line x2="3.991" y2="-19.812" x1="2.679" y1="-19.812" style="fill:none;stroke:#000000;stroke-width:0.43;"/>
  <line x2="7.294" y2="-19.812" x1="5.982" y1="-19.812" style="fill:none;stroke:#000000;stroke-width:0.43;"/>
  <line x2="10.598" y2="-19.812" x1="9.286" y1="-19.812" style="fill:none;stroke:#000000;stroke-width:0.43;"/>
  <line x2="13.902" y2="-19.812" x1="12.589" y1="-19.812" style="fill:none;stroke:#000000;stroke-width:0.43;"/>
  <line x2="17.205" y2="-19.812" x1="15.893" y1="-19.812" style="fill:none;stroke:#000000;stroke-width:0.43;"/>
  <line x2="20.509" y2="-19.812" x1="19.196" y1="-19.812" style="fill:none;stroke:#000000;stroke-width:0.43;"/>
  <line x2="2.679" y2="-15.188" x1="3.991" y1="-15.188" style="fill:none;stroke:#000000;stroke-width:0.43;"/>
  <line x2="5.982" y2="-15.188" x1="7.294" y1="-15.188" style="fill:none;stroke:#000000;stroke-width:0.43;"/>
  <line x2="9.286" y2="-15.188" x1="10.598" y1="-15.188" style="fill:none;stroke:#000000;stroke-width:0.43;"/>
  <line x2="12.589" y2="-15.188" x1="13.902" y1="-15.188" style="fill:none;stroke:#000000;stroke-width:0.43;"/>
  <line x2="15.893" y2="-15.188" x1="17.205" y1="-15.188" style="fill:none;stroke:#000000;stroke-width:0.43;"/>
  <line x2="19.196" y2="-15.188" x1="20.509" y1="-15.188" style="fill:none;stroke:#000000;stroke-width:0.43;"/>
  <line x2="2.679" y2="-10.562" x1="3.991" y1="-10.562" style="fill:none;stroke:#000000;stroke-width:0.43;"/>
  <line x2="5.982" y2="-10.562" x1="7.294" y1="-10.562" style="fill:none;stroke:#000000;stroke-width:0.43;"/>
  <line x2="9.286" y2="-10.562" x1="10.598" y1="-10.562" style="fill:none;stroke:#000000;stroke-width:0.43;"/>
  <line x2="12.589" y2="-10.562" x1="13.902" y1="-10.562" style="fill:none;stroke:#000000;stroke-width:0.43;"/>
  <line x2="15.893" y2="-10.562" x1="17.205" y1="-10.562" style="fill:none;stroke:#000000;stroke-width:0.43;"/>
  <line x2="19.196" y2="-10.562" x1="20.509" y1="-10.562" style="fill:none;stroke:#000000;stroke-width:0.43;"/>
  <line x2="2.679" y2="-5.938" x1="3.991" y1="-5.938" style="fill:none;stroke:#000000;stroke-width:0.43;"/>
  <line x2="5.982" y2="-5.938" x1="7.294" y1="-5.938" style="fill:none;stroke:#000000;stroke-width:0.43;"/>
  <line x2="9.286" y2="-5.938" x1="10.598" y1="-5.938" style="fill:none;stroke:#000000;stroke-width:0.43;"/>
  <line x2="12.589" y2="-5.938" x1="13.902" y1="-5.938" style="fill:none;stroke:#000000;stroke-width:0.43;"/>
  <line x2="15.893" y2="-5.938" x1="17.205" y1="-5.938" style="fill:none;stroke:#000000;stroke-width:0.43;"/>
  <line x2="19.196" y2="-5.938" x1="20.509" y1="-5.938" style="fill:none;stroke:#000000;stroke-width:0.43;"/>
  <line x2="2.679" y2="-1.312" x1="3.991" y1="-1.312" style="fill:none;stroke:#000000;stroke-width:0.43;"/>
  <line x2="5.982" y2="-1.312" x1="7.294" y1="-1.312" style="fill:none;stroke:#000000;stroke-width:0.43;"/>
  <line x2="9.286" y2="-1.312" x1="10.598" y1="-1.312" style="fill:none;stroke:#000000;stroke-width:0.43;"/>
  <line x2="12.589" y2="-1.312" x1="13.902" y1="-1.312" style="fill:none;stroke:#000000;stroke-width:0.43;"/>
  <line x2="15.893" y2="-1.312" x1="17.205" y1="-1.312" style="fill:none;stroke:#000000;stroke-width:0.43;"/>
  <line x2="19.196" y2="-1.312" x1="20.509" y1="-1.312" style="fill:none;stroke:#000000;stroke-width:0.43;"/>
  <line x2="22.5" y2="-19.812" x1="23.125" y1="-19.812" style="fill:none;stroke:#000000;stroke-width:0.43;"/>
  <line x2="2.429" y2="-17.5" x1="1.116" y1="-17.5" style="fill:none;stroke:#000000;stroke-width:0.43;"/>
  <line x2="5.732" y2="-17.5" x1="4.419" y1="-17.5" style="fill:none;stroke:#000000;stroke-width:0.43;"/>
  <line x2="9.036" y2="-17.5" x1="7.723" y1="-17.5" style="fill:none;stroke:#000000;stroke-width:0.43;"/>
  <line x2="12.339" y2="-17.5" x1="11.027" y1="-17.5" style="fill:none;stroke:#000000;stroke-width:0.43;"/>
  <line x2="15.643" y2="-17.5" x1="14.33" y1="-17.5" style="fill:none;stroke:#000000;stroke-width:0.43;"/>
  <line x2="18.946" y2="-17.5" x1="17.634" y1="-17.5" style="fill:none;stroke:#000000;stroke-width:0.43;"/>
  <line x2="22.25" y2="-17.5" x1="20.938" y1="-17.5" style="fill:none;stroke:#000000;stroke-width:0.43;"/>
  <line x2="2.429" y2="-12.875" x1="1.116" y1="-12.875" style="fill:none;stroke:#000000;stroke-width:0.43;"/>
  <line x2="5.732" y2="-12.875" x1="4.419" y1="-12.875" style="fill:none;stroke:#000000;stroke-width:0.43;"/>
  <line x2="9.036" y2="-12.875" x1="7.723" y1="-12.875" style="fill:none;stroke:#000000;stroke-width:0.43;"/>
  <line x2="12.339" y2="-12.875" x1="11.027" y1="-12.875" style="fill:none;stroke:#000000;stroke-width:0.43;"/>
  <line x2="15.643" y2="-12.875" x1="14.33" y1="-12.875" style="fill:none;stroke:#000000;stroke-width:0.43;"/>
  <line x2="18.946" y2="-12.875" x1="17.634" y1="-12.875" style="fill:none;stroke:#000000;stroke-width:0.43;"/>
  <line x2="22.25" y2="-12.875" x1="20.938" y1="-12.875" style="fill:none;stroke:#000000;stroke-width:0.43;"/>
  <line x2="2.429" y2="-8.25" x1="1.116" y1="-8.25" style="fill:none;stroke:#000000;stroke-width:0.43;"/>
  <line x2="5.732" y2="-8.25" x1="4.419" y1="-8.25" style="fill:none;stroke:#000000;stroke-width:0.43;"/>
  <line x2="9.036" y2="-8.25" x1="7.723" y1="-8.25" style="fill:none;stroke:#000000;stroke-width:0.43;"/>
  <line x2="12.339" y2="-8.25" x1="11.027" y1="-8.25" style="fill:none;stroke:#000000;stroke-width:0.43;"/>
  <line x2="15.643" y2="-8.25" x1="14.33" y1="-8.25" style="fill:none;stroke:#000000;stroke-width:0.43;"/>
  <line x2="18.946" y2="-8.25" x1="17.634" y1="-8.25" style="fill:none;stroke:#000000;stroke-width:0.43;"/>
  <line x2="22.25" y2="-8.25" x1="20.938" y1="-8.25" style="fill:none;stroke:#000000;stroke-width:0.43;"/>
  <line x2="1.116" y2="-3.625" x1="2.429" y1="-3.625" style="fill:none;stroke:#000000;stroke-width:0.43;"/>
  <line x2="4.419" y2="-3.625" x1="5.732" y1="-3.625" style="fill:none;stroke:#000000;stroke-width:0.43;"/>
  <line x2="7.723" y2="-3.625" x1="9.036" y1="-3.625" style="fill:none;stroke:#000000;stroke-width:0.43;"/>
  <line x2="11.027" y2="-3.625" x1="12.339" y1="-3.625" style="fill:none;stroke:#000000;stroke-width:0.43;"/>
  <line x2="14.33" y2="-3.625" x1="15.643" y1="-3.625" style="fill:none;stroke:#000000;stroke-width:0.43;"/>
  <line x2="17.634" y2="-3.625" x1="18.946" y1="-3.625" style="fill:none;stroke:#000000;stroke-width:0.43;"/>
  <line x2="20.938" y2="-3.625" x1="22.25" y1="-3.625" style="fill:none;stroke:#000000;stroke-width:0.43;"/>
  <line x2="23.125" y2="-10.562" x1="22.5" y1="-10.562" style="fill:none;stroke:#000000;stroke-width:0.43;"/>
  <line x2="22.5" y2="-15.188" x1="23.125" y1="-15.188" style="fill:none;stroke:#000000;stroke-width:0.43;"/>
  <line x2="23.125" y2="-1.312" x1="22.5" y1="-1.312" style="fill:none;stroke:#000000;stroke-width:0.43;"/>
  <line x2="22.5" y2="-5.938" x1="23.125" y1="-5.938" style="fill:none;stroke:#000000;stroke-width:0.43;"/>
 </g>
</svg>
