<?xml version="1.0" encoding="UTF-8" standalone="no"?>
<!-- Created with Inkscape (http://www.inkscape.org/) -->

<svg
   xmlns:dc="http://purl.org/dc/elements/1.1/"
   xmlns:cc="http://creativecommons.org/ns#"
   xmlns:rdf="http://www.w3.org/1999/02/22-rdf-syntax-ns#"
   xmlns:svg="http://www.w3.org/2000/svg"
   xmlns="http://www.w3.org/2000/svg"
   xmlns:sodipodi="http://sodipodi.sourceforge.net/DTD/sodipodi-0.dtd"
   xmlns:inkscape="http://www.inkscape.org/namespaces/inkscape"
   width="5.1668701mm"
   height="5.1668701mm"
   viewBox="0 0 5.1668702 5.1668701"
   version="1.1"
   id="svg670"
   inkscape:version="0.92.2 (5c3e80d, 2017-08-06)"
   sodipodi:docname="6.26_bedding_vertical_crenulated.svg">
  <defs
     id="defs664" />
  <sodipodi:namedview
     id="base"
     pagecolor="#ffffff"
     bordercolor="#666666"
     borderopacity="1.0"
     inkscape:pageopacity="0.0"
     inkscape:pageshadow="2"
     inkscape:zoom="31.678384"
     inkscape:cx="-0.54865279"
     inkscape:cy="7.4875732"
     inkscape:document-units="mm"
     inkscape:current-layer="layer1"
     showgrid="false"
     inkscape:window-width="1920"
     inkscape:window-height="1018"
     inkscape:window-x="-8"
     inkscape:window-y="-8"
     inkscape:window-maximized="1" />
  <metadata
     id="metadata667">
    <rdf:RDF>
      <cc:Work
         rdf:about="">
        <dc:format>image/svg+xml</dc:format>
        <dc:type
           rdf:resource="http://purl.org/dc/dcmitype/StillImage" />
        <dc:title></dc:title>
      </cc:Work>
    </rdf:RDF>
  </metadata>
  <g
     inkscape:label="Layer 1"
     inkscape:groupmode="layer"
     id="layer1"
     transform="translate(-3.8695338,-93.718199)">
    <g
       id="g682"
       transform="rotate(90,5.7079866,97.046834)">
      <path
         style="fill:none;stroke:#211e1e;stroke-width:0.20319998;stroke-linecap:butt;stroke-linejoin:miter;stroke-miterlimit:4;stroke-opacity:1"
         d="M 4.9678272,97.395323 V 95.20838"
         id="path312"
         inkscape:connector-curvature="0" />
      <path
         style="fill:none;stroke:#211e1e;stroke-width:0.20319998;stroke-linecap:butt;stroke-linejoin:miter;stroke-miterlimit:4;stroke-opacity:1"
         d="m 2.4584202,96.415539 c 0.097839,-0.121267 0.2852525,-0.202572 0.4974731,-0.202572 0.212217,0 0.4023853,0.08544 0.5029834,0.205328 0.1019739,0.114377 0.2962769,0.192927 0.5002283,0.192927 0.212217,0 0.3954956,-0.07717 0.4947144,-0.198438 0.099219,-0.121267 0.3017908,-0.199817 0.5140078,-0.199817 0.212217,0 0.4106545,0.08544 0.5098733,0.205328 0.1019773,0.114377 0.2949009,0.192927 0.4988523,0.192927 0.2135965,0 0.3927406,-0.07717 0.4919593,-0.198438 0.099219,-0.121267 0.2797422,-0.199817 0.4919592,-0.199817 0.212217,0 0.4078993,0.08131 0.5071181,0.202572"
         id="path314"
         inkscape:connector-curvature="0" />
    </g>
  </g>
</svg>
