<?xml version="1.0" encoding="UTF-8" standalone="no"?>
<!-- Created with Inkscape (http://www.inkscape.org/) -->

<svg
   xmlns:dc="http://purl.org/dc/elements/1.1/"
   xmlns:cc="http://creativecommons.org/ns#"
   xmlns:rdf="http://www.w3.org/1999/02/22-rdf-syntax-ns#"
   xmlns:svg="http://www.w3.org/2000/svg"
   xmlns="http://www.w3.org/2000/svg"
   xmlns:sodipodi="http://sodipodi.sourceforge.net/DTD/sodipodi-0.dtd"
   xmlns:inkscape="http://www.inkscape.org/namespaces/inkscape"
   width="5.6652002mm"
   height="5.6652002mm"
   viewBox="0 0 5.6652002 5.6652002"
   version="1.1"
   id="svg15330"
   inkscape:version="0.92.2 (5c3e80d, 2017-08-06)"
   sodipodi:docname="10.2.57.svg">
  <defs
     id="defs15324" />
  <sodipodi:namedview
     id="base"
     pagecolor="#ffffff"
     bordercolor="#666666"
     borderopacity="1.0"
     inkscape:pageopacity="0.0"
     inkscape:pageshadow="2"
     inkscape:zoom="11.021912"
     inkscape:cx="-5.8773531"
     inkscape:cy="10.705946"
     inkscape:document-units="mm"
     inkscape:current-layer="layer1"
     showgrid="false"
     inkscape:window-width="1920"
     inkscape:window-height="1018"
     inkscape:window-x="-8"
     inkscape:window-y="-8"
     inkscape:window-maximized="1" />
  <metadata
     id="metadata15327">
    <rdf:RDF>
      <cc:Work
         rdf:about="">
        <dc:format>image/svg+xml</dc:format>
        <dc:type
           rdf:resource="http://purl.org/dc/dcmitype/StillImage" />
        <dc:title></dc:title>
      </cc:Work>
    </rdf:RDF>
  </metadata>
  <g
     inkscape:label="Layer 1"
     inkscape:groupmode="layer"
     id="layer1"
     transform="translate(-104.30371,-146.00075)">
    <g
       id="g15354"
       transform="translate(1.3029767)">
      <path
         id="path12730"
         d="m 105.90842,146.71179 c 0,0 1.19614,1.59852 1.34359,2.41846 0.14883,0.81993 -0.0937,1.6123 -0.17363,1.90858 -0.0813,0.2949 -0.25632,0.46991 -0.3638,0.48369 -0.10749,0.0124 -0.63114,-0.33624 -0.63114,-0.33624 0,0 -0.34865,0.41617 -0.67111,0.41617 -0.32246,0 -0.81993,-0.38999 -0.90124,-0.60496 -0.0799,-0.21498 -0.17363,-1.51722 -0.13367,-1.8135 0.04,-0.29628 0.22876,-0.84612 0.46991,-1.19614 0.24254,-0.34864 1.06109,-1.27606 1.06109,-1.27606 z"
         style="fill:#ffffff;fill-opacity:1;fill-rule:nonzero;stroke:#000000;stroke-width:0.127;stroke-linecap:butt;stroke-linejoin:miter;stroke-miterlimit:4;stroke-opacity:1"
         inkscape:connector-curvature="0" />
      <path
         id="path5989"
         d="M 105.90842,146.71179"
         style="fill:#ffffff;fill-opacity:1;fill-rule:nonzero;stroke:#000000;stroke-width:0.127;stroke-linecap:butt;stroke-linejoin:miter;stroke-miterlimit:4;stroke-opacity:1"
         inkscape:connector-curvature="0" />
      <path
         id="path12738"
         d="m 104.3912,149.7352 c 0.50988,0.18742 0.97979,0.21498 1.28985,0.21498 0.30868,0 1.18235,-0.0275 1.59852,-0.2701"
         style="fill:none;stroke:#000000;stroke-width:0.127;stroke-linecap:butt;stroke-linejoin:miter;stroke-miterlimit:4;stroke-opacity:1"
         inkscape:connector-curvature="0" />
      <path
         id="path12736"
         d="m 104.41739,150.28642 c 0.41616,0.16123 0.98116,0.17363 1.39733,0.17363 0.41616,0 0.87367,0.0138 1.42489,-0.22737"
         style="fill:none;stroke:#000000;stroke-width:0.127;stroke-linecap:butt;stroke-linejoin:miter;stroke-miterlimit:4;stroke-opacity:1"
         inkscape:connector-curvature="0" />
      <path
         id="path12734"
         d="m 105.84228,149.07237 c 0.16674,0 0.30454,-0.13643 0.30454,-0.30593 0,-0.16674 -0.1378,-0.30454 -0.30454,-0.30454 -0.16812,0 -0.30455,0.1378 -0.30455,0.30454 0,0.1695 0.13643,0.30593 0.30455,0.30593 z"
         style="fill:none;stroke:#000000;stroke-width:0.127;stroke-linecap:butt;stroke-linejoin:miter;stroke-miterlimit:4;stroke-opacity:1"
         inkscape:connector-curvature="0" />
      <path
         id="path5991"
         d="m 105.90567,146.00072 v 0.71107"
         style="fill:none;stroke:#000000;stroke-width:0.127;stroke-linecap:butt;stroke-linejoin:miter;stroke-miterlimit:4;stroke-opacity:1"
         inkscape:connector-curvature="0" />
    </g>
  </g>
</svg>
