<?xml version="1.0" encoding="UTF-8" standalone="no"?>
<!-- Created with Inkscape (http://www.inkscape.org/) -->

<svg
   xmlns:dc="http://purl.org/dc/elements/1.1/"
   xmlns:cc="http://creativecommons.org/ns#"
   xmlns:rdf="http://www.w3.org/1999/02/22-rdf-syntax-ns#"
   xmlns:svg="http://www.w3.org/2000/svg"
   xmlns="http://www.w3.org/2000/svg"
   xmlns:sodipodi="http://sodipodi.sourceforge.net/DTD/sodipodi-0.dtd"
   xmlns:inkscape="http://www.inkscape.org/namespaces/inkscape"
   width="5.7686mm"
   height="5.7686mm"
   viewBox="0 0 5.7685999 5.7686"
   version="1.1"
   id="svg11404"
   inkscape:version="0.92.2 (5c3e80d, 2017-08-06)"
   sodipodi:docname="10.2.11.svg">
  <defs
     id="defs11398" />
  <sodipodi:namedview
     id="base"
     pagecolor="#ffffff"
     bordercolor="#666666"
     borderopacity="1.0"
     inkscape:pageopacity="0.0"
     inkscape:pageshadow="2"
     inkscape:zoom="13.5889"
     inkscape:cx="16.039706"
     inkscape:cy="5.8629795"
     inkscape:document-units="mm"
     inkscape:current-layer="layer1"
     showgrid="false"
     inkscape:window-width="1920"
     inkscape:window-height="1018"
     inkscape:window-x="-8"
     inkscape:window-y="-8"
     inkscape:window-maximized="1" />
  <metadata
     id="metadata11401">
    <rdf:RDF>
      <cc:Work
         rdf:about="">
        <dc:format>image/svg+xml</dc:format>
        <dc:type
           rdf:resource="http://purl.org/dc/dcmitype/StillImage" />
        <dc:title></dc:title>
      </cc:Work>
    </rdf:RDF>
  </metadata>
  <g
     inkscape:label="Layer 1"
     inkscape:groupmode="layer"
     id="layer1"
     transform="translate(-103.5191,-145.94908)">
    <path
       inkscape:connector-curvature="0"
       style="fill:#ffffff;fill-opacity:1;fill-rule:nonzero;stroke:#000000;stroke-width:0.127;stroke-linecap:butt;stroke-linejoin:miter;stroke-miterlimit:4;stroke-opacity:1"
       d="m 106.4054,151.65418 c 1.305,-0.0372 0.75516,-0.50023 0.51125,-1.98851 -0.24253,-1.48691 0.4644,-1.74184 0.4644,-1.74184 0.37069,-0.1447 0.77032,-0.19982 0.88883,-0.3955 0.11851,-0.19568 0.48921,-0.90261 0.35554,-0.94258 -0.13229,-0.0413 -0.36932,0.68075 -0.56638,0.79789 -0.19568,0.11575 -0.94809,0.53054 -1.02939,0.39274 -0.0799,-0.13918 0.81028,-1.44694 0.45751,-1.52136 -0.35278,-0.0758 -0.72347,1.79283 -0.89711,1.79283 -0.17363,0 0.1447,-2.03536 -0.18465,-2.03536 h -0.004 c -0.32936,0 -0.011,2.03536 -0.18466,2.03536 -0.17363,0 -0.54433,-1.86862 -0.8971,-1.79283 -0.35278,0.0744 0.53881,1.38218 0.45751,1.52136 -0.0813,0.1378 -0.83234,-0.27699 -1.0294,-0.39274 -0.19706,-0.11714 -0.43408,-0.83923 -0.56637,-0.79789 -0.13367,0.04 0.23702,0.7469 0.35553,0.94258 0.11852,0.19568 0.51815,0.2508 0.89022,0.3955 0,0 0.70693,0.25493 0.46302,1.74184 -0.24392,1.48828 -0.79237,1.9513 0.51263,1.98851 z"
       id="path10221" />
    <path
       inkscape:connector-curvature="0"
       style="fill:#ffffff;fill-opacity:1;fill-rule:nonzero;stroke:#000000;stroke-width:0.127;stroke-linecap:butt;stroke-linejoin:miter;stroke-miterlimit:4;stroke-opacity:1"
       d="M 106.4054,151.65418"
       id="path5763" />
  </g>
</svg>
