<?xml version="1.0" encoding="UTF-8" standalone="no"?>
<!-- Created with Inkscape (http://www.inkscape.org/) -->

<svg
   xmlns:dc="http://purl.org/dc/elements/1.1/"
   xmlns:cc="http://creativecommons.org/ns#"
   xmlns:rdf="http://www.w3.org/1999/02/22-rdf-syntax-ns#"
   xmlns:svg="http://www.w3.org/2000/svg"
   xmlns="http://www.w3.org/2000/svg"
   xmlns:sodipodi="http://sodipodi.sourceforge.net/DTD/sodipodi-0.dtd"
   xmlns:inkscape="http://www.inkscape.org/namespaces/inkscape"
   width="5.914mm"
   height="5.914mm"
   viewBox="0 0 5.914 5.914"
   version="1.1"
   id="svg13684"
   inkscape:version="0.92.2 (5c3e80d, 2017-08-06)"
   sodipodi:docname="10.2.25.svg">
  <defs
     id="defs13678" />
  <sodipodi:namedview
     id="base"
     pagecolor="#ffffff"
     bordercolor="#666666"
     borderopacity="1.0"
     inkscape:pageopacity="0.0"
     inkscape:pageshadow="2"
     inkscape:zoom="20.280437"
     inkscape:cx="20.183121"
     inkscape:cy="7.7437587"
     inkscape:document-units="mm"
     inkscape:current-layer="layer1"
     showgrid="false" />
  <metadata
     id="metadata13681">
    <rdf:RDF>
      <cc:Work
         rdf:about="">
        <dc:format>image/svg+xml</dc:format>
        <dc:type
           rdf:resource="http://purl.org/dc/dcmitype/StillImage" />
        <dc:title></dc:title>
      </cc:Work>
    </rdf:RDF>
  </metadata>
  <g
     inkscape:label="Layer 1"
     inkscape:groupmode="layer"
     id="layer1"
     transform="translate(7.8707201,-145.65251)">
    <g
       id="g13918"
       transform="translate(0,-0.22381237)">
      <path
         id="path12508"
         d="m -5.9383717,151.10279 c 0,0 -0.4643966,0.0978 -0.5305425,0.16537 -0.07166,0.0717 0.9012379,-0.0124 1.0280156,0.0744 0.1295365,0.0868 0.5071182,0.25908 0.8419817,0.0868 0.3348638,-0.17363 1.0307709,0.25769 0.7386286,-0.0358 -0.2907665,-0.29077 0.8406024,0.17225 0.2163516,-0.19706 -0.6283854,-0.36931 -0.6201164,-0.25769 -0.7482734,-0.27423 -0.1281573,-0.0179 -0.3100599,-0.0606 -0.1378056,-0.23289 0.1722543,-0.17225 0.5071179,-0.85852 0.8667856,-1.01286 0.3610467,-0.15571 0.3348635,-0.4892 0.6270096,-0.78134 0.292142,-0.29215 0.6283851,-0.74828 0.7317385,-1.03215 0.1019739,-0.2825 0.3513984,-1.05558 0.2659592,-1.27882 -0.086815,-0.22324 -0.3445087,-0.42857 -0.5333013,-0.42031 -0.188789,0.008 -0.5236525,0.19707 -0.7386283,0.8158 -0.2149721,0.61736 -0.7565425,0.82407 -0.8240641,1.5875 -0.068905,0.76481 -0.2673422,0.25908 -0.3858509,0.82545 -0.1212673,0.56775 -0.413413,0.40376 -0.3872299,0.12816 0.024799,-0.27423 0.085439,-1.20165 0.3004114,-1.64814 0.2149758,-0.44648 0.3431328,-1.17684 0.1474504,-1.3739 -0.1998168,-0.19706 -0.6366544,-0.42168 -0.8185537,0.14469 -0.1791441,0.56775 -0.5925573,1.03215 -0.5319218,1.36702 0.060632,0.33486 -0.4023889,0.74689 -0.050991,1.27882 0.3514019,0.5333 -0.059253,0.34451 0.1887925,0.6959 0.2494245,0.35278 -0.052366,0.43822 -0.1887925,0.12127 -0.1378021,-0.31832 -0.5071181,-0.72209 -0.5760191,-1.21129 -0.067522,-0.49058 -0.1446918,-1.03215 -0.1378021,-1.25539 0.00963,-0.22187 -0.3858507,-0.42858 -0.3941198,0.0179 -0.00963,0.44648 0.2494245,0.90261 0.00826,1.06522 -0.2411589,0.16261 -0.438217,-0.25769 -0.6959106,-0.0427 -0.2563142,0.21497 -0.1543403,0.72071 0.07717,0.78135 0.2328897,0.0593 0.5002282,0.1378 0.6283853,0.49885 0.1281572,0.36104 0.4795591,0.58291 0.6256303,0.82406 0.1460712,0.23978 0.3872265,0.31833 0.3872265,0.31833 z"
         style="fill:#ffffff;fill-opacity:1;fill-rule:nonzero;stroke:#000000;stroke-width:0.127;stroke-linecap:butt;stroke-linejoin:miter;stroke-miterlimit:4;stroke-opacity:1"
         inkscape:connector-curvature="0" />
      <path
         id="path5885"
         d="M -5.9383717,151.10279"
         style="fill:#ffffff;fill-opacity:1;fill-rule:nonzero;stroke:#000000;stroke-width:0.127;stroke-linecap:butt;stroke-linejoin:miter;stroke-miterlimit:4;stroke-opacity:1"
         inkscape:connector-curvature="0" />
      <path
         id="path5887"
         d="m -2.7275401,146.25072 c -0.157099,0.15847 0.4657759,0.565 0.6022022,0.35002 0.1378021,-0.21359 -0.497473,-0.45475 -0.6022022,-0.35002"
         style="fill:#000000;fill-opacity:1;fill-rule:nonzero;stroke:none;stroke-width:0.35277775"
         inkscape:connector-curvature="0" />
      <path
         id="path5889"
         d="m -5.0881209,146.51668 c -0.030304,0.19844 0.5415703,0.45338 0.6283854,0.20533 0.08406,-0.24942 -0.5856674,-0.4892 -0.6283854,-0.20533"
         style="fill:#000000;fill-opacity:1;fill-rule:nonzero;stroke:none;stroke-width:0.35277775"
         inkscape:connector-curvature="0" />
      <path
         id="path5891"
         d="m -6.9002415,147.53781 c -0.012383,0.113 0.2576937,0.14607 0.2645834,0.0345 0.00967,-0.11162 -0.2480451,-0.19705 -0.2645834,-0.0345"
         style="fill:#000000;fill-opacity:1;fill-rule:nonzero;stroke:none;stroke-width:0.35277775"
         inkscape:connector-curvature="0" />
      <path
         id="path5893"
         d="m -7.6995018,149.24658 c 0.1295329,0.0592 0.2494244,-0.4644 0.1364262,-0.52366 -0.089574,-0.0482 -0.3141945,0.44097 -0.1364262,0.52366"
         style="fill:#000000;fill-opacity:1;fill-rule:nonzero;stroke:none;stroke-width:0.35277775"
         inkscape:connector-curvature="0" />
      <path
         id="path6027"
         d="m -5.5070444,150.82857 c 0.050987,0.0496 0.07166,0.11024 0.045477,0.13642 -0.0248,0.0234 -0.086819,0.004 -0.1364262,-0.0482 -0.050987,-0.0496 -0.07166,-0.10887 -0.045477,-0.13505 0.0248,-0.0248 0.086819,-0.004 0.1364262,0.0469"
         style="fill:#211e1e;fill-opacity:1;fill-rule:nonzero;stroke:none;stroke-width:0.35277775"
         inkscape:connector-curvature="0" />
      <path
         id="path6029"
         d="m -5.9562857,150.50197 c 0.050987,0.051 0.068904,0.11438 0.045477,0.1378 -0.0248,0.0262 -0.085439,0.006 -0.1364262,-0.0455 -0.049608,-0.051 -0.07028,-0.11162 -0.046852,-0.13781 0.0248,-0.0248 0.088194,-0.006 0.1378021,0.0455"
         style="fill:#211e1e;fill-opacity:1;fill-rule:nonzero;stroke:none;stroke-width:0.35277775"
         inkscape:connector-curvature="0" />
      <path
         id="path6031"
         d="m -6.0141624,150.15746 c 0.050987,0.0496 0.07166,0.113 0.044097,0.13642 -0.022049,0.0248 -0.08406,0.007 -0.1350469,-0.0455 -0.050987,-0.0496 -0.07166,-0.113 -0.045477,-0.13642 0.0248,-0.0248 0.086819,-0.005 0.1364263,0.0455"
         style="fill:#211e1e;fill-opacity:1;fill-rule:nonzero;stroke:none;stroke-width:0.35277775"
         inkscape:connector-curvature="0" />
      <path
         id="path6033"
         d="m -5.8405287,150.82857 c 0.052366,0.0496 0.074415,0.11024 0.046852,0.13366 -0.023424,0.0262 -0.085439,0.007 -0.1364263,-0.0441 -0.049608,-0.0496 -0.071656,-0.11162 -0.045473,-0.13643 0.026176,-0.0248 0.085436,-0.006 0.1350469,0.0469"
         style="fill:#211e1e;fill-opacity:1;fill-rule:nonzero;stroke:none;stroke-width:0.35277775"
         inkscape:connector-curvature="0" />
      <path
         id="path6035"
         d="m -6.5653777,150.04584 c 0.049611,0.051 0.068901,0.113 0.044097,0.1378 -0.026176,0.0262 -0.088194,0.006 -0.1391814,-0.0455 -0.049611,-0.051 -0.068901,-0.11162 -0.044097,-0.13643 0.026176,-0.0262 0.088194,-0.004 0.1391814,0.0441"
         style="fill:#211e1e;fill-opacity:1;fill-rule:nonzero;stroke:none;stroke-width:0.35277775"
         inkscape:connector-curvature="0" />
      <path
         id="path6037"
         d="m -6.2911494,150.30767 c 0.049611,0.0496 0.07166,0.11024 0.045477,0.13642 -0.0248,0.0248 -0.086815,0.004 -0.1364263,-0.0455 -0.050987,-0.051 -0.071656,-0.11163 -0.046852,-0.13643 0.026176,-0.0248 0.086815,-0.006 0.1378021,0.0455"
         style="fill:#211e1e;fill-opacity:1;fill-rule:nonzero;stroke:none;stroke-width:0.35277775"
         inkscape:connector-curvature="0" />
      <path
         id="path6039"
         d="m -5.6186668,150.46063 c 0.052366,0.0496 0.074415,0.113 0.046856,0.1378 -0.023424,0.0234 -0.08406,0.004 -0.1350503,-0.0455 -0.050987,-0.0524 -0.071656,-0.113 -0.046852,-0.13643 0.026176,-0.0275 0.085439,-0.008 0.1350469,0.0441"
         style="fill:#211e1e;fill-opacity:1;fill-rule:nonzero;stroke:none;stroke-width:0.35277775"
         inkscape:connector-curvature="0" />
      <path
         id="path6041"
         d="m -6.6260096,148.85246 c 0.00688,0.073 -0.013794,0.13367 -0.049611,0.1378 -0.035828,0.001 -0.07028,-0.051 -0.07855,-0.12265 -0.00688,-0.0703 0.012418,-0.13229 0.048232,-0.13504 0.035832,-0.004 0.07166,0.051 0.079929,0.11989"
         style="fill:#211e1e;fill-opacity:1;fill-rule:nonzero;stroke:none;stroke-width:0.35277775"
         inkscape:connector-curvature="0" />
      <path
         id="path6043"
         d="m -4.9875226,150.75002 c 0.00963,0.0703 -0.012417,0.13091 -0.048232,0.13504 -0.034466,0.004 -0.07166,-0.051 -0.078549,-0.11989 -0.00963,-0.073 0.015169,-0.13367 0.050987,-0.13642 0.035832,-0.004 0.068905,0.0496 0.075794,0.12127"
         style="fill:#211e1e;fill-opacity:1;fill-rule:nonzero;stroke:none;stroke-width:0.35277775"
         inkscape:connector-curvature="0" />
      <path
         id="path6045"
         d="m -6.6811312,147.8961 c 0.00688,0.0717 -0.015169,0.13229 -0.05099,0.1378 -0.034431,0.001 -0.071656,-0.0537 -0.078546,-0.12402 -0.00825,-0.0703 0.015169,-0.12954 0.049608,-0.13505 0.035832,-0.004 0.07166,0.051 0.079929,0.12127"
         style="fill:#211e1e;fill-opacity:1;fill-rule:nonzero;stroke:none;stroke-width:0.35277775"
         inkscape:connector-curvature="0" />
      <path
         id="path6047"
         d="m -6.6825105,149.37887 c 0.028928,0.0661 0.023424,0.12953 -0.00688,0.14469 -0.034466,0.0152 -0.08406,-0.0275 -0.1116224,-0.0937 -0.027552,-0.0661 -0.023424,-0.13091 0.00825,-0.14331 0.033055,-0.0138 0.081305,0.0275 0.1102431,0.0923"
         style="fill:#211e1e;fill-opacity:1;fill-rule:nonzero;stroke:none;stroke-width:0.35277775"
         inkscape:connector-curvature="0" />
      <path
         id="path6049"
         d="m -6.4813178,149.34028 c 0.026176,0.0661 0.0248,0.12954 -0.00963,0.14332 -0.031715,0.0138 -0.081305,-0.0262 -0.110243,-0.0937 -0.027552,-0.0634 -0.0248,-0.12816 0.00963,-0.14193 0.033055,-0.0152 0.082684,0.0262 0.1102431,0.0923"
         style="fill:#211e1e;fill-opacity:1;fill-rule:nonzero;stroke:none;stroke-width:0.35277775"
         inkscape:connector-curvature="0" />
      <path
         id="path6051"
         d="m -6.2015756,149.8791 c 0.027552,0.0661 0.023424,0.12953 -0.011007,0.14331 -0.033055,0.0138 -0.081305,-0.0276 -0.1088637,-0.0937 -0.027552,-0.0648 -0.0248,-0.12816 0.00825,-0.14332 0.034466,-0.0138 0.082684,0.0275 0.1116224,0.0937"
         style="fill:#211e1e;fill-opacity:1;fill-rule:nonzero;stroke:none;stroke-width:0.35277775"
         inkscape:connector-curvature="0" />
      <path
         id="path6053"
         d="m -6.4441103,149.81019 c 0.026176,0.0648 0.023424,0.13092 -0.00963,0.1447 -0.033055,0.0124 -0.082684,-0.0289 -0.110243,-0.0937 -0.027552,-0.0661 -0.0248,-0.12953 0.00826,-0.14469 0.033055,-0.0152 0.084063,0.0276 0.1116224,0.0937"
         style="fill:#211e1e;fill-opacity:1;fill-rule:nonzero;stroke:none;stroke-width:0.35277775"
         inkscape:connector-curvature="0" />
      <path
         id="path6055"
         d="m -6.8354714,148.99715 c 0.028928,0.0648 0.022048,0.12954 -0.00967,0.14332 -0.033055,0.0152 -0.081305,-0.0276 -0.1102431,-0.0923 -0.027552,-0.0661 -0.023424,-0.13091 0.00967,-0.14469 0.031679,-0.0152 0.08268,0.0276 0.1102431,0.0937"
         style="fill:#211e1e;fill-opacity:1;fill-rule:nonzero;stroke:none;stroke-width:0.35277775"
         inkscape:connector-curvature="0" />
      <path
         id="path6057"
         d="m -7.287468,148.87726 c 0.049608,0.0496 0.071656,0.113 0.045473,0.13643 -0.026176,0.0262 -0.086815,0.004 -0.1364262,-0.0455 -0.052363,-0.051 -0.07028,-0.113 -0.046852,-0.1378 0.027552,-0.0262 0.086815,-0.004 0.1378055,0.0469"
         style="fill:#211e1e;fill-opacity:1;fill-rule:nonzero;stroke:none;stroke-width:0.35277775"
         inkscape:connector-curvature="0" />
      <path
         id="path6059"
         d="m -7.0628508,149.22729 c 0.049611,0.0496 0.07028,0.11024 0.045477,0.13642 -0.0248,0.0248 -0.086815,0.004 -0.1378021,-0.0455 -0.049611,-0.051 -0.07028,-0.11163 -0.045477,-0.13643 0.026176,-0.0276 0.086815,-0.006 0.1378021,0.0455"
         style="fill:#211e1e;fill-opacity:1;fill-rule:nonzero;stroke:none;stroke-width:0.35277775"
         inkscape:connector-curvature="0" />
      <path
         id="path6061"
         d="m -6.8037779,149.62829 c 0.049608,0.0496 0.073036,0.11162 0.048232,0.13643 -0.0248,0.0262 -0.086819,0.005 -0.1378056,-0.0455 -0.050987,-0.0496 -0.07028,-0.11024 -0.044097,-0.13505 0.023424,-0.0262 0.08406,-0.007 0.133671,0.0441"
         style="fill:#211e1e;fill-opacity:1;fill-rule:nonzero;stroke:none;stroke-width:0.35277775"
         inkscape:connector-curvature="0" />
      <path
         id="path6063"
         d="m -7.39358,149.21488 c 0.052366,0.0537 0.07166,0.11438 0.048232,0.14056 -0.026176,0.0234 -0.088194,0.004 -0.1391814,-0.0455 -0.048232,-0.051 -0.068901,-0.113 -0.044097,-0.13919 0.026176,-0.0248 0.086819,-0.004 0.1350469,0.0441"
         style="fill:#211e1e;fill-opacity:1;fill-rule:nonzero;stroke:none;stroke-width:0.35277775"
         inkscape:connector-curvature="0" />
      <path
         id="path6065"
         d="m -5.0316199,150.29526 c 0,0.0717 -0.027552,0.12678 -0.063391,0.12678 -0.034466,0 -0.063391,-0.0551 -0.063391,-0.12678 0,-0.073 0.028928,-0.12953 0.063391,-0.12953 0.035828,0 0.063391,0.0565 0.063391,0.12953"
         style="fill:#211e1e;fill-opacity:1;fill-rule:nonzero;stroke:none;stroke-width:0.35277775"
         inkscape:connector-curvature="0" />
      <path
         id="path6067"
         d="m -6.6191199,148.44043 c 0,0.0703 -0.027552,0.12677 -0.063391,0.12677 -0.035828,0 -0.064767,-0.0565 -0.064767,-0.12677 0,-0.073 0.028928,-0.13092 0.064767,-0.13092 0.035828,0 0.063391,0.0579 0.063391,0.13092"
         style="fill:#211e1e;fill-opacity:1;fill-rule:nonzero;stroke:none;stroke-width:0.35277775"
         inkscape:connector-curvature="0" />
      <path
         id="path6069"
         d="m -5.0509133,146.91769 c -0.023424,0.0661 -0.073036,0.11024 -0.1074878,0.0992 -0.03168,-0.0138 -0.038583,-0.0786 -0.012382,-0.14469 0.024799,-0.0661 0.071656,-0.10887 0.104729,-0.0978 0.034466,0.0124 0.041342,0.0772 0.015169,0.14331"
         style="fill:#211e1e;fill-opacity:1;fill-rule:nonzero;stroke:none;stroke-width:0.35277775"
         inkscape:connector-curvature="0" />
      <path
         id="path6071"
         d="m -2.300351,146.886 c -0.023424,0.0648 -0.071656,0.11024 -0.1061085,0.0965 -0.033055,-0.0138 -0.038583,-0.0758 -0.015169,-0.14469 0.026176,-0.0648 0.073039,-0.10887 0.1074878,-0.0965 0.034466,0.0124 0.039963,0.0772 0.013793,0.1447"
         style="fill:#211e1e;fill-opacity:1;fill-rule:nonzero;stroke:none;stroke-width:0.35277775"
         inkscape:connector-curvature="0" />
      <path
         id="path6073"
         d="m -2.7978206,146.71925 c -0.0248,0.0675 -0.073036,0.11025 -0.1061085,0.0978 -0.033055,-0.0124 -0.039963,-0.0772 -0.013793,-0.14469 0.024799,-0.0661 0.07166,-0.10749 0.1047326,-0.0965 0.033055,0.011 0.041342,0.0786 0.015169,0.14331"
         style="fill:#211e1e;fill-opacity:1;fill-rule:nonzero;stroke:none;stroke-width:0.35277775"
         inkscape:connector-curvature="0" />
      <path
         id="path6075"
         d="m -3.0059064,147.07479 c -0.024799,0.0689 -0.073036,0.11162 -0.1061085,0.0992 -0.033055,-0.0152 -0.041338,-0.0772 -0.015169,-0.1447 0.024799,-0.0661 0.073039,-0.11024 0.1074878,-0.0978 0.033055,0.0152 0.037207,0.0786 0.013793,0.14332"
         style="fill:#211e1e;fill-opacity:1;fill-rule:nonzero;stroke:none;stroke-width:0.35277775"
         inkscape:connector-curvature="0" />
      <path
         id="path6077"
         d="m -2.6241868,146.96592 c -0.023425,0.0648 -0.07166,0.11025 -0.1061122,0.0978 -0.033055,-0.0138 -0.039963,-0.0772 -0.015169,-0.14469 0.026175,-0.0634 0.073036,-0.11024 0.1061085,-0.0978 0.033055,0.0138 0.041338,0.0772 0.015168,0.14469"
         style="fill:#211e1e;fill-opacity:1;fill-rule:nonzero;stroke:none;stroke-width:0.35277775"
         inkscape:connector-curvature="0" />
      <path
         id="path6079"
         d="m -2.3182649,147.25393 c -0.024799,0.0689 -0.074411,0.113 -0.1088639,0.1006 -0.033055,-0.0124 -0.037207,-0.0772 -0.013793,-0.14332 0.026175,-0.0689 0.073036,-0.11024 0.1074843,-0.0978 0.033055,0.011 0.039966,0.0758 0.015169,0.14057"
         style="fill:#211e1e;fill-opacity:1;fill-rule:nonzero;stroke:none;stroke-width:0.35277775"
         inkscape:connector-curvature="0" />
      <path
         id="path6081"
         d="m -2.9769647,147.43308 c -0.024799,0.0689 -0.073039,0.113 -0.1074878,0.10059 -0.034466,-0.0124 -0.038587,-0.0772 -0.012417,-0.14331 0.023424,-0.0689 0.07028,-0.11025 0.1047327,-0.0978 0.033055,0.011 0.039963,0.0772 0.015169,0.14056"
         style="fill:#211e1e;fill-opacity:1;fill-rule:nonzero;stroke:none;stroke-width:0.35277775"
         inkscape:connector-curvature="0" />
      <path
         id="path6083"
         d="m -2.5525307,147.51852 c -0.026175,0.0675 -0.074415,0.11024 -0.1061085,0.0965 -0.031679,-0.011 -0.039963,-0.0758 -0.013793,-0.14056 0.023423,-0.0689 0.071656,-0.113 0.1047292,-0.0978 0.033055,0.0124 0.041342,0.0744 0.015169,0.14194"
         style="fill:#211e1e;fill-opacity:1;fill-rule:nonzero;stroke:none;stroke-width:0.35277775"
         inkscape:connector-curvature="0" />
      <path
         id="path6085"
         d="m -3.4565236,148.16344 c -0.026175,0.0675 -0.071656,0.11024 -0.1061085,0.0978 -0.034466,-0.0124 -0.039963,-0.0772 -0.015169,-0.14332 0.026175,-0.0661 0.073036,-0.11162 0.1061085,-0.0992 0.034466,0.0138 0.039963,0.0772 0.015169,0.1447"
         style="fill:#211e1e;fill-opacity:1;fill-rule:nonzero;stroke:none;stroke-width:0.35277775"
         inkscape:connector-curvature="0" />
      <path
         id="path6087"
         d="m -3.3366356,147.73625 c -0.024799,0.0675 -0.073036,0.11162 -0.1061085,0.0978 -0.034431,-0.0138 -0.038583,-0.0772 -0.015169,-0.14194 0.026175,-0.0689 0.073039,-0.113 0.106112,-0.0978 0.034431,0.011 0.041339,0.0758 0.015169,0.14194"
         style="fill:#211e1e;fill-opacity:1;fill-rule:nonzero;stroke:none;stroke-width:0.35277775"
         inkscape:connector-curvature="0" />
      <path
         id="path6089"
         d="m -4.3949689,149.83224 c -0.024799,0.0648 -0.073036,0.11025 -0.1074844,0.0978 -0.033055,-0.0138 -0.038587,-0.0785 -0.012417,-0.14469 0.023424,-0.0675 0.07028,-0.10887 0.1047327,-0.0978 0.034431,0.0138 0.039963,0.0772 0.015169,0.14469"
         style="fill:#211e1e;fill-opacity:1;fill-rule:nonzero;stroke:none;stroke-width:0.35277775"
         inkscape:connector-curvature="0" />
      <path
         id="path6091"
         d="m -2.8226243,148.3481 c -0.024799,0.0661 -0.07166,0.10886 -0.1047326,0.0978 -0.034467,-0.0138 -0.039963,-0.0786 -0.015169,-0.1447 0.024799,-0.0661 0.073036,-0.10886 0.1061085,-0.0978 0.033056,0.0138 0.039963,0.0786 0.013793,0.1447"
         style="fill:#211e1e;fill-opacity:1;fill-rule:nonzero;stroke:none;stroke-width:0.35277775"
         inkscape:connector-curvature="0" />
      <path
         id="path6093"
         d="m -4.2213353,149.39816 c -0.024799,0.0648 -0.073036,0.11024 -0.1061085,0.0965 -0.034466,-0.0138 -0.039963,-0.0786 -0.012417,-0.14331 0.023424,-0.0675 0.07166,-0.11024 0.1047327,-0.0978 0.033055,0.0124 0.039963,0.0772 0.013793,0.14469"
         style="fill:#211e1e;fill-opacity:1;fill-rule:nonzero;stroke:none;stroke-width:0.35277775"
         inkscape:connector-curvature="0" />
      <path
         id="path6095"
         d="m -3.5667667,148.90758 c -0.024799,0.0648 -0.073036,0.10886 -0.1061085,0.0965 -0.034466,-0.0138 -0.038587,-0.0772 -0.013793,-0.14469 0.024799,-0.0675 0.071656,-0.11024 0.1061085,-0.0965 0.034431,0.0124 0.038583,0.0772 0.013793,0.1447"
         style="fill:#211e1e;fill-opacity:1;fill-rule:nonzero;stroke:none;stroke-width:0.35277775"
         inkscape:connector-curvature="0" />
      <path
         id="path6097"
         d="m -3.1588673,148.71465 c -0.046852,0.0565 -0.1061085,0.0813 -0.133671,0.0565 -0.027552,-0.022 -0.011007,-0.0854 0.034466,-0.13918 0.046852,-0.0537 0.1061085,-0.0799 0.1322917,-0.0565 0.027552,0.0234 0.012417,0.0868 -0.033055,0.13918"
         style="fill:#211e1e;fill-opacity:1;fill-rule:nonzero;stroke:none;stroke-width:0.35277775"
         inkscape:connector-curvature="0" />
      <path
         id="path6099"
         d="m -4.0614809,149.72613 c -0.045477,0.0524 -0.1047327,0.0799 -0.1322917,0.0565 -0.027552,-0.0221 -0.012417,-0.0868 0.034431,-0.14194 0.046856,-0.0524 0.1047327,-0.0785 0.1322917,-0.0551 0.026175,0.0221 0.011007,0.0841 -0.034431,0.14056"
         style="fill:#211e1e;fill-opacity:1;fill-rule:nonzero;stroke:none;stroke-width:0.35277775"
         inkscape:connector-curvature="0" />
      <path
         id="path6101"
         d="m -3.5970843,149.37198 c -0.044097,0.0551 -0.1047292,0.0799 -0.1322916,0.0565 -0.024799,-0.0221 -0.00963,-0.0841 0.034466,-0.13918 0.046852,-0.0538 0.1061085,-0.0799 0.135047,-0.0579 0.024799,0.0234 0.00967,0.0868 -0.037208,0.14056"
         style="fill:#211e1e;fill-opacity:1;fill-rule:nonzero;stroke:none;stroke-width:0.35277775"
         inkscape:connector-curvature="0" />
      <path
         id="path6103"
         d="m -3.7831181,148.34672 c -0.012417,0.0689 -0.052366,0.11989 -0.088195,0.113 -0.034466,-0.008 -0.050987,-0.0703 -0.038587,-0.14056 0.015169,-0.0689 0.055122,-0.11851 0.089574,-0.11438 0.034466,0.008 0.052366,0.0703 0.037208,0.14194"
         style="fill:#211e1e;fill-opacity:1;fill-rule:nonzero;stroke:none;stroke-width:0.35277775"
         inkscape:connector-curvature="0" />
      <path
         id="path6105"
         d="m -4.729829,150.49095 c -0.015169,0.0703 -0.053746,0.12264 -0.090953,0.11299 -0.034431,-0.007 -0.050987,-0.0689 -0.035828,-0.13918 0.013793,-0.0689 0.050987,-0.11989 0.086815,-0.113 0.035832,0.007 0.052366,0.0703 0.039966,0.13919"
         style="fill:#211e1e;fill-opacity:1;fill-rule:nonzero;stroke:none;stroke-width:0.35277775"
         inkscape:connector-curvature="0" />
      <path
         id="path6107"
         d="m -4.4721391,150.22636 c -0.013793,0.0689 -0.055121,0.11989 -0.08957,0.113 -0.034467,-0.006 -0.052366,-0.0675 -0.038587,-0.13918 0.013793,-0.0689 0.055122,-0.11989 0.090953,-0.113 0.034431,0.007 0.050987,0.0703 0.037204,0.13918"
         style="fill:#211e1e;fill-opacity:1;fill-rule:nonzero;stroke:none;stroke-width:0.35277775"
         inkscape:connector-curvature="0" />
      <path
         id="path6109"
         d="m -3.4868414,148.54653 c -0.024799,0.0662 -0.073036,0.11162 -0.1061085,0.0978 -0.034431,-0.0124 -0.039963,-0.0772 -0.013793,-0.14331 0.024799,-0.0661 0.071656,-0.11162 0.1047292,-0.0978 0.033055,0.0124 0.041342,0.0772 0.015169,0.14331"
         style="fill:#211e1e;fill-opacity:1;fill-rule:nonzero;stroke:none;stroke-width:0.35277775"
         inkscape:connector-curvature="0" />
      <path
         id="path6111"
         d="m -2.5222129,147.93468 c -0.026175,0.0675 -0.073036,0.11025 -0.1061085,0.0979 -0.033055,-0.011 -0.039963,-0.0772 -0.012417,-0.14194 0.022048,-0.0675 0.07166,-0.11025 0.1047327,-0.0978 0.033055,0.011 0.039963,0.0758 0.013793,0.14193"
         style="fill:#211e1e;fill-opacity:1;fill-rule:nonzero;stroke:none;stroke-width:0.35277775"
         inkscape:connector-curvature="0" />
      <path
         id="path6113"
         d="m -3.8878508,149.26036 c -0.026175,0.0648 -0.073036,0.10886 -0.1074843,0.0965 -0.031715,-0.0138 -0.038587,-0.0772 -0.012417,-0.14469 0.023424,-0.0648 0.07166,-0.10887 0.1061085,-0.0978 0.031715,0.0138 0.038587,0.0785 0.013793,0.14608"
         style="fill:#211e1e;fill-opacity:1;fill-rule:nonzero;stroke:none;stroke-width:0.35277775"
         inkscape:connector-curvature="0" />
      <path
         id="path6115"
         d="m -5.0715826,147.67837 c -0.023424,0.0661 -0.07166,0.11162 -0.1061119,0.0978 -0.033055,-0.0124 -0.039963,-0.0758 -0.013793,-0.14332 0.026175,-0.0661 0.07166,-0.11024 0.1047327,-0.0978 0.034431,0.0124 0.041338,0.0785 0.015169,0.14332"
         style="fill:#211e1e;fill-opacity:1;fill-rule:nonzero;stroke:none;stroke-width:0.35277775"
         inkscape:connector-curvature="0" />
      <path
         id="path6117"
         d="m -2.8405418,147.80239 c -0.024799,0.0661 -0.071656,0.11024 -0.1061085,0.0978 -0.033055,-0.0124 -0.038583,-0.0772 -0.015169,-0.14469 0.026175,-0.0661 0.074415,-0.11024 0.107488,-0.0965 0.034466,0.011 0.038587,0.0758 0.013793,0.14331"
         style="fill:#211e1e;fill-opacity:1;fill-rule:nonzero;stroke:none;stroke-width:0.35277775"
         inkscape:connector-curvature="0" />
      <path
         id="path6119"
         d="m -3.1395739,148.19513 c -0.026175,0.0661 -0.073036,0.10887 -0.1074878,0.0978 -0.03168,-0.0138 -0.038583,-0.0785 -0.012417,-0.14469 0.023424,-0.0648 0.073039,-0.10886 0.1061122,-0.0978 0.033055,0.0138 0.038583,0.0785 0.013793,0.14469"
         style="fill:#211e1e;fill-opacity:1;fill-rule:nonzero;stroke:none;stroke-width:0.35277775"
         inkscape:connector-curvature="0" />
      <path
         id="path6121"
         d="m -5.2259229,148.07662 c -0.0248,0.0662 -0.07028,0.10887 -0.1047326,0.0965 -0.033055,-0.01 -0.039963,-0.0772 -0.015169,-0.14193 0.0248,-0.0675 0.073036,-0.113 0.1074879,-0.0992 0.030304,0.0152 0.038583,0.0758 0.012418,0.14469"
         style="fill:#211e1e;fill-opacity:1;fill-rule:nonzero;stroke:none;stroke-width:0.35277775"
         inkscape:connector-curvature="0" />
      <path
         id="path6123"
         d="m -5.5263378,148.25852 c -0.0248,0.0661 -0.074411,0.11162 -0.1074843,0.0978 -0.034466,-0.011 -0.038587,-0.0772 -0.015169,-0.14332 0.026176,-0.0675 0.073036,-0.11024 0.1061085,-0.0965 0.034431,0.011 0.041342,0.0744 0.016545,0.14193"
         style="fill:#211e1e;fill-opacity:1;fill-rule:nonzero;stroke:none;stroke-width:0.35277775"
         inkscape:connector-curvature="0" />
      <path
         id="path6125"
         d="m -4.7477466,150.92365 c -0.024799,0.0675 -0.073036,0.11024 -0.1061085,0.0978 -0.033056,-0.0138 -0.038583,-0.0772 -0.015169,-0.14332 0.026175,-0.0675 0.073039,-0.11024 0.1074881,-0.0978 0.033055,0.0138 0.038587,0.0772 0.013793,0.14332"
         style="fill:#211e1e;fill-opacity:1;fill-rule:nonzero;stroke:none;stroke-width:0.35277775"
         inkscape:connector-curvature="0" />
      <path
         id="path6127"
         d="m -5.5070444,147.81342 c -0.0248,0.0675 -0.07028,0.113 -0.1047291,0.0978 -0.034466,-0.0124 -0.041342,-0.0744 -0.01517,-0.14332 0.0248,-0.0661 0.071656,-0.11024 0.1061085,-0.0965 0.033055,0.011 0.038583,0.0758 0.013794,0.14194"
         style="fill:#211e1e;fill-opacity:1;fill-rule:nonzero;stroke:none;stroke-width:0.35277775"
         inkscape:connector-curvature="0" />
      <path
         id="path6129"
         d="m -4.7146737,147.51162 c -0.024799,0.0675 -0.073036,0.11163 -0.1047292,0.0978 -0.033055,-0.0124 -0.039963,-0.0758 -0.01792,-0.14332 0.027552,-0.0648 0.075791,-0.11024 0.1074878,-0.0978 0.034431,0.0138 0.039963,0.0772 0.015169,0.14331"
         style="fill:#211e1e;fill-opacity:1;fill-rule:nonzero;stroke:none;stroke-width:0.35277775"
         inkscape:connector-curvature="0" />
      <path
         id="path6131"
         d="m -4.8318066,147.92779 c -0.026175,0.0675 -0.071656,0.10887 -0.1061085,0.0979 -0.033055,-0.0138 -0.039963,-0.0758 -0.015169,-0.14332 0.026175,-0.0675 0.073036,-0.11162 0.1074878,-0.0965 0.033055,0.01 0.038587,0.0744 0.013793,0.14193"
         style="fill:#211e1e;fill-opacity:1;fill-rule:nonzero;stroke:none;stroke-width:0.35277775"
         inkscape:connector-curvature="0" />
      <path
         id="path6133"
         d="m -5.6586295,148.70638 c -0.00688,0.0703 -0.039963,0.12679 -0.078546,0.12127 -0.034466,-0.003 -0.056501,-0.0648 -0.049611,-0.13505 0.0055,-0.0689 0.042721,-0.1254 0.07717,-0.12126 0.035828,0.003 0.059256,0.0634 0.050987,0.13504"
         style="fill:#211e1e;fill-opacity:1;fill-rule:nonzero;stroke:none;stroke-width:0.35277775"
         inkscape:connector-curvature="0" />
      <path
         id="path6135"
         d="m -5.275534,149.03436 c -0.00826,0.0689 -0.041342,0.12402 -0.07717,0.12127 -0.035828,-0.004 -0.057877,-0.0661 -0.050987,-0.13643 0.00826,-0.0703 0.044097,-0.1254 0.07717,-0.12127 0.035828,0.003 0.060632,0.062 0.050987,0.13643"
         style="fill:#211e1e;fill-opacity:1;fill-rule:nonzero;stroke:none;stroke-width:0.35277775"
         inkscape:connector-curvature="0" />
      <path
         id="path6137"
         d="m -5.3058517,148.58374 c -0.0055,0.0703 -0.039963,0.1254 -0.075791,0.12127 -0.035828,-0.003 -0.057877,-0.0634 -0.050987,-0.13367 0.00825,-0.0717 0.042718,-0.12678 0.078546,-0.12127 0.034466,10e-4 0.056501,0.0634 0.048232,0.13367"
         style="fill:#211e1e;fill-opacity:1;fill-rule:nonzero;stroke:none;stroke-width:0.35277775"
         inkscape:connector-curvature="0" />
      <path
         id="path6139"
         d="m -5.0026816,148.35361 c -0.00688,0.0703 -0.041342,0.12402 -0.075794,0.12126 -0.035828,-0.004 -0.059253,-0.0648 -0.050987,-0.13504 0.0055,-0.0717 0.041342,-0.1254 0.07717,-0.12265 0.035831,0.004 0.05788,0.0634 0.049611,0.13643"
         style="fill:#211e1e;fill-opacity:1;fill-rule:nonzero;stroke:none;stroke-width:0.35277775"
         inkscape:connector-curvature="0" />
      <path
         id="path6141"
         d="m -4.8331824,150.10923 c -0.00688,0.0717 -0.042721,0.12678 -0.07717,0.12127 -0.034466,-0.003 -0.056501,-0.062 -0.049611,-0.13367 0.00688,-0.0717 0.041342,-0.12541 0.07717,-0.12127 0.034466,0.003 0.057877,0.0634 0.049611,0.13367"
         style="fill:#211e1e;fill-opacity:1;fill-rule:nonzero;stroke:none;stroke-width:0.35277775"
         inkscape:connector-curvature="0" />
      <path
         id="path6143"
         d="m -5.0261094,148.81387 c -0.00688,0.0703 -0.041342,0.12678 -0.07717,0.12265 -0.035828,-0.004 -0.057877,-0.0648 -0.052366,-0.13643 0.00967,-0.0689 0.044097,-0.12402 0.079929,-0.11989 0.035828,0.003 0.056497,0.0648 0.049608,0.13367"
         style="fill:#211e1e;fill-opacity:1;fill-rule:nonzero;stroke:none;stroke-width:0.35277775"
         inkscape:connector-curvature="0" />
      <path
         id="path6145"
         d="m -5.0895002,149.89563 c -0.00825,0.0717 -0.041338,0.12678 -0.075791,0.12265 -0.038583,-0.004 -0.059256,-0.0634 -0.052366,-0.13505 0.00688,-0.0689 0.042721,-0.12678 0.07717,-0.12127 0.035832,0.003 0.05788,0.0634 0.050987,0.13367"
         style="fill:#211e1e;fill-opacity:1;fill-rule:nonzero;stroke:none;stroke-width:0.35277775"
         inkscape:connector-curvature="0" />
      <path
         id="path6147"
         d="m -5.0605582,149.33753 c -0.00688,0.0717 -0.041342,0.12678 -0.07717,0.12127 -0.034466,-0.001 -0.05788,-0.062 -0.049611,-0.13368 0.00688,-0.0703 0.041342,-0.1254 0.07717,-0.12126 0.034467,0.004 0.059256,0.0634 0.049611,0.13367"
         style="fill:#211e1e;fill-opacity:1;fill-rule:nonzero;stroke:none;stroke-width:0.35277775"
         inkscape:connector-curvature="0" />
      <path
         id="path6149"
         d="m -3.872692,148.8373 c -0.00825,0.0717 -0.044097,0.12678 -0.075791,0.12264 -0.035828,-0.003 -0.059256,-0.0634 -0.052366,-0.13504 0.00688,-0.0703 0.042721,-0.12541 0.078549,-0.12127 0.034431,0.003 0.056497,0.062 0.049608,0.13367"
         style="fill:#211e1e;fill-opacity:1;fill-rule:nonzero;stroke:none;stroke-width:0.35277775"
         inkscape:connector-curvature="0" />
      <path
         id="path6151"
         d="m -5.3885322,149.46844 c 0.022048,0.0703 0.011007,0.13367 -0.022049,0.1447 -0.033055,0.01 -0.079925,-0.0372 -0.1019739,-0.10474 -0.019297,-0.0689 -0.00967,-0.13229 0.023424,-0.14331 0.035828,-0.008 0.079925,0.0358 0.1005981,0.10335"
         style="fill:#211e1e;fill-opacity:1;fill-rule:nonzero;stroke:none;stroke-width:0.35277775"
         inkscape:connector-curvature="0" />
      <path
         id="path6153"
         d="m -5.5842145,149.10602 c 0.022049,0.0675 0.00963,0.13091 -0.023424,0.14331 -0.034432,0.011 -0.079926,-0.0372 -0.100595,-0.10473 -0.020673,-0.0689 -0.011007,-0.13229 0.022049,-0.14331 0.034431,-0.01 0.081305,0.0372 0.101974,0.10473"
         style="fill:#211e1e;fill-opacity:1;fill-rule:nonzero;stroke:none;stroke-width:0.35277775"
         inkscape:connector-curvature="0" />
      <path
         id="path6155"
         d="m -5.3747527,149.94387 c 0.020673,0.0689 0.011007,0.13229 -0.022049,0.14193 -0.034466,0.01 -0.079925,-0.0345 -0.1019739,-0.10197 -0.019297,-0.0689 -0.00967,-0.13367 0.023424,-0.1447 0.033055,-0.01 0.07855,0.0358 0.1005981,0.10474"
         style="fill:#211e1e;fill-opacity:1;fill-rule:nonzero;stroke:none;stroke-width:0.35277775"
         inkscape:connector-curvature="0" />
      <path
         id="path6157"
         d="m -5.1859601,150.84786 c 0.020672,0.0689 0.00825,0.13091 -0.024799,0.14193 -0.033055,0.011 -0.078546,-0.0345 -0.1005945,-0.10197 -0.020673,-0.0689 -0.00967,-0.13229 0.0248,-0.14331 0.033055,-0.011 0.07855,0.0358 0.1005982,0.10335"
         style="fill:#211e1e;fill-opacity:1;fill-rule:nonzero;stroke:none;stroke-width:0.35277775"
         inkscape:connector-curvature="0" />
      <path
         id="path6159"
         d="m -5.2741546,150.40689 c 0.023424,0.0689 0.012383,0.13091 -0.022048,0.14331 -0.035832,0.01 -0.081305,-0.0345 -0.1005982,-0.10473 -0.022049,-0.0675 -0.011007,-0.13091 0.022048,-0.14194 0.035828,-0.01 0.081305,0.0345 0.1005981,0.10336"
         style="fill:#211e1e;fill-opacity:1;fill-rule:nonzero;stroke:none;stroke-width:0.35277775"
         inkscape:connector-curvature="0" />
      <path
         id="path6161"
         d="m -4.8883039,147.21535 c -0.024799,0.0675 -0.07028,0.11024 -0.1047326,0.0978 -0.034431,-0.0124 -0.041342,-0.0744 -0.013793,-0.14194 0.023424,-0.0689 0.071656,-0.11162 0.1047293,-0.0992 0.033055,0.0124 0.039966,0.0772 0.013793,0.14332"
         style="fill:#211e1e;fill-opacity:1;fill-rule:nonzero;stroke:none;stroke-width:0.35277775"
         inkscape:connector-curvature="0" />
      <path
         id="path6163"
         d="m -5.2548648,147.40828 c -0.0248,0.0675 -0.073036,0.11024 -0.1061084,0.0978 -0.033055,-0.0124 -0.039963,-0.0758 -0.015169,-0.14331 0.026176,-0.0661 0.07166,-0.11024 0.106112,-0.0965 0.034431,0.011 0.041339,0.0758 0.015169,0.14194"
         style="fill:#211e1e;fill-opacity:1;fill-rule:nonzero;stroke:none;stroke-width:0.35277775"
         inkscape:connector-curvature="0" />
      <path
         id="path6165"
         d="m -4.5369054,147.07065 c 0,0.0703 -0.027552,0.12954 -0.063391,0.12954 -0.037208,0 -0.064766,-0.0593 -0.064766,-0.12954 0,-0.0703 0.027552,-0.12815 0.064766,-0.12815 0.035832,0 0.063391,0.0579 0.063391,0.12815"
         style="fill:#211e1e;fill-opacity:1;fill-rule:nonzero;stroke:none;stroke-width:0.35277775"
         inkscape:connector-curvature="0" />
    </g>
  </g>
</svg>
