<?xml version="1.0" encoding="UTF-8" standalone="no"?>
<!-- Created with Inkscape (http://www.inkscape.org/) -->

<svg
   xmlns:dc="http://purl.org/dc/elements/1.1/"
   xmlns:cc="http://creativecommons.org/ns#"
   xmlns:rdf="http://www.w3.org/1999/02/22-rdf-syntax-ns#"
   xmlns:svg="http://www.w3.org/2000/svg"
   xmlns="http://www.w3.org/2000/svg"
   xmlns:sodipodi="http://sodipodi.sourceforge.net/DTD/sodipodi-0.dtd"
   xmlns:inkscape="http://www.inkscape.org/namespaces/inkscape"
   width="6.3171mm"
   height="6.3171mm"
   viewBox="0 0 6.3171 6.3171"
   version="1.1"
   id="svg11152"
   inkscape:version="0.92.2 (5c3e80d, 2017-08-06)"
   sodipodi:docname="10.2.07.svg">
  <defs
     id="defs11146" />
  <sodipodi:namedview
     id="base"
     pagecolor="#ffffff"
     bordercolor="#666666"
     borderopacity="1.0"
     inkscape:pageopacity="0.0"
     inkscape:pageshadow="2"
     inkscape:zoom="12.409059"
     inkscape:cx="18.357171"
     inkscape:cy="6.1916534"
     inkscape:document-units="mm"
     inkscape:current-layer="layer1"
     showgrid="false"
     inkscape:window-width="1920"
     inkscape:window-height="1018"
     inkscape:window-x="-8"
     inkscape:window-y="-8"
     inkscape:window-maximized="1" />
  <metadata
     id="metadata11149">
    <rdf:RDF>
      <cc:Work
         rdf:about="">
        <dc:format>image/svg+xml</dc:format>
        <dc:type
           rdf:resource="http://purl.org/dc/dcmitype/StillImage" />
        <dc:title></dc:title>
      </cc:Work>
    </rdf:RDF>
  </metadata>
  <g
     inkscape:label="Layer 1"
     inkscape:groupmode="layer"
     id="layer1"
     transform="translate(-103.50111,-145.67482)">
    <g
       id="g11236"
       transform="translate(0.82631981)">
      <path
         id="path10317"
         d="m 105.84505,151.0747 c 0,0 0.32246,-0.13092 0.56362,-0.23289 0.24115,-0.10198 0.53743,-0.2577 0.54708,-1.53652 0.008,-1.27744 -0.29628,-1.08175 -0.28801,-1.26779 0.01,-0.18328 -0.0744,-0.39688 -0.20258,-0.74 -0.12953,-0.34176 -0.50022,-0.32384 -0.31557,-0.38861 0.34314,-0.11989 -0.10059,-0.42582 -0.31419,-0.44373 h -0.003 c -0.2136,0.0179 -0.65732,0.32384 -0.31419,0.44373 0.18466,0.0648 -0.18604,0.0468 -0.31557,0.38861 -0.12954,0.34312 -0.21222,0.55672 -0.20395,0.74 0.011,0.18604 -0.2949,-0.01 -0.28663,1.26779 0.01,1.27882 0.30592,1.43454 0.5457,1.53652 0.24116,0.10197 0.565,0.23289 0.565,0.23289 z"
         style="fill:#ffffff;fill-opacity:1;fill-rule:nonzero;stroke:#000000;stroke-width:0.127;stroke-linecap:butt;stroke-linejoin:miter;stroke-miterlimit:4;stroke-opacity:1"
         inkscape:connector-curvature="0" />
      <path
         id="path5723"
         d="M 105.84505,151.0747"
         style="fill:#ffffff;fill-opacity:1;fill-rule:nonzero;stroke:#000000;stroke-width:0.127;stroke-linecap:butt;stroke-linejoin:miter;stroke-miterlimit:4;stroke-opacity:1"
         inkscape:connector-curvature="0" />
      <path
         id="path10313"
         d="m 104.71919,149.6002 -0.004,-0.15572 c 0,0 -0.49334,0.32246 -0.46715,0.66972 0.0248,0.34589 0.52778,0.77722 0.51952,0.87644 -0.007,0.0992 -0.007,0.58704 -0.007,0.58704 l -0.25632,0.37069 0.40515,-0.42995 0.007,-0.63527 c 0,0 -0.6022,-0.7276 -0.52779,-0.80202 0.073,-0.0744 0.34037,-0.34313 0.34037,-0.34313 z"
         style="fill:#ffffff;fill-opacity:1;fill-rule:nonzero;stroke:#000000;stroke-width:0.127;stroke-linecap:butt;stroke-linejoin:miter;stroke-miterlimit:4;stroke-opacity:1"
         inkscape:connector-curvature="0" />
      <path
         id="path5725"
         d="M 104.71919,149.6002"
         style="fill:#ffffff;fill-opacity:1;fill-rule:nonzero;stroke:#000000;stroke-width:0.127;stroke-linecap:butt;stroke-linejoin:miter;stroke-miterlimit:4;stroke-opacity:1"
         inkscape:connector-curvature="0" />
      <path
         id="path10309"
         d="m 104.84459,148.28141 0.04,-0.0648 0.0358,-0.0441 c 0,0 -0.24392,-0.0579 -0.31833,0.008 -0.073,0.0661 -0.5209,0.7028 -0.5209,0.7028 l -0.53744,0.48645 0.6215,-0.40377 c 0,0 0.37345,-0.56775 0.43684,-0.60358 0.0799,-0.0468 0.2067,0.007 0.2067,0.007 z"
         style="fill:#ffffff;fill-opacity:1;fill-rule:nonzero;stroke:#000000;stroke-width:0.127;stroke-linecap:butt;stroke-linejoin:miter;stroke-miterlimit:4;stroke-opacity:1"
         inkscape:connector-curvature="0" />
      <path
         id="path5727"
         d="M 104.84459,148.28141"
         style="fill:#ffffff;fill-opacity:1;fill-rule:nonzero;stroke:#000000;stroke-width:0.127;stroke-linecap:butt;stroke-linejoin:miter;stroke-miterlimit:4;stroke-opacity:1"
         inkscape:connector-curvature="0" />
      <path
         id="path10305"
         d="m 105.15052,147.4353 -0.226,-0.0565 -0.0827,-0.5457 -0.47956,-0.32246 0.38998,0.35553 c 0,0 0.0234,0.48782 0.0978,0.56224 0.0744,0.0744 0.22738,0.20808 0.22738,0.20808 z"
         style="fill:#ffffff;fill-opacity:1;fill-rule:nonzero;stroke:#000000;stroke-width:0.127;stroke-linecap:butt;stroke-linejoin:miter;stroke-miterlimit:4;stroke-opacity:1"
         inkscape:connector-curvature="0" />
      <path
         id="path5729"
         d="M 105.15052,147.4353"
         style="fill:#ffffff;fill-opacity:1;fill-rule:nonzero;stroke:#000000;stroke-width:0.127;stroke-linecap:butt;stroke-linejoin:miter;stroke-miterlimit:4;stroke-opacity:1"
         inkscape:connector-curvature="0" />
      <path
         id="path10301"
         d="m 105.62732,146.53268 c 0,0 -0.339,-0.42719 -0.64492,-0.52503 -0.30593,-0.0992 -0.56087,-0.28112 -0.56087,-0.28112 0,0 0.30455,0.26458 0.49472,0.32935 0.19017,0.0675 0.66559,0.50436 0.66559,0.50436 z"
         style="fill:#ffffff;fill-opacity:1;fill-rule:nonzero;stroke:#000000;stroke-width:0.127;stroke-linecap:butt;stroke-linejoin:miter;stroke-miterlimit:4;stroke-opacity:1"
         inkscape:connector-curvature="0" />
      <path
         id="path5731"
         d="M 105.62732,146.53268"
         style="fill:#ffffff;fill-opacity:1;fill-rule:nonzero;stroke:#000000;stroke-width:0.127;stroke-linecap:butt;stroke-linejoin:miter;stroke-miterlimit:4;stroke-opacity:1"
         inkscape:connector-curvature="0" />
      <path
         id="path5733"
         d="m 105.69209,146.50375 c 0,0 -0.0978,-0.19569 0.0717,-0.20534"
         style="fill:none;stroke:#000000;stroke-width:0.127;stroke-linecap:butt;stroke-linejoin:miter;stroke-miterlimit:4;stroke-opacity:1"
         inkscape:connector-curvature="0" />
      <path
         id="path10295"
         d="m 106.94748,149.6002 0.005,-0.15572 c 0,0 0.49196,0.32246 0.46715,0.66972 -0.0248,0.34589 -0.52916,0.77722 -0.52089,0.87644 0.008,0.0992 0.008,0.58704 0.008,0.58704 l 0.25631,0.37069 -0.40515,-0.42995 -0.008,-0.63527 c 0,0 0.60358,-0.7276 0.52917,-0.80202 -0.0744,-0.0744 -0.34038,-0.34313 -0.34038,-0.34313 z"
         style="fill:#ffffff;fill-opacity:1;fill-rule:nonzero;stroke:#000000;stroke-width:0.127;stroke-linecap:butt;stroke-linejoin:miter;stroke-miterlimit:4;stroke-opacity:1"
         inkscape:connector-curvature="0" />
      <path
         id="path5735"
         d="M 106.94748,149.6002"
         style="fill:#ffffff;fill-opacity:1;fill-rule:nonzero;stroke:#000000;stroke-width:0.127;stroke-linecap:butt;stroke-linejoin:miter;stroke-miterlimit:4;stroke-opacity:1"
         inkscape:connector-curvature="0" />
      <path
         id="path10291"
         d="m 106.82208,148.28141 -0.0386,-0.0648 -0.0358,-0.0441 c 0,0 0.24254,-0.0579 0.31557,0.008 0.0758,0.0661 0.52228,0.7028 0.52228,0.7028 l 0.53743,0.48645 -0.62011,-0.40377 c 0,0 -0.37345,-0.56775 -0.4396,-0.60358 -0.0785,-0.0468 -0.20395,0.007 -0.20395,0.007 z"
         style="fill:#ffffff;fill-opacity:1;fill-rule:nonzero;stroke:#000000;stroke-width:0.127;stroke-linecap:butt;stroke-linejoin:miter;stroke-miterlimit:4;stroke-opacity:1"
         inkscape:connector-curvature="0" />
      <path
         id="path5737"
         d="M 106.82208,148.28141"
         style="fill:#ffffff;fill-opacity:1;fill-rule:nonzero;stroke:#000000;stroke-width:0.127;stroke-linecap:butt;stroke-linejoin:miter;stroke-miterlimit:4;stroke-opacity:1"
         inkscape:connector-curvature="0" />
      <path
         id="path10287"
         d="m 106.51615,147.4353 0.226,-0.0565 0.0827,-0.5457 0.47956,-0.32246 -0.38861,0.35553 c 0,0 -0.0248,0.48782 -0.0992,0.56224 -0.0744,0.0744 -0.22738,0.20808 -0.22738,0.20808 z"
         style="fill:#ffffff;fill-opacity:1;fill-rule:nonzero;stroke:#000000;stroke-width:0.127;stroke-linecap:butt;stroke-linejoin:miter;stroke-miterlimit:4;stroke-opacity:1"
         inkscape:connector-curvature="0" />
      <path
         id="path5739"
         d="M 106.51615,147.4353"
         style="fill:#ffffff;fill-opacity:1;fill-rule:nonzero;stroke:#000000;stroke-width:0.127;stroke-linecap:butt;stroke-linejoin:miter;stroke-miterlimit:4;stroke-opacity:1"
         inkscape:connector-curvature="0" />
      <path
         id="path10283"
         d="m 106.03935,146.53268 c 0,0 0.339,-0.42719 0.6463,-0.52503 0.30455,-0.0992 0.56086,-0.28112 0.56086,-0.28112 0,0 -0.30592,0.26458 -0.49609,0.32935 -0.18879,0.0675 -0.66559,0.50436 -0.66559,0.50436 z"
         style="fill:#ffffff;fill-opacity:1;fill-rule:nonzero;stroke:#000000;stroke-width:0.127;stroke-linecap:butt;stroke-linejoin:miter;stroke-miterlimit:4;stroke-opacity:1"
         inkscape:connector-curvature="0" />
      <path
         id="path5741"
         d="M 106.03935,146.53268"
         style="fill:#ffffff;fill-opacity:1;fill-rule:nonzero;stroke:#000000;stroke-width:0.127;stroke-linecap:butt;stroke-linejoin:miter;stroke-miterlimit:4;stroke-opacity:1"
         inkscape:connector-curvature="0" />
      <path
         id="path5743"
         d="m 105.97458,146.50375 c 0,0 0.0992,-0.19569 -0.0717,-0.20534"
         style="fill:none;stroke:#000000;stroke-width:0.127;stroke-linecap:butt;stroke-linejoin:miter;stroke-miterlimit:4;stroke-opacity:1"
         inkscape:connector-curvature="0" />
      <path
         id="path5745"
         d="m 105.64799,146.60296 c -0.0358,-0.0372 -0.11851,-0.0138 -0.18466,0.051 -0.0648,0.0648 -0.0882,0.14883 -0.051,0.18466 0.0372,0.0372 0.11989,0.0152 0.18466,-0.0496 0.0661,-0.0661 0.0882,-0.14883 0.051,-0.18604"
         style="fill:#000000;fill-opacity:1;fill-rule:nonzero;stroke:none;stroke-width:0.35277775"
         inkscape:connector-curvature="0" />
      <path
         id="path5747"
         d="m 106.02006,146.60296 c -0.0372,0.0372 -0.0138,0.11989 0.0524,0.18604 0.0648,0.0648 0.14745,0.0868 0.18466,0.0496 0.0358,-0.0358 0.0138,-0.11851 -0.051,-0.18466 -0.0661,-0.0648 -0.14883,-0.0882 -0.18603,-0.051"
         style="fill:#000000;fill-opacity:1;fill-rule:nonzero;stroke:none;stroke-width:0.35277775"
         inkscape:connector-curvature="0" />
      <path
         id="path10273"
         d="m 105.54739,146.96263 c 0,0 0.16123,-0.0854 0.28525,-0.0841 0.1447,0.004 0.28801,0.0841 0.28801,0.0841"
         style="fill:none;stroke:#000000;stroke-width:0.127;stroke-linecap:butt;stroke-linejoin:miter;stroke-miterlimit:4;stroke-opacity:1"
         inkscape:connector-curvature="0" />
      <path
         id="path10271"
         d="m 104.99893,147.99478 h 0.49885 l 0.11162,0.11024 h 0.46302 l 0.1254,-0.1254 h 0.46854"
         style="fill:none;stroke:#000000;stroke-width:0.127;stroke-linecap:butt;stroke-linejoin:miter;stroke-miterlimit:4;stroke-opacity:1"
         inkscape:connector-curvature="0" />
      <path
         id="path10269"
         d="m 105.05405,150.71916 0.77446,-0.38585 0.7841,0.38723"
         style="fill:none;stroke:#000000;stroke-width:0.127;stroke-linecap:butt;stroke-linejoin:miter;stroke-miterlimit:4;stroke-opacity:1"
         inkscape:connector-curvature="0" />
      <path
         id="path5749"
         d="m 105.82713,150.33331 v -2.22829"
         style="fill:none;stroke:#000000;stroke-width:0.127;stroke-linecap:butt;stroke-linejoin:miter;stroke-miterlimit:4;stroke-opacity:1"
         inkscape:connector-curvature="0" />
    </g>
  </g>
</svg>
