<?xml version="1.0" encoding="UTF-8" standalone="no"?>
<!-- Created with Inkscape (http://www.inkscape.org/) -->

<svg
   xmlns:dc="http://purl.org/dc/elements/1.1/"
   xmlns:cc="http://creativecommons.org/ns#"
   xmlns:rdf="http://www.w3.org/1999/02/22-rdf-syntax-ns#"
   xmlns:svg="http://www.w3.org/2000/svg"
   xmlns="http://www.w3.org/2000/svg"
   xmlns:sodipodi="http://sodipodi.sourceforge.net/DTD/sodipodi-0.dtd"
   xmlns:inkscape="http://www.inkscape.org/namespaces/inkscape"
   width="6.0109mm"
   height="6.0109mm"
   viewBox="0 0 6.0109001 6.0109"
   version="1.1"
   id="svg14238"
   inkscape:version="0.92.2 (5c3e80d, 2017-08-06)"
   sodipodi:docname="10.2.33.svg">
  <defs
     id="defs14232" />
  <sodipodi:namedview
     id="base"
     pagecolor="#ffffff"
     bordercolor="#666666"
     borderopacity="1.0"
     inkscape:pageopacity="0.0"
     inkscape:pageshadow="2"
     inkscape:zoom="9.2215229"
     inkscape:cx="21.736194"
     inkscape:cy="10.157148"
     inkscape:document-units="mm"
     inkscape:current-layer="layer1"
     showgrid="false"
     inkscape:window-width="1920"
     inkscape:window-height="1018"
     inkscape:window-x="-8"
     inkscape:window-y="-8"
     inkscape:window-maximized="1" />
  <metadata
     id="metadata14235">
    <rdf:RDF>
      <cc:Work
         rdf:about="">
        <dc:format>image/svg+xml</dc:format>
        <dc:type
           rdf:resource="http://purl.org/dc/dcmitype/StillImage" />
        <dc:title></dc:title>
      </cc:Work>
    </rdf:RDF>
  </metadata>
  <g
     inkscape:label="Layer 1"
     inkscape:groupmode="layer"
     id="layer1"
     transform="translate(-103.71896,-145.83391)">
    <path
       inkscape:connector-curvature="0"
       style="fill:#000000;fill-opacity:1;fill-rule:nonzero;stroke:#000000;stroke-width:0.127;stroke-linecap:butt;stroke-linejoin:miter;stroke-miterlimit:4;stroke-opacity:1"
       d="m 108.38292,145.89735 c 0,0 -0.83647,0.87506 -0.96739,1.17134 -0.12953,0.29765 -0.22324,1.22921 -0.48231,1.47036 -0.26183,0.24254 -1.08038,0.57602 -1.30225,0.78135 -0.22462,0.20395 -0.84335,0.88746 -0.94946,1.19063 -0.0923,0.25907 0.61184,-1.07901 1.48828,-1.09692 0.44648,-0.01 0.65043,0.22324 0.68764,0.44648 0.0372,0.22187 0.14607,1.01286 -0.0744,1.86035 -0.0551,0.21222 0.28664,-0.18741 0.35278,-0.40927 0.13091,-0.42857 0.0896,-1.29674 0.15021,-1.41387 0.0551,-0.11162 0.39136,0.0551 0.44648,0.12954 0.0551,0.0744 0.72898,0.95084 0.85577,1.24574 0.0275,0.0661 0.0551,-0.37069 0,-0.57602 -0.0565,-0.20395 -0.52228,-0.85576 -0.74415,-1.28295 -0.22462,-0.42857 -0.33624,-0.74414 -0.26045,-1.0983 0.0744,-0.35278 0.59394,-1.35737 0.79927,-1.56269 0.20533,-0.20395 0.37207,-0.33487 0.39136,-0.44649 0.0165,-0.11162 -0.26045,-0.35416 -0.39136,-0.40928 z"
       id="path12596" />
    <path
       inkscape:connector-curvature="0"
       style="fill:#000000;fill-opacity:1;fill-rule:nonzero;stroke:#000000;stroke-width:0.127;stroke-linecap:butt;stroke-linejoin:miter;stroke-miterlimit:4;stroke-opacity:1"
       d="M 108.38292,145.89735"
       id="path5931" />
  </g>
</svg>
