<?xml version="1.0" encoding="UTF-8" standalone="no"?>
<!-- Created with Inkscape (http://www.inkscape.org/) -->

<svg
   xmlns:dc="http://purl.org/dc/elements/1.1/"
   xmlns:cc="http://creativecommons.org/ns#"
   xmlns:rdf="http://www.w3.org/1999/02/22-rdf-syntax-ns#"
   xmlns:svg="http://www.w3.org/2000/svg"
   xmlns="http://www.w3.org/2000/svg"
   xmlns:sodipodi="http://sodipodi.sourceforge.net/DTD/sodipodi-0.dtd"
   xmlns:inkscape="http://www.inkscape.org/namespaces/inkscape"
   width="6.2859001mm"
   height="6.2859001mm"
   viewBox="0 0 6.2859001 6.2859001"
   version="1.1"
   id="svg13966"
   inkscape:version="0.92.2 (5c3e80d, 2017-08-06)"
   sodipodi:docname="10.2.27.svg">
  <defs
     id="defs13960" />
  <sodipodi:namedview
     id="base"
     pagecolor="#ffffff"
     bordercolor="#666666"
     borderopacity="1.0"
     inkscape:pageopacity="0.0"
     inkscape:pageshadow="2"
     inkscape:zoom="12.470693"
     inkscape:cx="17.90839"
     inkscape:cy="5.1625269"
     inkscape:document-units="mm"
     inkscape:current-layer="layer1"
     showgrid="false"
     inkscape:window-width="1920"
     inkscape:window-height="1018"
     inkscape:window-x="-8"
     inkscape:window-y="-8"
     inkscape:window-maximized="1" />
  <metadata
     id="metadata13963">
    <rdf:RDF>
      <cc:Work
         rdf:about="">
        <dc:format>image/svg+xml</dc:format>
        <dc:type
           rdf:resource="http://purl.org/dc/dcmitype/StillImage" />
        <dc:title></dc:title>
      </cc:Work>
    </rdf:RDF>
  </metadata>
  <g
     inkscape:label="Layer 1"
     inkscape:groupmode="layer"
     id="layer1"
     transform="translate(6.9536889,-145.69041)">
    <path
       inkscape:connector-curvature="0"
       style="fill:#ffffff;fill-opacity:1;fill-rule:nonzero;stroke:#000000;stroke-width:0.127;stroke-linecap:butt;stroke-linejoin:miter;stroke-miterlimit:4;stroke-opacity:1"
       d="m -3.676358,149.63579 c 0.1061085,0.1695 0.4864488,0.23289 0.6545685,0.21222 0.1694992,-0.022 0.4216789,0.14745 0.4216789,0.14745 0,0 -0.3789574,0.27423 -0.5691293,0.48507 -0.1901685,0.21084 -0.3389948,0.71658 -0.3389948,0.84336 0,0.12816 0.8447371,0.69729 1.0349053,0.57051 0.1901685,-0.12678 -0.6752379,-0.63252 -0.6752379,-0.63252 0,0 0.2328863,-0.33762 0.4216789,-0.54846 0.1915478,-0.21222 0.8020191,-0.31695 0.8447368,-0.65457 0.042718,-0.339 -1.2457464,-0.99219 -1.2457464,-0.99219 0,0 0.14883,-0.27423 0.1901685,-0.65456 0.042721,-0.38034 -0.1901685,-0.77997 -0.1901685,-0.77997 0,0 0.4506172,0.16812 0.5773986,0.12677 0.1267775,-0.0427 0.8447368,-1.09829 0.6959105,-1.18235 -0.1474507,-0.0841 -0.724849,0.75379 -0.8309575,0.75379 -0.1047327,0 -0.5677535,-0.35416 -0.5677535,-0.35416 0,0 0,-0.35829 0,-0.56913 0,-0.21084 -0.2976562,-0.62287 -0.5705086,-0.65319 h -0.020673 c -0.2728525,0.0303 -0.5705087,0.44235 -0.5705087,0.65319 0,0.21084 0,0.56913 0,0.56913 0,0 -0.4630209,0.35416 -0.56775,0.35416 -0.1061085,0 -0.5911779,-0.71245 -0.7386284,-0.62701 -0.1474506,0.0841 0.4850694,1.01286 0.6104713,1.05557 0.1281571,0.0413 0.5705052,-0.12677 0.5705052,-0.12677 0,0 -0.2328863,0.39963 -0.1901684,0.77997 0.042721,0.38033 0.1901684,0.65456 0.1901684,0.65456 0,0 -1.2884644,0.65319 -1.2457465,0.99219 0.042721,0.33762 0.6531927,0.44235 0.8447404,0.65457 0.1901684,0.21084 0.4216789,0.54846 0.4216789,0.54846 0,0 -0.8654098,0.50574 -0.6752379,0.63252 0.1901684,0.12678 1.0349054,-0.44235 1.0349054,-0.57051 0,-0.12678 -0.1488299,-0.63252 -0.3389983,-0.84336 -0.188789,-0.21084 -0.5691294,-0.48507 -0.5691294,-0.48507 0,0 0.2521797,-0.1695 0.4216789,-0.14745 0.1694991,0.0207 0.5484601,-0.0427 0.6545686,-0.21222 z"
       id="path12524" />
    <path
       inkscape:connector-curvature="0"
       style="fill:#ffffff;fill-opacity:1;fill-rule:nonzero;stroke:#000000;stroke-width:0.127;stroke-linecap:butt;stroke-linejoin:miter;stroke-miterlimit:4;stroke-opacity:1"
       d="M -3.676358,149.63579"
       id="path5897" />
  </g>
</svg>
