<?xml version="1.0" encoding="UTF-8" standalone="no"?>
<!-- Created with Inkscape (http://www.inkscape.org/) -->

<svg
   xmlns:dc="http://purl.org/dc/elements/1.1/"
   xmlns:cc="http://creativecommons.org/ns#"
   xmlns:rdf="http://www.w3.org/1999/02/22-rdf-syntax-ns#"
   xmlns:svg="http://www.w3.org/2000/svg"
   xmlns="http://www.w3.org/2000/svg"
   xmlns:sodipodi="http://sodipodi.sourceforge.net/DTD/sodipodi-0.dtd"
   xmlns:inkscape="http://www.inkscape.org/namespaces/inkscape"
   width="6.8113999mm"
   height="6.8113999mm"
   viewBox="0 0 6.8113999 6.8113999"
   version="1.1"
   id="svg14098"
   inkscape:version="0.92.2 (5c3e80d, 2017-08-06)"
   sodipodi:docname="10.2.30.svg">
  <defs
     id="defs14092" />
  <sodipodi:namedview
     id="base"
     pagecolor="#ffffff"
     bordercolor="#666666"
     borderopacity="1.0"
     inkscape:pageopacity="0.0"
     inkscape:pageshadow="2"
     inkscape:zoom="13.135486"
     inkscape:cx="27.495203"
     inkscape:cy="5.2944222"
     inkscape:document-units="mm"
     inkscape:current-layer="layer1"
     showgrid="false"
     inkscape:window-width="1920"
     inkscape:window-height="1018"
     inkscape:window-x="-8"
     inkscape:window-y="-8"
     inkscape:window-maximized="1" />
  <metadata
     id="metadata14095">
    <rdf:RDF>
      <cc:Work
         rdf:about="">
        <dc:format>image/svg+xml</dc:format>
        <dc:type
           rdf:resource="http://purl.org/dc/dcmitype/StillImage" />
        <dc:title></dc:title>
      </cc:Work>
    </rdf:RDF>
  </metadata>
  <g
     inkscape:label="Layer 1"
     inkscape:groupmode="layer"
     id="layer1"
     transform="translate(8.3193905,-144.99939)">
    <g
       id="g14128"
       transform="translate(0,-0.42178438)">
      <path
         id="path5913"
         d="m -4.6381584,146.83057 c -0.079929,-0.0234 -0.2232449,-0.0469 -0.3500226,-0.007 -0.1281571,0.0413 -0.1750095,0.10473 -0.1832788,0.17501"
         style="fill:#ffffff;fill-opacity:1;fill-rule:nonzero;stroke:#000000;stroke-width:0.127;stroke-linecap:butt;stroke-linejoin:miter;stroke-miterlimit:4;stroke-opacity:1"
         inkscape:connector-curvature="0" />
      <path
         id="path5915"
         d="m -6.2008546,147.3873 c -0.110243,-0.0317 -0.3720712,-0.0703 -0.4988489,-0.0138 -0.1267813,0.0565 -0.2232448,0.2701 -0.2232448,0.39688"
         style="fill:#ffffff;fill-opacity:1;fill-rule:nonzero;stroke:#000000;stroke-width:0.127;stroke-linecap:butt;stroke-linejoin:miter;stroke-miterlimit:4;stroke-opacity:1"
         inkscape:connector-curvature="0" />
      <path
         id="path12560"
         d="m -1.7718391,145.92382 c -0.1460746,-0.0317 -0.4768038,0.17639 -0.6201198,0.17639 -0.1433158,0 -0.1350468,-0.113 -0.3031665,0 -0.1667441,0.11024 -0.00688,-0.22324 -0.3252189,-0.0165 -0.3197048,0.20671 -0.7496527,0.38999 -1.1244792,0.56638 -0.3734469,0.17363 -1.3132681,0.41203 -1.7349469,0.59669 -0.4216823,0.18328 -1.1630659,0.49334 -1.6481354,1.0101 -0.4850694,0.51814 -0.931552,1.1796 -0.6283854,2.01469 0.3017908,0.83647 1.0032118,1.40974 1.9981545,1.46623 0.9949462,0.0551 1.7280606,-0.14331 1.7280606,-0.2632 0,-0.11989 -0.3114357,-0.2632 -0.9949426,-0.2632 -0.6848862,0 -1.8479487,-0.28664 -1.9912647,-0.60496 -0.1433159,-0.31971 0.6132266,-1.63298 0.9797839,-1.66467 0.3651814,-0.0317 0.7234695,0.0758 1.0018325,-0.0634 0.033055,-0.0152 0.088194,-0.0717 0.088194,-0.0717 l 0.00825,0.40514 0.2315104,0.20808 0.3982543,0.0165 0.1984429,0.11024 -0.1116225,-0.1819 0.2949012,0.0234 -0.1984375,-0.0951 0.2783628,-0.0165 -0.2466694,-0.0648 0.2700972,-0.0703 -0.581533,-0.0234 v -0.39825 c 0,0 0.4313275,-0.10473 0.5898023,-0.27147 0.1584711,-0.16674 0.6283854,-0.59669 0.8364678,-0.64492 0.067525,-0.0152 0.1874131,0.01 0.2218655,0.0951 0.078546,0.1943 0.062011,0.54846 0.1832785,0.59669 0.1750097,0.073 0.5181425,0.0648 0.5181425,0.0648 l -0.1515851,-0.12816 0.2866319,0.04 -0.1750094,-0.0951 0.2618245,0.0165 -0.2149721,-0.0717 0.1832784,-0.0551 -0.4616413,-0.01 -0.016544,-0.25493 c 0,0 -0.015169,-0.39688 -0.133671,-0.52504 -0.119888,-0.12678 0.4285721,-0.25356 0.3817197,-0.46991 -0.048233,-0.21497 0.2080813,-0.0634 0.2948964,-0.32659 0.086819,-0.26183 0.5732639,-0.27837 0.5649984,-0.40515 -0.00825,-0.12815 0.095084,-0.14331 0.055121,-0.23151 -0.038587,-0.0882 -0.1185122,-0.10335 -0.1915478,-0.11988 z"
         style="fill:#ffffff;fill-opacity:1;fill-rule:nonzero;stroke:#000000;stroke-width:0.127;stroke-linecap:butt;stroke-linejoin:miter;stroke-miterlimit:4;stroke-opacity:1"
         inkscape:connector-curvature="0" />
      <path
         id="path5917"
         d="M -1.7718391,145.92382"
         style="fill:#ffffff;fill-opacity:1;fill-rule:nonzero;stroke:#000000;stroke-width:0.127;stroke-linecap:butt;stroke-linejoin:miter;stroke-miterlimit:4;stroke-opacity:1"
         inkscape:connector-curvature="0" />
      <path
         id="path12568"
         d="m -4.8049023,148.71986 -0.00826,-0.2949 c 0,0 -0.2783628,-0.43822 -0.6848827,-0.39826 -0.4051442,0.04 -0.6118508,0.19844 -0.6683482,0.36657"
         style="fill:none;stroke:#000000;stroke-width:0.127;stroke-linecap:butt;stroke-linejoin:miter;stroke-miterlimit:4;stroke-opacity:1"
         inkscape:connector-curvature="0" />
      <path
         id="path12566"
         d="m -2.8935489,147.4562 c -0.1364263,-0.19155 -0.2783628,-0.41755 -0.4354618,-0.41617 -0.1419365,0.003 -0.3458845,0.11162 -0.3527777,0.26045"
         style="fill:none;stroke:#000000;stroke-width:0.127;stroke-linecap:butt;stroke-linejoin:miter;stroke-miterlimit:4;stroke-opacity:1"
         inkscape:connector-curvature="0" />
      <path
         id="path12564"
         d="m -1.6188642,146.18289 -0.1763887,0.0358 -0.143316,0.13642 h -0.1750095 l -0.1667438,0.19017 -0.4464828,-0.0152 -0.1584748,0.21498"
         style="fill:none;stroke:#000000;stroke-width:0.127;stroke-linecap:butt;stroke-linejoin:miter;stroke-miterlimit:4;stroke-opacity:1"
         inkscape:connector-curvature="0" />
      <path
         id="path5919"
         d="m -7.0621156,150.87372 c -0.3706919,-0.15021 -1.2140495,-0.74276 -1.1933802,-1.14653"
         style="fill:none;stroke:#000000;stroke-width:0.127;stroke-linecap:butt;stroke-linejoin:miter;stroke-miterlimit:4;stroke-opacity:1"
         inkscape:connector-curvature="0" />
    </g>
  </g>
</svg>
