<?xml version="1.0"?>
<!-- Converted with SVG Converter - Version 0.9.5 (Compiled Fri Feb 21 09:53:38 2020) - Copyright (C) 2011 Nokia -->
<svg xmlns="http://www.w3.org/2000/svg" xml:space="preserve" width="57.6" viewBox="0 -57.6 57.6 57.6" x="0px" y="0px" height="57.6" xmlns:xlink="http://www.w3.org/1999/xlink" version="1.1" baseProfile="tiny">
 <g>
  <rect style="fill:none;" width="57.6" x="0" y="-57.6" height="57.6"/>
  <ellipse cx="55.759" rx="0.789" ry="0.751" style="fill:none;stroke:#000000;stroke-width:0.4;" cy="-6.927"/>
  <path style="fill:none;stroke:#000000;stroke-width:0.4;" d="M55.758-6.927"/>
  <ellipse cx="34.175" rx="1.052" ry="0.714" style="fill:none;stroke:#000000;stroke-width:0.4;" cy="-48.779"/>
  <path style="fill:none;stroke:#000000;stroke-width:0.4;" d="M34.175-48.779"/>
  <ellipse cx="22.008" rx="1.052" ry="0.714" style="fill:none;stroke:#000000;stroke-width:0.4;" cy="-15.097"/>
  <path style="fill:none;stroke:#000000;stroke-width:0.4;" d="M22.008-15.097"/>
  <ellipse cx="20.425" rx="1.052" ry="0.714" style="fill:none;stroke:#000000;stroke-width:0.4;" cy="-38.342"/>
  <path style="fill:none;stroke:#000000;stroke-width:0.4;" d="M20.425-38.342"/>
  <ellipse cx="36.675" rx="1.052" ry="0.714" style="fill:none;stroke:#000000;stroke-width:0.4;" cy="-34.847"/>
  <path style="fill:none;stroke:#000000;stroke-width:0.4;" d="M36.675-34.847"/>
  <ellipse cx="6.873" rx="1.052" ry="0.714" style="fill:none;stroke:#000000;stroke-width:0.4;" cy="-42.967"/>
  <path style="fill:none;stroke:#000000;stroke-width:0.4;" d="M6.873-42.967"/>
  <ellipse cx="10.735" rx="1.052" ry="0.826" style="fill:none;stroke:#000000;stroke-width:0.4;" cy="-21.651"/>
  <path style="fill:none;stroke:#000000;stroke-width:0.4;" d="M10.735-21.651"/>
  <ellipse cx="14.995" rx="0.577" ry="0.793" style="fill:none;stroke:#000000;stroke-width:0.4;" cy="-47.381"/>
  <path style="fill:none;stroke:#000000;stroke-width:0.4;" d="M14.995-47.381"/>
  <ellipse cx="25.098" rx="0.511" ry="0.702" style="fill:none;stroke:#000000;stroke-width:0.4;" transform="matrix(0.0318 -0.9995 0.9995 0.0318 48.357 1.7816)" cy="-24.07"/>
  <ellipse cx="47.992" rx="0.511" ry="0.702" style="fill:none;stroke:#000000;stroke-width:0.4;" transform="matrix(0.0318 -0.9995 0.9995 0.0318 53.4456 41.2057)" cy="-6.984"/>
  <ellipse cx="49.859" rx="0.511" ry="0.702" style="fill:none;stroke:#000000;stroke-width:0.4;" transform="matrix(0.0318 -0.9995 0.9995 0.0318 64.0426 34.5578)" cy="-15.778"/>
  <ellipse cx="32.107" rx="0.826" ry="0.939" style="fill:none;stroke:#000000;stroke-width:0.4;" cy="-14.689"/>
  <path style="fill:none;stroke:#000000;stroke-width:0.4;" d="M32.107-14.689"/>
  <ellipse cx="13.747" rx="0.71" ry="0.744" style="fill:none;stroke:#000000;stroke-width:0.4;" cy="-11.889"/>
  <path style="fill:none;stroke:#000000;stroke-width:0.4;" d="M13.747-11.889"/>
  <ellipse cx="10.818" rx="1.153" ry="0.756" style="fill:none;stroke:#000000;stroke-width:0.4;" cy="-1.547"/>
  <path style="fill:none;stroke:#000000;stroke-width:0.4;" d="M10.818-1.547"/>
  <ellipse cx="44.131" rx="0.826" ry="1.127" style="fill:none;stroke:#000000;stroke-width:0.4;" transform="matrix(0.2548 -0.967 0.967 0.2548 85.1997 2.3603)" cy="-54.1"/>
  <ellipse cx="49.436" rx="0.992" ry="0.727" style="fill:none;stroke:#000000;stroke-width:0.4;" transform="matrix(0.9979 -0.0644 0.0644 0.9979 2.3592 3.1117)" cy="-35.031"/>
  <ellipse cx="26.573" rx="0.992" ry="0.727" style="fill:none;stroke:#000000;stroke-width:0.4;" transform="matrix(0.1873 -0.9823 0.9823 0.1873 76.7089 -19.4942)" cy="-56.108"/>
  <path style="fill:none;stroke:#000000;stroke-width:0.4;" d="M29.508-39.217c-0.544,0.302-1.165,0.224-1.386-0.175    c-0.222-0.399,0.04-0.967,0.584-1.27c0.544-0.302,0.929,0.051,1.151,0.45C30.079-39.813,30.053-39.519,29.508-39.217z"/>
  <ellipse cx="5.842" rx="0.821" ry="0.698" style="fill:none;stroke:#000000;stroke-width:0.4;" cy="-51.082"/>
  <ellipse cx="56.104" rx="0.821" ry="0.698" style="fill:none;stroke:#000000;stroke-width:0.4;" cy="-49.967"/>
  <ellipse cx="49.175" rx="0.821" ry="0.698" style="fill:none;stroke:#000000;stroke-width:0.4;" cy="-46.79"/>
  <path style="fill:none;stroke:#000000;stroke-width:0.4;" d="M12.358-33.631c0.418-0.043,0.589-0.502,0.567-0.711    c-0.022-0.209-0.256-0.401-0.674-0.358c-0.418,0.043-0.74,0.247-0.719,0.456C11.554-34.034,11.94-33.588,12.358-33.631z"/>
  <ellipse cx="25.195" rx="0.904" ry="0.452" style="fill:none;stroke:#000000;stroke-width:0.4;" transform="matrix(0.1609 -0.987 0.987 0.1609 68.9734 -15.7984)" cy="-48.464"/>
  <line style="fill:none;stroke:#000000;stroke-width:0.8;stroke-linecap:round;" x2="49.05" x1="49.05" y2="-54.55" y1="-54.55"/>
  <line style="fill:none;stroke:#000000;stroke-width:0.8;stroke-linecap:round;" x2="46.675" x1="46.675" y2="-52.384" y1="-52.384"/>
  <line style="fill:none;stroke:#000000;stroke-width:0.8;stroke-linecap:round;" x2="52.425" x1="52.425" y2="-55.925" y1="-55.925"/>
  <line style="fill:none;stroke:#000000;stroke-width:0.8;stroke-linecap:round;" x2="56.3" x1="56.3" y2="-55.425" y1="-55.425"/>
  <line style="fill:none;stroke:#000000;stroke-width:0.8;stroke-linecap:round;" x2="52.425" x1="52.425" y2="-51.175" y1="-51.175"/>
  <line style="fill:none;stroke:#000000;stroke-width:0.8;stroke-linecap:round;" x2="45.05" x1="45.05" y2="-47.8" y1="-47.8"/>
  <line style="fill:none;stroke:#000000;stroke-width:0.8;stroke-linecap:round;" x2="45.55" x1="45.55" y2="-42.175" y1="-42.175"/>
  <line style="fill:none;stroke:#000000;stroke-width:0.8;stroke-linecap:round;" x2="54.113" x1="54.113" y2="-44.613" y1="-44.613"/>
  <line style="fill:none;stroke:#000000;stroke-width:0.8;stroke-linecap:round;" x2="49.008" x1="49.008" y2="-41.134" y1="-41.134"/>
  <line style="fill:none;stroke:#000000;stroke-width:0.8;stroke-linecap:round;" x2="54.925" x1="54.925" y2="-35.3" y1="-35.3"/>
  <line style="fill:none;stroke:#000000;stroke-width:0.8;stroke-linecap:round;" x2="54.925" x1="54.925" y2="-31.217" y1="-31.217"/>
  <line style="fill:none;stroke:#000000;stroke-width:0.8;stroke-linecap:round;" x2="49.592" x1="49.592" y2="-30.217" y1="-30.217"/>
  <line style="fill:none;stroke:#000000;stroke-width:0.8;stroke-linecap:round;" x2="51.05" x1="51.05" y2="-24.3" y1="-24.3"/>
  <line style="fill:none;stroke:#000000;stroke-width:0.8;stroke-linecap:round;" x2="52.425" x1="52.425" y2="-19.55" y1="-19.55"/>
  <line style="fill:none;stroke:#000000;stroke-width:0.8;stroke-linecap:round;" x2="55.925" x1="55.925" y2="-14.509" y1="-14.509"/>
  <line style="fill:none;stroke:#000000;stroke-width:0.8;stroke-linecap:round;" x2="44.925" x1="44.925" y2="-14.55" y1="-14.55"/>
  <line style="fill:none;stroke:#000000;stroke-width:0.8;stroke-linecap:round;" x2="48.05" x1="48.05" y2="-11.175" y1="-11.175"/>
  <line style="fill:none;stroke:#000000;stroke-width:0.8;stroke-linecap:round;" x2="44.508" x1="44.508" y2="-8.717" y1="-8.717"/>
  <line style="fill:none;stroke:#000000;stroke-width:0.8;stroke-linecap:round;" x2="42.508" x1="42.508" y2="-5.3" y1="-5.3"/>
  <line style="fill:none;stroke:#000000;stroke-width:0.8;stroke-linecap:round;" x2="31.925" x1="31.925" y2="-8.3" y1="-8.3"/>
  <line style="fill:none;stroke:#000000;stroke-width:0.8;stroke-linecap:round;" x2="36.592" x1="36.592" y2="-1.634" y1="-1.634"/>
  <line style="fill:none;stroke:#000000;stroke-width:0.8;stroke-linecap:round;" x2="23.092" x1="23.092" y2="-2.134" y1="-2.134"/>
  <line style="fill:none;stroke:#000000;stroke-width:0.8;stroke-linecap:round;" x2="20.842" x1="20.842" y2="-6.05" y1="-6.05"/>
  <line style="fill:none;stroke:#000000;stroke-width:0.8;stroke-linecap:round;" x2="21.508" x1="21.508" y2="-9.717" y1="-9.717"/>
  <line style="fill:none;stroke:#000000;stroke-width:0.8;stroke-linecap:round;" x2="27.592" x1="27.592" y2="-9.634" y1="-9.634"/>
  <line style="fill:none;stroke:#000000;stroke-width:0.8;stroke-linecap:round;" x2="26.592" x1="26.592" y2="-6.134" y1="-6.134"/>
  <line style="fill:none;stroke:#000000;stroke-width:0.8;stroke-linecap:round;" x2="29.508" x1="29.508" y2="-5.717" y1="-5.717"/>
  <line style="fill:none;stroke:#000000;stroke-width:0.8;stroke-linecap:round;" x2="31.508" x1="31.508" y2="-1.8" y1="-1.8"/>
  <line style="fill:none;stroke:#000000;stroke-width:0.8;stroke-linecap:round;" x2="18.008" x1="18.008" y2="-13.55" y1="-13.55"/>
  <line style="fill:none;stroke:#000000;stroke-width:0.8;stroke-linecap:round;" x2="14.675" x1="14.675" y2="-6.134" y1="-6.134"/>
  <line style="fill:none;stroke:#000000;stroke-width:0.8;stroke-linecap:round;" x2="14.175" x1="14.175" y2="-2.217" y1="-2.217"/>
  <line style="fill:none;stroke:#000000;stroke-width:0.8;stroke-linecap:round;" x2="9.592" x1="9.592" y2="-4.134" y1="-4.134"/>
  <line style="fill:none;stroke:#000000;stroke-width:0.8;stroke-linecap:round;" x2="11.092" x1="11.092" y2="-8.634" y1="-8.634"/>
  <line style="fill:none;stroke:#000000;stroke-width:0.8;stroke-linecap:round;" x2="3.009" x1="3.009" y2="-1.717" y1="-1.717"/>
  <line style="fill:none;stroke:#000000;stroke-width:0.8;stroke-linecap:round;" x2="6.175" x1="6.175" y2="-4.3" y1="-4.3"/>
  <line style="fill:none;stroke:#000000;stroke-width:0.8;stroke-linecap:round;" x2="2.592" x1="2.592" y2="-8.05" y1="-8.05"/>
  <line style="fill:none;stroke:#000000;stroke-width:0.8;stroke-linecap:round;" x2="5.925" x1="5.925" y2="-0.8" y1="-0.8"/>
  <line style="fill:none;stroke:#000000;stroke-width:0.8;stroke-linecap:round;" x2="13.092" x1="13.092" y2="-18.634" y1="-18.634"/>
  <line style="fill:none;stroke:#000000;stroke-width:0.8;stroke-linecap:round;" x2="7.092" x1="7.092" y2="-21.217" y1="-21.217"/>
  <line style="fill:none;stroke:#000000;stroke-width:0.8;stroke-linecap:round;" x2="2.509" x1="2.509" y2="-20.217" y1="-20.217"/>
  <line style="fill:none;stroke:#000000;stroke-width:0.8;stroke-linecap:round;" x2="0.425" x1="0.425" y2="-11.217" y1="-11.217"/>
  <line style="fill:none;stroke:#000000;stroke-width:0.8;stroke-linecap:round;" x2="12.009" x1="12.009" y2="-15.8" y1="-15.8"/>
  <line style="fill:none;stroke:#000000;stroke-width:0.8;stroke-linecap:round;" x2="7.842" x1="7.842" y2="-16.217" y1="-16.217"/>
  <line style="fill:none;stroke:#000000;stroke-width:0.8;stroke-linecap:round;" x2="3.592" x1="3.592" y2="-15.217" y1="-15.217"/>
  <line style="fill:none;stroke:#000000;stroke-width:0.8;stroke-linecap:round;" x2="17.592" x1="17.592" y2="-18.3" y1="-18.3"/>
  <line style="fill:none;stroke:#000000;stroke-width:0.8;stroke-linecap:round;" x2="27.092" x1="27.092" y2="-14.3" y1="-14.3"/>
  <line style="fill:none;stroke:#000000;stroke-width:0.8;stroke-linecap:round;" x2="45.758" x1="45.758" y2="-2.217" y1="-2.217"/>
  <line style="fill:none;stroke:#000000;stroke-width:0.8;stroke-linecap:round;" x2="51.592" x1="51.592" y2="-4.717" y1="-4.717"/>
  <line style="fill:none;stroke:#000000;stroke-width:0.8;stroke-linecap:round;" x2="56.842" x1="56.842" y2="-1.3" y1="-1.3"/>
  <line style="fill:none;stroke:#000000;stroke-width:0.8;stroke-linecap:round;" x2="57.092" x1="57.092" y2="-4.634" y1="-4.634"/>
  <line style="fill:none;stroke:#000000;stroke-width:0.8;stroke-linecap:round;" x2="52.008" x1="52.008" y2="-0.967" y1="-0.967"/>
  <line style="fill:none;stroke:#000000;stroke-width:0.8;stroke-linecap:round;" x2="52.925" x1="52.925" y2="-11.05" y1="-11.05"/>
  <line style="fill:none;stroke:#000000;stroke-width:0.8;stroke-linecap:round;" x2="40.8" x1="40.8" y2="-10.675" y1="-10.675"/>
  <line style="fill:none;stroke:#000000;stroke-width:0.8;stroke-linecap:round;" x2="35.925" x1="35.925" y2="-11.3" y1="-11.3"/>
  <line style="fill:none;stroke:#000000;stroke-width:0.8;stroke-linecap:round;" x2="34.05" x1="34.05" y2="-17.175" y1="-17.175"/>
  <line style="fill:none;stroke:#000000;stroke-width:0.8;stroke-linecap:round;" x2="37.675" x1="37.675" y2="-15.05" y1="-15.05"/>
  <line style="fill:none;stroke:#000000;stroke-width:0.8;stroke-linecap:round;" x2="33.05" x1="33.05" y2="-21.425" y1="-21.425"/>
  <line style="fill:none;stroke:#000000;stroke-width:0.8;stroke-linecap:round;" x2="30.05" x1="30.05" y2="-19.8" y1="-19.8"/>
  <line style="fill:none;stroke:#000000;stroke-width:0.8;stroke-linecap:round;" x2="25.592" x1="25.592" y2="-19.05" y1="-19.05"/>
  <line style="fill:none;stroke:#000000;stroke-width:0.8;stroke-linecap:round;" x2="19.925" x1="19.925" y2="-21.8" y1="-21.8"/>
  <line style="fill:none;stroke:#000000;stroke-width:0.8;stroke-linecap:round;" x2="15.05" x1="15.05" y2="-24.55" y1="-24.55"/>
  <line style="fill:none;stroke:#000000;stroke-width:0.8;stroke-linecap:round;" x2="1.55" x1="1.55" y2="-39.55" y1="-39.55"/>
  <line style="fill:none;stroke:#000000;stroke-width:0.8;stroke-linecap:round;" x2="44.508" x1="44.508" y2="-36.634" y1="-36.634"/>
  <line style="fill:none;stroke:#000000;stroke-width:0.8;stroke-linecap:round;" x2="45.675" x1="45.675" y2="-30.217" y1="-30.217"/>
  <line style="fill:none;stroke:#000000;stroke-width:0.8;stroke-linecap:round;" x2="41.592" x1="41.592" y2="-47.384" y1="-47.384"/>
  <line style="fill:none;stroke:#000000;stroke-width:0.8;stroke-linecap:round;" x2="38.05" x1="38.05" y2="-45.675" y1="-45.675"/>
  <line style="fill:none;stroke:#000000;stroke-linecap:round;stroke-miterlimit:1.41;" x2="7.618" x1="7.618" y2="-46.3" y1="-46.3"/>
  <line style="fill:none;stroke:#000000;stroke-linecap:round;stroke-miterlimit:1.41;" x2="7.618" x1="7.509" y2="-46.3" y1="-46.3"/>
  <line style="fill:none;stroke:#000000;stroke-linecap:round;stroke-miterlimit:1.41;" x2="36.618" x1="36.618" y2="-24.134" y1="-24.134"/>
  <line style="fill:none;stroke:#000000;stroke-linecap:round;stroke-miterlimit:1.41;" x2="36.618" x1="36.508" y2="-24.134" y1="-24.134"/>
  <line style="fill:none;stroke:#000000;stroke-linecap:round;stroke-miterlimit:1.41;" x2="46.618" x1="46.618" y2="-25.134" y1="-25.134"/>
  <line style="fill:none;stroke:#000000;stroke-linecap:round;stroke-miterlimit:1.41;" x2="46.618" x1="46.508" y2="-25.134" y1="-25.134"/>
  <ellipse cx="56.425" rx="0.902" ry="0.639" style="fill:none;stroke:#000000;stroke-width:0.4;" cy="-21.814"/>
  <ellipse cx="42.092" rx="0.902" ry="0.639" style="fill:none;stroke:#000000;stroke-width:0.4;" cy="-18.356"/>
  <path style="fill:none;stroke:#000000;stroke-width:0.4;" d="M37.675-4.8c0.498,0,0.651-0.286,0.651-0.639    c0-0.353-0.154-0.639-0.651-0.639c-0.498,0-0.902,0.286-0.902,0.639C36.774-5.086,37.177-4.8,37.675-4.8z"/>
  <path style="fill:none;stroke:#000000;stroke-width:0.4;" d="M5.631-9.782c0.492-0.075,0.848-0.419,0.794-0.768    c-0.054-0.349-0.496-0.57-0.988-0.495c-0.492,0.075-0.607,0.438-0.554,0.787C4.937-9.909,5.139-9.707,5.631-9.782z"/>
  <path style="fill:none;stroke:#000000;stroke-width:0.4;" d="M1.131-32.324c0.492-0.076,0.848-0.419,0.794-0.768    c-0.053-0.349-0.496-0.57-0.988-0.495C0.445-33.511,0.33-33.148,0.384-32.8C0.437-32.451,0.639-32.249,1.131-32.324z"/>
  <path style="fill:none;stroke:#000000;stroke-width:0.4;" d="M54.228-40.256c0.488,0.098,0.94-0.103,1.01-0.448    c0.069-0.346-0.27-0.706-0.758-0.804c-0.488-0.098-0.721,0.203-0.79,0.549C53.62-40.613,53.74-40.354,54.228-40.256z"/>
  <path style="fill:none;stroke:#000000;stroke-width:0.4;" d="M41.756-41.449c0.492-0.076,0.848-0.419,0.794-0.768    c-0.054-0.349-0.496-0.57-0.988-0.495c-0.492,0.076-0.607,0.438-0.554,0.787C41.062-41.576,41.264-41.374,41.756-41.449z"/>
  <path style="fill:none;stroke:#000000;stroke-width:0.4;" d="M25.131-30.324c0.492-0.075,0.848-0.419,0.794-0.768    c-0.053-0.349-0.496-0.57-0.988-0.495c-0.492,0.075-0.607,0.438-0.554,0.787C24.437-30.451,24.639-30.249,25.131-30.324z"/>
  <line style="fill:none;stroke:#000000;stroke-width:0.8;stroke-linecap:round;" x2="40.175" x1="40.175" y2="-52.05" y1="-52.05"/>
  <line style="fill:none;stroke:#000000;stroke-width:0.8;stroke-linecap:round;" x2="36.675" x1="36.675" y2="-52.55" y1="-52.55"/>
  <line style="fill:none;stroke:#000000;stroke-width:0.8;stroke-linecap:round;" x2="30.592" x1="30.592" y2="-53.217" y1="-53.217"/>
  <line style="fill:none;stroke:#000000;stroke-width:0.8;stroke-linecap:round;" x2="23.342" x1="23.342" y2="-52.55" y1="-52.55"/>
  <line style="fill:none;stroke:#000000;stroke-width:0.8;stroke-linecap:round;" x2="19.008" x1="19.008" y2="-55.217" y1="-55.217"/>
  <line style="fill:none;stroke:#000000;stroke-width:0.8;stroke-linecap:round;" x2="17.175" x1="17.175" y2="-52.217" y1="-52.217"/>
  <line style="fill:none;stroke:#000000;stroke-width:0.8;stroke-linecap:round;" x2="13.342" x1="13.342" y2="-52.717" y1="-52.717"/>
  <line style="fill:none;stroke:#000000;stroke-width:0.8;stroke-linecap:round;" x2="9.592" x1="9.592" y2="-48.634" y1="-48.634"/>
  <line style="fill:none;stroke:#000000;stroke-width:0.8;stroke-linecap:round;" x2="2.675" x1="2.675" y2="-48.717" y1="-48.717"/>
  <line style="fill:none;stroke:#000000;stroke-width:0.8;stroke-linecap:round;" x2="2.092" x1="2.092" y2="-53.634" y1="-53.634"/>
  <line style="fill:none;stroke:#000000;stroke-width:0.8;stroke-linecap:round;" x2="3.092" x1="3.092" y2="-44.717" y1="-44.717"/>
  <line style="fill:none;stroke:#000000;stroke-width:0.8;stroke-linecap:round;" x2="12.009" x1="12.009" y2="-43.3" y1="-43.3"/>
  <line style="fill:none;stroke:#000000;stroke-width:0.8;stroke-linecap:round;" x2="8.092" x1="8.092" y2="-35.134" y1="-35.134"/>
  <line style="fill:none;stroke:#000000;stroke-width:0.8;stroke-linecap:round;" x2="3.092" x1="3.092" y2="-36.217" y1="-36.217"/>
  <line style="fill:none;stroke:#000000;stroke-width:0.8;stroke-linecap:round;" x2="15.509" x1="15.509" y2="-42.634" y1="-42.634"/>
  <line style="fill:none;stroke:#000000;stroke-width:0.8;stroke-linecap:round;" x2="17.092" x1="17.092" y2="-36.217" y1="-36.217"/>
  <line style="fill:none;stroke:#000000;stroke-width:0.8;stroke-linecap:round;" x2="19.092" x1="19.092" y2="-31.134" y1="-31.134"/>
  <line style="fill:none;stroke:#000000;stroke-width:0.8;stroke-linecap:round;" x2="16.092" x1="16.092" y2="-32.134" y1="-32.134"/>
  <line style="fill:none;stroke:#000000;stroke-width:0.8;stroke-linecap:round;" x2="22.258" x1="22.258" y2="-33.967" y1="-33.967"/>
  <line style="fill:none;stroke:#000000;stroke-width:0.8;stroke-linecap:round;" x2="12.592" x1="12.592" y2="-37.634" y1="-37.634"/>
  <line style="fill:none;stroke:#000000;stroke-width:0.8;stroke-linecap:round;" x2="10.592" x1="10.592" y2="-31.217" y1="-31.217"/>
  <line style="fill:none;stroke:#000000;stroke-width:0.8;stroke-linecap:round;" x2="11.592" x1="11.592" y2="-26.05" y1="-26.05"/>
  <line style="fill:none;stroke:#000000;stroke-width:0.8;stroke-linecap:round;" x2="4.592" x1="4.592" y2="-25.05" y1="-25.05"/>
  <line style="fill:none;stroke:#000000;stroke-width:0.8;stroke-linecap:round;" x2="17.592" x1="17.592" y2="-27.467" y1="-27.467"/>
  <line style="fill:none;stroke:#000000;stroke-width:0.8;stroke-linecap:round;" x2="5.092" x1="5.092" y2="-31.634" y1="-31.634"/>
  <line style="fill:none;stroke:#000000;stroke-width:0.8;stroke-linecap:round;" x2="7.175" x1="7.175" y2="-28.717" y1="-28.717"/>
  <line style="fill:none;stroke:#000000;stroke-width:0.8;stroke-linecap:round;" x2="0.425" x1="0.425" y2="-29.05" y1="-29.05"/>
  <line style="fill:none;stroke:#000000;stroke-width:0.8;stroke-linecap:round;" x2="8.509" x1="8.509" y2="-55.217" y1="-55.217"/>
  <line style="fill:none;stroke:#000000;stroke-width:0.8;stroke-linecap:round;" x2="20.008" x1="20.008" y2="-49.05" y1="-49.05"/>
  <line style="fill:none;stroke:#000000;stroke-width:0.8;stroke-linecap:round;" x2="29.842" x1="29.842" y2="-49.217" y1="-49.217"/>
  <line style="fill:none;stroke:#000000;stroke-width:0.8;stroke-linecap:round;" x2="31.508" x1="31.508" y2="-44.217" y1="-44.217"/>
  <line style="fill:none;stroke:#000000;stroke-width:0.8;stroke-linecap:round;" x2="35.008" x1="35.008" y2="-40.134" y1="-40.134"/>
  <line style="fill:none;stroke:#000000;stroke-width:0.8;stroke-linecap:round;" x2="32.592" x1="32.592" y2="-37.134" y1="-37.134"/>
  <line style="fill:none;stroke:#000000;stroke-width:0.8;stroke-linecap:round;" x2="39.008" x1="39.008" y2="-37.634" y1="-37.634"/>
  <line style="fill:none;stroke:#000000;stroke-width:0.8;stroke-linecap:round;" x2="42.508" x1="42.508" y2="-33.717" y1="-33.717"/>
  <line style="fill:none;stroke:#000000;stroke-width:0.8;stroke-linecap:round;" x2="27.258" x1="27.258" y2="-44.05" y1="-44.05"/>
  <line style="fill:none;stroke:#000000;stroke-width:0.8;stroke-linecap:round;" x2="25.092" x1="25.092" y2="-37.134" y1="-37.134"/>
  <line style="fill:none;stroke:#000000;stroke-width:0.8;stroke-linecap:round;" x2="28.508" x1="28.508" y2="-33.634" y1="-33.634"/>
  <line style="fill:none;stroke:#000000;stroke-width:0.8;stroke-linecap:round;" x2="33.008" x1="33.008" y2="-31.05" y1="-31.05"/>
  <line style="fill:none;stroke:#000000;stroke-width:0.8;stroke-linecap:round;" x2="23.008" x1="23.008" y2="-28.634" y1="-28.634"/>
  <line style="fill:none;stroke:#000000;stroke-width:0.8;stroke-linecap:round;" x2="22.092" x1="22.092" y2="-26.134" y1="-26.134"/>
  <line style="fill:none;stroke:#000000;stroke-width:0.8;stroke-linecap:round;" x2="28.592" x1="28.592" y2="-27.217" y1="-27.217"/>
  <line style="fill:none;stroke:#000000;stroke-width:0.8;stroke-linecap:round;" x2="31.092" x1="31.092" y2="-26.217" y1="-26.217"/>
  <line style="fill:none;stroke:#000000;stroke-width:0.8;stroke-linecap:round;" x2="36.508" x1="36.508" y2="-28.134" y1="-28.134"/>
  <line style="fill:none;stroke:#000000;stroke-width:0.8;stroke-linecap:round;" x2="40.008" x1="40.008" y2="-25.134" y1="-25.134"/>
  <line style="fill:none;stroke:#000000;stroke-width:0.8;stroke-linecap:round;" x2="42.508" x1="42.508" y2="-22.3" y1="-22.3"/>
  <line style="fill:none;stroke:#000000;stroke-width:0.8;stroke-linecap:round;" x2="46.675" x1="46.675" y2="-20.175" y1="-20.175"/>
  <line style="fill:none;stroke:#000000;stroke-width:0.8;stroke-linecap:round;" x2="38.092" x1="38.092" y2="-20.3" y1="-20.3"/>
  <line style="fill:none;stroke:#000000;stroke-width:0.8;stroke-linecap:round;" x2="43.175" x1="43.175" y2="-26.05" y1="-26.05"/>
  <line style="fill:none;stroke:#000000;stroke-width:0.8;stroke-linecap:round;" x2="56.175" x1="56.175" y2="-25.55" y1="-25.55"/>
  <line style="fill:none;stroke:#000000;stroke-width:0.8;stroke-linecap:round;" x2="39.425" x1="39.425" y2="-31.217" y1="-31.217"/>
  <line style="fill:none;stroke:#000000;stroke-width:0.8;stroke-linecap:round;" x2="22.592" x1="22.592" y2="-42.8" y1="-42.8"/>
  <line style="fill:none;stroke:#000000;stroke-width:0.8;stroke-linecap:round;" x2="20.092" x1="20.092" y2="-44.717" y1="-44.717"/>
  <line style="fill:none;stroke:#000000;stroke-width:0.8;stroke-linecap:round;" x2="33.508" x1="33.508" y2="-56.717" y1="-56.717"/>
 </g>
</svg>
