<?xml version="1.0"?>
<!-- Converted with SVG Converter - Version 0.9.5 (Compiled Fri Feb 21 09:53:38 2020) - Copyright (C) 2011 Nokia -->
<svg xmlns="http://www.w3.org/2000/svg" width="57.6" height="57.601" xmlns:xlink="http://www.w3.org/1999/xlink" version="1.1" baseProfile="tiny" x="0px" xml:space="preserve" viewBox="2.575 -60.254 57.6 57.601" y="0px">
 <g>
  <rect width="57.6" height="57.601" x="2.575" y="-60.254" style="fill:none;"/>
  <rect width="57.6" height="57.601" x="2.575" y="-60.254"/>
  <ellipse cx="58.333" rx="0.789" cy="-9.58" ry="0.751" style="fill:none;stroke:#FFFFFF;stroke-width:0.5;"/>
  <path d="M58.333-9.58" style="fill:none;stroke:#FFFFFF;stroke-width:0.5;"/>
  <ellipse cx="36.75" rx="1.052" cy="-51.433" ry="0.714" style="fill:none;stroke:#FFFFFF;stroke-width:0.5;"/>
  <path d="M36.75-51.433" style="fill:none;stroke:#FFFFFF;stroke-width:0.5;"/>
  <ellipse cx="24.583" rx="1.052" cy="-17.751" ry="0.714" style="fill:none;stroke:#FFFFFF;stroke-width:0.5;"/>
  <path d="M24.583-17.75" style="fill:none;stroke:#FFFFFF;stroke-width:0.5;"/>
  <ellipse cx="23" rx="1.052" cy="-40.995" ry="0.714" style="fill:none;stroke:#FFFFFF;stroke-width:0.5;"/>
  <path d="M23-40.995" style="fill:none;stroke:#FFFFFF;stroke-width:0.5;"/>
  <ellipse cx="39.25" rx="1.052" cy="-37.501" ry="0.714" style="fill:none;stroke:#FFFFFF;stroke-width:0.5;"/>
  <path d="M39.25-37.5" style="fill:none;stroke:#FFFFFF;stroke-width:0.5;"/>
  <ellipse cx="9.448" rx="1.052" cy="-45.62" ry="0.714" style="fill:none;stroke:#FFFFFF;stroke-width:0.5;"/>
  <path d="M9.448-45.62" style="fill:none;stroke:#FFFFFF;stroke-width:0.5;"/>
  <ellipse cx="13.31" rx="1.052" cy="-24.304" ry="0.826" style="fill:none;stroke:#FFFFFF;stroke-width:0.5;"/>
  <path d="M13.31-24.304" style="fill:none;stroke:#FFFFFF;stroke-width:0.5;"/>
  <ellipse cx="17.57" rx="0.577" cy="-50.035" ry="0.793" style="fill:none;stroke:#FFFFFF;stroke-width:0.5;"/>
  <path d="M17.57-50.035" style="fill:none;stroke:#FFFFFF;stroke-width:0.5;"/>
  <ellipse cx="27.673" rx="0.511" cy="-26.723" transform="matrix(0.0316 -0.9995 0.9995 0.0316 53.5079 1.7806)" ry="0.703" style="fill:none;stroke:#FFFFFF;stroke-width:0.5;"/>
  <ellipse cx="50.567" rx="0.511" cy="-9.637" transform="matrix(0.0317 -0.9995 0.9995 0.0317 58.5972 41.2091)" ry="0.702" style="fill:none;stroke:#FFFFFF;stroke-width:0.5;"/>
  <ellipse cx="52.434" rx="0.511" cy="-18.431" transform="matrix(0.032 -0.9995 0.9995 0.032 69.1798 34.5648)" ry="0.703" style="fill:none;stroke:#FFFFFF;stroke-width:0.5;"/>
  <ellipse cx="34.682" rx="0.827" cy="-17.342" ry="0.939" style="fill:none;stroke:#FFFFFF;stroke-width:0.5;"/>
  <path d="M34.682-17.342" style="fill:none;stroke:#FFFFFF;stroke-width:0.5;"/>
  <ellipse cx="16.321" rx="0.71" cy="-14.542" ry="0.744" style="fill:none;stroke:#FFFFFF;stroke-width:0.5;"/>
  <path d="M16.321-14.542" style="fill:none;stroke:#FFFFFF;stroke-width:0.5;"/>
  <ellipse cx="13.392" rx="1.154" cy="-4.2" ry="0.756" style="fill:none;stroke:#FFFFFF;stroke-width:0.5;"/>
  <path d="M13.392-4.2" style="fill:none;stroke:#FFFFFF;stroke-width:0.5;"/>
  <ellipse cx="46.706" rx="0.826" cy="-56.753" transform="matrix(0.2547 -0.967 0.967 0.2547 89.6927 2.8667)" ry="1.127" style="fill:none;stroke:#FFFFFF;stroke-width:0.5;"/>
  <ellipse cx="52.01" rx="0.992" cy="-37.684" transform="matrix(0.9979 -0.0644 0.0644 0.9979 2.5362 3.2729)" ry="0.727" style="fill:none;stroke:#FFFFFF;stroke-width:0.5;"/>
  <ellipse cx="29.147" rx="0.992" cy="-58.761" transform="matrix(0.1874 -0.9823 0.9823 0.1874 81.4071 -19.1208)" ry="0.727" style="fill:none;stroke:#FFFFFF;stroke-width:0.5;"/>
  <path d="M32.083-41.87c-0.544,0.302-1.164,0.224-1.386-0.175    c-0.222-0.399,0.039-0.968,0.584-1.27c0.544-0.302,0.929,0.051,1.151,0.45C32.653-42.466,32.627-42.172,32.083-41.87z" style="fill:none;stroke:#FFFFFF;stroke-width:0.5;"/>
  <ellipse cx="8.417" rx="0.821" cy="-53.735" ry="0.698" style="fill:none;stroke:#FFFFFF;stroke-width:0.5;"/>
  <ellipse cx="58.679" rx="0.821" cy="-52.62" ry="0.698" style="fill:none;stroke:#FFFFFF;stroke-width:0.5;"/>
  <ellipse cx="51.75" rx="0.821" cy="-49.443" ry="0.698" style="fill:none;stroke:#FFFFFF;stroke-width:0.5;"/>
  <path d="M14.933-36.284c0.418-0.043,0.588-0.502,0.567-0.711    c-0.021-0.21-0.255-0.401-0.674-0.358c-0.418,0.043-0.74,0.248-0.719,0.457S14.514-36.241,14.933-36.284z" style="fill:none;stroke:#FFFFFF;stroke-width:0.5;"/>
  <ellipse cx="27.77" rx="0.904" cy="-51.118" transform="matrix(0.1609 -0.987 0.987 0.1609 73.7539 -15.4853)" ry="0.452" style="fill:none;stroke:#FFFFFF;stroke-width:0.5;"/>
  <line y1="-57.204" x2="51.625" y2="-57.204" x1="51.625" style="fill:none;stroke:#FFFFFF;stroke-linecap:round;"/>
  <line y1="-55.037" x2="49.25" y2="-55.037" x1="49.25" style="fill:none;stroke:#FFFFFF;stroke-linecap:round;"/>
  <line y1="-58.579" x2="55" y2="-58.579" x1="55" style="fill:none;stroke:#FFFFFF;stroke-linecap:round;"/>
  <line y1="-58.079" x2="58.875" y2="-58.079" x1="58.875" style="fill:none;stroke:#FFFFFF;stroke-linecap:round;"/>
  <line y1="-53.829" x2="55" y2="-53.829" x1="55" style="fill:none;stroke:#FFFFFF;stroke-linecap:round;"/>
  <line y1="-50.454" x2="47.625" y2="-50.454" x1="47.625" style="fill:none;stroke:#FFFFFF;stroke-linecap:round;"/>
  <line y1="-44.829" x2="48.125" y2="-44.829" x1="48.125" style="fill:none;stroke:#FFFFFF;stroke-linecap:round;"/>
  <line y1="-47.266" x2="56.688" y2="-47.266" x1="56.688" style="fill:none;stroke:#FFFFFF;stroke-linecap:round;"/>
  <line y1="-43.787" x2="51.583" y2="-43.787" x1="51.583" style="fill:none;stroke:#FFFFFF;stroke-linecap:round;"/>
  <line y1="-37.954" x2="57.5" y2="-37.954" x1="57.5" style="fill:none;stroke:#FFFFFF;stroke-linecap:round;"/>
  <line y1="-33.87" x2="57.5" y2="-33.87" x1="57.5" style="fill:none;stroke:#FFFFFF;stroke-linecap:round;"/>
  <line y1="-32.87" x2="52.167" y2="-32.87" x1="52.167" style="fill:none;stroke:#FFFFFF;stroke-linecap:round;"/>
  <line y1="-26.954" x2="53.625" y2="-26.954" x1="53.625" style="fill:none;stroke:#FFFFFF;stroke-linecap:round;"/>
  <line y1="-22.204" x2="55" y2="-22.204" x1="55" style="fill:none;stroke:#FFFFFF;stroke-linecap:round;"/>
  <line y1="-17.162" x2="58.5" y2="-17.162" x1="58.5" style="fill:none;stroke:#FFFFFF;stroke-linecap:round;"/>
  <line y1="-17.204" x2="47.5" y2="-17.204" x1="47.5" style="fill:none;stroke:#FFFFFF;stroke-linecap:round;"/>
  <line y1="-13.829" x2="50.625" y2="-13.829" x1="50.625" style="fill:none;stroke:#FFFFFF;stroke-linecap:round;"/>
  <line y1="-11.37" x2="47.083" y2="-11.37" x1="47.083" style="fill:none;stroke:#FFFFFF;stroke-linecap:round;"/>
  <line y1="-7.954" x2="45.083" y2="-7.954" x1="45.083" style="fill:none;stroke:#FFFFFF;stroke-linecap:round;"/>
  <line y1="-10.954" x2="34.5" y2="-10.954" x1="34.5" style="fill:none;stroke:#FFFFFF;stroke-linecap:round;"/>
  <line y1="-4.287" x2="39.167" y2="-4.287" x1="39.167" style="fill:none;stroke:#FFFFFF;stroke-linecap:round;"/>
  <line y1="-4.787" x2="25.667" y2="-4.787" x1="25.667" style="fill:none;stroke:#FFFFFF;stroke-linecap:round;"/>
  <line y1="-8.704" x2="23.417" y2="-8.704" x1="23.417" style="fill:none;stroke:#FFFFFF;stroke-linecap:round;"/>
  <line y1="-12.37" x2="24.083" y2="-12.37" x1="24.083" style="fill:none;stroke:#FFFFFF;stroke-linecap:round;"/>
  <line y1="-12.287" x2="30.167" y2="-12.287" x1="30.167" style="fill:none;stroke:#FFFFFF;stroke-linecap:round;"/>
  <line y1="-8.787" x2="29.167" y2="-8.787" x1="29.167" style="fill:none;stroke:#FFFFFF;stroke-linecap:round;"/>
  <line y1="-8.37" x2="32.083" y2="-8.37" x1="32.083" style="fill:none;stroke:#FFFFFF;stroke-linecap:round;"/>
  <line y1="-4.454" x2="34.083" y2="-4.454" x1="34.083" style="fill:none;stroke:#FFFFFF;stroke-linecap:round;"/>
  <line y1="-16.204" x2="20.583" y2="-16.204" x1="20.583" style="fill:none;stroke:#FFFFFF;stroke-linecap:round;"/>
  <line y1="-8.787" x2="17.25" y2="-8.787" x1="17.25" style="fill:none;stroke:#FFFFFF;stroke-linecap:round;"/>
  <line y1="-4.87" x2="16.75" y2="-4.87" x1="16.75" style="fill:none;stroke:#FFFFFF;stroke-linecap:round;"/>
  <line y1="-6.787" x2="12.167" y2="-6.787" x1="12.167" style="fill:none;stroke:#FFFFFF;stroke-linecap:round;"/>
  <line y1="-11.287" x2="13.667" y2="-11.287" x1="13.667" style="fill:none;stroke:#FFFFFF;stroke-linecap:round;"/>
  <line y1="-4.37" x2="5.583" y2="-4.37" x1="5.583" style="fill:none;stroke:#FFFFFF;stroke-linecap:round;"/>
  <line y1="-6.954" x2="8.75" y2="-6.954" x1="8.75" style="fill:none;stroke:#FFFFFF;stroke-linecap:round;"/>
  <line y1="-10.704" x2="5.167" y2="-10.704" x1="5.167" style="fill:none;stroke:#FFFFFF;stroke-linecap:round;"/>
  <line y1="-3.454" x2="8.5" y2="-3.454" x1="8.5" style="fill:none;stroke:#FFFFFF;stroke-linecap:round;"/>
  <line y1="-21.287" x2="15.667" y2="-21.287" x1="15.667" style="fill:none;stroke:#FFFFFF;stroke-linecap:round;"/>
  <line y1="-23.87" x2="9.667" y2="-23.87" x1="9.667" style="fill:none;stroke:#FFFFFF;stroke-linecap:round;"/>
  <line y1="-22.87" x2="5.083" y2="-22.87" x1="5.083" style="fill:none;stroke:#FFFFFF;stroke-linecap:round;"/>
  <line y1="-13.87" x2="3" y2="-13.87" x1="3" style="fill:none;stroke:#FFFFFF;stroke-linecap:round;"/>
  <line y1="-18.454" x2="14.583" y2="-18.454" x1="14.583" style="fill:none;stroke:#FFFFFF;stroke-linecap:round;"/>
  <line y1="-18.87" x2="10.417" y2="-18.87" x1="10.417" style="fill:none;stroke:#FFFFFF;stroke-linecap:round;"/>
  <line y1="-17.87" x2="6.167" y2="-17.87" x1="6.167" style="fill:none;stroke:#FFFFFF;stroke-linecap:round;"/>
  <line y1="-20.954" x2="20.167" y2="-20.954" x1="20.167" style="fill:none;stroke:#FFFFFF;stroke-linecap:round;"/>
  <line y1="-16.954" x2="29.667" y2="-16.954" x1="29.667" style="fill:none;stroke:#FFFFFF;stroke-linecap:round;"/>
  <line y1="-4.87" x2="48.333" y2="-4.87" x1="48.333" style="fill:none;stroke:#FFFFFF;stroke-linecap:round;"/>
  <line y1="-7.37" x2="54.167" y2="-7.37" x1="54.167" style="fill:none;stroke:#FFFFFF;stroke-linecap:round;"/>
  <line y1="-3.954" x2="59.417" y2="-3.954" x1="59.417" style="fill:none;stroke:#FFFFFF;stroke-linecap:round;"/>
  <line y1="-7.287" x2="59.667" y2="-7.287" x1="59.667" style="fill:none;stroke:#FFFFFF;stroke-linecap:round;"/>
  <line y1="-3.62" x2="54.583" y2="-3.62" x1="54.583" style="fill:none;stroke:#FFFFFF;stroke-linecap:round;"/>
  <line y1="-13.704" x2="55.5" y2="-13.704" x1="55.5" style="fill:none;stroke:#FFFFFF;stroke-linecap:round;"/>
  <line y1="-13.329" x2="43.375" y2="-13.329" x1="43.375" style="fill:none;stroke:#FFFFFF;stroke-linecap:round;"/>
  <line y1="-13.954" x2="38.5" y2="-13.954" x1="38.5" style="fill:none;stroke:#FFFFFF;stroke-linecap:round;"/>
  <line y1="-19.829" x2="36.625" y2="-19.829" x1="36.625" style="fill:none;stroke:#FFFFFF;stroke-linecap:round;"/>
  <line y1="-17.704" x2="40.25" y2="-17.704" x1="40.25" style="fill:none;stroke:#FFFFFF;stroke-linecap:round;"/>
  <line y1="-24.079" x2="35.625" y2="-24.079" x1="35.625" style="fill:none;stroke:#FFFFFF;stroke-linecap:round;"/>
  <line y1="-22.454" x2="32.625" y2="-22.454" x1="32.625" style="fill:none;stroke:#FFFFFF;stroke-linecap:round;"/>
  <line y1="-21.704" x2="28.167" y2="-21.704" x1="28.167" style="fill:none;stroke:#FFFFFF;stroke-linecap:round;"/>
  <line y1="-24.454" x2="22.5" y2="-24.454" x1="22.5" style="fill:none;stroke:#FFFFFF;stroke-linecap:round;"/>
  <line y1="-27.204" x2="17.625" y2="-27.204" x1="17.625" style="fill:none;stroke:#FFFFFF;stroke-linecap:round;"/>
  <line y1="-42.204" x2="4.125" y2="-42.204" x1="4.125" style="fill:none;stroke:#FFFFFF;stroke-linecap:round;"/>
  <line y1="-39.287" x2="47.083" y2="-39.287" x1="47.083" style="fill:none;stroke:#FFFFFF;stroke-linecap:round;"/>
  <line y1="-32.87" x2="48.25" y2="-32.87" x1="48.25" style="fill:none;stroke:#FFFFFF;stroke-linecap:round;"/>
  <line y1="-50.037" x2="44.167" y2="-50.037" x1="44.167" style="fill:none;stroke:#FFFFFF;stroke-linecap:round;"/>
  <line y1="-48.329" x2="40.625" y2="-48.329" x1="40.625" style="fill:none;stroke:#FFFFFF;stroke-linecap:round;"/>
  <line y1="-48.954" x2="10.193" y2="-48.954" x1="10.193" style="fill:none;stroke:#FFFFFF;stroke-width:1.3;stroke-linecap:round;stroke-miterlimit:1.41;"/>
  <line y1="-48.954" x2="10.193" y2="-48.954" x1="10.083" style="fill:none;stroke:#FFFFFF;stroke-width:1.3;stroke-linecap:round;stroke-miterlimit:1.41;"/>
  <line y1="-26.787" x2="39.193" y2="-26.787" x1="39.193" style="fill:none;stroke:#FFFFFF;stroke-width:1.3;stroke-linecap:round;stroke-miterlimit:1.41;"/>
  <line y1="-26.787" x2="39.193" y2="-26.787" x1="39.083" style="fill:none;stroke:#FFFFFF;stroke-width:1.3;stroke-linecap:round;stroke-miterlimit:1.41;"/>
  <line y1="-27.787" x2="49.193" y2="-27.787" x1="49.193" style="fill:none;stroke:#FFFFFF;stroke-width:1.3;stroke-linecap:round;stroke-miterlimit:1.41;"/>
  <line y1="-27.787" x2="49.193" y2="-27.787" x1="49.083" style="fill:none;stroke:#FFFFFF;stroke-width:1.3;stroke-linecap:round;stroke-miterlimit:1.41;"/>
  <ellipse cx="59" rx="0.902" cy="-24.467" ry="0.639" style="fill:none;stroke:#FFFFFF;stroke-width:0.5;"/>
  <ellipse cx="44.667" rx="0.901" cy="-21.009" ry="0.639" style="fill:none;stroke:#FFFFFF;stroke-width:0.5;"/>
  <path d="M40.25-7.454c0.498,0,0.651-0.286,0.651-0.639    c0-0.352-0.154-0.639-0.651-0.639c-0.498,0-0.902,0.286-0.902,0.639C39.348-7.739,39.752-7.454,40.25-7.454z" style="fill:none;stroke:#FFFFFF;stroke-width:0.5;"/>
  <path d="M8.206-12.436C8.698-12.511,9.053-12.855,9-13.204    c-0.054-0.349-0.496-0.57-0.988-0.495c-0.492,0.076-0.607,0.438-0.554,0.787C7.512-12.562,7.713-12.36,8.206-12.436z" style="fill:none;stroke:#FFFFFF;stroke-width:0.5;"/>
  <path d="M3.706-34.978c0.492-0.075,0.848-0.419,0.794-0.768    c-0.054-0.349-0.496-0.57-0.988-0.495c-0.492,0.075-0.607,0.438-0.554,0.787C3.012-35.104,3.213-34.902,3.706-34.978z" style="fill:none;stroke:#FFFFFF;stroke-width:0.5;"/>
  <path d="M56.802-42.909c0.488,0.098,0.94-0.103,1.01-0.448    c0.07-0.346-0.27-0.706-0.758-0.804c-0.488-0.098-0.721,0.203-0.791,0.549C56.194-43.267,56.314-43.007,56.802-42.909z" style="fill:none;stroke:#FFFFFF;stroke-width:0.5;"/>
  <path d="M44.331-44.103c0.492-0.075,0.848-0.419,0.794-0.768    c-0.054-0.349-0.496-0.57-0.988-0.495c-0.492,0.075-0.607,0.438-0.554,0.787C43.637-44.229,43.838-44.027,44.331-44.103z" style="fill:none;stroke:#FFFFFF;stroke-width:0.5;"/>
  <path d="M27.706-32.978c0.492-0.075,0.848-0.419,0.794-0.768    c-0.054-0.349-0.496-0.57-0.988-0.495c-0.492,0.075-0.607,0.438-0.554,0.787C27.012-33.104,27.213-32.902,27.706-32.978z" style="fill:none;stroke:#FFFFFF;stroke-width:0.5;"/>
  <line y1="-54.704" x2="42.75" y2="-54.704" x1="42.75" style="fill:none;stroke:#FFFFFF;stroke-linecap:round;"/>
  <line y1="-55.204" x2="39.25" y2="-55.204" x1="39.25" style="fill:none;stroke:#FFFFFF;stroke-linecap:round;"/>
  <line y1="-55.87" x2="33.167" y2="-55.87" x1="33.167" style="fill:none;stroke:#FFFFFF;stroke-linecap:round;"/>
  <line y1="-55.204" x2="25.917" y2="-55.204" x1="25.917" style="fill:none;stroke:#FFFFFF;stroke-linecap:round;"/>
  <line y1="-57.87" x2="21.583" y2="-57.87" x1="21.583" style="fill:none;stroke:#FFFFFF;stroke-linecap:round;"/>
  <line y1="-54.87" x2="19.75" y2="-54.87" x1="19.75" style="fill:none;stroke:#FFFFFF;stroke-linecap:round;"/>
  <line y1="-55.37" x2="15.917" y2="-55.37" x1="15.917" style="fill:none;stroke:#FFFFFF;stroke-linecap:round;"/>
  <line y1="-51.287" x2="12.167" y2="-51.287" x1="12.167" style="fill:none;stroke:#FFFFFF;stroke-linecap:round;"/>
  <line y1="-51.37" x2="5.25" y2="-51.37" x1="5.25" style="fill:none;stroke:#FFFFFF;stroke-linecap:round;"/>
  <line y1="-56.287" x2="4.667" y2="-56.287" x1="4.667" style="fill:none;stroke:#FFFFFF;stroke-linecap:round;"/>
  <line y1="-47.37" x2="5.667" y2="-47.37" x1="5.667" style="fill:none;stroke:#FFFFFF;stroke-linecap:round;"/>
  <line y1="-45.954" x2="14.583" y2="-45.954" x1="14.583" style="fill:none;stroke:#FFFFFF;stroke-linecap:round;"/>
  <line y1="-37.787" x2="10.667" y2="-37.787" x1="10.667" style="fill:none;stroke:#FFFFFF;stroke-linecap:round;"/>
  <line y1="-38.87" x2="5.667" y2="-38.87" x1="5.667" style="fill:none;stroke:#FFFFFF;stroke-linecap:round;"/>
  <line y1="-45.287" x2="18.083" y2="-45.287" x1="18.083" style="fill:none;stroke:#FFFFFF;stroke-linecap:round;"/>
  <line y1="-38.87" x2="19.667" y2="-38.87" x1="19.667" style="fill:none;stroke:#FFFFFF;stroke-linecap:round;"/>
  <line y1="-33.787" x2="21.667" y2="-33.787" x1="21.667" style="fill:none;stroke:#FFFFFF;stroke-linecap:round;"/>
  <line y1="-34.787" x2="18.667" y2="-34.787" x1="18.667" style="fill:none;stroke:#FFFFFF;stroke-linecap:round;"/>
  <line y1="-36.62" x2="24.833" y2="-36.62" x1="24.833" style="fill:none;stroke:#FFFFFF;stroke-linecap:round;"/>
  <line y1="-40.287" x2="15.167" y2="-40.287" x1="15.167" style="fill:none;stroke:#FFFFFF;stroke-linecap:round;"/>
  <line y1="-33.87" x2="13.167" y2="-33.87" x1="13.167" style="fill:none;stroke:#FFFFFF;stroke-linecap:round;"/>
  <line y1="-28.704" x2="14.167" y2="-28.704" x1="14.167" style="fill:none;stroke:#FFFFFF;stroke-linecap:round;"/>
  <line y1="-27.704" x2="7.167" y2="-27.704" x1="7.167" style="fill:none;stroke:#FFFFFF;stroke-linecap:round;"/>
  <line y1="-30.12" x2="20.167" y2="-30.12" x1="20.167" style="fill:none;stroke:#FFFFFF;stroke-linecap:round;"/>
  <line y1="-34.287" x2="7.667" y2="-34.287" x1="7.667" style="fill:none;stroke:#FFFFFF;stroke-linecap:round;"/>
  <line y1="-31.37" x2="9.75" y2="-31.37" x1="9.75" style="fill:none;stroke:#FFFFFF;stroke-linecap:round;"/>
  <line y1="-31.704" x2="3" y2="-31.704" x1="3" style="fill:none;stroke:#FFFFFF;stroke-linecap:round;"/>
  <line y1="-57.87" x2="11.083" y2="-57.87" x1="11.083" style="fill:#FFFFFF;stroke:#FFFFFF;stroke-linecap:round;"/>
  <line y1="-51.704" x2="22.583" y2="-51.704" x1="22.583" style="fill:none;stroke:#FFFFFF;stroke-linecap:round;"/>
  <line y1="-51.87" x2="32.417" y2="-51.87" x1="32.417" style="fill:none;stroke:#FFFFFF;stroke-linecap:round;"/>
  <line y1="-46.87" x2="34.083" y2="-46.87" x1="34.083" style="fill:none;stroke:#FFFFFF;stroke-linecap:round;"/>
  <line y1="-42.787" x2="37.583" y2="-42.787" x1="37.583" style="fill:none;stroke:#FFFFFF;stroke-linecap:round;"/>
  <line y1="-39.787" x2="35.167" y2="-39.787" x1="35.167" style="fill:none;stroke:#FFFFFF;stroke-linecap:round;"/>
  <line y1="-40.287" x2="41.583" y2="-40.287" x1="41.583" style="fill:none;stroke:#FFFFFF;stroke-linecap:round;"/>
  <line y1="-36.37" x2="45.083" y2="-36.37" x1="45.083" style="fill:none;stroke:#FFFFFF;stroke-linecap:round;"/>
  <line y1="-46.704" x2="29.833" y2="-46.704" x1="29.833" style="fill:none;stroke:#FFFFFF;stroke-linecap:round;"/>
  <line y1="-39.787" x2="27.667" y2="-39.787" x1="27.667" style="fill:none;stroke:#FFFFFF;stroke-linecap:round;"/>
  <line y1="-36.287" x2="31.083" y2="-36.287" x1="31.083" style="fill:none;stroke:#FFFFFF;stroke-linecap:round;"/>
  <line y1="-33.704" x2="35.583" y2="-33.704" x1="35.583" style="fill:none;stroke:#FFFFFF;stroke-linecap:round;"/>
  <line y1="-31.287" x2="25.583" y2="-31.287" x1="25.583" style="fill:none;stroke:#FFFFFF;stroke-linecap:round;"/>
  <line y1="-28.787" x2="24.667" y2="-28.787" x1="24.667" style="fill:none;stroke:#FFFFFF;stroke-linecap:round;"/>
  <line y1="-29.87" x2="31.167" y2="-29.87" x1="31.167" style="fill:none;stroke:#FFFFFF;stroke-linecap:round;"/>
  <line y1="-28.87" x2="33.667" y2="-28.87" x1="33.667" style="fill:none;stroke:#FFFFFF;stroke-linecap:round;"/>
  <line y1="-30.787" x2="39.083" y2="-30.787" x1="39.083" style="fill:none;stroke:#FFFFFF;stroke-linecap:round;"/>
  <line y1="-27.787" x2="42.583" y2="-27.787" x1="42.583" style="fill:none;stroke:#FFFFFF;stroke-linecap:round;"/>
  <line y1="-24.954" x2="45.083" y2="-24.954" x1="45.083" style="fill:none;stroke:#FFFFFF;stroke-linecap:round;"/>
  <line y1="-22.829" x2="49.25" y2="-22.829" x1="49.25" style="fill:none;stroke:#FFFFFF;stroke-linecap:round;"/>
  <line y1="-22.954" x2="40.667" y2="-22.954" x1="40.667" style="fill:none;stroke:#FFFFFF;stroke-linecap:round;"/>
  <line y1="-28.704" x2="45.75" y2="-28.704" x1="45.75" style="fill:none;stroke:#FFFFFF;stroke-linecap:round;"/>
  <line y1="-28.204" x2="58.75" y2="-28.204" x1="58.75" style="fill:none;stroke:#FFFFFF;stroke-linecap:round;"/>
  <line y1="-33.87" x2="42" y2="-33.87" x1="42" style="fill:none;stroke:#FFFFFF;stroke-linecap:round;"/>
  <line y1="-45.454" x2="25.167" y2="-45.454" x1="25.167" style="fill:none;stroke:#FFFFFF;stroke-linecap:round;"/>
  <line y1="-47.37" x2="22.667" y2="-47.37" x1="22.667" style="fill:none;stroke:#FFFFFF;stroke-linecap:round;"/>
  <line y1="-59.37" x2="36.083" y2="-59.37" x1="36.083" style="fill:none;stroke:#FFFFFF;stroke-linecap:round;"/>
 </g>
</svg>
