<?xml version="1.0"?>
<!-- Converted with SVG Converter - Version 0.9.5 (Compiled Fri Feb 21 09:53:38 2020) - Copyright (C) 2011 Nokia -->
<svg xmlns="http://www.w3.org/2000/svg" xmlns:xlink="http://www.w3.org/1999/xlink" viewBox="2 -62.479 60.478 60.479" y="0px" xml:space="preserve" x="0px" baseProfile="tiny" height="60.479" width="60.478" version="1.1">
 <g>
  <rect style="fill:none;" y="-62.479" x="2" height="60.479" width="60.478"/>
  <rect y="-62.479" x="2" height="60.479" width="60.478"/>
  <path style="fill-rule:evenodd;clip-rule:evenodd;fill:none;stroke:#FFFFFF;stroke-width:0.5;" d="M4.886-49.797    c0.428,0.538,1.053,0.754,1.395,0.481c0.341-0.271,0.562-1.11,0.134-1.648c-0.428-0.538-1.343-0.571-1.684-0.299    C4.387-50.99,4.457-50.333,4.886-49.797z"/>
  <ellipse style="fill-rule:evenodd;clip-rule:evenodd;fill:none;stroke:#FFFFFF;stroke-width:0.5;" transform="matrix(0.3453 -0.9385 0.9385 0.3453 74.1339 32.0347)" cx="60.027" rx="1.12" ry="0.712" cy="-37.115"/>
  <ellipse style="fill-rule:evenodd;clip-rule:evenodd;fill:none;stroke:#FFFFFF;stroke-width:0.5;" transform="matrix(0.3455 -0.9384 0.9384 0.3455 49.7113 20.0459)" cx="39.227" rx="1.121" ry="0.713" cy="-25.616"/>
  <path style="fill-rule:evenodd;clip-rule:evenodd;fill:none;stroke:#FFFFFF;stroke-width:0.5;" d="M46.515-30.863    c0.517-0.146,0.299-0.787,0-1.402c-0.3-0.615-0.568-0.971-1.085-0.827c-0.518,0.145-0.694,0.761-0.395,1.376    C45.334-31.102,45.996-30.721,46.515-30.863z"/>
  <ellipse style="fill-rule:evenodd;clip-rule:evenodd;fill:none;stroke:#FFFFFF;stroke-width:0.5;" transform="matrix(0.5237 -0.8519 0.8519 0.5237 62.5415 -2.1909)" cx="29.312" rx="1.244" ry="0.792" cy="-57.024"/>
  <ellipse style="fill-rule:evenodd;clip-rule:evenodd;fill:none;stroke:#FFFFFF;stroke-width:0.5;" transform="matrix(0.5245 -0.8514 0.8514 0.5245 61.5836 28.2244)" cx="56.062" rx="1.245" ry="0.791" cy="-41.024"/>
  <ellipse style="fill-rule:evenodd;clip-rule:evenodd;fill:none;stroke:#FFFFFF;stroke-width:0.5;" transform="matrix(0.7941 -0.6078 0.6078 0.7941 27.1787 -2.6184)" cx="9.725" rx="1.245" ry="0.791" cy="-41.421"/>
  <path style="fill-rule:evenodd;clip-rule:evenodd;fill:none;stroke:#FFFFFF;stroke-width:0.5;" d="M11.178-53.4    c-0.371,0.228-0.781,0.765-0.423,1.352c0.357,0.587,0.951,0.877,1.323,0.649c0.373-0.228,0.459-1.113,0.101-1.7    C11.821-53.686,11.552-53.627,11.178-53.4z"/>
  <ellipse style="fill-rule:evenodd;clip-rule:evenodd;fill:none;stroke:#FFFFFF;stroke-width:0.5;" transform="matrix(0.3774 -0.9261 0.9261 0.3774 23.8131 -7.6145)" cx="6.244" rx="1.245" ry="0.792" cy="-21.516"/>
  <ellipse style="fill-rule:evenodd;clip-rule:evenodd;fill:none;stroke:#FFFFFF;stroke-width:0.5;" transform="matrix(0.6182 -0.786 0.786 0.6182 17.1512 6.1531)" cx="14.909" rx="1.244" ry="0.791" cy="-14.578"/>
  <ellipse style="fill-rule:evenodd;clip-rule:evenodd;fill:none;stroke:#FFFFFF;stroke-width:0.5;" transform="matrix(0.4871 -0.8733 0.8733 0.4871 44.1417 10.2621)" cx="30.808" rx="1.244" ry="0.792" cy="-32.452"/>
  <ellipse style="fill-rule:evenodd;clip-rule:evenodd;fill:none;stroke:#FFFFFF;stroke-width:0.5;" transform="matrix(0.4872 -0.8733 0.8733 0.4872 43.1529 -3.8797)" cx="18.273" rx="1.245" ry="0.792" cy="-38.687"/>
  <ellipse style="fill-rule:evenodd;clip-rule:evenodd;fill:none;stroke:#FFFFFF;stroke-width:0.5;" transform="matrix(0.0124 -0.9999 0.9999 0.0124 46.7957 35.3605)" cx="41.298" rx="1.244" ry="0.793" cy="-6.009"/>
  <ellipse style="fill-rule:evenodd;clip-rule:evenodd;fill:none;stroke:#FFFFFF;stroke-width:0.5;" transform="matrix(0.9506 -0.3104 0.3104 0.9506 14.3104 5.0272)" cx="22.95" rx="0.792" ry="1.244" cy="-42.448"/>
  <path style="fill-rule:evenodd;clip-rule:evenodd;fill:none;stroke:#FFFFFF;stroke-width:0.5;" d="M10.314-58.864    c-0.336-0.601-1.329-0.888-1.713-0.675c-0.382,0.214-0.42,0.873-0.085,1.474c0.334,0.6,0.915,0.914,1.297,0.701    C10.195-57.577,10.648-58.264,10.314-58.864z"/>
  <ellipse style="fill-rule:evenodd;clip-rule:evenodd;fill:none;stroke:#FFFFFF;stroke-width:0.5;" transform="matrix(0.99 -0.1409 0.1409 0.99 7.2095 3.4225)" cx="27.773" rx="0.713" ry="1.12" cy="-49.2"/>
  <ellipse style="fill-rule:evenodd;clip-rule:evenodd;fill:none;stroke:#FFFFFF;stroke-width:0.5;" transform="matrix(0.1965 -0.9805 0.9805 0.1965 100.8341 16.4556)" cx="60.458" rx="1.12" ry="0.713" cy="-53.298"/>
  <ellipse style="fill-rule:evenodd;clip-rule:evenodd;fill:none;stroke:#FFFFFF;stroke-width:0.5;" transform="matrix(0.0031 -1 1 0.0031 38.1427 10.6432)" cx="24.409" rx="1.244" ry="0.792" cy="-13.809"/>
  <ellipse style="fill-rule:evenodd;clip-rule:evenodd;fill:none;stroke:#FFFFFF;stroke-width:0.5;" transform="matrix(0.2527 -0.9676 0.9676 0.2527 42.9134 30.753)" cx="41.365" rx="1.245" ry="0.792" cy="-12.403"/>
  <ellipse style="fill-rule:evenodd;clip-rule:evenodd;fill:none;stroke:#FFFFFF;stroke-width:0.5;" transform="matrix(0.3347 -0.9423 0.9423 0.3347 30.0536 25.0932)" cx="32.797" rx="1.244" ry="0.792" cy="-8.737"/>
  <ellipse style="fill-rule:evenodd;clip-rule:evenodd;fill:none;stroke:#FFFFFF;stroke-width:0.5;" transform="matrix(0.9058 -0.4237 0.4237 0.9058 20.1794 -2.3954)" cx="4.702" rx="0.509" ry="0.713" cy="-46.581"/>
  <ellipse style="fill-rule:evenodd;clip-rule:evenodd;fill:none;stroke:#FFFFFF;stroke-width:0.5;" transform="matrix(0.1513 -0.9885 0.9885 0.1513 11.2599 4.7064)" cx="8.371" rx="0.713" ry="0.51" cy="-4.204"/>
  <ellipse style="fill-rule:evenodd;clip-rule:evenodd;fill:none;stroke:#FFFFFF;stroke-width:0.5;" cx="6.078" rx="0.509" ry="0.712" cy="-15.162"/>
  <ellipse style="fill-rule:evenodd;clip-rule:evenodd;fill:none;stroke:#FFFFFF;stroke-width:0.5;" cx="26.879" rx="0.508" ry="0.713" cy="-44.712"/>
  <ellipse style="fill-rule:evenodd;clip-rule:evenodd;fill:none;stroke:#FFFFFF;stroke-width:0.5;" cx="19.779" rx="0.509" ry="0.713" cy="-60.612"/>
  <ellipse style="fill-rule:evenodd;clip-rule:evenodd;fill:none;stroke:#FFFFFF;stroke-width:0.5;" cx="58.414" rx="0.508" ry="0.712" cy="-24.577"/>
  <ellipse style="fill-rule:evenodd;clip-rule:evenodd;fill:none;stroke:#FFFFFF;stroke-width:0.5;" cx="47.014" rx="0.509" ry="0.713" cy="-27.177"/>
  <ellipse style="fill-rule:evenodd;clip-rule:evenodd;fill:none;stroke:#FFFFFF;stroke-width:0.5;" cx="34.414" rx="0.508" ry="0.712" cy="-4.577"/>
  <ellipse style="fill-rule:evenodd;clip-rule:evenodd;fill:none;stroke:#FFFFFF;stroke-width:0.5;" cx="21.479" rx="0.509" ry="0.712" cy="-35.112"/>
  <ellipse style="fill-rule:evenodd;clip-rule:evenodd;fill:none;stroke:#FFFFFF;stroke-width:0.5;" cx="44.313" rx="0.509" ry="0.713" cy="-38.177"/>
  <ellipse style="fill-rule:evenodd;clip-rule:evenodd;fill:none;stroke:#FFFFFF;stroke-width:0.5;" transform="matrix(0.4814 -0.8765 0.8765 0.4814 53.6447 5.8145)" cx="31.736" rx="0.713" ry="0.509" cy="-42.425"/>
  <ellipse style="fill-rule:evenodd;clip-rule:evenodd;fill:none;stroke:#FFFFFF;stroke-width:0.5;" cx="40.114" rx="0.508" ry="0.713" cy="-33.777"/>
  <ellipse style="fill-rule:evenodd;clip-rule:evenodd;fill:none;stroke:#FFFFFF;stroke-width:0.5;" cx="39.228" rx="0.509" ry="0.713" cy="-57.612"/>
  <ellipse style="fill-rule:evenodd;clip-rule:evenodd;fill:none;stroke:#FFFFFF;stroke-width:0.5;" cx="11.855" rx="0.509" ry="0.712" cy="-24.465"/>
  <ellipse style="fill-rule:evenodd;clip-rule:evenodd;fill:none;stroke:#FFFFFF;stroke-width:0.5;" cx="27.678" rx="0.509" ry="0.713" cy="-28.712"/>
  <ellipse style="fill-rule:evenodd;clip-rule:evenodd;fill:none;stroke:#FFFFFF;stroke-width:0.5;" transform="matrix(0.1919 -0.9814 0.9814 0.1919 50.1102 35.0576)" cx="46.343" rx="0.712" ry="0.509" cy="-12.899"/>
  <ellipse style="fill-rule:evenodd;clip-rule:evenodd;fill:none;stroke:#FFFFFF;stroke-width:0.5;" cx="45.079" rx="0.509" ry="0.712" cy="-44.112"/>
  <ellipse style="fill-rule:evenodd;clip-rule:evenodd;fill:none;stroke:#FFFFFF;stroke-width:0.5;" cx="38.679" rx="0.509" ry="0.712" cy="-45.713"/>
  <ellipse style="fill-rule:evenodd;clip-rule:evenodd;fill:none;stroke:#FFFFFF;stroke-width:0.5;" transform="matrix(0.2067 -0.9784 0.9784 0.2067 73.6833 6.0159)" cx="40.552" rx="0.784" ry="0.56" cy="-42.431"/>
  <ellipse style="fill-rule:evenodd;clip-rule:evenodd;fill:none;stroke:#FFFFFF;stroke-width:0.5;" transform="matrix(0.3451 -0.9386 0.9386 0.3451 92.4772 18.6579)" cx="59.608" rx="0.785" ry="0.56" cy="-56.936"/>
  <ellipse style="fill-rule:evenodd;clip-rule:evenodd;fill:none;stroke:#FFFFFF;stroke-width:0.5;" transform="matrix(0.2079 -0.9781 0.9781 0.2079 75.433 -10.3082)" cx="31.352" rx="0.784" ry="0.559" cy="-51.731"/>
  <ellipse style="fill-rule:evenodd;clip-rule:evenodd;fill:none;stroke:#FFFFFF;stroke-width:0.5;" transform="matrix(0.2079 -0.9781 0.9781 0.2079 61.3097 17.648)" cx="41.551" rx="0.784" ry="0.559" cy="-29.031"/>
  <path style="fill-rule:evenodd;clip-rule:evenodd;fill:none;stroke:#FFFFFF;stroke-width:0.5;" d="M7.827-35.24    c0.42-0.066,0.66-0.478,0.534-0.917c-0.124-0.439-0.565-0.743-0.985-0.676c-0.421,0.066-0.659,0.477-0.535,0.916    C6.966-35.477,7.406-35.174,7.827-35.24z"/>
  <ellipse style="fill-rule:evenodd;clip-rule:evenodd;fill:none;stroke:#FFFFFF;stroke-width:0.5;" transform="matrix(0.4131 -0.9107 0.9107 0.4131 72.2574 9.0286)" cx="43.134" rx="0.712" ry="0.509" cy="-51.549"/>
  <ellipse style="fill-rule:evenodd;clip-rule:evenodd;fill:none;stroke:#FFFFFF;stroke-width:0.5;" cx="14.914" rx="0.508" ry="0.712" cy="-54.877"/>
  <ellipse style="fill-rule:evenodd;clip-rule:evenodd;fill:none;stroke:#FFFFFF;stroke-width:0.5;" cx="50.879" rx="0.508" ry="0.713" cy="-32.712"/>
  <ellipse style="fill-rule:evenodd;clip-rule:evenodd;fill:none;stroke:#FFFFFF;stroke-width:0.5;" cx="60.114" rx="0.509" ry="0.713" cy="-15.177"/>
  <ellipse style="fill-rule:evenodd;clip-rule:evenodd;fill:none;stroke:#FFFFFF;stroke-width:0.5;" cx="34.264" rx="0.509" ry="0.713" cy="-18.427"/>
  <ellipse style="fill-rule:evenodd;clip-rule:evenodd;fill:none;stroke:#FFFFFF;stroke-width:0.5;" transform="matrix(0.1979 -0.9802 0.9802 0.1979 98.5014 4.4534)" cx="51.972" rx="0.713" ry="0.509" cy="-57.963"/>
  <ellipse style="fill-rule:evenodd;clip-rule:evenodd;fill:none;stroke:#FFFFFF;stroke-width:0.5;" transform="matrix(0.1987 -0.9801 0.9801 0.1987 67.5395 6.8144)" cx="37.937" rx="0.712" ry="0.509" cy="-37.898"/>
  <ellipse style="fill-rule:evenodd;clip-rule:evenodd;fill:none;stroke:#FFFFFF;stroke-width:0.5;" cx="30.514" rx="0.509" ry="0.712" cy="-23.227"/>
  <ellipse style="fill-rule:evenodd;clip-rule:evenodd;fill:none;stroke:#FFFFFF;stroke-width:0.5;" cx="8.554" rx="0.509" ry="0.712" cy="-27.765"/>
  <ellipse style="fill-rule:evenodd;clip-rule:evenodd;fill:none;stroke:#FFFFFF;stroke-width:0.5;" cx="19.57" rx="0.509" ry="0.713" cy="-18"/>
  <ellipse style="fill-rule:evenodd;clip-rule:evenodd;fill:none;stroke:#FFFFFF;stroke-width:0.5;" cx="50.014" rx="0.509" ry="0.713" cy="-21.377"/>
  <ellipse style="fill-rule:evenodd;clip-rule:evenodd;fill:none;stroke:#FFFFFF;stroke-width:0.5;" transform="matrix(0.3 -0.9539 0.9539 0.3 65.7889 34.2976)" cx="56.265" rx="0.712" ry="0.509" cy="-27.679"/>
  <ellipse style="fill-rule:evenodd;clip-rule:evenodd;fill:none;stroke:#FFFFFF;stroke-width:0.5;" cx="18.521" rx="0.706" ry="0.99" cy="-44.645"/>
  <ellipse style="fill-rule:evenodd;clip-rule:evenodd;fill:none;stroke:#FFFFFF;stroke-width:0.5;" transform="matrix(0.0145 -0.9999 0.9999 0.0145 86.3395 25.0238)" cx="55.865" rx="0.891" ry="0.636" cy="-31.291"/>
  <path style="fill-rule:evenodd;clip-rule:evenodd;fill:none;stroke:#FFFFFF;stroke-width:0.5;" d="M20.265-7.917    c0.302,0.494,0.846,0.726,1.214,0.517c0.368-0.207,0.421-0.777,0.117-1.271c-0.305-0.494-0.849-0.727-1.215-0.519    C20.012-8.982,19.96-8.412,20.265-7.917z"/>
  <path style="fill-rule:evenodd;clip-rule:evenodd;fill:none;stroke:#FFFFFF;stroke-width:0.5;" d="M36.044-23.047    c-0.139-0.625-0.557-0.999-0.933-0.834c-0.377,0.166-0.57,0.808-0.431,1.434c0.14,0.625,0.557,0.997,0.933,0.832    C35.991-21.78,36.184-22.422,36.044-23.047z"/>
  <path style="fill-rule:evenodd;clip-rule:evenodd;fill:none;stroke:#FFFFFF;stroke-width:0.5;" d="M51.512-27.931    c-0.377,0.165-0.57,0.808-0.431,1.434c0.139,0.626,0.556,0.997,0.932,0.832c0.378-0.165,0.569-0.807,0.432-1.431    C52.306-27.722,51.888-28.096,51.512-27.931z"/>
  <path style="fill-rule:evenodd;clip-rule:evenodd;fill:none;stroke:#FFFFFF;stroke-width:0.5;" d="M59.328-19.012    c0.174,0.557,0.557,0.86,0.852,0.677c0.297-0.182,0.394-0.783,0.221-1.34c-0.175-0.557-0.557-0.861-0.853-0.677    C59.252-20.169,59.154-19.569,59.328-19.012z"/>
  <ellipse style="fill-rule:evenodd;clip-rule:evenodd;fill:none;stroke:#FFFFFF;stroke-width:0.5;" transform="matrix(0.5539 -0.8326 0.8326 0.5539 51.2246 11.6291)" cx="36.465" rx="0.99" ry="0.707" cy="-41.989"/>
  <ellipse style="fill-rule:evenodd;clip-rule:evenodd;fill:none;stroke:#FFFFFF;stroke-width:0.5;" transform="matrix(0.5542 -0.8324 0.8324 0.5542 55.8157 22.4464)" cx="48.865" rx="0.99" ry="0.707" cy="-40.889"/>
  <ellipse style="fill-rule:evenodd;clip-rule:evenodd;fill:none;stroke:#FFFFFF;stroke-width:0.5;" transform="matrix(0.9898 -0.1426 0.1426 0.9898 9.066 6.2813)" cx="48.369" rx="0.707" ry="0.99" cy="-60.129"/>
  <ellipse style="fill-rule:evenodd;clip-rule:evenodd;fill:none;stroke:#FFFFFF;stroke-width:0.5;" transform="matrix(0.5542 -0.8324 0.8324 0.5542 64.4292 28.3301)" cx="58.665" rx="0.99" ry="0.707" cy="-45.989"/>
  <ellipse style="fill-rule:evenodd;clip-rule:evenodd;fill:none;stroke:#FFFFFF;stroke-width:0.5;" transform="matrix(0.5542 -0.8324 0.8324 0.5542 59.6305 15.37)" cx="44.165" rx="0.99" ry="0.707" cy="-47.989"/>
  <ellipse style="fill-rule:evenodd;clip-rule:evenodd;fill:none;stroke:#FFFFFF;stroke-width:0.5;" transform="matrix(0.3729 -0.9279 0.9279 0.3729 73.8477 3.2246)" cx="39.309" rx="0.989" ry="0.707" cy="-53.018"/>
  <ellipse style="fill-rule:evenodd;clip-rule:evenodd;fill:none;stroke:#FFFFFF;stroke-width:0.5;" transform="matrix(0.5542 -0.8324 0.8324 0.5542 64.9307 1.997)" cx="34.33" rx="0.99" ry="0.707" cy="-59.624"/>
  <ellipse style="fill-rule:evenodd;clip-rule:evenodd;fill:none;stroke:#FFFFFF;stroke-width:0.5;" transform="matrix(0.5545 -0.8322 0.8322 0.5545 60.7144 -5.5583)" cx="25.166" rx="0.99" ry="0.707" cy="-59.489"/>
  <ellipse style="fill-rule:evenodd;clip-rule:evenodd;fill:none;stroke:#FFFFFF;stroke-width:0.5;" transform="matrix(0.5542 -0.8324 0.8324 0.5542 53.3853 -22.6686)" cx="5.53" rx="0.99" ry="0.707" cy="-61.174"/>
  <ellipse style="fill-rule:evenodd;clip-rule:evenodd;fill:none;stroke:#FFFFFF;stroke-width:0.5;" cx="32.813" rx="0.707" ry="0.99" cy="-38.655"/>
  <ellipse style="fill-rule:evenodd;clip-rule:evenodd;fill:none;stroke:#FFFFFF;stroke-width:0.5;" cx="18.814" rx="0.707" ry="0.99" cy="-56.854"/>
  <path style="fill-rule:evenodd;clip-rule:evenodd;fill:none;stroke:#FFFFFF;stroke-width:0.5;" d="M15.579-59    c0-0.547-0.31-1.579-0.7-1.579c-0.391,0-0.708,0.443-0.708,0.99c0,0.546,0.317,0.989,0.708,0.989    C15.269-58.6,15.579-58.453,15.579-59z"/>
  <ellipse style="fill-rule:evenodd;clip-rule:evenodd;fill:none;stroke:#FFFFFF;stroke-width:0.5;" cx="55.514" rx="0.707" ry="0.99" cy="-21.355"/>
  <ellipse style="fill-rule:evenodd;clip-rule:evenodd;fill:none;stroke:#FFFFFF;stroke-width:0.5;" cx="55.114" rx="0.708" ry="0.99" cy="-36.655"/>
  <ellipse style="fill-rule:evenodd;clip-rule:evenodd;fill:none;stroke:#FFFFFF;stroke-width:0.5;" cx="26.014" rx="0.708" ry="0.99" cy="-24.555"/>
  <ellipse style="fill-rule:evenodd;clip-rule:evenodd;fill:none;stroke:#FFFFFF;stroke-width:0.5;" transform="matrix(0.1879 -0.9822 0.9822 0.1879 44.9022 37.8309)" cx="45.327" rx="0.99" ry="0.707" cy="-8.237"/>
  <ellipse style="fill-rule:evenodd;clip-rule:evenodd;fill:none;stroke:#FFFFFF;stroke-width:0.5;" cx="21.814" rx="0.707" ry="0.99" cy="-21.855"/>
  <ellipse style="fill-rule:evenodd;clip-rule:evenodd;fill:none;stroke:#FFFFFF;stroke-width:0.5;" transform="matrix(0.396 -0.9183 0.9183 0.396 33.6453 2.1033)" cx="18.421" rx="0.99" ry="0.708" cy="-24.523"/>
  <ellipse style="fill-rule:evenodd;clip-rule:evenodd;fill:none;stroke:#FFFFFF;stroke-width:0.5;" transform="matrix(0.3964 -0.9181 0.9181 0.3964 62.8548 2.1815)" cx="33.086" rx="0.989" ry="0.708" cy="-46.709"/>
  <ellipse style="fill-rule:evenodd;clip-rule:evenodd;fill:none;stroke:#FFFFFF;stroke-width:0.5;" transform="matrix(0.396 -0.9182 0.9182 0.396 54.8273 -27.6615)" cx="6.386" rx="0.99" ry="0.708" cy="-55.509"/>
  <ellipse style="fill-rule:evenodd;clip-rule:evenodd;fill:none;stroke:#FFFFFF;stroke-width:0.5;" cx="35.079" rx="0.708" ry="0.989" cy="-13.79"/>
  <ellipse style="fill-rule:evenodd;clip-rule:evenodd;fill:none;stroke:#FFFFFF;stroke-width:0.5;" transform="matrix(0.2837 -0.9589 0.9589 0.2837 18.0815 15.3772)" cx="19.333" rx="0.99" ry="0.707" cy="-4.414"/>
  <ellipse style="fill-rule:evenodd;clip-rule:evenodd;fill:none;stroke:#FFFFFF;stroke-width:0.5;" cx="56.914" rx="0.708" ry="0.99" cy="-6.405"/>
  <ellipse style="fill-rule:evenodd;clip-rule:evenodd;fill:none;stroke:#FFFFFF;stroke-width:0.5;" transform="matrix(0.5135 -0.8581 0.8581 0.5135 41.6062 37.4251)" cx="53.81" rx="0.912" ry="0.685" cy="-17.982"/>
  <ellipse style="fill-rule:evenodd;clip-rule:evenodd;fill:none;stroke:#FFFFFF;stroke-width:0.5;" transform="matrix(0.5142 -0.8577 0.8577 0.5142 39.4943 25.0333)" cx="41.845" rx="0.913" ry="0.684" cy="-22.346"/>
  <ellipse style="fill-rule:evenodd;clip-rule:evenodd;fill:none;stroke:#FFFFFF;stroke-width:0.5;" transform="matrix(0.0755 -0.9971 0.9971 0.0755 60.0964 57.4737)" cx="61.044" rx="0.912" ry="0.685" cy="-3.674"/>
  <ellipse style="fill-rule:evenodd;clip-rule:evenodd;fill:none;stroke:#FFFFFF;stroke-width:0.5;" transform="matrix(0.5134 -0.8581 0.8581 0.5134 16.0859 8.8073)" cx="15.81" rx="0.911" ry="0.685" cy="-9.781"/>
  <ellipse style="fill-rule:evenodd;clip-rule:evenodd;fill:none;stroke:#FFFFFF;stroke-width:0.5;" transform="matrix(0.5144 -0.8575 0.8575 0.5144 42.3303 6.7595)" cx="27.134" rx="0.739" ry="0.555" cy="-33.998"/>
  <ellipse style="fill-rule:evenodd;clip-rule:evenodd;fill:none;stroke:#FFFFFF;stroke-width:0.5;" transform="matrix(0.514 -0.8578 0.8578 0.514 36.5107 -2.0512)" cx="16.445" rx="0.912" ry="0.685" cy="-33.247"/>
  <ellipse style="fill-rule:evenodd;clip-rule:evenodd;fill:none;stroke:#FFFFFF;stroke-width:0.5;" transform="matrix(0.5135 -0.8581 0.8581 0.5135 52.5422 -5.2854)" cx="21.61" rx="0.912" ry="0.685" cy="-48.982"/>
  <ellipse style="fill-rule:evenodd;clip-rule:evenodd;fill:none;stroke:#FFFFFF;stroke-width:0.5;" transform="matrix(0.5139 -0.8579 0.8579 0.5139 32.8329 -6.6545)" cx="10.545" rx="0.911" ry="0.684" cy="-32.297"/>
  <ellipse style="fill-rule:evenodd;clip-rule:evenodd;fill:none;stroke:#FFFFFF;stroke-width:0.5;" transform="matrix(0.5132 -0.8583 0.8583 0.5132 46.0789 -15.1203)" cx="9.71" rx="0.912" ry="0.685" cy="-48.182"/>
  <ellipse style="fill-rule:evenodd;clip-rule:evenodd;fill:none;stroke:#FFFFFF;stroke-width:0.5;" transform="matrix(0.2418 -0.9703 0.9703 0.2418 36.7064 29.9186)" cx="37.498" rx="0.891" ry="0.636" cy="-8.529"/>
  <ellipse style="fill-rule:evenodd;clip-rule:evenodd;fill:none;stroke:#FFFFFF;stroke-width:0.5;" transform="matrix(0.2416 -0.9704 0.9704 0.2416 12.5507 -1.2688)" cx="5.464" rx="0.891" ry="0.637" cy="-8.664"/>
  <ellipse style="fill-rule:evenodd;clip-rule:evenodd;fill:none;stroke:#FFFFFF;stroke-width:0.5;" transform="matrix(0.9799 -0.1995 0.1995 0.9799 3.3311 11.4749)" cx="58.592" rx="0.636" ry="0.891" cy="-10.788"/>
  <ellipse style="fill-rule:evenodd;clip-rule:evenodd;fill:none;stroke:#FFFFFF;stroke-width:0.5;" transform="matrix(0.3063 -0.9519 0.9519 0.3063 7.3045 0.1396)" cx="3.748" rx="0.891" ry="0.636" cy="-4.942"/>
  <ellipse style="fill-rule:evenodd;clip-rule:evenodd;fill:none;stroke:#FFFFFF;stroke-width:0.5;" transform="matrix(0.2416 -0.9704 0.9704 0.2416 16.056 3.4155)" cx="10.213" rx="0.891" ry="0.637" cy="-8.564"/>
  <ellipse style="fill-rule:evenodd;clip-rule:evenodd;fill:none;stroke:#FFFFFF;stroke-width:0.5;" transform="matrix(0.2409 -0.9706 0.9706 0.2409 41.221 -4.556)" cx="17.698" rx="0.891" ry="0.636" cy="-28.629"/>
  <ellipse style="fill-rule:evenodd;clip-rule:evenodd;fill:none;stroke:#FFFFFF;stroke-width:0.5;" transform="matrix(0.2416 -0.9704 0.9704 0.2416 52.6965 -20.2901)" cx="13.367" rx="0.891" ry="0.637" cy="-43.858"/>
  <ellipse style="fill-rule:evenodd;clip-rule:evenodd;fill:none;stroke:#FFFFFF;stroke-width:0.5;" transform="matrix(0.5566 -0.8308 0.8308 0.5566 35.2309 -13.5004)" cx="4.968" rx="0.89" ry="0.636" cy="-39.755"/>
  <ellipse style="fill-rule:evenodd;clip-rule:evenodd;fill:none;stroke:#FFFFFF;stroke-width:0.5;" transform="matrix(0.0345 -0.9994 0.9994 0.0345 27.9715 21.4425)" cx="25.083" rx="0.891" ry="0.637" cy="-3.755"/>
  <ellipse style="fill-rule:evenodd;clip-rule:evenodd;fill:none;stroke:#FFFFFF;stroke-width:0.5;" transform="matrix(0.9968 -0.0799 0.0799 0.9968 4.0809 2.7774)" cx="36.742" rx="0.572" ry="0.801" cy="-49.599"/>
  <ellipse style="fill-rule:evenodd;clip-rule:evenodd;fill:none;stroke:#FFFFFF;stroke-width:0.5;" transform="matrix(0.4661 -0.8847 0.8847 0.4661 76.8845 5.0654)" cx="42.639" rx="0.801" ry="0.573" cy="-61.174"/>
  <ellipse style="fill-rule:evenodd;clip-rule:evenodd;fill:none;stroke:#FFFFFF;stroke-width:0.5;" transform="matrix(0.2431 -0.97 0.97 0.2431 81.6336 10.9292)" cx="47.82" rx="0.801" ry="0.572" cy="-46.843"/>
  <ellipse style="fill-rule:evenodd;clip-rule:evenodd;fill:none;stroke:#FFFFFF;stroke-width:0.5;" transform="matrix(0.0794 -0.9968 0.9968 0.0794 55.2476 44.6526)" cx="51.8" rx="0.99" ry="0.707" cy="-7.586"/>
  <ellipse style="fill-rule:evenodd;clip-rule:evenodd;fill:none;stroke:#FFFFFF;stroke-width:0.5;" transform="matrix(0.2695 -0.963 0.963 0.2695 27.0336 23.1297)" cx="28.762" rx="0.989" ry="0.707" cy="-6.253"/>
  <path style="fill-rule:evenodd;clip-rule:evenodd;fill:none;stroke:#FFFFFF;stroke-width:0.5;" d="M24.23-37.189    c0,0.547,0.379,0.989,0.848,0.989c0.469,0,0.849-0.442,0.849-0.989c0-0.547-0.78-1.211-1.249-1.211    C24.21-38.4,24.23-37.736,24.23-37.189z"/>
  <path style="fill-rule:evenodd;clip-rule:evenodd;fill:none;stroke:#FFFFFF;stroke-width:0.5;" d="M29.162-40.43    c0-0.547-0.58-1.635-1.049-1.635c-0.469,0-0.648,1.088-0.648,1.635c0,0.547,0.38,0.99,0.847,0.99    C28.781-39.439,29.162-39.883,29.162-40.43z"/>
  <path style="fill-rule:evenodd;clip-rule:evenodd;fill:none;stroke:#FFFFFF;stroke-width:0.5;" d="M57.79-61.328    c-0.499-0.224-1.06-0.06-1.251,0.367c-0.192,0.427,0.055,0.956,0.553,1.181c0.499,0.225,1.729,0.143,1.922-0.284    C59.206-60.491,58.288-61.103,57.79-61.328z"/>
  <ellipse style="fill-rule:evenodd;clip-rule:evenodd;fill:none;stroke:#FFFFFF;stroke-width:0.5;" cx="15.214" rx="0.763" ry="0.891" cy="-5.756"/>
  <ellipse style="fill-rule:evenodd;clip-rule:evenodd;fill:none;stroke:#FFFFFF;stroke-width:0.5;" cx="48.514" rx="0.763" ry="0.892" cy="-36.056"/>
  <ellipse style="fill-rule:evenodd;clip-rule:evenodd;fill:none;stroke:#FFFFFF;stroke-width:0.5;" cx="45.078" rx="0.764" ry="0.891" cy="-57.49"/>
  <ellipse style="fill-rule:evenodd;clip-rule:evenodd;fill:none;stroke:#FFFFFF;stroke-width:0.5;" cx="54.978" rx="0.764" ry="0.891" cy="-55.391"/>
  <ellipse style="fill-rule:evenodd;clip-rule:evenodd;fill:none;stroke:#FFFFFF;stroke-width:0.5;" cx="34.313" rx="0.688" ry="0.802" cy="-55.267"/>
  <ellipse style="fill-rule:evenodd;clip-rule:evenodd;fill:none;stroke:#FFFFFF;stroke-width:0.5;" transform="matrix(0.3743 -0.9273 0.9273 0.3743 25.0408 -1.2682)" cx="11.581" rx="0.891" ry="0.764" cy="-19.19"/>
  <ellipse style="fill-rule:evenodd;clip-rule:evenodd;fill:none;stroke:#FFFFFF;stroke-width:0.5;" transform="matrix(0.6431 -0.7658 0.7658 0.6431 26.4654 0.1354)" cx="13.378" rx="0.99" ry="0.565" cy="-28.323"/>
  <ellipse style="fill-rule:evenodd;clip-rule:evenodd;fill:none;stroke:#FFFFFF;stroke-width:0.5;" transform="matrix(0.2924 -0.9563 0.9563 0.2924 34.3781 -19.6502)" cx="3.911" rx="1.037" ry="0.622" cy="-33.055"/>
  <ellipse style="fill-rule:evenodd;clip-rule:evenodd;fill:none;stroke:#FFFFFF;stroke-width:0.5;" transform="matrix(0.5364 -0.844 0.844 0.5364 69.1761 24.9327)" cx="57.283" rx="0.99" ry="0.565" cy="-50.5"/>
  <ellipse style="fill-rule:evenodd;clip-rule:evenodd;fill:none;stroke:#FFFFFF;stroke-width:0.5;" transform="matrix(0.2265 -0.974 0.974 0.2265 31.1648 0.1146)" cx="15.655" rx="0.99" ry="0.566" cy="-19.564"/>
  <ellipse style="fill-rule:evenodd;clip-rule:evenodd;fill:none;stroke:#FFFFFF;stroke-width:0.5;" transform="matrix(0.2253 -0.9743 0.9743 0.2253 34.9206 17.8583)" cx="28.689" rx="0.99" ry="0.566" cy="-13.029"/>
  <ellipse style="fill-rule:evenodd;clip-rule:evenodd;fill:none;stroke:#FFFFFF;stroke-width:0.5;" transform="matrix(0.2261 -0.9741 0.9741 0.2261 51.8695 31.2302)" cx="45.589" rx="0.99" ry="0.566" cy="-17.029"/>
  <ellipse style="fill-rule:evenodd;clip-rule:evenodd;fill:none;stroke:#FFFFFF;stroke-width:0.5;" transform="matrix(0.2261 -0.9741 0.9741 0.2261 53.4884 43.7678)" cx="54.289" rx="0.99" ry="0.566" cy="-11.779"/>
  <ellipse style="fill-rule:evenodd;clip-rule:evenodd;fill:none;stroke:#FFFFFF;stroke-width:0.5;" transform="matrix(0.2254 -0.9743 0.9743 0.2254 41.8178 45.0711)" cx="49.254" rx="0.99" ry="0.565" cy="-3.764"/>
  <ellipse style="fill-rule:evenodd;clip-rule:evenodd;fill:none;stroke:#FFFFFF;stroke-width:0.5;" transform="matrix(0.4614 -0.8872 0.8872 0.4614 68.9388 22.7729)" cx="53.226" rx="1.272" ry="0.637" cy="-45.394"/>
  <ellipse style="fill-rule:evenodd;clip-rule:evenodd;fill:none;stroke:#FFFFFF;stroke-width:0.5;" transform="matrix(0.4615 -0.8871 0.8871 0.4615 48.4402 14.9684)" cx="36.55" rx="1.145" ry="0.573" cy="-32.416"/>
  <ellipse style="fill-rule:evenodd;clip-rule:evenodd;fill:none;stroke:#FFFFFF;stroke-width:0.5;" transform="matrix(0.4611 -0.8873 0.8873 0.4611 61.4383 -8.465)" cx="23.75" rx="1.146" ry="0.573" cy="-54.816"/>
  <ellipse style="fill-rule:evenodd;clip-rule:evenodd;fill:none;stroke:#FFFFFF;stroke-width:0.5;" transform="matrix(0.461 -0.8874 0.8874 0.461 73.2546 19.1496)" cx="52.391" rx="1.272" ry="0.637" cy="-50.729"/>
  <path style="fill-rule:evenodd;clip-rule:evenodd;fill:none;stroke:#FFFFFF;stroke-width:0.5;" d="M47.039-54.1    c-0.26-0.498-0.852-0.737-1.102-0.607c-0.248,0.131-0.24,0.641,0.02,1.14c0.26,0.499,0.672,0.798,0.921,0.668    C47.992-53.479,47.336-53.529,47.039-54.1z"/>
  <ellipse style="fill-rule:evenodd;clip-rule:evenodd;fill:none;stroke:#FFFFFF;stroke-width:0.5;" transform="matrix(0.185 -0.9827 0.9827 0.185 41.493 9.4401)" cx="26.438" rx="1.272" ry="0.636" cy="-20.297"/>
  <ellipse style="fill-rule:evenodd;clip-rule:evenodd;fill:none;stroke:#FFFFFF;stroke-width:0.5;" transform="matrix(0.4614 -0.8872 0.8872 0.4614 42.4215 14.4235)" cx="33.091" rx="1.272" ry="0.637" cy="-27.729"/>
  <ellipse style="fill-rule:evenodd;clip-rule:evenodd;fill:none;stroke:#FFFFFF;stroke-width:0.5;" transform="matrix(0.0814 -0.9967 0.9967 0.0814 23.4476 -1.197)" cx="11.074" rx="1.272" ry="0.636" cy="-13.319"/>
  <ellipse style="fill-rule:evenodd;clip-rule:evenodd;fill:none;stroke:#FFFFFF;stroke-width:0.5;" transform="matrix(0.3794 -0.9252 0.9252 0.3794 28.3523 -12.9433)" cx="4.528" rx="1.018" ry="0.509" cy="-27.607"/>
  <ellipse style="fill-rule:evenodd;clip-rule:evenodd;fill:none;stroke:#FFFFFF;stroke-width:0.5;" transform="matrix(0.3793 -0.9253 0.9253 0.3793 55.8622 -15.2129)" cx="16.593" rx="1.018" ry="0.51" cy="-49.242"/>
  <ellipse style="fill-rule:evenodd;clip-rule:evenodd;fill:none;stroke:#FFFFFF;stroke-width:0.5;" transform="matrix(0.3785 -0.9256 0.9256 0.3785 49.3382 27.443)" cx="45.104" rx="0.814" ry="0.407" cy="-23.018"/>
  <circle style="fill-rule:evenodd;clip-rule:evenodd;fill:none;stroke:#FFFFFF;stroke-width:0.5;" cx="13.414" r="0.891" cy="-37.956"/>
  <ellipse style="fill-rule:evenodd;clip-rule:evenodd;fill:none;stroke:#FFFFFF;stroke-width:0.5;" transform="matrix(0.3572 -0.934 0.934 0.3572 62.6212 -15.1455)" cx="20.307" rx="0.859" ry="0.515" cy="-53.067"/>
  <ellipse style="fill-rule:evenodd;clip-rule:evenodd;fill:none;stroke:#FFFFFF;stroke-width:0.5;" transform="matrix(0.4605 -0.8877 0.8877 0.4605 23.5049 11.0194)" cx="20.818" rx="0.859" ry="0.515" cy="-13.827"/>
  <ellipse style="fill-rule:evenodd;clip-rule:evenodd;fill:none;stroke:#FFFFFF;stroke-width:0.5;" transform="matrix(0.3579 -0.9337 0.9337 0.3579 44.3288 1.6615)" cx="23.373" rx="0.859" ry="0.516" cy="-31.402"/>
  <ellipse style="fill-rule:evenodd;clip-rule:evenodd;fill:none;stroke:#FFFFFF;stroke-width:0.5;" transform="matrix(0.3574 -0.9339 0.9339 0.3574 18.5074 -8.5062)" cx="3.072" rx="0.859" ry="0.515" cy="-17.702"/>
  <path style="fill-rule:evenodd;clip-rule:evenodd;fill:none;stroke:#FFFFFF;stroke-width:0.5;" d="M29.745-16.267    c0.2,0.335,0.618,0.544,0.933,0.466c0.316-0.076,0.409-0.41,0.209-0.745c-0.201-0.335-0.619-0.545-0.935-0.468    C29.637-16.938,29.545-16.602,29.745-16.267z"/>
  <path style="fill-rule:evenodd;clip-rule:evenodd;fill:none;stroke:#FFFFFF;stroke-width:0.5;" d="M25.878-8.8    c0.316-0.077,0.409-0.411,0.208-0.746c-0.2-0.335-0.618-0.544-0.934-0.467c-0.315,0.076-0.408,0.41-0.207,0.745    C25.146-8.932,25.563-8.723,25.878-8.8z"/>
  <ellipse style="fill-rule:evenodd;clip-rule:evenodd;fill:none;stroke:#FFFFFF;stroke-width:0.5;" transform="matrix(0.4209 -0.9071 0.9071 0.4209 63.196 37.8975)" cx="61.278" rx="0.859" ry="0.515" cy="-30.544"/>
  <ellipse style="fill-rule:evenodd;clip-rule:evenodd;fill:none;stroke:#FFFFFF;stroke-width:0.5;" transform="matrix(0.0739 -0.9973 0.9973 0.0739 62.2345 37.7017)" cx="51.416" rx="0.859" ry="0.515" cy="-14.656"/>
  <ellipse style="fill-rule:evenodd;clip-rule:evenodd;fill:none;stroke:#FFFFFF;stroke-width:0.5;" transform="matrix(0.0734 -0.9973 0.9973 0.0734 52.9116 22.1047)" cx="38.351" rx="0.859" ry="0.516" cy="-17.421"/>
  <circle style="fill-rule:evenodd;clip-rule:evenodd;fill:none;stroke:#FFFFFF;stroke-width:0.5;stroke-linecap:round;stroke-linejoin:round;" cx="49.954" r="0.382" cy="-44.034"/>
  <circle style="fill-rule:evenodd;clip-rule:evenodd;fill:none;stroke:#FFFFFF;stroke-width:0.5;stroke-linecap:round;stroke-linejoin:round;" cx="52.278" r="0.382" cy="-38.782"/>
  <circle style="fill-rule:evenodd;clip-rule:evenodd;fill:none;stroke:#FFFFFF;stroke-width:0.5;stroke-linecap:round;stroke-linejoin:round;" cx="42.614" r="0.382" cy="-35.346"/>
  <circle style="fill-rule:evenodd;clip-rule:evenodd;fill:none;stroke:#FFFFFF;stroke-width:0.5;stroke-linecap:round;stroke-linejoin:round;" cx="57.479" r="0.382" cy="-34.182"/>
  <circle style="fill-rule:evenodd;clip-rule:evenodd;fill:none;stroke:#FFFFFF;stroke-width:0.5;stroke-linecap:round;stroke-linejoin:round;" cx="29.278" r="0.382" cy="-36.781"/>
  <circle style="fill-rule:evenodd;clip-rule:evenodd;fill:none;stroke:#FFFFFF;stroke-width:0.5;stroke-linecap:round;stroke-linejoin:round;" cx="52.428" r="0.382" cy="-29.831"/>
  <circle style="fill-rule:evenodd;clip-rule:evenodd;fill:none;stroke:#FFFFFF;stroke-width:0.5;stroke-linecap:round;stroke-linejoin:round;" cx="36.314" r="0.382" cy="-28.546"/>
  <circle style="fill-rule:evenodd;clip-rule:evenodd;fill:none;stroke:#FFFFFF;stroke-width:0.5;stroke-linecap:round;stroke-linejoin:round;" cx="21.214" r="0.382" cy="-28.246"/>
  <circle style="fill-rule:evenodd;clip-rule:evenodd;fill:none;stroke:#FFFFFF;stroke-width:0.5;stroke-linecap:round;stroke-linejoin:round;" cx="41.614" r="0.382" cy="-16.646"/>
  <circle style="fill-rule:evenodd;clip-rule:evenodd;fill:none;stroke:#FFFFFF;stroke-width:0.5;stroke-linecap:round;stroke-linejoin:round;" cx="49.013" r="0.382" cy="-18.546"/>
  <circle style="fill-rule:evenodd;clip-rule:evenodd;fill:none;stroke:#FFFFFF;stroke-width:0.5;stroke-linecap:round;stroke-linejoin:round;" cx="48.614" r="0.382" cy="-8.647"/>
  <circle style="fill-rule:evenodd;clip-rule:evenodd;fill:none;stroke:#FFFFFF;stroke-width:0.5;stroke-linecap:round;stroke-linejoin:round;" cx="45.514" r="0.382" cy="-3.846"/>
  <circle style="fill-rule:evenodd;clip-rule:evenodd;fill:none;stroke:#FFFFFF;stroke-width:0.5;stroke-linecap:round;stroke-linejoin:round;" cx="8.628" r="0.382" cy="-17.381"/>
  <circle style="fill-rule:evenodd;clip-rule:evenodd;fill:none;stroke:#FFFFFF;stroke-width:0.5;stroke-linecap:round;stroke-linejoin:round;" cx="7.278" r="0.382" cy="-11.682"/>
  <circle style="fill-rule:evenodd;clip-rule:evenodd;fill:none;stroke:#FFFFFF;stroke-width:0.5;stroke-linecap:round;stroke-linejoin:round;" cx="15.196" r="0.381" cy="-40.628"/>
  <circle style="fill-rule:evenodd;clip-rule:evenodd;fill:none;stroke:#FFFFFF;stroke-width:0.5;stroke-linecap:round;stroke-linejoin:round;" cx="3.479" r="0.382" cy="-53.782"/>
  <circle style="fill-rule:evenodd;clip-rule:evenodd;fill:none;stroke:#FFFFFF;stroke-width:0.5;stroke-linecap:round;stroke-linejoin:round;" cx="8.278" r="0.382" cy="-45.382"/>
  <circle style="fill-rule:evenodd;clip-rule:evenodd;fill:none;stroke:#FFFFFF;stroke-width:0.5;stroke-linecap:round;stroke-linejoin:round;" cx="50.313" r="0.382" cy="-54.346"/>
  <path style="fill-rule:evenodd;clip-rule:evenodd;fill:none;stroke:#FFFFFF;stroke-width:0.5;" d="M30.275-62.479    c-0.027,0.429-0.27,0.764-0.561,0.764c-0.295,0-0.535-0.335-0.564-0.764"/>
  <path style="fill-rule:evenodd;clip-rule:evenodd;fill:none;stroke:#FFFFFF;stroke-width:0.5;" d="M30.275-2    c0.003-0.027,0.004-0.057,0.004-0.085c0-0.469-0.253-0.849-0.565-0.849c-0.313,0-0.566,0.38-0.566,0.849    c0,0.028,0.001,0.058,0.002,0.085"/>
  <path style="fill-rule:evenodd;clip-rule:evenodd;fill:none;stroke:#FFFFFF;stroke-width:0.5;" d="M12.477-62.479    c-0.029,0.429-0.271,0.764-0.564,0.764s-0.533-0.335-0.562-0.764"/>
  <path style="fill-rule:evenodd;clip-rule:evenodd;fill:none;stroke:#FFFFFF;stroke-width:0.5;" d="M12.477-2    c0.001-0.027,0.002-0.057,0.002-0.085c0-0.469-0.253-0.849-0.566-0.849c-0.311,0-0.565,0.38-0.565,0.849    c0,0.028,0.001,0.058,0.003,0.085"/>
  <path style="fill-rule:evenodd;clip-rule:evenodd;fill:none;stroke:#FFFFFF;stroke-width:0.5;" d="M39.032-62.479    c-0.036,0.429-0.337,0.764-0.704,0.764c-0.366,0-0.667-0.335-0.702-0.764"/>
  <path style="fill-rule:evenodd;clip-rule:evenodd;fill:none;stroke:#FFFFFF;stroke-width:0.5;" d="M39.032-2    c0.002-0.027,0.003-0.057,0.003-0.085c0-0.469-0.316-0.849-0.707-0.849c-0.391,0-0.707,0.38-0.707,0.849    c0,0.028,0.001,0.058,0.005,0.085"/>
  <path style="fill-rule:evenodd;clip-rule:evenodd;fill:none;stroke:#FFFFFF;stroke-width:0.5;" d="M54.767-62.479    c-0.035,0.429-0.336,0.764-0.703,0.764c-0.366,0-0.668-0.335-0.703-0.764"/>
  <path style="fill-rule:evenodd;clip-rule:evenodd;fill:none;stroke:#FFFFFF;stroke-width:0.5;" d="M54.767-2    c0.004-0.027,0.005-0.057,0.005-0.085c0-0.469-0.317-0.849-0.708-0.849c-0.39,0-0.706,0.38-0.706,0.849    c0,0.028,0.001,0.058,0.003,0.085"/>
  <path style="fill-rule:evenodd;clip-rule:evenodd;fill:none;stroke:#FFFFFF;stroke-width:0.5;" d="M62.478-25.943    c-0.028-0.008-0.059-0.012-0.089-0.012c-0.332,0-0.602,0.443-0.602,0.99c0,0.548,0.269,0.989,0.602,0.989    c0.03,0,0.061-0.002,0.089-0.011"/>
  <path style="fill-rule:evenodd;clip-rule:evenodd;fill:none;stroke:#FFFFFF;stroke-width:0.5;" d="M2-23.986    c0.288-0.071,0.511-0.482,0.511-0.979c0-0.496-0.223-0.906-0.511-0.979"/>
  <path style="fill-rule:evenodd;clip-rule:evenodd;fill:none;stroke:#FFFFFF;stroke-width:0.5;" d="M62.478-44.494    c-0.028-0.007-0.059-0.01-0.089-0.01c-0.332,0-0.602,0.442-0.602,0.988c0,0.548,0.269,0.99,0.602,0.99    c0.03,0,0.061-0.003,0.089-0.01"/>
  <path style="fill-rule:evenodd;clip-rule:evenodd;fill:none;stroke:#FFFFFF;stroke-width:0.5;" d="M2-42.535    c0.288-0.072,0.511-0.483,0.511-0.98c0-0.495-0.223-0.906-0.511-0.979"/>
  <path style="fill-rule:evenodd;clip-rule:evenodd;fill:none;stroke:#FFFFFF;stroke-width:0.5;" d="M62.478-12.394    c-0.028-0.007-0.059-0.011-0.089-0.011c-0.332,0-0.602,0.443-0.602,0.989c0,0.547,0.269,0.99,0.602,0.99    c0.03,0,0.061-0.004,0.089-0.011"/>
  <path style="fill-rule:evenodd;clip-rule:evenodd;fill:none;stroke:#FFFFFF;stroke-width:0.5;" d="M2-10.436    c0.288-0.071,0.511-0.483,0.511-0.979c0-0.496-0.223-0.907-0.511-0.979"/>
  <path style="fill-rule:evenodd;clip-rule:evenodd;fill:none;stroke:#FFFFFF;stroke-width:0.5;" d="M62.478-60.878    c-0.028-0.008-0.059-0.012-0.089-0.012c-0.332,0-0.602,0.443-0.602,0.99c0,0.546,0.269,0.99,0.602,0.99    c0.03,0,0.061-0.005,0.089-0.012"/>
  <path style="fill-rule:evenodd;clip-rule:evenodd;fill:none;stroke:#FFFFFF;stroke-width:0.5;" d="M2-58.921    c0.288-0.071,0.511-0.482,0.511-0.979c0-0.497-0.223-0.907-0.511-0.979"/>
 </g>
</svg>
