<?xml version="1.0"?>
<!-- Converted with SVG Converter - Version 0.9.5 (Compiled Fri Feb 21 09:53:38 2020) - Copyright (C) 2011 Nokia -->
<svg xmlns="http://www.w3.org/2000/svg" viewBox="1.86 -60.181 58.316 58.317" x="0px" height="58.317" y="0px" baseProfile="tiny" version="1.1" xml:space="preserve" xmlns:xlink="http://www.w3.org/1999/xlink" width="58.316">
 <g>
  <rect x="1.86" height="58.317" y="-60.181" width="58.316" style="fill:none;"/>
  <circle r="1.17" cx="13.841" cy="-55.649" style="fill:none;stroke:#EC008C;stroke-width:0.43;"/>
  <path d="M15.048-60.173c0,0.648,0.524,1.171,1.17,1.171    s1.17-0.523,1.17-1.171" style="fill:none;stroke:#EC008C;stroke-width:0.43;"/>
  <circle r="1.17" cx="16.218" cy="-40.699" style="fill:none;stroke:#EC008C;stroke-width:0.43;"/>
  <path d="M5.61-60.173c0,0.648,0.524,1.171,1.17,1.171s1.17-0.523,1.17-1.171    " style="fill:none;stroke:#EC008C;stroke-width:0.43;"/>
  <circle r="1.17" cx="6.78" cy="-40.743" style="fill:none;stroke:#EC008C;stroke-width:0.43;"/>
  <circle r="1.17" cx="21.319" cy="-58.01" style="fill:none;stroke:#EC008C;stroke-width:0.43;"/>
  <circle r="1.17" cx="21.319" cy="-53.198" style="fill:none;stroke:#EC008C;stroke-width:0.43;"/>
  <path d="M1.863-52.028c0.646,0,1.17-0.522,1.17-1.17    c0-0.645-0.524-1.17-1.17-1.17" style="fill:none;stroke:#EC008C;stroke-width:0.43;"/>
  <path d="M1.863-56.84c0.646,0,1.17-0.522,1.17-1.17    c0-0.645-0.524-1.17-1.17-1.17" style="fill:none;stroke:#EC008C;stroke-width:0.43;"/>
  <circle r="1.17" cx="6.984" cy="-50.687" style="fill:none;stroke:#EC008C;stroke-width:0.43;"/>
  <circle r="1.17" cx="8.701" cy="-55.649" style="fill:none;stroke:#EC008C;stroke-width:0.43;"/>
  <circle r="1.17" cx="16.068" cy="-50.687" style="fill:none;stroke:#EC008C;stroke-width:0.43;"/>
  <circle r="1.17" cx="11.055" cy="-47.95" style="fill:none;stroke:#EC008C;stroke-width:0.43;"/>
  <circle r="1.17" cx="11.039" cy="-43.248" style="fill:none;stroke:#EC008C;stroke-width:0.43;"/>
  <circle r="1.17" cx="17.906" cy="-45.773" style="fill:none;stroke:#EC008C;stroke-width:0.43;"/>
  <circle r="1.17" cx="4.083" cy="-45.773" style="fill:none;stroke:#EC008C;stroke-width:0.43;"/>
  <circle r="1.17" cx="33.341" cy="-55.649" style="fill:none;stroke:#EC008C;stroke-width:0.43;"/>
  <path d="M34.548-60.173c0,0.648,0.524,1.171,1.17,1.171    s1.17-0.523,1.17-1.171" style="fill:none;stroke:#EC008C;stroke-width:0.43;"/>
  <circle r="1.17" cx="35.718" cy="-40.699" style="fill:none;stroke:#EC008C;stroke-width:0.43;"/>
  <path d="M25.11-60.169c0,0.647,0.524,1.17,1.17,1.17s1.17-0.522,1.17-1.17" style="fill:none;stroke:#EC008C;stroke-width:0.43;"/>
  <circle r="1.17" cx="26.28" cy="-40.743" style="fill:none;stroke:#EC008C;stroke-width:0.43;"/>
  <circle r="1.17" cx="40.819" cy="-58.01" style="fill:none;stroke:#EC008C;stroke-width:0.43;"/>
  <circle r="1.17" cx="40.819" cy="-53.198" style="fill:none;stroke:#EC008C;stroke-width:0.43;"/>
  <circle r="1.17" cx="26.484" cy="-50.687" style="fill:none;stroke:#EC008C;stroke-width:0.43;"/>
  <circle r="1.17" cx="28.201" cy="-55.649" style="fill:none;stroke:#EC008C;stroke-width:0.43;"/>
  <circle r="1.17" cx="35.568" cy="-50.687" style="fill:none;stroke:#EC008C;stroke-width:0.43;"/>
  <circle r="1.17" cx="30.555" cy="-47.95" style="fill:none;stroke:#EC008C;stroke-width:0.43;"/>
  <circle r="1.17" cx="30.539" cy="-43.248" style="fill:none;stroke:#EC008C;stroke-width:0.43;"/>
  <circle r="1.17" cx="37.406" cy="-45.773" style="fill:none;stroke:#EC008C;stroke-width:0.43;"/>
  <circle r="1.17" cx="23.583" cy="-45.773" style="fill:none;stroke:#EC008C;stroke-width:0.43;"/>
  <circle r="1.17" cx="52.841" cy="-55.649" style="fill:none;stroke:#EC008C;stroke-width:0.43;"/>
  <path d="M54.048-60.173c0,0.648,0.524,1.171,1.17,1.171    s1.17-0.523,1.17-1.171" style="fill:none;stroke:#EC008C;stroke-width:0.43;"/>
  <circle r="1.17" cx="55.218" cy="-40.699" style="fill:none;stroke:#EC008C;stroke-width:0.43;"/>
  <path d="M44.61-60.173c0,0.648,0.524,1.171,1.17,1.171    s1.17-0.523,1.17-1.171" style="fill:none;stroke:#EC008C;stroke-width:0.43;"/>
  <circle r="1.17" cx="45.78" cy="-40.743" style="fill:none;stroke:#EC008C;stroke-width:0.43;"/>
  <path d="M60.194-59.18c-0.646,0-1.17,0.525-1.17,1.17    c0,0.647,0.524,1.17,1.17,1.17" style="fill:none;stroke:#EC008C;stroke-width:0.43;"/>
  <path d="M60.177-54.368c-0.646,0-1.17,0.525-1.17,1.17    c0,0.647,0.524,1.17,1.17,1.17" style="fill:none;stroke:#EC008C;stroke-width:0.43;"/>
  <circle r="1.17" cx="45.984" cy="-50.687" style="fill:none;stroke:#EC008C;stroke-width:0.43;"/>
  <circle r="1.17" cx="47.701" cy="-55.649" style="fill:none;stroke:#EC008C;stroke-width:0.43;"/>
  <circle r="1.17" cx="55.068" cy="-50.687" style="fill:none;stroke:#EC008C;stroke-width:0.43;"/>
  <circle r="1.17" cx="50.055" cy="-47.95" style="fill:none;stroke:#EC008C;stroke-width:0.43;"/>
  <circle r="1.17" cx="50.039" cy="-43.248" style="fill:none;stroke:#EC008C;stroke-width:0.43;"/>
  <circle r="1.17" cx="56.906" cy="-45.773" style="fill:none;stroke:#EC008C;stroke-width:0.43;"/>
  <circle r="1.17" cx="43.083" cy="-45.773" style="fill:none;stroke:#EC008C;stroke-width:0.43;"/>
  <circle r="1.17" cx="13.841" cy="-36.212" style="fill:none;stroke:#EC008C;stroke-width:0.43;"/>
  <circle r="1.17" cx="16.218" cy="-40.699" style="fill:none;stroke:#EC008C;stroke-width:0.43;"/>
  <circle r="1.17" cx="16.218" cy="-21.262" style="fill:none;stroke:#EC008C;stroke-width:0.43;"/>
  <circle r="1.17" cx="6.78" cy="-21.305" style="fill:none;stroke:#EC008C;stroke-width:0.43;"/>
  <circle r="1.17" cx="21.319" cy="-38.573" style="fill:none;stroke:#EC008C;stroke-width:0.43;"/>
  <circle r="1.17" cx="21.319" cy="-33.76" style="fill:none;stroke:#EC008C;stroke-width:0.43;"/>
  <path d="M1.861-32.59c0.646,0,1.17-0.522,1.17-1.17    c0-0.645-0.524-1.17-1.17-1.17" style="fill:none;stroke:#EC008C;stroke-width:0.43;"/>
  <path d="M1.868-37.403c0.646,0,1.17-0.522,1.17-1.17    c0-0.645-0.524-1.17-1.17-1.17" style="fill:none;stroke:#EC008C;stroke-width:0.43;"/>
  <circle r="1.17" cx="6.984" cy="-31.249" style="fill:none;stroke:#EC008C;stroke-width:0.43;"/>
  <circle r="1.17" cx="8.701" cy="-36.212" style="fill:none;stroke:#EC008C;stroke-width:0.43;"/>
  <circle r="1.17" cx="16.068" cy="-31.249" style="fill:none;stroke:#EC008C;stroke-width:0.43;"/>
  <circle r="1.17" cx="11.055" cy="-28.513" style="fill:none;stroke:#EC008C;stroke-width:0.43;"/>
  <circle r="1.17" cx="11.039" cy="-23.811" style="fill:none;stroke:#EC008C;stroke-width:0.43;"/>
  <circle r="1.17" cx="17.906" cy="-26.336" style="fill:none;stroke:#EC008C;stroke-width:0.43;"/>
  <circle r="1.17" cx="4.083" cy="-26.336" style="fill:none;stroke:#EC008C;stroke-width:0.43;"/>
  <circle r="1.17" cx="33.341" cy="-36.212" style="fill:none;stroke:#EC008C;stroke-width:0.43;"/>
  <circle r="1.17" cx="35.718" cy="-40.699" style="fill:none;stroke:#EC008C;stroke-width:0.43;"/>
  <circle r="1.17" cx="35.718" cy="-21.262" style="fill:none;stroke:#EC008C;stroke-width:0.43;"/>
  <circle r="1.17" cx="26.28" cy="-21.305" style="fill:none;stroke:#EC008C;stroke-width:0.43;"/>
  <circle r="1.17" cx="40.819" cy="-38.573" style="fill:none;stroke:#EC008C;stroke-width:0.43;"/>
  <circle r="1.17" cx="40.819" cy="-33.76" style="fill:none;stroke:#EC008C;stroke-width:0.43;"/>
  <circle r="1.17" cx="26.484" cy="-31.249" style="fill:none;stroke:#EC008C;stroke-width:0.43;"/>
  <circle r="1.17" cx="28.201" cy="-36.212" style="fill:none;stroke:#EC008C;stroke-width:0.43;"/>
  <circle r="1.17" cx="35.568" cy="-31.249" style="fill:none;stroke:#EC008C;stroke-width:0.43;"/>
  <circle r="1.17" cx="30.555" cy="-28.513" style="fill:none;stroke:#EC008C;stroke-width:0.43;"/>
  <circle r="1.17" cx="30.539" cy="-23.811" style="fill:none;stroke:#EC008C;stroke-width:0.43;"/>
  <circle r="1.17" cx="37.406" cy="-26.336" style="fill:none;stroke:#EC008C;stroke-width:0.43;"/>
  <circle r="1.17" cx="23.583" cy="-26.336" style="fill:none;stroke:#EC008C;stroke-width:0.43;"/>
  <circle r="1.17" cx="52.841" cy="-36.212" style="fill:none;stroke:#EC008C;stroke-width:0.43;"/>
  <circle r="1.17" cx="55.218" cy="-40.699" style="fill:none;stroke:#EC008C;stroke-width:0.43;"/>
  <circle r="1.17" cx="55.218" cy="-21.262" style="fill:none;stroke:#EC008C;stroke-width:0.43;"/>
  <path d="M60.177-39.743c-0.646,0-1.17,0.525-1.17,1.17    c0,0.647,0.524,1.17,1.17,1.17" style="fill:none;stroke:#EC008C;stroke-width:0.43;"/>
  <path d="M60.194-34.93c-0.646,0-1.17,0.525-1.17,1.17    c0,0.647,0.524,1.17,1.17,1.17" style="fill:none;stroke:#EC008C;stroke-width:0.43;"/>
  <circle r="1.17" cx="45.984" cy="-31.249" style="fill:none;stroke:#EC008C;stroke-width:0.43;"/>
  <circle r="1.17" cx="47.701" cy="-36.212" style="fill:none;stroke:#EC008C;stroke-width:0.43;"/>
  <circle r="1.17" cx="55.068" cy="-31.249" style="fill:none;stroke:#EC008C;stroke-width:0.43;"/>
  <circle r="1.17" cx="50.055" cy="-28.513" style="fill:none;stroke:#EC008C;stroke-width:0.43;"/>
  <circle r="1.17" cx="50.039" cy="-23.811" style="fill:none;stroke:#EC008C;stroke-width:0.43;"/>
  <circle r="1.17" cx="56.906" cy="-26.336" style="fill:none;stroke:#EC008C;stroke-width:0.43;"/>
  <circle r="1.17" cx="43.083" cy="-26.336" style="fill:none;stroke:#EC008C;stroke-width:0.43;"/>
  <circle r="1.17" cx="13.841" cy="-16.774" style="fill:none;stroke:#EC008C;stroke-width:0.43;"/>
  <circle r="1.17" cx="16.218" cy="-21.262" style="fill:none;stroke:#EC008C;stroke-width:0.43;"/>
  <path d="M17.388-1.86c0-0.645-0.524-1.17-1.17-1.17s-1.17,0.525-1.17,1.17" style="fill:none;stroke:#EC008C;stroke-width:0.43;"/>
  <path d="M7.95-1.868c0-0.645-0.524-1.17-1.17-1.17s-1.17,0.525-1.17,1.17" style="fill:none;stroke:#EC008C;stroke-width:0.43;"/>
  <circle r="1.17" cx="21.319" cy="-19.135" style="fill:none;stroke:#EC008C;stroke-width:0.43;"/>
  <circle r="1.17" cx="21.319" cy="-14.323" style="fill:none;stroke:#EC008C;stroke-width:0.43;"/>
  <path d="M1.861-13.153c0.646,0,1.17-0.523,1.17-1.17    c0-0.645-0.524-1.17-1.17-1.17" style="fill:none;stroke:#EC008C;stroke-width:0.43;"/>
  <path d="M1.86-17.965c0.646,0,1.17-0.523,1.17-1.17    c0-0.645-0.524-1.17-1.17-1.17" style="fill:none;stroke:#EC008C;stroke-width:0.43;"/>
  <circle r="1.17" cx="6.984" cy="-11.811" style="fill:none;stroke:#EC008C;stroke-width:0.43;"/>
  <circle r="1.17" cx="8.701" cy="-16.774" style="fill:none;stroke:#EC008C;stroke-width:0.43;"/>
  <circle r="1.17" cx="16.068" cy="-11.811" style="fill:none;stroke:#EC008C;stroke-width:0.43;"/>
  <circle r="1.17" cx="11.055" cy="-9.075" style="fill:none;stroke:#EC008C;stroke-width:0.43;"/>
  <circle r="1.17" cx="11.039" cy="-4.373" style="fill:none;stroke:#EC008C;stroke-width:0.43;"/>
  <circle r="1.17" cx="17.906" cy="-6.898" style="fill:none;stroke:#EC008C;stroke-width:0.43;"/>
  <circle r="1.17" cx="4.083" cy="-6.898" style="fill:none;stroke:#EC008C;stroke-width:0.43;"/>
  <circle r="1.17" cx="33.341" cy="-16.774" style="fill:none;stroke:#EC008C;stroke-width:0.43;"/>
  <circle r="1.17" cx="35.718" cy="-21.262" style="fill:none;stroke:#EC008C;stroke-width:0.43;"/>
  <path d="M36.888-1.869c0-0.645-0.524-1.17-1.17-1.17s-1.17,0.525-1.17,1.17" style="fill:none;stroke:#EC008C;stroke-width:0.43;"/>
  <path d="M27.45-1.868c0-0.645-0.524-1.17-1.17-1.17s-1.17,0.525-1.17,1.17" style="fill:none;stroke:#EC008C;stroke-width:0.43;"/>
  <circle r="1.17" cx="40.819" cy="-19.135" style="fill:none;stroke:#EC008C;stroke-width:0.43;"/>
  <circle r="1.17" cx="40.819" cy="-14.323" style="fill:none;stroke:#EC008C;stroke-width:0.43;"/>
  <circle r="1.17" cx="26.484" cy="-11.811" style="fill:none;stroke:#EC008C;stroke-width:0.43;"/>
  <circle r="1.17" cx="28.201" cy="-16.774" style="fill:none;stroke:#EC008C;stroke-width:0.43;"/>
  <circle r="1.17" cx="35.568" cy="-11.811" style="fill:none;stroke:#EC008C;stroke-width:0.43;"/>
  <circle r="1.17" cx="30.555" cy="-9.075" style="fill:none;stroke:#EC008C;stroke-width:0.43;"/>
  <circle r="1.17" cx="30.539" cy="-4.373" style="fill:none;stroke:#EC008C;stroke-width:0.43;"/>
  <circle r="1.17" cx="37.406" cy="-6.898" style="fill:none;stroke:#EC008C;stroke-width:0.43;"/>
  <circle r="1.17" cx="23.583" cy="-6.898" style="fill:none;stroke:#EC008C;stroke-width:0.43;"/>
  <circle r="1.17" cx="52.841" cy="-16.774" style="fill:none;stroke:#EC008C;stroke-width:0.43;"/>
  <circle r="1.17" cx="55.218" cy="-21.262" style="fill:none;stroke:#EC008C;stroke-width:0.43;"/>
  <path d="M56.388-1.869c0-0.645-0.524-1.17-1.17-1.17s-1.17,0.525-1.17,1.17" style="fill:none;stroke:#EC008C;stroke-width:0.43;"/>
  <circle r="1.17" cx="45.78" cy="-21.262" style="fill:none;stroke:#EC008C;stroke-width:0.43;"/>
  <path d="M46.95-1.868c0-0.645-0.524-1.17-1.17-1.17s-1.17,0.525-1.17,1.17" style="fill:none;stroke:#EC008C;stroke-width:0.43;"/>
  <path d="M60.194-20.305c-0.646,0-1.17,0.525-1.17,1.17    c0,0.647,0.524,1.17,1.17,1.17" style="fill:none;stroke:#EC008C;stroke-width:0.43;"/>
  <path d="M60.194-15.493c-0.646,0-1.17,0.525-1.17,1.17    c0,0.648,0.524,1.17,1.17,1.17" style="fill:none;stroke:#EC008C;stroke-width:0.43;"/>
  <circle r="1.17" cx="45.984" cy="-11.811" style="fill:none;stroke:#EC008C;stroke-width:0.43;"/>
  <circle r="1.17" cx="47.701" cy="-16.774" style="fill:none;stroke:#EC008C;stroke-width:0.43;"/>
  <circle r="1.17" cx="55.068" cy="-11.811" style="fill:none;stroke:#EC008C;stroke-width:0.43;"/>
  <circle r="1.17" cx="50.055" cy="-9.075" style="fill:none;stroke:#EC008C;stroke-width:0.43;"/>
  <circle r="1.17" cx="50.039" cy="-4.373" style="fill:none;stroke:#EC008C;stroke-width:0.43;"/>
  <circle r="1.17" cx="56.906" cy="-6.898" style="fill:none;stroke:#EC008C;stroke-width:0.43;"/>
  <circle r="1.17" cx="43.083" cy="-6.898" style="fill:none;stroke:#EC008C;stroke-width:0.43;"/>
 </g>
</svg>
