<?xml version="1.0"?>
<!-- Converted with SVG Converter - Version 0.9.5 (Compiled Fri Feb 21 09:53:38 2020) - Copyright (C) 2011 Nokia -->
<svg xmlns="http://www.w3.org/2000/svg" xmlns:xlink="http://www.w3.org/1999/xlink" baseProfile="tiny" width="33.5" height="33.5">
 <defs>
  <path d="M0 0h33.5v33.5H0z" id="a"/>
 </defs>
 <path fill="#00AEEF" d="M-.03 8.93c.32 0 .57-.26.57-.57S.3 7.8-.03 7.8M33.5 7.8c-.3 0-.56.24-.56.56s.25.57.57.57"/>
 <circle cx="1.938" fill="#00AEEF" cy="5.544" r=".57"/>
 <circle cx="1.875" fill="#00AEEF" cy="2.669" r=".57"/>
 <circle cx="7.044" fill="#00AEEF" cy="4.188" r=".57"/>
 <circle cx="5.688" fill="#00AEEF" cy="1.732" r=".57"/>
 <circle cx="4.375" fill="#00AEEF" cy="4.169" r=".57"/>
 <circle cx="5.625" fill="#00AEEF" cy="6.919" r=".57"/>
 <circle cx="2.875" fill="#00AEEF" cy="8.357" r=".57"/>
 <path fill="#00AEEF" d="M2.3 0c0 .3.26.57.58.57s.56-.25.56-.57M7.8 0c0 .3.26.57.57.57s.58-.25.58-.57"/>
 <path fill="#00AEEF" d="M.57 0C.57.3.3.6 0 .6V0h.57z"/>
 <circle cx="8.375" fill="#00AEEF" cy="8.357" r=".57"/>
 <circle cx="10.313" fill="#00AEEF" cy="5.544" r=".57"/>
 <circle cx="10.25" fill="#00AEEF" cy="2.669" r=".57"/>
 <circle cx="15.419" fill="#00AEEF" cy="4.188" r=".57"/>
 <circle cx="14.063" fill="#00AEEF" cy="1.732" r=".57"/>
 <circle cx="12.75" fill="#00AEEF" cy="4.169" r=".57"/>
 <circle cx="14" fill="#00AEEF" cy="6.919" r=".57"/>
 <circle cx="11.25" fill="#00AEEF" cy="8.357" r=".57"/>
 <path fill="#00AEEF" d="M10.68.02c0 .3.26.57.57.57s.57-.27.57-.58"/>
 <circle cx="16.75" fill="#00AEEF" cy="8.294" r=".57"/>
 <path fill="#00AEEF" d="M16.18 0c0 .3.26.57.57.57s.57-.25.57-.57"/>
 <circle cx="18.688" fill="#00AEEF" cy="5.544" r=".57"/>
 <circle cx="18.625" fill="#00AEEF" cy="2.669" r=".57"/>
 <circle cx="23.794" fill="#00AEEF" cy="4.188" r=".57"/>
 <circle cx="22.438" fill="#00AEEF" cy="1.732" r=".57"/>
 <circle cx="21.125" fill="#00AEEF" cy="4.169" r=".57"/>
 <circle cx="22.375" fill="#00AEEF" cy="6.919" r=".57"/>
 <circle cx="19.625" fill="#00AEEF" cy="8.357" r=".57"/>
 <path fill="#00AEEF" d="M19.05 0c0 .3.26.57.57.57S20.2.3 20.2 0"/>
 <circle cx="25.125" fill="#00AEEF" cy="8.294" r=".57"/>
 <path fill="#00AEEF" d="M24.55 0c0 .3.26.57.57.57S25.7.3 25.7 0M17.32 33.5c0-.3-.26-.56-.57-.56s-.57.25-.57.57"/>
 <circle cx="27.063" fill="#00AEEF" cy="5.544" r=".57"/>
 <circle cx="27" fill="#00AEEF" cy="2.669" r=".57"/>
 <circle cx="32.169" fill="#00AEEF" cy="4.188" r=".57"/>
 <circle cx="30.813" fill="#00AEEF" cy="1.732" r=".57"/>
 <circle cx="29.5" fill="#00AEEF" cy="4.169" r=".57"/>
 <circle cx="30.75" fill="#00AEEF" cy="6.919" r=".57"/>
 <circle cx="28" fill="#00AEEF" cy="8.357" r=".57"/>
 <path fill="#00AEEF" d="M27.43 0c0 .3.26.57.57.57s.57-.25.57-.57"/>
 <path fill="#00AEEF" d="M33.5.57c-.32 0-.58-.26-.58-.57h.57v.57zM-.03 17.3c.32 0 .57-.25.57-.57s-.25-.57-.57-.57M33.5 16.16c-.3 0-.56.26-.56.57s.25.57.57.57"/>
 <circle cx="1.938" fill="#00AEEF" cy="13.919" r=".57"/>
 <circle cx="1.875" fill="#00AEEF" cy="11.044" r=".57"/>
 <circle cx="7.044" fill="#00AEEF" cy="12.563" r=".57"/>
 <circle cx="5.688" fill="#00AEEF" cy="10.107" r=".57"/>
 <circle cx="4.375" fill="#00AEEF" cy="12.544" r=".57"/>
 <circle cx="5.625" fill="#00AEEF" cy="15.294" r=".57"/>
 <circle cx="2.875" fill="#00AEEF" cy="16.732" r=".57"/>
 <circle cx="8.375" fill="#00AEEF" cy="16.669" r=".57"/>
 <circle cx="10.313" fill="#00AEEF" cy="13.919" r=".57"/>
 <circle cx="10.25" fill="#00AEEF" cy="11.044" r=".57"/>
 <circle cx="15.419" fill="#00AEEF" cy="12.563" r=".57"/>
 <circle cx="14.063" fill="#00AEEF" cy="10.107" r=".57"/>
 <circle cx="12.75" fill="#00AEEF" cy="12.544" r=".57"/>
 <circle cx="14" fill="#00AEEF" cy="15.294" r=".57"/>
 <circle cx="11.25" fill="#00AEEF" cy="16.732" r=".57"/>
 <circle cx="18.688" fill="#00AEEF" cy="13.919" r=".57"/>
 <circle cx="18.625" fill="#00AEEF" cy="11.044" r=".57"/>
 <circle cx="23.794" fill="#00AEEF" cy="12.563" r=".57"/>
 <circle cx="22.438" fill="#00AEEF" cy="10.107" r=".57"/>
 <circle cx="21.125" fill="#00AEEF" cy="12.544" r=".57"/>
 <circle cx="22.375" fill="#00AEEF" cy="15.294" r=".57"/>
 <circle cx="19.625" fill="#00AEEF" cy="16.732" r=".57"/>
 <circle cx="25.125" fill="#00AEEF" cy="16.669" r=".57"/>
 <circle cx="27.063" fill="#00AEEF" cy="13.919" r=".57"/>
 <circle cx="27" fill="#00AEEF" cy="11.044" r=".57"/>
 <circle cx="32.169" fill="#00AEEF" cy="12.563" r=".57"/>
 <circle cx="30.813" fill="#00AEEF" cy="10.107" r=".57"/>
 <circle cx="29.5" fill="#00AEEF" cy="12.544" r=".57"/>
 <circle cx="30.75" fill="#00AEEF" cy="15.294" r=".57"/>
 <circle cx="28" fill="#00AEEF" cy="16.732" r=".57"/>
 <path fill="#00AEEF" d="M-.03 25.68c.32 0 .57-.26.57-.57s-.25-.56-.57-.56M33.5 24.54c-.3 0-.56.25-.56.57s.25.58.57.58"/>
 <circle cx="1.938" fill="#00AEEF" cy="22.294" r=".57"/>
 <circle cx="1.875" fill="#00AEEF" cy="19.419" r=".57"/>
 <circle cx="7.044" fill="#00AEEF" cy="20.938" r=".57"/>
 <circle cx="5.688" fill="#00AEEF" cy="18.482" r=".57"/>
 <circle cx="4.375" fill="#00AEEF" cy="20.919" r=".57"/>
 <circle cx="5.625" fill="#00AEEF" cy="23.669" r=".57"/>
 <circle cx="2.875" fill="#00AEEF" cy="25.107" r=".57"/>
 <circle cx="8.375" fill="#00AEEF" cy="25.044" r=".57"/>
 <circle cx="10.313" fill="#00AEEF" cy="22.294" r=".57"/>
 <circle cx="10.25" fill="#00AEEF" cy="19.419" r=".57"/>
 <circle cx="15.419" fill="#00AEEF" cy="20.938" r=".57"/>
 <circle cx="14.063" fill="#00AEEF" cy="18.482" r=".57"/>
 <circle cx="12.75" fill="#00AEEF" cy="20.919" r=".57"/>
 <circle cx="14" fill="#00AEEF" cy="23.669" r=".57"/>
 <circle cx="11.25" fill="#00AEEF" cy="25.107" r=".57"/>
 <circle cx="16.75" fill="#00AEEF" cy="25.044" r=".57"/>
 <circle cx="16.75" fill="#00AEEF" cy="16.794" r=".57"/>
 <circle cx="18.688" fill="#00AEEF" cy="22.294" r=".57"/>
 <circle cx="18.625" fill="#00AEEF" cy="19.419" r=".57"/>
 <circle cx="23.794" fill="#00AEEF" cy="20.938" r=".57"/>
 <circle cx="22.438" fill="#00AEEF" cy="18.482" r=".57"/>
 <circle cx="21.125" fill="#00AEEF" cy="20.919" r=".57"/>
 <circle cx="22.375" fill="#00AEEF" cy="23.669" r=".57"/>
 <circle cx="19.625" fill="#00AEEF" cy="25.107" r=".57"/>
 <circle cx="25.125" fill="#00AEEF" cy="25.044" r=".57"/>
 <circle cx="27.063" fill="#00AEEF" cy="22.294" r=".57"/>
 <circle cx="27" fill="#00AEEF" cy="19.419" r=".57"/>
 <circle cx="32.169" fill="#00AEEF" cy="20.938" r=".57"/>
 <circle cx="30.813" fill="#00AEEF" cy="18.482" r=".57"/>
 <circle cx="29.5" fill="#00AEEF" cy="20.919" r=".57"/>
 <circle cx="30.75" fill="#00AEEF" cy="23.669" r=".57"/>
 <path fill="#00AEEF" d="M0 32.92c.3 0 .56.26.56.57H0v-.58zM33.5 32.94c-.3 0-.56.25-.56.57h.57v-.56z"/>
 <circle cx="1.938" fill="#00AEEF" cy="30.669" r=".57"/>
 <circle cx="1.875" fill="#00AEEF" cy="27.794" r=".57"/>
 <circle cx="7.044" fill="#00AEEF" cy="29.313" r=".57"/>
 <circle cx="5.688" fill="#00AEEF" cy="26.857" r=".57"/>
 <circle cx="4.375" fill="#00AEEF" cy="29.294" r=".57"/>
 <circle cx="5.625" fill="#00AEEF" cy="32.044" r=".57"/>
 <path fill="#00AEEF" d="M3.44 33.5c0-.3-.25-.56-.57-.56s-.57.25-.57.57M8.95 33.5c0-.32-.26-.57-.57-.57s-.58.26-.58.57"/>
 <circle cx="10.313" fill="#00AEEF" cy="30.669" r=".57"/>
 <circle cx="10.25" fill="#00AEEF" cy="27.794" r=".57"/>
 <circle cx="15.419" fill="#00AEEF" cy="29.313" r=".57"/>
 <circle cx="14.063" fill="#00AEEF" cy="26.857" r=".57"/>
 <circle cx="12.75" fill="#00AEEF" cy="29.294" r=".57"/>
 <circle cx="14" fill="#00AEEF" cy="32.044" r=".57"/>
 <path fill="#00AEEF" d="M11.82 33.5c0-.3-.26-.56-.57-.56s-.57.25-.57.57"/>
 <circle cx="18.688" fill="#00AEEF" cy="30.669" r=".57"/>
 <circle cx="18.625" fill="#00AEEF" cy="27.794" r=".57"/>
 <circle cx="23.794" fill="#00AEEF" cy="29.313" r=".57"/>
 <circle cx="22.438" fill="#00AEEF" cy="26.857" r=".57"/>
 <circle cx="21.125" fill="#00AEEF" cy="29.294" r=".57"/>
 <circle cx="22.375" fill="#00AEEF" cy="32.044" r=".57"/>
 <path fill="#00AEEF" d="M20.2 33.5c0-.3-.26-.56-.57-.56s-.57.25-.57.57M25.7 33.5c0-.32-.26-.57-.57-.57s-.57.26-.57.57"/>
 <circle cx="27.063" fill="#00AEEF" cy="30.669" r=".57"/>
 <circle cx="27" fill="#00AEEF" cy="27.794" r=".57"/>
 <circle cx="32.169" fill="#00AEEF" cy="29.313" r=".57"/>
 <circle cx="30.813" fill="#00AEEF" cy="26.857" r=".57"/>
 <circle cx="29.5" fill="#00AEEF" cy="29.294" r=".57"/>
 <circle cx="30.75" fill="#00AEEF" cy="32.044" r=".57"/>
 <path fill="#00AEEF" d="M28.57 33.5c0-.3-.26-.56-.57-.56s-.57.25-.57.57"/>
 <circle cx="28" fill="#00AEEF" cy="25.169" r=".57"/>
</svg>
