<?xml version="1.0"?>
<!-- Converted with SVG Converter - Version 0.9.5 (Compiled Fri Feb 21 09:53:38 2020) - Copyright (C) 2011 Nokia -->
<svg xmlns="http://www.w3.org/2000/svg" xmlns:xlink="http://www.w3.org/1999/xlink" width="33.5" height="33.5" baseProfile="tiny">
 <defs>
  <path id="a" d="M0 0h33.5v33.5H0z"/>
 </defs>
 <path d="M0 0h33.5v33.5H0z"/>
 <path d="M-.03 8.93c.32 0 .57-.26.57-.57S.3 7.8-.03 7.8M33.5 7.8c-.3 0-.56.24-.56.56s.25.57.57.57" fill="#fff"/>
 <circle cx="1.938" r=".57" cy="5.544" fill="#fff"/>
 <circle cx="1.875" r=".57" cy="2.669" fill="#fff"/>
 <circle cx="7.044" r=".57" cy="4.188" fill="#fff"/>
 <circle cx="5.688" r=".57" cy="1.732" fill="#fff"/>
 <circle cx="4.375" r=".57" cy="4.169" fill="#fff"/>
 <circle cx="5.625" r=".57" cy="6.919" fill="#fff"/>
 <circle cx="2.875" r=".57" cy="8.357" fill="#fff"/>
 <path d="M2.3 0c0 .3.26.57.58.57s.56-.25.56-.57M7.8 0c0 .3.26.57.57.57s.58-.25.58-.57" fill="#fff"/>
 <path d="M.57 0C.57.3.3.6 0 .6V0h.57z" fill="#fff"/>
 <circle cx="8.375" r=".57" cy="8.357" fill="#fff"/>
 <circle cx="10.313" r=".57" cy="5.544" fill="#fff"/>
 <circle cx="10.25" r=".57" cy="2.669" fill="#fff"/>
 <circle cx="15.419" r=".57" cy="4.188" fill="#fff"/>
 <circle cx="14.063" r=".57" cy="1.732" fill="#fff"/>
 <circle cx="12.75" r=".57" cy="4.169" fill="#fff"/>
 <circle cx="14" r=".57" cy="6.919" fill="#fff"/>
 <circle cx="11.25" r=".57" cy="8.357" fill="#fff"/>
 <path d="M10.68.02c0 .3.26.57.57.57s.57-.27.57-.58" fill="#fff"/>
 <circle cx="16.75" r=".57" cy="8.294" fill="#fff"/>
 <path d="M16.18 0c0 .3.26.57.57.57s.57-.25.57-.57" fill="#fff"/>
 <circle cx="18.688" r=".57" cy="5.544" fill="#fff"/>
 <circle cx="18.625" r=".57" cy="2.669" fill="#fff"/>
 <circle cx="23.794" r=".57" cy="4.188" fill="#fff"/>
 <circle cx="22.438" r=".57" cy="1.732" fill="#fff"/>
 <circle cx="21.125" r=".57" cy="4.169" fill="#fff"/>
 <circle cx="22.375" r=".57" cy="6.919" fill="#fff"/>
 <circle cx="19.625" r=".57" cy="8.357" fill="#fff"/>
 <path d="M19.05 0c0 .3.26.57.57.57S20.2.3 20.2 0" fill="#fff"/>
 <circle cx="25.125" r=".57" cy="8.294" fill="#fff"/>
 <path d="M24.55 0c0 .3.26.57.57.57S25.7.3 25.7 0M17.32 33.5c0-.3-.26-.56-.57-.56s-.57.25-.57.57" fill="#fff"/>
 <circle cx="27.063" r=".57" cy="5.544" fill="#fff"/>
 <circle cx="27" r=".57" cy="2.669" fill="#fff"/>
 <circle cx="32.169" r=".57" cy="4.188" fill="#fff"/>
 <circle cx="30.813" r=".57" cy="1.732" fill="#fff"/>
 <circle cx="29.5" r=".57" cy="4.169" fill="#fff"/>
 <circle cx="30.75" r=".57" cy="6.919" fill="#fff"/>
 <circle cx="28" r=".57" cy="8.357" fill="#fff"/>
 <path d="M27.43 0c0 .3.26.57.57.57s.57-.25.57-.57" fill="#fff"/>
 <path d="M33.5.57c-.32 0-.58-.26-.58-.57h.57v.57zM-.03 17.3c.32 0 .57-.25.57-.57s-.25-.57-.57-.57M33.5 16.16c-.3 0-.56.26-.56.57s.25.57.57.57" fill="#fff"/>
 <circle cx="1.938" r=".57" cy="13.919" fill="#fff"/>
 <circle cx="1.875" r=".57" cy="11.044" fill="#fff"/>
 <circle cx="7.044" r=".57" cy="12.563" fill="#fff"/>
 <circle cx="5.688" r=".57" cy="10.107" fill="#fff"/>
 <circle cx="4.375" r=".57" cy="12.544" fill="#fff"/>
 <circle cx="5.625" r=".57" cy="15.294" fill="#fff"/>
 <circle cx="2.875" r=".57" cy="16.732" fill="#fff"/>
 <circle cx="8.375" r=".57" cy="16.669" fill="#fff"/>
 <circle cx="10.313" r=".57" cy="13.919" fill="#fff"/>
 <circle cx="10.25" r=".57" cy="11.044" fill="#fff"/>
 <circle cx="15.419" r=".57" cy="12.563" fill="#fff"/>
 <circle cx="14.063" r=".57" cy="10.107" fill="#fff"/>
 <circle cx="12.75" r=".57" cy="12.544" fill="#fff"/>
 <circle cx="14" r=".57" cy="15.294" fill="#fff"/>
 <circle cx="11.25" r=".57" cy="16.732" fill="#fff"/>
 <circle cx="18.688" r=".57" cy="13.919" fill="#fff"/>
 <circle cx="18.625" r=".57" cy="11.044" fill="#fff"/>
 <circle cx="23.794" r=".57" cy="12.563" fill="#fff"/>
 <circle cx="22.438" r=".57" cy="10.107" fill="#fff"/>
 <circle cx="21.125" r=".57" cy="12.544" fill="#fff"/>
 <circle cx="22.375" r=".57" cy="15.294" fill="#fff"/>
 <circle cx="19.625" r=".57" cy="16.732" fill="#fff"/>
 <circle cx="25.125" r=".57" cy="16.669" fill="#fff"/>
 <circle cx="27.063" r=".57" cy="13.919" fill="#fff"/>
 <circle cx="27" r=".57" cy="11.044" fill="#fff"/>
 <circle cx="32.169" r=".57" cy="12.563" fill="#fff"/>
 <circle cx="30.813" r=".57" cy="10.107" fill="#fff"/>
 <circle cx="29.5" r=".57" cy="12.544" fill="#fff"/>
 <circle cx="30.75" r=".57" cy="15.294" fill="#fff"/>
 <circle cx="28" r=".57" cy="16.732" fill="#fff"/>
 <path d="M-.03 25.68c.32 0 .57-.26.57-.57s-.25-.56-.57-.56M33.5 24.54c-.3 0-.56.25-.56.57s.25.58.57.58" fill="#fff"/>
 <circle cx="1.938" r=".57" cy="22.294" fill="#fff"/>
 <circle cx="1.875" r=".57" cy="19.419" fill="#fff"/>
 <circle cx="7.044" r=".57" cy="20.938" fill="#fff"/>
 <circle cx="5.688" r=".57" cy="18.482" fill="#fff"/>
 <circle cx="4.375" r=".57" cy="20.919" fill="#fff"/>
 <circle cx="5.625" r=".57" cy="23.669" fill="#fff"/>
 <circle cx="2.875" r=".57" cy="25.107" fill="#fff"/>
 <circle cx="8.375" r=".57" cy="25.044" fill="#fff"/>
 <circle cx="10.313" r=".57" cy="22.294" fill="#fff"/>
 <circle cx="10.25" r=".57" cy="19.419" fill="#fff"/>
 <circle cx="15.419" r=".57" cy="20.938" fill="#fff"/>
 <circle cx="14.063" r=".57" cy="18.482" fill="#fff"/>
 <circle cx="12.75" r=".57" cy="20.919" fill="#fff"/>
 <circle cx="14" r=".57" cy="23.669" fill="#fff"/>
 <circle cx="11.25" r=".57" cy="25.107" fill="#fff"/>
 <circle cx="16.75" r=".57" cy="25.044" fill="#fff"/>
 <circle cx="16.75" r=".57" cy="16.794" fill="#fff"/>
 <circle cx="18.688" r=".57" cy="22.294" fill="#fff"/>
 <circle cx="18.625" r=".57" cy="19.419" fill="#fff"/>
 <circle cx="23.794" r=".57" cy="20.938" fill="#fff"/>
 <circle cx="22.438" r=".57" cy="18.482" fill="#fff"/>
 <circle cx="21.125" r=".57" cy="20.919" fill="#fff"/>
 <circle cx="22.375" r=".57" cy="23.669" fill="#fff"/>
 <circle cx="19.625" r=".57" cy="25.107" fill="#fff"/>
 <circle cx="25.125" r=".57" cy="25.044" fill="#fff"/>
 <circle cx="27.063" r=".57" cy="22.294" fill="#fff"/>
 <circle cx="27" r=".57" cy="19.419" fill="#fff"/>
 <circle cx="32.169" r=".57" cy="20.938" fill="#fff"/>
 <circle cx="30.813" r=".57" cy="18.482" fill="#fff"/>
 <circle cx="29.5" r=".57" cy="20.919" fill="#fff"/>
 <circle cx="30.75" r=".57" cy="23.669" fill="#fff"/>
 <path d="M0 32.92c.3 0 .56.26.56.57H0v-.58zM33.5 32.94c-.3 0-.56.25-.56.57h.57v-.56z" fill="#fff"/>
 <circle cx="1.938" r=".57" cy="30.669" fill="#fff"/>
 <circle cx="1.875" r=".57" cy="27.794" fill="#fff"/>
 <circle cx="7.044" r=".57" cy="29.313" fill="#fff"/>
 <circle cx="5.688" r=".57" cy="26.857" fill="#fff"/>
 <circle cx="4.375" r=".57" cy="29.294" fill="#fff"/>
 <circle cx="5.625" r=".57" cy="32.044" fill="#fff"/>
 <path d="M3.44 33.5c0-.3-.25-.56-.57-.56s-.57.25-.57.57M8.95 33.5c0-.32-.26-.57-.57-.57s-.58.26-.58.57" fill="#fff"/>
 <circle cx="10.313" r=".57" cy="30.669" fill="#fff"/>
 <circle cx="10.25" r=".57" cy="27.794" fill="#fff"/>
 <circle cx="15.419" r=".57" cy="29.313" fill="#fff"/>
 <circle cx="14.063" r=".57" cy="26.857" fill="#fff"/>
 <circle cx="12.75" r=".57" cy="29.294" fill="#fff"/>
 <circle cx="14" r=".57" cy="32.044" fill="#fff"/>
 <path d="M11.82 33.5c0-.3-.26-.56-.57-.56s-.57.25-.57.57" fill="#fff"/>
 <circle cx="18.688" r=".57" cy="30.669" fill="#fff"/>
 <circle cx="18.625" r=".57" cy="27.794" fill="#fff"/>
 <circle cx="23.794" r=".57" cy="29.313" fill="#fff"/>
 <circle cx="22.438" r=".57" cy="26.857" fill="#fff"/>
 <circle cx="21.125" r=".57" cy="29.294" fill="#fff"/>
 <circle cx="22.375" r=".57" cy="32.044" fill="#fff"/>
 <path d="M20.2 33.5c0-.3-.26-.56-.57-.56s-.57.25-.57.57M25.7 33.5c0-.32-.26-.57-.57-.57s-.57.26-.57.57" fill="#fff"/>
 <circle cx="27.063" r=".57" cy="30.669" fill="#fff"/>
 <circle cx="27" r=".57" cy="27.794" fill="#fff"/>
 <circle cx="32.169" r=".57" cy="29.313" fill="#fff"/>
 <circle cx="30.813" r=".57" cy="26.857" fill="#fff"/>
 <circle cx="29.5" r=".57" cy="29.294" fill="#fff"/>
 <circle cx="30.75" r=".57" cy="32.044" fill="#fff"/>
 <path d="M28.57 33.5c0-.3-.26-.56-.57-.56s-.57.25-.57.57" fill="#fff"/>
 <circle cx="28" r=".57" cy="25.169" fill="#fff"/>
</svg>
