<?xml version="1.0"?>
<!-- Converted with SVG Converter - Version 0.9.5 (Compiled Fri Feb 21 09:53:38 2020) - Copyright (C) 2011 Nokia -->
<svg xmlns="http://www.w3.org/2000/svg" height="39.737" baseProfile="tiny" width="39.737" xmlns:xlink="http://www.w3.org/1999/xlink">
 <defs>
  <path id="a" d="M0 0h39.74v39.74H0z"/>
 </defs>
 <circle cx="3.331" fill="#EC008C" cy="1.318" r=".607"/>
 <circle cx="3.331" fill="#EC008C" cy="5.224" r=".607"/>
 <path fill="#EC008C" d="M0 2.74c.35 0 .62-.27.62-.6S.35 1.5.02 1.5"/>
 <circle cx="6.617" fill="#EC008C" cy="2.131" r=".607"/>
 <circle cx="6.617" fill="#EC008C" cy="4.407" r=".607"/>
 <path fill="#EC008C" d="M.02 5c.33 0 .6-.26.6-.6s-.27-.6-.6-.6"/>
 <circle cx="4.549" fill="#EC008C" cy="3.318" r=".607"/>
 <circle cx="2.049" fill="#EC008C" cy="3.318" r=".607"/>
 <path fill="#EC008C" d="M4.76 0c0 .35.27.62.6.62s.6-.27.6-.6"/>
 <circle cx="5.367" fill="#EC008C" cy="6.595" r=".607"/>
 <path fill="#EC008C" d="M.7 0c0 .35.27.62.6.62s.6-.27.6-.6"/>
 <circle cx="1.304" fill="#EC008C" cy="6.599" r=".607"/>
 <circle cx="9.956" fill="#EC008C" cy="1.318" r=".607"/>
 <circle cx="9.956" fill="#EC008C" cy="5.224" r=".607"/>
 <circle cx="13.242" fill="#EC008C" cy="2.131" r=".607"/>
 <circle cx="13.242" fill="#EC008C" cy="4.407" r=".607"/>
 <circle cx="6.617" fill="#EC008C" cy="4.407" r=".607"/>
 <circle cx="11.174" fill="#EC008C" cy="3.318" r=".607"/>
 <circle cx="8.674" fill="#EC008C" cy="3.318" r=".607"/>
 <path fill="#EC008C" d="M11.38 0c0 .35.28.62.6.62s.62-.27.62-.6"/>
 <circle cx="11.992" fill="#EC008C" cy="6.595" r=".607"/>
 <path fill="#EC008C" d="M7.32 0c0 .35.27.62.6.62s.62-.27.62-.6"/>
 <circle cx="7.929" fill="#EC008C" cy="6.599" r=".607"/>
 <circle cx="16.581" fill="#EC008C" cy="1.318" r=".607"/>
 <circle cx="16.581" fill="#EC008C" cy="5.224" r=".607"/>
 <circle cx="19.867" fill="#EC008C" cy="2.131" r=".607"/>
 <circle cx="19.867" fill="#EC008C" cy="4.407" r=".607"/>
 <circle cx="13.242" fill="#EC008C" cy="4.407" r=".607"/>
 <circle cx="17.799" fill="#EC008C" cy="3.318" r=".607"/>
 <circle cx="15.299" fill="#EC008C" cy="3.318" r=".607"/>
 <path fill="#EC008C" d="M18 0c0 .35.28.62.62.62s.6-.27.6-.6"/>
 <circle cx="18.617" fill="#EC008C" cy="6.595" r=".607"/>
 <path fill="#EC008C" d="M13.95 0c0 .35.27.62.6.62s.6-.27.6-.6"/>
 <circle cx="14.554" fill="#EC008C" cy="6.599" r=".607"/>
 <circle cx="23.206" fill="#EC008C" cy="1.318" r=".607"/>
 <circle cx="23.206" fill="#EC008C" cy="5.224" r=".607"/>
 <circle cx="26.492" fill="#EC008C" cy="2.131" r=".607"/>
 <circle cx="26.492" fill="#EC008C" cy="4.407" r=".607"/>
 <circle cx="19.867" fill="#EC008C" cy="4.407" r=".607"/>
 <circle cx="24.424" fill="#EC008C" cy="3.318" r=".607"/>
 <circle cx="21.924" fill="#EC008C" cy="3.318" r=".607"/>
 <path fill="#EC008C" d="M24.63 0c0 .35.28.62.6.62s.62-.27.62-.6"/>
 <circle cx="25.242" fill="#EC008C" cy="6.595" r=".607"/>
 <path fill="#EC008C" d="M20.57 0c0 .35.27.62.6.62s.62-.27.62-.6"/>
 <circle cx="21.179" fill="#EC008C" cy="6.599" r=".607"/>
 <circle cx="29.831" fill="#EC008C" cy="1.318" r=".607"/>
 <circle cx="29.831" fill="#EC008C" cy="5.224" r=".607"/>
 <circle cx="33.117" fill="#EC008C" cy="2.131" r=".607"/>
 <circle cx="33.117" fill="#EC008C" cy="4.407" r=".607"/>
 <circle cx="26.492" fill="#EC008C" cy="4.407" r=".607"/>
 <circle cx="31.049" fill="#EC008C" cy="3.318" r=".607"/>
 <circle cx="28.549" fill="#EC008C" cy="3.318" r=".607"/>
 <path fill="#EC008C" d="M31.26 0c0 .35.27.62.6.62s.6-.27.6-.6"/>
 <circle cx="31.867" fill="#EC008C" cy="6.595" r=".607"/>
 <path fill="#EC008C" d="M27.2 0c0 .35.27.62.6.62s.6-.27.6-.6"/>
 <circle cx="27.804" fill="#EC008C" cy="6.599" r=".607"/>
 <circle cx="36.456" fill="#EC008C" cy="1.318" r=".607"/>
 <circle cx="36.456" fill="#EC008C" cy="5.224" r=".607"/>
 <path fill="#EC008C" d="M39.72 1.52c-.34 0-.6.27-.6.6s.26.62.6.62M39.72 3.8c-.34 0-.6.27-.6.6s.26.6.6.6"/>
 <circle cx="33.117" fill="#EC008C" cy="4.407" r=".607"/>
 <circle cx="37.674" fill="#EC008C" cy="3.318" r=".607"/>
 <circle cx="35.174" fill="#EC008C" cy="3.318" r=".607"/>
 <path fill="#EC008C" d="M37.88 0c0 .35.28.62.6.62s.62-.27.62-.6"/>
 <circle cx="38.492" fill="#EC008C" cy="6.595" r=".607"/>
 <path fill="#EC008C" d="M33.82 0c0 .35.27.62.6.62s.62-.27.62-.6"/>
 <circle cx="34.429" fill="#EC008C" cy="6.599" r=".607"/>
 <circle cx="3.331" fill="#EC008C" cy="7.943" r=".607"/>
 <circle cx="3.331" fill="#EC008C" cy="11.849" r=".607"/>
 <path fill="#EC008C" d="M0 9.36c.35 0 .62-.27.62-.6s-.27-.6-.6-.6"/>
 <circle cx="6.617" fill="#EC008C" cy="8.756" r=".607"/>
 <circle cx="6.617" fill="#EC008C" cy="11.032" r=".607"/>
 <path fill="#EC008C" d="M0 11.64c.34 0 .6-.27.6-.6s-.26-.6-.6-.6"/>
 <circle cx="4.549" fill="#EC008C" cy="9.943" r=".607"/>
 <circle cx="2.049" fill="#EC008C" cy="9.943" r=".607"/>
 <circle cx="5.367" fill="#EC008C" cy="13.22" r=".607"/>
 <circle cx="1.304" fill="#EC008C" cy="13.224" r=".607"/>
 <circle cx="9.956" fill="#EC008C" cy="7.943" r=".607"/>
 <circle cx="9.956" fill="#EC008C" cy="11.849" r=".607"/>
 <circle cx="13.242" fill="#EC008C" cy="8.756" r=".607"/>
 <circle cx="13.242" fill="#EC008C" cy="11.032" r=".607"/>
 <circle cx="6.617" fill="#EC008C" cy="11.032" r=".607"/>
 <circle cx="11.174" fill="#EC008C" cy="9.943" r=".607"/>
 <circle cx="8.674" fill="#EC008C" cy="9.943" r=".607"/>
 <circle cx="11.992" fill="#EC008C" cy="13.22" r=".607"/>
 <circle cx="7.929" fill="#EC008C" cy="13.224" r=".607"/>
 <circle cx="16.581" fill="#EC008C" cy="7.943" r=".607"/>
 <circle cx="16.581" fill="#EC008C" cy="11.849" r=".607"/>
 <circle cx="19.867" fill="#EC008C" cy="8.756" r=".607"/>
 <circle cx="19.867" fill="#EC008C" cy="11.032" r=".607"/>
 <circle cx="13.242" fill="#EC008C" cy="11.032" r=".607"/>
 <circle cx="17.799" fill="#EC008C" cy="9.943" r=".607"/>
 <circle cx="15.299" fill="#EC008C" cy="9.943" r=".607"/>
 <circle cx="18.617" fill="#EC008C" cy="13.22" r=".607"/>
 <circle cx="14.554" fill="#EC008C" cy="13.224" r=".607"/>
 <circle cx="23.206" fill="#EC008C" cy="7.943" r=".607"/>
 <circle cx="23.206" fill="#EC008C" cy="11.849" r=".607"/>
 <circle cx="26.492" fill="#EC008C" cy="8.756" r=".607"/>
 <circle cx="26.492" fill="#EC008C" cy="11.032" r=".607"/>
 <circle cx="19.867" fill="#EC008C" cy="11.032" r=".607"/>
 <circle cx="24.424" fill="#EC008C" cy="9.943" r=".607"/>
 <circle cx="21.924" fill="#EC008C" cy="9.943" r=".607"/>
 <circle cx="25.242" fill="#EC008C" cy="13.22" r=".607"/>
 <circle cx="21.179" fill="#EC008C" cy="13.224" r=".607"/>
 <circle cx="29.831" fill="#EC008C" cy="7.943" r=".607"/>
 <circle cx="29.831" fill="#EC008C" cy="11.849" r=".607"/>
 <circle cx="33.117" fill="#EC008C" cy="8.756" r=".607"/>
 <circle cx="33.117" fill="#EC008C" cy="11.032" r=".607"/>
 <circle cx="26.492" fill="#EC008C" cy="11.032" r=".607"/>
 <circle cx="31.049" fill="#EC008C" cy="9.943" r=".607"/>
 <circle cx="28.549" fill="#EC008C" cy="9.943" r=".607"/>
 <circle cx="31.867" fill="#EC008C" cy="13.22" r=".607"/>
 <circle cx="27.804" fill="#EC008C" cy="13.224" r=".607"/>
 <circle cx="36.456" fill="#EC008C" cy="7.943" r=".607"/>
 <circle cx="36.456" fill="#EC008C" cy="11.849" r=".607"/>
 <path fill="#EC008C" d="M39.72 8.15c-.34 0-.6.27-.6.6s.26.6.6.6M39.72 10.43c-.34 0-.6.27-.6.6s.26.6.6.6"/>
 <circle cx="33.117" fill="#EC008C" cy="11.032" r=".607"/>
 <circle cx="37.674" fill="#EC008C" cy="9.943" r=".607"/>
 <circle cx="35.174" fill="#EC008C" cy="9.943" r=".607"/>
 <circle cx="38.492" fill="#EC008C" cy="13.22" r=".607"/>
 <circle cx="34.429" fill="#EC008C" cy="13.224" r=".607"/>
 <circle cx="3.331" fill="#EC008C" cy="14.568" r=".607"/>
 <circle cx="3.331" fill="#EC008C" cy="18.474" r=".607"/>
 <path fill="#EC008C" d="M0 16c.33 0 .6-.28.6-.62s-.27-.6-.6-.6"/>
 <circle cx="6.617" fill="#EC008C" cy="15.381" r=".607"/>
 <circle cx="6.617" fill="#EC008C" cy="17.657" r=".607"/>
 <path fill="#EC008C" d="M.02 18.27c.33 0 .6-.28.6-.6s-.27-.62-.6-.62"/>
 <circle cx="4.549" fill="#EC008C" cy="16.568" r=".607"/>
 <circle cx="2.049" fill="#EC008C" cy="16.568" r=".607"/>
 <circle cx="5.367" fill="#EC008C" cy="19.845" r=".607"/>
 <circle cx="1.304" fill="#EC008C" cy="19.849" r=".607"/>
 <circle cx="9.956" fill="#EC008C" cy="14.568" r=".607"/>
 <circle cx="9.956" fill="#EC008C" cy="18.474" r=".607"/>
 <circle cx="13.242" fill="#EC008C" cy="15.381" r=".607"/>
 <circle cx="13.242" fill="#EC008C" cy="17.657" r=".607"/>
 <circle cx="6.617" fill="#EC008C" cy="17.657" r=".607"/>
 <circle cx="11.174" fill="#EC008C" cy="16.568" r=".607"/>
 <circle cx="8.674" fill="#EC008C" cy="16.568" r=".607"/>
 <circle cx="11.992" fill="#EC008C" cy="19.845" r=".607"/>
 <circle cx="7.929" fill="#EC008C" cy="19.849" r=".607"/>
 <circle cx="16.581" fill="#EC008C" cy="14.568" r=".607"/>
 <circle cx="16.581" fill="#EC008C" cy="18.474" r=".607"/>
 <circle cx="19.867" fill="#EC008C" cy="15.381" r=".607"/>
 <circle cx="19.867" fill="#EC008C" cy="17.657" r=".607"/>
 <circle cx="13.242" fill="#EC008C" cy="17.657" r=".607"/>
 <circle cx="17.799" fill="#EC008C" cy="16.568" r=".607"/>
 <circle cx="15.299" fill="#EC008C" cy="16.568" r=".607"/>
 <circle cx="18.617" fill="#EC008C" cy="19.845" r=".607"/>
 <circle cx="14.554" fill="#EC008C" cy="19.849" r=".607"/>
 <circle cx="23.206" fill="#EC008C" cy="14.568" r=".607"/>
 <circle cx="23.206" fill="#EC008C" cy="18.474" r=".607"/>
 <circle cx="26.492" fill="#EC008C" cy="15.381" r=".607"/>
 <circle cx="26.492" fill="#EC008C" cy="17.657" r=".607"/>
 <circle cx="19.867" fill="#EC008C" cy="17.657" r=".607"/>
 <circle cx="24.424" fill="#EC008C" cy="16.568" r=".607"/>
 <circle cx="21.924" fill="#EC008C" cy="16.568" r=".607"/>
 <circle cx="25.242" fill="#EC008C" cy="19.845" r=".607"/>
 <circle cx="21.179" fill="#EC008C" cy="19.849" r=".607"/>
 <circle cx="29.831" fill="#EC008C" cy="14.568" r=".607"/>
 <circle cx="29.831" fill="#EC008C" cy="18.474" r=".607"/>
 <circle cx="33.117" fill="#EC008C" cy="15.381" r=".607"/>
 <circle cx="33.117" fill="#EC008C" cy="17.657" r=".607"/>
 <circle cx="26.492" fill="#EC008C" cy="17.657" r=".607"/>
 <circle cx="31.049" fill="#EC008C" cy="16.568" r=".607"/>
 <circle cx="28.549" fill="#EC008C" cy="16.568" r=".607"/>
 <circle cx="31.867" fill="#EC008C" cy="19.845" r=".607"/>
 <circle cx="27.804" fill="#EC008C" cy="19.849" r=".607"/>
 <circle cx="36.456" fill="#EC008C" cy="14.568" r=".607"/>
 <circle cx="36.456" fill="#EC008C" cy="18.474" r=".607"/>
 <path fill="#EC008C" d="M39.73 14.77c-.33 0-.6.28-.6.6s.27.62.6.62M39.73 17.05c-.33 0-.6.27-.6.6s.27.6.6.6"/>
 <circle cx="33.117" fill="#EC008C" cy="17.657" r=".607"/>
 <circle cx="37.674" fill="#EC008C" cy="16.568" r=".607"/>
 <circle cx="35.174" fill="#EC008C" cy="16.568" r=".607"/>
 <circle cx="38.492" fill="#EC008C" cy="19.845" r=".607"/>
 <circle cx="34.429" fill="#EC008C" cy="19.849" r=".607"/>
 <circle cx="3.331" fill="#EC008C" cy="21.193" r=".607"/>
 <circle cx="3.331" fill="#EC008C" cy="25.099" r=".607"/>
 <path fill="#EC008C" d="M.03 22.6c.33 0 .6-.26.6-.6s-.27-.6-.6-.6"/>
 <circle cx="6.617" fill="#EC008C" cy="22.006" r=".607"/>
 <circle cx="6.617" fill="#EC008C" cy="24.282" r=".607"/>
 <path fill="#EC008C" d="M.02 24.9c.34 0 .6-.28.6-.62s-.26-.6-.6-.6"/>
 <circle cx="4.549" fill="#EC008C" cy="23.193" r=".607"/>
 <circle cx="2.049" fill="#EC008C" cy="23.193" r=".607"/>
 <circle cx="5.367" fill="#EC008C" cy="26.47" r=".607"/>
 <circle cx="1.304" fill="#EC008C" cy="26.474" r=".607"/>
 <circle cx="9.956" fill="#EC008C" cy="21.193" r=".607"/>
 <circle cx="9.956" fill="#EC008C" cy="25.099" r=".607"/>
 <circle cx="13.242" fill="#EC008C" cy="22.006" r=".607"/>
 <circle cx="13.242" fill="#EC008C" cy="24.282" r=".607"/>
 <circle cx="6.617" fill="#EC008C" cy="24.282" r=".607"/>
 <circle cx="11.174" fill="#EC008C" cy="23.193" r=".607"/>
 <circle cx="8.674" fill="#EC008C" cy="23.193" r=".607"/>
 <circle cx="11.992" fill="#EC008C" cy="26.47" r=".607"/>
 <circle cx="7.929" fill="#EC008C" cy="26.474" r=".607"/>
 <circle cx="16.581" fill="#EC008C" cy="21.193" r=".607"/>
 <circle cx="16.581" fill="#EC008C" cy="25.099" r=".607"/>
 <circle cx="19.867" fill="#EC008C" cy="22.006" r=".607"/>
 <circle cx="19.867" fill="#EC008C" cy="24.282" r=".607"/>
 <circle cx="13.242" fill="#EC008C" cy="24.282" r=".607"/>
 <circle cx="17.799" fill="#EC008C" cy="23.193" r=".607"/>
 <circle cx="15.299" fill="#EC008C" cy="23.193" r=".607"/>
 <circle cx="18.617" fill="#EC008C" cy="26.47" r=".607"/>
 <circle cx="14.554" fill="#EC008C" cy="26.474" r=".607"/>
 <circle cx="23.206" fill="#EC008C" cy="21.193" r=".607"/>
 <circle cx="23.206" fill="#EC008C" cy="25.099" r=".607"/>
 <circle cx="26.492" fill="#EC008C" cy="22.006" r=".607"/>
 <circle cx="26.492" fill="#EC008C" cy="24.282" r=".607"/>
 <circle cx="19.867" fill="#EC008C" cy="24.282" r=".607"/>
 <circle cx="24.424" fill="#EC008C" cy="23.193" r=".607"/>
 <circle cx="21.924" fill="#EC008C" cy="23.193" r=".607"/>
 <circle cx="25.242" fill="#EC008C" cy="26.47" r=".607"/>
 <circle cx="21.179" fill="#EC008C" cy="26.474" r=".607"/>
 <circle cx="29.831" fill="#EC008C" cy="21.193" r=".607"/>
 <circle cx="29.831" fill="#EC008C" cy="25.099" r=".607"/>
 <circle cx="33.117" fill="#EC008C" cy="22.006" r=".607"/>
 <circle cx="33.117" fill="#EC008C" cy="24.282" r=".607"/>
 <circle cx="26.492" fill="#EC008C" cy="24.282" r=".607"/>
 <circle cx="31.049" fill="#EC008C" cy="23.193" r=".607"/>
 <circle cx="28.549" fill="#EC008C" cy="23.193" r=".607"/>
 <circle cx="31.867" fill="#EC008C" cy="26.47" r=".607"/>
 <circle cx="27.804" fill="#EC008C" cy="26.474" r=".607"/>
 <circle cx="36.456" fill="#EC008C" cy="21.193" r=".607"/>
 <circle cx="36.456" fill="#EC008C" cy="25.099" r=".607"/>
 <path fill="#EC008C" d="M39.73 21.4c-.33 0-.6.27-.6.6s.27.6.6.6M39.73 23.68c-.33 0-.6.27-.6.6s.27.6.6.6"/>
 <circle cx="33.117" fill="#EC008C" cy="24.282" r=".607"/>
 <circle cx="37.674" fill="#EC008C" cy="23.193" r=".607"/>
 <circle cx="35.174" fill="#EC008C" cy="23.193" r=".607"/>
 <circle cx="38.492" fill="#EC008C" cy="26.47" r=".607"/>
 <circle cx="34.429" fill="#EC008C" cy="26.474" r=".607"/>
 <circle cx="3.331" fill="#EC008C" cy="27.818" r=".607"/>
 <circle cx="3.331" fill="#EC008C" cy="31.724" r=".607"/>
 <path fill="#EC008C" d="M0 29.24c.35 0 .62-.27.62-.6S.35 28 .02 28"/>
 <circle cx="6.617" fill="#EC008C" cy="28.631" r=".607"/>
 <circle cx="6.617" fill="#EC008C" cy="30.907" r=".607"/>
 <path fill="#EC008C" d="M.02 31.52c.33 0 .6-.28.6-.6s-.27-.62-.6-.62"/>
 <circle cx="4.549" fill="#EC008C" cy="29.818" r=".607"/>
 <circle cx="2.049" fill="#EC008C" cy="29.818" r=".607"/>
 <circle cx="5.367" fill="#EC008C" cy="33.095" r=".607"/>
 <circle cx="9.956" fill="#EC008C" cy="27.818" r=".607"/>
 <circle cx="9.956" fill="#EC008C" cy="31.724" r=".607"/>
 <circle cx="13.242" fill="#EC008C" cy="28.631" r=".607"/>
 <circle cx="13.242" fill="#EC008C" cy="30.907" r=".607"/>
 <circle cx="6.617" fill="#EC008C" cy="30.907" r=".607"/>
 <circle cx="11.174" fill="#EC008C" cy="29.818" r=".607"/>
 <circle cx="8.674" fill="#EC008C" cy="29.818" r=".607"/>
 <circle cx="11.992" fill="#EC008C" cy="33.095" r=".607"/>
 <circle cx="7.929" fill="#EC008C" cy="33.099" r=".607"/>
 <circle cx="16.581" fill="#EC008C" cy="27.818" r=".607"/>
 <circle cx="16.581" fill="#EC008C" cy="31.724" r=".607"/>
 <circle cx="19.867" fill="#EC008C" cy="28.631" r=".607"/>
 <circle cx="19.867" fill="#EC008C" cy="30.907" r=".607"/>
 <circle cx="13.242" fill="#EC008C" cy="30.907" r=".607"/>
 <circle cx="17.799" fill="#EC008C" cy="29.818" r=".607"/>
 <circle cx="15.299" fill="#EC008C" cy="29.818" r=".607"/>
 <circle cx="18.617" fill="#EC008C" cy="33.095" r=".607"/>
 <circle cx="23.206" fill="#EC008C" cy="27.818" r=".607"/>
 <circle cx="23.206" fill="#EC008C" cy="31.724" r=".607"/>
 <circle cx="26.492" fill="#EC008C" cy="28.631" r=".607"/>
 <circle cx="26.492" fill="#EC008C" cy="30.907" r=".607"/>
 <circle cx="19.867" fill="#EC008C" cy="30.907" r=".607"/>
 <circle cx="24.424" fill="#EC008C" cy="29.818" r=".607"/>
 <circle cx="21.924" fill="#EC008C" cy="29.818" r=".607"/>
 <circle cx="25.242" fill="#EC008C" cy="33.095" r=".607"/>
 <circle cx="21.179" fill="#EC008C" cy="33.099" r=".607"/>
 <circle cx="29.831" fill="#EC008C" cy="27.818" r=".607"/>
 <circle cx="29.831" fill="#EC008C" cy="31.724" r=".607"/>
 <circle cx="33.117" fill="#EC008C" cy="28.631" r=".607"/>
 <circle cx="33.117" fill="#EC008C" cy="30.907" r=".607"/>
 <circle cx="26.492" fill="#EC008C" cy="30.907" r=".607"/>
 <circle cx="31.049" fill="#EC008C" cy="29.818" r=".607"/>
 <circle cx="28.549" fill="#EC008C" cy="29.818" r=".607"/>
 <circle cx="31.867" fill="#EC008C" cy="33.095" r=".607"/>
 <circle cx="27.804" fill="#EC008C" cy="33.099" r=".607"/>
 <circle cx="36.456" fill="#EC008C" cy="27.818" r=".607"/>
 <circle cx="36.456" fill="#EC008C" cy="31.724" r=".607"/>
 <path fill="#EC008C" d="M39.73 28.02c-.33 0-.6.28-.6.6s.27.62.6.62M39.73 30.3c-.34 0-.6.27-.6.6s.26.6.6.6"/>
 <circle cx="33.117" fill="#EC008C" cy="30.907" r=".607"/>
 <circle cx="37.674" fill="#EC008C" cy="29.818" r=".607"/>
 <circle cx="35.174" fill="#EC008C" cy="29.818" r=".607"/>
 <circle cx="38.492" fill="#EC008C" cy="33.095" r=".607"/>
 <circle cx="34.429" fill="#EC008C" cy="33.099" r=".607"/>
 <circle cx="3.331" fill="#EC008C" cy="34.443" r=".607"/>
 <circle cx="3.331" fill="#EC008C" cy="38.349" r=".607"/>
 <path fill="#EC008C" d="M0 35.86c.35 0 .62-.27.62-.6s-.27-.6-.6-.6"/>
 <circle cx="6.617" fill="#EC008C" cy="35.256" r=".607"/>
 <circle cx="6.617" fill="#EC008C" cy="37.532" r=".607"/>
 <path fill="#EC008C" d="M0 38.14c.34 0 .6-.27.6-.6s-.26-.6-.6-.6"/>
 <circle cx="4.549" fill="#EC008C" cy="36.443" r=".607"/>
 <circle cx="2.049" fill="#EC008C" cy="36.443" r=".607"/>
 <path fill="#EC008C" d="M5.97 39.73c0-.34-.27-.6-.6-.6s-.6.26-.6.6"/>
 <circle cx="1.304" fill="#EC008C" cy="33.157" r=".607"/>
 <path fill="#EC008C" d="M1.9 39.73c0-.34-.26-.6-.6-.6s-.6.26-.6.6"/>
 <circle cx="9.956" fill="#EC008C" cy="34.443" r=".607"/>
 <circle cx="9.956" fill="#EC008C" cy="38.349" r=".607"/>
 <circle cx="13.242" fill="#EC008C" cy="35.256" r=".607"/>
 <circle cx="13.242" fill="#EC008C" cy="37.532" r=".607"/>
 <circle cx="6.617" fill="#EC008C" cy="37.532" r=".607"/>
 <circle cx="11.174" fill="#EC008C" cy="36.443" r=".607"/>
 <circle cx="8.674" fill="#EC008C" cy="36.443" r=".607"/>
 <path fill="#EC008C" d="M12.6 39.73c0-.34-.27-.6-.6-.6s-.6.26-.6.6M8.54 39.73c0-.34-.27-.6-.6-.6s-.62.26-.62.6"/>
 <circle cx="16.581" fill="#EC008C" cy="34.443" r=".607"/>
 <circle cx="16.581" fill="#EC008C" cy="38.349" r=".607"/>
 <circle cx="19.867" fill="#EC008C" cy="35.256" r=".607"/>
 <circle cx="19.867" fill="#EC008C" cy="37.532" r=".607"/>
 <circle cx="13.242" fill="#EC008C" cy="37.532" r=".607"/>
 <circle cx="17.799" fill="#EC008C" cy="36.443" r=".607"/>
 <circle cx="15.299" fill="#EC008C" cy="36.443" r=".607"/>
 <path fill="#EC008C" d="M19.22 39.73c0-.34-.27-.6-.6-.6s-.6.26-.6.6"/>
 <circle cx="14.554" fill="#EC008C" cy="33.157" r=".607"/>
 <path fill="#EC008C" d="M15.16 39.73c0-.34-.27-.6-.6-.6s-.6.26-.6.6"/>
 <circle cx="23.206" fill="#EC008C" cy="34.443" r=".607"/>
 <circle cx="23.206" fill="#EC008C" cy="38.349" r=".607"/>
 <circle cx="26.492" fill="#EC008C" cy="35.256" r=".607"/>
 <circle cx="26.492" fill="#EC008C" cy="37.532" r=".607"/>
 <circle cx="19.867" fill="#EC008C" cy="37.532" r=".607"/>
 <circle cx="24.424" fill="#EC008C" cy="36.443" r=".607"/>
 <circle cx="21.924" fill="#EC008C" cy="36.443" r=".607"/>
 <path fill="#EC008C" d="M25.85 39.73c0-.34-.27-.6-.6-.6s-.6.26-.6.6M21.8 39.73c0-.34-.28-.6-.62-.6s-.6.26-.6.6"/>
 <circle cx="29.831" fill="#EC008C" cy="34.443" r=".607"/>
 <circle cx="29.831" fill="#EC008C" cy="38.349" r=".607"/>
 <circle cx="33.117" fill="#EC008C" cy="35.256" r=".607"/>
 <circle cx="33.117" fill="#EC008C" cy="37.532" r=".607"/>
 <circle cx="26.492" fill="#EC008C" cy="37.532" r=".607"/>
 <circle cx="31.049" fill="#EC008C" cy="36.443" r=".607"/>
 <circle cx="28.549" fill="#EC008C" cy="36.443" r=".607"/>
 <path fill="#EC008C" d="M32.47 39.73c0-.34-.27-.6-.6-.6s-.6.26-.6.6M28.4 39.73c0-.34-.26-.6-.6-.6s-.6.26-.6.6"/>
 <circle cx="36.456" fill="#EC008C" cy="34.443" r=".607"/>
 <circle cx="36.456" fill="#EC008C" cy="38.349" r=".607"/>
 <path fill="#EC008C" d="M39.73 34.65c-.34 0-.6.27-.6.6s.26.6.6.6M39.73 36.92c-.34 0-.6.28-.6.6s.26.62.6.62"/>
 <circle cx="33.117" fill="#EC008C" cy="37.532" r=".607"/>
 <circle cx="37.674" fill="#EC008C" cy="36.443" r=".607"/>
 <circle cx="35.174" fill="#EC008C" cy="36.443" r=".607"/>
 <path fill="#EC008C" d="M39.1 39.73c0-.34-.27-.6-.6-.6s-.62.26-.62.6M35.04 39.73c0-.34-.27-.6-.6-.6s-.62.26-.62.6"/>
</svg>
