<?xml version="1.0"?>
<!-- Converted with SVG Converter - Version 0.9.5 (Compiled Fri Feb 21 09:53:38 2020) - Copyright (C) 2011 Nokia -->
<svg xmlns="http://www.w3.org/2000/svg" width="39.737" baseProfile="tiny" height="39.737" xmlns:xlink="http://www.w3.org/1999/xlink">
 <defs>
  <path id="a" d="M0 0h39.74v39.74H0z"/>
 </defs>
 <circle r=".607" fill="#00AEEF" cx="3.331" cy="1.318"/>
 <circle r=".607" fill="#00AEEF" cx="3.331" cy="5.224"/>
 <path d="M0 2.74c.35 0 .62-.27.62-.6S.35 1.5.02 1.5" fill="#00AEEF"/>
 <circle r=".607" fill="#00AEEF" cx="6.617" cy="2.131"/>
 <circle r=".607" fill="#00AEEF" cx="6.617" cy="4.407"/>
 <path d="M.02 5c.33 0 .6-.26.6-.6s-.27-.6-.6-.6" fill="#00AEEF"/>
 <circle r=".607" fill="#00AEEF" cx="4.549" cy="3.318"/>
 <circle r=".607" fill="#00AEEF" cx="2.049" cy="3.318"/>
 <path d="M4.76 0c0 .35.27.62.6.62s.6-.27.6-.6" fill="#00AEEF"/>
 <circle r=".607" fill="#00AEEF" cx="5.367" cy="6.595"/>
 <path d="M.7 0c0 .35.27.62.6.62s.6-.27.6-.6" fill="#00AEEF"/>
 <circle r=".607" fill="#00AEEF" cx="1.304" cy="6.599"/>
 <circle r=".607" fill="#00AEEF" cx="9.956" cy="1.318"/>
 <circle r=".607" fill="#00AEEF" cx="9.956" cy="5.224"/>
 <circle r=".607" fill="#00AEEF" cx="13.242" cy="2.131"/>
 <circle r=".607" fill="#00AEEF" cx="13.242" cy="4.407"/>
 <circle r=".607" fill="#00AEEF" cx="6.617" cy="4.407"/>
 <circle r=".607" fill="#00AEEF" cx="11.174" cy="3.318"/>
 <circle r=".607" fill="#00AEEF" cx="8.674" cy="3.318"/>
 <path d="M11.38 0c0 .35.28.62.6.62s.62-.27.62-.6" fill="#00AEEF"/>
 <circle r=".607" fill="#00AEEF" cx="11.992" cy="6.595"/>
 <path d="M7.32 0c0 .35.27.62.6.62s.62-.27.62-.6" fill="#00AEEF"/>
 <circle r=".607" fill="#00AEEF" cx="7.929" cy="6.599"/>
 <circle r=".607" fill="#00AEEF" cx="16.581" cy="1.318"/>
 <circle r=".607" fill="#00AEEF" cx="16.581" cy="5.224"/>
 <circle r=".607" fill="#00AEEF" cx="19.867" cy="2.131"/>
 <circle r=".607" fill="#00AEEF" cx="19.867" cy="4.407"/>
 <circle r=".607" fill="#00AEEF" cx="13.242" cy="4.407"/>
 <circle r=".607" fill="#00AEEF" cx="17.799" cy="3.318"/>
 <circle r=".607" fill="#00AEEF" cx="15.299" cy="3.318"/>
 <path d="M18 0c0 .35.28.62.62.62s.6-.27.6-.6" fill="#00AEEF"/>
 <circle r=".607" fill="#00AEEF" cx="18.617" cy="6.595"/>
 <path d="M13.95 0c0 .35.27.62.6.62s.6-.27.6-.6" fill="#00AEEF"/>
 <circle r=".607" fill="#00AEEF" cx="14.554" cy="6.599"/>
 <circle r=".607" fill="#00AEEF" cx="23.206" cy="1.318"/>
 <circle r=".607" fill="#00AEEF" cx="23.206" cy="5.224"/>
 <circle r=".607" fill="#00AEEF" cx="26.492" cy="2.131"/>
 <circle r=".607" fill="#00AEEF" cx="26.492" cy="4.407"/>
 <circle r=".607" fill="#00AEEF" cx="19.867" cy="4.407"/>
 <circle r=".607" fill="#00AEEF" cx="24.424" cy="3.318"/>
 <circle r=".607" fill="#00AEEF" cx="21.924" cy="3.318"/>
 <path d="M24.63 0c0 .35.28.62.6.62s.62-.27.62-.6" fill="#00AEEF"/>
 <circle r=".607" fill="#00AEEF" cx="25.242" cy="6.595"/>
 <path d="M20.57 0c0 .35.27.62.6.62s.62-.27.62-.6" fill="#00AEEF"/>
 <circle r=".607" fill="#00AEEF" cx="21.179" cy="6.599"/>
 <circle r=".607" fill="#00AEEF" cx="29.831" cy="1.318"/>
 <circle r=".607" fill="#00AEEF" cx="29.831" cy="5.224"/>
 <circle r=".607" fill="#00AEEF" cx="33.117" cy="2.131"/>
 <circle r=".607" fill="#00AEEF" cx="33.117" cy="4.407"/>
 <circle r=".607" fill="#00AEEF" cx="26.492" cy="4.407"/>
 <circle r=".607" fill="#00AEEF" cx="31.049" cy="3.318"/>
 <circle r=".607" fill="#00AEEF" cx="28.549" cy="3.318"/>
 <path d="M31.26 0c0 .35.27.62.6.62s.6-.27.6-.6" fill="#00AEEF"/>
 <circle r=".607" fill="#00AEEF" cx="31.867" cy="6.595"/>
 <path d="M27.2 0c0 .35.27.62.6.62s.6-.27.6-.6" fill="#00AEEF"/>
 <circle r=".607" fill="#00AEEF" cx="27.804" cy="6.599"/>
 <circle r=".607" fill="#00AEEF" cx="36.456" cy="1.318"/>
 <circle r=".607" fill="#00AEEF" cx="36.456" cy="5.224"/>
 <path d="M39.72 1.52c-.34 0-.6.27-.6.6s.26.62.6.62M39.72 3.8c-.34 0-.6.27-.6.6s.26.6.6.6" fill="#00AEEF"/>
 <circle r=".607" fill="#00AEEF" cx="33.117" cy="4.407"/>
 <circle r=".607" fill="#00AEEF" cx="37.674" cy="3.318"/>
 <circle r=".607" fill="#00AEEF" cx="35.174" cy="3.318"/>
 <path d="M37.88 0c0 .35.28.62.6.62s.62-.27.62-.6" fill="#00AEEF"/>
 <circle r=".607" fill="#00AEEF" cx="38.492" cy="6.595"/>
 <path d="M33.82 0c0 .35.27.62.6.62s.62-.27.62-.6" fill="#00AEEF"/>
 <circle r=".607" fill="#00AEEF" cx="34.429" cy="6.599"/>
 <circle r=".607" fill="#00AEEF" cx="3.331" cy="7.943"/>
 <circle r=".607" fill="#00AEEF" cx="3.331" cy="11.849"/>
 <path d="M0 9.36c.35 0 .62-.27.62-.6s-.27-.6-.6-.6" fill="#00AEEF"/>
 <circle r=".607" fill="#00AEEF" cx="6.617" cy="8.756"/>
 <circle r=".607" fill="#00AEEF" cx="6.617" cy="11.032"/>
 <path d="M0 11.64c.34 0 .6-.27.6-.6s-.26-.6-.6-.6" fill="#00AEEF"/>
 <circle r=".607" fill="#00AEEF" cx="4.549" cy="9.943"/>
 <circle r=".607" fill="#00AEEF" cx="2.049" cy="9.943"/>
 <circle r=".607" fill="#00AEEF" cx="5.367" cy="13.22"/>
 <circle r=".607" fill="#00AEEF" cx="1.304" cy="13.224"/>
 <circle r=".607" fill="#00AEEF" cx="9.956" cy="7.943"/>
 <circle r=".607" fill="#00AEEF" cx="9.956" cy="11.849"/>
 <circle r=".607" fill="#00AEEF" cx="13.242" cy="8.756"/>
 <circle r=".607" fill="#00AEEF" cx="13.242" cy="11.032"/>
 <circle r=".607" fill="#00AEEF" cx="6.617" cy="11.032"/>
 <circle r=".607" fill="#00AEEF" cx="11.174" cy="9.943"/>
 <circle r=".607" fill="#00AEEF" cx="8.674" cy="9.943"/>
 <circle r=".607" fill="#00AEEF" cx="11.992" cy="13.22"/>
 <circle r=".607" fill="#00AEEF" cx="7.929" cy="13.224"/>
 <circle r=".607" fill="#00AEEF" cx="16.581" cy="7.943"/>
 <circle r=".607" fill="#00AEEF" cx="16.581" cy="11.849"/>
 <circle r=".607" fill="#00AEEF" cx="19.867" cy="8.756"/>
 <circle r=".607" fill="#00AEEF" cx="19.867" cy="11.032"/>
 <circle r=".607" fill="#00AEEF" cx="13.242" cy="11.032"/>
 <circle r=".607" fill="#00AEEF" cx="17.799" cy="9.943"/>
 <circle r=".607" fill="#00AEEF" cx="15.299" cy="9.943"/>
 <circle r=".607" fill="#00AEEF" cx="18.617" cy="13.22"/>
 <circle r=".607" fill="#00AEEF" cx="14.554" cy="13.224"/>
 <circle r=".607" fill="#00AEEF" cx="23.206" cy="7.943"/>
 <circle r=".607" fill="#00AEEF" cx="23.206" cy="11.849"/>
 <circle r=".607" fill="#00AEEF" cx="26.492" cy="8.756"/>
 <circle r=".607" fill="#00AEEF" cx="26.492" cy="11.032"/>
 <circle r=".607" fill="#00AEEF" cx="19.867" cy="11.032"/>
 <circle r=".607" fill="#00AEEF" cx="24.424" cy="9.943"/>
 <circle r=".607" fill="#00AEEF" cx="21.924" cy="9.943"/>
 <circle r=".607" fill="#00AEEF" cx="25.242" cy="13.22"/>
 <circle r=".607" fill="#00AEEF" cx="21.179" cy="13.224"/>
 <circle r=".607" fill="#00AEEF" cx="29.831" cy="7.943"/>
 <circle r=".607" fill="#00AEEF" cx="29.831" cy="11.849"/>
 <circle r=".607" fill="#00AEEF" cx="33.117" cy="8.756"/>
 <circle r=".607" fill="#00AEEF" cx="33.117" cy="11.032"/>
 <circle r=".607" fill="#00AEEF" cx="26.492" cy="11.032"/>
 <circle r=".607" fill="#00AEEF" cx="31.049" cy="9.943"/>
 <circle r=".607" fill="#00AEEF" cx="28.549" cy="9.943"/>
 <circle r=".607" fill="#00AEEF" cx="31.867" cy="13.22"/>
 <circle r=".607" fill="#00AEEF" cx="27.804" cy="13.224"/>
 <circle r=".607" fill="#00AEEF" cx="36.456" cy="7.943"/>
 <circle r=".607" fill="#00AEEF" cx="36.456" cy="11.849"/>
 <path d="M39.72 8.15c-.34 0-.6.27-.6.6s.26.6.6.6M39.72 10.43c-.34 0-.6.27-.6.6s.26.6.6.6" fill="#00AEEF"/>
 <circle r=".607" fill="#00AEEF" cx="33.117" cy="11.032"/>
 <circle r=".607" fill="#00AEEF" cx="37.674" cy="9.943"/>
 <circle r=".607" fill="#00AEEF" cx="35.174" cy="9.943"/>
 <circle r=".607" fill="#00AEEF" cx="38.492" cy="13.22"/>
 <circle r=".607" fill="#00AEEF" cx="34.429" cy="13.224"/>
 <circle r=".607" fill="#00AEEF" cx="3.331" cy="14.568"/>
 <circle r=".607" fill="#00AEEF" cx="3.331" cy="18.474"/>
 <path d="M0 16c.33 0 .6-.28.6-.62s-.27-.6-.6-.6" fill="#00AEEF"/>
 <circle r=".607" fill="#00AEEF" cx="6.617" cy="15.381"/>
 <circle r=".607" fill="#00AEEF" cx="6.617" cy="17.657"/>
 <path d="M.02 18.27c.33 0 .6-.28.6-.6s-.27-.62-.6-.62" fill="#00AEEF"/>
 <circle r=".607" fill="#00AEEF" cx="4.549" cy="16.568"/>
 <circle r=".607" fill="#00AEEF" cx="2.049" cy="16.568"/>
 <circle r=".607" fill="#00AEEF" cx="5.367" cy="19.845"/>
 <circle r=".607" fill="#00AEEF" cx="1.304" cy="19.849"/>
 <circle r=".607" fill="#00AEEF" cx="9.956" cy="14.568"/>
 <circle r=".607" fill="#00AEEF" cx="9.956" cy="18.474"/>
 <circle r=".607" fill="#00AEEF" cx="13.242" cy="15.381"/>
 <circle r=".607" fill="#00AEEF" cx="13.242" cy="17.657"/>
 <circle r=".607" fill="#00AEEF" cx="6.617" cy="17.657"/>
 <circle r=".607" fill="#00AEEF" cx="11.174" cy="16.568"/>
 <circle r=".607" fill="#00AEEF" cx="8.674" cy="16.568"/>
 <circle r=".607" fill="#00AEEF" cx="11.992" cy="19.845"/>
 <circle r=".607" fill="#00AEEF" cx="7.929" cy="19.849"/>
 <circle r=".607" fill="#00AEEF" cx="16.581" cy="14.568"/>
 <circle r=".607" fill="#00AEEF" cx="16.581" cy="18.474"/>
 <circle r=".607" fill="#00AEEF" cx="19.867" cy="15.381"/>
 <circle r=".607" fill="#00AEEF" cx="19.867" cy="17.657"/>
 <circle r=".607" fill="#00AEEF" cx="13.242" cy="17.657"/>
 <circle r=".607" fill="#00AEEF" cx="17.799" cy="16.568"/>
 <circle r=".607" fill="#00AEEF" cx="15.299" cy="16.568"/>
 <circle r=".607" fill="#00AEEF" cx="18.617" cy="19.845"/>
 <circle r=".607" fill="#00AEEF" cx="14.554" cy="19.849"/>
 <circle r=".607" fill="#00AEEF" cx="23.206" cy="14.568"/>
 <circle r=".607" fill="#00AEEF" cx="23.206" cy="18.474"/>
 <circle r=".607" fill="#00AEEF" cx="26.492" cy="15.381"/>
 <circle r=".607" fill="#00AEEF" cx="26.492" cy="17.657"/>
 <circle r=".607" fill="#00AEEF" cx="19.867" cy="17.657"/>
 <circle r=".607" fill="#00AEEF" cx="24.424" cy="16.568"/>
 <circle r=".607" fill="#00AEEF" cx="21.924" cy="16.568"/>
 <circle r=".607" fill="#00AEEF" cx="25.242" cy="19.845"/>
 <circle r=".607" fill="#00AEEF" cx="21.179" cy="19.849"/>
 <circle r=".607" fill="#00AEEF" cx="29.831" cy="14.568"/>
 <circle r=".607" fill="#00AEEF" cx="29.831" cy="18.474"/>
 <circle r=".607" fill="#00AEEF" cx="33.117" cy="15.381"/>
 <circle r=".607" fill="#00AEEF" cx="33.117" cy="17.657"/>
 <circle r=".607" fill="#00AEEF" cx="26.492" cy="17.657"/>
 <circle r=".607" fill="#00AEEF" cx="31.049" cy="16.568"/>
 <circle r=".607" fill="#00AEEF" cx="28.549" cy="16.568"/>
 <circle r=".607" fill="#00AEEF" cx="31.867" cy="19.845"/>
 <circle r=".607" fill="#00AEEF" cx="27.804" cy="19.849"/>
 <circle r=".607" fill="#00AEEF" cx="36.456" cy="14.568"/>
 <circle r=".607" fill="#00AEEF" cx="36.456" cy="18.474"/>
 <path d="M39.73 14.77c-.33 0-.6.28-.6.6s.27.62.6.62M39.73 17.05c-.33 0-.6.27-.6.6s.27.6.6.6" fill="#00AEEF"/>
 <circle r=".607" fill="#00AEEF" cx="33.117" cy="17.657"/>
 <circle r=".607" fill="#00AEEF" cx="37.674" cy="16.568"/>
 <circle r=".607" fill="#00AEEF" cx="35.174" cy="16.568"/>
 <circle r=".607" fill="#00AEEF" cx="38.492" cy="19.845"/>
 <circle r=".607" fill="#00AEEF" cx="34.429" cy="19.849"/>
 <circle r=".607" fill="#00AEEF" cx="3.331" cy="21.193"/>
 <circle r=".607" fill="#00AEEF" cx="3.331" cy="25.099"/>
 <path d="M.03 22.6c.33 0 .6-.26.6-.6s-.27-.6-.6-.6" fill="#00AEEF"/>
 <circle r=".607" fill="#00AEEF" cx="6.617" cy="22.006"/>
 <circle r=".607" fill="#00AEEF" cx="6.617" cy="24.282"/>
 <path d="M.02 24.9c.34 0 .6-.28.6-.62s-.26-.6-.6-.6" fill="#00AEEF"/>
 <circle r=".607" fill="#00AEEF" cx="4.549" cy="23.193"/>
 <circle r=".607" fill="#00AEEF" cx="2.049" cy="23.193"/>
 <circle r=".607" fill="#00AEEF" cx="5.367" cy="26.47"/>
 <circle r=".607" fill="#00AEEF" cx="1.304" cy="26.474"/>
 <circle r=".607" fill="#00AEEF" cx="9.956" cy="21.193"/>
 <circle r=".607" fill="#00AEEF" cx="9.956" cy="25.099"/>
 <circle r=".607" fill="#00AEEF" cx="13.242" cy="22.006"/>
 <circle r=".607" fill="#00AEEF" cx="13.242" cy="24.282"/>
 <circle r=".607" fill="#00AEEF" cx="6.617" cy="24.282"/>
 <circle r=".607" fill="#00AEEF" cx="11.174" cy="23.193"/>
 <circle r=".607" fill="#00AEEF" cx="8.674" cy="23.193"/>
 <circle r=".607" fill="#00AEEF" cx="11.992" cy="26.47"/>
 <circle r=".607" fill="#00AEEF" cx="7.929" cy="26.474"/>
 <circle r=".607" fill="#00AEEF" cx="16.581" cy="21.193"/>
 <circle r=".607" fill="#00AEEF" cx="16.581" cy="25.099"/>
 <circle r=".607" fill="#00AEEF" cx="19.867" cy="22.006"/>
 <circle r=".607" fill="#00AEEF" cx="19.867" cy="24.282"/>
 <circle r=".607" fill="#00AEEF" cx="13.242" cy="24.282"/>
 <circle r=".607" fill="#00AEEF" cx="17.799" cy="23.193"/>
 <circle r=".607" fill="#00AEEF" cx="15.299" cy="23.193"/>
 <circle r=".607" fill="#00AEEF" cx="18.617" cy="26.47"/>
 <circle r=".607" fill="#00AEEF" cx="14.554" cy="26.474"/>
 <circle r=".607" fill="#00AEEF" cx="23.206" cy="21.193"/>
 <circle r=".607" fill="#00AEEF" cx="23.206" cy="25.099"/>
 <circle r=".607" fill="#00AEEF" cx="26.492" cy="22.006"/>
 <circle r=".607" fill="#00AEEF" cx="26.492" cy="24.282"/>
 <circle r=".607" fill="#00AEEF" cx="19.867" cy="24.282"/>
 <circle r=".607" fill="#00AEEF" cx="24.424" cy="23.193"/>
 <circle r=".607" fill="#00AEEF" cx="21.924" cy="23.193"/>
 <circle r=".607" fill="#00AEEF" cx="25.242" cy="26.47"/>
 <circle r=".607" fill="#00AEEF" cx="21.179" cy="26.474"/>
 <circle r=".607" fill="#00AEEF" cx="29.831" cy="21.193"/>
 <circle r=".607" fill="#00AEEF" cx="29.831" cy="25.099"/>
 <circle r=".607" fill="#00AEEF" cx="33.117" cy="22.006"/>
 <circle r=".607" fill="#00AEEF" cx="33.117" cy="24.282"/>
 <circle r=".607" fill="#00AEEF" cx="26.492" cy="24.282"/>
 <circle r=".607" fill="#00AEEF" cx="31.049" cy="23.193"/>
 <circle r=".607" fill="#00AEEF" cx="28.549" cy="23.193"/>
 <circle r=".607" fill="#00AEEF" cx="31.867" cy="26.47"/>
 <circle r=".607" fill="#00AEEF" cx="27.804" cy="26.474"/>
 <circle r=".607" fill="#00AEEF" cx="36.456" cy="21.193"/>
 <circle r=".607" fill="#00AEEF" cx="36.456" cy="25.099"/>
 <path d="M39.73 21.4c-.33 0-.6.27-.6.6s.27.6.6.6M39.73 23.68c-.33 0-.6.27-.6.6s.27.6.6.6" fill="#00AEEF"/>
 <circle r=".607" fill="#00AEEF" cx="33.117" cy="24.282"/>
 <circle r=".607" fill="#00AEEF" cx="37.674" cy="23.193"/>
 <circle r=".607" fill="#00AEEF" cx="35.174" cy="23.193"/>
 <circle r=".607" fill="#00AEEF" cx="38.492" cy="26.47"/>
 <circle r=".607" fill="#00AEEF" cx="34.429" cy="26.474"/>
 <circle r=".607" fill="#00AEEF" cx="3.331" cy="27.818"/>
 <circle r=".607" fill="#00AEEF" cx="3.331" cy="31.724"/>
 <path d="M0 29.24c.35 0 .62-.27.62-.6S.35 28 .02 28" fill="#00AEEF"/>
 <circle r=".607" fill="#00AEEF" cx="6.617" cy="28.631"/>
 <circle r=".607" fill="#00AEEF" cx="6.617" cy="30.907"/>
 <path d="M.02 31.52c.33 0 .6-.28.6-.6s-.27-.62-.6-.62" fill="#00AEEF"/>
 <circle r=".607" fill="#00AEEF" cx="4.549" cy="29.818"/>
 <circle r=".607" fill="#00AEEF" cx="2.049" cy="29.818"/>
 <circle r=".607" fill="#00AEEF" cx="5.367" cy="33.095"/>
 <circle r=".607" fill="#00AEEF" cx="9.956" cy="27.818"/>
 <circle r=".607" fill="#00AEEF" cx="9.956" cy="31.724"/>
 <circle r=".607" fill="#00AEEF" cx="13.242" cy="28.631"/>
 <circle r=".607" fill="#00AEEF" cx="13.242" cy="30.907"/>
 <circle r=".607" fill="#00AEEF" cx="6.617" cy="30.907"/>
 <circle r=".607" fill="#00AEEF" cx="11.174" cy="29.818"/>
 <circle r=".607" fill="#00AEEF" cx="8.674" cy="29.818"/>
 <circle r=".607" fill="#00AEEF" cx="11.992" cy="33.095"/>
 <circle r=".607" fill="#00AEEF" cx="7.929" cy="33.099"/>
 <circle r=".607" fill="#00AEEF" cx="16.581" cy="27.818"/>
 <circle r=".607" fill="#00AEEF" cx="16.581" cy="31.724"/>
 <circle r=".607" fill="#00AEEF" cx="19.867" cy="28.631"/>
 <circle r=".607" fill="#00AEEF" cx="19.867" cy="30.907"/>
 <circle r=".607" fill="#00AEEF" cx="13.242" cy="30.907"/>
 <circle r=".607" fill="#00AEEF" cx="17.799" cy="29.818"/>
 <circle r=".607" fill="#00AEEF" cx="15.299" cy="29.818"/>
 <circle r=".607" fill="#00AEEF" cx="18.617" cy="33.095"/>
 <circle r=".607" fill="#00AEEF" cx="23.206" cy="27.818"/>
 <circle r=".607" fill="#00AEEF" cx="23.206" cy="31.724"/>
 <circle r=".607" fill="#00AEEF" cx="26.492" cy="28.631"/>
 <circle r=".607" fill="#00AEEF" cx="26.492" cy="30.907"/>
 <circle r=".607" fill="#00AEEF" cx="19.867" cy="30.907"/>
 <circle r=".607" fill="#00AEEF" cx="24.424" cy="29.818"/>
 <circle r=".607" fill="#00AEEF" cx="21.924" cy="29.818"/>
 <circle r=".607" fill="#00AEEF" cx="25.242" cy="33.095"/>
 <circle r=".607" fill="#00AEEF" cx="21.179" cy="33.099"/>
 <circle r=".607" fill="#00AEEF" cx="29.831" cy="27.818"/>
 <circle r=".607" fill="#00AEEF" cx="29.831" cy="31.724"/>
 <circle r=".607" fill="#00AEEF" cx="33.117" cy="28.631"/>
 <circle r=".607" fill="#00AEEF" cx="33.117" cy="30.907"/>
 <circle r=".607" fill="#00AEEF" cx="26.492" cy="30.907"/>
 <circle r=".607" fill="#00AEEF" cx="31.049" cy="29.818"/>
 <circle r=".607" fill="#00AEEF" cx="28.549" cy="29.818"/>
 <circle r=".607" fill="#00AEEF" cx="31.867" cy="33.095"/>
 <circle r=".607" fill="#00AEEF" cx="27.804" cy="33.099"/>
 <circle r=".607" fill="#00AEEF" cx="36.456" cy="27.818"/>
 <circle r=".607" fill="#00AEEF" cx="36.456" cy="31.724"/>
 <path d="M39.73 28.02c-.33 0-.6.28-.6.6s.27.62.6.62M39.73 30.3c-.34 0-.6.27-.6.6s.26.6.6.6" fill="#00AEEF"/>
 <circle r=".607" fill="#00AEEF" cx="33.117" cy="30.907"/>
 <circle r=".607" fill="#00AEEF" cx="37.674" cy="29.818"/>
 <circle r=".607" fill="#00AEEF" cx="35.174" cy="29.818"/>
 <circle r=".607" fill="#00AEEF" cx="38.492" cy="33.095"/>
 <circle r=".607" fill="#00AEEF" cx="34.429" cy="33.099"/>
 <circle r=".607" fill="#00AEEF" cx="3.331" cy="34.443"/>
 <circle r=".607" fill="#00AEEF" cx="3.331" cy="38.349"/>
 <path d="M0 35.86c.35 0 .62-.27.62-.6s-.27-.6-.6-.6" fill="#00AEEF"/>
 <circle r=".607" fill="#00AEEF" cx="6.617" cy="35.256"/>
 <circle r=".607" fill="#00AEEF" cx="6.617" cy="37.532"/>
 <path d="M0 38.14c.34 0 .6-.27.6-.6s-.26-.6-.6-.6" fill="#00AEEF"/>
 <circle r=".607" fill="#00AEEF" cx="4.549" cy="36.443"/>
 <circle r=".607" fill="#00AEEF" cx="2.049" cy="36.443"/>
 <path d="M5.97 39.73c0-.34-.27-.6-.6-.6s-.6.26-.6.6" fill="#00AEEF"/>
 <circle r=".607" fill="#00AEEF" cx="1.304" cy="33.157"/>
 <path d="M1.9 39.73c0-.34-.26-.6-.6-.6s-.6.26-.6.6" fill="#00AEEF"/>
 <circle r=".607" fill="#00AEEF" cx="9.956" cy="34.443"/>
 <circle r=".607" fill="#00AEEF" cx="9.956" cy="38.349"/>
 <circle r=".607" fill="#00AEEF" cx="13.242" cy="35.256"/>
 <circle r=".607" fill="#00AEEF" cx="13.242" cy="37.532"/>
 <circle r=".607" fill="#00AEEF" cx="6.617" cy="37.532"/>
 <circle r=".607" fill="#00AEEF" cx="11.174" cy="36.443"/>
 <circle r=".607" fill="#00AEEF" cx="8.674" cy="36.443"/>
 <path d="M12.6 39.73c0-.34-.27-.6-.6-.6s-.6.26-.6.6M8.54 39.73c0-.34-.27-.6-.6-.6s-.62.26-.62.6" fill="#00AEEF"/>
 <circle r=".607" fill="#00AEEF" cx="16.581" cy="34.443"/>
 <circle r=".607" fill="#00AEEF" cx="16.581" cy="38.349"/>
 <circle r=".607" fill="#00AEEF" cx="19.867" cy="35.256"/>
 <circle r=".607" fill="#00AEEF" cx="19.867" cy="37.532"/>
 <circle r=".607" fill="#00AEEF" cx="13.242" cy="37.532"/>
 <circle r=".607" fill="#00AEEF" cx="17.799" cy="36.443"/>
 <circle r=".607" fill="#00AEEF" cx="15.299" cy="36.443"/>
 <path d="M19.22 39.73c0-.34-.27-.6-.6-.6s-.6.26-.6.6" fill="#00AEEF"/>
 <circle r=".607" fill="#00AEEF" cx="14.554" cy="33.157"/>
 <path d="M15.16 39.73c0-.34-.27-.6-.6-.6s-.6.26-.6.6" fill="#00AEEF"/>
 <circle r=".607" fill="#00AEEF" cx="23.206" cy="34.443"/>
 <circle r=".607" fill="#00AEEF" cx="23.206" cy="38.349"/>
 <circle r=".607" fill="#00AEEF" cx="26.492" cy="35.256"/>
 <circle r=".607" fill="#00AEEF" cx="26.492" cy="37.532"/>
 <circle r=".607" fill="#00AEEF" cx="19.867" cy="37.532"/>
 <circle r=".607" fill="#00AEEF" cx="24.424" cy="36.443"/>
 <circle r=".607" fill="#00AEEF" cx="21.924" cy="36.443"/>
 <path d="M25.85 39.73c0-.34-.27-.6-.6-.6s-.6.26-.6.6M21.8 39.73c0-.34-.28-.6-.62-.6s-.6.26-.6.6" fill="#00AEEF"/>
 <circle r=".607" fill="#00AEEF" cx="29.831" cy="34.443"/>
 <circle r=".607" fill="#00AEEF" cx="29.831" cy="38.349"/>
 <circle r=".607" fill="#00AEEF" cx="33.117" cy="35.256"/>
 <circle r=".607" fill="#00AEEF" cx="33.117" cy="37.532"/>
 <circle r=".607" fill="#00AEEF" cx="26.492" cy="37.532"/>
 <circle r=".607" fill="#00AEEF" cx="31.049" cy="36.443"/>
 <circle r=".607" fill="#00AEEF" cx="28.549" cy="36.443"/>
 <path d="M32.47 39.73c0-.34-.27-.6-.6-.6s-.6.26-.6.6M28.4 39.73c0-.34-.26-.6-.6-.6s-.6.26-.6.6" fill="#00AEEF"/>
 <circle r=".607" fill="#00AEEF" cx="36.456" cy="34.443"/>
 <circle r=".607" fill="#00AEEF" cx="36.456" cy="38.349"/>
 <path d="M39.73 34.65c-.34 0-.6.27-.6.6s.26.6.6.6M39.73 36.92c-.34 0-.6.28-.6.6s.26.62.6.62" fill="#00AEEF"/>
 <circle r=".607" fill="#00AEEF" cx="33.117" cy="37.532"/>
 <circle r=".607" fill="#00AEEF" cx="37.674" cy="36.443"/>
 <circle r=".607" fill="#00AEEF" cx="35.174" cy="36.443"/>
 <path d="M39.1 39.73c0-.34-.27-.6-.6-.6s-.62.26-.62.6M35.04 39.73c0-.34-.27-.6-.6-.6s-.62.26-.62.6" fill="#00AEEF"/>
</svg>
