<?xml version="1.0"?>
<!-- Converted with SVG Converter - Version 0.9.5 (Compiled Fri Feb 21 09:53:38 2020) - Copyright (C) 2011 Nokia -->
<svg xmlns="http://www.w3.org/2000/svg" x="0px" version="1.1" width="43.2" viewBox="2.184 -46.117 43.2 43.2" y="0px" baseProfile="tiny" xmlns:xlink="http://www.w3.org/1999/xlink" xml:space="preserve" height="43.2">
 <g>
  <rect style="fill:none;" x="2.184" width="43.2" y="-46.117" height="43.2"/>
  <rect x="2.184" width="43.2" y="-46.117" height="43.2"/>
  <line style="fill:none;stroke:#FFFFFF;stroke-width:0.8;stroke-linecap:round;" x1="14.75" y1="-44.434" x2="14.75" y2="-44.434"/>
  <line style="fill:none;stroke:#FFFFFF;stroke-width:0.8;stroke-linecap:round;" x1="14.75" y1="-42.034" x2="14.75" y2="-42.034"/>
  <line style="fill:none;stroke:#FFFFFF;stroke-width:0.8;stroke-linecap:round;" x1="14.3" y1="-39.934" x2="14.3" y2="-39.934"/>
  <line style="fill:none;stroke:#FFFFFF;stroke-width:0.8;stroke-linecap:round;" x1="10.85" y1="-39.784" x2="10.85" y2="-39.784"/>
  <line style="fill:none;stroke:#FFFFFF;stroke-width:0.8;stroke-linecap:round;" x1="16.55" y1="-33.633" x2="16.55" y2="-33.633"/>
  <line style="fill:none;stroke:#FFFFFF;stroke-width:0.8;stroke-linecap:round;" x1="10.1" y1="-30.484" x2="10.1" y2="-30.484"/>
  <line style="fill:none;stroke:#FFFFFF;stroke-width:0.8;stroke-linecap:round;" x1="16.55" y1="-30.034" x2="16.55" y2="-30.034"/>
  <line style="fill:none;stroke:#FFFFFF;stroke-width:0.8;stroke-linecap:round;" x1="20" y1="-30.034" x2="20" y2="-30.034"/>
  <line style="fill:none;stroke:#FFFFFF;stroke-width:0.8;stroke-linecap:round;" x1="20.9" y1="-32.284" x2="20.9" y2="-32.284"/>
  <line style="fill:none;stroke:#FFFFFF;stroke-width:0.8;stroke-linecap:round;" x1="19.7" y1="-35.284" x2="19.7" y2="-35.284"/>
  <line style="fill:none;stroke:#FFFFFF;stroke-width:0.8;stroke-linecap:round;" x1="22.55" y1="-34.383" x2="22.55" y2="-34.383"/>
  <line style="fill:none;stroke:#FFFFFF;stroke-width:0.8;stroke-linecap:round;" x1="22.55" y1="-37.234" x2="22.55" y2="-37.234"/>
  <line style="fill:none;stroke:#FFFFFF;stroke-width:0.8;stroke-linecap:round;" x1="21.2" y1="-39.184" x2="21.2" y2="-39.184"/>
  <line style="fill:none;stroke:#FFFFFF;stroke-width:0.8;stroke-linecap:round;" x1="21.5" y1="-42.034" x2="21.5" y2="-42.034"/>
  <line style="fill:none;stroke:#FFFFFF;stroke-width:0.8;stroke-linecap:round;" x1="20.75" y1="-44.134" x2="20.75" y2="-44.134"/>
  <line style="fill:none;stroke:#FFFFFF;stroke-width:0.8;stroke-linecap:round;" x1="22.55" y1="-45.484" x2="22.55" y2="-45.484"/>
  <line style="fill:none;stroke:#FFFFFF;stroke-width:0.8;stroke-linecap:round;" x1="27.05" y1="-42.034" x2="27.05" y2="-42.034"/>
  <line style="fill:none;stroke:#FFFFFF;stroke-width:0.8;stroke-linecap:round;" x1="29.45" y1="-42.184" x2="29.45" y2="-42.184"/>
  <line style="fill:none;stroke:#FFFFFF;stroke-width:0.8;stroke-linecap:round;" x1="27.65" y1="-38.134" x2="27.65" y2="-38.134"/>
  <line style="fill:none;stroke:#FFFFFF;stroke-width:0.8;stroke-linecap:round;" x1="30.35" y1="-37.684" x2="30.35" y2="-37.684"/>
  <line style="fill:none;stroke:#FFFFFF;stroke-width:0.8;stroke-linecap:round;" x1="30.35" y1="-34.684" x2="30.35" y2="-34.684"/>
  <line style="fill:none;stroke:#FFFFFF;stroke-width:0.8;stroke-linecap:round;" x1="25.55" y1="-33.784" x2="25.55" y2="-33.784"/>
  <line style="fill:none;stroke:#FFFFFF;stroke-width:0.8;stroke-linecap:round;" x1="32.3" y1="-38.134" x2="32.3" y2="-38.134"/>
  <line style="fill:none;stroke:#FFFFFF;stroke-width:0.8;stroke-linecap:round;" x1="35" y1="-39.634" x2="35" y2="-39.634"/>
  <line style="fill:none;stroke:#FFFFFF;stroke-width:0.8;stroke-linecap:round;" x1="36.117" y1="-45.6" x2="36.117" y2="-45.6"/>
  <line style="fill:none;stroke:#FFFFFF;stroke-width:0.8;stroke-linecap:round;" x1="42.65" y1="-45.184" x2="42.65" y2="-45.184"/>
  <line style="fill:none;stroke:#FFFFFF;stroke-width:0.8;stroke-linecap:round;" x1="42.95" y1="-40.083" x2="42.95" y2="-40.083"/>
  <line style="fill:none;stroke:#FFFFFF;stroke-width:0.8;stroke-linecap:round;" x1="40.7" y1="-38.884" x2="40.7" y2="-38.884"/>
  <line style="fill:none;stroke:#FFFFFF;stroke-width:0.8;stroke-linecap:round;" x1="41.3" y1="-36.784" x2="41.3" y2="-36.784"/>
  <line style="fill:none;stroke:#FFFFFF;stroke-width:0.8;stroke-linecap:round;" x1="40.55" y1="-34.383" x2="40.55" y2="-34.383"/>
  <line style="fill:none;stroke:#FFFFFF;stroke-width:0.8;stroke-linecap:round;" x1="40.7" y1="-32.734" x2="40.7" y2="-32.734"/>
  <line style="fill:none;stroke:#FFFFFF;stroke-width:0.8;stroke-linecap:round;" x1="42.95" y1="-33.484" x2="42.95" y2="-33.484"/>
  <line style="fill:none;stroke:#FFFFFF;stroke-width:0.8;stroke-linecap:round;" x1="6.35" y1="-14.883" x2="6.35" y2="-14.883"/>
  <line style="fill:none;stroke:#FFFFFF;stroke-width:0.8;stroke-linecap:round;" x1="6.5" y1="-13.534" x2="6.5" y2="-13.534"/>
  <line style="fill:none;stroke:#FFFFFF;stroke-width:0.8;stroke-linecap:round;" x1="3.5" y1="-13.534" x2="3.5" y2="-13.534"/>
  <line style="fill:none;stroke:#FFFFFF;stroke-width:0.8;stroke-linecap:round;" x1="8" y1="-7.833" x2="8" y2="-7.833"/>
  <line style="fill:none;stroke:#FFFFFF;stroke-width:0.8;stroke-linecap:round;" x1="2.75" y1="-5.433" x2="2.75" y2="-5.433"/>
  <line style="fill:none;stroke:#FFFFFF;stroke-width:0.8;stroke-linecap:round;" x1="8.75" y1="-3.633" x2="8.75" y2="-3.633"/>
  <path style="fill:none;stroke:#FFFFFF;stroke-width:0.8;stroke-linecap:round;" d="M13.25-6.933L13.25-6.933"/>
  <line style="fill:none;stroke:#FFFFFF;stroke-width:0.8;stroke-linecap:round;" x1="11.9" y1="-8.883" x2="11.9" y2="-8.883"/>
  <line style="fill:none;stroke:#FFFFFF;stroke-width:0.8;stroke-linecap:round;" x1="13.85" y1="-11.583" x2="13.85" y2="-11.583"/>
  <line style="fill:none;stroke:#FFFFFF;stroke-width:0.8;stroke-linecap:round;" x1="9.5" y1="-9.034" x2="9.5" y2="-9.034"/>
  <line style="fill:none;stroke:#FFFFFF;stroke-width:0.8;stroke-linecap:round;" x1="11.9" y1="-13.383" x2="11.9" y2="-13.383"/>
  <line style="fill:none;stroke:#FFFFFF;stroke-width:0.8;stroke-linecap:round;" x1="13.7" y1="-15.633" x2="13.7" y2="-15.633"/>
  <line style="fill:none;stroke:#FFFFFF;stroke-width:0.8;stroke-linecap:round;" x1="11" y1="-15.633" x2="11" y2="-15.633"/>
  <line style="fill:none;stroke:#FFFFFF;stroke-width:0.8;stroke-linecap:round;" x1="11.9" y1="-17.883" x2="11.9" y2="-17.883"/>
  <line style="fill:none;stroke:#FFFFFF;stroke-width:0.8;stroke-linecap:round;" x1="21.65" y1="-15.784" x2="21.65" y2="-15.784"/>
  <line style="fill:none;stroke:#FFFFFF;stroke-width:0.8;stroke-linecap:round;" x1="18.5" y1="-13.683" x2="18.5" y2="-13.683"/>
  <line style="fill:none;stroke:#FFFFFF;stroke-width:0.8;stroke-linecap:round;" x1="21.35" y1="-12.784" x2="21.35" y2="-12.784"/>
  <line style="fill:none;stroke:#FFFFFF;stroke-width:0.8;stroke-linecap:round;" x1="20.75" y1="-10.833" x2="20.75" y2="-10.833"/>
  <line style="fill:none;stroke:#FFFFFF;stroke-width:0.8;stroke-linecap:round;" x1="17.75" y1="-7.984" x2="17.75" y2="-7.984"/>
  <line style="fill:none;stroke:#FFFFFF;stroke-width:0.8;stroke-linecap:round;" x1="23.75" y1="-12.484" x2="23.75" y2="-12.484"/>
  <line style="fill:none;stroke:#FFFFFF;stroke-width:0.8;stroke-linecap:round;" x1="27.2" y1="-15.784" x2="27.2" y2="-15.784"/>
  <line style="fill:none;stroke:#FFFFFF;stroke-width:0.8;stroke-linecap:round;" x1="28.25" y1="-19.383" x2="28.25" y2="-19.383"/>
  <line style="fill:none;stroke:#FFFFFF;stroke-width:0.8;stroke-linecap:round;" x1="32.3" y1="-15.333" x2="32.3" y2="-15.333"/>
  <line style="fill:none;stroke:#FFFFFF;stroke-width:0.8;stroke-linecap:round;" x1="33.05" y1="-17.583" x2="33.05" y2="-17.583"/>
  <line style="fill:none;stroke:#FFFFFF;stroke-width:0.8;stroke-linecap:round;" x1="35.15" y1="-18.034" x2="35.15" y2="-18.034"/>
  <line style="fill:none;stroke:#FFFFFF;stroke-width:0.8;stroke-linecap:round;" x1="35.15" y1="-13.683" x2="35.15" y2="-13.683"/>
  <line style="fill:none;stroke:#FFFFFF;stroke-width:0.8;stroke-linecap:round;" x1="32.9" y1="-12.484" x2="32.9" y2="-12.484"/>
  <line style="fill:none;stroke:#FFFFFF;stroke-width:0.8;stroke-linecap:round;" x1="30.8" y1="-10.083" x2="30.8" y2="-10.083"/>
  <line style="fill:none;stroke:#FFFFFF;stroke-width:0.8;stroke-linecap:round;" x1="35.3" y1="-11.284" x2="35.3" y2="-11.284"/>
  <line style="fill:none;stroke:#FFFFFF;stroke-width:0.8;stroke-linecap:round;" x1="37.1" y1="-9.333" x2="37.1" y2="-9.333"/>
  <line style="fill:none;stroke:#FFFFFF;stroke-width:0.8;stroke-linecap:round;" x1="14.45" y1="-32.734" x2="14.45" y2="-32.734"/>
  <line style="fill:none;stroke:#FFFFFF;stroke-width:0.8;stroke-linecap:round;" x1="25.55" y1="-31.383" x2="25.55" y2="-31.383"/>
  <line style="fill:none;stroke:#FFFFFF;stroke-width:0.8;stroke-linecap:round;" x1="30.65" y1="-29.883" x2="30.65" y2="-29.883"/>
  <line style="fill:none;stroke:#FFFFFF;stroke-width:0.8;stroke-linecap:round;" x1="35.3" y1="-29.434" x2="35.3" y2="-29.434"/>
  <line style="fill:none;stroke:#FFFFFF;stroke-width:0.8;stroke-linecap:round;" x1="32.9" y1="-31.083" x2="32.9" y2="-31.083"/>
  <line style="fill:none;stroke:#FFFFFF;stroke-width:0.8;stroke-linecap:round;" x1="33.35" y1="-28.534" x2="33.35" y2="-28.534"/>
  <line style="fill:none;stroke:#FFFFFF;stroke-width:0.8;stroke-linecap:round;" x1="39.65" y1="-24.934" x2="39.65" y2="-24.934"/>
  <line style="fill:none;stroke:#FFFFFF;stroke-width:0.8;stroke-linecap:round;" x1="36.2" y1="-22.833" x2="36.2" y2="-22.833"/>
  <line style="fill:none;stroke:#FFFFFF;stroke-width:0.8;stroke-linecap:round;" x1="31.1" y1="-23.883" x2="31.1" y2="-23.883"/>
  <line style="fill:none;stroke:#FFFFFF;stroke-width:0.8;stroke-linecap:round;" x1="30.95" y1="-21.484" x2="30.95" y2="-21.484"/>
  <line style="fill:none;stroke:#FFFFFF;stroke-width:0.8;stroke-linecap:round;" x1="30.95" y1="-19.684" x2="30.95" y2="-19.684"/>
  <line style="fill:none;stroke:#FFFFFF;stroke-width:0.8;stroke-linecap:round;" x1="37.55" y1="-18.484" x2="37.55" y2="-18.484"/>
  <line style="fill:none;stroke:#FFFFFF;stroke-width:0.8;stroke-linecap:round;" x1="39.95" y1="-16.833" x2="39.95" y2="-16.833"/>
  <line style="fill:none;stroke:#FFFFFF;stroke-width:0.8;stroke-linecap:round;" x1="43.25" y1="-19.984" x2="43.25" y2="-19.984"/>
  <line style="fill:none;stroke:#FFFFFF;stroke-width:0.8;stroke-linecap:round;" x1="39.2" y1="-22.833" x2="39.2" y2="-22.833"/>
  <line style="fill:none;stroke:#FFFFFF;stroke-width:0.8;stroke-linecap:round;" x1="21.65" y1="-18.034" x2="21.65" y2="-18.034"/>
  <line style="fill:none;stroke:#FFFFFF;stroke-width:0.8;stroke-linecap:round;" x1="17.9" y1="-23.583" x2="17.9" y2="-23.583"/>
  <line style="fill:none;stroke:#FFFFFF;stroke-width:0.8;stroke-linecap:round;" x1="20" y1="-24.934" x2="20" y2="-24.934"/>
  <line style="fill:none;stroke:#FFFFFF;stroke-width:0.8;stroke-linecap:round;" x1="8.45" y1="-28.534" x2="8.45" y2="-28.534"/>
  <line style="fill:none;stroke:#FFFFFF;stroke-width:0.8;stroke-linecap:round;" x1="5.75" y1="-27.333" x2="5.75" y2="-27.333"/>
  <line style="fill:none;stroke:#FFFFFF;stroke-width:0.8;stroke-linecap:round;" x1="3.65" y1="-25.083" x2="3.65" y2="-25.083"/>
  <line style="fill:none;stroke:#FFFFFF;stroke-width:0.8;stroke-linecap:round;" x1="12.35" y1="-21.033" x2="12.35" y2="-21.033"/>
  <line style="fill:none;stroke:#FFFFFF;stroke-width:0.8;stroke-linecap:round;" x1="10.55" y1="-25.833" x2="10.55" y2="-25.833"/>
  <line style="fill:none;stroke:#FFFFFF;stroke-width:0.8;stroke-linecap:round;" x1="18.05" y1="-28.083" x2="18.05" y2="-28.083"/>
  <line style="fill:none;stroke:#FFFFFF;stroke-width:0.8;stroke-linecap:round;" x1="27.05" y1="-27.333" x2="27.05" y2="-27.333"/>
  <line style="fill:none;stroke:#FFFFFF;stroke-width:0.8;stroke-linecap:round;" x1="24.5" y1="-27.333" x2="24.5" y2="-27.333"/>
  <line style="fill:none;stroke:#FFFFFF;stroke-width:0.8;stroke-linecap:round;" x1="20.45" y1="-22.383" x2="20.45" y2="-22.383"/>
  <line style="fill:none;stroke:#FFFFFF;stroke-width:0.8;stroke-linecap:round;" x1="6.05" y1="-33.934" x2="6.05" y2="-33.934"/>
  <line style="fill:none;stroke:#FFFFFF;stroke-width:0.8;stroke-linecap:round;" x1="8" y1="-34.984" x2="8" y2="-34.984"/>
  <line style="fill:none;stroke:#FFFFFF;stroke-width:0.8;stroke-linecap:round;" x1="9.2" y1="-32.133" x2="9.2" y2="-32.133"/>
  <line style="fill:none;stroke:#FFFFFF;stroke-width:0.8;stroke-linecap:round;" x1="3.95" y1="-30.784" x2="3.95" y2="-30.784"/>
  <line style="fill:none;stroke:#FFFFFF;stroke-width:0.8;stroke-linecap:round;" x1="40.7" y1="-28.534" x2="40.7" y2="-28.534"/>
  <line style="fill:none;stroke:#FFFFFF;stroke-width:0.8;stroke-linecap:round;" x1="43.85" y1="-28.383" x2="43.85" y2="-28.383"/>
  <line style="fill:none;stroke:#FFFFFF;stroke-width:0.8;stroke-linecap:round;" x1="3.05" y1="-40.833" x2="3.05" y2="-40.833"/>
  <line style="fill:none;stroke:#FFFFFF;stroke-width:0.8;stroke-linecap:round;" x1="12.8" y1="-42.184" x2="12.8" y2="-42.184"/>
  <line style="fill:none;stroke:#FFFFFF;stroke-width:0.8;stroke-linecap:round;" x1="4.4" y1="-42.634" x2="4.4" y2="-42.634"/>
  <line style="fill:none;stroke:#FFFFFF;stroke-width:0.8;stroke-linecap:round;" x1="9.8" y1="-37.684" x2="9.8" y2="-37.684"/>
  <line style="fill:none;stroke:#FFFFFF;stroke-width:0.8;stroke-linecap:round;" x1="13.25" y1="-34.684" x2="13.25" y2="-34.684"/>
  <line style="fill:none;stroke:#FFFFFF;stroke-width:0.8;stroke-linecap:round;" x1="14.9" y1="-24.033" x2="14.9" y2="-24.033"/>
  <line style="fill:none;stroke:#FFFFFF;stroke-width:0.8;stroke-linecap:round;" x1="2.6" y1="-19.684" x2="2.6" y2="-19.684"/>
  <line style="fill:none;stroke:#FFFFFF;stroke-width:0.8;stroke-linecap:round;" x1="43.85" y1="-6.784" x2="43.85" y2="-6.784"/>
  <line style="fill:none;stroke:#FFFFFF;stroke-width:0.8;stroke-linecap:round;" x1="36.65" y1="-4.832" x2="36.65" y2="-4.832"/>
  <line style="fill:none;stroke:#FFFFFF;stroke-width:0.8;stroke-linecap:round;" x1="26.45" y1="-5.433" x2="26.45" y2="-5.433"/>
  <line style="fill:none;stroke:#FFFFFF;stroke-width:0.8;stroke-linecap:round;" x1="4.85" y1="-10.234" x2="4.85" y2="-10.234"/>
  <line style="fill:none;stroke:#FFFFFF;stroke-width:0.8;stroke-linecap:round;" x1="18.05" y1="-10.534" x2="18.05" y2="-10.534"/>
  <line style="fill:none;stroke:#FFFFFF;stroke-width:0.8;stroke-linecap:round;" x1="24.5" y1="-17.133" x2="24.5" y2="-17.133"/>
  <line style="fill:none;stroke:#FFFFFF;stroke-width:0.8;stroke-linecap:round;" x1="7.4" y1="-22.083" x2="7.4" y2="-22.083"/>
  <line style="fill:none;stroke:#FFFFFF;stroke-width:0.8;stroke-linecap:round;" x1="33.5" y1="-23.434" x2="33.5" y2="-23.434"/>
  <line style="fill:none;stroke:#FFFFFF;stroke-width:0.8;stroke-linecap:round;" x1="41" y1="-18.784" x2="41" y2="-18.784"/>
  <line style="fill:none;stroke:#FFFFFF;stroke-width:0.8;stroke-linecap:round;" x1="32.9" y1="-6.484" x2="32.9" y2="-6.484"/>
  <line style="fill:none;stroke:#FFFFFF;stroke-width:0.8;stroke-linecap:round;" x1="26.15" y1="-23.583" x2="26.15" y2="-23.583"/>
  <line style="fill:none;stroke:#FFFFFF;stroke-width:0.8;stroke-linecap:round;" x1="18.65" y1="-38.134" x2="18.65" y2="-38.134"/>
  <line style="fill:none;stroke:#FFFFFF;stroke-width:0.8;stroke-linecap:round;" x1="14" y1="-30.333" x2="14" y2="-30.333"/>
  <line style="fill:none;stroke:#FFFFFF;stroke-width:0.8;stroke-linecap:round;" x1="9.2" y1="-45.184" x2="9.2" y2="-45.184"/>
  <line style="fill:none;stroke:#FFFFFF;stroke-width:0.8;stroke-linecap:round;" x1="35.3" y1="-43.984" x2="35.3" y2="-43.984"/>
  <line style="fill:none;stroke:#FFFFFF;stroke-width:0.8;stroke-linecap:round;" x1="30.95" y1="-4.832" x2="30.95" y2="-4.832"/>
  <line style="fill:none;stroke:#FFFFFF;stroke-width:0.8;stroke-linecap:round;" x1="4.4" y1="-21.783" x2="4.4" y2="-21.783"/>
  <line style="fill:none;stroke:#FFFFFF;stroke-width:0.8;stroke-linecap:round;" x1="43.4" y1="-38.284" x2="43.4" y2="-38.284"/>
  <line style="fill:none;stroke:#FFFFFF;stroke-width:0.8;stroke-linecap:round;" x1="16.1" y1="-37.833" x2="16.1" y2="-37.833"/>
  <line style="fill:none;stroke:#FFFFFF;stroke-width:0.8;stroke-linecap:round;" x1="14" y1="-36.333" x2="14" y2="-36.333"/>
  <line style="fill:none;stroke:#FFFFFF;stroke-width:0.8;stroke-linecap:round;" x1="11" y1="-35.883" x2="11" y2="-35.883"/>
  <line style="fill:none;stroke:#FFFFFF;stroke-width:0.8;stroke-linecap:round;" x1="5.75" y1="-39.184" x2="5.75" y2="-39.184"/>
  <line style="fill:none;stroke:#FFFFFF;stroke-width:0.8;stroke-linecap:round;" x1="6.35" y1="-44.583" x2="6.35" y2="-44.583"/>
  <line style="fill:none;stroke:#FFFFFF;stroke-width:0.8;stroke-linecap:round;" x1="10.7" y1="-41.284" x2="10.7" y2="-41.284"/>
  <line style="fill:none;stroke:#FFFFFF;stroke-width:0.8;stroke-linecap:round;" x1="17.6" y1="-42.034" x2="17.6" y2="-42.034"/>
  <line style="fill:none;stroke:#FFFFFF;stroke-width:0.8;stroke-linecap:round;" x1="24.35" y1="-41.734" x2="24.35" y2="-41.734"/>
  <line style="fill:none;stroke:#FFFFFF;stroke-width:0.8;stroke-linecap:round;" x1="24.65" y1="-43.684" x2="24.65" y2="-43.684"/>
  <line style="fill:none;stroke:#FFFFFF;stroke-width:0.8;stroke-linecap:round;" x1="28.25" y1="-45.333" x2="28.25" y2="-45.333"/>
  <line style="fill:none;stroke:#FFFFFF;stroke-width:0.8;stroke-linecap:round;" x1="32.9" y1="-40.833" x2="32.9" y2="-40.833"/>
  <line style="fill:none;stroke:#FFFFFF;stroke-width:0.8;stroke-linecap:round;" x1="23.6" y1="-39.634" x2="23.6" y2="-39.634"/>
  <line style="fill:none;stroke:#FFFFFF;stroke-width:0.8;stroke-linecap:round;" x1="25.7" y1="-37.234" x2="25.7" y2="-37.234"/>
  <line style="fill:none;stroke:#FFFFFF;stroke-width:0.8;stroke-linecap:round;" x1="17" y1="-35.434" x2="17" y2="-35.434"/>
  <line style="fill:none;stroke:#FFFFFF;stroke-width:0.8;stroke-linecap:round;" x1="6.5" y1="-29.583" x2="6.5" y2="-29.583"/>
  <line style="fill:none;stroke:#FFFFFF;stroke-width:0.8;stroke-linecap:round;" x1="11.75" y1="-27.184" x2="11.75" y2="-27.184"/>
  <line style="fill:none;stroke:#FFFFFF;stroke-width:0.8;stroke-linecap:round;" x1="8.45" y1="-26.133" x2="8.45" y2="-26.133"/>
  <line style="fill:none;stroke:#FFFFFF;stroke-width:0.8;stroke-linecap:round;" x1="5.3" y1="-24.033" x2="5.3" y2="-24.033"/>
  <line style="fill:none;stroke:#FFFFFF;stroke-width:0.8;stroke-linecap:round;" x1="4.1" y1="-33.934" x2="4.1" y2="-33.934"/>
  <line style="fill:none;stroke:#FFFFFF;stroke-width:0.8;stroke-linecap:round;" x1="14.45" y1="-27.784" x2="14.45" y2="-27.784"/>
  <line style="fill:none;stroke:#FFFFFF;stroke-width:0.8;stroke-linecap:round;" x1="12.65" y1="-24.934" x2="12.65" y2="-24.934"/>
  <line style="fill:none;stroke:#FFFFFF;stroke-width:0.8;stroke-linecap:round;" x1="11.75" y1="-22.833" x2="11.75" y2="-22.833"/>
  <line style="fill:none;stroke:#FFFFFF;stroke-width:0.8;stroke-linecap:round;" x1="9.8" y1="-21.484" x2="9.8" y2="-21.484"/>
  <line style="fill:none;stroke:#FFFFFF;stroke-width:0.8;stroke-linecap:round;" x1="9.8" y1="-18.333" x2="9.8" y2="-18.333"/>
  <line style="fill:none;stroke:#FFFFFF;stroke-width:0.8;stroke-linecap:round;" x1="15.95" y1="-16.833" x2="15.95" y2="-16.833"/>
  <line style="fill:none;stroke:#FFFFFF;stroke-width:0.8;stroke-linecap:round;" x1="8.75" y1="-13.534" x2="8.75" y2="-13.534"/>
  <line style="fill:none;stroke:#FFFFFF;stroke-width:0.8;stroke-linecap:round;" x1="11.45" y1="-11.133" x2="11.45" y2="-11.133"/>
  <line style="fill:none;stroke:#FFFFFF;stroke-width:0.8;stroke-linecap:round;" x1="5.75" y1="-8.133" x2="5.75" y2="-8.133"/>
  <line style="fill:none;stroke:#FFFFFF;stroke-width:0.8;stroke-linecap:round;" x1="3.5" y1="-9.034" x2="3.5" y2="-9.034"/>
  <line style="fill:none;stroke:#FFFFFF;stroke-width:0.8;stroke-linecap:round;" x1="7.55" y1="-5.433" x2="7.55" y2="-5.433"/>
  <line style="fill:none;stroke:#FFFFFF;stroke-width:0.8;stroke-linecap:round;" x1="10.25" y1="-4.534" x2="10.25" y2="-4.534"/>
  <line style="fill:none;stroke:#FFFFFF;stroke-width:0.8;stroke-linecap:round;" x1="15.2" y1="-3.784" x2="15.2" y2="-3.784"/>
  <line style="fill:none;stroke:#FFFFFF;stroke-width:0.8;stroke-linecap:round;" x1="15.95" y1="-6.784" x2="15.95" y2="-6.784"/>
  <line style="fill:none;stroke:#FFFFFF;stroke-width:0.8;stroke-linecap:round;" x1="15.5" y1="-10.234" x2="15.5" y2="-10.234"/>
  <line style="fill:none;stroke:#FFFFFF;stroke-width:0.8;stroke-linecap:round;" x1="16.7" y1="-11.734" x2="16.7" y2="-11.734"/>
  <line style="fill:none;stroke:#FFFFFF;stroke-width:0.8;stroke-linecap:round;" x1="17.9" y1="-17.583" x2="17.9" y2="-17.583"/>
  <line style="fill:none;stroke:#FFFFFF;stroke-width:0.8;stroke-linecap:round;" x1="17.6" y1="-20.133" x2="17.6" y2="-20.133"/>
  <line style="fill:none;stroke:#FFFFFF;stroke-width:0.8;stroke-linecap:round;" x1="21.5" y1="-27.633" x2="21.5" y2="-27.633"/>
  <line style="fill:none;stroke:#FFFFFF;stroke-width:0.8;stroke-linecap:round;" x1="22.7" y1="-30.034" x2="22.7" y2="-30.034"/>
  <line style="fill:none;stroke:#FFFFFF;stroke-width:0.8;stroke-linecap:round;" x1="28.4" y1="-31.234" x2="28.4" y2="-31.234"/>
  <line style="fill:none;stroke:#FFFFFF;stroke-width:0.8;stroke-linecap:round;" x1="27.95" y1="-33.784" x2="27.95" y2="-33.784"/>
  <line style="fill:none;stroke:#FFFFFF;stroke-width:0.8;stroke-linecap:round;" x1="18.8" y1="-32.883" x2="18.8" y2="-32.883"/>
  <line style="fill:none;stroke:#FFFFFF;stroke-width:0.8;stroke-linecap:round;" x1="33.35" y1="-33.034" x2="33.35" y2="-33.034"/>
  <line style="fill:none;stroke:#FFFFFF;stroke-width:0.8;stroke-linecap:round;" x1="28.1" y1="-35.583" x2="28.1" y2="-35.583"/>
  <line style="fill:none;stroke:#FFFFFF;stroke-width:0.8;stroke-linecap:round;" x1="32.45" y1="-35.434" x2="32.45" y2="-35.434"/>
  <line style="fill:none;stroke:#FFFFFF;stroke-width:0.8;stroke-linecap:round;" x1="37.85" y1="-35.883" x2="37.85" y2="-35.883"/>
  <line style="fill:none;stroke:#FFFFFF;stroke-width:0.8;stroke-linecap:round;" x1="37.1" y1="-37.833" x2="37.1" y2="-37.833"/>
  <line style="fill:none;stroke:#FFFFFF;stroke-width:0.8;stroke-linecap:round;" x1="37.85" y1="-39.784" x2="37.85" y2="-39.784"/>
  <line style="fill:none;stroke:#FFFFFF;stroke-width:0.8;stroke-linecap:round;" x1="37.4" y1="-41.734" x2="37.4" y2="-41.734"/>
  <line style="fill:none;stroke:#FFFFFF;stroke-width:0.8;stroke-linecap:round;" x1="38.15" y1="-43.384" x2="38.15" y2="-43.384"/>
  <line style="fill:none;stroke:#FFFFFF;stroke-width:0.8;stroke-linecap:round;" x1="42.65" y1="-42.634" x2="42.65" y2="-42.634"/>
  <line style="fill:none;stroke:#FFFFFF;stroke-width:0.8;stroke-linecap:round;" x1="40.25" y1="-40.684" x2="40.25" y2="-40.684"/>
  <line style="fill:none;stroke:#FFFFFF;stroke-width:0.8;stroke-linecap:round;" x1="38.3" y1="-31.984" x2="38.3" y2="-31.984"/>
  <line style="fill:none;stroke:#FFFFFF;stroke-width:0.8;stroke-linecap:round;" x1="35.45" y1="-31.984" x2="35.45" y2="-31.984"/>
  <line style="fill:none;stroke:#FFFFFF;stroke-width:0.8;stroke-linecap:round;" x1="35.45" y1="-34.984" x2="35.45" y2="-34.984"/>
  <line style="fill:none;stroke:#FFFFFF;stroke-width:0.8;stroke-linecap:round;" x1="41.15" y1="-30.784" x2="41.15" y2="-30.784"/>
  <line style="fill:none;stroke:#FFFFFF;stroke-width:0.8;stroke-linecap:round;" x1="37.85" y1="-27.784" x2="37.85" y2="-27.784"/>
  <line style="fill:none;stroke:#FFFFFF;stroke-width:0.8;stroke-linecap:round;" x1="33.8" y1="-26.583" x2="33.8" y2="-26.583"/>
  <line style="fill:none;stroke:#FFFFFF;stroke-width:0.8;stroke-linecap:round;" x1="30.65" y1="-25.984" x2="30.65" y2="-25.984"/>
  <line style="fill:none;stroke:#FFFFFF;stroke-width:0.8;stroke-linecap:round;" x1="28.7" y1="-22.684" x2="28.7" y2="-22.684"/>
  <line style="fill:none;stroke:#FFFFFF;stroke-width:0.8;stroke-linecap:round;" x1="22.55" y1="-21.333" x2="22.55" y2="-21.333"/>
  <line style="fill:none;stroke:#FFFFFF;stroke-width:0.8;stroke-linecap:round;" x1="26.6" y1="-17.434" x2="26.6" y2="-17.434"/>
  <line style="fill:none;stroke:#FFFFFF;stroke-width:0.8;stroke-linecap:round;" x1="29.6" y1="-14.883" x2="29.6" y2="-14.883"/>
  <line style="fill:none;stroke:#FFFFFF;stroke-width:0.8;stroke-linecap:round;" x1="30.05" y1="-12.183" x2="30.05" y2="-12.183"/>
  <line style="fill:none;stroke:#FFFFFF;stroke-width:0.8;stroke-linecap:round;" x1="27.35" y1="-10.534" x2="27.35" y2="-10.534"/>
  <line style="fill:none;stroke:#FFFFFF;stroke-width:0.8;stroke-linecap:round;" x1="26.15" y1="-8.583" x2="26.15" y2="-8.583"/>
  <line style="fill:none;stroke:#FFFFFF;stroke-width:0.8;stroke-linecap:round;" x1="23.75" y1="-8.583" x2="23.75" y2="-8.583"/>
  <line style="fill:none;stroke:#FFFFFF;stroke-width:0.8;stroke-linecap:round;" x1="24.05" y1="-14.583" x2="24.05" y2="-14.583"/>
  <line style="fill:none;stroke:#FFFFFF;stroke-width:0.8;stroke-linecap:round;" x1="20.3" y1="-8.883" x2="20.3" y2="-8.883"/>
  <line style="fill:none;stroke:#FFFFFF;stroke-width:0.8;stroke-linecap:round;" x1="21.05" y1="-5.133" x2="21.05" y2="-5.133"/>
  <line style="fill:none;stroke:#FFFFFF;stroke-width:0.8;stroke-linecap:round;" x1="24.65" y1="-4.234" x2="24.65" y2="-4.234"/>
  <line style="fill:none;stroke:#FFFFFF;stroke-width:0.8;stroke-linecap:round;" x1="39.95" y1="-12.034" x2="39.95" y2="-12.034"/>
  <line style="fill:none;stroke:#FFFFFF;stroke-width:0.8;stroke-linecap:round;" x1="38.15" y1="-15.784" x2="38.15" y2="-15.784"/>
  <line style="fill:none;stroke:#FFFFFF;stroke-width:0.8;stroke-linecap:round;" x1="34.85" y1="-15.933" x2="34.85" y2="-15.933"/>
  <line style="fill:none;stroke:#FFFFFF;stroke-width:0.8;stroke-linecap:round;" x1="35" y1="-21.184" x2="35" y2="-21.184"/>
  <line style="fill:none;stroke:#FFFFFF;stroke-width:0.8;stroke-linecap:round;" x1="39.65" y1="-20.883" x2="39.65" y2="-20.883"/>
  <line style="fill:none;stroke:#FFFFFF;stroke-width:0.8;stroke-linecap:round;" x1="43.7" y1="-17.133" x2="43.7" y2="-17.133"/>
  <line style="fill:none;stroke:#FFFFFF;stroke-width:0.8;stroke-linecap:round;" x1="43.85" y1="-13.683" x2="43.85" y2="-13.683"/>
  <line style="fill:none;stroke:#FFFFFF;stroke-width:0.8;stroke-linecap:round;" x1="40.25" y1="-9.183" x2="40.25" y2="-9.183"/>
  <line style="fill:none;stroke:#FFFFFF;stroke-width:0.8;stroke-linecap:round;" x1="44.3" y1="-10.683" x2="44.3" y2="-10.683"/>
  <line style="fill:none;stroke:#FFFFFF;stroke-width:0.8;stroke-linecap:round;" x1="41" y1="-6.933" x2="41" y2="-6.933"/>
  <line style="fill:none;stroke:#FFFFFF;stroke-width:0.8;stroke-linecap:round;" x1="41.6" y1="-5.284" x2="41.6" y2="-5.284"/>
  <line style="fill:none;stroke:#FFFFFF;stroke-width:0.8;stroke-linecap:round;" x1="39.65" y1="-4.082" x2="39.65" y2="-4.082"/>
  <line style="fill:none;stroke:#FFFFFF;stroke-width:0.8;stroke-linecap:round;" x1="33.8" y1="-4.383" x2="33.8" y2="-4.383"/>
  <line style="fill:none;stroke:#FFFFFF;stroke-width:0.8;stroke-linecap:round;" x1="29" y1="-6.332" x2="29" y2="-6.332"/>
  <line style="fill:none;stroke:#FFFFFF;stroke-width:0.8;stroke-linecap:round;" x1="19.25" y1="-3.484" x2="19.25" y2="-3.484"/>
  <line style="fill:none;stroke:#FFFFFF;stroke-width:0.8;stroke-linecap:round;" x1="3.35" y1="-28.684" x2="3.35" y2="-28.684"/>
  <line style="fill:none;stroke:#FFFFFF;stroke-width:0.8;stroke-linecap:round;" x1="10.1" y1="-43.234" x2="10.1" y2="-43.234"/>
  <line style="fill:none;stroke:#FFFFFF;stroke-width:0.8;stroke-linecap:round;" x1="44.3" y1="-25.533" x2="44.3" y2="-25.533"/>
  <line style="fill:none;stroke:#FFFFFF;stroke-width:0.8;stroke-linecap:round;" x1="44.617" y1="-21.433" x2="44.617" y2="-21.433"/>
  <line style="fill:none;stroke:#FFFFFF;stroke-width:0.8;stroke-linecap:round;" x1="3.95" y1="-15.633" x2="3.95" y2="-15.633"/>
  <line style="fill:none;stroke:#FFFFFF;stroke-width:0.8;stroke-linecap:round;" x1="43.55" y1="-30.333" x2="43.55" y2="-30.333"/>
  <line style="fill:none;stroke:#FFFFFF;stroke-width:0.8;stroke-linecap:round;" x1="42.65" y1="-9.183" x2="42.65" y2="-9.183"/>
  <line style="fill:none;stroke:#FFFFFF;stroke-width:0.8;stroke-linecap:round;" x1="2.7" y1="-11.6" x2="2.7" y2="-11.6"/>
  <line style="fill:none;stroke:#FFFFFF;stroke-width:0.8;stroke-linecap:round;" x1="3.8" y1="-3.484" x2="3.8" y2="-3.484"/>
  <line style="fill:none;stroke:#FFFFFF;stroke-width:0.8;stroke-linecap:round;" x1="44.8" y1="-32.208" x2="44.8" y2="-32.208"/>
  <line style="fill:none;stroke:#FFFFFF;stroke-width:0.8;stroke-linecap:round;" x1="2.9" y1="-36.184" x2="2.9" y2="-36.184"/>
  <line style="fill:none;stroke:#FFFFFF;stroke-width:0.8;stroke-linecap:round;" x1="12.95" y1="-38.583" x2="12.95" y2="-38.583"/>
  <line style="fill:none;stroke:#FFFFFF;stroke-width:0.8;stroke-linecap:round;" x1="19.7" y1="-40.234" x2="19.7" y2="-40.234"/>
  <line style="fill:none;stroke:#FFFFFF;stroke-width:0.8;stroke-linecap:round;" x1="18.2" y1="-43.984" x2="18.2" y2="-43.984"/>
  <line style="fill:none;stroke:#FFFFFF;stroke-width:0.8;stroke-linecap:round;" x1="26.3" y1="-40.083" x2="26.3" y2="-40.083"/>
  <line style="fill:none;stroke:#FFFFFF;stroke-width:0.8;stroke-linecap:round;" x1="29.9" y1="-40.083" x2="29.9" y2="-40.083"/>
  <line style="fill:none;stroke:#FFFFFF;stroke-width:0.8;stroke-linecap:round;" x1="30.5" y1="-32.583" x2="30.5" y2="-32.583"/>
  <line style="fill:none;stroke:#FFFFFF;stroke-width:0.8;stroke-linecap:round;" x1="35" y1="-42.184" x2="35" y2="-42.184"/>
  <line style="fill:none;stroke:#FFFFFF;stroke-width:0.8;stroke-linecap:round;" x1="40.55" y1="-42.333" x2="40.55" y2="-42.333"/>
  <line style="fill:none;stroke:#FFFFFF;stroke-width:0.8;stroke-linecap:round;" x1="39.8" y1="-45.034" x2="39.8" y2="-45.034"/>
  <line style="fill:none;stroke:#FFFFFF;stroke-width:0.8;stroke-linecap:round;" x1="43.85" y1="-35.434" x2="43.85" y2="-35.434"/>
  <line style="fill:none;stroke:#FFFFFF;stroke-width:0.8;stroke-linecap:round;" x1="6.95" y1="-18.034" x2="6.95" y2="-18.034"/>
  <line style="fill:none;stroke:#FFFFFF;stroke-width:0.8;stroke-linecap:round;" x1="5.15" y1="-12.183" x2="5.15" y2="-12.183"/>
  <line style="fill:none;stroke:#FFFFFF;stroke-width:0.8;stroke-linecap:round;" x1="4.1" y1="-6.784" x2="4.1" y2="-6.784"/>
  <line style="fill:none;stroke:#FFFFFF;stroke-width:0.8;stroke-linecap:round;" x1="12.8" y1="-4.383" x2="12.8" y2="-4.383"/>
  <line style="fill:none;stroke:#FFFFFF;stroke-width:0.8;stroke-linecap:round;" x1="14.75" y1="-8.433" x2="14.75" y2="-8.433"/>
  <line style="fill:none;stroke:#FFFFFF;stroke-width:0.8;stroke-linecap:round;" x1="14.75" y1="-19.083" x2="14.75" y2="-19.083"/>
  <line style="fill:none;stroke:#FFFFFF;stroke-width:0.8;stroke-linecap:round;" x1="19.25" y1="-15.633" x2="19.25" y2="-15.633"/>
  <line style="fill:none;stroke:#FFFFFF;stroke-width:0.8;stroke-linecap:round;" x1="24.05" y1="-10.234" x2="24.05" y2="-10.234"/>
  <line style="fill:none;stroke:#FFFFFF;stroke-width:0.8;stroke-linecap:round;" x1="22.7" y1="-6.183" x2="22.7" y2="-6.183"/>
  <line style="fill:none;stroke:#FFFFFF;stroke-width:0.8;stroke-linecap:round;" x1="27.2" y1="-13.234" x2="27.2" y2="-13.234"/>
  <line style="fill:none;stroke:#FFFFFF;stroke-width:0.8;stroke-linecap:round;" x1="33.5" y1="-10.383" x2="33.5" y2="-10.383"/>
  <line style="fill:none;stroke:#FFFFFF;stroke-width:0.8;stroke-linecap:round;" x1="31.85" y1="-8.284" x2="31.85" y2="-8.284"/>
  <line style="fill:none;stroke:#FFFFFF;stroke-width:0.8;stroke-linecap:round;" x1="35.15" y1="-7.082" x2="35.15" y2="-7.082"/>
  <line style="fill:none;stroke:#FFFFFF;stroke-width:0.8;stroke-linecap:round;" x1="17.3" y1="-31.534" x2="17.3" y2="-31.534"/>
  <line style="fill:none;stroke:#FFFFFF;stroke-width:0.8;stroke-linecap:round;" x1="23.3" y1="-32.284" x2="23.3" y2="-32.284"/>
  <line style="fill:none;stroke:#FFFFFF;stroke-width:0.8;stroke-linecap:round;" x1="27.65" y1="-29.284" x2="27.65" y2="-29.284"/>
  <line style="fill:none;stroke:#FFFFFF;stroke-width:0.8;stroke-linecap:round;" x1="33.35" y1="-20.434" x2="33.35" y2="-20.434"/>
  <line style="fill:none;stroke:#FFFFFF;stroke-width:0.8;stroke-linecap:round;" x1="42.35" y1="-15.183" x2="42.35" y2="-15.183"/>
  <line style="fill:none;stroke:#FFFFFF;stroke-width:0.8;stroke-linecap:round;" x1="30.5" y1="-17.583" x2="30.5" y2="-17.583"/>
  <line style="fill:none;stroke:#FFFFFF;stroke-width:0.8;stroke-linecap:round;" x1="24.35" y1="-19.533" x2="24.35" y2="-19.533"/>
  <line style="fill:none;stroke:#FFFFFF;stroke-width:0.8;stroke-linecap:round;" x1="12.35" y1="-29.133" x2="12.35" y2="-29.133"/>
  <line style="fill:none;stroke:#FFFFFF;stroke-width:0.8;stroke-linecap:round;" x1="8.9" y1="-24.184" x2="8.9" y2="-24.184"/>
  <line style="fill:none;stroke:#FFFFFF;stroke-width:0.8;stroke-linecap:round;" x1="41.75" y1="-26.734" x2="41.75" y2="-26.734"/>
  <line style="fill:none;stroke:#FFFFFF;stroke-width:0.8;stroke-linecap:round;" x1="6.5" y1="-36.784" x2="6.5" y2="-36.784"/>
  <line style="fill:none;stroke:#FFFFFF;stroke-width:0.8;stroke-linecap:round;" x1="7.25" y1="-43.083" x2="7.25" y2="-43.083"/>
  <line style="fill:none;stroke:#FFFFFF;stroke-width:0.8;stroke-linecap:round;" x1="4.25" y1="-44.734" x2="4.25" y2="-44.734"/>
  <line style="fill:none;stroke:#FFFFFF;stroke-width:0.8;stroke-linecap:round;" x1="42.05" y1="-23.883" x2="42.05" y2="-23.883"/>
  <line style="fill:none;stroke:#FFFFFF;stroke-width:0.8;stroke-linecap:round;" x1="28.55" y1="-8.433" x2="28.55" y2="-8.433"/>
  <line style="fill:none;stroke:#FFFFFF;stroke-width:0.8;stroke-linecap:round;" x1="17.6" y1="-4.234" x2="17.6" y2="-4.234"/>
  <line style="fill:none;stroke:#FFFFFF;stroke-width:0.8;stroke-linecap:round;" x1="15.35" y1="-21.184" x2="15.35" y2="-21.184"/>
  <line style="fill:none;stroke:#FFFFFF;stroke-width:0.8;stroke-linecap:round;" x1="27.05" y1="-25.533" x2="27.05" y2="-25.533"/>
  <line style="fill:none;stroke:#FFFFFF;stroke-width:0.8;stroke-linecap:round;" x1="41.9" y1="-21.934" x2="41.9" y2="-21.934"/>
  <line style="fill:none;stroke:#FFFFFF;stroke-width:0.8;stroke-linecap:round;" x1="34.1" y1="-37.234" x2="34.1" y2="-37.234"/>
  <line style="fill:none;stroke:#FFFFFF;stroke-width:0.8;stroke-linecap:round;" x1="24.95" y1="-35.583" x2="24.95" y2="-35.583"/>
  <line style="fill:none;stroke:#FFFFFF;stroke-width:0.8;stroke-linecap:round;" x1="9.95" y1="-34.234" x2="9.95" y2="-34.234"/>
  <line style="fill:none;stroke:#FFFFFF;stroke-width:0.8;stroke-linecap:round;" x1="31.85" y1="-43.534" x2="31.85" y2="-43.534"/>
  <line style="fill:none;stroke:#FFFFFF;stroke-width:0.8;stroke-linecap:round;" x1="37.55" y1="-33.784" x2="37.55" y2="-33.784"/>
  <line style="fill:none;stroke:#FFFFFF;stroke-width:0.8;stroke-linecap:round;" x1="42.65" y1="-11.883" x2="42.65" y2="-11.883"/>
  <line style="fill:none;stroke:#FFFFFF;stroke-width:0.8;stroke-linecap:round;" x1="5.3" y1="-4.383" x2="5.3" y2="-4.383"/>
  <line style="fill:none;stroke:#FFFFFF;stroke-width:0.8;stroke-linecap:round;" x1="3.8" y1="-38.284" x2="3.8" y2="-38.284"/>
  <line style="fill:none;stroke:#FFFFFF;stroke-width:0.8;stroke-linecap:round;" x1="12.35" y1="-44.583" x2="12.35" y2="-44.583"/>
  <line style="fill:none;stroke:#FFFFFF;stroke-width:0.8;stroke-linecap:round;" x1="27.65" y1="-43.534" x2="27.65" y2="-43.534"/>
  <line style="fill:none;stroke:#FFFFFF;stroke-width:0.8;stroke-linecap:round;" x1="3.8" y1="-27.034" x2="3.8" y2="-27.034"/>
  <line style="fill:none;stroke:#FFFFFF;stroke-width:0.8;stroke-linecap:round;" x1="6.65" y1="-31.234" x2="6.65" y2="-31.234"/>
  <line style="fill:none;stroke:#FFFFFF;stroke-width:0.8;stroke-linecap:round;" x1="4.1" y1="-17.883" x2="4.1" y2="-17.883"/>
  <line style="fill:none;stroke:#FFFFFF;stroke-width:0.8;stroke-linecap:round;" x1="8.75" y1="-15.933" x2="8.75" y2="-15.933"/>
  <line style="fill:none;stroke:#FFFFFF;stroke-width:0.8;stroke-linecap:round;" x1="8.15" y1="-10.383" x2="8.15" y2="-10.383"/>
  <line style="fill:none;stroke:#FFFFFF;stroke-width:0.8;stroke-linecap:round;" x1="10.25" y1="-6.784" x2="10.25" y2="-6.784"/>
  <line style="fill:none;stroke:#FFFFFF;stroke-width:0.8;stroke-linecap:round;" x1="15.35" y1="-14.284" x2="15.35" y2="-14.284"/>
  <line style="fill:none;stroke:#FFFFFF;stroke-width:0.8;stroke-linecap:round;" x1="22.55" y1="-25.833" x2="22.55" y2="-25.833"/>
  <line style="fill:none;stroke:#FFFFFF;stroke-width:0.8;stroke-linecap:round;" x1="17.75" y1="-25.833" x2="17.75" y2="-25.833"/>
  <line style="fill:none;stroke:#FFFFFF;stroke-width:0.8;stroke-linecap:round;" x1="24.5" y1="-29.133" x2="24.5" y2="-29.133"/>
  <line style="fill:none;stroke:#FFFFFF;stroke-width:0.8;stroke-linecap:round;" x1="38.9" y1="-30.034" x2="38.9" y2="-30.034"/>
  <line style="fill:none;stroke:#FFFFFF;stroke-width:0.8;stroke-linecap:round;" x1="37.4" y1="-12.034" x2="37.4" y2="-12.034"/>
  <line style="fill:none;stroke:#FFFFFF;stroke-width:0.8;stroke-linecap:round;" x1="37.4" y1="-20.734" x2="37.4" y2="-20.734"/>
  <line style="fill:none;stroke:#FFFFFF;stroke-width:0.8;stroke-linecap:round;" x1="35.6" y1="-24.934" x2="35.6" y2="-24.934"/>
  <line style="fill:none;stroke:#FFFFFF;stroke-width:0.8;stroke-linecap:round;" x1="43.7" y1="-3.933" x2="43.7" y2="-3.933"/>
  <line style="fill:none;stroke:#FFFFFF;stroke-width:0.8;stroke-linecap:round;" x1="38.6" y1="-6.784" x2="38.6" y2="-6.784"/>
  <line style="fill:none;stroke:#FFFFFF;stroke-width:0.8;stroke-linecap:round;" x1="28.367" y1="-4.1" x2="28.367" y2="-4.1"/>
  <line style="fill:none;stroke:#FFFFFF;stroke-width:0.8;stroke-linecap:round;" x1="16.85" y1="-45.634" x2="16.85" y2="-45.634"/>
  <line style="fill:none;stroke:#FFFFFF;stroke-width:0.8;stroke-linecap:round;" x1="19.1" y1="-5.997" x2="19.1" y2="-5.997"/>
  <line style="fill:none;stroke:#FFFFFF;stroke-width:0.8;stroke-linecap:round;" x1="23" y1="-23.883" x2="23" y2="-23.883"/>
  <line style="fill:none;stroke:#FFFFFF;stroke-width:0.8;stroke-linecap:round;" x1="25.85" y1="-21.633" x2="25.85" y2="-21.633"/>
  <line style="fill:none;stroke:#FFFFFF;stroke-width:0.8;stroke-linecap:round;" x1="37.55" y1="-26.133" x2="37.55" y2="-26.133"/>
  <line style="fill:none;stroke:#FFFFFF;stroke-width:0.8;stroke-linecap:round;" x1="6.5" y1="-20.434" x2="6.5" y2="-20.434"/>
  <line style="fill:none;stroke:#FFFFFF;stroke-width:0.8;stroke-linecap:round;" x1="8.3" y1="-40.684" x2="8.3" y2="-40.684"/>
  <line style="fill:none;stroke:#FFFFFF;stroke-width:0.8;stroke-linecap:round;" x1="29.9" y1="-27.859" x2="29.9" y2="-27.859"/>
  <line style="fill:none;stroke:#FFFFFF;stroke-width:0.8;stroke-linecap:round;" x1="11.9" y1="-32.734" x2="11.9" y2="-32.734"/>
  <line style="fill:none;stroke:#FFFFFF;stroke-width:0.8;stroke-linecap:round;" x1="16.7" y1="-39.934" x2="16.7" y2="-39.934"/>
  <line style="fill:none;stroke:#FFFFFF;stroke-width:0.8;stroke-linecap:round;" x1="6.2" y1="-41.134" x2="6.2" y2="-41.134"/>
  <line style="fill:none;stroke:#FFFFFF;stroke-width:0.8;stroke-linecap:round;" x1="6.05" y1="-25.833" x2="6.05" y2="-25.833"/>
  <line style="fill:none;stroke:#FFFFFF;stroke-width:0.8;stroke-linecap:round;" x1="15.35" y1="-26.133" x2="15.35" y2="-26.133"/>
  <line style="fill:none;stroke:#FFFFFF;stroke-width:0.8;stroke-linecap:round;" x1="20" y1="-19.684" x2="20" y2="-19.684"/>
  <line style="fill:none;stroke:#FFFFFF;stroke-width:0.8;stroke-linecap:round;" x1="40.1" y1="-13.984" x2="40.1" y2="-13.984"/>
  <line style="fill:none;stroke:#FFFFFF;stroke-width:0.8;stroke-linecap:round;" x1="15.05" y1="-5.433" x2="15.05" y2="-5.433"/>
  <line style="fill:none;stroke:#FFFFFF;stroke-width:0.8;stroke-linecap:round;" x1="32" y1="-45.484" x2="32" y2="-45.484"/>
  <line style="fill:none;stroke:#FFFFFF;stroke-width:0.8;stroke-linecap:round;" x1="44.617" y1="-8.433" x2="44.617" y2="-8.433"/>
  <line style="fill:none;stroke:#FFFFFF;stroke-width:0.8;stroke-linecap:round;" x1="44.45" y1="-43.833" x2="44.45" y2="-43.833"/>
  <line style="fill:none;stroke:#FFFFFF;stroke-width:0.8;stroke-linecap:round;" x1="44.784" y1="-15.85" x2="44.784" y2="-15.85"/>
  <line style="fill:none;stroke:#FFFFFF;stroke-width:0.8;stroke-linecap:round;" x1="44.45" y1="-39.634" x2="44.45" y2="-39.634"/>
  <line style="fill:none;stroke:#FFFFFF;stroke-width:0.8;stroke-linecap:round;" x1="44.75" y1="-23.283" x2="44.75" y2="-23.283"/>
  <line style="fill:none;stroke:#FFFFFF;stroke-width:0.8;stroke-linecap:round;" x1="26" y1="-45.184" x2="26" y2="-45.184"/>
  <line style="fill:none;stroke:#FFFFFF;stroke-width:1.55;stroke-linecap:round;" x1="14.75" y1="-44.434" x2="14.75" y2="-44.434"/>
  <line style="fill:none;stroke:#FFFFFF;stroke-width:1.55;stroke-linecap:round;" x1="21.2" y1="-39.184" x2="21.2" y2="-39.184"/>
  <line style="fill:none;stroke:#FFFFFF;stroke-width:1.55;stroke-linecap:round;" x1="42.95" y1="-33.484" x2="42.95" y2="-33.484"/>
  <line style="fill:none;stroke:#FFFFFF;stroke-width:1.55;stroke-linecap:round;" x1="26.825" y1="-17.258" x2="26.825" y2="-17.258"/>
  <line style="fill:none;stroke:#FFFFFF;stroke-width:1.55;stroke-linecap:round;" x1="20.75" y1="-10.833" x2="20.75" y2="-10.833"/>
  <line style="fill:none;stroke:#FFFFFF;stroke-width:1.55;stroke-linecap:round;" x1="35.15" y1="-13.683" x2="35.15" y2="-13.683"/>
  <line style="fill:none;stroke:#FFFFFF;stroke-width:1.55;stroke-linecap:round;" x1="8.5" y1="-28.333" x2="8.5" y2="-28.333"/>
  <line style="fill:none;stroke:#FFFFFF;stroke-width:1.55;stroke-linecap:round;" x1="5.9" y1="-38.884" x2="5.9" y2="-38.884"/>
  <line style="fill:none;stroke:#FFFFFF;stroke-width:1.55;stroke-linecap:round;" x1="14.25" y1="-36.383" x2="14.25" y2="-36.383"/>
  <line style="fill:none;stroke:#FFFFFF;stroke-width:1.55;stroke-linecap:round;" x1="22.7" y1="-30.034" x2="22.7" y2="-30.034"/>
  <line style="fill:none;stroke:#FFFFFF;stroke-width:1.55;stroke-linecap:round;" x1="32.45" y1="-35.434" x2="32.45" y2="-35.434"/>
  <line style="fill:none;stroke:#FFFFFF;stroke-width:1.55;stroke-linecap:round;" x1="38.15" y1="-43.384" x2="38.15" y2="-43.384"/>
  <line style="fill:none;stroke:#FFFFFF;stroke-width:1.55;stroke-linecap:round;" x1="31.2" y1="-23.809" x2="31.2" y2="-23.809"/>
  <line style="fill:none;stroke:#FFFFFF;stroke-width:1.55;stroke-linecap:round;" x1="44.617" y1="-21.433" x2="44.617" y2="-21.433"/>
  <line style="fill:none;stroke:#FFFFFF;stroke-width:1.55;stroke-linecap:round;" x1="9.025" y1="-15.933" x2="9.025" y2="-15.933"/>
  <line style="fill:none;stroke:#FFFFFF;stroke-width:1.55;stroke-linecap:round;" x1="10.25" y1="-6.784" x2="10.25" y2="-6.784"/>
  <line style="fill:none;stroke:#FFFFFF;stroke-width:1.55;stroke-linecap:round;" x1="28.367" y1="-4.1" x2="28.367" y2="-4.1"/>
  <line style="fill:none;stroke:#FFFFFF;stroke-width:1.55;stroke-linecap:round;" x1="37.55" y1="-26.133" x2="37.55" y2="-26.133"/>
  <line style="fill:none;stroke:#FFFFFF;stroke-width:1.55;stroke-linecap:round;" x1="17.975" y1="-23.383" x2="17.975" y2="-23.383"/>
  <line style="fill:none;stroke:#FFFFFF;stroke-width:1.55;stroke-linecap:round;" x1="44.617" y1="-8.433" x2="44.617" y2="-8.433"/>
 </g>
</svg>
