<?xml version="1.0"?>
<!-- Converted with SVG Converter - Version 0.9.5 (Compiled Fri Feb 21 09:53:38 2020) - Copyright (C) 2011 Nokia -->
<svg xmlns="http://www.w3.org/2000/svg" width="43.2" version="1.1" viewBox="2.184 -46.117 43.2 43.2" xmlns:xlink="http://www.w3.org/1999/xlink" height="43.2" y="0px" xml:space="preserve" baseProfile="tiny" x="0px">
 <g>
  <rect width="43.2" style="fill:none;" height="43.2" y="-46.117" x="2.184"/>
  <line x2="14.75" y2="-44.434" style="fill:none;stroke:#00AEEF;stroke-width:0.8;stroke-linecap:round;" y1="-44.434" x1="14.75"/>
  <line x2="14.75" y2="-42.034" style="fill:none;stroke:#00AEEF;stroke-width:0.8;stroke-linecap:round;" y1="-42.034" x1="14.75"/>
  <line x2="14.3" y2="-39.934" style="fill:none;stroke:#00AEEF;stroke-width:0.8;stroke-linecap:round;" y1="-39.934" x1="14.3"/>
  <line x2="10.85" y2="-39.784" style="fill:none;stroke:#00AEEF;stroke-width:0.8;stroke-linecap:round;" y1="-39.784" x1="10.85"/>
  <line x2="16.55" y2="-33.633" style="fill:none;stroke:#00AEEF;stroke-width:0.8;stroke-linecap:round;" y1="-33.633" x1="16.55"/>
  <line x2="10.1" y2="-30.484" style="fill:none;stroke:#00AEEF;stroke-width:0.8;stroke-linecap:round;" y1="-30.484" x1="10.1"/>
  <line x2="16.55" y2="-30.034" style="fill:none;stroke:#00AEEF;stroke-width:0.8;stroke-linecap:round;" y1="-30.034" x1="16.55"/>
  <line x2="20" y2="-30.034" style="fill:none;stroke:#00AEEF;stroke-width:0.8;stroke-linecap:round;" y1="-30.034" x1="20"/>
  <line x2="20.9" y2="-32.284" style="fill:none;stroke:#00AEEF;stroke-width:0.8;stroke-linecap:round;" y1="-32.284" x1="20.9"/>
  <line x2="19.7" y2="-35.284" style="fill:none;stroke:#00AEEF;stroke-width:0.8;stroke-linecap:round;" y1="-35.284" x1="19.7"/>
  <line x2="22.55" y2="-34.383" style="fill:none;stroke:#00AEEF;stroke-width:0.8;stroke-linecap:round;" y1="-34.383" x1="22.55"/>
  <line x2="22.55" y2="-37.234" style="fill:none;stroke:#00AEEF;stroke-width:0.8;stroke-linecap:round;" y1="-37.234" x1="22.55"/>
  <line x2="21.2" y2="-39.184" style="fill:none;stroke:#00AEEF;stroke-width:0.8;stroke-linecap:round;" y1="-39.184" x1="21.2"/>
  <line x2="21.5" y2="-42.034" style="fill:none;stroke:#00AEEF;stroke-width:0.8;stroke-linecap:round;" y1="-42.034" x1="21.5"/>
  <line x2="20.75" y2="-44.134" style="fill:none;stroke:#00AEEF;stroke-width:0.8;stroke-linecap:round;" y1="-44.134" x1="20.75"/>
  <line x2="22.55" y2="-45.484" style="fill:none;stroke:#00AEEF;stroke-width:0.8;stroke-linecap:round;" y1="-45.484" x1="22.55"/>
  <line x2="27.05" y2="-42.034" style="fill:none;stroke:#00AEEF;stroke-width:0.8;stroke-linecap:round;" y1="-42.034" x1="27.05"/>
  <line x2="29.45" y2="-42.184" style="fill:none;stroke:#00AEEF;stroke-width:0.8;stroke-linecap:round;" y1="-42.184" x1="29.45"/>
  <line x2="27.65" y2="-38.134" style="fill:none;stroke:#00AEEF;stroke-width:0.8;stroke-linecap:round;" y1="-38.134" x1="27.65"/>
  <line x2="30.35" y2="-37.684" style="fill:none;stroke:#00AEEF;stroke-width:0.8;stroke-linecap:round;" y1="-37.684" x1="30.35"/>
  <line x2="30.35" y2="-34.684" style="fill:none;stroke:#00AEEF;stroke-width:0.8;stroke-linecap:round;" y1="-34.684" x1="30.35"/>
  <line x2="25.55" y2="-33.784" style="fill:none;stroke:#00AEEF;stroke-width:0.8;stroke-linecap:round;" y1="-33.784" x1="25.55"/>
  <line x2="32.3" y2="-38.134" style="fill:none;stroke:#00AEEF;stroke-width:0.8;stroke-linecap:round;" y1="-38.134" x1="32.3"/>
  <line x2="35" y2="-39.634" style="fill:none;stroke:#00AEEF;stroke-width:0.8;stroke-linecap:round;" y1="-39.634" x1="35"/>
  <line x2="36.117" y2="-45.6" style="fill:none;stroke:#00AEEF;stroke-width:0.8;stroke-linecap:round;" y1="-45.6" x1="36.117"/>
  <line x2="42.65" y2="-45.184" style="fill:none;stroke:#00AEEF;stroke-width:0.8;stroke-linecap:round;" y1="-45.184" x1="42.65"/>
  <line x2="42.95" y2="-40.083" style="fill:none;stroke:#00AEEF;stroke-width:0.8;stroke-linecap:round;" y1="-40.083" x1="42.95"/>
  <line x2="40.7" y2="-38.884" style="fill:none;stroke:#00AEEF;stroke-width:0.8;stroke-linecap:round;" y1="-38.884" x1="40.7"/>
  <line x2="41.3" y2="-36.784" style="fill:none;stroke:#00AEEF;stroke-width:0.8;stroke-linecap:round;" y1="-36.784" x1="41.3"/>
  <line x2="40.55" y2="-34.383" style="fill:none;stroke:#00AEEF;stroke-width:0.8;stroke-linecap:round;" y1="-34.383" x1="40.55"/>
  <line x2="40.7" y2="-32.734" style="fill:none;stroke:#00AEEF;stroke-width:0.8;stroke-linecap:round;" y1="-32.734" x1="40.7"/>
  <line x2="42.95" y2="-33.484" style="fill:none;stroke:#00AEEF;stroke-width:0.8;stroke-linecap:round;" y1="-33.484" x1="42.95"/>
  <line x2="6.35" y2="-14.883" style="fill:none;stroke:#00AEEF;stroke-width:0.8;stroke-linecap:round;" y1="-14.883" x1="6.35"/>
  <line x2="6.5" y2="-13.534" style="fill:none;stroke:#00AEEF;stroke-width:0.8;stroke-linecap:round;" y1="-13.534" x1="6.5"/>
  <line x2="3.5" y2="-13.534" style="fill:none;stroke:#00AEEF;stroke-width:0.8;stroke-linecap:round;" y1="-13.534" x1="3.5"/>
  <line x2="8" y2="-7.833" style="fill:none;stroke:#00AEEF;stroke-width:0.8;stroke-linecap:round;" y1="-7.833" x1="8"/>
  <line x2="2.75" y2="-5.433" style="fill:none;stroke:#00AEEF;stroke-width:0.8;stroke-linecap:round;" y1="-5.433" x1="2.75"/>
  <line x2="8.75" y2="-3.633" style="fill:none;stroke:#00AEEF;stroke-width:0.8;stroke-linecap:round;" y1="-3.633" x1="8.75"/>
  <path style="fill:none;stroke:#00AEEF;stroke-width:0.8;stroke-linecap:round;" d="M13.25-6.933L13.25-6.933"/>
  <line x2="11.9" y2="-8.883" style="fill:none;stroke:#00AEEF;stroke-width:0.8;stroke-linecap:round;" y1="-8.883" x1="11.9"/>
  <line x2="13.85" y2="-11.583" style="fill:none;stroke:#00AEEF;stroke-width:0.8;stroke-linecap:round;" y1="-11.583" x1="13.85"/>
  <line x2="9.5" y2="-9.034" style="fill:none;stroke:#00AEEF;stroke-width:0.8;stroke-linecap:round;" y1="-9.034" x1="9.5"/>
  <line x2="11.9" y2="-13.383" style="fill:none;stroke:#00AEEF;stroke-width:0.8;stroke-linecap:round;" y1="-13.383" x1="11.9"/>
  <line x2="13.7" y2="-15.633" style="fill:none;stroke:#00AEEF;stroke-width:0.8;stroke-linecap:round;" y1="-15.633" x1="13.7"/>
  <line x2="11" y2="-15.633" style="fill:none;stroke:#00AEEF;stroke-width:0.8;stroke-linecap:round;" y1="-15.633" x1="11"/>
  <line x2="11.9" y2="-17.883" style="fill:none;stroke:#00AEEF;stroke-width:0.8;stroke-linecap:round;" y1="-17.883" x1="11.9"/>
  <line x2="21.65" y2="-15.784" style="fill:none;stroke:#00AEEF;stroke-width:0.8;stroke-linecap:round;" y1="-15.784" x1="21.65"/>
  <line x2="18.5" y2="-13.683" style="fill:none;stroke:#00AEEF;stroke-width:0.8;stroke-linecap:round;" y1="-13.683" x1="18.5"/>
  <line x2="21.35" y2="-12.784" style="fill:none;stroke:#00AEEF;stroke-width:0.8;stroke-linecap:round;" y1="-12.784" x1="21.35"/>
  <line x2="20.75" y2="-10.833" style="fill:none;stroke:#00AEEF;stroke-width:0.8;stroke-linecap:round;" y1="-10.833" x1="20.75"/>
  <line x2="17.75" y2="-7.984" style="fill:none;stroke:#00AEEF;stroke-width:0.8;stroke-linecap:round;" y1="-7.984" x1="17.75"/>
  <line x2="23.75" y2="-12.484" style="fill:none;stroke:#00AEEF;stroke-width:0.8;stroke-linecap:round;" y1="-12.484" x1="23.75"/>
  <line x2="27.2" y2="-15.784" style="fill:none;stroke:#00AEEF;stroke-width:0.8;stroke-linecap:round;" y1="-15.784" x1="27.2"/>
  <line x2="28.25" y2="-19.383" style="fill:none;stroke:#00AEEF;stroke-width:0.8;stroke-linecap:round;" y1="-19.383" x1="28.25"/>
  <line x2="32.3" y2="-15.333" style="fill:none;stroke:#00AEEF;stroke-width:0.8;stroke-linecap:round;" y1="-15.333" x1="32.3"/>
  <line x2="33.05" y2="-17.583" style="fill:none;stroke:#00AEEF;stroke-width:0.8;stroke-linecap:round;" y1="-17.583" x1="33.05"/>
  <line x2="35.15" y2="-18.034" style="fill:none;stroke:#00AEEF;stroke-width:0.8;stroke-linecap:round;" y1="-18.034" x1="35.15"/>
  <line x2="35.15" y2="-13.683" style="fill:none;stroke:#00AEEF;stroke-width:0.8;stroke-linecap:round;" y1="-13.683" x1="35.15"/>
  <line x2="32.9" y2="-12.484" style="fill:none;stroke:#00AEEF;stroke-width:0.8;stroke-linecap:round;" y1="-12.484" x1="32.9"/>
  <line x2="30.8" y2="-10.083" style="fill:none;stroke:#00AEEF;stroke-width:0.8;stroke-linecap:round;" y1="-10.083" x1="30.8"/>
  <line x2="35.3" y2="-11.284" style="fill:none;stroke:#00AEEF;stroke-width:0.8;stroke-linecap:round;" y1="-11.284" x1="35.3"/>
  <line x2="37.1" y2="-9.333" style="fill:none;stroke:#00AEEF;stroke-width:0.8;stroke-linecap:round;" y1="-9.333" x1="37.1"/>
  <line x2="14.45" y2="-32.734" style="fill:none;stroke:#00AEEF;stroke-width:0.8;stroke-linecap:round;" y1="-32.734" x1="14.45"/>
  <line x2="25.55" y2="-31.383" style="fill:none;stroke:#00AEEF;stroke-width:0.8;stroke-linecap:round;" y1="-31.383" x1="25.55"/>
  <line x2="30.65" y2="-29.883" style="fill:none;stroke:#00AEEF;stroke-width:0.8;stroke-linecap:round;" y1="-29.883" x1="30.65"/>
  <line x2="35.3" y2="-29.434" style="fill:none;stroke:#00AEEF;stroke-width:0.8;stroke-linecap:round;" y1="-29.434" x1="35.3"/>
  <line x2="32.9" y2="-31.083" style="fill:none;stroke:#00AEEF;stroke-width:0.8;stroke-linecap:round;" y1="-31.083" x1="32.9"/>
  <line x2="33.35" y2="-28.534" style="fill:none;stroke:#00AEEF;stroke-width:0.8;stroke-linecap:round;" y1="-28.534" x1="33.35"/>
  <line x2="39.65" y2="-24.934" style="fill:none;stroke:#00AEEF;stroke-width:0.8;stroke-linecap:round;" y1="-24.934" x1="39.65"/>
  <line x2="36.2" y2="-22.833" style="fill:none;stroke:#00AEEF;stroke-width:0.8;stroke-linecap:round;" y1="-22.833" x1="36.2"/>
  <line x2="31.1" y2="-23.883" style="fill:none;stroke:#00AEEF;stroke-width:0.8;stroke-linecap:round;" y1="-23.883" x1="31.1"/>
  <line x2="30.95" y2="-21.484" style="fill:none;stroke:#00AEEF;stroke-width:0.8;stroke-linecap:round;" y1="-21.484" x1="30.95"/>
  <line x2="30.95" y2="-19.684" style="fill:none;stroke:#00AEEF;stroke-width:0.8;stroke-linecap:round;" y1="-19.684" x1="30.95"/>
  <line x2="37.55" y2="-18.484" style="fill:none;stroke:#00AEEF;stroke-width:0.8;stroke-linecap:round;" y1="-18.484" x1="37.55"/>
  <line x2="39.95" y2="-16.833" style="fill:none;stroke:#00AEEF;stroke-width:0.8;stroke-linecap:round;" y1="-16.833" x1="39.95"/>
  <line x2="43.25" y2="-19.984" style="fill:none;stroke:#00AEEF;stroke-width:0.8;stroke-linecap:round;" y1="-19.984" x1="43.25"/>
  <line x2="39.2" y2="-22.833" style="fill:none;stroke:#00AEEF;stroke-width:0.8;stroke-linecap:round;" y1="-22.833" x1="39.2"/>
  <line x2="21.65" y2="-18.034" style="fill:none;stroke:#00AEEF;stroke-width:0.8;stroke-linecap:round;" y1="-18.034" x1="21.65"/>
  <line x2="17.9" y2="-23.583" style="fill:none;stroke:#00AEEF;stroke-width:0.8;stroke-linecap:round;" y1="-23.583" x1="17.9"/>
  <line x2="20" y2="-24.934" style="fill:none;stroke:#00AEEF;stroke-width:0.8;stroke-linecap:round;" y1="-24.934" x1="20"/>
  <line x2="8.45" y2="-28.534" style="fill:none;stroke:#00AEEF;stroke-width:0.8;stroke-linecap:round;" y1="-28.534" x1="8.45"/>
  <line x2="5.75" y2="-27.333" style="fill:none;stroke:#00AEEF;stroke-width:0.8;stroke-linecap:round;" y1="-27.333" x1="5.75"/>
  <line x2="3.65" y2="-25.083" style="fill:none;stroke:#00AEEF;stroke-width:0.8;stroke-linecap:round;" y1="-25.083" x1="3.65"/>
  <line x2="12.35" y2="-21.033" style="fill:none;stroke:#00AEEF;stroke-width:0.8;stroke-linecap:round;" y1="-21.033" x1="12.35"/>
  <line x2="10.55" y2="-25.833" style="fill:none;stroke:#00AEEF;stroke-width:0.8;stroke-linecap:round;" y1="-25.833" x1="10.55"/>
  <line x2="18.05" y2="-28.083" style="fill:none;stroke:#00AEEF;stroke-width:0.8;stroke-linecap:round;" y1="-28.083" x1="18.05"/>
  <line x2="27.05" y2="-27.333" style="fill:none;stroke:#00AEEF;stroke-width:0.8;stroke-linecap:round;" y1="-27.333" x1="27.05"/>
  <line x2="24.5" y2="-27.333" style="fill:none;stroke:#00AEEF;stroke-width:0.8;stroke-linecap:round;" y1="-27.333" x1="24.5"/>
  <line x2="20.45" y2="-22.383" style="fill:none;stroke:#00AEEF;stroke-width:0.8;stroke-linecap:round;" y1="-22.383" x1="20.45"/>
  <line x2="6.05" y2="-33.934" style="fill:none;stroke:#00AEEF;stroke-width:0.8;stroke-linecap:round;" y1="-33.934" x1="6.05"/>
  <line x2="8" y2="-34.984" style="fill:none;stroke:#00AEEF;stroke-width:0.8;stroke-linecap:round;" y1="-34.984" x1="8"/>
  <line x2="9.2" y2="-32.133" style="fill:none;stroke:#00AEEF;stroke-width:0.8;stroke-linecap:round;" y1="-32.133" x1="9.2"/>
  <line x2="3.95" y2="-30.784" style="fill:none;stroke:#00AEEF;stroke-width:0.8;stroke-linecap:round;" y1="-30.784" x1="3.95"/>
  <line x2="40.7" y2="-28.534" style="fill:none;stroke:#00AEEF;stroke-width:0.8;stroke-linecap:round;" y1="-28.534" x1="40.7"/>
  <line x2="43.85" y2="-28.383" style="fill:none;stroke:#00AEEF;stroke-width:0.8;stroke-linecap:round;" y1="-28.383" x1="43.85"/>
  <line x2="3.05" y2="-40.833" style="fill:none;stroke:#00AEEF;stroke-width:0.8;stroke-linecap:round;" y1="-40.833" x1="3.05"/>
  <line x2="12.8" y2="-42.184" style="fill:none;stroke:#00AEEF;stroke-width:0.8;stroke-linecap:round;" y1="-42.184" x1="12.8"/>
  <line x2="4.4" y2="-42.634" style="fill:none;stroke:#00AEEF;stroke-width:0.8;stroke-linecap:round;" y1="-42.634" x1="4.4"/>
  <line x2="9.8" y2="-37.684" style="fill:none;stroke:#00AEEF;stroke-width:0.8;stroke-linecap:round;" y1="-37.684" x1="9.8"/>
  <line x2="13.25" y2="-34.684" style="fill:none;stroke:#00AEEF;stroke-width:0.8;stroke-linecap:round;" y1="-34.684" x1="13.25"/>
  <line x2="14.9" y2="-24.033" style="fill:none;stroke:#00AEEF;stroke-width:0.8;stroke-linecap:round;" y1="-24.033" x1="14.9"/>
  <line x2="2.6" y2="-19.684" style="fill:none;stroke:#00AEEF;stroke-width:0.8;stroke-linecap:round;" y1="-19.684" x1="2.6"/>
  <line x2="43.85" y2="-6.784" style="fill:none;stroke:#00AEEF;stroke-width:0.8;stroke-linecap:round;" y1="-6.784" x1="43.85"/>
  <line x2="36.65" y2="-4.832" style="fill:none;stroke:#00AEEF;stroke-width:0.8;stroke-linecap:round;" y1="-4.832" x1="36.65"/>
  <line x2="26.45" y2="-5.433" style="fill:none;stroke:#00AEEF;stroke-width:0.8;stroke-linecap:round;" y1="-5.433" x1="26.45"/>
  <line x2="4.85" y2="-10.234" style="fill:none;stroke:#00AEEF;stroke-width:0.8;stroke-linecap:round;" y1="-10.234" x1="4.85"/>
  <line x2="18.05" y2="-10.534" style="fill:none;stroke:#00AEEF;stroke-width:0.8;stroke-linecap:round;" y1="-10.534" x1="18.05"/>
  <line x2="24.5" y2="-17.133" style="fill:none;stroke:#00AEEF;stroke-width:0.8;stroke-linecap:round;" y1="-17.133" x1="24.5"/>
  <line x2="7.4" y2="-22.083" style="fill:none;stroke:#00AEEF;stroke-width:0.8;stroke-linecap:round;" y1="-22.083" x1="7.4"/>
  <line x2="33.5" y2="-23.434" style="fill:none;stroke:#00AEEF;stroke-width:0.8;stroke-linecap:round;" y1="-23.434" x1="33.5"/>
  <line x2="41" y2="-18.784" style="fill:none;stroke:#00AEEF;stroke-width:0.8;stroke-linecap:round;" y1="-18.784" x1="41"/>
  <line x2="32.9" y2="-6.484" style="fill:none;stroke:#00AEEF;stroke-width:0.8;stroke-linecap:round;" y1="-6.484" x1="32.9"/>
  <line x2="26.15" y2="-23.583" style="fill:none;stroke:#00AEEF;stroke-width:0.8;stroke-linecap:round;" y1="-23.583" x1="26.15"/>
  <line x2="18.65" y2="-38.134" style="fill:none;stroke:#00AEEF;stroke-width:0.8;stroke-linecap:round;" y1="-38.134" x1="18.65"/>
  <line x2="14" y2="-30.333" style="fill:none;stroke:#00AEEF;stroke-width:0.8;stroke-linecap:round;" y1="-30.333" x1="14"/>
  <line x2="9.2" y2="-45.184" style="fill:none;stroke:#00AEEF;stroke-width:0.8;stroke-linecap:round;" y1="-45.184" x1="9.2"/>
  <line x2="35.3" y2="-43.984" style="fill:none;stroke:#00AEEF;stroke-width:0.8;stroke-linecap:round;" y1="-43.984" x1="35.3"/>
  <line x2="30.95" y2="-4.832" style="fill:none;stroke:#00AEEF;stroke-width:0.8;stroke-linecap:round;" y1="-4.832" x1="30.95"/>
  <line x2="4.4" y2="-21.783" style="fill:none;stroke:#00AEEF;stroke-width:0.8;stroke-linecap:round;" y1="-21.783" x1="4.4"/>
  <line x2="43.4" y2="-38.284" style="fill:none;stroke:#00AEEF;stroke-width:0.8;stroke-linecap:round;" y1="-38.284" x1="43.4"/>
  <line x2="16.1" y2="-37.833" style="fill:none;stroke:#00AEEF;stroke-width:0.8;stroke-linecap:round;" y1="-37.833" x1="16.1"/>
  <line x2="14" y2="-36.333" style="fill:none;stroke:#00AEEF;stroke-width:0.8;stroke-linecap:round;" y1="-36.333" x1="14"/>
  <line x2="11" y2="-35.883" style="fill:none;stroke:#00AEEF;stroke-width:0.8;stroke-linecap:round;" y1="-35.883" x1="11"/>
  <line x2="5.75" y2="-39.184" style="fill:none;stroke:#00AEEF;stroke-width:0.8;stroke-linecap:round;" y1="-39.184" x1="5.75"/>
  <line x2="6.35" y2="-44.583" style="fill:none;stroke:#00AEEF;stroke-width:0.8;stroke-linecap:round;" y1="-44.583" x1="6.35"/>
  <line x2="10.7" y2="-41.284" style="fill:none;stroke:#00AEEF;stroke-width:0.8;stroke-linecap:round;" y1="-41.284" x1="10.7"/>
  <line x2="17.6" y2="-42.034" style="fill:none;stroke:#00AEEF;stroke-width:0.8;stroke-linecap:round;" y1="-42.034" x1="17.6"/>
  <line x2="24.35" y2="-41.734" style="fill:none;stroke:#00AEEF;stroke-width:0.8;stroke-linecap:round;" y1="-41.734" x1="24.35"/>
  <line x2="24.65" y2="-43.684" style="fill:none;stroke:#00AEEF;stroke-width:0.8;stroke-linecap:round;" y1="-43.684" x1="24.65"/>
  <line x2="28.25" y2="-45.333" style="fill:none;stroke:#00AEEF;stroke-width:0.8;stroke-linecap:round;" y1="-45.333" x1="28.25"/>
  <line x2="32.9" y2="-40.833" style="fill:none;stroke:#00AEEF;stroke-width:0.8;stroke-linecap:round;" y1="-40.833" x1="32.9"/>
  <line x2="23.6" y2="-39.634" style="fill:none;stroke:#00AEEF;stroke-width:0.8;stroke-linecap:round;" y1="-39.634" x1="23.6"/>
  <line x2="25.7" y2="-37.234" style="fill:none;stroke:#00AEEF;stroke-width:0.8;stroke-linecap:round;" y1="-37.234" x1="25.7"/>
  <line x2="17" y2="-35.434" style="fill:none;stroke:#00AEEF;stroke-width:0.8;stroke-linecap:round;" y1="-35.434" x1="17"/>
  <line x2="6.5" y2="-29.583" style="fill:none;stroke:#00AEEF;stroke-width:0.8;stroke-linecap:round;" y1="-29.583" x1="6.5"/>
  <line x2="11.75" y2="-27.184" style="fill:none;stroke:#00AEEF;stroke-width:0.8;stroke-linecap:round;" y1="-27.184" x1="11.75"/>
  <line x2="8.45" y2="-26.133" style="fill:none;stroke:#00AEEF;stroke-width:0.8;stroke-linecap:round;" y1="-26.133" x1="8.45"/>
  <line x2="5.3" y2="-24.033" style="fill:none;stroke:#00AEEF;stroke-width:0.8;stroke-linecap:round;" y1="-24.033" x1="5.3"/>
  <line x2="4.1" y2="-33.934" style="fill:none;stroke:#00AEEF;stroke-width:0.8;stroke-linecap:round;" y1="-33.934" x1="4.1"/>
  <line x2="14.45" y2="-27.784" style="fill:none;stroke:#00AEEF;stroke-width:0.8;stroke-linecap:round;" y1="-27.784" x1="14.45"/>
  <line x2="12.65" y2="-24.934" style="fill:none;stroke:#00AEEF;stroke-width:0.8;stroke-linecap:round;" y1="-24.934" x1="12.65"/>
  <line x2="11.75" y2="-22.833" style="fill:none;stroke:#00AEEF;stroke-width:0.8;stroke-linecap:round;" y1="-22.833" x1="11.75"/>
  <line x2="9.8" y2="-21.484" style="fill:none;stroke:#00AEEF;stroke-width:0.8;stroke-linecap:round;" y1="-21.484" x1="9.8"/>
  <line x2="9.8" y2="-18.333" style="fill:none;stroke:#00AEEF;stroke-width:0.8;stroke-linecap:round;" y1="-18.333" x1="9.8"/>
  <line x2="15.95" y2="-16.833" style="fill:none;stroke:#00AEEF;stroke-width:0.8;stroke-linecap:round;" y1="-16.833" x1="15.95"/>
  <line x2="8.75" y2="-13.534" style="fill:none;stroke:#00AEEF;stroke-width:0.8;stroke-linecap:round;" y1="-13.534" x1="8.75"/>
  <line x2="11.45" y2="-11.133" style="fill:none;stroke:#00AEEF;stroke-width:0.8;stroke-linecap:round;" y1="-11.133" x1="11.45"/>
  <line x2="5.75" y2="-8.133" style="fill:none;stroke:#00AEEF;stroke-width:0.8;stroke-linecap:round;" y1="-8.133" x1="5.75"/>
  <line x2="3.5" y2="-9.034" style="fill:none;stroke:#00AEEF;stroke-width:0.8;stroke-linecap:round;" y1="-9.034" x1="3.5"/>
  <line x2="7.55" y2="-5.433" style="fill:none;stroke:#00AEEF;stroke-width:0.8;stroke-linecap:round;" y1="-5.433" x1="7.55"/>
  <line x2="10.25" y2="-4.534" style="fill:none;stroke:#00AEEF;stroke-width:0.8;stroke-linecap:round;" y1="-4.534" x1="10.25"/>
  <line x2="15.2" y2="-3.784" style="fill:none;stroke:#00AEEF;stroke-width:0.8;stroke-linecap:round;" y1="-3.784" x1="15.2"/>
  <line x2="15.95" y2="-6.784" style="fill:none;stroke:#00AEEF;stroke-width:0.8;stroke-linecap:round;" y1="-6.784" x1="15.95"/>
  <line x2="15.5" y2="-10.234" style="fill:none;stroke:#00AEEF;stroke-width:0.8;stroke-linecap:round;" y1="-10.234" x1="15.5"/>
  <line x2="16.7" y2="-11.734" style="fill:none;stroke:#00AEEF;stroke-width:0.8;stroke-linecap:round;" y1="-11.734" x1="16.7"/>
  <line x2="17.9" y2="-17.583" style="fill:none;stroke:#00AEEF;stroke-width:0.8;stroke-linecap:round;" y1="-17.583" x1="17.9"/>
  <line x2="17.6" y2="-20.133" style="fill:none;stroke:#00AEEF;stroke-width:0.8;stroke-linecap:round;" y1="-20.133" x1="17.6"/>
  <line x2="21.5" y2="-27.633" style="fill:none;stroke:#00AEEF;stroke-width:0.8;stroke-linecap:round;" y1="-27.633" x1="21.5"/>
  <line x2="22.7" y2="-30.034" style="fill:none;stroke:#00AEEF;stroke-width:0.8;stroke-linecap:round;" y1="-30.034" x1="22.7"/>
  <line x2="28.4" y2="-31.234" style="fill:none;stroke:#00AEEF;stroke-width:0.8;stroke-linecap:round;" y1="-31.234" x1="28.4"/>
  <line x2="27.95" y2="-33.784" style="fill:none;stroke:#00AEEF;stroke-width:0.8;stroke-linecap:round;" y1="-33.784" x1="27.95"/>
  <line x2="18.8" y2="-32.883" style="fill:none;stroke:#00AEEF;stroke-width:0.8;stroke-linecap:round;" y1="-32.883" x1="18.8"/>
  <line x2="33.35" y2="-33.034" style="fill:none;stroke:#00AEEF;stroke-width:0.8;stroke-linecap:round;" y1="-33.034" x1="33.35"/>
  <line x2="28.1" y2="-35.583" style="fill:none;stroke:#00AEEF;stroke-width:0.8;stroke-linecap:round;" y1="-35.583" x1="28.1"/>
  <line x2="32.45" y2="-35.434" style="fill:none;stroke:#00AEEF;stroke-width:0.8;stroke-linecap:round;" y1="-35.434" x1="32.45"/>
  <line x2="37.85" y2="-35.883" style="fill:none;stroke:#00AEEF;stroke-width:0.8;stroke-linecap:round;" y1="-35.883" x1="37.85"/>
  <line x2="37.1" y2="-37.833" style="fill:none;stroke:#00AEEF;stroke-width:0.8;stroke-linecap:round;" y1="-37.833" x1="37.1"/>
  <line x2="37.85" y2="-39.784" style="fill:none;stroke:#00AEEF;stroke-width:0.8;stroke-linecap:round;" y1="-39.784" x1="37.85"/>
  <line x2="37.4" y2="-41.734" style="fill:none;stroke:#00AEEF;stroke-width:0.8;stroke-linecap:round;" y1="-41.734" x1="37.4"/>
  <line x2="38.15" y2="-43.384" style="fill:none;stroke:#00AEEF;stroke-width:0.8;stroke-linecap:round;" y1="-43.384" x1="38.15"/>
  <line x2="42.65" y2="-42.634" style="fill:none;stroke:#00AEEF;stroke-width:0.8;stroke-linecap:round;" y1="-42.634" x1="42.65"/>
  <line x2="40.25" y2="-40.684" style="fill:none;stroke:#00AEEF;stroke-width:0.8;stroke-linecap:round;" y1="-40.684" x1="40.25"/>
  <line x2="38.3" y2="-31.984" style="fill:none;stroke:#00AEEF;stroke-width:0.8;stroke-linecap:round;" y1="-31.984" x1="38.3"/>
  <line x2="35.45" y2="-31.984" style="fill:none;stroke:#00AEEF;stroke-width:0.8;stroke-linecap:round;" y1="-31.984" x1="35.45"/>
  <line x2="35.45" y2="-34.984" style="fill:none;stroke:#00AEEF;stroke-width:0.8;stroke-linecap:round;" y1="-34.984" x1="35.45"/>
  <line x2="41.15" y2="-30.784" style="fill:none;stroke:#00AEEF;stroke-width:0.8;stroke-linecap:round;" y1="-30.784" x1="41.15"/>
  <line x2="37.85" y2="-27.784" style="fill:none;stroke:#00AEEF;stroke-width:0.8;stroke-linecap:round;" y1="-27.784" x1="37.85"/>
  <line x2="33.8" y2="-26.583" style="fill:none;stroke:#00AEEF;stroke-width:0.8;stroke-linecap:round;" y1="-26.583" x1="33.8"/>
  <line x2="30.65" y2="-25.984" style="fill:none;stroke:#00AEEF;stroke-width:0.8;stroke-linecap:round;" y1="-25.984" x1="30.65"/>
  <line x2="28.7" y2="-22.684" style="fill:none;stroke:#00AEEF;stroke-width:0.8;stroke-linecap:round;" y1="-22.684" x1="28.7"/>
  <line x2="22.55" y2="-21.333" style="fill:none;stroke:#00AEEF;stroke-width:0.8;stroke-linecap:round;" y1="-21.333" x1="22.55"/>
  <line x2="26.6" y2="-17.434" style="fill:none;stroke:#00AEEF;stroke-width:0.8;stroke-linecap:round;" y1="-17.434" x1="26.6"/>
  <line x2="29.6" y2="-14.883" style="fill:none;stroke:#00AEEF;stroke-width:0.8;stroke-linecap:round;" y1="-14.883" x1="29.6"/>
  <line x2="30.05" y2="-12.183" style="fill:none;stroke:#00AEEF;stroke-width:0.8;stroke-linecap:round;" y1="-12.183" x1="30.05"/>
  <line x2="27.35" y2="-10.534" style="fill:none;stroke:#00AEEF;stroke-width:0.8;stroke-linecap:round;" y1="-10.534" x1="27.35"/>
  <line x2="26.15" y2="-8.583" style="fill:none;stroke:#00AEEF;stroke-width:0.8;stroke-linecap:round;" y1="-8.583" x1="26.15"/>
  <line x2="23.75" y2="-8.583" style="fill:none;stroke:#00AEEF;stroke-width:0.8;stroke-linecap:round;" y1="-8.583" x1="23.75"/>
  <line x2="24.05" y2="-14.583" style="fill:none;stroke:#00AEEF;stroke-width:0.8;stroke-linecap:round;" y1="-14.583" x1="24.05"/>
  <line x2="20.3" y2="-8.883" style="fill:none;stroke:#00AEEF;stroke-width:0.8;stroke-linecap:round;" y1="-8.883" x1="20.3"/>
  <line x2="21.05" y2="-5.133" style="fill:none;stroke:#00AEEF;stroke-width:0.8;stroke-linecap:round;" y1="-5.133" x1="21.05"/>
  <line x2="24.65" y2="-4.234" style="fill:none;stroke:#00AEEF;stroke-width:0.8;stroke-linecap:round;" y1="-4.234" x1="24.65"/>
  <line x2="39.95" y2="-12.034" style="fill:none;stroke:#00AEEF;stroke-width:0.8;stroke-linecap:round;" y1="-12.034" x1="39.95"/>
  <line x2="38.15" y2="-15.784" style="fill:none;stroke:#00AEEF;stroke-width:0.8;stroke-linecap:round;" y1="-15.784" x1="38.15"/>
  <line x2="34.85" y2="-15.933" style="fill:none;stroke:#00AEEF;stroke-width:0.8;stroke-linecap:round;" y1="-15.933" x1="34.85"/>
  <line x2="35" y2="-21.184" style="fill:none;stroke:#00AEEF;stroke-width:0.8;stroke-linecap:round;" y1="-21.184" x1="35"/>
  <line x2="39.65" y2="-20.883" style="fill:none;stroke:#00AEEF;stroke-width:0.8;stroke-linecap:round;" y1="-20.883" x1="39.65"/>
  <line x2="43.7" y2="-17.133" style="fill:none;stroke:#00AEEF;stroke-width:0.8;stroke-linecap:round;" y1="-17.133" x1="43.7"/>
  <line x2="43.85" y2="-13.683" style="fill:none;stroke:#00AEEF;stroke-width:0.8;stroke-linecap:round;" y1="-13.683" x1="43.85"/>
  <line x2="40.25" y2="-9.183" style="fill:none;stroke:#00AEEF;stroke-width:0.8;stroke-linecap:round;" y1="-9.183" x1="40.25"/>
  <line x2="44.3" y2="-10.683" style="fill:none;stroke:#00AEEF;stroke-width:0.8;stroke-linecap:round;" y1="-10.683" x1="44.3"/>
  <line x2="41" y2="-6.933" style="fill:none;stroke:#00AEEF;stroke-width:0.8;stroke-linecap:round;" y1="-6.933" x1="41"/>
  <line x2="41.6" y2="-5.284" style="fill:none;stroke:#00AEEF;stroke-width:0.8;stroke-linecap:round;" y1="-5.284" x1="41.6"/>
  <line x2="39.65" y2="-4.082" style="fill:none;stroke:#00AEEF;stroke-width:0.8;stroke-linecap:round;" y1="-4.082" x1="39.65"/>
  <line x2="33.8" y2="-4.383" style="fill:none;stroke:#00AEEF;stroke-width:0.8;stroke-linecap:round;" y1="-4.383" x1="33.8"/>
  <line x2="29" y2="-6.332" style="fill:none;stroke:#00AEEF;stroke-width:0.8;stroke-linecap:round;" y1="-6.332" x1="29"/>
  <line x2="19.25" y2="-3.484" style="fill:none;stroke:#00AEEF;stroke-width:0.8;stroke-linecap:round;" y1="-3.484" x1="19.25"/>
  <line x2="3.35" y2="-28.684" style="fill:none;stroke:#00AEEF;stroke-width:0.8;stroke-linecap:round;" y1="-28.684" x1="3.35"/>
  <line x2="10.1" y2="-43.234" style="fill:none;stroke:#00AEEF;stroke-width:0.8;stroke-linecap:round;" y1="-43.234" x1="10.1"/>
  <line x2="44.3" y2="-25.533" style="fill:none;stroke:#00AEEF;stroke-width:0.8;stroke-linecap:round;" y1="-25.533" x1="44.3"/>
  <line x2="44.617" y2="-21.433" style="fill:none;stroke:#00AEEF;stroke-width:0.8;stroke-linecap:round;" y1="-21.433" x1="44.617"/>
  <line x2="3.95" y2="-15.633" style="fill:none;stroke:#00AEEF;stroke-width:0.8;stroke-linecap:round;" y1="-15.633" x1="3.95"/>
  <line x2="43.55" y2="-30.333" style="fill:none;stroke:#00AEEF;stroke-width:0.8;stroke-linecap:round;" y1="-30.333" x1="43.55"/>
  <line x2="42.65" y2="-9.183" style="fill:none;stroke:#00AEEF;stroke-width:0.8;stroke-linecap:round;" y1="-9.183" x1="42.65"/>
  <line x2="2.7" y2="-11.6" style="fill:none;stroke:#00AEEF;stroke-width:0.8;stroke-linecap:round;" y1="-11.6" x1="2.7"/>
  <line x2="3.8" y2="-3.484" style="fill:none;stroke:#00AEEF;stroke-width:0.8;stroke-linecap:round;" y1="-3.484" x1="3.8"/>
  <line x2="44.8" y2="-32.208" style="fill:none;stroke:#00AEEF;stroke-width:0.8;stroke-linecap:round;" y1="-32.208" x1="44.8"/>
  <line x2="2.9" y2="-36.184" style="fill:none;stroke:#00AEEF;stroke-width:0.8;stroke-linecap:round;" y1="-36.184" x1="2.9"/>
  <line x2="12.95" y2="-38.583" style="fill:none;stroke:#00AEEF;stroke-width:0.8;stroke-linecap:round;" y1="-38.583" x1="12.95"/>
  <line x2="19.7" y2="-40.234" style="fill:none;stroke:#00AEEF;stroke-width:0.8;stroke-linecap:round;" y1="-40.234" x1="19.7"/>
  <line x2="18.2" y2="-43.984" style="fill:none;stroke:#00AEEF;stroke-width:0.8;stroke-linecap:round;" y1="-43.984" x1="18.2"/>
  <line x2="26.3" y2="-40.083" style="fill:none;stroke:#00AEEF;stroke-width:0.8;stroke-linecap:round;" y1="-40.083" x1="26.3"/>
  <line x2="29.9" y2="-40.083" style="fill:none;stroke:#00AEEF;stroke-width:0.8;stroke-linecap:round;" y1="-40.083" x1="29.9"/>
  <line x2="30.5" y2="-32.583" style="fill:none;stroke:#00AEEF;stroke-width:0.8;stroke-linecap:round;" y1="-32.583" x1="30.5"/>
  <line x2="35" y2="-42.184" style="fill:none;stroke:#00AEEF;stroke-width:0.8;stroke-linecap:round;" y1="-42.184" x1="35"/>
  <line x2="40.55" y2="-42.333" style="fill:none;stroke:#00AEEF;stroke-width:0.8;stroke-linecap:round;" y1="-42.333" x1="40.55"/>
  <line x2="39.8" y2="-45.034" style="fill:none;stroke:#00AEEF;stroke-width:0.8;stroke-linecap:round;" y1="-45.034" x1="39.8"/>
  <line x2="43.85" y2="-35.434" style="fill:none;stroke:#00AEEF;stroke-width:0.8;stroke-linecap:round;" y1="-35.434" x1="43.85"/>
  <line x2="6.95" y2="-18.034" style="fill:none;stroke:#00AEEF;stroke-width:0.8;stroke-linecap:round;" y1="-18.034" x1="6.95"/>
  <line x2="5.15" y2="-12.183" style="fill:none;stroke:#00AEEF;stroke-width:0.8;stroke-linecap:round;" y1="-12.183" x1="5.15"/>
  <line x2="4.1" y2="-6.784" style="fill:none;stroke:#00AEEF;stroke-width:0.8;stroke-linecap:round;" y1="-6.784" x1="4.1"/>
  <line x2="12.8" y2="-4.383" style="fill:none;stroke:#00AEEF;stroke-width:0.8;stroke-linecap:round;" y1="-4.383" x1="12.8"/>
  <line x2="14.75" y2="-8.433" style="fill:none;stroke:#00AEEF;stroke-width:0.8;stroke-linecap:round;" y1="-8.433" x1="14.75"/>
  <line x2="14.75" y2="-19.083" style="fill:none;stroke:#00AEEF;stroke-width:0.8;stroke-linecap:round;" y1="-19.083" x1="14.75"/>
  <line x2="19.25" y2="-15.633" style="fill:none;stroke:#00AEEF;stroke-width:0.8;stroke-linecap:round;" y1="-15.633" x1="19.25"/>
  <line x2="24.05" y2="-10.234" style="fill:none;stroke:#00AEEF;stroke-width:0.8;stroke-linecap:round;" y1="-10.234" x1="24.05"/>
  <line x2="22.7" y2="-6.183" style="fill:none;stroke:#00AEEF;stroke-width:0.8;stroke-linecap:round;" y1="-6.183" x1="22.7"/>
  <line x2="27.2" y2="-13.234" style="fill:none;stroke:#00AEEF;stroke-width:0.8;stroke-linecap:round;" y1="-13.234" x1="27.2"/>
  <line x2="33.5" y2="-10.383" style="fill:none;stroke:#00AEEF;stroke-width:0.8;stroke-linecap:round;" y1="-10.383" x1="33.5"/>
  <line x2="31.85" y2="-8.284" style="fill:none;stroke:#00AEEF;stroke-width:0.8;stroke-linecap:round;" y1="-8.284" x1="31.85"/>
  <line x2="35.15" y2="-7.082" style="fill:none;stroke:#00AEEF;stroke-width:0.8;stroke-linecap:round;" y1="-7.082" x1="35.15"/>
  <line x2="17.3" y2="-31.534" style="fill:none;stroke:#00AEEF;stroke-width:0.8;stroke-linecap:round;" y1="-31.534" x1="17.3"/>
  <line x2="23.3" y2="-32.284" style="fill:none;stroke:#00AEEF;stroke-width:0.8;stroke-linecap:round;" y1="-32.284" x1="23.3"/>
  <line x2="27.65" y2="-29.284" style="fill:none;stroke:#00AEEF;stroke-width:0.8;stroke-linecap:round;" y1="-29.284" x1="27.65"/>
  <line x2="33.35" y2="-20.434" style="fill:none;stroke:#00AEEF;stroke-width:0.8;stroke-linecap:round;" y1="-20.434" x1="33.35"/>
  <line x2="42.35" y2="-15.183" style="fill:none;stroke:#00AEEF;stroke-width:0.8;stroke-linecap:round;" y1="-15.183" x1="42.35"/>
  <line x2="30.5" y2="-17.583" style="fill:none;stroke:#00AEEF;stroke-width:0.8;stroke-linecap:round;" y1="-17.583" x1="30.5"/>
  <line x2="24.35" y2="-19.533" style="fill:none;stroke:#00AEEF;stroke-width:0.8;stroke-linecap:round;" y1="-19.533" x1="24.35"/>
  <line x2="12.35" y2="-29.133" style="fill:none;stroke:#00AEEF;stroke-width:0.8;stroke-linecap:round;" y1="-29.133" x1="12.35"/>
  <line x2="8.9" y2="-24.184" style="fill:none;stroke:#00AEEF;stroke-width:0.8;stroke-linecap:round;" y1="-24.184" x1="8.9"/>
  <line x2="41.75" y2="-26.734" style="fill:none;stroke:#00AEEF;stroke-width:0.8;stroke-linecap:round;" y1="-26.734" x1="41.75"/>
  <line x2="6.5" y2="-36.784" style="fill:none;stroke:#00AEEF;stroke-width:0.8;stroke-linecap:round;" y1="-36.784" x1="6.5"/>
  <line x2="7.25" y2="-43.083" style="fill:none;stroke:#00AEEF;stroke-width:0.8;stroke-linecap:round;" y1="-43.083" x1="7.25"/>
  <line x2="4.25" y2="-44.734" style="fill:none;stroke:#00AEEF;stroke-width:0.8;stroke-linecap:round;" y1="-44.734" x1="4.25"/>
  <line x2="42.05" y2="-23.883" style="fill:none;stroke:#00AEEF;stroke-width:0.8;stroke-linecap:round;" y1="-23.883" x1="42.05"/>
  <line x2="28.55" y2="-8.433" style="fill:none;stroke:#00AEEF;stroke-width:0.8;stroke-linecap:round;" y1="-8.433" x1="28.55"/>
  <line x2="17.6" y2="-4.234" style="fill:none;stroke:#00AEEF;stroke-width:0.8;stroke-linecap:round;" y1="-4.234" x1="17.6"/>
  <line x2="15.35" y2="-21.184" style="fill:none;stroke:#00AEEF;stroke-width:0.8;stroke-linecap:round;" y1="-21.184" x1="15.35"/>
  <line x2="27.05" y2="-25.533" style="fill:none;stroke:#00AEEF;stroke-width:0.8;stroke-linecap:round;" y1="-25.533" x1="27.05"/>
  <line x2="41.9" y2="-21.934" style="fill:none;stroke:#00AEEF;stroke-width:0.8;stroke-linecap:round;" y1="-21.934" x1="41.9"/>
  <line x2="34.1" y2="-37.234" style="fill:none;stroke:#00AEEF;stroke-width:0.8;stroke-linecap:round;" y1="-37.234" x1="34.1"/>
  <line x2="24.95" y2="-35.583" style="fill:none;stroke:#00AEEF;stroke-width:0.8;stroke-linecap:round;" y1="-35.583" x1="24.95"/>
  <line x2="9.95" y2="-34.234" style="fill:none;stroke:#00AEEF;stroke-width:0.8;stroke-linecap:round;" y1="-34.234" x1="9.95"/>
  <line x2="31.85" y2="-43.534" style="fill:none;stroke:#00AEEF;stroke-width:0.8;stroke-linecap:round;" y1="-43.534" x1="31.85"/>
  <line x2="37.55" y2="-33.784" style="fill:none;stroke:#00AEEF;stroke-width:0.8;stroke-linecap:round;" y1="-33.784" x1="37.55"/>
  <line x2="42.65" y2="-11.883" style="fill:none;stroke:#00AEEF;stroke-width:0.8;stroke-linecap:round;" y1="-11.883" x1="42.65"/>
  <line x2="5.3" y2="-4.383" style="fill:none;stroke:#00AEEF;stroke-width:0.8;stroke-linecap:round;" y1="-4.383" x1="5.3"/>
  <line x2="3.8" y2="-38.284" style="fill:none;stroke:#00AEEF;stroke-width:0.8;stroke-linecap:round;" y1="-38.284" x1="3.8"/>
  <line x2="12.35" y2="-44.583" style="fill:none;stroke:#00AEEF;stroke-width:0.8;stroke-linecap:round;" y1="-44.583" x1="12.35"/>
  <line x2="27.65" y2="-43.534" style="fill:none;stroke:#00AEEF;stroke-width:0.8;stroke-linecap:round;" y1="-43.534" x1="27.65"/>
  <line x2="3.8" y2="-27.034" style="fill:none;stroke:#00AEEF;stroke-width:0.8;stroke-linecap:round;" y1="-27.034" x1="3.8"/>
  <line x2="6.65" y2="-31.234" style="fill:none;stroke:#00AEEF;stroke-width:0.8;stroke-linecap:round;" y1="-31.234" x1="6.65"/>
  <line x2="4.1" y2="-17.883" style="fill:none;stroke:#00AEEF;stroke-width:0.8;stroke-linecap:round;" y1="-17.883" x1="4.1"/>
  <line x2="8.75" y2="-15.933" style="fill:none;stroke:#00AEEF;stroke-width:0.8;stroke-linecap:round;" y1="-15.933" x1="8.75"/>
  <line x2="8.15" y2="-10.383" style="fill:none;stroke:#00AEEF;stroke-width:0.8;stroke-linecap:round;" y1="-10.383" x1="8.15"/>
  <line x2="10.25" y2="-6.784" style="fill:none;stroke:#00AEEF;stroke-width:0.8;stroke-linecap:round;" y1="-6.784" x1="10.25"/>
  <line x2="15.35" y2="-14.284" style="fill:none;stroke:#00AEEF;stroke-width:0.8;stroke-linecap:round;" y1="-14.284" x1="15.35"/>
  <line x2="22.55" y2="-25.833" style="fill:none;stroke:#00AEEF;stroke-width:0.8;stroke-linecap:round;" y1="-25.833" x1="22.55"/>
  <line x2="17.75" y2="-25.833" style="fill:none;stroke:#00AEEF;stroke-width:0.8;stroke-linecap:round;" y1="-25.833" x1="17.75"/>
  <line x2="24.5" y2="-29.133" style="fill:none;stroke:#00AEEF;stroke-width:0.8;stroke-linecap:round;" y1="-29.133" x1="24.5"/>
  <line x2="38.9" y2="-30.034" style="fill:none;stroke:#00AEEF;stroke-width:0.8;stroke-linecap:round;" y1="-30.034" x1="38.9"/>
  <line x2="37.4" y2="-12.034" style="fill:none;stroke:#00AEEF;stroke-width:0.8;stroke-linecap:round;" y1="-12.034" x1="37.4"/>
  <line x2="37.4" y2="-20.734" style="fill:none;stroke:#00AEEF;stroke-width:0.8;stroke-linecap:round;" y1="-20.734" x1="37.4"/>
  <line x2="35.6" y2="-24.934" style="fill:none;stroke:#00AEEF;stroke-width:0.8;stroke-linecap:round;" y1="-24.934" x1="35.6"/>
  <line x2="43.7" y2="-3.933" style="fill:none;stroke:#00AEEF;stroke-width:0.8;stroke-linecap:round;" y1="-3.933" x1="43.7"/>
  <line x2="38.6" y2="-6.784" style="fill:none;stroke:#00AEEF;stroke-width:0.8;stroke-linecap:round;" y1="-6.784" x1="38.6"/>
  <line x2="28.367" y2="-4.1" style="fill:none;stroke:#00AEEF;stroke-width:0.8;stroke-linecap:round;" y1="-4.1" x1="28.367"/>
  <line x2="16.85" y2="-45.634" style="fill:none;stroke:#00AEEF;stroke-width:0.8;stroke-linecap:round;" y1="-45.634" x1="16.85"/>
  <line x2="19.1" y2="-5.997" style="fill:none;stroke:#00AEEF;stroke-width:0.8;stroke-linecap:round;" y1="-5.997" x1="19.1"/>
  <line x2="23" y2="-23.883" style="fill:none;stroke:#00AEEF;stroke-width:0.8;stroke-linecap:round;" y1="-23.883" x1="23"/>
  <line x2="25.85" y2="-21.633" style="fill:none;stroke:#00AEEF;stroke-width:0.8;stroke-linecap:round;" y1="-21.633" x1="25.85"/>
  <line x2="37.55" y2="-26.133" style="fill:none;stroke:#00AEEF;stroke-width:0.8;stroke-linecap:round;" y1="-26.133" x1="37.55"/>
  <line x2="6.5" y2="-20.434" style="fill:none;stroke:#00AEEF;stroke-width:0.8;stroke-linecap:round;" y1="-20.434" x1="6.5"/>
  <line x2="8.3" y2="-40.684" style="fill:none;stroke:#00AEEF;stroke-width:0.8;stroke-linecap:round;" y1="-40.684" x1="8.3"/>
  <line x2="29.9" y2="-27.859" style="fill:none;stroke:#00AEEF;stroke-width:0.8;stroke-linecap:round;" y1="-27.859" x1="29.9"/>
  <line x2="11.9" y2="-32.734" style="fill:none;stroke:#00AEEF;stroke-width:0.8;stroke-linecap:round;" y1="-32.734" x1="11.9"/>
  <line x2="16.7" y2="-39.934" style="fill:none;stroke:#00AEEF;stroke-width:0.8;stroke-linecap:round;" y1="-39.934" x1="16.7"/>
  <line x2="6.2" y2="-41.134" style="fill:none;stroke:#00AEEF;stroke-width:0.8;stroke-linecap:round;" y1="-41.134" x1="6.2"/>
  <line x2="6.05" y2="-25.833" style="fill:none;stroke:#00AEEF;stroke-width:0.8;stroke-linecap:round;" y1="-25.833" x1="6.05"/>
  <line x2="15.35" y2="-26.133" style="fill:none;stroke:#00AEEF;stroke-width:0.8;stroke-linecap:round;" y1="-26.133" x1="15.35"/>
  <line x2="20" y2="-19.684" style="fill:none;stroke:#00AEEF;stroke-width:0.8;stroke-linecap:round;" y1="-19.684" x1="20"/>
  <line x2="40.1" y2="-13.984" style="fill:none;stroke:#00AEEF;stroke-width:0.8;stroke-linecap:round;" y1="-13.984" x1="40.1"/>
  <line x2="15.05" y2="-5.433" style="fill:none;stroke:#00AEEF;stroke-width:0.8;stroke-linecap:round;" y1="-5.433" x1="15.05"/>
  <line x2="32" y2="-45.484" style="fill:none;stroke:#00AEEF;stroke-width:0.8;stroke-linecap:round;" y1="-45.484" x1="32"/>
  <line x2="44.617" y2="-8.433" style="fill:none;stroke:#00AEEF;stroke-width:0.8;stroke-linecap:round;" y1="-8.433" x1="44.617"/>
  <line x2="44.45" y2="-43.833" style="fill:none;stroke:#00AEEF;stroke-width:0.8;stroke-linecap:round;" y1="-43.833" x1="44.45"/>
  <line x2="44.784" y2="-15.85" style="fill:none;stroke:#00AEEF;stroke-width:0.8;stroke-linecap:round;" y1="-15.85" x1="44.784"/>
  <line x2="44.45" y2="-39.634" style="fill:none;stroke:#00AEEF;stroke-width:0.8;stroke-linecap:round;" y1="-39.634" x1="44.45"/>
  <line x2="44.75" y2="-23.283" style="fill:none;stroke:#00AEEF;stroke-width:0.8;stroke-linecap:round;" y1="-23.283" x1="44.75"/>
  <line x2="26" y2="-45.184" style="fill:none;stroke:#00AEEF;stroke-width:0.8;stroke-linecap:round;" y1="-45.184" x1="26"/>
  <line x2="14.75" y2="-44.434" style="fill:none;stroke:#00AEEF;stroke-width:1.55;stroke-linecap:round;" y1="-44.434" x1="14.75"/>
  <line x2="21.2" y2="-39.184" style="fill:none;stroke:#00AEEF;stroke-width:1.55;stroke-linecap:round;" y1="-39.184" x1="21.2"/>
  <line x2="42.95" y2="-33.484" style="fill:none;stroke:#00AEEF;stroke-width:1.55;stroke-linecap:round;" y1="-33.484" x1="42.95"/>
  <line x2="26.825" y2="-17.258" style="fill:none;stroke:#00AEEF;stroke-width:1.55;stroke-linecap:round;" y1="-17.258" x1="26.825"/>
  <line x2="20.75" y2="-10.833" style="fill:none;stroke:#00AEEF;stroke-width:1.55;stroke-linecap:round;" y1="-10.833" x1="20.75"/>
  <line x2="35.15" y2="-13.683" style="fill:none;stroke:#00AEEF;stroke-width:1.55;stroke-linecap:round;" y1="-13.683" x1="35.15"/>
  <line x2="8.5" y2="-28.333" style="fill:none;stroke:#00AEEF;stroke-width:1.55;stroke-linecap:round;" y1="-28.333" x1="8.5"/>
  <line x2="5.9" y2="-38.884" style="fill:none;stroke:#00AEEF;stroke-width:1.55;stroke-linecap:round;" y1="-38.884" x1="5.9"/>
  <line x2="14.25" y2="-36.383" style="fill:none;stroke:#00AEEF;stroke-width:1.55;stroke-linecap:round;" y1="-36.383" x1="14.25"/>
  <line x2="22.7" y2="-30.034" style="fill:none;stroke:#00AEEF;stroke-width:1.55;stroke-linecap:round;" y1="-30.034" x1="22.7"/>
  <line x2="32.45" y2="-35.434" style="fill:none;stroke:#00AEEF;stroke-width:1.55;stroke-linecap:round;" y1="-35.434" x1="32.45"/>
  <line x2="38.15" y2="-43.384" style="fill:none;stroke:#00AEEF;stroke-width:1.55;stroke-linecap:round;" y1="-43.384" x1="38.15"/>
  <line x2="31.2" y2="-23.809" style="fill:none;stroke:#00AEEF;stroke-width:1.55;stroke-linecap:round;" y1="-23.809" x1="31.2"/>
  <line x2="44.617" y2="-21.433" style="fill:none;stroke:#00AEEF;stroke-width:1.55;stroke-linecap:round;" y1="-21.433" x1="44.617"/>
  <line x2="9.025" y2="-15.933" style="fill:none;stroke:#00AEEF;stroke-width:1.55;stroke-linecap:round;" y1="-15.933" x1="9.025"/>
  <line x2="10.25" y2="-6.784" style="fill:none;stroke:#00AEEF;stroke-width:1.55;stroke-linecap:round;" y1="-6.784" x1="10.25"/>
  <line x2="28.367" y2="-4.1" style="fill:none;stroke:#00AEEF;stroke-width:1.55;stroke-linecap:round;" y1="-4.1" x1="28.367"/>
  <line x2="37.55" y2="-26.133" style="fill:none;stroke:#00AEEF;stroke-width:1.55;stroke-linecap:round;" y1="-26.133" x1="37.55"/>
  <line x2="17.975" y2="-23.383" style="fill:none;stroke:#00AEEF;stroke-width:1.55;stroke-linecap:round;" y1="-23.383" x1="17.975"/>
  <line x2="44.617" y2="-8.433" style="fill:none;stroke:#00AEEF;stroke-width:1.55;stroke-linecap:round;" y1="-8.433" x1="44.617"/>
 </g>
</svg>
