<?xml version="1.0"?>
<!-- Converted with SVG Converter - Version 0.9.5 (Compiled Fri Feb 21 09:53:38 2020) - Copyright (C) 2011 Nokia -->
<svg xmlns="http://www.w3.org/2000/svg" width="43.2" version="1.1" y="0px" xml:space="preserve" xmlns:xlink="http://www.w3.org/1999/xlink" viewBox="1.983 -45.717 43.2 43.2" x="0px" height="43.2" baseProfile="tiny">
 <g>
  <rect width="43.2" y="-45.717" style="fill:none;" x="1.983" height="43.2"/>
  <line style="fill:none;stroke:#000000;stroke-width:0.7;stroke-linecap:round;" y1="-44.034" x1="14.55" y2="-44.034" x2="14.55"/>
  <line style="fill:none;stroke:#000000;stroke-width:0.7;stroke-linecap:round;" y1="-41.634" x1="14.55" y2="-41.634" x2="14.55"/>
  <line style="fill:none;stroke:#000000;stroke-width:0.7;stroke-linecap:round;" y1="-39.534" x1="14.1" y2="-39.534" x2="14.1"/>
  <line style="fill:none;stroke:#000000;stroke-width:0.7;stroke-linecap:round;" y1="-39.384" x1="10.65" y2="-39.384" x2="10.65"/>
  <line style="fill:none;stroke:#000000;stroke-width:0.7;stroke-linecap:round;" y1="-33.233" x1="16.35" y2="-33.233" x2="16.35"/>
  <line style="fill:none;stroke:#000000;stroke-width:0.7;stroke-linecap:round;" y1="-30.084" x1="9.9" y2="-30.084" x2="9.9"/>
  <line style="fill:none;stroke:#000000;stroke-width:0.7;stroke-linecap:round;" y1="-29.634" x1="16.35" y2="-29.634" x2="16.35"/>
  <line style="fill:none;stroke:#000000;stroke-width:0.7;stroke-linecap:round;" y1="-29.634" x1="19.8" y2="-29.634" x2="19.8"/>
  <line style="fill:none;stroke:#000000;stroke-width:0.7;stroke-linecap:round;" y1="-31.884" x1="20.7" y2="-31.884" x2="20.7"/>
  <line style="fill:none;stroke:#000000;stroke-width:0.7;stroke-linecap:round;" y1="-34.884" x1="19.5" y2="-34.884" x2="19.5"/>
  <line style="fill:none;stroke:#000000;stroke-width:0.7;stroke-linecap:round;" y1="-33.983" x1="22.35" y2="-33.983" x2="22.35"/>
  <line style="fill:none;stroke:#000000;stroke-width:0.7;stroke-linecap:round;" y1="-36.834" x1="22.35" y2="-36.834" x2="22.35"/>
  <line style="fill:none;stroke:#000000;stroke-width:0.7;stroke-linecap:round;" y1="-38.784" x1="21" y2="-38.784" x2="21"/>
  <line style="fill:none;stroke:#000000;stroke-width:0.7;stroke-linecap:round;" y1="-41.634" x1="21.3" y2="-41.634" x2="21.3"/>
  <line style="fill:none;stroke:#000000;stroke-width:0.7;stroke-linecap:round;" y1="-43.734" x1="20.55" y2="-43.734" x2="20.55"/>
  <line style="fill:none;stroke:#000000;stroke-width:0.7;stroke-linecap:round;" y1="-45.084" x1="22.35" y2="-45.084" x2="22.35"/>
  <line style="fill:none;stroke:#000000;stroke-width:0.7;stroke-linecap:round;" y1="-41.634" x1="26.85" y2="-41.634" x2="26.85"/>
  <line style="fill:none;stroke:#000000;stroke-width:0.7;stroke-linecap:round;" y1="-41.784" x1="29.25" y2="-41.784" x2="29.25"/>
  <line style="fill:none;stroke:#000000;stroke-width:0.7;stroke-linecap:round;" y1="-37.734" x1="27.45" y2="-37.734" x2="27.45"/>
  <line style="fill:none;stroke:#000000;stroke-width:0.7;stroke-linecap:round;" y1="-37.284" x1="30.15" y2="-37.284" x2="30.15"/>
  <line style="fill:none;stroke:#000000;stroke-width:0.7;stroke-linecap:round;" y1="-34.284" x1="30.15" y2="-34.284" x2="30.15"/>
  <line style="fill:none;stroke:#000000;stroke-width:0.7;stroke-linecap:round;" y1="-33.384" x1="25.35" y2="-33.384" x2="25.35"/>
  <line style="fill:none;stroke:#000000;stroke-width:0.7;stroke-linecap:round;" y1="-37.734" x1="32.1" y2="-37.734" x2="32.1"/>
  <line style="fill:none;stroke:#000000;stroke-width:0.7;stroke-linecap:round;" y1="-39.234" x1="34.8" y2="-39.234" x2="34.8"/>
  <line style="fill:none;stroke:#000000;stroke-width:0.7;stroke-linecap:round;" y1="-45.2" x1="35.917" y2="-45.2" x2="35.917"/>
  <line style="fill:none;stroke:#000000;stroke-width:0.7;stroke-linecap:round;" y1="-44.784" x1="42.45" y2="-44.784" x2="42.45"/>
  <line style="fill:none;stroke:#000000;stroke-width:0.7;stroke-linecap:round;" y1="-39.684" x1="42.75" y2="-39.684" x2="42.75"/>
  <line style="fill:none;stroke:#000000;stroke-width:0.7;stroke-linecap:round;" y1="-38.484" x1="40.5" y2="-38.484" x2="40.5"/>
  <line style="fill:none;stroke:#000000;stroke-width:0.7;stroke-linecap:round;" y1="-36.384" x1="41.1" y2="-36.384" x2="41.1"/>
  <line style="fill:none;stroke:#000000;stroke-width:0.7;stroke-linecap:round;" y1="-33.983" x1="40.35" y2="-33.983" x2="40.35"/>
  <line style="fill:none;stroke:#000000;stroke-width:0.7;stroke-linecap:round;" y1="-32.334" x1="40.5" y2="-32.334" x2="40.5"/>
  <line style="fill:none;stroke:#000000;stroke-width:0.7;stroke-linecap:round;" y1="-33.084" x1="42.75" y2="-33.084" x2="42.75"/>
  <line style="fill:none;stroke:#000000;stroke-width:0.7;stroke-linecap:round;" y1="-14.483" x1="6.15" y2="-14.483" x2="6.15"/>
  <line style="fill:none;stroke:#000000;stroke-width:0.7;stroke-linecap:round;" y1="-13.134" x1="6.3" y2="-13.134" x2="6.3"/>
  <line style="fill:none;stroke:#000000;stroke-width:0.7;stroke-linecap:round;" y1="-13.134" x1="3.3" y2="-13.134" x2="3.3"/>
  <line style="fill:none;stroke:#000000;stroke-width:0.7;stroke-linecap:round;" y1="-7.434" x1="7.8" y2="-7.434" x2="7.8"/>
  <line style="fill:none;stroke:#000000;stroke-width:0.7;stroke-linecap:round;" y1="-5.033" x1="2.55" y2="-5.033" x2="2.55"/>
  <line style="fill:none;stroke:#000000;stroke-width:0.7;stroke-linecap:round;" y1="-3.233" x1="8.55" y2="-3.233" x2="8.55"/>
  <path style="fill:none;stroke:#000000;stroke-width:0.7;stroke-linecap:round;" d="M13.05-6.533L13.05-6.533"/>
  <line style="fill:none;stroke:#000000;stroke-width:0.7;stroke-linecap:round;" y1="-8.483" x1="11.7" y2="-8.483" x2="11.7"/>
  <line style="fill:none;stroke:#000000;stroke-width:0.7;stroke-linecap:round;" y1="-11.184" x1="13.65" y2="-11.184" x2="13.65"/>
  <line style="fill:none;stroke:#000000;stroke-width:0.7;stroke-linecap:round;" y1="-8.634" x1="9.3" y2="-8.634" x2="9.3"/>
  <line style="fill:none;stroke:#000000;stroke-width:0.7;stroke-linecap:round;" y1="-12.983" x1="11.7" y2="-12.983" x2="11.7"/>
  <line style="fill:none;stroke:#000000;stroke-width:0.7;stroke-linecap:round;" y1="-15.233" x1="13.5" y2="-15.233" x2="13.5"/>
  <line style="fill:none;stroke:#000000;stroke-width:0.7;stroke-linecap:round;" y1="-15.233" x1="10.8" y2="-15.233" x2="10.8"/>
  <line style="fill:none;stroke:#000000;stroke-width:0.7;stroke-linecap:round;" y1="-17.483" x1="11.7" y2="-17.483" x2="11.7"/>
  <line style="fill:none;stroke:#000000;stroke-width:0.7;stroke-linecap:round;" y1="-15.384" x1="21.45" y2="-15.384" x2="21.45"/>
  <line style="fill:none;stroke:#000000;stroke-width:0.7;stroke-linecap:round;" y1="-13.283" x1="18.3" y2="-13.283" x2="18.3"/>
  <line style="fill:none;stroke:#000000;stroke-width:0.7;stroke-linecap:round;" y1="-12.384" x1="21.15" y2="-12.384" x2="21.15"/>
  <line style="fill:none;stroke:#000000;stroke-width:0.7;stroke-linecap:round;" y1="-10.434" x1="20.55" y2="-10.434" x2="20.55"/>
  <line style="fill:none;stroke:#000000;stroke-width:0.7;stroke-linecap:round;" y1="-7.584" x1="17.55" y2="-7.584" x2="17.55"/>
  <line style="fill:none;stroke:#000000;stroke-width:0.7;stroke-linecap:round;" y1="-12.084" x1="23.55" y2="-12.084" x2="23.55"/>
  <line style="fill:none;stroke:#000000;stroke-width:0.7;stroke-linecap:round;" y1="-15.384" x1="27" y2="-15.384" x2="27"/>
  <line style="fill:none;stroke:#000000;stroke-width:0.7;stroke-linecap:round;" y1="-18.983" x1="28.05" y2="-18.983" x2="28.05"/>
  <line style="fill:none;stroke:#000000;stroke-width:0.7;stroke-linecap:round;" y1="-14.934" x1="32.1" y2="-14.934" x2="32.1"/>
  <line style="fill:none;stroke:#000000;stroke-width:0.7;stroke-linecap:round;" y1="-17.184" x1="32.85" y2="-17.184" x2="32.85"/>
  <line style="fill:none;stroke:#000000;stroke-width:0.7;stroke-linecap:round;" y1="-17.634" x1="34.95" y2="-17.634" x2="34.95"/>
  <line style="fill:none;stroke:#000000;stroke-width:0.7;stroke-linecap:round;" y1="-13.283" x1="34.95" y2="-13.283" x2="34.95"/>
  <line style="fill:none;stroke:#000000;stroke-width:0.7;stroke-linecap:round;" y1="-12.084" x1="32.7" y2="-12.084" x2="32.7"/>
  <line style="fill:none;stroke:#000000;stroke-width:0.7;stroke-linecap:round;" y1="-9.684" x1="30.6" y2="-9.684" x2="30.6"/>
  <line style="fill:none;stroke:#000000;stroke-width:0.7;stroke-linecap:round;" y1="-10.884" x1="35.1" y2="-10.884" x2="35.1"/>
  <line style="fill:none;stroke:#000000;stroke-width:0.7;stroke-linecap:round;" y1="-8.934" x1="36.9" y2="-8.934" x2="36.9"/>
  <line style="fill:none;stroke:#000000;stroke-width:0.7;stroke-linecap:round;" y1="-32.334" x1="14.25" y2="-32.334" x2="14.25"/>
  <line style="fill:none;stroke:#000000;stroke-width:0.7;stroke-linecap:round;" y1="-30.983" x1="25.35" y2="-30.983" x2="25.35"/>
  <line style="fill:none;stroke:#000000;stroke-width:0.7;stroke-linecap:round;" y1="-29.483" x1="30.45" y2="-29.483" x2="30.45"/>
  <line style="fill:none;stroke:#000000;stroke-width:0.7;stroke-linecap:round;" y1="-29.034" x1="35.1" y2="-29.034" x2="35.1"/>
  <line style="fill:none;stroke:#000000;stroke-width:0.7;stroke-linecap:round;" y1="-30.684" x1="32.7" y2="-30.684" x2="32.7"/>
  <line style="fill:none;stroke:#000000;stroke-width:0.7;stroke-linecap:round;" y1="-28.134" x1="33.15" y2="-28.134" x2="33.15"/>
  <line style="fill:none;stroke:#000000;stroke-width:0.7;stroke-linecap:round;" y1="-24.534" x1="39.45" y2="-24.534" x2="39.45"/>
  <line style="fill:none;stroke:#000000;stroke-width:0.7;stroke-linecap:round;" y1="-22.434" x1="36" y2="-22.434" x2="36"/>
  <line style="fill:none;stroke:#000000;stroke-width:0.7;stroke-linecap:round;" y1="-23.483" x1="30.9" y2="-23.483" x2="30.9"/>
  <line style="fill:none;stroke:#000000;stroke-width:0.7;stroke-linecap:round;" y1="-21.084" x1="30.75" y2="-21.084" x2="30.75"/>
  <line style="fill:none;stroke:#000000;stroke-width:0.7;stroke-linecap:round;" y1="-19.284" x1="30.75" y2="-19.284" x2="30.75"/>
  <line style="fill:none;stroke:#000000;stroke-width:0.7;stroke-linecap:round;" y1="-18.084" x1="37.35" y2="-18.084" x2="37.35"/>
  <line style="fill:none;stroke:#000000;stroke-width:0.7;stroke-linecap:round;" y1="-16.434" x1="39.75" y2="-16.434" x2="39.75"/>
  <line style="fill:none;stroke:#000000;stroke-width:0.7;stroke-linecap:round;" y1="-19.584" x1="43.05" y2="-19.584" x2="43.05"/>
  <line style="fill:none;stroke:#000000;stroke-width:0.7;stroke-linecap:round;" y1="-22.434" x1="39" y2="-22.434" x2="39"/>
  <line style="fill:none;stroke:#000000;stroke-width:0.7;stroke-linecap:round;" y1="-17.634" x1="21.45" y2="-17.634" x2="21.45"/>
  <line style="fill:none;stroke:#000000;stroke-width:0.7;stroke-linecap:round;" y1="-23.184" x1="17.7" y2="-23.184" x2="17.7"/>
  <line style="fill:none;stroke:#000000;stroke-width:0.7;stroke-linecap:round;" y1="-24.534" x1="19.8" y2="-24.534" x2="19.8"/>
  <line style="fill:none;stroke:#000000;stroke-width:0.7;stroke-linecap:round;" y1="-28.134" x1="8.25" y2="-28.134" x2="8.25"/>
  <line style="fill:none;stroke:#000000;stroke-width:0.7;stroke-linecap:round;" y1="-26.934" x1="5.55" y2="-26.934" x2="5.55"/>
  <line style="fill:none;stroke:#000000;stroke-width:0.7;stroke-linecap:round;" y1="-24.684" x1="3.45" y2="-24.684" x2="3.45"/>
  <line style="fill:none;stroke:#000000;stroke-width:0.7;stroke-linecap:round;" y1="-20.633" x1="12.15" y2="-20.633" x2="12.15"/>
  <line style="fill:none;stroke:#000000;stroke-width:0.7;stroke-linecap:round;" y1="-25.434" x1="10.35" y2="-25.434" x2="10.35"/>
  <line style="fill:none;stroke:#000000;stroke-width:0.7;stroke-linecap:round;" y1="-27.684" x1="17.85" y2="-27.684" x2="17.85"/>
  <line style="fill:none;stroke:#000000;stroke-width:0.7;stroke-linecap:round;" y1="-26.934" x1="26.85" y2="-26.934" x2="26.85"/>
  <line style="fill:none;stroke:#000000;stroke-width:0.7;stroke-linecap:round;" y1="-26.934" x1="24.3" y2="-26.934" x2="24.3"/>
  <line style="fill:none;stroke:#000000;stroke-width:0.7;stroke-linecap:round;" y1="-21.983" x1="20.25" y2="-21.983" x2="20.25"/>
  <line style="fill:none;stroke:#000000;stroke-width:0.7;stroke-linecap:round;" y1="-33.534" x1="5.85" y2="-33.534" x2="5.85"/>
  <line style="fill:none;stroke:#000000;stroke-width:0.7;stroke-linecap:round;" y1="-34.584" x1="7.8" y2="-34.584" x2="7.8"/>
  <line style="fill:none;stroke:#000000;stroke-width:0.7;stroke-linecap:round;" y1="-31.733" x1="9" y2="-31.733" x2="9"/>
  <line style="fill:none;stroke:#000000;stroke-width:0.7;stroke-linecap:round;" y1="-30.384" x1="3.75" y2="-30.384" x2="3.75"/>
  <line style="fill:none;stroke:#000000;stroke-width:0.7;stroke-linecap:round;" y1="-28.134" x1="40.5" y2="-28.134" x2="40.5"/>
  <line style="fill:none;stroke:#000000;stroke-width:0.7;stroke-linecap:round;" y1="-27.983" x1="43.65" y2="-27.983" x2="43.65"/>
  <line style="fill:none;stroke:#000000;stroke-width:0.7;stroke-linecap:round;" y1="-40.434" x1="2.85" y2="-40.434" x2="2.85"/>
  <line style="fill:none;stroke:#000000;stroke-width:0.7;stroke-linecap:round;" y1="-41.784" x1="12.6" y2="-41.784" x2="12.6"/>
  <line style="fill:none;stroke:#000000;stroke-width:0.7;stroke-linecap:round;" y1="-42.234" x1="4.2" y2="-42.234" x2="4.2"/>
  <line style="fill:none;stroke:#000000;stroke-width:0.7;stroke-linecap:round;" y1="-37.284" x1="9.6" y2="-37.284" x2="9.6"/>
  <line style="fill:none;stroke:#000000;stroke-width:0.7;stroke-linecap:round;" y1="-34.284" x1="13.05" y2="-34.284" x2="13.05"/>
  <line style="fill:none;stroke:#000000;stroke-width:0.7;stroke-linecap:round;" y1="-23.633" x1="14.7" y2="-23.633" x2="14.7"/>
  <line style="fill:none;stroke:#000000;stroke-width:0.7;stroke-linecap:round;" y1="-19.284" x1="2.4" y2="-19.284" x2="2.4"/>
  <line style="fill:none;stroke:#000000;stroke-width:0.7;stroke-linecap:round;" y1="-6.384" x1="43.65" y2="-6.384" x2="43.65"/>
  <line style="fill:none;stroke:#000000;stroke-width:0.7;stroke-linecap:round;" y1="-4.433" x1="36.45" y2="-4.433" x2="36.45"/>
  <line style="fill:none;stroke:#000000;stroke-width:0.7;stroke-linecap:round;" y1="-5.033" x1="26.25" y2="-5.033" x2="26.25"/>
  <line style="fill:none;stroke:#000000;stroke-width:0.7;stroke-linecap:round;" y1="-9.834" x1="4.65" y2="-9.834" x2="4.65"/>
  <line style="fill:none;stroke:#000000;stroke-width:0.7;stroke-linecap:round;" y1="-10.134" x1="17.85" y2="-10.134" x2="17.85"/>
  <line style="fill:none;stroke:#000000;stroke-width:0.7;stroke-linecap:round;" y1="-16.733" x1="24.3" y2="-16.733" x2="24.3"/>
  <line style="fill:none;stroke:#000000;stroke-width:0.7;stroke-linecap:round;" y1="-21.684" x1="7.2" y2="-21.684" x2="7.2"/>
  <line style="fill:none;stroke:#000000;stroke-width:0.7;stroke-linecap:round;" y1="-23.034" x1="33.3" y2="-23.034" x2="33.3"/>
  <line style="fill:none;stroke:#000000;stroke-width:0.7;stroke-linecap:round;" y1="-18.384" x1="40.8" y2="-18.384" x2="40.8"/>
  <line style="fill:none;stroke:#000000;stroke-width:0.7;stroke-linecap:round;" y1="-6.084" x1="32.7" y2="-6.084" x2="32.7"/>
  <line style="fill:none;stroke:#000000;stroke-width:0.7;stroke-linecap:round;" y1="-23.184" x1="25.95" y2="-23.184" x2="25.95"/>
  <line style="fill:none;stroke:#000000;stroke-width:0.7;stroke-linecap:round;" y1="-37.734" x1="18.45" y2="-37.734" x2="18.45"/>
  <line style="fill:none;stroke:#000000;stroke-width:0.7;stroke-linecap:round;" y1="-29.934" x1="13.8" y2="-29.934" x2="13.8"/>
  <line style="fill:none;stroke:#000000;stroke-width:0.7;stroke-linecap:round;" y1="-44.784" x1="9" y2="-44.784" x2="9"/>
  <line style="fill:none;stroke:#000000;stroke-width:0.7;stroke-linecap:round;" y1="-43.584" x1="35.1" y2="-43.584" x2="35.1"/>
  <line style="fill:none;stroke:#000000;stroke-width:0.7;stroke-linecap:round;" y1="-4.433" x1="30.75" y2="-4.433" x2="30.75"/>
  <line style="fill:none;stroke:#000000;stroke-width:0.7;stroke-linecap:round;" y1="-21.383" x1="4.2" y2="-21.383" x2="4.2"/>
  <line style="fill:none;stroke:#000000;stroke-width:0.7;stroke-linecap:round;" y1="-37.884" x1="43.2" y2="-37.884" x2="43.2"/>
  <line style="fill:none;stroke:#000000;stroke-width:0.7;stroke-linecap:round;" y1="-37.434" x1="15.9" y2="-37.434" x2="15.9"/>
  <line style="fill:none;stroke:#000000;stroke-width:0.7;stroke-linecap:round;" y1="-35.934" x1="13.8" y2="-35.934" x2="13.8"/>
  <line style="fill:none;stroke:#000000;stroke-width:0.7;stroke-linecap:round;" y1="-35.483" x1="10.8" y2="-35.483" x2="10.8"/>
  <line style="fill:none;stroke:#000000;stroke-width:0.7;stroke-linecap:round;" y1="-38.784" x1="5.55" y2="-38.784" x2="5.55"/>
  <line style="fill:none;stroke:#000000;stroke-width:0.7;stroke-linecap:round;" y1="-44.184" x1="6.15" y2="-44.184" x2="6.15"/>
  <line style="fill:none;stroke:#000000;stroke-width:0.7;stroke-linecap:round;" y1="-40.884" x1="10.5" y2="-40.884" x2="10.5"/>
  <line style="fill:none;stroke:#000000;stroke-width:0.7;stroke-linecap:round;" y1="-41.634" x1="17.4" y2="-41.634" x2="17.4"/>
  <line style="fill:none;stroke:#000000;stroke-width:0.7;stroke-linecap:round;" y1="-41.334" x1="24.15" y2="-41.334" x2="24.15"/>
  <line style="fill:none;stroke:#000000;stroke-width:0.7;stroke-linecap:round;" y1="-43.284" x1="24.45" y2="-43.284" x2="24.45"/>
  <line style="fill:none;stroke:#000000;stroke-width:0.7;stroke-linecap:round;" y1="-44.934" x1="28.05" y2="-44.934" x2="28.05"/>
  <line style="fill:none;stroke:#000000;stroke-width:0.7;stroke-linecap:round;" y1="-40.434" x1="32.7" y2="-40.434" x2="32.7"/>
  <line style="fill:none;stroke:#000000;stroke-width:0.7;stroke-linecap:round;" y1="-39.234" x1="23.4" y2="-39.234" x2="23.4"/>
  <line style="fill:none;stroke:#000000;stroke-width:0.7;stroke-linecap:round;" y1="-36.834" x1="25.5" y2="-36.834" x2="25.5"/>
  <line style="fill:none;stroke:#000000;stroke-width:0.7;stroke-linecap:round;" y1="-35.034" x1="16.8" y2="-35.034" x2="16.8"/>
  <line style="fill:none;stroke:#000000;stroke-width:0.7;stroke-linecap:round;" y1="-29.184" x1="6.3" y2="-29.184" x2="6.3"/>
  <line style="fill:none;stroke:#000000;stroke-width:0.7;stroke-linecap:round;" y1="-26.784" x1="11.55" y2="-26.784" x2="11.55"/>
  <line style="fill:none;stroke:#000000;stroke-width:0.7;stroke-linecap:round;" y1="-25.733" x1="8.25" y2="-25.733" x2="8.25"/>
  <line style="fill:none;stroke:#000000;stroke-width:0.7;stroke-linecap:round;" y1="-23.633" x1="5.1" y2="-23.633" x2="5.1"/>
  <line style="fill:none;stroke:#000000;stroke-width:0.7;stroke-linecap:round;" y1="-33.534" x1="3.9" y2="-33.534" x2="3.9"/>
  <line style="fill:none;stroke:#000000;stroke-width:0.7;stroke-linecap:round;" y1="-27.384" x1="14.25" y2="-27.384" x2="14.25"/>
  <line style="fill:none;stroke:#000000;stroke-width:0.7;stroke-linecap:round;" y1="-24.534" x1="12.45" y2="-24.534" x2="12.45"/>
  <line style="fill:none;stroke:#000000;stroke-width:0.7;stroke-linecap:round;" y1="-22.434" x1="11.55" y2="-22.434" x2="11.55"/>
  <line style="fill:none;stroke:#000000;stroke-width:0.7;stroke-linecap:round;" y1="-21.084" x1="9.6" y2="-21.084" x2="9.6"/>
  <line style="fill:none;stroke:#000000;stroke-width:0.7;stroke-linecap:round;" y1="-17.934" x1="9.6" y2="-17.934" x2="9.6"/>
  <line style="fill:none;stroke:#000000;stroke-width:0.7;stroke-linecap:round;" y1="-16.434" x1="15.75" y2="-16.434" x2="15.75"/>
  <line style="fill:none;stroke:#000000;stroke-width:0.7;stroke-linecap:round;" y1="-13.134" x1="8.55" y2="-13.134" x2="8.55"/>
  <line style="fill:none;stroke:#000000;stroke-width:0.7;stroke-linecap:round;" y1="-10.733" x1="11.25" y2="-10.733" x2="11.25"/>
  <line style="fill:none;stroke:#000000;stroke-width:0.7;stroke-linecap:round;" y1="-7.733" x1="5.55" y2="-7.733" x2="5.55"/>
  <line style="fill:none;stroke:#000000;stroke-width:0.7;stroke-linecap:round;" y1="-8.634" x1="3.3" y2="-8.634" x2="3.3"/>
  <line style="fill:none;stroke:#000000;stroke-width:0.7;stroke-linecap:round;" y1="-5.033" x1="7.35" y2="-5.033" x2="7.35"/>
  <line style="fill:none;stroke:#000000;stroke-width:0.7;stroke-linecap:round;" y1="-4.134" x1="10.05" y2="-4.134" x2="10.05"/>
  <line style="fill:none;stroke:#000000;stroke-width:0.7;stroke-linecap:round;" y1="-3.384" x1="15" y2="-3.384" x2="15"/>
  <line style="fill:none;stroke:#000000;stroke-width:0.7;stroke-linecap:round;" y1="-6.384" x1="15.75" y2="-6.384" x2="15.75"/>
  <line style="fill:none;stroke:#000000;stroke-width:0.7;stroke-linecap:round;" y1="-9.834" x1="15.3" y2="-9.834" x2="15.3"/>
  <line style="fill:none;stroke:#000000;stroke-width:0.7;stroke-linecap:round;" y1="-11.334" x1="16.5" y2="-11.334" x2="16.5"/>
  <line style="fill:none;stroke:#000000;stroke-width:0.7;stroke-linecap:round;" y1="-17.184" x1="17.7" y2="-17.184" x2="17.7"/>
  <line style="fill:none;stroke:#000000;stroke-width:0.7;stroke-linecap:round;" y1="-19.733" x1="17.4" y2="-19.733" x2="17.4"/>
  <line style="fill:none;stroke:#000000;stroke-width:0.7;stroke-linecap:round;" y1="-27.233" x1="21.3" y2="-27.233" x2="21.3"/>
  <line style="fill:none;stroke:#000000;stroke-width:0.7;stroke-linecap:round;" y1="-29.634" x1="22.5" y2="-29.634" x2="22.5"/>
  <line style="fill:none;stroke:#000000;stroke-width:0.7;stroke-linecap:round;" y1="-30.834" x1="28.2" y2="-30.834" x2="28.2"/>
  <line style="fill:none;stroke:#000000;stroke-width:0.7;stroke-linecap:round;" y1="-33.384" x1="27.75" y2="-33.384" x2="27.75"/>
  <line style="fill:none;stroke:#000000;stroke-width:0.7;stroke-linecap:round;" y1="-32.483" x1="18.6" y2="-32.483" x2="18.6"/>
  <line style="fill:none;stroke:#000000;stroke-width:0.7;stroke-linecap:round;" y1="-32.634" x1="33.15" y2="-32.634" x2="33.15"/>
  <line style="fill:none;stroke:#000000;stroke-width:0.7;stroke-linecap:round;" y1="-35.184" x1="27.9" y2="-35.184" x2="27.9"/>
  <line style="fill:none;stroke:#000000;stroke-width:0.7;stroke-linecap:round;" y1="-35.034" x1="32.25" y2="-35.034" x2="32.25"/>
  <line style="fill:none;stroke:#000000;stroke-width:0.7;stroke-linecap:round;" y1="-35.483" x1="37.65" y2="-35.483" x2="37.65"/>
  <line style="fill:none;stroke:#000000;stroke-width:0.7;stroke-linecap:round;" y1="-37.434" x1="36.9" y2="-37.434" x2="36.9"/>
  <line style="fill:none;stroke:#000000;stroke-width:0.7;stroke-linecap:round;" y1="-39.384" x1="37.65" y2="-39.384" x2="37.65"/>
  <line style="fill:none;stroke:#000000;stroke-width:0.7;stroke-linecap:round;" y1="-41.334" x1="37.2" y2="-41.334" x2="37.2"/>
  <line style="fill:none;stroke:#000000;stroke-width:0.7;stroke-linecap:round;" y1="-42.984" x1="37.95" y2="-42.984" x2="37.95"/>
  <line style="fill:none;stroke:#000000;stroke-width:0.7;stroke-linecap:round;" y1="-42.234" x1="42.45" y2="-42.234" x2="42.45"/>
  <line style="fill:none;stroke:#000000;stroke-width:0.7;stroke-linecap:round;" y1="-40.284" x1="40.05" y2="-40.284" x2="40.05"/>
  <line style="fill:none;stroke:#000000;stroke-width:0.7;stroke-linecap:round;" y1="-31.584" x1="38.1" y2="-31.584" x2="38.1"/>
  <line style="fill:none;stroke:#000000;stroke-width:0.7;stroke-linecap:round;" y1="-31.584" x1="35.25" y2="-31.584" x2="35.25"/>
  <line style="fill:none;stroke:#000000;stroke-width:0.7;stroke-linecap:round;" y1="-34.584" x1="35.25" y2="-34.584" x2="35.25"/>
  <line style="fill:none;stroke:#000000;stroke-width:0.7;stroke-linecap:round;" y1="-30.384" x1="40.95" y2="-30.384" x2="40.95"/>
  <line style="fill:none;stroke:#000000;stroke-width:0.7;stroke-linecap:round;" y1="-27.384" x1="37.65" y2="-27.384" x2="37.65"/>
  <line style="fill:none;stroke:#000000;stroke-width:0.7;stroke-linecap:round;" y1="-26.184" x1="33.6" y2="-26.184" x2="33.6"/>
  <line style="fill:none;stroke:#000000;stroke-width:0.7;stroke-linecap:round;" y1="-25.584" x1="30.45" y2="-25.584" x2="30.45"/>
  <line style="fill:none;stroke:#000000;stroke-width:0.7;stroke-linecap:round;" y1="-22.284" x1="28.5" y2="-22.284" x2="28.5"/>
  <line style="fill:none;stroke:#000000;stroke-width:0.7;stroke-linecap:round;" y1="-20.934" x1="22.35" y2="-20.934" x2="22.35"/>
  <line style="fill:none;stroke:#000000;stroke-width:0.7;stroke-linecap:round;" y1="-17.034" x1="26.4" y2="-17.034" x2="26.4"/>
  <line style="fill:none;stroke:#000000;stroke-width:0.7;stroke-linecap:round;" y1="-14.483" x1="29.4" y2="-14.483" x2="29.4"/>
  <line style="fill:none;stroke:#000000;stroke-width:0.7;stroke-linecap:round;" y1="-11.783" x1="29.85" y2="-11.783" x2="29.85"/>
  <line style="fill:none;stroke:#000000;stroke-width:0.7;stroke-linecap:round;" y1="-10.134" x1="27.15" y2="-10.134" x2="27.15"/>
  <line style="fill:none;stroke:#000000;stroke-width:0.7;stroke-linecap:round;" y1="-8.184" x1="25.95" y2="-8.184" x2="25.95"/>
  <line style="fill:none;stroke:#000000;stroke-width:0.7;stroke-linecap:round;" y1="-8.184" x1="23.55" y2="-8.184" x2="23.55"/>
  <line style="fill:none;stroke:#000000;stroke-width:0.7;stroke-linecap:round;" y1="-14.184" x1="23.85" y2="-14.184" x2="23.85"/>
  <line style="fill:none;stroke:#000000;stroke-width:0.7;stroke-linecap:round;" y1="-8.483" x1="20.1" y2="-8.483" x2="20.1"/>
  <line style="fill:none;stroke:#000000;stroke-width:0.7;stroke-linecap:round;" y1="-4.733" x1="20.85" y2="-4.733" x2="20.85"/>
  <line style="fill:none;stroke:#000000;stroke-width:0.7;stroke-linecap:round;" y1="-3.834" x1="24.45" y2="-3.834" x2="24.45"/>
  <line style="fill:none;stroke:#000000;stroke-width:0.7;stroke-linecap:round;" y1="-11.634" x1="39.75" y2="-11.634" x2="39.75"/>
  <line style="fill:none;stroke:#000000;stroke-width:0.7;stroke-linecap:round;" y1="-15.384" x1="37.95" y2="-15.384" x2="37.95"/>
  <line style="fill:none;stroke:#000000;stroke-width:0.7;stroke-linecap:round;" y1="-15.533" x1="34.65" y2="-15.533" x2="34.65"/>
  <line style="fill:none;stroke:#000000;stroke-width:0.7;stroke-linecap:round;" y1="-20.784" x1="34.8" y2="-20.784" x2="34.8"/>
  <line style="fill:none;stroke:#000000;stroke-width:0.7;stroke-linecap:round;" y1="-20.483" x1="39.45" y2="-20.483" x2="39.45"/>
  <line style="fill:none;stroke:#000000;stroke-width:0.7;stroke-linecap:round;" y1="-16.733" x1="43.5" y2="-16.733" x2="43.5"/>
  <line style="fill:none;stroke:#000000;stroke-width:0.7;stroke-linecap:round;" y1="-13.283" x1="43.65" y2="-13.283" x2="43.65"/>
  <line style="fill:none;stroke:#000000;stroke-width:0.7;stroke-linecap:round;" y1="-8.783" x1="40.05" y2="-8.783" x2="40.05"/>
  <line style="fill:none;stroke:#000000;stroke-width:0.7;stroke-linecap:round;" y1="-10.283" x1="44.1" y2="-10.283" x2="44.1"/>
  <line style="fill:none;stroke:#000000;stroke-width:0.7;stroke-linecap:round;" y1="-6.533" x1="40.8" y2="-6.533" x2="40.8"/>
  <line style="fill:none;stroke:#000000;stroke-width:0.7;stroke-linecap:round;" y1="-4.884" x1="41.4" y2="-4.884" x2="41.4"/>
  <line style="fill:none;stroke:#000000;stroke-width:0.7;stroke-linecap:round;" y1="-3.683" x1="39.45" y2="-3.683" x2="39.45"/>
  <line style="fill:none;stroke:#000000;stroke-width:0.7;stroke-linecap:round;" y1="-3.983" x1="33.6" y2="-3.983" x2="33.6"/>
  <line style="fill:none;stroke:#000000;stroke-width:0.7;stroke-linecap:round;" y1="-5.933" x1="28.8" y2="-5.933" x2="28.8"/>
  <line style="fill:none;stroke:#000000;stroke-width:0.7;stroke-linecap:round;" y1="-3.084" x1="19.05" y2="-3.084" x2="19.05"/>
  <line style="fill:none;stroke:#000000;stroke-width:0.7;stroke-linecap:round;" y1="-28.284" x1="3.15" y2="-28.284" x2="3.15"/>
  <line style="fill:none;stroke:#000000;stroke-width:0.7;stroke-linecap:round;" y1="-42.834" x1="9.9" y2="-42.834" x2="9.9"/>
  <line style="fill:none;stroke:#000000;stroke-width:0.7;stroke-linecap:round;" y1="-25.133" x1="44.1" y2="-25.133" x2="44.1"/>
  <line style="fill:none;stroke:#000000;stroke-width:0.7;stroke-linecap:round;" y1="-21.033" x1="44.417" y2="-21.033" x2="44.417"/>
  <line style="fill:none;stroke:#000000;stroke-width:0.7;stroke-linecap:round;" y1="-15.233" x1="3.75" y2="-15.233" x2="3.75"/>
  <line style="fill:none;stroke:#000000;stroke-width:0.7;stroke-linecap:round;" y1="-29.934" x1="43.35" y2="-29.934" x2="43.35"/>
  <line style="fill:none;stroke:#000000;stroke-width:0.7;stroke-linecap:round;" y1="-8.783" x1="42.45" y2="-8.783" x2="42.45"/>
  <line style="fill:none;stroke:#000000;stroke-width:0.7;stroke-linecap:round;" y1="-11.2" x1="2.5" y2="-11.2" x2="2.5"/>
  <line style="fill:none;stroke:#000000;stroke-width:0.7;stroke-linecap:round;" y1="-3.084" x1="3.6" y2="-3.084" x2="3.6"/>
  <line style="fill:none;stroke:#000000;stroke-width:0.7;stroke-linecap:round;" y1="-31.809" x1="44.6" y2="-31.809" x2="44.6"/>
  <line style="fill:none;stroke:#000000;stroke-width:0.7;stroke-linecap:round;" y1="-35.784" x1="2.7" y2="-35.784" x2="2.7"/>
  <line style="fill:none;stroke:#000000;stroke-width:0.7;stroke-linecap:round;" y1="-38.184" x1="12.75" y2="-38.184" x2="12.75"/>
  <line style="fill:none;stroke:#000000;stroke-width:0.7;stroke-linecap:round;" y1="-39.834" x1="19.5" y2="-39.834" x2="19.5"/>
  <line style="fill:none;stroke:#000000;stroke-width:0.7;stroke-linecap:round;" y1="-43.584" x1="18" y2="-43.584" x2="18"/>
  <line style="fill:none;stroke:#000000;stroke-width:0.7;stroke-linecap:round;" y1="-39.684" x1="26.1" y2="-39.684" x2="26.1"/>
  <line style="fill:none;stroke:#000000;stroke-width:0.7;stroke-linecap:round;" y1="-39.684" x1="29.7" y2="-39.684" x2="29.7"/>
  <line style="fill:none;stroke:#000000;stroke-width:0.7;stroke-linecap:round;" y1="-32.184" x1="30.3" y2="-32.184" x2="30.3"/>
  <line style="fill:none;stroke:#000000;stroke-width:0.7;stroke-linecap:round;" y1="-41.784" x1="34.8" y2="-41.784" x2="34.8"/>
  <line style="fill:none;stroke:#000000;stroke-width:0.7;stroke-linecap:round;" y1="-41.934" x1="40.35" y2="-41.934" x2="40.35"/>
  <line style="fill:none;stroke:#000000;stroke-width:0.7;stroke-linecap:round;" y1="-44.634" x1="39.6" y2="-44.634" x2="39.6"/>
  <line style="fill:none;stroke:#000000;stroke-width:0.7;stroke-linecap:round;" y1="-35.034" x1="43.65" y2="-35.034" x2="43.65"/>
  <line style="fill:none;stroke:#000000;stroke-width:0.7;stroke-linecap:round;" y1="-17.634" x1="6.75" y2="-17.634" x2="6.75"/>
  <line style="fill:none;stroke:#000000;stroke-width:0.7;stroke-linecap:round;" y1="-11.783" x1="4.95" y2="-11.783" x2="4.95"/>
  <line style="fill:none;stroke:#000000;stroke-width:0.7;stroke-linecap:round;" y1="-6.384" x1="3.9" y2="-6.384" x2="3.9"/>
  <line style="fill:none;stroke:#000000;stroke-width:0.7;stroke-linecap:round;" y1="-3.983" x1="12.6" y2="-3.983" x2="12.6"/>
  <line style="fill:none;stroke:#000000;stroke-width:0.7;stroke-linecap:round;" y1="-8.033" x1="14.55" y2="-8.033" x2="14.55"/>
  <line style="fill:none;stroke:#000000;stroke-width:0.7;stroke-linecap:round;" y1="-18.684" x1="14.55" y2="-18.684" x2="14.55"/>
  <line style="fill:none;stroke:#000000;stroke-width:0.7;stroke-linecap:round;" y1="-15.233" x1="19.05" y2="-15.233" x2="19.05"/>
  <line style="fill:none;stroke:#000000;stroke-width:0.7;stroke-linecap:round;" y1="-9.834" x1="23.85" y2="-9.834" x2="23.85"/>
  <line style="fill:none;stroke:#000000;stroke-width:0.7;stroke-linecap:round;" y1="-5.783" x1="22.5" y2="-5.783" x2="22.5"/>
  <line style="fill:none;stroke:#000000;stroke-width:0.7;stroke-linecap:round;" y1="-12.834" x1="27" y2="-12.834" x2="27"/>
  <line style="fill:none;stroke:#000000;stroke-width:0.7;stroke-linecap:round;" y1="-9.983" x1="33.3" y2="-9.983" x2="33.3"/>
  <line style="fill:none;stroke:#000000;stroke-width:0.7;stroke-linecap:round;" y1="-7.884" x1="31.65" y2="-7.884" x2="31.65"/>
  <line style="fill:none;stroke:#000000;stroke-width:0.7;stroke-linecap:round;" y1="-6.683" x1="34.95" y2="-6.683" x2="34.95"/>
  <line style="fill:none;stroke:#000000;stroke-width:0.7;stroke-linecap:round;" y1="-31.134" x1="17.1" y2="-31.134" x2="17.1"/>
  <line style="fill:none;stroke:#000000;stroke-width:0.7;stroke-linecap:round;" y1="-31.884" x1="23.1" y2="-31.884" x2="23.1"/>
  <line style="fill:none;stroke:#000000;stroke-width:0.7;stroke-linecap:round;" y1="-28.884" x1="27.45" y2="-28.884" x2="27.45"/>
  <line style="fill:none;stroke:#000000;stroke-width:0.7;stroke-linecap:round;" y1="-20.034" x1="33.15" y2="-20.034" x2="33.15"/>
  <line style="fill:none;stroke:#000000;stroke-width:0.7;stroke-linecap:round;" y1="-14.783" x1="42.15" y2="-14.783" x2="42.15"/>
  <line style="fill:none;stroke:#000000;stroke-width:0.7;stroke-linecap:round;" y1="-17.184" x1="30.3" y2="-17.184" x2="30.3"/>
  <line style="fill:none;stroke:#000000;stroke-width:0.7;stroke-linecap:round;" y1="-19.133" x1="24.15" y2="-19.133" x2="24.15"/>
  <line style="fill:none;stroke:#000000;stroke-width:0.7;stroke-linecap:round;" y1="-28.733" x1="12.15" y2="-28.733" x2="12.15"/>
  <line style="fill:none;stroke:#000000;stroke-width:0.7;stroke-linecap:round;" y1="-23.784" x1="8.7" y2="-23.784" x2="8.7"/>
  <line style="fill:none;stroke:#000000;stroke-width:0.7;stroke-linecap:round;" y1="-26.334" x1="41.55" y2="-26.334" x2="41.55"/>
  <line style="fill:none;stroke:#000000;stroke-width:0.7;stroke-linecap:round;" y1="-36.384" x1="6.3" y2="-36.384" x2="6.3"/>
  <line style="fill:none;stroke:#000000;stroke-width:0.7;stroke-linecap:round;" y1="-42.684" x1="7.05" y2="-42.684" x2="7.05"/>
  <line style="fill:none;stroke:#000000;stroke-width:0.7;stroke-linecap:round;" y1="-44.334" x1="4.05" y2="-44.334" x2="4.05"/>
  <line style="fill:none;stroke:#000000;stroke-width:0.7;stroke-linecap:round;" y1="-23.483" x1="41.85" y2="-23.483" x2="41.85"/>
  <line style="fill:none;stroke:#000000;stroke-width:0.7;stroke-linecap:round;" y1="-8.033" x1="28.35" y2="-8.033" x2="28.35"/>
  <line style="fill:none;stroke:#000000;stroke-width:0.7;stroke-linecap:round;" y1="-3.834" x1="17.4" y2="-3.834" x2="17.4"/>
  <line style="fill:none;stroke:#000000;stroke-width:0.7;stroke-linecap:round;" y1="-20.784" x1="15.15" y2="-20.784" x2="15.15"/>
  <line style="fill:none;stroke:#000000;stroke-width:0.7;stroke-linecap:round;" y1="-25.133" x1="26.85" y2="-25.133" x2="26.85"/>
  <line style="fill:none;stroke:#000000;stroke-width:0.7;stroke-linecap:round;" y1="-21.534" x1="41.7" y2="-21.534" x2="41.7"/>
  <line style="fill:none;stroke:#000000;stroke-width:0.7;stroke-linecap:round;" y1="-36.834" x1="33.9" y2="-36.834" x2="33.9"/>
  <line style="fill:none;stroke:#000000;stroke-width:0.7;stroke-linecap:round;" y1="-35.184" x1="24.75" y2="-35.184" x2="24.75"/>
  <line style="fill:none;stroke:#000000;stroke-width:0.7;stroke-linecap:round;" y1="-33.834" x1="9.75" y2="-33.834" x2="9.75"/>
  <line style="fill:none;stroke:#000000;stroke-width:0.7;stroke-linecap:round;" y1="-43.134" x1="31.65" y2="-43.134" x2="31.65"/>
  <line style="fill:none;stroke:#000000;stroke-width:0.7;stroke-linecap:round;" y1="-33.384" x1="37.35" y2="-33.384" x2="37.35"/>
  <line style="fill:none;stroke:#000000;stroke-width:0.7;stroke-linecap:round;" y1="-11.483" x1="42.45" y2="-11.483" x2="42.45"/>
  <line style="fill:none;stroke:#000000;stroke-width:0.7;stroke-linecap:round;" y1="-3.983" x1="5.1" y2="-3.983" x2="5.1"/>
  <line style="fill:none;stroke:#000000;stroke-width:0.7;stroke-linecap:round;" y1="-37.884" x1="3.6" y2="-37.884" x2="3.6"/>
  <line style="fill:none;stroke:#000000;stroke-width:0.7;stroke-linecap:round;" y1="-44.184" x1="12.15" y2="-44.184" x2="12.15"/>
  <line style="fill:none;stroke:#000000;stroke-width:0.7;stroke-linecap:round;" y1="-43.134" x1="27.45" y2="-43.134" x2="27.45"/>
  <line style="fill:none;stroke:#000000;stroke-width:0.7;stroke-linecap:round;" y1="-26.634" x1="3.6" y2="-26.634" x2="3.6"/>
  <line style="fill:none;stroke:#000000;stroke-width:0.7;stroke-linecap:round;" y1="-30.834" x1="6.45" y2="-30.834" x2="6.45"/>
  <line style="fill:none;stroke:#000000;stroke-width:0.7;stroke-linecap:round;" y1="-17.483" x1="3.9" y2="-17.483" x2="3.9"/>
  <line style="fill:none;stroke:#000000;stroke-width:0.7;stroke-linecap:round;" y1="-15.533" x1="8.55" y2="-15.533" x2="8.55"/>
  <line style="fill:none;stroke:#000000;stroke-width:0.7;stroke-linecap:round;" y1="-9.983" x1="7.95" y2="-9.983" x2="7.95"/>
  <line style="fill:none;stroke:#000000;stroke-width:0.7;stroke-linecap:round;" y1="-6.384" x1="10.05" y2="-6.384" x2="10.05"/>
  <line style="fill:none;stroke:#000000;stroke-width:0.7;stroke-linecap:round;" y1="-13.884" x1="15.15" y2="-13.884" x2="15.15"/>
  <line style="fill:none;stroke:#000000;stroke-width:0.7;stroke-linecap:round;" y1="-25.434" x1="22.35" y2="-25.434" x2="22.35"/>
  <line style="fill:none;stroke:#000000;stroke-width:0.7;stroke-linecap:round;" y1="-25.434" x1="17.55" y2="-25.434" x2="17.55"/>
  <line style="fill:none;stroke:#000000;stroke-width:0.7;stroke-linecap:round;" y1="-28.733" x1="24.3" y2="-28.733" x2="24.3"/>
  <line style="fill:none;stroke:#000000;stroke-width:0.7;stroke-linecap:round;" y1="-29.634" x1="38.7" y2="-29.634" x2="38.7"/>
  <line style="fill:none;stroke:#000000;stroke-width:0.7;stroke-linecap:round;" y1="-11.634" x1="37.2" y2="-11.634" x2="37.2"/>
  <line style="fill:none;stroke:#000000;stroke-width:0.7;stroke-linecap:round;" y1="-20.334" x1="37.2" y2="-20.334" x2="37.2"/>
  <line style="fill:none;stroke:#000000;stroke-width:0.7;stroke-linecap:round;" y1="-24.534" x1="35.4" y2="-24.534" x2="35.4"/>
  <line style="fill:none;stroke:#000000;stroke-width:0.7;stroke-linecap:round;" y1="-3.533" x1="43.5" y2="-3.533" x2="43.5"/>
  <line style="fill:none;stroke:#000000;stroke-width:0.7;stroke-linecap:round;" y1="-6.384" x1="38.4" y2="-6.384" x2="38.4"/>
  <line style="fill:none;stroke:#000000;stroke-width:0.7;stroke-linecap:round;" y1="-3.7" x1="28.167" y2="-3.7" x2="28.167"/>
  <line style="fill:none;stroke:#000000;stroke-width:0.7;stroke-linecap:round;" y1="-45.234" x1="16.65" y2="-45.234" x2="16.65"/>
  <line style="fill:none;stroke:#000000;stroke-width:0.7;stroke-linecap:round;" y1="-5.597" x1="18.9" y2="-5.597" x2="18.9"/>
  <line style="fill:none;stroke:#000000;stroke-width:0.7;stroke-linecap:round;" y1="-23.483" x1="22.8" y2="-23.483" x2="22.8"/>
  <line style="fill:none;stroke:#000000;stroke-width:0.7;stroke-linecap:round;" y1="-21.233" x1="25.65" y2="-21.233" x2="25.65"/>
  <line style="fill:none;stroke:#000000;stroke-width:0.7;stroke-linecap:round;" y1="-25.733" x1="37.35" y2="-25.733" x2="37.35"/>
  <line style="fill:none;stroke:#000000;stroke-width:0.7;stroke-linecap:round;" y1="-20.034" x1="6.3" y2="-20.034" x2="6.3"/>
  <line style="fill:none;stroke:#000000;stroke-width:0.7;stroke-linecap:round;" y1="-40.284" x1="8.1" y2="-40.284" x2="8.1"/>
  <line style="fill:none;stroke:#000000;stroke-width:0.7;stroke-linecap:round;" y1="-27.459" x1="29.7" y2="-27.459" x2="29.7"/>
  <line style="fill:none;stroke:#000000;stroke-width:0.7;stroke-linecap:round;" y1="-32.334" x1="11.7" y2="-32.334" x2="11.7"/>
  <line style="fill:none;stroke:#000000;stroke-width:0.7;stroke-linecap:round;" y1="-39.534" x1="16.5" y2="-39.534" x2="16.5"/>
  <line style="fill:none;stroke:#000000;stroke-width:0.7;stroke-linecap:round;" y1="-40.734" x1="6" y2="-40.734" x2="6"/>
  <line style="fill:none;stroke:#000000;stroke-width:0.7;stroke-linecap:round;" y1="-25.434" x1="5.85" y2="-25.434" x2="5.85"/>
  <line style="fill:none;stroke:#000000;stroke-width:0.7;stroke-linecap:round;" y1="-25.733" x1="15.15" y2="-25.733" x2="15.15"/>
  <line style="fill:none;stroke:#000000;stroke-width:0.7;stroke-linecap:round;" y1="-19.284" x1="19.8" y2="-19.284" x2="19.8"/>
  <line style="fill:none;stroke:#000000;stroke-width:0.7;stroke-linecap:round;" y1="-13.584" x1="39.9" y2="-13.584" x2="39.9"/>
  <line style="fill:none;stroke:#000000;stroke-width:0.7;stroke-linecap:round;" y1="-5.033" x1="14.85" y2="-5.033" x2="14.85"/>
  <line style="fill:none;stroke:#000000;stroke-width:0.7;stroke-linecap:round;" y1="-45.084" x1="31.8" y2="-45.084" x2="31.8"/>
  <line style="fill:none;stroke:#000000;stroke-width:0.7;stroke-linecap:round;" y1="-8.033" x1="44.417" y2="-8.033" x2="44.417"/>
  <line style="fill:none;stroke:#000000;stroke-width:0.7;stroke-linecap:round;" y1="-43.434" x1="44.25" y2="-43.434" x2="44.25"/>
  <line style="fill:none;stroke:#000000;stroke-width:0.7;stroke-linecap:round;" y1="-15.45" x1="44.583" y2="-15.45" x2="44.583"/>
  <line style="fill:none;stroke:#000000;stroke-width:0.7;stroke-linecap:round;" y1="-39.234" x1="44.25" y2="-39.234" x2="44.25"/>
  <line style="fill:none;stroke:#000000;stroke-width:0.7;stroke-linecap:round;" y1="-22.883" x1="44.55" y2="-22.883" x2="44.55"/>
  <line style="fill:none;stroke:#000000;stroke-width:0.7;stroke-linecap:round;" y1="-44.784" x1="25.8" y2="-44.784" x2="25.8"/>
  <line style="fill:none;stroke:#000000;stroke-width:1.35;stroke-linecap:round;" y1="-44.034" x1="14.55" y2="-44.034" x2="14.55"/>
  <line style="fill:none;stroke:#000000;stroke-width:1.35;stroke-linecap:round;" y1="-38.784" x1="21" y2="-38.784" x2="21"/>
  <line style="fill:none;stroke:#000000;stroke-width:1.35;stroke-linecap:round;" y1="-33.084" x1="42.75" y2="-33.084" x2="42.75"/>
  <line style="fill:none;stroke:#000000;stroke-width:1.35;stroke-linecap:round;" y1="-16.858" x1="26.625" y2="-16.858" x2="26.625"/>
  <line style="fill:none;stroke:#000000;stroke-width:1.35;stroke-linecap:round;" y1="-10.434" x1="20.55" y2="-10.434" x2="20.55"/>
  <line style="fill:none;stroke:#000000;stroke-width:1.35;stroke-linecap:round;" y1="-13.283" x1="34.95" y2="-13.283" x2="34.95"/>
  <line style="fill:none;stroke:#000000;stroke-width:1.35;stroke-linecap:round;" y1="-27.934" x1="8.3" y2="-27.934" x2="8.3"/>
  <line style="fill:none;stroke:#000000;stroke-width:1.35;stroke-linecap:round;" y1="-38.484" x1="5.7" y2="-38.484" x2="5.7"/>
  <line style="fill:none;stroke:#000000;stroke-width:1.35;stroke-linecap:round;" y1="-35.983" x1="14.05" y2="-35.983" x2="14.05"/>
  <line style="fill:none;stroke:#000000;stroke-width:1.35;stroke-linecap:round;" y1="-29.634" x1="22.5" y2="-29.634" x2="22.5"/>
  <line style="fill:none;stroke:#000000;stroke-width:1.35;stroke-linecap:round;" y1="-35.034" x1="32.25" y2="-35.034" x2="32.25"/>
  <line style="fill:none;stroke:#000000;stroke-width:1.35;stroke-linecap:round;" y1="-42.984" x1="37.95" y2="-42.984" x2="37.95"/>
  <line style="fill:none;stroke:#000000;stroke-width:1.35;stroke-linecap:round;" y1="-23.409" x1="31" y2="-23.409" x2="31"/>
  <line style="fill:none;stroke:#000000;stroke-width:1.35;stroke-linecap:round;" y1="-21.033" x1="44.417" y2="-21.033" x2="44.417"/>
  <line style="fill:none;stroke:#000000;stroke-width:1.35;stroke-linecap:round;" y1="-15.533" x1="8.825" y2="-15.533" x2="8.825"/>
  <line style="fill:none;stroke:#000000;stroke-width:1.35;stroke-linecap:round;" y1="-6.384" x1="10.05" y2="-6.384" x2="10.05"/>
  <line style="fill:none;stroke:#000000;stroke-width:1.35;stroke-linecap:round;" y1="-3.7" x1="28.167" y2="-3.7" x2="28.167"/>
  <line style="fill:none;stroke:#000000;stroke-width:1.35;stroke-linecap:round;" y1="-25.733" x1="37.35" y2="-25.733" x2="37.35"/>
  <line style="fill:none;stroke:#000000;stroke-width:1.35;stroke-linecap:round;" y1="-22.983" x1="17.775" y2="-22.983" x2="17.775"/>
  <line style="fill:none;stroke:#000000;stroke-width:1.35;stroke-linecap:round;" y1="-8.033" x1="44.417" y2="-8.033" x2="44.417"/>
 </g>
</svg>
