<?xml version="1.0"?>
<!-- Converted with SVG Converter - Version 0.9.5 (Compiled Fri Feb 21 09:53:38 2020) - Copyright (C) 2011 Nokia -->
<svg xmlns="http://www.w3.org/2000/svg" version="1.1" xmlns:xlink="http://www.w3.org/1999/xlink" xml:space="preserve" width="144" baseProfile="tiny" viewBox="1 -145 144 144" x="0px" y="0px" height="144">
 <g>
  <rect style="fill:none;" width="144" x="1" y="-145" height="144"/>
  <rect width="144" x="1" y="-145" height="144"/>
  <circle style="fill:#FFFFFF;" cy="-143" cx="12.959" r="0.499"/>
  <circle style="fill:#FFFFFF;" cy="-141.79" cx="18.333" r="0.499"/>
  <circle style="fill:#FFFFFF;" cy="-143.707" cx="26.667" r="0.499"/>
  <circle style="fill:#FFFFFF;" cy="-137.04" cx="16" r="0.499"/>
  <circle style="fill:#FFFFFF;" cy="-139.04" cx="10" r="0.499"/>
  <circle style="fill:#FFFFFF;" cy="-137.04" cx="2.333" r="0.499"/>
  <circle style="fill:#FFFFFF;" cy="-133.374" cx="8.333" r="0.499"/>
  <circle style="fill:#FFFFFF;" cy="-131.04" cx="13.667" r="0.499"/>
  <circle style="fill:#FFFFFF;" cy="-128.707" cx="20" r="0.499"/>
  <circle style="fill:#FFFFFF;" cy="-136.374" cx="23" r="0.499"/>
  <circle style="fill:#FFFFFF;" cy="-136.04" cx="29" r="0.499"/>
  <circle style="fill:#FFFFFF;" cy="-141.04" cx="33.333" r="0.499"/>
  <circle style="fill:#FFFFFF;" cy="-142.707" cx="39.667" r="0.499"/>
  <circle style="fill:#FFFFFF;" cy="-140.374" cx="43.667" r="0.499"/>
  <circle style="fill:#FFFFFF;" cy="-139.957" cx="50.5" r="0.499"/>
  <circle style="fill:#FFFFFF;" cy="-143.707" cx="54" r="0.499"/>
  <circle style="fill:#FFFFFF;" cy="-139.04" cx="57.667" r="0.499"/>
  <circle style="fill:#FFFFFF;" cy="-134.707" cx="53.667" r="0.499"/>
  <circle style="fill:#FFFFFF;" cy="-128.707" cx="50" r="0.499"/>
  <circle style="fill:#FFFFFF;" cy="-122.707" cx="46.333" r="0.499"/>
  <circle style="fill:#FFFFFF;" cy="-126.471" cx="43.601" r="0.499"/>
  <circle style="fill:#FFFFFF;" cy="-134.707" cx="46.75" r="0.499"/>
  <circle style="fill:#FFFFFF;" cy="-117.207" cx="45" r="0.499"/>
  <circle style="fill:#FFFFFF;" cy="-132.04" cx="40.667" r="0.499"/>
  <circle style="fill:#FFFFFF;" cy="-126.707" cx="37" r="0.499"/>
  <circle style="fill:#FFFFFF;" cy="-127.04" cx="31.667" r="0.499"/>
  <circle style="fill:#FFFFFF;" cy="-123.04" cx="30" r="0.499"/>
  <circle style="fill:#FFFFFF;" cy="-124.707" cx="24.333" r="0.499"/>
  <circle style="fill:#FFFFFF;" cy="-118.374" cx="24" r="0.499"/>
  <circle style="fill:#FFFFFF;" cy="-111.04" cx="22" r="0.499"/>
  <circle style="fill:#FFFFFF;" cy="-104.707" cx="20.333" r="0.499"/>
  <circle style="fill:#FFFFFF;" cy="-100.04" cx="20.667" r="0.499"/>
  <circle style="fill:#FFFFFF;" cy="-98.707" cx="14.333" r="0.499"/>
  <circle style="fill:#FFFFFF;" cy="-104.707" cx="15" r="0.499"/>
  <circle style="fill:#FFFFFF;" cy="-110.374" cx="16" r="0.499"/>
  <circle style="fill:#FFFFFF;" cy="-117.374" cx="16.667" r="0.499"/>
  <circle style="fill:#FFFFFF;" cy="-122.707" cx="18" r="0.499"/>
  <circle style="fill:#FFFFFF;" cy="-123.707" cx="11.667" r="0.499"/>
  <circle style="fill:#FFFFFF;" cy="-127.707" cx="6.333" r="0.499"/>
  <circle style="fill:#FFFFFF;" cy="-130.04" cx="2.667" r="0.499"/>
  <circle style="fill:#FFFFFF;" cy="-120.374" cx="3.667" r="0.499"/>
  <circle style="fill:#FFFFFF;" cy="-116.707" cx="9.667" r="0.499"/>
  <circle style="fill:#FFFFFF;" cy="-110.707" cx="7.667" r="0.499"/>
  <circle style="fill:#FFFFFF;" cy="-108.707" cx="4" r="0.499"/>
  <circle style="fill:#FFFFFF;" cy="-114.707" cx="3.333" r="0.499"/>
  <circle style="fill:#FFFFFF;" cy="-114.707" cx="27.667" r="0.499"/>
  <circle style="fill:#FFFFFF;" cy="-120.374" cx="35.667" r="0.499"/>
  <circle style="fill:#FFFFFF;" cy="-120.374" cx="40" r="0.499"/>
  <circle style="fill:#FFFFFF;" cy="-112.707" cx="39" r="0.499"/>
  <circle style="fill:#FFFFFF;" cy="-114.207" cx="34.75" r="0.499"/>
  <circle style="fill:#FFFFFF;" cy="-108.374" cx="38.667" r="0.499"/>
  <circle style="fill:#FFFFFF;" cy="-106.707" cx="32" r="0.499"/>
  <circle style="fill:#FFFFFF;" cy="-109.04" cx="27.333" r="0.499"/>
  <circle style="fill:#FFFFFF;" cy="-130.707" cx="27" r="0.499"/>
  <circle style="fill:#FFFFFF;" cy="-132.04" cx="34.333" r="0.499"/>
  <circle style="fill:#FFFFFF;" cy="-136.374" cx="37" r="0.499"/>
  <circle style="fill:#FFFFFF;" cy="-142.374" cx="63" r="0.499"/>
  <circle style="fill:#FFFFFF;" cy="-143.374" cx="68.666" r="0.499"/>
  <circle style="fill:#FFFFFF;" cy="-138.707" cx="70" r="0.499"/>
  <circle style="fill:#FFFFFF;" cy="-143.082" cx="75" r="0.499"/>
  <circle style="fill:#FFFFFF;" cy="-143.374" cx="81.666" r="0.499"/>
  <circle style="fill:#FFFFFF;" cy="-134.707" cx="65.25" r="0.499"/>
  <circle style="fill:#FFFFFF;" cy="-134.707" cx="59" r="0.499"/>
  <circle style="fill:#FFFFFF;" cy="-123.707" cx="56.667" r="0.499"/>
  <circle style="fill:#FFFFFF;" cy="-129.457" cx="60.333" r="0.499"/>
  <circle style="fill:#FFFFFF;" cy="-130.707" cx="56" r="0.499"/>
  <circle style="fill:#FFFFFF;" cy="-132.04" cx="69.333" r="0.499"/>
  <circle style="fill:#FFFFFF;" cy="-135.707" cx="75.333" r="0.499"/>
  <circle style="fill:#FFFFFF;" cy="-139.04" cx="82" r="0.499"/>
  <circle style="fill:#FFFFFF;" cy="-141.374" cx="87.666" r="0.499"/>
  <circle style="fill:#FFFFFF;" cy="-143.374" cx="94" r="0.499"/>
  <circle style="fill:#FFFFFF;" cy="-143.04" cx="101.666" r="0.499"/>
  <circle style="fill:#FFFFFF;" cy="-136.457" cx="93.333" r="0.499"/>
  <circle style="fill:#FFFFFF;" cy="-135.25" cx="87.043" r="0.499"/>
  <circle style="fill:#FFFFFF;" cy="-130.124" cx="82.667" r="0.499"/>
  <circle style="fill:#FFFFFF;" cy="-131.707" cx="77.666" r="0.499"/>
  <circle style="fill:#FFFFFF;" cy="-126.707" cx="76.5" r="0.499"/>
  <circle style="fill:#FFFFFF;" cy="-122.457" cx="70" r="0.499"/>
  <circle style="fill:#FFFFFF;" cy="-120.707" cx="63.667" r="0.499"/>
  <circle style="fill:#FFFFFF;" cy="-118.04" cx="57.667" r="0.499"/>
  <circle style="fill:#FFFFFF;" cy="-116.454" cx="68" r="0.499"/>
  <circle style="fill:#FFFFFF;" cy="-115.374" cx="60.333" r="0.499"/>
  <circle style="fill:#FFFFFF;" cy="-110.707" cx="56.333" r="0.499"/>
  <circle style="fill:#FFFFFF;" cy="-115.04" cx="51.333" r="0.499"/>
  <circle style="fill:#FFFFFF;" cy="-108.04" cx="51" r="0.499"/>
  <circle style="fill:#FFFFFF;" cy="-110.207" cx="47" r="0.499"/>
  <circle style="fill:#FFFFFF;" cy="-103.374" cx="50.333" r="0.499"/>
  <circle style="fill:#FFFFFF;" cy="-104.707" cx="56" r="0.499"/>
  <circle style="fill:#FFFFFF;" cy="-107.414" cx="62.707" r="0.499"/>
  <circle style="fill:#FFFFFF;" cy="-109.04" cx="67" r="0.499"/>
  <circle style="fill:#FFFFFF;" cy="-112.374" cx="65.333" r="0.499"/>
  <circle style="fill:#FFFFFF;" cy="-110.04" cx="72.333" r="0.499"/>
  <circle style="fill:#FFFFFF;" cy="-115.04" cx="73.333" r="0.499"/>
  <circle style="fill:#FFFFFF;" cy="-119.707" cx="76.333" r="0.499"/>
  <circle style="fill:#FFFFFF;" cy="-123.374" cx="81.666" r="0.499"/>
  <circle style="fill:#FFFFFF;" cy="-126.04" cx="87" r="0.499"/>
  <circle style="fill:#FFFFFF;" cy="-130.747" cx="89.626" r="0.499"/>
  <circle style="fill:#FFFFFF;" cy="-132.624" cx="97.166" r="0.499"/>
  <circle style="fill:#FFFFFF;" cy="-138.624" cx="99.166" r="0.499"/>
  <circle style="fill:#FFFFFF;" cy="-142.04" cx="107.333" r="0.499"/>
  <circle style="fill:#FFFFFF;" cy="-143.707" cx="114" r="0.499"/>
  <circle style="fill:#FFFFFF;" cy="-143.707" cx="125.333" r="0.499"/>
  <circle style="fill:#FFFFFF;" cy="-141.04" cx="119" r="0.499"/>
  <circle style="fill:#FFFFFF;" cy="-135.124" cx="116" r="0.499"/>
  <circle style="fill:#FFFFFF;" cy="-134.457" cx="109.25" r="0.499"/>
  <circle style="fill:#FFFFFF;" cy="-124.457" cx="129.333" r="0.499"/>
  <circle style="fill:#FFFFFF;" cy="-131.624" cx="102.666" r="0.499"/>
  <circle style="fill:#FFFFFF;" cy="-127.124" cx="65.333" r="0.499"/>
  <circle style="fill:#FFFFFF;" cy="-128.04" cx="71.333" r="0.499"/>
  <circle style="fill:#FFFFFF;" cy="-137.374" cx="105.666" r="0.499"/>
  <circle style="fill:#FFFFFF;" cy="-125.414" cx="92.374" r="0.499"/>
  <circle style="fill:#FFFFFF;" cy="-120.54" cx="87.666" r="0.499"/>
  <circle style="fill:#FFFFFF;" cy="-116.707" cx="82.333" r="0.499"/>
  <circle style="fill:#FFFFFF;" cy="-111.04" cx="78.333" r="0.499"/>
  <circle style="fill:#FFFFFF;" cy="-107.79" cx="84.667" r="0.499"/>
  <circle style="fill:#FFFFFF;" cy="-113.04" cx="87" r="0.499"/>
  <circle style="fill:#FFFFFF;" cy="-121.124" cx="98" r="0.499"/>
  <circle style="fill:#FFFFFF;" cy="-126.121" cx="101.666" r="0.499"/>
  <circle style="fill:#FFFFFF;" cy="-128.707" cx="97.333" r="0.499"/>
  <circle style="fill:#FFFFFF;" cy="-128.789" cx="107.666" r="0.499"/>
  <circle style="fill:#FFFFFF;" cy="-129.79" cx="114" r="0.499"/>
  <circle style="fill:#FFFFFF;" cy="-133.04" cx="120" r="0.499"/>
  <circle style="fill:#FFFFFF;" cy="-138.04" cx="123.666" r="0.499"/>
  <circle style="fill:#FFFFFF;" cy="-136.707" cx="131.667" r="0.499"/>
  <circle style="fill:#FFFFFF;" cy="-139.374" cx="128.667" r="0.499"/>
  <circle style="fill:#FFFFFF;" cy="-133.374" cx="126" r="0.499"/>
  <circle style="fill:#FFFFFF;" cy="-128.707" cx="120.333" r="0.499"/>
  <circle style="fill:#FFFFFF;" cy="-122.707" cx="114" r="0.499"/>
  <circle style="fill:#FFFFFF;" cy="-123.04" cx="107.666" r="0.499"/>
  <circle style="fill:#FFFFFF;" cy="-116.707" cx="95.666" r="0.499"/>
  <circle style="fill:#FFFFFF;" cy="-110.04" cx="95.333" r="0.499"/>
  <circle style="fill:#FFFFFF;" cy="-111.207" cx="90.5" r="0.499"/>
  <circle style="fill:#FFFFFF;" cy="-103.707" cx="90.75" r="0.499"/>
  <circle style="fill:#FFFFFF;" cy="-131.374" cx="131.333" r="0.499"/>
  <circle style="fill:#FFFFFF;" cy="-127.414" cx="125.626" r="0.499"/>
  <circle style="fill:#FFFFFF;" cy="-122.124" cx="121" r="0.499"/>
  <circle style="fill:#FFFFFF;" cy="-117.707" cx="115.333" r="0.499"/>
  <circle style="fill:#FFFFFF;" cy="-117.374" cx="110" r="0.499"/>
  <circle style="fill:#FFFFFF;" cy="-113.04" cx="106" r="0.499"/>
  <circle style="fill:#FFFFFF;" cy="-107.707" cx="100.666" r="0.499"/>
  <circle style="fill:#FFFFFF;" cy="-106.707" cx="106.333" r="0.499"/>
  <circle style="fill:#FFFFFF;" cy="-111.04" cx="110.666" r="0.499"/>
  <circle style="fill:#FFFFFF;" cy="-111.374" cx="116" r="0.499"/>
  <circle style="fill:#FFFFFF;" cy="-119.124" cx="125" r="0.499"/>
  <circle style="fill:#FFFFFF;" cy="-125.457" cx="136.667" r="0.499"/>
  <circle style="fill:#FFFFFF;" cy="-121.04" cx="133" r="0.499"/>
  <circle style="fill:#FFFFFF;" cy="-125.374" cx="144" r="0.499"/>
  <circle style="fill:#FFFFFF;" cy="-121.04" cx="138" r="0.499"/>
  <circle style="fill:#FFFFFF;" cy="-116.707" cx="134" r="0.499"/>
  <circle style="fill:#FFFFFF;" cy="-114.707" cx="140" r="0.499"/>
  <circle style="fill:#FFFFFF;" cy="-119.04" cx="143" r="0.499"/>
  <circle style="fill:#FFFFFF;" cy="-114.707" cx="127.666" r="0.499"/>
  <circle style="fill:#FFFFFF;" cy="-112.957" cx="122.25" r="0.499"/>
  <circle style="fill:#FFFFFF;" cy="-108.707" cx="123.5" r="0.499"/>
  <circle style="fill:#FFFFFF;" cy="-107.207" cx="118" r="0.499"/>
  <circle style="fill:#FFFFFF;" cy="-110.04" cx="129.667" r="0.499"/>
  <circle style="fill:#FFFFFF;" cy="-109.04" cx="136" r="0.499"/>
  <circle style="fill:#FFFFFF;" cy="-109.04" cx="142.333" r="0.499"/>
  <circle style="fill:#FFFFFF;" cy="-105.374" cx="138" r="0.499"/>
  <circle style="fill:#FFFFFF;" cy="-105.04" cx="132" r="0.499"/>
  <circle style="fill:#FFFFFF;" cy="-102.707" cx="126" r="0.499"/>
  <circle style="fill:#FFFFFF;" cy="-102.707" cx="119.333" r="0.499"/>
  <circle style="fill:#FFFFFF;" cy="-98.707" cx="121.666" r="0.499"/>
  <circle style="fill:#FFFFFF;" cy="-95.707" cx="135" r="0.499"/>
  <circle style="fill:#FFFFFF;" cy="-117.454" cx="104" r="0.499"/>
  <circle style="fill:#FFFFFF;" cy="-138.707" cx="110.666" r="0.499"/>
  <circle style="fill:#FFFFFF;" cy="-95.707" cx="116.5" r="0.499"/>
  <circle style="fill:#FFFFFF;" cy="-104.707" cx="112.5" r="0.499"/>
  <circle style="fill:#FFFFFF;" cy="-99.957" cx="106.5" r="0.499"/>
  <circle style="fill:#FFFFFF;" cy="-97.04" cx="110.333" r="0.499"/>
  <circle style="fill:#FFFFFF;" cy="-100.707" cx="115" r="0.499"/>
  <circle style="fill:#FFFFFF;" cy="-101.374" cx="101.666" r="0.499"/>
  <circle style="fill:#FFFFFF;" cy="-103.04" cx="95.333" r="0.499"/>
  <circle style="fill:#FFFFFF;" cy="-99.04" cx="89.666" r="0.499"/>
  <circle style="fill:#FFFFFF;" cy="-102.082" cx="83.626" r="0.499"/>
  <circle style="fill:#FFFFFF;" cy="-97.707" cx="81.25" r="0.499"/>
  <circle style="fill:#FFFFFF;" cy="-93.707" cx="84.666" r="0.499"/>
  <circle style="fill:#FFFFFF;" cy="-91.207" cx="75.334" r="0.499"/>
  <circle style="fill:#FFFFFF;" cy="-83.874" cx="63.333" r="0.499"/>
  <circle style="fill:#FFFFFF;" cy="-77.957" cx="55" r="0.499"/>
  <circle style="fill:#FFFFFF;" cy="-77.624" cx="38.667" r="0.499"/>
  <circle style="fill:#FFFFFF;" cy="-85.789" cx="46.667" r="0.499"/>
  <circle style="fill:#FFFFFF;" cy="-86.54" cx="29.333" r="0.499"/>
  <circle style="fill:#FFFFFF;" cy="-93.874" cx="24.333" r="0.499"/>
  <circle style="fill:#FFFFFF;" cy="-72.624" cx="48.167" r="0.499"/>
  <circle style="fill:#FFFFFF;" cy="-65.707" cx="44" r="0.499"/>
  <circle style="fill:#FFFFFF;" cy="-61.457" cx="49.25" r="0.499"/>
  <circle style="fill:#FFFFFF;" cy="-64.79" cx="39" r="0.499"/>
  <circle style="fill:#FFFFFF;" cy="-34.707" cx="27.667" r="0.499"/>
  <circle style="fill:#FFFFFF;" cy="-60.121" cx="37.333" r="0.499"/>
  <circle style="fill:#FFFFFF;" cy="-67.207" cx="28" r="0.499"/>
  <circle style="fill:#FFFFFF;" cy="-71.207" cx="20.5" r="0.499"/>
  <circle style="fill:#FFFFFF;" cy="-79.707" cx="21.5" r="0.499"/>
  <circle style="fill:#FFFFFF;" cy="-76.207" cx="10.75" r="0.499"/>
  <circle style="fill:#FFFFFF;" cy="-79.207" cx="4.25" r="0.499"/>
  <circle style="fill:#FFFFFF;" cy="-81.707" cx="11.75" r="0.499"/>
  <circle style="fill:#FFFFFF;" cy="-78.457" cx="16" r="0.499"/>
  <circle style="fill:#FFFFFF;" cy="-73.664" cx="26.707" r="0.499"/>
  <circle style="fill:#FFFFFF;" cy="-74.957" cx="31.75" r="0.499"/>
  <circle style="fill:#FFFFFF;" cy="-79.457" cx="27.75" r="0.499"/>
  <circle style="fill:#FFFFFF;" cy="-79.707" cx="34" r="0.499"/>
  <circle style="fill:#FFFFFF;" cy="-71.707" cx="35" r="0.499"/>
  <circle style="fill:#FFFFFF;" cy="-72.124" cx="41.333" r="0.499"/>
  <circle style="fill:#FFFFFF;" cy="-65.207" cx="50.25" r="0.499"/>
  <circle style="fill:#FFFFFF;" cy="-73.871" cx="59" r="0.499"/>
  <circle style="fill:#FFFFFF;" cy="-68.957" cx="64.75" r="0.499"/>
  <circle style="fill:#FFFFFF;" cy="-64.957" cx="62.75" r="0.499"/>
  <circle style="fill:#FFFFFF;" cy="-63.457" cx="67.75" r="0.499"/>
  <circle style="fill:#FFFFFF;" cy="-59.207" cx="68.5" r="0.499"/>
  <circle style="fill:#FFFFFF;" cy="-52.957" cx="66.25" r="0.499"/>
  <circle style="fill:#FFFFFF;" cy="-47.707" cx="65.5" r="0.499"/>
  <circle style="fill:#FFFFFF;" cy="-40.457" cx="68.75" r="0.499"/>
  <circle style="fill:#FFFFFF;" cy="-46.371" cx="73" r="0.499"/>
  <circle style="fill:#FFFFFF;" cy="-40.707" cx="77.25" r="0.499"/>
  <circle style="fill:#FFFFFF;" cy="-35.707" cx="73.25" r="0.499"/>
  <circle style="fill:#FFFFFF;" cy="-35.207" cx="86" r="0.499"/>
  <circle style="fill:#FFFFFF;" cy="-35.457" cx="79.75" r="0.499"/>
  <circle style="fill:#FFFFFF;" cy="-28.957" cx="75.75" r="0.499"/>
  <circle style="fill:#FFFFFF;" cy="-30.957" cx="68" r="0.499"/>
  <circle style="fill:#FFFFFF;" cy="-36.707" cx="65.75" r="0.499"/>
  <circle style="fill:#FFFFFF;" cy="-41.207" cx="62.75" r="0.499"/>
  <circle style="fill:#FFFFFF;" cy="-46.957" cx="60.5" r="0.499"/>
  <circle style="fill:#FFFFFF;" cy="-52.375" cx="59" r="0.499"/>
  <circle style="fill:#FFFFFF;" cy="-57.457" cx="62.25" r="0.499"/>
  <circle style="fill:#FFFFFF;" cy="-62.375" cx="55.333" r="0.499"/>
  <circle style="fill:#FFFFFF;" cy="-68.79" cx="57" r="0.499"/>
  <circle style="fill:#FFFFFF;" cy="-58.207" cx="56.5" r="0.499"/>
  <circle style="fill:#FFFFFF;" cy="-55.207" cx="51.75" r="0.499"/>
  <circle style="fill:#FFFFFF;" cy="-49.207" cx="53.75" r="0.499"/>
  <circle style="fill:#FFFFFF;" cy="-43.04" cx="54" r="0.499"/>
  <circle style="fill:#FFFFFF;" cy="-37.375" cx="56.667" r="0.499"/>
  <circle style="fill:#FFFFFF;" cy="-33.707" cx="59" r="0.499"/>
  <circle style="fill:#FFFFFF;" cy="-29.957" cx="61.25" r="0.499"/>
  <circle style="fill:#FFFFFF;" cy="-25.457" cx="58.5" r="0.499"/>
  <circle style="fill:#FFFFFF;" cy="-25.707" cx="51" r="0.499"/>
  <circle style="fill:#FFFFFF;" cy="-30.957" cx="46" r="0.499"/>
  <circle style="fill:#FFFFFF;" cy="-26.957" cx="42" r="0.499"/>
  <circle style="fill:#FFFFFF;" cy="-113.374" cx="99.666" r="0.499"/>
  <circle style="fill:#FFFFFF;" cy="-17.957" cx="35.5" r="0.499"/>
  <circle style="fill:#FFFFFF;" cy="-19.207" cx="41.75" r="0.499"/>
  <circle style="fill:#FFFFFF;" cy="-14.707" cx="43.667" r="0.499"/>
  <circle style="fill:#FFFFFF;" cy="-20.957" cx="47.5" r="0.499"/>
  <circle style="fill:#FFFFFF;" cy="-13.123" cx="38" r="0.499"/>
  <circle style="fill:#FFFFFF;" cy="-5.207" cx="33.5" r="0.499"/>
  <circle style="fill:#FFFFFF;" cy="-10.123" cx="30.667" r="0.499"/>
  <circle style="fill:#FFFFFF;" cy="-5.207" cx="24" r="0.499"/>
  <circle style="fill:#FFFFFF;" cy="-9.664" cx="21.043" r="0.499"/>
  <circle style="fill:#FFFFFF;" cy="-12.957" cx="26" r="0.499"/>
  <circle style="fill:#FFFFFF;" cy="-18.707" cx="28" r="0.499"/>
  <circle style="fill:#FFFFFF;" cy="-15.373" cx="30" r="0.499"/>
  <circle style="fill:#FFFFFF;" cy="-7.373" cx="36.667" r="0.499"/>
  <circle style="fill:#FFFFFF;" cy="-3.041" cx="40" r="0.499"/>
  <circle style="fill:#FFFFFF;" cy="-2.207" cx="18.5" r="0.499"/>
  <circle style="fill:#FFFFFF;" cy="-2.84" cx="29" r="0.499"/>
  <circle style="fill:#FFFFFF;" cy="-23.207" cx="20" r="0.499"/>
  <circle style="fill:#FFFFFF;" cy="-18.957" cx="23" r="0.499"/>
  <circle style="fill:#FFFFFF;" cy="-18.957" cx="15.75" r="0.499"/>
  <circle style="fill:#FFFFFF;" cy="-20.707" cx="10.5" r="0.499"/>
  <circle style="fill:#FFFFFF;" cy="-17.457" cx="5.5" r="0.499"/>
  <circle style="fill:#FFFFFF;" cy="-13.207" cx="9.75" r="0.499"/>
  <circle style="fill:#FFFFFF;" cy="-13.207" cx="17.25" r="0.499"/>
  <circle style="fill:#FFFFFF;" cy="-7.207" cx="15.5" r="0.499"/>
  <circle style="fill:#FFFFFF;" cy="-6.957" cx="10" r="0.499"/>
  <circle style="fill:#FFFFFF;" cy="-9.457" cx="5.5" r="0.499"/>
  <circle style="fill:#FFFFFF;" cy="-5.207" cx="2" r="0.499"/>
  <circle style="fill:#FFFFFF;" cy="-2.59" cx="8.27" r="0.499"/>
  <circle style="fill:#FFFFFF;" cy="-96.207" cx="31" r="0.499"/>
  <circle style="fill:#FFFFFF;" cy="-25.124" cx="27.667" r="0.499"/>
  <circle style="fill:#FFFFFF;" cy="-28.707" cx="23.333" r="0.499"/>
  <circle style="fill:#FFFFFF;" cy="-44.707" cx="20" r="0.499"/>
  <circle style="fill:#FFFFFF;" cy="-52.375" cx="20" r="0.499"/>
  <circle style="fill:#FFFFFF;" cy="-30.375" cx="29.333" r="0.499"/>
  <circle style="fill:#FFFFFF;" cy="-24.457" cx="34" r="0.499"/>
  <circle style="fill:#FFFFFF;" cy="-38.375" cx="32.333" r="0.499"/>
  <circle style="fill:#FFFFFF;" cy="-24.041" cx="43.333" r="0.499"/>
  <circle style="fill:#FFFFFF;" cy="-34.375" cx="38.333" r="0.499"/>
  <circle style="fill:#FFFFFF;" cy="-36.957" cx="43.75" r="0.499"/>
  <circle style="fill:#FFFFFF;" cy="-43.457" cx="43" r="0.499"/>
  <circle style="fill:#FFFFFF;" cy="-44.625" cx="32.167" r="0.499"/>
  <circle style="fill:#FFFFFF;" cy="-39.207" cx="37.75" r="0.499"/>
  <circle style="fill:#FFFFFF;" cy="-30.375" cx="35.667" r="0.499"/>
  <circle style="fill:#FFFFFF;" cy="-51.125" cx="31.167" r="0.499"/>
  <circle style="fill:#FFFFFF;" cy="-46.457" cx="37" r="0.499"/>
  <circle style="fill:#FFFFFF;" cy="-51.457" cx="42.333" r="0.499"/>
  <circle style="fill:#FFFFFF;" cy="-46.371" cx="47.75" r="0.499"/>
  <circle style="fill:#FFFFFF;" cy="-51.207" cx="47.75" r="0.499"/>
  <circle style="fill:#FFFFFF;" cy="-58.371" cx="43.5" r="0.499"/>
  <circle style="fill:#FFFFFF;" cy="-55.207" cx="37" r="0.499"/>
  <circle style="fill:#FFFFFF;" cy="-57.207" cx="31.5" r="0.499"/>
  <circle style="fill:#FFFFFF;" cy="-61.664" cx="26.5" r="0.499"/>
  <circle style="fill:#FFFFFF;" cy="-64.957" cx="22" r="0.499"/>
  <circle style="fill:#FFFFFF;" cy="-65.207" cx="14.5" r="0.499"/>
  <circle style="fill:#FFFFFF;" cy="-69.707" cx="15" r="0.499"/>
  <circle style="fill:#FFFFFF;" cy="-69.207" cx="10.25" r="0.499"/>
  <circle style="fill:#FFFFFF;" cy="-71.457" cx="4" r="0.499"/>
  <circle style="fill:#FFFFFF;" cy="-65.207" cx="6" r="0.499"/>
  <circle style="fill:#FFFFFF;" cy="-60.957" cx="8" r="0.499"/>
  <circle style="fill:#FFFFFF;" cy="-54.957" cx="11.5" r="0.499"/>
  <circle style="fill:#FFFFFF;" cy="-50.957" cx="15.25" r="0.499"/>
  <circle style="fill:#FFFFFF;" cy="-45.207" cx="25.75" r="0.499"/>
  <circle style="fill:#FFFFFF;" cy="-39.207" cx="26" r="0.499"/>
  <circle style="fill:#FFFFFF;" cy="-40" cx="20.543" r="0.499"/>
  <circle style="fill:#FFFFFF;" cy="-42.957" cx="15.75" r="0.499"/>
  <circle style="fill:#FFFFFF;" cy="-46.957" cx="12" r="0.499"/>
  <circle style="fill:#FFFFFF;" cy="-50.957" cx="7.75" r="0.499"/>
  <circle style="fill:#FFFFFF;" cy="-54.957" cx="4" r="0.499"/>
  <circle style="fill:#FFFFFF;" cy="-59.207" cx="15.75" r="0.499"/>
  <circle style="fill:#FFFFFF;" cy="-59.04" cx="21" r="0.499"/>
  <circle style="fill:#FFFFFF;" cy="-49.707" cx="25.333" r="0.499"/>
  <circle style="fill:#FFFFFF;" cy="-55.375" cx="25.667" r="0.499"/>
  <circle style="fill:#FFFFFF;" cy="-33.25" cx="15.793" r="0.499"/>
  <circle style="fill:#FFFFFF;" cy="-30.707" cx="10" r="0.499"/>
  <circle style="fill:#FFFFFF;" cy="-24.707" cx="6" r="0.499"/>
  <circle style="fill:#FFFFFF;" cy="-27.207" cx="2.317" r="0.499"/>
  <circle style="fill:#FFFFFF;" cy="-27.664" cx="13.043" r="0.499"/>
  <circle style="fill:#FFFFFF;" cy="-28.457" cx="19" r="0.499"/>
  <circle style="fill:#FFFFFF;" cy="-33.207" cx="22.25" r="0.499"/>
  <circle style="fill:#FFFFFF;" cy="-36.957" cx="11.75" r="0.499"/>
  <circle style="fill:#FFFFFF;" cy="-40.707" cx="7.5" r="0.499"/>
  <circle style="fill:#FFFFFF;" cy="-45.207" cx="3.5" r="0.499"/>
  <circle style="fill:#FFFFFF;" cy="-35.207" cx="5.5" r="0.499"/>
  <circle style="fill:#FFFFFF;" cy="-30.707" cx="53.5" r="0.499"/>
  <circle style="fill:#FFFFFF;" cy="-34.457" cx="51.5" r="0.499"/>
  <circle style="fill:#FFFFFF;" cy="-40.207" cx="48.25" r="0.499"/>
  <circle style="fill:#FFFFFF;" cy="-56.207" cx="79.25" r="0.499"/>
  <circle style="fill:#FFFFFF;" cy="-51.207" cx="81.75" r="0.499"/>
  <circle style="fill:#FFFFFF;" cy="-54.375" cx="87.333" r="0.499"/>
  <circle style="fill:#FFFFFF;" cy="-46.04" cx="86" r="0.499"/>
  <circle style="fill:#FFFFFF;" cy="-42.957" cx="92" r="0.499"/>
  <circle style="fill:#FFFFFF;" cy="-46.957" cx="97.75" r="0.499"/>
  <circle style="fill:#FFFFFF;" cy="-41.664" cx="99.293" r="0.499"/>
  <circle style="fill:#FFFFFF;" cy="-45.457" cx="104" r="0.499"/>
  <circle style="fill:#FFFFFF;" cy="-40.707" cx="110" r="0.499"/>
  <circle style="fill:#FFFFFF;" cy="-41.625" cx="116.666" r="0.499"/>
  <circle style="fill:#FFFFFF;" cy="-37.207" cx="119.75" r="0.499"/>
  <circle style="fill:#FFFFFF;" cy="-41.54" cx="126.333" r="0.499"/>
  <circle style="fill:#FFFFFF;" cy="-34.957" cx="132.25" r="0.499"/>
  <circle style="fill:#FFFFFF;" cy="-34.957" cx="139.75" r="0.499"/>
  <circle style="fill:#FFFFFF;" cy="-37.375" cx="143.667" r="0.499"/>
  <circle style="fill:#FFFFFF;" cy="-31.04" cx="143.333" r="0.499"/>
  <circle style="fill:#FFFFFF;" cy="-23.258" cx="143.683" r="0.499"/>
  <circle style="fill:#FFFFFF;" cy="-27.457" cx="138" r="0.499"/>
  <circle style="fill:#FFFFFF;" cy="-30.457" cx="132.25" r="0.499"/>
  <circle style="fill:#FFFFFF;" cy="-34.207" cx="124.666" r="0.499"/>
  <circle style="fill:#FFFFFF;" cy="-35.957" cx="113.75" r="0.499"/>
  <circle style="fill:#FFFFFF;" cy="-26.957" cx="125.75" r="0.499"/>
  <circle style="fill:#FFFFFF;" cy="-23.207" cx="132" r="0.499"/>
  <circle style="fill:#FFFFFF;" cy="-20.957" cx="138.5" r="0.499"/>
  <circle style="fill:#FFFFFF;" cy="-17.207" cx="144" r="0.499"/>
  <circle style="fill:#FFFFFF;" cy="-14.707" cx="137.75" r="0.499"/>
  <circle style="fill:#FFFFFF;" cy="-9.457" cx="143.25" r="0.499"/>
  <circle style="fill:#FFFFFF;" cy="-2.607" cx="109.028" r="0.499"/>
  <circle style="fill:#FFFFFF;" cy="-2.373" cx="136.667" r="0.499"/>
  <circle style="fill:#FFFFFF;" cy="-2.607" cx="122.631" r="0.499"/>
  <circle style="fill:#FFFFFF;" cy="-7.207" cx="140" r="0.499"/>
  <circle style="fill:#FFFFFF;" cy="-5.207" cx="127.75" r="0.499"/>
  <circle style="fill:#FFFFFF;" cy="-9.207" cx="131.75" r="0.499"/>
  <circle style="fill:#FFFFFF;" cy="-15.457" cx="132.25" r="0.499"/>
  <circle style="fill:#FFFFFF;" cy="-12.207" cx="126" r="0.499"/>
  <circle style="fill:#FFFFFF;" cy="-8.957" cx="122" r="0.499"/>
  <circle style="fill:#FFFFFF;" cy="-5.207" cx="117.5" r="0.499"/>
  <circle style="fill:#FFFFFF;" cy="-7.707" cx="112.25" r="0.499"/>
  <circle style="fill:#FFFFFF;" cy="-9.707" cx="105.5" r="0.499"/>
  <circle style="fill:#FFFFFF;" cy="-11.707" cx="99.75" r="0.499"/>
  <circle style="fill:#FFFFFF;" cy="-15.207" cx="91.75" r="0.499"/>
  <circle style="fill:#FFFFFF;" cy="-18.957" cx="97.5" r="0.499"/>
  <circle style="fill:#FFFFFF;" cy="-16.707" cx="104" r="0.499"/>
  <circle style="fill:#FFFFFF;" cy="-13.207" cx="109.5" r="0.499"/>
  <circle style="fill:#FFFFFF;" cy="-12.707" cx="115.75" r="0.499"/>
  <circle style="fill:#FFFFFF;" cy="-16.957" cx="120.5" r="0.499"/>
  <circle style="fill:#FFFFFF;" cy="-19.707" cx="125.5" r="0.499"/>
  <circle style="fill:#FFFFFF;" cy="-25.207" cx="120" r="0.499"/>
  <circle style="fill:#FFFFFF;" cy="-30.207" cx="116.25" r="0.499"/>
  <circle style="fill:#FFFFFF;" cy="-33.457" cx="109.25" r="0.499"/>
  <circle style="fill:#FFFFFF;" cy="-31.457" cx="104" r="0.499"/>
  <circle style="fill:#FFFFFF;" cy="-26.457" cx="98.25" r="0.499"/>
  <circle style="fill:#FFFFFF;" cy="-22.873" cx="92" r="0.499"/>
  <circle style="fill:#FFFFFF;" cy="-24.957" cx="85.5" r="0.499"/>
  <circle style="fill:#FFFFFF;" cy="-29.957" cx="85.25" r="0.499"/>
  <circle style="fill:#FFFFFF;" cy="-28.957" cx="91.75" r="0.499"/>
  <circle style="fill:#FFFFFF;" cy="-32.707" cx="97.75" r="0.499"/>
  <circle style="fill:#FFFFFF;" cy="-36.957" cx="94" r="0.499"/>
  <circle style="fill:#FFFFFF;" cy="-39.457" cx="88.25" r="0.499"/>
  <circle style="fill:#FFFFFF;" cy="-43.207" cx="81.75" r="0.499"/>
  <circle style="fill:#FFFFFF;" cy="-47.207" cx="77.75" r="0.499"/>
  <circle style="fill:#FFFFFF;" cy="-52.707" cx="73.75" r="0.499"/>
  <circle style="fill:#FFFFFF;" cy="-22.457" cx="104.25" r="0.499"/>
  <circle style="fill:#FFFFFF;" cy="-26.707" cx="107.75" r="0.499"/>
  <circle style="fill:#FFFFFF;" cy="-20.957" cx="109.5" r="0.499"/>
  <circle style="fill:#FFFFFF;" cy="-17.707" cx="114" r="0.499"/>
  <circle style="fill:#FFFFFF;" cy="-23.207" cx="114" r="0.499"/>
  <circle style="fill:#FFFFFF;" cy="-37.207" cx="103.75" r="0.499"/>
  <circle style="fill:#FFFFFF;" cy="-18.543" cx="87.25" r="0.499"/>
  <circle style="fill:#FFFFFF;" cy="-21" cx="82.543" r="0.499"/>
  <circle style="fill:#FFFFFF;" cy="-22.457" cx="74" r="0.499"/>
  <circle style="fill:#FFFFFF;" cy="-26.871" cx="71.5" r="0.499"/>
  <circle style="fill:#FFFFFF;" cy="-24.957" cx="64.75" r="0.499"/>
  <circle style="fill:#FFFFFF;" cy="-21.207" cx="59.75" r="0.499"/>
  <circle style="fill:#FFFFFF;" cy="-21.914" cx="54.043" r="0.499"/>
  <circle style="fill:#FFFFFF;" cy="-16.707" cx="48.75" r="0.499"/>
  <circle style="fill:#FFFFFF;" cy="-10.957" cx="46" r="0.499"/>
  <circle style="fill:#FFFFFF;" cy="-7.207" cx="41.5" r="0.499"/>
  <circle style="fill:#FFFFFF;" cy="-2.957" cx="48.25" r="0.499"/>
  <circle style="fill:#FFFFFF;" cy="-8.707" cx="52" r="0.499"/>
  <circle style="fill:#FFFFFF;" cy="-12.457" cx="57.75" r="0.499"/>
  <circle style="fill:#FFFFFF;" cy="-13.707" cx="52.667" r="0.499"/>
  <circle style="fill:#FFFFFF;" cy="-16.457" cx="63" r="0.499"/>
  <circle style="fill:#FFFFFF;" cy="-18.957" cx="66.5" r="0.499"/>
  <circle style="fill:#FFFFFF;" cy="-16.957" cx="78" r="0.499"/>
  <circle style="fill:#FFFFFF;" cy="-12.207" cx="89" r="0.499"/>
  <circle style="fill:#FFFFFF;" cy="-7.207" cx="95" r="0.499"/>
  <circle style="fill:#FFFFFF;" cy="-4.707" cx="101.365" r="0.499"/>
  <circle style="fill:#FFFFFF;" cy="-3.707" cx="91.5" r="0.499"/>
  <circle style="fill:#FFFFFF;" cy="-7.207" cx="85.75" r="0.499"/>
  <circle style="fill:#FFFFFF;" cy="-11.457" cx="81.25" r="0.499"/>
  <circle style="fill:#FFFFFF;" cy="-13.207" cx="75.25" r="0.499"/>
  <circle style="fill:#FFFFFF;" cy="-15.457" cx="70.25" r="0.499"/>
  <circle style="fill:#FFFFFF;" cy="-9.957" cx="66.5" r="0.499"/>
  <circle style="fill:#FFFFFF;" cy="-7.457" cx="60.25" r="0.499"/>
  <circle style="fill:#FFFFFF;" cy="-3.273" cx="56.587" r="0.499"/>
  <circle style="fill:#FFFFFF;" cy="-3.707" cx="62" r="0.499"/>
  <circle style="fill:#FFFFFF;" cy="-4.707" cx="69.5" r="0.499"/>
  <circle style="fill:#FFFFFF;" cy="-7.207" cx="77.5" r="0.499"/>
  <circle style="fill:#FFFFFF;" cy="-73.207" cx="70" r="0.499"/>
  <circle style="fill:#FFFFFF;" cy="-83.707" cx="81.25" r="0.499"/>
  <circle style="fill:#FFFFFF;" cy="-84.874" cx="74.666" r="0.499"/>
  <circle style="fill:#FFFFFF;" cy="-79.707" cx="85.25" r="0.499"/>
  <circle style="fill:#FFFFFF;" cy="-84.957" cx="90" r="0.499"/>
  <circle style="fill:#FFFFFF;" cy="-90.957" cx="93.75" r="0.499"/>
  <circle style="fill:#FFFFFF;" cy="-86.957" cx="101.75" r="0.499"/>
  <circle style="fill:#FFFFFF;" cy="-96.707" cx="97.75" r="0.499"/>
  <circle style="fill:#FFFFFF;" cy="-93.957" cx="101.25" r="0.499"/>
  <circle style="fill:#FFFFFF;" cy="-92.957" cx="106.75" r="0.499"/>
  <circle style="fill:#FFFFFF;" cy="-92.75" cx="111.793" r="0.499"/>
  <circle style="fill:#FFFFFF;" cy="-87.457" cx="111.25" r="0.499"/>
  <circle style="fill:#FFFFFF;" cy="-91.207" cx="119.25" r="0.499"/>
  <circle style="fill:#FFFFFF;" cy="-92.957" cx="124" r="0.499"/>
  <circle style="fill:#FFFFFF;" cy="-97.457" cx="130" r="0.499"/>
  <circle style="fill:#FFFFFF;" cy="-100.333" cx="136.543" r="0.499"/>
  <circle style="fill:#FFFFFF;" cy="-103.374" cx="142.667" r="0.499"/>
  <circle style="fill:#FFFFFF;" cy="-93.207" cx="139.5" r="0.499"/>
  <circle style="fill:#FFFFFF;" cy="-89.374" cx="142.667" r="0.499"/>
  <circle style="fill:#FFFFFF;" cy="-86.457" cx="138.25" r="0.499"/>
  <circle style="fill:#FFFFFF;" cy="-84.04" cx="142.667" r="0.499"/>
  <circle style="fill:#FFFFFF;" cy="-90.957" cx="131.5" r="0.499"/>
  <circle style="fill:#FFFFFF;" cy="-88.957" cx="128" r="0.499"/>
  <circle style="fill:#FFFFFF;" cy="-83.707" cx="125.333" r="0.499"/>
  <circle style="fill:#FFFFFF;" cy="-86.707" cx="121.75" r="0.499"/>
  <circle style="fill:#FFFFFF;" cy="-82.957" cx="117.75" r="0.499"/>
  <circle style="fill:#FFFFFF;" cy="-80.207" cx="112" r="0.499"/>
  <circle style="fill:#FFFFFF;" cy="-84.207" cx="106.25" r="0.499"/>
  <circle style="fill:#FFFFFF;" cy="-86.207" cx="97" r="0.499"/>
  <circle style="fill:#FFFFFF;" cy="-81.707" cx="92.75" r="0.499"/>
  <circle style="fill:#FFFFFF;" cy="-75.207" cx="87.75" r="0.499"/>
  <circle style="fill:#FFFFFF;" cy="-71.207" cx="85" r="0.499"/>
  <circle style="fill:#FFFFFF;" cy="-65.457" cx="82" r="0.499"/>
  <circle style="fill:#FFFFFF;" cy="-60.457" cx="88" r="0.499"/>
  <circle style="fill:#FFFFFF;" cy="-62.707" cx="91.333" r="0.499"/>
  <circle style="fill:#FFFFFF;" cy="-65.207" cx="96" r="0.499"/>
  <circle style="fill:#FFFFFF;" cy="-67.707" cx="89.75" r="0.499"/>
  <circle style="fill:#FFFFFF;" cy="-72.957" cx="92" r="0.499"/>
  <circle style="fill:#FFFFFF;" cy="-78.207" cx="95.25" r="0.499"/>
  <circle style="fill:#FFFFFF;" cy="-73.207" cx="101.75" r="0.499"/>
  <circle style="fill:#FFFFFF;" cy="-68.957" cx="97.5" r="0.499"/>
  <circle style="fill:#FFFFFF;" cy="-66.664" cx="105.707" r="0.499"/>
  <circle style="fill:#FFFFFF;" cy="-61.457" cx="100.75" r="0.499"/>
  <circle style="fill:#FFFFFF;" cy="-61.207" cx="107.75" r="0.499"/>
  <circle style="fill:#FFFFFF;" cy="-57.664" cx="104.957" r="0.499"/>
  <circle style="fill:#FFFFFF;" cy="-54.957" cx="111.25" r="0.499"/>
  <circle style="fill:#FFFFFF;" cy="-53.457" cx="117.25" r="0.499"/>
  <circle style="fill:#FFFFFF;" cy="-56.957" cx="124" r="0.499"/>
  <circle style="fill:#FFFFFF;" cy="-54.957" cx="130.25" r="0.499"/>
  <circle style="fill:#FFFFFF;" cy="-50.957" cx="136.75" r="0.499"/>
  <circle style="fill:#FFFFFF;" cy="-51.207" cx="141.5" r="0.499"/>
  <circle style="fill:#FFFFFF;" cy="-46.707" cx="142.75" r="0.499"/>
  <circle style="fill:#FFFFFF;" cy="-41.207" cx="139.75" r="0.499"/>
  <circle style="fill:#FFFFFF;" cy="-43.707" cx="132.333" r="0.499"/>
  <circle style="fill:#FFFFFF;" cy="-45.457" cx="135.75" r="0.499"/>
  <circle style="fill:#FFFFFF;" cy="-47.207" cx="128" r="0.499"/>
  <circle style="fill:#FFFFFF;" cy="-50.707" cx="123.25" r="0.499"/>
  <circle style="fill:#FFFFFF;" cy="-45.207" cx="120.25" r="0.499"/>
  <circle style="fill:#FFFFFF;" cy="-47.457" cx="113.75" r="0.499"/>
  <circle style="fill:#FFFFFF;" cy="-47.707" cx="109.5" r="0.499"/>
  <circle style="fill:#FFFFFF;" cy="-50.957" cx="104" r="0.499"/>
  <circle style="fill:#FFFFFF;" cy="-55.207" cx="98" r="0.499"/>
  <circle style="fill:#FFFFFF;" cy="-52.457" cx="92.25" r="0.499"/>
  <circle style="fill:#FFFFFF;" cy="-57.707" cx="94.333" r="0.499"/>
  <circle style="fill:#FFFFFF;" cy="-59.707" cx="81.5" r="0.499"/>
  <circle style="fill:#FFFFFF;" cy="-67.207" cx="73.75" r="0.499"/>
  <circle style="fill:#FFFFFF;" cy="-61.207" cx="73.25" r="0.499"/>
  <circle style="fill:#FFFFFF;" cy="-54.375" cx="69.666" r="0.499"/>
  <circle style="fill:#FFFFFF;" cy="-71.707" cx="76.25" r="0.499"/>
  <circle style="fill:#FFFFFF;" cy="-75.707" cx="79.666" r="0.499"/>
  <circle style="fill:#FFFFFF;" cy="-81.207" cx="102" r="0.499"/>
  <circle style="fill:#FFFFFF;" cy="-78.457" cx="105" r="0.499"/>
  <circle style="fill:#FFFFFF;" cy="-69.707" cx="110" r="0.499"/>
  <circle style="fill:#FFFFFF;" cy="-73.707" cx="114.75" r="0.499"/>
  <circle style="fill:#FFFFFF;" cy="-76.957" cx="117.5" r="0.499"/>
  <circle style="fill:#FFFFFF;" cy="-79.207" cx="121.75" r="0.499"/>
  <circle style="fill:#FFFFFF;" cy="-79.707" cx="129.75" r="0.499"/>
  <circle style="fill:#FFFFFF;" cy="-83.457" cx="133.75" r="0.499"/>
  <circle style="fill:#FFFFFF;" cy="-80.039" cx="138.298" r="0.499"/>
  <circle style="fill:#FFFFFF;" cy="-75.207" cx="136" r="0.499"/>
  <circle style="fill:#FFFFFF;" cy="-73.457" cx="143" r="0.499"/>
  <circle style="fill:#FFFFFF;" cy="-67.707" cx="141.75" r="0.499"/>
  <circle style="fill:#FFFFFF;" cy="-56.04" cx="143.333" r="0.499"/>
  <circle style="fill:#FFFFFF;" cy="-71.457" cx="132" r="0.499"/>
  <circle style="fill:#FFFFFF;" cy="-75.707" cx="125" r="0.499"/>
  <circle style="fill:#FFFFFF;" cy="-71.207" cx="121.5" r="0.499"/>
  <circle style="fill:#FFFFFF;" cy="-67.207" cx="116.25" r="0.499"/>
  <circle style="fill:#FFFFFF;" cy="-63.207" cx="111" r="0.499"/>
  <circle style="fill:#FFFFFF;" cy="-61.207" cx="117.75" r="0.499"/>
  <circle style="fill:#FFFFFF;" cy="-57.707" cx="114.333" r="0.499"/>
  <circle style="fill:#FFFFFF;" cy="-49.375" cx="90.333" r="0.499"/>
  <circle style="fill:#FFFFFF;" cy="-65.457" cx="123" r="0.499"/>
  <circle style="fill:#FFFFFF;" cy="-68.707" cx="127.75" r="0.499"/>
  <circle style="fill:#FFFFFF;" cy="-62.957" cx="132.75" r="0.499"/>
  <circle style="fill:#FFFFFF;" cy="-65.957" cx="136.25" r="0.499"/>
  <circle style="fill:#FFFFFF;" cy="-60.707" cx="128.5" r="0.499"/>
  <circle style="fill:#FFFFFF;" cy="-56.957" cx="135.5" r="0.499"/>
  <circle style="fill:#FFFFFF;" cy="-58.707" cx="140.25" r="0.499"/>
  <circle style="fill:#FFFFFF;" cy="-89.207" cx="82.25" r="0.499"/>
  <circle style="fill:#FFFFFF;" cy="-93.207" cx="89.25" r="0.499"/>
  <circle style="fill:#FFFFFF;" cy="-79.04" cx="71.666" r="0.499"/>
  <circle style="fill:#FFFFFF;" cy="-78.207" cx="65.333" r="0.499"/>
  <circle style="fill:#FFFFFF;" cy="-77.207" cx="45.5" r="0.499"/>
  <circle style="fill:#FFFFFF;" cy="-70.624" cx="52.167" r="0.499"/>
  <circle style="fill:#FFFFFF;" cy="-67.04" cx="33" r="0.499"/>
  <circle style="fill:#FFFFFF;" cy="-62.04" cx="32" r="0.499"/>
  <circle style="fill:#FFFFFF;" cy="-85.962" cx="68.774" r="0.499"/>
  <circle style="fill:#FFFFFF;" cy="-96.457" cx="75.75" r="0.499"/>
  <circle style="fill:#FFFFFF;" cy="-94.457" cx="70" r="0.499"/>
  <circle style="fill:#FFFFFF;" cy="-90.457" cx="66.25" r="0.499"/>
  <circle style="fill:#FFFFFF;" cy="-88.957" cx="60" r="0.499"/>
  <circle style="fill:#FFFFFF;" cy="-84.457" cx="55.75" r="0.499"/>
  <circle style="fill:#FFFFFF;" cy="-81.621" cx="50.75" r="0.499"/>
  <circle style="fill:#FFFFFF;" cy="-88.707" cx="50" r="0.499"/>
  <circle style="fill:#FFFFFF;" cy="-82.624" cx="41.167" r="0.499"/>
  <circle style="fill:#FFFFFF;" cy="-105.04" cx="78.333" r="0.499"/>
  <circle style="fill:#FFFFFF;" cy="-102.25" cx="72.793" r="0.499"/>
  <circle style="fill:#FFFFFF;" cy="-102.374" cx="66" r="0.499"/>
  <circle style="fill:#FFFFFF;" cy="-96.707" cx="64" r="0.499"/>
  <circle style="fill:#FFFFFF;" cy="-99" cx="68.959" r="0.499"/>
  <circle style="fill:#FFFFFF;" cy="-95.207" cx="58.25" r="0.499"/>
  <circle style="fill:#FFFFFF;" cy="-91.04" cx="54.667" r="0.499"/>
  <circle style="fill:#FFFFFF;" cy="-101.04" cx="60.667" r="0.499"/>
  <circle style="fill:#FFFFFF;" cy="-99.36" cx="55.333" r="0.499"/>
  <circle style="fill:#FFFFFF;" cy="-95.04" cx="50" r="0.499"/>
  <circle style="fill:#FFFFFF;" cy="-92.457" cx="43.5" r="0.499"/>
  <circle style="fill:#FFFFFF;" cy="-88.374" cx="37.667" r="0.499"/>
  <circle style="fill:#FFFFFF;" cy="-91.124" cx="30.667" r="0.499"/>
  <circle style="fill:#FFFFFF;" cy="-90.207" cx="21" r="0.499"/>
  <circle style="fill:#FFFFFF;" cy="-93.457" cx="16" r="0.499"/>
  <circle style="fill:#FFFFFF;" cy="-97.707" cx="8" r="0.499"/>
  <circle style="fill:#FFFFFF;" cy="-93.04" cx="3" r="0.499"/>
  <circle style="fill:#FFFFFF;" cy="-91.207" cx="7.75" r="0.499"/>
  <circle style="fill:#FFFFFF;" cy="-86.957" cx="5.75" r="0.499"/>
  <circle style="fill:#FFFFFF;" cy="-86.957" cx="13.75" r="0.499"/>
  <circle style="fill:#FFFFFF;" cy="-85.207" cx="20" r="0.499"/>
  <circle style="fill:#FFFFFF;" cy="-82.957" cx="26" r="0.499"/>
  <circle style="fill:#FFFFFF;" cy="-84.54" cx="34.333" r="0.499"/>
  <circle style="fill:#FFFFFF;" cy="-94.04" cx="38" r="0.499"/>
  <circle style="fill:#FFFFFF;" cy="-99.457" cx="45" r="0.499"/>
  <circle style="fill:#FFFFFF;" cy="-100.707" cx="38.333" r="0.499"/>
  <circle style="fill:#FFFFFF;" cy="-103.207" cx="42.5" r="0.499"/>
  <circle style="fill:#FFFFFF;" cy="-100.374" cx="32.667" r="0.499"/>
  <circle style="fill:#FFFFFF;" cy="-101.04" cx="26" r="0.499"/>
  <circle style="fill:#FFFFFF;" cy="-103.374" cx="8" r="0.499"/>
  <circle style="fill:#FFFFFF;" cy="-100.374" cx="2" r="0.499"/>
  <circle style="fill:#FFFFFF;" cy="-130.707" cx="137.333" r="0.499"/>
  <circle style="fill:#FFFFFF;" cy="-136.374" cx="136.667" r="0.499"/>
  <circle style="fill:#FFFFFF;" cy="-134.04" cx="143" r="0.499"/>
  <circle style="fill:#FFFFFF;" cy="-143.707" cx="131" r="0.499"/>
  <circle style="fill:#FFFFFF;" cy="-141.374" cx="137.333" r="0.499"/>
  <circle style="fill:#FFFFFF;" cy="-140.374" cx="143" r="0.499"/>
  <circle style="fill:#FFFFFF;" cy="-2.707" cx="75.801" r="0.499"/>
  <circle style="fill:#FFFFFF;" cy="-3.273" cx="83.702" r="0.499"/>
  <circle style="fill:#FFFFFF;" cy="-119.957" cx="54" r="0.499"/>
  <circle style="fill:#FFFFFF;" cy="-124.333" cx="51.626" r="0.499"/>
  <circle style="fill:#FFFFFF;" cy="-143.04" cx="5.333" r="0.499"/>
 </g>
</svg>
