<?xml version="1.0"?>
<!-- Converted with SVG Converter - Version 0.9.5 (Compiled Fri Feb 21 09:53:38 2020) - Copyright (C) 2011 Nokia -->
<svg xmlns="http://www.w3.org/2000/svg" width="144" xml:space="preserve" baseProfile="tiny" viewBox="1 -145 144 144" height="144" version="1.1" x="0px" y="0px" xmlns:xlink="http://www.w3.org/1999/xlink">
 <g>
  <rect width="144" style="fill:none;" height="144" x="1" y="-145"/>
  <circle r="0.499" style="fill:#EC008C;" cy="-143" cx="12.959"/>
  <circle r="0.499" style="fill:#EC008C;" cy="-141.79" cx="18.333"/>
  <circle r="0.499" style="fill:#EC008C;" cy="-143.707" cx="26.667"/>
  <circle r="0.499" style="fill:#EC008C;" cy="-137.04" cx="16"/>
  <circle r="0.499" style="fill:#EC008C;" cy="-139.04" cx="10"/>
  <circle r="0.499" style="fill:#EC008C;" cy="-137.04" cx="2.333"/>
  <circle r="0.499" style="fill:#EC008C;" cy="-133.374" cx="8.333"/>
  <circle r="0.499" style="fill:#EC008C;" cy="-131.04" cx="13.667"/>
  <circle r="0.499" style="fill:#EC008C;" cy="-128.707" cx="20"/>
  <circle r="0.499" style="fill:#EC008C;" cy="-136.374" cx="23"/>
  <circle r="0.499" style="fill:#EC008C;" cy="-136.04" cx="29"/>
  <circle r="0.499" style="fill:#EC008C;" cy="-141.04" cx="33.333"/>
  <circle r="0.499" style="fill:#EC008C;" cy="-142.707" cx="39.667"/>
  <circle r="0.499" style="fill:#EC008C;" cy="-140.374" cx="43.667"/>
  <circle r="0.499" style="fill:#EC008C;" cy="-139.957" cx="50.5"/>
  <circle r="0.499" style="fill:#EC008C;" cy="-143.707" cx="54"/>
  <circle r="0.499" style="fill:#EC008C;" cy="-139.04" cx="57.667"/>
  <circle r="0.499" style="fill:#EC008C;" cy="-134.707" cx="53.667"/>
  <circle r="0.499" style="fill:#EC008C;" cy="-128.707" cx="50"/>
  <circle r="0.499" style="fill:#EC008C;" cy="-122.707" cx="46.333"/>
  <circle r="0.499" style="fill:#EC008C;" cy="-126.471" cx="43.601"/>
  <circle r="0.499" style="fill:#EC008C;" cy="-134.707" cx="46.75"/>
  <circle r="0.499" style="fill:#EC008C;" cy="-117.207" cx="45"/>
  <circle r="0.499" style="fill:#EC008C;" cy="-132.04" cx="40.667"/>
  <circle r="0.499" style="fill:#EC008C;" cy="-126.707" cx="37"/>
  <circle r="0.499" style="fill:#EC008C;" cy="-127.04" cx="31.667"/>
  <circle r="0.499" style="fill:#EC008C;" cy="-123.04" cx="30"/>
  <circle r="0.499" style="fill:#EC008C;" cy="-124.707" cx="24.333"/>
  <circle r="0.499" style="fill:#EC008C;" cy="-118.374" cx="24"/>
  <circle r="0.499" style="fill:#EC008C;" cy="-111.04" cx="22"/>
  <circle r="0.499" style="fill:#EC008C;" cy="-104.707" cx="20.333"/>
  <circle r="0.499" style="fill:#EC008C;" cy="-100.04" cx="20.667"/>
  <circle r="0.499" style="fill:#EC008C;" cy="-98.707" cx="14.333"/>
  <circle r="0.499" style="fill:#EC008C;" cy="-104.707" cx="15"/>
  <circle r="0.499" style="fill:#EC008C;" cy="-110.374" cx="16"/>
  <circle r="0.499" style="fill:#EC008C;" cy="-117.374" cx="16.667"/>
  <circle r="0.499" style="fill:#EC008C;" cy="-122.707" cx="18"/>
  <circle r="0.499" style="fill:#EC008C;" cy="-123.707" cx="11.667"/>
  <circle r="0.499" style="fill:#EC008C;" cy="-127.707" cx="6.333"/>
  <circle r="0.499" style="fill:#EC008C;" cy="-130.04" cx="2.667"/>
  <circle r="0.499" style="fill:#EC008C;" cy="-120.374" cx="3.667"/>
  <circle r="0.499" style="fill:#EC008C;" cy="-116.707" cx="9.667"/>
  <circle r="0.499" style="fill:#EC008C;" cy="-110.707" cx="7.667"/>
  <circle r="0.499" style="fill:#EC008C;" cy="-108.707" cx="4"/>
  <circle r="0.499" style="fill:#EC008C;" cy="-114.707" cx="3.333"/>
  <circle r="0.499" style="fill:#EC008C;" cy="-114.707" cx="27.667"/>
  <circle r="0.499" style="fill:#EC008C;" cy="-120.374" cx="35.667"/>
  <circle r="0.499" style="fill:#EC008C;" cy="-120.374" cx="40"/>
  <circle r="0.499" style="fill:#EC008C;" cy="-112.707" cx="39"/>
  <circle r="0.499" style="fill:#EC008C;" cy="-114.207" cx="34.75"/>
  <circle r="0.499" style="fill:#EC008C;" cy="-108.374" cx="38.667"/>
  <circle r="0.499" style="fill:#EC008C;" cy="-106.707" cx="32"/>
  <circle r="0.499" style="fill:#EC008C;" cy="-109.04" cx="27.333"/>
  <circle r="0.499" style="fill:#EC008C;" cy="-130.707" cx="27"/>
  <circle r="0.499" style="fill:#EC008C;" cy="-132.04" cx="34.333"/>
  <circle r="0.499" style="fill:#EC008C;" cy="-136.374" cx="37"/>
  <circle r="0.499" style="fill:#EC008C;" cy="-142.374" cx="63"/>
  <circle r="0.499" style="fill:#EC008C;" cy="-143.374" cx="68.666"/>
  <circle r="0.499" style="fill:#EC008C;" cy="-138.707" cx="70"/>
  <circle r="0.499" style="fill:#EC008C;" cy="-143.082" cx="75"/>
  <circle r="0.499" style="fill:#EC008C;" cy="-143.374" cx="81.666"/>
  <circle r="0.499" style="fill:#EC008C;" cy="-134.707" cx="65.25"/>
  <circle r="0.499" style="fill:#EC008C;" cy="-134.707" cx="59"/>
  <circle r="0.499" style="fill:#EC008C;" cy="-123.707" cx="56.667"/>
  <circle r="0.499" style="fill:#EC008C;" cy="-129.457" cx="60.333"/>
  <circle r="0.499" style="fill:#EC008C;" cy="-130.707" cx="56"/>
  <circle r="0.499" style="fill:#EC008C;" cy="-132.04" cx="69.333"/>
  <circle r="0.499" style="fill:#EC008C;" cy="-135.707" cx="75.333"/>
  <circle r="0.499" style="fill:#EC008C;" cy="-139.04" cx="82"/>
  <circle r="0.499" style="fill:#EC008C;" cy="-141.374" cx="87.666"/>
  <circle r="0.499" style="fill:#EC008C;" cy="-143.374" cx="94"/>
  <circle r="0.499" style="fill:#EC008C;" cy="-143.04" cx="101.666"/>
  <circle r="0.499" style="fill:#EC008C;" cy="-136.457" cx="93.333"/>
  <circle r="0.499" style="fill:#EC008C;" cy="-135.25" cx="87.043"/>
  <circle r="0.499" style="fill:#EC008C;" cy="-130.124" cx="82.667"/>
  <circle r="0.499" style="fill:#EC008C;" cy="-131.707" cx="77.666"/>
  <circle r="0.499" style="fill:#EC008C;" cy="-126.707" cx="76.5"/>
  <circle r="0.499" style="fill:#EC008C;" cy="-122.457" cx="70"/>
  <circle r="0.499" style="fill:#EC008C;" cy="-120.707" cx="63.667"/>
  <circle r="0.499" style="fill:#EC008C;" cy="-118.04" cx="57.667"/>
  <circle r="0.499" style="fill:#EC008C;" cy="-116.454" cx="68"/>
  <circle r="0.499" style="fill:#EC008C;" cy="-115.374" cx="60.333"/>
  <circle r="0.499" style="fill:#EC008C;" cy="-110.707" cx="56.333"/>
  <circle r="0.499" style="fill:#EC008C;" cy="-115.04" cx="51.333"/>
  <circle r="0.499" style="fill:#EC008C;" cy="-108.04" cx="51"/>
  <circle r="0.499" style="fill:#EC008C;" cy="-110.207" cx="47"/>
  <circle r="0.499" style="fill:#EC008C;" cy="-103.374" cx="50.333"/>
  <circle r="0.499" style="fill:#EC008C;" cy="-104.707" cx="56"/>
  <circle r="0.499" style="fill:#EC008C;" cy="-107.414" cx="62.707"/>
  <circle r="0.499" style="fill:#EC008C;" cy="-109.04" cx="67"/>
  <circle r="0.499" style="fill:#EC008C;" cy="-112.374" cx="65.333"/>
  <circle r="0.499" style="fill:#EC008C;" cy="-110.04" cx="72.333"/>
  <circle r="0.499" style="fill:#EC008C;" cy="-115.04" cx="73.333"/>
  <circle r="0.499" style="fill:#EC008C;" cy="-119.707" cx="76.333"/>
  <circle r="0.499" style="fill:#EC008C;" cy="-123.374" cx="81.666"/>
  <circle r="0.499" style="fill:#EC008C;" cy="-126.04" cx="87"/>
  <circle r="0.499" style="fill:#EC008C;" cy="-130.747" cx="89.626"/>
  <circle r="0.499" style="fill:#EC008C;" cy="-132.624" cx="97.166"/>
  <circle r="0.499" style="fill:#EC008C;" cy="-138.624" cx="99.166"/>
  <circle r="0.499" style="fill:#EC008C;" cy="-142.04" cx="107.333"/>
  <circle r="0.499" style="fill:#EC008C;" cy="-143.707" cx="114"/>
  <circle r="0.499" style="fill:#EC008C;" cy="-143.707" cx="125.333"/>
  <circle r="0.499" style="fill:#EC008C;" cy="-141.04" cx="119"/>
  <circle r="0.499" style="fill:#EC008C;" cy="-135.124" cx="116"/>
  <circle r="0.499" style="fill:#EC008C;" cy="-134.457" cx="109.25"/>
  <circle r="0.499" style="fill:#EC008C;" cy="-124.457" cx="129.333"/>
  <circle r="0.499" style="fill:#EC008C;" cy="-131.624" cx="102.666"/>
  <circle r="0.499" style="fill:#EC008C;" cy="-127.124" cx="65.333"/>
  <circle r="0.499" style="fill:#EC008C;" cy="-128.04" cx="71.333"/>
  <circle r="0.499" style="fill:#EC008C;" cy="-137.374" cx="105.666"/>
  <circle r="0.499" style="fill:#EC008C;" cy="-125.414" cx="92.374"/>
  <circle r="0.499" style="fill:#EC008C;" cy="-120.54" cx="87.666"/>
  <circle r="0.499" style="fill:#EC008C;" cy="-116.707" cx="82.333"/>
  <circle r="0.499" style="fill:#EC008C;" cy="-111.04" cx="78.333"/>
  <circle r="0.499" style="fill:#EC008C;" cy="-107.79" cx="84.667"/>
  <circle r="0.499" style="fill:#EC008C;" cy="-113.04" cx="87"/>
  <circle r="0.499" style="fill:#EC008C;" cy="-121.124" cx="98"/>
  <circle r="0.499" style="fill:#EC008C;" cy="-126.121" cx="101.666"/>
  <circle r="0.499" style="fill:#EC008C;" cy="-128.707" cx="97.333"/>
  <circle r="0.499" style="fill:#EC008C;" cy="-128.789" cx="107.666"/>
  <circle r="0.499" style="fill:#EC008C;" cy="-129.79" cx="114"/>
  <circle r="0.499" style="fill:#EC008C;" cy="-133.04" cx="120"/>
  <circle r="0.499" style="fill:#EC008C;" cy="-138.04" cx="123.666"/>
  <circle r="0.499" style="fill:#EC008C;" cy="-136.707" cx="131.667"/>
  <circle r="0.499" style="fill:#EC008C;" cy="-139.374" cx="128.667"/>
  <circle r="0.499" style="fill:#EC008C;" cy="-133.374" cx="126"/>
  <circle r="0.499" style="fill:#EC008C;" cy="-128.707" cx="120.333"/>
  <circle r="0.499" style="fill:#EC008C;" cy="-122.707" cx="114"/>
  <circle r="0.499" style="fill:#EC008C;" cy="-123.04" cx="107.666"/>
  <circle r="0.499" style="fill:#EC008C;" cy="-116.707" cx="95.666"/>
  <circle r="0.499" style="fill:#EC008C;" cy="-110.04" cx="95.333"/>
  <circle r="0.499" style="fill:#EC008C;" cy="-111.207" cx="90.5"/>
  <circle r="0.499" style="fill:#EC008C;" cy="-103.707" cx="90.75"/>
  <circle r="0.499" style="fill:#EC008C;" cy="-131.374" cx="131.333"/>
  <circle r="0.499" style="fill:#EC008C;" cy="-127.414" cx="125.626"/>
  <circle r="0.499" style="fill:#EC008C;" cy="-122.124" cx="121"/>
  <circle r="0.499" style="fill:#EC008C;" cy="-117.707" cx="115.333"/>
  <circle r="0.499" style="fill:#EC008C;" cy="-117.374" cx="110"/>
  <circle r="0.499" style="fill:#EC008C;" cy="-113.04" cx="106"/>
  <circle r="0.499" style="fill:#EC008C;" cy="-107.707" cx="100.666"/>
  <circle r="0.499" style="fill:#EC008C;" cy="-106.707" cx="106.333"/>
  <circle r="0.499" style="fill:#EC008C;" cy="-111.04" cx="110.666"/>
  <circle r="0.499" style="fill:#EC008C;" cy="-111.374" cx="116"/>
  <circle r="0.499" style="fill:#EC008C;" cy="-119.124" cx="125"/>
  <circle r="0.499" style="fill:#EC008C;" cy="-125.457" cx="136.667"/>
  <circle r="0.499" style="fill:#EC008C;" cy="-121.04" cx="133"/>
  <circle r="0.499" style="fill:#EC008C;" cy="-125.374" cx="144"/>
  <circle r="0.499" style="fill:#EC008C;" cy="-121.04" cx="138"/>
  <circle r="0.499" style="fill:#EC008C;" cy="-116.707" cx="134"/>
  <circle r="0.499" style="fill:#EC008C;" cy="-114.707" cx="140"/>
  <circle r="0.499" style="fill:#EC008C;" cy="-119.04" cx="143"/>
  <circle r="0.499" style="fill:#EC008C;" cy="-114.707" cx="127.666"/>
  <circle r="0.499" style="fill:#EC008C;" cy="-112.957" cx="122.25"/>
  <circle r="0.499" style="fill:#EC008C;" cy="-108.707" cx="123.5"/>
  <circle r="0.499" style="fill:#EC008C;" cy="-107.207" cx="118"/>
  <circle r="0.499" style="fill:#EC008C;" cy="-110.04" cx="129.667"/>
  <circle r="0.499" style="fill:#EC008C;" cy="-109.04" cx="136"/>
  <circle r="0.499" style="fill:#EC008C;" cy="-109.04" cx="142.333"/>
  <circle r="0.499" style="fill:#EC008C;" cy="-105.374" cx="138"/>
  <circle r="0.499" style="fill:#EC008C;" cy="-105.04" cx="132"/>
  <circle r="0.499" style="fill:#EC008C;" cy="-102.707" cx="126"/>
  <circle r="0.499" style="fill:#EC008C;" cy="-102.707" cx="119.333"/>
  <circle r="0.499" style="fill:#EC008C;" cy="-98.707" cx="121.666"/>
  <circle r="0.499" style="fill:#EC008C;" cy="-95.707" cx="135"/>
  <circle r="0.499" style="fill:#EC008C;" cy="-117.454" cx="104"/>
  <circle r="0.499" style="fill:#EC008C;" cy="-138.707" cx="110.666"/>
  <circle r="0.499" style="fill:#EC008C;" cy="-95.707" cx="116.5"/>
  <circle r="0.499" style="fill:#EC008C;" cy="-104.707" cx="112.5"/>
  <circle r="0.499" style="fill:#EC008C;" cy="-99.957" cx="106.5"/>
  <circle r="0.499" style="fill:#EC008C;" cy="-97.04" cx="110.333"/>
  <circle r="0.499" style="fill:#EC008C;" cy="-100.707" cx="115"/>
  <circle r="0.499" style="fill:#EC008C;" cy="-101.374" cx="101.666"/>
  <circle r="0.499" style="fill:#EC008C;" cy="-103.04" cx="95.333"/>
  <circle r="0.499" style="fill:#EC008C;" cy="-99.04" cx="89.666"/>
  <circle r="0.499" style="fill:#EC008C;" cy="-102.082" cx="83.626"/>
  <circle r="0.499" style="fill:#EC008C;" cy="-97.707" cx="81.25"/>
  <circle r="0.499" style="fill:#EC008C;" cy="-93.707" cx="84.666"/>
  <circle r="0.499" style="fill:#EC008C;" cy="-91.207" cx="75.334"/>
  <circle r="0.499" style="fill:#EC008C;" cy="-83.874" cx="63.333"/>
  <circle r="0.499" style="fill:#EC008C;" cy="-77.957" cx="55"/>
  <circle r="0.499" style="fill:#EC008C;" cy="-77.624" cx="38.667"/>
  <circle r="0.499" style="fill:#EC008C;" cy="-85.789" cx="46.667"/>
  <circle r="0.499" style="fill:#EC008C;" cy="-86.54" cx="29.333"/>
  <circle r="0.499" style="fill:#EC008C;" cy="-93.874" cx="24.333"/>
  <circle r="0.499" style="fill:#EC008C;" cy="-72.624" cx="48.167"/>
  <circle r="0.499" style="fill:#EC008C;" cy="-65.707" cx="44"/>
  <circle r="0.499" style="fill:#EC008C;" cy="-61.457" cx="49.25"/>
  <circle r="0.499" style="fill:#EC008C;" cy="-64.79" cx="39"/>
  <circle r="0.499" style="fill:#EC008C;" cy="-34.707" cx="27.667"/>
  <circle r="0.499" style="fill:#EC008C;" cy="-60.121" cx="37.333"/>
  <circle r="0.499" style="fill:#EC008C;" cy="-67.207" cx="28"/>
  <circle r="0.499" style="fill:#EC008C;" cy="-71.207" cx="20.5"/>
  <circle r="0.499" style="fill:#EC008C;" cy="-79.707" cx="21.5"/>
  <circle r="0.499" style="fill:#EC008C;" cy="-76.207" cx="10.75"/>
  <circle r="0.499" style="fill:#EC008C;" cy="-79.207" cx="4.25"/>
  <circle r="0.499" style="fill:#EC008C;" cy="-81.707" cx="11.75"/>
  <circle r="0.499" style="fill:#EC008C;" cy="-78.457" cx="16"/>
  <circle r="0.499" style="fill:#EC008C;" cy="-73.664" cx="26.707"/>
  <circle r="0.499" style="fill:#EC008C;" cy="-74.957" cx="31.75"/>
  <circle r="0.499" style="fill:#EC008C;" cy="-79.457" cx="27.75"/>
  <circle r="0.499" style="fill:#EC008C;" cy="-79.707" cx="34"/>
  <circle r="0.499" style="fill:#EC008C;" cy="-71.707" cx="35"/>
  <circle r="0.499" style="fill:#EC008C;" cy="-72.124" cx="41.333"/>
  <circle r="0.499" style="fill:#EC008C;" cy="-65.207" cx="50.25"/>
  <circle r="0.499" style="fill:#EC008C;" cy="-73.871" cx="59"/>
  <circle r="0.499" style="fill:#EC008C;" cy="-68.957" cx="64.75"/>
  <circle r="0.499" style="fill:#EC008C;" cy="-64.957" cx="62.75"/>
  <circle r="0.499" style="fill:#EC008C;" cy="-63.457" cx="67.75"/>
  <circle r="0.499" style="fill:#EC008C;" cy="-59.207" cx="68.5"/>
  <circle r="0.499" style="fill:#EC008C;" cy="-52.957" cx="66.25"/>
  <circle r="0.499" style="fill:#EC008C;" cy="-47.707" cx="65.5"/>
  <circle r="0.499" style="fill:#EC008C;" cy="-40.457" cx="68.75"/>
  <circle r="0.499" style="fill:#EC008C;" cy="-46.371" cx="73"/>
  <circle r="0.499" style="fill:#EC008C;" cy="-40.707" cx="77.25"/>
  <circle r="0.499" style="fill:#EC008C;" cy="-35.707" cx="73.25"/>
  <circle r="0.499" style="fill:#EC008C;" cy="-35.207" cx="86"/>
  <circle r="0.499" style="fill:#EC008C;" cy="-35.457" cx="79.75"/>
  <circle r="0.499" style="fill:#EC008C;" cy="-28.957" cx="75.75"/>
  <circle r="0.499" style="fill:#EC008C;" cy="-30.957" cx="68"/>
  <circle r="0.499" style="fill:#EC008C;" cy="-36.707" cx="65.75"/>
  <circle r="0.499" style="fill:#EC008C;" cy="-41.207" cx="62.75"/>
  <circle r="0.499" style="fill:#EC008C;" cy="-46.957" cx="60.5"/>
  <circle r="0.499" style="fill:#EC008C;" cy="-52.375" cx="59"/>
  <circle r="0.499" style="fill:#EC008C;" cy="-57.457" cx="62.25"/>
  <circle r="0.499" style="fill:#EC008C;" cy="-62.375" cx="55.333"/>
  <circle r="0.499" style="fill:#EC008C;" cy="-68.79" cx="57"/>
  <circle r="0.499" style="fill:#EC008C;" cy="-58.207" cx="56.5"/>
  <circle r="0.499" style="fill:#EC008C;" cy="-55.207" cx="51.75"/>
  <circle r="0.499" style="fill:#EC008C;" cy="-49.207" cx="53.75"/>
  <circle r="0.499" style="fill:#EC008C;" cy="-43.04" cx="54"/>
  <circle r="0.499" style="fill:#EC008C;" cy="-37.375" cx="56.667"/>
  <circle r="0.499" style="fill:#EC008C;" cy="-33.707" cx="59"/>
  <circle r="0.499" style="fill:#EC008C;" cy="-29.957" cx="61.25"/>
  <circle r="0.499" style="fill:#EC008C;" cy="-25.457" cx="58.5"/>
  <circle r="0.499" style="fill:#EC008C;" cy="-25.707" cx="51"/>
  <circle r="0.499" style="fill:#EC008C;" cy="-30.957" cx="46"/>
  <circle r="0.499" style="fill:#EC008C;" cy="-26.957" cx="42"/>
  <circle r="0.499" style="fill:#EC008C;" cy="-113.374" cx="99.666"/>
  <circle r="0.499" style="fill:#EC008C;" cy="-17.957" cx="35.5"/>
  <circle r="0.499" style="fill:#EC008C;" cy="-19.207" cx="41.75"/>
  <circle r="0.499" style="fill:#EC008C;" cy="-14.707" cx="43.667"/>
  <circle r="0.499" style="fill:#EC008C;" cy="-20.957" cx="47.5"/>
  <circle r="0.499" style="fill:#EC008C;" cy="-13.123" cx="38"/>
  <circle r="0.499" style="fill:#EC008C;" cy="-5.207" cx="33.5"/>
  <circle r="0.499" style="fill:#EC008C;" cy="-10.123" cx="30.667"/>
  <circle r="0.499" style="fill:#EC008C;" cy="-5.207" cx="24"/>
  <circle r="0.499" style="fill:#EC008C;" cy="-9.664" cx="21.043"/>
  <circle r="0.499" style="fill:#EC008C;" cy="-12.957" cx="26"/>
  <circle r="0.499" style="fill:#EC008C;" cy="-18.707" cx="28"/>
  <circle r="0.499" style="fill:#EC008C;" cy="-15.373" cx="30"/>
  <circle r="0.499" style="fill:#EC008C;" cy="-7.373" cx="36.667"/>
  <circle r="0.499" style="fill:#EC008C;" cy="-3.041" cx="40"/>
  <circle r="0.499" style="fill:#EC008C;" cy="-2.207" cx="18.5"/>
  <circle r="0.499" style="fill:#EC008C;" cy="-2.84" cx="29"/>
  <circle r="0.499" style="fill:#EC008C;" cy="-23.207" cx="20"/>
  <circle r="0.499" style="fill:#EC008C;" cy="-18.957" cx="23"/>
  <circle r="0.499" style="fill:#EC008C;" cy="-18.957" cx="15.75"/>
  <circle r="0.499" style="fill:#EC008C;" cy="-20.707" cx="10.5"/>
  <circle r="0.499" style="fill:#EC008C;" cy="-17.457" cx="5.5"/>
  <circle r="0.499" style="fill:#EC008C;" cy="-13.207" cx="9.75"/>
  <circle r="0.499" style="fill:#EC008C;" cy="-13.207" cx="17.25"/>
  <circle r="0.499" style="fill:#EC008C;" cy="-7.207" cx="15.5"/>
  <circle r="0.499" style="fill:#EC008C;" cy="-6.957" cx="10"/>
  <circle r="0.499" style="fill:#EC008C;" cy="-9.457" cx="5.5"/>
  <circle r="0.499" style="fill:#EC008C;" cy="-5.207" cx="2"/>
  <circle r="0.499" style="fill:#EC008C;" cy="-2.59" cx="8.27"/>
  <circle r="0.499" style="fill:#EC008C;" cy="-96.207" cx="31"/>
  <circle r="0.499" style="fill:#EC008C;" cy="-25.124" cx="27.667"/>
  <circle r="0.499" style="fill:#EC008C;" cy="-28.707" cx="23.333"/>
  <circle r="0.499" style="fill:#EC008C;" cy="-44.707" cx="20"/>
  <circle r="0.499" style="fill:#EC008C;" cy="-52.375" cx="20"/>
  <circle r="0.499" style="fill:#EC008C;" cy="-30.375" cx="29.333"/>
  <circle r="0.499" style="fill:#EC008C;" cy="-24.457" cx="34"/>
  <circle r="0.499" style="fill:#EC008C;" cy="-38.375" cx="32.333"/>
  <circle r="0.499" style="fill:#EC008C;" cy="-24.041" cx="43.333"/>
  <circle r="0.499" style="fill:#EC008C;" cy="-34.375" cx="38.333"/>
  <circle r="0.499" style="fill:#EC008C;" cy="-36.957" cx="43.75"/>
  <circle r="0.499" style="fill:#EC008C;" cy="-43.457" cx="43"/>
  <circle r="0.499" style="fill:#EC008C;" cy="-44.625" cx="32.167"/>
  <circle r="0.499" style="fill:#EC008C;" cy="-39.207" cx="37.75"/>
  <circle r="0.499" style="fill:#EC008C;" cy="-30.375" cx="35.667"/>
  <circle r="0.499" style="fill:#EC008C;" cy="-51.125" cx="31.167"/>
  <circle r="0.499" style="fill:#EC008C;" cy="-46.457" cx="37"/>
  <circle r="0.499" style="fill:#EC008C;" cy="-51.457" cx="42.333"/>
  <circle r="0.499" style="fill:#EC008C;" cy="-46.371" cx="47.75"/>
  <circle r="0.499" style="fill:#EC008C;" cy="-51.207" cx="47.75"/>
  <circle r="0.499" style="fill:#EC008C;" cy="-58.371" cx="43.5"/>
  <circle r="0.499" style="fill:#EC008C;" cy="-55.207" cx="37"/>
  <circle r="0.499" style="fill:#EC008C;" cy="-57.207" cx="31.5"/>
  <circle r="0.499" style="fill:#EC008C;" cy="-61.664" cx="26.5"/>
  <circle r="0.499" style="fill:#EC008C;" cy="-64.957" cx="22"/>
  <circle r="0.499" style="fill:#EC008C;" cy="-65.207" cx="14.5"/>
  <circle r="0.499" style="fill:#EC008C;" cy="-69.707" cx="15"/>
  <circle r="0.499" style="fill:#EC008C;" cy="-69.207" cx="10.25"/>
  <circle r="0.499" style="fill:#EC008C;" cy="-71.457" cx="4"/>
  <circle r="0.499" style="fill:#EC008C;" cy="-65.207" cx="6"/>
  <circle r="0.499" style="fill:#EC008C;" cy="-60.957" cx="8"/>
  <circle r="0.499" style="fill:#EC008C;" cy="-54.957" cx="11.5"/>
  <circle r="0.499" style="fill:#EC008C;" cy="-50.957" cx="15.25"/>
  <circle r="0.499" style="fill:#EC008C;" cy="-45.207" cx="25.75"/>
  <circle r="0.499" style="fill:#EC008C;" cy="-39.207" cx="26"/>
  <circle r="0.499" style="fill:#EC008C;" cy="-40" cx="20.543"/>
  <circle r="0.499" style="fill:#EC008C;" cy="-42.957" cx="15.75"/>
  <circle r="0.499" style="fill:#EC008C;" cy="-46.957" cx="12"/>
  <circle r="0.499" style="fill:#EC008C;" cy="-50.957" cx="7.75"/>
  <circle r="0.499" style="fill:#EC008C;" cy="-54.957" cx="4"/>
  <circle r="0.499" style="fill:#EC008C;" cy="-59.207" cx="15.75"/>
  <circle r="0.499" style="fill:#EC008C;" cy="-59.04" cx="21"/>
  <circle r="0.499" style="fill:#EC008C;" cy="-49.707" cx="25.333"/>
  <circle r="0.499" style="fill:#EC008C;" cy="-55.375" cx="25.667"/>
  <circle r="0.499" style="fill:#EC008C;" cy="-33.25" cx="15.793"/>
  <circle r="0.499" style="fill:#EC008C;" cy="-30.707" cx="10"/>
  <circle r="0.499" style="fill:#EC008C;" cy="-24.707" cx="6"/>
  <circle r="0.499" style="fill:#EC008C;" cy="-27.207" cx="2.317"/>
  <circle r="0.499" style="fill:#EC008C;" cy="-27.664" cx="13.043"/>
  <circle r="0.499" style="fill:#EC008C;" cy="-28.457" cx="19"/>
  <circle r="0.499" style="fill:#EC008C;" cy="-33.207" cx="22.25"/>
  <circle r="0.499" style="fill:#EC008C;" cy="-36.957" cx="11.75"/>
  <circle r="0.499" style="fill:#EC008C;" cy="-40.707" cx="7.5"/>
  <circle r="0.499" style="fill:#EC008C;" cy="-45.207" cx="3.5"/>
  <circle r="0.499" style="fill:#EC008C;" cy="-35.207" cx="5.5"/>
  <circle r="0.499" style="fill:#EC008C;" cy="-30.707" cx="53.5"/>
  <circle r="0.499" style="fill:#EC008C;" cy="-34.457" cx="51.5"/>
  <circle r="0.499" style="fill:#EC008C;" cy="-40.207" cx="48.25"/>
  <circle r="0.499" style="fill:#EC008C;" cy="-56.207" cx="79.25"/>
  <circle r="0.499" style="fill:#EC008C;" cy="-51.207" cx="81.75"/>
  <circle r="0.499" style="fill:#EC008C;" cy="-54.375" cx="87.333"/>
  <circle r="0.499" style="fill:#EC008C;" cy="-46.04" cx="86"/>
  <circle r="0.499" style="fill:#EC008C;" cy="-42.957" cx="92"/>
  <circle r="0.499" style="fill:#EC008C;" cy="-46.957" cx="97.75"/>
  <circle r="0.499" style="fill:#EC008C;" cy="-41.664" cx="99.293"/>
  <circle r="0.499" style="fill:#EC008C;" cy="-45.457" cx="104"/>
  <circle r="0.499" style="fill:#EC008C;" cy="-40.707" cx="110"/>
  <circle r="0.499" style="fill:#EC008C;" cy="-41.625" cx="116.666"/>
  <circle r="0.499" style="fill:#EC008C;" cy="-37.207" cx="119.75"/>
  <circle r="0.499" style="fill:#EC008C;" cy="-41.54" cx="126.333"/>
  <circle r="0.499" style="fill:#EC008C;" cy="-34.957" cx="132.25"/>
  <circle r="0.499" style="fill:#EC008C;" cy="-34.957" cx="139.75"/>
  <circle r="0.499" style="fill:#EC008C;" cy="-37.375" cx="143.667"/>
  <circle r="0.499" style="fill:#EC008C;" cy="-31.04" cx="143.333"/>
  <circle r="0.499" style="fill:#EC008C;" cy="-23.258" cx="143.683"/>
  <circle r="0.499" style="fill:#EC008C;" cy="-27.457" cx="138"/>
  <circle r="0.499" style="fill:#EC008C;" cy="-30.457" cx="132.25"/>
  <circle r="0.499" style="fill:#EC008C;" cy="-34.207" cx="124.666"/>
  <circle r="0.499" style="fill:#EC008C;" cy="-35.957" cx="113.75"/>
  <circle r="0.499" style="fill:#EC008C;" cy="-26.957" cx="125.75"/>
  <circle r="0.499" style="fill:#EC008C;" cy="-23.207" cx="132"/>
  <circle r="0.499" style="fill:#EC008C;" cy="-20.957" cx="138.5"/>
  <circle r="0.499" style="fill:#EC008C;" cy="-17.207" cx="144"/>
  <circle r="0.499" style="fill:#EC008C;" cy="-14.707" cx="137.75"/>
  <circle r="0.499" style="fill:#EC008C;" cy="-9.457" cx="143.25"/>
  <circle r="0.499" style="fill:#EC008C;" cy="-2.607" cx="109.028"/>
  <circle r="0.499" style="fill:#EC008C;" cy="-2.373" cx="136.667"/>
  <circle r="0.499" style="fill:#EC008C;" cy="-2.607" cx="122.631"/>
  <circle r="0.499" style="fill:#EC008C;" cy="-7.207" cx="140"/>
  <circle r="0.499" style="fill:#EC008C;" cy="-5.207" cx="127.75"/>
  <circle r="0.499" style="fill:#EC008C;" cy="-9.207" cx="131.75"/>
  <circle r="0.499" style="fill:#EC008C;" cy="-15.457" cx="132.25"/>
  <circle r="0.499" style="fill:#EC008C;" cy="-12.207" cx="126"/>
  <circle r="0.499" style="fill:#EC008C;" cy="-8.957" cx="122"/>
  <circle r="0.499" style="fill:#EC008C;" cy="-5.207" cx="117.5"/>
  <circle r="0.499" style="fill:#EC008C;" cy="-7.707" cx="112.25"/>
  <circle r="0.499" style="fill:#EC008C;" cy="-9.707" cx="105.5"/>
  <circle r="0.499" style="fill:#EC008C;" cy="-11.707" cx="99.75"/>
  <circle r="0.499" style="fill:#EC008C;" cy="-15.207" cx="91.75"/>
  <circle r="0.499" style="fill:#EC008C;" cy="-18.957" cx="97.5"/>
  <circle r="0.499" style="fill:#EC008C;" cy="-16.707" cx="104"/>
  <circle r="0.499" style="fill:#EC008C;" cy="-13.207" cx="109.5"/>
  <circle r="0.499" style="fill:#EC008C;" cy="-12.707" cx="115.75"/>
  <circle r="0.499" style="fill:#EC008C;" cy="-16.957" cx="120.5"/>
  <circle r="0.499" style="fill:#EC008C;" cy="-19.707" cx="125.5"/>
  <circle r="0.499" style="fill:#EC008C;" cy="-25.207" cx="120"/>
  <circle r="0.499" style="fill:#EC008C;" cy="-30.207" cx="116.25"/>
  <circle r="0.499" style="fill:#EC008C;" cy="-33.457" cx="109.25"/>
  <circle r="0.499" style="fill:#EC008C;" cy="-31.457" cx="104"/>
  <circle r="0.499" style="fill:#EC008C;" cy="-26.457" cx="98.25"/>
  <circle r="0.499" style="fill:#EC008C;" cy="-22.873" cx="92"/>
  <circle r="0.499" style="fill:#EC008C;" cy="-24.957" cx="85.5"/>
  <circle r="0.499" style="fill:#EC008C;" cy="-29.957" cx="85.25"/>
  <circle r="0.499" style="fill:#EC008C;" cy="-28.957" cx="91.75"/>
  <circle r="0.499" style="fill:#EC008C;" cy="-32.707" cx="97.75"/>
  <circle r="0.499" style="fill:#EC008C;" cy="-36.957" cx="94"/>
  <circle r="0.499" style="fill:#EC008C;" cy="-39.457" cx="88.25"/>
  <circle r="0.499" style="fill:#EC008C;" cy="-43.207" cx="81.75"/>
  <circle r="0.499" style="fill:#EC008C;" cy="-47.207" cx="77.75"/>
  <circle r="0.499" style="fill:#EC008C;" cy="-52.707" cx="73.75"/>
  <circle r="0.499" style="fill:#EC008C;" cy="-22.457" cx="104.25"/>
  <circle r="0.499" style="fill:#EC008C;" cy="-26.707" cx="107.75"/>
  <circle r="0.499" style="fill:#EC008C;" cy="-20.957" cx="109.5"/>
  <circle r="0.499" style="fill:#EC008C;" cy="-17.707" cx="114"/>
  <circle r="0.499" style="fill:#EC008C;" cy="-23.207" cx="114"/>
  <circle r="0.499" style="fill:#EC008C;" cy="-37.207" cx="103.75"/>
  <circle r="0.499" style="fill:#EC008C;" cy="-18.543" cx="87.25"/>
  <circle r="0.499" style="fill:#EC008C;" cy="-21" cx="82.543"/>
  <circle r="0.499" style="fill:#EC008C;" cy="-22.457" cx="74"/>
  <circle r="0.499" style="fill:#EC008C;" cy="-26.871" cx="71.5"/>
  <circle r="0.499" style="fill:#EC008C;" cy="-24.957" cx="64.75"/>
  <circle r="0.499" style="fill:#EC008C;" cy="-21.207" cx="59.75"/>
  <circle r="0.499" style="fill:#EC008C;" cy="-21.914" cx="54.043"/>
  <circle r="0.499" style="fill:#EC008C;" cy="-16.707" cx="48.75"/>
  <circle r="0.499" style="fill:#EC008C;" cy="-10.957" cx="46"/>
  <circle r="0.499" style="fill:#EC008C;" cy="-7.207" cx="41.5"/>
  <circle r="0.499" style="fill:#EC008C;" cy="-2.957" cx="48.25"/>
  <circle r="0.499" style="fill:#EC008C;" cy="-8.707" cx="52"/>
  <circle r="0.499" style="fill:#EC008C;" cy="-12.457" cx="57.75"/>
  <circle r="0.499" style="fill:#EC008C;" cy="-13.707" cx="52.667"/>
  <circle r="0.499" style="fill:#EC008C;" cy="-16.457" cx="63"/>
  <circle r="0.499" style="fill:#EC008C;" cy="-18.957" cx="66.5"/>
  <circle r="0.499" style="fill:#EC008C;" cy="-16.957" cx="78"/>
  <circle r="0.499" style="fill:#EC008C;" cy="-12.207" cx="89"/>
  <circle r="0.499" style="fill:#EC008C;" cy="-7.207" cx="95"/>
  <circle r="0.499" style="fill:#EC008C;" cy="-4.707" cx="101.365"/>
  <circle r="0.499" style="fill:#EC008C;" cy="-3.707" cx="91.5"/>
  <circle r="0.499" style="fill:#EC008C;" cy="-7.207" cx="85.75"/>
  <circle r="0.499" style="fill:#EC008C;" cy="-11.457" cx="81.25"/>
  <circle r="0.499" style="fill:#EC008C;" cy="-13.207" cx="75.25"/>
  <circle r="0.499" style="fill:#EC008C;" cy="-15.457" cx="70.25"/>
  <circle r="0.499" style="fill:#EC008C;" cy="-9.957" cx="66.5"/>
  <circle r="0.499" style="fill:#EC008C;" cy="-7.457" cx="60.25"/>
  <circle r="0.499" style="fill:#EC008C;" cy="-3.273" cx="56.587"/>
  <circle r="0.499" style="fill:#EC008C;" cy="-3.707" cx="62"/>
  <circle r="0.499" style="fill:#EC008C;" cy="-4.707" cx="69.5"/>
  <circle r="0.499" style="fill:#EC008C;" cy="-7.207" cx="77.5"/>
  <circle r="0.499" style="fill:#EC008C;" cy="-73.207" cx="70"/>
  <circle r="0.499" style="fill:#EC008C;" cy="-83.707" cx="81.25"/>
  <circle r="0.499" style="fill:#EC008C;" cy="-84.874" cx="74.666"/>
  <circle r="0.499" style="fill:#EC008C;" cy="-79.707" cx="85.25"/>
  <circle r="0.499" style="fill:#EC008C;" cy="-84.957" cx="90"/>
  <circle r="0.499" style="fill:#EC008C;" cy="-90.957" cx="93.75"/>
  <circle r="0.499" style="fill:#EC008C;" cy="-86.957" cx="101.75"/>
  <circle r="0.499" style="fill:#EC008C;" cy="-96.707" cx="97.75"/>
  <circle r="0.499" style="fill:#EC008C;" cy="-93.957" cx="101.25"/>
  <circle r="0.499" style="fill:#EC008C;" cy="-92.957" cx="106.75"/>
  <circle r="0.499" style="fill:#EC008C;" cy="-92.75" cx="111.793"/>
  <circle r="0.499" style="fill:#EC008C;" cy="-87.457" cx="111.25"/>
  <circle r="0.499" style="fill:#EC008C;" cy="-91.207" cx="119.25"/>
  <circle r="0.499" style="fill:#EC008C;" cy="-92.957" cx="124"/>
  <circle r="0.499" style="fill:#EC008C;" cy="-97.457" cx="130"/>
  <circle r="0.499" style="fill:#EC008C;" cy="-100.333" cx="136.543"/>
  <circle r="0.499" style="fill:#EC008C;" cy="-103.374" cx="142.667"/>
  <circle r="0.499" style="fill:#EC008C;" cy="-93.207" cx="139.5"/>
  <circle r="0.499" style="fill:#EC008C;" cy="-89.374" cx="142.667"/>
  <circle r="0.499" style="fill:#EC008C;" cy="-86.457" cx="138.25"/>
  <circle r="0.499" style="fill:#EC008C;" cy="-84.04" cx="142.667"/>
  <circle r="0.499" style="fill:#EC008C;" cy="-90.957" cx="131.5"/>
  <circle r="0.499" style="fill:#EC008C;" cy="-88.957" cx="128"/>
  <circle r="0.499" style="fill:#EC008C;" cy="-83.707" cx="125.333"/>
  <circle r="0.499" style="fill:#EC008C;" cy="-86.707" cx="121.75"/>
  <circle r="0.499" style="fill:#EC008C;" cy="-82.957" cx="117.75"/>
  <circle r="0.499" style="fill:#EC008C;" cy="-80.207" cx="112"/>
  <circle r="0.499" style="fill:#EC008C;" cy="-84.207" cx="106.25"/>
  <circle r="0.499" style="fill:#EC008C;" cy="-86.207" cx="97"/>
  <circle r="0.499" style="fill:#EC008C;" cy="-81.707" cx="92.75"/>
  <circle r="0.499" style="fill:#EC008C;" cy="-75.207" cx="87.75"/>
  <circle r="0.499" style="fill:#EC008C;" cy="-71.207" cx="85"/>
  <circle r="0.499" style="fill:#EC008C;" cy="-65.457" cx="82"/>
  <circle r="0.499" style="fill:#EC008C;" cy="-60.457" cx="88"/>
  <circle r="0.499" style="fill:#EC008C;" cy="-62.707" cx="91.333"/>
  <circle r="0.499" style="fill:#EC008C;" cy="-65.207" cx="96"/>
  <circle r="0.499" style="fill:#EC008C;" cy="-67.707" cx="89.75"/>
  <circle r="0.499" style="fill:#EC008C;" cy="-72.957" cx="92"/>
  <circle r="0.499" style="fill:#EC008C;" cy="-78.207" cx="95.25"/>
  <circle r="0.499" style="fill:#EC008C;" cy="-73.207" cx="101.75"/>
  <circle r="0.499" style="fill:#EC008C;" cy="-68.957" cx="97.5"/>
  <circle r="0.499" style="fill:#EC008C;" cy="-66.664" cx="105.707"/>
  <circle r="0.499" style="fill:#EC008C;" cy="-61.457" cx="100.75"/>
  <circle r="0.499" style="fill:#EC008C;" cy="-61.207" cx="107.75"/>
  <circle r="0.499" style="fill:#EC008C;" cy="-57.664" cx="104.957"/>
  <circle r="0.499" style="fill:#EC008C;" cy="-54.957" cx="111.25"/>
  <circle r="0.499" style="fill:#EC008C;" cy="-53.457" cx="117.25"/>
  <circle r="0.499" style="fill:#EC008C;" cy="-56.957" cx="124"/>
  <circle r="0.499" style="fill:#EC008C;" cy="-54.957" cx="130.25"/>
  <circle r="0.499" style="fill:#EC008C;" cy="-50.957" cx="136.75"/>
  <circle r="0.499" style="fill:#EC008C;" cy="-51.207" cx="141.5"/>
  <circle r="0.499" style="fill:#EC008C;" cy="-46.707" cx="142.75"/>
  <circle r="0.499" style="fill:#EC008C;" cy="-41.207" cx="139.75"/>
  <circle r="0.499" style="fill:#EC008C;" cy="-43.707" cx="132.333"/>
  <circle r="0.499" style="fill:#EC008C;" cy="-45.457" cx="135.75"/>
  <circle r="0.499" style="fill:#EC008C;" cy="-47.207" cx="128"/>
  <circle r="0.499" style="fill:#EC008C;" cy="-50.707" cx="123.25"/>
  <circle r="0.499" style="fill:#EC008C;" cy="-45.207" cx="120.25"/>
  <circle r="0.499" style="fill:#EC008C;" cy="-47.457" cx="113.75"/>
  <circle r="0.499" style="fill:#EC008C;" cy="-47.707" cx="109.5"/>
  <circle r="0.499" style="fill:#EC008C;" cy="-50.957" cx="104"/>
  <circle r="0.499" style="fill:#EC008C;" cy="-55.207" cx="98"/>
  <circle r="0.499" style="fill:#EC008C;" cy="-52.457" cx="92.25"/>
  <circle r="0.499" style="fill:#EC008C;" cy="-57.707" cx="94.333"/>
  <circle r="0.499" style="fill:#EC008C;" cy="-59.707" cx="81.5"/>
  <circle r="0.499" style="fill:#EC008C;" cy="-67.207" cx="73.75"/>
  <circle r="0.499" style="fill:#EC008C;" cy="-61.207" cx="73.25"/>
  <circle r="0.499" style="fill:#EC008C;" cy="-54.375" cx="69.666"/>
  <circle r="0.499" style="fill:#EC008C;" cy="-71.707" cx="76.25"/>
  <circle r="0.499" style="fill:#EC008C;" cy="-75.707" cx="79.666"/>
  <circle r="0.499" style="fill:#EC008C;" cy="-81.207" cx="102"/>
  <circle r="0.499" style="fill:#EC008C;" cy="-78.457" cx="105"/>
  <circle r="0.499" style="fill:#EC008C;" cy="-69.707" cx="110"/>
  <circle r="0.499" style="fill:#EC008C;" cy="-73.707" cx="114.75"/>
  <circle r="0.499" style="fill:#EC008C;" cy="-76.957" cx="117.5"/>
  <circle r="0.499" style="fill:#EC008C;" cy="-79.207" cx="121.75"/>
  <circle r="0.499" style="fill:#EC008C;" cy="-79.707" cx="129.75"/>
  <circle r="0.499" style="fill:#EC008C;" cy="-83.457" cx="133.75"/>
  <circle r="0.499" style="fill:#EC008C;" cy="-80.039" cx="138.298"/>
  <circle r="0.499" style="fill:#EC008C;" cy="-75.207" cx="136"/>
  <circle r="0.499" style="fill:#EC008C;" cy="-73.457" cx="143"/>
  <circle r="0.499" style="fill:#EC008C;" cy="-67.707" cx="141.75"/>
  <circle r="0.499" style="fill:#EC008C;" cy="-56.04" cx="143.333"/>
  <circle r="0.499" style="fill:#EC008C;" cy="-71.457" cx="132"/>
  <circle r="0.499" style="fill:#EC008C;" cy="-75.707" cx="125"/>
  <circle r="0.499" style="fill:#EC008C;" cy="-71.207" cx="121.5"/>
  <circle r="0.499" style="fill:#EC008C;" cy="-67.207" cx="116.25"/>
  <circle r="0.499" style="fill:#EC008C;" cy="-63.207" cx="111"/>
  <circle r="0.499" style="fill:#EC008C;" cy="-61.207" cx="117.75"/>
  <circle r="0.499" style="fill:#EC008C;" cy="-57.707" cx="114.333"/>
  <circle r="0.499" style="fill:#EC008C;" cy="-49.375" cx="90.333"/>
  <circle r="0.499" style="fill:#EC008C;" cy="-65.457" cx="123"/>
  <circle r="0.499" style="fill:#EC008C;" cy="-68.707" cx="127.75"/>
  <circle r="0.499" style="fill:#EC008C;" cy="-62.957" cx="132.75"/>
  <circle r="0.499" style="fill:#EC008C;" cy="-65.957" cx="136.25"/>
  <circle r="0.499" style="fill:#EC008C;" cy="-60.707" cx="128.5"/>
  <circle r="0.499" style="fill:#EC008C;" cy="-56.957" cx="135.5"/>
  <circle r="0.499" style="fill:#EC008C;" cy="-58.707" cx="140.25"/>
  <circle r="0.499" style="fill:#EC008C;" cy="-89.207" cx="82.25"/>
  <circle r="0.499" style="fill:#EC008C;" cy="-93.207" cx="89.25"/>
  <circle r="0.499" style="fill:#EC008C;" cy="-79.04" cx="71.666"/>
  <circle r="0.499" style="fill:#EC008C;" cy="-78.207" cx="65.333"/>
  <circle r="0.499" style="fill:#EC008C;" cy="-77.207" cx="45.5"/>
  <circle r="0.499" style="fill:#EC008C;" cy="-70.624" cx="52.167"/>
  <circle r="0.499" style="fill:#EC008C;" cy="-67.04" cx="33"/>
  <circle r="0.499" style="fill:#EC008C;" cy="-62.04" cx="32"/>
  <circle r="0.499" style="fill:#EC008C;" cy="-85.962" cx="68.774"/>
  <circle r="0.499" style="fill:#EC008C;" cy="-96.457" cx="75.75"/>
  <circle r="0.499" style="fill:#EC008C;" cy="-94.457" cx="70"/>
  <circle r="0.499" style="fill:#EC008C;" cy="-90.457" cx="66.25"/>
  <circle r="0.499" style="fill:#EC008C;" cy="-88.957" cx="60"/>
  <circle r="0.499" style="fill:#EC008C;" cy="-84.457" cx="55.75"/>
  <circle r="0.499" style="fill:#EC008C;" cy="-81.621" cx="50.75"/>
  <circle r="0.499" style="fill:#EC008C;" cy="-88.707" cx="50"/>
  <circle r="0.499" style="fill:#EC008C;" cy="-82.624" cx="41.167"/>
  <circle r="0.499" style="fill:#EC008C;" cy="-105.04" cx="78.333"/>
  <circle r="0.499" style="fill:#EC008C;" cy="-102.25" cx="72.793"/>
  <circle r="0.499" style="fill:#EC008C;" cy="-102.374" cx="66"/>
  <circle r="0.499" style="fill:#EC008C;" cy="-96.707" cx="64"/>
  <circle r="0.499" style="fill:#EC008C;" cy="-99" cx="68.959"/>
  <circle r="0.499" style="fill:#EC008C;" cy="-95.207" cx="58.25"/>
  <circle r="0.499" style="fill:#EC008C;" cy="-91.04" cx="54.667"/>
  <circle r="0.499" style="fill:#EC008C;" cy="-101.04" cx="60.667"/>
  <circle r="0.499" style="fill:#EC008C;" cy="-99.36" cx="55.333"/>
  <circle r="0.499" style="fill:#EC008C;" cy="-95.04" cx="50"/>
  <circle r="0.499" style="fill:#EC008C;" cy="-92.457" cx="43.5"/>
  <circle r="0.499" style="fill:#EC008C;" cy="-88.374" cx="37.667"/>
  <circle r="0.499" style="fill:#EC008C;" cy="-91.124" cx="30.667"/>
  <circle r="0.499" style="fill:#EC008C;" cy="-90.207" cx="21"/>
  <circle r="0.499" style="fill:#EC008C;" cy="-93.457" cx="16"/>
  <circle r="0.499" style="fill:#EC008C;" cy="-97.707" cx="8"/>
  <circle r="0.499" style="fill:#EC008C;" cy="-93.04" cx="3"/>
  <circle r="0.499" style="fill:#EC008C;" cy="-91.207" cx="7.75"/>
  <circle r="0.499" style="fill:#EC008C;" cy="-86.957" cx="5.75"/>
  <circle r="0.499" style="fill:#EC008C;" cy="-86.957" cx="13.75"/>
  <circle r="0.499" style="fill:#EC008C;" cy="-85.207" cx="20"/>
  <circle r="0.499" style="fill:#EC008C;" cy="-82.957" cx="26"/>
  <circle r="0.499" style="fill:#EC008C;" cy="-84.54" cx="34.333"/>
  <circle r="0.499" style="fill:#EC008C;" cy="-94.04" cx="38"/>
  <circle r="0.499" style="fill:#EC008C;" cy="-99.457" cx="45"/>
  <circle r="0.499" style="fill:#EC008C;" cy="-100.707" cx="38.333"/>
  <circle r="0.499" style="fill:#EC008C;" cy="-103.207" cx="42.5"/>
  <circle r="0.499" style="fill:#EC008C;" cy="-100.374" cx="32.667"/>
  <circle r="0.499" style="fill:#EC008C;" cy="-101.04" cx="26"/>
  <circle r="0.499" style="fill:#EC008C;" cy="-103.374" cx="8"/>
  <circle r="0.499" style="fill:#EC008C;" cy="-100.374" cx="2"/>
  <circle r="0.499" style="fill:#EC008C;" cy="-130.707" cx="137.333"/>
  <circle r="0.499" style="fill:#EC008C;" cy="-136.374" cx="136.667"/>
  <circle r="0.499" style="fill:#EC008C;" cy="-134.04" cx="143"/>
  <circle r="0.499" style="fill:#EC008C;" cy="-143.707" cx="131"/>
  <circle r="0.499" style="fill:#EC008C;" cy="-141.374" cx="137.333"/>
  <circle r="0.499" style="fill:#EC008C;" cy="-140.374" cx="143"/>
  <circle r="0.499" style="fill:#EC008C;" cy="-2.707" cx="75.801"/>
  <circle r="0.499" style="fill:#EC008C;" cy="-3.273" cx="83.702"/>
  <circle r="0.499" style="fill:#EC008C;" cy="-119.957" cx="54"/>
  <circle r="0.499" style="fill:#EC008C;" cy="-124.333" cx="51.626"/>
  <circle r="0.499" style="fill:#EC008C;" cy="-143.04" cx="5.333"/>
 </g>
</svg>
