<?xml version="1.0"?>
<!-- Converted with SVG Converter - Version 0.9.5 (Compiled Fri Feb 21 09:53:38 2020) - Copyright (C) 2011 Nokia -->
<svg xmlns="http://www.w3.org/2000/svg" xml:space="preserve" viewBox="0 -144 144 144" baseProfile="tiny" height="144" version="1.1" width="144" x="0px" xmlns:xlink="http://www.w3.org/1999/xlink" y="0px">
 <g>
  <rect height="144" width="144" y="-144" style="fill:none;"/>
  <circle cx="11.959" cy="-142" r="0.499" style="fill:#ED1B2E;"/>
  <circle cx="17.333" cy="-140.79" r="0.499" style="fill:#ED1B2E;"/>
  <circle cx="25.667" cy="-142.707" r="0.499" style="fill:#ED1B2E;"/>
  <circle cx="15" cy="-136.04" r="0.499" style="fill:#ED1B2E;"/>
  <circle cx="9" cy="-138.04" r="0.499" style="fill:#ED1B2E;"/>
  <circle cx="1.333" cy="-136.04" r="0.499" style="fill:#ED1B2E;"/>
  <circle cx="7.333" cy="-132.374" r="0.499" style="fill:#ED1B2E;"/>
  <circle cx="12.667" cy="-130.04" r="0.499" style="fill:#ED1B2E;"/>
  <circle cx="19" cy="-127.707" r="0.499" style="fill:#ED1B2E;"/>
  <circle cx="22" cy="-135.374" r="0.499" style="fill:#ED1B2E;"/>
  <circle cx="28" cy="-135.04" r="0.499" style="fill:#ED1B2E;"/>
  <circle cx="32.333" cy="-140.04" r="0.499" style="fill:#ED1B2E;"/>
  <circle cx="38.667" cy="-141.707" r="0.499" style="fill:#ED1B2E;"/>
  <circle cx="42.667" cy="-139.374" r="0.499" style="fill:#ED1B2E;"/>
  <circle cx="49.5" cy="-138.957" r="0.499" style="fill:#ED1B2E;"/>
  <circle cx="53" cy="-142.707" r="0.499" style="fill:#ED1B2E;"/>
  <circle cx="56.667" cy="-138.04" r="0.499" style="fill:#ED1B2E;"/>
  <circle cx="52.667" cy="-133.707" r="0.499" style="fill:#ED1B2E;"/>
  <circle cx="49" cy="-127.707" r="0.499" style="fill:#ED1B2E;"/>
  <circle cx="45.333" cy="-121.707" r="0.499" style="fill:#ED1B2E;"/>
  <circle cx="42.601" cy="-125.471" r="0.499" style="fill:#ED1B2E;"/>
  <circle cx="45.75" cy="-133.707" r="0.499" style="fill:#ED1B2E;"/>
  <circle cx="44" cy="-116.207" r="0.499" style="fill:#ED1B2E;"/>
  <circle cx="39.667" cy="-131.04" r="0.499" style="fill:#ED1B2E;"/>
  <circle cx="36" cy="-125.707" r="0.499" style="fill:#ED1B2E;"/>
  <circle cx="30.667" cy="-126.04" r="0.499" style="fill:#ED1B2E;"/>
  <circle cx="29" cy="-122.04" r="0.499" style="fill:#ED1B2E;"/>
  <circle cx="23.333" cy="-123.707" r="0.499" style="fill:#ED1B2E;"/>
  <circle cx="23" cy="-117.374" r="0.499" style="fill:#ED1B2E;"/>
  <circle cx="21" cy="-110.04" r="0.499" style="fill:#ED1B2E;"/>
  <circle cx="19.333" cy="-103.707" r="0.499" style="fill:#ED1B2E;"/>
  <circle cx="19.667" cy="-99.04" r="0.499" style="fill:#ED1B2E;"/>
  <circle cx="13.333" cy="-97.707" r="0.499" style="fill:#ED1B2E;"/>
  <circle cx="14" cy="-103.707" r="0.499" style="fill:#ED1B2E;"/>
  <circle cx="15" cy="-109.374" r="0.499" style="fill:#ED1B2E;"/>
  <circle cx="15.667" cy="-116.374" r="0.499" style="fill:#ED1B2E;"/>
  <circle cx="17" cy="-121.707" r="0.499" style="fill:#ED1B2E;"/>
  <circle cx="10.667" cy="-122.707" r="0.499" style="fill:#ED1B2E;"/>
  <circle cx="5.333" cy="-126.707" r="0.499" style="fill:#ED1B2E;"/>
  <circle cx="1.666" cy="-129.04" r="0.499" style="fill:#ED1B2E;"/>
  <circle cx="2.667" cy="-119.374" r="0.499" style="fill:#ED1B2E;"/>
  <circle cx="8.667" cy="-115.707" r="0.499" style="fill:#ED1B2E;"/>
  <circle cx="6.667" cy="-109.707" r="0.499" style="fill:#ED1B2E;"/>
  <circle cx="3" cy="-107.707" r="0.499" style="fill:#ED1B2E;"/>
  <circle cx="2.333" cy="-113.707" r="0.499" style="fill:#ED1B2E;"/>
  <circle cx="26.667" cy="-113.707" r="0.499" style="fill:#ED1B2E;"/>
  <circle cx="34.667" cy="-119.374" r="0.499" style="fill:#ED1B2E;"/>
  <circle cx="39" cy="-119.374" r="0.499" style="fill:#ED1B2E;"/>
  <circle cx="38" cy="-111.707" r="0.499" style="fill:#ED1B2E;"/>
  <circle cx="33.75" cy="-113.207" r="0.499" style="fill:#ED1B2E;"/>
  <circle cx="37.667" cy="-107.374" r="0.499" style="fill:#ED1B2E;"/>
  <circle cx="31" cy="-105.707" r="0.499" style="fill:#ED1B2E;"/>
  <circle cx="26.333" cy="-108.04" r="0.499" style="fill:#ED1B2E;"/>
  <circle cx="26" cy="-129.707" r="0.499" style="fill:#ED1B2E;"/>
  <circle cx="33.333" cy="-131.04" r="0.499" style="fill:#ED1B2E;"/>
  <circle cx="36" cy="-135.374" r="0.499" style="fill:#ED1B2E;"/>
  <circle cx="62" cy="-141.374" r="0.499" style="fill:#ED1B2E;"/>
  <circle cx="67.666" cy="-142.374" r="0.499" style="fill:#ED1B2E;"/>
  <circle cx="69" cy="-137.707" r="0.499" style="fill:#ED1B2E;"/>
  <circle cx="74" cy="-142.082" r="0.499" style="fill:#ED1B2E;"/>
  <circle cx="80.666" cy="-142.374" r="0.499" style="fill:#ED1B2E;"/>
  <circle cx="64.25" cy="-133.707" r="0.499" style="fill:#ED1B2E;"/>
  <circle cx="58" cy="-133.707" r="0.499" style="fill:#ED1B2E;"/>
  <circle cx="55.667" cy="-122.707" r="0.499" style="fill:#ED1B2E;"/>
  <circle cx="59.333" cy="-128.457" r="0.499" style="fill:#ED1B2E;"/>
  <circle cx="55" cy="-129.707" r="0.499" style="fill:#ED1B2E;"/>
  <circle cx="68.333" cy="-131.04" r="0.499" style="fill:#ED1B2E;"/>
  <circle cx="74.333" cy="-134.707" r="0.499" style="fill:#ED1B2E;"/>
  <circle cx="81" cy="-138.04" r="0.499" style="fill:#ED1B2E;"/>
  <circle cx="86.666" cy="-140.374" r="0.499" style="fill:#ED1B2E;"/>
  <circle cx="93" cy="-142.374" r="0.499" style="fill:#ED1B2E;"/>
  <circle cx="100.666" cy="-142.04" r="0.499" style="fill:#ED1B2E;"/>
  <circle cx="92.333" cy="-135.457" r="0.499" style="fill:#ED1B2E;"/>
  <circle cx="86.043" cy="-134.25" r="0.499" style="fill:#ED1B2E;"/>
  <circle cx="81.667" cy="-129.124" r="0.499" style="fill:#ED1B2E;"/>
  <circle cx="76.666" cy="-130.707" r="0.499" style="fill:#ED1B2E;"/>
  <circle cx="75.5" cy="-125.707" r="0.499" style="fill:#ED1B2E;"/>
  <circle cx="69" cy="-121.457" r="0.499" style="fill:#ED1B2E;"/>
  <circle cx="62.667" cy="-119.707" r="0.499" style="fill:#ED1B2E;"/>
  <circle cx="56.667" cy="-117.04" r="0.499" style="fill:#ED1B2E;"/>
  <circle cx="67" cy="-115.454" r="0.499" style="fill:#ED1B2E;"/>
  <circle cx="59.333" cy="-114.374" r="0.499" style="fill:#ED1B2E;"/>
  <circle cx="55.333" cy="-109.707" r="0.499" style="fill:#ED1B2E;"/>
  <circle cx="50.333" cy="-114.04" r="0.499" style="fill:#ED1B2E;"/>
  <circle cx="50" cy="-107.04" r="0.499" style="fill:#ED1B2E;"/>
  <circle cx="46" cy="-109.207" r="0.499" style="fill:#ED1B2E;"/>
  <circle cx="49.333" cy="-102.374" r="0.499" style="fill:#ED1B2E;"/>
  <circle cx="55" cy="-103.707" r="0.499" style="fill:#ED1B2E;"/>
  <circle cx="61.707" cy="-106.414" r="0.499" style="fill:#ED1B2E;"/>
  <circle cx="66" cy="-108.04" r="0.499" style="fill:#ED1B2E;"/>
  <circle cx="64.333" cy="-111.374" r="0.499" style="fill:#ED1B2E;"/>
  <circle cx="71.333" cy="-109.04" r="0.499" style="fill:#ED1B2E;"/>
  <circle cx="72.333" cy="-114.04" r="0.499" style="fill:#ED1B2E;"/>
  <circle cx="75.333" cy="-118.707" r="0.499" style="fill:#ED1B2E;"/>
  <circle cx="80.666" cy="-122.374" r="0.499" style="fill:#ED1B2E;"/>
  <circle cx="86" cy="-125.04" r="0.499" style="fill:#ED1B2E;"/>
  <circle cx="88.626" cy="-129.748" r="0.499" style="fill:#ED1B2E;"/>
  <circle cx="96.166" cy="-131.624" r="0.499" style="fill:#ED1B2E;"/>
  <circle cx="98.166" cy="-137.624" r="0.499" style="fill:#ED1B2E;"/>
  <circle cx="106.333" cy="-141.04" r="0.499" style="fill:#ED1B2E;"/>
  <circle cx="113" cy="-142.707" r="0.499" style="fill:#ED1B2E;"/>
  <circle cx="124.333" cy="-142.707" r="0.499" style="fill:#ED1B2E;"/>
  <circle cx="118" cy="-140.04" r="0.499" style="fill:#ED1B2E;"/>
  <circle cx="115" cy="-134.124" r="0.499" style="fill:#ED1B2E;"/>
  <circle cx="108.25" cy="-133.457" r="0.499" style="fill:#ED1B2E;"/>
  <circle cx="128.333" cy="-123.457" r="0.499" style="fill:#ED1B2E;"/>
  <circle cx="101.666" cy="-130.624" r="0.499" style="fill:#ED1B2E;"/>
  <circle cx="64.333" cy="-126.124" r="0.499" style="fill:#ED1B2E;"/>
  <circle cx="70.333" cy="-127.04" r="0.499" style="fill:#ED1B2E;"/>
  <circle cx="104.666" cy="-136.374" r="0.499" style="fill:#ED1B2E;"/>
  <circle cx="91.374" cy="-124.414" r="0.499" style="fill:#ED1B2E;"/>
  <circle cx="86.666" cy="-119.54" r="0.5" style="fill:#ED1B2E;"/>
  <circle cx="81.333" cy="-115.707" r="0.499" style="fill:#ED1B2E;"/>
  <circle cx="77.333" cy="-110.04" r="0.499" style="fill:#ED1B2E;"/>
  <circle cx="83.667" cy="-106.79" r="0.499" style="fill:#ED1B2E;"/>
  <circle cx="86" cy="-112.04" r="0.499" style="fill:#ED1B2E;"/>
  <circle cx="97" cy="-120.124" r="0.499" style="fill:#ED1B2E;"/>
  <circle cx="100.666" cy="-125.121" r="0.499" style="fill:#ED1B2E;"/>
  <circle cx="96.333" cy="-127.707" r="0.499" style="fill:#ED1B2E;"/>
  <circle cx="106.666" cy="-127.789" r="0.499" style="fill:#ED1B2E;"/>
  <circle cx="113" cy="-128.79" r="0.499" style="fill:#ED1B2E;"/>
  <circle cx="119" cy="-132.04" r="0.499" style="fill:#ED1B2E;"/>
  <circle cx="122.666" cy="-137.04" r="0.499" style="fill:#ED1B2E;"/>
  <circle cx="130.667" cy="-135.707" r="0.499" style="fill:#ED1B2E;"/>
  <circle cx="127.666" cy="-138.374" r="0.499" style="fill:#ED1B2E;"/>
  <circle cx="125" cy="-132.374" r="0.499" style="fill:#ED1B2E;"/>
  <circle cx="119.333" cy="-127.707" r="0.499" style="fill:#ED1B2E;"/>
  <circle cx="113" cy="-121.707" r="0.499" style="fill:#ED1B2E;"/>
  <circle cx="106.666" cy="-122.04" r="0.499" style="fill:#ED1B2E;"/>
  <circle cx="94.666" cy="-115.707" r="0.499" style="fill:#ED1B2E;"/>
  <circle cx="94.333" cy="-109.04" r="0.499" style="fill:#ED1B2E;"/>
  <circle cx="89.5" cy="-110.207" r="0.499" style="fill:#ED1B2E;"/>
  <circle cx="89.75" cy="-102.707" r="0.499" style="fill:#ED1B2E;"/>
  <circle cx="130.333" cy="-130.374" r="0.499" style="fill:#ED1B2E;"/>
  <circle cx="124.626" cy="-126.414" r="0.499" style="fill:#ED1B2E;"/>
  <circle cx="120" cy="-121.124" r="0.499" style="fill:#ED1B2E;"/>
  <circle cx="114.333" cy="-116.707" r="0.499" style="fill:#ED1B2E;"/>
  <circle cx="109" cy="-116.374" r="0.499" style="fill:#ED1B2E;"/>
  <circle cx="105" cy="-112.04" r="0.499" style="fill:#ED1B2E;"/>
  <circle cx="99.666" cy="-106.707" r="0.499" style="fill:#ED1B2E;"/>
  <circle cx="105.333" cy="-105.707" r="0.499" style="fill:#ED1B2E;"/>
  <circle cx="109.666" cy="-110.04" r="0.499" style="fill:#ED1B2E;"/>
  <circle cx="115" cy="-110.374" r="0.499" style="fill:#ED1B2E;"/>
  <circle cx="124" cy="-118.124" r="0.499" style="fill:#ED1B2E;"/>
  <circle cx="135.667" cy="-124.457" r="0.499" style="fill:#ED1B2E;"/>
  <circle cx="132" cy="-120.04" r="0.499" style="fill:#ED1B2E;"/>
  <circle cx="143" cy="-124.374" r="0.499" style="fill:#ED1B2E;"/>
  <circle cx="137" cy="-120.04" r="0.499" style="fill:#ED1B2E;"/>
  <circle cx="133" cy="-115.707" r="0.499" style="fill:#ED1B2E;"/>
  <circle cx="139" cy="-113.707" r="0.499" style="fill:#ED1B2E;"/>
  <circle cx="142" cy="-118.04" r="0.499" style="fill:#ED1B2E;"/>
  <circle cx="126.666" cy="-113.707" r="0.499" style="fill:#ED1B2E;"/>
  <circle cx="121.25" cy="-111.957" r="0.499" style="fill:#ED1B2E;"/>
  <circle cx="122.5" cy="-107.707" r="0.499" style="fill:#ED1B2E;"/>
  <circle cx="117" cy="-106.207" r="0.499" style="fill:#ED1B2E;"/>
  <circle cx="128.667" cy="-109.04" r="0.499" style="fill:#ED1B2E;"/>
  <circle cx="135" cy="-108.04" r="0.499" style="fill:#ED1B2E;"/>
  <circle cx="141.333" cy="-108.04" r="0.499" style="fill:#ED1B2E;"/>
  <circle cx="137" cy="-104.374" r="0.499" style="fill:#ED1B2E;"/>
  <circle cx="131" cy="-104.04" r="0.499" style="fill:#ED1B2E;"/>
  <circle cx="125" cy="-101.707" r="0.499" style="fill:#ED1B2E;"/>
  <circle cx="118.333" cy="-101.707" r="0.499" style="fill:#ED1B2E;"/>
  <circle cx="120.666" cy="-97.707" r="0.499" style="fill:#ED1B2E;"/>
  <circle cx="134" cy="-94.707" r="0.499" style="fill:#ED1B2E;"/>
  <circle cx="103" cy="-116.454" r="0.499" style="fill:#ED1B2E;"/>
  <circle cx="109.666" cy="-137.707" r="0.499" style="fill:#ED1B2E;"/>
  <circle cx="115.5" cy="-94.707" r="0.499" style="fill:#ED1B2E;"/>
  <circle cx="111.5" cy="-103.707" r="0.499" style="fill:#ED1B2E;"/>
  <circle cx="105.5" cy="-98.957" r="0.499" style="fill:#ED1B2E;"/>
  <circle cx="109.333" cy="-96.04" r="0.499" style="fill:#ED1B2E;"/>
  <circle cx="114" cy="-99.707" r="0.499" style="fill:#ED1B2E;"/>
  <circle cx="100.666" cy="-100.374" r="0.499" style="fill:#ED1B2E;"/>
  <circle cx="94.333" cy="-102.04" r="0.499" style="fill:#ED1B2E;"/>
  <circle cx="88.666" cy="-98.04" r="0.499" style="fill:#ED1B2E;"/>
  <circle cx="82.626" cy="-101.082" r="0.499" style="fill:#ED1B2E;"/>
  <circle cx="80.25" cy="-96.707" r="0.499" style="fill:#ED1B2E;"/>
  <circle cx="83.666" cy="-92.707" r="0.499" style="fill:#ED1B2E;"/>
  <circle cx="74.334" cy="-90.207" r="0.499" style="fill:#ED1B2E;"/>
  <circle cx="62.333" cy="-82.874" r="0.499" style="fill:#ED1B2E;"/>
  <circle cx="54" cy="-76.957" r="0.499" style="fill:#ED1B2E;"/>
  <circle cx="37.667" cy="-76.624" r="0.499" style="fill:#ED1B2E;"/>
  <circle cx="45.667" cy="-84.789" r="0.499" style="fill:#ED1B2E;"/>
  <circle cx="28.333" cy="-85.54" r="0.5" style="fill:#ED1B2E;"/>
  <circle cx="23.333" cy="-92.874" r="0.499" style="fill:#ED1B2E;"/>
  <circle cx="47.167" cy="-71.624" r="0.499" style="fill:#ED1B2E;"/>
  <circle cx="43" cy="-64.707" r="0.499" style="fill:#ED1B2E;"/>
  <circle cx="48.25" cy="-60.457" r="0.499" style="fill:#ED1B2E;"/>
  <circle cx="38" cy="-63.79" r="0.499" style="fill:#ED1B2E;"/>
  <circle cx="26.667" cy="-33.707" r="0.499" style="fill:#ED1B2E;"/>
  <circle cx="36.333" cy="-59.121" r="0.499" style="fill:#ED1B2E;"/>
  <circle cx="27" cy="-66.207" r="0.499" style="fill:#ED1B2E;"/>
  <circle cx="19.5" cy="-70.207" r="0.499" style="fill:#ED1B2E;"/>
  <circle cx="20.5" cy="-78.707" r="0.499" style="fill:#ED1B2E;"/>
  <circle cx="9.75" cy="-75.207" r="0.499" style="fill:#ED1B2E;"/>
  <circle cx="3.25" cy="-78.207" r="0.499" style="fill:#ED1B2E;"/>
  <circle cx="10.75" cy="-80.707" r="0.499" style="fill:#ED1B2E;"/>
  <circle cx="15" cy="-77.457" r="0.499" style="fill:#ED1B2E;"/>
  <circle cx="25.707" cy="-72.664" r="0.499" style="fill:#ED1B2E;"/>
  <circle cx="30.75" cy="-73.957" r="0.499" style="fill:#ED1B2E;"/>
  <circle cx="26.75" cy="-78.457" r="0.499" style="fill:#ED1B2E;"/>
  <circle cx="33" cy="-78.707" r="0.499" style="fill:#ED1B2E;"/>
  <circle cx="34" cy="-70.707" r="0.499" style="fill:#ED1B2E;"/>
  <circle cx="40.333" cy="-71.124" r="0.499" style="fill:#ED1B2E;"/>
  <circle cx="49.25" cy="-64.207" r="0.499" style="fill:#ED1B2E;"/>
  <circle cx="58" cy="-72.871" r="0.499" style="fill:#ED1B2E;"/>
  <circle cx="63.75" cy="-67.957" r="0.499" style="fill:#ED1B2E;"/>
  <circle cx="61.75" cy="-63.957" r="0.499" style="fill:#ED1B2E;"/>
  <circle cx="66.75" cy="-62.457" r="0.499" style="fill:#ED1B2E;"/>
  <circle cx="67.5" cy="-58.207" r="0.499" style="fill:#ED1B2E;"/>
  <circle cx="65.25" cy="-51.957" r="0.499" style="fill:#ED1B2E;"/>
  <circle cx="64.5" cy="-46.707" r="0.499" style="fill:#ED1B2E;"/>
  <circle cx="67.75" cy="-39.457" r="0.499" style="fill:#ED1B2E;"/>
  <circle cx="72" cy="-45.371" r="0.499" style="fill:#ED1B2E;"/>
  <circle cx="76.25" cy="-39.707" r="0.499" style="fill:#ED1B2E;"/>
  <circle cx="72.25" cy="-34.707" r="0.499" style="fill:#ED1B2E;"/>
  <circle cx="85" cy="-34.207" r="0.499" style="fill:#ED1B2E;"/>
  <circle cx="78.75" cy="-34.457" r="0.499" style="fill:#ED1B2E;"/>
  <circle cx="74.75" cy="-27.957" r="0.499" style="fill:#ED1B2E;"/>
  <circle cx="67" cy="-29.957" r="0.499" style="fill:#ED1B2E;"/>
  <circle cx="64.75" cy="-35.707" r="0.499" style="fill:#ED1B2E;"/>
  <circle cx="61.75" cy="-40.207" r="0.499" style="fill:#ED1B2E;"/>
  <circle cx="59.5" cy="-45.957" r="0.499" style="fill:#ED1B2E;"/>
  <circle cx="58" cy="-51.375" r="0.499" style="fill:#ED1B2E;"/>
  <circle cx="61.25" cy="-56.457" r="0.499" style="fill:#ED1B2E;"/>
  <circle cx="54.333" cy="-61.375" r="0.499" style="fill:#ED1B2E;"/>
  <circle cx="56" cy="-67.79" r="0.499" style="fill:#ED1B2E;"/>
  <circle cx="55.5" cy="-57.207" r="0.499" style="fill:#ED1B2E;"/>
  <circle cx="50.75" cy="-54.207" r="0.499" style="fill:#ED1B2E;"/>
  <circle cx="52.75" cy="-48.207" r="0.499" style="fill:#ED1B2E;"/>
  <circle cx="53" cy="-42.04" r="0.499" style="fill:#ED1B2E;"/>
  <circle cx="55.667" cy="-36.375" r="0.499" style="fill:#ED1B2E;"/>
  <circle cx="58" cy="-32.707" r="0.499" style="fill:#ED1B2E;"/>
  <circle cx="60.25" cy="-28.957" r="0.499" style="fill:#ED1B2E;"/>
  <circle cx="57.5" cy="-24.457" r="0.499" style="fill:#ED1B2E;"/>
  <circle cx="50" cy="-24.707" r="0.499" style="fill:#ED1B2E;"/>
  <circle cx="45" cy="-29.957" r="0.499" style="fill:#ED1B2E;"/>
  <circle cx="41" cy="-25.957" r="0.499" style="fill:#ED1B2E;"/>
  <circle cx="98.666" cy="-112.374" r="0.499" style="fill:#ED1B2E;"/>
  <circle cx="34.5" cy="-16.957" r="0.499" style="fill:#ED1B2E;"/>
  <circle cx="40.75" cy="-18.207" r="0.499" style="fill:#ED1B2E;"/>
  <circle cx="42.667" cy="-13.707" r="0.499" style="fill:#ED1B2E;"/>
  <circle cx="46.5" cy="-19.957" r="0.499" style="fill:#ED1B2E;"/>
  <circle cx="37" cy="-12.123" r="0.499" style="fill:#ED1B2E;"/>
  <circle cx="32.5" cy="-4.207" r="0.499" style="fill:#ED1B2E;"/>
  <circle cx="29.667" cy="-9.123" r="0.499" style="fill:#ED1B2E;"/>
  <circle cx="23" cy="-4.207" r="0.499" style="fill:#ED1B2E;"/>
  <circle cx="20.043" cy="-8.664" r="0.499" style="fill:#ED1B2E;"/>
  <circle cx="25" cy="-11.957" r="0.499" style="fill:#ED1B2E;"/>
  <circle cx="27" cy="-17.707" r="0.499" style="fill:#ED1B2E;"/>
  <circle cx="29" cy="-14.373" r="0.499" style="fill:#ED1B2E;"/>
  <circle cx="35.667" cy="-6.373" r="0.499" style="fill:#ED1B2E;"/>
  <circle cx="39" cy="-2.041" r="0.499" style="fill:#ED1B2E;"/>
  <circle cx="17.5" cy="-1.207" r="0.499" style="fill:#ED1B2E;"/>
  <circle cx="28" cy="-1.84" r="0.499" style="fill:#ED1B2E;"/>
  <circle cx="19" cy="-22.207" r="0.499" style="fill:#ED1B2E;"/>
  <circle cx="22" cy="-17.957" r="0.499" style="fill:#ED1B2E;"/>
  <circle cx="14.75" cy="-17.957" r="0.499" style="fill:#ED1B2E;"/>
  <circle cx="9.5" cy="-19.707" r="0.499" style="fill:#ED1B2E;"/>
  <circle cx="4.5" cy="-16.457" r="0.499" style="fill:#ED1B2E;"/>
  <circle cx="8.75" cy="-12.207" r="0.499" style="fill:#ED1B2E;"/>
  <circle cx="16.25" cy="-12.207" r="0.499" style="fill:#ED1B2E;"/>
  <circle cx="14.5" cy="-6.207" r="0.499" style="fill:#ED1B2E;"/>
  <circle cx="9" cy="-5.957" r="0.499" style="fill:#ED1B2E;"/>
  <circle cx="4.5" cy="-8.457" r="0.499" style="fill:#ED1B2E;"/>
  <circle cx="1" cy="-4.207" r="0.499" style="fill:#ED1B2E;"/>
  <circle cx="7.27" cy="-1.59" r="0.499" style="fill:#ED1B2E;"/>
  <circle cx="30" cy="-95.207" r="0.499" style="fill:#ED1B2E;"/>
  <circle cx="26.667" cy="-24.124" r="0.5" style="fill:#ED1B2E;"/>
  <circle cx="22.333" cy="-27.707" r="0.499" style="fill:#ED1B2E;"/>
  <circle cx="19" cy="-43.707" r="0.499" style="fill:#ED1B2E;"/>
  <circle cx="19" cy="-51.375" r="0.499" style="fill:#ED1B2E;"/>
  <circle cx="28.333" cy="-29.375" r="0.499" style="fill:#ED1B2E;"/>
  <circle cx="33" cy="-23.457" r="0.499" style="fill:#ED1B2E;"/>
  <circle cx="31.333" cy="-37.375" r="0.499" style="fill:#ED1B2E;"/>
  <circle cx="42.333" cy="-23.041" r="0.499" style="fill:#ED1B2E;"/>
  <circle cx="37.333" cy="-33.375" r="0.499" style="fill:#ED1B2E;"/>
  <circle cx="42.75" cy="-35.957" r="0.499" style="fill:#ED1B2E;"/>
  <circle cx="42" cy="-42.457" r="0.499" style="fill:#ED1B2E;"/>
  <circle cx="31.167" cy="-43.625" r="0.499" style="fill:#ED1B2E;"/>
  <circle cx="36.75" cy="-38.207" r="0.499" style="fill:#ED1B2E;"/>
  <circle cx="34.667" cy="-29.375" r="0.499" style="fill:#ED1B2E;"/>
  <circle cx="30.167" cy="-50.125" r="0.499" style="fill:#ED1B2E;"/>
  <circle cx="36" cy="-45.457" r="0.499" style="fill:#ED1B2E;"/>
  <circle cx="41.333" cy="-50.457" r="0.499" style="fill:#ED1B2E;"/>
  <circle cx="46.75" cy="-45.371" r="0.499" style="fill:#ED1B2E;"/>
  <circle cx="46.75" cy="-50.207" r="0.499" style="fill:#ED1B2E;"/>
  <circle cx="42.5" cy="-57.371" r="0.499" style="fill:#ED1B2E;"/>
  <circle cx="36" cy="-54.207" r="0.499" style="fill:#ED1B2E;"/>
  <circle cx="30.5" cy="-56.207" r="0.499" style="fill:#ED1B2E;"/>
  <circle cx="25.5" cy="-60.664" r="0.499" style="fill:#ED1B2E;"/>
  <circle cx="21" cy="-63.957" r="0.499" style="fill:#ED1B2E;"/>
  <circle cx="13.5" cy="-64.207" r="0.499" style="fill:#ED1B2E;"/>
  <circle cx="14" cy="-68.707" r="0.499" style="fill:#ED1B2E;"/>
  <circle cx="9.25" cy="-68.207" r="0.499" style="fill:#ED1B2E;"/>
  <circle cx="3" cy="-70.457" r="0.499" style="fill:#ED1B2E;"/>
  <circle cx="5" cy="-64.207" r="0.499" style="fill:#ED1B2E;"/>
  <circle cx="7" cy="-59.957" r="0.499" style="fill:#ED1B2E;"/>
  <circle cx="10.5" cy="-53.957" r="0.499" style="fill:#ED1B2E;"/>
  <circle cx="14.25" cy="-49.957" r="0.499" style="fill:#ED1B2E;"/>
  <circle cx="24.75" cy="-44.207" r="0.499" style="fill:#ED1B2E;"/>
  <circle cx="25" cy="-38.207" r="0.499" style="fill:#ED1B2E;"/>
  <circle cx="19.543" cy="-39" r="0.499" style="fill:#ED1B2E;"/>
  <circle cx="14.75" cy="-41.957" r="0.499" style="fill:#ED1B2E;"/>
  <circle cx="11" cy="-45.957" r="0.499" style="fill:#ED1B2E;"/>
  <circle cx="6.75" cy="-49.957" r="0.499" style="fill:#ED1B2E;"/>
  <circle cx="3" cy="-53.957" r="0.499" style="fill:#ED1B2E;"/>
  <circle cx="14.75" cy="-58.207" r="0.499" style="fill:#ED1B2E;"/>
  <circle cx="20" cy="-58.04" r="0.499" style="fill:#ED1B2E;"/>
  <circle cx="24.333" cy="-48.707" r="0.499" style="fill:#ED1B2E;"/>
  <circle cx="24.667" cy="-54.375" r="0.499" style="fill:#ED1B2E;"/>
  <circle cx="14.793" cy="-32.25" r="0.499" style="fill:#ED1B2E;"/>
  <circle cx="9" cy="-29.707" r="0.499" style="fill:#ED1B2E;"/>
  <circle cx="5" cy="-23.707" r="0.499" style="fill:#ED1B2E;"/>
  <circle cx="1.317" cy="-26.207" r="0.499" style="fill:#ED1B2E;"/>
  <circle cx="12.043" cy="-26.664" r="0.499" style="fill:#ED1B2E;"/>
  <circle cx="18" cy="-27.457" r="0.499" style="fill:#ED1B2E;"/>
  <circle cx="21.25" cy="-32.207" r="0.499" style="fill:#ED1B2E;"/>
  <circle cx="10.75" cy="-35.957" r="0.499" style="fill:#ED1B2E;"/>
  <circle cx="6.5" cy="-39.707" r="0.499" style="fill:#ED1B2E;"/>
  <circle cx="2.5" cy="-44.207" r="0.499" style="fill:#ED1B2E;"/>
  <circle cx="4.5" cy="-34.207" r="0.499" style="fill:#ED1B2E;"/>
  <circle cx="52.5" cy="-29.707" r="0.499" style="fill:#ED1B2E;"/>
  <circle cx="50.5" cy="-33.457" r="0.499" style="fill:#ED1B2E;"/>
  <circle cx="47.25" cy="-39.207" r="0.499" style="fill:#ED1B2E;"/>
  <circle cx="78.25" cy="-55.207" r="0.499" style="fill:#ED1B2E;"/>
  <circle cx="80.75" cy="-50.207" r="0.499" style="fill:#ED1B2E;"/>
  <circle cx="86.333" cy="-53.375" r="0.499" style="fill:#ED1B2E;"/>
  <circle cx="85" cy="-45.04" r="0.499" style="fill:#ED1B2E;"/>
  <circle cx="91" cy="-41.957" r="0.499" style="fill:#ED1B2E;"/>
  <circle cx="96.75" cy="-45.957" r="0.499" style="fill:#ED1B2E;"/>
  <circle cx="98.293" cy="-40.664" r="0.499" style="fill:#ED1B2E;"/>
  <circle cx="103" cy="-44.457" r="0.499" style="fill:#ED1B2E;"/>
  <circle cx="109" cy="-39.707" r="0.499" style="fill:#ED1B2E;"/>
  <circle cx="115.666" cy="-40.625" r="0.499" style="fill:#ED1B2E;"/>
  <circle cx="118.75" cy="-36.207" r="0.499" style="fill:#ED1B2E;"/>
  <circle cx="125.333" cy="-40.54" r="0.5" style="fill:#ED1B2E;"/>
  <circle cx="131.25" cy="-33.957" r="0.499" style="fill:#ED1B2E;"/>
  <circle cx="138.75" cy="-33.957" r="0.499" style="fill:#ED1B2E;"/>
  <circle cx="142.667" cy="-36.375" r="0.499" style="fill:#ED1B2E;"/>
  <circle cx="142.333" cy="-30.04" r="0.499" style="fill:#ED1B2E;"/>
  <circle cx="142.683" cy="-22.258" r="0.499" style="fill:#ED1B2E;"/>
  <circle cx="137" cy="-26.457" r="0.499" style="fill:#ED1B2E;"/>
  <circle cx="131.25" cy="-29.457" r="0.499" style="fill:#ED1B2E;"/>
  <circle cx="123.666" cy="-33.207" r="0.499" style="fill:#ED1B2E;"/>
  <circle cx="112.75" cy="-34.957" r="0.499" style="fill:#ED1B2E;"/>
  <circle cx="124.75" cy="-25.957" r="0.499" style="fill:#ED1B2E;"/>
  <circle cx="131" cy="-22.207" r="0.499" style="fill:#ED1B2E;"/>
  <circle cx="137.5" cy="-19.957" r="0.499" style="fill:#ED1B2E;"/>
  <circle cx="143" cy="-16.207" r="0.499" style="fill:#ED1B2E;"/>
  <circle cx="136.75" cy="-13.707" r="0.499" style="fill:#ED1B2E;"/>
  <circle cx="142.25" cy="-8.457" r="0.499" style="fill:#ED1B2E;"/>
  <circle cx="108.028" cy="-1.608" r="0.499" style="fill:#ED1B2E;"/>
  <circle cx="135.667" cy="-1.373" r="0.499" style="fill:#ED1B2E;"/>
  <circle cx="121.631" cy="-1.608" r="0.499" style="fill:#ED1B2E;"/>
  <circle cx="139" cy="-6.207" r="0.499" style="fill:#ED1B2E;"/>
  <circle cx="126.75" cy="-4.207" r="0.499" style="fill:#ED1B2E;"/>
  <circle cx="130.75" cy="-8.207" r="0.499" style="fill:#ED1B2E;"/>
  <circle cx="131.25" cy="-14.457" r="0.499" style="fill:#ED1B2E;"/>
  <circle cx="125" cy="-11.207" r="0.499" style="fill:#ED1B2E;"/>
  <circle cx="121" cy="-7.957" r="0.499" style="fill:#ED1B2E;"/>
  <circle cx="116.5" cy="-4.207" r="0.499" style="fill:#ED1B2E;"/>
  <circle cx="111.25" cy="-6.707" r="0.499" style="fill:#ED1B2E;"/>
  <circle cx="104.5" cy="-8.707" r="0.499" style="fill:#ED1B2E;"/>
  <circle cx="98.75" cy="-10.707" r="0.499" style="fill:#ED1B2E;"/>
  <circle cx="90.75" cy="-14.207" r="0.499" style="fill:#ED1B2E;"/>
  <circle cx="96.5" cy="-17.957" r="0.499" style="fill:#ED1B2E;"/>
  <circle cx="103" cy="-15.707" r="0.499" style="fill:#ED1B2E;"/>
  <circle cx="108.5" cy="-12.207" r="0.499" style="fill:#ED1B2E;"/>
  <circle cx="114.75" cy="-11.707" r="0.499" style="fill:#ED1B2E;"/>
  <circle cx="119.5" cy="-15.957" r="0.499" style="fill:#ED1B2E;"/>
  <circle cx="124.5" cy="-18.707" r="0.499" style="fill:#ED1B2E;"/>
  <circle cx="119" cy="-24.207" r="0.499" style="fill:#ED1B2E;"/>
  <circle cx="115.25" cy="-29.207" r="0.499" style="fill:#ED1B2E;"/>
  <circle cx="108.25" cy="-32.457" r="0.499" style="fill:#ED1B2E;"/>
  <circle cx="103" cy="-30.457" r="0.499" style="fill:#ED1B2E;"/>
  <circle cx="97.25" cy="-25.457" r="0.499" style="fill:#ED1B2E;"/>
  <circle cx="91" cy="-21.873" r="0.499" style="fill:#ED1B2E;"/>
  <circle cx="84.5" cy="-23.957" r="0.499" style="fill:#ED1B2E;"/>
  <circle cx="84.25" cy="-28.957" r="0.499" style="fill:#ED1B2E;"/>
  <circle cx="90.75" cy="-27.957" r="0.499" style="fill:#ED1B2E;"/>
  <circle cx="96.75" cy="-31.707" r="0.499" style="fill:#ED1B2E;"/>
  <circle cx="93" cy="-35.957" r="0.499" style="fill:#ED1B2E;"/>
  <circle cx="87.25" cy="-38.457" r="0.499" style="fill:#ED1B2E;"/>
  <circle cx="80.75" cy="-42.207" r="0.499" style="fill:#ED1B2E;"/>
  <circle cx="76.75" cy="-46.207" r="0.499" style="fill:#ED1B2E;"/>
  <circle cx="72.75" cy="-51.707" r="0.499" style="fill:#ED1B2E;"/>
  <circle cx="103.25" cy="-21.457" r="0.499" style="fill:#ED1B2E;"/>
  <circle cx="106.75" cy="-25.707" r="0.499" style="fill:#ED1B2E;"/>
  <circle cx="108.5" cy="-19.957" r="0.499" style="fill:#ED1B2E;"/>
  <circle cx="113" cy="-16.707" r="0.499" style="fill:#ED1B2E;"/>
  <circle cx="113" cy="-22.207" r="0.499" style="fill:#ED1B2E;"/>
  <circle cx="102.75" cy="-36.207" r="0.499" style="fill:#ED1B2E;"/>
  <circle cx="86.25" cy="-17.543" r="0.499" style="fill:#ED1B2E;"/>
  <circle cx="81.543" cy="-20" r="0.499" style="fill:#ED1B2E;"/>
  <circle cx="73" cy="-21.457" r="0.499" style="fill:#ED1B2E;"/>
  <circle cx="70.5" cy="-25.871" r="0.499" style="fill:#ED1B2E;"/>
  <circle cx="63.75" cy="-23.957" r="0.499" style="fill:#ED1B2E;"/>
  <circle cx="58.75" cy="-20.207" r="0.499" style="fill:#ED1B2E;"/>
  <circle cx="53.043" cy="-20.914" r="0.499" style="fill:#ED1B2E;"/>
  <circle cx="47.75" cy="-15.707" r="0.499" style="fill:#ED1B2E;"/>
  <circle cx="45" cy="-9.957" r="0.499" style="fill:#ED1B2E;"/>
  <circle cx="40.5" cy="-6.207" r="0.499" style="fill:#ED1B2E;"/>
  <circle cx="47.25" cy="-1.957" r="0.499" style="fill:#ED1B2E;"/>
  <circle cx="51" cy="-7.707" r="0.499" style="fill:#ED1B2E;"/>
  <circle cx="56.75" cy="-11.457" r="0.499" style="fill:#ED1B2E;"/>
  <circle cx="51.667" cy="-12.707" r="0.499" style="fill:#ED1B2E;"/>
  <circle cx="62" cy="-15.457" r="0.499" style="fill:#ED1B2E;"/>
  <circle cx="65.5" cy="-17.957" r="0.499" style="fill:#ED1B2E;"/>
  <circle cx="77" cy="-15.957" r="0.499" style="fill:#ED1B2E;"/>
  <circle cx="88" cy="-11.207" r="0.499" style="fill:#ED1B2E;"/>
  <circle cx="94" cy="-6.207" r="0.499" style="fill:#ED1B2E;"/>
  <circle cx="100.365" cy="-3.707" r="0.499" style="fill:#ED1B2E;"/>
  <circle cx="90.5" cy="-2.707" r="0.499" style="fill:#ED1B2E;"/>
  <circle cx="84.75" cy="-6.207" r="0.499" style="fill:#ED1B2E;"/>
  <circle cx="80.25" cy="-10.457" r="0.499" style="fill:#ED1B2E;"/>
  <circle cx="74.25" cy="-12.207" r="0.499" style="fill:#ED1B2E;"/>
  <circle cx="69.25" cy="-14.457" r="0.499" style="fill:#ED1B2E;"/>
  <circle cx="65.5" cy="-8.957" r="0.499" style="fill:#ED1B2E;"/>
  <circle cx="59.25" cy="-6.457" r="0.499" style="fill:#ED1B2E;"/>
  <circle cx="55.587" cy="-2.273" r="0.499" style="fill:#ED1B2E;"/>
  <circle cx="61" cy="-2.707" r="0.499" style="fill:#ED1B2E;"/>
  <circle cx="68.5" cy="-3.707" r="0.499" style="fill:#ED1B2E;"/>
  <circle cx="76.5" cy="-6.207" r="0.499" style="fill:#ED1B2E;"/>
  <circle cx="69" cy="-72.207" r="0.499" style="fill:#ED1B2E;"/>
  <circle cx="80.25" cy="-82.707" r="0.499" style="fill:#ED1B2E;"/>
  <circle cx="73.666" cy="-83.874" r="0.499" style="fill:#ED1B2E;"/>
  <circle cx="84.25" cy="-78.707" r="0.499" style="fill:#ED1B2E;"/>
  <circle cx="89" cy="-83.957" r="0.499" style="fill:#ED1B2E;"/>
  <circle cx="92.75" cy="-89.957" r="0.499" style="fill:#ED1B2E;"/>
  <circle cx="100.75" cy="-85.957" r="0.499" style="fill:#ED1B2E;"/>
  <circle cx="96.75" cy="-95.707" r="0.499" style="fill:#ED1B2E;"/>
  <circle cx="100.25" cy="-92.957" r="0.499" style="fill:#ED1B2E;"/>
  <circle cx="105.75" cy="-91.957" r="0.499" style="fill:#ED1B2E;"/>
  <circle cx="110.793" cy="-91.75" r="0.499" style="fill:#ED1B2E;"/>
  <circle cx="110.25" cy="-86.457" r="0.499" style="fill:#ED1B2E;"/>
  <circle cx="118.25" cy="-90.207" r="0.499" style="fill:#ED1B2E;"/>
  <circle cx="123" cy="-91.957" r="0.499" style="fill:#ED1B2E;"/>
  <circle cx="129" cy="-96.457" r="0.499" style="fill:#ED1B2E;"/>
  <circle cx="135.543" cy="-99.333" r="0.499" style="fill:#ED1B2E;"/>
  <circle cx="141.667" cy="-102.374" r="0.499" style="fill:#ED1B2E;"/>
  <circle cx="138.5" cy="-92.207" r="0.499" style="fill:#ED1B2E;"/>
  <circle cx="141.667" cy="-88.374" r="0.499" style="fill:#ED1B2E;"/>
  <circle cx="137.25" cy="-85.457" r="0.499" style="fill:#ED1B2E;"/>
  <circle cx="141.667" cy="-83.04" r="0.499" style="fill:#ED1B2E;"/>
  <circle cx="130.5" cy="-89.957" r="0.499" style="fill:#ED1B2E;"/>
  <circle cx="127" cy="-87.957" r="0.499" style="fill:#ED1B2E;"/>
  <circle cx="124.333" cy="-82.707" r="0.499" style="fill:#ED1B2E;"/>
  <circle cx="120.75" cy="-85.707" r="0.499" style="fill:#ED1B2E;"/>
  <circle cx="116.75" cy="-81.957" r="0.499" style="fill:#ED1B2E;"/>
  <circle cx="111" cy="-79.207" r="0.499" style="fill:#ED1B2E;"/>
  <circle cx="105.25" cy="-83.207" r="0.499" style="fill:#ED1B2E;"/>
  <circle cx="96" cy="-85.207" r="0.499" style="fill:#ED1B2E;"/>
  <circle cx="91.75" cy="-80.707" r="0.499" style="fill:#ED1B2E;"/>
  <circle cx="86.75" cy="-74.207" r="0.499" style="fill:#ED1B2E;"/>
  <circle cx="84" cy="-70.207" r="0.499" style="fill:#ED1B2E;"/>
  <circle cx="81" cy="-64.457" r="0.499" style="fill:#ED1B2E;"/>
  <circle cx="87" cy="-59.457" r="0.499" style="fill:#ED1B2E;"/>
  <circle cx="90.333" cy="-61.707" r="0.499" style="fill:#ED1B2E;"/>
  <circle cx="95" cy="-64.207" r="0.499" style="fill:#ED1B2E;"/>
  <circle cx="88.75" cy="-66.707" r="0.499" style="fill:#ED1B2E;"/>
  <circle cx="91" cy="-71.957" r="0.499" style="fill:#ED1B2E;"/>
  <circle cx="94.25" cy="-77.207" r="0.499" style="fill:#ED1B2E;"/>
  <circle cx="100.75" cy="-72.207" r="0.499" style="fill:#ED1B2E;"/>
  <circle cx="96.5" cy="-67.957" r="0.499" style="fill:#ED1B2E;"/>
  <circle cx="104.707" cy="-65.664" r="0.499" style="fill:#ED1B2E;"/>
  <circle cx="99.75" cy="-60.457" r="0.499" style="fill:#ED1B2E;"/>
  <circle cx="106.75" cy="-60.207" r="0.499" style="fill:#ED1B2E;"/>
  <circle cx="103.957" cy="-56.664" r="0.499" style="fill:#ED1B2E;"/>
  <circle cx="110.25" cy="-53.957" r="0.499" style="fill:#ED1B2E;"/>
  <circle cx="116.25" cy="-52.457" r="0.499" style="fill:#ED1B2E;"/>
  <circle cx="123" cy="-55.957" r="0.499" style="fill:#ED1B2E;"/>
  <circle cx="129.25" cy="-53.957" r="0.499" style="fill:#ED1B2E;"/>
  <circle cx="135.75" cy="-49.957" r="0.499" style="fill:#ED1B2E;"/>
  <circle cx="140.5" cy="-50.207" r="0.499" style="fill:#ED1B2E;"/>
  <circle cx="141.75" cy="-45.707" r="0.499" style="fill:#ED1B2E;"/>
  <circle cx="138.75" cy="-40.207" r="0.499" style="fill:#ED1B2E;"/>
  <circle cx="131.333" cy="-42.707" r="0.499" style="fill:#ED1B2E;"/>
  <circle cx="134.75" cy="-44.457" r="0.499" style="fill:#ED1B2E;"/>
  <circle cx="127" cy="-46.207" r="0.499" style="fill:#ED1B2E;"/>
  <circle cx="122.25" cy="-49.707" r="0.499" style="fill:#ED1B2E;"/>
  <circle cx="119.25" cy="-44.207" r="0.499" style="fill:#ED1B2E;"/>
  <circle cx="112.75" cy="-46.457" r="0.499" style="fill:#ED1B2E;"/>
  <circle cx="108.5" cy="-46.707" r="0.499" style="fill:#ED1B2E;"/>
  <circle cx="103" cy="-49.957" r="0.499" style="fill:#ED1B2E;"/>
  <circle cx="97" cy="-54.207" r="0.499" style="fill:#ED1B2E;"/>
  <circle cx="91.25" cy="-51.457" r="0.499" style="fill:#ED1B2E;"/>
  <circle cx="93.333" cy="-56.707" r="0.499" style="fill:#ED1B2E;"/>
  <circle cx="80.5" cy="-58.707" r="0.499" style="fill:#ED1B2E;"/>
  <circle cx="72.75" cy="-66.207" r="0.499" style="fill:#ED1B2E;"/>
  <circle cx="72.25" cy="-60.207" r="0.499" style="fill:#ED1B2E;"/>
  <circle cx="68.666" cy="-53.375" r="0.499" style="fill:#ED1B2E;"/>
  <circle cx="75.25" cy="-70.707" r="0.499" style="fill:#ED1B2E;"/>
  <circle cx="78.666" cy="-74.707" r="0.499" style="fill:#ED1B2E;"/>
  <circle cx="101" cy="-80.207" r="0.499" style="fill:#ED1B2E;"/>
  <circle cx="104" cy="-77.457" r="0.499" style="fill:#ED1B2E;"/>
  <circle cx="109" cy="-68.707" r="0.499" style="fill:#ED1B2E;"/>
  <circle cx="113.75" cy="-72.707" r="0.499" style="fill:#ED1B2E;"/>
  <circle cx="116.5" cy="-75.957" r="0.499" style="fill:#ED1B2E;"/>
  <circle cx="120.75" cy="-78.207" r="0.499" style="fill:#ED1B2E;"/>
  <circle cx="128.75" cy="-78.707" r="0.499" style="fill:#ED1B2E;"/>
  <circle cx="132.75" cy="-82.457" r="0.499" style="fill:#ED1B2E;"/>
  <circle cx="137.298" cy="-79.039" r="0.499" style="fill:#ED1B2E;"/>
  <circle cx="135" cy="-74.207" r="0.499" style="fill:#ED1B2E;"/>
  <circle cx="142" cy="-72.457" r="0.499" style="fill:#ED1B2E;"/>
  <circle cx="140.75" cy="-66.707" r="0.499" style="fill:#ED1B2E;"/>
  <circle cx="142.333" cy="-55.04" r="0.499" style="fill:#ED1B2E;"/>
  <circle cx="131" cy="-70.457" r="0.499" style="fill:#ED1B2E;"/>
  <circle cx="124" cy="-74.707" r="0.499" style="fill:#ED1B2E;"/>
  <circle cx="120.5" cy="-70.207" r="0.499" style="fill:#ED1B2E;"/>
  <circle cx="115.25" cy="-66.207" r="0.499" style="fill:#ED1B2E;"/>
  <circle cx="110" cy="-62.207" r="0.499" style="fill:#ED1B2E;"/>
  <circle cx="116.75" cy="-60.207" r="0.499" style="fill:#ED1B2E;"/>
  <circle cx="113.333" cy="-56.707" r="0.499" style="fill:#ED1B2E;"/>
  <circle cx="89.333" cy="-48.375" r="0.499" style="fill:#ED1B2E;"/>
  <circle cx="122" cy="-64.457" r="0.499" style="fill:#ED1B2E;"/>
  <circle cx="126.75" cy="-67.707" r="0.499" style="fill:#ED1B2E;"/>
  <circle cx="131.75" cy="-61.957" r="0.499" style="fill:#ED1B2E;"/>
  <circle cx="135.25" cy="-64.957" r="0.499" style="fill:#ED1B2E;"/>
  <circle cx="127.5" cy="-59.707" r="0.499" style="fill:#ED1B2E;"/>
  <circle cx="134.5" cy="-55.957" r="0.499" style="fill:#ED1B2E;"/>
  <circle cx="139.25" cy="-57.707" r="0.499" style="fill:#ED1B2E;"/>
  <circle cx="81.25" cy="-88.207" r="0.499" style="fill:#ED1B2E;"/>
  <circle cx="88.25" cy="-92.207" r="0.499" style="fill:#ED1B2E;"/>
  <circle cx="70.666" cy="-78.04" r="0.499" style="fill:#ED1B2E;"/>
  <circle cx="64.333" cy="-77.207" r="0.499" style="fill:#ED1B2E;"/>
  <circle cx="44.5" cy="-76.207" r="0.499" style="fill:#ED1B2E;"/>
  <circle cx="51.167" cy="-69.624" r="0.499" style="fill:#ED1B2E;"/>
  <circle cx="32" cy="-66.04" r="0.499" style="fill:#ED1B2E;"/>
  <circle cx="31" cy="-61.04" r="0.499" style="fill:#ED1B2E;"/>
  <circle cx="67.774" cy="-84.962" r="0.499" style="fill:#ED1B2E;"/>
  <circle cx="74.75" cy="-95.457" r="0.499" style="fill:#ED1B2E;"/>
  <circle cx="69" cy="-93.457" r="0.499" style="fill:#ED1B2E;"/>
  <circle cx="65.25" cy="-89.457" r="0.499" style="fill:#ED1B2E;"/>
  <circle cx="59" cy="-87.957" r="0.499" style="fill:#ED1B2E;"/>
  <circle cx="54.75" cy="-83.457" r="0.499" style="fill:#ED1B2E;"/>
  <circle cx="49.75" cy="-80.621" r="0.499" style="fill:#ED1B2E;"/>
  <circle cx="49" cy="-87.707" r="0.499" style="fill:#ED1B2E;"/>
  <circle cx="40.167" cy="-81.624" r="0.499" style="fill:#ED1B2E;"/>
  <circle cx="77.333" cy="-104.04" r="0.499" style="fill:#ED1B2E;"/>
  <circle cx="71.793" cy="-101.25" r="0.499" style="fill:#ED1B2E;"/>
  <circle cx="65" cy="-101.374" r="0.499" style="fill:#ED1B2E;"/>
  <circle cx="63" cy="-95.707" r="0.499" style="fill:#ED1B2E;"/>
  <circle cx="67.959" cy="-98" r="0.499" style="fill:#ED1B2E;"/>
  <circle cx="57.25" cy="-94.207" r="0.499" style="fill:#ED1B2E;"/>
  <circle cx="53.667" cy="-90.04" r="0.499" style="fill:#ED1B2E;"/>
  <circle cx="59.667" cy="-100.04" r="0.499" style="fill:#ED1B2E;"/>
  <circle cx="54.333" cy="-98.361" r="0.499" style="fill:#ED1B2E;"/>
  <circle cx="49" cy="-94.04" r="0.499" style="fill:#ED1B2E;"/>
  <circle cx="42.5" cy="-91.457" r="0.499" style="fill:#ED1B2E;"/>
  <circle cx="36.667" cy="-87.374" r="0.499" style="fill:#ED1B2E;"/>
  <circle cx="29.667" cy="-90.124" r="0.499" style="fill:#ED1B2E;"/>
  <circle cx="20" cy="-89.207" r="0.499" style="fill:#ED1B2E;"/>
  <circle cx="15" cy="-92.457" r="0.499" style="fill:#ED1B2E;"/>
  <circle cx="7" cy="-96.707" r="0.499" style="fill:#ED1B2E;"/>
  <circle cx="2" cy="-92.04" r="0.499" style="fill:#ED1B2E;"/>
  <circle cx="6.75" cy="-90.207" r="0.499" style="fill:#ED1B2E;"/>
  <circle cx="4.75" cy="-85.957" r="0.499" style="fill:#ED1B2E;"/>
  <circle cx="12.75" cy="-85.957" r="0.499" style="fill:#ED1B2E;"/>
  <circle cx="19" cy="-84.207" r="0.499" style="fill:#ED1B2E;"/>
  <circle cx="25" cy="-81.957" r="0.499" style="fill:#ED1B2E;"/>
  <circle cx="33.333" cy="-83.54" r="0.5" style="fill:#ED1B2E;"/>
  <circle cx="37" cy="-93.04" r="0.499" style="fill:#ED1B2E;"/>
  <circle cx="44" cy="-98.457" r="0.499" style="fill:#ED1B2E;"/>
  <circle cx="37.333" cy="-99.707" r="0.499" style="fill:#ED1B2E;"/>
  <circle cx="41.5" cy="-102.207" r="0.499" style="fill:#ED1B2E;"/>
  <circle cx="31.667" cy="-99.374" r="0.499" style="fill:#ED1B2E;"/>
  <circle cx="25" cy="-100.04" r="0.499" style="fill:#ED1B2E;"/>
  <circle cx="7" cy="-102.374" r="0.499" style="fill:#ED1B2E;"/>
  <circle cx="1" cy="-99.374" r="0.499" style="fill:#ED1B2E;"/>
  <circle cx="136.333" cy="-129.707" r="0.499" style="fill:#ED1B2E;"/>
  <circle cx="135.667" cy="-135.374" r="0.499" style="fill:#ED1B2E;"/>
  <circle cx="142" cy="-133.04" r="0.499" style="fill:#ED1B2E;"/>
  <circle cx="130" cy="-142.707" r="0.499" style="fill:#ED1B2E;"/>
  <circle cx="136.333" cy="-140.374" r="0.499" style="fill:#ED1B2E;"/>
  <circle cx="142" cy="-139.374" r="0.499" style="fill:#ED1B2E;"/>
  <circle cx="74.801" cy="-1.707" r="0.499" style="fill:#ED1B2E;"/>
  <circle cx="82.702" cy="-2.273" r="0.499" style="fill:#ED1B2E;"/>
  <circle cx="53" cy="-118.957" r="0.499" style="fill:#ED1B2E;"/>
  <circle cx="50.626" cy="-123.333" r="0.499" style="fill:#ED1B2E;"/>
  <circle cx="4.333" cy="-142.04" r="0.499" style="fill:#ED1B2E;"/>
 </g>
</svg>
