<?xml version="1.0"?>
<!-- Converted with SVG Converter - Version 0.9.5 (Compiled Fri Feb 21 09:53:38 2020) - Copyright (C) 2011 Nokia -->
<svg xmlns="http://www.w3.org/2000/svg" baseProfile="tiny" width="56" x="0px" y="0px" xmlns:xlink="http://www.w3.org/1999/xlink" version="1.1" xml:space="preserve" viewBox="1 -57.016 56 56.016" height="56.016">
 <g>
  <rect width="56" x="1" y="-57.016" style="fill:none;" height="56.016"/>
  <circle r="0.499" cy="-54.977" style="fill-rule:evenodd;clip-rule:evenodd;fill:#EC008C;" cx="2.994"/>
  <circle r="0.499" cy="-54.977" style="fill-rule:evenodd;clip-rule:evenodd;fill:#EC008C;" cx="6.994"/>
  <circle r="0.499" cy="-54.977" style="fill-rule:evenodd;clip-rule:evenodd;fill:#EC008C;" cx="10.994"/>
  <circle r="0.499" cy="-54.977" style="fill-rule:evenodd;clip-rule:evenodd;fill:#EC008C;" cx="14.994"/>
  <circle r="0.499" cy="-54.977" style="fill-rule:evenodd;clip-rule:evenodd;fill:#EC008C;" cx="18.994"/>
  <circle r="0.499" cy="-54.977" style="fill-rule:evenodd;clip-rule:evenodd;fill:#EC008C;" cx="22.994"/>
  <circle r="0.499" cy="-54.977" style="fill-rule:evenodd;clip-rule:evenodd;fill:#EC008C;" cx="26.994"/>
  <circle r="0.499" cy="-54.977" style="fill-rule:evenodd;clip-rule:evenodd;fill:#EC008C;" cx="30.994"/>
  <circle r="0.499" cy="-54.977" style="fill-rule:evenodd;clip-rule:evenodd;fill:#EC008C;" cx="34.994"/>
  <circle r="0.499" cy="-54.977" style="fill-rule:evenodd;clip-rule:evenodd;fill:#EC008C;" cx="38.994"/>
  <circle r="0.499" cy="-54.977" style="fill-rule:evenodd;clip-rule:evenodd;fill:#EC008C;" cx="42.994"/>
  <circle r="0.499" cy="-54.977" style="fill-rule:evenodd;clip-rule:evenodd;fill:#EC008C;" cx="46.994"/>
  <circle r="0.499" cy="-54.977" style="fill-rule:evenodd;clip-rule:evenodd;fill:#EC008C;" cx="50.994"/>
  <circle r="0.499" cy="-54.977" style="fill-rule:evenodd;clip-rule:evenodd;fill:#EC008C;" cx="54.994"/>
  <circle r="0.499" cy="-50.998" style="fill-rule:evenodd;clip-rule:evenodd;fill:#EC008C;" cx="2.994"/>
  <circle r="0.499" cy="-50.998" style="fill-rule:evenodd;clip-rule:evenodd;fill:#EC008C;" cx="6.994"/>
  <circle r="0.499" cy="-50.998" style="fill-rule:evenodd;clip-rule:evenodd;fill:#EC008C;" cx="10.994"/>
  <circle r="0.499" cy="-50.998" style="fill-rule:evenodd;clip-rule:evenodd;fill:#EC008C;" cx="14.994"/>
  <circle r="0.499" cy="-50.998" style="fill-rule:evenodd;clip-rule:evenodd;fill:#EC008C;" cx="18.994"/>
  <circle r="0.499" cy="-50.998" style="fill-rule:evenodd;clip-rule:evenodd;fill:#EC008C;" cx="22.994"/>
  <circle r="0.499" cy="-50.998" style="fill-rule:evenodd;clip-rule:evenodd;fill:#EC008C;" cx="26.994"/>
  <circle r="0.499" cy="-50.998" style="fill-rule:evenodd;clip-rule:evenodd;fill:#EC008C;" cx="30.994"/>
  <circle r="0.499" cy="-50.998" style="fill-rule:evenodd;clip-rule:evenodd;fill:#EC008C;" cx="34.994"/>
  <circle r="0.499" cy="-50.998" style="fill-rule:evenodd;clip-rule:evenodd;fill:#EC008C;" cx="38.994"/>
  <circle r="0.499" cy="-50.998" style="fill-rule:evenodd;clip-rule:evenodd;fill:#EC008C;" cx="42.994"/>
  <circle r="0.499" cy="-50.998" style="fill-rule:evenodd;clip-rule:evenodd;fill:#EC008C;" cx="46.994"/>
  <circle r="0.499" cy="-50.998" style="fill-rule:evenodd;clip-rule:evenodd;fill:#EC008C;" cx="50.994"/>
  <circle r="0.499" cy="-50.998" style="fill-rule:evenodd;clip-rule:evenodd;fill:#EC008C;" cx="54.994"/>
  <circle r="0.499" cy="-46.998" style="fill-rule:evenodd;clip-rule:evenodd;fill:#EC008C;" cx="2.994"/>
  <circle r="0.499" cy="-46.998" style="fill-rule:evenodd;clip-rule:evenodd;fill:#EC008C;" cx="6.994"/>
  <circle r="0.499" cy="-46.998" style="fill-rule:evenodd;clip-rule:evenodd;fill:#EC008C;" cx="10.994"/>
  <circle r="0.499" cy="-46.998" style="fill-rule:evenodd;clip-rule:evenodd;fill:#EC008C;" cx="14.994"/>
  <circle r="0.499" cy="-46.998" style="fill-rule:evenodd;clip-rule:evenodd;fill:#EC008C;" cx="18.994"/>
  <circle r="0.499" cy="-46.998" style="fill-rule:evenodd;clip-rule:evenodd;fill:#EC008C;" cx="22.994"/>
  <circle r="0.499" cy="-46.998" style="fill-rule:evenodd;clip-rule:evenodd;fill:#EC008C;" cx="26.994"/>
  <circle r="0.499" cy="-46.998" style="fill-rule:evenodd;clip-rule:evenodd;fill:#EC008C;" cx="30.994"/>
  <circle r="0.499" cy="-46.998" style="fill-rule:evenodd;clip-rule:evenodd;fill:#EC008C;" cx="34.994"/>
  <circle r="0.499" cy="-46.998" style="fill-rule:evenodd;clip-rule:evenodd;fill:#EC008C;" cx="38.994"/>
  <circle r="0.499" cy="-46.998" style="fill-rule:evenodd;clip-rule:evenodd;fill:#EC008C;" cx="42.994"/>
  <circle r="0.499" cy="-46.998" style="fill-rule:evenodd;clip-rule:evenodd;fill:#EC008C;" cx="46.994"/>
  <circle r="0.499" cy="-46.998" style="fill-rule:evenodd;clip-rule:evenodd;fill:#EC008C;" cx="50.994"/>
  <circle r="0.499" cy="-46.998" style="fill-rule:evenodd;clip-rule:evenodd;fill:#EC008C;" cx="54.994"/>
  <circle r="0.499" cy="-42.998" style="fill-rule:evenodd;clip-rule:evenodd;fill:#EC008C;" cx="2.994"/>
  <circle r="0.499" cy="-42.998" style="fill-rule:evenodd;clip-rule:evenodd;fill:#EC008C;" cx="6.994"/>
  <circle r="0.499" cy="-42.998" style="fill-rule:evenodd;clip-rule:evenodd;fill:#EC008C;" cx="10.994"/>
  <circle r="0.499" cy="-42.998" style="fill-rule:evenodd;clip-rule:evenodd;fill:#EC008C;" cx="14.994"/>
  <circle r="0.499" cy="-42.998" style="fill-rule:evenodd;clip-rule:evenodd;fill:#EC008C;" cx="18.994"/>
  <circle r="0.499" cy="-42.998" style="fill-rule:evenodd;clip-rule:evenodd;fill:#EC008C;" cx="22.994"/>
  <circle r="0.499" cy="-42.998" style="fill-rule:evenodd;clip-rule:evenodd;fill:#EC008C;" cx="26.994"/>
  <circle r="0.499" cy="-42.998" style="fill-rule:evenodd;clip-rule:evenodd;fill:#EC008C;" cx="30.994"/>
  <circle r="0.499" cy="-42.998" style="fill-rule:evenodd;clip-rule:evenodd;fill:#EC008C;" cx="34.994"/>
  <circle r="0.499" cy="-42.998" style="fill-rule:evenodd;clip-rule:evenodd;fill:#EC008C;" cx="38.994"/>
  <circle r="0.499" cy="-42.998" style="fill-rule:evenodd;clip-rule:evenodd;fill:#EC008C;" cx="42.994"/>
  <circle r="0.499" cy="-42.998" style="fill-rule:evenodd;clip-rule:evenodd;fill:#EC008C;" cx="46.994"/>
  <circle r="0.499" cy="-42.998" style="fill-rule:evenodd;clip-rule:evenodd;fill:#EC008C;" cx="50.994"/>
  <circle r="0.499" cy="-42.998" style="fill-rule:evenodd;clip-rule:evenodd;fill:#EC008C;" cx="54.994"/>
  <circle r="0.499" cy="-39.061" style="fill-rule:evenodd;clip-rule:evenodd;fill:#EC008C;" cx="2.994"/>
  <circle r="0.499" cy="-39.061" style="fill-rule:evenodd;clip-rule:evenodd;fill:#EC008C;" cx="6.994"/>
  <circle r="0.499" cy="-39.061" style="fill-rule:evenodd;clip-rule:evenodd;fill:#EC008C;" cx="10.994"/>
  <circle r="0.499" cy="-39.061" style="fill-rule:evenodd;clip-rule:evenodd;fill:#EC008C;" cx="14.994"/>
  <circle r="0.499" cy="-39.061" style="fill-rule:evenodd;clip-rule:evenodd;fill:#EC008C;" cx="18.994"/>
  <circle r="0.499" cy="-39.061" style="fill-rule:evenodd;clip-rule:evenodd;fill:#EC008C;" cx="22.994"/>
  <circle r="0.499" cy="-39.061" style="fill-rule:evenodd;clip-rule:evenodd;fill:#EC008C;" cx="26.994"/>
  <circle r="0.499" cy="-39.061" style="fill-rule:evenodd;clip-rule:evenodd;fill:#EC008C;" cx="30.994"/>
  <circle r="0.499" cy="-39.061" style="fill-rule:evenodd;clip-rule:evenodd;fill:#EC008C;" cx="34.994"/>
  <circle r="0.499" cy="-39.061" style="fill:#EC008C;" cx="38.994"/>
  <circle r="0.499" cy="-39.061" style="fill-rule:evenodd;clip-rule:evenodd;fill:#EC008C;" cx="42.994"/>
  <circle r="0.499" cy="-39.061" style="fill-rule:evenodd;clip-rule:evenodd;fill:#EC008C;" cx="46.994"/>
  <circle r="0.499" cy="-39.061" style="fill-rule:evenodd;clip-rule:evenodd;fill:#EC008C;" cx="50.994"/>
  <circle r="0.499" cy="-39.061" style="fill-rule:evenodd;clip-rule:evenodd;fill:#EC008C;" cx="54.994"/>
  <circle r="0.499" cy="-34.977" style="fill-rule:evenodd;clip-rule:evenodd;fill:#EC008C;" cx="2.994"/>
  <circle r="0.499" cy="-34.977" style="fill-rule:evenodd;clip-rule:evenodd;fill:#EC008C;" cx="6.994"/>
  <circle r="0.499" cy="-34.977" style="fill-rule:evenodd;clip-rule:evenodd;fill:#EC008C;" cx="10.994"/>
  <circle r="0.499" cy="-34.977" style="fill-rule:evenodd;clip-rule:evenodd;fill:#EC008C;" cx="14.994"/>
  <circle r="0.499" cy="-34.977" style="fill-rule:evenodd;clip-rule:evenodd;fill:#EC008C;" cx="18.994"/>
  <circle r="0.499" cy="-34.977" style="fill-rule:evenodd;clip-rule:evenodd;fill:#EC008C;" cx="22.994"/>
  <circle r="0.499" cy="-34.977" style="fill-rule:evenodd;clip-rule:evenodd;fill:#EC008C;" cx="26.994"/>
  <circle r="0.499" cy="-34.977" style="fill-rule:evenodd;clip-rule:evenodd;fill:#EC008C;" cx="30.994"/>
  <circle r="0.499" cy="-34.977" style="fill-rule:evenodd;clip-rule:evenodd;fill:#EC008C;" cx="34.994"/>
  <circle r="0.499" cy="-34.977" style="fill-rule:evenodd;clip-rule:evenodd;fill:#EC008C;" cx="38.994"/>
  <circle r="0.499" cy="-34.977" style="fill-rule:evenodd;clip-rule:evenodd;fill:#EC008C;" cx="42.994"/>
  <circle r="0.499" cy="-34.977" style="fill-rule:evenodd;clip-rule:evenodd;fill:#EC008C;" cx="46.994"/>
  <circle r="0.499" cy="-34.977" style="fill-rule:evenodd;clip-rule:evenodd;fill:#EC008C;" cx="50.994"/>
  <circle r="0.499" cy="-34.977" style="fill-rule:evenodd;clip-rule:evenodd;fill:#EC008C;" cx="54.994"/>
  <circle r="0.499" cy="-30.977" style="fill-rule:evenodd;clip-rule:evenodd;fill:#EC008C;" cx="2.994"/>
  <circle r="0.499" cy="-30.977" style="fill-rule:evenodd;clip-rule:evenodd;fill:#EC008C;" cx="6.994"/>
  <circle r="0.499" cy="-30.977" style="fill-rule:evenodd;clip-rule:evenodd;fill:#EC008C;" cx="10.994"/>
  <circle r="0.499" cy="-30.977" style="fill-rule:evenodd;clip-rule:evenodd;fill:#EC008C;" cx="14.994"/>
  <circle r="0.499" cy="-30.977" style="fill-rule:evenodd;clip-rule:evenodd;fill:#EC008C;" cx="18.994"/>
  <circle r="0.499" cy="-30.977" style="fill-rule:evenodd;clip-rule:evenodd;fill:#EC008C;" cx="22.994"/>
  <circle r="0.499" cy="-30.977" style="fill-rule:evenodd;clip-rule:evenodd;fill:#EC008C;" cx="26.994"/>
  <circle r="0.499" cy="-30.977" style="fill-rule:evenodd;clip-rule:evenodd;fill:#EC008C;" cx="30.994"/>
  <circle r="0.499" cy="-30.977" style="fill-rule:evenodd;clip-rule:evenodd;fill:#EC008C;" cx="34.994"/>
  <circle r="0.499" cy="-30.977" style="fill-rule:evenodd;clip-rule:evenodd;fill:#EC008C;" cx="38.994"/>
  <circle r="0.499" cy="-30.977" style="fill-rule:evenodd;clip-rule:evenodd;fill:#EC008C;" cx="42.994"/>
  <circle r="0.499" cy="-30.977" style="fill-rule:evenodd;clip-rule:evenodd;fill:#EC008C;" cx="46.994"/>
  <circle r="0.499" cy="-30.977" style="fill-rule:evenodd;clip-rule:evenodd;fill:#EC008C;" cx="50.994"/>
  <circle r="0.499" cy="-30.977" style="fill-rule:evenodd;clip-rule:evenodd;fill:#EC008C;" cx="54.994"/>
  <circle r="0.499" cy="-26.977" style="fill-rule:evenodd;clip-rule:evenodd;fill:#EC008C;" cx="2.994"/>
  <circle r="0.499" cy="-26.977" style="fill-rule:evenodd;clip-rule:evenodd;fill:#EC008C;" cx="6.994"/>
  <circle r="0.499" cy="-26.977" style="fill-rule:evenodd;clip-rule:evenodd;fill:#EC008C;" cx="10.994"/>
  <circle r="0.499" cy="-26.977" style="fill-rule:evenodd;clip-rule:evenodd;fill:#EC008C;" cx="14.994"/>
  <circle r="0.499" cy="-26.977" style="fill-rule:evenodd;clip-rule:evenodd;fill:#EC008C;" cx="18.994"/>
  <circle r="0.499" cy="-26.977" style="fill-rule:evenodd;clip-rule:evenodd;fill:#EC008C;" cx="22.994"/>
  <circle r="0.499" cy="-26.977" style="fill-rule:evenodd;clip-rule:evenodd;fill:#EC008C;" cx="26.994"/>
  <circle r="0.499" cy="-26.977" style="fill-rule:evenodd;clip-rule:evenodd;fill:#EC008C;" cx="30.994"/>
  <circle r="0.499" cy="-26.977" style="fill-rule:evenodd;clip-rule:evenodd;fill:#EC008C;" cx="34.994"/>
  <circle r="0.499" cy="-26.977" style="fill-rule:evenodd;clip-rule:evenodd;fill:#EC008C;" cx="38.994"/>
  <circle r="0.499" cy="-26.977" style="fill-rule:evenodd;clip-rule:evenodd;fill:#EC008C;" cx="42.994"/>
  <circle r="0.499" cy="-26.977" style="fill-rule:evenodd;clip-rule:evenodd;fill:#EC008C;" cx="46.994"/>
  <circle r="0.499" cy="-26.977" style="fill:#EC008C;" cx="50.994"/>
  <circle r="0.499" cy="-26.977" style="fill-rule:evenodd;clip-rule:evenodd;fill:#EC008C;" cx="54.994"/>
  <circle r="0.499" cy="-22.977" style="fill-rule:evenodd;clip-rule:evenodd;fill:#EC008C;" cx="2.994"/>
  <circle r="0.499" cy="-22.977" style="fill-rule:evenodd;clip-rule:evenodd;fill:#EC008C;" cx="6.994"/>
  <circle r="0.499" cy="-22.977" style="fill-rule:evenodd;clip-rule:evenodd;fill:#EC008C;" cx="10.994"/>
  <circle r="0.499" cy="-22.977" style="fill:#EC008C;" cx="14.994"/>
  <circle r="0.499" cy="-22.977" style="fill-rule:evenodd;clip-rule:evenodd;fill:#EC008C;" cx="18.994"/>
  <circle r="0.499" cy="-22.977" style="fill-rule:evenodd;clip-rule:evenodd;fill:#EC008C;" cx="22.994"/>
  <circle r="0.499" cy="-22.977" style="fill-rule:evenodd;clip-rule:evenodd;fill:#EC008C;" cx="26.994"/>
  <circle r="0.499" cy="-22.977" style="fill-rule:evenodd;clip-rule:evenodd;fill:#EC008C;" cx="30.994"/>
  <circle r="0.499" cy="-22.977" style="fill-rule:evenodd;clip-rule:evenodd;fill:#EC008C;" cx="34.994"/>
  <circle r="0.499" cy="-22.977" style="fill-rule:evenodd;clip-rule:evenodd;fill:#EC008C;" cx="38.994"/>
  <circle r="0.499" cy="-22.977" style="fill-rule:evenodd;clip-rule:evenodd;fill:#EC008C;" cx="42.994"/>
  <circle r="0.499" cy="-22.977" style="fill-rule:evenodd;clip-rule:evenodd;fill:#EC008C;" cx="46.994"/>
  <circle r="0.499" cy="-22.977" style="fill-rule:evenodd;clip-rule:evenodd;fill:#EC008C;" cx="50.994"/>
  <circle r="0.499" cy="-22.977" style="fill-rule:evenodd;clip-rule:evenodd;fill:#EC008C;" cx="54.994"/>
  <circle r="0.499" cy="-18.977" style="fill-rule:evenodd;clip-rule:evenodd;fill:#EC008C;" cx="2.994"/>
  <circle r="0.499" cy="-18.977" style="fill-rule:evenodd;clip-rule:evenodd;fill:#EC008C;" cx="6.994"/>
  <circle r="0.499" cy="-18.977" style="fill-rule:evenodd;clip-rule:evenodd;fill:#EC008C;" cx="10.994"/>
  <circle r="0.499" cy="-18.977" style="fill-rule:evenodd;clip-rule:evenodd;fill:#EC008C;" cx="14.994"/>
  <circle r="0.499" cy="-18.977" style="fill-rule:evenodd;clip-rule:evenodd;fill:#EC008C;" cx="18.994"/>
  <circle r="0.499" cy="-18.977" style="fill-rule:evenodd;clip-rule:evenodd;fill:#EC008C;" cx="22.994"/>
  <circle r="0.499" cy="-18.977" style="fill-rule:evenodd;clip-rule:evenodd;fill:#EC008C;" cx="26.994"/>
  <circle r="0.499" cy="-18.977" style="fill-rule:evenodd;clip-rule:evenodd;fill:#EC008C;" cx="30.994"/>
  <circle r="0.499" cy="-18.977" style="fill-rule:evenodd;clip-rule:evenodd;fill:#EC008C;" cx="34.994"/>
  <circle r="0.499" cy="-18.977" style="fill-rule:evenodd;clip-rule:evenodd;fill:#EC008C;" cx="38.994"/>
  <circle r="0.499" cy="-18.977" style="fill-rule:evenodd;clip-rule:evenodd;fill:#EC008C;" cx="42.994"/>
  <circle r="0.499" cy="-18.977" style="fill-rule:evenodd;clip-rule:evenodd;fill:#EC008C;" cx="46.994"/>
  <circle r="0.499" cy="-18.977" style="fill-rule:evenodd;clip-rule:evenodd;fill:#EC008C;" cx="50.994"/>
  <circle r="0.499" cy="-18.977" style="fill-rule:evenodd;clip-rule:evenodd;fill:#EC008C;" cx="54.994"/>
  <circle r="0.499" cy="-14.977" style="fill:#EC008C;" cx="2.994"/>
  <circle r="0.499" cy="-14.977" style="fill-rule:evenodd;clip-rule:evenodd;fill:#EC008C;" cx="6.994"/>
  <circle r="0.499" cy="-14.977" style="fill-rule:evenodd;clip-rule:evenodd;fill:#EC008C;" cx="10.994"/>
  <circle r="0.499" cy="-14.977" style="fill-rule:evenodd;clip-rule:evenodd;fill:#EC008C;" cx="14.994"/>
  <circle r="0.499" cy="-14.977" style="fill-rule:evenodd;clip-rule:evenodd;fill:#EC008C;" cx="18.994"/>
  <circle r="0.499" cy="-14.977" style="fill-rule:evenodd;clip-rule:evenodd;fill:#EC008C;" cx="22.994"/>
  <circle r="0.499" cy="-14.977" style="fill-rule:evenodd;clip-rule:evenodd;fill:#EC008C;" cx="26.994"/>
  <circle r="0.499" cy="-14.977" style="fill:#EC008C;" cx="30.994"/>
  <circle r="0.499" cy="-14.977" style="fill-rule:evenodd;clip-rule:evenodd;fill:#EC008C;" cx="34.994"/>
  <circle r="0.499" cy="-14.977" style="fill-rule:evenodd;clip-rule:evenodd;fill:#EC008C;" cx="38.994"/>
  <circle r="0.499" cy="-14.977" style="fill-rule:evenodd;clip-rule:evenodd;fill:#EC008C;" cx="42.994"/>
  <circle r="0.499" cy="-14.977" style="fill-rule:evenodd;clip-rule:evenodd;fill:#EC008C;" cx="46.994"/>
  <circle r="0.499" cy="-14.977" style="fill-rule:evenodd;clip-rule:evenodd;fill:#EC008C;" cx="50.994"/>
  <circle r="0.499" cy="-14.977" style="fill-rule:evenodd;clip-rule:evenodd;fill:#EC008C;" cx="54.994"/>
  <circle r="0.499" cy="-10.977" style="fill-rule:evenodd;clip-rule:evenodd;fill:#EC008C;" cx="2.994"/>
  <circle r="0.499" cy="-10.977" style="fill-rule:evenodd;clip-rule:evenodd;fill:#EC008C;" cx="6.994"/>
  <circle r="0.499" cy="-10.977" style="fill-rule:evenodd;clip-rule:evenodd;fill:#EC008C;" cx="10.994"/>
  <circle r="0.499" cy="-10.977" style="fill-rule:evenodd;clip-rule:evenodd;fill:#EC008C;" cx="14.994"/>
  <circle r="0.499" cy="-10.977" style="fill:#EC008C;" cx="18.994"/>
  <circle r="0.499" cy="-10.977" style="fill-rule:evenodd;clip-rule:evenodd;fill:#EC008C;" cx="22.994"/>
  <circle r="0.499" cy="-10.977" style="fill-rule:evenodd;clip-rule:evenodd;fill:#EC008C;" cx="26.994"/>
  <circle r="0.499" cy="-10.977" style="fill-rule:evenodd;clip-rule:evenodd;fill:#EC008C;" cx="30.994"/>
  <circle r="0.499" cy="-10.977" style="fill-rule:evenodd;clip-rule:evenodd;fill:#EC008C;" cx="34.994"/>
  <circle r="0.499" cy="-10.977" style="fill-rule:evenodd;clip-rule:evenodd;fill:#EC008C;" cx="38.994"/>
  <circle r="0.499" cy="-10.977" style="fill-rule:evenodd;clip-rule:evenodd;fill:#EC008C;" cx="42.994"/>
  <circle r="0.499" cy="-10.977" style="fill-rule:evenodd;clip-rule:evenodd;fill:#EC008C;" cx="46.994"/>
  <circle r="0.499" cy="-10.977" style="fill-rule:evenodd;clip-rule:evenodd;fill:#EC008C;" cx="50.994"/>
  <circle r="0.499" cy="-10.977" style="fill-rule:evenodd;clip-rule:evenodd;fill:#EC008C;" cx="54.994"/>
  <circle r="0.499" cy="-6.977" style="fill-rule:evenodd;clip-rule:evenodd;fill:#EC008C;" cx="2.994"/>
  <circle r="0.499" cy="-6.977" style="fill-rule:evenodd;clip-rule:evenodd;fill:#EC008C;" cx="6.994"/>
  <circle r="0.499" cy="-6.977" style="fill-rule:evenodd;clip-rule:evenodd;fill:#EC008C;" cx="10.994"/>
  <circle r="0.499" cy="-6.977" style="fill-rule:evenodd;clip-rule:evenodd;fill:#EC008C;" cx="14.994"/>
  <circle r="0.499" cy="-6.977" style="fill-rule:evenodd;clip-rule:evenodd;fill:#EC008C;" cx="18.994"/>
  <circle r="0.499" cy="-6.977" style="fill-rule:evenodd;clip-rule:evenodd;fill:#EC008C;" cx="22.994"/>
  <circle r="0.499" cy="-6.977" style="fill-rule:evenodd;clip-rule:evenodd;fill:#EC008C;" cx="26.994"/>
  <circle r="0.499" cy="-6.977" style="fill-rule:evenodd;clip-rule:evenodd;fill:#EC008C;" cx="30.994"/>
  <circle r="0.499" cy="-6.977" style="fill-rule:evenodd;clip-rule:evenodd;fill:#EC008C;" cx="34.994"/>
  <circle r="0.499" cy="-6.977" style="fill-rule:evenodd;clip-rule:evenodd;fill:#EC008C;" cx="38.994"/>
  <circle r="0.499" cy="-6.977" style="fill-rule:evenodd;clip-rule:evenodd;fill:#EC008C;" cx="42.994"/>
  <circle r="0.499" cy="-6.977" style="fill-rule:evenodd;clip-rule:evenodd;fill:#EC008C;" cx="46.994"/>
  <circle r="0.499" cy="-6.977" style="fill-rule:evenodd;clip-rule:evenodd;fill:#EC008C;" cx="50.994"/>
  <circle r="0.499" cy="-6.977" style="fill-rule:evenodd;clip-rule:evenodd;fill:#EC008C;" cx="54.994"/>
  <circle r="0.499" cy="-2.977" style="fill-rule:evenodd;clip-rule:evenodd;fill:#EC008C;" cx="2.994"/>
  <circle r="0.499" cy="-2.977" style="fill-rule:evenodd;clip-rule:evenodd;fill:#EC008C;" cx="6.994"/>
  <circle r="0.499" cy="-2.977" style="fill-rule:evenodd;clip-rule:evenodd;fill:#EC008C;" cx="10.994"/>
  <circle r="0.499" cy="-2.977" style="fill-rule:evenodd;clip-rule:evenodd;fill:#EC008C;" cx="14.994"/>
  <circle r="0.499" cy="-2.977" style="fill-rule:evenodd;clip-rule:evenodd;fill:#EC008C;" cx="18.994"/>
  <circle r="0.499" cy="-2.977" style="fill-rule:evenodd;clip-rule:evenodd;fill:#EC008C;" cx="22.994"/>
  <circle r="0.499" cy="-2.977" style="fill-rule:evenodd;clip-rule:evenodd;fill:#EC008C;" cx="26.994"/>
  <circle r="0.499" cy="-2.977" style="fill-rule:evenodd;clip-rule:evenodd;fill:#EC008C;" cx="30.994"/>
  <circle r="0.499" cy="-2.977" style="fill-rule:evenodd;clip-rule:evenodd;fill:#EC008C;" cx="34.994"/>
  <circle r="0.499" cy="-2.977" style="fill-rule:evenodd;clip-rule:evenodd;fill:#EC008C;" cx="38.994"/>
  <circle r="0.499" cy="-2.977" style="fill-rule:evenodd;clip-rule:evenodd;fill:#EC008C;" cx="42.994"/>
  <circle r="0.499" cy="-2.977" style="fill-rule:evenodd;clip-rule:evenodd;fill:#EC008C;" cx="46.994"/>
  <circle r="0.499" cy="-2.977" style="fill-rule:evenodd;clip-rule:evenodd;fill:#EC008C;" cx="50.994"/>
  <circle r="0.499" cy="-2.977" style="fill-rule:evenodd;clip-rule:evenodd;fill:#EC008C;" cx="54.994"/>
 </g>
</svg>
