<?xml version="1.0"?>
<!-- Converted with SVG Converter - Version 0.9.5 (Compiled Fri Feb 21 09:53:38 2020) - Copyright (C) 2011 Nokia -->
<svg xmlns="http://www.w3.org/2000/svg" viewBox="1 -73 72 72" width="72" height="72" xmlns:xlink="http://www.w3.org/1999/xlink" version="1.1" y="0px" baseProfile="tiny" x="0px" xml:space="preserve">
 <g>
  <rect width="72" style="fill:none;" height="72" y="-73" x="1"/>
  <rect width="72" height="72" y="-73" x="1"/>
  <circle r="0.499" style="fill:#FFFFFF;" cx="6.98" cy="-72"/>
  <circle r="0.499" style="fill:#FFFFFF;" cx="9.667" cy="-71.395"/>
  <circle r="0.499" style="fill:#FFFFFF;" cx="13.833" cy="-72.354"/>
  <circle r="0.499" style="fill:#FFFFFF;" cx="8.5" cy="-69.02"/>
  <circle r="0.499" style="fill:#FFFFFF;" cx="5.5" cy="-70.02"/>
  <circle r="0.499" style="fill:#FFFFFF;" cx="1.666" cy="-69.02"/>
  <circle r="0.499" style="fill:#FFFFFF;" cx="4.667" cy="-67.187"/>
  <circle r="0.499" style="fill:#FFFFFF;" cx="7.333" cy="-66.02"/>
  <circle r="0.499" style="fill:#FFFFFF;" cx="10.5" cy="-64.854"/>
  <circle r="0.499" style="fill:#FFFFFF;" cx="12" cy="-68.687"/>
  <circle r="0.499" style="fill:#FFFFFF;" cx="15" cy="-68.52"/>
  <circle r="0.499" style="fill:#FFFFFF;" cx="17.167" cy="-71.02"/>
  <circle r="0.499" style="fill:#FFFFFF;" cx="20.333" cy="-71.854"/>
  <circle r="0.499" style="fill:#FFFFFF;" cx="22.333" cy="-70.687"/>
  <circle r="0.499" style="fill:#FFFFFF;" cx="25.75" cy="-70.479"/>
  <circle r="0.499" style="fill:#FFFFFF;" cx="27.5" cy="-72.354"/>
  <circle r="0.499" style="fill:#FFFFFF;" cx="29.333" cy="-70.02"/>
  <circle r="0.499" style="fill:#FFFFFF;" cx="27.333" cy="-67.854"/>
  <circle r="0.499" style="fill:#FFFFFF;" cx="25.5" cy="-64.854"/>
  <circle r="0.499" style="fill:#FFFFFF;" cx="23.667" cy="-61.854"/>
  <circle r="0.499" style="fill:#FFFFFF;" cx="21.875" cy="-64.729"/>
  <circle r="0.499" style="fill:#FFFFFF;" cx="23.875" cy="-67.854"/>
  <circle r="0.499" style="fill:#FFFFFF;" cx="23" cy="-59.104"/>
  <circle r="0.499" style="fill:#FFFFFF;" cx="20.833" cy="-66.52"/>
  <circle r="0.499" style="fill:#FFFFFF;" cx="19" cy="-63.854"/>
  <circle r="0.499" style="fill:#FFFFFF;" cx="16.333" cy="-64.02"/>
  <circle r="0.499" style="fill:#FFFFFF;" cx="15.5" cy="-62.02"/>
  <circle r="0.499" style="fill:#FFFFFF;" cx="12.667" cy="-62.854"/>
  <circle r="0.499" style="fill:#FFFFFF;" cx="12.5" cy="-59.687"/>
  <circle r="0.499" style="fill:#FFFFFF;" cx="11.5" cy="-56.02"/>
  <circle r="0.499" style="fill:#FFFFFF;" cx="10.667" cy="-52.854"/>
  <circle r="0.499" style="fill:#FFFFFF;" cx="10.833" cy="-50.52"/>
  <circle r="0.499" style="fill:#FFFFFF;" cx="7.667" cy="-49.854"/>
  <circle r="0.499" style="fill:#FFFFFF;" cx="8" cy="-52.854"/>
  <circle r="0.499" style="fill:#FFFFFF;" cx="8.5" cy="-55.687"/>
  <circle r="0.499" style="fill:#FFFFFF;" cx="8.833" cy="-59.187"/>
  <circle r="0.499" style="fill:#FFFFFF;" cx="9.5" cy="-61.854"/>
  <circle r="0.499" style="fill:#FFFFFF;" cx="6.333" cy="-62.354"/>
  <circle r="0.499" style="fill:#FFFFFF;" cx="3.667" cy="-64.354"/>
  <circle r="0.499" style="fill:#FFFFFF;" cx="1.833" cy="-65.52"/>
  <circle r="0.499" style="fill:#FFFFFF;" cx="2.333" cy="-60.687"/>
  <circle r="0.499" style="fill:#FFFFFF;" cx="5.333" cy="-58.854"/>
  <circle r="0.499" style="fill:#FFFFFF;" cx="4.333" cy="-55.854"/>
  <circle r="0.499" style="fill:#FFFFFF;" cx="2.5" cy="-54.854"/>
  <circle r="0.499" style="fill:#FFFFFF;" cx="2.167" cy="-57.854"/>
  <circle r="0.499" style="fill:#FFFFFF;" cx="14.333" cy="-57.854"/>
  <circle r="0.499" style="fill:#FFFFFF;" cx="18.333" cy="-60.687"/>
  <circle r="0.499" style="fill:#FFFFFF;" cx="20.5" cy="-60.687"/>
  <circle r="0.499" style="fill:#FFFFFF;" cx="20" cy="-56.854"/>
  <circle r="0.499" style="fill:#FFFFFF;" cx="17.875" cy="-57.604"/>
  <circle r="0.499" style="fill:#FFFFFF;" cx="19.833" cy="-54.687"/>
  <circle r="0.499" style="fill:#FFFFFF;" cx="16.5" cy="-53.854"/>
  <circle r="0.499" style="fill:#FFFFFF;" cx="14.167" cy="-55.02"/>
  <circle r="0.499" style="fill:#FFFFFF;" cx="14" cy="-65.854"/>
  <circle r="0.499" style="fill:#FFFFFF;" cx="17.667" cy="-66.52"/>
  <circle r="0.499" style="fill:#FFFFFF;" cx="19" cy="-68.687"/>
  <circle r="0.499" style="fill:#FFFFFF;" cx="32" cy="-71.687"/>
  <circle r="0.499" style="fill:#FFFFFF;" cx="34.833" cy="-72.187"/>
  <circle r="0.499" style="fill:#FFFFFF;" cx="35.5" cy="-69.854"/>
  <circle r="0.499" style="fill:#FFFFFF;" cx="38" cy="-72.041"/>
  <circle r="0.499" style="fill:#FFFFFF;" cx="41.333" cy="-72.187"/>
  <circle r="0.499" style="fill:#FFFFFF;" cx="33.125" cy="-67.854"/>
  <circle r="0.499" style="fill:#FFFFFF;" cx="30" cy="-67.854"/>
  <circle r="0.499" style="fill:#FFFFFF;" cx="28.833" cy="-62.354"/>
  <circle r="0.499" style="fill:#FFFFFF;" cx="30.667" cy="-65.229"/>
  <circle r="0.499" style="fill:#FFFFFF;" cx="28.5" cy="-65.854"/>
  <circle r="0.499" style="fill:#FFFFFF;" cx="35.167" cy="-66.52"/>
  <circle r="0.499" style="fill:#FFFFFF;" cx="38.167" cy="-68.354"/>
  <circle r="0.499" style="fill:#FFFFFF;" cx="41.5" cy="-70.02"/>
  <circle r="0.499" style="fill:#FFFFFF;" cx="44.333" cy="-71.187"/>
  <circle r="0.499" style="fill:#FFFFFF;" cx="47.5" cy="-72.187"/>
  <circle r="0.499" style="fill:#FFFFFF;" cx="51.333" cy="-72.02"/>
  <circle r="0.499" style="fill:#FFFFFF;" cx="47.167" cy="-68.729"/>
  <circle r="0.499" style="fill:#FFFFFF;" cx="44.021" cy="-68.125"/>
  <circle r="0.499" style="fill:#FFFFFF;" cx="41.833" cy="-65.562"/>
  <circle r="0.499" style="fill:#FFFFFF;" cx="39.333" cy="-66.354"/>
  <circle r="0.499" style="fill:#FFFFFF;" cx="38.75" cy="-63.854"/>
  <circle r="0.499" style="fill:#FFFFFF;" cx="35.5" cy="-61.729"/>
  <circle r="0.499" style="fill:#FFFFFF;" cx="32.333" cy="-60.854"/>
  <circle r="0.499" style="fill:#FFFFFF;" cx="29.333" cy="-59.52"/>
  <circle r="0.499" style="fill:#FFFFFF;" cx="34.5" cy="-58.727"/>
  <circle r="0.499" style="fill:#FFFFFF;" cx="30.667" cy="-58.187"/>
  <circle r="0.499" style="fill:#FFFFFF;" cx="28.667" cy="-55.854"/>
  <circle r="0.499" style="fill:#FFFFFF;" cx="26.167" cy="-58.02"/>
  <circle r="0.499" style="fill:#FFFFFF;" cx="26" cy="-54.52"/>
  <circle r="0.499" style="fill:#FFFFFF;" cx="24" cy="-55.604"/>
  <circle r="0.499" style="fill:#FFFFFF;" cx="25.667" cy="-52.187"/>
  <circle r="0.499" style="fill:#FFFFFF;" cx="28.5" cy="-52.854"/>
  <circle r="0.499" style="fill:#FFFFFF;" cx="31.854" cy="-54.207"/>
  <circle r="0.499" style="fill:#FFFFFF;" cx="34" cy="-55.02"/>
  <circle r="0.499" style="fill:#FFFFFF;" cx="33.167" cy="-56.687"/>
  <circle r="0.499" style="fill:#FFFFFF;" cx="36.667" cy="-55.52"/>
  <circle r="0.499" style="fill:#FFFFFF;" cx="37.167" cy="-58.02"/>
  <circle r="0.499" style="fill:#FFFFFF;" cx="38.667" cy="-60.354"/>
  <circle r="0.499" style="fill:#FFFFFF;" cx="41.333" cy="-62.187"/>
  <circle r="0.499" style="fill:#FFFFFF;" cx="44" cy="-63.52"/>
  <circle r="0.499" style="fill:#FFFFFF;" cx="45.313" cy="-65.874"/>
  <circle r="0.499" style="fill:#FFFFFF;" cx="49.083" cy="-66.812"/>
  <circle r="0.499" style="fill:#FFFFFF;" cx="50.083" cy="-69.812"/>
  <circle r="0.499" style="fill:#FFFFFF;" cx="54.167" cy="-71.52"/>
  <circle r="0.499" style="fill:#FFFFFF;" cx="57.5" cy="-72.354"/>
  <circle r="0.499" style="fill:#FFFFFF;" cx="63.167" cy="-72.354"/>
  <circle r="0.499" style="fill:#FFFFFF;" cx="60" cy="-71.02"/>
  <circle r="0.499" style="fill:#FFFFFF;" cx="58.5" cy="-68.062"/>
  <circle r="0.499" style="fill:#FFFFFF;" cx="55.125" cy="-67.729"/>
  <circle r="0.499" style="fill:#FFFFFF;" cx="65.166" cy="-62.729"/>
  <circle r="0.499" style="fill:#FFFFFF;" cx="51.833" cy="-66.312"/>
  <circle r="0.499" style="fill:#FFFFFF;" cx="33.167" cy="-64.062"/>
  <circle r="0.499" style="fill:#FFFFFF;" cx="36.167" cy="-64.52"/>
  <circle r="0.499" style="fill:#FFFFFF;" cx="53.333" cy="-69.187"/>
  <circle r="0.499" style="fill:#FFFFFF;" cx="46.687" cy="-63.207"/>
  <circle r="0.499" style="fill:#FFFFFF;" cx="44.333" cy="-60.77"/>
  <circle r="0.499" style="fill:#FFFFFF;" cx="41.667" cy="-58.854"/>
  <circle r="0.499" style="fill:#FFFFFF;" cx="39.667" cy="-56.02"/>
  <circle r="0.499" style="fill:#FFFFFF;" cx="42.833" cy="-54.395"/>
  <circle r="0.499" style="fill:#FFFFFF;" cx="44" cy="-57.02"/>
  <circle r="0.499" style="fill:#FFFFFF;" cx="49.5" cy="-61.062"/>
  <circle r="0.499" style="fill:#FFFFFF;" cx="51.333" cy="-63.561"/>
  <circle r="0.499" style="fill:#FFFFFF;" cx="49.167" cy="-64.854"/>
  <circle r="0.499" style="fill:#FFFFFF;" cx="54.333" cy="-64.894"/>
  <circle r="0.499" style="fill:#FFFFFF;" cx="57.5" cy="-65.395"/>
  <circle r="0.499" style="fill:#FFFFFF;" cx="60.5" cy="-67.02"/>
  <circle r="0.499" style="fill:#FFFFFF;" cx="62.333" cy="-69.52"/>
  <circle r="0.499" style="fill:#FFFFFF;" cx="66.333" cy="-68.854"/>
  <circle r="0.499" style="fill:#FFFFFF;" cx="64.833" cy="-70.187"/>
  <circle r="0.499" style="fill:#FFFFFF;" cx="63.5" cy="-67.187"/>
  <circle r="0.499" style="fill:#FFFFFF;" cx="60.667" cy="-64.854"/>
  <circle r="0.499" style="fill:#FFFFFF;" cx="57.5" cy="-61.854"/>
  <circle r="0.499" style="fill:#FFFFFF;" cx="54.333" cy="-62.02"/>
  <circle r="0.499" style="fill:#FFFFFF;" cx="48.333" cy="-58.854"/>
  <circle r="0.499" style="fill:#FFFFFF;" cx="48.167" cy="-55.52"/>
  <circle r="0.499" style="fill:#FFFFFF;" cx="45.75" cy="-56.104"/>
  <circle r="0.499" style="fill:#FFFFFF;" cx="45.875" cy="-52.354"/>
  <circle r="0.499" style="fill:#FFFFFF;" cx="66.166" cy="-66.187"/>
  <circle r="0.499" style="fill:#FFFFFF;" cx="63.313" cy="-64.207"/>
  <circle r="0.499" style="fill:#FFFFFF;" cx="61" cy="-61.562"/>
  <circle r="0.499" style="fill:#FFFFFF;" cx="58.167" cy="-59.354"/>
  <circle r="0.499" style="fill:#FFFFFF;" cx="55.5" cy="-59.187"/>
  <circle r="0.499" style="fill:#FFFFFF;" cx="53.5" cy="-57.02"/>
  <circle r="0.499" style="fill:#FFFFFF;" cx="50.833" cy="-54.354"/>
  <circle r="0.499" style="fill:#FFFFFF;" cx="53.667" cy="-53.854"/>
  <circle r="0.499" style="fill:#FFFFFF;" cx="55.833" cy="-56.02"/>
  <circle r="0.499" style="fill:#FFFFFF;" cx="58.5" cy="-56.187"/>
  <circle r="0.499" style="fill:#FFFFFF;" cx="63" cy="-60.062"/>
  <circle r="0.499" style="fill:#FFFFFF;" cx="68.833" cy="-63.229"/>
  <circle r="0.499" style="fill:#FFFFFF;" cx="67" cy="-61.02"/>
  <circle r="0.499" style="fill:#FFFFFF;" cx="72.5" cy="-63.187"/>
  <circle r="0.499" style="fill:#FFFFFF;" cx="69.5" cy="-61.02"/>
  <circle r="0.499" style="fill:#FFFFFF;" cx="67.5" cy="-58.854"/>
  <circle r="0.499" style="fill:#FFFFFF;" cx="70.5" cy="-57.854"/>
  <circle r="0.499" style="fill:#FFFFFF;" cx="72" cy="-60.02"/>
  <circle r="0.499" style="fill:#FFFFFF;" cx="64.333" cy="-57.854"/>
  <circle r="0.499" style="fill:#FFFFFF;" cx="61.625" cy="-56.979"/>
  <circle r="0.499" style="fill:#FFFFFF;" cx="62.25" cy="-54.854"/>
  <circle r="0.499" style="fill:#FFFFFF;" cx="59.5" cy="-54.104"/>
  <circle r="0.499" style="fill:#FFFFFF;" cx="65.333" cy="-55.52"/>
  <circle r="0.499" style="fill:#FFFFFF;" cx="68.5" cy="-55.02"/>
  <circle r="0.499" style="fill:#FFFFFF;" cx="71.666" cy="-55.02"/>
  <circle r="0.499" style="fill:#FFFFFF;" cx="69.5" cy="-53.187"/>
  <circle r="0.499" style="fill:#FFFFFF;" cx="66.5" cy="-53.02"/>
  <circle r="0.499" style="fill:#FFFFFF;" cx="63.5" cy="-51.854"/>
  <circle r="0.499" style="fill:#FFFFFF;" cx="60.167" cy="-51.854"/>
  <circle r="0.499" style="fill:#FFFFFF;" cx="61.333" cy="-49.854"/>
  <circle r="0.499" style="fill:#FFFFFF;" cx="68" cy="-48.354"/>
  <circle r="0.499" style="fill:#FFFFFF;" cx="52.5" cy="-59.227"/>
  <circle r="0.499" style="fill:#FFFFFF;" cx="55.833" cy="-69.854"/>
  <circle r="0.499" style="fill:#FFFFFF;" cx="58.75" cy="-48.354"/>
  <circle r="0.499" style="fill:#FFFFFF;" cx="56.75" cy="-52.854"/>
  <circle r="0.499" style="fill:#FFFFFF;" cx="53.75" cy="-50.479"/>
  <circle r="0.499" style="fill:#FFFFFF;" cx="55.667" cy="-49.02"/>
  <circle r="0.499" style="fill:#FFFFFF;" cx="58" cy="-50.854"/>
  <circle r="0.499" style="fill:#FFFFFF;" cx="51.333" cy="-51.187"/>
  <circle r="0.499" style="fill:#FFFFFF;" cx="48.167" cy="-52.02"/>
  <circle r="0.499" style="fill:#FFFFFF;" cx="45.333" cy="-50.02"/>
  <circle r="0.499" style="fill:#FFFFFF;" cx="42.313" cy="-51.541"/>
  <circle r="0.499" style="fill:#FFFFFF;" cx="41.125" cy="-49.354"/>
  <circle r="0.499" style="fill:#FFFFFF;" cx="42.833" cy="-47.354"/>
  <circle r="0.499" style="fill:#FFFFFF;" cx="38.167" cy="-46.104"/>
  <circle r="0.499" style="fill:#FFFFFF;" cx="32.167" cy="-42.437"/>
  <circle r="0.499" style="fill:#FFFFFF;" cx="28" cy="-39.479"/>
  <circle r="0.499" style="fill:#FFFFFF;" cx="19.833" cy="-39.312"/>
  <circle r="0.499" style="fill:#FFFFFF;" cx="23.833" cy="-43.394"/>
  <circle r="0.499" style="fill:#FFFFFF;" cx="15.167" cy="-43.77"/>
  <circle r="0.499" style="fill:#FFFFFF;" cx="12.667" cy="-47.437"/>
  <circle r="0.499" style="fill:#FFFFFF;" cx="24.583" cy="-36.812"/>
  <circle r="0.499" style="fill:#FFFFFF;" cx="22.5" cy="-33.354"/>
  <circle r="0.499" style="fill:#FFFFFF;" cx="25.125" cy="-31.229"/>
  <circle r="0.499" style="fill:#FFFFFF;" cx="20" cy="-32.895"/>
  <circle r="0.499" style="fill:#FFFFFF;" cx="14.333" cy="-17.854"/>
  <circle r="0.499" style="fill:#FFFFFF;" cx="19.167" cy="-30.561"/>
  <circle r="0.499" style="fill:#FFFFFF;" cx="14.5" cy="-34.104"/>
  <circle r="0.499" style="fill:#FFFFFF;" cx="10.75" cy="-36.104"/>
  <circle r="0.499" style="fill:#FFFFFF;" cx="11.25" cy="-40.354"/>
  <circle r="0.499" style="fill:#FFFFFF;" cx="5.875" cy="-38.604"/>
  <circle r="0.499" style="fill:#FFFFFF;" cx="2.625" cy="-40.104"/>
  <circle r="0.499" style="fill:#FFFFFF;" cx="6.375" cy="-41.354"/>
  <circle r="0.499" style="fill:#FFFFFF;" cx="8.5" cy="-39.729"/>
  <circle r="0.499" style="fill:#FFFFFF;" cx="13.854" cy="-37.332"/>
  <circle r="0.499" style="fill:#FFFFFF;" cx="16.375" cy="-37.979"/>
  <circle r="0.499" style="fill:#FFFFFF;" cx="14.375" cy="-40.229"/>
  <circle r="0.499" style="fill:#FFFFFF;" cx="17.5" cy="-40.354"/>
  <circle r="0.499" style="fill:#FFFFFF;" cx="18" cy="-36.354"/>
  <circle r="0.499" style="fill:#FFFFFF;" cx="21.167" cy="-36.562"/>
  <circle r="0.499" style="fill:#FFFFFF;" cx="25.625" cy="-33.104"/>
  <circle r="0.499" style="fill:#FFFFFF;" cx="30" cy="-37.436"/>
  <circle r="0.499" style="fill:#FFFFFF;" cx="32.875" cy="-34.979"/>
  <circle r="0.499" style="fill:#FFFFFF;" cx="31.875" cy="-32.979"/>
  <circle r="0.499" style="fill:#FFFFFF;" cx="34.375" cy="-32.229"/>
  <circle r="0.499" style="fill:#FFFFFF;" cx="34.75" cy="-30.104"/>
  <circle r="0.499" style="fill:#FFFFFF;" cx="33.625" cy="-26.979"/>
  <circle r="0.499" style="fill:#FFFFFF;" cx="33.25" cy="-24.354"/>
  <circle r="0.499" style="fill:#FFFFFF;" cx="34.875" cy="-20.729"/>
  <circle r="0.499" style="fill:#FFFFFF;" cx="37" cy="-23.686"/>
  <circle r="0.499" style="fill:#FFFFFF;" cx="39.125" cy="-20.854"/>
  <circle r="0.499" style="fill:#FFFFFF;" cx="37.125" cy="-18.354"/>
  <circle r="0.499" style="fill:#FFFFFF;" cx="43.5" cy="-18.104"/>
  <circle r="0.499" style="fill:#FFFFFF;" cx="40.375" cy="-18.229"/>
  <circle r="0.499" style="fill:#FFFFFF;" cx="38.375" cy="-14.979"/>
  <circle r="0.499" style="fill:#FFFFFF;" cx="34.5" cy="-15.979"/>
  <circle r="0.499" style="fill:#FFFFFF;" cx="33.375" cy="-18.854"/>
  <circle r="0.499" style="fill:#FFFFFF;" cx="31.875" cy="-21.104"/>
  <circle r="0.499" style="fill:#FFFFFF;" cx="30.75" cy="-23.979"/>
  <circle r="0.499" style="fill:#FFFFFF;" cx="30" cy="-26.687"/>
  <circle r="0.499" style="fill:#FFFFFF;" cx="31.625" cy="-29.229"/>
  <circle r="0.499" style="fill:#FFFFFF;" cx="28.167" cy="-31.687"/>
  <circle r="0.499" style="fill:#FFFFFF;" cx="29" cy="-34.895"/>
  <circle r="0.499" style="fill:#FFFFFF;" cx="28.75" cy="-29.604"/>
  <circle r="0.499" style="fill:#FFFFFF;" cx="26.375" cy="-28.104"/>
  <circle r="0.499" style="fill:#FFFFFF;" cx="27.375" cy="-25.104"/>
  <circle r="0.499" style="fill:#FFFFFF;" cx="27.5" cy="-22.02"/>
  <circle r="0.499" style="fill:#FFFFFF;" cx="28.833" cy="-19.187"/>
  <circle r="0.499" style="fill:#FFFFFF;" cx="30" cy="-17.354"/>
  <circle r="0.499" style="fill:#FFFFFF;" cx="31.125" cy="-15.479"/>
  <circle r="0.499" style="fill:#FFFFFF;" cx="29.75" cy="-13.229"/>
  <circle r="0.499" style="fill:#FFFFFF;" cx="26" cy="-13.354"/>
  <circle r="0.499" style="fill:#FFFFFF;" cx="23.5" cy="-15.979"/>
  <circle r="0.499" style="fill:#FFFFFF;" cx="21.5" cy="-13.979"/>
  <circle r="0.499" style="fill:#FFFFFF;" cx="50.333" cy="-57.187"/>
  <circle r="0.499" style="fill:#FFFFFF;" cx="18.25" cy="-9.479"/>
  <circle r="0.499" style="fill:#FFFFFF;" cx="21.375" cy="-10.104"/>
  <circle r="0.499" style="fill:#FFFFFF;" cx="22.333" cy="-7.854"/>
  <circle r="0.499" style="fill:#FFFFFF;" cx="24.25" cy="-10.979"/>
  <circle r="0.499" style="fill:#FFFFFF;" cx="19.5" cy="-7.062"/>
  <circle r="0.499" style="fill:#FFFFFF;" cx="17.25" cy="-3.104"/>
  <circle r="0.499" style="fill:#FFFFFF;" cx="15.833" cy="-5.562"/>
  <circle r="0.499" style="fill:#FFFFFF;" cx="12.5" cy="-3.104"/>
  <circle r="0.499" style="fill:#FFFFFF;" cx="11.021" cy="-5.332"/>
  <circle r="0.499" style="fill:#FFFFFF;" cx="13.5" cy="-6.979"/>
  <circle r="0.499" style="fill:#FFFFFF;" cx="14.5" cy="-9.854"/>
  <circle r="0.499" style="fill:#FFFFFF;" cx="15.5" cy="-8.187"/>
  <circle r="0.499" style="fill:#FFFFFF;" cx="18.833" cy="-4.187"/>
  <circle r="0.498" style="fill:#FFFFFF;" cx="20.5" cy="-2.02"/>
  <circle r="0.499" style="fill:#FFFFFF;" cx="9.75" cy="-1.604"/>
  <circle r="0.499" style="fill:#FFFFFF;" cx="15" cy="-1.92"/>
  <circle r="0.499" style="fill:#FFFFFF;" cx="10.5" cy="-12.104"/>
  <circle r="0.499" style="fill:#FFFFFF;" cx="12" cy="-9.979"/>
  <circle r="0.499" style="fill:#FFFFFF;" cx="8.375" cy="-9.979"/>
  <circle r="0.499" style="fill:#FFFFFF;" cx="5.75" cy="-10.854"/>
  <circle r="0.499" style="fill:#FFFFFF;" cx="3.25" cy="-9.229"/>
  <circle r="0.499" style="fill:#FFFFFF;" cx="5.375" cy="-7.104"/>
  <circle r="0.499" style="fill:#FFFFFF;" cx="9.125" cy="-7.104"/>
  <circle r="0.499" style="fill:#FFFFFF;" cx="8.25" cy="-4.104"/>
  <circle r="0.499" style="fill:#FFFFFF;" cx="5.5" cy="-3.979"/>
  <circle r="0.499" style="fill:#FFFFFF;" cx="3.25" cy="-5.229"/>
  <circle r="0.499" style="fill:#FFFFFF;" cx="1.5" cy="-3.104"/>
  <circle r="0.499" style="fill:#FFFFFF;" cx="4.635" cy="-1.795"/>
  <circle r="0.499" style="fill:#FFFFFF;" cx="16" cy="-48.604"/>
  <circle r="0.499" style="fill:#FFFFFF;" cx="14.333" cy="-13.062"/>
  <circle r="0.499" style="fill:#FFFFFF;" cx="12.167" cy="-14.854"/>
  <circle r="0.499" style="fill:#FFFFFF;" cx="10.5" cy="-22.854"/>
  <circle r="0.499" style="fill:#FFFFFF;" cx="10.5" cy="-26.687"/>
  <circle r="0.499" style="fill:#FFFFFF;" cx="15.167" cy="-15.687"/>
  <circle r="0.499" style="fill:#FFFFFF;" cx="17.5" cy="-12.729"/>
  <circle r="0.499" style="fill:#FFFFFF;" cx="16.667" cy="-19.687"/>
  <circle r="0.498" style="fill:#FFFFFF;" cx="22.167" cy="-12.521"/>
  <circle r="0.499" style="fill:#FFFFFF;" cx="19.667" cy="-17.687"/>
  <circle r="0.499" style="fill:#FFFFFF;" cx="22.375" cy="-18.979"/>
  <circle r="0.499" style="fill:#FFFFFF;" cx="22" cy="-22.229"/>
  <circle r="0.499" style="fill:#FFFFFF;" cx="16.583" cy="-22.812"/>
  <circle r="0.499" style="fill:#FFFFFF;" cx="19.375" cy="-20.104"/>
  <circle r="0.499" style="fill:#FFFFFF;" cx="18.333" cy="-15.687"/>
  <circle r="0.499" style="fill:#FFFFFF;" cx="16.083" cy="-26.062"/>
  <circle r="0.499" style="fill:#FFFFFF;" cx="19" cy="-23.729"/>
  <circle r="0.499" style="fill:#FFFFFF;" cx="21.667" cy="-26.229"/>
  <circle r="0.499" style="fill:#FFFFFF;" cx="24.375" cy="-23.686"/>
  <circle r="0.499" style="fill:#FFFFFF;" cx="24.375" cy="-26.104"/>
  <circle r="0.499" style="fill:#FFFFFF;" cx="22.25" cy="-29.686"/>
  <circle r="0.499" style="fill:#FFFFFF;" cx="19" cy="-28.104"/>
  <circle r="0.499" style="fill:#FFFFFF;" cx="16.25" cy="-29.104"/>
  <circle r="0.499" style="fill:#FFFFFF;" cx="13.75" cy="-31.332"/>
  <circle r="0.499" style="fill:#FFFFFF;" cx="11.5" cy="-32.979"/>
  <circle r="0.499" style="fill:#FFFFFF;" cx="7.75" cy="-33.104"/>
  <circle r="0.499" style="fill:#FFFFFF;" cx="8" cy="-35.354"/>
  <circle r="0.499" style="fill:#FFFFFF;" cx="5.625" cy="-35.104"/>
  <circle r="0.499" style="fill:#FFFFFF;" cx="2.5" cy="-36.229"/>
  <circle r="0.499" style="fill:#FFFFFF;" cx="3.5" cy="-33.104"/>
  <circle r="0.499" style="fill:#FFFFFF;" cx="4.5" cy="-30.979"/>
  <circle r="0.499" style="fill:#FFFFFF;" cx="6.25" cy="-27.979"/>
  <circle r="0.499" style="fill:#FFFFFF;" cx="8.125" cy="-25.979"/>
  <circle r="0.499" style="fill:#FFFFFF;" cx="13.375" cy="-23.104"/>
  <circle r="0.499" style="fill:#FFFFFF;" cx="13.5" cy="-20.104"/>
  <circle r="0.499" style="fill:#FFFFFF;" cx="10.771" cy="-20.5"/>
  <circle r="0.499" style="fill:#FFFFFF;" cx="8.375" cy="-21.979"/>
  <circle r="0.499" style="fill:#FFFFFF;" cx="6.5" cy="-23.979"/>
  <circle r="0.499" style="fill:#FFFFFF;" cx="4.375" cy="-25.979"/>
  <circle r="0.499" style="fill:#FFFFFF;" cx="2.5" cy="-27.979"/>
  <circle r="0.499" style="fill:#FFFFFF;" cx="8.375" cy="-30.104"/>
  <circle r="0.499" style="fill:#FFFFFF;" cx="11" cy="-30.02"/>
  <circle r="0.499" style="fill:#FFFFFF;" cx="13.167" cy="-25.354"/>
  <circle r="0.499" style="fill:#FFFFFF;" cx="13.333" cy="-28.187"/>
  <circle r="0.499" style="fill:#FFFFFF;" cx="8.396" cy="-17.125"/>
  <circle r="0.499" style="fill:#FFFFFF;" cx="5.5" cy="-15.854"/>
  <circle r="0.499" style="fill:#FFFFFF;" cx="3.5" cy="-12.854"/>
  <circle r="0.499" style="fill:#FFFFFF;" cx="1.659" cy="-14.104"/>
  <circle r="0.499" style="fill:#FFFFFF;" cx="7.021" cy="-14.332"/>
  <circle r="0.499" style="fill:#FFFFFF;" cx="10" cy="-14.729"/>
  <circle r="0.499" style="fill:#FFFFFF;" cx="11.625" cy="-17.104"/>
  <circle r="0.499" style="fill:#FFFFFF;" cx="6.375" cy="-18.979"/>
  <circle r="0.499" style="fill:#FFFFFF;" cx="4.25" cy="-20.854"/>
  <circle r="0.499" style="fill:#FFFFFF;" cx="2.25" cy="-23.104"/>
  <circle r="0.499" style="fill:#FFFFFF;" cx="3.25" cy="-18.104"/>
  <circle r="0.499" style="fill:#FFFFFF;" cx="27.25" cy="-15.854"/>
  <circle r="0.499" style="fill:#FFFFFF;" cx="26.25" cy="-17.729"/>
  <circle r="0.499" style="fill:#FFFFFF;" cx="24.625" cy="-20.604"/>
  <circle r="0.499" style="fill:#FFFFFF;" cx="40.125" cy="-28.604"/>
  <circle r="0.499" style="fill:#FFFFFF;" cx="41.375" cy="-26.104"/>
  <circle r="0.499" style="fill:#FFFFFF;" cx="44.167" cy="-27.687"/>
  <circle r="0.499" style="fill:#FFFFFF;" cx="43.5" cy="-23.52"/>
  <circle r="0.499" style="fill:#FFFFFF;" cx="46.5" cy="-21.979"/>
  <circle r="0.499" style="fill:#FFFFFF;" cx="49.375" cy="-23.979"/>
  <circle r="0.499" style="fill:#FFFFFF;" cx="50.146" cy="-21.332"/>
  <circle r="0.499" style="fill:#FFFFFF;" cx="52.5" cy="-23.229"/>
  <circle r="0.499" style="fill:#FFFFFF;" cx="55.5" cy="-20.854"/>
  <circle r="0.499" style="fill:#FFFFFF;" cx="58.833" cy="-21.312"/>
  <circle r="0.499" style="fill:#FFFFFF;" cx="60.375" cy="-19.104"/>
  <circle r="0.499" style="fill:#FFFFFF;" cx="63.667" cy="-21.27"/>
  <circle r="0.499" style="fill:#FFFFFF;" cx="66.625" cy="-17.979"/>
  <circle r="0.499" style="fill:#FFFFFF;" cx="70.375" cy="-17.979"/>
  <circle r="0.499" style="fill:#FFFFFF;" cx="72.333" cy="-19.187"/>
  <circle r="0.499" style="fill:#FFFFFF;" cx="72.166" cy="-16.02"/>
  <circle r="0.498" style="fill:#FFFFFF;" cx="72.341" cy="-12.129"/>
  <circle r="0.499" style="fill:#FFFFFF;" cx="69.5" cy="-14.229"/>
  <circle r="0.499" style="fill:#FFFFFF;" cx="66.625" cy="-15.729"/>
  <circle r="0.499" style="fill:#FFFFFF;" cx="62.833" cy="-17.604"/>
  <circle r="0.499" style="fill:#FFFFFF;" cx="57.375" cy="-18.479"/>
  <circle r="0.499" style="fill:#FFFFFF;" cx="63.375" cy="-13.979"/>
  <circle r="0.499" style="fill:#FFFFFF;" cx="66.5" cy="-12.104"/>
  <circle r="0.499" style="fill:#FFFFFF;" cx="69.75" cy="-10.979"/>
  <circle r="0.499" style="fill:#FFFFFF;" cx="72.5" cy="-9.104"/>
  <circle r="0.499" style="fill:#FFFFFF;" cx="69.375" cy="-7.854"/>
  <circle r="0.499" style="fill:#FFFFFF;" cx="72.125" cy="-5.229"/>
  <circle r="0.499" style="fill:#FFFFFF;" cx="55.014" cy="-1.804"/>
  <circle r="0.499" style="fill:#FFFFFF;" cx="68.833" cy="-1.687"/>
  <circle r="0.499" style="fill:#FFFFFF;" cx="61.815" cy="-1.804"/>
  <circle r="0.499" style="fill:#FFFFFF;" cx="70.5" cy="-4.104"/>
  <circle r="0.499" style="fill:#FFFFFF;" cx="64.375" cy="-3.104"/>
  <circle r="0.499" style="fill:#FFFFFF;" cx="66.375" cy="-5.104"/>
  <circle r="0.499" style="fill:#FFFFFF;" cx="66.625" cy="-8.229"/>
  <circle r="0.499" style="fill:#FFFFFF;" cx="63.5" cy="-6.604"/>
  <circle r="0.499" style="fill:#FFFFFF;" cx="61.5" cy="-4.979"/>
  <circle r="0.499" style="fill:#FFFFFF;" cx="59.25" cy="-3.104"/>
  <circle r="0.499" style="fill:#FFFFFF;" cx="56.625" cy="-4.354"/>
  <circle r="0.499" style="fill:#FFFFFF;" cx="53.25" cy="-5.354"/>
  <circle r="0.499" style="fill:#FFFFFF;" cx="50.375" cy="-6.354"/>
  <circle r="0.499" style="fill:#FFFFFF;" cx="46.375" cy="-8.104"/>
  <circle r="0.499" style="fill:#FFFFFF;" cx="49.25" cy="-9.979"/>
  <circle r="0.499" style="fill:#FFFFFF;" cx="52.5" cy="-8.854"/>
  <circle r="0.499" style="fill:#FFFFFF;" cx="55.25" cy="-7.104"/>
  <circle r="0.499" style="fill:#FFFFFF;" cx="58.375" cy="-6.854"/>
  <circle r="0.499" style="fill:#FFFFFF;" cx="60.75" cy="-8.979"/>
  <circle r="0.499" style="fill:#FFFFFF;" cx="63.25" cy="-10.354"/>
  <circle r="0.499" style="fill:#FFFFFF;" cx="60.5" cy="-13.104"/>
  <circle r="0.499" style="fill:#FFFFFF;" cx="58.625" cy="-15.604"/>
  <circle r="0.499" style="fill:#FFFFFF;" cx="55.125" cy="-17.229"/>
  <circle r="0.499" style="fill:#FFFFFF;" cx="52.5" cy="-16.229"/>
  <circle r="0.499" style="fill:#FFFFFF;" cx="49.625" cy="-13.729"/>
  <circle r="0.499" style="fill:#FFFFFF;" cx="46.5" cy="-11.937"/>
  <circle r="0.499" style="fill:#FFFFFF;" cx="43.25" cy="-12.979"/>
  <circle r="0.499" style="fill:#FFFFFF;" cx="43.125" cy="-15.479"/>
  <circle r="0.499" style="fill:#FFFFFF;" cx="46.375" cy="-14.979"/>
  <circle r="0.499" style="fill:#FFFFFF;" cx="49.375" cy="-16.854"/>
  <circle r="0.499" style="fill:#FFFFFF;" cx="47.5" cy="-18.979"/>
  <circle r="0.499" style="fill:#FFFFFF;" cx="44.625" cy="-20.229"/>
  <circle r="0.499" style="fill:#FFFFFF;" cx="41.375" cy="-22.104"/>
  <circle r="0.499" style="fill:#FFFFFF;" cx="39.375" cy="-24.104"/>
  <circle r="0.499" style="fill:#FFFFFF;" cx="37.375" cy="-26.854"/>
  <circle r="0.499" style="fill:#FFFFFF;" cx="52.625" cy="-11.729"/>
  <circle r="0.499" style="fill:#FFFFFF;" cx="54.375" cy="-13.854"/>
  <circle r="0.499" style="fill:#FFFFFF;" cx="55.25" cy="-10.979"/>
  <circle r="0.499" style="fill:#FFFFFF;" cx="57.5" cy="-9.354"/>
  <circle r="0.499" style="fill:#FFFFFF;" cx="57.5" cy="-12.104"/>
  <circle r="0.499" style="fill:#FFFFFF;" cx="52.375" cy="-19.104"/>
  <circle r="0.499" style="fill:#FFFFFF;" cx="44.125" cy="-9.771"/>
  <circle r="0.499" style="fill:#FFFFFF;" cx="41.771" cy="-11"/>
  <circle r="0.499" style="fill:#FFFFFF;" cx="37.5" cy="-11.729"/>
  <circle r="0.499" style="fill:#FFFFFF;" cx="36.25" cy="-13.936"/>
  <circle r="0.499" style="fill:#FFFFFF;" cx="32.875" cy="-12.979"/>
  <circle r="0.499" style="fill:#FFFFFF;" cx="30.375" cy="-11.104"/>
  <circle r="0.499" style="fill:#FFFFFF;" cx="27.521" cy="-11.457"/>
  <circle r="0.499" style="fill:#FFFFFF;" cx="24.875" cy="-8.854"/>
  <circle r="0.499" style="fill:#FFFFFF;" cx="23.5" cy="-5.979"/>
  <circle r="0.499" style="fill:#FFFFFF;" cx="21.25" cy="-4.104"/>
  <circle r="0.499" style="fill:#FFFFFF;" cx="24.625" cy="-1.979"/>
  <circle r="0.499" style="fill:#FFFFFF;" cx="26.5" cy="-4.854"/>
  <circle r="0.499" style="fill:#FFFFFF;" cx="29.375" cy="-6.729"/>
  <circle r="0.499" style="fill:#FFFFFF;" cx="26.833" cy="-7.354"/>
  <circle r="0.499" style="fill:#FFFFFF;" cx="32" cy="-8.729"/>
  <circle r="0.499" style="fill:#FFFFFF;" cx="33.75" cy="-9.979"/>
  <circle r="0.499" style="fill:#FFFFFF;" cx="39.5" cy="-8.979"/>
  <circle r="0.499" style="fill:#FFFFFF;" cx="45" cy="-6.604"/>
  <circle r="0.499" style="fill:#FFFFFF;" cx="48" cy="-4.104"/>
  <circle r="0.499" style="fill:#FFFFFF;" cx="51.183" cy="-2.854"/>
  <circle r="0.499" style="fill:#FFFFFF;" cx="46.25" cy="-2.354"/>
  <circle r="0.499" style="fill:#FFFFFF;" cx="43.375" cy="-4.104"/>
  <circle r="0.499" style="fill:#FFFFFF;" cx="41.125" cy="-6.229"/>
  <circle r="0.499" style="fill:#FFFFFF;" cx="38.125" cy="-7.104"/>
  <circle r="0.499" style="fill:#FFFFFF;" cx="35.625" cy="-8.229"/>
  <circle r="0.499" style="fill:#FFFFFF;" cx="33.75" cy="-5.479"/>
  <circle r="0.499" style="fill:#FFFFFF;" cx="30.625" cy="-4.229"/>
  <circle r="0.499" style="fill:#FFFFFF;" cx="28.793" cy="-2.137"/>
  <circle r="0.499" style="fill:#FFFFFF;" cx="31.5" cy="-2.354"/>
  <circle r="0.499" style="fill:#FFFFFF;" cx="35.25" cy="-2.854"/>
  <circle r="0.499" style="fill:#FFFFFF;" cx="39.25" cy="-4.104"/>
  <circle r="0.499" style="fill:#FFFFFF;" cx="35.5" cy="-37.104"/>
  <circle r="0.499" style="fill:#FFFFFF;" cx="41.125" cy="-42.354"/>
  <circle r="0.499" style="fill:#FFFFFF;" cx="37.833" cy="-42.937"/>
  <circle r="0.499" style="fill:#FFFFFF;" cx="43.125" cy="-40.354"/>
  <circle r="0.499" style="fill:#FFFFFF;" cx="45.5" cy="-42.979"/>
  <circle r="0.499" style="fill:#FFFFFF;" cx="47.375" cy="-45.979"/>
  <circle r="0.499" style="fill:#FFFFFF;" cx="51.375" cy="-43.979"/>
  <circle r="0.499" style="fill:#FFFFFF;" cx="49.375" cy="-48.854"/>
  <circle r="0.499" style="fill:#FFFFFF;" cx="51.125" cy="-47.479"/>
  <circle r="0.499" style="fill:#FFFFFF;" cx="53.875" cy="-46.979"/>
  <circle r="0.499" style="fill:#FFFFFF;" cx="56.396" cy="-46.875"/>
  <circle r="0.499" style="fill:#FFFFFF;" cx="56.125" cy="-44.229"/>
  <circle r="0.499" style="fill:#FFFFFF;" cx="60.125" cy="-46.104"/>
  <circle r="0.499" style="fill:#FFFFFF;" cx="62.5" cy="-46.979"/>
  <circle r="0.499" style="fill:#FFFFFF;" cx="65.5" cy="-49.229"/>
  <circle r="0.499" style="fill:#FFFFFF;" cx="68.771" cy="-50.667"/>
  <circle r="0.499" style="fill:#FFFFFF;" cx="71.833" cy="-52.187"/>
  <circle r="0.499" style="fill:#FFFFFF;" cx="70.25" cy="-47.104"/>
  <circle r="0.499" style="fill:#FFFFFF;" cx="71.833" cy="-45.187"/>
  <circle r="0.499" style="fill:#FFFFFF;" cx="69.625" cy="-43.729"/>
  <circle r="0.499" style="fill:#FFFFFF;" cx="71.833" cy="-42.52"/>
  <circle r="0.499" style="fill:#FFFFFF;" cx="66.25" cy="-45.979"/>
  <circle r="0.499" style="fill:#FFFFFF;" cx="64.5" cy="-44.979"/>
  <circle r="0.499" style="fill:#FFFFFF;" cx="63.167" cy="-42.354"/>
  <circle r="0.499" style="fill:#FFFFFF;" cx="61.375" cy="-43.854"/>
  <circle r="0.499" style="fill:#FFFFFF;" cx="59.375" cy="-41.979"/>
  <circle r="0.499" style="fill:#FFFFFF;" cx="56.5" cy="-40.604"/>
  <circle r="0.499" style="fill:#FFFFFF;" cx="53.625" cy="-42.604"/>
  <circle r="0.499" style="fill:#FFFFFF;" cx="49" cy="-43.604"/>
  <circle r="0.499" style="fill:#FFFFFF;" cx="46.875" cy="-41.354"/>
  <circle r="0.499" style="fill:#FFFFFF;" cx="44.375" cy="-38.104"/>
  <circle r="0.499" style="fill:#FFFFFF;" cx="43" cy="-36.104"/>
  <circle r="0.499" style="fill:#FFFFFF;" cx="41.5" cy="-33.229"/>
  <circle r="0.499" style="fill:#FFFFFF;" cx="44.5" cy="-30.729"/>
  <circle r="0.499" style="fill:#FFFFFF;" cx="46.167" cy="-31.854"/>
  <circle r="0.499" style="fill:#FFFFFF;" cx="48.5" cy="-33.104"/>
  <circle r="0.499" style="fill:#FFFFFF;" cx="45.375" cy="-34.354"/>
  <circle r="0.499" style="fill:#FFFFFF;" cx="46.5" cy="-36.979"/>
  <circle r="0.499" style="fill:#FFFFFF;" cx="48.125" cy="-39.604"/>
  <circle r="0.499" style="fill:#FFFFFF;" cx="51.375" cy="-37.104"/>
  <circle r="0.499" style="fill:#FFFFFF;" cx="49.25" cy="-34.979"/>
  <circle r="0.499" style="fill:#FFFFFF;" cx="53.354" cy="-33.832"/>
  <circle r="0.499" style="fill:#FFFFFF;" cx="50.875" cy="-31.229"/>
  <circle r="0.499" style="fill:#FFFFFF;" cx="54.375" cy="-31.104"/>
  <circle r="0.499" style="fill:#FFFFFF;" cx="52.979" cy="-29.332"/>
  <circle r="0.499" style="fill:#FFFFFF;" cx="56.125" cy="-27.979"/>
  <circle r="0.499" style="fill:#FFFFFF;" cx="59.125" cy="-27.229"/>
  <circle r="0.499" style="fill:#FFFFFF;" cx="62.5" cy="-28.979"/>
  <circle r="0.499" style="fill:#FFFFFF;" cx="65.625" cy="-27.979"/>
  <circle r="0.499" style="fill:#FFFFFF;" cx="68.875" cy="-25.979"/>
  <circle r="0.499" style="fill:#FFFFFF;" cx="71.25" cy="-26.104"/>
  <circle r="0.499" style="fill:#FFFFFF;" cx="71.875" cy="-23.854"/>
  <circle r="0.499" style="fill:#FFFFFF;" cx="70.375" cy="-21.104"/>
  <circle r="0.499" style="fill:#FFFFFF;" cx="66.666" cy="-22.354"/>
  <circle r="0.499" style="fill:#FFFFFF;" cx="68.375" cy="-23.229"/>
  <circle r="0.499" style="fill:#FFFFFF;" cx="64.5" cy="-24.104"/>
  <circle r="0.499" style="fill:#FFFFFF;" cx="62.125" cy="-25.854"/>
  <circle r="0.499" style="fill:#FFFFFF;" cx="60.625" cy="-23.104"/>
  <circle r="0.499" style="fill:#FFFFFF;" cx="57.375" cy="-24.229"/>
  <circle r="0.499" style="fill:#FFFFFF;" cx="55.25" cy="-24.354"/>
  <circle r="0.499" style="fill:#FFFFFF;" cx="52.5" cy="-25.979"/>
  <circle r="0.499" style="fill:#FFFFFF;" cx="49.5" cy="-28.104"/>
  <circle r="0.499" style="fill:#FFFFFF;" cx="46.625" cy="-26.729"/>
  <circle r="0.499" style="fill:#FFFFFF;" cx="47.667" cy="-29.354"/>
  <circle r="0.499" style="fill:#FFFFFF;" cx="41.25" cy="-30.354"/>
  <circle r="0.499" style="fill:#FFFFFF;" cx="37.375" cy="-34.104"/>
  <circle r="0.499" style="fill:#FFFFFF;" cx="37.125" cy="-31.104"/>
  <circle r="0.499" style="fill:#FFFFFF;" cx="35.333" cy="-27.687"/>
  <circle r="0.499" style="fill:#FFFFFF;" cx="38.625" cy="-36.354"/>
  <circle r="0.499" style="fill:#FFFFFF;" cx="40.333" cy="-38.354"/>
  <circle r="0.499" style="fill:#FFFFFF;" cx="51.5" cy="-41.104"/>
  <circle r="0.499" style="fill:#FFFFFF;" cx="53" cy="-39.729"/>
  <circle r="0.499" style="fill:#FFFFFF;" cx="55.5" cy="-35.354"/>
  <circle r="0.499" style="fill:#FFFFFF;" cx="57.875" cy="-37.354"/>
  <circle r="0.499" style="fill:#FFFFFF;" cx="59.25" cy="-38.979"/>
  <circle r="0.499" style="fill:#FFFFFF;" cx="61.375" cy="-40.104"/>
  <circle r="0.499" style="fill:#FFFFFF;" cx="65.375" cy="-40.354"/>
  <circle r="0.499" style="fill:#FFFFFF;" cx="67.375" cy="-42.229"/>
  <circle r="0.499" style="fill:#FFFFFF;" cx="70.5" cy="-41.229"/>
  <circle r="0.499" style="fill:#FFFFFF;" cx="68.5" cy="-38.104"/>
  <circle r="0.499" style="fill:#FFFFFF;" cx="72" cy="-37.229"/>
  <circle r="0.499" style="fill:#FFFFFF;" cx="71.375" cy="-34.354"/>
  <circle r="0.499" style="fill:#FFFFFF;" cx="72.166" cy="-28.52"/>
  <circle r="0.499" style="fill:#FFFFFF;" cx="66.5" cy="-36.229"/>
  <circle r="0.499" style="fill:#FFFFFF;" cx="63" cy="-38.354"/>
  <circle r="0.499" style="fill:#FFFFFF;" cx="61.25" cy="-36.104"/>
  <circle r="0.499" style="fill:#FFFFFF;" cx="58.625" cy="-34.104"/>
  <circle r="0.499" style="fill:#FFFFFF;" cx="56" cy="-32.104"/>
  <circle r="0.499" style="fill:#FFFFFF;" cx="59.375" cy="-31.104"/>
  <circle r="0.499" style="fill:#FFFFFF;" cx="57.667" cy="-29.354"/>
  <circle r="0.499" style="fill:#FFFFFF;" cx="45.667" cy="-25.187"/>
  <circle r="0.499" style="fill:#FFFFFF;" cx="62" cy="-33.229"/>
  <circle r="0.499" style="fill:#FFFFFF;" cx="64.375" cy="-34.854"/>
  <circle r="0.499" style="fill:#FFFFFF;" cx="66.875" cy="-31.979"/>
  <circle r="0.499" style="fill:#FFFFFF;" cx="68.625" cy="-33.479"/>
  <circle r="0.499" style="fill:#FFFFFF;" cx="64.75" cy="-30.854"/>
  <circle r="0.499" style="fill:#FFFFFF;" cx="68.25" cy="-28.979"/>
  <circle r="0.499" style="fill:#FFFFFF;" cx="70.625" cy="-29.854"/>
  <circle r="0.499" style="fill:#FFFFFF;" cx="41.625" cy="-45.104"/>
  <circle r="0.499" style="fill:#FFFFFF;" cx="45.125" cy="-47.104"/>
  <circle r="0.499" style="fill:#FFFFFF;" cx="36.333" cy="-40.02"/>
  <circle r="0.499" style="fill:#FFFFFF;" cx="33.167" cy="-39.604"/>
  <circle r="0.499" style="fill:#FFFFFF;" cx="23.25" cy="-39.104"/>
  <circle r="0.499" style="fill:#FFFFFF;" cx="26.583" cy="-35.812"/>
  <circle r="0.499" style="fill:#FFFFFF;" cx="17" cy="-34.02"/>
  <circle r="0.499" style="fill:#FFFFFF;" cx="16.5" cy="-31.52"/>
  <circle r="0.499" style="fill:#FFFFFF;" cx="34.604" cy="-44.332"/>
  <circle r="0.499" style="fill:#FFFFFF;" cx="38.375" cy="-48.729"/>
  <circle r="0.499" style="fill:#FFFFFF;" cx="35.5" cy="-47.729"/>
  <circle r="0.499" style="fill:#FFFFFF;" cx="33.625" cy="-45.729"/>
  <circle r="0.499" style="fill:#FFFFFF;" cx="30.5" cy="-44.979"/>
  <circle r="0.499" style="fill:#FFFFFF;" cx="28.375" cy="-42.729"/>
  <circle r="0.499" style="fill:#FFFFFF;" cx="25.875" cy="-41.311"/>
  <circle r="0.499" style="fill:#FFFFFF;" cx="25.5" cy="-44.854"/>
  <circle r="0.499" style="fill:#FFFFFF;" cx="21.083" cy="-41.812"/>
  <circle r="0.499" style="fill:#FFFFFF;" cx="39.667" cy="-53.02"/>
  <circle r="0.499" style="fill:#FFFFFF;" cx="36.896" cy="-51.625"/>
  <circle r="0.499" style="fill:#FFFFFF;" cx="33.5" cy="-51.687"/>
  <circle r="0.499" style="fill:#FFFFFF;" cx="32.5" cy="-48.854"/>
  <circle r="0.499" style="fill:#FFFFFF;" cx="34.98" cy="-50"/>
  <circle r="0.499" style="fill:#FFFFFF;" cx="29.625" cy="-48.104"/>
  <circle r="0.499" style="fill:#FFFFFF;" cx="27.833" cy="-46.02"/>
  <circle r="0.499" style="fill:#FFFFFF;" cx="30.833" cy="-51.02"/>
  <circle r="0.499" style="fill:#FFFFFF;" cx="28.167" cy="-49.187"/>
  <circle r="0.499" style="fill:#FFFFFF;" cx="25.5" cy="-48.02"/>
  <circle r="0.499" style="fill:#FFFFFF;" cx="22.25" cy="-46.729"/>
  <circle r="0.499" style="fill:#FFFFFF;" cx="19.333" cy="-44.687"/>
  <circle r="0.499" style="fill:#FFFFFF;" cx="15.833" cy="-46.062"/>
  <circle r="0.499" style="fill:#FFFFFF;" cx="11" cy="-45.604"/>
  <circle r="0.499" style="fill:#FFFFFF;" cx="8.5" cy="-47.229"/>
  <circle r="0.499" style="fill:#FFFFFF;" cx="4.5" cy="-49.354"/>
  <circle r="0.499" style="fill:#FFFFFF;" cx="2" cy="-47.02"/>
  <circle r="0.499" style="fill:#FFFFFF;" cx="4.375" cy="-46.104"/>
  <circle r="0.499" style="fill:#FFFFFF;" cx="3.375" cy="-43.979"/>
  <circle r="0.499" style="fill:#FFFFFF;" cx="7.375" cy="-43.979"/>
  <circle r="0.499" style="fill:#FFFFFF;" cx="10.5" cy="-43.104"/>
  <circle r="0.499" style="fill:#FFFFFF;" cx="13.5" cy="-41.979"/>
  <circle r="0.499" style="fill:#FFFFFF;" cx="17.667" cy="-42.77"/>
  <circle r="0.499" style="fill:#FFFFFF;" cx="19.5" cy="-47.52"/>
  <circle r="0.499" style="fill:#FFFFFF;" cx="23" cy="-50.229"/>
  <circle r="0.499" style="fill:#FFFFFF;" cx="19.667" cy="-50.854"/>
  <circle r="0.499" style="fill:#FFFFFF;" cx="21.75" cy="-52.104"/>
  <circle r="0.499" style="fill:#FFFFFF;" cx="16.833" cy="-50.687"/>
  <circle r="0.499" style="fill:#FFFFFF;" cx="13.5" cy="-51.02"/>
  <circle r="0.499" style="fill:#FFFFFF;" cx="4.5" cy="-52.187"/>
  <circle r="0.499" style="fill:#FFFFFF;" cx="1.5" cy="-50.687"/>
  <circle r="0.499" style="fill:#FFFFFF;" cx="69.166" cy="-65.854"/>
  <circle r="0.499" style="fill:#FFFFFF;" cx="68.833" cy="-68.687"/>
  <circle r="0.499" style="fill:#FFFFFF;" cx="72" cy="-67.52"/>
  <circle r="0.499" style="fill:#FFFFFF;" cx="66" cy="-72.354"/>
  <circle r="0.499" style="fill:#FFFFFF;" cx="69.166" cy="-71.187"/>
  <circle r="0.499" style="fill:#FFFFFF;" cx="72" cy="-70.687"/>
  <circle r="0.499" style="fill:#FFFFFF;" cx="38.401" cy="-1.854"/>
  <circle r="0.499" style="fill:#FFFFFF;" cx="42.351" cy="-2.137"/>
  <circle r="0.499" style="fill:#FFFFFF;" cx="27.5" cy="-60.479"/>
  <circle r="0.499" style="fill:#FFFFFF;" cx="26.313" cy="-62.667"/>
  <circle r="0.499" style="fill:#FFFFFF;" cx="3.167" cy="-72.02"/>
 </g>
</svg>
