<?xml version="1.0"?>
<!-- Converted with SVG Converter - Version 0.9.5 (Compiled Fri Feb 21 09:53:38 2020) - Copyright (C) 2011 Nokia -->
<svg xmlns="http://www.w3.org/2000/svg" height="72" xmlns:xlink="http://www.w3.org/1999/xlink" y="0px" baseProfile="tiny" viewBox="1 -73 72 72" xml:space="preserve" version="1.1" x="0px" width="72">
 <g>
  <rect height="72" y="-73" style="fill:none;" x="1" width="72"/>
  <circle cy="-72" style="fill:#EC008C;" cx="6.98" r="0.499"/>
  <circle cy="-71.395" style="fill:#EC008C;" cx="9.667" r="0.499"/>
  <circle cy="-72.354" style="fill:#EC008C;" cx="13.833" r="0.499"/>
  <circle cy="-69.02" style="fill:#EC008C;" cx="8.5" r="0.499"/>
  <circle cy="-70.02" style="fill:#EC008C;" cx="5.5" r="0.499"/>
  <circle cy="-69.02" style="fill:#EC008C;" cx="1.666" r="0.499"/>
  <circle cy="-67.187" style="fill:#EC008C;" cx="4.667" r="0.499"/>
  <circle cy="-66.02" style="fill:#EC008C;" cx="7.333" r="0.499"/>
  <circle cy="-64.854" style="fill:#EC008C;" cx="10.5" r="0.499"/>
  <circle cy="-68.687" style="fill:#EC008C;" cx="12" r="0.499"/>
  <circle cy="-68.52" style="fill:#EC008C;" cx="15" r="0.499"/>
  <circle cy="-71.02" style="fill:#EC008C;" cx="17.167" r="0.499"/>
  <circle cy="-71.854" style="fill:#EC008C;" cx="20.333" r="0.499"/>
  <circle cy="-70.687" style="fill:#EC008C;" cx="22.333" r="0.499"/>
  <circle cy="-70.479" style="fill:#EC008C;" cx="25.75" r="0.499"/>
  <circle cy="-72.354" style="fill:#EC008C;" cx="27.5" r="0.499"/>
  <circle cy="-70.02" style="fill:#EC008C;" cx="29.333" r="0.499"/>
  <circle cy="-67.854" style="fill:#EC008C;" cx="27.333" r="0.499"/>
  <circle cy="-64.854" style="fill:#EC008C;" cx="25.5" r="0.499"/>
  <circle cy="-61.854" style="fill:#EC008C;" cx="23.667" r="0.499"/>
  <circle cy="-64.729" style="fill:#EC008C;" cx="21.875" r="0.499"/>
  <circle cy="-67.854" style="fill:#EC008C;" cx="23.875" r="0.499"/>
  <circle cy="-59.104" style="fill:#EC008C;" cx="23" r="0.499"/>
  <circle cy="-66.52" style="fill:#EC008C;" cx="20.833" r="0.499"/>
  <circle cy="-63.854" style="fill:#EC008C;" cx="19" r="0.499"/>
  <circle cy="-64.02" style="fill:#EC008C;" cx="16.333" r="0.499"/>
  <circle cy="-62.02" style="fill:#EC008C;" cx="15.5" r="0.499"/>
  <circle cy="-62.854" style="fill:#EC008C;" cx="12.667" r="0.499"/>
  <circle cy="-59.687" style="fill:#EC008C;" cx="12.5" r="0.499"/>
  <circle cy="-56.02" style="fill:#EC008C;" cx="11.5" r="0.499"/>
  <circle cy="-52.854" style="fill:#EC008C;" cx="10.667" r="0.499"/>
  <circle cy="-50.52" style="fill:#EC008C;" cx="10.833" r="0.499"/>
  <circle cy="-49.854" style="fill:#EC008C;" cx="7.667" r="0.499"/>
  <circle cy="-52.854" style="fill:#EC008C;" cx="8" r="0.499"/>
  <circle cy="-55.687" style="fill:#EC008C;" cx="8.5" r="0.499"/>
  <circle cy="-59.187" style="fill:#EC008C;" cx="8.833" r="0.499"/>
  <circle cy="-61.854" style="fill:#EC008C;" cx="9.5" r="0.499"/>
  <circle cy="-62.354" style="fill:#EC008C;" cx="6.333" r="0.499"/>
  <circle cy="-64.354" style="fill:#EC008C;" cx="3.667" r="0.499"/>
  <circle cy="-65.52" style="fill:#EC008C;" cx="1.833" r="0.499"/>
  <circle cy="-60.687" style="fill:#EC008C;" cx="2.333" r="0.499"/>
  <circle cy="-58.854" style="fill:#EC008C;" cx="5.333" r="0.499"/>
  <circle cy="-55.854" style="fill:#EC008C;" cx="4.333" r="0.499"/>
  <circle cy="-54.854" style="fill:#EC008C;" cx="2.5" r="0.499"/>
  <circle cy="-57.854" style="fill:#EC008C;" cx="2.167" r="0.499"/>
  <circle cy="-57.854" style="fill:#EC008C;" cx="14.333" r="0.499"/>
  <circle cy="-60.687" style="fill:#EC008C;" cx="18.333" r="0.499"/>
  <circle cy="-60.687" style="fill:#EC008C;" cx="20.5" r="0.499"/>
  <circle cy="-56.854" style="fill:#EC008C;" cx="20" r="0.499"/>
  <circle cy="-57.604" style="fill:#EC008C;" cx="17.875" r="0.499"/>
  <circle cy="-54.687" style="fill:#EC008C;" cx="19.833" r="0.499"/>
  <circle cy="-53.854" style="fill:#EC008C;" cx="16.5" r="0.499"/>
  <circle cy="-55.02" style="fill:#EC008C;" cx="14.167" r="0.499"/>
  <circle cy="-65.854" style="fill:#EC008C;" cx="14" r="0.499"/>
  <circle cy="-66.52" style="fill:#EC008C;" cx="17.667" r="0.499"/>
  <circle cy="-68.687" style="fill:#EC008C;" cx="19" r="0.499"/>
  <circle cy="-71.687" style="fill:#EC008C;" cx="32" r="0.499"/>
  <circle cy="-72.187" style="fill:#EC008C;" cx="34.833" r="0.499"/>
  <circle cy="-69.854" style="fill:#EC008C;" cx="35.5" r="0.499"/>
  <circle cy="-72.041" style="fill:#EC008C;" cx="38" r="0.499"/>
  <circle cy="-72.187" style="fill:#EC008C;" cx="41.333" r="0.499"/>
  <circle cy="-67.854" style="fill:#EC008C;" cx="33.125" r="0.499"/>
  <circle cy="-67.854" style="fill:#EC008C;" cx="30" r="0.499"/>
  <circle cy="-62.354" style="fill:#EC008C;" cx="28.833" r="0.499"/>
  <circle cy="-65.229" style="fill:#EC008C;" cx="30.667" r="0.499"/>
  <circle cy="-65.854" style="fill:#EC008C;" cx="28.5" r="0.499"/>
  <circle cy="-66.52" style="fill:#EC008C;" cx="35.167" r="0.499"/>
  <circle cy="-68.354" style="fill:#EC008C;" cx="38.167" r="0.499"/>
  <circle cy="-70.02" style="fill:#EC008C;" cx="41.5" r="0.499"/>
  <circle cy="-71.187" style="fill:#EC008C;" cx="44.333" r="0.499"/>
  <circle cy="-72.187" style="fill:#EC008C;" cx="47.5" r="0.499"/>
  <circle cy="-72.02" style="fill:#EC008C;" cx="51.333" r="0.499"/>
  <circle cy="-68.729" style="fill:#EC008C;" cx="47.167" r="0.499"/>
  <circle cy="-68.125" style="fill:#EC008C;" cx="44.021" r="0.499"/>
  <circle cy="-65.562" style="fill:#EC008C;" cx="41.833" r="0.499"/>
  <circle cy="-66.354" style="fill:#EC008C;" cx="39.333" r="0.499"/>
  <circle cy="-63.854" style="fill:#EC008C;" cx="38.75" r="0.499"/>
  <circle cy="-61.729" style="fill:#EC008C;" cx="35.5" r="0.499"/>
  <circle cy="-60.854" style="fill:#EC008C;" cx="32.333" r="0.499"/>
  <circle cy="-59.52" style="fill:#EC008C;" cx="29.333" r="0.499"/>
  <circle cy="-58.727" style="fill:#EC008C;" cx="34.5" r="0.499"/>
  <circle cy="-58.187" style="fill:#EC008C;" cx="30.667" r="0.499"/>
  <circle cy="-55.854" style="fill:#EC008C;" cx="28.667" r="0.499"/>
  <circle cy="-58.02" style="fill:#EC008C;" cx="26.167" r="0.499"/>
  <circle cy="-54.52" style="fill:#EC008C;" cx="26" r="0.499"/>
  <circle cy="-55.604" style="fill:#EC008C;" cx="24" r="0.499"/>
  <circle cy="-52.187" style="fill:#EC008C;" cx="25.667" r="0.499"/>
  <circle cy="-52.854" style="fill:#EC008C;" cx="28.5" r="0.499"/>
  <circle cy="-54.207" style="fill:#EC008C;" cx="31.854" r="0.499"/>
  <circle cy="-55.02" style="fill:#EC008C;" cx="34" r="0.499"/>
  <circle cy="-56.687" style="fill:#EC008C;" cx="33.167" r="0.499"/>
  <circle cy="-55.52" style="fill:#EC008C;" cx="36.667" r="0.499"/>
  <circle cy="-58.02" style="fill:#EC008C;" cx="37.167" r="0.499"/>
  <circle cy="-60.354" style="fill:#EC008C;" cx="38.667" r="0.499"/>
  <circle cy="-62.187" style="fill:#EC008C;" cx="41.333" r="0.499"/>
  <circle cy="-63.52" style="fill:#EC008C;" cx="44" r="0.499"/>
  <circle cy="-65.874" style="fill:#EC008C;" cx="45.313" r="0.499"/>
  <circle cy="-66.812" style="fill:#EC008C;" cx="49.083" r="0.499"/>
  <circle cy="-69.812" style="fill:#EC008C;" cx="50.083" r="0.499"/>
  <circle cy="-71.52" style="fill:#EC008C;" cx="54.167" r="0.499"/>
  <circle cy="-72.354" style="fill:#EC008C;" cx="57.5" r="0.499"/>
  <circle cy="-72.354" style="fill:#EC008C;" cx="63.167" r="0.499"/>
  <circle cy="-71.02" style="fill:#EC008C;" cx="60" r="0.499"/>
  <circle cy="-68.062" style="fill:#EC008C;" cx="58.5" r="0.499"/>
  <circle cy="-67.729" style="fill:#EC008C;" cx="55.125" r="0.499"/>
  <circle cy="-62.729" style="fill:#EC008C;" cx="65.166" r="0.499"/>
  <circle cy="-66.312" style="fill:#EC008C;" cx="51.833" r="0.499"/>
  <circle cy="-64.062" style="fill:#EC008C;" cx="33.167" r="0.499"/>
  <circle cy="-64.52" style="fill:#EC008C;" cx="36.167" r="0.499"/>
  <circle cy="-69.187" style="fill:#EC008C;" cx="53.333" r="0.499"/>
  <circle cy="-63.207" style="fill:#EC008C;" cx="46.687" r="0.499"/>
  <circle cy="-60.77" style="fill:#EC008C;" cx="44.333" r="0.499"/>
  <circle cy="-58.854" style="fill:#EC008C;" cx="41.667" r="0.499"/>
  <circle cy="-56.02" style="fill:#EC008C;" cx="39.667" r="0.499"/>
  <circle cy="-54.395" style="fill:#EC008C;" cx="42.833" r="0.499"/>
  <circle cy="-57.02" style="fill:#EC008C;" cx="44" r="0.499"/>
  <circle cy="-61.062" style="fill:#EC008C;" cx="49.5" r="0.499"/>
  <circle cy="-63.561" style="fill:#EC008C;" cx="51.333" r="0.499"/>
  <circle cy="-64.854" style="fill:#EC008C;" cx="49.167" r="0.499"/>
  <circle cy="-64.894" style="fill:#EC008C;" cx="54.333" r="0.499"/>
  <circle cy="-65.395" style="fill:#EC008C;" cx="57.5" r="0.499"/>
  <circle cy="-67.02" style="fill:#EC008C;" cx="60.5" r="0.499"/>
  <circle cy="-69.52" style="fill:#EC008C;" cx="62.333" r="0.499"/>
  <circle cy="-68.854" style="fill:#EC008C;" cx="66.333" r="0.499"/>
  <circle cy="-70.187" style="fill:#EC008C;" cx="64.833" r="0.499"/>
  <circle cy="-67.187" style="fill:#EC008C;" cx="63.5" r="0.499"/>
  <circle cy="-64.854" style="fill:#EC008C;" cx="60.667" r="0.499"/>
  <circle cy="-61.854" style="fill:#EC008C;" cx="57.5" r="0.499"/>
  <circle cy="-62.02" style="fill:#EC008C;" cx="54.333" r="0.499"/>
  <circle cy="-58.854" style="fill:#EC008C;" cx="48.333" r="0.499"/>
  <circle cy="-55.52" style="fill:#EC008C;" cx="48.167" r="0.499"/>
  <circle cy="-56.104" style="fill:#EC008C;" cx="45.75" r="0.499"/>
  <circle cy="-52.354" style="fill:#EC008C;" cx="45.875" r="0.499"/>
  <circle cy="-66.187" style="fill:#EC008C;" cx="66.166" r="0.499"/>
  <circle cy="-64.207" style="fill:#EC008C;" cx="63.313" r="0.499"/>
  <circle cy="-61.562" style="fill:#EC008C;" cx="61" r="0.499"/>
  <circle cy="-59.354" style="fill:#EC008C;" cx="58.167" r="0.499"/>
  <circle cy="-59.187" style="fill:#EC008C;" cx="55.5" r="0.499"/>
  <circle cy="-57.02" style="fill:#EC008C;" cx="53.5" r="0.499"/>
  <circle cy="-54.354" style="fill:#EC008C;" cx="50.833" r="0.499"/>
  <circle cy="-53.854" style="fill:#EC008C;" cx="53.667" r="0.499"/>
  <circle cy="-56.02" style="fill:#EC008C;" cx="55.833" r="0.499"/>
  <circle cy="-56.187" style="fill:#EC008C;" cx="58.5" r="0.499"/>
  <circle cy="-60.062" style="fill:#EC008C;" cx="63" r="0.499"/>
  <circle cy="-63.229" style="fill:#EC008C;" cx="68.833" r="0.499"/>
  <circle cy="-61.02" style="fill:#EC008C;" cx="67" r="0.499"/>
  <circle cy="-63.187" style="fill:#EC008C;" cx="72.5" r="0.499"/>
  <circle cy="-61.02" style="fill:#EC008C;" cx="69.5" r="0.499"/>
  <circle cy="-58.854" style="fill:#EC008C;" cx="67.5" r="0.499"/>
  <circle cy="-57.854" style="fill:#EC008C;" cx="70.5" r="0.499"/>
  <circle cy="-60.02" style="fill:#EC008C;" cx="72" r="0.499"/>
  <circle cy="-57.854" style="fill:#EC008C;" cx="64.333" r="0.499"/>
  <circle cy="-56.979" style="fill:#EC008C;" cx="61.625" r="0.499"/>
  <circle cy="-54.854" style="fill:#EC008C;" cx="62.25" r="0.499"/>
  <circle cy="-54.104" style="fill:#EC008C;" cx="59.5" r="0.499"/>
  <circle cy="-55.52" style="fill:#EC008C;" cx="65.333" r="0.499"/>
  <circle cy="-55.02" style="fill:#EC008C;" cx="68.5" r="0.499"/>
  <circle cy="-55.02" style="fill:#EC008C;" cx="71.666" r="0.499"/>
  <circle cy="-53.187" style="fill:#EC008C;" cx="69.5" r="0.499"/>
  <circle cy="-53.02" style="fill:#EC008C;" cx="66.5" r="0.499"/>
  <circle cy="-51.854" style="fill:#EC008C;" cx="63.5" r="0.499"/>
  <circle cy="-51.854" style="fill:#EC008C;" cx="60.167" r="0.499"/>
  <circle cy="-49.854" style="fill:#EC008C;" cx="61.333" r="0.499"/>
  <circle cy="-48.354" style="fill:#EC008C;" cx="68" r="0.499"/>
  <circle cy="-59.227" style="fill:#EC008C;" cx="52.5" r="0.499"/>
  <circle cy="-69.854" style="fill:#EC008C;" cx="55.833" r="0.499"/>
  <circle cy="-48.354" style="fill:#EC008C;" cx="58.75" r="0.499"/>
  <circle cy="-52.854" style="fill:#EC008C;" cx="56.75" r="0.499"/>
  <circle cy="-50.479" style="fill:#EC008C;" cx="53.75" r="0.499"/>
  <circle cy="-49.02" style="fill:#EC008C;" cx="55.667" r="0.499"/>
  <circle cy="-50.854" style="fill:#EC008C;" cx="58" r="0.499"/>
  <circle cy="-51.187" style="fill:#EC008C;" cx="51.333" r="0.499"/>
  <circle cy="-52.02" style="fill:#EC008C;" cx="48.167" r="0.499"/>
  <circle cy="-50.02" style="fill:#EC008C;" cx="45.333" r="0.499"/>
  <circle cy="-51.541" style="fill:#EC008C;" cx="42.313" r="0.499"/>
  <circle cy="-49.354" style="fill:#EC008C;" cx="41.125" r="0.499"/>
  <circle cy="-47.354" style="fill:#EC008C;" cx="42.833" r="0.499"/>
  <circle cy="-46.104" style="fill:#EC008C;" cx="38.167" r="0.499"/>
  <circle cy="-42.437" style="fill:#EC008C;" cx="32.167" r="0.499"/>
  <circle cy="-39.479" style="fill:#EC008C;" cx="28" r="0.499"/>
  <circle cy="-39.312" style="fill:#EC008C;" cx="19.833" r="0.499"/>
  <circle cy="-43.394" style="fill:#EC008C;" cx="23.833" r="0.499"/>
  <circle cy="-43.77" style="fill:#EC008C;" cx="15.167" r="0.499"/>
  <circle cy="-47.437" style="fill:#EC008C;" cx="12.667" r="0.499"/>
  <circle cy="-36.812" style="fill:#EC008C;" cx="24.583" r="0.499"/>
  <circle cy="-33.354" style="fill:#EC008C;" cx="22.5" r="0.499"/>
  <circle cy="-31.229" style="fill:#EC008C;" cx="25.125" r="0.499"/>
  <circle cy="-32.895" style="fill:#EC008C;" cx="20" r="0.499"/>
  <circle cy="-17.854" style="fill:#EC008C;" cx="14.333" r="0.499"/>
  <circle cy="-30.561" style="fill:#EC008C;" cx="19.167" r="0.499"/>
  <circle cy="-34.104" style="fill:#EC008C;" cx="14.5" r="0.499"/>
  <circle cy="-36.104" style="fill:#EC008C;" cx="10.75" r="0.499"/>
  <circle cy="-40.354" style="fill:#EC008C;" cx="11.25" r="0.499"/>
  <circle cy="-38.604" style="fill:#EC008C;" cx="5.875" r="0.499"/>
  <circle cy="-40.104" style="fill:#EC008C;" cx="2.625" r="0.499"/>
  <circle cy="-41.354" style="fill:#EC008C;" cx="6.375" r="0.499"/>
  <circle cy="-39.729" style="fill:#EC008C;" cx="8.5" r="0.499"/>
  <circle cy="-37.332" style="fill:#EC008C;" cx="13.854" r="0.499"/>
  <circle cy="-37.979" style="fill:#EC008C;" cx="16.375" r="0.499"/>
  <circle cy="-40.229" style="fill:#EC008C;" cx="14.375" r="0.499"/>
  <circle cy="-40.354" style="fill:#EC008C;" cx="17.5" r="0.499"/>
  <circle cy="-36.354" style="fill:#EC008C;" cx="18" r="0.499"/>
  <circle cy="-36.562" style="fill:#EC008C;" cx="21.167" r="0.499"/>
  <circle cy="-33.104" style="fill:#EC008C;" cx="25.625" r="0.499"/>
  <circle cy="-37.436" style="fill:#EC008C;" cx="30" r="0.499"/>
  <circle cy="-34.979" style="fill:#EC008C;" cx="32.875" r="0.499"/>
  <circle cy="-32.979" style="fill:#EC008C;" cx="31.875" r="0.499"/>
  <circle cy="-32.229" style="fill:#EC008C;" cx="34.375" r="0.499"/>
  <circle cy="-30.104" style="fill:#EC008C;" cx="34.75" r="0.499"/>
  <circle cy="-26.979" style="fill:#EC008C;" cx="33.625" r="0.499"/>
  <circle cy="-24.354" style="fill:#EC008C;" cx="33.25" r="0.499"/>
  <circle cy="-20.729" style="fill:#EC008C;" cx="34.875" r="0.499"/>
  <circle cy="-23.686" style="fill:#EC008C;" cx="37" r="0.499"/>
  <circle cy="-20.854" style="fill:#EC008C;" cx="39.125" r="0.499"/>
  <circle cy="-18.354" style="fill:#EC008C;" cx="37.125" r="0.499"/>
  <circle cy="-18.104" style="fill:#EC008C;" cx="43.5" r="0.499"/>
  <circle cy="-18.229" style="fill:#EC008C;" cx="40.375" r="0.499"/>
  <circle cy="-14.979" style="fill:#EC008C;" cx="38.375" r="0.499"/>
  <circle cy="-15.979" style="fill:#EC008C;" cx="34.5" r="0.499"/>
  <circle cy="-18.854" style="fill:#EC008C;" cx="33.375" r="0.499"/>
  <circle cy="-21.104" style="fill:#EC008C;" cx="31.875" r="0.499"/>
  <circle cy="-23.979" style="fill:#EC008C;" cx="30.75" r="0.499"/>
  <circle cy="-26.687" style="fill:#EC008C;" cx="30" r="0.499"/>
  <circle cy="-29.229" style="fill:#EC008C;" cx="31.625" r="0.499"/>
  <circle cy="-31.687" style="fill:#EC008C;" cx="28.167" r="0.499"/>
  <circle cy="-34.895" style="fill:#EC008C;" cx="29" r="0.499"/>
  <circle cy="-29.604" style="fill:#EC008C;" cx="28.75" r="0.499"/>
  <circle cy="-28.104" style="fill:#EC008C;" cx="26.375" r="0.499"/>
  <circle cy="-25.104" style="fill:#EC008C;" cx="27.375" r="0.499"/>
  <circle cy="-22.02" style="fill:#EC008C;" cx="27.5" r="0.499"/>
  <circle cy="-19.187" style="fill:#EC008C;" cx="28.833" r="0.499"/>
  <circle cy="-17.354" style="fill:#EC008C;" cx="30" r="0.499"/>
  <circle cy="-15.479" style="fill:#EC008C;" cx="31.125" r="0.499"/>
  <circle cy="-13.229" style="fill:#EC008C;" cx="29.75" r="0.499"/>
  <circle cy="-13.354" style="fill:#EC008C;" cx="26" r="0.499"/>
  <circle cy="-15.979" style="fill:#EC008C;" cx="23.5" r="0.499"/>
  <circle cy="-13.979" style="fill:#EC008C;" cx="21.5" r="0.499"/>
  <circle cy="-57.187" style="fill:#EC008C;" cx="50.333" r="0.499"/>
  <circle cy="-9.479" style="fill:#EC008C;" cx="18.25" r="0.499"/>
  <circle cy="-10.104" style="fill:#EC008C;" cx="21.375" r="0.499"/>
  <circle cy="-7.854" style="fill:#EC008C;" cx="22.333" r="0.499"/>
  <circle cy="-10.979" style="fill:#EC008C;" cx="24.25" r="0.499"/>
  <circle cy="-7.062" style="fill:#EC008C;" cx="19.5" r="0.499"/>
  <circle cy="-3.104" style="fill:#EC008C;" cx="17.25" r="0.499"/>
  <circle cy="-5.562" style="fill:#EC008C;" cx="15.833" r="0.499"/>
  <circle cy="-3.104" style="fill:#EC008C;" cx="12.5" r="0.499"/>
  <circle cy="-5.332" style="fill:#EC008C;" cx="11.021" r="0.499"/>
  <circle cy="-6.979" style="fill:#EC008C;" cx="13.5" r="0.499"/>
  <circle cy="-9.854" style="fill:#EC008C;" cx="14.5" r="0.499"/>
  <circle cy="-8.187" style="fill:#EC008C;" cx="15.5" r="0.499"/>
  <circle cy="-4.187" style="fill:#EC008C;" cx="18.833" r="0.499"/>
  <circle cy="-2.02" style="fill:#EC008C;" cx="20.5" r="0.498"/>
  <circle cy="-1.604" style="fill:#EC008C;" cx="9.75" r="0.499"/>
  <circle cy="-1.92" style="fill:#EC008C;" cx="15" r="0.499"/>
  <circle cy="-12.104" style="fill:#EC008C;" cx="10.5" r="0.499"/>
  <circle cy="-9.979" style="fill:#EC008C;" cx="12" r="0.499"/>
  <circle cy="-9.979" style="fill:#EC008C;" cx="8.375" r="0.499"/>
  <circle cy="-10.854" style="fill:#EC008C;" cx="5.75" r="0.499"/>
  <circle cy="-9.229" style="fill:#EC008C;" cx="3.25" r="0.499"/>
  <circle cy="-7.104" style="fill:#EC008C;" cx="5.375" r="0.499"/>
  <circle cy="-7.104" style="fill:#EC008C;" cx="9.125" r="0.499"/>
  <circle cy="-4.104" style="fill:#EC008C;" cx="8.25" r="0.499"/>
  <circle cy="-3.979" style="fill:#EC008C;" cx="5.5" r="0.499"/>
  <circle cy="-5.229" style="fill:#EC008C;" cx="3.25" r="0.499"/>
  <circle cy="-3.104" style="fill:#EC008C;" cx="1.5" r="0.499"/>
  <circle cy="-1.795" style="fill:#EC008C;" cx="4.635" r="0.499"/>
  <circle cy="-48.604" style="fill:#EC008C;" cx="16" r="0.499"/>
  <circle cy="-13.062" style="fill:#EC008C;" cx="14.333" r="0.499"/>
  <circle cy="-14.854" style="fill:#EC008C;" cx="12.167" r="0.499"/>
  <circle cy="-22.854" style="fill:#EC008C;" cx="10.5" r="0.499"/>
  <circle cy="-26.687" style="fill:#EC008C;" cx="10.5" r="0.499"/>
  <circle cy="-15.687" style="fill:#EC008C;" cx="15.167" r="0.499"/>
  <circle cy="-12.729" style="fill:#EC008C;" cx="17.5" r="0.499"/>
  <circle cy="-19.687" style="fill:#EC008C;" cx="16.667" r="0.499"/>
  <circle cy="-12.521" style="fill:#EC008C;" cx="22.167" r="0.498"/>
  <circle cy="-17.687" style="fill:#EC008C;" cx="19.667" r="0.499"/>
  <circle cy="-18.979" style="fill:#EC008C;" cx="22.375" r="0.499"/>
  <circle cy="-22.229" style="fill:#EC008C;" cx="22" r="0.499"/>
  <circle cy="-22.812" style="fill:#EC008C;" cx="16.583" r="0.499"/>
  <circle cy="-20.104" style="fill:#EC008C;" cx="19.375" r="0.499"/>
  <circle cy="-15.687" style="fill:#EC008C;" cx="18.333" r="0.499"/>
  <circle cy="-26.062" style="fill:#EC008C;" cx="16.083" r="0.499"/>
  <circle cy="-23.729" style="fill:#EC008C;" cx="19" r="0.499"/>
  <circle cy="-26.229" style="fill:#EC008C;" cx="21.667" r="0.499"/>
  <circle cy="-23.686" style="fill:#EC008C;" cx="24.375" r="0.499"/>
  <circle cy="-26.104" style="fill:#EC008C;" cx="24.375" r="0.499"/>
  <circle cy="-29.686" style="fill:#EC008C;" cx="22.25" r="0.499"/>
  <circle cy="-28.104" style="fill:#EC008C;" cx="19" r="0.499"/>
  <circle cy="-29.104" style="fill:#EC008C;" cx="16.25" r="0.499"/>
  <circle cy="-31.332" style="fill:#EC008C;" cx="13.75" r="0.499"/>
  <circle cy="-32.979" style="fill:#EC008C;" cx="11.5" r="0.499"/>
  <circle cy="-33.104" style="fill:#EC008C;" cx="7.75" r="0.499"/>
  <circle cy="-35.354" style="fill:#EC008C;" cx="8" r="0.499"/>
  <circle cy="-35.104" style="fill:#EC008C;" cx="5.625" r="0.499"/>
  <circle cy="-36.229" style="fill:#EC008C;" cx="2.5" r="0.499"/>
  <circle cy="-33.104" style="fill:#EC008C;" cx="3.5" r="0.499"/>
  <circle cy="-30.979" style="fill:#EC008C;" cx="4.5" r="0.499"/>
  <circle cy="-27.979" style="fill:#EC008C;" cx="6.25" r="0.499"/>
  <circle cy="-25.979" style="fill:#EC008C;" cx="8.125" r="0.499"/>
  <circle cy="-23.104" style="fill:#EC008C;" cx="13.375" r="0.499"/>
  <circle cy="-20.104" style="fill:#EC008C;" cx="13.5" r="0.499"/>
  <circle cy="-20.5" style="fill:#EC008C;" cx="10.771" r="0.499"/>
  <circle cy="-21.979" style="fill:#EC008C;" cx="8.375" r="0.499"/>
  <circle cy="-23.979" style="fill:#EC008C;" cx="6.5" r="0.499"/>
  <circle cy="-25.979" style="fill:#EC008C;" cx="4.375" r="0.499"/>
  <circle cy="-27.979" style="fill:#EC008C;" cx="2.5" r="0.499"/>
  <circle cy="-30.104" style="fill:#EC008C;" cx="8.375" r="0.499"/>
  <circle cy="-30.02" style="fill:#EC008C;" cx="11" r="0.499"/>
  <circle cy="-25.354" style="fill:#EC008C;" cx="13.167" r="0.499"/>
  <circle cy="-28.187" style="fill:#EC008C;" cx="13.333" r="0.499"/>
  <circle cy="-17.125" style="fill:#EC008C;" cx="8.396" r="0.499"/>
  <circle cy="-15.854" style="fill:#EC008C;" cx="5.5" r="0.499"/>
  <circle cy="-12.854" style="fill:#EC008C;" cx="3.5" r="0.499"/>
  <circle cy="-14.104" style="fill:#EC008C;" cx="1.659" r="0.499"/>
  <circle cy="-14.332" style="fill:#EC008C;" cx="7.021" r="0.499"/>
  <circle cy="-14.729" style="fill:#EC008C;" cx="10" r="0.499"/>
  <circle cy="-17.104" style="fill:#EC008C;" cx="11.625" r="0.499"/>
  <circle cy="-18.979" style="fill:#EC008C;" cx="6.375" r="0.499"/>
  <circle cy="-20.854" style="fill:#EC008C;" cx="4.25" r="0.499"/>
  <circle cy="-23.104" style="fill:#EC008C;" cx="2.25" r="0.499"/>
  <circle cy="-18.104" style="fill:#EC008C;" cx="3.25" r="0.499"/>
  <circle cy="-15.854" style="fill:#EC008C;" cx="27.25" r="0.499"/>
  <circle cy="-17.729" style="fill:#EC008C;" cx="26.25" r="0.499"/>
  <circle cy="-20.604" style="fill:#EC008C;" cx="24.625" r="0.499"/>
  <circle cy="-28.604" style="fill:#EC008C;" cx="40.125" r="0.499"/>
  <circle cy="-26.104" style="fill:#EC008C;" cx="41.375" r="0.499"/>
  <circle cy="-27.687" style="fill:#EC008C;" cx="44.167" r="0.499"/>
  <circle cy="-23.52" style="fill:#EC008C;" cx="43.5" r="0.499"/>
  <circle cy="-21.979" style="fill:#EC008C;" cx="46.5" r="0.499"/>
  <circle cy="-23.979" style="fill:#EC008C;" cx="49.375" r="0.499"/>
  <circle cy="-21.332" style="fill:#EC008C;" cx="50.146" r="0.499"/>
  <circle cy="-23.229" style="fill:#EC008C;" cx="52.5" r="0.499"/>
  <circle cy="-20.854" style="fill:#EC008C;" cx="55.5" r="0.499"/>
  <circle cy="-21.312" style="fill:#EC008C;" cx="58.833" r="0.499"/>
  <circle cy="-19.104" style="fill:#EC008C;" cx="60.375" r="0.499"/>
  <circle cy="-21.27" style="fill:#EC008C;" cx="63.667" r="0.499"/>
  <circle cy="-17.979" style="fill:#EC008C;" cx="66.625" r="0.499"/>
  <circle cy="-17.979" style="fill:#EC008C;" cx="70.375" r="0.499"/>
  <circle cy="-19.187" style="fill:#EC008C;" cx="72.333" r="0.499"/>
  <circle cy="-16.02" style="fill:#EC008C;" cx="72.166" r="0.499"/>
  <circle cy="-12.129" style="fill:#EC008C;" cx="72.341" r="0.498"/>
  <circle cy="-14.229" style="fill:#EC008C;" cx="69.5" r="0.499"/>
  <circle cy="-15.729" style="fill:#EC008C;" cx="66.625" r="0.499"/>
  <circle cy="-17.604" style="fill:#EC008C;" cx="62.833" r="0.499"/>
  <circle cy="-18.479" style="fill:#EC008C;" cx="57.375" r="0.499"/>
  <circle cy="-13.979" style="fill:#EC008C;" cx="63.375" r="0.499"/>
  <circle cy="-12.104" style="fill:#EC008C;" cx="66.5" r="0.499"/>
  <circle cy="-10.979" style="fill:#EC008C;" cx="69.75" r="0.499"/>
  <circle cy="-9.104" style="fill:#EC008C;" cx="72.5" r="0.499"/>
  <circle cy="-7.854" style="fill:#EC008C;" cx="69.375" r="0.499"/>
  <circle cy="-5.229" style="fill:#EC008C;" cx="72.125" r="0.499"/>
  <circle cy="-1.804" style="fill:#EC008C;" cx="55.014" r="0.499"/>
  <circle cy="-1.687" style="fill:#EC008C;" cx="68.833" r="0.499"/>
  <circle cy="-1.804" style="fill:#EC008C;" cx="61.815" r="0.499"/>
  <circle cy="-4.104" style="fill:#EC008C;" cx="70.5" r="0.499"/>
  <circle cy="-3.104" style="fill:#EC008C;" cx="64.375" r="0.499"/>
  <circle cy="-5.104" style="fill:#EC008C;" cx="66.375" r="0.499"/>
  <circle cy="-8.229" style="fill:#EC008C;" cx="66.625" r="0.499"/>
  <circle cy="-6.604" style="fill:#EC008C;" cx="63.5" r="0.499"/>
  <circle cy="-4.979" style="fill:#EC008C;" cx="61.5" r="0.499"/>
  <circle cy="-3.104" style="fill:#EC008C;" cx="59.25" r="0.499"/>
  <circle cy="-4.354" style="fill:#EC008C;" cx="56.625" r="0.499"/>
  <circle cy="-5.354" style="fill:#EC008C;" cx="53.25" r="0.499"/>
  <circle cy="-6.354" style="fill:#EC008C;" cx="50.375" r="0.499"/>
  <circle cy="-8.104" style="fill:#EC008C;" cx="46.375" r="0.499"/>
  <circle cy="-9.979" style="fill:#EC008C;" cx="49.25" r="0.499"/>
  <circle cy="-8.854" style="fill:#EC008C;" cx="52.5" r="0.499"/>
  <circle cy="-7.104" style="fill:#EC008C;" cx="55.25" r="0.499"/>
  <circle cy="-6.854" style="fill:#EC008C;" cx="58.375" r="0.499"/>
  <circle cy="-8.979" style="fill:#EC008C;" cx="60.75" r="0.499"/>
  <circle cy="-10.354" style="fill:#EC008C;" cx="63.25" r="0.499"/>
  <circle cy="-13.104" style="fill:#EC008C;" cx="60.5" r="0.499"/>
  <circle cy="-15.604" style="fill:#EC008C;" cx="58.625" r="0.499"/>
  <circle cy="-17.229" style="fill:#EC008C;" cx="55.125" r="0.499"/>
  <circle cy="-16.229" style="fill:#EC008C;" cx="52.5" r="0.499"/>
  <circle cy="-13.729" style="fill:#EC008C;" cx="49.625" r="0.499"/>
  <circle cy="-11.937" style="fill:#EC008C;" cx="46.5" r="0.499"/>
  <circle cy="-12.979" style="fill:#EC008C;" cx="43.25" r="0.499"/>
  <circle cy="-15.479" style="fill:#EC008C;" cx="43.125" r="0.499"/>
  <circle cy="-14.979" style="fill:#EC008C;" cx="46.375" r="0.499"/>
  <circle cy="-16.854" style="fill:#EC008C;" cx="49.375" r="0.499"/>
  <circle cy="-18.979" style="fill:#EC008C;" cx="47.5" r="0.499"/>
  <circle cy="-20.229" style="fill:#EC008C;" cx="44.625" r="0.499"/>
  <circle cy="-22.104" style="fill:#EC008C;" cx="41.375" r="0.499"/>
  <circle cy="-24.104" style="fill:#EC008C;" cx="39.375" r="0.499"/>
  <circle cy="-26.854" style="fill:#EC008C;" cx="37.375" r="0.499"/>
  <circle cy="-11.729" style="fill:#EC008C;" cx="52.625" r="0.499"/>
  <circle cy="-13.854" style="fill:#EC008C;" cx="54.375" r="0.499"/>
  <circle cy="-10.979" style="fill:#EC008C;" cx="55.25" r="0.499"/>
  <circle cy="-9.354" style="fill:#EC008C;" cx="57.5" r="0.499"/>
  <circle cy="-12.104" style="fill:#EC008C;" cx="57.5" r="0.499"/>
  <circle cy="-19.104" style="fill:#EC008C;" cx="52.375" r="0.499"/>
  <circle cy="-9.771" style="fill:#EC008C;" cx="44.125" r="0.499"/>
  <circle cy="-11" style="fill:#EC008C;" cx="41.771" r="0.499"/>
  <circle cy="-11.729" style="fill:#EC008C;" cx="37.5" r="0.499"/>
  <circle cy="-13.936" style="fill:#EC008C;" cx="36.25" r="0.499"/>
  <circle cy="-12.979" style="fill:#EC008C;" cx="32.875" r="0.499"/>
  <circle cy="-11.104" style="fill:#EC008C;" cx="30.375" r="0.499"/>
  <circle cy="-11.457" style="fill:#EC008C;" cx="27.521" r="0.499"/>
  <circle cy="-8.854" style="fill:#EC008C;" cx="24.875" r="0.499"/>
  <circle cy="-5.979" style="fill:#EC008C;" cx="23.5" r="0.499"/>
  <circle cy="-4.104" style="fill:#EC008C;" cx="21.25" r="0.499"/>
  <circle cy="-1.979" style="fill:#EC008C;" cx="24.625" r="0.499"/>
  <circle cy="-4.854" style="fill:#EC008C;" cx="26.5" r="0.499"/>
  <circle cy="-6.729" style="fill:#EC008C;" cx="29.375" r="0.499"/>
  <circle cy="-7.354" style="fill:#EC008C;" cx="26.833" r="0.499"/>
  <circle cy="-8.729" style="fill:#EC008C;" cx="32" r="0.499"/>
  <circle cy="-9.979" style="fill:#EC008C;" cx="33.75" r="0.499"/>
  <circle cy="-8.979" style="fill:#EC008C;" cx="39.5" r="0.499"/>
  <circle cy="-6.604" style="fill:#EC008C;" cx="45" r="0.499"/>
  <circle cy="-4.104" style="fill:#EC008C;" cx="48" r="0.499"/>
  <circle cy="-2.854" style="fill:#EC008C;" cx="51.183" r="0.499"/>
  <circle cy="-2.354" style="fill:#EC008C;" cx="46.25" r="0.499"/>
  <circle cy="-4.104" style="fill:#EC008C;" cx="43.375" r="0.499"/>
  <circle cy="-6.229" style="fill:#EC008C;" cx="41.125" r="0.499"/>
  <circle cy="-7.104" style="fill:#EC008C;" cx="38.125" r="0.499"/>
  <circle cy="-8.229" style="fill:#EC008C;" cx="35.625" r="0.499"/>
  <circle cy="-5.479" style="fill:#EC008C;" cx="33.75" r="0.499"/>
  <circle cy="-4.229" style="fill:#EC008C;" cx="30.625" r="0.499"/>
  <circle cy="-2.137" style="fill:#EC008C;" cx="28.793" r="0.499"/>
  <circle cy="-2.354" style="fill:#EC008C;" cx="31.5" r="0.499"/>
  <circle cy="-2.854" style="fill:#EC008C;" cx="35.25" r="0.499"/>
  <circle cy="-4.104" style="fill:#EC008C;" cx="39.25" r="0.499"/>
  <circle cy="-37.104" style="fill:#EC008C;" cx="35.5" r="0.499"/>
  <circle cy="-42.354" style="fill:#EC008C;" cx="41.125" r="0.499"/>
  <circle cy="-42.937" style="fill:#EC008C;" cx="37.833" r="0.499"/>
  <circle cy="-40.354" style="fill:#EC008C;" cx="43.125" r="0.499"/>
  <circle cy="-42.979" style="fill:#EC008C;" cx="45.5" r="0.499"/>
  <circle cy="-45.979" style="fill:#EC008C;" cx="47.375" r="0.499"/>
  <circle cy="-43.979" style="fill:#EC008C;" cx="51.375" r="0.499"/>
  <circle cy="-48.854" style="fill:#EC008C;" cx="49.375" r="0.499"/>
  <circle cy="-47.479" style="fill:#EC008C;" cx="51.125" r="0.499"/>
  <circle cy="-46.979" style="fill:#EC008C;" cx="53.875" r="0.499"/>
  <circle cy="-46.875" style="fill:#EC008C;" cx="56.396" r="0.499"/>
  <circle cy="-44.229" style="fill:#EC008C;" cx="56.125" r="0.499"/>
  <circle cy="-46.104" style="fill:#EC008C;" cx="60.125" r="0.499"/>
  <circle cy="-46.979" style="fill:#EC008C;" cx="62.5" r="0.499"/>
  <circle cy="-49.229" style="fill:#EC008C;" cx="65.5" r="0.499"/>
  <circle cy="-50.667" style="fill:#EC008C;" cx="68.771" r="0.499"/>
  <circle cy="-52.187" style="fill:#EC008C;" cx="71.833" r="0.499"/>
  <circle cy="-47.104" style="fill:#EC008C;" cx="70.25" r="0.499"/>
  <circle cy="-45.187" style="fill:#EC008C;" cx="71.833" r="0.499"/>
  <circle cy="-43.729" style="fill:#EC008C;" cx="69.625" r="0.499"/>
  <circle cy="-42.52" style="fill:#EC008C;" cx="71.833" r="0.499"/>
  <circle cy="-45.979" style="fill:#EC008C;" cx="66.25" r="0.499"/>
  <circle cy="-44.979" style="fill:#EC008C;" cx="64.5" r="0.499"/>
  <circle cy="-42.354" style="fill:#EC008C;" cx="63.167" r="0.499"/>
  <circle cy="-43.854" style="fill:#EC008C;" cx="61.375" r="0.499"/>
  <circle cy="-41.979" style="fill:#EC008C;" cx="59.375" r="0.499"/>
  <circle cy="-40.604" style="fill:#EC008C;" cx="56.5" r="0.499"/>
  <circle cy="-42.604" style="fill:#EC008C;" cx="53.625" r="0.499"/>
  <circle cy="-43.604" style="fill:#EC008C;" cx="49" r="0.499"/>
  <circle cy="-41.354" style="fill:#EC008C;" cx="46.875" r="0.499"/>
  <circle cy="-38.104" style="fill:#EC008C;" cx="44.375" r="0.499"/>
  <circle cy="-36.104" style="fill:#EC008C;" cx="43" r="0.499"/>
  <circle cy="-33.229" style="fill:#EC008C;" cx="41.5" r="0.499"/>
  <circle cy="-30.729" style="fill:#EC008C;" cx="44.5" r="0.499"/>
  <circle cy="-31.854" style="fill:#EC008C;" cx="46.167" r="0.499"/>
  <circle cy="-33.104" style="fill:#EC008C;" cx="48.5" r="0.499"/>
  <circle cy="-34.354" style="fill:#EC008C;" cx="45.375" r="0.499"/>
  <circle cy="-36.979" style="fill:#EC008C;" cx="46.5" r="0.499"/>
  <circle cy="-39.604" style="fill:#EC008C;" cx="48.125" r="0.499"/>
  <circle cy="-37.104" style="fill:#EC008C;" cx="51.375" r="0.499"/>
  <circle cy="-34.979" style="fill:#EC008C;" cx="49.25" r="0.499"/>
  <circle cy="-33.832" style="fill:#EC008C;" cx="53.354" r="0.499"/>
  <circle cy="-31.229" style="fill:#EC008C;" cx="50.875" r="0.499"/>
  <circle cy="-31.104" style="fill:#EC008C;" cx="54.375" r="0.499"/>
  <circle cy="-29.332" style="fill:#EC008C;" cx="52.979" r="0.499"/>
  <circle cy="-27.979" style="fill:#EC008C;" cx="56.125" r="0.499"/>
  <circle cy="-27.229" style="fill:#EC008C;" cx="59.125" r="0.499"/>
  <circle cy="-28.979" style="fill:#EC008C;" cx="62.5" r="0.499"/>
  <circle cy="-27.979" style="fill:#EC008C;" cx="65.625" r="0.499"/>
  <circle cy="-25.979" style="fill:#EC008C;" cx="68.875" r="0.499"/>
  <circle cy="-26.104" style="fill:#EC008C;" cx="71.25" r="0.499"/>
  <circle cy="-23.854" style="fill:#EC008C;" cx="71.875" r="0.499"/>
  <circle cy="-21.104" style="fill:#EC008C;" cx="70.375" r="0.499"/>
  <circle cy="-22.354" style="fill:#EC008C;" cx="66.666" r="0.499"/>
  <circle cy="-23.229" style="fill:#EC008C;" cx="68.375" r="0.499"/>
  <circle cy="-24.104" style="fill:#EC008C;" cx="64.5" r="0.499"/>
  <circle cy="-25.854" style="fill:#EC008C;" cx="62.125" r="0.499"/>
  <circle cy="-23.104" style="fill:#EC008C;" cx="60.625" r="0.499"/>
  <circle cy="-24.229" style="fill:#EC008C;" cx="57.375" r="0.499"/>
  <circle cy="-24.354" style="fill:#EC008C;" cx="55.25" r="0.499"/>
  <circle cy="-25.979" style="fill:#EC008C;" cx="52.5" r="0.499"/>
  <circle cy="-28.104" style="fill:#EC008C;" cx="49.5" r="0.499"/>
  <circle cy="-26.729" style="fill:#EC008C;" cx="46.625" r="0.499"/>
  <circle cy="-29.354" style="fill:#EC008C;" cx="47.667" r="0.499"/>
  <circle cy="-30.354" style="fill:#EC008C;" cx="41.25" r="0.499"/>
  <circle cy="-34.104" style="fill:#EC008C;" cx="37.375" r="0.499"/>
  <circle cy="-31.104" style="fill:#EC008C;" cx="37.125" r="0.499"/>
  <circle cy="-27.687" style="fill:#EC008C;" cx="35.333" r="0.499"/>
  <circle cy="-36.354" style="fill:#EC008C;" cx="38.625" r="0.499"/>
  <circle cy="-38.354" style="fill:#EC008C;" cx="40.333" r="0.499"/>
  <circle cy="-41.104" style="fill:#EC008C;" cx="51.5" r="0.499"/>
  <circle cy="-39.729" style="fill:#EC008C;" cx="53" r="0.499"/>
  <circle cy="-35.354" style="fill:#EC008C;" cx="55.5" r="0.499"/>
  <circle cy="-37.354" style="fill:#EC008C;" cx="57.875" r="0.499"/>
  <circle cy="-38.979" style="fill:#EC008C;" cx="59.25" r="0.499"/>
  <circle cy="-40.104" style="fill:#EC008C;" cx="61.375" r="0.499"/>
  <circle cy="-40.354" style="fill:#EC008C;" cx="65.375" r="0.499"/>
  <circle cy="-42.229" style="fill:#EC008C;" cx="67.375" r="0.499"/>
  <circle cy="-41.229" style="fill:#EC008C;" cx="70.5" r="0.499"/>
  <circle cy="-38.104" style="fill:#EC008C;" cx="68.5" r="0.499"/>
  <circle cy="-37.229" style="fill:#EC008C;" cx="72" r="0.499"/>
  <circle cy="-34.354" style="fill:#EC008C;" cx="71.375" r="0.499"/>
  <circle cy="-28.52" style="fill:#EC008C;" cx="72.166" r="0.499"/>
  <circle cy="-36.229" style="fill:#EC008C;" cx="66.5" r="0.499"/>
  <circle cy="-38.354" style="fill:#EC008C;" cx="63" r="0.499"/>
  <circle cy="-36.104" style="fill:#EC008C;" cx="61.25" r="0.499"/>
  <circle cy="-34.104" style="fill:#EC008C;" cx="58.625" r="0.499"/>
  <circle cy="-32.104" style="fill:#EC008C;" cx="56" r="0.499"/>
  <circle cy="-31.104" style="fill:#EC008C;" cx="59.375" r="0.499"/>
  <circle cy="-29.354" style="fill:#EC008C;" cx="57.667" r="0.499"/>
  <circle cy="-25.187" style="fill:#EC008C;" cx="45.667" r="0.499"/>
  <circle cy="-33.229" style="fill:#EC008C;" cx="62" r="0.499"/>
  <circle cy="-34.854" style="fill:#EC008C;" cx="64.375" r="0.499"/>
  <circle cy="-31.979" style="fill:#EC008C;" cx="66.875" r="0.499"/>
  <circle cy="-33.479" style="fill:#EC008C;" cx="68.625" r="0.499"/>
  <circle cy="-30.854" style="fill:#EC008C;" cx="64.75" r="0.499"/>
  <circle cy="-28.979" style="fill:#EC008C;" cx="68.25" r="0.499"/>
  <circle cy="-29.854" style="fill:#EC008C;" cx="70.625" r="0.499"/>
  <circle cy="-45.104" style="fill:#EC008C;" cx="41.625" r="0.499"/>
  <circle cy="-47.104" style="fill:#EC008C;" cx="45.125" r="0.499"/>
  <circle cy="-40.02" style="fill:#EC008C;" cx="36.333" r="0.499"/>
  <circle cy="-39.604" style="fill:#EC008C;" cx="33.167" r="0.499"/>
  <circle cy="-39.104" style="fill:#EC008C;" cx="23.25" r="0.499"/>
  <circle cy="-35.812" style="fill:#EC008C;" cx="26.583" r="0.499"/>
  <circle cy="-34.02" style="fill:#EC008C;" cx="17" r="0.499"/>
  <circle cy="-31.52" style="fill:#EC008C;" cx="16.5" r="0.499"/>
  <circle cy="-44.332" style="fill:#EC008C;" cx="34.604" r="0.499"/>
  <circle cy="-48.729" style="fill:#EC008C;" cx="38.375" r="0.499"/>
  <circle cy="-47.729" style="fill:#EC008C;" cx="35.5" r="0.499"/>
  <circle cy="-45.729" style="fill:#EC008C;" cx="33.625" r="0.499"/>
  <circle cy="-44.979" style="fill:#EC008C;" cx="30.5" r="0.499"/>
  <circle cy="-42.729" style="fill:#EC008C;" cx="28.375" r="0.499"/>
  <circle cy="-41.311" style="fill:#EC008C;" cx="25.875" r="0.499"/>
  <circle cy="-44.854" style="fill:#EC008C;" cx="25.5" r="0.499"/>
  <circle cy="-41.812" style="fill:#EC008C;" cx="21.083" r="0.499"/>
  <circle cy="-53.02" style="fill:#EC008C;" cx="39.667" r="0.499"/>
  <circle cy="-51.625" style="fill:#EC008C;" cx="36.896" r="0.499"/>
  <circle cy="-51.687" style="fill:#EC008C;" cx="33.5" r="0.499"/>
  <circle cy="-48.854" style="fill:#EC008C;" cx="32.5" r="0.499"/>
  <circle cy="-50" style="fill:#EC008C;" cx="34.98" r="0.499"/>
  <circle cy="-48.104" style="fill:#EC008C;" cx="29.625" r="0.499"/>
  <circle cy="-46.02" style="fill:#EC008C;" cx="27.833" r="0.499"/>
  <circle cy="-51.02" style="fill:#EC008C;" cx="30.833" r="0.499"/>
  <circle cy="-49.187" style="fill:#EC008C;" cx="28.167" r="0.499"/>
  <circle cy="-48.02" style="fill:#EC008C;" cx="25.5" r="0.499"/>
  <circle cy="-46.729" style="fill:#EC008C;" cx="22.25" r="0.499"/>
  <circle cy="-44.687" style="fill:#EC008C;" cx="19.333" r="0.499"/>
  <circle cy="-46.062" style="fill:#EC008C;" cx="15.833" r="0.499"/>
  <circle cy="-45.604" style="fill:#EC008C;" cx="11" r="0.499"/>
  <circle cy="-47.229" style="fill:#EC008C;" cx="8.5" r="0.499"/>
  <circle cy="-49.354" style="fill:#EC008C;" cx="4.5" r="0.499"/>
  <circle cy="-47.02" style="fill:#EC008C;" cx="2" r="0.499"/>
  <circle cy="-46.104" style="fill:#EC008C;" cx="4.375" r="0.499"/>
  <circle cy="-43.979" style="fill:#EC008C;" cx="3.375" r="0.499"/>
  <circle cy="-43.979" style="fill:#EC008C;" cx="7.375" r="0.499"/>
  <circle cy="-43.104" style="fill:#EC008C;" cx="10.5" r="0.499"/>
  <circle cy="-41.979" style="fill:#EC008C;" cx="13.5" r="0.499"/>
  <circle cy="-42.77" style="fill:#EC008C;" cx="17.667" r="0.499"/>
  <circle cy="-47.52" style="fill:#EC008C;" cx="19.5" r="0.499"/>
  <circle cy="-50.229" style="fill:#EC008C;" cx="23" r="0.499"/>
  <circle cy="-50.854" style="fill:#EC008C;" cx="19.667" r="0.499"/>
  <circle cy="-52.104" style="fill:#EC008C;" cx="21.75" r="0.499"/>
  <circle cy="-50.687" style="fill:#EC008C;" cx="16.833" r="0.499"/>
  <circle cy="-51.02" style="fill:#EC008C;" cx="13.5" r="0.499"/>
  <circle cy="-52.187" style="fill:#EC008C;" cx="4.5" r="0.499"/>
  <circle cy="-50.687" style="fill:#EC008C;" cx="1.5" r="0.499"/>
  <circle cy="-65.854" style="fill:#EC008C;" cx="69.166" r="0.499"/>
  <circle cy="-68.687" style="fill:#EC008C;" cx="68.833" r="0.499"/>
  <circle cy="-67.52" style="fill:#EC008C;" cx="72" r="0.499"/>
  <circle cy="-72.354" style="fill:#EC008C;" cx="66" r="0.499"/>
  <circle cy="-71.187" style="fill:#EC008C;" cx="69.166" r="0.499"/>
  <circle cy="-70.687" style="fill:#EC008C;" cx="72" r="0.499"/>
  <circle cy="-1.854" style="fill:#EC008C;" cx="38.401" r="0.499"/>
  <circle cy="-2.137" style="fill:#EC008C;" cx="42.351" r="0.499"/>
  <circle cy="-60.479" style="fill:#EC008C;" cx="27.5" r="0.499"/>
  <circle cy="-62.667" style="fill:#EC008C;" cx="26.313" r="0.499"/>
  <circle cy="-72.02" style="fill:#EC008C;" cx="3.167" r="0.499"/>
 </g>
</svg>
