<?xml version="1.0"?>
<!-- Converted with SVG Converter - Version 0.9.5 (Compiled Fri Feb 21 09:53:38 2020) - Copyright (C) 2011 Nokia -->
<svg xmlns="http://www.w3.org/2000/svg" width="57.601" viewBox="1 -58.8 57.601 57.601" baseProfile="tiny" x="0px" height="57.601" version="1.1" xmlns:xlink="http://www.w3.org/1999/xlink" xml:space="preserve" y="0px">
 <g>
  <rect width="57.601" x="1" height="57.601" style="fill:none;" y="-58.8"/>
  <path d="M36.605-1.197c0-0.197-0.16-0.357-0.357-0.357c-0.197,0-0.356,0.16-0.356,0.357"/>
  <circle cy="-45.424" cx="50.634" r="0.679"/>
  <circle cy="-56.633" cx="49.884" r="0.679"/>
  <circle cy="-52.424" cx="43.467" r="0.679"/>
  <circle cy="-52.507" cx="29.467" r="0.679"/>
  <circle cy="-52.667" cx="23.459" r="0.679"/>
  <circle cy="-51.757" cx="15.384" r="0.679"/>
  <circle cy="-53.424" cx="11.05" r="0.679"/>
  <circle cy="-49.591" cx="5.634" r="0.679"/>
  <circle cy="-50.674" cx="2.55" r="0.679"/>
  <path d="M1-51.919c0.373-0.003,0.674-0.306,0.674-0.679c0-0.374-0.301-0.676-0.674-0.679"/>
  <path d="M58.601-53.277c-0.004,0-0.007,0-0.011,0c-0.375,0-0.679,0.304-0.679,0.679s0.304,0.679,0.679,0.679    c0.004,0,0.007,0,0.011,0"/>
  <circle cy="-43.757" cx="9.634" r="0.679"/>
  <circle cy="-45.083" cx="17.709" r="0.679"/>
  <circle cy="-46.167" cx="22.292" r="0.679"/>
  <circle cy="-28.667" cx="51.042" r="0.679"/>
  <circle cy="-50.75" cx="39.376" r="0.679"/>
  <circle cy="-57.591" cx="28.8" r="0.679"/>
  <circle cy="-39.091" cx="19.467" r="0.679"/>
  <circle cy="-31.75" cx="26.876" r="0.679"/>
  <circle cy="-30.667" cx="35.209" r="0.679"/>
  <circle cy="-20.5" cx="31.292" r="0.679"/>
  <circle cy="-27.507" cx="57.8" r="0.679"/>
  <circle cy="-18.75" cx="49.626" r="0.679"/>
  <circle cy="-33.833" cx="1.808" r="0.679"/>
  <circle cy="-29.583" cx="20.725" r="0.679"/>
  <circle cy="-24.5" cx="25.891" r="0.679"/>
  <circle cy="-19.674" cx="13.384" r="0.679"/>
  <circle cy="-14.257" cx="32.717" r="0.679"/>
  <circle cy="-15.591" cx="42.3" r="0.679"/>
  <circle cy="-9.674" cx="57.634" r="0.679"/>
  <circle cy="-3.591" cx="53.384" r="0.679"/>
  <circle cy="-2.007" cx="42.55" r="0.679"/>
  <path d="M46.592-1.2c0.019-0.358,0.314-0.643,0.677-0.643c0.363,0,0.658,0.284,0.677,0.643"/>
  <path d="M47.947-58.8c-0.01,0.365-0.31,0.659-0.678,0.659c-0.368,0-0.667-0.293-0.678-0.659"/>
  <circle cy="-4.591" cx="14.55" r="0.679"/>
  <circle cy="-5.091" cx="7.55" r="0.679"/>
  <circle cy="-17.674" cx="2.3" r="0.679"/>
  <circle cy="-27.25" cx="40.641" r="0.679"/>
  <circle cy="-33.667" cx="21.975" r="0.679"/>
  <circle cy="-22.75" cx="4.558" r="0.679"/>
  <circle cy="-47.424" cx="46.967" r="0.679"/>
  <circle cy="-41.424" cx="32.634" r="0.679"/>
  <circle cy="-38.757" cx="34.634" r="0.679"/>
  <circle cy="-33.591" cx="39.467" r="0.679"/>
  <circle cy="-31.257" cx="45.634" r="0.679"/>
  <circle cy="-27.591" cx="47.634" r="0.679"/>
  <circle cy="-25.257" cx="52.467" r="0.679"/>
  <circle cy="-18.257" cx="45.634" r="0.679"/>
  <circle cy="-31.591" cx="55.634" r="0.679"/>
  <circle cy="-48.591" cx="49.8" r="0.679"/>
  <circle cy="-46.424" cx="40.134" r="0.679"/>
  <circle cy="-51.591" cx="52.467" r="0.679"/>
  <circle cy="-35.091" cx="48.634" r="0.679"/>
  <circle cy="-11.757" cx="23.217" r="0.679"/>
  <circle cy="-12.882" cx="20.321" r="0.679"/>
  <circle cy="-3.674" cx="23.384" r="0.679"/>
  <circle cy="-11.341" cx="17.634" r="0.679"/>
  <circle cy="-6.591" cx="30.8" r="0.679"/>
  <circle cy="-42.921" cx="55.134" r="0.357"/>
  <circle cy="-42.755" cx="57.467" r="0.357"/>
  <circle cy="-40.421" cx="56.467" r="0.357"/>
  <circle cy="-45.421" cx="53.634" r="0.357"/>
  <circle cy="-42.421" cx="48.967" r="0.357"/>
  <circle cy="-45.255" cx="46.134" r="0.357"/>
  <circle cy="-46.088" cx="43.134" r="0.356"/>
  <circle cy="-48.921" cx="44.634" r="0.357"/>
  <circle cy="-49.755" cx="46.3" r="0.356"/>
  <circle cy="-41.755" cx="51.634" r="0.357"/>
  <circle cy="-43.755" cx="52.8" r="0.356"/>
  <circle cy="-39.921" cx="50.467" r="0.357"/>
  <circle cy="-39.588" cx="53.634" r="0.356"/>
  <circle cy="-37.755" cx="57.134" r="0.357"/>
  <circle cy="-36.088" cx="56.3" r="0.356"/>
  <circle cy="-36.588" cx="53.8" r="0.356"/>
  <circle cy="-34.421" cx="51.8" r="0.356"/>
  <circle cy="-33.921" cx="54.3" r="0.356"/>
  <circle cy="-33.921" cx="57.3" r="0.356"/>
  <circle cy="-35.588" cx="58.134" r="0.356"/>
  <circle cy="-12.255" cx="58.134" r="0.357"/>
  <circle cy="-11.755" cx="55.134" r="0.357"/>
  <circle cy="-12.338" cx="52.634" r="0.356"/>
  <circle cy="-14.755" cx="52.634" r="0.357"/>
  <circle cy="-13.755" cx="49.8" r="0.356"/>
  <circle cy="-12.505" cx="50.717" r="0.357"/>
  <circle cy="-9.505" cx="51.55" r="0.356"/>
  <circle cy="-7.588" cx="54.634" r="0.356"/>
  <circle cy="-10.038" cx="16.934" r="0.357"/>
  <circle cy="-15.538" cx="1.767" r="0.356"/>
  <circle cy="-28.704" cx="26.1" r="0.357"/>
  <circle cy="-27.454" cx="23.35" r="0.357"/>
  <circle cy="-10.371" cx="32.184" r="0.356"/>
  <circle cy="-30.288" cx="7.517" r="0.356"/>
  <circle cy="-39.704" cx="20.85" r="0.357"/>
  <circle cy="-56.2" cx="24.272" r="0.357"/>
  <circle cy="-57.038" cx="30.35" r="0.357"/>
  <circle cy="-49.871" cx="15.184" r="0.356"/>
  <circle cy="-51.163" cx="17.309" r="0.357"/>
  <circle cy="-57.788" cx="23.684" r="0.357"/>
  <circle cy="-51.871" cx="31.1" r="0.356"/>
  <circle cy="-57.788" cx="2.6" r="0.357"/>
  <circle cy="-44.454" cx="49.517" r="0.356"/>
  <circle cy="-49.538" cx="38.6" r="0.357"/>
  <circle cy="-48.704" cx="31.6" r="0.357"/>
  <circle cy="-3.913" cx="44.684" r="0.357"/>
  <circle cy="-1.663" cx="32.434" r="0.357"/>
  <circle cy="-4.538" cx="9.809" r="0.357"/>
  <circle cy="-32.788" cx="50.559" r="0.357"/>
  <circle cy="-22.038" cx="6.309" r="0.357"/>
  <circle cy="-12.163" cx="2.309" r="0.357"/>
  <circle cy="-5.163" cx="53.684" r="0.357"/>
  <circle cy="-10.038" cx="55.059" r="0.357"/>
  <circle cy="-2.163" cx="57.559" r="0.357"/>
  <circle cy="-6.671" cx="56.634" r="0.357"/>
  <circle cy="-4.004" cx="56.467" r="0.357"/>
  <circle cy="-13.171" cx="46.05" r="0.356"/>
  <circle cy="-15.838" cx="45.217" r="0.356"/>
  <circle cy="-14.671" cx="38.717" r="0.357"/>
  <circle cy="-13.671" cx="37.55" r="0.356"/>
  <circle cy="-17.671" cx="36.467" r="0.357"/>
  <circle cy="-16.504" cx="34.55" r="0.356"/>
  <circle cy="-14.838" cx="34.884" r="0.356"/>
  <circle cy="-13.671" cx="29.8" r="0.356"/>
  <circle cy="-11.588" cx="30.55" r="0.356"/>
  <circle cy="-20.254" cx="28.384" r="0.357"/>
  <circle cy="-22.838" cx="29.634" r="0.356"/>
  <circle cy="-24.088" cx="28.217" r="0.356"/>
  <circle cy="-21.671" cx="25.55" r="0.356"/>
  <circle cy="-20.504" cx="23.8" r="0.356"/>
  <circle cy="-18.338" cx="25.634" r="0.356"/>
  <circle cy="-18.338" cx="28.8" r="0.356"/>
  <circle cy="-17.421" cx="30.55" r="0.356"/>
  <circle cy="-17.921" cx="32.8" r="0.356"/>
  <circle cy="-19.088" cx="35.134" r="0.356"/>
  <circle cy="-20.338" cx="33.55" r="0.356"/>
  <circle cy="-11.838" cx="41.217" r="0.356"/>
  <circle cy="-12.505" cx="43.634" r="0.357"/>
  <circle cy="-9.755" cx="43.467" r="0.357"/>
  <circle cy="-7.588" cx="44.55" r="0.356"/>
  <circle cy="-4.504" cx="42.55" r="0.356"/>
  <circle cy="-2.588" cx="46.3" r="0.356"/>
  <circle cy="-1.921" cx="50.3" r="0.356"/>
  <circle cy="-1.597" cx="55.217" r="0.357"/>
  <circle cy="-5.005" cx="39.217" r="0.357"/>
  <circle cy="-6.504" cx="41.384" r="0.357"/>
  <circle cy="-1.676" cx="39.462" r="0.356"/>
  <circle cy="-16.338" cx="39.3" r="0.356"/>
  <circle cy="-19.254" cx="40.384" r="0.357"/>
  <circle cy="-19.38" cx="43.759" r="0.357"/>
  <circle cy="-17.254" cx="41.634" r="0.357"/>
  <circle cy="-43.005" cx="5.509" r="0.357"/>
  <circle cy="-3.671" cx="36.55" r="0.356"/>
  <circle cy="-2.754" cx="8.884" r="0.357"/>
  <circle cy="-32.755" cx="28.8" r="0.356"/>
  <circle cy="-3.254" cx="48.55" r="0.356"/>
  <circle cy="-11.671" cx="47.55" r="0.356"/>
  <circle cy="-10.171" cx="48.8" r="0.356"/>
  <circle cy="-9.588" cx="45.8" r="0.356"/>
  <circle cy="-7.421" cx="47.634" r="0.357"/>
  <circle cy="-6.255" cx="48.884" r="0.357"/>
  <circle cy="-7.754" cx="50.55" r="0.356"/>
  <circle cy="-6.754" cx="51.55" r="0.356"/>
  <circle cy="-5.421" cx="50.634" r="0.357"/>
  <circle cy="-14.63" cx="58.009" r="0.357"/>
  <circle cy="-15.421" cx="55.55" r="0.356"/>
  <circle cy="-17.254" cx="51.3" r="0.356"/>
  <circle cy="-27.338" cx="49.467" r="0.356"/>
  <circle cy="-25.754" cx="49.05" r="0.356"/>
  <circle cy="-20.088" cx="38.717" r="0.356"/>
  <circle cy="-20.75" cx="50.879" r="0.356"/>
  <circle cy="-14.005" cx="56.634" r="0.357"/>
  <circle cy="-16.504" cx="20.634" r="0.357"/>
  <circle cy="-22.421" cx="15.634" r="0.357"/>
  <circle cy="-16.838" cx="15.967" r="0.356"/>
  <circle cy="-15.755" cx="14.634" r="0.357"/>
  <circle cy="-15.755" cx="18.384" r="0.357"/>
  <circle cy="-33.838" cx="25.55" r="0.356"/>
  <circle cy="-41.838" cx="47.3" r="0.356"/>
  <circle cy="-21.255" cx="35.384" r="0.357"/>
  <circle cy="-23.421" cx="36.717" r="0.357"/>
  <circle cy="-25.588" cx="37.717" r="0.356"/>
  <circle cy="-25.338" cx="34.3" r="0.356"/>
  <circle cy="-23.338" cx="32.884" r="0.356"/>
  <circle cy="-29.421" cx="58.134" r="0.357"/>
  <circle cy="-29.754" cx="53.467" r="0.357"/>
  <circle cy="-30.754" cx="51.134" r="0.357"/>
  <circle cy="-33.083" cx="48.379" r="0.357"/>
  <circle cy="-34.421" cx="45.3" r="0.356"/>
  <circle cy="-36.671" cx="45.467" r="0.357"/>
  <circle cy="-38.505" cx="44.8" r="0.356"/>
  <circle cy="-37.421" cx="43.05" r="0.356"/>
  <circle cy="-38.088" cx="40.217" r="0.356"/>
  <circle cy="-35.171" cx="40.634" r="0.357"/>
  <circle cy="-33.171" cx="43.384" r="0.357"/>
  <circle cy="-36.505" cx="39.134" r="0.357"/>
  <circle cy="-36.755" cx="36.717" r="0.357"/>
  <circle cy="-35.171" cx="37.217" r="0.357"/>
  <circle cy="-39.755" cx="36.634" r="0.357"/>
  <circle cy="-43.755" cx="47.467" r="0.357"/>
  <circle cy="-44.588" cx="41.55" r="0.356"/>
  <circle cy="-45.338" cx="32.967" r="0.356"/>
  <circle cy="-45.505" cx="30.467" r="0.357"/>
  <circle cy="-45.921" cx="27.8" r="0.356"/>
  <circle cy="-44.921" cx="26.217" r="0.357"/>
  <circle cy="-48.338" cx="28.55" r="0.356"/>
  <circle cy="-49.838" cx="26.467" r="0.356"/>
  <circle cy="-52.421" cx="26.217" r="0.357"/>
  <circle cy="-47.588" cx="25.467" r="0.356"/>
  <circle cy="-49.583" cx="23.379" r="0.357"/>
  <circle cy="-48.838" cx="20.55" r="0.356"/>
  <circle cy="-47.921" cx="18.967" r="0.357"/>
  <circle cy="-36.921" cx="49.05" r="0.356"/>
  <circle cy="-25.838" cx="56.3" r="0.356"/>
  <circle cy="-28.421" cx="54.717" r="0.357"/>
  <circle cy="-23.588" cx="54.717" r="0.356"/>
  <circle cy="-22.921" cx="57.634" r="0.357"/>
  <circle cy="-25.067" cx="58.009" r="0.357"/>
  <circle cy="-26.588" cx="44.967" r="0.356"/>
  <circle cy="-25.504" cx="42.884" r="0.357"/>
  <circle cy="-25.088" cx="46.05" r="0.356"/>
  <circle cy="-22.671" cx="49.55" r="0.356"/>
  <circle cy="-21.921" cx="53.55" r="0.356"/>
  <circle cy="-19.754" cx="52.717" r="0.357"/>
  <circle cy="-20.588" cx="55.55" r="0.356"/>
  <circle cy="-20.421" cx="57.55" r="0.356"/>
  <circle cy="-16.671" cx="56.967" r="0.357"/>
  <circle cy="-17.505" cx="53.384" r="0.357"/>
  <circle cy="-17.588" cx="47.717" r="0.356"/>
  <circle cy="-15.838" cx="49.467" r="0.356"/>
  <circle cy="-21.255" cx="47.05" r="0.356"/>
  <circle cy="-23.671" cx="46.717" r="0.357"/>
  <circle cy="-22.588" cx="44.884" r="0.356"/>
  <circle cy="-21.421" cx="43.384" r="0.357"/>
  <circle cy="-22.838" cx="41.3" r="0.356"/>
  <circle cy="-24.338" cx="39.8" r="0.356"/>
  <circle cy="-29.921" cx="48.8" r="0.356"/>
  <circle cy="-37.588" cx="51.467" r="0.356"/>
  <circle cy="-39.588" cx="46.967" r="0.356"/>
  <circle cy="-42.421" cx="44.3" r="0.356"/>
  <circle cy="-42.921" cx="39.8" r="0.356"/>
  <circle cy="-40.421" cx="42.3" r="0.356"/>
  <circle cy="-40.921" cx="37.967" r="0.357"/>
  <circle cy="-42.088" cx="35.8" r="0.356"/>
  <circle cy="-44.755" cx="37.8" r="0.356"/>
  <circle cy="-47.755" cx="36.967" r="0.357"/>
  <circle cy="-46.088" cx="34.967" r="0.356"/>
  <circle cy="-48.588" cx="41.134" r="0.356"/>
  <circle cy="-54.088" cx="57.134" r="0.356"/>
  <circle cy="-55.588" cx="56.8" r="0.356"/>
  <circle cy="-55.588" cx="53.634" r="0.356"/>
  <circle cy="-53.755" cx="52.634" r="0.357"/>
  <circle cy="-52.588" cx="55.134" r="0.356"/>
  <circle cy="-57.255" cx="54.967" r="0.357"/>
  <circle cy="-57.921" cx="57.134" r="0.357"/>
  <circle cy="-58.088" cx="53.3" r="0.356"/>
  <circle cy="-58.413" cx="50.871" r="0.357"/>
  <circle cy="-50.088" cx="57.467" r="0.356"/>
  <circle cy="-49.088" cx="55.467" r="0.356"/>
  <circle cy="-48.588" cx="53.134" r="0.356"/>
  <circle cy="-45.588" cx="56.967" r="0.356"/>
  <circle cy="-47.505" cx="51.009" r="0.357"/>
  <circle cy="-24.629" cx="50.509" r="0.357"/>
  <circle cy="-52.921" cx="49.8" r="0.356"/>
  <circle cy="-51.088" cx="49.134" r="0.356"/>
  <circle cy="-52.421" cx="45.967" r="0.357"/>
  <circle cy="-54.588" cx="47.3" r="0.356"/>
  <circle cy="-57.588" cx="38.884" r="0.356"/>
  <circle cy="-56.838" cx="43.217" r="0.356"/>
  <circle cy="-55.255" cx="44.05" r="0.356"/>
  <circle cy="-54.921" cx="40.717" r="0.357"/>
  <circle cy="-57.871" cx="41.6" r="0.356"/>
  <circle cy="-56.505" cx="37.634" r="0.357"/>
  <circle cy="-56.421" cx="35.717" r="0.357"/>
  <circle cy="-54.671" cx="36.384" r="0.357"/>
  <circle cy="-57.505" cx="33.217" r="0.357"/>
  <path d="M36.605-58.8c-0.002,0.195-0.161,0.353-0.357,0.353s-0.354-0.157-0.356-0.353"/>
  <circle cy="-58.255" cx="6.884" r="0.357"/>
  <circle cy="-57.421" cx="4.55" r="0.356"/>
  <circle cy="-55.255" cx="2.55" r="0.356"/>
  <circle cy="-55.921" cx="7.217" r="0.357"/>
  <circle cy="-57.921" cx="9.217" r="0.357"/>
  <circle cy="-58.255" cx="12.467" r="0.357"/>
  <circle cy="-58.38" cx="15.821" r="0.357"/>
  <circle cy="-57.838" cx="20.467" r="0.356"/>
  <circle cy="-54.838" cx="25.217" r="0.356"/>
  <circle cy="-55.588" cx="21.55" r="0.356"/>
  <circle cy="-55.921" cx="17.717" r="0.357"/>
  <circle cy="-55.588" cx="14.634" r="0.356"/>
  <circle cy="-55.338" cx="11.884" r="0.356"/>
  <circle cy="-53.921" cx="8.55" r="0.356"/>
  <circle cy="-53.921" cx="5.3" r="0.356"/>
  <circle cy="-51.838" cx="7.634" r="0.356"/>
  <circle cy="-51.588" cx="4.634" r="0.356"/>
  <circle cy="-49.921" cx="9.05" r="0.356"/>
  <circle cy="-50.921" cx="11.3" r="0.356"/>
  <circle cy="-51.838" cx="13.05" r="0.356"/>
  <circle cy="-48.921" cx="12.634" r="0.357"/>
  <circle cy="-47.505" cx="10.05" r="0.356"/>
  <circle cy="-46.588" cx="13.05" r="0.356"/>
  <circle cy="-47.338" cx="16.467" r="0.356"/>
  <circle cy="-44.755" cx="11.55" r="0.356"/>
  <circle cy="-44.005" cx="13.717" r="0.357"/>
  <circle cy="-46.005" cx="8.05" r="0.356"/>
  <circle cy="-47.755" cx="7.467" r="0.357"/>
  <circle cy="-47.421" cx="4.134" r="0.357"/>
  <circle cy="-46.588" cx="1.634" r="0.356"/>
  <circle cy="-45.505" cx="2.884" r="0.357"/>
  <circle cy="-45.421" cx="5.55" r="0.356"/>
  <circle cy="-44.421" cx="6.634" r="0.357"/>
  <circle cy="-41.671" cx="7.05" r="0.356"/>
  <circle cy="-40.921" cx="4.217" r="0.357"/>
  <circle cy="-38.843" cx="1.638" r="0.356"/>
  <circle cy="-39.421" cx="5.634" r="0.357"/>
  <circle cy="-37.421" cx="4.634" r="0.357"/>
  <circle cy="-35.505" cx="4.967" r="0.357"/>
  <circle cy="-35.505" cx="8.384" r="0.357"/>
  <circle cy="-39.588" cx="9.05" r="0.356"/>
  <circle cy="-38.921" cx="11.217" r="0.357"/>
  <circle cy="-41.588" cx="10.884" r="0.356"/>
  <circle cy="-42.171" cx="13.217" r="0.357"/>
  <circle cy="-39.671" cx="13.3" r="0.356"/>
  <circle cy="-38.005" cx="14.217" r="0.357"/>
  <circle cy="-36.505" cx="12.717" r="0.357"/>
  <circle cy="-35.338" cx="15.134" r="0.356"/>
  <circle cy="-35.505" cx="17.55" r="0.356"/>
  <circle cy="-38.421" cx="16.884" r="0.357"/>
  <circle cy="-45.588" cx="15.55" r="0.356"/>
  <circle cy="-32.588" cx="7.884" r="0.356"/>
  <circle cy="-34.588" cx="6.634" r="0.356"/>
  <circle cy="-33.588" cx="10.8" r="0.356"/>
  <circle cy="-31.504" cx="11.884" r="0.357"/>
  <circle cy="-30.588" cx="14.05" r="0.356"/>
  <circle cy="-31.504" cx="16.134" r="0.357"/>
  <circle cy="-33.505" cx="14.384" r="0.357"/>
  <circle cy="-31.004" cx="17.967" r="0.357"/>
  <circle cy="-35.755" cx="19.467" r="0.357"/>
  <circle cy="-38.338" cx="21.8" r="0.356"/>
  <circle cy="-35.921" cx="21.717" r="0.357"/>
  <circle cy="-36.005" cx="24.55" r="0.356"/>
  <circle cy="-37.838" cx="23.717" r="0.356"/>
  <circle cy="-34.838" cx="27.217" r="0.356"/>
  <circle cy="-36.171" cx="28.884" r="0.357"/>
  <circle cy="-37.038" cx="32.184" r="0.357"/>
  <circle cy="-43.538" cx="34.35" r="0.357"/>
  <circle cy="-42.788" cx="25.6" r="0.357"/>
  <circle cy="-31.871" cx="21.017" r="0.356"/>
  <circle cy="-33.538" cx="19.684" r="0.357"/>
  <circle cy="-42.204" cx="42.017" r="0.356"/>
  <circle cy="-42.454" cx="38.434" r="0.357"/>
  <circle cy="-44.954" cx="21.1" r="0.357"/>
  <circle cy="-37.871" cx="7.6" r="0.356"/>
  <circle cy="-36.454" cx="1.85" r="0.357"/>
  <circle cy="-22.371" cx="38.6" r="0.356"/>
  <circle cy="-40.421" cx="28.967" r="0.357"/>
  <circle cy="-38.088" cx="28.3" r="0.356"/>
  <circle cy="-39.005" cx="31.134" r="0.357"/>
  <circle cy="-35.005" cx="30.634" r="0.357"/>
  <circle cy="-35.088" cx="33.134" r="0.356"/>
  <circle cy="-32.338" cx="31.634" r="0.356"/>
  <circle cy="-32.421" cx="36.8" r="0.356"/>
  <circle cy="-33.505" cx="35.217" r="0.357"/>
  <circle cy="-23.504" cx="19.384" r="0.357"/>
  <circle cy="-21.921" cx="21.05" r="0.356"/>
  <circle cy="-21.504" cx="18.55" r="0.356"/>
  <circle cy="-24.838" cx="16.384" r="0.356"/>
  <circle cy="-18.755" cx="19.55" r="0.356"/>
  <circle cy="-19.171" cx="22.05" r="0.356"/>
  <circle cy="-18.004" cx="22.884" r="0.357"/>
  <circle cy="-15.588" cx="23.634" r="0.356"/>
  <circle cy="-16.338" cx="26.05" r="0.356"/>
  <circle cy="-14.421" cx="26.967" r="0.357"/>
  <circle cy="-13.588" cx="25.384" r="0.356"/>
  <circle cy="-14.421" cx="17.55" r="0.356"/>
  <circle cy="-10.088" cx="20.967" r="0.356"/>
  <circle cy="-8.338" cx="19.55" r="0.356"/>
  <circle cy="-7.505" cx="22.634" r="0.357"/>
  <circle cy="-9.421" cx="24.634" r="0.357"/>
  <circle cy="-8.755" cx="28.467" r="0.357"/>
  <circle cy="-6.588" cx="27.134" r="0.356"/>
  <circle cy="-5.504" cx="29.384" r="0.357"/>
  <circle cy="-4.504" cx="32.717" r="0.357"/>
  <circle cy="-3.171" cx="33.8" r="0.356"/>
  <circle cy="-2.588" cx="30.467" r="0.356"/>
  <circle cy="-8.338" cx="33.384" r="0.356"/>
  <circle cy="-9.588" cx="36.8" r="0.356"/>
  <circle cy="-7.754" cx="39.717" r="0.357"/>
  <circle cy="-6.588" cx="37.717" r="0.356"/>
  <circle cy="-8.421" cx="35.467" r="0.357"/>
  <circle cy="-5.421" cx="35.384" r="0.357"/>
  <circle cy="-7.588" cx="16.884" r="0.356"/>
  <circle cy="-7.505" cx="15.134" r="0.357"/>
  <circle cy="-10.255" cx="10.634" r="0.357"/>
  <circle cy="-11.755" cx="7.55" r="0.356"/>
  <circle cy="-13.921" cx="5.884" r="0.357"/>
  <circle cy="-16.421" cx="4.634" r="0.357"/>
  <circle cy="-19.671" cx="4.217" r="0.357"/>
  <circle cy="-24.671" cx="7.467" r="0.357"/>
  <circle cy="-14.171" cx="3.05" r="0.356"/>
  <circle cy="-10.088" cx="2.3" r="0.356"/>
  <circle cy="-11.505" cx="4.467" r="0.357"/>
  <circle cy="-10.588" cx="5.634" r="0.356"/>
  <circle cy="-8.755" cx="7.467" r="0.357"/>
  <circle cy="-7.838" cx="4.134" r="0.356"/>
  <circle cy="-6.921" cx="5.967" r="0.357"/>
  <circle cy="-5.754" cx="4.717" r="0.357"/>
  <circle cy="-3.671" cx="2.467" r="0.357"/>
  <circle cy="-1.755" cx="4.55" r="0.356"/>
  <circle cy="-3.421" cx="10.634" r="0.357"/>
  <circle cy="-6.588" cx="10.634" r="0.356"/>
  <circle cy="-3.338" cx="7.3" r="0.356"/>
  <circle cy="-2.421" cx="17.134" r="0.357"/>
  <circle cy="-2.588" cx="13.467" r="0.356"/>
  <circle cy="-5.838" cx="12.384" r="0.356"/>
  <circle cy="-5.421" cx="16.55" r="0.356"/>
  <circle cy="-2.838" cx="20.217" r="0.356"/>
  <circle cy="-19.254" cx="16.8" r="0.356"/>
  <circle cy="-3.421" cx="25.55" r="0.356"/>
  <circle cy="-1.759" cx="23.884" r="0.357"/>
  <circle cy="-5.005" cx="21.384" r="0.357"/>
  <circle cy="-6.588" cx="20.467" r="0.356"/>
  <circle cy="-4.921" cx="24.967" r="0.357"/>
  <circle cy="-7.671" cx="25.3" r="0.356"/>
  <circle cy="-3.504" cx="27.55" r="0.356"/>
  <circle cy="-1.671" cx="28.717" r="0.357"/>
  <circle cy="-9.505" cx="14.55" r="0.356"/>
  <circle cy="-12.5" cx="15.462" r="0.356"/>
  <circle cy="-6.371" cx="2.767" r="0.356"/>
  <circle cy="-13.871" cx="11.934" r="0.356"/>
  <circle cy="-25.954" cx="24.85" r="0.357"/>
  <circle cy="-25.454" cx="15.017" r="0.356"/>
  <circle cy="-31.371" cx="57.184" r="0.356"/>
  <circle cy="-32.288" cx="52.85" r="0.357"/>
  <circle cy="-15.454" cx="31.684" r="0.357"/>
  <circle cy="-12.505" cx="12.55" r="0.356"/>
  <circle cy="-17.671" cx="12.467" r="0.357"/>
  <circle cy="-21.504" cx="11.717" r="0.357"/>
  <circle cy="-19.588" cx="10.634" r="0.356"/>
  <circle cy="-17.588" cx="9.8" r="0.356"/>
  <circle cy="-14.671" cx="10.55" r="0.356"/>
  <circle cy="-14.421" cx="7.8" r="0.356"/>
  <circle cy="-17.588" cx="7.3" r="0.356"/>
  <circle cy="-20.338" cx="6.967" r="0.356"/>
  <circle cy="-20.921" cx="8.8" r="0.356"/>
  <circle cy="-23.254" cx="8.634" r="0.357"/>
  <circle cy="-12.088" cx="27.55" r="0.356"/>
  <circle cy="-10.421" cx="33.634" r="0.357"/>
  <circle cy="-11.671" cx="35.55" r="0.356"/>
  <circle cy="-10.755" cx="39.467" r="0.357"/>
  <circle cy="-13.421" cx="39.634" r="0.357"/>
  <circle cy="-29.838" cx="30.55" r="0.356"/>
  <circle cy="-28.671" cx="28.8" r="0.356"/>
  <circle cy="-29.671" cx="24.634" r="0.357"/>
  <circle cy="-31.921" cx="24.134" r="0.357"/>
  <circle cy="-30.671" cx="39.3" r="0.356"/>
  <circle cy="-30.671" cx="42.217" r="0.357"/>
  <circle cy="-28.838" cx="43.467" r="0.356"/>
  <circle cy="-28.755" cx="38.384" r="0.357"/>
  <circle cy="-28.588" cx="33.467" r="0.356"/>
  <circle cy="-27.254" cx="32.134" r="0.357"/>
  <circle cy="-26.588" cx="35.634" r="0.356"/>
  <circle cy="-25.088" cx="31.55" r="0.356"/>
  <circle cy="-25.671" cx="28.467" r="0.357"/>
  <circle cy="-27.421" cx="26.134" r="0.357"/>
  <circle cy="-27.505" cx="21.717" r="0.357"/>
  <circle cy="-23.671" cx="22.967" r="0.357"/>
  <circle cy="-25.671" cx="19.717" r="0.357"/>
  <circle cy="-28.421" cx="18.3" r="0.356"/>
  <circle cy="-28.838" cx="16.05" r="0.356"/>
  <circle cy="-27.338" cx="15.384" r="0.356"/>
  <circle cy="-28.838" cx="11.634" r="0.356"/>
  <circle cy="-30.921" cx="9.384" r="0.357"/>
  <circle cy="-29.088" cx="7.634" r="0.356"/>
  <circle cy="-28.588" cx="9.634" r="0.356"/>
  <circle cy="-26.088" cx="10.634" r="0.356"/>
  <circle cy="-26.754" cx="13.05" r="0.356"/>
  <circle cy="-30.676" cx="1.638" r="0.356"/>
  <circle cy="-29.504" cx="2.8" r="0.356"/>
  <circle cy="-32.838" cx="4.634" r="0.356"/>
  <circle cy="-34.755" cx="2.967" r="0.357"/>
  <circle cy="-19.588" cx="1.55" r="0.356"/>
  <circle cy="-31.255" cx="5.55" r="0.356"/>
  <circle cy="-36.921" cx="9.467" r="0.357"/>
  <circle cy="-32.921" cx="17.967" r="0.357"/>
  <circle cy="-55.921" cx="45.967" r="0.357"/>
  <circle cy="-30.921" cx="32.8" r="0.356"/>
  <circle cy="-8.755" cx="11.3" r="0.356"/>
  <circle cy="-5.254" cx="46.967" r="0.357"/>
  <circle cy="-23.504" cx="12.8" r="0.356"/>
  <circle cy="-26.921" cx="6.717" r="0.357"/>
  <circle cy="-28.504" cx="5.467" r="0.357"/>
  <circle cy="-25.588" cx="5.55" r="0.356"/>
  <circle cy="-25.671" cx="2.717" r="0.357"/>
  <circle cy="-23.338" cx="2.3" r="0.356"/>
  <circle cy="-39.505" cx="24.384" r="0.357"/>
  <circle cy="-40.755" cx="26.55" r="0.356"/>
  <circle cy="-42.588" cx="2.55" r="0.356"/>
  <circle cy="-42.755" cx="17.3" r="0.356"/>
  <circle cy="-43.505" cx="22.55" r="0.356"/>
  <circle cy="-44.921" cx="24.134" r="0.357"/>
  <circle cy="-42.505" cx="27.55" r="0.356"/>
  <circle cy="-42.838" cx="31.05" r="0.356"/>
  <circle cy="-41.671" cx="22.467" r="0.357"/>
  <circle cy="-42.755" cx="19.634" r="0.357"/>
  <circle cy="-41.505" cx="18.55" r="0.356"/>
  <circle cy="-40.505" cx="15.467" r="0.357"/>
  <circle cy="-53.588" cx="17.634" r="0.356"/>
  <circle cy="-53.505" cx="19.8" r="0.356"/>
  <circle cy="-51.755" cx="20.55" r="0.356"/>
  <circle cy="-49.838" cx="18.634" r="0.356"/>
  <circle cy="-57.505" cx="25.467" r="0.357"/>
  <circle cy="-54.588" cx="28.634" r="0.356"/>
  <circle cy="-54.171" cx="31.05" r="0.356"/>
  <circle cy="-54.921" cx="32.634" r="0.357"/>
  <circle cy="-53.005" cx="33.717" r="0.357"/>
  <circle cy="-50.588" cx="32.55" r="0.356"/>
  <circle cy="-50.671" cx="35.717" r="0.357"/>
  <circle cy="-48.588" cx="34.634" r="0.356"/>
  <circle cy="-46.588" cx="32.384" r="0.356"/>
  <circle cy="-49.421" cx="29.717" r="0.357"/>
  <circle cy="-52.921" cx="41.3" r="0.356"/>
  <circle cy="-50.421" cx="42.8" r="0.356"/>
  <circle cy="-55.171" cx="48.967" r="0.357"/>
  <circle cy="-47.38" cx="58.134" r="0.357"/>
  <circle cy="-53.505" cx="38.967" r="0.357"/>
  <circle cy="-52.838" cx="36.8" r="0.356"/>
 </g>
</svg>
