<?xml version="1.0"?>
<!-- Converted with SVG Converter - Version 0.9.5 (Compiled Fri Feb 21 09:53:38 2020) - Copyright (C) 2011 Nokia -->
<svg xmlns="http://www.w3.org/2000/svg" width="57.601" version="1.1" baseProfile="tiny" xml:space="preserve" xmlns:xlink="http://www.w3.org/1999/xlink" y="0px" height="57.601" x="0px" viewBox="1 -58.601 57.601 57.601">
 <g>
  <rect width="57.601" style="fill:none;" y="-58.601" height="57.601" x="1"/>
  <circle style="fill:#00AEEF;" cx="50.634" cy="-45.225" r="0.777"/>
  <circle style="fill:#00AEEF;" cx="49.884" cy="-56.433" r="0.777"/>
  <circle style="fill:#00AEEF;" cx="43.467" cy="-52.224" r="0.777"/>
  <circle style="fill:#00AEEF;" cx="29.467" cy="-52.308" r="0.777"/>
  <circle style="fill:#00AEEF;" cx="23.459" cy="-52.467" r="0.777"/>
  <circle style="fill:#00AEEF;" cx="15.384" cy="-51.558" r="0.777"/>
  <circle style="fill:#00AEEF;" cx="11.05" cy="-53.224" r="0.777"/>
  <circle style="fill:#00AEEF;" cx="5.634" cy="-49.391" r="0.777"/>
  <circle style="fill:#00AEEF;" cx="2.55" cy="-50.475" r="0.778"/>
  <path d="M1-51.621c0.427-0.003,0.773-0.35,0.773-0.778c0-0.428-0.346-0.775-0.773-0.778" style="fill:#00AEEF;"/>
  <path d="M58.601-53.176c-0.004,0-0.008,0-0.012,0c-0.43,0-0.777,0.349-0.777,0.778s0.348,0.778,0.777,0.778    c0.004,0,0.008,0,0.012,0" style="fill:#00AEEF;"/>
  <circle style="fill:#00AEEF;" cx="9.634" cy="-43.558" r="0.777"/>
  <circle style="fill:#00AEEF;" cx="17.709" cy="-44.884" r="0.777"/>
  <circle style="fill:#00AEEF;" cx="22.292" cy="-45.967" r="0.777"/>
  <circle style="fill:#00AEEF;" cx="51.042" cy="-28.467" r="0.777"/>
  <circle style="fill:#00AEEF;" cx="39.376" cy="-50.55" r="0.777"/>
  <circle style="fill:#00AEEF;" cx="28.8" cy="-57.391" r="0.777"/>
  <circle style="fill:#00AEEF;" cx="19.467" cy="-38.891" r="0.777"/>
  <circle style="fill:#00AEEF;" cx="26.876" cy="-31.55" r="0.777"/>
  <circle style="fill:#00AEEF;" cx="35.209" cy="-30.467" r="0.777"/>
  <circle style="fill:#00AEEF;" cx="31.292" cy="-20.3" r="0.777"/>
  <circle style="fill:#00AEEF;" cx="57.8" cy="-27.308" r="0.777"/>
  <circle style="fill:#00AEEF;" cx="49.626" cy="-18.55" r="0.777"/>
  <circle style="fill:#00AEEF;" cx="1.808" cy="-33.634" r="0.777"/>
  <circle style="fill:#00AEEF;" cx="20.725" cy="-29.384" r="0.777"/>
  <circle style="fill:#00AEEF;" cx="25.891" cy="-24.3" r="0.777"/>
  <circle style="fill:#00AEEF;" cx="13.384" cy="-19.475" r="0.777"/>
  <circle style="fill:#00AEEF;" cx="32.717" cy="-14.058" r="0.777"/>
  <circle style="fill:#00AEEF;" cx="42.3" cy="-15.391" r="0.777"/>
  <circle style="fill:#00AEEF;" cx="57.634" cy="-9.474" r="0.777"/>
  <circle style="fill:#00AEEF;" cx="53.384" cy="-3.391" r="0.777"/>
  <circle style="fill:#00AEEF;" cx="42.55" cy="-1.808" r="0.777"/>
  <path d="M46.494-1c0.019-0.413,0.358-0.741,0.775-0.741c0.417,0,0.756,0.328,0.775,0.741" style="fill:#00AEEF;"/>
  <path d="M48.045-58.601c-0.011,0.419-0.354,0.757-0.776,0.757c-0.423,0-0.766-0.338-0.776-0.757" style="fill:#00AEEF;"/>
  <circle style="fill:#00AEEF;" cx="14.55" cy="-4.391" r="0.777"/>
  <circle style="fill:#00AEEF;" cx="7.55" cy="-4.891" r="0.777"/>
  <circle style="fill:#00AEEF;" cx="2.3" cy="-17.475" r="0.777"/>
  <circle style="fill:#00AEEF;" cx="40.641" cy="-27.05" r="0.777"/>
  <circle style="fill:#00AEEF;" cx="21.975" cy="-33.467" r="0.777"/>
  <circle style="fill:#00AEEF;" cx="4.558" cy="-22.55" r="0.777"/>
  <circle style="fill:#00AEEF;" cx="46.967" cy="-47.224" r="0.777"/>
  <circle style="fill:#00AEEF;" cx="32.634" cy="-41.225" r="0.777"/>
  <circle style="fill:#00AEEF;" cx="34.634" cy="-38.558" r="0.777"/>
  <circle style="fill:#00AEEF;" cx="39.467" cy="-33.391" r="0.777"/>
  <circle style="fill:#00AEEF;" cx="45.634" cy="-31.058" r="0.777"/>
  <circle style="fill:#00AEEF;" cx="47.634" cy="-27.391" r="0.777"/>
  <circle style="fill:#00AEEF;" cx="52.467" cy="-25.057" r="0.777"/>
  <circle style="fill:#00AEEF;" cx="45.634" cy="-18.058" r="0.777"/>
  <circle style="fill:#00AEEF;" cx="55.634" cy="-31.391" r="0.777"/>
  <circle style="fill:#00AEEF;" cx="49.8" cy="-48.391" r="0.777"/>
  <circle style="fill:#00AEEF;" cx="40.134" cy="-46.225" r="0.777"/>
  <circle style="fill:#00AEEF;" cx="52.467" cy="-51.391" r="0.777"/>
  <circle style="fill:#00AEEF;" cx="48.634" cy="-34.891" r="0.777"/>
  <circle style="fill:#00AEEF;" cx="23.217" cy="-11.558" r="0.777"/>
  <circle style="fill:#00AEEF;" cx="20.321" cy="-12.683" r="0.777"/>
  <circle style="fill:#00AEEF;" cx="23.384" cy="-3.475" r="0.777"/>
  <circle style="fill:#00AEEF;" cx="17.634" cy="-11.141" r="0.777"/>
  <circle style="fill:#00AEEF;" cx="30.8" cy="-6.391" r="0.777"/>
  <circle style="fill:#00AEEF;" cx="55.134" cy="-42.722" r="0.408"/>
  <circle style="fill:#00AEEF;" cx="57.467" cy="-42.555" r="0.408"/>
  <circle style="fill:#00AEEF;" cx="56.467" cy="-40.222" r="0.408"/>
  <circle style="fill:#00AEEF;" cx="53.634" cy="-45.222" r="0.408"/>
  <circle style="fill:#00AEEF;" cx="48.967" cy="-42.222" r="0.408"/>
  <circle style="fill:#00AEEF;" cx="46.134" cy="-45.055" r="0.408"/>
  <circle style="fill:#00AEEF;" cx="43.134" cy="-45.888" r="0.408"/>
  <circle style="fill:#00AEEF;" cx="44.634" cy="-48.721" r="0.408"/>
  <circle style="fill:#00AEEF;" cx="46.3" cy="-49.555" r="0.408"/>
  <circle style="fill:#00AEEF;" cx="51.634" cy="-41.555" r="0.408"/>
  <circle style="fill:#00AEEF;" cx="52.8" cy="-43.555" r="0.408"/>
  <circle style="fill:#00AEEF;" cx="50.467" cy="-39.722" r="0.408"/>
  <circle style="fill:#00AEEF;" cx="53.634" cy="-39.388" r="0.408"/>
  <circle style="fill:#00AEEF;" cx="57.134" cy="-37.555" r="0.408"/>
  <circle style="fill:#00AEEF;" cx="56.3" cy="-35.888" r="0.408"/>
  <circle style="fill:#00AEEF;" cx="53.8" cy="-36.388" r="0.408"/>
  <circle style="fill:#00AEEF;" cx="51.8" cy="-34.222" r="0.408"/>
  <circle style="fill:#00AEEF;" cx="54.3" cy="-33.721" r="0.408"/>
  <circle style="fill:#00AEEF;" cx="57.3" cy="-33.721" r="0.408"/>
  <circle style="fill:#00AEEF;" cx="58.134" cy="-35.388" r="0.408"/>
  <circle style="fill:#00AEEF;" cx="58.134" cy="-12.055" r="0.408"/>
  <circle style="fill:#00AEEF;" cx="55.134" cy="-11.555" r="0.408"/>
  <circle style="fill:#00AEEF;" cx="52.634" cy="-12.138" r="0.408"/>
  <circle style="fill:#00AEEF;" cx="52.634" cy="-14.555" r="0.408"/>
  <circle style="fill:#00AEEF;" cx="49.8" cy="-13.555" r="0.408"/>
  <circle style="fill:#00AEEF;" cx="50.717" cy="-12.305" r="0.408"/>
  <circle style="fill:#00AEEF;" cx="51.55" cy="-9.305" r="0.408"/>
  <circle style="fill:#00AEEF;" cx="54.634" cy="-7.388" r="0.408"/>
  <circle style="fill:#00AEEF;" cx="16.934" cy="-9.838" r="0.408"/>
  <circle style="fill:#00AEEF;" cx="1.767" cy="-15.338" r="0.408"/>
  <circle style="fill:#00AEEF;" cx="26.1" cy="-28.505" r="0.408"/>
  <circle style="fill:#00AEEF;" cx="23.35" cy="-27.255" r="0.408"/>
  <circle style="fill:#00AEEF;" cx="32.184" cy="-10.171" r="0.408"/>
  <circle style="fill:#00AEEF;" cx="7.517" cy="-30.088" r="0.408"/>
  <circle style="fill:#00AEEF;" cx="20.85" cy="-39.505" r="0.408"/>
  <circle style="fill:#00AEEF;" cx="24.272" cy="-56" r="0.408"/>
  <circle style="fill:#00AEEF;" cx="30.35" cy="-56.838" r="0.408"/>
  <circle style="fill:#00AEEF;" cx="15.184" cy="-49.671" r="0.408"/>
  <circle style="fill:#00AEEF;" cx="17.309" cy="-50.963" r="0.408"/>
  <circle style="fill:#00AEEF;" cx="23.684" cy="-57.588" r="0.408"/>
  <circle style="fill:#00AEEF;" cx="31.1" cy="-51.672" r="0.408"/>
  <circle style="fill:#00AEEF;" cx="2.6" cy="-57.588" r="0.408"/>
  <circle style="fill:#00AEEF;" cx="49.517" cy="-44.255" r="0.408"/>
  <circle style="fill:#00AEEF;" cx="38.6" cy="-49.338" r="0.408"/>
  <circle style="fill:#00AEEF;" cx="31.6" cy="-48.505" r="0.408"/>
  <circle style="fill:#00AEEF;" cx="44.684" cy="-3.713" r="0.408"/>
  <circle style="fill:#00AEEF;" cx="32.434" cy="-1.463" r="0.408"/>
  <circle style="fill:#00AEEF;" cx="9.809" cy="-4.338" r="0.408"/>
  <circle style="fill:#00AEEF;" cx="50.559" cy="-32.588" r="0.408"/>
  <circle style="fill:#00AEEF;" cx="6.309" cy="-21.838" r="0.408"/>
  <circle style="fill:#00AEEF;" cx="2.309" cy="-11.963" r="0.408"/>
  <circle style="fill:#00AEEF;" cx="53.684" cy="-4.963" r="0.408"/>
  <circle style="fill:#00AEEF;" cx="55.059" cy="-9.838" r="0.408"/>
  <circle style="fill:#00AEEF;" cx="57.559" cy="-1.963" r="0.408"/>
  <circle style="fill:#00AEEF;" cx="55.215" cy="-1.432" r="0.408"/>
  <circle style="fill:#00AEEF;" cx="56.634" cy="-6.472" r="0.408"/>
  <circle style="fill:#00AEEF;" cx="56.467" cy="-3.805" r="0.408"/>
  <circle style="fill:#00AEEF;" cx="46.05" cy="-12.972" r="0.408"/>
  <circle style="fill:#00AEEF;" cx="45.217" cy="-15.638" r="0.408"/>
  <circle style="fill:#00AEEF;" cx="38.717" cy="-14.472" r="0.408"/>
  <circle style="fill:#00AEEF;" cx="37.55" cy="-13.472" r="0.408"/>
  <circle style="fill:#00AEEF;" cx="36.467" cy="-17.471" r="0.408"/>
  <circle style="fill:#00AEEF;" cx="34.55" cy="-16.305" r="0.408"/>
  <circle style="fill:#00AEEF;" cx="34.884" cy="-14.638" r="0.408"/>
  <circle style="fill:#00AEEF;" cx="29.8" cy="-13.472" r="0.408"/>
  <circle style="fill:#00AEEF;" cx="30.55" cy="-11.388" r="0.408"/>
  <circle style="fill:#00AEEF;" cx="28.384" cy="-20.055" r="0.408"/>
  <circle style="fill:#00AEEF;" cx="29.634" cy="-22.638" r="0.408"/>
  <circle style="fill:#00AEEF;" cx="28.217" cy="-23.888" r="0.408"/>
  <circle style="fill:#00AEEF;" cx="25.55" cy="-21.472" r="0.408"/>
  <circle style="fill:#00AEEF;" cx="23.8" cy="-20.305" r="0.408"/>
  <circle style="fill:#00AEEF;" cx="25.634" cy="-18.138" r="0.408"/>
  <circle style="fill:#00AEEF;" cx="28.8" cy="-18.138" r="0.408"/>
  <circle style="fill:#00AEEF;" cx="30.55" cy="-17.222" r="0.408"/>
  <circle style="fill:#00AEEF;" cx="32.8" cy="-17.722" r="0.408"/>
  <circle style="fill:#00AEEF;" cx="35.134" cy="-18.888" r="0.408"/>
  <circle style="fill:#00AEEF;" cx="33.55" cy="-20.138" r="0.408"/>
  <circle style="fill:#00AEEF;" cx="41.217" cy="-11.638" r="0.408"/>
  <circle style="fill:#00AEEF;" cx="43.634" cy="-12.305" r="0.408"/>
  <circle style="fill:#00AEEF;" cx="43.467" cy="-9.555" r="0.408"/>
  <circle style="fill:#00AEEF;" cx="44.55" cy="-7.388" r="0.408"/>
  <circle style="fill:#00AEEF;" cx="42.55" cy="-4.305" r="0.408"/>
  <circle style="fill:#00AEEF;" cx="46.3" cy="-2.388" r="0.408"/>
  <circle style="fill:#00AEEF;" cx="50.3" cy="-1.722" r="0.408"/>
  <circle style="fill:#00AEEF;" cx="39.217" cy="-4.805" r="0.408"/>
  <circle style="fill:#00AEEF;" cx="41.384" cy="-6.305" r="0.408"/>
  <circle style="fill:#00AEEF;" cx="39.462" cy="-1.476" r="0.408"/>
  <circle style="fill:#00AEEF;" cx="39.3" cy="-16.138" r="0.408"/>
  <circle style="fill:#00AEEF;" cx="40.384" cy="-19.055" r="0.408"/>
  <circle style="fill:#00AEEF;" cx="43.759" cy="-19.18" r="0.408"/>
  <circle style="fill:#00AEEF;" cx="41.634" cy="-17.055" r="0.408"/>
  <circle style="fill:#00AEEF;" cx="5.509" cy="-42.805" r="0.408"/>
  <circle style="fill:#00AEEF;" cx="36.55" cy="-3.472" r="0.408"/>
  <circle style="fill:#00AEEF;" cx="8.884" cy="-2.555" r="0.408"/>
  <circle style="fill:#00AEEF;" cx="28.8" cy="-32.555" r="0.408"/>
  <circle style="fill:#00AEEF;" cx="48.55" cy="-3.055" r="0.408"/>
  <circle style="fill:#00AEEF;" cx="47.55" cy="-11.472" r="0.408"/>
  <circle style="fill:#00AEEF;" cx="48.8" cy="-9.971" r="0.408"/>
  <circle style="fill:#00AEEF;" cx="45.8" cy="-9.388" r="0.408"/>
  <circle style="fill:#00AEEF;" cx="47.634" cy="-7.222" r="0.408"/>
  <circle style="fill:#00AEEF;" cx="48.884" cy="-6.055" r="0.408"/>
  <circle style="fill:#00AEEF;" cx="50.55" cy="-7.555" r="0.408"/>
  <circle style="fill:#00AEEF;" cx="51.55" cy="-6.555" r="0.408"/>
  <circle style="fill:#00AEEF;" cx="50.634" cy="-5.222" r="0.408"/>
  <circle style="fill:#00AEEF;" cx="58.009" cy="-14.43" r="0.408"/>
  <circle style="fill:#00AEEF;" cx="55.55" cy="-15.222" r="0.408"/>
  <circle style="fill:#00AEEF;" cx="51.3" cy="-17.055" r="0.408"/>
  <circle style="fill:#00AEEF;" cx="49.467" cy="-27.138" r="0.408"/>
  <circle style="fill:#00AEEF;" cx="49.05" cy="-25.555" r="0.408"/>
  <circle style="fill:#00AEEF;" cx="38.717" cy="-19.888" r="0.408"/>
  <circle style="fill:#00AEEF;" cx="50.879" cy="-20.55" r="0.408"/>
  <circle style="fill:#00AEEF;" cx="56.634" cy="-13.805" r="0.408"/>
  <circle style="fill:#00AEEF;" cx="20.634" cy="-16.305" r="0.408"/>
  <circle style="fill:#00AEEF;" cx="15.634" cy="-22.222" r="0.408"/>
  <circle style="fill:#00AEEF;" cx="15.967" cy="-16.638" r="0.408"/>
  <circle style="fill:#00AEEF;" cx="14.634" cy="-15.555" r="0.408"/>
  <circle style="fill:#00AEEF;" cx="18.384" cy="-15.555" r="0.408"/>
  <circle style="fill:#00AEEF;" cx="25.55" cy="-33.638" r="0.408"/>
  <circle style="fill:#00AEEF;" cx="47.3" cy="-41.638" r="0.408"/>
  <circle style="fill:#00AEEF;" cx="35.384" cy="-21.055" r="0.408"/>
  <circle style="fill:#00AEEF;" cx="36.717" cy="-23.222" r="0.408"/>
  <circle style="fill:#00AEEF;" cx="37.717" cy="-25.388" r="0.408"/>
  <circle style="fill:#00AEEF;" cx="34.3" cy="-25.138" r="0.408"/>
  <circle style="fill:#00AEEF;" cx="32.884" cy="-23.138" r="0.408"/>
  <circle style="fill:#00AEEF;" cx="58.134" cy="-29.222" r="0.408"/>
  <circle style="fill:#00AEEF;" cx="53.467" cy="-29.555" r="0.408"/>
  <circle style="fill:#00AEEF;" cx="51.134" cy="-30.555" r="0.408"/>
  <circle style="fill:#00AEEF;" cx="48.379" cy="-32.884" r="0.408"/>
  <circle style="fill:#00AEEF;" cx="45.3" cy="-34.222" r="0.408"/>
  <circle style="fill:#00AEEF;" cx="45.467" cy="-36.472" r="0.408"/>
  <circle style="fill:#00AEEF;" cx="44.8" cy="-38.305" r="0.408"/>
  <circle style="fill:#00AEEF;" cx="43.05" cy="-37.222" r="0.408"/>
  <circle style="fill:#00AEEF;" cx="40.217" cy="-37.888" r="0.408"/>
  <circle style="fill:#00AEEF;" cx="40.634" cy="-34.971" r="0.408"/>
  <circle style="fill:#00AEEF;" cx="43.384" cy="-32.972" r="0.408"/>
  <circle style="fill:#00AEEF;" cx="39.134" cy="-36.305" r="0.408"/>
  <circle style="fill:#00AEEF;" cx="36.717" cy="-36.555" r="0.408"/>
  <circle style="fill:#00AEEF;" cx="37.217" cy="-34.971" r="0.408"/>
  <circle style="fill:#00AEEF;" cx="36.634" cy="-39.555" r="0.408"/>
  <circle style="fill:#00AEEF;" cx="47.467" cy="-43.555" r="0.408"/>
  <circle style="fill:#00AEEF;" cx="41.55" cy="-44.388" r="0.408"/>
  <circle style="fill:#00AEEF;" cx="32.967" cy="-45.138" r="0.408"/>
  <circle style="fill:#00AEEF;" cx="30.467" cy="-45.305" r="0.408"/>
  <circle style="fill:#00AEEF;" cx="27.8" cy="-45.722" r="0.408"/>
  <circle style="fill:#00AEEF;" cx="26.217" cy="-44.722" r="0.408"/>
  <circle style="fill:#00AEEF;" cx="28.55" cy="-48.138" r="0.408"/>
  <circle style="fill:#00AEEF;" cx="26.467" cy="-49.638" r="0.408"/>
  <circle style="fill:#00AEEF;" cx="26.217" cy="-52.222" r="0.408"/>
  <circle style="fill:#00AEEF;" cx="25.467" cy="-47.388" r="0.408"/>
  <circle style="fill:#00AEEF;" cx="23.379" cy="-49.384" r="0.408"/>
  <circle style="fill:#00AEEF;" cx="20.55" cy="-48.638" r="0.408"/>
  <circle style="fill:#00AEEF;" cx="18.967" cy="-47.722" r="0.408"/>
  <circle style="fill:#00AEEF;" cx="49.05" cy="-36.722" r="0.408"/>
  <circle style="fill:#00AEEF;" cx="56.3" cy="-25.638" r="0.407"/>
  <circle style="fill:#00AEEF;" cx="54.717" cy="-28.222" r="0.408"/>
  <circle style="fill:#00AEEF;" cx="54.717" cy="-23.388" r="0.408"/>
  <circle style="fill:#00AEEF;" cx="57.634" cy="-22.722" r="0.408"/>
  <circle style="fill:#00AEEF;" cx="58.009" cy="-24.867" r="0.408"/>
  <circle style="fill:#00AEEF;" cx="44.967" cy="-26.388" r="0.408"/>
  <circle style="fill:#00AEEF;" cx="42.884" cy="-25.305" r="0.408"/>
  <circle style="fill:#00AEEF;" cx="46.05" cy="-24.888" r="0.408"/>
  <circle style="fill:#00AEEF;" cx="49.55" cy="-22.471" r="0.408"/>
  <circle style="fill:#00AEEF;" cx="53.55" cy="-21.722" r="0.408"/>
  <circle style="fill:#00AEEF;" cx="52.717" cy="-19.555" r="0.408"/>
  <circle style="fill:#00AEEF;" cx="55.55" cy="-20.388" r="0.407"/>
  <circle style="fill:#00AEEF;" cx="57.55" cy="-20.222" r="0.408"/>
  <circle style="fill:#00AEEF;" cx="56.967" cy="-16.472" r="0.408"/>
  <circle style="fill:#00AEEF;" cx="53.384" cy="-17.305" r="0.408"/>
  <circle style="fill:#00AEEF;" cx="47.717" cy="-17.388" r="0.408"/>
  <circle style="fill:#00AEEF;" cx="49.467" cy="-15.638" r="0.408"/>
  <circle style="fill:#00AEEF;" cx="47.05" cy="-21.055" r="0.408"/>
  <circle style="fill:#00AEEF;" cx="46.717" cy="-23.472" r="0.408"/>
  <circle style="fill:#00AEEF;" cx="44.884" cy="-22.388" r="0.408"/>
  <circle style="fill:#00AEEF;" cx="43.384" cy="-21.221" r="0.408"/>
  <circle style="fill:#00AEEF;" cx="41.3" cy="-22.638" r="0.408"/>
  <circle style="fill:#00AEEF;" cx="39.8" cy="-24.138" r="0.408"/>
  <circle style="fill:#00AEEF;" cx="48.8" cy="-29.722" r="0.408"/>
  <circle style="fill:#00AEEF;" cx="51.467" cy="-37.388" r="0.408"/>
  <circle style="fill:#00AEEF;" cx="46.967" cy="-39.388" r="0.408"/>
  <circle style="fill:#00AEEF;" cx="44.3" cy="-42.222" r="0.408"/>
  <circle style="fill:#00AEEF;" cx="39.8" cy="-42.722" r="0.408"/>
  <circle style="fill:#00AEEF;" cx="42.3" cy="-40.222" r="0.408"/>
  <circle style="fill:#00AEEF;" cx="37.967" cy="-40.722" r="0.408"/>
  <circle style="fill:#00AEEF;" cx="35.8" cy="-41.888" r="0.408"/>
  <circle style="fill:#00AEEF;" cx="37.8" cy="-44.555" r="0.408"/>
  <circle style="fill:#00AEEF;" cx="36.967" cy="-47.555" r="0.408"/>
  <circle style="fill:#00AEEF;" cx="34.967" cy="-45.888" r="0.408"/>
  <circle style="fill:#00AEEF;" cx="41.134" cy="-48.388" r="0.408"/>
  <circle style="fill:#00AEEF;" cx="57.134" cy="-53.888" r="0.408"/>
  <circle style="fill:#00AEEF;" cx="56.8" cy="-55.388" r="0.407"/>
  <circle style="fill:#00AEEF;" cx="53.634" cy="-55.388" r="0.408"/>
  <circle style="fill:#00AEEF;" cx="52.634" cy="-53.555" r="0.408"/>
  <circle style="fill:#00AEEF;" cx="55.134" cy="-52.388" r="0.408"/>
  <circle style="fill:#00AEEF;" cx="54.967" cy="-57.055" r="0.408"/>
  <circle style="fill:#00AEEF;" cx="57.134" cy="-57.722" r="0.408"/>
  <circle style="fill:#00AEEF;" cx="53.3" cy="-57.888" r="0.407"/>
  <circle style="fill:#00AEEF;" cx="50.863" cy="-58.185" r="0.407"/>
  <circle style="fill:#00AEEF;" cx="57.467" cy="-49.888" r="0.408"/>
  <circle style="fill:#00AEEF;" cx="55.467" cy="-48.888" r="0.408"/>
  <circle style="fill:#00AEEF;" cx="53.134" cy="-48.388" r="0.408"/>
  <circle style="fill:#00AEEF;" cx="56.967" cy="-45.388" r="0.408"/>
  <circle style="fill:#00AEEF;" cx="51.009" cy="-47.305" r="0.408"/>
  <circle style="fill:#00AEEF;" cx="50.509" cy="-24.43" r="0.408"/>
  <circle style="fill:#00AEEF;" cx="49.8" cy="-52.722" r="0.408"/>
  <circle style="fill:#00AEEF;" cx="49.134" cy="-50.888" r="0.408"/>
  <circle style="fill:#00AEEF;" cx="45.967" cy="-52.222" r="0.408"/>
  <circle style="fill:#00AEEF;" cx="47.3" cy="-54.388" r="0.408"/>
  <circle style="fill:#00AEEF;" cx="38.884" cy="-57.388" r="0.408"/>
  <circle style="fill:#00AEEF;" cx="43.217" cy="-56.638" r="0.408"/>
  <circle style="fill:#00AEEF;" cx="44.05" cy="-55.055" r="0.408"/>
  <circle style="fill:#00AEEF;" cx="40.717" cy="-54.722" r="0.408"/>
  <circle style="fill:#00AEEF;" cx="41.6" cy="-57.671" r="0.408"/>
  <circle style="fill:#00AEEF;" cx="37.634" cy="-56.305" r="0.408"/>
  <circle style="fill:#00AEEF;" cx="35.717" cy="-56.221" r="0.408"/>
  <circle style="fill:#00AEEF;" cx="36.384" cy="-54.472" r="0.408"/>
  <circle style="fill:#00AEEF;" cx="33.217" cy="-57.305" r="0.408"/>
  <path d="M36.657-58.601c-0.002,0.224-0.185,0.404-0.409,0.404c-0.224,0-0.406-0.18-0.408-0.404" style="fill:#00AEEF;"/>
  <path d="M35.841-1c0.011-0.215,0.189-0.388,0.407-0.388c0.218,0,0.396,0.172,0.408,0.388" style="fill:#00AEEF;"/>
  <circle style="fill:#00AEEF;" cx="6.884" cy="-58.055" r="0.408"/>
  <circle style="fill:#00AEEF;" cx="4.55" cy="-57.222" r="0.408"/>
  <circle style="fill:#00AEEF;" cx="2.55" cy="-55.055" r="0.408"/>
  <circle style="fill:#00AEEF;" cx="7.217" cy="-55.722" r="0.408"/>
  <circle style="fill:#00AEEF;" cx="9.217" cy="-57.722" r="0.408"/>
  <circle style="fill:#00AEEF;" cx="12.467" cy="-58.055" r="0.408"/>
  <circle style="fill:#00AEEF;" cx="15.821" cy="-58.18" r="0.408"/>
  <circle style="fill:#00AEEF;" cx="20.467" cy="-57.638" r="0.408"/>
  <circle style="fill:#00AEEF;" cx="25.217" cy="-54.638" r="0.408"/>
  <circle style="fill:#00AEEF;" cx="21.55" cy="-55.388" r="0.408"/>
  <circle style="fill:#00AEEF;" cx="17.717" cy="-55.722" r="0.408"/>
  <circle style="fill:#00AEEF;" cx="14.634" cy="-55.388" r="0.408"/>
  <circle style="fill:#00AEEF;" cx="11.884" cy="-55.138" r="0.408"/>
  <circle style="fill:#00AEEF;" cx="8.55" cy="-53.721" r="0.408"/>
  <circle style="fill:#00AEEF;" cx="5.3" cy="-53.721" r="0.408"/>
  <circle style="fill:#00AEEF;" cx="7.634" cy="-51.638" r="0.408"/>
  <circle style="fill:#00AEEF;" cx="4.634" cy="-51.388" r="0.408"/>
  <circle style="fill:#00AEEF;" cx="9.05" cy="-49.722" r="0.408"/>
  <circle style="fill:#00AEEF;" cx="11.3" cy="-50.722" r="0.408"/>
  <circle style="fill:#00AEEF;" cx="13.05" cy="-51.638" r="0.408"/>
  <circle style="fill:#00AEEF;" cx="12.634" cy="-48.721" r="0.408"/>
  <circle style="fill:#00AEEF;" cx="10.05" cy="-47.305" r="0.408"/>
  <circle style="fill:#00AEEF;" cx="13.05" cy="-46.388" r="0.408"/>
  <circle style="fill:#00AEEF;" cx="16.467" cy="-47.138" r="0.408"/>
  <circle style="fill:#00AEEF;" cx="11.55" cy="-44.555" r="0.408"/>
  <circle style="fill:#00AEEF;" cx="13.717" cy="-43.805" r="0.408"/>
  <circle style="fill:#00AEEF;" cx="8.05" cy="-45.805" r="0.408"/>
  <circle style="fill:#00AEEF;" cx="7.467" cy="-47.555" r="0.408"/>
  <circle style="fill:#00AEEF;" cx="4.134" cy="-47.222" r="0.408"/>
  <circle style="fill:#00AEEF;" cx="1.634" cy="-46.388" r="0.408"/>
  <circle style="fill:#00AEEF;" cx="2.884" cy="-45.305" r="0.408"/>
  <circle style="fill:#00AEEF;" cx="5.55" cy="-45.222" r="0.408"/>
  <circle style="fill:#00AEEF;" cx="6.634" cy="-44.222" r="0.408"/>
  <circle style="fill:#00AEEF;" cx="7.05" cy="-41.472" r="0.408"/>
  <circle style="fill:#00AEEF;" cx="4.217" cy="-40.722" r="0.408"/>
  <circle style="fill:#00AEEF;" cx="1.638" cy="-38.643" r="0.408"/>
  <circle style="fill:#00AEEF;" cx="5.634" cy="-39.222" r="0.408"/>
  <circle style="fill:#00AEEF;" cx="4.634" cy="-37.222" r="0.408"/>
  <circle style="fill:#00AEEF;" cx="4.967" cy="-35.305" r="0.408"/>
  <circle style="fill:#00AEEF;" cx="8.384" cy="-35.305" r="0.408"/>
  <circle style="fill:#00AEEF;" cx="9.05" cy="-39.388" r="0.408"/>
  <circle style="fill:#00AEEF;" cx="11.217" cy="-38.721" r="0.408"/>
  <circle style="fill:#00AEEF;" cx="10.884" cy="-41.388" r="0.408"/>
  <circle style="fill:#00AEEF;" cx="13.217" cy="-41.972" r="0.408"/>
  <circle style="fill:#00AEEF;" cx="13.3" cy="-39.472" r="0.408"/>
  <circle style="fill:#00AEEF;" cx="14.217" cy="-37.805" r="0.408"/>
  <circle style="fill:#00AEEF;" cx="12.717" cy="-36.305" r="0.408"/>
  <circle style="fill:#00AEEF;" cx="15.134" cy="-35.138" r="0.408"/>
  <circle style="fill:#00AEEF;" cx="17.55" cy="-35.305" r="0.408"/>
  <circle style="fill:#00AEEF;" cx="16.884" cy="-38.222" r="0.408"/>
  <circle style="fill:#00AEEF;" cx="15.55" cy="-45.388" r="0.408"/>
  <circle style="fill:#00AEEF;" cx="7.884" cy="-32.388" r="0.408"/>
  <circle style="fill:#00AEEF;" cx="6.634" cy="-34.388" r="0.408"/>
  <circle style="fill:#00AEEF;" cx="10.8" cy="-33.388" r="0.408"/>
  <circle style="fill:#00AEEF;" cx="11.884" cy="-31.305" r="0.408"/>
  <circle style="fill:#00AEEF;" cx="14.05" cy="-30.388" r="0.408"/>
  <circle style="fill:#00AEEF;" cx="16.134" cy="-31.305" r="0.408"/>
  <circle style="fill:#00AEEF;" cx="14.384" cy="-33.305" r="0.408"/>
  <circle style="fill:#00AEEF;" cx="17.967" cy="-30.805" r="0.408"/>
  <circle style="fill:#00AEEF;" cx="19.467" cy="-35.555" r="0.408"/>
  <circle style="fill:#00AEEF;" cx="21.8" cy="-38.138" r="0.408"/>
  <circle style="fill:#00AEEF;" cx="21.717" cy="-35.722" r="0.408"/>
  <circle style="fill:#00AEEF;" cx="24.55" cy="-35.805" r="0.408"/>
  <circle style="fill:#00AEEF;" cx="23.717" cy="-37.638" r="0.408"/>
  <circle style="fill:#00AEEF;" cx="27.217" cy="-34.638" r="0.408"/>
  <circle style="fill:#00AEEF;" cx="28.884" cy="-35.972" r="0.408"/>
  <circle style="fill:#00AEEF;" cx="32.184" cy="-36.838" r="0.408"/>
  <circle style="fill:#00AEEF;" cx="34.35" cy="-43.338" r="0.408"/>
  <circle style="fill:#00AEEF;" cx="25.6" cy="-42.588" r="0.408"/>
  <circle style="fill:#00AEEF;" cx="21.017" cy="-31.672" r="0.408"/>
  <circle style="fill:#00AEEF;" cx="19.684" cy="-33.338" r="0.408"/>
  <circle style="fill:#00AEEF;" cx="42.017" cy="-42.005" r="0.408"/>
  <circle style="fill:#00AEEF;" cx="38.434" cy="-42.255" r="0.408"/>
  <circle style="fill:#00AEEF;" cx="21.1" cy="-44.755" r="0.408"/>
  <circle style="fill:#00AEEF;" cx="7.6" cy="-37.671" r="0.408"/>
  <circle style="fill:#00AEEF;" cx="1.85" cy="-36.255" r="0.408"/>
  <circle style="fill:#00AEEF;" cx="38.6" cy="-22.171" r="0.408"/>
  <circle style="fill:#00AEEF;" cx="28.967" cy="-40.222" r="0.408"/>
  <circle style="fill:#00AEEF;" cx="28.3" cy="-37.888" r="0.408"/>
  <circle style="fill:#00AEEF;" cx="31.134" cy="-38.805" r="0.408"/>
  <circle style="fill:#00AEEF;" cx="30.634" cy="-34.805" r="0.408"/>
  <circle style="fill:#00AEEF;" cx="33.134" cy="-34.888" r="0.408"/>
  <circle style="fill:#00AEEF;" cx="31.634" cy="-32.138" r="0.408"/>
  <circle style="fill:#00AEEF;" cx="36.8" cy="-32.222" r="0.408"/>
  <circle style="fill:#00AEEF;" cx="35.217" cy="-33.305" r="0.408"/>
  <circle style="fill:#00AEEF;" cx="19.384" cy="-23.305" r="0.408"/>
  <circle style="fill:#00AEEF;" cx="21.05" cy="-21.722" r="0.408"/>
  <circle style="fill:#00AEEF;" cx="18.55" cy="-21.305" r="0.408"/>
  <circle style="fill:#00AEEF;" cx="16.384" cy="-24.638" r="0.408"/>
  <circle style="fill:#00AEEF;" cx="19.55" cy="-18.555" r="0.408"/>
  <circle style="fill:#00AEEF;" cx="22.05" cy="-18.972" r="0.408"/>
  <circle style="fill:#00AEEF;" cx="22.884" cy="-17.805" r="0.408"/>
  <circle style="fill:#00AEEF;" cx="23.634" cy="-15.388" r="0.408"/>
  <circle style="fill:#00AEEF;" cx="26.05" cy="-16.138" r="0.408"/>
  <circle style="fill:#00AEEF;" cx="26.967" cy="-14.222" r="0.408"/>
  <circle style="fill:#00AEEF;" cx="25.384" cy="-13.388" r="0.408"/>
  <circle style="fill:#00AEEF;" cx="17.55" cy="-14.222" r="0.408"/>
  <circle style="fill:#00AEEF;" cx="20.967" cy="-9.888" r="0.408"/>
  <circle style="fill:#00AEEF;" cx="19.55" cy="-8.138" r="0.408"/>
  <circle style="fill:#00AEEF;" cx="22.634" cy="-7.305" r="0.408"/>
  <circle style="fill:#00AEEF;" cx="24.634" cy="-9.222" r="0.408"/>
  <circle style="fill:#00AEEF;" cx="28.467" cy="-8.555" r="0.408"/>
  <circle style="fill:#00AEEF;" cx="27.134" cy="-6.388" r="0.408"/>
  <circle style="fill:#00AEEF;" cx="29.384" cy="-5.305" r="0.408"/>
  <circle style="fill:#00AEEF;" cx="32.717" cy="-4.305" r="0.408"/>
  <circle style="fill:#00AEEF;" cx="33.8" cy="-2.972" r="0.408"/>
  <circle style="fill:#00AEEF;" cx="30.467" cy="-2.388" r="0.408"/>
  <circle style="fill:#00AEEF;" cx="33.384" cy="-8.138" r="0.408"/>
  <circle style="fill:#00AEEF;" cx="36.8" cy="-9.388" r="0.408"/>
  <circle style="fill:#00AEEF;" cx="39.717" cy="-7.555" r="0.408"/>
  <circle style="fill:#00AEEF;" cx="37.717" cy="-6.388" r="0.408"/>
  <circle style="fill:#00AEEF;" cx="35.467" cy="-8.222" r="0.408"/>
  <circle style="fill:#00AEEF;" cx="35.384" cy="-5.222" r="0.408"/>
  <circle style="fill:#00AEEF;" cx="16.884" cy="-7.388" r="0.408"/>
  <circle style="fill:#00AEEF;" cx="15.134" cy="-7.305" r="0.408"/>
  <circle style="fill:#00AEEF;" cx="10.634" cy="-10.055" r="0.408"/>
  <circle style="fill:#00AEEF;" cx="7.55" cy="-11.555" r="0.408"/>
  <circle style="fill:#00AEEF;" cx="5.884" cy="-13.721" r="0.408"/>
  <circle style="fill:#00AEEF;" cx="4.634" cy="-16.221" r="0.408"/>
  <circle style="fill:#00AEEF;" cx="4.217" cy="-19.472" r="0.408"/>
  <circle style="fill:#00AEEF;" cx="7.467" cy="-24.472" r="0.408"/>
  <circle style="fill:#00AEEF;" cx="3.05" cy="-13.972" r="0.408"/>
  <circle style="fill:#00AEEF;" cx="2.3" cy="-9.888" r="0.408"/>
  <circle style="fill:#00AEEF;" cx="4.467" cy="-11.305" r="0.408"/>
  <circle style="fill:#00AEEF;" cx="5.634" cy="-10.388" r="0.408"/>
  <circle style="fill:#00AEEF;" cx="7.467" cy="-8.555" r="0.408"/>
  <circle style="fill:#00AEEF;" cx="4.134" cy="-7.638" r="0.408"/>
  <circle style="fill:#00AEEF;" cx="5.967" cy="-6.722" r="0.408"/>
  <circle style="fill:#00AEEF;" cx="4.717" cy="-5.555" r="0.408"/>
  <circle style="fill:#00AEEF;" cx="2.467" cy="-3.472" r="0.408"/>
  <circle style="fill:#00AEEF;" cx="4.55" cy="-1.555" r="0.408"/>
  <circle style="fill:#00AEEF;" cx="10.634" cy="-3.222" r="0.408"/>
  <circle style="fill:#00AEEF;" cx="10.634" cy="-6.388" r="0.408"/>
  <circle style="fill:#00AEEF;" cx="7.3" cy="-3.138" r="0.408"/>
  <circle style="fill:#00AEEF;" cx="17.134" cy="-2.222" r="0.408"/>
  <circle style="fill:#00AEEF;" cx="13.467" cy="-2.388" r="0.408"/>
  <circle style="fill:#00AEEF;" cx="12.384" cy="-5.638" r="0.408"/>
  <circle style="fill:#00AEEF;" cx="16.55" cy="-5.222" r="0.408"/>
  <circle style="fill:#00AEEF;" cx="20.217" cy="-2.638" r="0.408"/>
  <circle style="fill:#00AEEF;" cx="16.8" cy="-19.055" r="0.408"/>
  <circle style="fill:#00AEEF;" cx="25.55" cy="-3.222" r="0.408"/>
  <circle style="fill:#00AEEF;" cx="23.884" cy="-1.559" r="0.408"/>
  <circle style="fill:#00AEEF;" cx="21.384" cy="-4.805" r="0.408"/>
  <circle style="fill:#00AEEF;" cx="20.467" cy="-6.388" r="0.408"/>
  <circle style="fill:#00AEEF;" cx="24.967" cy="-4.722" r="0.408"/>
  <circle style="fill:#00AEEF;" cx="25.3" cy="-7.471" r="0.408"/>
  <circle style="fill:#00AEEF;" cx="27.55" cy="-3.305" r="0.408"/>
  <circle style="fill:#00AEEF;" cx="28.717" cy="-1.472" r="0.408"/>
  <circle style="fill:#00AEEF;" cx="14.55" cy="-9.305" r="0.408"/>
  <circle style="fill:#00AEEF;" cx="15.462" cy="-12.3" r="0.408"/>
  <circle style="fill:#00AEEF;" cx="2.767" cy="-6.171" r="0.408"/>
  <circle style="fill:#00AEEF;" cx="11.934" cy="-13.671" r="0.408"/>
  <circle style="fill:#00AEEF;" cx="24.85" cy="-25.755" r="0.408"/>
  <circle style="fill:#00AEEF;" cx="15.017" cy="-25.255" r="0.408"/>
  <circle style="fill:#00AEEF;" cx="57.184" cy="-31.171" r="0.408"/>
  <circle style="fill:#00AEEF;" cx="52.851" cy="-32.088" r="0.408"/>
  <circle style="fill:#00AEEF;" cx="31.684" cy="-15.255" r="0.408"/>
  <circle style="fill:#00AEEF;" cx="12.55" cy="-12.305" r="0.408"/>
  <circle style="fill:#00AEEF;" cx="12.467" cy="-17.471" r="0.408"/>
  <circle style="fill:#00AEEF;" cx="11.717" cy="-21.305" r="0.408"/>
  <circle style="fill:#00AEEF;" cx="10.634" cy="-19.388" r="0.408"/>
  <circle style="fill:#00AEEF;" cx="9.8" cy="-17.388" r="0.408"/>
  <circle style="fill:#00AEEF;" cx="10.55" cy="-14.472" r="0.408"/>
  <circle style="fill:#00AEEF;" cx="7.8" cy="-14.222" r="0.408"/>
  <circle style="fill:#00AEEF;" cx="7.3" cy="-17.388" r="0.408"/>
  <circle style="fill:#00AEEF;" cx="6.967" cy="-20.138" r="0.408"/>
  <circle style="fill:#00AEEF;" cx="8.8" cy="-20.722" r="0.408"/>
  <circle style="fill:#00AEEF;" cx="8.634" cy="-23.055" r="0.408"/>
  <circle style="fill:#00AEEF;" cx="27.55" cy="-11.888" r="0.408"/>
  <circle style="fill:#00AEEF;" cx="33.634" cy="-10.222" r="0.408"/>
  <circle style="fill:#00AEEF;" cx="35.55" cy="-11.472" r="0.408"/>
  <circle style="fill:#00AEEF;" cx="39.467" cy="-10.555" r="0.408"/>
  <circle style="fill:#00AEEF;" cx="39.634" cy="-13.222" r="0.408"/>
  <circle style="fill:#00AEEF;" cx="30.55" cy="-29.638" r="0.408"/>
  <circle style="fill:#00AEEF;" cx="28.8" cy="-28.472" r="0.408"/>
  <circle style="fill:#00AEEF;" cx="24.634" cy="-29.472" r="0.408"/>
  <circle style="fill:#00AEEF;" cx="24.134" cy="-31.722" r="0.408"/>
  <circle style="fill:#00AEEF;" cx="39.3" cy="-30.472" r="0.408"/>
  <circle style="fill:#00AEEF;" cx="42.217" cy="-30.472" r="0.408"/>
  <circle style="fill:#00AEEF;" cx="43.467" cy="-28.638" r="0.408"/>
  <circle style="fill:#00AEEF;" cx="38.384" cy="-28.555" r="0.408"/>
  <circle style="fill:#00AEEF;" cx="33.467" cy="-28.388" r="0.408"/>
  <circle style="fill:#00AEEF;" cx="32.134" cy="-27.055" r="0.408"/>
  <circle style="fill:#00AEEF;" cx="35.634" cy="-26.388" r="0.408"/>
  <circle style="fill:#00AEEF;" cx="31.55" cy="-24.888" r="0.408"/>
  <circle style="fill:#00AEEF;" cx="28.467" cy="-25.472" r="0.408"/>
  <circle style="fill:#00AEEF;" cx="26.134" cy="-27.222" r="0.408"/>
  <circle style="fill:#00AEEF;" cx="21.717" cy="-27.305" r="0.408"/>
  <circle style="fill:#00AEEF;" cx="22.967" cy="-23.472" r="0.408"/>
  <circle style="fill:#00AEEF;" cx="19.717" cy="-25.472" r="0.408"/>
  <circle style="fill:#00AEEF;" cx="18.3" cy="-28.222" r="0.408"/>
  <circle style="fill:#00AEEF;" cx="16.05" cy="-28.638" r="0.408"/>
  <circle style="fill:#00AEEF;" cx="15.384" cy="-27.138" r="0.408"/>
  <circle style="fill:#00AEEF;" cx="11.634" cy="-28.638" r="0.408"/>
  <circle style="fill:#00AEEF;" cx="9.384" cy="-30.722" r="0.408"/>
  <circle style="fill:#00AEEF;" cx="7.634" cy="-28.888" r="0.408"/>
  <circle style="fill:#00AEEF;" cx="9.634" cy="-28.388" r="0.408"/>
  <circle style="fill:#00AEEF;" cx="10.634" cy="-25.888" r="0.408"/>
  <circle style="fill:#00AEEF;" cx="13.05" cy="-26.555" r="0.408"/>
  <circle style="fill:#00AEEF;" cx="1.638" cy="-30.476" r="0.408"/>
  <circle style="fill:#00AEEF;" cx="2.8" cy="-29.305" r="0.408"/>
  <circle style="fill:#00AEEF;" cx="4.634" cy="-32.638" r="0.408"/>
  <circle style="fill:#00AEEF;" cx="2.967" cy="-34.555" r="0.408"/>
  <circle style="fill:#00AEEF;" cx="1.55" cy="-19.388" r="0.408"/>
  <circle style="fill:#00AEEF;" cx="5.55" cy="-31.055" r="0.408"/>
  <circle style="fill:#00AEEF;" cx="9.467" cy="-36.722" r="0.408"/>
  <circle style="fill:#00AEEF;" cx="17.967" cy="-32.722" r="0.408"/>
  <circle style="fill:#00AEEF;" cx="45.967" cy="-55.722" r="0.408"/>
  <circle style="fill:#00AEEF;" cx="32.8" cy="-30.722" r="0.408"/>
  <circle style="fill:#00AEEF;" cx="11.3" cy="-8.555" r="0.408"/>
  <circle style="fill:#00AEEF;" cx="46.967" cy="-5.055" r="0.408"/>
  <circle style="fill:#00AEEF;" cx="12.8" cy="-23.305" r="0.408"/>
  <circle style="fill:#00AEEF;" cx="6.717" cy="-26.722" r="0.408"/>
  <circle style="fill:#00AEEF;" cx="5.467" cy="-28.305" r="0.408"/>
  <circle style="fill:#00AEEF;" cx="5.55" cy="-25.388" r="0.408"/>
  <circle style="fill:#00AEEF;" cx="2.717" cy="-25.472" r="0.408"/>
  <circle style="fill:#00AEEF;" cx="2.3" cy="-23.138" r="0.408"/>
  <circle style="fill:#00AEEF;" cx="24.384" cy="-39.305" r="0.408"/>
  <circle style="fill:#00AEEF;" cx="26.55" cy="-40.555" r="0.408"/>
  <circle style="fill:#00AEEF;" cx="2.55" cy="-42.388" r="0.408"/>
  <circle style="fill:#00AEEF;" cx="17.3" cy="-42.555" r="0.408"/>
  <circle style="fill:#00AEEF;" cx="22.55" cy="-43.305" r="0.408"/>
  <circle style="fill:#00AEEF;" cx="24.134" cy="-44.722" r="0.408"/>
  <circle style="fill:#00AEEF;" cx="27.55" cy="-42.305" r="0.408"/>
  <circle style="fill:#00AEEF;" cx="31.05" cy="-42.638" r="0.408"/>
  <circle style="fill:#00AEEF;" cx="22.467" cy="-41.472" r="0.408"/>
  <circle style="fill:#00AEEF;" cx="19.634" cy="-42.555" r="0.408"/>
  <circle style="fill:#00AEEF;" cx="18.55" cy="-41.305" r="0.408"/>
  <circle style="fill:#00AEEF;" cx="15.467" cy="-40.305" r="0.408"/>
  <circle style="fill:#00AEEF;" cx="17.634" cy="-53.388" r="0.408"/>
  <circle style="fill:#00AEEF;" cx="19.8" cy="-53.305" r="0.408"/>
  <circle style="fill:#00AEEF;" cx="20.55" cy="-51.555" r="0.408"/>
  <circle style="fill:#00AEEF;" cx="18.634" cy="-49.638" r="0.408"/>
  <circle style="fill:#00AEEF;" cx="25.467" cy="-57.305" r="0.408"/>
  <circle style="fill:#00AEEF;" cx="28.634" cy="-54.388" r="0.408"/>
  <circle style="fill:#00AEEF;" cx="31.05" cy="-53.972" r="0.408"/>
  <circle style="fill:#00AEEF;" cx="32.634" cy="-54.722" r="0.408"/>
  <circle style="fill:#00AEEF;" cx="33.717" cy="-52.805" r="0.408"/>
  <circle style="fill:#00AEEF;" cx="32.55" cy="-50.388" r="0.408"/>
  <circle style="fill:#00AEEF;" cx="35.717" cy="-50.472" r="0.408"/>
  <circle style="fill:#00AEEF;" cx="34.634" cy="-48.388" r="0.408"/>
  <circle style="fill:#00AEEF;" cx="32.384" cy="-46.388" r="0.408"/>
  <circle style="fill:#00AEEF;" cx="29.717" cy="-49.222" r="0.408"/>
  <circle style="fill:#00AEEF;" cx="41.3" cy="-52.722" r="0.408"/>
  <circle style="fill:#00AEEF;" cx="42.8" cy="-50.222" r="0.408"/>
  <circle style="fill:#00AEEF;" cx="48.967" cy="-54.971" r="0.408"/>
  <circle style="fill:#00AEEF;" cx="58.134" cy="-47.18" r="0.408"/>
  <circle style="fill:#00AEEF;" cx="38.967" cy="-53.305" r="0.408"/>
  <circle style="fill:#00AEEF;" cx="36.8" cy="-52.638" r="0.408"/>
 </g>
</svg>
