<?xml version="1.0"?>
<!-- Converted with SVG Converter - Version 0.9.5 (Compiled Fri Feb 21 09:53:38 2020) - Copyright (C) 2011 Nokia -->
<svg xmlns="http://www.w3.org/2000/svg" y="0px" baseProfile="tiny" x="0px" viewBox="0 -57.601 57.6 57.601" xmlns:xlink="http://www.w3.org/1999/xlink" xml:space="preserve" height="57.601" width="57.6" version="1.1">
 <g>
  <rect y="-57.601" x="0" style="fill:none;" height="57.601" width="57.6"/>
  <circle cy="-55.238" cx="53.987" r="0.884" style="fill-rule:evenodd;clip-rule:evenodd;fill:#ED1B2E;"/>
  <circle cy="-55.051" cx="48.425" r="0.884" style="fill-rule:evenodd;clip-rule:evenodd;fill:#ED1B2E;"/>
  <path style="fill-rule:evenodd;clip-rule:evenodd;fill:#ED1B2E;" d="M45.641-57.601c-0.01,0.481-0.401,0.866-0.883,0.866    c-0.481,0-0.874-0.386-0.883-0.866"/>
  <path style="fill-rule:evenodd;clip-rule:evenodd;fill:#ED1B2E;" d="M50.089-57.601c0,0.012-0.001,0.024-0.001,0.035    c0,0.488,0.397,0.884,0.884,0.884c0.488,0,0.884-0.396,0.884-0.884c0-0.012,0-0.024-0.001-0.035"/>
  <path style="fill-rule:evenodd;clip-rule:evenodd;fill:#ED1B2E;" d="M50.07,0c0.025-0.465,0.412-0.835,0.882-0.835    c0.472,0,0.857,0.37,0.882,0.835"/>
  <path style="fill-rule:evenodd;clip-rule:evenodd;fill:#ED1B2E;" d="M57.6-17.96c-0.007,0-0.015,0-0.023,0    c-0.487,0-0.884,0.395-0.884,0.884s0.396,0.884,0.884,0.884c0.007,0,0.015,0,0.023,0"/>
  <path style="fill-rule:evenodd;clip-rule:evenodd;fill:#ED1B2E;" d="M57.6-8.023c-0.007,0-0.015,0-0.023,0    c-0.487,0-0.884,0.396-0.884,0.884s0.396,0.884,0.884,0.884c0.007,0,0.015,0,0.023,0"/>
  <path style="fill-rule:evenodd;clip-rule:evenodd;fill:#ED1B2E;" d="M57.6-0.008v-0.827c-0.007,0-0.015,0-0.023,0    c-0.471,0-0.857,0.37-0.882,0.835H57.6"/>
  <path style="fill-rule:evenodd;clip-rule:evenodd;fill:#ED1B2E;" d="M57.6-57.571v0.827c-0.007,0-0.015,0-0.023,0    c-0.471,0-0.857-0.37-0.882-0.835H57.6"/>
  <path style="fill-rule:evenodd;clip-rule:evenodd;fill:#ED1B2E;" d="M35.148,0c0-0.005,0-0.009,0-0.014    c0-0.488-0.396-0.884-0.884-0.884c-0.487,0-0.884,0.396-0.884,0.884c0,0.005,0,0.009,0,0.014"/>
  <path style="fill-rule:evenodd;clip-rule:evenodd;fill:#ED1B2E;" d="M40.197,0c0-0.006,0-0.012,0-0.018    c0-0.488-0.396-0.884-0.884-0.884c-0.487,0-0.884,0.396-0.884,0.884c0,0.006,0,0.012,0,0.018"/>
  <path style="fill-rule:evenodd;clip-rule:evenodd;fill:#ED1B2E;" d="M45.648,0c0-0.005,0-0.009,0-0.014    c0-0.488-0.396-0.884-0.884-0.884c-0.487,0-0.884,0.396-0.884,0.884c0,0.005,0,0.009,0,0.014"/>
  <circle cy="-54.068" cx="44.809" r="0.884" style="fill-rule:evenodd;clip-rule:evenodd;fill:#ED1B2E;"/>
  <path style="fill-rule:evenodd;clip-rule:evenodd;fill:#ED1B2E;" d="M40.254-57.601c-0.016,0.475-0.405,0.854-0.883,0.854    c-0.477,0-0.867-0.379-0.883-0.854"/>
  <circle cy="-53.801" cx="40.925" r="0.884" style="fill-rule:evenodd;clip-rule:evenodd;fill:#ED1B2E;"/>
  <circle cy="-54.051" cx="36.675" r="0.884" style="fill-rule:evenodd;clip-rule:evenodd;fill:#ED1B2E;"/>
  <path style="fill-rule:evenodd;clip-rule:evenodd;fill:#ED1B2E;" d="M35.183-57.601c-0.007,0.482-0.399,0.872-0.883,0.872    c-0.483,0-0.876-0.39-0.883-0.872"/>
  <circle cy="-53.301" cx="33.05" r="0.884" style="fill-rule:evenodd;clip-rule:evenodd;fill:#ED1B2E;"/>
  <circle cy="-53.301" cx="28.925" r="0.884" style="fill-rule:evenodd;clip-rule:evenodd;fill:#ED1B2E;"/>
  <circle cy="-56.426" cx="27.05" r="0.884" style="fill-rule:evenodd;clip-rule:evenodd;fill:#ED1B2E;"/>
  <circle cy="-56.426" cx="22.925" r="0.884" style="fill-rule:evenodd;clip-rule:evenodd;fill:#ED1B2E;"/>
  <circle cy="-53.06" cx="25.05" r="0.884" style="fill-rule:evenodd;clip-rule:evenodd;fill:#ED1B2E;"/>
  <circle cy="-49.926" cx="27.175" r="0.884" style="fill-rule:evenodd;clip-rule:evenodd;fill:#ED1B2E;"/>
  <circle cy="-50.176" cx="31.05" r="0.884" style="fill-rule:evenodd;clip-rule:evenodd;fill:#ED1B2E;"/>
  <circle cy="-50.676" cx="35.175" r="0.884" style="fill-rule:evenodd;clip-rule:evenodd;fill:#ED1B2E;"/>
  <circle cy="-50.426" cx="39.425" r="0.884" style="fill-rule:evenodd;clip-rule:evenodd;fill:#ED1B2E;"/>
  <circle cy="-50.676" cx="43.925" r="0.884" style="fill-rule:evenodd;clip-rule:evenodd;fill:#ED1B2E;"/>
  <circle cy="-51.488" cx="47.737" r="0.884" style="fill-rule:evenodd;clip-rule:evenodd;fill:#ED1B2E;"/>
  <circle cy="-52.488" cx="51.05" r="0.884" style="fill-rule:evenodd;clip-rule:evenodd;fill:#ED1B2E;"/>
  <circle cy="-51.568" cx="54.559" r="0.884" style="fill-rule:evenodd;clip-rule:evenodd;fill:#ED1B2E;"/>
  <circle cy="-48.56" cx="53.362" r="0.884" style="fill-rule:evenodd;clip-rule:evenodd;fill:#ED1B2E;"/>
  <path style="fill-rule:evenodd;clip-rule:evenodd;fill:#ED1B2E;" d="M57.6-54.564c-0.452,0.038-0.809,0.418-0.809,0.88    c0,0.463,0.356,0.843,0.809,0.881"/>
  <path style="fill-rule:evenodd;clip-rule:evenodd;fill:#ED1B2E;" d="M57.6-49.38c-0.481,0.007-0.871,0.399-0.871,0.883    c0,0.484,0.39,0.877,0.871,0.884"/>
  <circle cy="-44.693" cx="55.309" r="0.884" style="fill-rule:evenodd;clip-rule:evenodd;fill:#ED1B2E;"/>
  <path style="fill-rule:evenodd;clip-rule:evenodd;fill:#ED1B2E;" d="M57.6-42.772c-0.009,0-0.019-0.001-0.028-0.001    c-0.487,0-0.884,0.396-0.884,0.884c0,0.488,0.396,0.884,0.884,0.884c0.01,0,0.019-0.001,0.028-0.001"/>
  <circle cy="-45.426" cx="51.229" r="0.884" style="fill-rule:evenodd;clip-rule:evenodd;fill:#ED1B2E;"/>
  <circle cy="-41.872" cx="52.862" r="0.884" style="fill-rule:evenodd;clip-rule:evenodd;fill:#ED1B2E;"/>
  <circle cy="-39.068" cx="54.934" r="0.884" style="fill-rule:evenodd;clip-rule:evenodd;fill:#ED1B2E;"/>
  <circle cy="-35.31" cx="56.05" r="0.884" style="fill-rule:evenodd;clip-rule:evenodd;fill:#ED1B2E;"/>
  <circle cy="-31.318" cx="54.121" r="0.884" style="fill-rule:evenodd;clip-rule:evenodd;fill:#ED1B2E;"/>
  <circle cy="-28.663" cx="56.133" r="0.884" style="fill-rule:evenodd;clip-rule:evenodd;fill:#ED1B2E;"/>
  <circle cy="-34.56" cx="52.55" r="0.884" style="fill-rule:evenodd;clip-rule:evenodd;fill:#ED1B2E;"/>
  <circle cy="-37.497" cx="51.3" r="0.884" style="fill-rule:evenodd;clip-rule:evenodd;fill:#ED1B2E;"/>
  <circle cy="-41.247" cx="49.612" r="0.884" style="fill-rule:evenodd;clip-rule:evenodd;fill:#ED1B2E;"/>
  <circle cy="-40.935" cx="45.8" r="0.884" style="fill-rule:evenodd;clip-rule:evenodd;fill:#ED1B2E;"/>
  <circle cy="-37.56" cx="47.8" r="0.884" style="fill-rule:evenodd;clip-rule:evenodd;fill:#ED1B2E;"/>
  <circle cy="-33.81" cx="48.925" r="0.884" style="fill-rule:evenodd;clip-rule:evenodd;fill:#ED1B2E;"/>
  <circle cy="-30.286" cx="51.036" r="0.884" style="fill-rule:evenodd;clip-rule:evenodd;fill:#ED1B2E;"/>
  <circle cy="-27.15" cx="52.642" r="0.884" style="fill-rule:evenodd;clip-rule:evenodd;fill:#ED1B2E;"/>
  <circle cy="-24.31" cx="55.8" r="0.884" style="fill-rule:evenodd;clip-rule:evenodd;fill:#ED1B2E;"/>
  <circle cy="-23.497" cx="52.362" r="0.884" style="fill-rule:evenodd;clip-rule:evenodd;fill:#ED1B2E;"/>
  <circle cy="-25.927" cx="48.476" r="0.884" style="fill-rule:evenodd;clip-rule:evenodd;fill:#ED1B2E;"/>
  <circle cy="-29.46" cx="47.74" r="0.884" style="fill-rule:evenodd;clip-rule:evenodd;fill:#ED1B2E;"/>
  <circle cy="-32.224" cx="44.871" r="0.884" style="fill-rule:evenodd;clip-rule:evenodd;fill:#ED1B2E;"/>
  <circle cy="-29.278" cx="44.282" r="0.884" style="fill-rule:evenodd;clip-rule:evenodd;fill:#ED1B2E;"/>
  <circle cy="-34.994" cx="45.146" r="0.884" style="fill-rule:evenodd;clip-rule:evenodd;fill:#ED1B2E;"/>
  <circle cy="-38.185" cx="43.425" r="0.884" style="fill-rule:evenodd;clip-rule:evenodd;fill:#ED1B2E;"/>
  <circle cy="-41.06" cx="41.3" r="0.884" style="fill-rule:evenodd;clip-rule:evenodd;fill:#ED1B2E;"/>
  <circle cy="-38.185" cx="39.175" r="0.884" style="fill-rule:evenodd;clip-rule:evenodd;fill:#ED1B2E;"/>
  <circle cy="-40.56" cx="36.8" r="0.884" style="fill-rule:evenodd;clip-rule:evenodd;fill:#ED1B2E;"/>
  <circle cy="-34.81" cx="41.425" r="0.884" style="fill-rule:evenodd;clip-rule:evenodd;fill:#ED1B2E;"/>
  <circle cy="-30.912" cx="40.762" r="0.884" style="fill-rule:evenodd;clip-rule:evenodd;fill:#ED1B2E;"/>
  <circle cy="-26.039" cx="44.524" r="0.884" style="fill-rule:evenodd;clip-rule:evenodd;fill:#ED1B2E;"/>
  <circle cy="-22.618" cx="48.657" r="0.884" style="fill-rule:evenodd;clip-rule:evenodd;fill:#ED1B2E;"/>
  <circle cy="-20.568" cx="56.309" r="0.884" style="fill-rule:evenodd;clip-rule:evenodd;fill:#ED1B2E;"/>
  <circle cy="-16.468" cx="53.642" r="0.884" style="fill-rule:evenodd;clip-rule:evenodd;fill:#ED1B2E;"/>
  <path style="fill-rule:evenodd;clip-rule:evenodd;fill:#ED1B2E;" d="M0-16.224c0.016,0.001,0.032,0.001,0.048,0.001    c0.488,0,0.884-0.396,0.884-0.884c0-0.487-0.396-0.884-0.884-0.884c-0.016,0-0.032,0.001-0.048,0.002"/>
  <circle cy="-13.727" cx="55.838" r="0.884" style="fill-rule:evenodd;clip-rule:evenodd;fill:#ED1B2E;"/>
  <circle cy="-44.81" cx="47.487" r="0.884" style="fill-rule:evenodd;clip-rule:evenodd;fill:#ED1B2E;"/>
  <circle cy="-47.426" cx="45.291" r="0.884" style="fill-rule:evenodd;clip-rule:evenodd;fill:#ED1B2E;"/>
  <circle cy="-48.426" cx="49.041" r="0.884" style="fill-rule:evenodd;clip-rule:evenodd;fill:#ED1B2E;"/>
  <circle cy="-44.551" cx="43.166" r="0.884" style="fill-rule:evenodd;clip-rule:evenodd;fill:#ED1B2E;"/>
  <circle cy="-47.801" cx="41.291" r="0.884" style="fill-rule:evenodd;clip-rule:evenodd;fill:#ED1B2E;"/>
  <circle cy="-47.301" cx="37.416" r="0.884" style="fill-rule:evenodd;clip-rule:evenodd;fill:#ED1B2E;"/>
  <circle cy="-44.426" cx="39.291" r="0.884" style="fill-rule:evenodd;clip-rule:evenodd;fill:#ED1B2E;"/>
  <circle cy="-43.926" cx="35.541" r="0.884" style="fill-rule:evenodd;clip-rule:evenodd;fill:#ED1B2E;"/>
  <circle cy="-47.301" cx="33.791" r="0.884" style="fill-rule:evenodd;clip-rule:evenodd;fill:#ED1B2E;"/>
  <circle cy="-47.176" cx="29.541" r="0.884" style="fill-rule:evenodd;clip-rule:evenodd;fill:#ED1B2E;"/>
  <circle cy="-43.551" cx="31.541" r="0.884" style="fill-rule:evenodd;clip-rule:evenodd;fill:#ED1B2E;"/>
  <circle cy="-43.051" cx="27.916" r="0.884" style="fill-rule:evenodd;clip-rule:evenodd;fill:#ED1B2E;"/>
  <circle cy="-39.968" cx="29.366" r="0.884" style="fill:#ED1B2E;"/>
  <circle cy="-40.06" cx="33.175" r="0.884" style="fill-rule:evenodd;clip-rule:evenodd;fill:#ED1B2E;"/>
  <circle cy="-36.56" cx="35.175" r="0.884" style="fill-rule:evenodd;clip-rule:evenodd;fill:#ED1B2E;"/>
  <circle cy="-34.847" cx="37.896" r="0.884" style="fill-rule:evenodd;clip-rule:evenodd;fill:#ED1B2E;"/>
  <circle cy="-31.386" cx="36.958" r="0.884" style="fill-rule:evenodd;clip-rule:evenodd;fill:#ED1B2E;"/>
  <circle cy="-33.401" cx="33.458" r="0.884" style="fill-rule:evenodd;clip-rule:evenodd;fill:#ED1B2E;"/>
  <circle cy="-36.801" cx="31.3" r="0.884" style="fill-rule:evenodd;clip-rule:evenodd;fill:#ED1B2E;"/>
  <circle cy="-33.363" cx="29.612" r="0.884" style="fill-rule:evenodd;clip-rule:evenodd;fill:#ED1B2E;"/>
  <circle cy="-36.363" cx="27.179" r="0.884" style="fill-rule:evenodd;clip-rule:evenodd;fill:#ED1B2E;"/>
  <circle cy="-39.488" cx="25.366" r="0.884" style="fill-rule:evenodd;clip-rule:evenodd;fill:#ED1B2E;"/>
  <circle cy="-42.551" cx="23.929" r="0.884" style="fill-rule:evenodd;clip-rule:evenodd;fill:#ED1B2E;"/>
  <circle cy="-45.926" cx="22.083" r="0.884" style="fill-rule:evenodd;clip-rule:evenodd;fill:#ED1B2E;"/>
  <circle cy="-48.426" cx="18.987" r="0.884" style="fill-rule:evenodd;clip-rule:evenodd;fill:#ED1B2E;"/>
  <circle cy="-51.926" cx="17.3" r="0.884" style="fill-rule:evenodd;clip-rule:evenodd;fill:#ED1B2E;"/>
  <circle cy="-54.363" cx="15.487" r="0.884" style="fill-rule:evenodd;clip-rule:evenodd;fill:#ED1B2E;"/>
  <circle cy="-56.426" cx="13.425" r="0.884" style="fill-rule:evenodd;clip-rule:evenodd;fill:#ED1B2E;"/>
  <circle cy="-54.131" cx="10.621" r="0.884" style="fill-rule:evenodd;clip-rule:evenodd;fill:#ED1B2E;"/>
  <path style="fill-rule:evenodd;clip-rule:evenodd;fill:#ED1B2E;" d="M9.734-57.601c-0.009,0.481-0.401,0.866-0.883,0.866    c-0.482,0-0.874-0.386-0.883-0.866"/>
  <circle cy="-51.926" cx="12.916" r="0.884" style="fill-rule:evenodd;clip-rule:evenodd;fill:#ED1B2E;"/>
  <circle cy="-48.801" cx="14.541" r="0.884" style="fill-rule:evenodd;clip-rule:evenodd;fill:#ED1B2E;"/>
  <circle cy="-45.391" cx="18.107" r="0.884" style="fill-rule:evenodd;clip-rule:evenodd;fill:#ED1B2E;"/>
  <circle cy="-42.301" cx="19.541" r="0.884" style="fill-rule:evenodd;clip-rule:evenodd;fill:#ED1B2E;"/>
  <circle cy="-39.551" cx="21.416" r="0.884" style="fill-rule:evenodd;clip-rule:evenodd;fill:#ED1B2E;"/>
  <circle cy="-36.551" cx="22.791" r="0.884" style="fill-rule:evenodd;clip-rule:evenodd;fill:#ED1B2E;"/>
  <circle cy="-33.426" cx="24.791" r="0.884" style="fill-rule:evenodd;clip-rule:evenodd;fill:#ED1B2E;"/>
  <circle cy="-33.051" cx="20.675" r="0.884" style="fill-rule:evenodd;clip-rule:evenodd;fill:#ED1B2E;"/>
  <circle cy="-32.676" cx="17.3" r="0.884" style="fill-rule:evenodd;clip-rule:evenodd;fill:#ED1B2E;"/>
  <circle cy="-33.266" cx="12.983" r="0.884" style="fill-rule:evenodd;clip-rule:evenodd;fill:#ED1B2E;"/>
  <circle cy="-30.801" cx="10.675" r="0.884" style="fill-rule:evenodd;clip-rule:evenodd;fill:#ED1B2E;"/>
  <circle cy="-33.398" cx="7.747" r="0.884" style="fill-rule:evenodd;clip-rule:evenodd;fill:#ED1B2E;"/>
  <circle cy="-34.869" cx="3.581" r="0.884" style="fill-rule:evenodd;clip-rule:evenodd;fill:#ED1B2E;"/>
  <circle cy="-35.492" cx="9.667" r="0.884" style="fill-rule:evenodd;clip-rule:evenodd;fill:#ED1B2E;"/>
  <circle cy="-32.452" cx="1.049" r="0.884" style="fill-rule:evenodd;clip-rule:evenodd;fill:#ED1B2E;"/>
  <circle cy="-37.811" cx="1.498" r="0.884" style="fill-rule:evenodd;clip-rule:evenodd;fill:#ED1B2E;"/>
  <circle cy="-40.926" cx="3.987" r="0.884" style="fill-rule:evenodd;clip-rule:evenodd;fill:#ED1B2E;"/>
  <circle cy="-37.426" cx="6.05" r="0.884" style="fill-rule:evenodd;clip-rule:evenodd;fill:#ED1B2E;"/>
  <circle cy="-37.959" cx="11.383" r="0.884" style="fill-rule:evenodd;clip-rule:evenodd;fill:#ED1B2E;"/>
  <circle cy="-36.426" cx="19.041" r="0.884" style="fill-rule:evenodd;clip-rule:evenodd;fill:#ED1B2E;"/>
  <circle cy="-36.15" cx="15.267" r="0.884" style="fill-rule:evenodd;clip-rule:evenodd;fill:#ED1B2E;"/>
  <circle cy="-40.377" cx="13.642" r="0.884" style="fill-rule:evenodd;clip-rule:evenodd;fill:#ED1B2E;"/>
  <circle cy="-39.275" cx="17.267" r="0.884" style="fill-rule:evenodd;clip-rule:evenodd;fill:#ED1B2E;"/>
  <circle cy="-42.935" cx="16.05" r="0.884" style="fill-rule:evenodd;clip-rule:evenodd;fill:#ED1B2E;"/>
  <circle cy="-45.435" cx="13.425" r="0.884" style="fill-rule:evenodd;clip-rule:evenodd;fill:#ED1B2E;"/>
  <circle cy="-43.185" cx="11.425" r="0.884" style="fill-rule:evenodd;clip-rule:evenodd;fill:#ED1B2E;"/>
  <circle cy="-40.685" cx="8.267" r="0.884" style="fill-rule:evenodd;clip-rule:evenodd;fill:#ED1B2E;"/>
  <circle cy="-43.81" cx="6.55" r="0.884" style="fill-rule:evenodd;clip-rule:evenodd;fill:#ED1B2E;"/>
  <circle cy="-44.247" cx="2.55" r="0.884" style="fill-rule:evenodd;clip-rule:evenodd;fill:#ED1B2E;"/>
  <path style="fill-rule:evenodd;clip-rule:evenodd;fill:#ED1B2E;" d="M0-40.988c0.482-0.007,0.871-0.399,0.871-0.884    c0-0.483-0.389-0.876-0.871-0.883"/>
  <circle cy="-46.997" cx="4.425" r="0.884" style="fill-rule:evenodd;clip-rule:evenodd;fill:#ED1B2E;"/>
  <path style="fill-rule:evenodd;clip-rule:evenodd;fill:#ED1B2E;" d="M0-47.572c0.477-0.013,0.859-0.402,0.859-0.883    c0-0.479-0.382-0.87-0.859-0.883"/>
  <circle cy="-46.185" cx="9.3" r="0.884" style="fill-rule:evenodd;clip-rule:evenodd;fill:#ED1B2E;"/>
  <circle cy="-49.31" cx="6.862" r="0.884" style="fill-rule:evenodd;clip-rule:evenodd;fill:#ED1B2E;"/>
  <circle cy="-49.06" cx="11.05" r="0.884" style="fill-rule:evenodd;clip-rule:evenodd;fill:#ED1B2E;"/>
  <circle cy="-51.551" cx="8.541" r="0.884" style="fill-rule:evenodd;clip-rule:evenodd;fill:#ED1B2E;"/>
  <circle cy="-52.747" cx="4.925" r="0.884" style="fill-rule:evenodd;clip-rule:evenodd;fill:#ED1B2E;"/>
  <path style="fill-rule:evenodd;clip-rule:evenodd;fill:#ED1B2E;" d="M0-52.801c0.482-0.007,0.871-0.399,0.871-0.884    c0-0.483-0.389-0.876-0.871-0.883"/>
  <circle cy="-50.435" cx="2.55" r="0.884" style="fill-rule:evenodd;clip-rule:evenodd;fill:#ED1B2E;"/>
  <circle cy="-55.074" cx="6.779" r="0.884" style="fill-rule:evenodd;clip-rule:evenodd;fill:#ED1B2E;"/>
  <path style="fill-rule:evenodd;clip-rule:evenodd;fill:#ED1B2E;" d="M0-57.601v0.908c0.473-0.018,0.851-0.405,0.851-0.882    c0-0.009-0.001-0.018-0.001-0.026H0.001"/>
  <circle cy="-56.122" cx="2.737" r="0.884" style="fill-rule:evenodd;clip-rule:evenodd;fill:#ED1B2E;"/>
  <circle cy="-30.766" cx="26.725" r="0.884" style="fill-rule:evenodd;clip-rule:evenodd;fill:#ED1B2E;"/>
  <circle cy="-29.584" cx="30.008" r="0.884" style="fill-rule:evenodd;clip-rule:evenodd;fill:#ED1B2E;"/>
  <circle cy="-29.784" cx="33.208" r="0.884" style="fill-rule:evenodd;clip-rule:evenodd;fill:#ED1B2E;"/>
  <circle cy="-24.551" cx="29.416" r="0.884" style="fill-rule:evenodd;clip-rule:evenodd;fill:#ED1B2E;"/>
  <circle cy="-26.574" cx="33.166" r="0.884" style="fill-rule:evenodd;clip-rule:evenodd;fill:#ED1B2E;"/>
  <circle cy="-28.174" cx="36.566" r="0.884" style="fill-rule:evenodd;clip-rule:evenodd;fill:#ED1B2E;"/>
  <circle cy="-24.926" cx="36.541" r="0.884" style="fill-rule:evenodd;clip-rule:evenodd;fill:#ED1B2E;"/>
  <circle cy="-21.435" cx="36.425" r="0.884" style="fill-rule:evenodd;clip-rule:evenodd;fill:#ED1B2E;"/>
  <circle cy="-20.676" cx="40.416" r="0.884" style="fill-rule:evenodd;clip-rule:evenodd;fill:#ED1B2E;"/>
  <circle cy="-15.926" cx="45.666" r="0.884" style="fill-rule:evenodd;clip-rule:evenodd;fill:#ED1B2E;"/>
  <circle cy="-12.301" cx="47.541" r="0.884" style="fill-rule:evenodd;clip-rule:evenodd;fill:#ED1B2E;"/>
  <circle cy="-9.551" cx="50.541" r="0.884" style="fill-rule:evenodd;clip-rule:evenodd;fill:#ED1B2E;"/>
  <circle cy="-16.426" cx="41.791" r="0.884" style="fill-rule:evenodd;clip-rule:evenodd;fill:#ED1B2E;"/>
  <circle cy="-27.464" cx="40.406" r="0.884" style="fill-rule:evenodd;clip-rule:evenodd;fill:#ED1B2E;"/>
  <circle cy="-24.06" cx="40.425" r="0.884" style="fill-rule:evenodd;clip-rule:evenodd;fill:#ED1B2E;"/>
  <circle cy="-22.532" cx="44.322" r="0.884" style="fill-rule:evenodd;clip-rule:evenodd;fill:#ED1B2E;"/>
  <circle cy="-19.22" cx="44.447" r="0.884" style="fill-rule:evenodd;clip-rule:evenodd;fill:#ED1B2E;"/>
  <circle cy="-18.868" cx="48.47" r="0.884" style="fill-rule:evenodd;clip-rule:evenodd;fill:#ED1B2E;"/>
  <circle cy="-19.81" cx="52.487" r="0.884" style="fill-rule:evenodd;clip-rule:evenodd;fill:#ED1B2E;"/>
  <circle cy="-15.718" cx="49.892" r="0.884" style="fill-rule:evenodd;clip-rule:evenodd;fill:#ED1B2E;"/>
  <circle cy="-12.968" cx="52.392" r="0.884" style="fill-rule:evenodd;clip-rule:evenodd;fill:#ED1B2E;"/>
  <circle cy="-10.002" cx="55.55" r="0.884" style="fill-rule:evenodd;clip-rule:evenodd;fill:#ED1B2E;"/>
  <circle cy="-7.301" cx="53.175" r="0.884" style="fill-rule:evenodd;clip-rule:evenodd;fill:#ED1B2E;"/>
  <circle cy="-3.988" cx="51.362" r="0.884" style="fill:#ED1B2E;"/>
  <circle cy="-4.81" cx="45.425" r="0.884" style="fill-rule:evenodd;clip-rule:evenodd;fill:#ED1B2E;"/>
  <circle cy="-6.435" cx="48.925" r="0.884" style="fill-rule:evenodd;clip-rule:evenodd;fill:#ED1B2E;"/>
  <circle cy="-2.115" cx="47.899" r="0.884" style="fill-rule:evenodd;clip-rule:evenodd;fill:#ED1B2E;"/>
  <circle cy="-2.685" cx="42.3" r="0.884" style="fill-rule:evenodd;clip-rule:evenodd;fill:#ED1B2E;"/>
  <circle cy="-9.06" cx="46.175" r="0.884" style="fill-rule:evenodd;clip-rule:evenodd;fill:#ED1B2E;"/>
  <circle cy="-8.56" cx="42.675" r="0.884" style="fill-rule:evenodd;clip-rule:evenodd;fill:#ED1B2E;"/>
  <circle cy="-12.666" cx="43.3" r="0.884" style="fill-rule:evenodd;clip-rule:evenodd;fill:#ED1B2E;"/>
  <circle cy="-5.685" cx="40.3" r="0.884" style="fill-rule:evenodd;clip-rule:evenodd;fill:#ED1B2E;"/>
  <circle cy="-3.176" cx="36.925" r="0.884" style="fill-rule:evenodd;clip-rule:evenodd;fill:#ED1B2E;"/>
  <circle cy="-7.176" cx="36.175" r="0.884" style="fill-rule:evenodd;clip-rule:evenodd;fill:#ED1B2E;"/>
  <circle cy="-9.926" cx="39.175" r="0.884" style="fill-rule:evenodd;clip-rule:evenodd;fill:#ED1B2E;"/>
  <circle cy="-13.488" cx="38.237" r="0.884" style="fill-rule:evenodd;clip-rule:evenodd;fill:#ED1B2E;"/>
  <circle cy="-17.301" cx="37.05" r="0.884" style="fill-rule:evenodd;clip-rule:evenodd;fill:#ED1B2E;"/>
  <circle cy="-19.051" cx="33.05" r="0.884" style="fill-rule:evenodd;clip-rule:evenodd;fill:#ED1B2E;"/>
  <circle cy="-23.051" cx="32.925" r="0.884" style="fill-rule:evenodd;clip-rule:evenodd;fill:#ED1B2E;"/>
  <circle cy="-20.926" cx="29.425" r="0.884" style="fill-rule:evenodd;clip-rule:evenodd;fill:#ED1B2E;"/>
  <circle cy="-19.551" cx="25.425" r="0.884" style="fill-rule:evenodd;clip-rule:evenodd;fill:#ED1B2E;"/>
  <circle cy="-18.801" cx="21.675" r="0.884" style="fill-rule:evenodd;clip-rule:evenodd;fill:#ED1B2E;"/>
  <circle cy="-19.551" cx="18.55" r="0.884" style="fill-rule:evenodd;clip-rule:evenodd;fill:#ED1B2E;"/>
  <circle cy="-16.051" cx="15.925" r="0.884" style="fill-rule:evenodd;clip-rule:evenodd;fill:#ED1B2E;"/>
  <circle cy="-17.176" cx="11.3" r="0.884" style="fill-rule:evenodd;clip-rule:evenodd;fill:#ED1B2E;"/>
  <circle cy="-14.051" cx="9.175" r="0.884" style="fill-rule:evenodd;clip-rule:evenodd;fill:#ED1B2E;"/>
  <circle cy="-17.676" cx="6.675" r="0.884" style="fill-rule:evenodd;clip-rule:evenodd;fill:#ED1B2E;"/>
  <circle cy="-17.943" cx="2.996" r="0.884" style="fill-rule:evenodd;clip-rule:evenodd;fill:#ED1B2E;"/>
  <circle cy="-21.019" cx="5.568" r="0.884" style="fill-rule:evenodd;clip-rule:evenodd;fill:#ED1B2E;"/>
  <circle cy="-20.211" cx="9.623" r="0.884" style="fill-rule:evenodd;clip-rule:evenodd;fill:#ED1B2E;"/>
  <circle cy="-19.801" cx="14.05" r="0.884" style="fill-rule:evenodd;clip-rule:evenodd;fill:#ED1B2E;"/>
  <circle cy="-23.613" cx="12.737" r="0.884" style="fill:#ED1B2E;"/>
  <circle cy="-22.488" cx="16.921" r="0.884" style="fill-rule:evenodd;clip-rule:evenodd;fill:#ED1B2E;"/>
  <circle cy="-22.426" cx="20.925" r="0.884" style="fill-rule:evenodd;clip-rule:evenodd;fill:#ED1B2E;"/>
  <circle cy="-22.741" cx="25.616" r="0.884" style="fill-rule:evenodd;clip-rule:evenodd;fill:#ED1B2E;"/>
  <circle cy="-25.685" cx="23.149" r="0.884" style="fill-rule:evenodd;clip-rule:evenodd;fill:#ED1B2E;"/>
  <circle cy="-25.81" cx="19.3" r="0.884" style="fill:#ED1B2E;"/>
  <circle cy="-26.31" cx="15.55" r="0.884" style="fill-rule:evenodd;clip-rule:evenodd;fill:#ED1B2E;"/>
  <circle cy="-29.801" cx="15.175" r="0.884" style="fill-rule:evenodd;clip-rule:evenodd;fill:#ED1B2E;"/>
  <circle cy="-29.435" cx="19.3" r="0.884" style="fill-rule:evenodd;clip-rule:evenodd;fill:#ED1B2E;"/>
  <circle cy="-29.435" cx="22.925" r="0.884" style="fill-rule:evenodd;clip-rule:evenodd;fill:#ED1B2E;"/>
  <circle cy="-26.935" cx="27.399" r="0.884" style="fill-rule:evenodd;clip-rule:evenodd;fill:#ED1B2E;"/>
  <circle cy="-27.185" cx="11.675" r="0.884" style="fill-rule:evenodd;clip-rule:evenodd;fill:#ED1B2E;"/>
  <circle cy="-23.586" cx="9.221" r="0.884" style="fill-rule:evenodd;clip-rule:evenodd;fill:#ED1B2E;"/>
  <circle cy="-25.791" cx="7.175" r="0.884" style="fill-rule:evenodd;clip-rule:evenodd;fill:#ED1B2E;"/>
  <circle cy="-28.44" cx="5.188" r="0.884" style="fill-rule:evenodd;clip-rule:evenodd;fill:#ED1B2E;"/>
  <circle cy="-24.134" cx="3.953" r="0.884" style="fill-rule:evenodd;clip-rule:evenodd;fill:#ED1B2E;"/>
  <circle cy="-21.789" cx="1.645" r="0.884" style="fill-rule:evenodd;clip-rule:evenodd;fill:#ED1B2E;"/>
  <circle cy="-26.252" cx="1.854" r="0.884" style="fill-rule:evenodd;clip-rule:evenodd;fill:#ED1B2E;"/>
  <circle cy="-31.682" cx="5.319" r="0.884" style="fill-rule:evenodd;clip-rule:evenodd;fill:#ED1B2E;"/>
  <circle cy="-29.647" cx="2.219" r="0.884" style="fill-rule:evenodd;clip-rule:evenodd;fill:#ED1B2E;"/>
  <circle cy="-28.59" cx="8.494" r="0.884" style="fill-rule:evenodd;clip-rule:evenodd;fill:#ED1B2E;"/>
  <circle cy="-15.051" cx="33.925" r="0.884" style="fill-rule:evenodd;clip-rule:evenodd;fill:#ED1B2E;"/>
  <circle cy="-11.301" cx="35.3" r="0.884" style="fill-rule:evenodd;clip-rule:evenodd;fill:#ED1B2E;"/>
  <circle cy="-8.676" cx="32.175" r="0.884" style="fill-rule:evenodd;clip-rule:evenodd;fill:#ED1B2E;"/>
  <circle cy="-3.926" cx="32.675" r="0.884" style="fill-rule:evenodd;clip-rule:evenodd;fill:#ED1B2E;"/>
  <circle cy="-1.676" cx="30.3" r="0.884" style="fill-rule:evenodd;clip-rule:evenodd;fill:#ED1B2E;"/>
  <circle cy="-5.113" cx="28.987" r="0.884" style="fill-rule:evenodd;clip-rule:evenodd;fill:#ED1B2E;"/>
  <circle cy="-9.56" cx="28.425" r="0.884" style="fill-rule:evenodd;clip-rule:evenodd;fill:#ED1B2E;"/>
  <circle cy="-12.801" cx="31.05" r="0.884" style="fill-rule:evenodd;clip-rule:evenodd;fill:#ED1B2E;"/>
  <circle cy="-14.051" cx="27.05" r="0.884" style="fill-rule:evenodd;clip-rule:evenodd;fill:#ED1B2E;"/>
  <circle cy="-9.676" cx="24.8" r="0.884" style="fill-rule:evenodd;clip-rule:evenodd;fill:#ED1B2E;"/>
  <circle cy="-5.801" cx="25.3" r="0.884" style="fill-rule:evenodd;clip-rule:evenodd;fill:#ED1B2E;"/>
  <circle cy="-2.301" cx="26.425" r="0.884" style="fill-rule:evenodd;clip-rule:evenodd;fill:#ED1B2E;"/>
  <circle cy="-2.051" cx="22.675" r="0.884" style="fill-rule:evenodd;clip-rule:evenodd;fill:#ED1B2E;"/>
  <circle cy="-5.551" cx="21.425" r="0.884" style="fill-rule:evenodd;clip-rule:evenodd;fill:#ED1B2E;"/>
  <circle cy="-5.801" cx="17.425" r="0.884" style="fill-rule:evenodd;clip-rule:evenodd;fill:#ED1B2E;"/>
  <circle cy="-2.551" cx="18.925" r="0.884" style="fill-rule:evenodd;clip-rule:evenodd;fill:#ED1B2E;"/>
  <circle cy="-2.051" cx="15.05" r="0.884" style="fill-rule:evenodd;clip-rule:evenodd;fill:#ED1B2E;"/>
  <circle cy="-2.176" cx="11.05" r="0.884" style="fill-rule:evenodd;clip-rule:evenodd;fill:#ED1B2E;"/>
  <path style="fill-rule:evenodd;clip-rule:evenodd;fill:#ED1B2E;" d="M9.745,0c0.001-0.017,0.002-0.033,0.002-0.051    c0-0.487-0.396-0.884-0.884-0.884c-0.487,0-0.884,0.396-0.884,0.884C7.978-0.033,7.979-0.017,7.98,0"/>
  <circle cy="-3.435" cx="7.425" r="0.884" style="fill-rule:evenodd;clip-rule:evenodd;fill:#ED1B2E;"/>
  <circle cy="-1.31" cx="4.3" r="0.884" style="fill-rule:evenodd;clip-rule:evenodd;fill:#ED1B2E;"/>
  <circle cy="-5.435" cx="3.425" r="0.884" style="fill-rule:evenodd;clip-rule:evenodd;fill:#ED1B2E;"/>
  <circle cy="-2.726" cx="1.258" r="0.884" style="fill-rule:evenodd;clip-rule:evenodd;fill:#ED1B2E;"/>
  <path style="fill-rule:evenodd;clip-rule:evenodd;fill:#ED1B2E;" d="M0.001,0H0.83C0.817-0.459,0.455-0.83,0-0.857V0"/>
  <circle cy="-12.176" cx="1.416" r="0.884" style="fill-rule:evenodd;clip-rule:evenodd;fill:#ED1B2E;"/>
  <circle cy="-14.051" cx="4.416" r="0.884" style="fill-rule:evenodd;clip-rule:evenodd;fill:#ED1B2E;"/>
  <circle cy="-11.301" cx="6.791" r="0.884" style="fill-rule:evenodd;clip-rule:evenodd;fill:#ED1B2E;"/>
  <circle cy="-9.801" cx="11.416" r="0.884" style="fill-rule:evenodd;clip-rule:evenodd;fill:#ED1B2E;"/>
  <circle cy="-13.301" cx="13.291" r="0.884" style="fill-rule:evenodd;clip-rule:evenodd;fill:#ED1B2E;"/>
  <circle cy="-12.051" cx="17.416" r="0.884" style="fill-rule:evenodd;clip-rule:evenodd;fill:#ED1B2E;"/>
  <circle cy="-12.676" cx="22.041" r="0.884" style="fill-rule:evenodd;clip-rule:evenodd;fill:#ED1B2E;"/>
  <circle cy="-15.926" cx="24.041" r="0.884" style="fill-rule:evenodd;clip-rule:evenodd;fill:#ED1B2E;"/>
  <circle cy="-16.926" cx="29.916" r="0.884" style="fill-rule:evenodd;clip-rule:evenodd;fill:#ED1B2E;"/>
  <circle cy="-15.301" cx="19.166" r="0.884" style="fill-rule:evenodd;clip-rule:evenodd;fill:#ED1B2E;"/>
  <circle cy="-7.435" cx="6.55" r="0.884" style="fill-rule:evenodd;clip-rule:evenodd;fill:#ED1B2E;"/>
  <path style="fill-rule:evenodd;clip-rule:evenodd;fill:#ED1B2E;" d="M0-8.037c0.471,0.019,0.846,0.408,0.846,0.883    c0,0.476-0.375,0.861-0.846,0.882"/>
  <circle cy="-6.301" cx="9.791" r="0.884" style="fill-rule:evenodd;clip-rule:evenodd;fill:#ED1B2E;"/>
  <circle cy="-5.676" cx="13.041" r="0.884" style="fill-rule:evenodd;clip-rule:evenodd;fill:#ED1B2E;"/>
  <circle cy="-8.926" cx="15.041" r="0.884" style="fill-rule:evenodd;clip-rule:evenodd;fill:#ED1B2E;"/>
  <circle cy="-9.051" cx="19.916" r="0.884" style="fill-rule:evenodd;clip-rule:evenodd;fill:#ED1B2E;"/>
  <circle cy="-9.435" cx="3.3" r="0.884" style="fill-rule:evenodd;clip-rule:evenodd;fill:#ED1B2E;"/>
  <circle cy="-4.551" cx="55.8" r="0.884" style="fill-rule:evenodd;clip-rule:evenodd;fill:#ED1B2E;"/>
  <circle cy="-1.551" cx="54.05" r="0.884" style="fill-rule:evenodd;clip-rule:evenodd;fill:#ED1B2E;"/>
  <circle cy="-46.176" cx="25.916" r="0.884" style="fill-rule:evenodd;clip-rule:evenodd;fill:#ED1B2E;"/>
  <circle cy="-48.676" cx="23.854" r="0.884" style="fill-rule:evenodd;clip-rule:evenodd;fill:#ED1B2E;"/>
  <circle cy="-50.997" cx="21.612" r="0.884" style="fill-rule:evenodd;clip-rule:evenodd;fill:#ED1B2E;"/>
  <circle cy="-54.06" cx="20.175" r="0.884" style="fill-rule:evenodd;clip-rule:evenodd;fill:#ED1B2E;"/>
  <circle cy="-56.56" cx="18.425" r="0.884" style="fill-rule:evenodd;clip-rule:evenodd;fill:#ED1B2E;"/>
  <circle cy="-56.526" cx="30.976" r="0.884" style="fill-rule:evenodd;clip-rule:evenodd;fill:#ED1B2E;"/>
 </g>
</svg>
