<?xml version="1.0"?>
<!-- Converted with SVG Converter - Version 0.9.5 (Compiled Fri Feb 21 09:53:38 2020) - Copyright (C) 2011 Nokia -->
<svg xmlns="http://www.w3.org/2000/svg" xmlns:xlink="http://www.w3.org/1999/xlink" height="57.6" version="1.1" x="0px" y="0px" baseProfile="tiny" viewBox="1 -58.6 57.6 57.6" xml:space="preserve" width="57.6">
 <g>
  <rect height="57.6" x="1" y="-58.6" style="fill:none;" width="57.6"/>
  <rect height="57.6" x="1" y="-58.6" width="57.6"/>
  <circle r="0.884" cx="54.987" cy="-56.238" style="fill-rule:evenodd;clip-rule:evenodd;fill:#FFFFFF;"/>
  <circle r="0.884" cx="49.425" cy="-56.05" style="fill-rule:evenodd;clip-rule:evenodd;fill:#FFFFFF;"/>
  <path style="fill-rule:evenodd;clip-rule:evenodd;fill:#FFFFFF;" d="M46.641-58.6c-0.01,0.48-0.401,0.866-0.883,0.866    c-0.481,0-0.874-0.386-0.883-0.866"/>
  <path style="fill-rule:evenodd;clip-rule:evenodd;fill:#FFFFFF;" d="M51.089-58.6c0,0.011-0.001,0.023-0.001,0.034    c0,0.488,0.397,0.884,0.884,0.884c0.488,0,0.884-0.396,0.884-0.884c0-0.012,0-0.023-0.001-0.034"/>
  <path style="fill-rule:evenodd;clip-rule:evenodd;fill:#FFFFFF;" d="M51.07-1c0.025-0.465,0.411-0.835,0.882-0.835    c0.472,0,0.857,0.37,0.882,0.835"/>
  <path style="fill-rule:evenodd;clip-rule:evenodd;fill:#FFFFFF;" d="M58.6-18.959c-0.007,0-0.015,0-0.022,0    c-0.487,0-0.884,0.396-0.884,0.884c0,0.488,0.396,0.884,0.884,0.884c0.007,0,0.015,0,0.022,0"/>
  <path style="fill-rule:evenodd;clip-rule:evenodd;fill:#FFFFFF;" d="M58.6-9.022c-0.007,0-0.015,0-0.022,0    c-0.487,0-0.884,0.396-0.884,0.884c0,0.488,0.396,0.884,0.884,0.884c0.007,0,0.015,0,0.022-0.001"/>
  <path style="fill-rule:evenodd;clip-rule:evenodd;fill:#FFFFFF;" d="M58.6-1.008v-0.826c-0.007,0-0.015-0.001-0.022-0.001    c-0.471,0-0.857,0.37-0.882,0.835H58.6"/>
  <path style="fill-rule:evenodd;clip-rule:evenodd;fill:#FFFFFF;" d="M58.6-58.571v0.826c-0.007,0-0.015,0-0.022,0    c-0.471,0-0.857-0.37-0.882-0.835H58.6"/>
  <path style="fill-rule:evenodd;clip-rule:evenodd;fill:#FFFFFF;" d="M36.148-1c0-0.005,0-0.009,0-0.014    c0-0.488-0.396-0.884-0.884-0.884c-0.487,0-0.884,0.396-0.884,0.884c0,0.005,0,0.009,0,0.014"/>
  <path style="fill-rule:evenodd;clip-rule:evenodd;fill:#FFFFFF;" d="M41.197-1c0-0.006,0-0.012,0-0.018    c0-0.488-0.396-0.884-0.884-0.884c-0.487,0-0.884,0.396-0.884,0.884c0,0.006,0,0.012,0,0.018"/>
  <path style="fill-rule:evenodd;clip-rule:evenodd;fill:#FFFFFF;" d="M46.648-1c0-0.005,0-0.009,0-0.014    c0-0.488-0.396-0.884-0.884-0.884c-0.487,0-0.884,0.396-0.884,0.884c0,0.005,0,0.009,0,0.014"/>
  <circle r="0.884" cx="45.809" cy="-55.068" style="fill-rule:evenodd;clip-rule:evenodd;fill:#FFFFFF;"/>
  <path style="fill-rule:evenodd;clip-rule:evenodd;fill:#FFFFFF;" d="M41.254-58.6c-0.016,0.474-0.405,0.854-0.883,0.854    c-0.477,0-0.867-0.379-0.883-0.854"/>
  <circle r="0.884" cx="41.925" cy="-54.8" style="fill-rule:evenodd;clip-rule:evenodd;fill:#FFFFFF;"/>
  <circle r="0.884" cx="37.675" cy="-55.05" style="fill-rule:evenodd;clip-rule:evenodd;fill:#FFFFFF;"/>
  <path style="fill-rule:evenodd;clip-rule:evenodd;fill:#FFFFFF;" d="M36.183-58.6c-0.007,0.482-0.4,0.872-0.883,0.872    c-0.483,0-0.876-0.389-0.883-0.872"/>
  <circle r="0.884" cx="34.05" cy="-54.3" style="fill-rule:evenodd;clip-rule:evenodd;fill:#FFFFFF;"/>
  <circle r="0.884" cx="29.925" cy="-54.3" style="fill-rule:evenodd;clip-rule:evenodd;fill:#FFFFFF;"/>
  <circle r="0.884" cx="28.05" cy="-57.425" style="fill-rule:evenodd;clip-rule:evenodd;fill:#FFFFFF;"/>
  <circle r="0.884" cx="23.925" cy="-57.425" style="fill-rule:evenodd;clip-rule:evenodd;fill:#FFFFFF;"/>
  <circle r="0.884" cx="26.05" cy="-54.059" style="fill-rule:evenodd;clip-rule:evenodd;fill:#FFFFFF;"/>
  <circle r="0.884" cx="28.175" cy="-50.925" style="fill-rule:evenodd;clip-rule:evenodd;fill:#FFFFFF;"/>
  <circle r="0.884" cx="32.05" cy="-51.175" style="fill-rule:evenodd;clip-rule:evenodd;fill:#FFFFFF;"/>
  <circle r="0.884" cx="36.175" cy="-51.675" style="fill-rule:evenodd;clip-rule:evenodd;fill:#FFFFFF;"/>
  <circle r="0.884" cx="40.425" cy="-51.425" style="fill-rule:evenodd;clip-rule:evenodd;fill:#FFFFFF;"/>
  <circle r="0.884" cx="44.925" cy="-51.675" style="fill-rule:evenodd;clip-rule:evenodd;fill:#FFFFFF;"/>
  <circle r="0.884" cx="48.737" cy="-52.488" style="fill-rule:evenodd;clip-rule:evenodd;fill:#FFFFFF;"/>
  <circle r="0.884" cx="52.05" cy="-53.488" style="fill-rule:evenodd;clip-rule:evenodd;fill:#FFFFFF;"/>
  <circle r="0.884" cx="55.559" cy="-52.568" style="fill-rule:evenodd;clip-rule:evenodd;fill:#FFFFFF;"/>
  <circle r="0.884" cx="54.362" cy="-49.559" style="fill-rule:evenodd;clip-rule:evenodd;fill:#FFFFFF;"/>
  <path style="fill-rule:evenodd;clip-rule:evenodd;fill:#FFFFFF;" d="M58.6-55.564c-0.452,0.038-0.809,0.418-0.809,0.88    c0,0.463,0.356,0.842,0.809,0.88"/>
  <path style="fill-rule:evenodd;clip-rule:evenodd;fill:#FFFFFF;" d="M58.6-50.38c-0.481,0.007-0.871,0.4-0.871,0.883    c0,0.484,0.39,0.877,0.871,0.884"/>
  <circle r="0.884" cx="56.309" cy="-45.693" style="fill-rule:evenodd;clip-rule:evenodd;fill:#FFFFFF;"/>
  <path style="fill-rule:evenodd;clip-rule:evenodd;fill:#FFFFFF;" d="M58.6-43.772c-0.01,0-0.019-0.001-0.028-0.001    c-0.487,0-0.884,0.396-0.884,0.884c0,0.488,0.396,0.884,0.884,0.884c0.01,0,0.019-0.001,0.028-0.001"/>
  <circle r="0.884" cx="52.229" cy="-46.425" style="fill-rule:evenodd;clip-rule:evenodd;fill:#FFFFFF;"/>
  <circle r="0.884" cx="53.862" cy="-42.872" style="fill-rule:evenodd;clip-rule:evenodd;fill:#FFFFFF;"/>
  <circle r="0.884" cx="55.934" cy="-40.068" style="fill-rule:evenodd;clip-rule:evenodd;fill:#FFFFFF;"/>
  <circle r="0.884" cx="57.05" cy="-36.309" style="fill-rule:evenodd;clip-rule:evenodd;fill:#FFFFFF;"/>
  <circle r="0.884" cx="55.121" cy="-32.318" style="fill-rule:evenodd;clip-rule:evenodd;fill:#FFFFFF;"/>
  <circle r="0.884" cx="57.133" cy="-29.663" style="fill-rule:evenodd;clip-rule:evenodd;fill:#FFFFFF;"/>
  <circle r="0.884" cx="53.55" cy="-35.559" style="fill-rule:evenodd;clip-rule:evenodd;fill:#FFFFFF;"/>
  <circle r="0.884" cx="52.3" cy="-38.497" style="fill-rule:evenodd;clip-rule:evenodd;fill:#FFFFFF;"/>
  <circle r="0.884" cx="50.612" cy="-42.247" style="fill-rule:evenodd;clip-rule:evenodd;fill:#FFFFFF;"/>
  <circle r="0.884" cx="46.8" cy="-41.934" style="fill-rule:evenodd;clip-rule:evenodd;fill:#FFFFFF;"/>
  <circle r="0.884" cx="48.8" cy="-38.559" style="fill-rule:evenodd;clip-rule:evenodd;fill:#FFFFFF;"/>
  <circle r="0.884" cx="49.925" cy="-34.809" style="fill-rule:evenodd;clip-rule:evenodd;fill:#FFFFFF;"/>
  <circle r="0.884" cx="52.036" cy="-31.287" style="fill-rule:evenodd;clip-rule:evenodd;fill:#FFFFFF;"/>
  <circle r="0.884" cx="53.642" cy="-28.15" style="fill-rule:evenodd;clip-rule:evenodd;fill:#FFFFFF;"/>
  <circle r="0.884" cx="56.8" cy="-25.309" style="fill-rule:evenodd;clip-rule:evenodd;fill:#FFFFFF;"/>
  <circle r="0.884" cx="53.362" cy="-24.497" style="fill-rule:evenodd;clip-rule:evenodd;fill:#FFFFFF;"/>
  <circle r="0.884" cx="49.476" cy="-26.926" style="fill-rule:evenodd;clip-rule:evenodd;fill:#FFFFFF;"/>
  <circle r="0.884" cx="48.74" cy="-30.459" style="fill-rule:evenodd;clip-rule:evenodd;fill:#FFFFFF;"/>
  <circle r="0.884" cx="45.871" cy="-33.224" style="fill-rule:evenodd;clip-rule:evenodd;fill:#FFFFFF;"/>
  <circle r="0.884" cx="45.282" cy="-30.278" style="fill-rule:evenodd;clip-rule:evenodd;fill:#FFFFFF;"/>
  <circle r="0.884" cx="46.146" cy="-35.994" style="fill-rule:evenodd;clip-rule:evenodd;fill:#FFFFFF;"/>
  <circle r="0.884" cx="44.425" cy="-39.184" style="fill-rule:evenodd;clip-rule:evenodd;fill:#FFFFFF;"/>
  <circle r="0.884" cx="42.3" cy="-42.059" style="fill-rule:evenodd;clip-rule:evenodd;fill:#FFFFFF;"/>
  <circle r="0.884" cx="40.175" cy="-39.184" style="fill-rule:evenodd;clip-rule:evenodd;fill:#FFFFFF;"/>
  <circle r="0.884" cx="37.8" cy="-41.559" style="fill-rule:evenodd;clip-rule:evenodd;fill:#FFFFFF;"/>
  <circle r="0.884" cx="42.425" cy="-35.809" style="fill-rule:evenodd;clip-rule:evenodd;fill:#FFFFFF;"/>
  <circle r="0.884" cx="41.762" cy="-31.912" style="fill-rule:evenodd;clip-rule:evenodd;fill:#FFFFFF;"/>
  <circle r="0.884" cx="45.524" cy="-27.039" style="fill-rule:evenodd;clip-rule:evenodd;fill:#FFFFFF;"/>
  <circle r="0.884" cx="49.657" cy="-23.618" style="fill-rule:evenodd;clip-rule:evenodd;fill:#FFFFFF;"/>
  <circle r="0.884" cx="57.309" cy="-21.568" style="fill-rule:evenodd;clip-rule:evenodd;fill:#FFFFFF;"/>
  <circle r="0.884" cx="54.642" cy="-17.468" style="fill-rule:evenodd;clip-rule:evenodd;fill:#FFFFFF;"/>
  <path style="fill-rule:evenodd;clip-rule:evenodd;fill:#FFFFFF;" d="M1-17.224c0.016,0.001,0.032,0.001,0.048,0.001    c0.488,0,0.884-0.396,0.884-0.884c0-0.488-0.395-0.884-0.884-0.884c-0.016,0-0.032,0-0.048,0.001"/>
  <circle r="0.884" cx="56.838" cy="-14.727" style="fill-rule:evenodd;clip-rule:evenodd;fill:#FFFFFF;"/>
  <circle r="0.884" cx="48.487" cy="-45.809" style="fill-rule:evenodd;clip-rule:evenodd;fill:#FFFFFF;"/>
  <circle r="0.884" cx="46.291" cy="-48.425" style="fill-rule:evenodd;clip-rule:evenodd;fill:#FFFFFF;"/>
  <circle r="0.884" cx="50.041" cy="-49.425" style="fill-rule:evenodd;clip-rule:evenodd;fill:#FFFFFF;"/>
  <circle r="0.884" cx="44.166" cy="-45.55" style="fill-rule:evenodd;clip-rule:evenodd;fill:#FFFFFF;"/>
  <circle r="0.884" cx="42.291" cy="-48.8" style="fill-rule:evenodd;clip-rule:evenodd;fill:#FFFFFF;"/>
  <circle r="0.884" cx="38.416" cy="-48.3" style="fill-rule:evenodd;clip-rule:evenodd;fill:#FFFFFF;"/>
  <circle r="0.884" cx="40.291" cy="-45.425" style="fill-rule:evenodd;clip-rule:evenodd;fill:#FFFFFF;"/>
  <circle r="0.884" cx="36.541" cy="-44.925" style="fill-rule:evenodd;clip-rule:evenodd;fill:#FFFFFF;"/>
  <circle r="0.884" cx="34.791" cy="-48.3" style="fill-rule:evenodd;clip-rule:evenodd;fill:#FFFFFF;"/>
  <circle r="0.884" cx="30.541" cy="-48.175" style="fill-rule:evenodd;clip-rule:evenodd;fill:#FFFFFF;"/>
  <circle r="0.884" cx="32.541" cy="-44.55" style="fill-rule:evenodd;clip-rule:evenodd;fill:#FFFFFF;"/>
  <circle r="0.884" cx="28.916" cy="-44.05" style="fill-rule:evenodd;clip-rule:evenodd;fill:#FFFFFF;"/>
  <circle r="0.884" cx="30.366" cy="-40.968" style="fill:#FFFFFF;"/>
  <circle r="0.884" cx="34.175" cy="-41.059" style="fill-rule:evenodd;clip-rule:evenodd;fill:#FFFFFF;"/>
  <circle r="0.884" cx="36.175" cy="-37.559" style="fill-rule:evenodd;clip-rule:evenodd;fill:#FFFFFF;"/>
  <circle r="0.884" cx="38.896" cy="-35.847" style="fill-rule:evenodd;clip-rule:evenodd;fill:#FFFFFF;"/>
  <circle r="0.884" cx="37.958" cy="-32.386" style="fill-rule:evenodd;clip-rule:evenodd;fill:#FFFFFF;"/>
  <circle r="0.884" cx="34.458" cy="-34.401" style="fill-rule:evenodd;clip-rule:evenodd;fill:#FFFFFF;"/>
  <circle r="0.884" cx="32.3" cy="-37.8" style="fill-rule:evenodd;clip-rule:evenodd;fill:#FFFFFF;"/>
  <circle r="0.884" cx="30.612" cy="-34.363" style="fill-rule:evenodd;clip-rule:evenodd;fill:#FFFFFF;"/>
  <circle r="0.884" cx="28.179" cy="-37.363" style="fill-rule:evenodd;clip-rule:evenodd;fill:#FFFFFF;"/>
  <circle r="0.884" cx="26.366" cy="-40.488" style="fill-rule:evenodd;clip-rule:evenodd;fill:#FFFFFF;"/>
  <circle r="0.884" cx="24.929" cy="-43.55" style="fill-rule:evenodd;clip-rule:evenodd;fill:#FFFFFF;"/>
  <circle r="0.884" cx="23.083" cy="-46.925" style="fill-rule:evenodd;clip-rule:evenodd;fill:#FFFFFF;"/>
  <circle r="0.884" cx="19.987" cy="-49.425" style="fill-rule:evenodd;clip-rule:evenodd;fill:#FFFFFF;"/>
  <circle r="0.884" cx="18.3" cy="-52.925" style="fill-rule:evenodd;clip-rule:evenodd;fill:#FFFFFF;"/>
  <circle r="0.884" cx="16.487" cy="-55.363" style="fill-rule:evenodd;clip-rule:evenodd;fill:#FFFFFF;"/>
  <circle r="0.884" cx="14.425" cy="-57.425" style="fill-rule:evenodd;clip-rule:evenodd;fill:#FFFFFF;"/>
  <circle r="0.884" cx="11.621" cy="-55.131" style="fill-rule:evenodd;clip-rule:evenodd;fill:#FFFFFF;"/>
  <path style="fill-rule:evenodd;clip-rule:evenodd;fill:#FFFFFF;" d="M10.734-58.6c-0.009,0.48-0.401,0.866-0.883,0.866    c-0.481,0-0.874-0.387-0.883-0.866"/>
  <circle r="0.884" cx="13.916" cy="-52.925" style="fill-rule:evenodd;clip-rule:evenodd;fill:#FFFFFF;"/>
  <circle r="0.884" cx="15.541" cy="-49.8" style="fill-rule:evenodd;clip-rule:evenodd;fill:#FFFFFF;"/>
  <circle r="0.884" cx="19.107" cy="-46.391" style="fill-rule:evenodd;clip-rule:evenodd;fill:#FFFFFF;"/>
  <circle r="0.884" cx="20.541" cy="-43.3" style="fill-rule:evenodd;clip-rule:evenodd;fill:#FFFFFF;"/>
  <circle r="0.884" cx="22.416" cy="-40.55" style="fill-rule:evenodd;clip-rule:evenodd;fill:#FFFFFF;"/>
  <circle r="0.884" cx="23.791" cy="-37.55" style="fill-rule:evenodd;clip-rule:evenodd;fill:#FFFFFF;"/>
  <circle r="0.884" cx="25.791" cy="-34.425" style="fill-rule:evenodd;clip-rule:evenodd;fill:#FFFFFF;"/>
  <circle r="0.884" cx="21.675" cy="-34.05" style="fill-rule:evenodd;clip-rule:evenodd;fill:#FFFFFF;"/>
  <circle r="0.884" cx="18.3" cy="-33.675" style="fill-rule:evenodd;clip-rule:evenodd;fill:#FFFFFF;"/>
  <circle r="0.884" cx="13.983" cy="-34.266" style="fill-rule:evenodd;clip-rule:evenodd;fill:#FFFFFF;"/>
  <circle r="0.884" cx="11.675" cy="-31.8" style="fill-rule:evenodd;clip-rule:evenodd;fill:#FFFFFF;"/>
  <circle r="0.884" cx="8.747" cy="-34.398" style="fill-rule:evenodd;clip-rule:evenodd;fill:#FFFFFF;"/>
  <circle r="0.884" cx="4.581" cy="-35.869" style="fill-rule:evenodd;clip-rule:evenodd;fill:#FFFFFF;"/>
  <circle r="0.884" cx="10.667" cy="-36.492" style="fill-rule:evenodd;clip-rule:evenodd;fill:#FFFFFF;"/>
  <circle r="0.884" cx="2.049" cy="-33.452" style="fill-rule:evenodd;clip-rule:evenodd;fill:#FFFFFF;"/>
  <circle r="0.884" cx="2.498" cy="-38.811" style="fill-rule:evenodd;clip-rule:evenodd;fill:#FFFFFF;"/>
  <circle r="0.884" cx="4.987" cy="-41.925" style="fill-rule:evenodd;clip-rule:evenodd;fill:#FFFFFF;"/>
  <circle r="0.884" cx="7.05" cy="-38.425" style="fill-rule:evenodd;clip-rule:evenodd;fill:#FFFFFF;"/>
  <circle r="0.884" cx="12.383" cy="-38.959" style="fill-rule:evenodd;clip-rule:evenodd;fill:#FFFFFF;"/>
  <circle r="0.884" cx="20.041" cy="-37.425" style="fill-rule:evenodd;clip-rule:evenodd;fill:#FFFFFF;"/>
  <circle r="0.884" cx="16.267" cy="-37.15" style="fill-rule:evenodd;clip-rule:evenodd;fill:#FFFFFF;"/>
  <circle r="0.884" cx="14.642" cy="-41.376" style="fill-rule:evenodd;clip-rule:evenodd;fill:#FFFFFF;"/>
  <circle r="0.884" cx="18.267" cy="-40.275" style="fill-rule:evenodd;clip-rule:evenodd;fill:#FFFFFF;"/>
  <circle r="0.884" cx="17.05" cy="-43.934" style="fill-rule:evenodd;clip-rule:evenodd;fill:#FFFFFF;"/>
  <circle r="0.884" cx="14.425" cy="-46.434" style="fill-rule:evenodd;clip-rule:evenodd;fill:#FFFFFF;"/>
  <circle r="0.884" cx="12.425" cy="-44.184" style="fill-rule:evenodd;clip-rule:evenodd;fill:#FFFFFF;"/>
  <circle r="0.884" cx="9.267" cy="-41.684" style="fill-rule:evenodd;clip-rule:evenodd;fill:#FFFFFF;"/>
  <circle r="0.884" cx="7.55" cy="-44.809" style="fill-rule:evenodd;clip-rule:evenodd;fill:#FFFFFF;"/>
  <circle r="0.884" cx="3.55" cy="-45.247" style="fill-rule:evenodd;clip-rule:evenodd;fill:#FFFFFF;"/>
  <path style="fill-rule:evenodd;clip-rule:evenodd;fill:#FFFFFF;" d="M1-41.988c0.482-0.007,0.871-0.399,0.871-0.883    c0-0.483-0.389-0.877-0.871-0.883"/>
  <circle r="0.884" cx="5.425" cy="-47.997" style="fill-rule:evenodd;clip-rule:evenodd;fill:#FFFFFF;"/>
  <path style="fill-rule:evenodd;clip-rule:evenodd;fill:#FFFFFF;" d="M1-48.572c0.477-0.013,0.859-0.403,0.859-0.883    c0-0.48-0.382-0.87-0.859-0.883"/>
  <circle r="0.884" cx="10.3" cy="-47.184" style="fill-rule:evenodd;clip-rule:evenodd;fill:#FFFFFF;"/>
  <circle r="0.884" cx="7.862" cy="-50.309" style="fill-rule:evenodd;clip-rule:evenodd;fill:#FFFFFF;"/>
  <circle r="0.884" cx="12.05" cy="-50.059" style="fill-rule:evenodd;clip-rule:evenodd;fill:#FFFFFF;"/>
  <circle r="0.884" cx="9.541" cy="-52.55" style="fill-rule:evenodd;clip-rule:evenodd;fill:#FFFFFF;"/>
  <circle r="0.884" cx="5.925" cy="-53.747" style="fill-rule:evenodd;clip-rule:evenodd;fill:#FFFFFF;"/>
  <path style="fill-rule:evenodd;clip-rule:evenodd;fill:#FFFFFF;" d="M1-53.801c0.482-0.007,0.871-0.399,0.871-0.883    c0-0.483-0.389-0.877-0.871-0.883"/>
  <circle r="0.884" cx="3.55" cy="-51.434" style="fill-rule:evenodd;clip-rule:evenodd;fill:#FFFFFF;"/>
  <circle r="0.884" cx="7.779" cy="-56.075" style="fill-rule:evenodd;clip-rule:evenodd;fill:#FFFFFF;"/>
  <path style="fill-rule:evenodd;clip-rule:evenodd;fill:#FFFFFF;" d="M1-58.6v0.908c0.473-0.018,0.851-0.405,0.851-0.882    c0-0.008,0-0.017-0.001-0.025H1.001"/>
  <circle r="0.884" cx="3.737" cy="-57.122" style="fill-rule:evenodd;clip-rule:evenodd;fill:#FFFFFF;"/>
  <circle r="0.884" cx="27.725" cy="-31.766" style="fill-rule:evenodd;clip-rule:evenodd;fill:#FFFFFF;"/>
  <circle r="0.884" cx="31.008" cy="-30.584" style="fill-rule:evenodd;clip-rule:evenodd;fill:#FFFFFF;"/>
  <circle r="0.884" cx="34.208" cy="-30.784" style="fill-rule:evenodd;clip-rule:evenodd;fill:#FFFFFF;"/>
  <circle r="0.884" cx="30.416" cy="-25.55" style="fill-rule:evenodd;clip-rule:evenodd;fill:#FFFFFF;"/>
  <circle r="0.884" cx="34.166" cy="-27.574" style="fill-rule:evenodd;clip-rule:evenodd;fill:#FFFFFF;"/>
  <circle r="0.884" cx="37.566" cy="-29.174" style="fill-rule:evenodd;clip-rule:evenodd;fill:#FFFFFF;"/>
  <circle r="0.884" cx="37.541" cy="-25.925" style="fill-rule:evenodd;clip-rule:evenodd;fill:#FFFFFF;"/>
  <circle r="0.884" cx="37.425" cy="-22.434" style="fill-rule:evenodd;clip-rule:evenodd;fill:#FFFFFF;"/>
  <circle r="0.884" cx="41.416" cy="-21.675" style="fill-rule:evenodd;clip-rule:evenodd;fill:#FFFFFF;"/>
  <circle r="0.884" cx="46.666" cy="-16.925" style="fill-rule:evenodd;clip-rule:evenodd;fill:#FFFFFF;"/>
  <circle r="0.884" cx="48.541" cy="-13.3" style="fill-rule:evenodd;clip-rule:evenodd;fill:#FFFFFF;"/>
  <circle r="0.884" cx="51.541" cy="-10.55" style="fill-rule:evenodd;clip-rule:evenodd;fill:#FFFFFF;"/>
  <circle r="0.884" cx="42.791" cy="-17.425" style="fill-rule:evenodd;clip-rule:evenodd;fill:#FFFFFF;"/>
  <circle r="0.884" cx="41.406" cy="-28.463" style="fill-rule:evenodd;clip-rule:evenodd;fill:#FFFFFF;"/>
  <circle r="0.884" cx="41.425" cy="-25.059" style="fill-rule:evenodd;clip-rule:evenodd;fill:#FFFFFF;"/>
  <circle r="0.884" cx="45.322" cy="-23.533" style="fill-rule:evenodd;clip-rule:evenodd;fill:#FFFFFF;"/>
  <circle r="0.884" cx="45.447" cy="-20.22" style="fill-rule:evenodd;clip-rule:evenodd;fill:#FFFFFF;"/>
  <circle r="0.884" cx="49.47" cy="-19.868" style="fill-rule:evenodd;clip-rule:evenodd;fill:#FFFFFF;"/>
  <circle r="0.884" cx="53.487" cy="-20.809" style="fill-rule:evenodd;clip-rule:evenodd;fill:#FFFFFF;"/>
  <circle r="0.884" cx="50.892" cy="-16.718" style="fill-rule:evenodd;clip-rule:evenodd;fill:#FFFFFF;"/>
  <circle r="0.884" cx="53.392" cy="-13.968" style="fill-rule:evenodd;clip-rule:evenodd;fill:#FFFFFF;"/>
  <circle r="0.884" cx="56.55" cy="-11.002" style="fill-rule:evenodd;clip-rule:evenodd;fill:#FFFFFF;"/>
  <circle r="0.884" cx="54.175" cy="-8.3" style="fill-rule:evenodd;clip-rule:evenodd;fill:#FFFFFF;"/>
  <circle r="0.884" cx="52.362" cy="-4.988" style="fill:#FFFFFF;"/>
  <circle r="0.884" cx="46.425" cy="-5.809" style="fill-rule:evenodd;clip-rule:evenodd;fill:#FFFFFF;"/>
  <circle r="0.884" cx="49.925" cy="-7.434" style="fill-rule:evenodd;clip-rule:evenodd;fill:#FFFFFF;"/>
  <circle r="0.884" cx="48.899" cy="-3.115" style="fill-rule:evenodd;clip-rule:evenodd;fill:#FFFFFF;"/>
  <circle r="0.884" cx="43.3" cy="-3.684" style="fill-rule:evenodd;clip-rule:evenodd;fill:#FFFFFF;"/>
  <circle r="0.884" cx="47.175" cy="-10.059" style="fill-rule:evenodd;clip-rule:evenodd;fill:#FFFFFF;"/>
  <circle r="0.884" cx="43.675" cy="-9.559" style="fill-rule:evenodd;clip-rule:evenodd;fill:#FFFFFF;"/>
  <circle r="0.884" cx="44.3" cy="-13.666" style="fill-rule:evenodd;clip-rule:evenodd;fill:#FFFFFF;"/>
  <circle r="0.884" cx="41.3" cy="-6.684" style="fill-rule:evenodd;clip-rule:evenodd;fill:#FFFFFF;"/>
  <circle r="0.884" cx="37.925" cy="-4.175" style="fill-rule:evenodd;clip-rule:evenodd;fill:#FFFFFF;"/>
  <circle r="0.884" cx="37.175" cy="-8.175" style="fill-rule:evenodd;clip-rule:evenodd;fill:#FFFFFF;"/>
  <circle r="0.884" cx="40.175" cy="-10.925" style="fill-rule:evenodd;clip-rule:evenodd;fill:#FFFFFF;"/>
  <circle r="0.884" cx="39.237" cy="-14.488" style="fill-rule:evenodd;clip-rule:evenodd;fill:#FFFFFF;"/>
  <circle r="0.884" cx="38.05" cy="-18.3" style="fill-rule:evenodd;clip-rule:evenodd;fill:#FFFFFF;"/>
  <circle r="0.884" cx="34.05" cy="-20.05" style="fill-rule:evenodd;clip-rule:evenodd;fill:#FFFFFF;"/>
  <circle r="0.884" cx="33.925" cy="-24.05" style="fill-rule:evenodd;clip-rule:evenodd;fill:#FFFFFF;"/>
  <circle r="0.884" cx="30.425" cy="-21.925" style="fill-rule:evenodd;clip-rule:evenodd;fill:#FFFFFF;"/>
  <circle r="0.884" cx="26.425" cy="-20.55" style="fill-rule:evenodd;clip-rule:evenodd;fill:#FFFFFF;"/>
  <circle r="0.884" cx="22.675" cy="-19.8" style="fill-rule:evenodd;clip-rule:evenodd;fill:#FFFFFF;"/>
  <circle r="0.884" cx="19.55" cy="-20.55" style="fill-rule:evenodd;clip-rule:evenodd;fill:#FFFFFF;"/>
  <circle r="0.884" cx="16.925" cy="-17.05" style="fill-rule:evenodd;clip-rule:evenodd;fill:#FFFFFF;"/>
  <circle r="0.884" cx="12.3" cy="-18.175" style="fill-rule:evenodd;clip-rule:evenodd;fill:#FFFFFF;"/>
  <circle r="0.884" cx="10.175" cy="-15.05" style="fill-rule:evenodd;clip-rule:evenodd;fill:#FFFFFF;"/>
  <circle r="0.884" cx="7.675" cy="-18.675" style="fill-rule:evenodd;clip-rule:evenodd;fill:#FFFFFF;"/>
  <circle r="0.884" cx="3.996" cy="-18.943" style="fill-rule:evenodd;clip-rule:evenodd;fill:#FFFFFF;"/>
  <circle r="0.884" cx="6.568" cy="-22.019" style="fill-rule:evenodd;clip-rule:evenodd;fill:#FFFFFF;"/>
  <circle r="0.884" cx="10.623" cy="-21.211" style="fill-rule:evenodd;clip-rule:evenodd;fill:#FFFFFF;"/>
  <circle r="0.884" cx="15.05" cy="-20.8" style="fill-rule:evenodd;clip-rule:evenodd;fill:#FFFFFF;"/>
  <circle r="0.884" cx="13.737" cy="-24.613" style="fill:#FFFFFF;"/>
  <circle r="0.884" cx="17.921" cy="-23.488" style="fill-rule:evenodd;clip-rule:evenodd;fill:#FFFFFF;"/>
  <circle r="0.884" cx="21.925" cy="-23.425" style="fill-rule:evenodd;clip-rule:evenodd;fill:#FFFFFF;"/>
  <circle r="0.884" cx="26.616" cy="-23.742" style="fill-rule:evenodd;clip-rule:evenodd;fill:#FFFFFF;"/>
  <circle r="0.884" cx="24.149" cy="-26.684" style="fill-rule:evenodd;clip-rule:evenodd;fill:#FFFFFF;"/>
  <circle r="0.884" cx="20.3" cy="-26.809" style="fill:#FFFFFF;"/>
  <circle r="0.884" cx="16.55" cy="-27.309" style="fill-rule:evenodd;clip-rule:evenodd;fill:#FFFFFF;"/>
  <circle r="0.884" cx="16.175" cy="-30.8" style="fill-rule:evenodd;clip-rule:evenodd;fill:#FFFFFF;"/>
  <circle r="0.884" cx="20.3" cy="-30.434" style="fill-rule:evenodd;clip-rule:evenodd;fill:#FFFFFF;"/>
  <circle r="0.884" cx="23.925" cy="-30.434" style="fill-rule:evenodd;clip-rule:evenodd;fill:#FFFFFF;"/>
  <circle r="0.884" cx="28.399" cy="-27.934" style="fill-rule:evenodd;clip-rule:evenodd;fill:#FFFFFF;"/>
  <circle r="0.884" cx="12.675" cy="-28.184" style="fill-rule:evenodd;clip-rule:evenodd;fill:#FFFFFF;"/>
  <circle r="0.884" cx="10.221" cy="-24.585" style="fill-rule:evenodd;clip-rule:evenodd;fill:#FFFFFF;"/>
  <circle r="0.884" cx="8.175" cy="-26.791" style="fill-rule:evenodd;clip-rule:evenodd;fill:#FFFFFF;"/>
  <circle r="0.884" cx="6.188" cy="-29.441" style="fill-rule:evenodd;clip-rule:evenodd;fill:#FFFFFF;"/>
  <circle r="0.884" cx="4.953" cy="-25.134" style="fill-rule:evenodd;clip-rule:evenodd;fill:#FFFFFF;"/>
  <circle r="0.884" cx="2.645" cy="-22.789" style="fill-rule:evenodd;clip-rule:evenodd;fill:#FFFFFF;"/>
  <circle r="0.884" cx="2.854" cy="-27.252" style="fill-rule:evenodd;clip-rule:evenodd;fill:#FFFFFF;"/>
  <circle r="0.884" cx="6.319" cy="-32.682" style="fill-rule:evenodd;clip-rule:evenodd;fill:#FFFFFF;"/>
  <circle r="0.884" cx="3.219" cy="-30.647" style="fill-rule:evenodd;clip-rule:evenodd;fill:#FFFFFF;"/>
  <circle r="0.884" cx="9.494" cy="-29.59" style="fill-rule:evenodd;clip-rule:evenodd;fill:#FFFFFF;"/>
  <circle r="0.884" cx="34.925" cy="-16.05" style="fill-rule:evenodd;clip-rule:evenodd;fill:#FFFFFF;"/>
  <circle r="0.884" cx="36.3" cy="-12.3" style="fill-rule:evenodd;clip-rule:evenodd;fill:#FFFFFF;"/>
  <circle r="0.884" cx="33.175" cy="-9.675" style="fill-rule:evenodd;clip-rule:evenodd;fill:#FFFFFF;"/>
  <circle r="0.884" cx="33.675" cy="-4.925" style="fill-rule:evenodd;clip-rule:evenodd;fill:#FFFFFF;"/>
  <circle r="0.884" cx="31.3" cy="-2.675" style="fill-rule:evenodd;clip-rule:evenodd;fill:#FFFFFF;"/>
  <circle r="0.884" cx="29.987" cy="-6.113" style="fill-rule:evenodd;clip-rule:evenodd;fill:#FFFFFF;"/>
  <circle r="0.884" cx="29.425" cy="-10.559" style="fill-rule:evenodd;clip-rule:evenodd;fill:#FFFFFF;"/>
  <circle r="0.884" cx="32.05" cy="-13.8" style="fill-rule:evenodd;clip-rule:evenodd;fill:#FFFFFF;"/>
  <circle r="0.884" cx="28.05" cy="-15.05" style="fill-rule:evenodd;clip-rule:evenodd;fill:#FFFFFF;"/>
  <circle r="0.884" cx="25.8" cy="-10.675" style="fill-rule:evenodd;clip-rule:evenodd;fill:#FFFFFF;"/>
  <circle r="0.884" cx="26.3" cy="-6.8" style="fill-rule:evenodd;clip-rule:evenodd;fill:#FFFFFF;"/>
  <circle r="0.884" cx="27.425" cy="-3.3" style="fill-rule:evenodd;clip-rule:evenodd;fill:#FFFFFF;"/>
  <circle r="0.884" cx="23.675" cy="-3.05" style="fill-rule:evenodd;clip-rule:evenodd;fill:#FFFFFF;"/>
  <circle r="0.884" cx="22.425" cy="-6.55" style="fill-rule:evenodd;clip-rule:evenodd;fill:#FFFFFF;"/>
  <circle r="0.884" cx="18.425" cy="-6.8" style="fill-rule:evenodd;clip-rule:evenodd;fill:#FFFFFF;"/>
  <circle r="0.884" cx="19.925" cy="-3.55" style="fill-rule:evenodd;clip-rule:evenodd;fill:#FFFFFF;"/>
  <circle r="0.884" cx="16.05" cy="-3.05" style="fill-rule:evenodd;clip-rule:evenodd;fill:#FFFFFF;"/>
  <circle r="0.884" cx="12.05" cy="-3.175" style="fill-rule:evenodd;clip-rule:evenodd;fill:#FFFFFF;"/>
  <path style="fill-rule:evenodd;clip-rule:evenodd;fill:#FFFFFF;" d="M10.745-1c0.001-0.017,0.002-0.033,0.002-0.05    c0-0.488-0.396-0.884-0.884-0.884c-0.487,0-0.884,0.396-0.884,0.884c0,0.017,0.001,0.034,0.002,0.05"/>
  <circle r="0.884" cx="8.425" cy="-4.434" style="fill-rule:evenodd;clip-rule:evenodd;fill:#FFFFFF;"/>
  <circle r="0.884" cx="5.3" cy="-2.309" style="fill-rule:evenodd;clip-rule:evenodd;fill:#FFFFFF;"/>
  <circle r="0.884" cx="4.425" cy="-6.434" style="fill-rule:evenodd;clip-rule:evenodd;fill:#FFFFFF;"/>
  <circle r="0.884" cx="2.258" cy="-3.726" style="fill-rule:evenodd;clip-rule:evenodd;fill:#FFFFFF;"/>
  <path style="fill-rule:evenodd;clip-rule:evenodd;fill:#FFFFFF;" d="M1.001-1h0.828C1.817-1.459,1.455-1.83,1-1.857V-1"/>
  <circle r="0.884" cx="2.416" cy="-13.175" style="fill-rule:evenodd;clip-rule:evenodd;fill:#FFFFFF;"/>
  <circle r="0.884" cx="5.416" cy="-15.05" style="fill-rule:evenodd;clip-rule:evenodd;fill:#FFFFFF;"/>
  <circle r="0.884" cx="7.791" cy="-12.3" style="fill-rule:evenodd;clip-rule:evenodd;fill:#FFFFFF;"/>
  <circle r="0.884" cx="12.416" cy="-10.8" style="fill-rule:evenodd;clip-rule:evenodd;fill:#FFFFFF;"/>
  <circle r="0.884" cx="14.291" cy="-14.3" style="fill-rule:evenodd;clip-rule:evenodd;fill:#FFFFFF;"/>
  <circle r="0.884" cx="18.416" cy="-13.05" style="fill-rule:evenodd;clip-rule:evenodd;fill:#FFFFFF;"/>
  <circle r="0.884" cx="23.041" cy="-13.675" style="fill-rule:evenodd;clip-rule:evenodd;fill:#FFFFFF;"/>
  <circle r="0.884" cx="25.041" cy="-16.925" style="fill-rule:evenodd;clip-rule:evenodd;fill:#FFFFFF;"/>
  <circle r="0.884" cx="30.916" cy="-17.925" style="fill-rule:evenodd;clip-rule:evenodd;fill:#FFFFFF;"/>
  <circle r="0.884" cx="20.166" cy="-16.3" style="fill-rule:evenodd;clip-rule:evenodd;fill:#FFFFFF;"/>
  <circle r="0.884" cx="7.55" cy="-8.434" style="fill-rule:evenodd;clip-rule:evenodd;fill:#FFFFFF;"/>
  <path style="fill-rule:evenodd;clip-rule:evenodd;fill:#FFFFFF;" d="M1-9.037c0.471,0.02,0.846,0.408,0.846,0.883    C1.846-7.679,1.47-7.293,1-7.273"/>
  <circle r="0.884" cx="10.791" cy="-7.3" style="fill-rule:evenodd;clip-rule:evenodd;fill:#FFFFFF;"/>
  <circle r="0.884" cx="14.041" cy="-6.675" style="fill-rule:evenodd;clip-rule:evenodd;fill:#FFFFFF;"/>
  <circle r="0.884" cx="16.041" cy="-9.925" style="fill-rule:evenodd;clip-rule:evenodd;fill:#FFFFFF;"/>
  <circle r="0.884" cx="20.916" cy="-10.05" style="fill-rule:evenodd;clip-rule:evenodd;fill:#FFFFFF;"/>
  <circle r="0.884" cx="4.3" cy="-10.434" style="fill-rule:evenodd;clip-rule:evenodd;fill:#FFFFFF;"/>
  <circle r="0.884" cx="56.8" cy="-5.55" style="fill-rule:evenodd;clip-rule:evenodd;fill:#FFFFFF;"/>
  <circle r="0.884" cx="55.05" cy="-2.55" style="fill-rule:evenodd;clip-rule:evenodd;fill:#FFFFFF;"/>
  <circle r="0.884" cx="26.916" cy="-47.175" style="fill-rule:evenodd;clip-rule:evenodd;fill:#FFFFFF;"/>
  <circle r="0.884" cx="24.854" cy="-49.675" style="fill-rule:evenodd;clip-rule:evenodd;fill:#FFFFFF;"/>
  <circle r="0.884" cx="22.612" cy="-51.997" style="fill-rule:evenodd;clip-rule:evenodd;fill:#FFFFFF;"/>
  <circle r="0.884" cx="21.175" cy="-55.059" style="fill-rule:evenodd;clip-rule:evenodd;fill:#FFFFFF;"/>
  <circle r="0.884" cx="19.425" cy="-57.559" style="fill-rule:evenodd;clip-rule:evenodd;fill:#FFFFFF;"/>
  <circle r="0.884" cx="31.976" cy="-57.526" style="fill-rule:evenodd;clip-rule:evenodd;fill:#FFFFFF;"/>
 </g>
</svg>
