<?xml version="1.0"?>
<!-- Converted with SVG Converter - Version 0.9.5 (Compiled Fri Feb 21 09:53:38 2020) - Copyright (C) 2011 Nokia -->
<svg xmlns="http://www.w3.org/2000/svg" x="0px" width="57.6" viewBox="1 -58.6 57.6 57.6" baseProfile="tiny" xmlns:xlink="http://www.w3.org/1999/xlink" xml:space="preserve" height="57.6" y="0px" version="1.1">
 <g>
  <rect x="1" style="fill:none;" width="57.6" height="57.6" y="-58.6"/>
  <circle cy="-56.238" style="fill-rule:evenodd;clip-rule:evenodd;fill:#00AEEF;" cx="54.987" r="0.884"/>
  <circle cy="-56.05" style="fill-rule:evenodd;clip-rule:evenodd;fill:#00AEEF;" cx="49.425" r="0.884"/>
  <path style="fill-rule:evenodd;clip-rule:evenodd;fill:#00AEEF;" d="M46.641-58.6c-0.01,0.48-0.401,0.866-0.883,0.866    c-0.481,0-0.874-0.386-0.883-0.866"/>
  <path style="fill-rule:evenodd;clip-rule:evenodd;fill:#00AEEF;" d="M51.089-58.6c0,0.011-0.001,0.023-0.001,0.034    c0,0.488,0.397,0.884,0.884,0.884c0.488,0,0.884-0.396,0.884-0.884c0-0.012,0-0.023-0.001-0.034"/>
  <path style="fill-rule:evenodd;clip-rule:evenodd;fill:#00AEEF;" d="M51.07-1c0.025-0.465,0.411-0.835,0.882-0.835    c0.472,0,0.857,0.37,0.882,0.835"/>
  <path style="fill-rule:evenodd;clip-rule:evenodd;fill:#00AEEF;" d="M58.6-18.959c-0.007,0-0.015,0-0.022,0    c-0.487,0-0.884,0.396-0.884,0.884c0,0.488,0.396,0.884,0.884,0.884c0.007,0,0.015,0,0.022,0"/>
  <path style="fill-rule:evenodd;clip-rule:evenodd;fill:#00AEEF;" d="M58.6-9.022c-0.007,0-0.015,0-0.022,0    c-0.487,0-0.884,0.396-0.884,0.884c0,0.488,0.396,0.884,0.884,0.884c0.007,0,0.015,0,0.022-0.001"/>
  <path style="fill-rule:evenodd;clip-rule:evenodd;fill:#00AEEF;" d="M58.6-1.008v-0.826c-0.007,0-0.015-0.001-0.022-0.001    c-0.471,0-0.857,0.37-0.882,0.835H58.6"/>
  <path style="fill-rule:evenodd;clip-rule:evenodd;fill:#00AEEF;" d="M58.6-58.571v0.826c-0.007,0-0.015,0-0.022,0    c-0.471,0-0.857-0.37-0.882-0.835H58.6"/>
  <path style="fill-rule:evenodd;clip-rule:evenodd;fill:#00AEEF;" d="M36.148-1c0-0.005,0-0.009,0-0.014    c0-0.488-0.396-0.884-0.884-0.884c-0.487,0-0.884,0.396-0.884,0.884c0,0.005,0,0.009,0,0.014"/>
  <path style="fill-rule:evenodd;clip-rule:evenodd;fill:#00AEEF;" d="M41.197-1c0-0.006,0-0.012,0-0.018    c0-0.488-0.396-0.884-0.884-0.884c-0.487,0-0.884,0.396-0.884,0.884c0,0.006,0,0.012,0,0.018"/>
  <path style="fill-rule:evenodd;clip-rule:evenodd;fill:#00AEEF;" d="M46.648-1c0-0.005,0-0.009,0-0.014    c0-0.488-0.396-0.884-0.884-0.884c-0.487,0-0.884,0.396-0.884,0.884c0,0.005,0,0.009,0,0.014"/>
  <circle cy="-55.068" style="fill-rule:evenodd;clip-rule:evenodd;fill:#00AEEF;" cx="45.809" r="0.884"/>
  <path style="fill-rule:evenodd;clip-rule:evenodd;fill:#00AEEF;" d="M41.254-58.6c-0.016,0.474-0.405,0.854-0.883,0.854    c-0.477,0-0.867-0.379-0.883-0.854"/>
  <circle cy="-54.8" style="fill-rule:evenodd;clip-rule:evenodd;fill:#00AEEF;" cx="41.925" r="0.884"/>
  <circle cy="-55.05" style="fill-rule:evenodd;clip-rule:evenodd;fill:#00AEEF;" cx="37.675" r="0.884"/>
  <path style="fill-rule:evenodd;clip-rule:evenodd;fill:#00AEEF;" d="M36.183-58.6c-0.007,0.482-0.4,0.872-0.883,0.872    c-0.483,0-0.876-0.389-0.883-0.872"/>
  <circle cy="-54.3" style="fill-rule:evenodd;clip-rule:evenodd;fill:#00AEEF;" cx="34.05" r="0.884"/>
  <circle cy="-54.3" style="fill-rule:evenodd;clip-rule:evenodd;fill:#00AEEF;" cx="29.925" r="0.884"/>
  <circle cy="-57.425" style="fill-rule:evenodd;clip-rule:evenodd;fill:#00AEEF;" cx="28.05" r="0.884"/>
  <circle cy="-57.425" style="fill-rule:evenodd;clip-rule:evenodd;fill:#00AEEF;" cx="23.925" r="0.884"/>
  <circle cy="-54.059" style="fill-rule:evenodd;clip-rule:evenodd;fill:#00AEEF;" cx="26.05" r="0.884"/>
  <circle cy="-50.925" style="fill-rule:evenodd;clip-rule:evenodd;fill:#00AEEF;" cx="28.175" r="0.884"/>
  <circle cy="-51.175" style="fill-rule:evenodd;clip-rule:evenodd;fill:#00AEEF;" cx="32.05" r="0.884"/>
  <circle cy="-51.675" style="fill-rule:evenodd;clip-rule:evenodd;fill:#00AEEF;" cx="36.175" r="0.884"/>
  <circle cy="-51.425" style="fill-rule:evenodd;clip-rule:evenodd;fill:#00AEEF;" cx="40.425" r="0.884"/>
  <circle cy="-51.675" style="fill-rule:evenodd;clip-rule:evenodd;fill:#00AEEF;" cx="44.925" r="0.884"/>
  <circle cy="-52.488" style="fill-rule:evenodd;clip-rule:evenodd;fill:#00AEEF;" cx="48.737" r="0.884"/>
  <circle cy="-53.488" style="fill-rule:evenodd;clip-rule:evenodd;fill:#00AEEF;" cx="52.05" r="0.884"/>
  <circle cy="-52.568" style="fill-rule:evenodd;clip-rule:evenodd;fill:#00AEEF;" cx="55.559" r="0.884"/>
  <circle cy="-49.559" style="fill-rule:evenodd;clip-rule:evenodd;fill:#00AEEF;" cx="54.362" r="0.884"/>
  <path style="fill-rule:evenodd;clip-rule:evenodd;fill:#00AEEF;" d="M58.6-55.564c-0.452,0.038-0.809,0.418-0.809,0.88    c0,0.463,0.356,0.842,0.809,0.88"/>
  <path style="fill-rule:evenodd;clip-rule:evenodd;fill:#00AEEF;" d="M58.6-50.38c-0.481,0.007-0.871,0.4-0.871,0.883    c0,0.484,0.39,0.877,0.871,0.884"/>
  <circle cy="-45.693" style="fill-rule:evenodd;clip-rule:evenodd;fill:#00AEEF;" cx="56.309" r="0.884"/>
  <path style="fill-rule:evenodd;clip-rule:evenodd;fill:#00AEEF;" d="M58.6-43.772c-0.01,0-0.019-0.001-0.028-0.001    c-0.487,0-0.884,0.396-0.884,0.884c0,0.488,0.396,0.884,0.884,0.884c0.01,0,0.019-0.001,0.028-0.001"/>
  <circle cy="-46.425" style="fill-rule:evenodd;clip-rule:evenodd;fill:#00AEEF;" cx="52.229" r="0.884"/>
  <circle cy="-42.872" style="fill-rule:evenodd;clip-rule:evenodd;fill:#00AEEF;" cx="53.862" r="0.884"/>
  <circle cy="-40.068" style="fill-rule:evenodd;clip-rule:evenodd;fill:#00AEEF;" cx="55.934" r="0.884"/>
  <circle cy="-36.309" style="fill-rule:evenodd;clip-rule:evenodd;fill:#00AEEF;" cx="57.05" r="0.884"/>
  <circle cy="-32.318" style="fill-rule:evenodd;clip-rule:evenodd;fill:#00AEEF;" cx="55.121" r="0.884"/>
  <circle cy="-29.663" style="fill-rule:evenodd;clip-rule:evenodd;fill:#00AEEF;" cx="57.133" r="0.884"/>
  <circle cy="-35.559" style="fill-rule:evenodd;clip-rule:evenodd;fill:#00AEEF;" cx="53.55" r="0.884"/>
  <circle cy="-38.497" style="fill-rule:evenodd;clip-rule:evenodd;fill:#00AEEF;" cx="52.3" r="0.884"/>
  <circle cy="-42.247" style="fill-rule:evenodd;clip-rule:evenodd;fill:#00AEEF;" cx="50.612" r="0.884"/>
  <circle cy="-41.934" style="fill-rule:evenodd;clip-rule:evenodd;fill:#00AEEF;" cx="46.8" r="0.884"/>
  <circle cy="-38.559" style="fill-rule:evenodd;clip-rule:evenodd;fill:#00AEEF;" cx="48.8" r="0.884"/>
  <circle cy="-34.809" style="fill-rule:evenodd;clip-rule:evenodd;fill:#00AEEF;" cx="49.925" r="0.884"/>
  <circle cy="-31.287" style="fill-rule:evenodd;clip-rule:evenodd;fill:#00AEEF;" cx="52.036" r="0.884"/>
  <circle cy="-28.15" style="fill-rule:evenodd;clip-rule:evenodd;fill:#00AEEF;" cx="53.642" r="0.884"/>
  <circle cy="-25.309" style="fill-rule:evenodd;clip-rule:evenodd;fill:#00AEEF;" cx="56.8" r="0.884"/>
  <circle cy="-24.497" style="fill-rule:evenodd;clip-rule:evenodd;fill:#00AEEF;" cx="53.362" r="0.884"/>
  <circle cy="-26.926" style="fill-rule:evenodd;clip-rule:evenodd;fill:#00AEEF;" cx="49.476" r="0.884"/>
  <circle cy="-30.459" style="fill-rule:evenodd;clip-rule:evenodd;fill:#00AEEF;" cx="48.74" r="0.884"/>
  <circle cy="-33.224" style="fill-rule:evenodd;clip-rule:evenodd;fill:#00AEEF;" cx="45.871" r="0.884"/>
  <circle cy="-30.278" style="fill-rule:evenodd;clip-rule:evenodd;fill:#00AEEF;" cx="45.282" r="0.884"/>
  <circle cy="-35.994" style="fill-rule:evenodd;clip-rule:evenodd;fill:#00AEEF;" cx="46.146" r="0.884"/>
  <circle cy="-39.184" style="fill-rule:evenodd;clip-rule:evenodd;fill:#00AEEF;" cx="44.425" r="0.884"/>
  <circle cy="-42.059" style="fill-rule:evenodd;clip-rule:evenodd;fill:#00AEEF;" cx="42.3" r="0.884"/>
  <circle cy="-39.184" style="fill-rule:evenodd;clip-rule:evenodd;fill:#00AEEF;" cx="40.175" r="0.884"/>
  <circle cy="-41.559" style="fill-rule:evenodd;clip-rule:evenodd;fill:#00AEEF;" cx="37.8" r="0.884"/>
  <circle cy="-35.809" style="fill-rule:evenodd;clip-rule:evenodd;fill:#00AEEF;" cx="42.425" r="0.884"/>
  <circle cy="-31.912" style="fill-rule:evenodd;clip-rule:evenodd;fill:#00AEEF;" cx="41.762" r="0.884"/>
  <circle cy="-27.039" style="fill-rule:evenodd;clip-rule:evenodd;fill:#00AEEF;" cx="45.524" r="0.884"/>
  <circle cy="-23.618" style="fill-rule:evenodd;clip-rule:evenodd;fill:#00AEEF;" cx="49.657" r="0.884"/>
  <circle cy="-21.568" style="fill-rule:evenodd;clip-rule:evenodd;fill:#00AEEF;" cx="57.309" r="0.884"/>
  <circle cy="-17.468" style="fill-rule:evenodd;clip-rule:evenodd;fill:#00AEEF;" cx="54.642" r="0.884"/>
  <path style="fill-rule:evenodd;clip-rule:evenodd;fill:#00AEEF;" d="M1-17.224c0.016,0.001,0.032,0.001,0.048,0.001    c0.488,0,0.884-0.396,0.884-0.884c0-0.488-0.395-0.884-0.884-0.884c-0.016,0-0.032,0-0.048,0.001"/>
  <circle cy="-14.727" style="fill-rule:evenodd;clip-rule:evenodd;fill:#00AEEF;" cx="56.838" r="0.884"/>
  <circle cy="-45.809" style="fill-rule:evenodd;clip-rule:evenodd;fill:#00AEEF;" cx="48.487" r="0.884"/>
  <circle cy="-48.425" style="fill-rule:evenodd;clip-rule:evenodd;fill:#00AEEF;" cx="46.291" r="0.884"/>
  <circle cy="-49.425" style="fill-rule:evenodd;clip-rule:evenodd;fill:#00AEEF;" cx="50.041" r="0.884"/>
  <circle cy="-45.55" style="fill-rule:evenodd;clip-rule:evenodd;fill:#00AEEF;" cx="44.166" r="0.884"/>
  <circle cy="-48.8" style="fill-rule:evenodd;clip-rule:evenodd;fill:#00AEEF;" cx="42.291" r="0.884"/>
  <circle cy="-48.3" style="fill-rule:evenodd;clip-rule:evenodd;fill:#00AEEF;" cx="38.416" r="0.884"/>
  <circle cy="-45.425" style="fill-rule:evenodd;clip-rule:evenodd;fill:#00AEEF;" cx="40.291" r="0.884"/>
  <circle cy="-44.925" style="fill-rule:evenodd;clip-rule:evenodd;fill:#00AEEF;" cx="36.541" r="0.884"/>
  <circle cy="-48.3" style="fill-rule:evenodd;clip-rule:evenodd;fill:#00AEEF;" cx="34.791" r="0.884"/>
  <circle cy="-48.175" style="fill-rule:evenodd;clip-rule:evenodd;fill:#00AEEF;" cx="30.541" r="0.884"/>
  <circle cy="-44.55" style="fill-rule:evenodd;clip-rule:evenodd;fill:#00AEEF;" cx="32.541" r="0.884"/>
  <circle cy="-44.05" style="fill-rule:evenodd;clip-rule:evenodd;fill:#00AEEF;" cx="28.916" r="0.884"/>
  <circle cy="-40.968" style="fill:#00AEEF;" cx="30.366" r="0.884"/>
  <circle cy="-41.059" style="fill-rule:evenodd;clip-rule:evenodd;fill:#00AEEF;" cx="34.175" r="0.884"/>
  <circle cy="-37.559" style="fill-rule:evenodd;clip-rule:evenodd;fill:#00AEEF;" cx="36.175" r="0.884"/>
  <circle cy="-35.847" style="fill-rule:evenodd;clip-rule:evenodd;fill:#00AEEF;" cx="38.896" r="0.884"/>
  <circle cy="-32.386" style="fill-rule:evenodd;clip-rule:evenodd;fill:#00AEEF;" cx="37.958" r="0.884"/>
  <circle cy="-34.401" style="fill-rule:evenodd;clip-rule:evenodd;fill:#00AEEF;" cx="34.458" r="0.884"/>
  <circle cy="-37.8" style="fill-rule:evenodd;clip-rule:evenodd;fill:#00AEEF;" cx="32.3" r="0.884"/>
  <circle cy="-34.363" style="fill-rule:evenodd;clip-rule:evenodd;fill:#00AEEF;" cx="30.612" r="0.884"/>
  <circle cy="-37.363" style="fill-rule:evenodd;clip-rule:evenodd;fill:#00AEEF;" cx="28.179" r="0.884"/>
  <circle cy="-40.488" style="fill-rule:evenodd;clip-rule:evenodd;fill:#00AEEF;" cx="26.366" r="0.884"/>
  <circle cy="-43.55" style="fill-rule:evenodd;clip-rule:evenodd;fill:#00AEEF;" cx="24.929" r="0.884"/>
  <circle cy="-46.925" style="fill-rule:evenodd;clip-rule:evenodd;fill:#00AEEF;" cx="23.083" r="0.884"/>
  <circle cy="-49.425" style="fill-rule:evenodd;clip-rule:evenodd;fill:#00AEEF;" cx="19.987" r="0.884"/>
  <circle cy="-52.925" style="fill-rule:evenodd;clip-rule:evenodd;fill:#00AEEF;" cx="18.3" r="0.884"/>
  <circle cy="-55.363" style="fill-rule:evenodd;clip-rule:evenodd;fill:#00AEEF;" cx="16.487" r="0.884"/>
  <circle cy="-57.425" style="fill-rule:evenodd;clip-rule:evenodd;fill:#00AEEF;" cx="14.425" r="0.884"/>
  <circle cy="-55.131" style="fill-rule:evenodd;clip-rule:evenodd;fill:#00AEEF;" cx="11.621" r="0.884"/>
  <path style="fill-rule:evenodd;clip-rule:evenodd;fill:#00AEEF;" d="M10.734-58.6c-0.009,0.48-0.401,0.866-0.883,0.866    c-0.481,0-0.874-0.387-0.883-0.866"/>
  <circle cy="-52.925" style="fill-rule:evenodd;clip-rule:evenodd;fill:#00AEEF;" cx="13.916" r="0.884"/>
  <circle cy="-49.8" style="fill-rule:evenodd;clip-rule:evenodd;fill:#00AEEF;" cx="15.541" r="0.884"/>
  <circle cy="-46.391" style="fill-rule:evenodd;clip-rule:evenodd;fill:#00AEEF;" cx="19.107" r="0.884"/>
  <circle cy="-43.3" style="fill-rule:evenodd;clip-rule:evenodd;fill:#00AEEF;" cx="20.541" r="0.884"/>
  <circle cy="-40.55" style="fill-rule:evenodd;clip-rule:evenodd;fill:#00AEEF;" cx="22.416" r="0.884"/>
  <circle cy="-37.55" style="fill-rule:evenodd;clip-rule:evenodd;fill:#00AEEF;" cx="23.791" r="0.884"/>
  <circle cy="-34.425" style="fill-rule:evenodd;clip-rule:evenodd;fill:#00AEEF;" cx="25.791" r="0.884"/>
  <circle cy="-34.05" style="fill-rule:evenodd;clip-rule:evenodd;fill:#00AEEF;" cx="21.675" r="0.884"/>
  <circle cy="-33.675" style="fill-rule:evenodd;clip-rule:evenodd;fill:#00AEEF;" cx="18.3" r="0.884"/>
  <circle cy="-34.266" style="fill-rule:evenodd;clip-rule:evenodd;fill:#00AEEF;" cx="13.983" r="0.884"/>
  <circle cy="-31.8" style="fill-rule:evenodd;clip-rule:evenodd;fill:#00AEEF;" cx="11.675" r="0.884"/>
  <circle cy="-34.398" style="fill-rule:evenodd;clip-rule:evenodd;fill:#00AEEF;" cx="8.747" r="0.884"/>
  <circle cy="-35.869" style="fill-rule:evenodd;clip-rule:evenodd;fill:#00AEEF;" cx="4.581" r="0.884"/>
  <circle cy="-36.492" style="fill-rule:evenodd;clip-rule:evenodd;fill:#00AEEF;" cx="10.667" r="0.884"/>
  <circle cy="-33.452" style="fill-rule:evenodd;clip-rule:evenodd;fill:#00AEEF;" cx="2.049" r="0.884"/>
  <circle cy="-38.811" style="fill-rule:evenodd;clip-rule:evenodd;fill:#00AEEF;" cx="2.498" r="0.884"/>
  <circle cy="-41.925" style="fill-rule:evenodd;clip-rule:evenodd;fill:#00AEEF;" cx="4.987" r="0.884"/>
  <circle cy="-38.425" style="fill-rule:evenodd;clip-rule:evenodd;fill:#00AEEF;" cx="7.05" r="0.884"/>
  <circle cy="-38.959" style="fill-rule:evenodd;clip-rule:evenodd;fill:#00AEEF;" cx="12.383" r="0.884"/>
  <circle cy="-37.425" style="fill-rule:evenodd;clip-rule:evenodd;fill:#00AEEF;" cx="20.041" r="0.884"/>
  <circle cy="-37.15" style="fill-rule:evenodd;clip-rule:evenodd;fill:#00AEEF;" cx="16.267" r="0.884"/>
  <circle cy="-41.376" style="fill-rule:evenodd;clip-rule:evenodd;fill:#00AEEF;" cx="14.642" r="0.884"/>
  <circle cy="-40.275" style="fill-rule:evenodd;clip-rule:evenodd;fill:#00AEEF;" cx="18.267" r="0.884"/>
  <circle cy="-43.934" style="fill-rule:evenodd;clip-rule:evenodd;fill:#00AEEF;" cx="17.05" r="0.884"/>
  <circle cy="-46.434" style="fill-rule:evenodd;clip-rule:evenodd;fill:#00AEEF;" cx="14.425" r="0.884"/>
  <circle cy="-44.184" style="fill-rule:evenodd;clip-rule:evenodd;fill:#00AEEF;" cx="12.425" r="0.884"/>
  <circle cy="-41.684" style="fill-rule:evenodd;clip-rule:evenodd;fill:#00AEEF;" cx="9.267" r="0.884"/>
  <circle cy="-44.809" style="fill-rule:evenodd;clip-rule:evenodd;fill:#00AEEF;" cx="7.55" r="0.884"/>
  <circle cy="-45.247" style="fill-rule:evenodd;clip-rule:evenodd;fill:#00AEEF;" cx="3.55" r="0.884"/>
  <path style="fill-rule:evenodd;clip-rule:evenodd;fill:#00AEEF;" d="M1-41.988c0.482-0.007,0.871-0.399,0.871-0.883    c0-0.483-0.389-0.877-0.871-0.883"/>
  <circle cy="-47.997" style="fill-rule:evenodd;clip-rule:evenodd;fill:#00AEEF;" cx="5.425" r="0.884"/>
  <path style="fill-rule:evenodd;clip-rule:evenodd;fill:#00AEEF;" d="M1-48.572c0.477-0.013,0.859-0.403,0.859-0.883    c0-0.48-0.382-0.87-0.859-0.883"/>
  <circle cy="-47.184" style="fill-rule:evenodd;clip-rule:evenodd;fill:#00AEEF;" cx="10.3" r="0.884"/>
  <circle cy="-50.309" style="fill-rule:evenodd;clip-rule:evenodd;fill:#00AEEF;" cx="7.862" r="0.884"/>
  <circle cy="-50.059" style="fill-rule:evenodd;clip-rule:evenodd;fill:#00AEEF;" cx="12.05" r="0.884"/>
  <circle cy="-52.55" style="fill-rule:evenodd;clip-rule:evenodd;fill:#00AEEF;" cx="9.541" r="0.884"/>
  <circle cy="-53.747" style="fill-rule:evenodd;clip-rule:evenodd;fill:#00AEEF;" cx="5.925" r="0.884"/>
  <path style="fill-rule:evenodd;clip-rule:evenodd;fill:#00AEEF;" d="M1-53.801c0.482-0.007,0.871-0.399,0.871-0.883    c0-0.483-0.389-0.877-0.871-0.883"/>
  <circle cy="-51.434" style="fill-rule:evenodd;clip-rule:evenodd;fill:#00AEEF;" cx="3.55" r="0.884"/>
  <circle cy="-56.075" style="fill-rule:evenodd;clip-rule:evenodd;fill:#00AEEF;" cx="7.779" r="0.884"/>
  <path style="fill-rule:evenodd;clip-rule:evenodd;fill:#00AEEF;" d="M1-58.6v0.908c0.473-0.018,0.851-0.405,0.851-0.882    c0-0.008,0-0.017-0.001-0.025H1.001"/>
  <circle cy="-57.122" style="fill-rule:evenodd;clip-rule:evenodd;fill:#00AEEF;" cx="3.737" r="0.884"/>
  <circle cy="-31.766" style="fill-rule:evenodd;clip-rule:evenodd;fill:#00AEEF;" cx="27.725" r="0.884"/>
  <circle cy="-30.584" style="fill-rule:evenodd;clip-rule:evenodd;fill:#00AEEF;" cx="31.008" r="0.884"/>
  <circle cy="-30.784" style="fill-rule:evenodd;clip-rule:evenodd;fill:#00AEEF;" cx="34.208" r="0.884"/>
  <circle cy="-25.55" style="fill-rule:evenodd;clip-rule:evenodd;fill:#00AEEF;" cx="30.416" r="0.884"/>
  <circle cy="-27.574" style="fill-rule:evenodd;clip-rule:evenodd;fill:#00AEEF;" cx="34.166" r="0.884"/>
  <circle cy="-29.174" style="fill-rule:evenodd;clip-rule:evenodd;fill:#00AEEF;" cx="37.566" r="0.884"/>
  <circle cy="-25.925" style="fill-rule:evenodd;clip-rule:evenodd;fill:#00AEEF;" cx="37.541" r="0.884"/>
  <circle cy="-22.434" style="fill-rule:evenodd;clip-rule:evenodd;fill:#00AEEF;" cx="37.425" r="0.884"/>
  <circle cy="-21.675" style="fill-rule:evenodd;clip-rule:evenodd;fill:#00AEEF;" cx="41.416" r="0.884"/>
  <circle cy="-16.925" style="fill-rule:evenodd;clip-rule:evenodd;fill:#00AEEF;" cx="46.666" r="0.884"/>
  <circle cy="-13.3" style="fill-rule:evenodd;clip-rule:evenodd;fill:#00AEEF;" cx="48.541" r="0.884"/>
  <circle cy="-10.55" style="fill-rule:evenodd;clip-rule:evenodd;fill:#00AEEF;" cx="51.541" r="0.884"/>
  <circle cy="-17.425" style="fill-rule:evenodd;clip-rule:evenodd;fill:#00AEEF;" cx="42.791" r="0.884"/>
  <circle cy="-28.463" style="fill-rule:evenodd;clip-rule:evenodd;fill:#00AEEF;" cx="41.406" r="0.884"/>
  <circle cy="-25.059" style="fill-rule:evenodd;clip-rule:evenodd;fill:#00AEEF;" cx="41.425" r="0.884"/>
  <circle cy="-23.533" style="fill-rule:evenodd;clip-rule:evenodd;fill:#00AEEF;" cx="45.322" r="0.884"/>
  <circle cy="-20.22" style="fill-rule:evenodd;clip-rule:evenodd;fill:#00AEEF;" cx="45.447" r="0.884"/>
  <circle cy="-19.868" style="fill-rule:evenodd;clip-rule:evenodd;fill:#00AEEF;" cx="49.47" r="0.884"/>
  <circle cy="-20.809" style="fill-rule:evenodd;clip-rule:evenodd;fill:#00AEEF;" cx="53.487" r="0.884"/>
  <circle cy="-16.718" style="fill-rule:evenodd;clip-rule:evenodd;fill:#00AEEF;" cx="50.892" r="0.884"/>
  <circle cy="-13.968" style="fill-rule:evenodd;clip-rule:evenodd;fill:#00AEEF;" cx="53.392" r="0.884"/>
  <circle cy="-11.002" style="fill-rule:evenodd;clip-rule:evenodd;fill:#00AEEF;" cx="56.55" r="0.884"/>
  <circle cy="-8.3" style="fill-rule:evenodd;clip-rule:evenodd;fill:#00AEEF;" cx="54.175" r="0.884"/>
  <circle cy="-4.988" style="fill:#00AEEF;" cx="52.362" r="0.884"/>
  <circle cy="-5.809" style="fill-rule:evenodd;clip-rule:evenodd;fill:#00AEEF;" cx="46.425" r="0.884"/>
  <circle cy="-7.434" style="fill-rule:evenodd;clip-rule:evenodd;fill:#00AEEF;" cx="49.925" r="0.884"/>
  <circle cy="-3.115" style="fill-rule:evenodd;clip-rule:evenodd;fill:#00AEEF;" cx="48.899" r="0.884"/>
  <circle cy="-3.684" style="fill-rule:evenodd;clip-rule:evenodd;fill:#00AEEF;" cx="43.3" r="0.884"/>
  <circle cy="-10.059" style="fill-rule:evenodd;clip-rule:evenodd;fill:#00AEEF;" cx="47.175" r="0.884"/>
  <circle cy="-9.559" style="fill-rule:evenodd;clip-rule:evenodd;fill:#00AEEF;" cx="43.675" r="0.884"/>
  <circle cy="-13.666" style="fill-rule:evenodd;clip-rule:evenodd;fill:#00AEEF;" cx="44.3" r="0.884"/>
  <circle cy="-6.684" style="fill-rule:evenodd;clip-rule:evenodd;fill:#00AEEF;" cx="41.3" r="0.884"/>
  <circle cy="-4.175" style="fill-rule:evenodd;clip-rule:evenodd;fill:#00AEEF;" cx="37.925" r="0.884"/>
  <circle cy="-8.175" style="fill-rule:evenodd;clip-rule:evenodd;fill:#00AEEF;" cx="37.175" r="0.884"/>
  <circle cy="-10.925" style="fill-rule:evenodd;clip-rule:evenodd;fill:#00AEEF;" cx="40.175" r="0.884"/>
  <circle cy="-14.488" style="fill-rule:evenodd;clip-rule:evenodd;fill:#00AEEF;" cx="39.237" r="0.884"/>
  <circle cy="-18.3" style="fill-rule:evenodd;clip-rule:evenodd;fill:#00AEEF;" cx="38.05" r="0.884"/>
  <circle cy="-20.05" style="fill-rule:evenodd;clip-rule:evenodd;fill:#00AEEF;" cx="34.05" r="0.884"/>
  <circle cy="-24.05" style="fill-rule:evenodd;clip-rule:evenodd;fill:#00AEEF;" cx="33.925" r="0.884"/>
  <circle cy="-21.925" style="fill-rule:evenodd;clip-rule:evenodd;fill:#00AEEF;" cx="30.425" r="0.884"/>
  <circle cy="-20.55" style="fill-rule:evenodd;clip-rule:evenodd;fill:#00AEEF;" cx="26.425" r="0.884"/>
  <circle cy="-19.8" style="fill-rule:evenodd;clip-rule:evenodd;fill:#00AEEF;" cx="22.675" r="0.884"/>
  <circle cy="-20.55" style="fill-rule:evenodd;clip-rule:evenodd;fill:#00AEEF;" cx="19.55" r="0.884"/>
  <circle cy="-17.05" style="fill-rule:evenodd;clip-rule:evenodd;fill:#00AEEF;" cx="16.925" r="0.884"/>
  <circle cy="-18.175" style="fill-rule:evenodd;clip-rule:evenodd;fill:#00AEEF;" cx="12.3" r="0.884"/>
  <circle cy="-15.05" style="fill-rule:evenodd;clip-rule:evenodd;fill:#00AEEF;" cx="10.175" r="0.884"/>
  <circle cy="-18.675" style="fill-rule:evenodd;clip-rule:evenodd;fill:#00AEEF;" cx="7.675" r="0.884"/>
  <circle cy="-18.943" style="fill-rule:evenodd;clip-rule:evenodd;fill:#00AEEF;" cx="3.996" r="0.884"/>
  <circle cy="-22.019" style="fill-rule:evenodd;clip-rule:evenodd;fill:#00AEEF;" cx="6.568" r="0.884"/>
  <circle cy="-21.211" style="fill-rule:evenodd;clip-rule:evenodd;fill:#00AEEF;" cx="10.623" r="0.884"/>
  <circle cy="-20.8" style="fill-rule:evenodd;clip-rule:evenodd;fill:#00AEEF;" cx="15.05" r="0.884"/>
  <circle cy="-24.613" style="fill:#00AEEF;" cx="13.737" r="0.884"/>
  <circle cy="-23.488" style="fill-rule:evenodd;clip-rule:evenodd;fill:#00AEEF;" cx="17.921" r="0.884"/>
  <circle cy="-23.425" style="fill-rule:evenodd;clip-rule:evenodd;fill:#00AEEF;" cx="21.925" r="0.884"/>
  <circle cy="-23.742" style="fill-rule:evenodd;clip-rule:evenodd;fill:#00AEEF;" cx="26.616" r="0.884"/>
  <circle cy="-26.684" style="fill-rule:evenodd;clip-rule:evenodd;fill:#00AEEF;" cx="24.149" r="0.884"/>
  <circle cy="-26.809" style="fill:#00AEEF;" cx="20.3" r="0.884"/>
  <circle cy="-27.309" style="fill-rule:evenodd;clip-rule:evenodd;fill:#00AEEF;" cx="16.55" r="0.884"/>
  <circle cy="-30.8" style="fill-rule:evenodd;clip-rule:evenodd;fill:#00AEEF;" cx="16.175" r="0.884"/>
  <circle cy="-30.434" style="fill-rule:evenodd;clip-rule:evenodd;fill:#00AEEF;" cx="20.3" r="0.884"/>
  <circle cy="-30.434" style="fill-rule:evenodd;clip-rule:evenodd;fill:#00AEEF;" cx="23.925" r="0.884"/>
  <circle cy="-27.934" style="fill-rule:evenodd;clip-rule:evenodd;fill:#00AEEF;" cx="28.399" r="0.884"/>
  <circle cy="-28.184" style="fill-rule:evenodd;clip-rule:evenodd;fill:#00AEEF;" cx="12.675" r="0.884"/>
  <circle cy="-24.585" style="fill-rule:evenodd;clip-rule:evenodd;fill:#00AEEF;" cx="10.221" r="0.884"/>
  <circle cy="-26.791" style="fill-rule:evenodd;clip-rule:evenodd;fill:#00AEEF;" cx="8.175" r="0.884"/>
  <circle cy="-29.441" style="fill-rule:evenodd;clip-rule:evenodd;fill:#00AEEF;" cx="6.188" r="0.884"/>
  <circle cy="-25.134" style="fill-rule:evenodd;clip-rule:evenodd;fill:#00AEEF;" cx="4.953" r="0.884"/>
  <circle cy="-22.789" style="fill-rule:evenodd;clip-rule:evenodd;fill:#00AEEF;" cx="2.645" r="0.884"/>
  <circle cy="-27.252" style="fill-rule:evenodd;clip-rule:evenodd;fill:#00AEEF;" cx="2.854" r="0.884"/>
  <circle cy="-32.682" style="fill-rule:evenodd;clip-rule:evenodd;fill:#00AEEF;" cx="6.319" r="0.884"/>
  <circle cy="-30.647" style="fill-rule:evenodd;clip-rule:evenodd;fill:#00AEEF;" cx="3.219" r="0.884"/>
  <circle cy="-29.59" style="fill-rule:evenodd;clip-rule:evenodd;fill:#00AEEF;" cx="9.494" r="0.884"/>
  <circle cy="-16.05" style="fill-rule:evenodd;clip-rule:evenodd;fill:#00AEEF;" cx="34.925" r="0.884"/>
  <circle cy="-12.3" style="fill-rule:evenodd;clip-rule:evenodd;fill:#00AEEF;" cx="36.3" r="0.884"/>
  <circle cy="-9.675" style="fill-rule:evenodd;clip-rule:evenodd;fill:#00AEEF;" cx="33.175" r="0.884"/>
  <circle cy="-4.925" style="fill-rule:evenodd;clip-rule:evenodd;fill:#00AEEF;" cx="33.675" r="0.884"/>
  <circle cy="-2.675" style="fill-rule:evenodd;clip-rule:evenodd;fill:#00AEEF;" cx="31.3" r="0.884"/>
  <circle cy="-6.113" style="fill-rule:evenodd;clip-rule:evenodd;fill:#00AEEF;" cx="29.987" r="0.884"/>
  <circle cy="-10.559" style="fill-rule:evenodd;clip-rule:evenodd;fill:#00AEEF;" cx="29.425" r="0.884"/>
  <circle cy="-13.8" style="fill-rule:evenodd;clip-rule:evenodd;fill:#00AEEF;" cx="32.05" r="0.884"/>
  <circle cy="-15.05" style="fill-rule:evenodd;clip-rule:evenodd;fill:#00AEEF;" cx="28.05" r="0.884"/>
  <circle cy="-10.675" style="fill-rule:evenodd;clip-rule:evenodd;fill:#00AEEF;" cx="25.8" r="0.884"/>
  <circle cy="-6.8" style="fill-rule:evenodd;clip-rule:evenodd;fill:#00AEEF;" cx="26.3" r="0.884"/>
  <circle cy="-3.3" style="fill-rule:evenodd;clip-rule:evenodd;fill:#00AEEF;" cx="27.425" r="0.884"/>
  <circle cy="-3.05" style="fill-rule:evenodd;clip-rule:evenodd;fill:#00AEEF;" cx="23.675" r="0.884"/>
  <circle cy="-6.55" style="fill-rule:evenodd;clip-rule:evenodd;fill:#00AEEF;" cx="22.425" r="0.884"/>
  <circle cy="-6.8" style="fill-rule:evenodd;clip-rule:evenodd;fill:#00AEEF;" cx="18.425" r="0.884"/>
  <circle cy="-3.55" style="fill-rule:evenodd;clip-rule:evenodd;fill:#00AEEF;" cx="19.925" r="0.884"/>
  <circle cy="-3.05" style="fill-rule:evenodd;clip-rule:evenodd;fill:#00AEEF;" cx="16.05" r="0.884"/>
  <circle cy="-3.175" style="fill-rule:evenodd;clip-rule:evenodd;fill:#00AEEF;" cx="12.05" r="0.884"/>
  <path style="fill-rule:evenodd;clip-rule:evenodd;fill:#00AEEF;" d="M10.745-1c0.001-0.017,0.002-0.033,0.002-0.05    c0-0.488-0.396-0.884-0.884-0.884c-0.487,0-0.884,0.396-0.884,0.884c0,0.017,0.001,0.034,0.002,0.05"/>
  <circle cy="-4.434" style="fill-rule:evenodd;clip-rule:evenodd;fill:#00AEEF;" cx="8.425" r="0.884"/>
  <circle cy="-2.309" style="fill-rule:evenodd;clip-rule:evenodd;fill:#00AEEF;" cx="5.3" r="0.884"/>
  <circle cy="-6.434" style="fill-rule:evenodd;clip-rule:evenodd;fill:#00AEEF;" cx="4.425" r="0.884"/>
  <circle cy="-3.726" style="fill-rule:evenodd;clip-rule:evenodd;fill:#00AEEF;" cx="2.258" r="0.884"/>
  <path style="fill-rule:evenodd;clip-rule:evenodd;fill:#00AEEF;" d="M1.001-1h0.828C1.817-1.459,1.455-1.83,1-1.857V-1"/>
  <circle cy="-13.175" style="fill-rule:evenodd;clip-rule:evenodd;fill:#00AEEF;" cx="2.416" r="0.884"/>
  <circle cy="-15.05" style="fill-rule:evenodd;clip-rule:evenodd;fill:#00AEEF;" cx="5.416" r="0.884"/>
  <circle cy="-12.3" style="fill-rule:evenodd;clip-rule:evenodd;fill:#00AEEF;" cx="7.791" r="0.884"/>
  <circle cy="-10.8" style="fill-rule:evenodd;clip-rule:evenodd;fill:#00AEEF;" cx="12.416" r="0.884"/>
  <circle cy="-14.3" style="fill-rule:evenodd;clip-rule:evenodd;fill:#00AEEF;" cx="14.291" r="0.884"/>
  <circle cy="-13.05" style="fill-rule:evenodd;clip-rule:evenodd;fill:#00AEEF;" cx="18.416" r="0.884"/>
  <circle cy="-13.675" style="fill-rule:evenodd;clip-rule:evenodd;fill:#00AEEF;" cx="23.041" r="0.884"/>
  <circle cy="-16.925" style="fill-rule:evenodd;clip-rule:evenodd;fill:#00AEEF;" cx="25.041" r="0.884"/>
  <circle cy="-17.925" style="fill-rule:evenodd;clip-rule:evenodd;fill:#00AEEF;" cx="30.916" r="0.884"/>
  <circle cy="-16.3" style="fill-rule:evenodd;clip-rule:evenodd;fill:#00AEEF;" cx="20.166" r="0.884"/>
  <circle cy="-8.434" style="fill-rule:evenodd;clip-rule:evenodd;fill:#00AEEF;" cx="7.55" r="0.884"/>
  <path style="fill-rule:evenodd;clip-rule:evenodd;fill:#00AEEF;" d="M1-9.037c0.471,0.02,0.846,0.408,0.846,0.883    C1.846-7.679,1.47-7.293,1-7.273"/>
  <circle cy="-7.3" style="fill-rule:evenodd;clip-rule:evenodd;fill:#00AEEF;" cx="10.791" r="0.884"/>
  <circle cy="-6.675" style="fill-rule:evenodd;clip-rule:evenodd;fill:#00AEEF;" cx="14.041" r="0.884"/>
  <circle cy="-9.925" style="fill-rule:evenodd;clip-rule:evenodd;fill:#00AEEF;" cx="16.041" r="0.884"/>
  <circle cy="-10.05" style="fill-rule:evenodd;clip-rule:evenodd;fill:#00AEEF;" cx="20.916" r="0.884"/>
  <circle cy="-10.434" style="fill-rule:evenodd;clip-rule:evenodd;fill:#00AEEF;" cx="4.3" r="0.884"/>
  <circle cy="-5.55" style="fill-rule:evenodd;clip-rule:evenodd;fill:#00AEEF;" cx="56.8" r="0.884"/>
  <circle cy="-2.55" style="fill-rule:evenodd;clip-rule:evenodd;fill:#00AEEF;" cx="55.05" r="0.884"/>
  <circle cy="-47.175" style="fill-rule:evenodd;clip-rule:evenodd;fill:#00AEEF;" cx="26.916" r="0.884"/>
  <circle cy="-49.675" style="fill-rule:evenodd;clip-rule:evenodd;fill:#00AEEF;" cx="24.854" r="0.884"/>
  <circle cy="-51.997" style="fill-rule:evenodd;clip-rule:evenodd;fill:#00AEEF;" cx="22.612" r="0.884"/>
  <circle cy="-55.059" style="fill-rule:evenodd;clip-rule:evenodd;fill:#00AEEF;" cx="21.175" r="0.884"/>
  <circle cy="-57.559" style="fill-rule:evenodd;clip-rule:evenodd;fill:#00AEEF;" cx="19.425" r="0.884"/>
  <circle cy="-57.526" style="fill-rule:evenodd;clip-rule:evenodd;fill:#00AEEF;" cx="31.976" r="0.884"/>
 </g>
</svg>
