<?xml version="1.0"?>
<!-- Converted with SVG Converter - Version 0.9.5 (Compiled Fri Feb 21 09:53:38 2020) - Copyright (C) 2011 Nokia -->
<svg xmlns="http://www.w3.org/2000/svg" width="72.667" height="72.666" xmlns:xlink="http://www.w3.org/1999/xlink" version="1.1" y="0px" baseProfile="tiny" xml:space="preserve" viewBox="2.346 -74.604 72.667 72.666" x="0px">
 <g>
  <rect width="72.667" height="72.666" y="-74.604" style="fill:none;" x="2.346"/>
  <rect width="72.667" height="72.666" y="-74.604" x="2.346"/>
  <path d="M7.625-73.812c1.442-0.481,1.5,2.25,0.25,2.75S6.5-73.438,7.625-73.812z"/>
  <path d="M12.875-73.312c0.573-1.031,3.125,0.375,1.75,1.625S12.25-72.188,12.875-73.312z"/>
  <path d="M20.125-70.938c0.956,1.529,1.375,3.375-0.875,2.5S19.5-71.938,20.125-70.938z"/>
  <path d="M25.125-72.312c-1.108,0.317-1.25,3,1.125,3S26-72.562,25.125-72.312z"/>
  <path d="M33-74.188c0.805-0.644,2.25,1.75,0.375,2.375S32.375-73.688,33-74.188z"/>
  <path d="M43.125-73.938c-2.214,0.316-1.125,2.5,0.5,2.25S44.875-74.188,43.125-73.938z"/>
  <path d="M4.375-66.688c0.462-1.056,2.375,0,1.75,1.25S3.5-64.688,4.375-66.688z"/>
  <path d="M9.125-60.188c-1.303,1.195,0.25,3.375,1.5,2.25S10.625-61.562,9.125-60.188z"/>
  <path d="M2.875-44.688c0.422-1.856,2.625,0.75,1.75,2S2.25-41.938,2.875-44.688z"/>
  <path d="M8.375-52.688c1.064-1.064,2.625,0.25,1.125,2S7.75-52.062,8.375-52.688z"/>
  <path d="M51.25-73.062c1.662-0.831,1.875,1.75,0.625,2.5S50.25-72.562,51.25-73.062z"/>
  <path d="M59.25-72.188c1.348-0.27,2.375,1.875,0.625,2.5S58-71.938,59.25-72.188z"/>
  <path d="M3.125-38.688c0.454-1.059,1.375-1,1.625,0.875S2-36.062,3.125-38.688z"/>
  <path d="M3.75-31.188c0.333-1.556,2.5-1.375,2.375,0.375S3.375-29.438,3.75-31.188z"/>
  <path d="M5.75-23.562c1.659-1.541,2.75,1.875,1.25,2.25S4-21.938,5.75-23.562z"/>
  <path d="M5.75-16.688c1.192-1.49,2.375,0.875,1.25,1.875S4.75-15.438,5.75-16.688z"/>
  <path d="M13.016-22.943c1.285-2.013,1.93,0.295,1.822,2.06C14.731-19.12,11.547-20.642,13.016-22.943z"/>
  <path d="M71.666-73.496c0.738-2.215,2.375,1.25,0.875,2.625S71.166-71.996,71.666-73.496z"/>
  <path d="M69.062-66.062c1.459-0.104,1.875,2,0.5,2.625S67.312-65.938,69.062-66.062z"/>
  <path d="M72.416-59.938c-1.262,1.104,0.125,3.375,1.25,2.125S73.416-60.812,72.416-59.938z"/>
  <path d="M72.791-53.938c1.227-1.073,2.125,2.5,0.75,2.875S71.791-53.062,72.791-53.938z"/>
  <path d="M70.166-47.562c1.791-0.21,1.375,2.875,0.125,3.125S68.041-47.312,70.166-47.562z"/>
  <path d="M70.291-39.562c1.486,0.496,1.125,3.75-0.5,2.625S69.541-39.812,70.291-39.562z"/>
  <path d="M69.166-32.688c1.46,0.973-3.125,3.875-2.375,1.25S68.416-33.188,69.166-32.688z"/>
  <path d="M72.541-27.438c-1.332,0.888-1,4.375,0.5,3S73.666-28.188,72.541-27.438z"/>
  <path d="M70.791-19.938c1.714,0.514,2.25,2.875,0.375,2.875S69.541-20.312,70.791-19.938z"/>
  <path d="M72.416-12.438c1.5-0.75,1.75,2.375,0.375,3S70.666-11.562,72.416-12.438z"/>
  <path d="M15.75-65.688c1.593,0.956,1.75,3.875,0,3.25S15.125-66.062,15.75-65.688z"/>
  <path d="M30.875-66.062c1.179-0.131,1.625,2.875,0.25,2.875S29.75-65.938,30.875-66.062z"/>
  <path d="M37-68.812c1.912,0,2.125,3,0.375,2.875S35.5-68.812,37-68.812z"/>
  <path d="M46.375-68.312c1.989,0.498,0.375,3.625-0.875,2.75S44.875-68.688,46.375-68.312z"/>
  <path d="M55.75-66.938c1.586,0.353,1.25,2.75-0.125,2.75S54.625-67.188,55.75-66.938z"/>
  <path d="M63.188-63.188c2.021,0.735,1.625,4.375-0.625,3.75S61.812-63.688,63.188-63.188z"/>
  <path d="M66.625-55.938c1.003-0.1,1.25,2.5,0,3S65.375-55.812,66.625-55.938z"/>
  <path d="M50.5-62.188c1.125-0.375,2,2,0.375,2.625S49-61.688,50.5-62.188z"/>
  <path d="M10.875-8.375c1.198-0.719,2.75,1.875,1.625,2.75S9.625-7.625,10.875-8.375z"/>
  <path d="M3.75-7.25c1.009-2.692,2.5,2.375,1,2.875S3-5.25,3.75-7.25z"/>
  <path d="M19.875-5.875C20.434-6.993,22.75-3,21.5-2.5S19.125-4.375,19.875-5.875z"/>
  <path d="M31.625-8.375c1.114-0.159,1.75,2.875,0,3S30.75-8.25,31.625-8.375z"/>
  <path d="M51.125-7.75C52.404-9.226,53-4.875,51.75-4.375S49.5-5.875,51.125-7.75z"/>
  <path d="M59.25-6.75c-1.085,0.62-1.625,3.5,0.5,2.75S60.125-7.25,59.25-6.75z"/>
  <path d="M65.625-5.25c0.57-1.14,2.125,0.375,1.75,1.75S64.375-2.75,65.625-5.25z"/>
  <path d="M39.375-7c1.287,0.483,2.625-2.875,1-3.5S38.375-7.375,39.375-7z"/>
  <path d="M45.375-9.25c1.076-0.414,2.25,2.75,0.875,3S43.75-8.625,45.375-9.25z"/>
  <path d="M25.375-10.875c1.469-0.326,2.25,4,0.5,4.125S24.25-10.625,25.375-10.875z"/>
  <path d="M39.5-25.188c0.838-0.251,1.75,1.375,1.25,2.5s-0.5,1.25-1.125,1.5S38.25-24.812,39.5-25.188z"/>
  <path d="M45.375-16.812c1,1,1.5,3.25-0.5,2.375S45.375-16.812,45.375-16.812z"/>
  <path d="M35-16.438c0.585-0.961,2,1.125,1.5,1.875S33.25-13.562,35-16.438z"/>
  <path d="M28.75-18.812c1.481,0.906,0.5,2.5-1.25,2.125S26.5-20.188,28.75-18.812z"/>
  <path d="M20-15.812c1.475-0.369,1.75,1.75,0.5,2.375S19-15.562,20-15.812z"/>
  <path d="M13.625-14.562c1.269-0.211,1.125,3.5-0.625,2.625S12.875-14.438,13.625-14.562z"/>
  <path d="M19.75-23.562c0.538-0.922,2-0.125,1.125,1.375S18.875-22.062,19.75-23.562z"/>
  <path d="M31-39.312c0.538-0.922,2-0.125,1.125,1.375S30.125-37.812,31-39.312z"/>
  <path d="M64.75-70.312c0.538-0.922,2-0.125,1.125,1.375S63.875-68.812,64.75-70.312z"/>
  <path d="M26.125-26.438c1.352,0,0.75,3.5-0.5,3.25S25.5-26.438,26.125-26.438z"/>
  <path d="M64.75-14.938c2.062-0.515,2.25,3.125,0.625,3.875S63.75-14.688,64.75-14.938z"/>
  <path d="M57.25-19.625c1.353-0.557,2.75,1,1.375,2.375S55.125-18.75,57.25-19.625z"/>
  <path d="M51-22.312c1.583,0.235,0.875,2.875-0.25,3.375S47.625-22.812,51-22.312z"/>
  <path d="M65.75-23.312c0.92-1.022,2.375,2.875,0.875,3.125S64.625-22.062,65.75-23.312z"/>
  <path d="M60.875-28.062c1.284-0.405,1.5,2.125,0.625,3.25S58.5-27.312,60.875-28.062z"/>
  <path d="M52.875-29.062c2.352,1.045,0.25,3.875-1.25,2.875S51.75-29.562,52.875-29.062z"/>
  <path d="M58.625-35.188c1.667,0,1.25,2.375-0.125,3.125S57.5-35.188,58.625-35.188z"/>
  <path d="M63.25-43.812c1.707,0.996,0.375,3.625-1.25,3.5S61.75-44.688,63.25-43.812z"/>
  <path d="M45.125-27.688c0.875-1.75,1.875-0.75,2.125,1.25S43.875-25.188,45.125-27.688z"/>
  <path d="M49.25-37.438c1.554-0.888,2.75,2.375,1.25,2.875S47.5-36.438,49.25-37.438z"/>
  <path d="M42.375-37.438c1.936,0.258,1.5,2.125,0.25,2.5S40.5-37.688,42.375-37.438z"/>
  <path d="M54.625-44.188c1.539-0.577,2.25,2.75,0.75,3S53.625-43.812,54.625-44.188z"/>
  <path d="M32.75-26.438c1.364-0.728,2.375,2.625,1.125,3.25S30.875-25.438,32.75-26.438z"/>
  <path d="M37.5-33.812c1.543-0.386,1.5,2.5,0.375,3S35-33.188,37.5-33.812z"/>
  <path d="M11.375-31.938c0.943-1.415,3.125,0.375,2.125,1.625S10.125-30.062,11.375-31.938z"/>
  <path d="M17.625-30.438c1.14-0.57,2,1.875,0.75,2.5S16.625-29.938,17.625-30.438z"/>
  <path d="M55.625-13.062c1.14-0.57,2,1.875,0.75,2.5S54.625-12.562,55.625-13.062z"/>
  <path d="M27.75-34.438c1.235-0.617,2,2.625,0.875,3.375S25.5-33.312,27.75-34.438z"/>
  <path d="M9.875-38.938c1.008-1.008,1.75,1,0.75,2.375S8.125-37.188,9.875-38.938z"/>
  <path d="M18.375-38.812c0.57-0.97,1.625,1.625,0.75,2.375S17.125-36.688,18.375-38.812z"/>
  <path d="M36.625-43.438c0.524-0.655,1.5,2.125,0.375,2.75S35.625-42.188,36.625-43.438z"/>
  <path d="M46.25-43.938c0.984-0.179,2,2.375,0.5,2.75S44.875-43.688,46.25-43.938z"/>
  <path d="M61.75-50.562c1.889-0.236,1.875,3,0.375,3.25S60.75-50.438,61.75-50.562z"/>
  <path d="M57.875-57.562c1.274,0.182,1.5,3.25-0.25,3.125S57-57.688,57.875-57.562z"/>
  <path d="M51.625-50.188c0.988-0.988,2,1.625,0.75,2.375S50.75-49.312,51.625-50.188z"/>
  <path d="M30.25-46.812c0.737-0.676,1.625,1.375,0.625,2.5S28.75-45.438,30.25-46.812z"/>
  <path d="M24.125-43.562c1.471-0.98,1.875,2.25,1,2.875S22.625-42.562,24.125-43.562z"/>
  <path d="M18.5-47.688c1.166,0.179,1.5,2,0.25,2.75S16.875-47.938,18.5-47.688z"/>
  <path d="M11.75-46.438c1.026-0.724,2,2.75,0.75,3.5S9.625-44.938,11.75-46.438z"/>
  <path d="M44.875-50.062c0.758-0.664,2.375,1.625,0.625,2.25S43.875-49.188,44.875-50.062z"/>
  <path d="M46.5-57.562c0.98-0.196,1.75,2,0.25,2.375S45.25-57.312,46.5-57.562z"/>
  <path d="M42.5-62.938c1.465-1.326,1,3,0.5,2.875S39.875-60.562,42.5-62.938z"/>
  <path d="M36.625-60.438c0.857-0.214,1.25,2.125,0.25,2.75S35.625-60.188,36.625-60.438z"/>
  <path d="M39.875-52.312c1.612-0.322,1.5,1.75,0.375,2.5S38.625-52.062,39.875-52.312z"/>
  <path d="M33.875-53.562c1.208-0.322,1.5,1.375,0.375,2.25S32-53.062,33.875-53.562z"/>
  <path d="M16.875-57.438c1.115,0.075,1.125,3.125-0.25,3.25S15-57.562,16.875-57.438z"/>
  <path d="M23-53.562c1.664-0.555,1.5,2.5,0.25,2.875S22.25-53.312,23-53.562z"/>
  <path d="M29.75-58.812c1.278,0.15,1.25,3.25-0.25,3.5S27.625-59.062,29.75-58.812z"/>
  <path d="M23-62.938c0.983-0.772,1.875,2.25,0.625,3.125S21.25-61.562,23-62.938z"/>
  <rect width="72.667" height="72.666" y="-74.604" style="fill:none;" x="2.346"/>
  <path d="M7.625-73.812c1.442-0.481,1.5,2.25,0.25,2.75    S6.5-73.438,7.625-73.812z" style="fill:none;stroke:#FFFFFF;stroke-width:0.5;"/>
  <path d="M12.875-73.312c0.573-1.031,3.125,0.375,1.75,1.625    S12.25-72.188,12.875-73.312z" style="fill:none;stroke:#FFFFFF;stroke-width:0.5;"/>
  <path d="M20.125-70.938c0.956,1.529,1.375,3.375-0.875,2.5    S19.5-71.938,20.125-70.938z" style="fill:none;stroke:#FFFFFF;stroke-width:0.5;"/>
  <path d="M25.125-72.312c-1.108,0.317-1.25,3,1.125,3S26-72.562,25.125-72.312    z" style="fill:none;stroke:#FFFFFF;stroke-width:0.5;"/>
  <path d="M33-74.188c0.805-0.644,2.25,1.75,0.375,2.375    S32.375-73.688,33-74.188z" style="fill:none;stroke:#FFFFFF;stroke-width:0.5;"/>
  <path d="M43.125-73.938c-2.214,0.316-1.125,2.5,0.5,2.25    S44.875-74.188,43.125-73.938z" style="fill:none;stroke:#FFFFFF;stroke-width:0.5;"/>
  <path d="M4.375-66.688c0.462-1.056,2.375,0,1.75,1.25    S3.5-64.688,4.375-66.688z" style="fill:none;stroke:#FFFFFF;stroke-width:0.5;"/>
  <path d="M9.125-60.188c-1.303,1.195,0.25,3.375,1.5,2.25    S10.625-61.562,9.125-60.188z" style="fill:none;stroke:#FFFFFF;stroke-width:0.5;"/>
  <path d="M2.875-44.688c0.422-1.856,2.625,0.75,1.75,2    S2.25-41.938,2.875-44.688z" style="fill:none;stroke:#FFFFFF;stroke-width:0.5;"/>
  <path d="M8.375-52.688c1.064-1.064,2.625,0.25,1.125,2    S7.75-52.062,8.375-52.688z" style="fill:none;stroke:#FFFFFF;stroke-width:0.5;"/>
  <path d="M51.25-73.062c1.662-0.831,1.875,1.75,0.625,2.5    S50.25-72.562,51.25-73.062z" style="fill:none;stroke:#FFFFFF;stroke-width:0.5;"/>
  <path d="M59.25-72.188c1.348-0.27,2.375,1.875,0.625,2.5    S58-71.938,59.25-72.188z" style="fill:none;stroke:#FFFFFF;stroke-width:0.5;"/>
  <path d="M3.125-38.688c0.454-1.059,1.375-1,1.625,0.875    S2-36.062,3.125-38.688z" style="fill:none;stroke:#FFFFFF;stroke-width:0.5;"/>
  <path d="M3.75-31.188c0.333-1.556,2.5-1.375,2.375,0.375    S3.375-29.438,3.75-31.188z" style="fill:none;stroke:#FFFFFF;stroke-width:0.5;"/>
  <path d="M5.75-23.562c1.659-1.541,2.75,1.875,1.25,2.25S4-21.938,5.75-23.562    z" style="fill:none;stroke:#FFFFFF;stroke-width:0.5;"/>
  <path d="M5.75-16.688c1.192-1.49,2.375,0.875,1.25,1.875    S4.75-15.438,5.75-16.688z" style="fill:none;stroke:#FFFFFF;stroke-width:0.5;"/>
  <path d="M13.016-22.943c1.285-2.013,1.93,0.295,1.822,2.06    C14.731-19.12,11.547-20.642,13.016-22.943z" style="fill:none;stroke:#FFFFFF;stroke-width:0.5;"/>
  <path d="M71.666-73.496c0.738-2.215,2.375,1.25,0.875,2.625    S71.166-71.996,71.666-73.496z" style="fill:none;stroke:#FFFFFF;stroke-width:0.5;"/>
  <path d="M69.062-66.062c1.459-0.104,1.875,2,0.5,2.625    S67.312-65.938,69.062-66.062z" style="fill:none;stroke:#FFFFFF;stroke-width:0.5;"/>
  <path d="M72.416-59.938c-1.262,1.104,0.125,3.375,1.25,2.125    S73.416-60.812,72.416-59.938z" style="fill:none;stroke:#FFFFFF;stroke-width:0.5;"/>
  <path d="M72.791-53.938c1.227-1.073,2.125,2.5,0.75,2.875    S71.791-53.062,72.791-53.938z" style="fill:none;stroke:#FFFFFF;stroke-width:0.5;"/>
  <path d="M70.166-47.562c1.791-0.21,1.375,2.875,0.125,3.125    S68.041-47.312,70.166-47.562z" style="fill:none;stroke:#FFFFFF;stroke-width:0.5;"/>
  <path d="M70.291-39.562c1.486,0.496,1.125,3.75-0.5,2.625    S69.541-39.812,70.291-39.562z" style="fill:none;stroke:#FFFFFF;stroke-width:0.5;"/>
  <path d="M69.166-32.688c1.46,0.973-3.125,3.875-2.375,1.25    S68.416-33.188,69.166-32.688z" style="fill:none;stroke:#FFFFFF;stroke-width:0.5;"/>
  <path d="M72.541-27.438c-1.332,0.888-1,4.375,0.5,3    S73.666-28.188,72.541-27.438z" style="fill:none;stroke:#FFFFFF;stroke-width:0.5;"/>
  <path d="M70.791-19.938c1.714,0.514,2.25,2.875,0.375,2.875    S69.541-20.312,70.791-19.938z" style="fill:none;stroke:#FFFFFF;stroke-width:0.5;"/>
  <path d="M72.416-12.438c1.5-0.75,1.75,2.375,0.375,3    S70.666-11.562,72.416-12.438z" style="fill:none;stroke:#FFFFFF;stroke-width:0.5;"/>
  <path d="M15.75-65.688c1.593,0.956,1.75,3.875,0,3.25    S15.125-66.062,15.75-65.688z" style="fill:none;stroke:#FFFFFF;stroke-width:0.5;"/>
  <path d="M30.875-66.062c1.179-0.131,1.625,2.875,0.25,2.875    S29.75-65.938,30.875-66.062z" style="fill:none;stroke:#FFFFFF;stroke-width:0.5;"/>
  <path d="M37-68.812c1.912,0,2.125,3,0.375,2.875S35.5-68.812,37-68.812z" style="fill:none;stroke:#FFFFFF;stroke-width:0.5;"/>
  <path d="M46.375-68.312c1.989,0.498,0.375,3.625-0.875,2.75    S44.875-68.688,46.375-68.312z" style="fill:none;stroke:#FFFFFF;stroke-width:0.5;"/>
  <path d="M55.75-66.938c1.586,0.353,1.25,2.75-0.125,2.75    S54.625-67.188,55.75-66.938z" style="fill:none;stroke:#FFFFFF;stroke-width:0.5;"/>
  <path d="M63.188-63.188c2.021,0.735,1.625,4.375-0.625,3.75    S61.812-63.688,63.188-63.188z" style="fill:none;stroke:#FFFFFF;stroke-width:0.5;"/>
  <path d="M66.625-55.938c1.003-0.1,1.25,2.5,0,3S65.375-55.812,66.625-55.938z    " style="fill:none;stroke:#FFFFFF;stroke-width:0.5;"/>
  <path d="M50.5-62.188c1.125-0.375,2,2,0.375,2.625S49-61.688,50.5-62.188z" style="fill:none;stroke:#FFFFFF;stroke-width:0.5;"/>
  <path d="M10.875-8.375c1.198-0.719,2.75,1.875,1.625,2.75    S9.625-7.625,10.875-8.375z" style="fill:none;stroke:#FFFFFF;stroke-width:0.5;"/>
  <path d="M3.75-7.25c1.009-2.692,2.5,2.375,1,2.875S3-5.25,3.75-7.25z" style="fill:none;stroke:#FFFFFF;stroke-width:0.5;"/>
  <path d="M19.875-5.875C20.434-6.993,22.75-3,21.5-2.5    S19.125-4.375,19.875-5.875z" style="fill:none;stroke:#FFFFFF;stroke-width:0.5;"/>
  <path d="M31.625-8.375c1.114-0.159,1.75,2.875,0,3S30.75-8.25,31.625-8.375z" style="fill:none;stroke:#FFFFFF;stroke-width:0.5;"/>
  <path d="M51.125-7.75C52.404-9.226,53-4.875,51.75-4.375    S49.5-5.875,51.125-7.75z" style="fill:none;stroke:#FFFFFF;stroke-width:0.5;"/>
  <path d="M59.25-6.75c-1.085,0.62-1.625,3.5,0.5,2.75S60.125-7.25,59.25-6.75z    " style="fill:none;stroke:#FFFFFF;stroke-width:0.5;"/>
  <path d="M65.625-5.25c0.57-1.14,2.125,0.375,1.75,1.75    S64.375-2.75,65.625-5.25z" style="fill:none;stroke:#FFFFFF;stroke-width:0.5;"/>
  <path d="M39.375-7c1.287,0.483,2.625-2.875,1-3.5S38.375-7.375,39.375-7z" style="fill:none;stroke:#FFFFFF;stroke-width:0.5;"/>
  <path d="M45.375-9.25c1.076-0.414,2.25,2.75,0.875,3S43.75-8.625,45.375-9.25    z" style="fill:none;stroke:#FFFFFF;stroke-width:0.5;"/>
  <path d="M25.375-10.875c1.469-0.326,2.25,4,0.5,4.125    S24.25-10.625,25.375-10.875z" style="fill:none;stroke:#FFFFFF;stroke-width:0.5;"/>
  <path d="M39.5-25.188c0.838-0.251,1.75,1.375,1.25,2.5s-0.5,1.25-1.125,1.5    S38.25-24.812,39.5-25.188z" style="fill:none;stroke:#FFFFFF;stroke-width:0.5;"/>
  <path d="M45.375-16.812c1,1,1.5,3.25-0.5,2.375S45.375-16.812,45.375-16.812z    " style="fill:none;stroke:#FFFFFF;stroke-width:0.5;"/>
  <path d="M35-16.438c0.585-0.961,2,1.125,1.5,1.875S33.25-13.562,35-16.438z" style="fill:none;stroke:#FFFFFF;stroke-width:0.5;"/>
  <path d="M28.75-18.812c1.481,0.906,0.5,2.5-1.25,2.125    S26.5-20.188,28.75-18.812z" style="fill:none;stroke:#FFFFFF;stroke-width:0.5;"/>
  <path d="M20-15.812c1.475-0.369,1.75,1.75,0.5,2.375S19-15.562,20-15.812z" style="fill:none;stroke:#FFFFFF;stroke-width:0.5;"/>
  <path d="M13.625-14.562c1.269-0.211,1.125,3.5-0.625,2.625    S12.875-14.438,13.625-14.562z" style="fill:none;stroke:#FFFFFF;stroke-width:0.5;"/>
  <path d="M19.75-23.562c0.538-0.922,2-0.125,1.125,1.375    S18.875-22.062,19.75-23.562z" style="fill:none;stroke:#FFFFFF;stroke-width:0.5;"/>
  <path d="M31-39.312c0.538-0.922,2-0.125,1.125,1.375S30.125-37.812,31-39.312    z" style="fill:none;stroke:#FFFFFF;stroke-width:0.5;"/>
  <path d="M64.75-70.312c0.538-0.922,2-0.125,1.125,1.375    S63.875-68.812,64.75-70.312z" style="fill:none;stroke:#FFFFFF;stroke-width:0.5;"/>
  <path d="M26.125-26.438c1.352,0,0.75,3.5-0.5,3.25S25.5-26.438,26.125-26.438    z" style="fill:none;stroke:#FFFFFF;stroke-width:0.5;"/>
  <path d="M64.75-14.938c2.062-0.515,2.25,3.125,0.625,3.875    S63.75-14.688,64.75-14.938z" style="fill:none;stroke:#FFFFFF;stroke-width:0.5;"/>
  <path d="M57.25-19.625c1.353-0.557,2.75,1,1.375,2.375    S55.125-18.75,57.25-19.625z" style="fill:none;stroke:#FFFFFF;stroke-width:0.5;"/>
  <path d="M51-22.312c1.583,0.235,0.875,2.875-0.25,3.375    S47.625-22.812,51-22.312z" style="fill:none;stroke:#FFFFFF;stroke-width:0.5;"/>
  <path d="M65.75-23.312c0.92-1.022,2.375,2.875,0.875,3.125    S64.625-22.062,65.75-23.312z" style="fill:none;stroke:#FFFFFF;stroke-width:0.5;"/>
  <path d="M60.875-28.062c1.284-0.405,1.5,2.125,0.625,3.25    S58.5-27.312,60.875-28.062z" style="fill:none;stroke:#FFFFFF;stroke-width:0.5;"/>
  <path d="M52.875-29.062c2.352,1.045,0.25,3.875-1.25,2.875    S51.75-29.562,52.875-29.062z" style="fill:none;stroke:#FFFFFF;stroke-width:0.5;"/>
  <path d="M58.625-35.188c1.667,0,1.25,2.375-0.125,3.125    S57.5-35.188,58.625-35.188z" style="fill:none;stroke:#FFFFFF;stroke-width:0.5;"/>
  <path d="M63.25-43.812c1.707,0.996,0.375,3.625-1.25,3.5    S61.75-44.688,63.25-43.812z" style="fill:none;stroke:#FFFFFF;stroke-width:0.5;"/>
  <path d="M45.125-27.688c0.875-1.75,1.875-0.75,2.125,1.25    S43.875-25.188,45.125-27.688z" style="fill:none;stroke:#FFFFFF;stroke-width:0.5;"/>
  <path d="M49.25-37.438c1.554-0.888,2.75,2.375,1.25,2.875    S47.5-36.438,49.25-37.438z" style="fill:none;stroke:#FFFFFF;stroke-width:0.5;"/>
  <path d="M42.375-37.438c1.936,0.258,1.5,2.125,0.25,2.5    S40.5-37.688,42.375-37.438z" style="fill:none;stroke:#FFFFFF;stroke-width:0.5;"/>
  <path d="M54.625-44.188c1.539-0.577,2.25,2.75,0.75,3    S53.625-43.812,54.625-44.188z" style="fill:none;stroke:#FFFFFF;stroke-width:0.5;"/>
  <path d="M32.75-26.438c1.364-0.728,2.375,2.625,1.125,3.25    S30.875-25.438,32.75-26.438z" style="fill:none;stroke:#FFFFFF;stroke-width:0.5;"/>
  <path d="M37.5-33.812c1.543-0.386,1.5,2.5,0.375,3S35-33.188,37.5-33.812z" style="fill:none;stroke:#FFFFFF;stroke-width:0.5;"/>
  <path d="M11.375-31.938c0.943-1.415,3.125,0.375,2.125,1.625    S10.125-30.062,11.375-31.938z" style="fill:none;stroke:#FFFFFF;stroke-width:0.5;"/>
  <path d="M17.625-30.438c1.14-0.57,2,1.875,0.75,2.5    S16.625-29.938,17.625-30.438z" style="fill:none;stroke:#FFFFFF;stroke-width:0.5;"/>
  <path d="M55.625-13.062c1.14-0.57,2,1.875,0.75,2.5    S54.625-12.562,55.625-13.062z" style="fill:none;stroke:#FFFFFF;stroke-width:0.5;"/>
  <path d="M27.75-34.438c1.235-0.617,2,2.625,0.875,3.375    S25.5-33.312,27.75-34.438z" style="fill:none;stroke:#FFFFFF;stroke-width:0.5;"/>
  <path d="M9.875-38.938c1.008-1.008,1.75,1,0.75,2.375    S8.125-37.188,9.875-38.938z" style="fill:none;stroke:#FFFFFF;stroke-width:0.5;"/>
  <path d="M18.375-38.812c0.57-0.97,1.625,1.625,0.75,2.375    S17.125-36.688,18.375-38.812z" style="fill:none;stroke:#FFFFFF;stroke-width:0.5;"/>
  <path d="M36.625-43.438c0.524-0.655,1.5,2.125,0.375,2.75    S35.625-42.188,36.625-43.438z" style="fill:none;stroke:#FFFFFF;stroke-width:0.5;"/>
  <path d="M46.25-43.938c0.984-0.179,2,2.375,0.5,2.75    S44.875-43.688,46.25-43.938z" style="fill:none;stroke:#FFFFFF;stroke-width:0.5;"/>
  <path d="M61.75-50.562c1.889-0.236,1.875,3,0.375,3.25    S60.75-50.438,61.75-50.562z" style="fill:none;stroke:#FFFFFF;stroke-width:0.5;"/>
  <path d="M57.875-57.562c1.274,0.182,1.5,3.25-0.25,3.125    S57-57.688,57.875-57.562z" style="fill:none;stroke:#FFFFFF;stroke-width:0.5;"/>
  <path d="M51.625-50.188c0.988-0.988,2,1.625,0.75,2.375    S50.75-49.312,51.625-50.188z" style="fill:none;stroke:#FFFFFF;stroke-width:0.5;"/>
  <path d="M30.25-46.812c0.737-0.676,1.625,1.375,0.625,2.5    S28.75-45.438,30.25-46.812z" style="fill:none;stroke:#FFFFFF;stroke-width:0.5;"/>
  <path d="M24.125-43.562c1.471-0.98,1.875,2.25,1,2.875    S22.625-42.562,24.125-43.562z" style="fill:none;stroke:#FFFFFF;stroke-width:0.5;"/>
  <path d="M18.5-47.688c1.166,0.179,1.5,2,0.25,2.75S16.875-47.938,18.5-47.688    z" style="fill:none;stroke:#FFFFFF;stroke-width:0.5;"/>
  <path d="M11.75-46.438c1.026-0.724,2,2.75,0.75,3.5    S9.625-44.938,11.75-46.438z" style="fill:none;stroke:#FFFFFF;stroke-width:0.5;"/>
  <path d="M44.875-50.062c0.758-0.664,2.375,1.625,0.625,2.25    S43.875-49.188,44.875-50.062z" style="fill:none;stroke:#FFFFFF;stroke-width:0.5;"/>
  <path d="M46.5-57.562c0.98-0.196,1.75,2,0.25,2.375S45.25-57.312,46.5-57.562    z" style="fill:none;stroke:#FFFFFF;stroke-width:0.5;"/>
  <path d="M42.5-62.938c1.465-1.326,1,3,0.5,2.875S39.875-60.562,42.5-62.938z" style="fill:none;stroke:#FFFFFF;stroke-width:0.5;"/>
  <path d="M36.625-60.438c0.857-0.214,1.25,2.125,0.25,2.75    S35.625-60.188,36.625-60.438z" style="fill:none;stroke:#FFFFFF;stroke-width:0.5;"/>
  <path d="M39.875-52.312c1.612-0.322,1.5,1.75,0.375,2.5    S38.625-52.062,39.875-52.312z" style="fill:none;stroke:#FFFFFF;stroke-width:0.5;"/>
  <path d="M33.875-53.562c1.208-0.322,1.5,1.375,0.375,2.25    S32-53.062,33.875-53.562z" style="fill:none;stroke:#FFFFFF;stroke-width:0.5;"/>
  <path d="M16.875-57.438c1.115,0.075,1.125,3.125-0.25,3.25    S15-57.562,16.875-57.438z" style="fill:none;stroke:#FFFFFF;stroke-width:0.5;"/>
  <path d="M23-53.562c1.664-0.555,1.5,2.5,0.25,2.875S22.25-53.312,23-53.562z" style="fill:none;stroke:#FFFFFF;stroke-width:0.5;"/>
  <path d="M29.75-58.812c1.278,0.15,1.25,3.25-0.25,3.5    S27.625-59.062,29.75-58.812z" style="fill:none;stroke:#FFFFFF;stroke-width:0.5;"/>
  <path d="M23-62.938c0.983-0.772,1.875,2.25,0.625,3.125    S21.25-61.562,23-62.938z" style="fill:none;stroke:#FFFFFF;stroke-width:0.5;"/>
 </g>
</svg>
