<?xml version="1.0"?>
<!-- Converted with SVG Converter - Version 0.9.5 (Compiled Fri Feb 21 09:53:38 2020) - Copyright (C) 2011 Nokia -->
<svg xmlns="http://www.w3.org/2000/svg" y="0px" height="40" width="40" x="0px" xmlns:xlink="http://www.w3.org/1999/xlink" version="1.1" baseProfile="tiny" xml:space="preserve" viewBox="1 -41.125 40 40">
 <g>
  <rect y="-41.125" height="40" width="40" x="1" style="fill:none;"/>
  <path d="M8.125-37.576c0.561,0,0.652,0.949,0,0.938C7.534-36.648,7.544-37.576,8.125-37.576z" style="fill:#00AEEF;"/>
  <path d="M6.625-37.388c0.561,0,0.652,0.949,0,0.937C6.034-36.461,6.044-37.388,6.625-37.388z" style="fill:#00AEEF;"/>
  <path d="M5.188-36.576c0.561,0,0.652,0.949,0,0.938C4.596-35.648,4.607-36.576,5.188-36.576z" style="fill:#00AEEF;"/>
  <path d="M3.938-35.201c0.561,0,0.652,0.949,0,0.937C3.346-34.273,3.357-35.201,3.938-35.201z" style="fill:#00AEEF;"/>
  <path d="M2.707-33.187c0-0.561,0.949-0.652,0.938,0C3.635-32.596,2.707-32.606,2.707-33.187z" style="fill:#00AEEF;"/>
  <path d="M1.707-31.687c0-0.561,0.949-0.652,0.938,0C2.635-31.096,1.707-31.106,1.707-31.687z" style="fill:#00AEEF;"/>
  <path d="M5.778-38.416c0-0.561,0.949-0.652,0.938,0C6.705-37.825,5.778-37.835,5.778-38.416z" style="fill:#00AEEF;"/>
  <path d="M6.445-39.75c0-0.561,0.949-0.652,0.937,0C7.372-39.159,6.445-39.169,6.445-39.75z" style="fill:#00AEEF;"/>
  <path d="M17.951-40.625c0-0.561,0.949-0.652,0.937,0C18.878-40.034,17.951-40.044,17.951-40.625z" style="fill:#00AEEF;"/>
  <path d="M16.695-39.333c0-0.56,0.949-0.652,0.937,0C17.622-38.742,16.695-38.752,16.695-39.333z" style="fill:#00AEEF;"/>
  <path d="M3.395-40.625c0-0.561,0.949-0.652,0.938,0C4.322-40.034,3.395-40.044,3.395-40.625z" style="fill:#00AEEF;"/>
  <path d="M1.639-39.75c0-0.561,0.949-0.652,0.938,0C2.566-39.159,1.639-39.169,1.639-39.75z" style="fill:#00AEEF;"/>
  <path d="M5.278-34.583c0-0.56,0.949-0.652,0.937,0C6.205-33.992,5.278-34.002,5.278-34.583z" style="fill:#00AEEF;"/>
  <path d="M30.771-29.028c0-0.505,0.854-0.587,0.844,0C31.606-28.497,30.771-28.506,30.771-29.028z" style="fill:#00AEEF;"/>
  <path d="M29.528-28.187c0-0.56,0.949-0.652,0.937,0C30.455-27.596,29.528-27.606,29.528-28.187z" style="fill:#00AEEF;"/>
  <path d="M28.361-26.833c0-0.56,0.949-0.652,0.937,0C29.289-26.242,28.361-26.252,28.361-26.833z" style="fill:#00AEEF;"/>
  <path d="M27.451-25.5c0-0.56,0.949-0.652,0.938,0C28.378-24.909,27.451-24.919,27.451-25.5z" style="fill:#00AEEF;"/>
  <path d="M5.951-33.333c0-0.56,0.949-0.652,0.937,0C6.878-32.742,5.951-32.752,5.951-33.333z" style="fill:#00AEEF;"/>
  <path d="M4.778-30.5c0-0.56,0.949-0.652,0.938,0C5.705-29.909,4.778-29.919,4.778-30.5z" style="fill:#00AEEF;"/>
  <path d="M5.889-29.062c0-0.56,0.949-0.652,0.937,0C6.816-28.471,5.889-28.481,5.889-29.062z" style="fill:#00AEEF;"/>
  <path d="M4.195-28.833c0-0.56,0.949-0.652,0.938,0C5.122-28.242,4.195-28.252,4.195-28.833z" style="fill:#00AEEF;"/>
  <path d="M2.695-28.583c0-0.56,0.949-0.652,0.937,0C3.622-27.992,2.695-28.002,2.695-28.583z" style="fill:#00AEEF;"/>
  <path d="M3.868-27.25c0-0.56,0.949-0.652,0.938,0C4.795-26.659,3.868-26.669,3.868-27.25z" style="fill:#00AEEF;"/>
  <path d="M5.361-25.583c0-0.56,0.949-0.652,0.937,0C6.289-24.992,5.361-25.002,5.361-25.583z" style="fill:#00AEEF;"/>
  <path d="M18.868-39.416c0-0.561,0.949-0.652,0.938,0C19.795-38.825,18.868-38.835,18.868-39.416z" style="fill:#00AEEF;"/>
  <path d="M4.486-39.062c0-0.561,0.949-0.652,0.937,0C5.414-38.471,4.486-38.481,4.486-39.062z" style="fill:#00AEEF;"/>
  <path d="M5.082-40.5c0-0.561,0.949-0.652,0.938,0C6.01-39.909,5.082-39.919,5.082-40.5z" style="fill:#00AEEF;"/>
  <path d="M1.924-37.75c0-0.561,0.949-0.652,0.937,0C2.851-37.159,1.924-37.169,1.924-37.75z" style="fill:#00AEEF;"/>
  <path d="M2.778-39.166c0-0.561,0.949-0.652,0.938,0C3.705-38.575,2.778-38.585,2.778-39.166z" style="fill:#00AEEF;"/>
  <path d="M6.861-35.583c0-0.56,0.949-0.652,0.938,0C7.789-34.992,6.861-35.002,6.861-35.583z" style="fill:#00AEEF;"/>
  <path d="M4.278-33.25c0-0.561,0.949-0.652,0.937,0C5.205-32.659,4.278-32.669,4.278-33.25z" style="fill:#00AEEF;"/>
  <path d="M5.445-31.916c0-0.56,0.949-0.652,0.937,0C6.372-31.325,5.445-31.335,5.445-31.916z" style="fill:#00AEEF;"/>
  <path d="M3.611-31.75c0-0.561,0.949-0.652,0.937,0C4.539-31.159,3.611-31.169,3.611-31.75z" style="fill:#00AEEF;"/>
  <path d="M3.028-30.166c0-0.56,0.949-0.652,0.937,0C3.955-29.575,3.028-29.585,3.028-30.166z" style="fill:#00AEEF;"/>
  <path d="M5.695-27.333c0-0.56,0.949-0.652,0.937,0C6.622-26.742,5.695-26.752,5.695-27.333z" style="fill:#00AEEF;"/>
  <path d="M2.451-26.583c0-0.56,0.949-0.652,0.938,0C3.378-25.992,2.451-26.002,2.451-26.583z" style="fill:#00AEEF;"/>
  <path d="M3.868-25.333c0-0.56,0.949-0.652,0.938,0C4.795-24.742,3.868-24.752,3.868-25.333z" style="fill:#00AEEF;"/>
  <path d="M2.534-24.75c0-0.56,0.949-0.652,0.938,0C3.462-24.159,2.534-24.169,2.534-24.75z" style="fill:#00AEEF;"/>
  <path d="M3.028-23c0-0.56,0.949-0.652,0.937,0C3.955-22.409,3.028-22.419,3.028-23z" style="fill:#00AEEF;"/>
  <path d="M3.611-21.416c0-0.56,0.949-0.652,0.937,0C4.539-20.825,3.611-20.835,3.611-21.416z" style="fill:#00AEEF;"/>
  <path d="M4.278-19.833c0-0.56,0.949-0.652,0.937,0C5.205-19.242,4.278-19.252,4.278-19.833z" style="fill:#00AEEF;"/>
  <path d="M5.028-18.25c0-0.56,0.949-0.652,0.937,0C5.955-17.659,5.028-17.669,5.028-18.25z" style="fill:#00AEEF;"/>
  <path d="M6.195-17c0-0.56,0.949-0.652,0.938,0C7.122-16.409,6.195-16.419,6.195-17z" style="fill:#00AEEF;"/>
  <path d="M7.195-26.666c0-0.56,0.949-0.652,0.938,0C8.122-26.075,7.195-26.085,7.195-26.666z" style="fill:#00AEEF;"/>
  <path d="M4.076-37.716c0-0.561,0.949-0.652,0.937,0C5.003-37.125,4.076-37.135,4.076-37.716z" style="fill:#00AEEF;"/>
  <path d="M3.02-36.687c0-0.561,0.949-0.652,0.938,0C3.947-36.096,3.02-36.106,3.02-36.687z" style="fill:#00AEEF;"/>
  <path d="M1.428-34.812c0-0.561,0.949-0.652,0.938,0C2.355-34.221,1.428-34.231,1.428-34.812z" style="fill:#00AEEF;"/>
  <path d="M1.145-33.187c0-0.561,0.949-0.652,0.937,0C2.072-32.596,1.145-32.606,1.145-33.187z" style="fill:#00AEEF;"/>
  <path d="M23.341-10.333c0-0.561,0.949-0.652,0.938,0C24.268-9.742,23.341-9.752,23.341-10.333z" style="fill:#00AEEF;"/>
  <path d="M23.632-11.833c0-0.561,0.949-0.652,0.938,0C24.559-11.242,23.632-11.252,23.632-11.833z" style="fill:#00AEEF;"/>
  <path d="M24.778-10.166c0-0.561,0.949-0.652,0.938,0C25.705-9.575,24.778-9.585,24.778-10.166z" style="fill:#00AEEF;"/>
  <path d="M26.695-10c0-0.561,0.949-0.652,0.937,0C27.622-9.408,26.695-9.419,26.695-10z" style="fill:#00AEEF;"/>
  <path d="M28.195-9.479c0-0.561,0.949-0.652,0.938,0C29.122-8.888,28.195-8.898,28.195-9.479z" style="fill:#00AEEF;"/>
  <path d="M30.201-9.312c0-0.561,0.949-0.652,0.937,0C31.128-8.721,30.201-8.731,30.201-9.312z" style="fill:#00AEEF;"/>
  <path d="M25.368-12.583c0-0.561,0.949-0.652,0.937,0C26.295-11.992,25.368-12.002,25.368-12.583z" style="fill:#00AEEF;"/>
  <path d="M23.868-13.333c0-0.561,0.949-0.652,0.938,0C24.795-12.742,23.868-12.752,23.868-13.333z" style="fill:#00AEEF;"/>
  <path d="M25.695-14c0-0.561,0.949-0.652,0.937,0C26.622-13.408,25.695-13.419,25.695-14z" style="fill:#00AEEF;"/>
  <path d="M26.945-15.25c0-0.561,0.949-0.652,0.937,0C27.872-14.658,26.945-14.669,26.945-15.25z" style="fill:#00AEEF;"/>
  <path d="M27.361-16.833c0-0.56,0.949-0.652,0.937,0C28.289-16.242,27.361-16.252,27.361-16.833z" style="fill:#00AEEF;"/>
  <path d="M27.611-18.583c0-0.56,0.949-0.652,0.937,0C28.539-17.992,27.611-18.002,27.611-18.583z" style="fill:#00AEEF;"/>
  <path d="M27.945-20.166c0-0.56,0.949-0.652,0.937,0C28.872-19.575,27.945-19.585,27.945-20.166z" style="fill:#00AEEF;"/>
  <path d="M28.195-21.833c0-0.56,0.949-0.652,0.938,0C29.122-21.242,28.195-21.252,28.195-21.833z" style="fill:#00AEEF;"/>
  <path d="M28.445-23.5c0-0.56,0.949-0.652,0.937,0C29.372-22.909,28.445-22.919,28.445-23.5z" style="fill:#00AEEF;"/>
  <path d="M27.118-23.833c0-0.56,0.949-0.652,0.937,0C28.045-23.242,27.118-23.252,27.118-23.833z" style="fill:#00AEEF;"/>
  <path d="M26.618-22.083c0-0.56,0.949-0.652,0.937,0C27.545-21.492,26.618-21.502,26.618-22.083z" style="fill:#00AEEF;"/>
  <path d="M26.361-20.5c0-0.56,0.949-0.652,0.937,0C27.289-19.909,26.361-19.919,26.361-20.5z" style="fill:#00AEEF;"/>
  <path d="M26.195-18.833c0-0.56,0.949-0.652,0.938,0C27.122-18.242,26.195-18.252,26.195-18.833z" style="fill:#00AEEF;"/>
  <path d="M25.701-17.5c0-0.56,0.949-0.652,0.937,0C26.628-16.909,25.701-16.919,25.701-17.5z" style="fill:#00AEEF;"/>
  <path d="M25.451-15.75c0-0.56,0.949-0.652,0.938,0C26.378-15.158,25.451-15.169,25.451-15.75z" style="fill:#00AEEF;"/>
  <path d="M29.216-25.208c0-0.56,0.949-0.652,0.937,0C30.143-24.617,29.216-24.627,29.216-25.208z" style="fill:#00AEEF;"/>
  <path d="M30.814-25.562c0-0.56,0.949-0.652,0.937,0C31.741-24.971,30.814-24.981,30.814-25.562z" style="fill:#00AEEF;"/>
  <path d="M32.451-25.916c0-0.56,0.949-0.652,0.938,0C33.378-25.325,32.451-25.335,32.451-25.916z" style="fill:#00AEEF;"/>
  <path d="M31.695-27.291c0-0.56,0.949-0.652,0.937,0C32.622-26.7,31.695-26.71,31.695-27.291z" style="fill:#00AEEF;"/>
  <path d="M30.18-26.791c0-0.56,0.949-0.652,0.937,0C31.108-26.2,30.18-26.21,30.18-26.791z" style="fill:#00AEEF;"/>
  <path d="M32.195-28.666c0-0.56,0.949-0.652,0.938,0C33.122-28.075,32.195-28.085,32.195-28.666z" style="fill:#00AEEF;"/>
  <path d="M32.014-30.062c0-0.56,0.949-0.652,0.937,0C32.941-29.471,32.014-29.481,32.014-30.062z" style="fill:#00AEEF;"/>
  <path d="M19.528-7.583c0-0.561,0.949-0.652,0.937,0C20.455-6.992,19.528-7.002,19.528-7.583z" style="fill:#00AEEF;"/>
  <path d="M21.028-8.25c0-0.561,0.949-0.652,0.937,0C21.955-7.659,21.028-7.669,21.028-8.25z" style="fill:#00AEEF;"/>
  <path d="M22.736-8.625c0-0.561,0.949-0.652,0.937,0C23.664-8.033,22.736-8.044,22.736-8.625z" style="fill:#00AEEF;"/>
  <path d="M24.278-8.666c0-0.561,0.949-0.652,0.937,0C25.205-8.075,24.278-8.085,24.278-8.666z" style="fill:#00AEEF;"/>
  <path d="M26.201-8.666c0-0.561,0.949-0.652,0.937,0C27.128-8.075,26.201-8.085,26.201-8.666z" style="fill:#00AEEF;"/>
  <path d="M27.799-8.125c0-0.561,0.949-0.652,0.937,0C28.726-7.534,27.799-7.544,27.799-8.125z" style="fill:#00AEEF;"/>
  <path d="M31.514-7.374c0-0.561,0.949-0.652,0.937,0C32.441-6.784,31.514-6.794,31.514-7.374z" style="fill:#00AEEF;"/>
  <path d="M31.951-8.812c0-0.561,0.949-0.652,0.937,0C32.878-8.221,31.951-8.231,31.951-8.812z" style="fill:#00AEEF;"/>
  <path d="M29.701-7.937c0-0.561,0.949-0.652,0.937,0C30.628-7.346,29.701-7.356,29.701-7.937z" style="fill:#00AEEF;"/>
  <path d="M28.014-6.499c0-0.561,0.949-0.652,0.937,0C28.941-5.909,28.014-5.919,28.014-6.499z" style="fill:#00AEEF;"/>
  <path d="M26.389-5.749c0-0.561,0.949-0.652,0.937,0C27.316-5.159,26.389-5.169,26.389-5.749z" style="fill:#00AEEF;"/>
  <path d="M26.924-4.583c0-0.561,0.949-0.652,0.937,0C27.851-3.992,26.924-4.002,26.924-4.583z" style="fill:#00AEEF;"/>
  <path d="M22.82-6.583c0-0.561,0.949-0.652,0.938,0C23.747-5.992,22.82-6.002,22.82-6.583z" style="fill:#00AEEF;"/>
  <path d="M21.201-6.583c0-0.561,0.949-0.652,0.937,0C22.128-5.992,21.201-6.002,21.201-6.583z" style="fill:#00AEEF;"/>
  <path d="M21.451-4.966c0-0.561,0.949-0.652,0.938,0C22.378-4.375,21.451-4.385,21.451-4.966z" style="fill:#00AEEF;"/>
  <path d="M19.618-6.083c0-0.561,0.949-0.652,0.937,0C20.545-5.492,19.618-5.502,19.618-6.083z" style="fill:#00AEEF;"/>
  <path d="M22.395-3.091c0-0.56,0.949-0.652,0.938,0C23.322-2.5,22.395-2.51,22.395-3.091z" style="fill:#00AEEF;"/>
  <path d="M24.382-6.854c0-0.56,0.949-0.652,0.937,0C25.309-6.263,24.382-6.273,24.382-6.854z" style="fill:#00AEEF;"/>
  <path d="M1.125-19.187c0-0.56,0.949-0.652,0.938,0C2.052-18.596,1.125-18.606,1.125-19.187z" style="fill:#00AEEF;"/>
  <path d="M1.707-17.687c0-0.56,0.949-0.652,0.938,0C2.635-17.096,1.707-17.106,1.707-17.687z" style="fill:#00AEEF;"/>
  <path d="M2.582-16.375c0-0.56,0.949-0.652,0.938,0C3.51-15.783,2.582-15.794,2.582-16.375z" style="fill:#00AEEF;"/>
  <path d="M3.707-15.062c0-0.561,0.949-0.652,0.938,0C4.635-14.471,3.707-14.481,3.707-15.062z" style="fill:#00AEEF;"/>
  <path d="M4.832-14.062c0-0.561,0.949-0.652,0.938,0C5.76-13.471,4.832-13.481,4.832-14.062z" style="fill:#00AEEF;"/>
  <path d="M6.082-13.187c0-0.561,0.949-0.652,0.938,0C7.01-12.596,6.082-12.606,6.082-13.187z" style="fill:#00AEEF;"/>
  <path d="M4.332-12.312c0-0.561,0.949-0.652,0.937,0C5.26-11.721,4.332-11.731,4.332-12.312z" style="fill:#00AEEF;"/>
  <path d="M3.082-13.562c0-0.561,0.949-0.652,0.938,0C4.01-12.971,3.082-12.981,3.082-13.562z" style="fill:#00AEEF;"/>
  <path d="M2.145-15.062c0-0.561,0.949-0.652,0.937,0C3.072-14.471,2.145-14.481,2.145-15.062z" style="fill:#00AEEF;"/>
  <path d="M1.082-16.375c0-0.56,0.949-0.652,0.938,0C2.01-15.783,1.082-15.794,1.082-16.375z" style="fill:#00AEEF;"/>
  <path d="M18.028-6.583c0-0.561,0.949-0.652,0.937,0C18.955-5.992,18.028-6.002,18.028-6.583z" style="fill:#00AEEF;"/>
  <path d="M20.528-15.5c0-0.56,0.949-0.652,0.937,0C21.455-14.908,20.528-14.919,20.528-15.5z" style="fill:#00AEEF;"/>
  <path d="M18.868-15.083c0-0.561,0.949-0.652,0.938,0C19.795-14.492,18.868-14.502,18.868-15.083z" style="fill:#00AEEF;"/>
  <path d="M17.368-14.25c0-0.561,0.949-0.652,0.937,0C18.295-13.658,17.368-13.669,17.368-14.25z" style="fill:#00AEEF;"/>
  <path d="M15.951-13.416c0-0.561,0.949-0.652,0.937,0C16.878-12.825,15.951-12.835,15.951-13.416z" style="fill:#00AEEF;"/>
  <path d="M15.111-14.75c0-0.561,0.949-0.652,0.937,0C16.039-14.158,15.111-14.169,15.111-14.75z" style="fill:#00AEEF;"/>
  <path d="M17.618-16.25c0-0.56,0.949-0.652,0.937,0C18.545-15.658,17.618-15.669,17.618-16.25z" style="fill:#00AEEF;"/>
  <path d="M19.201-16.5c0-0.56,0.949-0.652,0.937,0C20.128-15.908,19.201-15.919,19.201-16.5z" style="fill:#00AEEF;"/>
  <path d="M20.701-17.333c0-0.56,0.949-0.652,0.937,0C21.628-16.742,20.701-16.752,20.701-17.333z" style="fill:#00AEEF;"/>
  <path d="M22.285-17.583c0-0.56,0.949-0.652,0.937,0C23.212-16.992,22.285-17.002,22.285-17.583z" style="fill:#00AEEF;"/>
  <path d="M16.201-15.666c0-0.561,0.949-0.652,0.937,0C17.128-15.075,16.201-15.085,16.201-15.666z" style="fill:#00AEEF;"/>
  <path d="M14.868-12.416c0-0.561,0.949-0.652,0.938,0C15.795-11.825,14.868-11.835,14.868-12.416z" style="fill:#00AEEF;"/>
  <path d="M13.785-13.666c0-0.561,0.949-0.652,0.937,0C14.712-13.075,13.785-13.085,13.785-13.666z" style="fill:#00AEEF;"/>
  <path d="M13.868-11.583c0-0.561,0.949-0.652,0.938,0C14.795-10.992,13.868-11.002,13.868-11.583z" style="fill:#00AEEF;"/>
  <path d="M12.695-12.666c0-0.561,0.949-0.652,0.937,0C13.622-12.075,12.695-12.085,12.695-12.666z" style="fill:#00AEEF;"/>
  <path d="M20.195-10c0-0.561,0.949-0.652,0.938,0C21.122-9.408,20.195-9.419,20.195-10z" style="fill:#00AEEF;"/>
  <path d="M21.695-10.333c0-0.561,0.949-0.652,0.937,0C22.622-9.742,21.695-9.752,21.695-10.333z" style="fill:#00AEEF;"/>
  <path d="M22.028-15.833c0-0.56,0.949-0.652,0.937,0C22.955-15.242,22.028-15.252,22.028-15.833z" style="fill:#00AEEF;"/>
  <path d="M24.195-14.916c0-0.561,0.949-0.652,0.938,0C25.122-14.325,24.195-14.335,24.195-14.916z" style="fill:#00AEEF;"/>
  <path d="M32.951-31.666c0-0.56,0.949-0.652,0.937,0C33.878-31.075,32.951-31.085,32.951-31.666z" style="fill:#00AEEF;"/>
  <path d="M23.445-16.5c0-0.56,0.949-0.652,0.937,0C24.372-15.908,23.445-15.919,23.445-16.5z" style="fill:#00AEEF;"/>
  <path d="M22.368-14.166c0-0.561,0.949-0.652,0.937,0C23.295-13.575,22.368-13.585,22.368-14.166z" style="fill:#00AEEF;"/>
  <path d="M20.701-13.75c0-0.561,0.949-0.652,0.937,0C21.628-13.158,20.701-13.169,20.701-13.75z" style="fill:#00AEEF;"/>
  <path d="M19.201-13.333c0-0.561,0.949-0.652,0.937,0C20.128-12.742,19.201-12.752,19.201-13.333z" style="fill:#00AEEF;"/>
  <path d="M17.945-12.583c0-0.561,0.949-0.652,0.937,0C18.872-11.992,17.945-12.002,17.945-12.583z" style="fill:#00AEEF;"/>
  <path d="M16.618-11.666c0-0.561,0.949-0.652,0.937,0C17.545-11.075,16.618-11.085,16.618-11.666z" style="fill:#00AEEF;"/>
  <path d="M15.368-10.75c0-0.561,0.949-0.652,0.937,0C16.295-10.158,15.368-10.169,15.368-10.75z" style="fill:#00AEEF;"/>
  <path d="M14.278-9.583c0-0.561,0.949-0.652,0.937,0C15.205-8.992,14.278-9.002,14.278-9.583z" style="fill:#00AEEF;"/>
  <path d="M13.035-8.583c0-0.561,0.949-0.652,0.937,0C13.962-7.992,13.035-8.002,13.035-8.583z" style="fill:#00AEEF;"/>
  <path d="M12.868-10.5c0-0.561,0.949-0.652,0.938,0C13.795-9.908,12.868-9.919,12.868-10.5z" style="fill:#00AEEF;"/>
  <path d="M11.534-11.333c0-0.561,0.949-0.652,0.938,0C12.462-10.742,11.534-10.752,11.534-11.333z" style="fill:#00AEEF;"/>
  <path d="M11.528-9.833c0-0.561,0.949-0.652,0.937,0C12.455-9.242,11.528-9.252,11.528-9.833z" style="fill:#00AEEF;"/>
  <path d="M2.889-11.625c0-0.561,0.949-0.652,0.937,0C3.816-11.033,2.889-11.044,2.889-11.625z" style="fill:#00AEEF;"/>
  <path d="M1.764-12.812c0-0.561,0.949-0.652,0.937,0C2.691-12.221,1.764-12.231,1.764-12.812z" style="fill:#00AEEF;"/>
  <path d="M1.125-14.125c0-0.561,0.949-0.652,0.938,0C2.052-13.533,1.125-13.544,1.125-14.125z" style="fill:#00AEEF;"/>
  <path d="M31.618-31.333c0-0.56,0.949-0.652,0.937,0C32.545-30.742,31.618-30.752,31.618-31.333z" style="fill:#00AEEF;"/>
  <path d="M30.361-30.583c0-0.56,0.949-0.652,0.937,0C31.289-29.992,30.361-30.002,30.361-30.583z" style="fill:#00AEEF;"/>
  <path d="M29.035-29.916c0-0.56,0.949-0.652,0.937,0C29.962-29.325,29.035-29.335,29.035-29.916z" style="fill:#00AEEF;"/>
  <path d="M28.195-28.833c0-0.56,0.949-0.652,0.938,0C29.122-28.242,28.195-28.252,28.195-28.833z" style="fill:#00AEEF;"/>
  <path d="M26.785-27.833c0-0.56,0.949-0.652,0.937,0C27.712-27.242,26.785-27.252,26.785-27.833z" style="fill:#00AEEF;"/>
  <path d="M26.111-26.25c0-0.56,0.949-0.652,0.937,0C27.039-25.659,26.111-25.669,26.111-26.25z" style="fill:#00AEEF;"/>
  <path d="M25.861-24.75c0-0.56,0.949-0.652,0.938,0C26.789-24.159,25.861-24.169,25.861-24.75z" style="fill:#00AEEF;"/>
  <path d="M25.528-23c0-0.56,0.949-0.652,0.937,0C26.455-22.409,25.528-22.419,25.528-23z" style="fill:#00AEEF;"/>
  <path d="M24.861-21.25c0-0.56,0.949-0.652,0.938,0C25.789-20.659,24.861-20.669,24.861-21.25z" style="fill:#00AEEF;"/>
  <path d="M24.611-19.583c0-0.56,0.949-0.652,0.937,0C25.539-18.992,24.611-19.002,24.611-19.583z" style="fill:#00AEEF;"/>
  <path d="M24.195-18.083c0-0.56,0.949-0.652,0.938,0C25.122-17.492,24.195-17.502,24.195-18.083z" style="fill:#00AEEF;"/>
  <path d="M22.785-19.083c0-0.56,0.949-0.652,0.937,0C23.712-18.492,22.785-18.502,22.785-19.083z" style="fill:#00AEEF;"/>
  <path d="M23.528-20.583c0-0.56,0.949-0.652,0.937,0C24.455-19.992,23.528-20.002,23.528-20.583z" style="fill:#00AEEF;"/>
  <path d="M23.195-22.25c0-0.56,0.949-0.652,0.938,0C24.122-21.659,23.195-21.669,23.195-22.25z" style="fill:#00AEEF;"/>
  <path d="M24.111-23.5c0-0.56,0.949-0.652,0.937,0C25.039-22.909,24.111-22.919,24.111-23.5z" style="fill:#00AEEF;"/>
  <path d="M24.285-25.166c0-0.56,0.949-0.652,0.937,0C25.212-24.575,24.285-24.585,24.285-25.166z" style="fill:#00AEEF;"/>
  <path d="M24.861-27c0-0.56,0.949-0.652,0.938,0C25.789-26.409,24.861-26.419,24.861-27z" style="fill:#00AEEF;"/>
  <path d="M23.195-27.666c0-0.56,0.949-0.652,0.938,0C24.122-27.075,23.195-27.085,23.195-27.666z" style="fill:#00AEEF;"/>
  <path d="M21.534-27.916c0-0.56,0.949-0.652,0.938,0C22.462-27.325,21.534-27.335,21.534-27.916z" style="fill:#00AEEF;"/>
  <path d="M20.035-27.5c0-0.56,0.949-0.652,0.937,0C20.962-26.909,20.035-26.919,20.035-27.5z" style="fill:#00AEEF;"/>
  <path d="M18.618-26.833c0-0.56,0.949-0.652,0.937,0C19.545-26.242,18.618-26.252,18.618-26.833z" style="fill:#00AEEF;"/>
  <path d="M17.451-27.437c0-0.56,0.949-0.652,0.938,0C18.378-26.846,17.451-26.856,17.451-27.437z" style="fill:#00AEEF;"/>
  <path d="M16.451-5.666c0-0.56,0.949-0.652,0.938,0C17.378-5.075,16.451-5.085,16.451-5.666z" style="fill:#00AEEF;"/>
  <path d="M14.528-39.354c0-0.561,0.949-0.652,0.937,0C15.455-38.763,14.528-38.773,14.528-39.354z" style="fill:#00AEEF;"/>
  <path d="M12.778-37c0-0.561,0.949-0.652,0.938,0C13.705-36.409,12.778-36.419,12.778-37z" style="fill:#00AEEF;"/>
  <path d="M7.764-12.562c0-0.561,0.949-0.652,0.937,0C8.691-11.971,7.764-11.981,7.764-12.562z" style="fill:#00AEEF;"/>
  <path d="M8.451-11.312c0-0.561,0.949-0.652,0.938,0C9.378-10.721,8.451-10.731,8.451-11.312z" style="fill:#00AEEF;"/>
  <path d="M10.014-11.125c0-0.561,0.949-0.652,0.937,0C10.941-10.533,10.014-10.544,10.014-11.125z" style="fill:#00AEEF;"/>
  <path d="M10.076-9.875c0-0.561,0.949-0.652,0.937,0C11.003-9.283,10.076-9.294,10.076-9.875z" style="fill:#00AEEF;"/>
  <path d="M8.576-9.75c0-0.561,0.949-0.652,0.937,0C9.503-9.158,8.576-9.169,8.576-9.75z" style="fill:#00AEEF;"/>
  <path d="M7.139-9.187c0-0.561,0.949-0.652,0.937,0C8.066-8.596,7.139-8.606,7.139-9.187z" style="fill:#00AEEF;"/>
  <path d="M5.639-8.375c0-0.561,0.949-0.652,0.938,0C6.566-7.784,5.639-7.794,5.639-8.375z" style="fill:#00AEEF;"/>
  <path d="M4.076-7.437c0-0.561,0.949-0.652,0.937,0C5.003-6.846,4.076-6.856,4.076-7.437z" style="fill:#00AEEF;"/>
  <path d="M2.826-6.437c0-0.561,0.949-0.652,0.938,0C3.753-5.846,2.826-5.856,2.826-6.437z" style="fill:#00AEEF;"/>
  <path d="M1.201-5.687c0-0.561,0.949-0.652,0.937,0C2.128-5.096,1.201-5.106,1.201-5.687z" style="fill:#00AEEF;"/>
  <path d="M23.534-31.166c0-0.56,0.949-0.652,0.938,0C24.462-30.575,23.534-30.585,23.534-31.166z" style="fill:#00AEEF;"/>
  <path d="M21.778-31.333c0-0.56,0.949-0.652,0.938,0C22.705-30.742,21.778-30.752,21.778-31.333z" style="fill:#00AEEF;"/>
  <path d="M20.195-31.083c0-0.56,0.949-0.652,0.938,0C21.122-30.492,20.195-30.502,20.195-31.083z" style="fill:#00AEEF;"/>
  <path d="M11.326-8.312c0-0.561,0.949-0.652,0.937,0C12.253-7.721,11.326-7.731,11.326-8.312z" style="fill:#00AEEF;"/>
  <path d="M9.826-8.375c0-0.561,0.949-0.652,0.938,0C10.753-7.784,9.826-7.794,9.826-8.375z" style="fill:#00AEEF;"/>
  <path d="M8.451-7.937c0-0.561,0.949-0.652,0.938,0C9.378-7.346,8.451-7.356,8.451-7.937z" style="fill:#00AEEF;"/>
  <path d="M6.951-7.312c0-0.561,0.949-0.652,0.937,0C7.878-6.721,6.951-6.731,6.951-7.312z" style="fill:#00AEEF;"/>
  <path d="M5.389-6.437c0-0.561,0.949-0.652,0.937,0C6.316-5.846,5.389-5.856,5.389-6.437z" style="fill:#00AEEF;"/>
  <path d="M3.889-5.437c0-0.561,0.949-0.652,0.937,0C4.816-4.846,3.889-4.856,3.889-5.437z" style="fill:#00AEEF;"/>
  <path d="M2.639-4.687c0-0.561,0.949-0.652,0.938,0C3.566-4.096,2.639-4.106,2.639-4.687z" style="fill:#00AEEF;"/>
  <path d="M1.451-3.875c0-0.56,0.949-0.652,0.938,0C2.378-3.283,1.451-3.294,1.451-3.875z" style="fill:#00AEEF;"/>
  <path d="M1.076-2.595c0-0.56,0.949-0.652,0.937,0C2.003-2.004,1.076-2.015,1.076-2.595z" style="fill:#00AEEF;"/>
  <path d="M2.172-1.625c0-0.56,0.949-0.652,0.937,0C3.099-1.033,2.172-1.044,2.172-1.625z" style="fill:#00AEEF;"/>
  <path d="M2.764-2.875c0-0.56,0.949-0.652,0.937,0C3.691-2.283,2.764-2.294,2.764-2.875z" style="fill:#00AEEF;"/>
  <path d="M4.139-3.937c0-0.56,0.949-0.652,0.937,0C5.066-3.346,4.139-3.356,4.139-3.937z" style="fill:#00AEEF;"/>
  <path d="M5.576-4.687c0-0.561,0.949-0.652,0.937,0C6.503-4.096,5.576-4.106,5.576-4.687z" style="fill:#00AEEF;"/>
  <path d="M4.361-1.937c0-0.56,0.949-0.652,0.937,0C5.289-1.346,4.361-1.356,4.361-1.937z" style="fill:#00AEEF;"/>
  <path d="M7.014-5.437c0-0.561,0.949-0.652,0.937,0C7.941-4.846,7.014-4.856,7.014-5.437z" style="fill:#00AEEF;"/>
  <path d="M8.514-6.249c0-0.561,0.949-0.652,0.937,0C9.441-5.659,8.514-5.669,8.514-6.249z" style="fill:#00AEEF;"/>
  <path d="M10.264-7.062c0-0.561,0.949-0.652,0.937,0C11.191-6.471,10.264-6.481,10.264-7.062z" style="fill:#00AEEF;"/>
  <path d="M12.014-6.874c0-0.561,0.949-0.652,0.937,0C12.941-6.284,12.014-6.294,12.014-6.874z" style="fill:#00AEEF;"/>
  <path d="M13.514-7.062c0-0.561,0.949-0.652,0.937,0C14.441-6.471,13.514-6.481,13.514-7.062z" style="fill:#00AEEF;"/>
  <path d="M14.889-7.999c0-0.561,0.949-0.652,0.937,0C15.816-7.409,14.889-7.419,14.889-7.999z" style="fill:#00AEEF;"/>
  <path d="M16.076-9.062c0-0.561,0.949-0.652,0.937,0C17.003-8.471,16.076-8.481,16.076-9.062z" style="fill:#00AEEF;"/>
  <path d="M17.264-10.062c0-0.561,0.949-0.652,0.937,0C18.191-9.471,17.264-9.481,17.264-10.062z" style="fill:#00AEEF;"/>
  <path d="M18.389-11c0-0.561,0.949-0.652,0.937,0C19.316-10.408,18.389-10.419,18.389-11z" style="fill:#00AEEF;"/>
  <path d="M19.701-11.812c0-0.561,0.949-0.652,0.937,0C20.628-11.221,19.701-11.231,19.701-11.812z" style="fill:#00AEEF;"/>
  <path d="M21.076-12.125c0-0.561,0.949-0.652,0.937,0C22.003-11.533,21.076-11.544,21.076-12.125z" style="fill:#00AEEF;"/>
  <path d="M22.389-12.687c0-0.561,0.949-0.652,0.937,0C23.316-12.096,22.389-12.106,22.389-12.687z" style="fill:#00AEEF;"/>
  <path d="M7.014-10.812c0-0.561,0.949-0.652,0.937,0C7.941-10.221,7.014-10.231,7.014-10.812z" style="fill:#00AEEF;"/>
  <path d="M5.576-10c0-0.561,0.949-0.652,0.937,0C6.503-9.408,5.576-9.419,5.576-10z" style="fill:#00AEEF;"/>
  <path d="M4.139-9.187c0-0.561,0.949-0.652,0.937,0C5.066-8.596,4.139-8.606,4.139-9.187z" style="fill:#00AEEF;"/>
  <path d="M2.764-8.25c0-0.561,0.949-0.652,0.937,0C3.691-7.659,2.764-7.669,2.764-8.25z" style="fill:#00AEEF;"/>
  <path d="M1.201-7.499c0-0.561,0.949-0.652,0.937,0C2.128-6.909,1.201-6.919,1.201-7.499z" style="fill:#00AEEF;"/>
  <path d="M15.111-32.583c0-0.56,0.949-0.652,0.937,0C16.039-31.992,15.111-32.002,15.111-32.583z" style="fill:#00AEEF;"/>
  <path d="M13.966-33.375c0-0.561,0.949-0.652,0.938,0C14.893-32.784,13.966-32.794,13.966-33.375z" style="fill:#00AEEF;"/>
  <path d="M12.424-33.52c0-0.56,0.949-0.652,0.937,0C13.351-32.929,12.424-32.939,12.424-33.52z" style="fill:#00AEEF;"/>
  <path d="M10.911-34.083c0-0.56,0.949-0.652,0.937,0C11.839-33.492,10.911-33.502,10.911-34.083z" style="fill:#00AEEF;"/>
  <path d="M25.278-30.5c0-0.56,0.949-0.652,0.937,0C26.205-29.909,25.278-29.919,25.278-30.5z" style="fill:#00AEEF;"/>
  <path d="M5.826-11.812c0-0.561,0.949-0.652,0.938,0C6.753-11.221,5.826-11.231,5.826-11.812z" style="fill:#00AEEF;"/>
  <path d="M4.264-10.937c0-0.561,0.949-0.652,0.937,0C5.191-10.346,4.264-10.356,4.264-10.937z" style="fill:#00AEEF;"/>
  <path d="M2.889-10.312c0-0.561,0.949-0.652,0.937,0C3.816-9.721,2.889-9.731,2.889-10.312z" style="fill:#00AEEF;"/>
  <path d="M1.201-9.5c0-0.561,0.949-0.652,0.937,0C2.128-8.908,1.201-8.919,1.201-9.5z" style="fill:#00AEEF;"/>
  <path d="M21.195-32.916c0-0.561,0.949-0.652,0.938,0C22.122-32.325,21.195-32.335,21.195-32.916z" style="fill:#00AEEF;"/>
  <path d="M19.778-32.666c0-0.561,0.949-0.652,0.938,0C20.705-32.075,19.778-32.085,19.778-32.666z" style="fill:#00AEEF;"/>
  <path d="M18.111-32.5c0-0.561,0.949-0.652,0.937,0C19.039-31.909,18.111-31.919,18.111-32.5z" style="fill:#00AEEF;"/>
  <path d="M16.618-32.583c0-0.56,0.949-0.652,0.937,0C17.545-31.992,16.618-32.002,16.618-32.583z" style="fill:#00AEEF;"/>
  <path d="M19.576-34.062c0-0.561,0.949-0.652,0.937,0C20.503-33.471,19.576-33.481,19.576-34.062z" style="fill:#00AEEF;"/>
  <path d="M17.889-34.375c0-0.561,0.949-0.652,0.937,0C18.816-33.784,17.889-33.794,17.889-34.375z" style="fill:#00AEEF;"/>
  <path d="M12.035-35.5c0-0.561,0.949-0.652,0.937,0C12.962-34.909,12.035-34.919,12.035-35.5z" style="fill:#00AEEF;"/>
  <path d="M13.451-35.083c0-0.56,0.949-0.652,0.938,0C14.378-34.492,13.451-34.502,13.451-35.083z" style="fill:#00AEEF;"/>
  <path d="M14.972-34.458c0-0.56,0.949-0.652,0.937,0C15.899-33.867,14.972-33.877,14.972-34.458z" style="fill:#00AEEF;"/>
  <path d="M16.451-34.125c0-0.561,0.949-0.652,0.938,0C17.378-33.534,16.451-33.544,16.451-34.125z" style="fill:#00AEEF;"/>
  <path d="M35.014-5.562c0-0.561,0.949-0.652,0.937,0C35.941-4.971,35.014-4.981,35.014-5.562z" style="fill:#00AEEF;"/>
  <path d="M33.326-3c0-0.56,0.949-0.652,0.937,0C34.253-2.408,33.326-2.419,33.326-3z" style="fill:#00AEEF;"/>
  <path d="M34.326-4.187c0-0.561,0.949-0.652,0.937,0C35.253-3.596,34.326-3.606,34.326-4.187z" style="fill:#00AEEF;"/>
  <path d="M39.722-10.625c0-0.561,0.949-0.652,0.938,0C40.649-10.033,39.722-10.044,39.722-10.625z" style="fill:#00AEEF;"/>
  <path d="M39.882-4.133c0-0.561,0.949-0.652,0.937,0C40.809-3.542,39.882-3.552,39.882-4.133z" style="fill:#00AEEF;"/>
  <path d="M39.049-3c0-0.56,0.949-0.652,0.938,0C39.976-2.408,39.049-2.419,39.049-3z" style="fill:#00AEEF;"/>
  <path d="M38.514-1.75c0-0.56,0.949-0.652,0.937,0C39.441-1.158,38.514-1.169,38.514-1.75z" style="fill:#00AEEF;"/>
  <path d="M40.007-1.631c0-0.561,0.949-0.652,0.938,0C40.934-1.04,40.007-1.051,40.007-1.631z" style="fill:#00AEEF;"/>
  <path d="M39.722-5.562c0-0.561,0.949-0.652,0.938,0C40.649-4.971,39.722-4.981,39.722-5.562z" style="fill:#00AEEF;"/>
  <path d="M38.222-4.312c0-0.561,0.949-0.652,0.937,0C39.149-3.721,38.222-3.731,38.222-4.312z" style="fill:#00AEEF;"/>
  <path d="M37.16-3.187c0-0.56,0.949-0.652,0.937,0C38.087-2.596,37.16-2.606,37.16-3.187z" style="fill:#00AEEF;"/>
  <path d="M35.576-3c0-0.56,0.949-0.652,0.937,0C36.503-2.408,35.576-2.419,35.576-3z" style="fill:#00AEEF;"/>
  <path d="M36.583-1.933c0-0.56,0.949-0.652,0.937,0C37.51-1.342,36.583-1.352,36.583-1.933z" style="fill:#00AEEF;"/>
  <path d="M39.66-8.937c0-0.561,0.949-0.652,0.937,0C40.587-8.346,39.66-8.356,39.66-8.937z" style="fill:#00AEEF;"/>
  <path d="M38.361-8.125c0-0.561,0.949-0.652,0.937,0C39.289-7.534,38.361-7.544,38.361-8.125z" style="fill:#00AEEF;"/>
  <path d="M34.028-6.749c0-0.561,0.949-0.652,0.937,0C34.955-6.159,34.028-6.169,34.028-6.749z" style="fill:#00AEEF;"/>
  <path d="M23.88-3.279c0-0.56,0.949-0.652,0.938,0C24.808-2.688,23.88-2.698,23.88-3.279z" style="fill:#00AEEF;"/>
  <path d="M23.076-5.062c0-0.561,0.949-0.652,0.937,0C24.003-4.471,23.076-4.481,23.076-5.062z" style="fill:#00AEEF;"/>
  <path d="M37.701-5.916c0-0.56,0.949-0.652,0.937,0C38.628-5.325,37.701-5.335,37.701-5.916z" style="fill:#00AEEF;"/>
  <path d="M39.27-6.908c0-0.561,0.949-0.652,0.938,0C40.197-6.317,39.27-6.327,39.27-6.908z" style="fill:#00AEEF;"/>
  <path d="M36.445-4.562c0-0.561,0.949-0.652,0.937,0C37.372-3.971,36.445-3.981,36.445-4.562z" style="fill:#00AEEF;"/>
  <path d="M34.764-1.875c0-0.56,0.949-0.652,0.937,0C35.691-1.283,34.764-1.294,34.764-1.875z" style="fill:#00AEEF;"/>
  <path d="M38.326-9.812c0-0.561,0.949-0.652,0.937,0C39.253-9.221,38.326-9.231,38.326-9.812z" style="fill:#00AEEF;"/>
  <path d="M37.035-7.416c0-0.56,0.949-0.652,0.937,0C37.962-6.825,37.035-6.835,37.035-7.416z" style="fill:#00AEEF;"/>
  <path d="M35.951-6.666c0-0.56,0.949-0.652,0.937,0C36.878-6.075,35.951-6.085,35.951-6.666z" style="fill:#00AEEF;"/>
  <path d="M36.826-9.375c0-0.561,0.949-0.652,0.938,0C37.753-8.783,36.826-8.794,36.826-9.375z" style="fill:#00AEEF;"/>
  <path d="M1.139-11.312c0-0.561,0.949-0.652,0.937,0C2.066-10.721,1.139-10.731,1.139-11.312z" style="fill:#00AEEF;"/>
  <path d="M1.236-36.375c0-0.561,0.949-0.652,0.938,0C2.164-35.784,1.236-35.794,1.236-36.375z" style="fill:#00AEEF;"/>
  <path d="M1.27-29.812c0-0.56,0.949-0.652,0.938,0C2.197-29.221,1.27-29.231,1.27-29.812z" style="fill:#00AEEF;"/>
  <path d="M1.082-28.062c0-0.56,0.949-0.652,0.938,0C2.01-27.471,1.082-27.481,1.082-28.062z" style="fill:#00AEEF;"/>
  <path d="M1.082-26.437c0-0.56,0.949-0.652,0.937,0C2.01-25.846,1.082-25.856,1.082-26.437z" style="fill:#00AEEF;"/>
  <path d="M1.082-24.937c0-0.56,0.949-0.652,0.938,0C2.01-24.346,1.082-24.356,1.082-24.937z" style="fill:#00AEEF;"/>
  <path d="M1.332-23.375c0-0.56,0.949-0.652,0.937,0C2.26-22.784,1.332-22.794,1.332-23.375z" style="fill:#00AEEF;"/>
  <path d="M1.707-21.812c0-0.56,0.949-0.652,0.938,0C2.635-21.221,1.707-21.231,1.707-21.812z" style="fill:#00AEEF;"/>
  <path d="M2.207-20.25c0-0.56,0.949-0.652,0.938,0C3.135-19.659,2.207-19.669,2.207-20.25z" style="fill:#00AEEF;"/>
  <path d="M2.77-18.875c0-0.56,0.949-0.652,0.938,0C3.697-18.284,2.77-18.294,2.77-18.875z" style="fill:#00AEEF;"/>
  <path d="M3.457-17.5c0-0.56,0.949-0.652,0.938,0C4.385-16.909,3.457-16.919,3.457-17.5z" style="fill:#00AEEF;"/>
  <path d="M4.549-16.187c0-0.56,0.949-0.652,0.937,0C5.476-15.596,4.549-15.606,4.549-16.187z" style="fill:#00AEEF;"/>
  <path d="M5.674-15.25c0-0.561,0.949-0.652,0.938,0C6.601-14.658,5.674-14.669,5.674-15.25z" style="fill:#00AEEF;"/>
  <path d="M7.361-14.062c0-0.561,0.949-0.652,0.937,0C8.289-13.471,7.361-13.481,7.361-14.062z" style="fill:#00AEEF;"/>
  <path d="M6.332-1.75c0-0.56,0.949-0.652,0.937,0C7.26-1.158,6.332-1.169,6.332-1.75z" style="fill:#00AEEF;"/>
  <path d="M5.486-2.875c0-0.56,0.949-0.652,0.937,0C6.414-2.283,5.486-2.294,5.486-2.875z" style="fill:#00AEEF;"/>
  <path d="M8.207-1.625c0-0.56,0.949-0.652,0.938,0C9.135-1.033,8.207-1.044,8.207-1.625z" style="fill:#00AEEF;"/>
  <path d="M24.612-35.009c0.039-0.559,0.992-0.584,0.935,0.066C25.495-34.355,24.571-34.43,24.612-35.009z" style="fill:#00AEEF;"/>
  <path d="M25.945-33.676c0.039-0.559,0.992-0.584,0.935,0.066C26.828-33.021,25.904-33.097,25.945-33.676z" style="fill:#00AEEF;"/>
  <path d="M39.674-29.937c0-0.56,0.949-0.652,0.938,0C40.601-29.346,39.674-29.356,39.674-29.937z" style="fill:#00AEEF;"/>
  <path d="M39.332-28.25c0-0.56,0.949-0.652,0.937,0C40.26-27.659,39.332-27.669,39.332-28.25z" style="fill:#00AEEF;"/>
  <path d="M39.332-26.812c0-0.56,0.949-0.652,0.937,0C40.26-26.221,39.332-26.231,39.332-26.812z" style="fill:#00AEEF;"/>
  <path d="M39.332-25c0-0.56,0.949-0.652,0.937,0C40.26-24.409,39.332-24.419,39.332-25z" style="fill:#00AEEF;"/>
  <path d="M39.645-23.125c0-0.56,0.949-0.652,0.938,0C40.572-22.534,39.645-22.544,39.645-23.125z" style="fill:#00AEEF;"/>
  <path d="M40.111-21.312c0-0.56,0.949-0.652,0.937,0C41.039-20.721,40.111-20.731,40.111-21.312z" style="fill:#00AEEF;"/>
  <path d="M40.02-18.187c0-0.56,0.949-0.652,0.938,0C40.947-17.596,40.02-17.606,40.02-18.187z" style="fill:#00AEEF;"/>
  <path d="M39.27-20c0-0.56,0.949-0.652,0.938,0C40.197-19.409,39.27-19.419,39.27-20z" style="fill:#00AEEF;"/>
  <path d="M38.645-22c0-0.56,0.949-0.652,0.938,0C39.572-21.409,38.645-21.419,38.645-22z" style="fill:#00AEEF;"/>
  <path d="M38.145-24.062c0-0.56,0.949-0.652,0.937,0C39.072-23.471,38.145-23.481,38.145-24.062z" style="fill:#00AEEF;"/>
  <path d="M37.895-26.062c0-0.56,0.949-0.652,0.938,0C38.822-25.471,37.895-25.481,37.895-26.062z" style="fill:#00AEEF;"/>
  <path d="M38.02-28c0-0.56,0.949-0.652,0.938,0C38.947-27.409,38.02-27.419,38.02-28z" style="fill:#00AEEF;"/>
  <path d="M38.236-29.75c0-0.56,0.949-0.652,0.938,0C39.164-29.159,38.236-29.169,38.236-29.75z" style="fill:#00AEEF;"/>
  <path d="M34.951-31.416c0-0.56,0.949-0.652,0.937,0C35.878-30.825,34.951-30.835,34.951-31.416z" style="fill:#00AEEF;"/>
  <path d="M33.764-30.437c0-0.56,0.949-0.652,0.937,0C34.691-29.846,33.764-29.856,33.764-30.437z" style="fill:#00AEEF;"/>
  <path d="M33.889-28.75c0-0.56,0.949-0.652,0.937,0C34.816-28.159,33.889-28.169,33.889-28.75z" style="fill:#00AEEF;"/>
  <path d="M33.326-27c0-0.56,0.949-0.652,0.937,0C34.253-26.409,33.326-26.419,33.326-27z" style="fill:#00AEEF;"/>
  <path d="M33.514-24.75c0-0.56,0.949-0.652,0.937,0C34.441-24.159,33.514-24.169,33.514-24.75z" style="fill:#00AEEF;"/>
  <path d="M30.035-23.666c0-0.56,0.949-0.652,0.937,0C30.962-23.075,30.035-23.085,30.035-23.666z" style="fill:#00AEEF;"/>
  <path d="M31.701-24.083c0-0.56,0.949-0.652,0.937,0C32.628-23.492,31.701-23.502,31.701-24.083z" style="fill:#00AEEF;"/>
  <path d="M33.764-22.937c0-0.56,0.949-0.652,0.937,0C34.691-22.346,33.764-22.356,33.764-22.937z" style="fill:#00AEEF;"/>
  <path d="M32.611-22.083c0-0.56,0.949-0.652,0.937,0C33.539-21.492,32.611-21.502,32.611-22.083z" style="fill:#00AEEF;"/>
  <path d="M30.951-21.916c0-0.56,0.949-0.652,0.937,0C31.878-21.325,30.951-21.335,30.951-21.916z" style="fill:#00AEEF;"/>
  <path d="M29.618-21.75c0-0.56,0.949-0.652,0.937,0C30.545-21.159,29.618-21.169,29.618-21.75z" style="fill:#00AEEF;"/>
  <path d="M29.528-20c0-0.56,0.949-0.652,0.937,0C30.455-19.409,29.528-19.419,29.528-20z" style="fill:#00AEEF;"/>
  <path d="M31.361-20.166c0-0.56,0.949-0.652,0.937,0C32.289-19.575,31.361-19.585,31.361-20.166z" style="fill:#00AEEF;"/>
  <path d="M32.945-20.666c0-0.56,0.949-0.652,0.937,0C33.872-20.075,32.945-20.085,32.945-20.666z" style="fill:#00AEEF;"/>
  <path d="M32.701-19.083c0-0.56,0.949-0.652,0.937,0C33.628-18.492,32.701-18.502,32.701-19.083z" style="fill:#00AEEF;"/>
  <path d="M31.785-17.75c0-0.56,0.949-0.652,0.937,0C32.712-17.159,31.785-17.169,31.785-17.75z" style="fill:#00AEEF;"/>
  <path d="M30.861-18.916c0-0.56,0.949-0.652,0.938,0C31.789-18.325,30.861-18.335,30.861-18.916z" style="fill:#00AEEF;"/>
  <path d="M29.195-18.5c0-0.56,0.949-0.652,0.938,0C30.122-17.909,29.195-17.919,29.195-18.5z" style="fill:#00AEEF;"/>
  <path d="M30.278-17.083c0-0.56,0.949-0.652,0.937,0C31.205-16.492,30.278-16.502,30.278-17.083z" style="fill:#00AEEF;"/>
  <path d="M28.861-16.75c0-0.56,0.949-0.652,0.938,0C29.789-16.159,28.861-16.169,28.861-16.75z" style="fill:#00AEEF;"/>
  <path d="M34.076-21.312c0-0.56,0.949-0.652,0.937,0C35.003-20.721,34.076-20.731,34.076-21.312z" style="fill:#00AEEF;"/>
  <path d="M34.451-19.625c0-0.56,0.949-0.652,0.938,0C35.378-19.034,34.451-19.044,34.451-19.625z" style="fill:#00AEEF;"/>
  <path d="M37.139-31c0-0.56,0.949-0.652,0.937,0C38.066-30.409,37.139-30.419,37.139-31z" style="fill:#00AEEF;"/>
  <path d="M36.576-29.625c0-0.56,0.949-0.652,0.937,0C37.503-29.034,36.576-29.044,36.576-29.625z" style="fill:#00AEEF;"/>
  <path d="M36.576-27.937c0-0.56,0.949-0.652,0.937,0C37.503-27.346,36.576-27.356,36.576-27.937z" style="fill:#00AEEF;"/>
  <path d="M36.576-26.312c0-0.56,0.949-0.652,0.937,0C37.503-25.721,36.576-25.731,36.576-26.312z" style="fill:#00AEEF;"/>
  <path d="M36.826-24.5c0-0.56,0.949-0.652,0.938,0C37.753-23.909,36.826-23.919,36.826-24.5z" style="fill:#00AEEF;"/>
  <path d="M37.076-22.812c0-0.56,0.949-0.652,0.937,0C38.003-22.221,37.076-22.231,37.076-22.812z" style="fill:#00AEEF;"/>
  <path d="M37.639-21c0-0.56,0.949-0.652,0.938,0C38.566-20.409,37.639-20.419,37.639-21z" style="fill:#00AEEF;"/>
  <path d="M38.139-19.25c0-0.56,0.949-0.652,0.937,0C39.066-18.659,38.139-18.669,38.139-19.25z" style="fill:#00AEEF;"/>
  <path d="M39.014-17.375c0-0.56,0.949-0.652,0.937,0C39.941-16.784,39.014-16.794,39.014-17.375z" style="fill:#00AEEF;"/>
  <path d="M39.889-15.75c0-0.56,0.949-0.652,0.937,0C40.816-15.158,39.889-15.169,39.889-15.75z" style="fill:#00AEEF;"/>
  <path d="M35.139-30.062c0-0.56,0.949-0.652,0.937,0C36.066-29.471,35.139-29.481,35.139-30.062z" style="fill:#00AEEF;"/>
  <path d="M35.201-28.437c0-0.56,0.949-0.652,0.937,0C36.128-27.846,35.201-27.856,35.201-28.437z" style="fill:#00AEEF;"/>
  <path d="M34.951-27c0-0.56,0.949-0.652,0.937,0C35.878-26.409,34.951-26.419,34.951-27z" style="fill:#00AEEF;"/>
  <path d="M35.014-25.125c0-0.56,0.949-0.652,0.937,0C35.941-24.534,35.014-24.544,35.014-25.125z" style="fill:#00AEEF;"/>
  <path d="M35.326-23.125c0-0.56,0.949-0.652,0.937,0C36.253-22.534,35.326-22.544,35.326-23.125z" style="fill:#00AEEF;"/>
  <path d="M35.889-21.312c0-0.56,0.949-0.652,0.937,0C36.816-20.721,35.889-20.731,35.889-21.312z" style="fill:#00AEEF;"/>
  <path d="M36.389-19.562c0-0.56,0.949-0.652,0.937,0C37.316-18.971,36.389-18.981,36.389-19.562z" style="fill:#00AEEF;"/>
  <path d="M37.014-17.875c0-0.56,0.949-0.652,0.937,0C37.941-17.284,37.014-17.294,37.014-17.875z" style="fill:#00AEEF;"/>
  <path d="M37.701-16.25c0-0.56,0.949-0.652,0.937,0C38.628-15.658,37.701-15.669,37.701-16.25z" style="fill:#00AEEF;"/>
  <path d="M38.701-14.687c0-0.561,0.949-0.652,0.937,0C39.628-14.096,38.701-14.106,38.701-14.687z" style="fill:#00AEEF;"/>
  <path d="M38.826-12.187c0-0.561,0.949-0.652,0.938,0C39.753-11.596,38.826-11.606,38.826-12.187z" style="fill:#00AEEF;"/>
  <path d="M21.368-34.75c0-0.561,0.949-0.652,0.937,0C22.295-34.159,21.368-34.169,21.368-34.75z" style="fill:#00AEEF;"/>
  <path d="M13.701-38.25c0-0.561,0.949-0.652,0.937,0C14.628-37.659,13.701-37.669,13.701-38.25z" style="fill:#00AEEF;"/>
  <path d="M17.951-36.312c0-0.561,0.949-0.652,0.937,0C18.878-35.721,17.951-35.731,17.951-36.312z" style="fill:#00AEEF;"/>
  <path d="M15.028-37.833c0-0.56,0.949-0.652,0.937,0C15.955-37.242,15.028-37.252,15.028-37.833z" style="fill:#00AEEF;"/>
  <path d="M19.695-37.25c0-0.561,0.949-0.652,0.937,0C20.622-36.659,19.695-36.669,19.695-37.25z" style="fill:#00AEEF;"/>
  <path d="M15.576-40.562c0-0.561,0.949-0.652,0.937,0C16.503-39.971,15.576-39.981,15.576-40.562z" style="fill:#00AEEF;"/>
  <path d="M22.618-33c0-0.561,0.949-0.652,0.937,0C23.545-32.409,22.618-32.419,22.618-33z" style="fill:#00AEEF;"/>
  <path d="M21.285-36.416c0-0.561,0.949-0.652,0.937,0C22.212-35.825,21.285-35.835,21.285-36.416z" style="fill:#00AEEF;"/>
  <path d="M23.028-36.166c0-0.561,0.949-0.652,0.937,0C23.955-35.575,23.028-35.585,23.028-36.166z" style="fill:#00AEEF;"/>
  <path d="M20.049-40.5c0-0.561,0.949-0.652,0.937,0C20.976-39.909,20.049-39.919,20.049-40.5z" style="fill:#00AEEF;"/>
  <path d="M21.389-39.937c0-0.561,0.949-0.652,0.937,0C22.316-39.346,21.389-39.356,21.389-39.937z" style="fill:#00AEEF;"/>
  <path d="M22.576-39c0-0.561,0.949-0.652,0.937,0C23.503-38.409,22.576-38.419,22.576-39z" style="fill:#00AEEF;"/>
  <path d="M23.778-37.75c0-0.561,0.949-0.652,0.938,0C24.705-37.159,23.778-37.169,23.778-37.75z" style="fill:#00AEEF;"/>
  <path d="M24.611-36.75c0-0.561,0.949-0.652,0.937,0C25.539-36.159,24.611-36.169,24.611-36.75z" style="fill:#00AEEF;"/>
  <path d="M25.861-35.833c0-0.56,0.949-0.652,0.938,0C26.789-35.242,25.861-35.252,25.861-35.833z" style="fill:#00AEEF;"/>
  <path d="M26.986-35c0-0.561,0.949-0.652,0.937,0C27.914-34.409,26.986-34.419,26.986-35z" style="fill:#00AEEF;"/>
  <path d="M28.111-34.125c0-0.561,0.949-0.652,0.937,0C29.039-33.534,28.111-33.544,28.111-34.125z" style="fill:#00AEEF;"/>
  <path d="M29.549-33.437c0-0.561,0.949-0.652,0.937,0C30.476-32.846,29.549-32.856,29.549-33.437z" style="fill:#00AEEF;"/>
  <path d="M30.785-32.5c0-0.561,0.949-0.652,0.937,0C31.712-31.909,30.785-31.919,30.785-32.5z" style="fill:#00AEEF;"/>
  <path d="M31.451-33.833c0-0.56,0.949-0.652,0.937,0C32.378-33.242,31.451-33.252,31.451-33.833z" style="fill:#00AEEF;"/>
  <path d="M32.368-35c0-0.561,0.949-0.652,0.937,0C33.295-34.409,32.368-34.419,32.368-35z" style="fill:#00AEEF;"/>
  <path d="M29.201-31.687c0-0.561,0.949-0.652,0.937,0C30.128-31.096,29.201-31.106,29.201-31.687z" style="fill:#00AEEF;"/>
  <path d="M27.701-30.687c0-0.56,0.949-0.652,0.937,0C28.628-30.096,27.701-30.106,27.701-30.687z" style="fill:#00AEEF;"/>
  <path d="M26.701-29.625c0-0.56,0.949-0.652,0.937,0C27.628-29.034,26.701-29.044,26.701-29.625z" style="fill:#00AEEF;"/>
  <path d="M13.299-40.187c0-0.561,0.949-0.652,0.937,0C14.226-39.596,13.299-39.606,13.299-40.187z" style="fill:#00AEEF;"/>
  <path d="M12.361-38.875c0-0.561,0.949-0.652,0.937,0C13.289-38.284,12.361-38.294,12.361-38.875z" style="fill:#00AEEF;"/>
  <path d="M11.424-37.375c0-0.561,0.949-0.652,0.937,0C12.351-36.784,11.424-36.794,11.424-37.375z" style="fill:#00AEEF;"/>
  <path d="M10.39-36.062c0-0.561,0.949-0.652,0.937,0C11.318-35.471,10.39-35.481,10.39-36.062z" style="fill:#00AEEF;"/>
  <path d="M9.611-34.75c0-0.561,0.949-0.652,0.937,0C10.539-34.159,9.611-34.169,9.611-34.75z" style="fill:#00AEEF;"/>
  <path d="M8.953-33.375c0-0.561,0.949-0.652,0.937,0C9.88-32.784,8.953-32.794,8.953-33.375z" style="fill:#00AEEF;"/>
  <path d="M10.326-32.687c0-0.561,0.949-0.652,0.937,0C11.253-32.096,10.326-32.106,10.326-32.687z" style="fill:#00AEEF;"/>
  <path d="M9.951-31.083c0-0.56,0.949-0.652,0.937,0C10.878-30.492,9.951-30.502,9.951-31.083z" style="fill:#00AEEF;"/>
  <path d="M13.326-32c0-0.561,0.949-0.652,0.937,0C14.253-31.409,13.326-31.419,13.326-32z" style="fill:#00AEEF;"/>
  <path d="M11.714-32.02c0-0.56,0.949-0.652,0.937,0C12.641-31.429,11.714-31.44,11.714-32.02z" style="fill:#00AEEF;"/>
  <path d="M18.695-30.916c0-0.56,0.949-0.652,0.937,0C19.622-30.325,18.695-30.335,18.695-30.916z" style="fill:#00AEEF;"/>
  <path d="M17.118-30.5c0-0.56,0.949-0.652,0.937,0C18.045-29.909,17.118-29.919,17.118-30.5z" style="fill:#00AEEF;"/>
  <path d="M15.722-31.187c0-0.56,0.949-0.652,0.938,0C16.649-30.596,15.722-30.606,15.722-31.187z" style="fill:#00AEEF;"/>
  <path d="M14.111-30.583c0-0.56,0.949-0.652,0.937,0C15.039-29.992,14.111-30.002,14.111-30.583z" style="fill:#00AEEF;"/>
  <path d="M12.618-30.25c0-0.56,0.949-0.652,0.937,0C13.545-29.659,12.618-29.669,12.618-30.25z" style="fill:#00AEEF;"/>
  <path d="M10.951-30.333c0-0.56,0.949-0.652,0.937,0C11.878-29.742,10.951-29.752,10.951-30.333z" style="fill:#00AEEF;"/>
  <path d="M8.611-31.812c0-0.561,0.949-0.652,0.937,0C9.539-31.221,8.611-31.231,8.611-31.812z" style="fill:#00AEEF;"/>
  <path d="M8.736-30.062c0-0.56,0.949-0.652,0.937,0C9.664-29.471,8.736-29.481,8.736-30.062z" style="fill:#00AEEF;"/>
  <path d="M9.799-29c0-0.56,0.949-0.652,0.937,0C10.726-28.409,9.799-28.419,9.799-29z" style="fill:#00AEEF;"/>
  <path d="M11.174-28.125c0-0.56,0.949-0.652,0.937,0C12.101-27.534,11.174-27.544,11.174-28.125z" style="fill:#00AEEF;"/>
  <path d="M12.611-28.916c0-0.56,0.949-0.652,0.937,0C13.539-28.325,12.611-28.335,12.611-28.916z" style="fill:#00AEEF;"/>
  <path d="M14.195-28.75c0-0.56,0.949-0.652,0.938,0C15.122-28.159,14.195-28.169,14.195-28.75z" style="fill:#00AEEF;"/>
  <path d="M15.945-29.666c0-0.56,0.949-0.652,0.937,0C16.872-29.075,15.945-29.085,15.945-29.666z" style="fill:#00AEEF;"/>
  <path d="M25.285-28.416c0-0.56,0.949-0.652,0.937,0C26.212-27.825,25.285-27.835,25.285-28.416z" style="fill:#00AEEF;"/>
  <path d="M24.068-29.166c0-0.56,0.949-0.652,0.937,0C24.995-28.575,24.068-28.585,24.068-29.166z" style="fill:#00AEEF;"/>
  <path d="M22.611-29.5c0-0.56,0.949-0.652,0.937,0C23.539-28.909,22.611-28.919,22.611-29.5z" style="fill:#00AEEF;"/>
  <path d="M20.701-29.5c0-0.56,0.949-0.652,0.937,0C21.628-28.909,20.701-28.919,20.701-29.5z" style="fill:#00AEEF;"/>
  <path d="M19.201-29.25c0-0.56,0.949-0.652,0.937,0C20.128-28.659,19.201-28.669,19.201-29.25z" style="fill:#00AEEF;"/>
  <path d="M17.924-29.062c0-0.56,0.949-0.652,0.937,0C18.851-28.471,17.924-28.481,17.924-29.062z" style="fill:#00AEEF;"/>
  <path d="M16.534-28.333c0-0.56,0.949-0.652,0.938,0C17.462-27.742,16.534-27.752,16.534-28.333z" style="fill:#00AEEF;"/>
  <path d="M15.361-27.666c0-0.56,0.949-0.652,0.937,0C16.289-27.075,15.361-27.085,15.361-27.666z" style="fill:#00AEEF;"/>
  <path d="M14.035-26.666c0-0.56,0.949-0.652,0.937,0C14.962-26.075,14.035-26.085,14.035-26.666z" style="fill:#00AEEF;"/>
  <path d="M12.674-26.937c0-0.56,0.949-0.652,0.938,0C13.601-26.346,12.674-26.356,12.674-26.937z" style="fill:#00AEEF;"/>
  <path d="M27.445-32.666c0-0.561,0.949-0.652,0.937,0C28.372-32.075,27.445-32.085,27.445-32.666z" style="fill:#00AEEF;"/>
  <path d="M22.868-34.666c0-0.561,0.949-0.652,0.938,0C23.795-34.075,22.868-34.085,22.868-34.666z" style="fill:#00AEEF;"/>
  <path d="M26.118-31.666c0-0.56,0.949-0.652,0.937,0C27.045-31.075,26.118-31.085,26.118-31.666z" style="fill:#00AEEF;"/>
  <path d="M24.528-32.833c0-0.56,0.949-0.652,0.937,0C25.455-32.242,24.528-32.252,24.528-32.833z" style="fill:#00AEEF;"/>
  <path d="M19.528-35.75c0-0.561,0.949-0.652,0.937,0C20.455-35.159,19.528-35.169,19.528-35.75z" style="fill:#00AEEF;"/>
  <path d="M16.201-35.854c0-0.561,0.949-0.652,0.937,0C17.128-35.263,16.201-35.273,16.201-35.854z" style="fill:#00AEEF;"/>
  <path d="M14.576-36.312c0-0.561,0.949-0.652,0.937,0C15.503-35.721,14.576-35.731,14.576-36.312z" style="fill:#00AEEF;"/>
  <path d="M18.139-37.937c0-0.561,0.949-0.652,0.937,0C19.066-37.346,18.139-37.356,18.139-37.937z" style="fill:#00AEEF;"/>
  <path d="M11.605-40.5c0-0.561,0.949-0.652,0.937,0C12.532-39.909,11.605-39.919,11.605-40.5z" style="fill:#00AEEF;"/>
  <path d="M10.701-39.25c0-0.561,0.949-0.652,0.937,0C11.628-38.659,10.701-38.669,10.701-39.25z" style="fill:#00AEEF;"/>
  <path d="M16.514-37.625c0-0.561,0.949-0.652,0.937,0C17.441-37.034,16.514-37.044,16.514-37.625z" style="fill:#00AEEF;"/>
  <path d="M22.028-37.666c0-0.561,0.949-0.652,0.937,0C22.955-37.075,22.028-37.085,22.028-37.666z" style="fill:#00AEEF;"/>
  <path d="M20.542-38.645c0-0.56,0.949-0.652,0.937,0C21.47-38.054,20.542-38.064,20.542-38.645z" style="fill:#00AEEF;"/>
  <path d="M9.326-40.187c0-0.561,0.949-0.652,0.937,0C10.253-39.596,9.326-39.606,9.326-40.187z" style="fill:#00AEEF;"/>
  <path d="M8.701-38.812c0-0.561,0.949-0.652,0.937,0C9.628-38.221,8.701-38.231,8.701-38.812z" style="fill:#00AEEF;"/>
  <path d="M7.736-40.25c0-0.561,0.949-0.652,0.937,0C8.664-39.659,7.736-39.669,7.736-40.25z" style="fill:#00AEEF;"/>
  <path d="M7.326-38.687c0-0.561,0.949-0.652,0.937,0C8.253-38.096,7.326-38.106,7.326-38.687z" style="fill:#00AEEF;"/>
  <path d="M9.576-37.562c0-0.561,0.949-0.652,0.937,0C10.503-36.971,9.576-36.981,9.576-37.562z" style="fill:#00AEEF;"/>
  <path d="M8.576-35.75c0-0.561,0.949-0.652,0.937,0C9.503-35.159,8.576-35.169,8.576-35.75z" style="fill:#00AEEF;"/>
  <path d="M7.706-34.125c0-0.561,0.949-0.652,0.937,0C8.633-33.534,7.706-33.544,7.706-34.125z" style="fill:#00AEEF;"/>
  <path d="M7.201-32c0-0.561,0.949-0.652,0.937,0C8.128-31.409,7.201-31.419,7.201-32z" style="fill:#00AEEF;"/>
  <path d="M7.014-30.062c0-0.56,0.949-0.652,0.937,0C7.941-29.471,7.014-29.481,7.014-30.062z" style="fill:#00AEEF;"/>
  <path d="M8.528-28.416c0-0.56,0.949-0.652,0.937,0C9.455-27.825,8.528-27.835,8.528-28.416z" style="fill:#00AEEF;"/>
  <path d="M7.047-28.125c0-0.56,0.949-0.652,0.937,0C7.974-27.534,7.047-27.544,7.047-28.125z" style="fill:#00AEEF;"/>
  <path d="M9.618-27.25c0-0.56,0.949-0.652,0.937,0C10.545-26.659,9.618-26.669,9.618-27.25z" style="fill:#00AEEF;"/>
  <path d="M8.451-26.083c0-0.56,0.949-0.652,0.938,0C9.378-25.492,8.451-25.502,8.451-26.083z" style="fill:#00AEEF;"/>
  <path d="M6.945-25.25c0-0.56,0.949-0.652,0.937,0C7.872-24.659,6.945-24.669,6.945-25.25z" style="fill:#00AEEF;"/>
  <path d="M8.32-24.625c0-0.56,0.949-0.652,0.937,0C9.247-24.034,8.32-24.044,8.32-24.625z" style="fill:#00AEEF;"/>
  <path d="M7.736-23.125c0-0.56,0.949-0.652,0.937,0C8.664-22.534,7.736-22.544,7.736-23.125z" style="fill:#00AEEF;"/>
  <path d="M6.111-23.625c0-0.56,0.949-0.652,0.937,0C7.039-23.034,6.111-23.044,6.111-23.625z" style="fill:#00AEEF;"/>
  <path d="M4.361-23.937c0-0.56,0.949-0.652,0.937,0C5.289-23.346,4.361-23.356,4.361-23.937z" style="fill:#00AEEF;"/>
  <path d="M4.861-22.312c0-0.56,0.949-0.652,0.938,0C5.789-21.721,4.861-21.731,4.861-22.312z" style="fill:#00AEEF;"/>
  <path d="M6.424-22.062c0-0.56,0.949-0.652,0.937,0C7.351-21.471,6.424-21.481,6.424-22.062z" style="fill:#00AEEF;"/>
  <path d="M7.111-20.625c0-0.56,0.949-0.652,0.937,0C8.039-20.034,7.111-20.044,7.111-20.625z" style="fill:#00AEEF;"/>
  <path d="M5.361-20.687c0-0.56,0.949-0.652,0.937,0C6.289-20.096,5.361-20.106,5.361-20.687z" style="fill:#00AEEF;"/>
  <path d="M6.424-18.937c0-0.56,0.949-0.652,0.937,0C7.351-18.346,6.424-18.356,6.424-18.937z" style="fill:#00AEEF;"/>
  <path d="M8.861-14.375c0-0.561,0.949-0.652,0.938,0C9.789-13.783,8.861-13.794,8.861-14.375z" style="fill:#00AEEF;"/>
  <path d="M9.139-12.812c0-0.561,0.949-0.652,0.937,0C10.066-12.221,9.139-12.231,9.139-12.812z" style="fill:#00AEEF;"/>
  <path d="M10.576-12.812c0-0.561,0.949-0.652,0.937,0C11.503-12.221,10.576-12.231,10.576-12.812z" style="fill:#00AEEF;"/>
  <path d="M11.951-14c0-0.561,0.949-0.652,0.937,0C12.878-13.408,11.951-13.419,11.951-14z" style="fill:#00AEEF;"/>
  <path d="M13.201-15.125c0-0.561,0.949-0.652,0.937,0C14.128-14.533,13.201-14.544,13.201-15.125z" style="fill:#00AEEF;"/>
  <path d="M14.326-16.125c0-0.56,0.949-0.652,0.937,0C15.253-15.533,14.326-15.544,14.326-16.125z" style="fill:#00AEEF;"/>
  <path d="M15.514-17.125c0-0.56,0.949-0.652,0.937,0C16.441-16.534,15.514-16.544,15.514-17.125z" style="fill:#00AEEF;"/>
  <path d="M16.764-18.312c0-0.56,0.949-0.652,0.937,0C17.691-17.721,16.764-17.731,16.764-18.312z" style="fill:#00AEEF;"/>
  <path d="M17.826-19.5c0-0.56,0.949-0.652,0.938,0C18.753-18.909,17.826-18.919,17.826-19.5z" style="fill:#00AEEF;"/>
  <path d="M19.014-20.5c0-0.56,0.949-0.652,0.937,0C19.941-19.909,19.014-19.919,19.014-20.5z" style="fill:#00AEEF;"/>
  <path d="M20.514-21.062c0-0.56,0.949-0.652,0.937,0C21.441-20.471,20.514-20.481,20.514-21.062z" style="fill:#00AEEF;"/>
  <path d="M22.201-20.937c0-0.56,0.949-0.652,0.937,0C23.128-20.346,22.201-20.356,22.201-20.937z" style="fill:#00AEEF;"/>
  <path d="M21.076-19.187c0-0.56,0.949-0.652,0.937,0C22.003-18.596,21.076-18.606,21.076-19.187z" style="fill:#00AEEF;"/>
  <path d="M19.639-18.562c0-0.56,0.949-0.652,0.938,0C20.566-17.971,19.639-17.981,19.639-18.562z" style="fill:#00AEEF;"/>
  <path d="M18.326-17.75c0-0.56,0.949-0.652,0.937,0C19.253-17.159,18.326-17.169,18.326-17.75z" style="fill:#00AEEF;"/>
  <path d="M9.945-25.416c0-0.56,0.949-0.652,0.937,0C10.872-24.825,9.945-24.835,9.945-25.416z" style="fill:#00AEEF;"/>
  <path d="M12.861-25.562c0-0.56,0.949-0.652,0.938,0C13.789-24.971,12.861-24.981,12.861-25.562z" style="fill:#00AEEF;"/>
  <path d="M11.486-24.687c0-0.56,0.949-0.652,0.937,0C12.414-24.096,11.486-24.106,11.486-24.687z" style="fill:#00AEEF;"/>
  <path d="M10.986-22.812c0-0.56,0.949-0.652,0.937,0C11.914-22.221,10.986-22.231,10.986-22.812z" style="fill:#00AEEF;"/>
  <path d="M10.611-21.375c0-0.56,0.949-0.652,0.937,0C11.539-20.784,10.611-20.794,10.611-21.375z" style="fill:#00AEEF;"/>
  <path d="M9.486-20c0-0.56,0.949-0.652,0.937,0C10.414-19.409,9.486-19.419,9.486-20z" style="fill:#00AEEF;"/>
  <path d="M9.111-18c0-0.56,0.949-0.652,0.937,0C10.039-17.409,9.111-17.419,9.111-18z" style="fill:#00AEEF;"/>
  <path d="M10.424-18.75c0-0.56,0.949-0.652,0.937,0C11.351-18.159,10.424-18.169,10.424-18.75z" style="fill:#00AEEF;"/>
  <path d="M11.424-20c0-0.56,0.949-0.652,0.937,0C12.351-19.409,11.424-19.419,11.424-20z" style="fill:#00AEEF;"/>
  <path d="M12.111-21.312c0-0.56,0.949-0.652,0.937,0C13.039-20.721,12.111-20.731,12.111-21.312z" style="fill:#00AEEF;"/>
  <path d="M13.799-22c0-0.56,0.949-0.652,0.937,0C14.726-21.409,13.799-21.419,13.799-22z" style="fill:#00AEEF;"/>
  <path d="M15.264-22.75c0-0.56,0.949-0.652,0.937,0C16.191-22.159,15.264-22.169,15.264-22.75z" style="fill:#00AEEF;"/>
  <path d="M16.076-24.312c0-0.56,0.949-0.652,0.937,0C17.003-23.721,16.076-23.731,16.076-24.312z" style="fill:#00AEEF;"/>
  <path d="M17.264-25.562c0-0.56,0.949-0.652,0.937,0C18.191-24.971,17.264-24.981,17.264-25.562z" style="fill:#00AEEF;"/>
  <path d="M22.951-25.875c0-0.56,0.949-0.652,0.937,0C23.878-25.284,22.951-25.294,22.951-25.875z" style="fill:#00AEEF;"/>
  <path d="M21.368-26.083c0-0.56,0.949-0.652,0.937,0C22.295-25.492,21.368-25.502,21.368-26.083z" style="fill:#00AEEF;"/>
  <path d="M22.639-24.062c0-0.56,0.949-0.652,0.938,0C23.566-23.471,22.639-23.481,22.639-24.062z" style="fill:#00AEEF;"/>
  <path d="M20.111-25.583c0-0.56,0.949-0.652,0.937,0C21.039-24.992,20.111-25.002,20.111-25.583z" style="fill:#00AEEF;"/>
  <path d="M20.951-24.25c0-0.56,0.949-0.652,0.937,0C21.878-23.659,20.951-23.669,20.951-24.25z" style="fill:#00AEEF;"/>
  <path d="M21.764-22.812c0-0.56,0.949-0.652,0.937,0C22.691-22.221,21.764-22.231,21.764-22.812z" style="fill:#00AEEF;"/>
  <path d="M20.076-22.625c0-0.56,0.949-0.652,0.937,0C21.003-22.034,20.076-22.044,20.076-22.625z" style="fill:#00AEEF;"/>
  <path d="M18.576-22.062c0-0.56,0.949-0.652,0.937,0C19.503-21.471,18.576-21.481,18.576-22.062z" style="fill:#00AEEF;"/>
  <path d="M17.264-21.125c0-0.56,0.949-0.652,0.937,0C18.191-20.534,17.264-20.544,17.264-21.125z" style="fill:#00AEEF;"/>
  <path d="M16.139-20.125c0-0.56,0.949-0.652,0.937,0C17.066-19.534,16.139-19.544,16.139-20.125z" style="fill:#00AEEF;"/>
  <path d="M15.076-19c0-0.56,0.949-0.652,0.937,0C16.003-18.409,15.076-18.419,15.076-19z" style="fill:#00AEEF;"/>
  <path d="M14.076-17.812c0-0.56,0.949-0.652,0.937,0C15.003-17.221,14.076-17.231,14.076-17.812z" style="fill:#00AEEF;"/>
  <path d="M12.701-16.875c0-0.56,0.949-0.652,0.937,0C13.628-16.284,12.701-16.294,12.701-16.875z" style="fill:#00AEEF;"/>
  <path d="M11.701-15.562c0-0.56,0.949-0.652,0.937,0C12.628-14.971,11.701-14.981,11.701-15.562z" style="fill:#00AEEF;"/>
  <path d="M10.326-14.687c0-0.561,0.949-0.652,0.937,0C11.253-14.096,10.326-14.106,10.326-14.687z" style="fill:#00AEEF;"/>
  <path d="M9.201-16.125c0-0.56,0.949-0.652,0.937,0C10.128-15.533,9.201-15.544,9.201-16.125z" style="fill:#00AEEF;"/>
  <path d="M10.576-16.812c0-0.56,0.949-0.652,0.937,0C11.503-16.221,10.576-16.231,10.576-16.812z" style="fill:#00AEEF;"/>
  <path d="M11.701-17.875c0-0.56,0.949-0.652,0.937,0C12.628-17.284,11.701-17.294,11.701-17.875z" style="fill:#00AEEF;"/>
  <path d="M12.764-19.125c0-0.56,0.949-0.652,0.937,0C13.691-18.534,12.764-18.544,12.764-19.125z" style="fill:#00AEEF;"/>
  <path d="M13.701-20.187c0-0.56,0.949-0.652,0.937,0C14.628-19.596,13.701-19.606,13.701-20.187z" style="fill:#00AEEF;"/>
  <path d="M15.076-21.187c0-0.56,0.949-0.652,0.937,0C16.003-20.596,15.076-20.606,15.076-21.187z" style="fill:#00AEEF;"/>
  <path d="M16.764-22.312c0-0.56,0.949-0.652,0.937,0C17.691-21.721,16.764-21.731,16.764-22.312z" style="fill:#00AEEF;"/>
  <path d="M19.264-24c0-0.56,0.949-0.652,0.937,0C20.191-23.409,19.264-23.419,19.264-24z" style="fill:#00AEEF;"/>
  <path d="M17.639-23.875c0-0.56,0.949-0.652,0.938,0C18.566-23.284,17.639-23.294,17.639-23.875z" style="fill:#00AEEF;"/>
  <path d="M18.735-25.312c0-0.56,0.949-0.652,0.937,0C19.662-24.721,18.735-24.731,18.735-25.312z" style="fill:#00AEEF;"/>
  <path d="M13.861-23.875c0-0.56,0.949-0.652,0.938,0C14.789-23.284,13.861-23.294,13.861-23.875z" style="fill:#00AEEF;"/>
  <path d="M14.924-25.187c0-0.56,0.949-0.652,0.937,0C15.851-24.596,14.924-24.606,14.924-25.187z" style="fill:#00AEEF;"/>
  <path d="M16.139-26.375c0-0.56,0.949-0.652,0.937,0C17.066-25.784,16.139-25.794,16.139-26.375z" style="fill:#00AEEF;"/>
  <path d="M12.486-23.25c0-0.56,0.949-0.652,0.937,0C13.414-22.659,12.486-22.669,12.486-23.25z" style="fill:#00AEEF;"/>
  <path d="M9.611-23.916c0-0.56,0.949-0.652,0.937,0C10.539-23.325,9.611-23.335,9.611-23.916z" style="fill:#00AEEF;"/>
  <path d="M9.035-22.5c0-0.56,0.949-0.652,0.937,0C9.962-21.909,9.035-21.919,9.035-22.5z" style="fill:#00AEEF;"/>
  <path d="M8.445-21.25c0-0.56,0.949-0.652,0.937,0C9.372-20.659,8.445-20.669,8.445-21.25z" style="fill:#00AEEF;"/>
  <path d="M8.028-19.416c0-0.56,0.949-0.652,0.937,0C8.955-18.825,8.028-18.835,8.028-19.416z" style="fill:#00AEEF;"/>
  <path d="M7.528-17.75c0-0.56,0.949-0.652,0.937,0C8.455-17.159,7.528-17.169,7.528-17.75z" style="fill:#00AEEF;"/>
  <path d="M7.445-16.166c0-0.56,0.949-0.652,0.937,0C8.372-15.575,7.445-15.585,7.445-16.166z" style="fill:#00AEEF;"/>
  <path d="M11.174-26.312c0-0.56,0.949-0.652,0.937,0C12.101-25.721,11.174-25.731,11.174-26.312z" style="fill:#00AEEF;"/>
  <path d="M7.832-2.937c0-0.56,0.949-0.652,0.938,0C8.76-2.346,7.832-2.356,7.832-2.937z" style="fill:#00AEEF;"/>
  <path d="M10.082-3.937c0-0.56,0.949-0.652,0.938,0C11.01-3.346,10.082-3.356,10.082-3.937z" style="fill:#00AEEF;"/>
  <path d="M12.645-4.937c0-0.561,0.949-0.652,0.938,0C13.572-4.346,12.645-4.356,12.645-4.937z" style="fill:#00AEEF;"/>
  <path d="M11.207-5.249c0-0.561,0.949-0.652,0.938,0C12.135-4.659,11.207-4.669,11.207-5.249z" style="fill:#00AEEF;"/>
  <path d="M9.707-5.562c0-0.561,0.949-0.652,0.938,0C10.635-4.971,9.707-4.981,9.707-5.562z" style="fill:#00AEEF;"/>
  <path d="M8.395-4.499c0-0.561,0.949-0.652,0.938,0C9.322-3.908,8.395-3.919,8.395-4.499z" style="fill:#00AEEF;"/>
  <path d="M6.77-3.75c0-0.56,0.949-0.652,0.938,0C7.697-3.158,6.77-3.169,6.77-3.75z" style="fill:#00AEEF;"/>
  <path d="M14.082-5.312c0-0.561,0.949-0.652,0.938,0C15.01-4.721,14.082-4.731,14.082-5.312z" style="fill:#00AEEF;"/>
  <path d="M15.02-6.374c0-0.561,0.949-0.652,0.938,0C15.947-5.784,15.02-5.794,15.02-6.374z" style="fill:#00AEEF;"/>
  <path d="M16.299-7.249c0-0.561,0.949-0.652,0.937,0C17.226-6.659,16.299-6.669,16.299-7.249z" style="fill:#00AEEF;"/>
  <path d="M17.674-8.312c0-0.561,0.949-0.652,0.938,0C18.601-7.721,17.674-7.731,17.674-8.312z" style="fill:#00AEEF;"/>
  <path d="M18.764-9.062c0-0.561,0.949-0.652,0.937,0C19.691-8.471,18.764-8.481,18.764-9.062z" style="fill:#00AEEF;"/>
  <path d="M8.207-1.625c0-0.56,0.949-0.652,0.938,0C9.135-1.033,8.207-1.044,8.207-1.625z" style="fill:#00AEEF;"/>
  <path d="M21.918-1.591c0-0.561,0.949-0.652,0.937,0C22.845-1,21.918-1.01,21.918-1.591z" style="fill:#00AEEF;"/>
  <path d="M19.736-3.812c0-0.56,0.949-0.652,0.937,0C20.664-3.221,19.736-3.231,19.736-3.812z" style="fill:#00AEEF;"/>
  <path d="M24.387-1.653c0-0.561,0.949-0.652,0.937,0C25.314-1.062,24.387-1.073,24.387-1.653z" style="fill:#00AEEF;"/>
  <path d="M20.764-2.562c0-0.56,0.949-0.652,0.937,0C21.691-1.971,20.764-1.981,20.764-2.562z" style="fill:#00AEEF;"/>
  <path d="M18.826-4.937c0-0.561,0.949-0.652,0.938,0C19.753-4.346,18.826-4.356,18.826-4.937z" style="fill:#00AEEF;"/>
  <path d="M17.326-4.249c0-0.561,0.949-0.652,0.937,0C18.253-3.658,17.326-3.669,17.326-4.249z" style="fill:#00AEEF;"/>
  <path d="M15.451-4.187c0-0.561,0.949-0.652,0.938,0C16.378-3.596,15.451-3.606,15.451-4.187z" style="fill:#00AEEF;"/>
  <path d="M13.736-3.437c0-0.56,0.949-0.652,0.937,0C14.664-2.846,13.736-2.856,13.736-3.437z" style="fill:#00AEEF;"/>
  <path d="M12.639-2.062c0-0.56,0.949-0.652,0.938,0C13.566-1.471,12.639-1.481,12.639-2.062z" style="fill:#00AEEF;"/>
  <path d="M11.889-3.5c0-0.56,0.949-0.652,0.937,0C12.816-2.908,11.889-2.919,11.889-3.5z" style="fill:#00AEEF;"/>
  <path d="M9.576-2.687c0-0.56,0.949-0.652,0.937,0C10.503-2.096,9.576-2.106,9.576-2.687z" style="fill:#00AEEF;"/>
  <path d="M10.709-1.603c0-0.56,0.949-0.652,0.938,0C11.636-1.012,10.709-1.022,10.709-1.603z" style="fill:#00AEEF;"/>
  <path d="M32.326-1.75c0-0.56,0.949-0.652,0.937,0C33.253-1.158,32.326-1.169,32.326-1.75z" style="fill:#00AEEF;"/>
  <path d="M31.986-4.062c0-0.561,0.949-0.652,0.937,0C32.914-3.471,31.986-3.481,31.986-4.062z" style="fill:#00AEEF;"/>
  <path d="M31.201-2.75c0-0.56,0.949-0.652,0.937,0C32.128-2.158,31.201-2.169,31.201-2.75z" style="fill:#00AEEF;"/>
  <path d="M30.701-5.312c0-0.561,0.949-0.652,0.937,0C31.628-4.721,30.701-4.731,30.701-5.312z" style="fill:#00AEEF;"/>
  <path d="M29.764-6.499c0-0.561,0.949-0.652,0.937,0C30.691-5.909,29.764-5.919,29.764-6.499z" style="fill:#00AEEF;"/>
  <path d="M29.611-1.875c0-0.56,0.949-0.652,0.937,0C30.539-1.283,29.611-1.294,29.611-1.875z" style="fill:#00AEEF;"/>
  <path d="M35.035-13.75c0-0.561,0.949-0.652,0.937,0C35.962-13.158,35.035-13.169,35.035-13.75z" style="fill:#00AEEF;"/>
  <path d="M33.118-14.666c0-0.561,0.949-0.652,0.937,0C34.045-14.075,33.118-14.085,33.118-14.666z" style="fill:#00AEEF;"/>
  <path d="M31.785-14.083c0-0.561,0.949-0.652,0.937,0C32.712-13.492,31.785-13.502,31.785-14.083z" style="fill:#00AEEF;"/>
  <path d="M28.951-12.916c0-0.561,0.949-0.652,0.937,0C29.878-12.325,28.951-12.335,28.951-12.916z" style="fill:#00AEEF;"/>
  <path d="M30.035-13.75c0-0.561,0.949-0.652,0.937,0C30.962-13.158,30.035-13.169,30.035-13.75z" style="fill:#00AEEF;"/>
  <path d="M27.951-11.5c0-0.561,0.949-0.652,0.937,0C28.878-10.908,27.951-10.919,27.951-11.5z" style="fill:#00AEEF;"/>
  <path d="M33.076-9.625c0-0.561,0.949-0.652,0.937,0C34.003-9.033,33.076-9.044,33.076-9.625z" style="fill:#00AEEF;"/>
  <path d="M34.549-12c0-0.561,0.949-0.652,0.937,0C35.476-11.408,34.549-11.419,34.549-12z" style="fill:#00AEEF;"/>
  <path d="M32.764-11.25c0-0.561,0.949-0.652,0.937,0C33.691-10.658,32.764-10.669,32.764-11.25z" style="fill:#00AEEF;"/>
  <path d="M31.264-10.5c0-0.561,0.949-0.652,0.937,0C32.191-9.908,31.264-9.919,31.264-10.5z" style="fill:#00AEEF;"/>
  <path d="M30.076-11.687c0-0.561,0.949-0.652,0.937,0C31.003-11.096,30.076-11.106,30.076-11.687z" style="fill:#00AEEF;"/>
  <path d="M28.924-10.687c0-0.561,0.949-0.652,0.937,0C29.851-10.096,28.924-10.106,28.924-10.687z" style="fill:#00AEEF;"/>
  <path d="M31.459-12.5c0-0.561,0.949-0.652,0.937,0C32.386-11.908,31.459-11.919,31.459-12.5z" style="fill:#00AEEF;"/>
  <path d="M33.201-12.937c0-0.561,0.949-0.652,0.937,0C34.128-12.346,33.201-12.356,33.201-12.937z" style="fill:#00AEEF;"/>
  <path d="M31.368-16c0-0.56,0.949-0.652,0.937,0C32.295-15.408,31.368-15.419,31.368-16z" style="fill:#00AEEF;"/>
  <path d="M30.278-15.5c0-0.56,0.949-0.652,0.937,0C31.205-14.908,30.278-14.919,30.278-15.5z" style="fill:#00AEEF;"/>
  <path d="M28.611-15.166c0-0.561,0.949-0.652,0.937,0C29.539-14.575,28.611-14.585,28.611-15.166z" style="fill:#00AEEF;"/>
  <path d="M27.534-14c0-0.561,0.949-0.652,0.938,0C28.462-13.408,27.534-13.419,27.534-14z" style="fill:#00AEEF;"/>
  <path d="M26.951-12.75c0-0.561,0.949-0.652,0.937,0C27.878-12.158,26.951-12.169,26.951-12.75z" style="fill:#00AEEF;"/>
  <path d="M26.201-11.25c0-0.561,0.949-0.652,0.937,0C27.128-10.658,26.201-10.669,26.201-11.25z" style="fill:#00AEEF;"/>
  <path d="M36.695-14.833c0-0.561,0.949-0.652,0.937,0C37.622-14.242,36.695-14.252,36.695-14.833z" style="fill:#00AEEF;"/>
  <path d="M34.785-15.5c0-0.56,0.949-0.652,0.937,0C35.712-14.908,34.785-14.919,34.785-15.5z" style="fill:#00AEEF;"/>
  <path d="M33.195-16.583c0-0.56,0.949-0.652,0.938,0C34.122-15.992,33.195-16.002,33.195-16.583z" style="fill:#00AEEF;"/>
  <path d="M34.111-18c0-0.56,0.949-0.652,0.937,0C35.039-17.409,34.111-17.419,34.111-18z" style="fill:#00AEEF;"/>
  <path d="M35.778-18.416c0-0.56,0.949-0.652,0.938,0C36.705-17.825,35.778-17.835,35.778-18.416z" style="fill:#00AEEF;"/>
  <path d="M35.611-17c0-0.56,0.949-0.652,0.937,0C36.539-16.409,35.611-16.419,35.611-17z" style="fill:#00AEEF;"/>
  <path d="M37.966-13.354c0-0.561,0.949-0.652,0.938,0C38.893-12.763,37.966-12.773,37.966-13.354z" style="fill:#00AEEF;"/>
  <path d="M39.889-13.125c0-0.561,0.949-0.652,0.937,0C40.816-12.533,39.889-12.544,39.889-13.125z" style="fill:#00AEEF;"/>
  <path d="M36.076-12.187c0-0.561,0.949-0.652,0.937,0C37.003-11.596,36.076-11.606,36.076-12.187z" style="fill:#00AEEF;"/>
  <path d="M36.618-13.416c0-0.561,0.949-0.652,0.937,0C37.545-12.825,36.618-12.835,36.618-13.416z" style="fill:#00AEEF;"/>
  <path d="M37.618-11.437c0-0.561,0.949-0.652,0.937,0C38.545-10.846,37.618-10.856,37.618-11.437z" style="fill:#00AEEF;"/>
  <path d="M34.576-10.25c0-0.561,0.949-0.652,0.937,0C35.503-9.658,34.576-9.669,34.576-10.25z" style="fill:#00AEEF;"/>
  <path d="M33.139-5.062c0-0.561,0.949-0.652,0.937,0C34.066-4.471,33.139-4.481,33.139-5.062z" style="fill:#00AEEF;"/>
  <path d="M32.076-6.249c0-0.561,0.949-0.652,0.937,0C33.003-5.659,32.076-5.669,32.076-6.249z" style="fill:#00AEEF;"/>
  <path d="M36.236-10.687c0-0.561,0.949-0.652,0.938,0C37.164-10.096,36.236-10.106,36.236-10.687z" style="fill:#00AEEF;"/>
  <path d="M28.111-3.25c0-0.56,0.949-0.652,0.937,0C29.039-2.658,28.111-2.669,28.111-3.25z" style="fill:#00AEEF;"/>
  <path d="M35.389-8.75c0-0.561,0.949-0.652,0.937,0C36.316-8.158,35.389-8.169,35.389-8.75z" style="fill:#00AEEF;"/>
  <path d="M33.618-8.166c0-0.561,0.949-0.652,0.937,0C34.545-7.575,33.618-7.585,33.618-8.166z" style="fill:#00AEEF;"/>
  <path d="M16.889-1.687c0-0.56,0.949-0.652,0.937,0C17.816-1.096,16.889-1.106,16.889-1.687z" style="fill:#00AEEF;"/>
  <path d="M14.453-1.591c0-0.561,0.949-0.652,0.937,0C15.38-1,14.453-1.01,14.453-1.591z" style="fill:#00AEEF;"/>
  <path d="M16.014-2.687c0-0.56,0.949-0.652,0.937,0C16.941-2.096,16.014-2.106,16.014-2.687z" style="fill:#00AEEF;"/>
  <path d="M17.826-2.875c0-0.56,0.949-0.652,0.938,0C18.753-2.283,17.826-2.294,17.826-2.875z" style="fill:#00AEEF;"/>
  <path d="M19.201-1.937c0-0.56,0.949-0.652,0.937,0C20.128-1.346,19.201-1.356,19.201-1.937z" style="fill:#00AEEF;"/>
  <path d="M29.861-3.875c0-0.56,0.949-0.652,0.938,0C30.789-3.283,29.861-3.294,29.861-3.875z" style="fill:#00AEEF;"/>
  <path d="M26.987-1.759c0.039-0.559,0.992-0.584,0.935,0.066C27.87-1.105,26.946-1.18,26.987-1.759z" style="fill:#00AEEF;"/>
  <path d="M25.862-3.085c0.039-0.559,0.992-0.584,0.935,0.066C26.745-2.43,25.821-2.505,25.862-3.085z" style="fill:#00AEEF;"/>
  <path d="M26.014-7.124c0-0.561,0.949-0.652,0.937,0C26.941-6.534,26.014-6.544,26.014-7.124z" style="fill:#00AEEF;"/>
  <path d="M25.047-4.841c0-0.561,0.949-0.652,0.937,0C25.974-4.25,25.047-4.26,25.047-4.841z" style="fill:#00AEEF;"/>
  <path d="M28.793-5.062c0-0.561,0.949-0.652,0.937,0C29.72-4.471,28.793-4.481,28.793-5.062z" style="fill:#00AEEF;"/>
  <path d="M40.02-37.75c0-0.561,0.949-0.652,0.938,0C40.947-37.159,40.02-37.169,40.02-37.75z" style="fill:#00AEEF;"/>
  <path d="M36.014-39.062c0-0.561,0.949-0.652,0.937,0C36.941-38.471,36.014-38.481,36.014-39.062z" style="fill:#00AEEF;"/>
  <path d="M38.264-37.687c0-0.561,0.949-0.652,0.937,0C39.191-37.096,38.264-37.106,38.264-37.687z" style="fill:#00AEEF;"/>
  <path d="M38.076-38.937c0-0.561,0.949-0.652,0.937,0C39.003-38.346,38.076-38.356,38.076-38.937z" style="fill:#00AEEF;"/>
  <path d="M35.453-36.181c0.039-0.559,0.992-0.584,0.935,0.066C36.337-35.526,35.412-35.601,35.453-36.181z" style="fill:#00AEEF;"/>
  <path d="M36.328-37.681c0.039-0.559,0.992-0.584,0.935,0.066C37.212-37.026,36.287-37.101,36.328-37.681z" style="fill:#00AEEF;"/>
  <path d="M30.737-39.384c0.039-0.559,0.992-0.584,0.935,0.066C31.62-38.73,30.696-38.805,30.737-39.384z" style="fill:#00AEEF;"/>
  <path d="M34.453-37.556c0.039-0.559,0.992-0.584,0.935,0.066C35.337-36.901,34.412-36.976,34.453-37.556z" style="fill:#00AEEF;"/>
  <path d="M40.082-31.687c0-0.561,0.949-0.652,0.938,0C41.01-31.096,40.082-31.106,40.082-31.687z" style="fill:#00AEEF;"/>
  <path d="M38.424-31.937c0-0.561,0.949-0.652,0.937,0C39.351-31.346,38.424-31.356,38.424-31.937z" style="fill:#00AEEF;"/>
  <path d="M39.299-33.25c0-0.561,0.949-0.652,0.937,0C40.226-32.659,39.299-32.669,39.299-33.25z" style="fill:#00AEEF;"/>
  <path d="M39.674-34.937c0-0.561,0.949-0.652,0.938,0C40.601-34.346,39.674-34.356,39.674-34.937z" style="fill:#00AEEF;"/>
  <path d="M35.764-33.812c0-0.561,0.949-0.652,0.937,0C36.691-33.221,35.764-33.231,35.764-33.812z" style="fill:#00AEEF;"/>
  <path d="M37.639-33.375c0-0.561,0.949-0.652,0.938,0C38.566-32.784,37.639-32.794,37.639-33.375z" style="fill:#00AEEF;"/>
  <path d="M38.076-35c0-0.561,0.949-0.652,0.937,0C39.003-34.409,38.076-34.419,38.076-35z" style="fill:#00AEEF;"/>
  <path d="M37.299-36.187c0-0.561,0.949-0.652,0.937,0C38.226-35.596,37.299-35.606,37.299-36.187z" style="fill:#00AEEF;"/>
  <path d="M36.389-32.375c0-0.561,0.949-0.652,0.937,0C37.316-31.784,36.389-31.794,36.389-32.375z" style="fill:#00AEEF;"/>
  <path d="M39.895-39.562c0-0.561,0.949-0.652,0.938,0C40.822-38.971,39.895-38.981,39.895-39.562z" style="fill:#00AEEF;"/>
  <path d="M38.174-40.312c0-0.561,0.949-0.652,0.937,0C39.101-39.721,38.174-39.731,38.174-40.312z" style="fill:#00AEEF;"/>
  <path d="M36.201-40.5c0-0.561,0.949-0.652,0.937,0C37.128-39.909,36.201-39.919,36.201-40.5z" style="fill:#00AEEF;"/>
  <path d="M34.111-40.375c0-0.561,0.949-0.652,0.937,0C35.039-39.784,34.111-39.794,34.111-40.375z" style="fill:#00AEEF;"/>
  <path d="M38.924-36.341c0-0.561,0.949-0.652,0.937,0C39.851-35.75,38.924-35.76,38.924-36.341z" style="fill:#00AEEF;"/>
  <path d="M36.326-35c0-0.561,0.949-0.652,0.937,0C37.253-34.409,36.326-34.419,36.326-35z" style="fill:#00AEEF;"/>
  <path d="M32.861-37.062c0-0.561,0.949-0.652,0.938,0C33.789-36.471,32.861-36.481,32.861-37.062z" style="fill:#00AEEF;"/>
  <path d="M34.52-34.562c0-0.561,0.949-0.652,0.938,0C35.447-33.971,34.52-33.981,34.52-34.562z" style="fill:#00AEEF;"/>
  <path d="M33.701-35.666c0-0.561,0.949-0.652,0.937,0C34.628-35.075,33.701-35.085,33.701-35.666z" style="fill:#00AEEF;"/>
  <path d="M33.035-33.083c0-0.56,0.949-0.652,0.937,0C33.962-32.492,33.035-32.502,33.035-33.083z" style="fill:#00AEEF;"/>
  <path d="M30.285-34.75c0-0.561,0.949-0.652,0.937,0C31.212-34.159,30.285-34.169,30.285-34.75z" style="fill:#00AEEF;"/>
  <path d="M28.951-35.583c0-0.56,0.949-0.652,0.937,0C29.878-34.992,28.951-35.002,28.951-35.583z" style="fill:#00AEEF;"/>
  <path d="M27.451-36.583c0-0.56,0.949-0.652,0.938,0C28.378-35.992,27.451-36.002,27.451-36.583z" style="fill:#00AEEF;"/>
  <path d="M25.778-37.916c0-0.561,0.949-0.652,0.938,0C26.705-37.325,25.778-37.335,25.778-37.916z" style="fill:#00AEEF;"/>
  <path d="M24.195-39.416c0-0.561,0.949-0.652,0.938,0C25.122-38.825,24.195-38.835,24.195-39.416z" style="fill:#00AEEF;"/>
  <path d="M23.076-40.5c0-0.561,0.949-0.652,0.937,0C24.003-39.909,23.076-39.919,23.076-40.5z" style="fill:#00AEEF;"/>
  <path d="M34.695-32.75c0-0.561,0.949-0.652,0.937,0C35.622-32.159,34.695-32.169,34.695-32.75z" style="fill:#00AEEF;"/>
  <path d="M31.201-36.25c0-0.561,0.949-0.652,0.937,0C32.128-35.659,31.201-35.669,31.201-36.25z" style="fill:#00AEEF;"/>
  <path d="M29.534-37c0-0.561,0.949-0.652,0.938,0C30.462-36.409,29.534-36.419,29.534-37z" style="fill:#00AEEF;"/>
  <path d="M28.028-38c0-0.561,0.949-0.652,0.937,0C28.955-37.409,28.028-37.419,28.028-38z" style="fill:#00AEEF;"/>
  <path d="M26.86-39.283c0-0.56,0.949-0.652,0.937,0C27.787-38.692,26.86-38.702,26.86-39.283z" style="fill:#00AEEF;"/>
  <path d="M25.547-40.533c0-0.56,0.949-0.652,0.937,0C26.474-39.942,25.547-39.952,25.547-40.533z" style="fill:#00AEEF;"/>
  <path d="M29.111-38.966c0-0.561,0.949-0.652,0.937,0C30.039-38.375,29.111-38.385,29.111-38.966z" style="fill:#00AEEF;"/>
  <path d="M30.985-37.716c0-0.561,0.949-0.652,0.937,0C31.912-37.125,30.985-37.135,30.985-37.716z" style="fill:#00AEEF;"/>
  <path d="M28.114-40.437c0-0.561,0.949-0.652,0.937,0C29.041-39.846,28.114-39.856,28.114-40.437z" style="fill:#00AEEF;"/>
  <path d="M34.201-39.125c0-0.561,0.949-0.652,0.937,0C35.128-38.534,34.201-38.544,34.201-39.125z" style="fill:#00AEEF;"/>
  <path d="M32.52-38.687c0-0.561,0.949-0.652,0.938,0C33.447-38.096,32.52-38.106,32.52-38.687z" style="fill:#00AEEF;"/>
  <path d="M31.361-40.5c0-0.561,0.949-0.652,0.937,0C32.289-39.909,31.361-39.919,31.361-40.5z" style="fill:#00AEEF;"/>
 </g>
</svg>
