<?xml version="1.0"?>
<!-- Converted with SVG Converter - Version 0.9.5 (Compiled Fri Feb 21 09:53:38 2020) - Copyright (C) 2011 Nokia -->
<svg xmlns="http://www.w3.org/2000/svg" version="1.1" height="40" viewBox="0 -40 40 40" x="0px" width="40" xml:space="preserve" xmlns:xlink="http://www.w3.org/1999/xlink" y="0px" baseProfile="tiny">
 <g>
  <rect height="40" width="40" style="fill:none;" y="-40"/>
  <path d="M7.125-36.452c0.561,0,0.652,0.949,0,0.938C6.534-35.524,6.544-36.452,7.125-36.452z" style="fill:#AE6219;"/>
  <path d="M5.625-36.264c0.561,0,0.652,0.949,0,0.938C5.034-35.337,5.044-36.264,5.625-36.264z" style="fill:#AE6219;"/>
  <path d="M4.188-35.452c0.561,0,0.652,0.949,0,0.938C3.597-34.524,3.606-35.452,4.188-35.452z" style="fill:#AE6219;"/>
  <path d="M2.938-34.077c0.56,0,0.652,0.949,0,0.938C2.347-33.149,2.356-34.077,2.938-34.077z" style="fill:#AE6219;"/>
  <path d="M1.707-32.063c0-0.561,0.949-0.652,0.938,0C2.635-31.472,1.707-31.482,1.707-32.063z" style="fill:#AE6219;"/>
  <path d="M0.707-30.563c0-0.561,0.949-0.652,0.938,0C1.635-29.972,0.707-29.982,0.707-30.563z" style="fill:#AE6219;"/>
  <path d="M4.778-37.292c0-0.561,0.948-0.652,0.938,0C5.705-36.701,4.778-36.711,4.778-37.292z" style="fill:#AE6219;"/>
  <path d="M5.444-38.625c0-0.561,0.949-0.652,0.938,0C6.372-38.035,5.444-38.045,5.444-38.625z" style="fill:#AE6219;"/>
  <path d="M16.951-39.5c0-0.561,0.948-0.652,0.938,0C17.878-38.91,16.951-38.92,16.951-39.5z" style="fill:#AE6219;"/>
  <path d="M15.694-38.209c0-0.56,0.949-0.652,0.938,0C16.622-37.618,15.694-37.628,15.694-38.209z" style="fill:#AE6219;"/>
  <path d="M2.395-39.5c0-0.561,0.949-0.652,0.938,0C3.322-38.91,2.395-38.92,2.395-39.5z" style="fill:#AE6219;"/>
  <path d="M0.639-38.625c0-0.561,0.948-0.652,0.938,0C1.565-38.035,0.639-38.045,0.639-38.625z" style="fill:#AE6219;"/>
  <path d="M4.278-33.459c0-0.56,0.948-0.652,0.938,0C5.205-32.868,4.278-32.878,4.278-33.459z" style="fill:#AE6219;"/>
  <path d="M29.771-27.904c0-0.505,0.854-0.587,0.844,0C30.605-27.373,29.771-27.382,29.771-27.904z" style="fill:#AE6219;"/>
  <path d="M28.528-27.063c0-0.561,0.948-0.652,0.938,0C29.455-26.472,28.528-26.482,28.528-27.063z" style="fill:#AE6219;"/>
  <path d="M27.361-25.709c0-0.561,0.949-0.652,0.938,0C28.289-25.118,27.361-25.128,27.361-25.709z" style="fill:#AE6219;"/>
  <path d="M26.451-24.375c0-0.56,0.948-0.652,0.938,0C27.378-23.784,26.451-23.795,26.451-24.375z" style="fill:#AE6219;"/>
  <path d="M4.951-32.209c0-0.56,0.948-0.652,0.938,0C5.878-31.618,4.951-31.628,4.951-32.209z" style="fill:#AE6219;"/>
  <path d="M3.778-29.375c0-0.561,0.948-0.652,0.937,0C4.705-28.785,3.778-28.794,3.778-29.375z" style="fill:#AE6219;"/>
  <path d="M4.889-27.938c0-0.561,0.948-0.652,0.938,0C5.815-27.347,4.889-27.357,4.889-27.938z" style="fill:#AE6219;"/>
  <path d="M3.194-27.709c0-0.56,0.949-0.652,0.938,0C4.122-27.118,3.194-27.128,3.194-27.709z" style="fill:#AE6219;"/>
  <path d="M1.694-27.459c0-0.56,0.949-0.652,0.937,0C2.622-26.868,1.694-26.878,1.694-27.459z" style="fill:#AE6219;"/>
  <path d="M2.868-26.125c0-0.561,0.948-0.652,0.938,0C3.795-25.534,2.868-25.545,2.868-26.125z" style="fill:#AE6219;"/>
  <path d="M4.361-24.459c0-0.561,0.949-0.651,0.938,0C5.289-23.868,4.361-23.878,4.361-24.459z" style="fill:#AE6219;"/>
  <path d="M17.868-38.292c0-0.561,0.948-0.652,0.938,0C18.795-37.701,17.868-37.711,17.868-38.292z" style="fill:#AE6219;"/>
  <path d="M3.486-37.938c0-0.561,0.949-0.652,0.938,0C4.414-37.347,3.486-37.357,3.486-37.938z" style="fill:#AE6219;"/>
  <path d="M4.082-39.375c0-0.561,0.949-0.652,0.938,0C5.01-38.785,4.082-38.795,4.082-39.375z" style="fill:#AE6219;"/>
  <path d="M0.924-36.625c0-0.561,0.949-0.652,0.938,0C1.852-36.035,0.924-36.045,0.924-36.625z" style="fill:#AE6219;"/>
  <path d="M1.778-38.042c0-0.561,0.948-0.652,0.938,0C2.705-37.451,1.778-37.461,1.778-38.042z" style="fill:#AE6219;"/>
  <path d="M5.861-34.459c0-0.56,0.949-0.652,0.938,0C6.789-33.868,5.861-33.878,5.861-34.459z" style="fill:#AE6219;"/>
  <path d="M3.278-32.125c0-0.561,0.948-0.652,0.937,0C4.205-31.535,3.278-31.545,3.278-32.125z" style="fill:#AE6219;"/>
  <path d="M4.444-30.792c0-0.561,0.949-0.652,0.938,0C5.372-30.201,4.444-30.211,4.444-30.792z" style="fill:#AE6219;"/>
  <path d="M2.611-30.625c0-0.561,0.949-0.652,0.938,0C3.539-30.035,2.611-30.044,2.611-30.625z" style="fill:#AE6219;"/>
  <path d="M2.028-29.042c0-0.561,0.948-0.652,0.938,0C2.955-28.451,2.028-28.461,2.028-29.042z" style="fill:#AE6219;"/>
  <path d="M4.694-26.209c0-0.56,0.949-0.652,0.938,0C5.622-25.618,4.694-25.628,4.694-26.209z" style="fill:#AE6219;"/>
  <path d="M1.451-25.459c0-0.561,0.948-0.651,0.938,0C2.378-24.868,1.451-24.878,1.451-25.459z" style="fill:#AE6219;"/>
  <path d="M2.868-24.209c0-0.561,0.948-0.652,0.938,0C3.795-23.618,2.868-23.628,2.868-24.209z" style="fill:#AE6219;"/>
  <path d="M1.534-23.625c0-0.56,0.949-0.652,0.938,0C2.462-23.034,1.534-23.045,1.534-23.625z" style="fill:#AE6219;"/>
  <path d="M2.028-21.875c0-0.56,0.948-0.652,0.938,0C2.955-21.284,2.028-21.295,2.028-21.875z" style="fill:#AE6219;"/>
  <path d="M2.611-20.292c0-0.561,0.949-0.652,0.938,0C3.539-19.701,2.611-19.711,2.611-20.292z" style="fill:#AE6219;"/>
  <path d="M3.278-18.709c0-0.561,0.948-0.651,0.937,0C4.205-18.118,3.278-18.128,3.278-18.709z" style="fill:#AE6219;"/>
  <path d="M4.028-17.125c0-0.56,0.948-0.652,0.938,0C4.955-16.534,4.028-16.545,4.028-17.125z" style="fill:#AE6219;"/>
  <path d="M5.194-15.875c0-0.56,0.949-0.652,0.938,0C6.122-15.284,5.194-15.295,5.194-15.875z" style="fill:#AE6219;"/>
  <path d="M6.194-25.542c0-0.561,0.949-0.652,0.938,0C7.122-24.951,6.194-24.961,6.194-25.542z" style="fill:#AE6219;"/>
  <path d="M3.076-36.592c0-0.561,0.948-0.652,0.938,0C4.003-36.001,3.076-36.011,3.076-36.592z" style="fill:#AE6219;"/>
  <path d="M2.02-35.563c0-0.561,0.949-0.652,0.938,0C2.947-34.972,2.02-34.982,2.02-35.563z" style="fill:#AE6219;"/>
  <path d="M0.428-33.688c0-0.561,0.949-0.652,0.938,0C1.355-33.097,0.428-33.107,0.428-33.688z" style="fill:#AE6219;"/>
  <path d="M0.145-32.063c0-0.561,0.949-0.652,0.938,0C1.072-31.472,0.145-31.482,0.145-32.063z" style="fill:#AE6219;"/>
  <path d="M22.341-9.209c0-0.561,0.948-0.652,0.938,0C23.268-8.618,22.341-8.628,22.341-9.209z" style="fill:#AE6219;"/>
  <path d="M22.632-10.709c0-0.561,0.949-0.651,0.938,0C23.56-10.118,22.632-10.128,22.632-10.709z" style="fill:#AE6219;"/>
  <path d="M23.778-9.042c0-0.561,0.948-0.652,0.938,0C24.705-8.451,23.778-8.461,23.778-9.042z" style="fill:#AE6219;"/>
  <path d="M25.694-8.875c0-0.561,0.949-0.652,0.938,0C26.622-8.284,25.694-8.295,25.694-8.875z" style="fill:#AE6219;"/>
  <path d="M27.194-8.354c0-0.561,0.949-0.652,0.938,0C28.122-7.764,27.194-7.773,27.194-8.354z" style="fill:#AE6219;"/>
  <path d="M29.201-8.188c0-0.561,0.948-0.652,0.938,0C30.128-7.597,29.201-7.607,29.201-8.188z" style="fill:#AE6219;"/>
  <path d="M24.368-11.459c0-0.561,0.948-0.651,0.938,0C25.295-10.868,24.368-10.878,24.368-11.459z" style="fill:#AE6219;"/>
  <path d="M22.868-12.209c0-0.561,0.948-0.652,0.938,0C23.795-11.618,22.868-11.628,22.868-12.209z" style="fill:#AE6219;"/>
  <path d="M24.694-12.875c0-0.561,0.949-0.652,0.938,0C25.622-12.284,24.694-12.295,24.694-12.875z" style="fill:#AE6219;"/>
  <path d="M25.944-14.125c0-0.561,0.949-0.652,0.938,0C26.872-13.534,25.944-13.545,25.944-14.125z" style="fill:#AE6219;"/>
  <path d="M26.361-15.709c0-0.561,0.949-0.651,0.938,0C27.289-15.118,26.361-15.128,26.361-15.709z" style="fill:#AE6219;"/>
  <path d="M26.611-17.459c0-0.561,0.949-0.651,0.938,0C27.539-16.868,26.611-16.878,26.611-17.459z" style="fill:#AE6219;"/>
  <path d="M26.944-19.042c0-0.561,0.949-0.652,0.938,0C27.872-18.451,26.944-18.461,26.944-19.042z" style="fill:#AE6219;"/>
  <path d="M27.194-20.709c0-0.561,0.949-0.651,0.938,0C28.122-20.118,27.194-20.128,27.194-20.709z" style="fill:#AE6219;"/>
  <path d="M27.444-22.375c0-0.56,0.949-0.652,0.938,0C28.372-21.784,27.444-21.795,27.444-22.375z" style="fill:#AE6219;"/>
  <path d="M26.118-22.709c0-0.561,0.948-0.651,0.938,0C27.045-22.118,26.118-22.128,26.118-22.709z" style="fill:#AE6219;"/>
  <path d="M25.618-20.959c0-0.561,0.948-0.652,0.938,0C26.545-20.368,25.618-20.378,25.618-20.959z" style="fill:#AE6219;"/>
  <path d="M25.361-19.375c0-0.56,0.949-0.652,0.938,0C26.289-18.784,25.361-18.795,25.361-19.375z" style="fill:#AE6219;"/>
  <path d="M25.194-17.709c0-0.561,0.949-0.651,0.938,0C26.122-17.118,25.194-17.128,25.194-17.709z" style="fill:#AE6219;"/>
  <path d="M24.701-16.375c0-0.56,0.948-0.652,0.938,0C25.628-15.784,24.701-15.795,24.701-16.375z" style="fill:#AE6219;"/>
  <path d="M24.451-14.625c0-0.561,0.948-0.652,0.938,0C25.378-14.034,24.451-14.045,24.451-14.625z" style="fill:#AE6219;"/>
  <path d="M28.216-24.084c0-0.561,0.948-0.651,0.938,0C29.143-23.493,28.216-23.503,28.216-24.084z" style="fill:#AE6219;"/>
  <path d="M29.813-24.438c0-0.56,0.949-0.652,0.938,0C30.741-23.847,29.813-23.857,29.813-24.438z" style="fill:#AE6219;"/>
  <path d="M31.451-24.792c0-0.561,0.948-0.652,0.937,0C32.378-24.201,31.451-24.211,31.451-24.792z" style="fill:#AE6219;"/>
  <path d="M30.694-26.167c0-0.561,0.949-0.652,0.938,0C31.622-25.576,30.694-25.586,30.694-26.167z" style="fill:#AE6219;"/>
  <path d="M29.181-25.667c0-0.561,0.948-0.652,0.938,0C30.107-25.076,29.181-25.086,29.181-25.667z" style="fill:#AE6219;"/>
  <path d="M31.194-27.542c0-0.561,0.949-0.652,0.938,0C32.122-26.951,31.194-26.961,31.194-27.542z" style="fill:#AE6219;"/>
  <path d="M31.014-28.938c0-0.561,0.948-0.652,0.938,0C31.94-28.347,31.014-28.357,31.014-28.938z" style="fill:#AE6219;"/>
  <path d="M18.528-6.459c0-0.56,0.948-0.651,0.938,0C19.455-5.868,18.528-5.878,18.528-6.459z" style="fill:#AE6219;"/>
  <path d="M20.028-7.125c0-0.561,0.948-0.652,0.938,0C20.955-6.534,20.028-6.545,20.028-7.125z" style="fill:#AE6219;"/>
  <path d="M21.736-7.5c0-0.561,0.949-0.652,0.938,0C22.664-6.909,21.736-6.92,21.736-7.5z" style="fill:#AE6219;"/>
  <path d="M23.278-7.542c0-0.561,0.948-0.652,0.938,0C24.205-6.951,23.278-6.961,23.278-7.542z" style="fill:#AE6219;"/>
  <path d="M25.201-7.542c0-0.561,0.948-0.652,0.938,0C26.128-6.951,25.201-6.961,25.201-7.542z" style="fill:#AE6219;"/>
  <path d="M26.799-7c0-0.561,0.949-0.652,0.938,0C27.727-6.409,26.799-6.42,26.799-7z" style="fill:#AE6219;"/>
  <path d="M30.514-6.25c0-0.561,0.948-0.652,0.938,0C31.44-5.659,30.514-5.67,30.514-6.25z" style="fill:#AE6219;"/>
  <path d="M30.951-7.688c0-0.561,0.948-0.652,0.938,0C31.878-7.097,30.951-7.107,30.951-7.688z" style="fill:#AE6219;"/>
  <path d="M28.701-6.812c0-0.561,0.948-0.652,0.938,0C29.628-6.222,28.701-6.232,28.701-6.812z" style="fill:#AE6219;"/>
  <path d="M27.014-5.375c0-0.561,0.948-0.652,0.938,0C27.94-4.784,27.014-4.795,27.014-5.375z" style="fill:#AE6219;"/>
  <path d="M25.389-4.625c0-0.561,0.948-0.652,0.938,0C26.315-4.034,25.389-4.045,25.389-4.625z" style="fill:#AE6219;"/>
  <path d="M25.924-3.459c0-0.56,0.949-0.651,0.938,0C26.852-2.868,25.924-2.878,25.924-3.459z" style="fill:#AE6219;"/>
  <path d="M21.819-5.459c0-0.56,0.949-0.651,0.938,0C22.747-4.868,21.819-4.878,21.819-5.459z" style="fill:#AE6219;"/>
  <path d="M20.201-5.459c0-0.56,0.948-0.651,0.938,0C21.128-4.868,20.201-4.878,20.201-5.459z" style="fill:#AE6219;"/>
  <path d="M20.451-3.842c0-0.56,0.948-0.652,0.938,0C21.378-3.251,20.451-3.261,20.451-3.842z" style="fill:#AE6219;"/>
  <path d="M18.618-4.959c0-0.56,0.948-0.652,0.938,0C19.545-4.368,18.618-4.378,18.618-4.959z" style="fill:#AE6219;"/>
  <path d="M21.395-1.967c0-0.56,0.949-0.652,0.938,0C22.322-1.376,21.395-1.386,21.395-1.967z" style="fill:#AE6219;"/>
  <path d="M23.382-5.729c0-0.561,0.949-0.652,0.938,0C24.31-5.139,23.382-5.148,23.382-5.729z" style="fill:#AE6219;"/>
  <path d="M0.125-18.062c0-0.56,0.948-0.652,0.938,0C1.053-17.472,0.125-17.482,0.125-18.062z" style="fill:#AE6219;"/>
  <path d="M0.707-16.562c0-0.56,0.949-0.652,0.938,0C1.635-15.972,0.707-15.982,0.707-16.562z" style="fill:#AE6219;"/>
  <path d="M1.582-15.25c0-0.561,0.949-0.652,0.938,0C2.51-14.659,1.582-14.67,1.582-15.25z" style="fill:#AE6219;"/>
  <path d="M2.707-13.938c0-0.561,0.949-0.652,0.938,0C3.635-13.347,2.707-13.357,2.707-13.938z" style="fill:#AE6219;"/>
  <path d="M3.832-12.938c0-0.561,0.949-0.652,0.937,0C4.76-12.347,3.832-12.357,3.832-12.938z" style="fill:#AE6219;"/>
  <path d="M5.082-12.062c0-0.561,0.949-0.652,0.938,0C6.01-11.472,5.082-11.482,5.082-12.062z" style="fill:#AE6219;"/>
  <path d="M3.332-11.188c0-0.561,0.949-0.652,0.937,0C4.26-10.597,3.332-10.607,3.332-11.188z" style="fill:#AE6219;"/>
  <path d="M2.082-12.438c0-0.561,0.949-0.652,0.938,0C3.01-11.847,2.082-11.857,2.082-12.438z" style="fill:#AE6219;"/>
  <path d="M1.145-13.938c0-0.561,0.949-0.652,0.938,0C2.072-13.347,1.145-13.357,1.145-13.938z" style="fill:#AE6219;"/>
  <path d="M0.082-15.25c0-0.561,0.949-0.652,0.938,0C1.01-14.659,0.082-14.67,0.082-15.25z" style="fill:#AE6219;"/>
  <path d="M17.028-5.459c0-0.56,0.948-0.651,0.938,0C17.955-4.868,17.028-4.878,17.028-5.459z" style="fill:#AE6219;"/>
  <path d="M19.528-14.375c0-0.561,0.948-0.652,0.938,0C20.455-13.784,19.528-13.795,19.528-14.375z" style="fill:#AE6219;"/>
  <path d="M17.868-13.959c0-0.561,0.948-0.652,0.938,0C18.795-13.368,17.868-13.378,17.868-13.959z" style="fill:#AE6219;"/>
  <path d="M16.368-13.125c0-0.561,0.948-0.652,0.938,0C17.295-12.534,16.368-12.545,16.368-13.125z" style="fill:#AE6219;"/>
  <path d="M14.951-12.292c0-0.561,0.948-0.652,0.938,0C15.878-11.701,14.951-11.711,14.951-12.292z" style="fill:#AE6219;"/>
  <path d="M14.111-13.625c0-0.561,0.949-0.652,0.938,0C15.039-13.034,14.111-13.045,14.111-13.625z" style="fill:#AE6219;"/>
  <path d="M16.618-15.125c0-0.561,0.948-0.652,0.938,0C17.545-14.534,16.618-14.545,16.618-15.125z" style="fill:#AE6219;"/>
  <path d="M18.201-15.375c0-0.561,0.948-0.652,0.938,0C19.128-14.784,18.201-14.795,18.201-15.375z" style="fill:#AE6219;"/>
  <path d="M19.701-16.209c0-0.561,0.948-0.652,0.938,0C20.628-15.618,19.701-15.628,19.701-16.209z" style="fill:#AE6219;"/>
  <path d="M21.284-16.459c0-0.561,0.949-0.651,0.938,0C22.212-15.868,21.284-15.878,21.284-16.459z" style="fill:#AE6219;"/>
  <path d="M15.201-14.542c0-0.561,0.948-0.652,0.938,0C16.128-13.951,15.201-13.961,15.201-14.542z" style="fill:#AE6219;"/>
  <path d="M13.868-11.292c0-0.561,0.948-0.652,0.938,0C14.795-10.701,13.868-10.711,13.868-11.292z" style="fill:#AE6219;"/>
  <path d="M12.784-12.542c0-0.561,0.949-0.652,0.938,0C13.712-11.951,12.784-11.961,12.784-12.542z" style="fill:#AE6219;"/>
  <path d="M12.868-10.459c0-0.561,0.948-0.651,0.938,0C13.795-9.868,12.868-9.878,12.868-10.459z" style="fill:#AE6219;"/>
  <path d="M11.694-11.542c0-0.561,0.949-0.652,0.938,0C12.622-10.951,11.694-10.961,11.694-11.542z" style="fill:#AE6219;"/>
  <path d="M19.194-8.875c0-0.561,0.949-0.652,0.938,0C20.122-8.284,19.194-8.295,19.194-8.875z" style="fill:#AE6219;"/>
  <path d="M20.694-9.209c0-0.561,0.949-0.652,0.938,0C21.622-8.618,20.694-8.628,20.694-9.209z" style="fill:#AE6219;"/>
  <path d="M21.028-14.709c0-0.561,0.948-0.651,0.938,0C21.955-14.118,21.028-14.128,21.028-14.709z" style="fill:#AE6219;"/>
  <path d="M23.194-13.792c0-0.561,0.949-0.652,0.938,0C24.122-13.201,23.194-13.211,23.194-13.792z" style="fill:#AE6219;"/>
  <path d="M31.951-30.542c0-0.561,0.948-0.652,0.937,0C32.878-29.951,31.951-29.961,31.951-30.542z" style="fill:#AE6219;"/>
  <path d="M22.444-15.375c0-0.561,0.949-0.652,0.938,0C23.372-14.784,22.444-14.795,22.444-15.375z" style="fill:#AE6219;"/>
  <path d="M21.368-13.042c0-0.561,0.948-0.652,0.938,0C22.295-12.451,21.368-12.461,21.368-13.042z" style="fill:#AE6219;"/>
  <path d="M19.701-12.625c0-0.561,0.948-0.652,0.938,0C20.628-12.034,19.701-12.045,19.701-12.625z" style="fill:#AE6219;"/>
  <path d="M18.201-12.209c0-0.561,0.948-0.652,0.938,0C19.128-11.618,18.201-11.628,18.201-12.209z" style="fill:#AE6219;"/>
  <path d="M16.944-11.459c0-0.561,0.949-0.651,0.938,0C17.872-10.868,16.944-10.878,16.944-11.459z" style="fill:#AE6219;"/>
  <path d="M15.618-10.542c0-0.561,0.948-0.652,0.938,0C16.545-9.951,15.618-9.961,15.618-10.542z" style="fill:#AE6219;"/>
  <path d="M14.368-9.625c0-0.561,0.948-0.652,0.938,0C15.295-9.034,14.368-9.045,14.368-9.625z" style="fill:#AE6219;"/>
  <path d="M13.278-8.459c0-0.561,0.948-0.651,0.938,0C14.205-7.868,13.278-7.878,13.278-8.459z" style="fill:#AE6219;"/>
  <path d="M12.034-7.459c0-0.56,0.949-0.651,0.938,0C12.962-6.868,12.034-6.878,12.034-7.459z" style="fill:#AE6219;"/>
  <path d="M11.868-9.375c0-0.561,0.948-0.652,0.938,0C12.795-8.784,11.868-8.795,11.868-9.375z" style="fill:#AE6219;"/>
  <path d="M10.534-10.209c0-0.561,0.949-0.652,0.938,0C11.462-9.618,10.534-9.628,10.534-10.209z" style="fill:#AE6219;"/>
  <path d="M10.528-8.709c0-0.561,0.948-0.651,0.938,0C11.455-8.118,10.528-8.128,10.528-8.709z" style="fill:#AE6219;"/>
  <path d="M1.889-10.5c0-0.561,0.948-0.652,0.938,0C2.815-9.909,1.889-9.92,1.889-10.5z" style="fill:#AE6219;"/>
  <path d="M0.764-11.688c0-0.561,0.948-0.652,0.938,0C1.69-11.097,0.764-11.107,0.764-11.688z" style="fill:#AE6219;"/>
  <path d="M0.125-13c0-0.561,0.948-0.652,0.938,0C1.053-12.409,0.125-12.42,0.125-13z" style="fill:#AE6219;"/>
  <path d="M30.618-30.209c0-0.56,0.948-0.652,0.938,0C31.545-29.618,30.618-29.628,30.618-30.209z" style="fill:#AE6219;"/>
  <path d="M29.361-29.459c0-0.56,0.949-0.652,0.938,0C30.289-28.868,29.361-28.878,29.361-29.459z" style="fill:#AE6219;"/>
  <path d="M28.034-28.792c0-0.561,0.949-0.652,0.938,0C28.962-28.201,28.034-28.211,28.034-28.792z" style="fill:#AE6219;"/>
  <path d="M27.194-27.709c0-0.56,0.949-0.652,0.938,0C28.122-27.118,27.194-27.128,27.194-27.709z" style="fill:#AE6219;"/>
  <path d="M25.784-26.709c0-0.56,0.949-0.652,0.938,0C26.712-26.118,25.784-26.128,25.784-26.709z" style="fill:#AE6219;"/>
  <path d="M25.111-25.125c0-0.56,0.949-0.652,0.938,0C26.039-24.534,25.111-24.545,25.111-25.125z" style="fill:#AE6219;"/>
  <path d="M24.861-23.625c0-0.56,0.949-0.652,0.938,0C25.789-23.034,24.861-23.045,24.861-23.625z" style="fill:#AE6219;"/>
  <path d="M24.528-21.875c0-0.56,0.948-0.652,0.938,0C25.455-21.284,24.528-21.295,24.528-21.875z" style="fill:#AE6219;"/>
  <path d="M23.861-20.125c0-0.56,0.949-0.652,0.938,0C24.789-19.534,23.861-19.545,23.861-20.125z" style="fill:#AE6219;"/>
  <path d="M23.611-18.459c0-0.561,0.949-0.651,0.938,0C24.539-17.868,23.611-17.878,23.611-18.459z" style="fill:#AE6219;"/>
  <path d="M23.194-16.959c0-0.561,0.949-0.652,0.938,0C24.122-16.368,23.194-16.378,23.194-16.959z" style="fill:#AE6219;"/>
  <path d="M21.784-17.959c0-0.561,0.949-0.652,0.938,0C22.712-17.368,21.784-17.378,21.784-17.959z" style="fill:#AE6219;"/>
  <path d="M22.528-19.459c0-0.561,0.948-0.651,0.938,0C23.455-18.868,22.528-18.878,22.528-19.459z" style="fill:#AE6219;"/>
  <path d="M22.194-21.125c0-0.56,0.949-0.652,0.938,0C23.122-20.534,22.194-20.545,22.194-21.125z" style="fill:#AE6219;"/>
  <path d="M23.111-22.375c0-0.56,0.949-0.652,0.938,0C24.039-21.784,23.111-21.795,23.111-22.375z" style="fill:#AE6219;"/>
  <path d="M23.284-24.042c0-0.561,0.949-0.652,0.938,0C24.212-23.451,23.284-23.461,23.284-24.042z" style="fill:#AE6219;"/>
  <path d="M23.861-25.875c0-0.561,0.949-0.652,0.938,0C24.789-25.284,23.861-25.295,23.861-25.875z" style="fill:#AE6219;"/>
  <path d="M22.194-26.542c0-0.561,0.949-0.652,0.938,0C23.122-25.951,22.194-25.961,22.194-26.542z" style="fill:#AE6219;"/>
  <path d="M20.534-26.792c0-0.561,0.949-0.652,0.938,0C21.462-26.201,20.534-26.211,20.534-26.792z" style="fill:#AE6219;"/>
  <path d="M19.034-26.375c0-0.561,0.949-0.652,0.938,0C19.962-25.784,19.034-25.795,19.034-26.375z" style="fill:#AE6219;"/>
  <path d="M17.618-25.709c0-0.561,0.948-0.652,0.938,0C18.545-25.118,17.618-25.128,17.618-25.709z" style="fill:#AE6219;"/>
  <path d="M16.451-26.312c0-0.561,0.948-0.652,0.938,0C17.378-25.722,16.451-25.732,16.451-26.312z" style="fill:#AE6219;"/>
  <path d="M15.451-4.542c0-0.561,0.948-0.652,0.938,0C16.378-3.951,15.451-3.961,15.451-4.542z" style="fill:#AE6219;"/>
  <path d="M13.528-38.229c0-0.561,0.948-0.652,0.938,0C14.455-37.639,13.528-37.649,13.528-38.229z" style="fill:#AE6219;"/>
  <path d="M11.778-35.875c0-0.561,0.948-0.652,0.938,0C12.705-35.285,11.778-35.295,11.778-35.875z" style="fill:#AE6219;"/>
  <path d="M6.764-11.438c0-0.561,0.948-0.652,0.938,0C7.69-10.847,6.764-10.857,6.764-11.438z" style="fill:#AE6219;"/>
  <path d="M7.451-10.188c0-0.561,0.948-0.652,0.937,0C8.378-9.597,7.451-9.607,7.451-10.188z" style="fill:#AE6219;"/>
  <path d="M9.014-10c0-0.561,0.948-0.652,0.938,0C9.94-9.409,9.014-9.42,9.014-10z" style="fill:#AE6219;"/>
  <path d="M9.076-8.75c0-0.561,0.948-0.652,0.938,0C10.003-8.159,9.076-8.17,9.076-8.75z" style="fill:#AE6219;"/>
  <path d="M7.576-8.625c0-0.561,0.948-0.652,0.937,0C8.503-8.034,7.576-8.045,7.576-8.625z" style="fill:#AE6219;"/>
  <path d="M6.139-8.062c0-0.561,0.948-0.652,0.938,0C7.065-7.472,6.139-7.482,6.139-8.062z" style="fill:#AE6219;"/>
  <path d="M4.639-7.25c0-0.561,0.948-0.652,0.938,0C5.565-6.659,4.639-6.67,4.639-7.25z" style="fill:#AE6219;"/>
  <path d="M3.076-6.312c0-0.561,0.948-0.652,0.938,0C4.003-5.722,3.076-5.732,3.076-6.312z" style="fill:#AE6219;"/>
  <path d="M1.826-5.312c0-0.561,0.948-0.652,0.938,0C2.753-4.722,1.826-4.732,1.826-5.312z" style="fill:#AE6219;"/>
  <path d="M0.201-4.562c0-0.561,0.948-0.652,0.938,0C1.128-3.972,0.201-3.982,0.201-4.562z" style="fill:#AE6219;"/>
  <path d="M22.534-30.042c0-0.561,0.949-0.652,0.938,0C23.462-29.451,22.534-29.461,22.534-30.042z" style="fill:#AE6219;"/>
  <path d="M20.778-30.209c0-0.56,0.948-0.652,0.938,0C21.705-29.618,20.778-29.628,20.778-30.209z" style="fill:#AE6219;"/>
  <path d="M19.194-29.959c0-0.56,0.949-0.652,0.938,0C20.122-29.368,19.194-29.378,19.194-29.959z" style="fill:#AE6219;"/>
  <path d="M10.326-7.188c0-0.561,0.948-0.652,0.938,0C11.253-6.597,10.326-6.607,10.326-7.188z" style="fill:#AE6219;"/>
  <path d="M8.826-7.25c0-0.561,0.948-0.652,0.938,0C9.753-6.659,8.826-6.67,8.826-7.25z" style="fill:#AE6219;"/>
  <path d="M7.451-6.812c0-0.561,0.948-0.652,0.937,0C8.378-6.222,7.451-6.232,7.451-6.812z" style="fill:#AE6219;"/>
  <path d="M5.951-6.188c0-0.561,0.948-0.652,0.938,0C6.878-5.597,5.951-5.607,5.951-6.188z" style="fill:#AE6219;"/>
  <path d="M4.389-5.312c0-0.561,0.948-0.652,0.938,0C5.315-4.722,4.389-4.732,4.389-5.312z" style="fill:#AE6219;"/>
  <path d="M2.889-4.312c0-0.561,0.948-0.652,0.938,0C3.815-3.722,2.889-3.732,2.889-4.312z" style="fill:#AE6219;"/>
  <path d="M1.639-3.562c0-0.561,0.948-0.652,0.938,0C2.565-2.972,1.639-2.982,1.639-3.562z" style="fill:#AE6219;"/>
  <path d="M0.451-2.75c0-0.56,0.948-0.652,0.938,0C1.378-2.159,0.451-2.17,0.451-2.75z" style="fill:#AE6219;"/>
  <path d="M0.076-1.472c0-0.561,0.948-0.652,0.938,0C1.003-0.881,0.076-0.891,0.076-1.472z" style="fill:#AE6219;"/>
  <path d="M1.172-0.5c0-0.561,0.949-0.652,0.938,0C2.1,0.091,1.172,0.08,1.172-0.5z" style="fill:#AE6219;"/>
  <path d="M1.764-1.75c0-0.56,0.948-0.652,0.938,0C2.69-1.159,1.764-1.17,1.764-1.75z" style="fill:#AE6219;"/>
  <path d="M3.139-2.812c0-0.56,0.948-0.652,0.938,0C4.065-2.222,3.139-2.232,3.139-2.812z" style="fill:#AE6219;"/>
  <path d="M4.576-3.562c0-0.561,0.948-0.652,0.938,0C5.503-2.972,4.576-2.982,4.576-3.562z" style="fill:#AE6219;"/>
  <path d="M3.361-0.812c0-0.561,0.949-0.652,0.938,0C4.289-0.222,3.361-0.232,3.361-0.812z" style="fill:#AE6219;"/>
  <path d="M6.014-4.312c0-0.561,0.948-0.652,0.938,0C6.94-3.722,6.014-3.732,6.014-4.312z" style="fill:#AE6219;"/>
  <path d="M7.514-5.125c0-0.561,0.948-0.652,0.937,0C8.44-4.534,7.514-4.545,7.514-5.125z" style="fill:#AE6219;"/>
  <path d="M9.264-5.938c0-0.561,0.948-0.652,0.938,0C10.19-5.347,9.264-5.357,9.264-5.938z" style="fill:#AE6219;"/>
  <path d="M11.014-5.75c0-0.561,0.948-0.652,0.938,0C11.94-5.159,11.014-5.17,11.014-5.75z" style="fill:#AE6219;"/>
  <path d="M12.514-5.938c0-0.561,0.948-0.652,0.938,0C13.44-5.347,12.514-5.357,12.514-5.938z" style="fill:#AE6219;"/>
  <path d="M13.889-6.875c0-0.561,0.948-0.652,0.938,0C14.815-6.284,13.889-6.295,13.889-6.875z" style="fill:#AE6219;"/>
  <path d="M15.076-7.938c0-0.561,0.948-0.652,0.938,0C16.003-7.347,15.076-7.357,15.076-7.938z" style="fill:#AE6219;"/>
  <path d="M16.264-8.938c0-0.561,0.948-0.652,0.938,0C17.19-8.347,16.264-8.357,16.264-8.938z" style="fill:#AE6219;"/>
  <path d="M17.389-9.875c0-0.561,0.948-0.652,0.938,0C18.315-9.284,17.389-9.295,17.389-9.875z" style="fill:#AE6219;"/>
  <path d="M18.701-10.688c0-0.561,0.948-0.652,0.938,0C19.628-10.097,18.701-10.107,18.701-10.688z" style="fill:#AE6219;"/>
  <path d="M20.076-11c0-0.561,0.948-0.652,0.938,0C21.003-10.409,20.076-10.42,20.076-11z" style="fill:#AE6219;"/>
  <path d="M21.389-11.562c0-0.561,0.948-0.652,0.938,0C22.315-10.972,21.389-10.982,21.389-11.562z" style="fill:#AE6219;"/>
  <path d="M6.014-9.688c0-0.561,0.948-0.652,0.938,0C6.94-9.097,6.014-9.107,6.014-9.688z" style="fill:#AE6219;"/>
  <path d="M4.576-8.875c0-0.561,0.948-0.652,0.938,0C5.503-8.284,4.576-8.295,4.576-8.875z" style="fill:#AE6219;"/>
  <path d="M3.139-8.062c0-0.561,0.948-0.652,0.938,0C4.065-7.472,3.139-7.482,3.139-8.062z" style="fill:#AE6219;"/>
  <path d="M1.764-7.125c0-0.561,0.948-0.652,0.938,0C2.69-6.534,1.764-6.545,1.764-7.125z" style="fill:#AE6219;"/>
  <path d="M0.201-6.375c0-0.561,0.948-0.652,0.938,0C1.128-5.784,0.201-5.795,0.201-6.375z" style="fill:#AE6219;"/>
  <path d="M14.111-31.459c0-0.56,0.949-0.652,0.938,0C15.039-30.868,14.111-30.878,14.111-31.459z" style="fill:#AE6219;"/>
  <path d="M12.966-32.25c0-0.561,0.948-0.652,0.938,0C13.893-31.66,12.966-31.67,12.966-32.25z" style="fill:#AE6219;"/>
  <path d="M11.424-32.396c0-0.56,0.949-0.652,0.938,0C12.352-31.805,11.424-31.815,11.424-32.396z" style="fill:#AE6219;"/>
  <path d="M9.911-32.959c0-0.56,0.949-0.652,0.938,0C10.839-32.368,9.911-32.378,9.911-32.959z" style="fill:#AE6219;"/>
  <path d="M24.278-29.375c0-0.561,0.948-0.652,0.938,0C25.205-28.785,24.278-28.794,24.278-29.375z" style="fill:#AE6219;"/>
  <path d="M4.826-10.688c0-0.561,0.948-0.652,0.938,0C5.753-10.097,4.826-10.107,4.826-10.688z" style="fill:#AE6219;"/>
  <path d="M3.264-9.812c0-0.561,0.948-0.652,0.938,0C4.19-9.222,3.264-9.232,3.264-9.812z" style="fill:#AE6219;"/>
  <path d="M1.889-9.188c0-0.561,0.948-0.652,0.938,0C2.815-8.597,1.889-8.607,1.889-9.188z" style="fill:#AE6219;"/>
  <path d="M0.201-8.375c0-0.561,0.948-0.652,0.938,0C1.128-7.784,0.201-7.795,0.201-8.375z" style="fill:#AE6219;"/>
  <path d="M20.194-31.792c0-0.561,0.949-0.652,0.938,0C21.122-31.201,20.194-31.211,20.194-31.792z" style="fill:#AE6219;"/>
  <path d="M18.778-31.542c0-0.561,0.948-0.652,0.938,0C19.705-30.951,18.778-30.961,18.778-31.542z" style="fill:#AE6219;"/>
  <path d="M17.111-31.375c0-0.561,0.949-0.652,0.938,0C18.039-30.785,17.111-30.794,17.111-31.375z" style="fill:#AE6219;"/>
  <path d="M15.618-31.459c0-0.56,0.948-0.652,0.938,0C16.545-30.868,15.618-30.878,15.618-31.459z" style="fill:#AE6219;"/>
  <path d="M18.576-32.938c0-0.561,0.948-0.652,0.938,0C19.503-32.347,18.576-32.357,18.576-32.938z" style="fill:#AE6219;"/>
  <path d="M16.889-33.25c0-0.561,0.948-0.652,0.938,0C17.815-32.66,16.889-32.67,16.889-33.25z" style="fill:#AE6219;"/>
  <path d="M11.034-34.375c0-0.561,0.949-0.652,0.938,0C11.962-33.785,11.034-33.795,11.034-34.375z" style="fill:#AE6219;"/>
  <path d="M12.451-33.959c0-0.56,0.948-0.652,0.938,0C13.378-33.368,12.451-33.378,12.451-33.959z" style="fill:#AE6219;"/>
  <path d="M13.972-33.334c0-0.56,0.949-0.652,0.938,0C14.899-32.743,13.972-32.753,13.972-33.334z" style="fill:#AE6219;"/>
  <path d="M15.451-33c0-0.561,0.948-0.652,0.938,0C16.378-32.41,15.451-32.42,15.451-33z" style="fill:#AE6219;"/>
  <path d="M34.014-4.438c0-0.561,0.948-0.652,0.938,0C34.94-3.847,34.014-3.857,34.014-4.438z" style="fill:#AE6219;"/>
  <path d="M32.326-1.875c0-0.56,0.948-0.652,0.938,0C33.253-1.284,32.326-1.295,32.326-1.875z" style="fill:#AE6219;"/>
  <path d="M33.326-3.062c0-0.56,0.948-0.652,0.938,0C34.253-2.472,33.326-2.482,33.326-3.062z" style="fill:#AE6219;"/>
  <path d="M38.722-9.5c0-0.561,0.949-0.652,0.938,0C39.649-8.909,38.722-8.92,38.722-9.5z" style="fill:#AE6219;"/>
  <path d="M38.882-3.009c0-0.56,0.949-0.652,0.938,0C39.81-2.418,38.882-2.428,38.882-3.009z" style="fill:#AE6219;"/>
  <path d="M38.049-1.875c0-0.56,0.949-0.652,0.938,0C38.977-1.284,38.049-1.295,38.049-1.875z" style="fill:#AE6219;"/>
  <path d="M37.514-0.625c0-0.561,0.948-0.652,0.938,0C38.44-0.034,37.514-0.045,37.514-0.625z" style="fill:#AE6219;"/>
  <path d="M39.007-0.507c0-0.561,0.948-0.652,0.938,0C39.935,0.084,39.007,0.073,39.007-0.507z" style="fill:#AE6219;"/>
  <path d="M38.722-4.438c0-0.561,0.949-0.652,0.938,0C39.649-3.847,38.722-3.857,38.722-4.438z" style="fill:#AE6219;"/>
  <path d="M37.222-3.188c0-0.56,0.949-0.652,0.938,0C38.149-2.597,37.222-2.607,37.222-3.188z" style="fill:#AE6219;"/>
  <path d="M36.159-2.062c0-0.56,0.949-0.652,0.938,0C37.087-1.472,36.159-1.482,36.159-2.062z" style="fill:#AE6219;"/>
  <path d="M34.576-1.875c0-0.56,0.948-0.652,0.938,0C35.503-1.284,34.576-1.295,34.576-1.875z" style="fill:#AE6219;"/>
  <path d="M35.583-0.809c0-0.56,0.948-0.652,0.937,0C36.51-0.218,35.583-0.228,35.583-0.809z" style="fill:#AE6219;"/>
  <path d="M38.659-7.812c0-0.561,0.949-0.652,0.938,0C39.587-7.222,38.659-7.232,38.659-7.812z" style="fill:#AE6219;"/>
  <path d="M37.361-7c0-0.561,0.949-0.652,0.938,0C38.289-6.409,37.361-6.42,37.361-7z" style="fill:#AE6219;"/>
  <path d="M33.028-5.625c0-0.561,0.948-0.652,0.938,0C33.955-5.034,33.028-5.045,33.028-5.625z" style="fill:#AE6219;"/>
  <path d="M22.881-2.154c0-0.56,0.948-0.652,0.938,0C23.808-1.564,22.881-1.573,22.881-2.154z" style="fill:#AE6219;"/>
  <path d="M22.076-3.938c0-0.561,0.948-0.652,0.938,0C23.003-3.347,22.076-3.357,22.076-3.938z" style="fill:#AE6219;"/>
  <path d="M36.701-4.792c0-0.561,0.948-0.652,0.938,0C37.628-4.201,36.701-4.211,36.701-4.792z" style="fill:#AE6219;"/>
  <path d="M38.27-5.784c0-0.56,0.949-0.652,0.938,0C39.197-5.193,38.27-5.203,38.27-5.784z" style="fill:#AE6219;"/>
  <path d="M35.444-3.438c0-0.56,0.949-0.652,0.938,0C36.372-2.847,35.444-2.857,35.444-3.438z" style="fill:#AE6219;"/>
  <path d="M33.764-0.75c0-0.561,0.948-0.652,0.938,0C34.69-0.159,33.764-0.17,33.764-0.75z" style="fill:#AE6219;"/>
  <path d="M37.326-8.688c0-0.561,0.948-0.652,0.938,0C38.253-8.097,37.326-8.107,37.326-8.688z" style="fill:#AE6219;"/>
  <path d="M36.034-6.292c0-0.561,0.949-0.652,0.938,0C36.962-5.701,36.034-5.711,36.034-6.292z" style="fill:#AE6219;"/>
  <path d="M34.951-5.542c0-0.561,0.948-0.652,0.938,0C35.878-4.951,34.951-4.961,34.951-5.542z" style="fill:#AE6219;"/>
  <path d="M35.826-8.25c0-0.561,0.948-0.652,0.938,0C36.753-7.659,35.826-7.67,35.826-8.25z" style="fill:#AE6219;"/>
  <path d="M0.139-10.188c0-0.561,0.948-0.652,0.938,0C1.065-9.597,0.139-9.607,0.139-10.188z" style="fill:#AE6219;"/>
  <path d="M0.236-35.25c0-0.561,0.949-0.652,0.938,0C1.164-34.66,0.236-34.67,0.236-35.25z" style="fill:#AE6219;"/>
  <path d="M0.269-28.688c0-0.561,0.949-0.652,0.938,0C1.197-28.097,0.269-28.107,0.269-28.688z" style="fill:#AE6219;"/>
  <path d="M0.082-26.938c0-0.561,0.949-0.652,0.938,0C1.01-26.347,0.082-26.357,0.082-26.938z" style="fill:#AE6219;"/>
  <path d="M0.082-25.312c0-0.56,0.949-0.652,0.938,0C1.01-24.722,0.082-24.732,0.082-25.312z" style="fill:#AE6219;"/>
  <path d="M0.082-23.812c0-0.56,0.949-0.652,0.938,0C1.01-23.222,0.082-23.232,0.082-23.812z" style="fill:#AE6219;"/>
  <path d="M0.332-22.25c0-0.56,0.949-0.652,0.938,0C1.26-21.659,0.332-21.67,0.332-22.25z" style="fill:#AE6219;"/>
  <path d="M0.707-20.688c0-0.56,0.949-0.652,0.938,0C1.635-20.097,0.707-20.107,0.707-20.688z" style="fill:#AE6219;"/>
  <path d="M1.207-19.125c0-0.56,0.949-0.652,0.938,0C2.135-18.534,1.207-18.545,1.207-19.125z" style="fill:#AE6219;"/>
  <path d="M1.77-17.75c0-0.56,0.949-0.652,0.938,0C2.697-17.159,1.77-17.17,1.77-17.75z" style="fill:#AE6219;"/>
  <path d="M2.457-16.375c0-0.56,0.949-0.652,0.938,0C3.385-15.784,2.457-15.795,2.457-16.375z" style="fill:#AE6219;"/>
  <path d="M3.549-15.062c0-0.561,0.949-0.652,0.938,0C4.477-14.472,3.549-14.482,3.549-15.062z" style="fill:#AE6219;"/>
  <path d="M4.674-14.125c0-0.561,0.949-0.652,0.938,0C5.602-13.534,4.674-13.545,4.674-14.125z" style="fill:#AE6219;"/>
  <path d="M6.361-12.938c0-0.561,0.949-0.652,0.938,0C7.289-12.347,6.361-12.357,6.361-12.938z" style="fill:#AE6219;"/>
  <path d="M5.332-0.625c0-0.561,0.949-0.652,0.938,0C6.26-0.034,5.332-0.045,5.332-0.625z" style="fill:#AE6219;"/>
  <path d="M4.486-1.75c0-0.56,0.949-0.652,0.938,0C5.414-1.159,4.486-1.17,4.486-1.75z" style="fill:#AE6219;"/>
  <path d="M7.207-0.5c0-0.561,0.949-0.652,0.938,0C8.135,0.091,7.207,0.08,7.207-0.5z" style="fill:#AE6219;"/>
  <path d="M23.611-33.885c0.04-0.559,0.992-0.584,0.936,0.066C24.495-33.23,23.571-33.306,23.611-33.885z" style="fill:#AE6219;"/>
  <path d="M24.945-32.552c0.039-0.559,0.991-0.584,0.935,0.065C25.828-31.897,24.904-31.973,24.945-32.552z" style="fill:#AE6219;"/>
  <path d="M38.674-28.813c0-0.561,0.949-0.652,0.938,0C39.602-28.222,38.674-28.232,38.674-28.813z" style="fill:#AE6219;"/>
  <path d="M38.332-27.125c0-0.561,0.949-0.652,0.938,0C39.26-26.535,38.332-26.544,38.332-27.125z" style="fill:#AE6219;"/>
  <path d="M38.332-25.688c0-0.56,0.949-0.652,0.938,0C39.26-25.097,38.332-25.107,38.332-25.688z" style="fill:#AE6219;"/>
  <path d="M38.332-23.875c0-0.56,0.949-0.652,0.938,0C39.26-23.284,38.332-23.295,38.332-23.875z" style="fill:#AE6219;"/>
  <path d="M38.645-22c0-0.56,0.949-0.652,0.938,0C39.572-21.409,38.645-21.42,38.645-22z" style="fill:#AE6219;"/>
  <path d="M39.111-20.188c0-0.56,0.949-0.652,0.938,0C40.039-19.597,39.111-19.607,39.111-20.188z" style="fill:#AE6219;"/>
  <path d="M39.02-17.062c0-0.56,0.949-0.652,0.938,0C39.947-16.472,39.02-16.482,39.02-17.062z" style="fill:#AE6219;"/>
  <path d="M38.27-18.875c0-0.56,0.949-0.652,0.938,0C39.197-18.284,38.27-18.295,38.27-18.875z" style="fill:#AE6219;"/>
  <path d="M37.645-20.875c0-0.56,0.949-0.652,0.938,0C38.572-20.284,37.645-20.295,37.645-20.875z" style="fill:#AE6219;"/>
  <path d="M37.145-22.938c0-0.56,0.949-0.652,0.938,0C38.072-22.347,37.145-22.357,37.145-22.938z" style="fill:#AE6219;"/>
  <path d="M36.895-24.938c0-0.56,0.949-0.652,0.938,0C37.822-24.347,36.895-24.357,36.895-24.938z" style="fill:#AE6219;"/>
  <path d="M37.02-26.875c0-0.561,0.949-0.652,0.938,0C37.947-26.284,37.02-26.295,37.02-26.875z" style="fill:#AE6219;"/>
  <path d="M37.236-28.625c0-0.561,0.949-0.652,0.938,0C38.164-28.035,37.236-28.044,37.236-28.625z" style="fill:#AE6219;"/>
  <path d="M33.951-30.292c0-0.561,0.948-0.652,0.938,0C34.878-29.701,33.951-29.711,33.951-30.292z" style="fill:#AE6219;"/>
  <path d="M32.764-29.313c0-0.561,0.948-0.652,0.938,0C33.69-28.722,32.764-28.732,32.764-29.313z" style="fill:#AE6219;"/>
  <path d="M32.889-27.625c0-0.561,0.948-0.652,0.938,0C33.815-27.035,32.889-27.044,32.889-27.625z" style="fill:#AE6219;"/>
  <path d="M32.326-25.875c0-0.561,0.948-0.652,0.938,0C33.253-25.284,32.326-25.295,32.326-25.875z" style="fill:#AE6219;"/>
  <path d="M32.514-23.625c0-0.56,0.948-0.652,0.938,0C33.44-23.034,32.514-23.045,32.514-23.625z" style="fill:#AE6219;"/>
  <path d="M29.034-22.542c0-0.561,0.949-0.652,0.938,0C29.962-21.951,29.034-21.961,29.034-22.542z" style="fill:#AE6219;"/>
  <path d="M30.701-22.959c0-0.561,0.948-0.652,0.938,0C31.628-22.368,30.701-22.378,30.701-22.959z" style="fill:#AE6219;"/>
  <path d="M32.764-21.812c0-0.56,0.948-0.652,0.938,0C33.69-21.222,32.764-21.232,32.764-21.812z" style="fill:#AE6219;"/>
  <path d="M31.611-20.959c0-0.561,0.949-0.652,0.938,0C32.539-20.368,31.611-20.378,31.611-20.959z" style="fill:#AE6219;"/>
  <path d="M29.951-20.792c0-0.561,0.948-0.652,0.938,0C30.878-20.201,29.951-20.211,29.951-20.792z" style="fill:#AE6219;"/>
  <path d="M28.618-20.625c0-0.56,0.948-0.652,0.938,0C29.545-20.034,28.618-20.045,28.618-20.625z" style="fill:#AE6219;"/>
  <path d="M28.528-18.875c0-0.56,0.948-0.652,0.938,0C29.455-18.284,28.528-18.295,28.528-18.875z" style="fill:#AE6219;"/>
  <path d="M30.361-19.042c0-0.561,0.949-0.652,0.938,0C31.289-18.451,30.361-18.461,30.361-19.042z" style="fill:#AE6219;"/>
  <path d="M31.944-19.542c0-0.561,0.949-0.652,0.938,0C32.872-18.951,31.944-18.961,31.944-19.542z" style="fill:#AE6219;"/>
  <path d="M31.701-17.959c0-0.561,0.948-0.652,0.937,0C32.628-17.368,31.701-17.378,31.701-17.959z" style="fill:#AE6219;"/>
  <path d="M30.784-16.625c0-0.56,0.949-0.652,0.938,0C31.712-16.034,30.784-16.045,30.784-16.625z" style="fill:#AE6219;"/>
  <path d="M29.861-17.792c0-0.561,0.949-0.652,0.938,0C30.789-17.201,29.861-17.211,29.861-17.792z" style="fill:#AE6219;"/>
  <path d="M28.194-17.375c0-0.56,0.949-0.652,0.938,0C29.122-16.784,28.194-16.795,28.194-17.375z" style="fill:#AE6219;"/>
  <path d="M29.278-15.959c0-0.561,0.948-0.652,0.938,0C30.205-15.368,29.278-15.378,29.278-15.959z" style="fill:#AE6219;"/>
  <path d="M27.861-15.625c0-0.56,0.949-0.652,0.938,0C28.789-15.034,27.861-15.045,27.861-15.625z" style="fill:#AE6219;"/>
  <path d="M33.076-20.188c0-0.56,0.948-0.652,0.938,0C34.003-19.597,33.076-19.607,33.076-20.188z" style="fill:#AE6219;"/>
  <path d="M33.451-18.5c0-0.56,0.948-0.652,0.938,0C34.378-17.909,33.451-17.92,33.451-18.5z" style="fill:#AE6219;"/>
  <path d="M36.139-29.875c0-0.561,0.948-0.652,0.938,0C37.065-29.285,36.139-29.294,36.139-29.875z" style="fill:#AE6219;"/>
  <path d="M35.576-28.5c0-0.561,0.948-0.652,0.938,0C36.503-27.91,35.576-27.919,35.576-28.5z" style="fill:#AE6219;"/>
  <path d="M35.576-26.813c0-0.561,0.948-0.652,0.938,0C36.503-26.222,35.576-26.232,35.576-26.813z" style="fill:#AE6219;"/>
  <path d="M35.576-25.188c0-0.56,0.948-0.652,0.938,0C36.503-24.597,35.576-24.607,35.576-25.188z" style="fill:#AE6219;"/>
  <path d="M35.826-23.375c0-0.56,0.948-0.652,0.938,0C36.753-22.784,35.826-22.795,35.826-23.375z" style="fill:#AE6219;"/>
  <path d="M36.076-21.688c0-0.56,0.948-0.652,0.938,0C37.003-21.097,36.076-21.107,36.076-21.688z" style="fill:#AE6219;"/>
  <path d="M36.639-19.875c0-0.56,0.948-0.652,0.938,0C37.565-19.284,36.639-19.295,36.639-19.875z" style="fill:#AE6219;"/>
  <path d="M37.139-18.125c0-0.56,0.948-0.652,0.938,0C38.065-17.534,37.139-17.545,37.139-18.125z" style="fill:#AE6219;"/>
  <path d="M38.014-16.25c0-0.56,0.948-0.652,0.938,0C38.94-15.659,38.014-15.67,38.014-16.25z" style="fill:#AE6219;"/>
  <path d="M38.889-14.625c0-0.561,0.948-0.652,0.938,0C39.815-14.034,38.889-14.045,38.889-14.625z" style="fill:#AE6219;"/>
  <path d="M34.139-28.938c0-0.561,0.948-0.652,0.938,0C35.065-28.347,34.139-28.357,34.139-28.938z" style="fill:#AE6219;"/>
  <path d="M34.201-27.313c0-0.561,0.948-0.652,0.938,0C35.128-26.722,34.201-26.732,34.201-27.313z" style="fill:#AE6219;"/>
  <path d="M33.951-25.875c0-0.561,0.948-0.652,0.938,0C34.878-25.284,33.951-25.295,33.951-25.875z" style="fill:#AE6219;"/>
  <path d="M34.014-24c0-0.56,0.948-0.652,0.938,0C34.94-23.409,34.014-23.42,34.014-24z" style="fill:#AE6219;"/>
  <path d="M34.326-22c0-0.56,0.948-0.652,0.938,0C35.253-21.409,34.326-21.42,34.326-22z" style="fill:#AE6219;"/>
  <path d="M34.889-20.188c0-0.56,0.948-0.652,0.938,0C35.815-19.597,34.889-19.607,34.889-20.188z" style="fill:#AE6219;"/>
  <path d="M35.389-18.438c0-0.56,0.948-0.652,0.938,0C36.315-17.847,35.389-17.857,35.389-18.438z" style="fill:#AE6219;"/>
  <path d="M36.014-16.75c0-0.56,0.948-0.652,0.938,0C36.94-16.159,36.014-16.17,36.014-16.75z" style="fill:#AE6219;"/>
  <path d="M36.701-15.125c0-0.561,0.948-0.652,0.938,0C37.628-14.534,36.701-14.545,36.701-15.125z" style="fill:#AE6219;"/>
  <path d="M37.701-13.562c0-0.561,0.948-0.652,0.938,0C38.628-12.972,37.701-12.982,37.701-13.562z" style="fill:#AE6219;"/>
  <path d="M37.826-11.062c0-0.561,0.948-0.652,0.938,0C38.753-10.472,37.826-10.482,37.826-11.062z" style="fill:#AE6219;"/>
  <path d="M20.368-33.625c0-0.561,0.948-0.652,0.938,0C21.295-33.035,20.368-33.045,20.368-33.625z" style="fill:#AE6219;"/>
  <path d="M12.701-37.125c0-0.561,0.948-0.652,0.938,0C13.628-36.535,12.701-36.545,12.701-37.125z" style="fill:#AE6219;"/>
  <path d="M16.951-35.188c0-0.561,0.948-0.652,0.938,0C17.878-34.597,16.951-34.607,16.951-35.188z" style="fill:#AE6219;"/>
  <path d="M14.028-36.709c0-0.56,0.948-0.652,0.938,0C14.955-36.118,14.028-36.128,14.028-36.709z" style="fill:#AE6219;"/>
  <path d="M18.694-36.125c0-0.561,0.949-0.652,0.938,0C19.622-35.535,18.694-35.545,18.694-36.125z" style="fill:#AE6219;"/>
  <path d="M14.576-39.438c0-0.561,0.948-0.652,0.938,0C15.503-38.847,14.576-38.857,14.576-39.438z" style="fill:#AE6219;"/>
  <path d="M21.618-31.875c0-0.561,0.948-0.652,0.938,0C22.545-31.285,21.618-31.295,21.618-31.875z" style="fill:#AE6219;"/>
  <path d="M20.284-35.292c0-0.561,0.949-0.652,0.938,0C21.212-34.701,20.284-34.711,20.284-35.292z" style="fill:#AE6219;"/>
  <path d="M22.028-35.042c0-0.561,0.948-0.652,0.938,0C22.955-34.451,22.028-34.461,22.028-35.042z" style="fill:#AE6219;"/>
  <path d="M19.049-39.375c0-0.561,0.949-0.652,0.938,0C19.977-38.785,19.049-38.795,19.049-39.375z" style="fill:#AE6219;"/>
  <path d="M20.389-38.813c0-0.561,0.948-0.652,0.938,0C21.315-38.222,20.389-38.232,20.389-38.813z" style="fill:#AE6219;"/>
  <path d="M21.576-37.875c0-0.561,0.948-0.652,0.938,0C22.503-37.285,21.576-37.295,21.576-37.875z" style="fill:#AE6219;"/>
  <path d="M22.778-36.625c0-0.561,0.948-0.652,0.938,0C23.705-36.035,22.778-36.045,22.778-36.625z" style="fill:#AE6219;"/>
  <path d="M23.611-35.625c0-0.561,0.949-0.652,0.938,0C24.539-35.035,23.611-35.045,23.611-35.625z" style="fill:#AE6219;"/>
  <path d="M24.861-34.709c0-0.56,0.949-0.652,0.938,0C25.789-34.118,24.861-34.128,24.861-34.709z" style="fill:#AE6219;"/>
  <path d="M25.986-33.875c0-0.561,0.949-0.652,0.938,0C26.914-33.285,25.986-33.295,25.986-33.875z" style="fill:#AE6219;"/>
  <path d="M27.111-33c0-0.561,0.949-0.652,0.938,0C28.039-32.41,27.111-32.42,27.111-33z" style="fill:#AE6219;"/>
  <path d="M28.549-32.313c0-0.561,0.949-0.652,0.938,0C29.477-31.722,28.549-31.732,28.549-32.313z" style="fill:#AE6219;"/>
  <path d="M29.784-31.375c0-0.561,0.949-0.652,0.938,0C30.712-30.785,29.784-30.794,29.784-31.375z" style="fill:#AE6219;"/>
  <path d="M30.451-32.709c0-0.56,0.948-0.652,0.938,0C31.378-32.118,30.451-32.128,30.451-32.709z" style="fill:#AE6219;"/>
  <path d="M31.368-33.875c0-0.561,0.948-0.652,0.937,0C32.295-33.285,31.368-33.295,31.368-33.875z" style="fill:#AE6219;"/>
  <path d="M28.201-30.563c0-0.561,0.948-0.652,0.938,0C29.128-29.972,28.201-29.982,28.201-30.563z" style="fill:#AE6219;"/>
  <path d="M26.701-29.563c0-0.561,0.948-0.652,0.938,0C27.628-28.972,26.701-28.982,26.701-29.563z" style="fill:#AE6219;"/>
  <path d="M25.701-28.5c0-0.561,0.948-0.652,0.938,0C26.628-27.91,25.701-27.919,25.701-28.5z" style="fill:#AE6219;"/>
  <path d="M12.299-39.063c0-0.561,0.949-0.652,0.938,0C13.227-38.472,12.299-38.482,12.299-39.063z" style="fill:#AE6219;"/>
  <path d="M11.361-37.75c0-0.561,0.949-0.652,0.938,0C12.289-37.16,11.361-37.17,11.361-37.75z" style="fill:#AE6219;"/>
  <path d="M10.424-36.25c0-0.561,0.949-0.652,0.938,0C11.352-35.66,10.424-35.67,10.424-36.25z" style="fill:#AE6219;"/>
  <path d="M9.391-34.938c0-0.561,0.948-0.652,0.938,0C10.317-34.347,9.391-34.357,9.391-34.938z" style="fill:#AE6219;"/>
  <path d="M8.611-33.625c0-0.561,0.949-0.652,0.938,0C9.539-33.035,8.611-33.045,8.611-33.625z" style="fill:#AE6219;"/>
  <path d="M7.953-32.25c0-0.561,0.948-0.652,0.938,0C8.88-31.66,7.953-31.67,7.953-32.25z" style="fill:#AE6219;"/>
  <path d="M9.326-31.563c0-0.561,0.948-0.652,0.938,0C10.253-30.972,9.326-30.982,9.326-31.563z" style="fill:#AE6219;"/>
  <path d="M8.951-29.959c0-0.56,0.948-0.652,0.938,0C9.878-29.368,8.951-29.378,8.951-29.959z" style="fill:#AE6219;"/>
  <path d="M12.326-30.875c0-0.561,0.948-0.652,0.938,0C13.253-30.285,12.326-30.294,12.326-30.875z" style="fill:#AE6219;"/>
  <path d="M10.714-30.896c0-0.56,0.948-0.652,0.938,0C11.641-30.305,10.714-30.315,10.714-30.896z" style="fill:#AE6219;"/>
  <path d="M17.694-29.792c0-0.561,0.949-0.652,0.938,0C18.622-29.201,17.694-29.211,17.694-29.792z" style="fill:#AE6219;"/>
  <path d="M16.118-29.375c0-0.561,0.948-0.652,0.938,0C17.045-28.785,16.118-28.794,16.118-29.375z" style="fill:#AE6219;"/>
  <path d="M14.722-30.063c0-0.561,0.949-0.652,0.938,0C15.649-29.472,14.722-29.482,14.722-30.063z" style="fill:#AE6219;"/>
  <path d="M13.111-29.459c0-0.56,0.949-0.652,0.938,0C14.039-28.868,13.111-28.878,13.111-29.459z" style="fill:#AE6219;"/>
  <path d="M11.618-29.125c0-0.561,0.948-0.652,0.938,0C12.545-28.535,11.618-28.544,11.618-29.125z" style="fill:#AE6219;"/>
  <path d="M9.951-29.209c0-0.56,0.948-0.652,0.938,0C10.878-28.618,9.951-28.628,9.951-29.209z" style="fill:#AE6219;"/>
  <path d="M7.611-30.688c0-0.561,0.949-0.652,0.938,0C8.539-30.097,7.611-30.107,7.611-30.688z" style="fill:#AE6219;"/>
  <path d="M7.736-28.938c0-0.561,0.949-0.652,0.938,0C8.664-28.347,7.736-28.357,7.736-28.938z" style="fill:#AE6219;"/>
  <path d="M8.799-27.875c0-0.561,0.949-0.652,0.938,0C9.727-27.285,8.799-27.294,8.799-27.875z" style="fill:#AE6219;"/>
  <path d="M10.174-27c0-0.561,0.949-0.652,0.938,0C11.102-26.41,10.174-26.419,10.174-27z" style="fill:#AE6219;"/>
  <path d="M11.611-27.792c0-0.561,0.949-0.652,0.938,0C12.539-27.201,11.611-27.211,11.611-27.792z" style="fill:#AE6219;"/>
  <path d="M13.194-27.625c0-0.561,0.949-0.652,0.938,0C14.122-27.035,13.194-27.044,13.194-27.625z" style="fill:#AE6219;"/>
  <path d="M14.944-28.542c0-0.561,0.949-0.652,0.938,0C15.872-27.951,14.944-27.961,14.944-28.542z" style="fill:#AE6219;"/>
  <path d="M24.284-27.292c0-0.561,0.949-0.652,0.938,0C25.212-26.701,24.284-26.711,24.284-27.292z" style="fill:#AE6219;"/>
  <path d="M23.068-28.042c0-0.561,0.948-0.652,0.938,0C23.995-27.451,23.068-27.461,23.068-28.042z" style="fill:#AE6219;"/>
  <path d="M21.611-28.375c0-0.561,0.949-0.652,0.938,0C22.539-27.785,21.611-27.794,21.611-28.375z" style="fill:#AE6219;"/>
  <path d="M19.701-28.375c0-0.561,0.948-0.652,0.938,0C20.628-27.785,19.701-27.794,19.701-28.375z" style="fill:#AE6219;"/>
  <path d="M18.201-28.125c0-0.561,0.948-0.652,0.938,0C19.128-27.535,18.201-27.544,18.201-28.125z" style="fill:#AE6219;"/>
  <path d="M16.924-27.938c0-0.561,0.949-0.652,0.938,0C17.852-27.347,16.924-27.357,16.924-27.938z" style="fill:#AE6219;"/>
  <path d="M15.534-27.209c0-0.56,0.949-0.652,0.938,0C16.462-26.618,15.534-26.628,15.534-27.209z" style="fill:#AE6219;"/>
  <path d="M14.361-26.542c0-0.561,0.949-0.652,0.938,0C15.289-25.951,14.361-25.961,14.361-26.542z" style="fill:#AE6219;"/>
  <path d="M13.034-25.542c0-0.561,0.949-0.652,0.938,0C13.962-24.951,13.034-24.961,13.034-25.542z" style="fill:#AE6219;"/>
  <path d="M11.674-25.812c0-0.561,0.949-0.652,0.938,0C12.602-25.222,11.674-25.232,11.674-25.812z" style="fill:#AE6219;"/>
  <path d="M26.444-31.542c0-0.561,0.949-0.652,0.938,0C27.372-30.951,26.444-30.961,26.444-31.542z" style="fill:#AE6219;"/>
  <path d="M21.868-33.542c0-0.561,0.948-0.652,0.938,0C22.795-32.951,21.868-32.961,21.868-33.542z" style="fill:#AE6219;"/>
  <path d="M25.118-30.542c0-0.561,0.948-0.652,0.938,0C26.045-29.951,25.118-29.961,25.118-30.542z" style="fill:#AE6219;"/>
  <path d="M23.528-31.709c0-0.56,0.948-0.652,0.938,0C24.455-31.118,23.528-31.128,23.528-31.709z" style="fill:#AE6219;"/>
  <path d="M18.528-34.625c0-0.561,0.948-0.652,0.938,0C19.455-34.035,18.528-34.045,18.528-34.625z" style="fill:#AE6219;"/>
  <path d="M15.201-34.729c0-0.561,0.948-0.652,0.938,0C16.128-34.139,15.201-34.149,15.201-34.729z" style="fill:#AE6219;"/>
  <path d="M13.576-35.188c0-0.561,0.948-0.652,0.938,0C14.503-34.597,13.576-34.607,13.576-35.188z" style="fill:#AE6219;"/>
  <path d="M17.139-36.813c0-0.561,0.948-0.652,0.938,0C18.065-36.222,17.139-36.232,17.139-36.813z" style="fill:#AE6219;"/>
  <path d="M10.606-39.375c0-0.561,0.948-0.652,0.938,0C11.532-38.785,10.606-38.795,10.606-39.375z" style="fill:#AE6219;"/>
  <path d="M9.701-38.125c0-0.561,0.948-0.652,0.938,0C10.628-37.535,9.701-37.545,9.701-38.125z" style="fill:#AE6219;"/>
  <path d="M15.514-36.5c0-0.561,0.948-0.652,0.938,0C16.44-35.91,15.514-35.92,15.514-36.5z" style="fill:#AE6219;"/>
  <path d="M21.028-36.542c0-0.561,0.948-0.652,0.938,0C21.955-35.951,21.028-35.961,21.028-36.542z" style="fill:#AE6219;"/>
  <path d="M19.542-37.521c0-0.56,0.949-0.652,0.938,0C20.47-36.93,19.542-36.94,19.542-37.521z" style="fill:#AE6219;"/>
  <path d="M8.326-39.063c0-0.561,0.948-0.652,0.938,0C9.253-38.472,8.326-38.482,8.326-39.063z" style="fill:#AE6219;"/>
  <path d="M7.701-37.688c0-0.561,0.948-0.652,0.937,0C8.628-37.097,7.701-37.107,7.701-37.688z" style="fill:#AE6219;"/>
  <path d="M6.736-39.125c0-0.561,0.949-0.652,0.938,0C7.664-38.535,6.736-38.545,6.736-39.125z" style="fill:#AE6219;"/>
  <path d="M6.326-37.563c0-0.561,0.948-0.652,0.938,0C7.253-36.972,6.326-36.982,6.326-37.563z" style="fill:#AE6219;"/>
  <path d="M8.576-36.438c0-0.561,0.948-0.652,0.938,0C9.503-35.847,8.576-35.857,8.576-36.438z" style="fill:#AE6219;"/>
  <path d="M7.576-34.625c0-0.561,0.948-0.652,0.937,0C8.503-34.035,7.576-34.045,7.576-34.625z" style="fill:#AE6219;"/>
  <path d="M6.705-33c0-0.561,0.949-0.652,0.938,0C7.633-32.41,6.705-32.42,6.705-33z" style="fill:#AE6219;"/>
  <path d="M6.201-30.875c0-0.561,0.948-0.652,0.938,0C7.128-30.285,6.201-30.294,6.201-30.875z" style="fill:#AE6219;"/>
  <path d="M6.014-28.938c0-0.561,0.948-0.652,0.938,0C6.94-28.347,6.014-28.357,6.014-28.938z" style="fill:#AE6219;"/>
  <path d="M7.528-27.292c0-0.561,0.948-0.652,0.938,0C8.455-26.701,7.528-26.711,7.528-27.292z" style="fill:#AE6219;"/>
  <path d="M6.047-27c0-0.561,0.949-0.652,0.938,0C6.975-26.41,6.047-26.419,6.047-27z" style="fill:#AE6219;"/>
  <path d="M8.618-26.125c0-0.561,0.948-0.652,0.938,0C9.545-25.534,8.618-25.545,8.618-26.125z" style="fill:#AE6219;"/>
  <path d="M7.451-24.959c0-0.561,0.948-0.652,0.937,0C8.378-24.368,7.451-24.378,7.451-24.959z" style="fill:#AE6219;"/>
  <path d="M5.944-24.125c0-0.56,0.949-0.652,0.938,0C6.872-23.534,5.944-23.545,5.944-24.125z" style="fill:#AE6219;"/>
  <path d="M7.319-23.5c0-0.56,0.949-0.652,0.937,0C8.247-22.909,7.319-22.92,7.319-23.5z" style="fill:#AE6219;"/>
  <path d="M6.736-22c0-0.56,0.949-0.652,0.938,0C7.664-21.409,6.736-21.42,6.736-22z" style="fill:#AE6219;"/>
  <path d="M5.111-22.5c0-0.56,0.949-0.652,0.938,0C6.039-21.909,5.111-21.92,5.111-22.5z" style="fill:#AE6219;"/>
  <path d="M3.361-22.812c0-0.56,0.949-0.652,0.938,0C4.289-22.222,3.361-22.232,3.361-22.812z" style="fill:#AE6219;"/>
  <path d="M3.861-21.188c0-0.56,0.949-0.652,0.938,0C4.789-20.597,3.861-20.607,3.861-21.188z" style="fill:#AE6219;"/>
  <path d="M5.424-20.938c0-0.56,0.949-0.652,0.938,0C6.352-20.347,5.424-20.357,5.424-20.938z" style="fill:#AE6219;"/>
  <path d="M6.111-19.5c0-0.56,0.949-0.652,0.938,0C7.039-18.909,6.111-18.92,6.111-19.5z" style="fill:#AE6219;"/>
  <path d="M4.361-19.562c0-0.56,0.949-0.652,0.938,0C5.289-18.972,4.361-18.982,4.361-19.562z" style="fill:#AE6219;"/>
  <path d="M5.424-17.812c0-0.56,0.949-0.652,0.938,0C6.352-17.222,5.424-17.232,5.424-17.812z" style="fill:#AE6219;"/>
  <path d="M7.861-13.25c0-0.561,0.949-0.652,0.938,0C8.789-12.659,7.861-12.67,7.861-13.25z" style="fill:#AE6219;"/>
  <path d="M8.139-11.688c0-0.561,0.948-0.652,0.938,0C9.065-11.097,8.139-11.107,8.139-11.688z" style="fill:#AE6219;"/>
  <path d="M9.576-11.688c0-0.561,0.948-0.652,0.938,0C10.503-11.097,9.576-11.107,9.576-11.688z" style="fill:#AE6219;"/>
  <path d="M10.951-12.875c0-0.561,0.948-0.652,0.938,0C11.878-12.284,10.951-12.295,10.951-12.875z" style="fill:#AE6219;"/>
  <path d="M12.201-14c0-0.561,0.948-0.652,0.938,0C13.128-13.409,12.201-13.42,12.201-14z" style="fill:#AE6219;"/>
  <path d="M13.326-15c0-0.561,0.948-0.652,0.938,0C14.253-14.409,13.326-14.42,13.326-15z" style="fill:#AE6219;"/>
  <path d="M14.514-16c0-0.56,0.948-0.652,0.938,0C15.44-15.409,14.514-15.42,14.514-16z" style="fill:#AE6219;"/>
  <path d="M15.764-17.188c0-0.56,0.948-0.652,0.938,0C16.69-16.597,15.764-16.607,15.764-17.188z" style="fill:#AE6219;"/>
  <path d="M16.826-18.375c0-0.56,0.948-0.652,0.938,0C17.753-17.784,16.826-17.795,16.826-18.375z" style="fill:#AE6219;"/>
  <path d="M18.014-19.375c0-0.56,0.948-0.652,0.938,0C18.94-18.784,18.014-18.795,18.014-19.375z" style="fill:#AE6219;"/>
  <path d="M19.514-19.938c0-0.56,0.948-0.652,0.938,0C20.44-19.347,19.514-19.357,19.514-19.938z" style="fill:#AE6219;"/>
  <path d="M21.201-19.812c0-0.56,0.948-0.652,0.938,0C22.128-19.222,21.201-19.232,21.201-19.812z" style="fill:#AE6219;"/>
  <path d="M20.076-18.062c0-0.56,0.948-0.652,0.938,0C21.003-17.472,20.076-17.482,20.076-18.062z" style="fill:#AE6219;"/>
  <path d="M18.639-17.438c0-0.56,0.948-0.652,0.938,0C19.565-16.847,18.639-16.857,18.639-17.438z" style="fill:#AE6219;"/>
  <path d="M17.326-16.625c0-0.56,0.948-0.652,0.938,0C18.253-16.034,17.326-16.045,17.326-16.625z" style="fill:#AE6219;"/>
  <path d="M8.944-24.292c0-0.561,0.949-0.652,0.938,0C9.872-23.701,8.944-23.711,8.944-24.292z" style="fill:#AE6219;"/>
  <path d="M11.861-24.438c0-0.56,0.949-0.652,0.938,0C12.789-23.847,11.861-23.857,11.861-24.438z" style="fill:#AE6219;"/>
  <path d="M10.486-23.562c0-0.56,0.949-0.652,0.938,0C11.414-22.972,10.486-22.982,10.486-23.562z" style="fill:#AE6219;"/>
  <path d="M9.986-21.688c0-0.56,0.949-0.652,0.938,0C10.914-21.097,9.986-21.107,9.986-21.688z" style="fill:#AE6219;"/>
  <path d="M9.611-20.25c0-0.56,0.949-0.652,0.938,0C10.539-19.659,9.611-19.67,9.611-20.25z" style="fill:#AE6219;"/>
  <path d="M8.486-18.875c0-0.56,0.949-0.652,0.938,0C9.414-18.284,8.486-18.295,8.486-18.875z" style="fill:#AE6219;"/>
  <path d="M8.111-16.875c0-0.56,0.949-0.652,0.938,0C9.039-16.284,8.111-16.295,8.111-16.875z" style="fill:#AE6219;"/>
  <path d="M9.424-17.625c0-0.56,0.949-0.652,0.938,0C10.352-17.034,9.424-17.045,9.424-17.625z" style="fill:#AE6219;"/>
  <path d="M10.424-18.875c0-0.56,0.949-0.652,0.938,0C11.352-18.284,10.424-18.295,10.424-18.875z" style="fill:#AE6219;"/>
  <path d="M11.111-20.188c0-0.56,0.949-0.652,0.938,0C12.039-19.597,11.111-19.607,11.111-20.188z" style="fill:#AE6219;"/>
  <path d="M12.799-20.875c0-0.56,0.949-0.652,0.938,0C13.727-20.284,12.799-20.295,12.799-20.875z" style="fill:#AE6219;"/>
  <path d="M14.264-21.625c0-0.56,0.948-0.652,0.938,0C15.19-21.034,14.264-21.045,14.264-21.625z" style="fill:#AE6219;"/>
  <path d="M15.076-23.188c0-0.56,0.948-0.652,0.938,0C16.003-22.597,15.076-22.607,15.076-23.188z" style="fill:#AE6219;"/>
  <path d="M16.264-24.438c0-0.56,0.948-0.652,0.938,0C17.19-23.847,16.264-23.857,16.264-24.438z" style="fill:#AE6219;"/>
  <path d="M21.951-24.75c0-0.56,0.948-0.652,0.938,0C22.878-24.159,21.951-24.17,21.951-24.75z" style="fill:#AE6219;"/>
  <path d="M20.368-24.959c0-0.561,0.948-0.652,0.938,0C21.295-24.368,20.368-24.378,20.368-24.959z" style="fill:#AE6219;"/>
  <path d="M21.639-22.938c0-0.56,0.948-0.652,0.938,0C22.565-22.347,21.639-22.357,21.639-22.938z" style="fill:#AE6219;"/>
  <path d="M19.111-24.459c0-0.561,0.949-0.651,0.938,0C20.039-23.868,19.111-23.878,19.111-24.459z" style="fill:#AE6219;"/>
  <path d="M19.951-23.125c0-0.56,0.948-0.652,0.938,0C20.878-22.534,19.951-22.545,19.951-23.125z" style="fill:#AE6219;"/>
  <path d="M20.764-21.688c0-0.56,0.948-0.652,0.938,0C21.69-21.097,20.764-21.107,20.764-21.688z" style="fill:#AE6219;"/>
  <path d="M19.076-21.5c0-0.56,0.948-0.652,0.938,0C20.003-20.909,19.076-20.92,19.076-21.5z" style="fill:#AE6219;"/>
  <path d="M17.576-20.938c0-0.56,0.948-0.652,0.938,0C18.503-20.347,17.576-20.357,17.576-20.938z" style="fill:#AE6219;"/>
  <path d="M16.264-20c0-0.56,0.948-0.652,0.938,0C17.19-19.409,16.264-19.42,16.264-20z" style="fill:#AE6219;"/>
  <path d="M15.139-19c0-0.56,0.948-0.652,0.938,0C16.065-18.409,15.139-18.42,15.139-19z" style="fill:#AE6219;"/>
  <path d="M14.076-17.875c0-0.56,0.948-0.652,0.938,0C15.003-17.284,14.076-17.295,14.076-17.875z" style="fill:#AE6219;"/>
  <path d="M13.076-16.688c0-0.56,0.948-0.652,0.938,0C14.003-16.097,13.076-16.107,13.076-16.688z" style="fill:#AE6219;"/>
  <path d="M11.701-15.75c0-0.56,0.948-0.652,0.938,0C12.628-15.159,11.701-15.17,11.701-15.75z" style="fill:#AE6219;"/>
  <path d="M10.701-14.438c0-0.561,0.948-0.652,0.938,0C11.628-13.847,10.701-13.857,10.701-14.438z" style="fill:#AE6219;"/>
  <path d="M9.326-13.562c0-0.561,0.948-0.652,0.938,0C10.253-12.972,9.326-12.982,9.326-13.562z" style="fill:#AE6219;"/>
  <path d="M8.201-15c0-0.561,0.948-0.652,0.938,0C9.128-14.409,8.201-14.42,8.201-15z" style="fill:#AE6219;"/>
  <path d="M9.576-15.688c0-0.56,0.948-0.652,0.938,0C10.503-15.097,9.576-15.107,9.576-15.688z" style="fill:#AE6219;"/>
  <path d="M10.701-16.75c0-0.56,0.948-0.652,0.938,0C11.628-16.159,10.701-16.17,10.701-16.75z" style="fill:#AE6219;"/>
  <path d="M11.764-18c0-0.56,0.948-0.652,0.938,0C12.69-17.409,11.764-17.42,11.764-18z" style="fill:#AE6219;"/>
  <path d="M12.701-19.062c0-0.56,0.948-0.652,0.938,0C13.628-18.472,12.701-18.482,12.701-19.062z" style="fill:#AE6219;"/>
  <path d="M14.076-20.062c0-0.56,0.948-0.652,0.938,0C15.003-19.472,14.076-19.482,14.076-20.062z" style="fill:#AE6219;"/>
  <path d="M15.764-21.188c0-0.56,0.948-0.652,0.938,0C16.69-20.597,15.764-20.607,15.764-21.188z" style="fill:#AE6219;"/>
  <path d="M18.264-22.875c0-0.56,0.948-0.652,0.938,0C19.19-22.284,18.264-22.295,18.264-22.875z" style="fill:#AE6219;"/>
  <path d="M16.639-22.75c0-0.56,0.948-0.652,0.938,0C17.565-22.159,16.639-22.17,16.639-22.75z" style="fill:#AE6219;"/>
  <path d="M17.734-24.188c0-0.56,0.949-0.652,0.938,0C18.662-23.597,17.734-23.607,17.734-24.188z" style="fill:#AE6219;"/>
  <path d="M12.861-22.75c0-0.56,0.949-0.652,0.938,0C13.789-22.159,12.861-22.17,12.861-22.75z" style="fill:#AE6219;"/>
  <path d="M13.924-24.062c0-0.56,0.949-0.652,0.938,0C14.852-23.472,13.924-23.482,13.924-24.062z" style="fill:#AE6219;"/>
  <path d="M15.139-25.25c0-0.56,0.948-0.652,0.938,0C16.065-24.659,15.139-24.67,15.139-25.25z" style="fill:#AE6219;"/>
  <path d="M11.486-22.125c0-0.56,0.949-0.652,0.938,0C12.414-21.534,11.486-21.545,11.486-22.125z" style="fill:#AE6219;"/>
  <path d="M8.611-22.792c0-0.561,0.949-0.652,0.938,0C9.539-22.201,8.611-22.211,8.611-22.792z" style="fill:#AE6219;"/>
  <path d="M8.034-21.375c0-0.56,0.949-0.652,0.938,0C8.962-20.784,8.034-20.795,8.034-21.375z" style="fill:#AE6219;"/>
  <path d="M7.444-20.125c0-0.56,0.949-0.652,0.937,0C8.372-19.534,7.444-19.545,7.444-20.125z" style="fill:#AE6219;"/>
  <path d="M7.028-18.292c0-0.561,0.948-0.652,0.938,0C7.955-17.701,7.028-17.711,7.028-18.292z" style="fill:#AE6219;"/>
  <path d="M6.528-16.625c0-0.56,0.948-0.652,0.938,0C7.455-16.034,6.528-16.045,6.528-16.625z" style="fill:#AE6219;"/>
  <path d="M6.444-15.042c0-0.561,0.949-0.652,0.938,0C7.372-14.451,6.444-14.461,6.444-15.042z" style="fill:#AE6219;"/>
  <path d="M10.174-25.188c0-0.56,0.949-0.652,0.938,0C11.102-24.597,10.174-24.607,10.174-25.188z" style="fill:#AE6219;"/>
  <path d="M6.832-1.812c0-0.56,0.949-0.652,0.938,0C7.76-1.222,6.832-1.232,6.832-1.812z" style="fill:#AE6219;"/>
  <path d="M9.082-2.812c0-0.56,0.949-0.652,0.938,0C10.01-2.222,9.082-2.232,9.082-2.812z" style="fill:#AE6219;"/>
  <path d="M11.644-3.812c0-0.561,0.949-0.652,0.938,0C12.572-3.222,11.644-3.232,11.644-3.812z" style="fill:#AE6219;"/>
  <path d="M10.207-4.125c0-0.561,0.949-0.652,0.938,0C11.135-3.534,10.207-3.545,10.207-4.125z" style="fill:#AE6219;"/>
  <path d="M8.707-4.438c0-0.561,0.949-0.652,0.938,0C9.635-3.847,8.707-3.857,8.707-4.438z" style="fill:#AE6219;"/>
  <path d="M7.394-3.375c0-0.56,0.949-0.652,0.938,0C8.322-2.784,7.394-2.795,7.394-3.375z" style="fill:#AE6219;"/>
  <path d="M5.769-2.625c0-0.56,0.949-0.652,0.938,0C6.697-2.034,5.769-2.045,5.769-2.625z" style="fill:#AE6219;"/>
  <path d="M13.082-4.188c0-0.561,0.949-0.652,0.938,0C14.01-3.597,13.082-3.607,13.082-4.188z" style="fill:#AE6219;"/>
  <path d="M14.019-5.25c0-0.561,0.949-0.652,0.938,0C14.947-4.659,14.019-4.67,14.019-5.25z" style="fill:#AE6219;"/>
  <path d="M15.299-6.125c0-0.561,0.949-0.652,0.937,0C16.227-5.534,15.299-5.545,15.299-6.125z" style="fill:#AE6219;"/>
  <path d="M16.674-7.188c0-0.561,0.949-0.652,0.938,0C17.602-6.597,16.674-6.607,16.674-7.188z" style="fill:#AE6219;"/>
  <path d="M17.764-7.938c0-0.561,0.948-0.652,0.938,0C18.69-7.347,17.764-7.357,17.764-7.938z" style="fill:#AE6219;"/>
  <path d="M7.207-0.5c0-0.561,0.949-0.652,0.938,0C8.135,0.091,7.207,0.08,7.207-0.5z" style="fill:#AE6219;"/>
  <path d="M20.918-0.467c0-0.561,0.948-0.652,0.938,0C21.845,0.124,20.918,0.114,20.918-0.467z" style="fill:#AE6219;"/>
  <path d="M18.736-2.688c0-0.56,0.949-0.652,0.938,0C19.664-2.097,18.736-2.107,18.736-2.688z" style="fill:#AE6219;"/>
  <path d="M23.387-0.529c0-0.561,0.949-0.652,0.938,0C24.315,0.062,23.387,0.052,23.387-0.529z" style="fill:#AE6219;"/>
  <path d="M19.764-1.438c0-0.561,0.948-0.652,0.938,0C20.69-0.847,19.764-0.857,19.764-1.438z" style="fill:#AE6219;"/>
  <path d="M17.826-3.812c0-0.561,0.948-0.652,0.938,0C18.753-3.222,17.826-3.232,17.826-3.812z" style="fill:#AE6219;"/>
  <path d="M16.326-3.125c0-0.56,0.948-0.652,0.938,0C17.253-2.534,16.326-2.545,16.326-3.125z" style="fill:#AE6219;"/>
  <path d="M14.451-3.062c0-0.56,0.948-0.652,0.938,0C15.378-2.472,14.451-2.482,14.451-3.062z" style="fill:#AE6219;"/>
  <path d="M12.736-2.312c0-0.56,0.949-0.652,0.938,0C13.664-1.722,12.736-1.732,12.736-2.312z" style="fill:#AE6219;"/>
  <path d="M11.639-0.938c0-0.561,0.948-0.652,0.938,0C12.565-0.347,11.639-0.357,11.639-0.938z" style="fill:#AE6219;"/>
  <path d="M10.889-2.375c0-0.56,0.948-0.652,0.938,0C11.815-1.784,10.889-1.795,10.889-2.375z" style="fill:#AE6219;"/>
  <path d="M8.576-1.562c0-0.56,0.948-0.652,0.938,0C9.503-0.972,8.576-0.982,8.576-1.562z" style="fill:#AE6219;"/>
  <path d="M9.709-0.479c0-0.56,0.948-0.651,0.938,0C10.636,0.112,9.709,0.102,9.709-0.479z" style="fill:#AE6219;"/>
  <path d="M31.326-0.625c0-0.561,0.948-0.652,0.937,0C32.253-0.034,31.326-0.045,31.326-0.625z" style="fill:#AE6219;"/>
  <path d="M30.986-2.938c0-0.56,0.949-0.652,0.938,0C31.914-2.347,30.986-2.357,30.986-2.938z" style="fill:#AE6219;"/>
  <path d="M30.201-1.625c0-0.56,0.948-0.652,0.938,0C31.128-1.034,30.201-1.045,30.201-1.625z" style="fill:#AE6219;"/>
  <path d="M29.701-4.188c0-0.561,0.948-0.652,0.938,0C30.628-3.597,29.701-3.607,29.701-4.188z" style="fill:#AE6219;"/>
  <path d="M28.764-5.375c0-0.561,0.948-0.652,0.938,0C29.69-4.784,28.764-4.795,28.764-5.375z" style="fill:#AE6219;"/>
  <path d="M28.611-0.75c0-0.561,0.949-0.652,0.938,0C29.539-0.159,28.611-0.17,28.611-0.75z" style="fill:#AE6219;"/>
  <path d="M34.034-12.625c0-0.561,0.949-0.652,0.938,0C34.962-12.034,34.034-12.045,34.034-12.625z" style="fill:#AE6219;"/>
  <path d="M32.118-13.542c0-0.561,0.948-0.652,0.938,0C33.045-12.951,32.118-12.961,32.118-13.542z" style="fill:#AE6219;"/>
  <path d="M30.784-12.959c0-0.561,0.949-0.652,0.938,0C31.712-12.368,30.784-12.378,30.784-12.959z" style="fill:#AE6219;"/>
  <path d="M27.951-11.792c0-0.561,0.948-0.652,0.938,0C28.878-11.201,27.951-11.211,27.951-11.792z" style="fill:#AE6219;"/>
  <path d="M29.034-12.625c0-0.561,0.949-0.652,0.938,0C29.962-12.034,29.034-12.045,29.034-12.625z" style="fill:#AE6219;"/>
  <path d="M26.951-10.375c0-0.561,0.948-0.652,0.938,0C27.878-9.784,26.951-9.795,26.951-10.375z" style="fill:#AE6219;"/>
  <path d="M32.076-8.5c0-0.561,0.948-0.652,0.938,0C33.003-7.909,32.076-7.92,32.076-8.5z" style="fill:#AE6219;"/>
  <path d="M33.549-10.875c0-0.561,0.949-0.652,0.938,0C34.477-10.284,33.549-10.295,33.549-10.875z" style="fill:#AE6219;"/>
  <path d="M31.764-10.125c0-0.561,0.948-0.652,0.937,0C32.69-9.534,31.764-9.545,31.764-10.125z" style="fill:#AE6219;"/>
  <path d="M30.264-9.375c0-0.561,0.948-0.652,0.938,0C31.19-8.784,30.264-8.795,30.264-9.375z" style="fill:#AE6219;"/>
  <path d="M29.076-10.562c0-0.561,0.948-0.652,0.938,0C30.003-9.972,29.076-9.982,29.076-10.562z" style="fill:#AE6219;"/>
  <path d="M27.924-9.562c0-0.561,0.949-0.652,0.938,0C28.852-8.972,27.924-8.982,27.924-9.562z" style="fill:#AE6219;"/>
  <path d="M30.459-11.375c0-0.561,0.948-0.652,0.938,0C31.387-10.784,30.459-10.795,30.459-11.375z" style="fill:#AE6219;"/>
  <path d="M32.201-11.812c0-0.561,0.948-0.652,0.938,0C33.128-11.222,32.201-11.232,32.201-11.812z" style="fill:#AE6219;"/>
  <path d="M30.368-14.875c0-0.561,0.948-0.652,0.938,0C31.295-14.284,30.368-14.295,30.368-14.875z" style="fill:#AE6219;"/>
  <path d="M29.278-14.375c0-0.561,0.948-0.652,0.938,0C30.205-13.784,29.278-13.795,29.278-14.375z" style="fill:#AE6219;"/>
  <path d="M27.611-14.042c0-0.561,0.949-0.652,0.938,0C28.539-13.451,27.611-13.461,27.611-14.042z" style="fill:#AE6219;"/>
  <path d="M26.534-12.875c0-0.561,0.949-0.652,0.938,0C27.462-12.284,26.534-12.295,26.534-12.875z" style="fill:#AE6219;"/>
  <path d="M25.951-11.625c0-0.561,0.948-0.652,0.938,0C26.878-11.034,25.951-11.045,25.951-11.625z" style="fill:#AE6219;"/>
  <path d="M25.201-10.125c0-0.561,0.948-0.652,0.938,0C26.128-9.534,25.201-9.545,25.201-10.125z" style="fill:#AE6219;"/>
  <path d="M35.694-13.709c0-0.561,0.949-0.651,0.938,0C36.622-13.118,35.694-13.128,35.694-13.709z" style="fill:#AE6219;"/>
  <path d="M33.784-14.375c0-0.561,0.949-0.652,0.938,0C34.712-13.784,33.784-13.795,33.784-14.375z" style="fill:#AE6219;"/>
  <path d="M32.194-15.459c0-0.561,0.949-0.651,0.938,0C33.122-14.868,32.194-14.878,32.194-15.459z" style="fill:#AE6219;"/>
  <path d="M33.111-16.875c0-0.56,0.949-0.652,0.938,0C34.039-16.284,33.111-16.295,33.111-16.875z" style="fill:#AE6219;"/>
  <path d="M34.778-17.292c0-0.561,0.948-0.652,0.938,0C35.705-16.701,34.778-16.711,34.778-17.292z" style="fill:#AE6219;"/>
  <path d="M34.611-15.875c0-0.56,0.949-0.652,0.938,0C35.539-15.284,34.611-15.295,34.611-15.875z" style="fill:#AE6219;"/>
  <path d="M36.966-12.229c0-0.561,0.948-0.652,0.938,0C37.893-11.639,36.966-11.648,36.966-12.229z" style="fill:#AE6219;"/>
  <path d="M38.889-12c0-0.561,0.948-0.652,0.938,0C39.815-11.409,38.889-11.42,38.889-12z" style="fill:#AE6219;"/>
  <path d="M35.076-11.062c0-0.561,0.948-0.652,0.938,0C36.003-10.472,35.076-10.482,35.076-11.062z" style="fill:#AE6219;"/>
  <path d="M35.618-12.292c0-0.561,0.948-0.652,0.938,0C36.545-11.701,35.618-11.711,35.618-12.292z" style="fill:#AE6219;"/>
  <path d="M36.618-10.312c0-0.561,0.948-0.652,0.938,0C37.545-9.722,36.618-9.732,36.618-10.312z" style="fill:#AE6219;"/>
  <path d="M33.576-9.125c0-0.561,0.948-0.652,0.938,0C34.503-8.534,33.576-8.545,33.576-9.125z" style="fill:#AE6219;"/>
  <path d="M32.139-3.938c0-0.561,0.948-0.652,0.938,0C33.065-3.347,32.139-3.357,32.139-3.938z" style="fill:#AE6219;"/>
  <path d="M31.076-5.125c0-0.561,0.948-0.652,0.937,0C32.003-4.534,31.076-4.545,31.076-5.125z" style="fill:#AE6219;"/>
  <path d="M35.236-9.562c0-0.561,0.949-0.652,0.938,0C36.164-8.972,35.236-8.982,35.236-9.562z" style="fill:#AE6219;"/>
  <path d="M27.111-2.125c0-0.56,0.949-0.652,0.938,0C28.039-1.534,27.111-1.545,27.111-2.125z" style="fill:#AE6219;"/>
  <path d="M34.389-7.625c0-0.561,0.948-0.652,0.938,0C35.315-7.034,34.389-7.045,34.389-7.625z" style="fill:#AE6219;"/>
  <path d="M32.618-7.042c0-0.561,0.948-0.652,0.938,0C33.545-6.451,32.618-6.461,32.618-7.042z" style="fill:#AE6219;"/>
  <path d="M15.889-0.562c0-0.561,0.948-0.652,0.938,0C16.815,0.028,15.889,0.018,15.889-0.562z" style="fill:#AE6219;"/>
  <path d="M13.453-0.467c0-0.561,0.948-0.652,0.938,0C14.38,0.124,13.453,0.114,13.453-0.467z" style="fill:#AE6219;"/>
  <path d="M15.014-1.562c0-0.56,0.948-0.652,0.938,0C15.94-0.972,15.014-0.982,15.014-1.562z" style="fill:#AE6219;"/>
  <path d="M16.826-1.75c0-0.56,0.948-0.652,0.938,0C17.753-1.159,16.826-1.17,16.826-1.75z" style="fill:#AE6219;"/>
  <path d="M18.201-0.812c0-0.561,0.948-0.652,0.938,0C19.128-0.222,18.201-0.232,18.201-0.812z" style="fill:#AE6219;"/>
  <path d="M28.861-2.75c0-0.56,0.949-0.652,0.938,0C29.789-2.159,28.861-2.17,28.861-2.75z" style="fill:#AE6219;"/>
  <path d="M25.986-0.635c0.04-0.56,0.992-0.584,0.936,0.066C26.87,0.02,25.946-0.056,25.986-0.635z" style="fill:#AE6219;"/>
  <path d="M24.861-1.961c0.04-0.559,0.992-0.583,0.936,0.066C25.745-1.306,24.821-1.381,24.861-1.961z" style="fill:#AE6219;"/>
  <path d="M25.014-6c0-0.561,0.948-0.652,0.938,0C25.94-5.409,25.014-5.42,25.014-6z" style="fill:#AE6219;"/>
  <path d="M24.047-3.717c0-0.56,0.949-0.652,0.938,0C24.975-3.126,24.047-3.136,24.047-3.717z" style="fill:#AE6219;"/>
  <path d="M27.793-3.938c0-0.561,0.948-0.652,0.938,0C28.72-3.347,27.793-3.357,27.793-3.938z" style="fill:#AE6219;"/>
  <path d="M39.02-36.625c0-0.561,0.949-0.652,0.938,0C39.947-36.035,39.02-36.045,39.02-36.625z" style="fill:#AE6219;"/>
  <path d="M35.014-37.938c0-0.561,0.948-0.652,0.938,0C35.94-37.347,35.014-37.357,35.014-37.938z" style="fill:#AE6219;"/>
  <path d="M37.264-36.563c0-0.561,0.948-0.652,0.938,0C38.19-35.972,37.264-35.982,37.264-36.563z" style="fill:#AE6219;"/>
  <path d="M37.076-37.813c0-0.561,0.948-0.652,0.938,0C38.003-37.222,37.076-37.232,37.076-37.813z" style="fill:#AE6219;"/>
  <path d="M34.453-35.057c0.039-0.559,0.992-0.583,0.936,0.066C35.337-34.402,34.412-34.477,34.453-35.057z" style="fill:#AE6219;"/>
  <path d="M35.328-36.557c0.039-0.559,0.992-0.583,0.936,0.066C36.212-35.902,35.287-35.977,35.328-36.557z" style="fill:#AE6219;"/>
  <path d="M29.736-38.26c0.04-0.559,0.992-0.584,0.936,0.066C30.62-37.605,29.696-37.681,29.736-38.26z" style="fill:#AE6219;"/>
  <path d="M33.453-36.432c0.039-0.559,0.992-0.583,0.936,0.066C34.337-35.777,33.412-35.852,33.453-36.432z" style="fill:#AE6219;"/>
  <path d="M39.082-30.563c0-0.561,0.949-0.652,0.938,0C40.01-29.972,39.082-29.982,39.082-30.563z" style="fill:#AE6219;"/>
  <path d="M37.424-30.813c0-0.561,0.949-0.652,0.938,0C38.352-30.222,37.424-30.232,37.424-30.813z" style="fill:#AE6219;"/>
  <path d="M38.299-32.125c0-0.561,0.949-0.652,0.938,0C39.227-31.535,38.299-31.545,38.299-32.125z" style="fill:#AE6219;"/>
  <path d="M38.674-33.813c0-0.561,0.949-0.652,0.938,0C39.602-33.222,38.674-33.232,38.674-33.813z" style="fill:#AE6219;"/>
  <path d="M34.764-32.688c0-0.561,0.948-0.652,0.938,0C35.69-32.097,34.764-32.107,34.764-32.688z" style="fill:#AE6219;"/>
  <path d="M36.639-32.25c0-0.561,0.948-0.652,0.938,0C37.565-31.66,36.639-31.67,36.639-32.25z" style="fill:#AE6219;"/>
  <path d="M37.076-33.875c0-0.561,0.948-0.652,0.938,0C38.003-33.285,37.076-33.295,37.076-33.875z" style="fill:#AE6219;"/>
  <path d="M36.299-35.063c0-0.561,0.949-0.652,0.938,0C37.227-34.472,36.299-34.482,36.299-35.063z" style="fill:#AE6219;"/>
  <path d="M35.389-31.25c0-0.561,0.948-0.652,0.938,0C36.315-30.66,35.389-30.669,35.389-31.25z" style="fill:#AE6219;"/>
  <path d="M38.895-38.438c0-0.561,0.949-0.652,0.938,0C39.822-37.847,38.895-37.857,38.895-38.438z" style="fill:#AE6219;"/>
  <path d="M37.174-39.188c0-0.561,0.949-0.652,0.938,0C38.102-38.597,37.174-38.607,37.174-39.188z" style="fill:#AE6219;"/>
  <path d="M35.201-39.375c0-0.561,0.948-0.652,0.938,0C36.128-38.785,35.201-38.795,35.201-39.375z" style="fill:#AE6219;"/>
  <path d="M33.111-39.25c0-0.561,0.949-0.652,0.938,0C34.039-38.66,33.111-38.67,33.111-39.25z" style="fill:#AE6219;"/>
  <path d="M37.924-35.217c0-0.561,0.949-0.652,0.938,0C38.852-34.626,37.924-34.636,37.924-35.217z" style="fill:#AE6219;"/>
  <path d="M35.326-33.875c0-0.561,0.948-0.652,0.938,0C36.253-33.285,35.326-33.295,35.326-33.875z" style="fill:#AE6219;"/>
  <path d="M31.861-35.938c0-0.561,0.949-0.652,0.938,0C32.789-35.347,31.861-35.357,31.861-35.938z" style="fill:#AE6219;"/>
  <path d="M33.52-33.438c0-0.561,0.949-0.652,0.938,0C34.447-32.847,33.52-32.857,33.52-33.438z" style="fill:#AE6219;"/>
  <path d="M32.701-34.542c0-0.561,0.948-0.652,0.938,0C33.628-33.951,32.701-33.961,32.701-34.542z" style="fill:#AE6219;"/>
  <path d="M32.034-31.959c0-0.56,0.949-0.652,0.938,0C32.962-31.368,32.034-31.378,32.034-31.959z" style="fill:#AE6219;"/>
  <path d="M29.284-33.625c0-0.561,0.949-0.652,0.938,0C30.212-33.035,29.284-33.045,29.284-33.625z" style="fill:#AE6219;"/>
  <path d="M27.951-34.459c0-0.56,0.948-0.652,0.938,0C28.878-33.868,27.951-33.878,27.951-34.459z" style="fill:#AE6219;"/>
  <path d="M26.451-35.459c0-0.56,0.948-0.652,0.938,0C27.378-34.868,26.451-34.878,26.451-35.459z" style="fill:#AE6219;"/>
  <path d="M24.778-36.792c0-0.561,0.948-0.652,0.938,0C25.705-36.201,24.778-36.211,24.778-36.792z" style="fill:#AE6219;"/>
  <path d="M23.194-38.292c0-0.561,0.949-0.652,0.938,0C24.122-37.701,23.194-37.711,23.194-38.292z" style="fill:#AE6219;"/>
  <path d="M22.076-39.375c0-0.561,0.948-0.652,0.938,0C23.003-38.785,22.076-38.795,22.076-39.375z" style="fill:#AE6219;"/>
  <path d="M33.694-31.625c0-0.561,0.949-0.652,0.938,0C34.622-31.035,33.694-31.045,33.694-31.625z" style="fill:#AE6219;"/>
  <path d="M30.201-35.125c0-0.561,0.948-0.652,0.938,0C31.128-34.535,30.201-34.545,30.201-35.125z" style="fill:#AE6219;"/>
  <path d="M28.534-35.875c0-0.561,0.949-0.652,0.938,0C29.462-35.285,28.534-35.295,28.534-35.875z" style="fill:#AE6219;"/>
  <path d="M27.028-36.875c0-0.561,0.948-0.652,0.938,0C27.955-36.285,27.028-36.295,27.028-36.875z" style="fill:#AE6219;"/>
  <path d="M25.859-38.159c0-0.56,0.949-0.652,0.938,0C26.787-37.568,25.859-37.578,25.859-38.159z" style="fill:#AE6219;"/>
  <path d="M24.547-39.409c0-0.56,0.949-0.652,0.938,0C25.475-38.818,24.547-38.828,24.547-39.409z" style="fill:#AE6219;"/>
  <path d="M28.111-37.842c0-0.561,0.949-0.652,0.938,0C29.039-37.251,28.111-37.261,28.111-37.842z" style="fill:#AE6219;"/>
  <path d="M29.984-36.592c0-0.561,0.949-0.652,0.938,0C30.912-36.001,29.984-36.011,29.984-36.592z" style="fill:#AE6219;"/>
  <path d="M27.114-39.313c0-0.561,0.948-0.652,0.938,0C28.041-38.722,27.114-38.732,27.114-39.313z" style="fill:#AE6219;"/>
  <path d="M33.201-38c0-0.561,0.948-0.652,0.938,0C34.128-37.41,33.201-37.42,33.201-38z" style="fill:#AE6219;"/>
  <path d="M31.52-37.563c0-0.561,0.949-0.652,0.938,0C32.447-36.972,31.52-36.982,31.52-37.563z" style="fill:#AE6219;"/>
  <path d="M30.361-39.375c0-0.561,0.949-0.652,0.938,0C31.289-38.785,30.361-38.795,30.361-39.375z" style="fill:#AE6219;"/>
 </g>
</svg>
