<?xml version="1.0"?>
<!-- Converted with SVG Converter - Version 0.9.5 (Compiled Fri Feb 21 09:53:38 2020) - Copyright (C) 2011 Nokia -->
<svg xmlns="http://www.w3.org/2000/svg" baseProfile="tiny" xmlns:xlink="http://www.w3.org/1999/xlink" width="49.698" height="49.494">
 <path d="M0 0h49.7v49.5H0z" fill="none"/>
 <path d="M0 0h49.7v49.5H0z"/>
 <path d="M48 0c0 .25.2.45.44.45s.45-.2.45-.45M45.36 0c0 .25.2.45.45.45s.46-.2.46-.45M42.74 0c0 .25.2.45.45.45s.44-.2.44-.45M40.1 0c0 .25.2.45.46.45S41 .25 41 0M37.5 0c0 .25.2.45.44.45s.45-.2.45-.45M34.8 0c0 .25.2.45.45.45s.45-.2.45-.45M32.24 0c0 .25.2.45.45.45s.44-.2.44-.45M29.6 0c0 .25.2.45.46.45s.45-.2.45-.45M26.93 0c0 .25.2.45.45.45s.45-.2.45-.45M24.36 0c0 .25.2.45.45.45s.46-.2.46-.45M21.68 0c0 .25.2.45.45.45s.45-.2.45-.45M19.1 0c0 .25.2.45.46.45S20 .25 20 0M16.5 0c0 .25.2.45.44.45s.45-.2.45-.45M13.93 0c0 .25.2.45.45.45s.44-.2.44-.45M11.3 0c0 .25.2.45.45.45s.45-.2.45-.45M8.68 0c0 .25.2.45.45.45s.44-.2.44-.45M6.05 0c0 .25.2.45.45.45s.45-.2.45-.45M3.42 0c0 .25.2.45.45.45s.46-.2.46-.45M.74 0c0 .25.2.45.45.45s.44-.2.44-.45M0 1.76c.25 0 .45-.2.45-.45 0-.24-.2-.44-.45-.44" fill="#fff"/>
 <circle cx="2.563" cy="1.313" fill="#fff" r=".45"/>
 <circle cx="5.188" cy="1.313" fill="#fff" r=".45"/>
 <circle cx="7.875" cy="1.313" fill="#fff" r=".45"/>
 <circle cx="10.438" cy="1.313" fill="#fff" r=".45"/>
 <circle cx="13" cy="1.313" fill="#fff" r=".45"/>
 <circle cx="15.625" cy="1.313" fill="#fff" r=".45"/>
 <circle cx="18.25" cy="1.313" fill="#fff" r=".45"/>
 <circle cx="20.938" cy="1.313" fill="#fff" r=".45"/>
 <circle cx="23.563" cy="1.313" fill="#fff" r=".45"/>
 <circle cx="26.063" cy="1.313" fill="#fff" r=".45"/>
 <circle cx="28.75" cy="1.313" fill="#fff" r=".45"/>
 <circle cx="31.375" cy="1.313" fill="#fff" r=".45"/>
 <circle cx="33.938" cy="1.313" fill="#fff" r=".45"/>
 <circle cx="36.625" cy="1.313" fill="#fff" r=".45"/>
 <circle cx="39.188" cy="1.313" fill="#fff" r=".45"/>
 <circle cx="41.813" cy="1.313" fill="#fff" r=".45"/>
 <circle cx="44.438" cy="1.313" fill="#fff" r=".45"/>
 <circle cx="47.063" cy="1.313" fill="#fff" r=".45"/>
 <path d="M49.7.86c-.26 0-.46.2-.46.45 0 .26.2.46.45.46" fill="#fff"/>
 <circle cx="48.438" cy="2.563" fill="#fff" r=".45"/>
 <circle cx="45.813" cy="2.563" fill="#fff" r=".45"/>
 <circle cx="43.188" cy="2.563" fill="#fff" r=".45"/>
 <circle cx="40.563" cy="2.563" fill="#fff" r=".45"/>
 <circle cx="37.938" cy="2.563" fill="#fff" r=".45"/>
 <circle cx="35.25" cy="2.563" fill="#fff" r=".45"/>
 <circle cx="32.688" cy="2.563" fill="#fff" r=".45"/>
 <circle cx="30.063" cy="2.563" fill="#fff" r=".45"/>
 <circle cx="27.375" cy="2.563" fill="#fff" r=".45"/>
 <circle cx="24.813" cy="2.563" fill="#fff" r=".45"/>
 <circle cx="22.125" cy="2.563" fill="#fff" r=".45"/>
 <circle cx="19.563" cy="2.563" fill="#fff" r=".45"/>
 <circle cx="16.938" cy="2.563" fill="#fff" r=".45"/>
 <circle cx="14.375" cy="2.563" fill="#fff" r=".45"/>
 <circle cx="11.75" cy="2.563" fill="#fff" r=".45"/>
 <circle cx="9.125" cy="2.563" fill="#fff" r=".45"/>
 <circle cx="6.5" cy="2.563" fill="#fff" r=".45"/>
 <circle cx="3.875" cy="2.563" fill="#fff" r=".45"/>
 <circle cx="1.188" cy="2.563" fill="#fff" r=".45"/>
 <path d="M0 4.33c.25 0 .45-.2.45-.46 0-.24-.2-.45-.45-.45" fill="#fff"/>
 <circle cx="2.563" cy="3.875" fill="#fff" r=".45"/>
 <circle cx="5.188" cy="3.875" fill="#fff" r=".45"/>
 <circle cx="7.875" cy="3.875" fill="#fff" r=".45"/>
 <circle cx="10.438" cy="3.875" fill="#fff" r=".45"/>
 <circle cx="13" cy="3.875" fill="#fff" r=".45"/>
 <circle cx="15.625" cy="3.875" fill="#fff" r=".45"/>
 <circle cx="18.25" cy="3.875" fill="#fff" r=".45"/>
 <circle cx="20.938" cy="3.875" fill="#fff" r=".45"/>
 <circle cx="23.563" cy="3.875" fill="#fff" r=".45"/>
 <circle cx="26.063" cy="3.875" fill="#fff" r=".45"/>
 <circle cx="28.75" cy="3.875" fill="#fff" r=".45"/>
 <circle cx="31.375" cy="3.875" fill="#fff" r=".45"/>
 <circle cx="33.938" cy="3.875" fill="#fff" r=".45"/>
 <circle cx="36.625" cy="3.875" fill="#fff" r=".45"/>
 <circle cx="39.188" cy="3.875" fill="#fff" r=".45"/>
 <circle cx="41.813" cy="3.875" fill="#fff" r=".45"/>
 <circle cx="44.438" cy="3.875" fill="#fff" r=".45"/>
 <circle cx="47.063" cy="3.875" fill="#fff" r=".45"/>
 <path d="M49.7 3.43c-.26 0-.46.2-.46.45s.2.45.45.45" fill="#fff"/>
 <circle cx="48.438" cy="5.125" fill="#fff" r=".45"/>
 <circle cx="45.813" cy="5.125" fill="#fff" r=".45"/>
 <circle cx="43.188" cy="5.125" fill="#fff" r=".45"/>
 <circle cx="40.563" cy="5.125" fill="#fff" r=".45"/>
 <circle cx="37.938" cy="5.125" fill="#fff" r=".45"/>
 <circle cx="35.25" cy="5.125" fill="#fff" r=".45"/>
 <circle cx="32.688" cy="5.125" fill="#fff" r=".45"/>
 <circle cx="30.063" cy="5.125" fill="#fff" r=".45"/>
 <circle cx="27.375" cy="5.125" fill="#fff" r=".45"/>
 <circle cx="24.813" cy="5.125" fill="#fff" r=".45"/>
 <circle cx="22.125" cy="5.125" fill="#fff" r=".45"/>
 <circle cx="19.563" cy="5.125" fill="#fff" r=".45"/>
 <circle cx="16.938" cy="5.125" fill="#fff" r=".45"/>
 <circle cx="14.375" cy="5.125" fill="#fff" r=".45"/>
 <circle cx="11.75" cy="5.125" fill="#fff" r=".45"/>
 <circle cx="9.125" cy="5.125" fill="#fff" r=".45"/>
 <circle cx="6.5" cy="5.125" fill="#fff" r=".45"/>
 <circle cx="3.875" cy="5.125" fill="#fff" r=".45"/>
 <circle cx="1.188" cy="5.125" fill="#fff" r=".45"/>
 <path d="M0 6.95c.25 0 .45-.2.45-.45s-.2-.45-.45-.45" fill="#fff"/>
 <circle cx="2.563" cy="6.5" fill="#fff" r=".45"/>
 <circle cx="5.188" cy="6.5" fill="#fff" r=".45"/>
 <circle cx="7.875" cy="6.5" fill="#fff" r=".45"/>
 <circle cx="10.438" cy="6.5" fill="#fff" r=".45"/>
 <circle cx="13" cy="6.5" fill="#fff" r=".45"/>
 <circle cx="15.625" cy="6.5" fill="#fff" r=".45"/>
 <circle cx="18.25" cy="6.5" fill="#fff" r=".45"/>
 <circle cx="20.938" cy="6.5" fill="#fff" r=".45"/>
 <circle cx="23.563" cy="6.5" fill="#fff" r=".45"/>
 <circle cx="26.063" cy="6.5" fill="#fff" r=".45"/>
 <circle cx="28.75" cy="6.5" fill="#fff" r=".45"/>
 <circle cx="31.375" cy="6.5" fill="#fff" r=".45"/>
 <circle cx="33.938" cy="6.5" fill="#fff" r=".45"/>
 <circle cx="36.625" cy="6.5" fill="#fff" r=".45"/>
 <circle cx="39.188" cy="6.5" fill="#fff" r=".45"/>
 <circle cx="41.813" cy="6.5" fill="#fff" r=".45"/>
 <circle cx="44.438" cy="6.5" fill="#fff" r=".45"/>
 <circle cx="47.063" cy="6.5" fill="#fff" r=".45"/>
 <path d="M49.7 6.05c-.26 0-.46.2-.46.45s.2.45.45.45" fill="#fff"/>
 <circle cx="48.438" cy="7.75" fill="#fff" r=".45"/>
 <circle cx="45.813" cy="7.75" fill="#fff" r=".45"/>
 <circle cx="43.188" cy="7.75" fill="#fff" r=".45"/>
 <circle cx="40.563" cy="7.75" fill="#fff" r=".45"/>
 <circle cx="37.938" cy="7.75" fill="#fff" r=".45"/>
 <circle cx="35.25" cy="7.75" fill="#fff" r=".45"/>
 <circle cx="32.688" cy="7.75" fill="#fff" r=".45"/>
 <circle cx="30.063" cy="7.75" fill="#fff" r=".45"/>
 <circle cx="27.375" cy="7.75" fill="#fff" r=".45"/>
 <circle cx="24.813" cy="7.75" fill="#fff" r=".45"/>
 <circle cx="22.125" cy="7.75" fill="#fff" r=".45"/>
 <circle cx="19.563" cy="7.75" fill="#fff" r=".45"/>
 <circle cx="16.938" cy="7.75" fill="#fff" r=".45"/>
 <circle cx="14.375" cy="7.75" fill="#fff" r=".45"/>
 <circle cx="11.75" cy="7.75" fill="#fff" r=".45"/>
 <circle cx="9.125" cy="7.75" fill="#fff" r=".45"/>
 <circle cx="6.5" cy="7.75" fill="#fff" r=".45"/>
 <circle cx="3.875" cy="7.75" fill="#fff" r=".45"/>
 <circle cx="1.188" cy="7.75" fill="#fff" r=".45"/>
 <path d="M0 9.58c.25 0 .45-.2.45-.45s-.2-.46-.45-.46" fill="#fff"/>
 <circle cx="2.563" cy="9.125" fill="#fff" r=".45"/>
 <circle cx="5.188" cy="9.125" fill="#fff" r=".45"/>
 <circle cx="7.875" cy="9.125" fill="#fff" r=".45"/>
 <circle cx="10.438" cy="9.125" fill="#fff" r=".45"/>
 <circle cx="13" cy="9.125" fill="#fff" r=".45"/>
 <circle cx="15.625" cy="9.125" fill="#fff" r=".45"/>
 <circle cx="18.25" cy="9.125" fill="#fff" r=".45"/>
 <circle cx="20.938" cy="9.125" fill="#fff" r=".45"/>
 <circle cx="23.563" cy="9.125" fill="#fff" r=".45"/>
 <circle cx="26.063" cy="9.125" fill="#fff" r=".45"/>
 <circle cx="28.75" cy="9.125" fill="#fff" r=".45"/>
 <circle cx="31.375" cy="9.125" fill="#fff" r=".45"/>
 <circle cx="33.938" cy="9.125" fill="#fff" r=".45"/>
 <circle cx="36.625" cy="9.125" fill="#fff" r=".45"/>
 <circle cx="39.188" cy="9.125" fill="#fff" r=".45"/>
 <circle cx="41.813" cy="9.125" fill="#fff" r=".45"/>
 <circle cx="44.438" cy="9.125" fill="#fff" r=".45"/>
 <circle cx="47.063" cy="9.125" fill="#fff" r=".45"/>
 <path d="M49.7 8.68c-.26 0-.46.2-.46.45 0 .24.2.45.45.45" fill="#fff"/>
 <circle cx="48.438" cy="10.375" fill="#fff" r=".45"/>
 <circle cx="45.813" cy="10.375" fill="#fff" r=".45"/>
 <circle cx="43.188" cy="10.375" fill="#fff" r=".45"/>
 <circle cx="40.563" cy="10.375" fill="#fff" r=".45"/>
 <circle cx="37.938" cy="10.375" fill="#fff" r=".45"/>
 <circle cx="35.25" cy="10.375" fill="#fff" r=".45"/>
 <circle cx="32.688" cy="10.375" fill="#fff" r=".45"/>
 <circle cx="30.063" cy="10.375" fill="#fff" r=".45"/>
 <circle cx="27.375" cy="10.375" fill="#fff" r=".45"/>
 <circle cx="24.813" cy="10.375" fill="#fff" r=".45"/>
 <circle cx="22.125" cy="10.375" fill="#fff" r=".45"/>
 <circle cx="19.563" cy="10.375" fill="#fff" r=".45"/>
 <circle cx="16.938" cy="10.375" fill="#fff" r=".45"/>
 <circle cx="14.375" cy="10.375" fill="#fff" r=".45"/>
 <circle cx="11.75" cy="10.375" fill="#fff" r=".45"/>
 <circle cx="9.125" cy="10.375" fill="#fff" r=".45"/>
 <circle cx="6.5" cy="10.375" fill="#fff" r=".45"/>
 <circle cx="3.875" cy="10.375" fill="#fff" r=".45"/>
 <circle cx="1.188" cy="10.375" fill="#fff" r=".45"/>
 <path d="M0 12.2c.25 0 .45-.2.45-.45s-.2-.45-.45-.45" fill="#fff"/>
 <circle cx="2.563" cy="11.75" fill="#fff" r=".45"/>
 <circle cx="5.188" cy="11.75" fill="#fff" r=".45"/>
 <circle cx="7.875" cy="11.75" fill="#fff" r=".45"/>
 <circle cx="10.438" cy="11.75" fill="#fff" r=".45"/>
 <circle cx="13" cy="11.75" fill="#fff" r=".45"/>
 <circle cx="15.625" cy="11.75" fill="#fff" r=".45"/>
 <circle cx="18.25" cy="11.75" fill="#fff" r=".45"/>
 <circle cx="20.938" cy="11.75" fill="#fff" r=".45"/>
 <circle cx="23.563" cy="11.75" fill="#fff" r=".45"/>
 <circle cx="26.063" cy="11.75" fill="#fff" r=".45"/>
 <circle cx="28.75" cy="11.75" fill="#fff" r=".45"/>
 <circle cx="31.375" cy="11.75" fill="#fff" r=".45"/>
 <circle cx="33.938" cy="11.75" fill="#fff" r=".45"/>
 <circle cx="36.625" cy="11.75" fill="#fff" r=".45"/>
 <circle cx="39.188" cy="11.75" fill="#fff" r=".45"/>
 <circle cx="41.813" cy="11.75" fill="#fff" r=".45"/>
 <circle cx="44.438" cy="11.75" fill="#fff" r=".45"/>
 <circle cx="47.063" cy="11.75" fill="#fff" r=".45"/>
 <path d="M49.7 11.3c-.26 0-.46.2-.46.45s.2.45.45.45" fill="#fff"/>
 <circle cx="48.438" cy="13" fill="#fff" r=".45"/>
 <circle cx="45.813" cy="13" fill="#fff" r=".45"/>
 <circle cx="43.188" cy="13" fill="#fff" r=".45"/>
 <circle cx="40.563" cy="13" fill="#fff" r=".45"/>
 <circle cx="37.938" cy="13" fill="#fff" r=".45"/>
 <circle cx="35.25" cy="13" fill="#fff" r=".45"/>
 <circle cx="32.688" cy="13" fill="#fff" r=".45"/>
 <circle cx="30.063" cy="13" fill="#fff" r=".45"/>
 <circle cx="27.375" cy="13" fill="#fff" r=".45"/>
 <circle cx="24.813" cy="13" fill="#fff" r=".45"/>
 <circle cx="22.125" cy="13" fill="#fff" r=".45"/>
 <circle cx="19.563" cy="13" fill="#fff" r=".45"/>
 <circle cx="16.938" cy="13" fill="#fff" r=".45"/>
 <circle cx="14.375" cy="13" fill="#fff" r=".45"/>
 <circle cx="11.75" cy="13" fill="#fff" r=".45"/>
 <circle cx="9.125" cy="13" fill="#fff" r=".45"/>
 <circle cx="6.5" cy="13" fill="#fff" r=".45"/>
 <circle cx="3.875" cy="13" fill="#fff" r=".45"/>
 <circle cx="1.188" cy="13" fill="#fff" r=".45"/>
 <path d="M0 14.76c.25 0 .45-.2.45-.45 0-.24-.2-.44-.45-.44" fill="#fff"/>
 <circle cx="2.563" cy="14.313" fill="#fff" r=".45"/>
 <circle cx="5.188" cy="14.313" fill="#fff" r=".45"/>
 <circle cx="7.875" cy="14.313" fill="#fff" r=".45"/>
 <circle cx="10.438" cy="14.313" fill="#fff" r=".45"/>
 <circle cx="13" cy="14.313" fill="#fff" r=".45"/>
 <circle cx="15.625" cy="14.313" fill="#fff" r=".45"/>
 <circle cx="18.25" cy="14.313" fill="#fff" r=".45"/>
 <circle cx="20.938" cy="14.313" fill="#fff" r=".45"/>
 <circle cx="23.563" cy="14.313" fill="#fff" r=".45"/>
 <circle cx="26.063" cy="14.313" fill="#fff" r=".45"/>
 <circle cx="28.75" cy="14.313" fill="#fff" r=".45"/>
 <circle cx="31.375" cy="14.313" fill="#fff" r=".45"/>
 <circle cx="33.938" cy="14.313" fill="#fff" r=".45"/>
 <circle cx="36.625" cy="14.313" fill="#fff" r=".45"/>
 <circle cx="39.188" cy="14.313" fill="#fff" r=".45"/>
 <circle cx="41.813" cy="14.313" fill="#fff" r=".45"/>
 <circle cx="44.438" cy="14.313" fill="#fff" r=".45"/>
 <circle cx="47.063" cy="14.313" fill="#fff" r=".45"/>
 <path d="M49.7 13.86c-.26 0-.46.2-.46.45 0 .26.2.46.45.46" fill="#fff"/>
 <circle cx="48.438" cy="15.563" fill="#fff" r=".45"/>
 <circle cx="45.813" cy="15.563" fill="#fff" r=".45"/>
 <circle cx="43.188" cy="15.563" fill="#fff" r=".45"/>
 <circle cx="40.563" cy="15.563" fill="#fff" r=".45"/>
 <circle cx="37.938" cy="15.563" fill="#fff" r=".45"/>
 <circle cx="35.25" cy="15.563" fill="#fff" r=".45"/>
 <circle cx="32.688" cy="15.563" fill="#fff" r=".45"/>
 <circle cx="30.063" cy="15.563" fill="#fff" r=".45"/>
 <circle cx="27.375" cy="15.563" fill="#fff" r=".45"/>
 <circle cx="24.813" cy="15.563" fill="#fff" r=".45"/>
 <circle cx="22.125" cy="15.563" fill="#fff" r=".45"/>
 <circle cx="19.563" cy="15.563" fill="#fff" r=".45"/>
 <circle cx="16.938" cy="15.563" fill="#fff" r=".45"/>
 <circle cx="14.375" cy="15.563" fill="#fff" r=".45"/>
 <circle cx="11.75" cy="15.563" fill="#fff" r=".45"/>
 <circle cx="9.125" cy="15.563" fill="#fff" r=".45"/>
 <circle cx="6.5" cy="15.563" fill="#fff" r=".45"/>
 <circle cx="3.875" cy="15.563" fill="#fff" r=".45"/>
 <circle cx="1.188" cy="15.563" fill="#fff" r=".45"/>
 <path d="M0 17.4c.25 0 .45-.2.45-.46 0-.25-.2-.45-.45-.45" fill="#fff"/>
 <circle cx="2.563" cy="16.938" fill="#fff" r=".45"/>
 <circle cx="5.188" cy="16.938" fill="#fff" r=".45"/>
 <circle cx="7.875" cy="16.938" fill="#fff" r=".45"/>
 <circle cx="10.438" cy="16.938" fill="#fff" r=".45"/>
 <circle cx="13" cy="16.938" fill="#fff" r=".45"/>
 <circle cx="15.625" cy="16.938" fill="#fff" r=".45"/>
 <circle cx="18.25" cy="16.938" fill="#fff" r=".45"/>
 <circle cx="20.938" cy="16.938" fill="#fff" r=".45"/>
 <circle cx="23.563" cy="16.938" fill="#fff" r=".45"/>
 <circle cx="26.063" cy="16.938" fill="#fff" r=".45"/>
 <circle cx="28.75" cy="16.938" fill="#fff" r=".45"/>
 <circle cx="31.375" cy="16.938" fill="#fff" r=".45"/>
 <circle cx="33.938" cy="16.938" fill="#fff" r=".45"/>
 <circle cx="36.625" cy="16.938" fill="#fff" r=".45"/>
 <circle cx="39.188" cy="16.938" fill="#fff" r=".45"/>
 <circle cx="41.813" cy="16.938" fill="#fff" r=".45"/>
 <circle cx="44.438" cy="16.938" fill="#fff" r=".45"/>
 <circle cx="47.063" cy="16.938" fill="#fff" r=".45"/>
 <path d="M49.7 16.5c-.26 0-.46.2-.46.44 0 .25.2.45.45.45" fill="#fff"/>
 <circle cx="48.438" cy="18.188" fill="#fff" r=".45"/>
 <circle cx="45.813" cy="18.188" fill="#fff" r=".45"/>
 <circle cx="43.188" cy="18.188" fill="#fff" r=".45"/>
 <circle cx="40.563" cy="18.188" fill="#fff" r=".45"/>
 <circle cx="37.938" cy="18.188" fill="#fff" r=".45"/>
 <circle cx="35.25" cy="18.188" fill="#fff" r=".45"/>
 <circle cx="32.688" cy="18.188" fill="#fff" r=".45"/>
 <circle cx="30.063" cy="18.188" fill="#fff" r=".45"/>
 <circle cx="27.375" cy="18.188" fill="#fff" r=".45"/>
 <circle cx="24.813" cy="18.188" fill="#fff" r=".45"/>
 <circle cx="22.125" cy="18.188" fill="#fff" r=".45"/>
 <circle cx="19.563" cy="18.188" fill="#fff" r=".45"/>
 <circle cx="16.938" cy="18.188" fill="#fff" r=".45"/>
 <circle cx="14.375" cy="18.188" fill="#fff" r=".45"/>
 <circle cx="11.75" cy="18.188" fill="#fff" r=".45"/>
 <circle cx="9.125" cy="18.188" fill="#fff" r=".45"/>
 <circle cx="6.5" cy="18.188" fill="#fff" r=".45"/>
 <circle cx="3.875" cy="18.188" fill="#fff" r=".45"/>
 <circle cx="1.188" cy="18.188" fill="#fff" r=".45"/>
 <path d="M0 20c.25 0 .45-.2.45-.44s-.2-.45-.45-.45" fill="#fff"/>
 <circle cx="2.563" cy="19.563" fill="#fff" r=".45"/>
 <circle cx="5.188" cy="19.563" fill="#fff" r=".45"/>
 <circle cx="7.875" cy="19.563" fill="#fff" r=".45"/>
 <circle cx="10.438" cy="19.563" fill="#fff" r=".45"/>
 <circle cx="13" cy="19.563" fill="#fff" r=".45"/>
 <circle cx="15.625" cy="19.563" fill="#fff" r=".45"/>
 <circle cx="18.25" cy="19.563" fill="#fff" r=".45"/>
 <circle cx="20.938" cy="19.563" fill="#fff" r=".45"/>
 <circle cx="23.563" cy="19.563" fill="#fff" r=".45"/>
 <circle cx="26.063" cy="19.563" fill="#fff" r=".45"/>
 <circle cx="28.75" cy="19.563" fill="#fff" r=".45"/>
 <circle cx="31.375" cy="19.563" fill="#fff" r=".45"/>
 <circle cx="33.938" cy="19.563" fill="#fff" r=".45"/>
 <circle cx="36.625" cy="19.563" fill="#fff" r=".45"/>
 <circle cx="39.188" cy="19.563" fill="#fff" r=".45"/>
 <circle cx="41.813" cy="19.563" fill="#fff" r=".45"/>
 <circle cx="44.438" cy="19.563" fill="#fff" r=".45"/>
 <circle cx="47.063" cy="19.563" fill="#fff" r=".45"/>
 <path d="M49.7 19.1c-.26 0-.46.2-.46.46 0 .25.2.45.45.45" fill="#fff"/>
 <circle cx="48.438" cy="20.813" fill="#fff" r=".45"/>
 <circle cx="45.813" cy="20.813" fill="#fff" r=".45"/>
 <circle cx="43.188" cy="20.813" fill="#fff" r=".45"/>
 <circle cx="40.563" cy="20.813" fill="#fff" r=".45"/>
 <circle cx="37.938" cy="20.813" fill="#fff" r=".45"/>
 <circle cx="35.25" cy="20.813" fill="#fff" r=".45"/>
 <circle cx="32.688" cy="20.813" fill="#fff" r=".45"/>
 <circle cx="30.063" cy="20.813" fill="#fff" r=".45"/>
 <circle cx="27.375" cy="20.813" fill="#fff" r=".45"/>
 <circle cx="24.813" cy="20.813" fill="#fff" r=".45"/>
 <circle cx="22.125" cy="20.813" fill="#fff" r=".45"/>
 <circle cx="19.563" cy="20.813" fill="#fff" r=".45"/>
 <circle cx="16.938" cy="20.813" fill="#fff" r=".45"/>
 <circle cx="14.375" cy="20.813" fill="#fff" r=".45"/>
 <circle cx="11.75" cy="20.813" fill="#fff" r=".45"/>
 <circle cx="9.125" cy="20.813" fill="#fff" r=".45"/>
 <circle cx="6.5" cy="20.813" fill="#fff" r=".45"/>
 <circle cx="3.875" cy="20.813" fill="#fff" r=".45"/>
 <circle cx="1.188" cy="20.813" fill="#fff" r=".45"/>
 <path d="M0 22.64c.25 0 .45-.2.45-.45 0-.26-.2-.46-.45-.46" fill="#fff"/>
 <circle cx="2.563" cy="22.188" fill="#fff" r=".45"/>
 <circle cx="5.188" cy="22.188" fill="#fff" r=".45"/>
 <circle cx="7.875" cy="22.188" fill="#fff" r=".45"/>
 <circle cx="10.438" cy="22.188" fill="#fff" r=".45"/>
 <circle cx="13" cy="22.188" fill="#fff" r=".45"/>
 <circle cx="15.625" cy="22.188" fill="#fff" r=".45"/>
 <circle cx="18.25" cy="22.188" fill="#fff" r=".45"/>
 <circle cx="20.938" cy="22.188" fill="#fff" r=".45"/>
 <circle cx="23.563" cy="22.188" fill="#fff" r=".45"/>
 <circle cx="26.063" cy="22.188" fill="#fff" r=".45"/>
 <circle cx="28.75" cy="22.188" fill="#fff" r=".45"/>
 <circle cx="31.375" cy="22.188" fill="#fff" r=".45"/>
 <circle cx="33.938" cy="22.188" fill="#fff" r=".45"/>
 <circle cx="36.625" cy="22.188" fill="#fff" r=".45"/>
 <circle cx="39.188" cy="22.188" fill="#fff" r=".45"/>
 <circle cx="41.813" cy="22.188" fill="#fff" r=".45"/>
 <circle cx="44.438" cy="22.188" fill="#fff" r=".45"/>
 <circle cx="47.063" cy="22.188" fill="#fff" r=".45"/>
 <path d="M49.7 21.74c-.26 0-.46.2-.46.45 0 .24.2.44.45.44" fill="#fff"/>
 <circle cx="48.438" cy="23.438" fill="#fff" r=".45"/>
 <circle cx="45.813" cy="23.438" fill="#fff" r=".45"/>
 <circle cx="43.188" cy="23.438" fill="#fff" r=".45"/>
 <circle cx="40.563" cy="23.438" fill="#fff" r=".45"/>
 <circle cx="37.938" cy="23.438" fill="#fff" r=".45"/>
 <circle cx="35.25" cy="23.438" fill="#fff" r=".45"/>
 <circle cx="32.688" cy="23.438" fill="#fff" r=".45"/>
 <circle cx="30.063" cy="23.438" fill="#fff" r=".45"/>
 <circle cx="27.375" cy="23.438" fill="#fff" r=".45"/>
 <circle cx="24.813" cy="23.438" fill="#fff" r=".45"/>
 <circle cx="22.125" cy="23.438" fill="#fff" r=".45"/>
 <circle cx="19.563" cy="23.438" fill="#fff" r=".45"/>
 <circle cx="16.938" cy="23.438" fill="#fff" r=".45"/>
 <circle cx="14.375" cy="23.438" fill="#fff" r=".45"/>
 <circle cx="11.75" cy="23.438" fill="#fff" r=".45"/>
 <circle cx="9.125" cy="23.438" fill="#fff" r=".45"/>
 <circle cx="6.5" cy="23.438" fill="#fff" r=".45"/>
 <circle cx="3.875" cy="23.438" fill="#fff" r=".45"/>
 <circle cx="1.188" cy="23.438" fill="#fff" r=".45"/>
 <path d="M0 25.2c.25 0 .45-.2.45-.45s-.2-.45-.45-.45" fill="#fff"/>
 <circle cx="2.563" cy="24.75" fill="#fff" r=".45"/>
 <circle cx="5.188" cy="24.75" fill="#fff" r=".45"/>
 <circle cx="7.875" cy="24.75" fill="#fff" r=".45"/>
 <circle cx="10.438" cy="24.75" fill="#fff" r=".45"/>
 <circle cx="13" cy="24.75" fill="#fff" r=".45"/>
 <circle cx="15.625" cy="24.75" fill="#fff" r=".45"/>
 <circle cx="18.25" cy="24.75" fill="#fff" r=".45"/>
 <circle cx="20.938" cy="24.75" fill="#fff" r=".45"/>
 <circle cx="23.563" cy="24.75" fill="#fff" r=".45"/>
 <circle cx="26.063" cy="24.75" fill="#fff" r=".45"/>
 <circle cx="28.75" cy="24.75" fill="#fff" r=".45"/>
 <circle cx="31.375" cy="24.75" fill="#fff" r=".45"/>
 <circle cx="33.938" cy="24.75" fill="#fff" r=".45"/>
 <circle cx="36.625" cy="24.75" fill="#fff" r=".45"/>
 <circle cx="39.188" cy="24.75" fill="#fff" r=".45"/>
 <circle cx="41.813" cy="24.75" fill="#fff" r=".45"/>
 <circle cx="44.438" cy="24.75" fill="#fff" r=".45"/>
 <circle cx="47.063" cy="24.75" fill="#fff" r=".45"/>
 <path d="M49.7 24.3c-.26 0-.46.2-.46.45s.2.45.45.45" fill="#fff"/>
 <circle cx="48.438" cy="26" fill="#fff" r=".45"/>
 <circle cx="45.813" cy="26" fill="#fff" r=".45"/>
 <circle cx="43.188" cy="26" fill="#fff" r=".45"/>
 <circle cx="40.563" cy="26" fill="#fff" r=".45"/>
 <circle cx="37.938" cy="26" fill="#fff" r=".45"/>
 <circle cx="35.25" cy="26" fill="#fff" r=".45"/>
 <circle cx="32.688" cy="26" fill="#fff" r=".45"/>
 <circle cx="30.063" cy="26" fill="#fff" r=".45"/>
 <circle cx="27.375" cy="26" fill="#fff" r=".45"/>
 <circle cx="24.813" cy="26" fill="#fff" r=".45"/>
 <circle cx="22.125" cy="26" fill="#fff" r=".45"/>
 <circle cx="19.563" cy="26" fill="#fff" r=".45"/>
 <circle cx="16.938" cy="26" fill="#fff" r=".45"/>
 <circle cx="14.375" cy="26" fill="#fff" r=".45"/>
 <circle cx="11.75" cy="26" fill="#fff" r=".45"/>
 <circle cx="9.125" cy="26" fill="#fff" r=".45"/>
 <circle cx="6.5" cy="26" fill="#fff" r=".45"/>
 <circle cx="3.875" cy="26" fill="#fff" r=".45"/>
 <circle cx="1.188" cy="26" fill="#fff" r=".45"/>
 <path d="M0 27.83c.25 0 .45-.2.45-.45s-.2-.45-.45-.45" fill="#fff"/>
 <circle cx="2.563" cy="27.375" fill="#fff" r=".45"/>
 <circle cx="5.188" cy="27.375" fill="#fff" r=".45"/>
 <circle cx="7.875" cy="27.375" fill="#fff" r=".45"/>
 <circle cx="10.438" cy="27.375" fill="#fff" r=".45"/>
 <circle cx="13" cy="27.375" fill="#fff" r=".45"/>
 <circle cx="15.625" cy="27.375" fill="#fff" r=".45"/>
 <circle cx="18.25" cy="27.375" fill="#fff" r=".45"/>
 <circle cx="20.938" cy="27.375" fill="#fff" r=".45"/>
 <circle cx="23.563" cy="27.375" fill="#fff" r=".45"/>
 <circle cx="26.063" cy="27.375" fill="#fff" r=".45"/>
 <circle cx="28.75" cy="27.375" fill="#fff" r=".45"/>
 <circle cx="31.375" cy="27.375" fill="#fff" r=".45"/>
 <circle cx="33.938" cy="27.375" fill="#fff" r=".45"/>
 <circle cx="36.625" cy="27.375" fill="#fff" r=".45"/>
 <circle cx="39.188" cy="27.375" fill="#fff" r=".45"/>
 <circle cx="41.813" cy="27.375" fill="#fff" r=".45"/>
 <circle cx="44.438" cy="27.375" fill="#fff" r=".45"/>
 <circle cx="47.063" cy="27.375" fill="#fff" r=".45"/>
 <path d="M49.7 26.93c-.26 0-.46.2-.46.44 0 .25.2.46.45.46" fill="#fff"/>
 <circle cx="48.438" cy="28.625" fill="#fff" r=".45"/>
 <circle cx="45.813" cy="28.625" fill="#fff" r=".45"/>
 <circle cx="43.188" cy="28.625" fill="#fff" r=".45"/>
 <circle cx="40.563" cy="28.625" fill="#fff" r=".45"/>
 <circle cx="37.938" cy="28.625" fill="#fff" r=".45"/>
 <circle cx="35.25" cy="28.625" fill="#fff" r=".45"/>
 <circle cx="32.688" cy="28.625" fill="#fff" r=".45"/>
 <circle cx="30.063" cy="28.625" fill="#fff" r=".45"/>
 <circle cx="27.375" cy="28.625" fill="#fff" r=".45"/>
 <circle cx="24.813" cy="28.625" fill="#fff" r=".45"/>
 <circle cx="22.125" cy="28.625" fill="#fff" r=".45"/>
 <circle cx="19.563" cy="28.625" fill="#fff" r=".45"/>
 <circle cx="16.938" cy="28.625" fill="#fff" r=".45"/>
 <circle cx="14.375" cy="28.625" fill="#fff" r=".45"/>
 <circle cx="11.75" cy="28.625" fill="#fff" r=".45"/>
 <circle cx="9.125" cy="28.625" fill="#fff" r=".45"/>
 <circle cx="6.5" cy="28.625" fill="#fff" r=".45"/>
 <circle cx="3.875" cy="28.625" fill="#fff" r=".45"/>
 <circle cx="1.188" cy="28.625" fill="#fff" r=".45"/>
 <path d="M0 30.45c.25 0 .45-.2.45-.45s-.2-.45-.45-.45" fill="#fff"/>
 <circle cx="2.563" cy="30" fill="#fff" r=".45"/>
 <circle cx="5.188" cy="30" fill="#fff" r=".45"/>
 <circle cx="7.875" cy="30" fill="#fff" r=".45"/>
 <circle cx="10.438" cy="30" fill="#fff" r=".45"/>
 <circle cx="13" cy="30" fill="#fff" r=".45"/>
 <circle cx="15.625" cy="30" fill="#fff" r=".45"/>
 <circle cx="18.25" cy="30" fill="#fff" r=".45"/>
 <circle cx="20.938" cy="30" fill="#fff" r=".45"/>
 <circle cx="23.563" cy="30" fill="#fff" r=".45"/>
 <circle cx="26.063" cy="30" fill="#fff" r=".45"/>
 <circle cx="28.75" cy="30" fill="#fff" r=".45"/>
 <circle cx="31.375" cy="30" fill="#fff" r=".45"/>
 <circle cx="33.938" cy="30" fill="#fff" r=".45"/>
 <circle cx="36.625" cy="30" fill="#fff" r=".45"/>
 <circle cx="39.188" cy="30" fill="#fff" r=".45"/>
 <circle cx="41.813" cy="30" fill="#fff" r=".45"/>
 <circle cx="44.438" cy="30" fill="#fff" r=".45"/>
 <circle cx="47.063" cy="30" fill="#fff" r=".45"/>
 <path d="M49.7 29.55c-.26 0-.46.2-.46.45s.2.45.45.45" fill="#fff"/>
 <circle cx="48.438" cy="31.25" fill="#fff" r=".45"/>
 <circle cx="45.813" cy="31.25" fill="#fff" r=".45"/>
 <circle cx="43.188" cy="31.25" fill="#fff" r=".45"/>
 <circle cx="40.563" cy="31.25" fill="#fff" r=".45"/>
 <circle cx="37.938" cy="31.25" fill="#fff" r=".45"/>
 <circle cx="35.25" cy="31.25" fill="#fff" r=".45"/>
 <circle cx="32.688" cy="31.25" fill="#fff" r=".45"/>
 <circle cx="30.063" cy="31.25" fill="#fff" r=".45"/>
 <circle cx="27.375" cy="31.25" fill="#fff" r=".45"/>
 <circle cx="24.813" cy="31.25" fill="#fff" r=".45"/>
 <circle cx="22.125" cy="31.25" fill="#fff" r=".45"/>
 <circle cx="19.563" cy="31.25" fill="#fff" r=".45"/>
 <circle cx="16.938" cy="31.25" fill="#fff" r=".45"/>
 <circle cx="14.375" cy="31.25" fill="#fff" r=".45"/>
 <circle cx="11.75" cy="31.25" fill="#fff" r=".45"/>
 <circle cx="9.125" cy="31.25" fill="#fff" r=".45"/>
 <circle cx="6.5" cy="31.25" fill="#fff" r=".45"/>
 <circle cx="3.875" cy="31.25" fill="#fff" r=".45"/>
 <circle cx="1.188" cy="31.25" fill="#fff" r=".45"/>
 <path d="M0 33.08c.25 0 .45-.2.45-.45s-.2-.46-.45-.46" fill="#fff"/>
 <circle cx="2.563" cy="32.625" fill="#fff" r=".45"/>
 <circle cx="5.188" cy="32.625" fill="#fff" r=".45"/>
 <circle cx="7.875" cy="32.625" fill="#fff" r=".45"/>
 <circle cx="10.438" cy="32.625" fill="#fff" r=".45"/>
 <circle cx="13" cy="32.625" fill="#fff" r=".45"/>
 <circle cx="15.625" cy="32.625" fill="#fff" r=".45"/>
 <circle cx="18.25" cy="32.625" fill="#fff" r=".45"/>
 <circle cx="20.938" cy="32.625" fill="#fff" r=".45"/>
 <circle cx="23.563" cy="32.625" fill="#fff" r=".45"/>
 <circle cx="26.063" cy="32.625" fill="#fff" r=".45"/>
 <circle cx="28.75" cy="32.625" fill="#fff" r=".45"/>
 <circle cx="31.375" cy="32.625" fill="#fff" r=".45"/>
 <circle cx="33.938" cy="32.625" fill="#fff" r=".45"/>
 <circle cx="36.625" cy="32.625" fill="#fff" r=".45"/>
 <circle cx="39.188" cy="32.625" fill="#fff" r=".45"/>
 <circle cx="41.813" cy="32.625" fill="#fff" r=".45"/>
 <circle cx="44.438" cy="32.625" fill="#fff" r=".45"/>
 <circle cx="47.063" cy="32.625" fill="#fff" r=".45"/>
 <path d="M49.7 32.18c-.26 0-.46.2-.46.45s.2.45.45.45" fill="#fff"/>
 <circle cx="48.438" cy="33.875" fill="#fff" r=".45"/>
 <circle cx="45.813" cy="33.875" fill="#fff" r=".45"/>
 <circle cx="43.188" cy="33.875" fill="#fff" r=".45"/>
 <circle cx="40.563" cy="33.875" fill="#fff" r=".45"/>
 <circle cx="37.938" cy="33.875" fill="#fff" r=".45"/>
 <circle cx="35.25" cy="33.875" fill="#fff" r=".45"/>
 <circle cx="32.688" cy="33.875" fill="#fff" r=".45"/>
 <circle cx="30.063" cy="33.875" fill="#fff" r=".45"/>
 <circle cx="27.375" cy="33.875" fill="#fff" r=".45"/>
 <circle cx="24.813" cy="33.875" fill="#fff" r=".45"/>
 <circle cx="22.125" cy="33.875" fill="#fff" r=".45"/>
 <circle cx="19.563" cy="33.875" fill="#fff" r=".45"/>
 <circle cx="16.938" cy="33.875" fill="#fff" r=".45"/>
 <circle cx="14.375" cy="33.875" fill="#fff" r=".45"/>
 <circle cx="11.75" cy="33.875" fill="#fff" r=".45"/>
 <circle cx="9.125" cy="33.875" fill="#fff" r=".45"/>
 <circle cx="6.5" cy="33.875" fill="#fff" r=".45"/>
 <circle cx="3.875" cy="33.875" fill="#fff" r=".45"/>
 <circle cx="1.188" cy="33.875" fill="#fff" r=".45"/>
 <path d="M0 35.58c.25 0 .45-.2.45-.45s-.2-.46-.45-.46" fill="#fff"/>
 <circle cx="2.563" cy="35.125" fill="#fff" r=".45"/>
 <circle cx="5.188" cy="35.125" fill="#fff" r=".45"/>
 <circle cx="7.875" cy="35.125" fill="#fff" r=".45"/>
 <circle cx="10.438" cy="35.125" fill="#fff" r=".45"/>
 <circle cx="13" cy="35.125" fill="#fff" r=".45"/>
 <circle cx="15.625" cy="35.125" fill="#fff" r=".45"/>
 <circle cx="18.25" cy="35.125" fill="#fff" r=".45"/>
 <circle cx="20.938" cy="35.125" fill="#fff" r=".45"/>
 <circle cx="23.563" cy="35.125" fill="#fff" r=".45"/>
 <circle cx="26.063" cy="35.125" fill="#fff" r=".45"/>
 <circle cx="28.75" cy="35.125" fill="#fff" r=".45"/>
 <circle cx="31.375" cy="35.125" fill="#fff" r=".45"/>
 <circle cx="33.938" cy="35.125" fill="#fff" r=".45"/>
 <circle cx="36.625" cy="35.125" fill="#fff" r=".45"/>
 <circle cx="39.188" cy="35.125" fill="#fff" r=".45"/>
 <circle cx="41.813" cy="35.125" fill="#fff" r=".45"/>
 <circle cx="44.438" cy="35.125" fill="#fff" r=".45"/>
 <circle cx="47.063" cy="35.125" fill="#fff" r=".45"/>
 <path d="M49.7 34.68c-.26 0-.46.2-.46.45s.2.45.45.45" fill="#fff"/>
 <circle cx="48.438" cy="36.375" fill="#fff" r=".45"/>
 <circle cx="45.813" cy="36.375" fill="#fff" r=".45"/>
 <circle cx="43.188" cy="36.375" fill="#fff" r=".45"/>
 <circle cx="40.563" cy="36.375" fill="#fff" r=".45"/>
 <circle cx="37.938" cy="36.375" fill="#fff" r=".45"/>
 <circle cx="35.25" cy="36.375" fill="#fff" r=".45"/>
 <circle cx="32.688" cy="36.375" fill="#fff" r=".45"/>
 <circle cx="30.063" cy="36.375" fill="#fff" r=".45"/>
 <circle cx="27.375" cy="36.375" fill="#fff" r=".45"/>
 <circle cx="24.813" cy="36.375" fill="#fff" r=".45"/>
 <circle cx="22.125" cy="36.375" fill="#fff" r=".45"/>
 <circle cx="19.563" cy="36.375" fill="#fff" r=".45"/>
 <circle cx="16.938" cy="36.375" fill="#fff" r=".45"/>
 <circle cx="14.375" cy="36.375" fill="#fff" r=".45"/>
 <circle cx="11.75" cy="36.375" fill="#fff" r=".45"/>
 <circle cx="9.125" cy="36.375" fill="#fff" r=".45"/>
 <circle cx="6.5" cy="36.375" fill="#fff" r=".45"/>
 <circle cx="3.875" cy="36.375" fill="#fff" r=".45"/>
 <circle cx="1.188" cy="36.375" fill="#fff" r=".45"/>
 <path d="M0 38.26c.25 0 .45-.2.45-.45 0-.23-.2-.44-.45-.44" fill="#fff"/>
 <circle cx="2.563" cy="37.813" fill="#fff" r=".45"/>
 <circle cx="5.188" cy="37.813" fill="#fff" r=".45"/>
 <circle cx="7.875" cy="37.813" fill="#fff" r=".45"/>
 <circle cx="10.438" cy="37.813" fill="#fff" r=".45"/>
 <circle cx="13" cy="37.813" fill="#fff" r=".45"/>
 <circle cx="15.625" cy="37.813" fill="#fff" r=".45"/>
 <circle cx="18.25" cy="37.813" fill="#fff" r=".45"/>
 <circle cx="20.938" cy="37.813" fill="#fff" r=".45"/>
 <circle cx="23.563" cy="37.813" fill="#fff" r=".45"/>
 <circle cx="26.063" cy="37.813" fill="#fff" r=".45"/>
 <circle cx="28.75" cy="37.813" fill="#fff" r=".45"/>
 <circle cx="31.375" cy="37.813" fill="#fff" r=".45"/>
 <circle cx="33.938" cy="37.813" fill="#fff" r=".45"/>
 <circle cx="36.625" cy="37.813" fill="#fff" r=".45"/>
 <circle cx="39.188" cy="37.813" fill="#fff" r=".45"/>
 <circle cx="41.813" cy="37.813" fill="#fff" r=".45"/>
 <circle cx="44.438" cy="37.813" fill="#fff" r=".45"/>
 <circle cx="47.063" cy="37.813" fill="#fff" r=".45"/>
 <path d="M49.7 37.36c-.26 0-.46.2-.46.45 0 .26.2.46.45.46" fill="#fff"/>
 <circle cx="48.438" cy="39.063" fill="#fff" r=".45"/>
 <circle cx="45.813" cy="39.063" fill="#fff" r=".45"/>
 <circle cx="43.188" cy="39.063" fill="#fff" r=".45"/>
 <circle cx="40.563" cy="39.063" fill="#fff" r=".45"/>
 <circle cx="37.938" cy="39.063" fill="#fff" r=".45"/>
 <circle cx="35.25" cy="39.063" fill="#fff" r=".45"/>
 <circle cx="32.688" cy="39.063" fill="#fff" r=".45"/>
 <circle cx="30.063" cy="39.063" fill="#fff" r=".45"/>
 <circle cx="27.375" cy="39.063" fill="#fff" r=".45"/>
 <circle cx="24.813" cy="39.063" fill="#fff" r=".45"/>
 <circle cx="22.125" cy="39.063" fill="#fff" r=".45"/>
 <circle cx="19.563" cy="39.063" fill="#fff" r=".45"/>
 <circle cx="16.938" cy="39.063" fill="#fff" r=".45"/>
 <circle cx="14.375" cy="39.063" fill="#fff" r=".45"/>
 <circle cx="11.75" cy="39.063" fill="#fff" r=".45"/>
 <circle cx="9.125" cy="39.063" fill="#fff" r=".45"/>
 <circle cx="6.5" cy="39.063" fill="#fff" r=".45"/>
 <circle cx="3.875" cy="39.063" fill="#fff" r=".45"/>
 <circle cx="1.188" cy="39.063" fill="#fff" r=".45"/>
 <path d="M0 40.83c.25 0 .45-.2.45-.45s-.2-.46-.45-.46" fill="#fff"/>
 <circle cx="2.563" cy="40.375" fill="#fff" r=".45"/>
 <circle cx="5.188" cy="40.375" fill="#fff" r=".45"/>
 <circle cx="7.875" cy="40.375" fill="#fff" r=".45"/>
 <circle cx="10.438" cy="40.375" fill="#fff" r=".45"/>
 <circle cx="13" cy="40.375" fill="#fff" r=".45"/>
 <circle cx="15.625" cy="40.375" fill="#fff" r=".45"/>
 <circle cx="18.25" cy="40.375" fill="#fff" r=".45"/>
 <circle cx="20.938" cy="40.375" fill="#fff" r=".45"/>
 <circle cx="23.563" cy="40.375" fill="#fff" r=".45"/>
 <circle cx="26.063" cy="40.375" fill="#fff" r=".45"/>
 <circle cx="28.75" cy="40.375" fill="#fff" r=".45"/>
 <circle cx="31.375" cy="40.375" fill="#fff" r=".45"/>
 <circle cx="33.938" cy="40.375" fill="#fff" r=".45"/>
 <circle cx="36.625" cy="40.375" fill="#fff" r=".45"/>
 <circle cx="39.188" cy="40.375" fill="#fff" r=".45"/>
 <circle cx="41.813" cy="40.375" fill="#fff" r=".45"/>
 <circle cx="44.438" cy="40.375" fill="#fff" r=".45"/>
 <circle cx="47.063" cy="40.375" fill="#fff" r=".45"/>
 <path d="M49.7 39.93c-.26 0-.46.2-.46.45s.2.45.45.45" fill="#fff"/>
 <circle cx="48.438" cy="41.625" fill="#fff" r=".45"/>
 <circle cx="45.813" cy="41.625" fill="#fff" r=".45"/>
 <circle cx="43.188" cy="41.625" fill="#fff" r=".45"/>
 <circle cx="40.563" cy="41.625" fill="#fff" r=".45"/>
 <circle cx="37.938" cy="41.625" fill="#fff" r=".45"/>
 <circle cx="35.25" cy="41.625" fill="#fff" r=".45"/>
 <circle cx="32.688" cy="41.625" fill="#fff" r=".45"/>
 <circle cx="30.063" cy="41.625" fill="#fff" r=".45"/>
 <circle cx="27.375" cy="41.625" fill="#fff" r=".45"/>
 <circle cx="24.813" cy="41.625" fill="#fff" r=".45"/>
 <circle cx="22.125" cy="41.625" fill="#fff" r=".45"/>
 <circle cx="19.563" cy="41.625" fill="#fff" r=".45"/>
 <circle cx="16.938" cy="41.625" fill="#fff" r=".45"/>
 <circle cx="14.375" cy="41.625" fill="#fff" r=".45"/>
 <circle cx="11.75" cy="41.625" fill="#fff" r=".45"/>
 <circle cx="9.125" cy="41.625" fill="#fff" r=".45"/>
 <circle cx="6.5" cy="41.625" fill="#fff" r=".45"/>
 <circle cx="3.875" cy="41.625" fill="#fff" r=".45"/>
 <circle cx="1.188" cy="41.625" fill="#fff" r=".45"/>
 <path d="M0 43.45c.25 0 .45-.2.45-.45s-.2-.45-.45-.45" fill="#fff"/>
 <circle cx="2.563" cy="43" fill="#fff" r=".45"/>
 <circle cx="5.188" cy="43" fill="#fff" r=".45"/>
 <circle cx="7.875" cy="43" fill="#fff" r=".45"/>
 <circle cx="10.438" cy="43" fill="#fff" r=".45"/>
 <circle cx="13" cy="43" fill="#fff" r=".45"/>
 <circle cx="15.625" cy="43" fill="#fff" r=".45"/>
 <circle cx="18.25" cy="43" fill="#fff" r=".45"/>
 <circle cx="20.938" cy="43" fill="#fff" r=".45"/>
 <circle cx="23.563" cy="43" fill="#fff" r=".45"/>
 <circle cx="26.063" cy="43" fill="#fff" r=".45"/>
 <circle cx="28.75" cy="43" fill="#fff" r=".45"/>
 <circle cx="31.375" cy="43" fill="#fff" r=".45"/>
 <circle cx="33.938" cy="43" fill="#fff" r=".45"/>
 <circle cx="36.625" cy="43" fill="#fff" r=".45"/>
 <circle cx="39.188" cy="43" fill="#fff" r=".45"/>
 <circle cx="41.813" cy="43" fill="#fff" r=".45"/>
 <circle cx="44.438" cy="43" fill="#fff" r=".45"/>
 <circle cx="47.063" cy="43" fill="#fff" r=".45"/>
 <path d="M49.7 42.55c-.26 0-.46.2-.46.45s.2.45.45.45" fill="#fff"/>
 <circle cx="48.438" cy="44.25" fill="#fff" r=".45"/>
 <circle cx="45.813" cy="44.25" fill="#fff" r=".45"/>
 <circle cx="43.188" cy="44.25" fill="#fff" r=".45"/>
 <circle cx="40.563" cy="44.25" fill="#fff" r=".45"/>
 <circle cx="37.938" cy="44.25" fill="#fff" r=".45"/>
 <circle cx="35.25" cy="44.25" fill="#fff" r=".45"/>
 <circle cx="32.688" cy="44.25" fill="#fff" r=".45"/>
 <circle cx="30.063" cy="44.25" fill="#fff" r=".45"/>
 <circle cx="27.375" cy="44.25" fill="#fff" r=".45"/>
 <circle cx="24.813" cy="44.25" fill="#fff" r=".45"/>
 <circle cx="22.125" cy="44.25" fill="#fff" r=".45"/>
 <circle cx="19.563" cy="44.25" fill="#fff" r=".45"/>
 <circle cx="16.938" cy="44.25" fill="#fff" r=".45"/>
 <circle cx="14.375" cy="44.25" fill="#fff" r=".45"/>
 <circle cx="11.75" cy="44.25" fill="#fff" r=".45"/>
 <circle cx="9.125" cy="44.25" fill="#fff" r=".45"/>
 <circle cx="6.5" cy="44.25" fill="#fff" r=".45"/>
 <circle cx="3.875" cy="44.25" fill="#fff" r=".45"/>
 <circle cx="1.188" cy="44.25" fill="#fff" r=".45"/>
 <path d="M0 46.08c.25 0 .45-.2.45-.45s-.2-.46-.45-.46" fill="#fff"/>
 <circle cx="2.563" cy="45.625" fill="#fff" r=".45"/>
 <circle cx="5.188" cy="45.625" fill="#fff" r=".45"/>
 <circle cx="7.875" cy="45.625" fill="#fff" r=".45"/>
 <circle cx="10.438" cy="45.625" fill="#fff" r=".45"/>
 <circle cx="13" cy="45.625" fill="#fff" r=".45"/>
 <circle cx="15.625" cy="45.625" fill="#fff" r=".45"/>
 <circle cx="18.25" cy="45.625" fill="#fff" r=".45"/>
 <circle cx="20.938" cy="45.625" fill="#fff" r=".45"/>
 <circle cx="23.563" cy="45.625" fill="#fff" r=".45"/>
 <circle cx="26.063" cy="45.625" fill="#fff" r=".45"/>
 <circle cx="28.75" cy="45.625" fill="#fff" r=".45"/>
 <circle cx="31.375" cy="45.625" fill="#fff" r=".45"/>
 <circle cx="33.938" cy="45.625" fill="#fff" r=".45"/>
 <circle cx="36.625" cy="45.625" fill="#fff" r=".45"/>
 <circle cx="39.188" cy="45.625" fill="#fff" r=".45"/>
 <circle cx="41.813" cy="45.625" fill="#fff" r=".45"/>
 <circle cx="44.438" cy="45.625" fill="#fff" r=".45"/>
 <circle cx="47.063" cy="45.625" fill="#fff" r=".45"/>
 <path d="M49.7 45.18c-.26 0-.46.2-.46.44 0 .26.2.46.45.46" fill="#fff"/>
 <circle cx="48.438" cy="46.875" fill="#fff" r=".45"/>
 <circle cx="45.813" cy="46.875" fill="#fff" r=".45"/>
 <circle cx="43.188" cy="46.875" fill="#fff" r=".45"/>
 <circle cx="40.563" cy="46.875" fill="#fff" r=".45"/>
 <circle cx="37.938" cy="46.875" fill="#fff" r=".45"/>
 <circle cx="35.25" cy="46.875" fill="#fff" r=".45"/>
 <circle cx="32.688" cy="46.875" fill="#fff" r=".45"/>
 <circle cx="30.063" cy="46.875" fill="#fff" r=".45"/>
 <circle cx="27.375" cy="46.875" fill="#fff" r=".45"/>
 <circle cx="24.813" cy="46.875" fill="#fff" r=".45"/>
 <circle cx="22.125" cy="46.875" fill="#fff" r=".45"/>
 <circle cx="19.563" cy="46.875" fill="#fff" r=".45"/>
 <circle cx="16.938" cy="46.875" fill="#fff" r=".45"/>
 <circle cx="14.375" cy="46.875" fill="#fff" r=".45"/>
 <circle cx="11.75" cy="46.875" fill="#fff" r=".45"/>
 <circle cx="9.125" cy="46.875" fill="#fff" r=".45"/>
 <circle cx="6.5" cy="46.875" fill="#fff" r=".45"/>
 <circle cx="3.875" cy="46.875" fill="#fff" r=".45"/>
 <circle cx="1.188" cy="46.875" fill="#fff" r=".45"/>
 <path d="M0 48.7c.25 0 .45-.2.45-.45s-.2-.45-.45-.45" fill="#fff"/>
 <circle cx="2.563" cy="48.25" fill="#fff" r=".45"/>
 <circle cx="5.188" cy="48.25" fill="#fff" r=".45"/>
 <circle cx="7.875" cy="48.25" fill="#fff" r=".45"/>
 <circle cx="10.438" cy="48.25" fill="#fff" r=".45"/>
 <circle cx="13" cy="48.25" fill="#fff" r=".45"/>
 <circle cx="15.625" cy="48.25" fill="#fff" r=".45"/>
 <circle cx="18.25" cy="48.25" fill="#fff" r=".45"/>
 <circle cx="20.938" cy="48.25" fill="#fff" r=".45"/>
 <circle cx="23.563" cy="48.25" fill="#fff" r=".45"/>
 <circle cx="26.063" cy="48.25" fill="#fff" r=".45"/>
 <circle cx="28.75" cy="48.25" fill="#fff" r=".45"/>
 <circle cx="31.375" cy="48.25" fill="#fff" r=".45"/>
 <circle cx="33.938" cy="48.25" fill="#fff" r=".45"/>
 <circle cx="36.625" cy="48.25" fill="#fff" r=".45"/>
 <circle cx="39.188" cy="48.25" fill="#fff" r=".45"/>
 <circle cx="41.813" cy="48.25" fill="#fff" r=".45"/>
 <circle cx="44.438" cy="48.25" fill="#fff" r=".45"/>
 <circle cx="47.063" cy="48.25" fill="#fff" r=".45"/>
 <path d="M49.7 47.8c-.26 0-.46.2-.46.45s.2.45.45.45M48 49.5c0-.25.2-.45.44-.45s.44.2.45.44M45.36 49.5c0-.25.2-.45.45-.45s.46.2.46.44M42.74 49.5c0-.25.2-.45.45-.45s.43.2.44.44M40.1 49.5c.02-.25.22-.45.46-.45s.45.2.45.44M37.5 49.5c0-.25.2-.45.44-.45s.44.2.45.44M34.8 49.5c0-.25.2-.45.45-.45s.45.2.45.44M32.24 49.5c0-.25.2-.45.45-.45s.43.2.44.44M29.6 49.5c0-.25.2-.45.46-.45s.45.2.45.44M26.93 49.5c0-.25.2-.45.45-.45s.44.2.45.44M24.36 49.5c0-.25.2-.45.45-.45s.46.2.46.44M21.68 49.5c0-.25.2-.45.45-.45s.44.2.45.44M19.1 49.5c0-.25.2-.45.46-.45s.45.2.45.44M16.5 49.5c0-.25.2-.45.44-.45s.44.2.45.44M13.93 49.5c0-.25.2-.45.45-.45s.44.2.44.44M11.3 49.5c0-.25.2-.45.45-.45s.45.2.45.44M8.68 49.5c0-.25.2-.45.45-.45s.44.2.44.44M6.05 49.5c0-.25.2-.45.45-.45s.45.2.45.44M3.42 49.5c0-.25.2-.45.45-.45s.45.2.45.44M.74 49.5c0-.25.2-.45.45-.45s.43.2.44.44" fill="#fff"/>
</svg>
