<?xml version="1.0"?>
<!-- Converted with SVG Converter - Version 0.9.5 (Compiled Fri Feb 21 09:53:38 2020) - Copyright (C) 2011 Nokia -->
<svg xmlns="http://www.w3.org/2000/svg" width="49.676" height="49.502" xmlns:xlink="http://www.w3.org/1999/xlink" baseProfile="tiny">
 <path d="M0 0h49.68v49.5H0z" fill="none"/>
 <path d="M48.03 0c0 .22.18.4.4.4s.4-.18.4-.4M45.4 0c0 .22.2.4.4.4s.4-.18.4-.4M42.78 0c0 .22.18.4.4.4s.4-.18.4-.4M40.16 0c0 .22.18.4.4.4s.4-.18.4-.4M37.53 0c0 .22.18.4.4.4s.4-.18.4-.4M34.84 0c0 .22.18.4.4.4s.4-.18.4-.4M32.28 0c0 .22.18.4.4.4s.4-.18.4-.4M29.66 0c0 .22.18.4.4.4s.4-.18.4-.4M26.97 0c0 .22.18.4.4.4s.4-.18.4-.4M24.4 0c0 .22.2.4.4.4s.4-.18.4-.4M21.72 0c0 .22.18.4.4.4s.4-.18.4-.4M19.16 0c0 .22.18.4.4.4s.4-.18.4-.4M16.53 0c0 .22.18.4.4.4s.4-.18.4-.4M13.97 0c0 .22.18.4.4.4s.4-.18.4-.4M11.35 0c0 .22.17.4.4.4s.4-.18.4-.4M8.72 0c0 .22.18.4.4.4s.4-.18.4-.4M6.1 0c0 .22.17.4.4.4s.4-.18.4-.4M3.47 0c0 .22.18.4.4.4s.4-.18.4-.4M.78 0c0 .22.18.4.4.4s.4-.18.4-.4M0 1.7c.22 0 .4-.17.4-.4S.22.93 0 .92"/>
 <circle cx="2.558" cy="1.314" r=".4"/>
 <circle cx="5.183" cy="1.314" r=".4"/>
 <circle cx="7.871" cy="1.314" r=".4"/>
 <circle cx="10.433" cy="1.314" r=".4"/>
 <circle cx="12.996" cy="1.314" r=".4"/>
 <circle cx="15.621" cy="1.314" r=".4"/>
 <circle cx="18.246" cy="1.314" r=".4"/>
 <circle cx="20.933" cy="1.314" r=".4"/>
 <circle cx="23.558" cy="1.314" r=".4"/>
 <circle cx="26.058" cy="1.314" r=".4"/>
 <circle cx="28.746" cy="1.314" r=".4"/>
 <circle cx="31.371" cy="1.314" r=".4"/>
 <circle cx="33.933" cy="1.314" r=".4"/>
 <circle cx="36.621" cy="1.314" r=".4"/>
 <circle cx="39.183" cy="1.314" r=".4"/>
 <circle cx="41.808" cy="1.314" r=".4"/>
 <circle cx="44.433" cy="1.314" r=".4"/>
 <circle cx="47.058" cy="1.314" r=".4"/>
 <path d="M49.68.92c-.22 0-.4.18-.4.4s.18.4.4.4"/>
 <circle cx="48.433" cy="2.564" r=".4"/>
 <circle cx="45.808" cy="2.564" r=".4"/>
 <circle cx="43.183" cy="2.564" r=".4"/>
 <circle cx="40.558" cy="2.564" r=".4"/>
 <circle cx="37.933" cy="2.564" r=".4"/>
 <circle cx="35.246" cy="2.564" r=".4"/>
 <circle cx="32.683" cy="2.564" r=".4"/>
 <circle cx="30.058" cy="2.564" r=".4"/>
 <circle cx="27.371" cy="2.564" r=".4"/>
 <circle cx="24.808" cy="2.564" r=".4"/>
 <circle cx="22.121" cy="2.564" r=".4"/>
 <circle cx="19.558" cy="2.564" r=".4"/>
 <circle cx="16.933" cy="2.564" r=".4"/>
 <circle cx="14.371" cy="2.564" r=".4"/>
 <circle cx="11.746" cy="2.564" r=".4"/>
 <circle cx="9.121" cy="2.564" r=".4"/>
 <circle cx="6.496" cy="2.564" r=".4"/>
 <circle cx="3.871" cy="2.564" r=".4"/>
 <circle cx="1.183" cy="2.564" r=".4"/>
 <path d="M0 4.28c.22 0 .4-.18.4-.4s-.18-.4-.4-.4"/>
 <circle cx="2.558" cy="3.877" r=".4"/>
 <circle cx="5.183" cy="3.877" r=".4"/>
 <circle cx="7.871" cy="3.877" r=".4"/>
 <circle cx="10.433" cy="3.877" r=".4"/>
 <circle cx="12.996" cy="3.877" r=".4"/>
 <circle cx="15.621" cy="3.877" r=".4"/>
 <circle cx="18.246" cy="3.877" r=".4"/>
 <circle cx="20.933" cy="3.877" r=".4"/>
 <circle cx="23.558" cy="3.877" r=".4"/>
 <circle cx="26.058" cy="3.877" r=".4"/>
 <circle cx="28.746" cy="3.877" r=".4"/>
 <circle cx="31.371" cy="3.877" r=".4"/>
 <circle cx="33.933" cy="3.877" r=".4"/>
 <circle cx="36.621" cy="3.877" r=".4"/>
 <circle cx="39.183" cy="3.877" r=".4"/>
 <circle cx="41.808" cy="3.877" r=".4"/>
 <circle cx="44.433" cy="3.877" r=".4"/>
 <circle cx="47.058" cy="3.877" r=".4"/>
 <path d="M49.68 3.48c-.22 0-.4.18-.4.4s.18.4.4.4"/>
 <circle cx="48.433" cy="5.127" r=".4"/>
 <circle cx="45.808" cy="5.127" r=".4"/>
 <circle cx="43.183" cy="5.127" r=".4"/>
 <circle cx="40.558" cy="5.127" r=".4"/>
 <circle cx="37.933" cy="5.127" r=".4"/>
 <circle cx="35.246" cy="5.127" r=".4"/>
 <circle cx="32.683" cy="5.127" r=".4"/>
 <circle cx="30.058" cy="5.127" r=".4"/>
 <circle cx="27.371" cy="5.127" r=".4"/>
 <circle cx="24.808" cy="5.127" r=".4"/>
 <circle cx="22.121" cy="5.127" r=".4"/>
 <circle cx="19.558" cy="5.127" r=".4"/>
 <circle cx="16.933" cy="5.127" r=".4"/>
 <circle cx="14.371" cy="5.127" r=".4"/>
 <circle cx="11.746" cy="5.127" r=".4"/>
 <circle cx="9.121" cy="5.127" r=".4"/>
 <circle cx="6.496" cy="5.127" r=".4"/>
 <circle cx="3.871" cy="5.127" r=".4"/>
 <circle cx="1.183" cy="5.127" r=".4"/>
 <path d="M0 6.9c.22 0 .4-.18.4-.4s-.18-.4-.4-.4"/>
 <circle cx="2.558" cy="6.502" r=".4"/>
 <circle cx="5.183" cy="6.502" r=".4"/>
 <circle cx="7.871" cy="6.502" r=".4"/>
 <circle cx="10.433" cy="6.502" r=".4"/>
 <circle cx="12.996" cy="6.502" r=".4"/>
 <circle cx="15.621" cy="6.502" r=".4"/>
 <circle cx="18.246" cy="6.502" r=".4"/>
 <circle cx="20.933" cy="6.502" r=".4"/>
 <circle cx="23.558" cy="6.502" r=".4"/>
 <circle cx="26.058" cy="6.502" r=".4"/>
 <circle cx="28.746" cy="6.502" r=".4"/>
 <circle cx="31.371" cy="6.502" r=".4"/>
 <circle cx="33.933" cy="6.502" r=".4"/>
 <circle cx="36.621" cy="6.502" r=".4"/>
 <circle cx="39.183" cy="6.502" r=".4"/>
 <circle cx="41.808" cy="6.502" r=".4"/>
 <circle cx="44.433" cy="6.502" r=".4"/>
 <circle cx="47.058" cy="6.502" r=".4"/>
 <path d="M49.68 6.1c-.22 0-.4.18-.4.4s.18.4.4.4"/>
 <circle cx="48.433" cy="7.752" r=".4"/>
 <circle cx="45.808" cy="7.752" r=".4"/>
 <circle cx="43.183" cy="7.752" r=".4"/>
 <circle cx="40.558" cy="7.752" r=".4"/>
 <circle cx="37.933" cy="7.752" r=".4"/>
 <circle cx="35.246" cy="7.752" r=".4"/>
 <circle cx="32.683" cy="7.752" r=".4"/>
 <circle cx="30.058" cy="7.752" r=".4"/>
 <circle cx="27.371" cy="7.752" r=".4"/>
 <circle cx="24.808" cy="7.752" r=".4"/>
 <circle cx="22.121" cy="7.752" r=".4"/>
 <circle cx="19.558" cy="7.752" r=".4"/>
 <circle cx="16.933" cy="7.752" r=".4"/>
 <circle cx="14.371" cy="7.752" r=".4"/>
 <circle cx="11.746" cy="7.752" r=".4"/>
 <circle cx="9.121" cy="7.752" r=".4"/>
 <circle cx="6.496" cy="7.752" r=".4"/>
 <circle cx="3.871" cy="7.752" r=".4"/>
 <circle cx="1.183" cy="7.752" r=".4"/>
 <path d="M0 9.53c.22 0 .4-.18.4-.4s-.18-.4-.4-.4"/>
 <circle cx="2.558" cy="9.127" r=".4"/>
 <circle cx="5.183" cy="9.127" r=".4"/>
 <circle cx="7.871" cy="9.127" r=".4"/>
 <circle cx="10.433" cy="9.127" r=".4"/>
 <circle cx="12.996" cy="9.127" r=".4"/>
 <circle cx="15.621" cy="9.127" r=".4"/>
 <circle cx="18.246" cy="9.127" r=".4"/>
 <circle cx="20.933" cy="9.127" r=".4"/>
 <circle cx="23.558" cy="9.127" r=".4"/>
 <circle cx="26.058" cy="9.127" r=".4"/>
 <circle cx="28.746" cy="9.127" r=".4"/>
 <circle cx="31.371" cy="9.127" r=".4"/>
 <circle cx="33.933" cy="9.127" r=".4"/>
 <circle cx="36.621" cy="9.127" r=".4"/>
 <circle cx="39.183" cy="9.127" r=".4"/>
 <circle cx="41.808" cy="9.127" r=".4"/>
 <circle cx="44.433" cy="9.127" r=".4"/>
 <circle cx="47.058" cy="9.127" r=".4"/>
 <path d="M49.68 8.73c-.22 0-.4.18-.4.4s.18.4.4.4"/>
 <circle cx="48.433" cy="10.377" r=".4"/>
 <circle cx="45.808" cy="10.377" r=".4"/>
 <circle cx="43.183" cy="10.377" r=".4"/>
 <circle cx="40.558" cy="10.377" r=".4"/>
 <circle cx="37.933" cy="10.377" r=".4"/>
 <circle cx="35.246" cy="10.377" r=".4"/>
 <circle cx="32.683" cy="10.377" r=".4"/>
 <circle cx="30.058" cy="10.377" r=".4"/>
 <circle cx="27.371" cy="10.377" r=".4"/>
 <circle cx="24.808" cy="10.377" r=".4"/>
 <circle cx="22.121" cy="10.377" r=".4"/>
 <circle cx="19.558" cy="10.377" r=".4"/>
 <circle cx="16.933" cy="10.377" r=".4"/>
 <circle cx="14.371" cy="10.377" r=".4"/>
 <circle cx="11.746" cy="10.377" r=".4"/>
 <circle cx="9.121" cy="10.377" r=".4"/>
 <circle cx="6.496" cy="10.377" r=".4"/>
 <circle cx="3.871" cy="10.377" r=".4"/>
 <circle cx="1.183" cy="10.377" r=".4"/>
 <path d="M0 12.15c.22 0 .4-.18.4-.4s-.18-.4-.4-.4"/>
 <circle cx="2.558" cy="11.752" r=".4"/>
 <circle cx="5.183" cy="11.752" r=".4"/>
 <circle cx="7.871" cy="11.752" r=".4"/>
 <circle cx="10.433" cy="11.752" r=".4"/>
 <circle cx="12.996" cy="11.752" r=".4"/>
 <circle cx="15.621" cy="11.752" r=".4"/>
 <circle cx="18.246" cy="11.752" r=".4"/>
 <circle cx="20.933" cy="11.752" r=".4"/>
 <circle cx="23.558" cy="11.752" r=".4"/>
 <circle cx="26.058" cy="11.752" r=".4"/>
 <circle cx="28.746" cy="11.752" r=".4"/>
 <circle cx="31.371" cy="11.752" r=".4"/>
 <circle cx="33.933" cy="11.752" r=".4"/>
 <circle cx="36.621" cy="11.752" r=".4"/>
 <circle cx="39.183" cy="11.752" r=".4"/>
 <circle cx="41.808" cy="11.752" r=".4"/>
 <circle cx="44.433" cy="11.752" r=".4"/>
 <circle cx="47.058" cy="11.752" r=".4"/>
 <path d="M49.68 11.35c-.22 0-.4.18-.4.4s.18.4.4.4"/>
 <circle cx="48.433" cy="13.002" r=".4"/>
 <circle cx="45.808" cy="13.002" r=".4"/>
 <circle cx="43.183" cy="13.002" r=".4"/>
 <circle cx="40.558" cy="13.002" r=".4"/>
 <circle cx="37.933" cy="13.002" r=".4"/>
 <circle cx="35.246" cy="13.002" r=".4"/>
 <circle cx="32.683" cy="13.002" r=".4"/>
 <circle cx="30.058" cy="13.002" r=".4"/>
 <circle cx="27.371" cy="13.002" r=".4"/>
 <circle cx="24.808" cy="13.002" r=".4"/>
 <circle cx="22.121" cy="13.002" r=".4"/>
 <circle cx="19.558" cy="13.002" r=".4"/>
 <circle cx="16.933" cy="13.002" r=".4"/>
 <circle cx="14.371" cy="13.002" r=".4"/>
 <circle cx="11.746" cy="13.002" r=".4"/>
 <circle cx="9.121" cy="13.002" r=".4"/>
 <circle cx="6.496" cy="13.002" r=".4"/>
 <circle cx="3.871" cy="13.002" r=".4"/>
 <circle cx="1.183" cy="13.002" r=".4"/>
 <path d="M0 14.7c.22 0 .4-.17.4-.4s-.18-.38-.4-.4"/>
 <circle cx="2.558" cy="14.314" r=".4"/>
 <circle cx="5.183" cy="14.314" r=".4"/>
 <circle cx="7.871" cy="14.314" r=".4"/>
 <circle cx="10.433" cy="14.314" r=".4"/>
 <circle cx="12.996" cy="14.314" r=".4"/>
 <circle cx="15.621" cy="14.314" r=".4"/>
 <circle cx="18.246" cy="14.314" r=".4"/>
 <circle cx="20.933" cy="14.314" r=".4"/>
 <circle cx="23.558" cy="14.314" r=".4"/>
 <circle cx="26.058" cy="14.314" r=".4"/>
 <circle cx="28.746" cy="14.314" r=".4"/>
 <circle cx="31.371" cy="14.314" r=".4"/>
 <circle cx="33.933" cy="14.314" r=".4"/>
 <circle cx="36.621" cy="14.314" r=".4"/>
 <circle cx="39.183" cy="14.314" r=".4"/>
 <circle cx="41.808" cy="14.314" r=".4"/>
 <circle cx="44.433" cy="14.314" r=".4"/>
 <circle cx="47.058" cy="14.314" r=".4"/>
 <path d="M49.68 13.9c-.22.02-.4.2-.4.4s.18.4.4.4"/>
 <circle cx="48.433" cy="15.564" r=".4"/>
 <circle cx="45.808" cy="15.564" r=".4"/>
 <circle cx="43.183" cy="15.564" r=".4"/>
 <circle cx="40.558" cy="15.564" r=".4"/>
 <circle cx="37.933" cy="15.564" r=".4"/>
 <circle cx="35.246" cy="15.564" r=".4"/>
 <circle cx="32.683" cy="15.564" r=".4"/>
 <circle cx="30.058" cy="15.564" r=".4"/>
 <circle cx="27.371" cy="15.564" r=".4"/>
 <circle cx="24.808" cy="15.564" r=".4"/>
 <circle cx="22.121" cy="15.564" r=".4"/>
 <circle cx="19.558" cy="15.564" r=".4"/>
 <circle cx="16.933" cy="15.564" r=".4"/>
 <circle cx="14.371" cy="15.564" r=".4"/>
 <circle cx="11.746" cy="15.564" r=".4"/>
 <circle cx="9.121" cy="15.564" r=".4"/>
 <circle cx="6.496" cy="15.564" r=".4"/>
 <circle cx="3.871" cy="15.564" r=".4"/>
 <circle cx="1.183" cy="15.564" r=".4"/>
 <path d="M0 17.34c.22 0 .4-.18.4-.4s-.18-.4-.4-.4"/>
 <circle cx="2.558" cy="16.939" r=".4"/>
 <circle cx="5.183" cy="16.939" r=".4"/>
 <circle cx="7.871" cy="16.939" r=".4"/>
 <circle cx="10.433" cy="16.939" r=".4"/>
 <circle cx="12.996" cy="16.939" r=".4"/>
 <circle cx="15.621" cy="16.939" r=".4"/>
 <circle cx="18.246" cy="16.939" r=".4"/>
 <circle cx="20.933" cy="16.939" r=".4"/>
 <circle cx="23.558" cy="16.939" r=".4"/>
 <circle cx="26.058" cy="16.939" r=".4"/>
 <circle cx="28.746" cy="16.939" r=".4"/>
 <circle cx="31.371" cy="16.939" r=".4"/>
 <circle cx="33.933" cy="16.939" r=".4"/>
 <circle cx="36.621" cy="16.939" r=".4"/>
 <circle cx="39.183" cy="16.939" r=".4"/>
 <circle cx="41.808" cy="16.939" r=".4"/>
 <circle cx="44.433" cy="16.939" r=".4"/>
 <circle cx="47.058" cy="16.939" r=".4"/>
 <path d="M49.68 16.54c-.22 0-.4.18-.4.4s.18.4.4.4"/>
 <circle cx="48.433" cy="18.189" r=".4"/>
 <circle cx="45.808" cy="18.189" r=".4"/>
 <circle cx="43.183" cy="18.189" r=".4"/>
 <circle cx="40.558" cy="18.189" r=".4"/>
 <circle cx="37.933" cy="18.189" r=".4"/>
 <circle cx="35.246" cy="18.189" r=".4"/>
 <circle cx="32.683" cy="18.189" r=".4"/>
 <circle cx="30.058" cy="18.189" r=".4"/>
 <circle cx="27.371" cy="18.189" r=".4"/>
 <circle cx="24.808" cy="18.189" r=".4"/>
 <circle cx="22.121" cy="18.189" r=".4"/>
 <circle cx="19.558" cy="18.189" r=".4"/>
 <circle cx="16.933" cy="18.189" r=".4"/>
 <circle cx="14.371" cy="18.189" r=".4"/>
 <circle cx="11.746" cy="18.189" r=".4"/>
 <circle cx="9.121" cy="18.189" r=".4"/>
 <circle cx="6.496" cy="18.189" r=".4"/>
 <circle cx="3.871" cy="18.189" r=".4"/>
 <circle cx="1.183" cy="18.189" r=".4"/>
 <path d="M0 19.96c.22 0 .4-.18.4-.4s-.18-.4-.4-.4"/>
 <circle cx="2.558" cy="19.564" r=".4"/>
 <circle cx="5.183" cy="19.564" r=".4"/>
 <circle cx="7.871" cy="19.564" r=".4"/>
 <circle cx="10.433" cy="19.564" r=".4"/>
 <circle cx="12.996" cy="19.564" r=".4"/>
 <circle cx="15.621" cy="19.564" r=".4"/>
 <circle cx="18.246" cy="19.564" r=".4"/>
 <circle cx="20.933" cy="19.564" r=".4"/>
 <circle cx="23.558" cy="19.564" r=".4"/>
 <circle cx="26.058" cy="19.564" r=".4"/>
 <circle cx="28.746" cy="19.564" r=".4"/>
 <circle cx="31.371" cy="19.564" r=".4"/>
 <circle cx="33.933" cy="19.564" r=".4"/>
 <circle cx="36.621" cy="19.564" r=".4"/>
 <circle cx="39.183" cy="19.564" r=".4"/>
 <circle cx="41.808" cy="19.564" r=".4"/>
 <circle cx="44.433" cy="19.564" r=".4"/>
 <circle cx="47.058" cy="19.564" r=".4"/>
 <path d="M49.68 19.16c-.22 0-.4.2-.4.4s.18.4.4.4"/>
 <circle cx="48.433" cy="20.814" r=".4"/>
 <circle cx="45.808" cy="20.814" r=".4"/>
 <circle cx="43.183" cy="20.814" r=".4"/>
 <circle cx="40.558" cy="20.814" r=".4"/>
 <circle cx="37.933" cy="20.814" r=".4"/>
 <circle cx="35.246" cy="20.814" r=".4"/>
 <circle cx="32.683" cy="20.814" r=".4"/>
 <circle cx="30.058" cy="20.814" r=".4"/>
 <circle cx="27.371" cy="20.814" r=".4"/>
 <circle cx="24.808" cy="20.814" r=".4"/>
 <circle cx="22.121" cy="20.814" r=".4"/>
 <circle cx="19.558" cy="20.814" r=".4"/>
 <circle cx="16.933" cy="20.814" r=".4"/>
 <circle cx="14.371" cy="20.814" r=".4"/>
 <circle cx="11.746" cy="20.814" r=".4"/>
 <circle cx="9.121" cy="20.814" r=".4"/>
 <circle cx="6.496" cy="20.814" r=".4"/>
 <circle cx="3.871" cy="20.814" r=".4"/>
 <circle cx="1.183" cy="20.814" r=".4"/>
 <path d="M0 22.6c.22 0 .4-.2.4-.4s-.18-.4-.4-.4"/>
 <circle cx="2.558" cy="22.189" r=".4"/>
 <circle cx="5.183" cy="22.189" r=".4"/>
 <circle cx="7.871" cy="22.189" r=".4"/>
 <circle cx="10.433" cy="22.189" r=".4"/>
 <circle cx="12.996" cy="22.189" r=".4"/>
 <circle cx="15.621" cy="22.189" r=".4"/>
 <circle cx="18.246" cy="22.189" r=".4"/>
 <circle cx="20.933" cy="22.189" r=".4"/>
 <circle cx="23.558" cy="22.189" r=".4"/>
 <circle cx="26.058" cy="22.189" r=".4"/>
 <circle cx="28.746" cy="22.189" r=".4"/>
 <circle cx="31.371" cy="22.189" r=".4"/>
 <circle cx="33.933" cy="22.189" r=".4"/>
 <circle cx="36.621" cy="22.189" r=".4"/>
 <circle cx="39.183" cy="22.189" r=".4"/>
 <circle cx="41.808" cy="22.189" r=".4"/>
 <circle cx="44.433" cy="22.189" r=".4"/>
 <circle cx="47.058" cy="22.189" r=".4"/>
 <path d="M49.68 21.8c-.22 0-.4.17-.4.4s.18.4.4.4"/>
 <circle cx="48.433" cy="23.439" r=".4"/>
 <circle cx="45.808" cy="23.439" r=".4"/>
 <circle cx="43.183" cy="23.439" r=".4"/>
 <circle cx="40.558" cy="23.439" r=".4"/>
 <circle cx="37.933" cy="23.439" r=".4"/>
 <circle cx="35.246" cy="23.439" r=".4"/>
 <circle cx="32.683" cy="23.439" r=".4"/>
 <circle cx="30.058" cy="23.439" r=".4"/>
 <circle cx="27.371" cy="23.439" r=".4"/>
 <circle cx="24.808" cy="23.439" r=".4"/>
 <circle cx="22.121" cy="23.439" r=".4"/>
 <circle cx="19.558" cy="23.439" r=".4"/>
 <circle cx="16.933" cy="23.439" r=".4"/>
 <circle cx="14.371" cy="23.439" r=".4"/>
 <circle cx="11.746" cy="23.439" r=".4"/>
 <circle cx="9.121" cy="23.439" r=".4"/>
 <circle cx="6.496" cy="23.439" r=".4"/>
 <circle cx="3.871" cy="23.439" r=".4"/>
 <circle cx="1.183" cy="23.439" r=".4"/>
 <path d="M0 25.15c.22 0 .4-.18.4-.4s-.18-.4-.4-.4"/>
 <circle cx="2.558" cy="24.752" r=".4"/>
 <circle cx="5.183" cy="24.752" r=".4"/>
 <circle cx="7.871" cy="24.752" r=".4"/>
 <circle cx="10.433" cy="24.752" r=".4"/>
 <circle cx="12.996" cy="24.752" r=".4"/>
 <circle cx="15.621" cy="24.752" r=".4"/>
 <circle cx="18.246" cy="24.752" r=".4"/>
 <circle cx="20.933" cy="24.752" r=".4"/>
 <circle cx="23.558" cy="24.752" r=".4"/>
 <circle cx="26.058" cy="24.752" r=".4"/>
 <circle cx="28.746" cy="24.752" r=".4"/>
 <circle cx="31.371" cy="24.752" r=".4"/>
 <circle cx="33.933" cy="24.752" r=".4"/>
 <circle cx="36.621" cy="24.752" r=".4"/>
 <circle cx="39.183" cy="24.752" r=".4"/>
 <circle cx="41.808" cy="24.752" r=".4"/>
 <circle cx="44.433" cy="24.752" r=".4"/>
 <circle cx="47.058" cy="24.752" r=".4"/>
 <path d="M49.68 24.35c-.22 0-.4.18-.4.4s.18.4.4.4"/>
 <circle cx="48.433" cy="26.002" r=".4"/>
 <circle cx="45.808" cy="26.002" r=".4"/>
 <circle cx="43.183" cy="26.002" r=".4"/>
 <circle cx="40.558" cy="26.002" r=".4"/>
 <circle cx="37.933" cy="26.002" r=".4"/>
 <circle cx="35.246" cy="26.002" r=".4"/>
 <circle cx="32.683" cy="26.002" r=".4"/>
 <circle cx="30.058" cy="26.002" r=".4"/>
 <circle cx="27.371" cy="26.002" r=".4"/>
 <circle cx="24.808" cy="26.002" r=".4"/>
 <circle cx="22.121" cy="26.002" r=".4"/>
 <circle cx="19.558" cy="26.002" r=".4"/>
 <circle cx="16.933" cy="26.002" r=".4"/>
 <circle cx="14.371" cy="26.002" r=".4"/>
 <circle cx="11.746" cy="26.002" r=".4"/>
 <circle cx="9.121" cy="26.002" r=".4"/>
 <circle cx="6.496" cy="26.002" r=".4"/>
 <circle cx="3.871" cy="26.002" r=".4"/>
 <circle cx="1.183" cy="26.002" r=".4"/>
 <path d="M0 27.78c.22 0 .4-.18.4-.4s-.18-.4-.4-.4"/>
 <circle cx="2.558" cy="27.377" r=".4"/>
 <circle cx="5.183" cy="27.377" r=".4"/>
 <circle cx="7.871" cy="27.377" r=".4"/>
 <circle cx="10.433" cy="27.377" r=".4"/>
 <circle cx="12.996" cy="27.377" r=".4"/>
 <circle cx="15.621" cy="27.377" r=".4"/>
 <circle cx="18.246" cy="27.377" r=".4"/>
 <circle cx="20.933" cy="27.377" r=".4"/>
 <circle cx="23.558" cy="27.377" r=".4"/>
 <circle cx="26.058" cy="27.377" r=".4"/>
 <circle cx="28.746" cy="27.377" r=".4"/>
 <circle cx="31.371" cy="27.377" r=".4"/>
 <circle cx="33.933" cy="27.377" r=".4"/>
 <circle cx="36.621" cy="27.377" r=".4"/>
 <circle cx="39.183" cy="27.377" r=".4"/>
 <circle cx="41.808" cy="27.377" r=".4"/>
 <circle cx="44.433" cy="27.377" r=".4"/>
 <circle cx="47.058" cy="27.377" r=".4"/>
 <path d="M49.68 26.98c-.22 0-.4.18-.4.4s.18.4.4.4"/>
 <circle cx="48.433" cy="28.627" r=".4"/>
 <circle cx="45.808" cy="28.627" r=".4"/>
 <circle cx="43.183" cy="28.627" r=".4"/>
 <circle cx="40.558" cy="28.627" r=".4"/>
 <circle cx="37.933" cy="28.627" r=".4"/>
 <circle cx="35.246" cy="28.627" r=".4"/>
 <circle cx="32.683" cy="28.627" r=".4"/>
 <circle cx="30.058" cy="28.627" r=".4"/>
 <circle cx="27.371" cy="28.627" r=".4"/>
 <circle cx="24.808" cy="28.627" r=".4"/>
 <circle cx="22.121" cy="28.627" r=".4"/>
 <circle cx="19.558" cy="28.627" r=".4"/>
 <circle cx="16.933" cy="28.627" r=".4"/>
 <circle cx="14.371" cy="28.627" r=".4"/>
 <circle cx="11.746" cy="28.627" r=".4"/>
 <circle cx="9.121" cy="28.627" r=".4"/>
 <circle cx="6.496" cy="28.627" r=".4"/>
 <circle cx="3.871" cy="28.627" r=".4"/>
 <circle cx="1.183" cy="28.627" r=".4"/>
 <path d="M0 30.4c.22 0 .4-.18.4-.4s-.18-.4-.4-.4"/>
 <circle cx="2.558" cy="30.002" r=".4"/>
 <circle cx="5.183" cy="30.002" r=".4"/>
 <circle cx="7.871" cy="30.002" r=".4"/>
 <circle cx="10.433" cy="30.002" r=".4"/>
 <circle cx="12.996" cy="30.002" r=".4"/>
 <circle cx="15.621" cy="30.002" r=".4"/>
 <circle cx="18.246" cy="30.002" r=".4"/>
 <circle cx="20.933" cy="30.002" r=".4"/>
 <circle cx="23.558" cy="30.002" r=".4"/>
 <circle cx="26.058" cy="30.002" r=".4"/>
 <circle cx="28.746" cy="30.002" r=".4"/>
 <circle cx="31.371" cy="30.002" r=".4"/>
 <circle cx="33.933" cy="30.002" r=".4"/>
 <circle cx="36.621" cy="30.002" r=".4"/>
 <circle cx="39.183" cy="30.002" r=".4"/>
 <circle cx="41.808" cy="30.002" r=".4"/>
 <circle cx="44.433" cy="30.002" r=".4"/>
 <circle cx="47.058" cy="30.002" r=".4"/>
 <path d="M49.68 29.6c-.22 0-.4.18-.4.4s.18.4.4.4"/>
 <circle cx="48.433" cy="31.252" r=".4"/>
 <circle cx="45.808" cy="31.252" r=".4"/>
 <circle cx="43.183" cy="31.252" r=".4"/>
 <circle cx="40.558" cy="31.252" r=".4"/>
 <circle cx="37.933" cy="31.252" r=".4"/>
 <circle cx="35.246" cy="31.252" r=".4"/>
 <circle cx="32.683" cy="31.252" r=".4"/>
 <circle cx="30.058" cy="31.252" r=".4"/>
 <circle cx="27.371" cy="31.252" r=".4"/>
 <circle cx="24.808" cy="31.252" r=".4"/>
 <circle cx="22.121" cy="31.252" r=".4"/>
 <circle cx="19.558" cy="31.252" r=".4"/>
 <circle cx="16.933" cy="31.252" r=".4"/>
 <circle cx="14.371" cy="31.252" r=".4"/>
 <circle cx="11.746" cy="31.252" r=".4"/>
 <circle cx="9.121" cy="31.252" r=".4"/>
 <circle cx="6.496" cy="31.252" r=".4"/>
 <circle cx="3.871" cy="31.252" r=".4"/>
 <circle cx="1.183" cy="31.252" r=".4"/>
 <path d="M0 33.03c.22 0 .4-.18.4-.4s-.18-.4-.4-.4"/>
 <circle cx="2.558" cy="32.627" r=".4"/>
 <circle cx="5.183" cy="32.627" r=".4"/>
 <circle cx="7.871" cy="32.627" r=".4"/>
 <circle cx="10.433" cy="32.627" r=".4"/>
 <circle cx="12.996" cy="32.627" r=".4"/>
 <circle cx="15.621" cy="32.627" r=".4"/>
 <circle cx="18.246" cy="32.627" r=".4"/>
 <circle cx="20.933" cy="32.627" r=".4"/>
 <circle cx="23.558" cy="32.627" r=".4"/>
 <circle cx="26.058" cy="32.627" r=".4"/>
 <circle cx="28.746" cy="32.627" r=".4"/>
 <circle cx="31.371" cy="32.627" r=".4"/>
 <circle cx="33.933" cy="32.627" r=".4"/>
 <circle cx="36.621" cy="32.627" r=".4"/>
 <circle cx="39.183" cy="32.627" r=".4"/>
 <circle cx="41.808" cy="32.627" r=".4"/>
 <circle cx="44.433" cy="32.627" r=".4"/>
 <circle cx="47.058" cy="32.627" r=".4"/>
 <path d="M49.68 32.23c-.22 0-.4.18-.4.4s.18.4.4.4"/>
 <circle cx="48.433" cy="33.877" r=".4"/>
 <circle cx="45.808" cy="33.877" r=".4"/>
 <circle cx="43.183" cy="33.877" r=".4"/>
 <circle cx="40.558" cy="33.877" r=".4"/>
 <circle cx="37.933" cy="33.877" r=".4"/>
 <circle cx="35.246" cy="33.877" r=".4"/>
 <circle cx="32.683" cy="33.877" r=".4"/>
 <circle cx="30.058" cy="33.877" r=".4"/>
 <circle cx="27.371" cy="33.877" r=".4"/>
 <circle cx="24.808" cy="33.877" r=".4"/>
 <circle cx="22.121" cy="33.877" r=".4"/>
 <circle cx="19.558" cy="33.877" r=".4"/>
 <circle cx="16.933" cy="33.877" r=".4"/>
 <circle cx="14.371" cy="33.877" r=".4"/>
 <circle cx="11.746" cy="33.877" r=".4"/>
 <circle cx="9.121" cy="33.877" r=".4"/>
 <circle cx="6.496" cy="33.877" r=".4"/>
 <circle cx="3.871" cy="33.877" r=".4"/>
 <circle cx="1.183" cy="33.877" r=".4"/>
 <path d="M0 35.53c.22 0 .4-.18.4-.4s-.18-.4-.4-.4"/>
 <circle cx="2.558" cy="35.127" r=".4"/>
 <circle cx="5.183" cy="35.127" r=".4"/>
 <circle cx="7.871" cy="35.127" r=".4"/>
 <circle cx="10.433" cy="35.127" r=".4"/>
 <circle cx="12.996" cy="35.127" r=".4"/>
 <circle cx="15.621" cy="35.127" r=".4"/>
 <circle cx="18.246" cy="35.127" r=".4"/>
 <circle cx="20.933" cy="35.127" r=".4"/>
 <circle cx="23.558" cy="35.127" r=".4"/>
 <circle cx="26.058" cy="35.127" r=".4"/>
 <circle cx="28.746" cy="35.127" r=".4"/>
 <circle cx="31.371" cy="35.127" r=".4"/>
 <circle cx="33.933" cy="35.127" r=".4"/>
 <circle cx="36.621" cy="35.127" r=".4"/>
 <circle cx="39.183" cy="35.127" r=".4"/>
 <circle cx="41.808" cy="35.127" r=".4"/>
 <circle cx="44.433" cy="35.127" r=".4"/>
 <circle cx="47.058" cy="35.127" r=".4"/>
 <path d="M49.68 34.73c-.22 0-.4.18-.4.4s.18.4.4.4"/>
 <circle cx="48.433" cy="36.377" r=".4"/>
 <circle cx="45.808" cy="36.377" r=".4"/>
 <circle cx="43.183" cy="36.377" r=".4"/>
 <circle cx="40.558" cy="36.377" r=".4"/>
 <circle cx="37.933" cy="36.377" r=".4"/>
 <circle cx="35.246" cy="36.377" r=".4"/>
 <circle cx="32.683" cy="36.377" r=".4"/>
 <circle cx="30.058" cy="36.377" r=".4"/>
 <circle cx="27.371" cy="36.377" r=".4"/>
 <circle cx="24.808" cy="36.377" r=".4"/>
 <circle cx="22.121" cy="36.377" r=".4"/>
 <circle cx="19.558" cy="36.377" r=".4"/>
 <circle cx="16.933" cy="36.377" r=".4"/>
 <circle cx="14.371" cy="36.377" r=".4"/>
 <circle cx="11.746" cy="36.377" r=".4"/>
 <circle cx="9.121" cy="36.377" r=".4"/>
 <circle cx="6.496" cy="36.377" r=".4"/>
 <circle cx="3.871" cy="36.377" r=".4"/>
 <circle cx="1.183" cy="36.377" r=".4"/>
 <path d="M0 38.2c.22 0 .4-.17.4-.4s-.18-.38-.4-.38"/>
 <circle cx="2.558" cy="37.814" r=".4"/>
 <circle cx="5.183" cy="37.814" r=".4"/>
 <circle cx="7.871" cy="37.814" r=".4"/>
 <circle cx="10.433" cy="37.814" r=".4"/>
 <circle cx="12.996" cy="37.814" r=".4"/>
 <circle cx="15.621" cy="37.814" r=".4"/>
 <circle cx="18.246" cy="37.814" r=".4"/>
 <circle cx="20.933" cy="37.814" r=".4"/>
 <circle cx="23.558" cy="37.814" r=".4"/>
 <circle cx="26.058" cy="37.814" r=".4"/>
 <circle cx="28.746" cy="37.814" r=".4"/>
 <circle cx="31.371" cy="37.814" r=".4"/>
 <circle cx="33.933" cy="37.814" r=".4"/>
 <circle cx="36.621" cy="37.814" r=".4"/>
 <circle cx="39.183" cy="37.814" r=".4"/>
 <circle cx="41.808" cy="37.814" r=".4"/>
 <circle cx="44.433" cy="37.814" r=".4"/>
 <circle cx="47.058" cy="37.814" r=".4"/>
 <path d="M49.68 37.41c-.22.02-.4.2-.4.42s.18.4.4.4"/>
 <circle cx="48.433" cy="39.064" r=".4"/>
 <circle cx="45.808" cy="39.064" r=".4"/>
 <circle cx="43.183" cy="39.064" r=".4"/>
 <circle cx="40.558" cy="39.064" r=".4"/>
 <circle cx="37.933" cy="39.064" r=".4"/>
 <circle cx="35.246" cy="39.064" r=".4"/>
 <circle cx="32.683" cy="39.064" r=".4"/>
 <circle cx="30.058" cy="39.064" r=".4"/>
 <circle cx="27.371" cy="39.064" r=".4"/>
 <circle cx="24.808" cy="39.064" r=".4"/>
 <circle cx="22.121" cy="39.064" r=".4"/>
 <circle cx="19.558" cy="39.064" r=".4"/>
 <circle cx="16.933" cy="39.064" r=".4"/>
 <circle cx="14.371" cy="39.064" r=".4"/>
 <circle cx="11.746" cy="39.064" r=".4"/>
 <circle cx="9.121" cy="39.064" r=".4"/>
 <circle cx="6.496" cy="39.064" r=".4"/>
 <circle cx="3.871" cy="39.064" r=".4"/>
 <circle cx="1.183" cy="39.064" r=".4"/>
 <path d="M0 40.78c.22 0 .4-.18.4-.4s-.18-.4-.4-.4"/>
 <circle cx="2.558" cy="40.377" r=".4"/>
 <circle cx="5.183" cy="40.377" r=".4"/>
 <circle cx="7.871" cy="40.377" r=".4"/>
 <circle cx="10.433" cy="40.377" r=".4"/>
 <circle cx="12.996" cy="40.377" r=".4"/>
 <circle cx="15.621" cy="40.377" r=".4"/>
 <circle cx="18.246" cy="40.377" r=".4"/>
 <circle cx="20.933" cy="40.377" r=".4"/>
 <circle cx="23.558" cy="40.377" r=".4"/>
 <circle cx="26.058" cy="40.377" r=".4"/>
 <circle cx="28.746" cy="40.377" r=".4"/>
 <circle cx="31.371" cy="40.377" r=".4"/>
 <circle cx="33.933" cy="40.377" r=".4"/>
 <circle cx="36.621" cy="40.377" r=".4"/>
 <circle cx="39.183" cy="40.377" r=".4"/>
 <circle cx="41.808" cy="40.377" r=".4"/>
 <circle cx="44.433" cy="40.377" r=".4"/>
 <circle cx="47.058" cy="40.377" r=".4"/>
 <path d="M49.68 39.98c-.22 0-.4.18-.4.4s.18.4.4.4"/>
 <circle cx="48.433" cy="41.627" r=".4"/>
 <circle cx="45.808" cy="41.627" r=".4"/>
 <circle cx="43.183" cy="41.627" r=".4"/>
 <circle cx="40.558" cy="41.627" r=".4"/>
 <circle cx="37.933" cy="41.627" r=".4"/>
 <circle cx="35.246" cy="41.627" r=".4"/>
 <circle cx="32.683" cy="41.627" r=".4"/>
 <circle cx="30.058" cy="41.627" r=".4"/>
 <circle cx="27.371" cy="41.627" r=".4"/>
 <circle cx="24.808" cy="41.627" r=".4"/>
 <circle cx="22.121" cy="41.627" r=".4"/>
 <circle cx="19.558" cy="41.627" r=".4"/>
 <circle cx="16.933" cy="41.627" r=".4"/>
 <circle cx="14.371" cy="41.627" r=".4"/>
 <circle cx="11.746" cy="41.627" r=".4"/>
 <circle cx="9.121" cy="41.627" r=".4"/>
 <circle cx="6.496" cy="41.627" r=".4"/>
 <circle cx="3.871" cy="41.627" r=".4"/>
 <circle cx="1.183" cy="41.627" r=".4"/>
 <path d="M0 43.4c.22 0 .4-.18.4-.4s-.18-.4-.4-.4"/>
 <circle cx="2.558" cy="43.002" r=".4"/>
 <circle cx="5.183" cy="43.002" r=".4"/>
 <circle cx="7.871" cy="43.002" r=".4"/>
 <circle cx="10.433" cy="43.002" r=".4"/>
 <circle cx="12.996" cy="43.002" r=".4"/>
 <circle cx="15.621" cy="43.002" r=".4"/>
 <circle cx="18.246" cy="43.002" r=".4"/>
 <circle cx="20.933" cy="43.002" r=".4"/>
 <circle cx="23.558" cy="43.002" r=".4"/>
 <circle cx="26.058" cy="43.002" r=".4"/>
 <circle cx="28.746" cy="43.002" r=".4"/>
 <circle cx="31.371" cy="43.002" r=".4"/>
 <circle cx="33.933" cy="43.002" r=".4"/>
 <circle cx="36.621" cy="43.002" r=".4"/>
 <circle cx="39.183" cy="43.002" r=".4"/>
 <circle cx="41.808" cy="43.002" r=".4"/>
 <circle cx="44.433" cy="43.002" r=".4"/>
 <circle cx="47.058" cy="43.002" r=".4"/>
 <path d="M49.68 42.6c-.22 0-.4.18-.4.4s.18.4.4.4"/>
 <circle cx="48.433" cy="44.252" r=".4"/>
 <circle cx="45.808" cy="44.252" r=".4"/>
 <circle cx="43.183" cy="44.252" r=".4"/>
 <circle cx="40.558" cy="44.252" r=".4"/>
 <circle cx="37.933" cy="44.252" r=".4"/>
 <circle cx="35.246" cy="44.252" r=".4"/>
 <circle cx="32.683" cy="44.252" r=".4"/>
 <circle cx="30.058" cy="44.252" r=".4"/>
 <circle cx="27.371" cy="44.252" r=".4"/>
 <circle cx="24.808" cy="44.252" r=".4"/>
 <circle cx="22.121" cy="44.252" r=".4"/>
 <circle cx="19.558" cy="44.252" r=".4"/>
 <circle cx="16.933" cy="44.252" r=".4"/>
 <circle cx="14.371" cy="44.252" r=".4"/>
 <circle cx="11.746" cy="44.252" r=".4"/>
 <circle cx="9.121" cy="44.252" r=".4"/>
 <circle cx="6.496" cy="44.252" r=".4"/>
 <circle cx="3.871" cy="44.252" r=".4"/>
 <circle cx="1.183" cy="44.252" r=".4"/>
 <path d="M0 46.03c.22 0 .4-.18.4-.4s-.18-.4-.4-.4"/>
 <circle cx="2.558" cy="45.627" r=".4"/>
 <circle cx="5.183" cy="45.627" r=".4"/>
 <circle cx="7.871" cy="45.627" r=".4"/>
 <circle cx="10.433" cy="45.627" r=".4"/>
 <circle cx="12.996" cy="45.627" r=".4"/>
 <circle cx="15.621" cy="45.627" r=".4"/>
 <circle cx="18.246" cy="45.627" r=".4"/>
 <circle cx="20.933" cy="45.627" r=".4"/>
 <circle cx="23.558" cy="45.627" r=".4"/>
 <circle cx="26.058" cy="45.627" r=".4"/>
 <circle cx="28.746" cy="45.627" r=".4"/>
 <circle cx="31.371" cy="45.627" r=".4"/>
 <circle cx="33.933" cy="45.627" r=".4"/>
 <circle cx="36.621" cy="45.627" r=".4"/>
 <circle cx="39.183" cy="45.627" r=".4"/>
 <circle cx="41.808" cy="45.627" r=".4"/>
 <circle cx="44.433" cy="45.627" r=".4"/>
 <circle cx="47.058" cy="45.627" r=".4"/>
 <path d="M49.68 45.23c-.22 0-.4.18-.4.4s.18.4.4.4"/>
 <circle cx="48.433" cy="46.877" r=".4"/>
 <circle cx="45.808" cy="46.877" r=".4"/>
 <circle cx="43.183" cy="46.877" r=".4"/>
 <circle cx="40.558" cy="46.877" r=".4"/>
 <circle cx="37.933" cy="46.877" r=".4"/>
 <circle cx="35.246" cy="46.877" r=".4"/>
 <circle cx="32.683" cy="46.877" r=".4"/>
 <circle cx="30.058" cy="46.877" r=".4"/>
 <circle cx="27.371" cy="46.877" r=".4"/>
 <circle cx="24.808" cy="46.877" r=".4"/>
 <circle cx="22.121" cy="46.877" r=".4"/>
 <circle cx="19.558" cy="46.877" r=".4"/>
 <circle cx="16.933" cy="46.877" r=".4"/>
 <circle cx="14.371" cy="46.877" r=".4"/>
 <circle cx="11.746" cy="46.877" r=".4"/>
 <circle cx="9.121" cy="46.877" r=".4"/>
 <circle cx="6.496" cy="46.877" r=".4"/>
 <circle cx="3.871" cy="46.877" r=".4"/>
 <circle cx="1.183" cy="46.877" r=".4"/>
 <path d="M0 48.65c.22 0 .4-.18.4-.4s-.18-.4-.4-.4"/>
 <circle cx="2.558" cy="48.252" r=".4"/>
 <circle cx="5.183" cy="48.252" r=".4"/>
 <circle cx="7.871" cy="48.252" r=".4"/>
 <circle cx="10.433" cy="48.252" r=".4"/>
 <circle cx="12.996" cy="48.252" r=".4"/>
 <circle cx="15.621" cy="48.252" r=".4"/>
 <circle cx="18.246" cy="48.252" r=".4"/>
 <circle cx="20.933" cy="48.252" r=".4"/>
 <circle cx="23.558" cy="48.252" r=".4"/>
 <circle cx="26.058" cy="48.252" r=".4"/>
 <circle cx="28.746" cy="48.252" r=".4"/>
 <circle cx="31.371" cy="48.252" r=".4"/>
 <circle cx="33.933" cy="48.252" r=".4"/>
 <circle cx="36.621" cy="48.252" r=".4"/>
 <circle cx="39.183" cy="48.252" r=".4"/>
 <circle cx="41.808" cy="48.252" r=".4"/>
 <circle cx="44.433" cy="48.252" r=".4"/>
 <circle cx="47.058" cy="48.252" r=".4"/>
 <path d="M49.68 47.85c-.22 0-.4.18-.4.4s.18.4.4.4M48.83 49.5c0-.22-.18-.4-.4-.4s-.4.18-.4.4M46.2 49.5c0-.22-.17-.4-.4-.4s-.4.18-.4.4M43.58 49.5c0-.22-.18-.4-.4-.4s-.4.18-.4.4M40.96 49.5c0-.22-.18-.4-.4-.4s-.4.18-.4.4M38.33 49.5c0-.22-.18-.4-.4-.4s-.4.18-.4.4M35.65 49.5c0-.22-.18-.4-.4-.4s-.4.18-.4.4M33.08 49.5c0-.22-.18-.4-.4-.4s-.4.18-.4.4M30.46 49.5c0-.22-.18-.4-.4-.4s-.4.18-.4.4M27.77 49.5c0-.22-.18-.4-.4-.4s-.4.18-.4.4M25.2 49.5c0-.22-.17-.4-.4-.4s-.4.18-.4.4M22.52 49.5c0-.22-.18-.4-.4-.4s-.4.18-.4.4M19.96 49.5c0-.22-.18-.4-.4-.4s-.4.18-.4.4M17.33 49.5c0-.22-.18-.4-.4-.4s-.4.18-.4.4M14.77 49.5c0-.22-.18-.4-.4-.4s-.4.18-.4.4M12.15 49.5c0-.22-.18-.4-.4-.4s-.4.18-.4.4M9.52 49.5c0-.22-.18-.4-.4-.4s-.4.18-.4.4M6.9 49.5c0-.22-.18-.4-.4-.4s-.4.18-.4.4M4.27 49.5c0-.22-.18-.4-.4-.4s-.4.18-.4.4M1.58 49.5c0-.22-.18-.4-.4-.4s-.4.18-.4.4"/>
</svg>
