<?xml version="1.0"?>
<!-- Converted with SVG Converter - Version 0.9.5 (Compiled Fri Feb 21 09:53:38 2020) - Copyright (C) 2011 Nokia -->
<svg xmlns="http://www.w3.org/2000/svg" xmlns:xlink="http://www.w3.org/1999/xlink" height="53.6" width="53.184" baseProfile="tiny">
 <path fill="none" d="M0 0h53.18v53.6H0z"/>
 <path d="M6.23 11.06c-.1 0-.2-.04-.28-.12-.08-.07-.12-.18-.12-.28 0-.1.04-.2.12-.3.15-.13.4-.13.56 0 .1.1.13.2.13.3 0 .1-.04.2-.12.28-.06.08-.16.12-.27.12z"/>
 <path fill="none" d="M0 0h53.18v53.6H0z"/>
 <path d="M4.05 6.03c-.1 0-.2-.04-.3-.12-.06-.05-.1-.16-.1-.27 0-.1.04-.2.12-.28.14-.14.4-.15.56 0 .07.07.12.17.12.28 0 .1-.05.22-.13.3-.06.06-.16.1-.27.1z"/>
 <path fill="none" d="M0 0h53.18v53.6H0z"/>
 <path d="M1.42 3.58c-.1 0-.2-.05-.28-.12-.07-.08-.12-.18-.12-.28 0-.1.05-.22.12-.3.15-.13.42-.14.57 0 .08.08.12.2.12.3 0 .1-.04.2-.1.28-.1.07-.2.12-.3.12z"/>
 <path fill="none" d="M0 0h53.18v53.6H0z"/>
 <path d="M4.05 3.53c-.1 0-.2-.04-.3-.1-.06-.08-.1-.2-.1-.3 0-.1.04-.2.12-.28.14-.14.4-.15.56 0 .07.07.12.18.12.28 0 .1-.04.2-.12.3-.08.06-.18.1-.28.1z"/>
 <path fill="none" d="M0 0h53.18v53.6H0z"/>
 <path d="M3.9 1.5c-.12 0-.22-.04-.3-.1-.07-.08-.1-.18-.1-.3 0-.1.03-.2.1-.28.15-.14.43-.14.57 0 .08.08.12.18.12.3 0 .1-.05.2-.13.27-.07.07-.17.1-.28.1z"/>
 <path fill="none" d="M0 0h53.18v53.6H0z"/>
 <path d="M6.8 4.33c-.1 0-.2-.04-.3-.1-.06-.1-.1-.2-.1-.3 0-.1.04-.2.12-.28.14-.14.4-.15.56 0 .07.07.12.18.12.28 0 .1-.04.2-.12.3-.07.06-.18.1-.28.1z"/>
 <path fill="none" d="M0 0h53.18v53.6H0z"/>
 <path d="M7.6 1.8c-.1 0-.2-.04-.27-.1-.08-.1-.12-.2-.12-.3 0-.1.05-.2.12-.28.15-.15.42-.15.57 0 .06.07.1.18.1.28 0 .1-.04.2-.1.28-.1.08-.2.12-.3.12z"/>
 <path fill="none" d="M0 0h53.18v53.6H0z"/>
 <path d="M9.57 3.6c-.1 0-.2-.05-.28-.12-.1-.08-.13-.18-.13-.28 0-.1.04-.2.1-.3.16-.14.43-.14.58 0 .07.1.12.2.12.3 0 .1-.04.2-.12.28-.08.07-.18.1-.28.1z"/>
 <path fill="none" d="M0 0h53.18v53.6H0z"/>
 <path d="M12.3 1.77c-.1 0-.2-.04-.28-.12-.08-.08-.12-.18-.12-.28 0-.1.04-.2.1-.3.16-.13.43-.13.58 0 .08.1.12.2.12.3 0 .1-.04.2-.12.28-.07.07-.18.12-.28.12z"/>
 <path fill="none" d="M0 0h53.18v53.6H0z"/>
 <path d="M14.92 1.4c-.1 0-.2-.05-.28-.12-.07-.08-.12-.18-.12-.3 0-.1.05-.2.12-.27.15-.14.42-.14.57 0 .08.08.12.2.12.3 0 .1-.04.2-.1.28-.08.07-.2.1-.3.1z"/>
 <path fill="none" d="M0 0h53.18v53.6H0z"/>
 <path d="M.55.95C.45.95.35.9.27.83.2.76.15.66.15.55c0-.1.04-.2.1-.28C.43.12.7.12.84.27.9.34.95.44.95.54c0 .1-.04.2-.12.28S.65.95.55.95z"/>
 <path fill="none" d="M0 0h53.18v53.6H0z"/>
 <path d="M3.7 10.78c-.1 0-.2-.05-.28-.12-.07-.07-.12-.18-.12-.28 0-.1.05-.22.13-.3.14-.13.4-.14.56 0 .06.08.1.2.1.3 0 .1-.04.2-.12.28-.06.07-.17.12-.27.12z"/>
 <path fill="none" d="M0 0h53.18v53.6H0z"/>
 <path d="M2.67 13.32c-.1 0-.2-.04-.28-.1-.08-.1-.13-.2-.13-.3 0-.1.05-.2.12-.28.14-.15.4-.15.56 0 .07.08.1.18.1.3 0 .1-.03.2-.1.27-.08.08-.18.12-.3.12z"/>
 <path fill="none" d="M0 0h53.18v53.6H0z"/>
 <path d="M1.87 7.65c-.1 0-.2-.04-.28-.1-.1-.1-.13-.2-.13-.3 0-.1.05-.2.12-.28.16-.16.4-.15.56 0 .07.07.1.17.1.28 0 .1-.03.2-.1.28-.08.08-.18.12-.3.12z"/>
 <path fill="none" d="M0 0h53.18v53.6H0z"/>
 <path d="M1.05 16.26c-.1 0-.2-.04-.28-.1-.08-.1-.12-.2-.12-.3 0-.1.04-.2.1-.28.16-.15.43-.15.58 0 .08.07.12.18.12.28 0 .1-.04.2-.12.28-.08.08-.18.12-.28.12z"/>
 <path fill="none" d="M0 0h53.18v53.6H0z"/>
 <path d="M4.1 17.08c-.1 0-.2-.05-.28-.13-.07-.06-.1-.17-.1-.28 0-.1.03-.2.1-.28.16-.16.43-.16.57 0 .07.07.1.17.1.27s-.03.22-.1.3c-.08.06-.18.1-.3.1z"/>
 <path fill="none" d="M0 0h53.18v53.6H0z"/>
 <path d="M6.05 19.82c-.1 0-.2-.04-.28-.1-.08-.1-.12-.2-.12-.3 0-.1.04-.2.12-.28.14-.14.4-.15.56 0 .07.07.12.18.12.3 0 .1-.04.2-.12.27-.07.08-.18.12-.28.12z"/>
 <path fill="none" d="M0 0h53.18v53.6H0z"/>
 <path d="M3.55 21.07c-.1 0-.2-.04-.28-.1-.08-.1-.12-.2-.12-.3 0-.1.04-.2.1-.28.16-.16.43-.16.58 0 .07.07.12.17.12.28 0 .1-.04.2-.12.28-.08.07-.18.1-.28.1z"/>
 <path fill="none" d="M0 0h53.18v53.6H0z"/>
 <path d="M7.17 17c-.1 0-.2-.03-.28-.1-.08-.08-.13-.18-.13-.3 0-.1.05-.2.12-.28.13-.13.4-.14.55 0 .08.08.12.18.12.3 0 .1-.04.2-.12.28-.07.07-.17.1-.28.1z"/>
 <path fill="none" d="M0 0h53.18v53.6H0z"/>
 <path d="M1.92 19c-.1 0-.2-.03-.28-.1-.07-.08-.12-.18-.12-.3 0-.1.05-.2.12-.27.15-.15.4-.15.56 0 .08.07.12.18.12.28 0 .12-.04.22-.1.3-.1.07-.2.1-.3.1z"/>
 <path fill="none" d="M0 0h53.18v53.6H0z"/>
 <path d="M5.05 14.08c-.1 0-.22-.05-.3-.13-.06-.06-.1-.17-.1-.28 0-.1.04-.2.12-.28.14-.15.4-.16.56 0 .08.07.12.17.12.27s-.05.22-.12.3c-.07.06-.17.1-.28.1z"/>
 <path fill="none" d="M0 0h53.18v53.6H0z"/>
 <path d="M7.82 7.47c-.1 0-.2-.04-.3-.12-.06-.07-.1-.17-.1-.28 0-.1.04-.2.1-.28.16-.16.43-.16.58 0 .07.06.12.17.12.27s-.04.2-.12.28c-.08.08-.18.12-.28.12z"/>
 <path fill="none" d="M0 0h53.18v53.6H0z"/>
 <path d="M5.1 8.5c-.1 0-.2-.04-.28-.1-.07-.08-.12-.2-.12-.3 0-.1.05-.2.12-.28.15-.14.42-.14.57 0 .06.08.1.18.1.3 0 .1-.04.2-.1.27-.1.07-.2.1-.3.1z"/>
 <path fill="none" d="M0 0h53.18v53.6H0z"/>
 <path d="M1.1 10.7c-.1 0-.2-.04-.3-.1-.07-.1-.1-.2-.1-.3 0-.1.03-.2.1-.28.16-.15.42-.15.57 0 .08.07.12.17.12.28 0 .1-.05.2-.12.28-.08.08-.2.12-.3.12z"/>
 <path fill="none" d="M0 0h53.18v53.6H0z"/>
 <path d="M10.32 6.35c-.1 0-.2-.05-.3-.13-.06-.07-.1-.17-.1-.27s.04-.2.1-.3c.17-.14.43-.14.58 0 .07.1.12.2.12.3 0 .1-.04.2-.12.28-.07.07-.18.12-.28.12z"/>
 <path fill="none" d="M0 0h53.18v53.6H0z"/>
 <path d="M20.57 6.85c-.1 0-.2-.05-.3-.12-.06-.08-.1-.18-.1-.28 0-.1.04-.2.1-.3.16-.14.43-.14.58 0 .07.1.12.2.12.3 0 .1-.05.2-.12.28-.08.07-.18.12-.28.12z"/>
 <path fill="none" d="M0 0h53.18v53.6H0z"/>
 <path d="M12.44 4.6c-.1 0-.2-.05-.28-.12-.07-.08-.12-.18-.12-.28 0-.1.05-.2.12-.3.15-.14.42-.14.57 0 .07.1.1.2.1.3 0 .1-.03.2-.1.28-.08.07-.18.12-.3.12z"/>
 <path fill="none" d="M0 0h53.18v53.6H0z"/>
 <path d="M11.82 8.72c-.1 0-.2-.04-.3-.12-.06-.07-.1-.17-.1-.28 0-.1.04-.2.1-.28.16-.15.43-.15.58 0 .07.07.12.18.12.28 0 .1-.04.2-.12.28-.08.08-.18.12-.28.12z"/>
 <path fill="none" d="M0 0h53.18v53.6H0z"/>
 <path d="M16.94 1.97c-.1 0-.2-.04-.28-.12-.08-.07-.12-.17-.12-.28 0-.1.05-.2.12-.28.15-.16.42-.16.57 0 .07.06.1.17.1.27s-.03.2-.1.28c-.08.08-.18.12-.3.12z"/>
 <path fill="none" d="M0 0h53.18v53.6H0z"/>
 <path d="M15.42 4.7c-.1 0-.2-.04-.28-.1-.08-.1-.12-.2-.12-.3 0-.1.05-.2.12-.28.15-.15.42-.15.57 0 .08.07.12.18.12.28 0 .1-.04.2-.1.28-.1.08-.2.12-.3.12z"/>
 <path fill="none" d="M0 0h53.18v53.6H0z"/>
 <path d="M13.78 6.83c-.1 0-.2-.05-.3-.12-.06-.07-.1-.17-.1-.27s.04-.2.1-.3c.17-.14.43-.13.58 0 .07.08.12.2.12.3 0 .1-.05.2-.12.28-.07.08-.18.13-.28.13z"/>
 <path fill="none" d="M0 0h53.18v53.6H0z"/>
 <path d="M17.42 6.33c-.1 0-.2-.05-.28-.12-.07-.07-.12-.17-.12-.27s.05-.2.12-.3c.15-.14.42-.14.57 0 .08.1.12.2.12.3 0 .1-.04.2-.1.28-.1.08-.2.13-.3.13z"/>
 <path fill="none" d="M0 0h53.18v53.6H0z"/>
 <path d="M15.7 8.7c-.1 0-.2-.04-.27-.12-.07-.07-.1-.17-.1-.28 0-.1.03-.2.1-.28.14-.15.42-.15.57 0 .07.07.12.18.12.28 0 .1-.05.2-.12.28-.07.08-.18.12-.3.12z"/>
 <path fill="none" d="M0 0h53.18v53.6H0z"/>
 <path d="M13.15 10.97c-.1 0-.2-.04-.28-.12-.07-.07-.1-.17-.1-.28 0-.1.03-.2.1-.28.15-.16.42-.16.57 0 .07.06.12.17.12.27s-.05.2-.12.28c-.07.08-.18.12-.3.12z"/>
 <path fill="none" d="M0 0h53.18v53.6H0z"/>
 <path d="M15.67 11.45c-.1 0-.2-.04-.28-.12-.08-.07-.13-.17-.13-.28 0-.1.04-.2.12-.28.16-.16.4-.15.56 0 .07.08.1.18.1.28 0 .1-.03.2-.1.28-.07.08-.18.12-.3.12z"/>
 <path fill="none" d="M0 0h53.18v53.6H0z"/>
 <path d="M11.07 12.47c-.1 0-.2-.04-.28-.12-.1-.07-.13-.17-.13-.28 0-.1.04-.2.12-.3.13-.13.4-.13.55.02.07.06.12.16.12.27 0 .1-.04.2-.12.28-.08.08-.18.12-.28.12z"/>
 <path fill="none" d="M0 0h53.18v53.6H0z"/>
 <path d="M10.44 15.47c-.1 0-.2-.04-.28-.1-.07-.1-.12-.2-.12-.3 0-.1.05-.2.12-.28.15-.16.42-.16.57 0 .07.06.1.17.1.27s-.03.2-.1.28c-.08.08-.18.12-.3.12z"/>
 <path fill="none" d="M0 0h53.18v53.6H0z"/>
 <path d="M14 13.8c-.1 0-.2-.05-.3-.12-.07-.1-.1-.2-.1-.3 0-.1.03-.2.1-.28.16-.15.42-.15.58 0 .07.08.1.18.1.3 0 .1-.03.2-.1.27-.1.08-.18.12-.3.12z"/>
 <path fill="none" d="M0 0h53.18v53.6H0z"/>
 <path d="M13.2 16.47c-.1 0-.22-.04-.3-.12-.06-.07-.1-.17-.1-.28 0-.1.04-.2.1-.3.15-.12.43-.13.57.02.08.06.12.16.12.27 0 .1-.05.2-.13.3-.07.06-.17.1-.28.1z"/>
 <path fill="none" d="M0 0h53.18v53.6H0z"/>
 <path d="M15.86 20.76c-.1 0-.2-.04-.3-.12-.06-.07-.1-.18-.1-.28 0-.1.04-.2.1-.3.15-.13.44-.13.58.02.07.07.12.17.12.28 0 .1-.05.2-.12.28-.08.08-.18.12-.28.12z"/>
 <path fill="none" d="M0 0h53.18v53.6H0z"/>
 <path d="M17.42 13.57c-.1 0-.2-.04-.28-.1-.07-.1-.12-.2-.12-.3 0-.1.05-.2.12-.28.15-.16.42-.16.57 0 .08.07.12.17.12.28 0 .1-.04.2-.1.28-.1.07-.2.1-.3.1z"/>
 <path fill="none" d="M0 0h53.18v53.6H0z"/>
 <path d="M18.17 11.07c-.1 0-.2-.04-.28-.1-.08-.1-.13-.2-.13-.3 0-.1.05-.2.12-.28.15-.16.4-.15.55 0 .08.07.12.17.12.27s-.04.2-.1.3c-.1.06-.2.1-.3.1z"/>
 <path fill="none" d="M0 0h53.18v53.6H0z"/>
 <path d="M20.53 13.58c-.1 0-.2-.05-.3-.12-.06-.08-.1-.18-.1-.28 0-.1.04-.2.1-.3.17-.14.43-.14.58 0 .08.1.13.2.13.3 0 .1-.05.2-.12.28-.07.07-.17.12-.27.12z"/>
 <path fill="none" d="M0 0h53.18v53.6H0z"/>
 <path d="M20.7 10.5c-.1 0-.2-.03-.27-.1-.07-.08-.1-.18-.1-.3 0-.1.03-.2.1-.27.15-.15.42-.15.57 0 .07.07.12.18.12.28 0 .12-.05.22-.12.3-.07.07-.18.1-.3.1z"/>
 <path fill="none" d="M0 0h53.18v53.6H0z"/>
 <path d="M22.9 8.45c-.1 0-.2-.04-.28-.12-.08-.07-.12-.17-.12-.28 0-.1.04-.2.12-.28.15-.15.4-.15.56 0 .08.07.12.17.12.28 0 .1-.04.2-.12.28-.07.08-.17.12-.28.12z"/>
 <path fill="none" d="M0 0h53.18v53.6H0z"/>
 <path d="M25.58 7.9c-.1 0-.2-.05-.28-.13s-.12-.18-.12-.28c0-.12.05-.22.12-.3.15-.14.42-.14.57 0 .07.08.1.18.1.3 0 .1-.03.2-.1.27-.08.08-.18.12-.3.12z"/>
 <path fill="none" d="M0 0h53.18v53.6H0z"/>
 <path d="M22.92 11.45c-.1 0-.2-.04-.28-.1-.07-.1-.12-.2-.12-.3 0-.1.05-.2.12-.28.15-.15.42-.15.57 0 .08.07.12.17.12.28 0 .1-.04.2-.1.28-.1.08-.2.12-.3.12z"/>
 <path fill="none" d="M0 0h53.18v53.6H0z"/>
 <path d="M25.67 10.32c-.1 0-.2-.04-.28-.1-.1-.1-.13-.2-.13-.3 0-.1.05-.2.12-.28.14-.15.4-.15.56 0 .07.08.1.18.1.3 0 .1-.03.2-.1.26-.08.08-.18.12-.3.12z"/>
 <path fill="none" d="M0 0h53.18v53.6H0z"/>
 <path d="M25.73 13.26c-.1 0-.2-.04-.28-.12-.08-.08-.12-.18-.12-.28 0-.1.04-.2.12-.3.15-.14.4-.14.56 0 .1.1.13.2.13.3 0 .1-.04.2-.12.28-.06.08-.16.12-.27.12z"/>
 <path fill="none" d="M0 0h53.18v53.6H0z"/>
 <path d="M23.17 14.2c-.1 0-.2-.04-.28-.12-.08-.07-.13-.17-.13-.28 0-.1.05-.2.13-.3.13-.13.4-.13.56.02.07.07.1.17.1.28 0 .1-.03.2-.1.28-.08.08-.18.12-.3.12z"/>
 <path fill="none" d="M0 0h53.18v53.6H0z"/>
 <path d="M25.43 16.1c-.1 0-.2-.03-.3-.1-.06-.08-.1-.18-.1-.3 0-.1.04-.2.1-.27.17-.15.43-.15.58 0 .1.08.13.18.13.28 0 .12-.05.22-.12.3-.07.07-.17.1-.27.1z"/>
 <path fill="none" d="M0 0h53.18v53.6H0z"/>
 <path d="M29.5 10.7c-.1 0-.2-.04-.28-.12-.08-.07-.12-.17-.12-.28 0-.1.05-.2.13-.3.13-.13.4-.13.56.02.06.07.1.18.1.28 0 .1-.04.2-.1.28-.1.08-.2.12-.3.12z"/>
 <path fill="none" d="M0 0h53.18v53.6H0z"/>
 <path d="M28.2 12.76c-.12 0-.22-.04-.3-.1-.07-.1-.1-.2-.1-.3 0-.1.03-.2.1-.3.15-.13.42-.13.57.02.07.07.12.17.12.28 0 .1-.05.2-.13.3-.07.06-.18.1-.28.1z"/>
 <path fill="none" d="M0 0h53.18v53.6H0z"/>
 <path d="M30.17 14.33c-.1 0-.2-.05-.28-.13-.08-.06-.13-.17-.13-.27s.05-.22.12-.3c.14-.13.4-.14.55 0 .08.08.12.2.12.3 0 .1-.04.2-.12.28-.07.08-.17.13-.28.13z"/>
 <path fill="none" d="M0 0h53.18v53.6H0z"/>
 <path d="M28.17 16.2c-.1 0-.2-.04-.28-.12-.08-.07-.13-.17-.13-.28 0-.1.05-.2.12-.3.13-.13.4-.13.55.02.08.07.12.17.12.28 0 .1-.04.2-.12.3-.07.06-.17.1-.28.1z"/>
 <path fill="none" d="M0 0h53.18v53.6H0z"/>
 <path d="M25.74 21.26c-.1 0-.2-.04-.28-.1-.08-.1-.12-.2-.12-.3 0-.1.04-.2.1-.28.18-.16.43-.15.58 0 .07.07.1.18.1.28 0 .1-.03.2-.1.28-.08.08-.18.12-.28.12z"/>
 <path fill="none" d="M0 0h53.18v53.6H0z"/>
 <path d="M26.86 18.76c-.1 0-.2-.04-.28-.1-.08-.1-.12-.2-.12-.3 0-.1.04-.2.12-.28.16-.16.42-.15.56 0 .08.07.12.18.12.28 0 .1-.04.2-.12.28-.08.08-.18.12-.28.12z"/>
 <path fill="none" d="M0 0h53.18v53.6H0z"/>
 <path d="M29.65 20.26c-.1 0-.2-.04-.28-.12-.07-.06-.12-.17-.12-.28 0-.1.05-.2.12-.28.14-.15.42-.15.57 0 .07.07.1.17.1.28 0 .1-.03.22-.1.3-.08.06-.18.1-.3.1z"/>
 <path fill="none" d="M0 0h53.18v53.6H0z"/>
 <path d="M30.72 17.7c-.1 0-.22-.04-.3-.12-.06-.07-.1-.17-.1-.28 0-.1.04-.2.12-.3.14-.13.4-.13.56.02.07.07.1.17.1.28 0 .1-.03.2-.1.3-.08.06-.18.1-.28.1z"/>
 <path fill="none" d="M0 0h53.18v53.6H0z"/>
 <path d="M32.9 15.83c-.1 0-.2-.05-.28-.12-.08-.07-.12-.17-.12-.28 0-.1.04-.2.12-.28.15-.15.4-.15.56 0 .08.07.12.18.12.28 0 .1-.04.22-.12.3-.07.06-.17.1-.28.1z"/>
 <path fill="none" d="M0 0h53.18v53.6H0z"/>
 <path d="M34.6 13.14c-.1 0-.2-.04-.3-.12s-.1-.18-.1-.28c0-.1.03-.2.1-.3.16-.14.42-.14.57 0 .07.08.12.2.12.3 0 .1-.06.2-.13.28-.07.07-.18.12-.28.12z"/>
 <path fill="none" d="M0 0h53.18v53.6H0z"/>
 <path d="M35.67 16.07c-.1 0-.2-.03-.27-.1-.1-.1-.13-.2-.13-.3 0-.1.05-.2.12-.28.13-.15.4-.16.55 0 .08.06.12.17.12.28 0 .1-.04.2-.12.28-.07.07-.17.1-.28.1z"/>
 <path fill="none" d="M0 0h53.18v53.6H0z"/>
 <path d="M38.42 15.76c-.1 0-.2-.04-.28-.12-.07-.07-.12-.17-.12-.28 0-.1.05-.2.12-.28.15-.15.4-.15.56 0 .08.07.12.17.12.28 0 .1-.04.2-.12.3-.07.06-.17.1-.28.1z"/>
 <path fill="none" d="M0 0h53.18v53.6H0z"/>
 <path d="M40.7 16.97c-.1 0-.2-.04-.3-.12-.07-.07-.1-.17-.1-.28 0-.1.04-.2.1-.28.16-.16.42-.16.57 0 .08.06.12.16.12.27 0 .1-.05.2-.13.3-.07.06-.17.1-.28.1z"/>
 <path fill="none" d="M0 0h53.18v53.6H0z"/>
 <path d="M38.32 18.35c-.1 0-.2-.05-.3-.13-.06-.06-.1-.17-.1-.27s.04-.22.12-.3c.14-.13.4-.14.56 0 .07.08.12.18.12.3 0 .1-.05.2-.13.28-.07.07-.17.12-.28.12z"/>
 <path fill="none" d="M0 0h53.18v53.6H0z"/>
 <path d="M36.82 21.22c-.1 0-.2-.04-.28-.1-.08-.1-.12-.2-.12-.3 0-.1.04-.2.12-.3.14-.13.4-.13.56.02.07.07.12.17.12.28 0 .1-.04.2-.12.28-.08.08-.18.12-.28.12z"/>
 <path fill="none" d="M0 0h53.18v53.6H0z"/>
 <path d="M37.44 24.72c-.1 0-.2-.04-.28-.12-.07-.07-.12-.17-.12-.28 0-.1.05-.2.12-.3.15-.13.4-.13.56.02.08.07.12.17.12.28 0 .1-.04.2-.12.3-.07.06-.17.1-.28.1z"/>
 <path fill="none" d="M0 0h53.18v53.6H0z"/>
 <path d="M37.28 27.32c-.1 0-.2-.04-.3-.1-.06-.1-.1-.2-.1-.3 0-.1.04-.2.12-.28.14-.14.4-.15.56 0 .07.07.1.17.1.3 0 .1-.03.2-.1.27-.07.08-.18.12-.28.12z"/>
 <path fill="none" d="M0 0h53.18v53.6H0z"/>
 <path d="M37.44 30.1c-.1 0-.2-.05-.28-.12-.07-.07-.12-.18-.12-.28 0-.1.05-.22.12-.3.15-.13.4-.14.56 0 .08.08.12.2.12.3 0 .1-.04.2-.12.28-.07.07-.17.1-.28.1z"/>
 <path fill="none" d="M0 0h53.18v53.6H0z"/>
 <path d="M37.1 33.85c-.1 0-.2-.04-.27-.12-.08-.08-.12-.18-.12-.28 0-.1.05-.2.12-.3.15-.13.42-.14.57 0 .06.08.1.2.1.3 0 .1-.04.2-.1.28-.1.07-.2.12-.3.12z"/>
 <path fill="none" d="M0 0h53.18v53.6H0z"/>
 <path d="M38.07 36.22c-.1 0-.2-.04-.28-.1-.1-.1-.13-.2-.13-.3 0-.1.04-.2.1-.28.16-.15.43-.15.58 0 .07.07.12.17.12.28 0 .1-.05.2-.12.3-.08.06-.18.1-.28.1z"/>
 <path fill="none" d="M0 0h53.18v53.6H0z"/>
 <path d="M39.2 38.1c-.1 0-.2-.04-.3-.12-.07-.08-.1-.18-.1-.28 0-.1.04-.2.1-.3.16-.13.42-.14.57 0 .08.08.12.2.12.3 0 .1-.05.2-.13.28-.07.07-.17.12-.28.12z"/>
 <path fill="none" d="M0 0h53.18v53.6H0z"/>
 <path d="M39.94 13.34c-.1 0-.2-.03-.28-.1-.08-.1-.12-.2-.12-.3 0-.1.04-.2.12-.27.15-.16.4-.16.56 0 .08.06.12.17.12.28 0 .1-.04.2-.12.28-.07.07-.17.1-.28.1z"/>
 <path fill="none" d="M0 0h53.18v53.6H0z"/>
 <path d="M41.94 15.35c-.1 0-.2-.04-.28-.12-.07-.08-.12-.18-.12-.28 0-.1.05-.2.12-.3.15-.14.4-.14.56 0 .08.08.12.18.12.3 0 .1-.04.2-.12.28-.07.07-.17.12-.28.12z"/>
 <path fill="none" d="M0 0h53.18v53.6H0z"/>
 <path d="M37.1 12.83c-.1 0-.2-.05-.27-.12-.08-.07-.12-.17-.12-.27s.05-.2.13-.3c.14-.13.4-.14.56 0 .07.08.1.2.1.3 0 .1-.03.2-.1.28-.08.08-.18.13-.3.13z"/>
 <path fill="none" d="M0 0h53.18v53.6H0z"/>
 <path d="M34.6 10.14c-.1 0-.2-.05-.28-.13-.07-.05-.1-.16-.1-.26s.03-.2.1-.3c.15-.13.42-.14.57 0 .07.08.1.2.1.3 0 .1-.03.2-.1.28-.08.07-.18.12-.3.12z"/>
 <path fill="none" d="M0 0h53.18v53.6H0z"/>
 <path d="M42.42 3.58c-.1 0-.2-.05-.28-.12-.08-.08-.12-.18-.12-.28 0-.1.05-.2.12-.3.15-.13.42-.14.56 0 .08.08.12.2.12.3 0 .1-.04.2-.12.28-.07.07-.17.12-.28.12z"/>
 <path fill="none" d="M0 0h53.18v53.6H0z"/>
 <path d="M49.7 13.07c-.1 0-.2-.04-.28-.1-.08-.1-.12-.2-.12-.3 0-.1.05-.2.12-.28.15-.16.42-.16.57 0 .06.06.1.17.1.28 0 .1-.04.2-.1.28-.1.07-.2.1-.3.1z"/>
 <path fill="none" d="M0 0h53.18v53.6H0z"/>
 <path d="M51.42 17.45c-.1 0-.2-.04-.28-.12-.08-.07-.12-.17-.12-.28 0-.1.05-.2.12-.28.15-.15.42-.15.56 0 .08.07.12.17.12.28 0 .1-.04.2-.12.3-.07.06-.17.1-.28.1z"/>
 <path fill="none" d="M0 0h53.18v53.6H0z"/>
 <path d="M49.08 15.57c-.1 0-.2-.04-.3-.1-.06-.1-.1-.2-.1-.3 0-.1.04-.2.12-.28.14-.16.4-.16.56 0 .08.06.12.17.12.28 0 .1-.05.2-.12.28-.07.07-.17.1-.28.1z"/>
 <path fill="none" d="M0 0h53.18v53.6H0z"/>
 <path d="M48.05 17.45c-.1 0-.2-.04-.28-.1-.08-.1-.12-.2-.12-.3 0-.1.04-.2.1-.28.16-.15.43-.15.58 0 .07.07.12.17.12.28 0 .1-.05.2-.12.3-.08.06-.18.1-.28.1z"/>
 <path fill="none" d="M0 0h53.18v53.6H0z"/>
 <path d="M49.05 19.37c-.1 0-.2-.04-.28-.12-.08-.08-.12-.18-.12-.28 0-.1.04-.2.1-.3.16-.13.43-.13.58 0 .07.1.12.2.12.3 0 .1-.04.2-.12.28-.08.08-.18.12-.28.12z"/>
 <path fill="none" d="M0 0h53.18v53.6H0z"/>
 <path d="M52.67 19.58c-.1 0-.2-.05-.28-.12-.1-.08-.13-.18-.13-.28 0-.1.04-.2.12-.3.14-.14.4-.14.55 0 .08.08.12.2.12.3 0 .1-.04.2-.12.28-.07.07-.17.12-.28.12z"/>
 <path fill="none" d="M0 0h53.18v53.6H0z"/>
 <path d="M50.92 20.82c-.1 0-.2-.04-.28-.1-.08-.1-.12-.2-.12-.3 0-.1.05-.2.12-.28.15-.15.4-.15.56 0 .08.07.12.18.12.28 0 .1-.04.2-.1.3-.1.06-.2.1-.3.1z"/>
 <path fill="none" d="M0 0h53.18v53.6H0z"/>
 <path d="M47.7 21.53c-.1 0-.2-.04-.26-.1-.08-.1-.12-.2-.12-.3 0-.1.04-.2.1-.28.16-.15.43-.15.58 0 .07.07.1.17.1.28 0 .1-.03.22-.1.3-.08.06-.18.1-.3.1z"/>
 <path fill="none" d="M0 0h53.18v53.6H0z"/>
 <path d="M46.05 18.45c-.1 0-.2-.04-.3-.12-.06-.07-.1-.17-.1-.28 0-.1.04-.2.1-.28.16-.15.43-.15.58 0 .07.07.12.17.12.28 0 .1-.05.2-.12.3-.07.05-.17.1-.28.1z"/>
 <path fill="none" d="M0 0h53.18v53.6H0z"/>
 <path d="M44.44 16.34c-.1 0-.2-.04-.28-.1-.07-.1-.12-.2-.12-.3 0-.1.05-.2.12-.28.14-.14.4-.15.57 0 .07.08.1.18.1.28 0 .1-.03.2-.1.3-.1.07-.2.1-.3.1z"/>
 <path fill="none" d="M0 0h53.18v53.6H0z"/>
 <path d="M42.88 19.2c-.1 0-.2-.04-.28-.12-.08-.07-.12-.17-.12-.28 0-.1.04-.2.12-.28.15-.15.4-.15.56 0 .08.07.12.17.12.28 0 .1-.04.2-.12.3-.07.06-.17.1-.28.1z"/>
 <path fill="none" d="M0 0h53.18v53.6H0z"/>
 <path d="M40.38 20.03c-.1 0-.2-.04-.28-.1-.08-.1-.12-.2-.12-.3 0-.1.04-.2.12-.28.15-.15.4-.15.56 0 .08.07.12.17.12.28 0 .1-.04.2-.12.3-.07.06-.17.1-.28.1z"/>
 <path fill="none" d="M0 0h53.18v53.6H0z"/>
 <path d="M44.92 20.7c-.1 0-.2-.04-.28-.12-.08-.07-.12-.17-.12-.28 0-.1.05-.2.12-.28.15-.15.42-.15.56 0 .08.07.12.17.12.28 0 .1-.04.2-.12.3-.07.06-.17.1-.28.1z"/>
 <path fill="none" d="M0 0h53.18v53.6H0z"/>
 <path d="M45.38 23.37c-.1 0-.2-.04-.28-.12-.08-.07-.12-.18-.12-.28 0-.1.04-.2.12-.3.15-.13.4-.14.56 0 .08.1.12.2.12.3s-.04.2-.12.28c-.07.07-.17.12-.28.12z"/>
 <path fill="none" d="M0 0h53.18v53.6H0z"/>
 <path d="M49.42 22.82c-.1 0-.2-.04-.28-.1-.07-.1-.12-.2-.12-.3 0-.1.05-.2.12-.28.15-.15.4-.15.56 0 .08.07.12.18.12.28 0 .1-.04.22-.12.3-.07.06-.17.1-.28.1z"/>
 <path fill="none" d="M0 0h53.18v53.6H0z"/>
 <path d="M48.05 24.87c-.1 0-.2-.04-.3-.12-.06-.08-.1-.18-.1-.28 0-.1.04-.2.1-.3.16-.13.43-.13.58 0 .07.1.12.2.12.3s-.05.2-.12.28c-.07.07-.17.12-.28.12z"/>
 <path fill="none" d="M0 0h53.18v53.6H0z"/>
 <path d="M52.3 2.95c-.1 0-.2-.04-.28-.1-.08-.1-.12-.2-.12-.3 0-.1.04-.2.1-.28.16-.15.43-.15.58 0 .07.07.12.17.12.28 0 .1-.05.2-.12.3-.07.06-.18.1-.28.1z"/>
 <path fill="none" d="M0 0h53.18v53.6H0z"/>
 <path d="M49.67 3.95c-.1 0-.2-.04-.28-.12-.1-.07-.13-.17-.13-.28 0-.1.05-.2.12-.28.14-.15.4-.15.55 0 .08.07.12.17.12.28 0 .1-.04.2-.12.3-.06.06-.17.1-.28.1z"/>
 <path fill="none" d="M0 0h53.18v53.6H0z"/>
 <path d="M50.17 1.2c-.1 0-.2-.04-.28-.1-.1-.1-.13-.2-.13-.3 0-.1.05-.2.12-.28.14-.15.4-.15.55 0 .08.07.12.17.12.28 0 .1-.04.2-.12.28-.07.08-.17.12-.28.12z"/>
 <path fill="none" d="M0 0h53.18v53.6H0z"/>
 <path d="M46.92 1.2c-.1 0-.2-.04-.28-.12-.07-.07-.12-.17-.12-.28 0-.1.05-.2.12-.28.15-.15.4-.15.56 0 .08.07.12.17.12.28 0 .1-.04.2-.12.3-.07.06-.17.1-.28.1z"/>
 <path fill="none" d="M0 0h53.18v53.6H0z"/>
 <path d="M46.55 3.45c-.1 0-.2-.04-.28-.1-.08-.1-.12-.2-.12-.3 0-.1.04-.2.1-.28.16-.15.43-.15.58 0 .07.07.12.17.12.28 0 .1-.05.2-.12.3-.08.06-.18.1-.28.1z"/>
 <path fill="none" d="M0 0h53.18v53.6H0z"/>
 <path d="M44.05 2.08c-.1 0-.2-.05-.3-.12-.06-.08-.1-.18-.1-.28 0-.1.04-.2.1-.3.16-.13.43-.14.58 0 .07.08.12.2.12.3 0 .1-.05.2-.12.28-.07.07-.17.12-.28.12z"/>
 <path fill="none" d="M0 0h53.18v53.6H0z"/>
 <path d="M41.42.95c-.1 0-.2-.04-.28-.12-.07-.06-.12-.17-.12-.28 0-.1.05-.2.13-.3.14-.13.4-.13.56.02.08.07.12.18.12.28 0 .1-.04.2-.12.28-.07.08-.17.12-.28.12z"/>
 <path fill="none" d="M0 0h53.18v53.6H0z"/>
 <path d="M52.55 22.33c-.1 0-.2-.05-.3-.12-.06-.07-.1-.17-.1-.27s.04-.2.1-.3c.16-.13.43-.14.58 0 .07.08.12.2.12.3 0 .1-.05.2-.12.28-.07.08-.17.13-.28.13z"/>
 <path fill="none" d="M0 0h53.18v53.6H0z"/>
 <path d="M52.67 12.14c-.1 0-.2-.04-.28-.1-.08-.1-.13-.2-.13-.3 0-.1.05-.2.12-.28.14-.15.4-.15.55 0 .08.07.12.17.12.28 0 .1-.04.22-.12.3-.07.06-.17.1-.28.1z"/>
 <path fill="none" d="M0 0h53.18v53.6H0z"/>
 <path d="M52 15.16c-.1 0-.2-.04-.27-.1-.08-.1-.12-.2-.12-.3 0-.1.05-.2.13-.28.14-.15.4-.15.56 0 .06.07.1.17.1.28 0 .1-.03.2-.1.3-.08.06-.18.1-.3.1z"/>
 <path fill="none" d="M0 0h53.18v53.6H0z"/>
 <path d="M45.12 8.27c-.1 0-.2-.04-.28-.1-.08-.1-.12-.2-.12-.3 0-.1.04-.2.1-.3.16-.13.43-.13.58 0 .07.08.12.2.12.3s-.05.2-.12.28c-.08.08-.18.12-.28.12z"/>
 <path fill="none" d="M0 0h53.18v53.6H0z"/>
 <path d="M46.92 6.58c-.1 0-.2-.05-.28-.12-.07-.08-.12-.18-.12-.28 0-.1.05-.2.12-.3.15-.14.4-.14.56 0 .08.08.12.2.12.3 0 .1-.04.2-.12.28-.07.07-.17.12-.28.12z"/>
 <path fill="none" d="M0 0h53.18v53.6H0z"/>
 <path d="M47.33 9.7c-.1 0-.2-.04-.28-.12-.08-.07-.12-.17-.12-.28 0-.1.04-.2.12-.28.14-.15.4-.15.56 0 .1.07.13.17.13.28 0 .1-.04.2-.12.3-.06.06-.16.1-.27.1z"/>
 <path fill="none" d="M0 0h53.18v53.6H0z"/>
 <path d="M43.95 11.08c-.1 0-.2-.05-.28-.12-.07-.08-.12-.18-.12-.28 0-.1.05-.2.12-.3.15-.14.4-.14.57 0 .07.08.1.2.1.3 0 .1-.03.2-.1.28-.08.07-.18.12-.3.12z"/>
 <path fill="none" d="M0 0h53.18v53.6H0z"/>
 <path d="M46.33 14.83c-.1 0-.2-.05-.28-.12-.08-.07-.12-.17-.12-.27s.04-.2.12-.3c.14-.14.4-.14.56 0 .1.08.13.2.13.3s-.04.2-.12.28c-.06.08-.16.13-.27.13z"/>
 <path fill="none" d="M0 0h53.18v53.6H0z"/>
 <path d="M43.07 13.34c-.1 0-.2-.04-.28-.1-.1-.1-.13-.2-.13-.3 0-.1.04-.2.1-.28.16-.15.43-.15.58 0 .07.07.12.18.12.28 0 .1-.05.22-.12.3-.08.06-.18.1-.28.1z"/>
 <path fill="none" d="M0 0h53.18v53.6H0z"/>
 <path d="M46.33 12.7c-.1 0-.2-.04-.28-.1-.08-.1-.12-.2-.12-.3 0-.1.04-.2.12-.28.15-.15.4-.15.56 0 .08.07.13.17.13.28 0 .1-.05.2-.12.3-.07.06-.17.1-.27.1z"/>
 <path fill="none" d="M0 0h53.18v53.6H0z"/>
 <path d="M49.88 10.87c-.1 0-.2-.04-.28-.12-.08-.08-.12-.18-.12-.28 0-.1.04-.2.12-.3.14-.13.4-.13.56 0 .08.1.12.2.12.3s-.04.2-.12.28c-.07.07-.17.12-.28.12z"/>
 <path fill="none" d="M0 0h53.18v53.6H0z"/>
 <path d="M49.58 7.78c-.1 0-.2-.05-.28-.12-.08-.08-.12-.18-.12-.28 0-.1.04-.2.12-.3.14-.14.4-.14.56 0 .08.08.12.2.12.3 0 .1-.04.2-.12.28-.07.07-.17.12-.28.12z"/>
 <path fill="none" d="M0 0h53.18v53.6H0z"/>
 <path d="M52.3 8.95c-.1 0-.2-.04-.3-.12-.06-.07-.1-.17-.1-.28 0-.1.04-.2.1-.28.16-.15.43-.15.58 0 .07.07.12.17.12.28 0 .1-.05.2-.12.3-.07.06-.17.1-.28.1z"/>
 <path fill="none" d="M0 0h53.18v53.6H0z"/>
 <path d="M51.8 6c-.12 0-.22-.04-.3-.12-.07-.07-.1-.17-.1-.28s.03-.2.1-.28c.15-.15.42-.15.57 0 .08.07.12.17.12.28s-.05.2-.13.3c-.07.06-.17.1-.28.1z"/>
 <path fill="none" d="M0 0h53.18v53.6H0z"/>
 <path d="M37.7 9.72c-.1 0-.2-.04-.3-.1-.07-.1-.1-.2-.1-.3 0-.1.04-.2.1-.28.16-.15.42-.15.57 0 .08.07.12.17.12.28 0 .1-.05.2-.13.28-.07.08-.17.12-.28.12z"/>
 <path fill="none" d="M0 0h53.18v53.6H0z"/>
 <path d="M37.24 6.95c-.1 0-.2-.04-.28-.1-.1-.1-.12-.2-.12-.3 0-.1.04-.2.1-.28.16-.15.43-.15.58 0 .07.07.12.17.12.28 0 .1-.05.2-.12.28-.08.08-.18.12-.28.12z"/>
 <path fill="none" d="M0 0h53.18v53.6H0z"/>
 <path d="M33.86 7.07c-.1 0-.2-.04-.28-.1-.08-.1-.12-.2-.12-.3 0-.1.04-.2.12-.28.14-.15.4-.16.56 0 .08.06.12.17.12.28 0 .1-.04.2-.12.28-.07.07-.17.1-.28.1z"/>
 <path fill="none" d="M0 0h53.18v53.6H0z"/>
 <path d="M28.17 8.5c-.1 0-.2-.03-.28-.1-.08-.08-.13-.18-.13-.3 0-.1.05-.2.12-.28.13-.14.4-.14.55 0 .08.08.12.18.12.3 0 .1-.04.2-.12.28-.07.07-.17.1-.28.1z"/>
 <path fill="none" d="M0 0h53.18v53.6H0z"/>
 <path d="M26.92 5.48c-.1 0-.2-.05-.28-.12-.08-.08-.12-.18-.12-.28 0-.1.05-.2.12-.3.15-.13.42-.14.56 0 .08.08.12.2.12.3 0 .1-.04.2-.1.28-.1.07-.2.12-.3.12z"/>
 <path fill="none" d="M0 0h53.18v53.6H0z"/>
 <path d="M23.88 5.8c-.1 0-.2-.03-.28-.1-.07-.08-.1-.18-.1-.3 0-.1.03-.2.1-.27.15-.15.42-.15.57 0 .07.07.1.18.1.28 0 .12-.03.22-.1.3-.08.07-.18.1-.3.1z"/>
 <path fill="none" d="M0 0h53.18v53.6H0z"/>
 <path d="M21.36 4.7c-.1 0-.2-.04-.28-.1-.08-.1-.12-.2-.12-.3 0-.1.04-.2.12-.28.15-.15.42-.15.56 0 .08.07.12.17.12.28 0 .1-.04.2-.12.28-.08.08-.18.12-.28.12z"/>
 <path fill="none" d="M0 0h53.18v53.6H0z"/>
 <path d="M18.67 3.7c-.1 0-.2-.04-.28-.1-.1-.1-.13-.2-.13-.3 0-.1.05-.2.12-.28.14-.15.4-.15.56 0 .07.07.1.17.1.28 0 .1-.03.2-.1.28-.08.08-.18.12-.3.12z"/>
 <path fill="none" d="M0 0h53.18v53.6H0z"/>
 <path d="M19.8 1.14c-.1 0-.2-.04-.3-.12-.06-.07-.1-.18-.1-.28 0-.1.04-.2.1-.3.16-.14.44-.13.58 0 .07.1.12.2.12.3 0 .1-.05.2-.12.28-.07.08-.18.12-.28.12z"/>
 <path fill="none" d="M0 0h53.18v53.6H0z"/>
 <path d="M22.55 1.9c-.1 0-.2-.05-.28-.13-.08-.07-.12-.18-.12-.28 0-.12.04-.22.1-.3.16-.14.43-.14.58 0 .07.08.12.18.12.3 0 .1-.05.2-.12.27-.08.08-.18.12-.28.12z"/>
 <path fill="none" d="M0 0h53.18v53.6H0z"/>
 <path d="M25.05 3.3c-.1 0-.2-.05-.28-.13-.08-.07-.12-.18-.12-.28 0-.12.04-.22.1-.3.16-.14.43-.14.58 0 .08.08.12.18.12.3 0 .1-.04.2-.12.27-.08.08-.18.12-.28.12z"/>
 <path fill="none" d="M0 0h53.18v53.6H0z"/>
 <path d="M29 3.45c-.12 0-.23-.04-.3-.12-.07-.07-.12-.17-.12-.28 0-.1.05-.2.13-.3.15-.13.42-.13.57.02.07.07.12.17.12.28 0 .1-.06.2-.14.3-.06.06-.17.1-.27.1z"/>
 <path fill="none" d="M0 0h53.18v53.6H0z"/>
 <path d="M34.6 1.57c-.1 0-.2-.04-.27-.1-.08-.1-.12-.2-.12-.3 0-.1.05-.2.13-.28.13-.15.4-.16.56 0 .07.06.1.17.1.28 0 .1-.03.2-.1.28-.08.07-.18.1-.3.1z"/>
 <path fill="none" d="M0 0h53.18v53.6H0z"/>
 <path d="M37.92 1.14c-.1 0-.2-.04-.28-.12s-.12-.18-.12-.28c0-.1.05-.2.12-.3.15-.13.4-.14.56 0 .08.1.12.2.12.3 0 .1-.04.2-.12.28-.07.07-.17.12-.28.12z"/>
 <path fill="none" d="M0 0h53.18v53.6H0z"/>
 <path d="M31.82 9.23c-.1 0-.2-.05-.3-.12-.06-.07-.1-.17-.1-.27s.04-.2.1-.3c.17-.14.43-.14.58 0 .07.08.12.2.12.3 0 .1-.05.2-.13.28-.07.08-.17.13-.28.13z"/>
 <path fill="none" d="M0 0h53.18v53.6H0z"/>
 <path d="M30.24 6.7c-.1 0-.2-.04-.3-.12-.06-.07-.1-.17-.1-.28 0-.1.04-.2.12-.3.14-.13.4-.13.56.02.07.07.1.18.1.28 0 .1-.02.2-.1.28s-.18.12-.28.12z"/>
 <path fill="none" d="M0 0h53.18v53.6H0z"/>
 <path d="M32.3 5.08c-.1 0-.2-.05-.3-.13-.06-.06-.1-.17-.1-.27s.04-.22.12-.3c.14-.13.4-.14.56 0 .07.08.12.2.12.3 0 .1-.05.2-.12.28-.07.07-.17.12-.28.12z"/>
 <path fill="none" d="M0 0h53.18v53.6H0z"/>
 <path d="M35.32 4.22c-.1 0-.2-.04-.3-.12-.06-.07-.1-.17-.1-.28 0-.1.04-.2.12-.3.13-.13.42-.13.56.02.07.07.12.17.12.28 0 .1-.05.2-.12.3-.07.06-.18.1-.28.1z"/>
 <path fill="none" d="M0 0h53.18v53.6H0z"/>
 <path d="M31.7 2.1c-.12 0-.22-.05-.3-.13-.06-.06-.1-.17-.1-.27s.04-.22.1-.3c.16-.13.42-.14.58 0 .07.1.1.2.1.3 0 .1-.03.2-.1.28-.08.07-.18.12-.3.12z"/>
 <path fill="none" d="M0 0h53.18v53.6H0z"/>
 <path d="M39.7 5.35c-.1 0-.2-.05-.3-.12-.06-.07-.1-.18-.1-.28 0-.1.04-.2.1-.3.16-.14.42-.14.57 0 .08.08.12.2.12.3 0 .1-.05.2-.13.28-.07.07-.17.12-.28.12z"/>
 <path fill="none" d="M0 0h53.18v53.6H0z"/>
 <path d="M42.94 6.35c-.1 0-.2-.05-.28-.12-.08-.08-.12-.18-.12-.28 0-.1.05-.2.12-.3.15-.13.4-.14.56 0 .08.08.12.2.12.3s-.04.2-.12.28c-.07.07-.17.12-.28.12z"/>
 <path fill="none" d="M0 0h53.18v53.6H0z"/>
 <path d="M42.57 9.1c-.1 0-.2-.04-.28-.12-.1-.08-.13-.18-.13-.28 0-.1.04-.2.1-.3.16-.13.43-.14.58 0 .07.08.12.2.12.3 0 .1-.04.2-.12.28-.07.07-.18.12-.28.12z"/>
 <path fill="none" d="M0 0h53.18v53.6H0z"/>
 <path d="M40.07 7.6c-.1 0-.2-.05-.3-.12-.06-.08-.1-.18-.1-.28 0-.1.04-.2.1-.3.16-.14.43-.14.58 0 .07.08.12.2.12.3 0 .1-.05.2-.12.28-.07.07-.17.12-.28.12z"/>
 <path fill="none" d="M0 0h53.18v53.6H0z"/>
 <path d="M40.7 10.72c-.1 0-.2-.04-.3-.12-.07-.07-.1-.17-.1-.28 0-.1.04-.2.1-.28.16-.15.42-.15.57 0 .08.07.12.17.12.28 0 .1-.05.2-.13.3-.07.06-.17.1-.28.1z"/>
 <path fill="none" d="M0 0h53.18v53.6H0z"/>
 <path d="M44.92 4.95c-.1 0-.2-.04-.28-.12-.08-.07-.12-.17-.12-.28 0-.1.05-.2.12-.28.15-.15.42-.15.56 0 .08.07.12.17.12.28 0 .1-.04.2-.12.3-.07.06-.17.1-.28.1z"/>
 <path fill="none" d="M0 0h53.18v53.6H0z"/>
 <path d="M39.17 3.32c-.1 0-.2-.04-.28-.1-.08-.1-.13-.2-.13-.3 0-.1.04-.2.12-.27.14-.16.4-.16.55 0 .08.07.12.17.12.27s-.04.22-.12.3c-.07.06-.17.1-.28.1z"/>
 <path fill="none" d="M0 0h53.18v53.6H0z"/>
 <path d="M36 19.33c-.12 0-.23-.05-.3-.13-.07-.06-.12-.16-.12-.27s.05-.22.13-.3c.15-.13.42-.14.57 0 .07.08.12.2.12.3 0 .1-.06.2-.14.28-.06.08-.17.13-.27.13z"/>
 <path fill="none" d="M0 0h53.18v53.6H0z"/>
 <path d="M33.1 19.08c-.1 0-.2-.05-.28-.13-.07-.06-.1-.17-.1-.28 0-.1.03-.2.1-.28.16-.15.43-.16.57 0 .07.06.1.16.1.27 0 .12-.03.22-.1.3-.08.06-.18.1-.3.1z"/>
 <path fill="none" d="M0 0h53.18v53.6H0z"/>
 <path d="M33.24 22.07c-.1 0-.2-.04-.28-.1-.08-.1-.12-.2-.12-.3 0-.1.04-.2.1-.28.16-.15.43-.16.58 0 .07.06.12.16.12.28 0 .1-.05.2-.12.28-.08.07-.18.1-.28.1z"/>
 <path fill="none" d="M0 0h53.18v53.6H0z"/>
 <path d="M32.55 24.7c-.1 0-.2-.04-.3-.12-.06-.07-.1-.17-.1-.28 0-.1.04-.2.12-.3.14-.13.4-.13.56.02.07.07.12.17.12.28 0 .1-.05.2-.12.3-.07.06-.17.1-.28.1z"/>
 <path fill="none" d="M0 0h53.18v53.6H0z"/>
 <path d="M35.42 23.95c-.1 0-.2-.04-.28-.12-.08-.07-.12-.17-.12-.28 0-.1.05-.2.12-.28.15-.15.42-.15.56 0 .08.07.12.17.12.28 0 .1-.04.2-.12.3-.07.06-.17.1-.28.1z"/>
 <path fill="none" d="M0 0h53.18v53.6H0z"/>
 <path d="M34.8 26.2c-.1 0-.2-.04-.28-.1-.08-.1-.12-.2-.12-.3 0-.1.04-.2.12-.3.14-.12.4-.13.56.02.07.07.12.17.12.28 0 .1-.05.2-.12.3-.07.06-.18.1-.28.1z"/>
 <path fill="none" d="M0 0h53.18v53.6H0z"/>
 <path d="M39.55 22.7c-.1 0-.2-.04-.28-.12-.08-.07-.12-.17-.12-.28 0-.1.04-.2.1-.28.17-.15.43-.15.58 0 .07.07.12.17.12.28 0 .1-.05.22-.13.3-.06.06-.17.1-.27.1z"/>
 <path fill="none" d="M0 0h53.18v53.6H0z"/>
 <path d="M39.8 25.95c-.1 0-.2-.04-.3-.12-.06-.07-.1-.17-.1-.28 0-.1.04-.2.1-.28.16-.15.43-.15.58 0 .07.07.12.17.12.28 0 .1-.05.2-.12.3-.07.06-.17.1-.28.1z"/>
 <path fill="none" d="M0 0h53.18v53.6H0z"/>
 <path d="M41.72 24.37c-.12 0-.22-.05-.3-.13-.06-.07-.1-.17-.1-.27s.04-.2.1-.3c.15-.13.42-.14.58 0 .07.08.1.18.1.3 0 .1-.03.2-.1.28-.07.07-.18.12-.28.12z"/>
 <path fill="none" d="M0 0h53.18v53.6H0z"/>
 <path d="M42.72 21.87c-.1 0-.2-.04-.3-.12-.06-.08-.1-.18-.1-.28 0-.1.04-.2.1-.3.16-.13.43-.14.58 0 .07.08.1.2.1.3s-.03.2-.1.28c-.07.07-.18.12-.28.12z"/>
 <path fill="none" d="M0 0h53.18v53.6H0z"/>
 <path d="M44.72 26.03c-.1 0-.2-.04-.3-.1-.06-.1-.1-.2-.1-.3 0-.1.04-.2.1-.28.16-.15.43-.15.58 0 .07.07.1.17.1.28 0 .1-.03.2-.1.3-.07.06-.18.1-.28.1z"/>
 <path fill="none" d="M0 0h53.18v53.6H0z"/>
 <path d="M41.88 27.37c-.1 0-.2-.04-.28-.12-.08-.08-.12-.18-.12-.28 0-.1.04-.2.12-.3.14-.13.4-.14.56 0 .08.08.12.2.12.3 0 .1-.04.2-.12.28-.07.08-.17.12-.28.12z"/>
 <path fill="none" d="M0 0h53.18v53.6H0z"/>
 <path d="M39.9 28.76c-.1 0-.2-.04-.28-.1-.08-.1-.12-.2-.12-.3 0-.1.04-.2.12-.28.14-.15.4-.15.56 0 .08.07.12.17.12.28 0 .1-.04.2-.1.28-.1.08-.2.12-.3.12z"/>
 <path fill="none" d="M0 0h53.18v53.6H0z"/>
 <path d="M41.82 31.1c-.1 0-.2-.04-.28-.12-.08-.08-.12-.18-.12-.28 0-.1.04-.2.1-.3.16-.13.43-.13.58 0 .07.08.12.2.12.3 0 .1-.04.2-.12.28-.08.07-.18.12-.28.12z"/>
 <path fill="none" d="M0 0h53.18v53.6H0z"/>
 <path d="M43.94 29.22c-.1 0-.2-.04-.28-.1-.08-.1-.12-.2-.12-.3 0-.1.05-.2.12-.28.15-.15.42-.15.56 0 .08.07.12.17.12.28 0 .1-.04.2-.1.28-.1.08-.2.12-.3.12z"/>
 <path fill="none" d="M0 0h53.18v53.6H0z"/>
 <path d="M46.44 27.85c-.1 0-.2-.04-.28-.12-.08-.08-.12-.18-.12-.28 0-.1.05-.2.12-.3.15-.13.4-.14.56 0 .08.08.12.2.12.3 0 .1-.04.2-.12.28-.07.07-.17.12-.28.12z"/>
 <path fill="none" d="M0 0h53.18v53.6H0z"/>
 <path d="M50.82 24.97c-.1 0-.2-.04-.3-.12-.06-.07-.1-.17-.1-.28 0-.1.04-.2.1-.28.16-.16.43-.16.58 0 .07.06.12.16.12.27 0 .1-.05.2-.12.3-.07.06-.17.1-.28.1z"/>
 <path fill="none" d="M0 0h53.18v53.6H0z"/>
 <path d="M39.65 31.86c-.1 0-.2-.04-.28-.1-.08-.1-.12-.2-.12-.3 0-.1.04-.2.12-.28.13-.14.42-.15.57 0 .07.07.1.17.1.28 0 .1-.03.2-.1.3-.08.06-.18.1-.3.1z"/>
 <path fill="none" d="M0 0h53.18v53.6H0z"/>
 <path d="M42.92 33.7c-.1 0-.2-.04-.28-.1-.07-.1-.12-.2-.12-.3 0-.1.05-.2.12-.28.15-.15.4-.16.56 0 .08.07.12.17.12.28 0 .1-.04.2-.12.3-.07.06-.17.1-.28.1z"/>
 <path fill="none" d="M0 0h53.18v53.6H0z"/>
 <path d="M45.42 31.07c-.1 0-.2-.04-.28-.1-.07-.1-.12-.2-.12-.3 0-.1.04-.2.12-.28.15-.16.4-.16.56 0 .08.06.12.16.12.28 0 .1-.04.2-.12.28-.07.07-.17.1-.28.1z"/>
 <path fill="none" d="M0 0h53.18v53.6H0z"/>
 <path d="M45.8 33.7c-.1 0-.2-.04-.28-.1-.08-.1-.12-.2-.12-.3 0-.1.04-.2.1-.28.16-.15.43-.15.58 0 .07.07.12.17.12.28 0 .1-.04.2-.12.28-.08.08-.18.12-.28.12z"/>
 <path fill="none" d="M0 0h53.18v53.6H0z"/>
 <path d="M47.82 30.72c-.1 0-.2-.04-.28-.1-.08-.1-.12-.2-.12-.3 0-.1.04-.2.1-.28.16-.15.43-.15.58 0 .07.07.12.17.12.28 0 .1-.04.2-.12.28-.08.08-.18.12-.28.12z"/>
 <path fill="none" d="M0 0h53.18v53.6H0z"/>
 <path d="M49.2 27.47c-.1 0-.2-.04-.3-.1-.07-.1-.1-.2-.1-.3 0-.1.04-.2.1-.28.16-.16.42-.16.57 0 .08.06.12.16.12.27 0 .1-.05.2-.13.28-.07.08-.17.12-.28.12z"/>
 <path fill="none" d="M0 0h53.18v53.6H0z"/>
 <path d="M52.07 28.6c-.1 0-.2-.04-.28-.12-.1-.08-.13-.18-.13-.28 0-.1.04-.2.1-.3.16-.14.43-.14.58 0 .07.08.12.18.12.3 0 .1-.05.2-.12.28s-.18.12-.28.12z"/>
 <path fill="none" d="M0 0h53.18v53.6H0z"/>
 <path d="M52.88 26.53c-.1 0-.2-.04-.28-.1-.08-.1-.12-.2-.12-.3 0-.1.04-.2.12-.28.15-.15.4-.15.56 0 .08.07.12.18.12.28 0 .1-.04.2-.12.3-.07.06-.17.1-.28.1z"/>
 <path fill="none" d="M0 0h53.18v53.6H0z"/>
 <path d="M50.55 30.2c-.1 0-.2-.04-.28-.1-.08-.1-.12-.2-.12-.3 0-.1.04-.2.1-.28.16-.15.43-.15.58 0 .07.07.12.17.12.28 0 .1-.05.2-.12.28-.07.08-.18.12-.28.12z"/>
 <path fill="none" d="M0 0h53.18v53.6H0z"/>
 <path d="M49.32 33.34c-.1 0-.2-.04-.28-.1-.08-.1-.12-.2-.12-.3 0-.1.04-.2.1-.28.16-.15.43-.15.58 0 .07.07.12.18.12.28 0 .1-.05.22-.12.3-.08.06-.18.1-.28.1z"/>
 <path fill="none" d="M0 0h53.18v53.6H0z"/>
 <path d="M52.55 31.7c-.1 0-.2-.04-.28-.1-.08-.1-.12-.2-.12-.3 0-.1.04-.2.1-.28.16-.15.43-.15.58 0 .07.07.12.17.12.28 0 .1-.05.2-.12.3-.08.06-.18.1-.28.1z"/>
 <path fill="none" d="M0 0h53.18v53.6H0z"/>
 <path d="M47.92 35.57c-.1 0-.2-.04-.28-.1-.08-.1-.12-.2-.12-.3 0-.1.05-.2.12-.28.15-.16.4-.16.56 0 .08.06.12.17.12.27s-.04.22-.12.3c-.07.06-.17.1-.28.1z"/>
 <path fill="none" d="M0 0h53.18v53.6H0z"/>
 <path d="M52.42 38.2c-.1 0-.2-.04-.28-.1-.07-.1-.12-.2-.12-.3 0-.1.04-.2.12-.28.15-.15.42-.15.56 0 .08.07.12.17.12.28 0 .1-.04.2-.12.3-.07.06-.17.1-.28.1z"/>
 <path fill="none" d="M0 0h53.18v53.6H0z"/>
 <path d="M50.5 39.9c-.1 0-.2-.03-.27-.1-.08-.07-.12-.18-.12-.3 0-.1.05-.2.13-.28.14-.14.4-.14.56 0 .06.08.1.18.1.3 0 .1-.04.2-.1.28-.08.07-.18.1-.3.1z"/>
 <path fill="none" d="M0 0h53.18v53.6H0z"/>
 <path d="M48.24 41.45c-.1 0-.2-.04-.28-.1-.08-.1-.12-.2-.12-.3 0-.1.05-.2.12-.28.15-.15.4-.15.56 0 .08.07.12.17.12.28 0 .1-.04.2-.12.28-.07.08-.17.12-.28.12z"/>
 <path fill="none" d="M0 0h53.18v53.6H0z"/>
 <path d="M50.55 42.7c-.1 0-.2-.04-.28-.1-.08-.1-.12-.2-.12-.3 0-.1.04-.2.1-.28.16-.15.43-.15.58 0 .07.07.12.17.12.28 0 .1-.05.2-.12.3-.07.06-.18.1-.28.1z"/>
 <path fill="none" d="M0 0h53.18v53.6H0z"/>
 <path d="M51 45.18c-.1 0-.2-.04-.3-.1-.07-.1-.1-.2-.1-.3 0-.1.04-.2.1-.28.16-.15.42-.15.57 0 .08.07.12.17.12.28 0 .1-.05.2-.13.3-.07.06-.17.1-.28.1z"/>
 <path fill="none" d="M0 0h53.18v53.6H0z"/>
 <path d="M52.5 41.98c-.1 0-.2-.04-.27-.12s-.12-.18-.12-.28c0-.1.05-.2.13-.3.14-.13.4-.14.56 0 .07.08.1.2.1.3 0 .1-.04.2-.1.28-.08.07-.18.12-.3.12z"/>
 <path fill="none" d="M0 0h53.18v53.6H0z"/>
 <path d="M46.42 43.07c-.1 0-.2-.04-.28-.1-.08-.1-.12-.2-.12-.3 0-.1.05-.2.12-.28.15-.16.4-.16.56 0 .08.06.12.17.12.27s-.04.22-.12.3c-.07.06-.17.1-.28.1z"/>
 <path fill="none" d="M0 0h53.18v53.6H0z"/>
 <path d="M45.67 45.57c-.1 0-.2-.04-.28-.1-.08-.1-.13-.2-.13-.3 0-.1.05-.2.12-.28.14-.16.4-.16.55 0 .08.06.12.17.12.28 0 .1-.04.2-.12.28-.07.07-.17.1-.28.1z"/>
 <path fill="none" d="M0 0h53.18v53.6H0z"/>
 <path d="M43.07 45.14c-.1 0-.2-.04-.28-.1-.1-.1-.13-.2-.13-.3 0-.1.04-.2.1-.28.16-.15.43-.15.58 0 .07.07.12.17.12.28 0 .1-.05.2-.12.3-.08.06-.18.1-.28.1z"/>
 <path fill="none" d="M0 0h53.18v53.6H0z"/>
 <path d="M35.55 53.7c-.1 0-.2-.04-.28-.1-.08-.1-.12-.2-.12-.3 0-.1.04-.2.1-.28.16-.15.43-.15.58 0 .07.06.12.17.12.28 0 .1-.05.2-.12.3-.07.06-.18.1-.28.1z"/>
 <path fill="none" d="M0 0h53.18v53.6H0z"/>
 <path d="M48.05 46.95c-.1 0-.2-.04-.28-.1-.08-.1-.12-.2-.12-.3 0-.1.04-.2.1-.28.16-.15.43-.16.58 0 .07.07.12.17.12.28 0 .1-.05.2-.12.3-.08.06-.18.1-.28.1z"/>
 <path fill="none" d="M0 0h53.18v53.6H0z"/>
 <path d="M46.8 49.32c-.1 0-.2-.04-.28-.1-.08-.1-.12-.2-.12-.3 0-.1.04-.2.1-.28.16-.15.43-.15.58 0 .07.07.12.18.12.3 0 .1-.04.2-.12.27-.08.08-.18.12-.28.12z"/>
 <path fill="none" d="M0 0h53.18v53.6H0z"/>
 <path d="M50.3 47.95c-.1 0-.2-.04-.28-.1-.08-.1-.12-.2-.12-.3 0-.1.04-.2.1-.28.16-.15.43-.15.58 0 .07.07.12.17.12.28 0 .1-.04.2-.12.28-.08.08-.18.12-.28.12z"/>
 <path fill="none" d="M0 0h53.18v53.6H0z"/>
 <path d="M49.3 50.2c-.1 0-.2-.04-.28-.12-.08-.07-.12-.17-.12-.28 0-.1.04-.2.12-.3.14-.13.4-.13.56.02.07.07.12.17.12.28 0 .1-.04.2-.12.28-.08.08-.18.12-.28.12z"/>
 <path fill="none" d="M0 0h53.18v53.6H0z"/>
 <path d="M46.67 52.2c-.1 0-.2-.04-.28-.12-.1-.07-.13-.17-.13-.28 0-.1.05-.2.12-.3.13-.13.4-.13.56.02.07.07.1.17.1.28 0 .1-.03.2-.1.28-.08.08-.18.12-.3.12z"/>
 <path fill="none" d="M0 0h53.18v53.6H0z"/>
 <path d="M43.67 50.7c-.1 0-.2-.04-.28-.12-.1-.08-.13-.18-.13-.28 0-.1.05-.2.12-.28.14-.15.4-.15.56 0 .07.07.1.17.1.28 0 .1-.03.2-.1.28-.08.08-.18.12-.3.12z"/>
 <path fill="none" d="M0 0h53.18v53.6H0z"/>
 <path d="M41.94 48.22c-.1 0-.2-.04-.28-.1-.08-.1-.12-.2-.12-.3 0-.1.05-.2.12-.28.15-.15.42-.15.56 0 .08.07.12.17.12.28 0 .1-.04.2-.12.28-.07.08-.17.12-.28.12z"/>
 <path fill="none" d="M0 0h53.18v53.6H0z"/>
 <path d="M38.82 47.6c-.1 0-.2-.04-.28-.12-.08-.08-.12-.18-.12-.28 0-.1.04-.2.1-.3.16-.13.43-.14.58 0 .07.08.12.18.12.3 0 .1-.05.2-.12.28-.07.07-.18.12-.28.12z"/>
 <path fill="none" d="M0 0h53.18v53.6H0z"/>
 <path d="M40.67 51.2c-.1 0-.2-.04-.28-.12-.1-.07-.13-.17-.13-.28 0-.1.05-.2.12-.3.15-.13.4-.13.55 0 .08.1.12.2.12.3 0 .1-.04.2-.1.28-.1.08-.2.12-.3.12z"/>
 <path fill="none" d="M0 0h53.18v53.6H0z"/>
 <path d="M39.8 53.45c-.1 0-.2-.04-.28-.12-.08-.07-.12-.17-.12-.28 0-.1.04-.2.12-.3.14-.13.4-.13.56.02.07.07.12.17.12.28 0 .1-.04.2-.12.28-.08.08-.18.12-.28.12z"/>
 <path fill="none" d="M0 0h53.18v53.6H0z"/>
 <path d="M38.3 49.95c-.1 0-.2-.04-.28-.12-.08-.08-.12-.18-.12-.28 0-.1.04-.2.12-.28.14-.15.4-.15.56 0 .07.07.12.17.12.28 0 .1-.04.2-.1.28-.1.08-.2.12-.3.12z"/>
 <path fill="none" d="M0 0h53.18v53.6H0z"/>
 <path d="M37.55 52.07c-.1 0-.2-.04-.28-.1-.08-.1-.12-.2-.12-.3 0-.1.04-.2.1-.28.16-.16.43-.16.58 0 .07.06.12.17.12.27s-.04.2-.12.3c-.08.06-.18.1-.28.1z"/>
 <path fill="none" d="M0 0h53.18v53.6H0z"/>
 <path d="M43.55 52.95c-.1 0-.2-.04-.28-.1-.08-.1-.12-.2-.12-.3 0-.1.04-.2.1-.28.16-.15.43-.15.58 0 .07.07.12.17.12.28 0 .1-.05.2-.12.28-.07.08-.18.12-.28.12z"/>
 <path fill="none" d="M0 0h53.18v53.6H0z"/>
 <path d="M49.08 52.82c-.1 0-.2-.04-.28-.1-.08-.1-.12-.2-.12-.3 0-.1.04-.2.12-.28.14-.14.4-.15.56 0 .08.08.12.18.12.3 0 .1-.04.2-.12.26-.08.08-.17.12-.28.12z"/>
 <path fill="none" d="M0 0h53.18v53.6H0z"/>
 <path d="M52.05 49.75c-.1 0-.2-.04-.28-.1-.08-.1-.12-.2-.12-.3s.04-.2.1-.28c.16-.15.43-.15.58 0 .07.07.12.17.12.28s-.05.2-.12.3c-.07.06-.18.1-.28.1z"/>
 <path fill="none" d="M0 0h53.18v53.6H0z"/>
 <path d="M52.37 47.06c-.1 0-.2-.04-.28-.12-.1-.08-.13-.18-.13-.28 0-.1.04-.2.1-.3.16-.13.43-.13.58 0 .07.08.12.2.12.3 0 .1-.04.2-.12.28s-.18.12-.28.12z"/>
 <path fill="none" d="M0 0h53.18v53.6H0z"/>
 <path d="M51.95 52.57c-.1 0-.2-.04-.28-.1-.08-.1-.12-.2-.12-.3 0-.1.05-.2.12-.28.15-.15.42-.16.57 0 .07.07.1.17.1.27s-.03.2-.1.28c-.08.08-.18.12-.3.12z"/>
 <path fill="none" d="M0 0h53.18v53.6H0z"/>
 <path d="M44.42 47.82c-.1 0-.2-.04-.28-.1-.08-.1-.12-.2-.12-.3 0-.1.05-.2.12-.28.15-.14.42-.15.57 0 .08.08.12.18.12.28 0 .1-.04.2-.1.28-.1.08-.2.12-.3.12z"/>
 <path fill="none" d="M0 0h53.18v53.6H0z"/>
 <path d="M9.3 36.95c-.1 0-.2-.04-.28-.12-.08-.08-.12-.18-.12-.28 0-.1.04-.2.12-.28.14-.15.4-.15.56 0 .07.07.12.17.12.28 0 .1-.04.2-.12.28-.07.08-.17.12-.28.12z"/>
 <path fill="none" d="M0 0h53.18v53.6H0z"/>
 <path d="M48.67 44.7c-.1 0-.2-.04-.28-.1-.08-.1-.13-.2-.13-.3 0-.1.04-.2.12-.28.14-.15.4-.15.55 0 .08.07.12.17.12.28 0 .1-.04.2-.12.3-.07.06-.17.1-.28.1z"/>
 <path fill="none" d="M0 0h53.18v53.6H0z"/>
 <path d="M44.92 36.32c-.1 0-.2-.04-.28-.1-.08-.1-.12-.2-.12-.3 0-.1.05-.2.12-.28.15-.14.42-.15.56 0 .08.07.12.18.12.3 0 .1-.04.2-.12.27-.07.08-.17.12-.28.12z"/>
 <path fill="none" d="M0 0h53.18v53.6H0z"/>
 <path d="M41.94 36.72c-.1 0-.2-.04-.28-.1-.08-.1-.12-.2-.12-.3 0-.1.05-.2.12-.28.15-.15.4-.15.56 0 .08.07.12.17.12.28 0 .1-.04.2-.12.3-.07.06-.17.1-.28.1z"/>
 <path fill="none" d="M0 0h53.18v53.6H0z"/>
 <path d="M39.8 34.57c-.1 0-.2-.04-.28-.1-.08-.08-.12-.2-.12-.3 0-.1.04-.2.12-.28.14-.15.4-.16.56 0 .07.06.12.16.12.27 0 .1-.05.22-.13.3-.07.06-.17.1-.27.1z"/>
 <path fill="none" d="M0 0h53.18v53.6H0z"/>
 <path d="M36.67 39.26c-.1 0-.2-.04-.28-.12s-.13-.18-.13-.28c0-.1.05-.2.12-.3.13-.13.4-.14.56 0 .07.1.1.2.1.3 0 .1-.03.2-.1.28-.08.08-.18.12-.3.12z"/>
 <path fill="none" d="M0 0h53.18v53.6H0z"/>
 <path d="M44.42 38.82c-.1 0-.2-.03-.27-.1-.08-.1-.13-.2-.13-.3 0-.1.04-.2.12-.28.15-.15.4-.15.56 0 .08.07.12.17.12.3 0 .1-.04.2-.12.27-.07.08-.17.12-.28.12z"/>
 <path fill="none" d="M0 0h53.18v53.6H0z"/>
 <path d="M41.67 39.57c-.1 0-.2-.04-.28-.1-.1-.1-.13-.2-.13-.3 0-.1.04-.2.12-.28.14-.15.4-.16.55 0 .08.06.12.16.12.27 0 .1-.04.2-.12.3-.07.06-.17.1-.28.1z"/>
 <path fill="none" d="M0 0h53.18v53.6H0z"/>
 <path d="M41.3 42.32c-.1 0-.22-.04-.3-.12-.06-.06-.1-.17-.1-.27s.04-.22.12-.3c.14-.13.4-.14.56 0 .07.08.12.2.12.3 0 .1-.05.2-.12.28-.07.08-.17.12-.28.12z"/>
 <path fill="none" d="M0 0h53.18v53.6H0z"/>
 <path d="M39.3 40.7c-.1 0-.2-.04-.28-.1-.08-.1-.12-.2-.12-.3 0-.1.04-.2.1-.28.17-.15.43-.15.58 0 .07.07.12.17.12.28 0 .1-.04.2-.12.28-.08.08-.18.12-.28.12z"/>
 <path fill="none" d="M0 0h53.18v53.6H0z"/>
 <path d="M38.15 43.04c-.1 0-.2-.04-.28-.12-.08-.08-.12-.18-.12-.28 0-.1.05-.22.12-.3.15-.13.42-.13.57 0 .07.1.1.2.1.3 0 .1-.03.2-.1.28-.08.08-.18.12-.3.12z"/>
 <path fill="none" d="M0 0h53.18v53.6H0z"/>
 <path d="M35.42 41.45c-.1 0-.2-.04-.28-.12-.07-.07-.12-.18-.12-.28 0-.1.05-.2.12-.3.14-.13.42-.13.57.02.08.07.12.17.12.28 0 .1-.04.2-.1.28-.1.08-.2.12-.3.12z"/>
 <path fill="none" d="M0 0h53.18v53.6H0z"/>
 <path d="M35.55 44.2c-.1 0-.2-.04-.28-.1-.08-.1-.12-.2-.12-.3 0-.1.04-.2.1-.28.16-.15.43-.15.58 0 .07.07.12.17.12.28 0 .1-.04.2-.12.28-.07.08-.17.12-.28.12z"/>
 <path fill="none" d="M0 0h53.18v53.6H0z"/>
 <path d="M33.8 39.08c-.1 0-.2-.04-.28-.12s-.12-.18-.12-.28c0-.1.04-.2.1-.3.16-.13.43-.14.58 0 .07.08.12.2.12.3 0 .1-.04.2-.12.28-.08.07-.18.12-.28.12z"/>
 <path fill="none" d="M0 0h53.18v53.6H0z"/>
 <path d="M35.42 36.45c-.1 0-.2-.04-.28-.1-.08-.1-.12-.2-.12-.3 0-.1.05-.2.12-.28.14-.15.42-.15.57 0 .08.07.12.17.12.28 0 .1-.04.2-.1.28-.1.08-.2.12-.3.12z"/>
 <path fill="none" d="M0 0h53.18v53.6H0z"/>
 <path d="M32.67 36.32c-.1 0-.2-.04-.28-.1-.1-.1-.13-.2-.13-.3 0-.1.05-.2.12-.28.14-.14.4-.15.55 0 .08.07.12.18.12.3 0 .1-.04.2-.12.27-.07.08-.17.12-.28.12z"/>
 <path fill="none" d="M0 0h53.18v53.6H0z"/>
 <path d="M33.92 33.82c-.1 0-.2-.04-.28-.1-.07-.08-.12-.2-.12-.3 0-.1.05-.2.12-.28.15-.14.4-.15.56 0 .08.07.12.18.12.3 0 .1-.04.2-.12.27-.07.08-.17.12-.28.12z"/>
 <path fill="none" d="M0 0h53.18v53.6H0z"/>
 <path d="M35.67 31.82c-.1 0-.2-.03-.27-.1-.1-.1-.13-.2-.13-.3 0-.1.05-.2.12-.28.14-.14.4-.15.55 0 .08.07.12.18.12.3 0 .1-.04.2-.12.27-.07.08-.17.12-.28.12z"/>
 <path fill="none" d="M0 0h53.18v53.6H0z"/>
 <path d="M32.67 30.7c-.1 0-.2-.04-.28-.1-.08-.1-.13-.2-.13-.3 0-.1.05-.2.12-.28.14-.15.4-.15.55 0 .08.07.12.17.12.28 0 .1-.04.2-.12.3-.07.06-.17.1-.28.1z"/>
 <path fill="none" d="M0 0h53.18v53.6H0z"/>
 <path d="M34.92 29.32c-.1 0-.2-.04-.28-.1-.07-.1-.12-.2-.12-.3 0-.1.05-.2.12-.28.15-.15.4-.15.56 0 .08.07.12.18.12.28 0 .1-.04.22-.12.3-.07.06-.17.1-.28.1z"/>
 <path fill="none" d="M0 0h53.18v53.6H0z"/>
 <path d="M32.55 27.57c-.1 0-.2-.04-.28-.1-.08-.1-.12-.2-.12-.3 0-.1.04-.2.12-.28.14-.15.4-.16.56 0 .07.06.12.17.12.28 0 .1-.04.2-.12.28-.07.07-.18.1-.28.1z"/>
 <path fill="none" d="M0 0h53.18v53.6H0z"/>
 <path d="M29.57 28.1c-.1 0-.2-.05-.3-.12-.06-.07-.1-.17-.1-.28 0-.1.04-.2.1-.3.16-.14.43-.14.58 0 .08.1.12.2.12.3 0 .1-.05.2-.12.28s-.18.1-.28.1z"/>
 <path fill="none" d="M0 0h53.18v53.6H0z"/>
 <path d="M26.92 27.07c-.1 0-.2-.04-.28-.1-.08-.1-.12-.2-.12-.3 0-.1.05-.2.12-.28.15-.16.42-.16.56 0 .08.06.12.17.12.28 0 .1-.04.2-.1.28-.1.07-.2.1-.3.1z"/>
 <path fill="none" d="M0 0h53.18v53.6H0z"/>
 <path d="M23.17 26.83c-.1 0-.2-.05-.28-.13-.08-.06-.13-.17-.13-.28 0-.1.05-.2.12-.28.14-.14.4-.15.56 0 .07.08.1.18.1.28 0 .1-.03.22-.1.3-.08.06-.18.1-.3.1z"/>
 <path fill="none" d="M0 0h53.18v53.6H0z"/>
 <path d="M19.55 26.83c-.1 0-.2-.05-.3-.12-.06-.07-.1-.17-.1-.28 0-.1.04-.2.1-.28.17-.15.43-.15.58 0 .08.08.12.18.12.28 0 .1-.05.2-.12.3-.08.06-.18.1-.28.1z"/>
 <path fill="none" d="M0 0h53.18v53.6H0z"/>
 <path d="M18.05 29.07c-.1 0-.2-.04-.3-.1-.06-.1-.1-.2-.1-.3 0-.1.04-.2.12-.28.14-.16.4-.16.56 0 .07.06.12.17.12.28 0 .1-.04.2-.12.28-.07.07-.18.1-.28.1z"/>
 <path fill="none" d="M0 0h53.18v53.6H0z"/>
 <path d="M21.55 28.95c-.1 0-.2-.04-.28-.1-.08-.1-.12-.2-.12-.3 0-.1.04-.2.12-.3.14-.13.4-.14.56.02.07.07.12.17.12.28 0 .1-.04.2-.12.28-.08.08-.18.12-.28.12z"/>
 <path fill="none" d="M0 0h53.18v53.6H0z"/>
 <path d="M19.92 30.95c-.1 0-.2-.04-.28-.12-.07-.07-.12-.17-.12-.28 0-.1.05-.2.12-.28.15-.15.42-.15.57 0 .08.07.12.17.12.28 0 .1-.04.2-.12.28-.07.08-.17.12-.28.12z"/>
 <path fill="none" d="M0 0h53.18v53.6H0z"/>
 <path d="M25.17 29.07c-.1 0-.2-.04-.28-.1-.1-.1-.13-.2-.13-.3 0-.1.05-.2.12-.28.14-.16.4-.16.56 0 .07.06.1.17.1.28 0 .1-.03.2-.1.28-.08.07-.18.1-.3.1z"/>
 <path fill="none" d="M0 0h53.18v53.6H0z"/>
 <path d="M23.42 31.07c-.1 0-.2-.04-.28-.1-.08-.1-.12-.2-.12-.3 0-.1.05-.2.12-.28.15-.16.42-.16.56 0 .08.07.12.17.12.28 0 .1-.04.2-.1.27-.1.08-.2.12-.3.12z"/>
 <path fill="none" d="M0 0h53.18v53.6H0z"/>
 <path d="M27.17 30.7c-.1 0-.2-.05-.28-.13-.08-.06-.13-.16-.13-.27 0-.1.05-.2.13-.3.13-.13.4-.13.56.02.07.07.1.17.1.28 0 .1-.03.2-.1.28-.08.08-.18.12-.3.12z"/>
 <path fill="none" d="M0 0h53.18v53.6H0z"/>
 <path d="M29.7 31.1c-.1 0-.2-.04-.3-.12-.07-.08-.1-.18-.1-.28 0-.1.04-.2.1-.3.17-.14.43-.13.57 0 .08.1.12.2.12.3 0 .1-.05.2-.12.28-.08.08-.18.12-.3.12z"/>
 <path fill="none" d="M0 0h53.18v53.6H0z"/>
 <path d="M27.3 32.95c-.1 0-.2-.04-.28-.1-.08-.1-.12-.2-.12-.3 0-.1.04-.2.1-.28.16-.15.43-.15.58 0 .07.07.12.17.12.28 0 .1-.04.2-.12.28-.08.08-.18.12-.28.12z"/>
 <path fill="none" d="M0 0h53.18v53.6H0z"/>
 <path d="M31.2 33.22c-.1 0-.2-.04-.3-.12-.07-.07-.1-.17-.1-.28 0-.1.04-.2.12-.3.14-.13.4-.13.56.02.07.07.1.17.1.28 0 .1-.03.2-.1.28-.08.08-.18.12-.3.12z"/>
 <path fill="none" d="M0 0h53.18v53.6H0z"/>
 <path d="M28.94 35.1c-.1 0-.2-.04-.28-.12-.08-.08-.12-.18-.12-.28 0-.1.05-.2.12-.3.15-.14.4-.13.56 0 .08.1.12.2.12.3 0 .1-.04.2-.1.28-.1.08-.2.12-.3.12z"/>
 <path fill="none" d="M0 0h53.18v53.6H0z"/>
 <path d="M29.92 37.2c-.1 0-.2-.04-.28-.1-.08-.1-.12-.2-.12-.3 0-.1.05-.2.12-.28.15-.15.42-.15.56 0 .08.07.12.17.12.28 0 .1-.04.2-.12.28-.07.08-.17.12-.28.12z"/>
 <path fill="none" d="M0 0h53.18v53.6H0z"/>
 <path d="M30.67 22.64c-.1 0-.2-.05-.28-.12-.1-.08-.13-.18-.13-.28 0-.1.05-.22.12-.3.13-.13.4-.14.55 0 .08.08.12.2.12.3 0 .1-.04.2-.12.28-.07.07-.17.12-.28.12z"/>
 <path fill="none" d="M0 0h53.18v53.6H0z"/>
 <path d="M27.6 23.4c-.1 0-.2-.06-.27-.13-.08-.08-.12-.18-.12-.28 0-.12.05-.22.13-.3.15-.15.4-.15.56 0 .07.07.1.18.1.3 0 .1-.03.2-.1.27-.08.07-.18.12-.3.12z"/>
 <path fill="none" d="M0 0h53.18v53.6H0z"/>
 <path d="M24.05 23.14c-.1 0-.2-.04-.28-.12s-.12-.18-.12-.28c0-.1.04-.2.1-.3.18-.14.44-.13.58 0 .08.1.12.2.12.3 0 .1-.04.2-.12.28s-.18.12-.28.12z"/>
 <path fill="none" d="M0 0h53.18v53.6H0z"/>
 <path d="M21.92 16.32c-.1 0-.2-.03-.28-.1s-.12-.2-.12-.3c0-.1.05-.2.12-.28.15-.15.42-.15.57 0 .08.08.12.18.12.3 0 .1-.04.2-.1.27-.1.1-.2.12-.3.12z"/>
 <path fill="none" d="M0 0h53.18v53.6H0z"/>
 <path d="M20.42 18.64c-.1 0-.2-.04-.28-.12-.07-.07-.12-.18-.12-.28 0-.1.05-.2.12-.3.15-.14.42-.14.57.02.08.07.12.17.12.28 0 .1-.04.2-.1.28-.1.08-.2.12-.3.12z"/>
 <path fill="none" d="M0 0h53.18v53.6H0z"/>
 <path d="M23.7 19.04c-.1 0-.2-.04-.27-.12-.08-.08-.12-.18-.12-.28 0-.1.05-.2.13-.3.15-.13.4-.14.57.02.07.07.1.17.1.28 0 .1-.03.2-.1.28-.1.08-.2.12-.3.12z"/>
 <path fill="none" d="M0 0h53.18v53.6H0z"/>
 <path d="M21.8 21.58c-.1 0-.2-.05-.3-.12-.06-.08-.1-.18-.1-.28 0-.1.04-.2.1-.3.17-.14.43-.14.58 0 .07.1.12.2.12.3 0 .1-.04.2-.12.28-.07.07-.18.12-.28.12z"/>
 <path fill="none" d="M0 0h53.18v53.6H0z"/>
 <path d="M18.44 23.47c-.1 0-.2-.04-.28-.1-.07-.1-.12-.2-.12-.3 0-.1.05-.2.12-.28.15-.16.42-.16.57 0 .07.06.1.16.1.27 0 .1-.03.2-.1.28-.08.08-.18.12-.3.12z"/>
 <path fill="none" d="M0 0h53.18v53.6H0z"/>
 <path d="M21.32 24.47c-.1 0-.2-.04-.3-.12-.06-.07-.1-.17-.1-.28 0-.1.04-.2.1-.28.17-.17.43-.16.58 0 .08.07.12.17.12.27s-.05.2-.12.28c-.08.08-.18.12-.28.12z"/>
 <path fill="none" d="M0 0h53.18v53.6H0z"/>
 <path d="M25.32 24.85c-.1 0-.2-.05-.3-.12-.06-.08-.1-.18-.1-.28 0-.1.04-.2.1-.3.16-.14.43-.14.58 0 .07.1.12.2.12.3 0 .1-.04.2-.12.28-.08.07-.18.12-.28.12z"/>
 <path fill="none" d="M0 0h53.18v53.6H0z"/>
 <path d="M29.57 25.34c-.1 0-.2-.04-.3-.1-.06-.1-.1-.2-.1-.3 0-.1.04-.2.12-.28.13-.14.4-.15.55 0 .07.07.12.18.12.3 0 .1-.04.2-.12.27-.07.07-.18.1-.28.1z"/>
 <path fill="none" d="M0 0h53.18v53.6H0z"/>
 <path d="M18.6 20.57c-.1 0-.2-.04-.27-.1-.08-.1-.12-.2-.12-.3 0-.1.05-.2.13-.28.15-.15.4-.16.56 0 .07.07.1.17.1.28 0 .1-.03.2-.1.28-.08.07-.18.1-.3.1z"/>
 <path fill="none" d="M0 0h53.18v53.6H0z"/>
 <path d="M14.46 18.9c-.1 0-.2-.05-.27-.13-.1-.07-.13-.18-.13-.28 0-.12.04-.22.1-.3.16-.15.43-.14.58 0 .07.08.1.18.1.3 0 .1-.03.2-.1.27-.08.08-.18.12-.3.12z"/>
 <path fill="none" d="M0 0h53.18v53.6H0z"/>
 <path d="M14.7 22.97c-.1 0-.22-.04-.3-.12-.06-.07-.1-.17-.1-.28 0-.1.04-.2.1-.28.16-.16.42-.16.57 0 .08.06.12.16.12.27 0 .1-.05.2-.13.3-.07.06-.17.1-.28.1z"/>
 <path fill="none" d="M0 0h53.18v53.6H0z"/>
 <path d="M11.94 18.22c-.1 0-.2-.04-.28-.12-.07-.07-.12-.17-.12-.28 0-.1.04-.2.12-.28.16-.16.42-.15.56 0 .08.08.12.18.12.28 0 .1-.04.2-.1.28-.1.08-.2.12-.3.12z"/>
 <path fill="none" d="M0 0h53.18v53.6H0z"/>
 <path d="M11.94 20.97c-.1 0-.2-.04-.28-.1-.07-.1-.12-.2-.12-.3 0-.1.05-.2.12-.28.16-.16.42-.16.57 0 .07.06.1.16.1.27 0 .1-.03.2-.1.28-.08.08-.18.12-.3.12z"/>
 <path fill="none" d="M0 0h53.18v53.6H0z"/>
 <path d="M11.04 23.76c-.1 0-.2-.04-.3-.12-.06-.07-.1-.17-.1-.28 0-.1.04-.2.1-.28.17-.15.44-.15.58 0 .07.07.12.18.12.28 0 .1-.05.2-.12.28-.07.08-.17.12-.28.12z"/>
 <path fill="none" d="M0 0h53.18v53.6H0z"/>
 <path d="M13.24 24.7c-.1 0-.2-.04-.28-.1-.08-.1-.13-.2-.13-.3 0-.1.05-.2.12-.28.15-.15.4-.16.57 0 .07.07.12.17.12.28 0 .1-.05.2-.12.28-.08.08-.18.12-.28.12z"/>
 <path fill="none" d="M0 0h53.18v53.6H0z"/>
 <path d="M16.3 25.9c-.1 0-.2-.05-.28-.13-.08-.07-.12-.18-.12-.28 0-.12.04-.22.1-.3.16-.15.43-.14.58 0 .07.08.12.18.12.3 0 .1-.05.2-.12.27-.08.08-.18.12-.28.12z"/>
 <path fill="none" d="M0 0h53.18v53.6H0z"/>
 <path d="M14.74 28.7c-.1 0-.2-.04-.28-.1-.08-.1-.12-.2-.12-.3 0-.1.04-.2.1-.28.16-.15.43-.15.58 0 .07.07.1.17.1.28 0 .1-.03.2-.1.28-.08.08-.18.12-.28.12z"/>
 <path fill="none" d="M0 0h53.18v53.6H0z"/>
 <path d="M12.5 27.32c-.12 0-.22-.04-.3-.1-.07-.1-.1-.2-.1-.3 0-.1.03-.2.1-.27.15-.16.42-.16.57 0 .08.07.12.17.12.27s-.06.2-.13.3c-.08.06-.18.1-.28.1z"/>
 <path fill="none" d="M0 0h53.18v53.6H0z"/>
 <path d="M11.42 29.2c-.1 0-.2-.04-.28-.12-.08-.07-.12-.17-.12-.28 0-.1.05-.2.12-.3.15-.13.42-.13.57.02.08.07.12.18.12.28 0 .1-.04.2-.1.28-.1.08-.2.12-.3.12z"/>
 <path fill="none" d="M0 0h53.18v53.6H0z"/>
 <path d="M12.92 31.07c-.1 0-.2-.04-.28-.1-.08-.1-.12-.2-.12-.3 0-.1.05-.2.12-.28.15-.16.42-.16.57 0 .08.07.12.17.12.28 0 .1-.04.2-.1.27-.1.08-.2.12-.3.12z"/>
 <path fill="none" d="M0 0h53.18v53.6H0z"/>
 <path d="M16.44 30.9c-.1 0-.2-.05-.28-.12-.08-.08-.12-.18-.12-.3 0-.1.04-.2.12-.27.15-.14.4-.14.56 0 .08.08.12.2.12.3 0 .1-.04.2-.12.28-.07.07-.17.1-.28.1z"/>
 <path fill="none" d="M0 0h53.18v53.6H0z"/>
 <path d="M15.1 33.04c-.12 0-.22-.05-.3-.12-.07-.08-.1-.18-.1-.28 0-.1.03-.2.1-.3.15-.13.42-.14.57 0 .07.08.12.2.12.3s-.06.2-.14.28c-.07.07-.17.12-.27.12z"/>
 <path fill="none" d="M0 0h53.18v53.6H0z"/>
 <path d="M18.17 33.2c-.1 0-.2-.04-.28-.1-.1-.1-.13-.2-.13-.3 0-.1.05-.2.12-.28.16-.16.4-.15.55 0 .08.07.12.17.12.28 0 .1-.04.2-.1.28-.1.08-.2.12-.3.12z"/>
 <path fill="none" d="M0 0h53.18v53.6H0z"/>
 <path d="M16.92 36c-.1 0-.2-.05-.28-.13-.07-.07-.12-.17-.12-.28 0-.12.05-.22.12-.3.15-.14.42-.15.57 0 .08.08.12.18.12.3 0 .1-.04.2-.1.27-.1.08-.2.12-.3.12z"/>
 <path fill="none" d="M0 0h53.18v53.6H0z"/>
 <path d="M21.3 32.82c-.1 0-.2-.04-.28-.1-.08-.1-.12-.2-.12-.3 0-.1.04-.2.12-.28.14-.14.4-.15.56 0 .07.08.12.18.12.3 0 .1-.04.2-.12.26-.08.08-.18.12-.28.12z"/>
 <path fill="none" d="M0 0h53.18v53.6H0z"/>
 <path d="M24.55 33.82c-.1 0-.2-.04-.3-.1-.06-.1-.1-.2-.1-.3 0-.1.04-.2.1-.28.16-.15.43-.15.58 0 .08.08.12.18.12.3 0 .1-.05.2-.12.27-.07.08-.17.12-.28.12z"/>
 <path fill="none" d="M0 0h53.18v53.6H0z"/>
 <path d="M22.05 35.2c-.1 0-.2-.04-.28-.1-.08-.1-.12-.2-.12-.3 0-.1.04-.2.1-.28.17-.15.43-.15.58 0 .08.07.12.17.12.28 0 .1-.04.2-.1.28-.1.08-.2.12-.3.12z"/>
 <path fill="none" d="M0 0h53.18v53.6H0z"/>
 <path d="M19.6 36.3c-.12 0-.22-.06-.3-.13-.07-.08-.12-.18-.12-.28 0-.12.05-.22.12-.3.15-.14.42-.15.57 0 .07.07.12.18.12.3 0 .1-.06.2-.13.27-.08.08-.18.12-.28.12z"/>
 <path fill="none" d="M0 0h53.18v53.6H0z"/>
 <path d="M23.3 37.2c-.1 0-.2-.04-.28-.1-.08-.1-.12-.2-.12-.3 0-.1.04-.2.1-.28.16-.15.43-.15.58 0 .07.07.12.17.12.28 0 .1-.04.2-.12.28-.08.08-.18.12-.28.12z"/>
 <path fill="none" d="M0 0h53.18v53.6H0z"/>
 <path d="M24.88 39.83c-.1 0-.2-.03-.28-.1-.1-.1-.12-.2-.12-.3 0-.1.04-.2.1-.28.16-.14.43-.15.58 0 .07.07.12.18.12.28 0 .1-.04.2-.12.28-.08.1-.18.13-.28.13z"/>
 <path fill="none" d="M0 0h53.18v53.6H0z"/>
 <path d="M22.32 40.35c-.1 0-.2-.04-.28-.12-.08-.08-.12-.18-.12-.28 0-.1.04-.2.1-.3.16-.13.43-.13.58 0 .07.1.12.2.12.3 0 .1-.04.2-.12.28s-.18.12-.28.12z"/>
 <path fill="none" d="M0 0h53.18v53.6H0z"/>
 <path d="M24.16 43.22c-.1 0-.2-.04-.3-.12-.06-.08-.1-.18-.1-.28 0-.1.04-.2.1-.28.16-.15.43-.15.58 0 .07.07.12.18.12.28 0 .1-.04.2-.12.28-.08.08-.18.12-.28.12z"/>
 <path fill="none" d="M0 0h53.18v53.6H0z"/>
 <path d="M21.55 42.6c-.1 0-.22-.04-.3-.12-.06-.07-.1-.17-.1-.27s.04-.2.12-.28c.15-.14.4-.14.56 0 .08.08.12.18.12.3 0 .1-.04.2-.12.27-.07.06-.17.1-.28.1z"/>
 <path fill="none" d="M0 0h53.18v53.6H0z"/>
 <path d="M19.07 48.47c-.1 0-.2-.04-.28-.1-.1-.1-.13-.2-.13-.3 0-.1.04-.2.1-.28.16-.16.43-.16.58 0 .07.06.12.16.12.27 0 .1-.04.2-.12.28-.08.08-.18.12-.28.12z"/>
 <path fill="none" d="M0 0h53.18v53.6H0z"/>
 <path d="M25.94 36.1c-.1 0-.2-.04-.28-.12s-.12-.18-.12-.28c0-.1.05-.22.12-.3.14-.13.4-.14.56 0 .08.08.12.2.12.3 0 .1-.04.2-.1.28-.1.08-.2.12-.3.12z"/>
 <path fill="none" d="M0 0h53.18v53.6H0z"/>
 <path d="M20.92 38.57c-.1 0-.2-.04-.28-.12-.07-.07-.12-.17-.12-.27s.05-.2.12-.3c.15-.14.4-.14.57 0 .08.1.12.2.12.3 0 .1-.04.2-.12.28-.06.07-.16.1-.28.1z"/>
 <path fill="none" d="M0 0h53.18v53.6H0z"/>
 <path d="M17.28 38.72c-.1 0-.2-.04-.28-.1-.08-.1-.12-.2-.12-.3 0-.1.04-.2.12-.3.14-.13.4-.13.56.02.07.06.12.17.12.28 0 .1-.04.2-.12.28-.07.08-.17.12-.28.12z"/>
 <path fill="none" d="M0 0h53.18v53.6H0z"/>
 <path d="M19.55 40.28c-.12 0-.22-.04-.3-.12-.06-.06-.1-.16-.1-.27s.04-.23.12-.3c.14-.14.4-.14.56 0 .08.08.12.18.12.3 0 .1-.05.2-.12.27-.07.07-.17.1-.28.1z"/>
 <path fill="none" d="M0 0h53.18v53.6H0z"/>
 <path d="M16.55 41.57c-.1 0-.2-.04-.28-.1-.08-.1-.12-.2-.12-.3 0-.1.04-.2.1-.28.16-.15.43-.16.58 0 .07.06.12.17.12.28 0 .1-.04.2-.12.28-.07.07-.18.1-.28.1z"/>
 <path fill="none" d="M0 0h53.18v53.6H0z"/>
 <path d="M14.17 40.32c-.1 0-.2-.04-.28-.1-.1-.1-.13-.2-.13-.3 0-.1.05-.2.12-.28.13-.14.4-.15.56 0 .07.07.1.18.1.3 0 .1-.03.2-.1.27-.08.08-.18.12-.3.12z"/>
 <path fill="none" d="M0 0h53.18v53.6H0z"/>
 <path d="M27.32 38.52c-.1 0-.2-.04-.28-.12-.08-.08-.12-.18-.12-.28 0-.1.04-.2.1-.3.16-.13.43-.13.58 0 .07.08.12.2.12.3 0 .1-.05.2-.12.28-.08.08-.18.12-.28.12z"/>
 <path fill="none" d="M0 0h53.18v53.6H0z"/>
 <path d="M30.8 39.58c-.1 0-.2-.04-.28-.12s-.12-.18-.12-.28c0-.1.04-.2.1-.3.16-.13.43-.14.58 0 .07.08.12.2.12.3 0 .1-.04.2-.12.28-.08.07-.18.12-.28.12z"/>
 <path fill="none" d="M0 0h53.18v53.6H0z"/>
 <path d="M28.67 40.82c-.1 0-.2-.04-.28-.1-.1-.1-.13-.2-.13-.3 0-.1.05-.2.12-.28.14-.14.4-.15.55 0 .08.07.12.18.12.3 0 .1-.04.2-.12.27-.07.08-.17.12-.28.12z"/>
 <path fill="none" d="M0 0h53.18v53.6H0z"/>
 <path d="M32.55 41.95c-.1 0-.2-.04-.28-.1-.08-.1-.12-.2-.12-.3 0-.1.04-.2.1-.28.16-.15.43-.15.58 0 .07.07.12.17.12.28 0 .1-.04.2-.12.28-.08.08-.18.12-.28.12z"/>
 <path fill="none" d="M0 0h53.18v53.6H0z"/>
 <path d="M32.3 44.33c-.1 0-.2-.05-.28-.12-.08-.07-.12-.17-.12-.27s.04-.2.1-.3c.16-.13.43-.14.58 0 .07.08.12.2.12.3 0 .1-.04.2-.12.28-.08.08-.18.13-.28.13z"/>
 <path fill="none" d="M0 0h53.18v53.6H0z"/>
 <path d="M34.3 46.82c-.1 0-.2-.04-.28-.1-.08-.1-.12-.2-.12-.3 0-.1.04-.2.12-.28.14-.14.4-.14.56 0 .07.07.12.18.12.28 0 .1-.04.2-.12.3-.08.06-.18.1-.28.1z"/>
 <path fill="none" d="M0 0h53.18v53.6H0z"/>
 <path d="M37.55 45.64c-.1 0-.2-.04-.28-.1-.08-.1-.12-.2-.12-.3 0-.1.04-.2.12-.28.14-.15.42-.15.56 0 .07.07.12.18.12.28 0 .1-.04.2-.12.28-.08.08-.18.12-.28.12z"/>
 <path fill="none" d="M0 0h53.18v53.6H0z"/>
 <path d="M32.88 49.03c-.1 0-.2-.04-.28-.1-.08-.1-.12-.2-.12-.3 0-.1.04-.2.12-.28.14-.15.4-.15.56 0 .08.07.12.17.12.28 0 .1-.04.2-.12.3-.07.06-.17.1-.28.1z"/>
 <path fill="none" d="M0 0h53.18v53.6H0z"/>
 <path d="M30.92 47.2c-.1 0-.2-.04-.28-.12-.07-.07-.12-.17-.12-.28 0-.1.05-.2.12-.3.14-.13.42-.13.57.02.08.07.12.17.12.28 0 .1-.04.2-.1.28-.1.08-.2.12-.3.12z"/>
 <path fill="none" d="M0 0h53.18v53.6H0z"/>
 <path d="M29.42 43.45c-.1 0-.2-.04-.28-.12-.08-.07-.12-.17-.12-.28 0-.1.05-.2.12-.3.14-.13.42-.13.57.02.08.07.12.17.12.28 0 .1-.04.2-.1.28-.1.08-.2.12-.3.12z"/>
 <path fill="none" d="M0 0h53.18v53.6H0z"/>
 <path d="M26.55 42.2c-.1 0-.2-.04-.28-.12-.08-.07-.12-.17-.12-.28 0-.1.04-.2.12-.3.14-.13.4-.13.56.02.08.07.12.17.12.28 0 .1-.05.2-.12.28-.08.08-.18.12-.28.12z"/>
 <path fill="none" d="M0 0h53.18v53.6H0z"/>
 <path d="M27.67 45.32c-.1 0-.2-.04-.28-.1-.08-.08-.13-.2-.13-.3 0-.1.05-.2.13-.28.13-.14.4-.15.56 0 .07.08.1.18.1.3 0 .1-.03.2-.1.26-.1.08-.18.12-.3.12z"/>
 <path fill="none" d="M0 0h53.18v53.6H0z"/>
 <path d="M28.3 48.07c-.1 0-.2-.04-.28-.1-.08-.1-.12-.2-.12-.3 0-.1.04-.2.12-.28.14-.15.4-.15.56 0 .07.07.12.17.12.28 0 .1-.04.2-.1.27-.1.1-.2.12-.3.12z"/>
 <path fill="none" d="M0 0h53.18v53.6H0z"/>
 <path d="M30.17 50.26c-.1 0-.2-.04-.28-.1-.1-.1-.13-.2-.13-.3 0-.1.05-.2.12-.28.14-.15.4-.15.55 0 .08.07.12.17.12.28 0 .1-.04.2-.12.3-.07.06-.17.1-.28.1z"/>
 <path fill="none" d="M0 0h53.18v53.6H0z"/>
 <path d="M32.07 53.1c-.1 0-.2-.04-.28-.12-.1-.08-.13-.18-.13-.28 0-.1.04-.2.1-.3.16-.14.43-.14.58 0 .07.1.12.2.12.3 0 .1-.04.2-.12.28-.07.07-.18.12-.28.12z"/>
 <path fill="none" d="M0 0h53.18v53.6H0z"/>
 <path d="M33.94 51.1c-.1 0-.2-.05-.28-.12-.08-.08-.12-.18-.12-.28 0-.1.05-.22.12-.3.14-.13.42-.14.57 0 .07.1.1.2.1.3 0 .1-.03.2-.1.28-.1.08-.18.12-.3.12z"/>
 <path fill="none" d="M0 0h53.18v53.6H0z"/>
 <path d="M36.07 48.72c-.1 0-.2-.04-.3-.12-.06-.07-.1-.17-.1-.28 0-.1.04-.2.12-.3.13-.13.4-.13.55.02.07.07.12.17.12.28 0 .1-.04.2-.12.28s-.18.12-.28.12z"/>
 <path fill="none" d="M0 0h53.18v53.6H0z"/>
 <path d="M40.44 45.15c-.1 0-.2-.05-.28-.12-.08-.08-.12-.18-.12-.28 0-.1.05-.22.12-.3.14-.13.42-.13.57 0 .07.1.1.2.1.3 0 .1-.03.2-.1.28-.08.08-.18.12-.3.12z"/>
 <path fill="none" d="M0 0h53.18v53.6H0z"/>
 <path d="M43.94 42.34c-.1 0-.2-.04-.28-.1-.07-.1-.12-.2-.12-.3 0-.1.05-.2.12-.28.15-.15.4-.15.56 0 .08.07.12.17.12.3 0 .1-.04.2-.12.27-.07.07-.17.1-.28.1z"/>
 <path fill="none" d="M0 0h53.18v53.6H0z"/>
 <path d="M46.2 40.34c-.1 0-.2-.04-.3-.1-.06-.1-.1-.2-.1-.3 0-.1.04-.2.1-.28.16-.15.42-.15.57 0 .08.07.12.18.12.3 0 .1-.05.2-.13.27-.07.07-.17.1-.28.1z"/>
 <path fill="none" d="M0 0h53.18v53.6H0z"/>
 <path d="M48.44 38.22c-.1 0-.2-.04-.28-.1-.08-.1-.12-.2-.12-.3 0-.1.05-.2.12-.28.15-.15.4-.15.56 0 .08.07.12.17.12.28 0 .1-.04.2-.12.28-.07.08-.17.12-.28.12z"/>
 <path fill="none" d="M0 0h53.18v53.6H0z"/>
 <path d="M50.57 36.13c-.1 0-.2-.04-.28-.1-.1-.1-.13-.2-.13-.3s.04-.2.1-.28c.16-.15.43-.15.58 0 .07.08.12.18.12.28 0 .1-.04.2-.12.28-.07.1-.18.13-.28.13z"/>
 <path fill="none" d="M0 0h53.18v53.6H0z"/>
 <path d="M52.26 34.2c-.1 0-.2-.04-.28-.1-.08-.1-.12-.2-.12-.3 0-.1.04-.2.12-.28.15-.15.4-.15.56 0 .08.07.12.17.12.28 0 .1-.04.2-.12.3-.07.06-.17.1-.28.1z"/>
 <path fill="none" d="M0 0h53.18v53.6H0z"/>
 <path d="M29.17 52.45c-.1 0-.2-.04-.28-.12-.1-.07-.13-.17-.13-.28 0-.1.05-.2.12-.3.13-.13.4-.13.56.02.07.07.1.17.1.28 0 .1-.03.2-.1.28-.08.08-.18.12-.3.12z"/>
 <path fill="none" d="M0 0h53.18v53.6H0z"/>
 <path d="M26.8 51.07c-.1 0-.2-.04-.28-.1-.08-.1-.12-.2-.12-.3 0-.1.04-.2.12-.28.14-.15.4-.16.56 0 .07.07.12.17.12.28 0 .1-.04.2-.12.27-.08.08-.18.12-.28.12z"/>
 <path fill="none" d="M0 0h53.18v53.6H0z"/>
 <path d="M24.94 48.85c-.1 0-.2-.05-.28-.12-.08-.08-.12-.18-.12-.28 0-.1.05-.2.12-.3.15-.13.4-.14.57 0 .07.1.1.2.1.3 0 .1-.03.2-.1.28-.08.07-.18.12-.3.12z"/>
 <path fill="none" d="M0 0h53.18v53.6H0z"/>
 <path d="M24.98 45.95c-.1 0-.2-.04-.28-.1-.08-.1-.12-.2-.12-.3 0-.1.04-.2.12-.28.14-.15.42-.15.56 0 .08.07.12.18.12.28 0 .1-.04.2-.1.28-.1.08-.2.12-.3.12z"/>
 <path fill="none" d="M0 0h53.18v53.6H0z"/>
 <path d="M22.17 47.52c-.1 0-.2-.04-.28-.12-.08-.07-.13-.17-.13-.28 0-.1.05-.2.13-.3.14-.13.4-.13.56.02.07.07.1.17.1.28 0 .1-.03.2-.1.28-.08.08-.18.12-.3.12z"/>
 <path fill="none" d="M0 0h53.18v53.6H0z"/>
 <path d="M21.83 44.95c-.1 0-.2-.04-.28-.1-.08-.1-.12-.2-.12-.3 0-.1.04-.2.1-.28.16-.15.43-.15.58 0 .08.07.13.17.13.28 0 .1-.04.2-.12.28-.07.08-.17.12-.27.12z"/>
 <path fill="none" d="M0 0h53.18v53.6H0z"/>
 <path d="M22.23 50.32c-.1 0-.2-.04-.28-.1-.08-.1-.12-.2-.12-.3 0-.1.04-.2.12-.28.14-.14.42-.14.56 0 .1.08.13.18.13.3 0 .1-.04.2-.1.26-.1.08-.2.12-.3.12z"/>
 <path fill="none" d="M0 0h53.18v53.6H0z"/>
 <path d="M24.38 53.03c-.1 0-.2-.04-.28-.1-.08-.1-.12-.2-.12-.3 0-.1.04-.2.12-.28.14-.15.4-.15.56 0 .08.07.12.18.12.28 0 .1-.04.2-.1.28-.1.1-.2.13-.3.13z"/>
 <path fill="none" d="M0 0h53.18v53.6H0z"/>
 <path d="M21.42 52.7c-.1 0-.2-.04-.28-.12-.08-.07-.12-.17-.12-.28 0-.1.05-.2.12-.3.15-.13.42-.13.57.02.08.07.12.17.12.28 0 .1-.04.2-.1.28-.1.08-.2.12-.3.12z"/>
 <path fill="none" d="M0 0h53.18v53.6H0z"/>
 <path d="M18.92 51.32c-.1 0-.2-.04-.28-.1-.08-.1-.12-.2-.12-.3 0-.1.05-.2.12-.28.15-.15.42-.15.57 0 .08.08.12.18.12.3 0 .1-.04.2-.1.26-.1.08-.2.12-.3.12z"/>
 <path fill="none" d="M0 0h53.18v53.6H0z"/>
 <path d="M16.67 53.32c-.1 0-.2-.04-.28-.1-.1-.1-.13-.2-.13-.3 0-.1.05-.2.12-.28.14-.15.4-.15.56 0 .07.08.1.18.1.28 0 .1-.03.2-.1.28-.08.08-.18.12-.3.12z"/>
 <path fill="none" d="M0 0h53.18v53.6H0z"/>
 <path d="M18.74 43.14c-.1 0-.2-.04-.28-.1-.08-.1-.12-.2-.12-.3 0-.1.04-.2.12-.28.15-.15.42-.15.57 0 .07.07.1.18.1.28 0 .1-.03.2-.1.28-.08.08-.18.12-.3.12z"/>
 <path fill="none" d="M0 0h53.18v53.6H0z"/>
 <path d="M18.46 45.95c-.1 0-.2-.04-.28-.12-.08-.07-.12-.17-.12-.28 0-.1.05-.2.12-.3.14-.13.42-.13.56.02.08.07.12.17.12.28 0 .1-.04.2-.1.28-.1.08-.2.12-.3.12z"/>
 <path fill="none" d="M0 0h53.18v53.6H0z"/>
 <path d="M15.67 44.2c-.1 0-.2-.04-.28-.12-.1-.08-.13-.18-.13-.28 0-.1.05-.2.12-.28.14-.15.4-.15.56 0 .07.07.1.18.1.28 0 .1-.03.2-.1.28-.08.08-.18.12-.3.12z"/>
 <path fill="none" d="M0 0h53.18v53.6H0z"/>
 <path d="M13.05 42.45c-.1 0-.2-.04-.28-.1-.08-.1-.12-.2-.12-.3 0-.1.04-.2.1-.28.16-.15.43-.15.58 0 .07.07.12.17.12.28 0 .1-.04.2-.12.28-.07.08-.18.12-.28.12z"/>
 <path fill="none" d="M0 0h53.18v53.6H0z"/>
 <path d="M11 39.45c-.1 0-.2-.04-.3-.12-.07-.07-.1-.18-.1-.28 0-.1.04-.2.1-.3.15-.13.42-.13.58.02.07.07.1.18.1.28 0 .1-.03.2-.1.28-.08.08-.18.12-.3.12z"/>
 <path fill="none" d="M0 0h53.18v53.6H0z"/>
 <path d="M11.67 36c-.1 0-.2-.05-.28-.13-.08-.07-.13-.17-.13-.28 0-.12.05-.22.12-.3.14-.14.4-.14.56 0 .07.08.1.18.1.3 0 .1-.03.2-.1.27-.1.08-.2.12-.3.12z"/>
 <path fill="none" d="M0 0h53.18v53.6H0z"/>
 <path d="M9.3 33.95c-.1 0-.2-.04-.28-.1-.08-.1-.12-.2-.12-.3 0-.1.04-.2.1-.28.16-.15.43-.15.58 0 .08.07.12.17.12.28 0 .1-.04.2-.1.28-.1.08-.2.12-.3.12z"/>
 <path fill="none" d="M0 0h53.18v53.6H0z"/>
 <path d="M6.8 35.07c-.1 0-.2-.04-.28-.1-.08-.1-.12-.2-.12-.3 0-.1.04-.2.1-.28.16-.16.43-.16.58 0 .08.07.12.17.12.28 0 .1-.04.2-.1.27-.1.08-.2.12-.3.12z"/>
 <path fill="none" d="M0 0h53.18v53.6H0z"/>
 <path d="M7.05 31.45c-.1 0-.2-.04-.3-.12-.06-.07-.1-.18-.1-.28 0-.1.04-.2.12-.28.14-.15.4-.15.56 0 .07.07.12.17.12.28 0 .1-.05.2-.12.3-.07.06-.17.1-.28.1z"/>
 <path fill="none" d="M0 0h53.18v53.6H0z"/>
 <path d="M4.67 32.7c-.1 0-.2-.04-.28-.12-.1-.07-.13-.17-.13-.28 0-.1.05-.2.12-.3.14-.13.4-.13.56.02.07.07.1.18.1.28 0 .1-.03.2-.1.28-.08.08-.18.12-.3.12z"/>
 <path fill="none" d="M0 0h53.18v53.6H0z"/>
 <path d="M3.5 30.25c-.1 0-.2-.04-.3-.12-.06-.06-.1-.17-.1-.27s.04-.2.12-.3c.15-.14.4-.14.56 0 .08.08.12.2.12.3 0 .1-.05.2-.12.28-.07.07-.17.1-.28.1z"/>
 <path fill="none" d="M0 0h53.18v53.6H0z"/>
 <path d="M5.42 28.95c-.1 0-.2-.04-.28-.1-.08-.1-.12-.2-.12-.3 0-.1.05-.2.12-.28.15-.15.4-.15.57 0 .08.07.12.17.12.28 0 .1-.04.2-.1.28-.1.08-.2.12-.3.12z"/>
 <path fill="none" d="M0 0h53.18v53.6H0z"/>
 <path d="M4.17 26.2c-.1 0-.2-.04-.28-.12-.08-.07-.13-.17-.13-.28 0-.1.05-.2.13-.3.13-.13.4-.13.56.02.07.07.1.17.1.28 0 .1-.03.2-.1.28-.08.08-.18.12-.3.12z"/>
 <path fill="none" d="M0 0h53.18v53.6H0z"/>
 <path d="M2.07 27.36c-.1 0-.22-.04-.3-.12-.06-.06-.1-.17-.1-.28 0-.1.04-.2.1-.28.16-.15.43-.15.58 0 .07.07.12.18.12.28 0 .1-.05.22-.13.3-.06.06-.16.1-.27.1z"/>
 <path fill="none" d="M0 0h53.18v53.6H0z"/>
 <path d="M.73 29.7c-.1 0-.2-.04-.28-.1-.08-.1-.12-.2-.12-.3 0-.1.04-.2.12-.28.15-.15.4-.15.56 0 .1.07.13.17.13.28 0 .1-.04.2-.1.28-.1.08-.2.12-.3.12z"/>
 <path fill="none" d="M0 0h53.18v53.6H0z"/>
 <path d="M3.17 34.95c-.1 0-.2-.04-.27-.1-.1-.1-.13-.2-.13-.3 0-.1.05-.2.12-.28.14-.15.4-.15.56 0 .07.07.1.17.1.28 0 .1-.03.2-.1.28-.08.08-.18.12-.3.12z"/>
 <path fill="none" d="M0 0h53.18v53.6H0z"/>
 <path d="M1.14 36.73c-.1 0-.2-.04-.28-.1-.08-.1-.12-.2-.12-.3 0-.1.04-.2.12-.28.15-.15.4-.15.56 0 .08.07.12.18.12.28 0 .1-.04.2-.1.28-.1.1-.2.13-.3.13z"/>
 <path fill="none" d="M0 0h53.18v53.6H0z"/>
 <path d="M5.3 37.07c-.1 0-.2-.04-.28-.1-.08-.1-.12-.2-.12-.3 0-.1.04-.2.12-.28.14-.16.4-.16.56 0 .07.06.12.17.12.28 0 .1-.05.2-.12.28-.08.07-.18.1-.28.1z"/>
 <path fill="none" d="M0 0h53.18v53.6H0z"/>
 <path d="M3.3 38.57c-.1 0-.22-.04-.3-.12-.06-.06-.1-.17-.1-.27s.04-.22.12-.3c.14-.14.4-.14.56 0 .08.1.12.2.12.3 0 .1-.05.2-.12.28-.07.07-.17.1-.28.1z"/>
 <path fill="none" d="M0 0h53.18v53.6H0z"/>
 <path d="M7.67 39.08c-.1 0-.2-.05-.28-.12-.1-.08-.13-.18-.13-.28 0-.1.05-.2.12-.3.14-.13.4-.14.56 0 .07.1.1.2.1.3 0 .1-.03.2-.1.27-.08.08-.18.13-.3.13z"/>
 <path fill="none" d="M0 0h53.18v53.6H0z"/>
 <path d="M8.44 41.34c-.1 0-.2-.04-.28-.1s-.12-.2-.12-.3c0-.1.04-.2.12-.28.15-.14.4-.15.56 0 .08.07.12.18.12.3 0 .1-.04.2-.12.27-.06.07-.17.1-.28.1z"/>
 <path fill="none" d="M0 0h53.18v53.6H0z"/>
 <path d="M1.62 42.68c-.1 0-.2-.04-.28-.12-.08-.08-.12-.18-.12-.28 0-.1.04-.2.1-.3.16-.13.43-.13.58 0 .07.08.12.2.12.3 0 .1-.05.2-.12.28-.08.08-.18.12-.28.12z"/>
 <path fill="none" d="M0 0h53.18v53.6H0z"/>
 <path d="M5.35 40.08c-.1 0-.2-.04-.28-.1-.08-.1-.12-.2-.12-.3 0-.1.04-.2.1-.28.16-.15.43-.15.58 0 .07.07.12.17.12.28 0 .1-.05.2-.12.28-.08.08-.18.12-.28.12z"/>
 <path fill="none" d="M0 0h53.18v53.6H0z"/>
 <path d="M1.2 40.3c-.1 0-.2-.05-.28-.12-.08-.1-.12-.2-.12-.3s.04-.2.12-.27c.14-.14.4-.14.56 0 .07.08.12.18.12.3s-.04.2-.12.28c-.07.07-.17.1-.28.1z"/>
 <path fill="none" d="M0 0h53.18v53.6H0z"/>
 <path d="M4.1 42.17c-.1 0-.2-.04-.28-.1-.08-.1-.12-.2-.12-.3 0-.1.04-.2.1-.28.16-.16.43-.16.58 0 .07.06.12.17.12.27s-.04.2-.12.28c-.08.08-.18.12-.28.12z"/>
 <path fill="none" d="M0 0h53.18v53.6H0z"/>
 <path d="M.75 44.84c-.1 0-.2-.04-.3-.1-.07-.1-.1-.2-.1-.3 0-.1.04-.2.1-.28.16-.15.43-.15.58 0 .07.08.1.18.1.3 0 .1-.03.2-.1.26-.08.08-.18.12-.28.12z"/>
 <path fill="none" d="M0 0h53.18v53.6H0z"/>
 <path d="M3.13 46.24c-.1 0-.2-.04-.3-.12-.07-.08-.1-.18-.1-.28 0-.1.04-.2.1-.28.16-.15.43-.15.58 0 .08.07.13.18.13.28 0 .1-.04.2-.12.28-.07.08-.17.12-.27.12z"/>
 <path fill="none" d="M0 0h53.18v53.6H0z"/>
 <path d="M1.55 48.2c-.1 0-.2-.03-.28-.1-.08-.08-.12-.2-.12-.3 0-.1.04-.2.12-.28.14-.14.4-.14.56 0 .08.08.12.18.12.3 0 .1-.04.2-.1.27-.1.07-.2.1-.3.1z"/>
 <path fill="none" d="M0 0h53.18v53.6H0z"/>
 <path d="M.98 50.42c-.1 0-.2-.04-.28-.1-.08-.1-.12-.2-.12-.3 0-.1.04-.2.12-.28.15-.15.4-.15.56 0 .08.08.12.18.12.28 0 .1-.04.2-.1.28-.1.08-.2.12-.3.12z"/>
 <path fill="none" d="M0 0h53.18v53.6H0z"/>
 <path d="M10.57 42.88c-.1 0-.2-.04-.3-.1-.06-.1-.1-.2-.1-.3 0-.1.04-.2.1-.28.16-.15.43-.15.58 0 .07.07.12.18.12.28 0 .1-.04.2-.12.28-.07.08-.18.12-.28.12z"/>
 <path fill="none" d="M0 0h53.18v53.6H0z"/>
 <path d="M8.2 44.84c-.1 0-.2-.04-.3-.1-.07-.1-.1-.2-.1-.3 0-.1.03-.2.1-.28.17-.15.43-.14.58 0 .07.07.1.18.1.28 0 .1-.03.2-.1.28-.08.08-.18.12-.3.12z"/>
 <path fill="none" d="M0 0h53.18v53.6H0z"/>
 <path d="M4.6 44.7c-.1 0-.2-.04-.3-.1-.07-.1-.1-.2-.1-.3 0-.1.03-.2.1-.28.15-.15.42-.15.57 0 .08.07.12.17.12.28 0 .1-.05.2-.13.28-.08.08-.18.12-.28.12z"/>
 <path fill="none" d="M0 0h53.18v53.6H0z"/>
 <path d="M5.94 46.72c-.1 0-.2-.04-.28-.1-.08-.1-.12-.2-.12-.3 0-.1.04-.2.12-.28.15-.15.42-.15.56 0 .08.07.12.17.12.28 0 .1-.04.2-.12.28-.07.08-.17.12-.28.12z"/>
 <path fill="none" d="M0 0h53.18v53.6H0z"/>
 <path d="M6.44 42.88c-.1 0-.2-.04-.28-.1-.08-.1-.12-.2-.12-.3 0-.1.05-.2.12-.28.15-.15.4-.15.56 0 .08.07.12.17.12.28s-.04.2-.12.3c-.07.06-.17.1-.28.1z"/>
 <path fill="none" d="M0 0h53.18v53.6H0z"/>
 <path d="M10.55 45.95c-.1 0-.2-.04-.28-.1-.08-.1-.12-.2-.12-.3 0-.1.04-.2.1-.28.16-.15.43-.15.58 0 .08.07.12.17.12.28 0 .1-.04.2-.1.28-.1.08-.2.12-.3.12z"/>
 <path fill="none" d="M0 0h53.18v53.6H0z"/>
 <path d="M13.17 45.45c-.1 0-.2-.04-.28-.1-.1-.1-.13-.2-.13-.3 0-.1.05-.2.12-.28.14-.15.4-.15.56 0 .07.07.1.17.1.28 0 .1-.03.2-.1.28-.08.08-.18.12-.3.12z"/>
 <path fill="none" d="M0 0h53.18v53.6H0z"/>
 <path d="M15.55 47.07c-.1 0-.2-.04-.28-.1-.08-.1-.12-.2-.12-.3 0-.1.04-.2.1-.28.16-.15.43-.16.58 0 .07.06.12.17.12.27s-.04.2-.12.3c-.07.06-.18.1-.28.1z"/>
 <path fill="none" d="M0 0h53.18v53.6H0z"/>
 <path d="M16.38 49.2c-.1 0-.2-.04-.28-.1-.08-.1-.12-.2-.12-.3 0-.1.04-.2.12-.28.14-.15.4-.15.56 0 .08.07.12.17.12.28 0 .1-.04.2-.12.28-.07.08-.17.12-.28.12z"/>
 <path fill="none" d="M0 0h53.18v53.6H0z"/>
 <path d="M8.37 47.86c-.1 0-.2-.04-.28-.1-.1-.1-.13-.2-.13-.3 0-.1.04-.2.1-.28.16-.15.43-.15.58 0 .07.07.12.17.12.28 0 .1-.04.2-.12.3-.08.06-.18.1-.28.1z"/>
 <path fill="none" d="M0 0h53.18v53.6H0z"/>
 <path d="M3.82 48.72c-.1 0-.2-.04-.3-.12-.06-.08-.1-.18-.1-.28 0-.1.04-.2.1-.28.16-.15.43-.15.58 0 .07.07.12.17.12.28 0 .1-.04.2-.12.28-.07.08-.18.12-.28.12z"/>
 <path fill="none" d="M0 0h53.18v53.6H0z"/>
 <path d="M12.42 48.26c-.1 0-.2-.04-.28-.12s-.12-.18-.12-.28c0-.1.05-.2.12-.3.15-.13.42-.13.57 0 .08.08.12.2.12.3 0 .1-.04.2-.1.28-.1.08-.2.12-.3.12z"/>
 <path fill="none" d="M0 0h53.18v53.6H0z"/>
 <path d="M9.88 49.7c-.1 0-.2-.04-.28-.1-.08-.1-.12-.2-.12-.3 0-.1.04-.2.12-.28.15-.15.42-.15.56 0 .08.07.12.17.12.28 0 .1-.04.2-.1.28-.1.08-.2.12-.3.12z"/>
 <path fill="none" d="M0 0h53.18v53.6H0z"/>
 <path d="M14.55 50.53c-.1 0-.2-.04-.28-.1-.08-.1-.12-.2-.12-.3 0-.1.04-.2.1-.28.16-.15.43-.15.58 0 .07.07.12.17.12.28 0 .1-.04.2-.12.3-.07.06-.18.1-.28.1z"/>
 <path fill="none" d="M0 0h53.18v53.6H0z"/>
 <path d="M11.9 51.4c-.1 0-.2-.03-.3-.1-.07-.08-.1-.2-.1-.3 0-.1.04-.2.1-.27.16-.15.43-.15.58 0 .07.07.1.17.1.28 0 .12-.03.22-.1.3-.08.07-.18.1-.3.1z"/>
 <path fill="none" d="M0 0h53.18v53.6H0z"/>
 <path d="M13.88 52.8c-.1 0-.2-.04-.28-.12-.08-.07-.12-.17-.12-.28 0-.1.05-.2.12-.3.14-.13.42-.13.56.02.08.07.12.17.12.28 0 .1-.04.2-.1.28-.1.08-.2.12-.3.12z"/>
 <path fill="none" d="M0 0h53.18v53.6H0z"/>
 <path d="M9.9 53.2c-.1 0-.2-.04-.28-.12-.08-.07-.12-.18-.12-.28 0-.1.04-.2.12-.3.14-.13.4-.13.56.02.08.07.12.17.12.28 0 .1-.04.2-.12.28-.08.08-.18.12-.28.12z"/>
 <path fill="none" d="M0 0h53.18v53.6H0z"/>
 <path d="M7.8 51.15c-.1 0-.2-.04-.27-.1-.08-.1-.12-.2-.12-.3 0-.1.06-.2.13-.28.15-.14.42-.15.57 0 .07.07.1.18.1.28 0 .1-.03.2-.1.28-.08.08-.18.12-.3.12z"/>
 <path fill="none" d="M0 0h53.18v53.6H0z"/>
 <path d="M3.57 51.6c-.1 0-.2-.05-.3-.12-.06-.08-.1-.18-.1-.28 0-.1.04-.2.1-.3.16-.14.43-.13.58 0 .07.1.12.2.12.3 0 .1-.04.2-.12.28s-.18.12-.28.12z"/>
 <path fill="none" d="M0 0h53.18v53.6H0z"/>
 <path d="M5.9 49.98c-.12 0-.22-.04-.3-.12-.07-.07-.1-.17-.1-.28 0-.1.03-.22.1-.3.15-.13.42-.13.57 0 .07.1.12.2.12.3 0 .1-.06.2-.13.28-.08.08-.18.12-.28.12z"/>
 <path fill="none" d="M0 0h53.18v53.6H0z"/>
 <path d="M6.18 53.37c-.1 0-.2-.04-.28-.12-.08-.08-.12-.18-.12-.28 0-.1.04-.2.12-.3.15-.13.42-.13.56 0 .08.08.12.2.12.3 0 .1-.04.2-.12.28-.07.07-.17.12-.28.12z"/>
 <path fill="none" d="M0 0h53.18v53.6H0z"/>
 <path d="M1.55 52.87c-.1 0-.2-.04-.28-.12-.08-.08-.12-.18-.12-.28 0-.1.04-.22.12-.3.14-.13.4-.13.56 0 .08.1.12.2.12.3 0 .1-.04.2-.1.28-.1.08-.2.12-.3.12z"/>
 <path fill="none" d="M0 0h53.18v53.6H0z"/>
 <path d="M3 23.7c-.12 0-.22-.04-.3-.12-.07-.07-.1-.17-.1-.28 0-.1.03-.2.1-.3.15-.13.42-.13.57.02.08.07.12.18.12.28 0 .1-.05.2-.13.28-.07.08-.17.12-.28.12z"/>
 <path fill="none" d="M0 0h53.18v53.6H0z"/>
 <path d="M.37 24.37c-.1 0-.2-.04-.28-.12-.1-.07-.13-.18-.13-.28 0-.1.04-.2.12-.3.14-.13.4-.13.55 0 .08.1.12.2.12.3 0 .1-.04.2-.12.28-.08.08-.18.12-.28.12z"/>
 <path fill="none" d="M0 0h53.18v53.6H0z"/>
 <path d="M1.25 21.45c-.1 0-.2-.04-.3-.12-.06-.07-.1-.17-.1-.28 0-.1.04-.2.12-.3.15-.13.4-.13.56.02.08.07.12.18.12.28 0 .1-.04.2-.12.28-.07.08-.17.12-.28.12z"/>
 <path fill="none" d="M0 0h53.18v53.6H0z"/>
 <path d="M14.05 37.95c-.1 0-.2-.04-.28-.1-.08-.1-.12-.2-.12-.3 0-.1.04-.2.1-.28.16-.15.43-.15.58 0 .08.07.12.18.12.28 0 .1-.04.2-.1.28-.1.08-.2.12-.3.12z"/>
 <path fill="none" d="M0 0h53.18v53.6H0z"/>
 <path d="M9.6 26.5c-.1 0-.2-.03-.28-.1-.06-.07-.1-.18-.1-.3 0-.1.03-.2.1-.27.16-.15.42-.15.57 0 .07.08.1.18.1.28 0 .12-.03.22-.1.3-.08.07-.18.1-.3.1z"/>
 <path fill="none" d="M0 0h53.18v53.6H0z"/>
 <path d="M5.76 23.1c-.1 0-.2-.03-.28-.1-.08-.08-.12-.18-.12-.28 0-.1.04-.2.12-.3.15-.14.42-.14.56 0 .08.1.12.2.12.3 0 .1-.04.2-.1.28-.1.07-.2.1-.3.1z"/>
 <path fill="none" d="M0 0h53.18v53.6H0z"/>
 <path d="M7.07 26.73c-.1 0-.2-.04-.3-.12-.06-.06-.1-.17-.1-.27s.04-.2.1-.28c.17-.16.43-.15.58 0 .08.07.12.17.12.28 0 .1-.05.2-.12.28-.07.1-.17.13-.28.13z"/>
 <path fill="none" d="M0 0h53.18v53.6H0z"/>
 <path d="M8.23 24c-.1 0-.2-.05-.28-.13-.07-.07-.12-.18-.12-.28 0-.12.05-.22.12-.3.15-.14.42-.14.57 0 .07.08.1.18.1.3 0 .1-.03.2-.1.27-.08.08-.18.12-.3.12z"/>
 <path fill="none" d="M0 0h53.18v53.6H0z"/>
 <path d="M8.2 28.85c-.1 0-.2-.05-.3-.12-.06-.08-.1-.18-.1-.28 0-.1.04-.22.12-.3.13-.13.4-.14.56 0 .07.1.1.2.1.3 0 .1-.03.2-.1.28-.08.07-.18.12-.3.12z"/>
 <path fill="none" d="M0 0h53.18v53.6H0z"/>
 <path d="M9.94 31.47c-.1 0-.2-.04-.28-.1-.07-.1-.12-.2-.12-.3 0-.1.05-.2.12-.28.15-.16.42-.16.57 0 .07.06.1.16.1.27 0 .1-.03.2-.1.28-.08.08-.18.12-.3.12z"/>
 <path fill="none" d="M0 0h53.18v53.6H0z"/>
 <path d="M12.32 33.47c-.1 0-.2-.04-.28-.1-.08-.1-.12-.2-.12-.3 0-.1.04-.2.1-.28.16-.16.43-.16.58 0 .07.06.12.16.12.27 0 .1-.04.2-.12.28-.07.08-.17.12-.28.12z"/>
 <path fill="none" d="M0 0h53.18v53.6H0z"/>
 <path d="M14.44 35.47c-.1 0-.2-.04-.27-.1-.08-.1-.13-.2-.13-.3 0-.1.04-.2.12-.28.15-.16.42-.16.57 0 .07.06.1.16.1.27 0 .1-.03.2-.1.28-.1.08-.2.12-.3.12z"/>
 <path fill="none" d="M0 0h53.18v53.6H0z"/>
 <path d="M19.07 15.6c-.1 0-.2-.04-.28-.12s-.13-.18-.13-.28c0-.1.04-.2.1-.3.18-.14.43-.13.58 0 .07.1.12.2.12.3 0 .1-.04.2-.12.28-.07.07-.18.12-.28.12z"/>
 <path fill="none" d="M0 0h53.18v53.6H0z"/>
 <path d="M16.16 16.06c-.1 0-.2-.04-.3-.12-.06-.08-.1-.18-.1-.28 0-.1.04-.2.1-.28.16-.15.43-.15.58 0 .07.07.12.17.12.28s-.05.2-.12.28c-.08.08-.18.12-.28.12z"/>
 <path fill="none" d="M0 0h53.18v53.6H0z"/>
 <path d="M17.94 18.1c-.1 0-.2-.05-.28-.12-.08-.08-.12-.18-.12-.28 0-.1.05-.2.12-.3.15-.14.4-.14.57 0 .07.1.1.2.1.3 0 .1-.03.2-.1.28-.08.07-.18.12-.3.12z"/>
 <path fill="none" d="M0 0h53.18v53.6H0z"/>
 <path d="M18.84 8.64c-.1 0-.2-.04-.28-.12-.08-.07-.12-.18-.12-.28 0-.1.04-.2.1-.28.17-.16.43-.15.58 0 .08.07.12.17.12.28 0 .1-.04.2-.12.28-.07.08-.17.12-.28.12z"/>
 <path fill="none" d="M0 0h53.18v53.6H0z"/>
 <path d="M8.92 10.5c-.1 0-.2-.03-.28-.1-.07-.08-.12-.18-.12-.3 0-.1.05-.2.12-.27.14-.15.42-.15.57 0 .08.07.12.18.12.28 0 .12-.04.22-.1.3-.1.07-.2.1-.3.1z"/>
 <path fill="none" d="M0 0h53.18v53.6H0z"/>
 <path d="M8 13.4c-.12 0-.22-.06-.3-.13-.07-.07-.12-.18-.12-.28 0-.12.05-.23.13-.3.15-.14.4-.14.57 0 .07.08.12.18.12.3 0 .1-.06.2-.13.27-.08.08-.18.12-.28.12z"/>
 <path fill="none" d="M0 0h53.18v53.6H0z"/>
 <path d="M9.17 19.07c-.1 0-.2-.04-.28-.1-.1-.1-.13-.2-.13-.3 0-.1.04-.2.12-.28.14-.16.4-.16.56 0 .07.07.1.17.1.28 0 .1-.03.2-.1.28-.08.07-.18.1-.3.1z"/>
 <path fill="none" d="M0 0h53.18v53.6H0z"/>
 <path d="M8.67 21.33c-.1 0-.2-.05-.28-.13-.08-.06-.13-.17-.13-.28 0-.1.05-.2.13-.28.13-.14.4-.15.56 0 .07.07.1.18.1.28 0 .1-.03.22-.1.3-.08.06-.18.1-.3.1z"/>
 <path fill="none" d="M0 0h53.18v53.6H0z"/>
 <path d="M26.92.7c-.1 0-.2-.04-.28-.12-.07-.07-.12-.18-.12-.28 0-.1.05-.2.12-.28.15-.15.42-.15.56 0 .08.07.12.17.12.28 0 .1-.04.2-.12.3-.07.06-.17.1-.28.1z"/>
 <path fill="none" d="M0 0h53.18v53.6H0z"/>
 <path d="M31.78 12.6c-.1 0-.2-.05-.28-.13-.08-.07-.12-.17-.12-.28 0-.12.04-.22.12-.3.14-.14.4-.14.56 0 .08.08.12.18.12.3 0 .1-.04.2-.12.27-.08.08-.18.12-.28.12z"/>
 <path fill="none" d="M0 0h53.18v53.6H0z"/>
 <path d="M1.74 32.56c-.1 0-.2-.04-.28-.12-.08-.08-.12-.18-.12-.28 0-.1.04-.2.12-.28.15-.15.4-.15.56 0 .08.07.12.17.12.28 0 .1-.04.2-.12.28-.07.08-.17.12-.28.12z"/>
</svg>
