<?xml version="1.0"?>
<!-- Converted with SVG Converter - Version 0.9.5 (Compiled Fri Feb 21 09:53:38 2020) - Copyright (C) 2011 Nokia -->
<svg xmlns="http://www.w3.org/2000/svg" xml:space="preserve" version="1.1" xmlns:xlink="http://www.w3.org/1999/xlink" x="0px" width="71.999" baseProfile="tiny" viewBox="0 -72 71.999 72" y="0px" height="72">
 <g>
  <rect x="0" style="fill:none;" width="71.999" y="-72" height="72"/>
  <line y1="-69.25" y2="-69.25" x2="21" style="fill:none;stroke:#ED1B2E;stroke-width:0.8;stroke-linecap:round;" x1="21"/>
  <line y1="-64" y2="-64" x2="20" style="fill:none;stroke:#ED1B2E;stroke-width:0.8;stroke-linecap:round;" x1="20"/>
  <line y1="-61.75" y2="-61.75" x2="20.25" style="fill:none;stroke:#ED1B2E;stroke-width:0.8;stroke-linecap:round;" x1="20.25"/>
  <line y1="-59.5" y2="-59.5" x2="18" style="fill:none;stroke:#ED1B2E;stroke-width:0.8;stroke-linecap:round;" x1="18"/>
  <line y1="-61.75" y2="-61.75" x2="15.25" style="fill:none;stroke:#ED1B2E;stroke-width:0.8;stroke-linecap:round;" x1="15.25"/>
  <line y1="-52.25" y2="-52.25" x2="22.75" style="fill:none;stroke:#ED1B2E;stroke-width:0.8;stroke-linecap:round;" x1="22.75"/>
  <line y1="-49.25" y2="-49.25" x2="15.25" style="fill:none;stroke:#ED1B2E;stroke-width:0.8;stroke-linecap:round;" x1="15.25"/>
  <line y1="-48.25" y2="-48.25" x2="14" style="fill:none;stroke:#ED1B2E;stroke-width:0.8;stroke-linecap:round;" x1="14"/>
  <line y1="-45.25" y2="-45.25" x2="24" style="fill:none;stroke:#ED1B2E;stroke-width:0.8;stroke-linecap:round;" x1="24"/>
  <line y1="-46.5" y2="-46.5" x2="30.75" style="fill:none;stroke:#ED1B2E;stroke-width:0.8;stroke-linecap:round;" x1="30.75"/>
  <line y1="-49" y2="-49" x2="31.25" style="fill:none;stroke:#ED1B2E;stroke-width:0.8;stroke-linecap:round;" x1="31.25"/>
  <line y1="-54" y2="-54" x2="29.25" style="fill:none;stroke:#ED1B2E;stroke-width:0.8;stroke-linecap:round;" x1="29.25"/>
  <line y1="-54" y2="-54" x2="32.25" style="fill:none;stroke:#ED1B2E;stroke-width:0.8;stroke-linecap:round;" x1="32.25"/>
  <line y1="-58.5" y2="-58.5" x2="32.5" style="fill:none;stroke:#ED1B2E;stroke-width:0.8;stroke-linecap:round;" x1="32.5"/>
  <line y1="-60.5" y2="-60.5" x2="31.75" style="fill:none;stroke:#ED1B2E;stroke-width:0.8;stroke-linecap:round;" x1="31.75"/>
  <line y1="-61.5" y2="-61.5" x2="29.25" style="fill:none;stroke:#ED1B2E;stroke-width:0.8;stroke-linecap:round;" x1="29.25"/>
  <line y1="-65.25" y2="-65.25" x2="32.25" style="fill:none;stroke:#ED1B2E;stroke-width:0.8;stroke-linecap:round;" x1="32.25"/>
  <line y1="-69.25" y2="-69.25" x2="32" style="fill:none;stroke:#ED1B2E;stroke-width:0.8;stroke-linecap:round;" x1="32"/>
  <line y1="-69" y2="-69" x2="29.25" style="fill:none;stroke:#ED1B2E;stroke-width:0.8;stroke-linecap:round;" x1="29.25"/>
  <line y1="-71" y2="-71" x2="34" style="fill:none;stroke:#ED1B2E;stroke-width:0.8;stroke-linecap:round;" x1="34"/>
  <line y1="-65.25" y2="-65.25" x2="41.5" style="fill:none;stroke:#ED1B2E;stroke-width:0.8;stroke-linecap:round;" x1="41.5"/>
  <line y1="-65.5" y2="-65.5" x2="45.5" style="fill:none;stroke:#ED1B2E;stroke-width:0.8;stroke-linecap:round;" x1="45.5"/>
  <line y1="-62" y2="-62" x2="40.25" style="fill:none;stroke:#ED1B2E;stroke-width:0.8;stroke-linecap:round;" x1="40.25"/>
  <line y1="-60.5" y2="-60.5" x2="45" style="fill:none;stroke:#ED1B2E;stroke-width:0.8;stroke-linecap:round;" x1="45"/>
  <line y1="-58.75" y2="-58.75" x2="45" style="fill:none;stroke:#ED1B2E;stroke-width:0.8;stroke-linecap:round;" x1="45"/>
  <line y1="-58" y2="-58" x2="47" style="fill:none;stroke:#ED1B2E;stroke-width:0.8;stroke-linecap:round;" x1="47"/>
  <line y1="-56" y2="-56" x2="47" style="fill:none;stroke:#ED1B2E;stroke-width:0.8;stroke-linecap:round;" x1="47"/>
  <line y1="-49.5" y2="-49.5" x2="47.25" style="fill:none;stroke:#ED1B2E;stroke-width:0.8;stroke-linecap:round;" x1="47.25"/>
  <line y1="-51.5" y2="-51.5" x2="39" style="fill:none;stroke:#ED1B2E;stroke-width:0.8;stroke-linecap:round;" x1="39"/>
  <line y1="-58.75" y2="-58.75" x2="50.25" style="fill:none;stroke:#ED1B2E;stroke-width:0.8;stroke-linecap:round;" x1="50.25"/>
  <line y1="-60.25" y2="-60.25" x2="52.25" style="fill:none;stroke:#ED1B2E;stroke-width:0.8;stroke-linecap:round;" x1="52.25"/>
  <line y1="-61.25" y2="-61.25" x2="54.75" style="fill:none;stroke:#ED1B2E;stroke-width:0.8;stroke-linecap:round;" x1="54.75"/>
  <line y1="-65.5" y2="-65.5" x2="54.75" style="fill:none;stroke:#ED1B2E;stroke-width:0.8;stroke-linecap:round;" x1="54.75"/>
  <line y1="-71.5" y2="-71.5" x2="56.5" style="fill:none;stroke:#ED1B2E;stroke-width:0.8;stroke-linecap:round;" x1="56.5"/>
  <line y1="-65.75" y2="-65.75" x2="64" style="fill:none;stroke:#ED1B2E;stroke-width:0.8;stroke-linecap:round;" x1="64"/>
  <line y1="-69.75" y2="-69.75" x2="64.999" style="fill:none;stroke:#ED1B2E;stroke-width:0.8;stroke-linecap:round;" x1="64.999"/>
  <line y1="-69.25" y2="-69.25" x2="67.999" style="fill:none;stroke:#ED1B2E;stroke-width:0.8;stroke-linecap:round;" x1="67.999"/>
  <line y1="-62" y2="-62" x2="67.999" style="fill:none;stroke:#ED1B2E;stroke-width:0.8;stroke-linecap:round;" x1="67.999"/>
  <line y1="-60" y2="-60" x2="64.249" style="fill:none;stroke:#ED1B2E;stroke-width:0.8;stroke-linecap:round;" x1="64.249"/>
  <line y1="-56.5" y2="-56.5" x2="65.249" style="fill:none;stroke:#ED1B2E;stroke-width:0.8;stroke-linecap:round;" x1="65.249"/>
  <line y1="-52.5" y2="-52.5" x2="64" style="fill:none;stroke:#ED1B2E;stroke-width:0.8;stroke-linecap:round;" x1="64"/>
  <line y1="-52.5" y2="-52.5" x2="66.249" style="fill:none;stroke:#ED1B2E;stroke-width:0.8;stroke-linecap:round;" x1="66.249"/>
  <line y1="-51" y2="-51" x2="67.999" style="fill:none;stroke:#ED1B2E;stroke-width:0.8;stroke-linecap:round;" x1="67.999"/>
  <line y1="-52" y2="-52" x2="69.249" style="fill:none;stroke:#ED1B2E;stroke-width:0.8;stroke-linecap:round;" x1="69.249"/>
  <line y1="-54.25" y2="-54.25" x2="69.499" style="fill:none;stroke:#ED1B2E;stroke-width:0.8;stroke-linecap:round;" x1="69.499"/>
  <line y1="-54.75" y2="-54.75" x2="71.249" style="fill:none;stroke:#ED1B2E;stroke-width:0.8;stroke-linecap:round;" x1="71.249"/>
  <line y1="-25.25" y2="-25.25" x2="8" style="fill:none;stroke:#ED1B2E;stroke-width:0.8;stroke-linecap:round;" x1="8"/>
  <line y1="-20" y2="-20" x2="7" style="fill:none;stroke:#ED1B2E;stroke-width:0.8;stroke-linecap:round;" x1="7"/>
  <line y1="-17.75" y2="-17.75" x2="7.25" style="fill:none;stroke:#ED1B2E;stroke-width:0.8;stroke-linecap:round;" x1="7.25"/>
  <line y1="-15.5" y2="-15.5" x2="5" style="fill:none;stroke:#ED1B2E;stroke-width:0.8;stroke-linecap:round;" x1="5"/>
  <line y1="-17.75" y2="-17.75" x2="2.25" style="fill:none;stroke:#ED1B2E;stroke-width:0.8;stroke-linecap:round;" x1="2.25"/>
  <line y1="-8.25" y2="-8.25" x2="9.75" style="fill:none;stroke:#ED1B2E;stroke-width:0.8;stroke-linecap:round;" x1="9.75"/>
  <line y1="-5.25" y2="-5.25" x2="2.25" style="fill:none;stroke:#ED1B2E;stroke-width:0.8;stroke-linecap:round;" x1="2.25"/>
  <line y1="-4.25" y2="-4.25" x2="1" style="fill:none;stroke:#ED1B2E;stroke-width:0.8;stroke-linecap:round;" x1="1"/>
  <line y1="-1.25" y2="-1.25" x2="11" style="fill:none;stroke:#ED1B2E;stroke-width:0.8;stroke-linecap:round;" x1="11"/>
  <line y1="-2.5" y2="-2.5" x2="17.75" style="fill:none;stroke:#ED1B2E;stroke-width:0.8;stroke-linecap:round;" x1="17.75"/>
  <line y1="-5" y2="-5" x2="18.25" style="fill:none;stroke:#ED1B2E;stroke-width:0.8;stroke-linecap:round;" x1="18.25"/>
  <line y1="-10" y2="-10" x2="16.25" style="fill:none;stroke:#ED1B2E;stroke-width:0.8;stroke-linecap:round;" x1="16.25"/>
  <line y1="-10" y2="-10" x2="19.25" style="fill:none;stroke:#ED1B2E;stroke-width:0.8;stroke-linecap:round;" x1="19.25"/>
  <line y1="-14.5" y2="-14.5" x2="19.5" style="fill:none;stroke:#ED1B2E;stroke-width:0.8;stroke-linecap:round;" x1="19.5"/>
  <line y1="-16.5" y2="-16.5" x2="18.75" style="fill:none;stroke:#ED1B2E;stroke-width:0.8;stroke-linecap:round;" x1="18.75"/>
  <line y1="-17.5" y2="-17.5" x2="16.25" style="fill:none;stroke:#ED1B2E;stroke-width:0.8;stroke-linecap:round;" x1="16.25"/>
  <line y1="-21.25" y2="-21.25" x2="19.25" style="fill:none;stroke:#ED1B2E;stroke-width:0.8;stroke-linecap:round;" x1="19.25"/>
  <line y1="-25.25" y2="-25.25" x2="19" style="fill:none;stroke:#ED1B2E;stroke-width:0.8;stroke-linecap:round;" x1="19"/>
  <line y1="-25" y2="-25" x2="16.25" style="fill:none;stroke:#ED1B2E;stroke-width:0.8;stroke-linecap:round;" x1="16.25"/>
  <line y1="-27" y2="-27" x2="21" style="fill:none;stroke:#ED1B2E;stroke-width:0.8;stroke-linecap:round;" x1="21"/>
  <line y1="-21.25" y2="-21.25" x2="28.5" style="fill:none;stroke:#ED1B2E;stroke-width:0.8;stroke-linecap:round;" x1="28.5"/>
  <line y1="-21.5" y2="-21.5" x2="32.5" style="fill:none;stroke:#ED1B2E;stroke-width:0.8;stroke-linecap:round;" x1="32.5"/>
  <line y1="-18" y2="-18" x2="27.25" style="fill:none;stroke:#ED1B2E;stroke-width:0.8;stroke-linecap:round;" x1="27.25"/>
  <line y1="-16.5" y2="-16.5" x2="32" style="fill:none;stroke:#ED1B2E;stroke-width:0.8;stroke-linecap:round;" x1="32"/>
  <line y1="-14.75" y2="-14.75" x2="32" style="fill:none;stroke:#ED1B2E;stroke-width:0.8;stroke-linecap:round;" x1="32"/>
  <line y1="-14" y2="-14" x2="34" style="fill:none;stroke:#ED1B2E;stroke-width:0.8;stroke-linecap:round;" x1="34"/>
  <line y1="-12" y2="-12" x2="34" style="fill:none;stroke:#ED1B2E;stroke-width:0.8;stroke-linecap:round;" x1="34"/>
  <line y1="-5.5" y2="-5.5" x2="34.25" style="fill:none;stroke:#ED1B2E;stroke-width:0.8;stroke-linecap:round;" x1="34.25"/>
  <line y1="-7.5" y2="-7.5" x2="26" style="fill:none;stroke:#ED1B2E;stroke-width:0.8;stroke-linecap:round;" x1="26"/>
  <line y1="-14.75" y2="-14.75" x2="37.25" style="fill:none;stroke:#ED1B2E;stroke-width:0.8;stroke-linecap:round;" x1="37.25"/>
  <line y1="-16.25" y2="-16.25" x2="39.25" style="fill:none;stroke:#ED1B2E;stroke-width:0.8;stroke-linecap:round;" x1="39.25"/>
  <line y1="-17.25" y2="-17.25" x2="41.75" style="fill:none;stroke:#ED1B2E;stroke-width:0.8;stroke-linecap:round;" x1="41.75"/>
  <line y1="-21.5" y2="-21.5" x2="41.75" style="fill:none;stroke:#ED1B2E;stroke-width:0.8;stroke-linecap:round;" x1="41.75"/>
  <line y1="-27.5" y2="-27.5" x2="43.5" style="fill:none;stroke:#ED1B2E;stroke-width:0.8;stroke-linecap:round;" x1="43.5"/>
  <line y1="-21.75" y2="-21.75" x2="51" style="fill:none;stroke:#ED1B2E;stroke-width:0.8;stroke-linecap:round;" x1="51"/>
  <line y1="-25.75" y2="-25.75" x2="52" style="fill:none;stroke:#ED1B2E;stroke-width:0.8;stroke-linecap:round;" x1="52"/>
  <line y1="-25.25" y2="-25.25" x2="55" style="fill:none;stroke:#ED1B2E;stroke-width:0.8;stroke-linecap:round;" x1="55"/>
  <line y1="-18" y2="-18" x2="55" style="fill:none;stroke:#ED1B2E;stroke-width:0.8;stroke-linecap:round;" x1="55"/>
  <line y1="-16" y2="-16" x2="51.25" style="fill:none;stroke:#ED1B2E;stroke-width:0.8;stroke-linecap:round;" x1="51.25"/>
  <line y1="-12.5" y2="-12.5" x2="52.25" style="fill:none;stroke:#ED1B2E;stroke-width:0.8;stroke-linecap:round;" x1="52.25"/>
  <line y1="-8.5" y2="-8.5" x2="51" style="fill:none;stroke:#ED1B2E;stroke-width:0.8;stroke-linecap:round;" x1="51"/>
  <line y1="-8.5" y2="-8.5" x2="53.25" style="fill:none;stroke:#ED1B2E;stroke-width:0.8;stroke-linecap:round;" x1="53.25"/>
  <line y1="-7" y2="-7" x2="55" style="fill:none;stroke:#ED1B2E;stroke-width:0.8;stroke-linecap:round;" x1="55"/>
  <line y1="-8" y2="-8" x2="56.25" style="fill:none;stroke:#ED1B2E;stroke-width:0.8;stroke-linecap:round;" x1="56.25"/>
  <line y1="-10.25" y2="-10.25" x2="56.5" style="fill:none;stroke:#ED1B2E;stroke-width:0.8;stroke-linecap:round;" x1="56.5"/>
  <line y1="-10.75" y2="-10.75" x2="58.25" style="fill:none;stroke:#ED1B2E;stroke-width:0.8;stroke-linecap:round;" x1="58.25"/>
  <line y1="-45.25" y2="-45.25" x2="21" style="fill:none;stroke:#ED1B2E;stroke-width:0.8;stroke-linecap:round;" x1="21"/>
  <line y1="-48.25" y2="-48.25" x2="22.75" style="fill:none;stroke:#ED1B2E;stroke-width:0.8;stroke-linecap:round;" x1="22.75"/>
  <line y1="-47.75" y2="-47.75" x2="25.25" style="fill:none;stroke:#ED1B2E;stroke-width:0.8;stroke-linecap:round;" x1="25.25"/>
  <line y1="-49" y2="-49" x2="35.25" style="fill:none;stroke:#ED1B2E;stroke-width:0.8;stroke-linecap:round;" x1="35.25"/>
  <line y1="-47.5" y2="-47.5" x2="39" style="fill:none;stroke:#ED1B2E;stroke-width:0.8;stroke-linecap:round;" x1="39"/>
  <line y1="-42.75" y2="-42.75" x2="45" style="fill:none;stroke:#ED1B2E;stroke-width:0.8;stroke-linecap:round;" x1="45"/>
  <line y1="-43.25" y2="-43.25" x2="46.25" style="fill:none;stroke:#ED1B2E;stroke-width:0.8;stroke-linecap:round;" x1="46.25"/>
  <line y1="-44.25" y2="-44.25" x2="55.25" style="fill:none;stroke:#ED1B2E;stroke-width:0.8;stroke-linecap:round;" x1="55.25"/>
  <line y1="-47" y2="-47" x2="51.25" style="fill:none;stroke:#ED1B2E;stroke-width:0.8;stroke-linecap:round;" x1="51.25"/>
  <line y1="-42.75" y2="-42.75" x2="52" style="fill:none;stroke:#ED1B2E;stroke-width:0.8;stroke-linecap:round;" x1="52"/>
  <line y1="-36.75" y2="-36.75" x2="62.5" style="fill:none;stroke:#ED1B2E;stroke-width:0.8;stroke-linecap:round;" x1="62.5"/>
  <line y1="-34" y2="-34" x2="58.25" style="fill:none;stroke:#ED1B2E;stroke-width:0.8;stroke-linecap:round;" x1="58.25"/>
  <line y1="-33.25" y2="-33.25" x2="49" style="fill:none;stroke:#ED1B2E;stroke-width:0.8;stroke-linecap:round;" x1="49"/>
  <line y1="-31" y2="-31" x2="48" style="fill:none;stroke:#ED1B2E;stroke-width:0.8;stroke-linecap:round;" x1="48"/>
  <line y1="-29.25" y2="-29.25" x2="52" style="fill:none;stroke:#ED1B2E;stroke-width:0.8;stroke-linecap:round;" x1="52"/>
  <line y1="-27.25" y2="-27.25" x2="53.5" style="fill:none;stroke:#ED1B2E;stroke-width:0.8;stroke-linecap:round;" x1="53.5"/>
  <line y1="-24.25" y2="-24.25" x2="62.25" style="fill:none;stroke:#ED1B2E;stroke-width:0.8;stroke-linecap:round;" x1="62.25"/>
  <line y1="-20.5" y2="-20.5" x2="64.999" style="fill:none;stroke:#ED1B2E;stroke-width:0.8;stroke-linecap:round;" x1="64.999"/>
  <line y1="-20.5" y2="-20.5" x2="66.999" style="fill:none;stroke:#ED1B2E;stroke-width:0.8;stroke-linecap:round;" x1="66.999"/>
  <line y1="-27.25" y2="-27.25" x2="69.499" style="fill:none;stroke:#ED1B2E;stroke-width:0.8;stroke-linecap:round;" x1="69.499"/>
  <line y1="-33.25" y2="-33.25" x2="60" style="fill:none;stroke:#ED1B2E;stroke-width:0.8;stroke-linecap:round;" x1="60"/>
  <line y1="-24.5" y2="-24.5" x2="47.25" style="fill:none;stroke:#ED1B2E;stroke-width:0.8;stroke-linecap:round;" x1="47.25"/>
  <line y1="-25.25" y2="-25.25" x2="32.5" style="fill:none;stroke:#ED1B2E;stroke-width:0.8;stroke-linecap:round;" x1="32.5"/>
  <line y1="-27.75" y2="-27.75" x2="37" style="fill:none;stroke:#ED1B2E;stroke-width:0.8;stroke-linecap:round;" x1="37"/>
  <line y1="-34.5" y2="-34.5" x2="26.25" style="fill:none;stroke:#ED1B2E;stroke-width:0.8;stroke-linecap:round;" x1="26.25"/>
  <line y1="-36.75" y2="-36.75" x2="29.75" style="fill:none;stroke:#ED1B2E;stroke-width:0.8;stroke-linecap:round;" x1="29.75"/>
  <line y1="-43.75" y2="-43.75" x2="17" style="fill:none;stroke:#ED1B2E;stroke-width:0.8;stroke-linecap:round;" x1="17"/>
  <line y1="-42.75" y2="-42.75" x2="10.5" style="fill:none;stroke:#ED1B2E;stroke-width:0.8;stroke-linecap:round;" x1="10.5"/>
  <line y1="-40.75" y2="-40.75" x2="6" style="fill:none;stroke:#ED1B2E;stroke-width:0.8;stroke-linecap:round;" x1="6"/>
  <line y1="-37" y2="-37" x2="2.5" style="fill:none;stroke:#ED1B2E;stroke-width:0.8;stroke-linecap:round;" x1="2.5"/>
  <line y1="-35.5" y2="-35.5" x2="11.25" style="fill:none;stroke:#ED1B2E;stroke-width:0.8;stroke-linecap:round;" x1="11.25"/>
  <line y1="-30.25" y2="-30.25" x2="17" style="fill:none;stroke:#ED1B2E;stroke-width:0.8;stroke-linecap:round;" x1="17"/>
  <line y1="-36.25" y2="-36.25" x2="12.75" style="fill:none;stroke:#ED1B2E;stroke-width:0.8;stroke-linecap:round;" x1="12.75"/>
  <line y1="-42" y2="-42" x2="26.5" style="fill:none;stroke:#ED1B2E;stroke-width:0.8;stroke-linecap:round;" x1="26.5"/>
  <line y1="-41.25" y2="-41.25" x2="37.75" style="fill:none;stroke:#ED1B2E;stroke-width:0.8;stroke-linecap:round;" x1="37.75"/>
  <line y1="-39.75" y2="-39.75" x2="39.5" style="fill:none;stroke:#ED1B2E;stroke-width:0.8;stroke-linecap:round;" x1="39.5"/>
  <line y1="-30.25" y2="-30.25" x2="28" style="fill:none;stroke:#ED1B2E;stroke-width:0.8;stroke-linecap:round;" x1="28"/>
  <line y1="-51.75" y2="-51.75" x2="6.5" style="fill:none;stroke:#ED1B2E;stroke-width:0.8;stroke-linecap:round;" x1="6.5"/>
  <line y1="-52" y2="-52" x2="10.25" style="fill:none;stroke:#ED1B2E;stroke-width:0.8;stroke-linecap:round;" x1="10.25"/>
  <line y1="-48.75" y2="-48.75" x2="11.75" style="fill:none;stroke:#ED1B2E;stroke-width:0.8;stroke-linecap:round;" x1="11.75"/>
  <line y1="-46.5" y2="-46.5" x2="3" style="fill:none;stroke:#ED1B2E;stroke-width:0.8;stroke-linecap:round;" x1="3"/>
  <line y1="-42.75" y2="-42.75" x2="64.249" style="fill:none;stroke:#ED1B2E;stroke-width:0.8;stroke-linecap:round;" x1="64.249"/>
  <line y1="-41.5" y2="-41.5" x2="67.499" style="fill:none;stroke:#ED1B2E;stroke-width:0.8;stroke-linecap:round;" x1="67.499"/>
  <line y1="-42.5" y2="-42.5" x2="69.499" style="fill:none;stroke:#ED1B2E;stroke-width:0.8;stroke-linecap:round;" x1="69.499"/>
  <line y1="-56.5" y2="-56.5" x2="7.25" style="fill:none;stroke:#ED1B2E;stroke-width:0.8;stroke-linecap:round;" x1="7.25"/>
  <line y1="-63.25" y2="-63.25" x2="1.5" style="fill:none;stroke:#ED1B2E;stroke-width:0.8;stroke-linecap:round;" x1="1.5"/>
  <line y1="-65.75" y2="-65.75" x2="14.5" style="fill:none;stroke:#ED1B2E;stroke-width:0.8;stroke-linecap:round;" x1="14.5"/>
  <line y1="-67" y2="-67" x2="8.5" style="fill:none;stroke:#ED1B2E;stroke-width:0.8;stroke-linecap:round;" x1="8.5"/>
  <line y1="-69.75" y2="-69.75" x2="3.5" style="fill:none;stroke:#ED1B2E;stroke-width:0.8;stroke-linecap:round;" x1="3.5"/>
  <line y1="-66.25" y2="-66.25" x2="3.75" style="fill:none;stroke:#ED1B2E;stroke-width:0.8;stroke-linecap:round;" x1="3.75"/>
  <line y1="-58" y2="-58" x2="12.75" style="fill:none;stroke:#ED1B2E;stroke-width:0.8;stroke-linecap:round;" x1="12.75"/>
  <line y1="-53" y2="-53" x2="18.5" style="fill:none;stroke:#ED1B2E;stroke-width:0.8;stroke-linecap:round;" x1="18.5"/>
  <line y1="-35.25" y2="-35.25" x2="21.25" style="fill:none;stroke:#ED1B2E;stroke-width:0.8;stroke-linecap:round;" x1="21.25"/>
  <line y1="-28" y2="-28" x2="0.75" style="fill:none;stroke:#ED1B2E;stroke-width:0.8;stroke-linecap:round;" x1="0.75"/>
  <line y1="-35" y2="-35" x2="66.499" style="fill:none;stroke:#ED1B2E;stroke-width:0.8;stroke-linecap:round;" x1="66.499"/>
  <line y1="-6.25" y2="-6.25" x2="67.999" style="fill:none;stroke:#ED1B2E;stroke-width:0.8;stroke-linecap:round;" x1="67.999"/>
  <line y1="-2.5" y2="-2.5" x2="59.75" style="fill:none;stroke:#ED1B2E;stroke-width:0.8;stroke-linecap:round;" x1="59.75"/>
  <line y1="-4.25" y2="-4.25" x2="40.5" style="fill:none;stroke:#ED1B2E;stroke-width:0.8;stroke-linecap:round;" x1="40.5"/>
  <line y1="-9.25" y2="-9.25" x2="44" style="fill:none;stroke:#ED1B2E;stroke-width:0.8;stroke-linecap:round;" x1="44"/>
  <line y1="-2.25" y2="-2.25" x2="25.75" style="fill:none;stroke:#ED1B2E;stroke-width:0.8;stroke-linecap:round;" x1="25.75"/>
  <line y1="-12.25" y2="-12.25" x2="4.5" style="fill:none;stroke:#ED1B2E;stroke-width:0.8;stroke-linecap:round;" x1="4.5"/>
  <line y1="-12.75" y2="-12.75" x2="26.5" style="fill:none;stroke:#ED1B2E;stroke-width:0.8;stroke-linecap:round;" x1="26.5"/>
  <line y1="-23.75" y2="-23.75" x2="37.25" style="fill:none;stroke:#ED1B2E;stroke-width:0.8;stroke-linecap:round;" x1="37.25"/>
  <line y1="-30.5" y2="-30.5" x2="22" style="fill:none;stroke:#ED1B2E;stroke-width:0.8;stroke-linecap:round;" x1="22"/>
  <line y1="-32" y2="-32" x2="8.75" style="fill:none;stroke:#ED1B2E;stroke-width:0.8;stroke-linecap:round;" x1="8.75"/>
  <line y1="-43.25" y2="-43.25" x2="24" style="fill:none;stroke:#ED1B2E;stroke-width:0.8;stroke-linecap:round;" x1="24"/>
  <line y1="-37.75" y2="-37.75" x2="41.5" style="fill:none;stroke:#ED1B2E;stroke-width:0.8;stroke-linecap:round;" x1="41.5"/>
  <line y1="-34.75" y2="-34.75" x2="51.5" style="fill:none;stroke:#ED1B2E;stroke-width:0.8;stroke-linecap:round;" x1="51.5"/>
  <line y1="-26.25" y2="-26.25" x2="60.75" style="fill:none;stroke:#ED1B2E;stroke-width:0.8;stroke-linecap:round;" x1="60.75"/>
  <line y1="-28.5" y2="-28.5" x2="67.499" style="fill:none;stroke:#ED1B2E;stroke-width:0.8;stroke-linecap:round;" x1="67.499"/>
  <line y1="-6" y2="-6" x2="51.25" style="fill:none;stroke:#ED1B2E;stroke-width:0.8;stroke-linecap:round;" x1="51.25"/>
  <line y1="-34.5" y2="-34.5" x2="40" style="fill:none;stroke:#ED1B2E;stroke-width:0.8;stroke-linecap:round;" x1="40"/>
  <line y1="-57.25" y2="-57.25" x2="53.25" style="fill:none;stroke:#ED1B2E;stroke-width:0.8;stroke-linecap:round;" x1="53.25"/>
  <line y1="-56.25" y2="-56.25" x2="34" style="fill:none;stroke:#ED1B2E;stroke-width:0.8;stroke-linecap:round;" x1="34"/>
  <line y1="-58.75" y2="-58.75" x2="27.5" style="fill:none;stroke:#ED1B2E;stroke-width:0.8;stroke-linecap:round;" x1="27.5"/>
  <line y1="-53" y2="-53" x2="12.75" style="fill:none;stroke:#ED1B2E;stroke-width:0.8;stroke-linecap:round;" x1="12.75"/>
  <line y1="-45.75" y2="-45.75" x2="19.75" style="fill:none;stroke:#ED1B2E;stroke-width:0.8;stroke-linecap:round;" x1="19.75"/>
  <line y1="-67.75" y2="-67.75" x2="49.5" style="fill:none;stroke:#ED1B2E;stroke-width:0.8;stroke-linecap:round;" x1="49.5"/>
  <line y1="-70.5" y2="-70.5" x2="11.75" style="fill:none;stroke:#ED1B2E;stroke-width:0.8;stroke-linecap:round;" x1="11.75"/>
  <line y1="-68.5" y2="-68.5" x2="55.25" style="fill:none;stroke:#ED1B2E;stroke-width:0.8;stroke-linecap:round;" x1="55.25"/>
  <line y1="-51.5" y2="-51.5" x2="59" style="fill:none;stroke:#ED1B2E;stroke-width:0.8;stroke-linecap:round;" x1="59"/>
  <line y1="-15" y2="-15" x2="67.499" style="fill:none;stroke:#ED1B2E;stroke-width:0.8;stroke-linecap:round;" x1="67.499"/>
  <line y1="-2.5" y2="-2.5" x2="47.25" style="fill:none;stroke:#ED1B2E;stroke-width:0.8;stroke-linecap:round;" x1="47.25"/>
  <line y1="-2.5" y2="-2.5" x2="5.25" style="fill:none;stroke:#ED1B2E;stroke-width:0.8;stroke-linecap:round;" x1="5.25"/>
  <line y1="-32" y2="-32" x2="4.75" style="fill:none;stroke:#ED1B2E;stroke-width:0.8;stroke-linecap:round;" x1="4.75"/>
  <line y1="-59.5" y2="-59.5" x2="69.749" style="fill:none;stroke:#ED1B2E;stroke-width:0.8;stroke-linecap:round;" x1="69.749"/>
  <line y1="-58.25" y2="-58.25" x2="23.25" style="fill:none;stroke:#ED1B2E;stroke-width:0.8;stroke-linecap:round;" x1="23.25"/>
  <line y1="-55" y2="-55" x2="20.5" style="fill:none;stroke:#ED1B2E;stroke-width:0.8;stroke-linecap:round;" x1="20.5"/>
  <line y1="-55" y2="-55" x2="14.75" style="fill:none;stroke:#ED1B2E;stroke-width:0.8;stroke-linecap:round;" x1="14.75"/>
  <line y1="-59" y2="-59" x2="2.75" style="fill:none;stroke:#ED1B2E;stroke-width:0.8;stroke-linecap:round;" x1="2.75"/>
  <line y1="-60.5" y2="-60.5" x2="6" style="fill:none;stroke:#ED1B2E;stroke-width:0.8;stroke-linecap:round;" x1="6"/>
  <line y1="-69.5" y2="-69.5" x2="7" style="fill:none;stroke:#ED1B2E;stroke-width:0.8;stroke-linecap:round;" x1="7"/>
  <line y1="-64" y2="-64" x2="10" style="fill:none;stroke:#ED1B2E;stroke-width:0.8;stroke-linecap:round;" x1="10"/>
  <line y1="-64" y2="-64" x2="16" style="fill:none;stroke:#ED1B2E;stroke-width:0.8;stroke-linecap:round;" x1="16"/>
  <line y1="-69" y2="-69" x2="16.5" style="fill:none;stroke:#ED1B2E;stroke-width:0.8;stroke-linecap:round;" x1="16.5"/>
  <line y1="-65.25" y2="-65.25" x2="25.75" style="fill:none;stroke:#ED1B2E;stroke-width:0.8;stroke-linecap:round;" x1="25.75"/>
  <line y1="-64.75" y2="-64.75" x2="37" style="fill:none;stroke:#ED1B2E;stroke-width:0.8;stroke-linecap:round;" x1="37"/>
  <line y1="-67.75" y2="-67.75" x2="40.5" style="fill:none;stroke:#ED1B2E;stroke-width:0.8;stroke-linecap:round;" x1="40.5"/>
  <line y1="-68" y2="-68" x2="37.5" style="fill:none;stroke:#ED1B2E;stroke-width:0.8;stroke-linecap:round;" x1="37.5"/>
  <line y1="-70" y2="-70" x2="43.25" style="fill:none;stroke:#ED1B2E;stroke-width:0.8;stroke-linecap:round;" x1="43.25"/>
  <line y1="-64" y2="-64" x2="49.5" style="fill:none;stroke:#ED1B2E;stroke-width:0.8;stroke-linecap:round;" x1="49.5"/>
  <line y1="-63" y2="-63" x2="46" style="fill:none;stroke:#ED1B2E;stroke-width:0.8;stroke-linecap:round;" x1="46"/>
  <line y1="-61.25" y2="-61.25" x2="35.75" style="fill:none;stroke:#ED1B2E;stroke-width:0.8;stroke-linecap:round;" x1="35.75"/>
  <line y1="-57.25" y2="-57.25" x2="39.25" style="fill:none;stroke:#ED1B2E;stroke-width:0.8;stroke-linecap:round;" x1="39.25"/>
  <line y1="-54.25" y2="-54.25" x2="24.75" style="fill:none;stroke:#ED1B2E;stroke-width:0.8;stroke-linecap:round;" x1="24.75"/>
  <line y1="-45" y2="-45" x2="8.25" style="fill:none;stroke:#ED1B2E;stroke-width:0.8;stroke-linecap:round;" x1="8.25"/>
  <line y1="-40.5" y2="-40.5" x2="16" style="fill:none;stroke:#ED1B2E;stroke-width:0.8;stroke-linecap:round;" x1="16"/>
  <line y1="-38.75" y2="-38.75" x2="10.5" style="fill:none;stroke:#ED1B2E;stroke-width:0.8;stroke-linecap:round;" x1="10.5"/>
  <line y1="-35.25" y2="-35.25" x2="5.25" style="fill:none;stroke:#ED1B2E;stroke-width:0.8;stroke-linecap:round;" x1="5.25"/>
  <line y1="-40.25" y2="-40.25" x2="2.75" style="fill:none;stroke:#ED1B2E;stroke-width:0.8;stroke-linecap:round;" x1="2.75"/>
  <line y1="-47.25" y2="-47.25" x2="7.5" style="fill:none;stroke:#ED1B2E;stroke-width:0.8;stroke-linecap:round;" x1="7.5"/>
  <line y1="-51.75" y2="-51.75" x2="3.25" style="fill:none;stroke:#ED1B2E;stroke-width:0.8;stroke-linecap:round;" x1="3.25"/>
  <line y1="-41.5" y2="-41.5" x2="20.5" style="fill:none;stroke:#ED1B2E;stroke-width:0.8;stroke-linecap:round;" x1="20.5"/>
  <line y1="-36.75" y2="-36.75" x2="17.5" style="fill:none;stroke:#ED1B2E;stroke-width:0.8;stroke-linecap:round;" x1="17.5"/>
  <line y1="-33.25" y2="-33.25" x2="16" style="fill:none;stroke:#ED1B2E;stroke-width:0.8;stroke-linecap:round;" x1="16"/>
  <line y1="-31" y2="-31" x2="12.75" style="fill:none;stroke:#ED1B2E;stroke-width:0.8;stroke-linecap:round;" x1="12.75"/>
  <line y1="-25.75" y2="-25.75" x2="12.75" style="fill:none;stroke:#ED1B2E;stroke-width:0.8;stroke-linecap:round;" x1="12.75"/>
  <line y1="-25.5" y2="-25.5" x2="4" style="fill:none;stroke:#ED1B2E;stroke-width:0.8;stroke-linecap:round;" x1="4"/>
  <line y1="-23.75" y2="-23.75" x2="5.75" style="fill:none;stroke:#ED1B2E;stroke-width:0.8;stroke-linecap:round;" x1="5.75"/>
  <line y1="-21.75" y2="-21.75" x2="11" style="fill:none;stroke:#ED1B2E;stroke-width:0.8;stroke-linecap:round;" x1="11"/>
  <line y1="-17.75" y2="-17.75" x2="11" style="fill:none;stroke:#ED1B2E;stroke-width:0.8;stroke-linecap:round;" x1="11"/>
  <line y1="-13.75" y2="-13.75" x2="15.5" style="fill:none;stroke:#ED1B2E;stroke-width:0.8;stroke-linecap:round;" x1="15.5"/>
  <line y1="-12.5" y2="-12.5" x2="10" style="fill:none;stroke:#ED1B2E;stroke-width:0.8;stroke-linecap:round;" x1="10"/>
  <line y1="-8.75" y2="-8.75" x2="6" style="fill:none;stroke:#ED1B2E;stroke-width:0.8;stroke-linecap:round;" x1="6"/>
  <line y1="-10.25" y2="-10.25" x2="2.25" style="fill:none;stroke:#ED1B2E;stroke-width:0.8;stroke-linecap:round;" x1="2.25"/>
  <line y1="-4.5" y2="-4.5" x2="7.25" style="fill:none;stroke:#ED1B2E;stroke-width:0.8;stroke-linecap:round;" x1="7.25"/>
  <line y1="-2.75" y2="-2.75" x2="13.5" style="fill:none;stroke:#ED1B2E;stroke-width:0.8;stroke-linecap:round;" x1="13.5"/>
  <line y1="-6.5" y2="-6.5" x2="13.5" style="fill:none;stroke:#ED1B2E;stroke-width:0.8;stroke-linecap:round;" x1="13.5"/>
  <line y1="-3.75" y2="-3.75" x2="21.5" style="fill:none;stroke:#ED1B2E;stroke-width:0.8;stroke-linecap:round;" x1="21.5"/>
  <line y1="-6.5" y2="-6.5" x2="23" style="fill:none;stroke:#ED1B2E;stroke-width:0.8;stroke-linecap:round;" x1="23"/>
  <line y1="-12.25" y2="-12.25" x2="22.25" style="fill:none;stroke:#ED1B2E;stroke-width:0.8;stroke-linecap:round;" x1="22.25"/>
  <line y1="-14.75" y2="-14.75" x2="24.25" style="fill:none;stroke:#ED1B2E;stroke-width:0.8;stroke-linecap:round;" x1="24.25"/>
  <line y1="-19" y2="-19" x2="22" style="fill:none;stroke:#ED1B2E;stroke-width:0.8;stroke-linecap:round;" x1="22"/>
  <line y1="-24.5" y2="-24.5" x2="26.25" style="fill:none;stroke:#ED1B2E;stroke-width:0.8;stroke-linecap:round;" x1="26.25"/>
  <line y1="-28.75" y2="-28.75" x2="25.75" style="fill:none;stroke:#ED1B2E;stroke-width:0.8;stroke-linecap:round;" x1="25.75"/>
  <line y1="-34.75" y2="-34.75" x2="31.25" style="fill:none;stroke:#ED1B2E;stroke-width:0.8;stroke-linecap:round;" x1="31.25"/>
  <line y1="-41.25" y2="-41.25" x2="32.25" style="fill:none;stroke:#ED1B2E;stroke-width:0.8;stroke-linecap:round;" x1="32.25"/>
  <line y1="-38.25" y2="-38.25" x2="26" style="fill:none;stroke:#ED1B2E;stroke-width:0.8;stroke-linecap:round;" x1="26"/>
  <line y1="-44.5" y2="-44.5" x2="34.25" style="fill:none;stroke:#ED1B2E;stroke-width:0.8;stroke-linecap:round;" x1="34.25"/>
  <line y1="-43.75" y2="-43.75" x2="37.25" style="fill:none;stroke:#ED1B2E;stroke-width:0.8;stroke-linecap:round;" x1="37.25"/>
  <line y1="-46.5" y2="-46.5" x2="41.75" style="fill:none;stroke:#ED1B2E;stroke-width:0.8;stroke-linecap:round;" x1="41.75"/>
  <line y1="-51.5" y2="-51.5" x2="43" style="fill:none;stroke:#ED1B2E;stroke-width:0.8;stroke-linecap:round;" x1="43"/>
  <line y1="-53" y2="-53" x2="36.5" style="fill:none;stroke:#ED1B2E;stroke-width:0.8;stroke-linecap:round;" x1="36.5"/>
  <line y1="-50" y2="-50" x2="27.75" style="fill:none;stroke:#ED1B2E;stroke-width:0.8;stroke-linecap:round;" x1="27.75"/>
  <line y1="-50.25" y2="-50.25" x2="52" style="fill:none;stroke:#ED1B2E;stroke-width:0.8;stroke-linecap:round;" x1="52"/>
  <line y1="-54.5" y2="-54.5" x2="43.25" style="fill:none;stroke:#ED1B2E;stroke-width:0.8;stroke-linecap:round;" x1="43.25"/>
  <line y1="-54.25" y2="-54.25" x2="50.5" style="fill:none;stroke:#ED1B2E;stroke-width:0.8;stroke-linecap:round;" x1="50.5"/>
  <line y1="-55" y2="-55" x2="59.5" style="fill:none;stroke:#ED1B2E;stroke-width:0.8;stroke-linecap:round;" x1="59.5"/>
  <line y1="-58.25" y2="-58.25" x2="58.25" style="fill:none;stroke:#ED1B2E;stroke-width:0.8;stroke-linecap:round;" x1="58.25"/>
  <line y1="-61.25" y2="-61.25" x2="61.5" style="fill:none;stroke:#ED1B2E;stroke-width:0.8;stroke-linecap:round;" x1="61.5"/>
  <line y1="-64.75" y2="-64.75" x2="58.75" style="fill:none;stroke:#ED1B2E;stroke-width:0.8;stroke-linecap:round;" x1="58.75"/>
  <line y1="-67.5" y2="-67.5" x2="60" style="fill:none;stroke:#ED1B2E;stroke-width:0.8;stroke-linecap:round;" x1="60"/>
  <line y1="-66.25" y2="-66.25" x2="67.499" style="fill:none;stroke:#ED1B2E;stroke-width:0.8;stroke-linecap:round;" x1="67.499"/>
  <line y1="-64.25" y2="-64.25" x2="69.499" style="fill:none;stroke:#ED1B2E;stroke-width:0.8;stroke-linecap:round;" x1="69.499"/>
  <line y1="-62.5" y2="-62.5" x2="65.749" style="fill:none;stroke:#ED1B2E;stroke-width:0.8;stroke-linecap:round;" x1="65.749"/>
  <line y1="-55.75" y2="-55.75" x2="61.75" style="fill:none;stroke:#ED1B2E;stroke-width:0.8;stroke-linecap:round;" x1="61.75"/>
  <line y1="-48.5" y2="-48.5" x2="60.25" style="fill:none;stroke:#ED1B2E;stroke-width:0.8;stroke-linecap:round;" x1="60.25"/>
  <line y1="-48.5" y2="-48.5" x2="55.5" style="fill:none;stroke:#ED1B2E;stroke-width:0.8;stroke-linecap:round;" x1="55.5"/>
  <line y1="-53.5" y2="-53.5" x2="55.5" style="fill:none;stroke:#ED1B2E;stroke-width:0.8;stroke-linecap:round;" x1="55.5"/>
  <line y1="-46.5" y2="-46.5" x2="64.999" style="fill:none;stroke:#ED1B2E;stroke-width:0.8;stroke-linecap:round;" x1="64.999"/>
  <line y1="-45.25" y2="-45.25" x2="61.25" style="fill:none;stroke:#ED1B2E;stroke-width:0.8;stroke-linecap:round;" x1="61.25"/>
  <line y1="-41.5" y2="-41.5" x2="57.75" style="fill:none;stroke:#ED1B2E;stroke-width:0.8;stroke-linecap:round;" x1="57.75"/>
  <line y1="-39.5" y2="-39.5" x2="52.75" style="fill:none;stroke:#ED1B2E;stroke-width:0.8;stroke-linecap:round;" x1="52.75"/>
  <line y1="-38.5" y2="-38.5" x2="47.5" style="fill:none;stroke:#ED1B2E;stroke-width:0.8;stroke-linecap:round;" x1="47.5"/>
  <line y1="-33" y2="-33" x2="44.25" style="fill:none;stroke:#ED1B2E;stroke-width:0.8;stroke-linecap:round;" x1="44.25"/>
  <line y1="-30.75" y2="-30.75" x2="34" style="fill:none;stroke:#ED1B2E;stroke-width:0.8;stroke-linecap:round;" x1="34"/>
  <line y1="-24.25" y2="-24.25" x2="40.75" style="fill:none;stroke:#ED1B2E;stroke-width:0.8;stroke-linecap:round;" x1="40.75"/>
  <line y1="-20" y2="-20" x2="45.75" style="fill:none;stroke:#ED1B2E;stroke-width:0.8;stroke-linecap:round;" x1="45.75"/>
  <line y1="-15.5" y2="-15.5" x2="46.5" style="fill:none;stroke:#ED1B2E;stroke-width:0.8;stroke-linecap:round;" x1="46.5"/>
  <line y1="-12.75" y2="-12.75" x2="42" style="fill:none;stroke:#ED1B2E;stroke-width:0.8;stroke-linecap:round;" x1="42"/>
  <line y1="-9.5" y2="-9.5" x2="40" style="fill:none;stroke:#ED1B2E;stroke-width:0.8;stroke-linecap:round;" x1="40"/>
  <line y1="-9.5" y2="-9.5" x2="36" style="fill:none;stroke:#ED1B2E;stroke-width:0.8;stroke-linecap:round;" x1="36"/>
  <line y1="-19.5" y2="-19.5" x2="36.5" style="fill:none;stroke:#ED1B2E;stroke-width:0.8;stroke-linecap:round;" x1="36.5"/>
  <line y1="-8.75" y2="-8.75" x2="30" style="fill:none;stroke:#ED1B2E;stroke-width:0.8;stroke-linecap:round;" x1="30"/>
  <line y1="-3.75" y2="-3.75" x2="31.5" style="fill:none;stroke:#ED1B2E;stroke-width:0.8;stroke-linecap:round;" x1="31.5"/>
  <line y1="-1.25" y2="-1.25" x2="37" style="fill:none;stroke:#ED1B2E;stroke-width:0.8;stroke-linecap:round;" x1="37"/>
  <line y1="-15.25" y2="-15.25" x2="58.75" style="fill:none;stroke:#ED1B2E;stroke-width:0.8;stroke-linecap:round;" x1="58.75"/>
  <line y1="-15.25" y2="-15.25" x2="63" style="fill:none;stroke:#ED1B2E;stroke-width:0.8;stroke-linecap:round;" x1="63"/>
  <line y1="-21.5" y2="-21.5" x2="60" style="fill:none;stroke:#ED1B2E;stroke-width:0.8;stroke-linecap:round;" x1="60"/>
  <line y1="-21.75" y2="-21.75" x2="54.5" style="fill:none;stroke:#ED1B2E;stroke-width:0.8;stroke-linecap:round;" x1="54.5"/>
  <line y1="-28" y2="-28" x2="59.25" style="fill:none;stroke:#ED1B2E;stroke-width:0.8;stroke-linecap:round;" x1="59.25"/>
  <line y1="-30.5" y2="-30.5" x2="54.75" style="fill:none;stroke:#ED1B2E;stroke-width:0.8;stroke-linecap:round;" x1="54.75"/>
  <line y1="-36.75" y2="-36.75" x2="55.75" style="fill:none;stroke:#ED1B2E;stroke-width:0.8;stroke-linecap:round;" x1="55.75"/>
  <line y1="-30" y2="-30" x2="62.5" style="fill:none;stroke:#ED1B2E;stroke-width:0.8;stroke-linecap:round;" x1="62.5"/>
  <line y1="-24.75" y2="-24.75" x2="66.999" style="fill:none;stroke:#ED1B2E;stroke-width:0.8;stroke-linecap:round;" x1="66.999"/>
  <line y1="-18" y2="-18" x2="69.499" style="fill:none;stroke:#ED1B2E;stroke-width:0.8;stroke-linecap:round;" x1="69.499"/>
  <line y1="-10.5" y2="-10.5" x2="63.5" style="fill:none;stroke:#ED1B2E;stroke-width:0.8;stroke-linecap:round;" x1="63.5"/>
  <line y1="-8.75" y2="-8.75" x2="69.249" style="fill:none;stroke:#ED1B2E;stroke-width:0.8;stroke-linecap:round;" x1="69.249"/>
  <line y1="-6.75" y2="-6.75" x2="64.749" style="fill:none;stroke:#ED1B2E;stroke-width:0.8;stroke-linecap:round;" x1="64.749"/>
  <line y1="-4" y2="-4" x2="65.749" style="fill:none;stroke:#ED1B2E;stroke-width:0.8;stroke-linecap:round;" x1="65.749"/>
  <line y1="-1.75" y2="-1.75" x2="69.249" style="fill:none;stroke:#ED1B2E;stroke-width:0.8;stroke-linecap:round;" x1="69.249"/>
  <line y1="-2" y2="-2" x2="62.5" style="fill:none;stroke:#ED1B2E;stroke-width:0.8;stroke-linecap:round;" x1="62.5"/>
  <line y1="-6.5" y2="-6.5" x2="60.75" style="fill:none;stroke:#ED1B2E;stroke-width:0.8;stroke-linecap:round;" x1="60.75"/>
  <line y1="-2.5" y2="-2.5" x2="52.75" style="fill:none;stroke:#ED1B2E;stroke-width:0.8;stroke-linecap:round;" x1="52.75"/>
  <line y1="-5.75" y2="-5.75" x2="44.75" style="fill:none;stroke:#ED1B2E;stroke-width:0.8;stroke-linecap:round;" x1="44.75"/>
  <line y1="-1" y2="-1" x2="44.5" style="fill:none;stroke:#ED1B2E;stroke-width:0.8;stroke-linecap:round;" x1="44.5"/>
  <line y1="-1" y2="-1" x2="28.5" style="fill:none;stroke:#ED1B2E;stroke-width:0.8;stroke-linecap:round;" x1="28.5"/>
  <line y1="-42.75" y2="-42.75" x2="0.75" style="fill:none;stroke:#ED1B2E;stroke-width:0.8;stroke-linecap:round;" x1="0.75"/>
  <line y1="-71.25" y2="-71.25" x2="24.5" style="fill:none;stroke:#ED1B2E;stroke-width:0.8;stroke-linecap:round;" x1="24.5"/>
  <line y1="-67.25" y2="-67.25" x2="13.25" style="fill:none;stroke:#ED1B2E;stroke-width:0.8;stroke-linecap:round;" x1="13.25"/>
  <line y1="-37" y2="-37" x2="70.999" style="fill:none;stroke:#ED1B2E;stroke-width:0.8;stroke-linecap:round;" x1="70.999"/>
 </g>
</svg>
