<?xml version="1.0"?>
<!-- Converted with SVG Converter - Version 0.9.5 (Compiled Fri Feb 21 09:53:38 2020) - Copyright (C) 2011 Nokia -->
<svg xmlns="http://www.w3.org/2000/svg" x="0px" xml:space="preserve" viewBox="0 -72 72 72" width="72" xmlns:xlink="http://www.w3.org/1999/xlink" version="1.1" y="0px" baseProfile="tiny" height="72">
 <g>
  <rect width="72" y="-72" style="fill:none;" height="72"/>
  <line y2="-69.25" x1="21" x2="21" y1="-69.25" style="fill:none;stroke:#000000;stroke-width:0.8;stroke-linecap:round;"/>
  <line y2="-64" x1="20" x2="20" y1="-64" style="fill:none;stroke:#000000;stroke-width:0.8;stroke-linecap:round;"/>
  <line y2="-61.75" x1="20.25" x2="20.25" y1="-61.75" style="fill:none;stroke:#000000;stroke-width:0.8;stroke-linecap:round;"/>
  <line y2="-59.5" x1="18" x2="18" y1="-59.5" style="fill:none;stroke:#000000;stroke-width:0.8;stroke-linecap:round;"/>
  <line y2="-61.75" x1="15.25" x2="15.25" y1="-61.75" style="fill:none;stroke:#000000;stroke-width:0.8;stroke-linecap:round;"/>
  <line y2="-52.25" x1="22.75" x2="22.75" y1="-52.25" style="fill:none;stroke:#000000;stroke-width:0.8;stroke-linecap:round;"/>
  <line y2="-49.25" x1="15.25" x2="15.25" y1="-49.25" style="fill:none;stroke:#000000;stroke-width:0.8;stroke-linecap:round;"/>
  <line y2="-48.25" x1="14" x2="14" y1="-48.25" style="fill:none;stroke:#000000;stroke-width:0.8;stroke-linecap:round;"/>
  <line y2="-45.25" x1="24" x2="24" y1="-45.25" style="fill:none;stroke:#000000;stroke-width:0.8;stroke-linecap:round;"/>
  <line y2="-46.5" x1="30.75" x2="30.75" y1="-46.5" style="fill:none;stroke:#000000;stroke-width:0.8;stroke-linecap:round;"/>
  <line y2="-49" x1="31.25" x2="31.25" y1="-49" style="fill:none;stroke:#000000;stroke-width:0.8;stroke-linecap:round;"/>
  <line y2="-54" x1="29.25" x2="29.25" y1="-54" style="fill:none;stroke:#000000;stroke-width:0.8;stroke-linecap:round;"/>
  <line y2="-54" x1="32.25" x2="32.25" y1="-54" style="fill:none;stroke:#000000;stroke-width:0.8;stroke-linecap:round;"/>
  <line y2="-58.5" x1="32.5" x2="32.5" y1="-58.5" style="fill:none;stroke:#000000;stroke-width:0.8;stroke-linecap:round;"/>
  <line y2="-60.5" x1="31.75" x2="31.75" y1="-60.5" style="fill:none;stroke:#000000;stroke-width:0.8;stroke-linecap:round;"/>
  <line y2="-61.5" x1="29.25" x2="29.25" y1="-61.5" style="fill:none;stroke:#000000;stroke-width:0.8;stroke-linecap:round;"/>
  <line y2="-65.25" x1="32.25" x2="32.25" y1="-65.25" style="fill:none;stroke:#000000;stroke-width:0.8;stroke-linecap:round;"/>
  <line y2="-69.25" x1="32" x2="32" y1="-69.25" style="fill:none;stroke:#000000;stroke-width:0.8;stroke-linecap:round;"/>
  <line y2="-69" x1="29.25" x2="29.25" y1="-69" style="fill:none;stroke:#000000;stroke-width:0.8;stroke-linecap:round;"/>
  <line y2="-71" x1="34" x2="34" y1="-71" style="fill:none;stroke:#000000;stroke-width:0.8;stroke-linecap:round;"/>
  <line y2="-65.25" x1="41.5" x2="41.5" y1="-65.25" style="fill:none;stroke:#000000;stroke-width:0.8;stroke-linecap:round;"/>
  <line y2="-65.5" x1="45.5" x2="45.5" y1="-65.5" style="fill:none;stroke:#000000;stroke-width:0.8;stroke-linecap:round;"/>
  <line y2="-62" x1="40.25" x2="40.25" y1="-62" style="fill:none;stroke:#000000;stroke-width:0.8;stroke-linecap:round;"/>
  <line y2="-60.5" x1="45" x2="45" y1="-60.5" style="fill:none;stroke:#000000;stroke-width:0.8;stroke-linecap:round;"/>
  <line y2="-58.75" x1="45" x2="45" y1="-58.75" style="fill:none;stroke:#000000;stroke-width:0.8;stroke-linecap:round;"/>
  <line y2="-58" x1="47" x2="47" y1="-58" style="fill:none;stroke:#000000;stroke-width:0.8;stroke-linecap:round;"/>
  <line y2="-56" x1="47" x2="47" y1="-56" style="fill:none;stroke:#000000;stroke-width:0.8;stroke-linecap:round;"/>
  <line y2="-49.5" x1="47.25" x2="47.25" y1="-49.5" style="fill:none;stroke:#000000;stroke-width:0.8;stroke-linecap:round;"/>
  <line y2="-51.5" x1="39" x2="39" y1="-51.5" style="fill:none;stroke:#000000;stroke-width:0.8;stroke-linecap:round;"/>
  <line y2="-58.75" x1="50.25" x2="50.25" y1="-58.75" style="fill:none;stroke:#000000;stroke-width:0.8;stroke-linecap:round;"/>
  <line y2="-60.25" x1="52.25" x2="52.25" y1="-60.25" style="fill:none;stroke:#000000;stroke-width:0.8;stroke-linecap:round;"/>
  <line y2="-61.25" x1="54.75" x2="54.75" y1="-61.25" style="fill:none;stroke:#000000;stroke-width:0.8;stroke-linecap:round;"/>
  <line y2="-65.5" x1="54.75" x2="54.75" y1="-65.5" style="fill:none;stroke:#000000;stroke-width:0.8;stroke-linecap:round;"/>
  <line y2="-71.5" x1="56.5" x2="56.5" y1="-71.5" style="fill:none;stroke:#000000;stroke-width:0.8;stroke-linecap:round;"/>
  <line y2="-65.75" x1="64" x2="64" y1="-65.75" style="fill:none;stroke:#000000;stroke-width:0.8;stroke-linecap:round;"/>
  <line y2="-69.75" x1="65" x2="65" y1="-69.75" style="fill:none;stroke:#000000;stroke-width:0.8;stroke-linecap:round;"/>
  <line y2="-69.25" x1="68" x2="68" y1="-69.25" style="fill:none;stroke:#000000;stroke-width:0.8;stroke-linecap:round;"/>
  <line y2="-62" x1="68" x2="68" y1="-62" style="fill:none;stroke:#000000;stroke-width:0.8;stroke-linecap:round;"/>
  <line y2="-60" x1="64.25" x2="64.25" y1="-60" style="fill:none;stroke:#000000;stroke-width:0.8;stroke-linecap:round;"/>
  <line y2="-56.5" x1="65.25" x2="65.25" y1="-56.5" style="fill:none;stroke:#000000;stroke-width:0.8;stroke-linecap:round;"/>
  <line y2="-52.5" x1="64" x2="64" y1="-52.5" style="fill:none;stroke:#000000;stroke-width:0.8;stroke-linecap:round;"/>
  <line y2="-52.5" x1="66.25" x2="66.25" y1="-52.5" style="fill:none;stroke:#000000;stroke-width:0.8;stroke-linecap:round;"/>
  <line y2="-51" x1="68" x2="68" y1="-51" style="fill:none;stroke:#000000;stroke-width:0.8;stroke-linecap:round;"/>
  <line y2="-52" x1="69.25" x2="69.25" y1="-52" style="fill:none;stroke:#000000;stroke-width:0.8;stroke-linecap:round;"/>
  <line y2="-54.25" x1="69.5" x2="69.5" y1="-54.25" style="fill:none;stroke:#000000;stroke-width:0.8;stroke-linecap:round;"/>
  <line y2="-54.75" x1="71.25" x2="71.25" y1="-54.75" style="fill:none;stroke:#000000;stroke-width:0.8;stroke-linecap:round;"/>
  <line y2="-25.25" x1="8" x2="8" y1="-25.25" style="fill:none;stroke:#000000;stroke-width:0.8;stroke-linecap:round;"/>
  <line y2="-20" x1="7" x2="7" y1="-20" style="fill:none;stroke:#000000;stroke-width:0.8;stroke-linecap:round;"/>
  <line y2="-17.75" x1="7.25" x2="7.25" y1="-17.75" style="fill:none;stroke:#000000;stroke-width:0.8;stroke-linecap:round;"/>
  <line y2="-15.5" x1="5" x2="5" y1="-15.5" style="fill:none;stroke:#000000;stroke-width:0.8;stroke-linecap:round;"/>
  <line y2="-17.75" x1="2.25" x2="2.25" y1="-17.75" style="fill:none;stroke:#000000;stroke-width:0.8;stroke-linecap:round;"/>
  <line y2="-8.25" x1="9.75" x2="9.75" y1="-8.25" style="fill:none;stroke:#000000;stroke-width:0.8;stroke-linecap:round;"/>
  <line y2="-5.25" x1="2.25" x2="2.25" y1="-5.25" style="fill:none;stroke:#000000;stroke-width:0.8;stroke-linecap:round;"/>
  <line y2="-4.25" x1="1" x2="1" y1="-4.25" style="fill:none;stroke:#000000;stroke-width:0.8;stroke-linecap:round;"/>
  <line y2="-1.25" x1="11" x2="11" y1="-1.25" style="fill:none;stroke:#000000;stroke-width:0.8;stroke-linecap:round;"/>
  <line y2="-2.5" x1="17.75" x2="17.75" y1="-2.5" style="fill:none;stroke:#000000;stroke-width:0.8;stroke-linecap:round;"/>
  <line y2="-5" x1="18.25" x2="18.25" y1="-5" style="fill:none;stroke:#000000;stroke-width:0.8;stroke-linecap:round;"/>
  <line y2="-10" x1="16.25" x2="16.25" y1="-10" style="fill:none;stroke:#000000;stroke-width:0.8;stroke-linecap:round;"/>
  <line y2="-10" x1="19.25" x2="19.25" y1="-10" style="fill:none;stroke:#000000;stroke-width:0.8;stroke-linecap:round;"/>
  <line y2="-14.5" x1="19.5" x2="19.5" y1="-14.5" style="fill:none;stroke:#000000;stroke-width:0.8;stroke-linecap:round;"/>
  <line y2="-16.5" x1="18.75" x2="18.75" y1="-16.5" style="fill:none;stroke:#000000;stroke-width:0.8;stroke-linecap:round;"/>
  <line y2="-17.5" x1="16.25" x2="16.25" y1="-17.5" style="fill:none;stroke:#000000;stroke-width:0.8;stroke-linecap:round;"/>
  <line y2="-21.25" x1="19.25" x2="19.25" y1="-21.25" style="fill:none;stroke:#000000;stroke-width:0.8;stroke-linecap:round;"/>
  <line y2="-25.25" x1="19" x2="19" y1="-25.25" style="fill:none;stroke:#000000;stroke-width:0.8;stroke-linecap:round;"/>
  <line y2="-25" x1="16.25" x2="16.25" y1="-25" style="fill:none;stroke:#000000;stroke-width:0.8;stroke-linecap:round;"/>
  <line y2="-27" x1="21" x2="21" y1="-27" style="fill:none;stroke:#000000;stroke-width:0.8;stroke-linecap:round;"/>
  <line y2="-21.25" x1="28.5" x2="28.5" y1="-21.25" style="fill:none;stroke:#000000;stroke-width:0.8;stroke-linecap:round;"/>
  <line y2="-21.5" x1="32.5" x2="32.5" y1="-21.5" style="fill:none;stroke:#000000;stroke-width:0.8;stroke-linecap:round;"/>
  <line y2="-18" x1="27.25" x2="27.25" y1="-18" style="fill:none;stroke:#000000;stroke-width:0.8;stroke-linecap:round;"/>
  <line y2="-16.5" x1="32" x2="32" y1="-16.5" style="fill:none;stroke:#000000;stroke-width:0.8;stroke-linecap:round;"/>
  <line y2="-14.75" x1="32" x2="32" y1="-14.75" style="fill:none;stroke:#000000;stroke-width:0.8;stroke-linecap:round;"/>
  <line y2="-14" x1="34" x2="34" y1="-14" style="fill:none;stroke:#000000;stroke-width:0.8;stroke-linecap:round;"/>
  <line y2="-12" x1="34" x2="34" y1="-12" style="fill:none;stroke:#000000;stroke-width:0.8;stroke-linecap:round;"/>
  <line y2="-5.5" x1="34.25" x2="34.25" y1="-5.5" style="fill:none;stroke:#000000;stroke-width:0.8;stroke-linecap:round;"/>
  <line y2="-7.5" x1="26" x2="26" y1="-7.5" style="fill:none;stroke:#000000;stroke-width:0.8;stroke-linecap:round;"/>
  <line y2="-14.75" x1="37.25" x2="37.25" y1="-14.75" style="fill:none;stroke:#000000;stroke-width:0.8;stroke-linecap:round;"/>
  <line y2="-16.25" x1="39.25" x2="39.25" y1="-16.25" style="fill:none;stroke:#000000;stroke-width:0.8;stroke-linecap:round;"/>
  <line y2="-17.25" x1="41.75" x2="41.75" y1="-17.25" style="fill:none;stroke:#000000;stroke-width:0.8;stroke-linecap:round;"/>
  <line y2="-21.5" x1="41.75" x2="41.75" y1="-21.5" style="fill:none;stroke:#000000;stroke-width:0.8;stroke-linecap:round;"/>
  <line y2="-27.5" x1="43.5" x2="43.5" y1="-27.5" style="fill:none;stroke:#000000;stroke-width:0.8;stroke-linecap:round;"/>
  <line y2="-21.75" x1="51" x2="51" y1="-21.75" style="fill:none;stroke:#000000;stroke-width:0.8;stroke-linecap:round;"/>
  <line y2="-25.75" x1="52" x2="52" y1="-25.75" style="fill:none;stroke:#000000;stroke-width:0.8;stroke-linecap:round;"/>
  <line y2="-25.25" x1="55" x2="55" y1="-25.25" style="fill:none;stroke:#000000;stroke-width:0.8;stroke-linecap:round;"/>
  <line y2="-18" x1="55" x2="55" y1="-18" style="fill:none;stroke:#000000;stroke-width:0.8;stroke-linecap:round;"/>
  <line y2="-16" x1="51.25" x2="51.25" y1="-16" style="fill:none;stroke:#000000;stroke-width:0.8;stroke-linecap:round;"/>
  <line y2="-12.5" x1="52.25" x2="52.25" y1="-12.5" style="fill:none;stroke:#000000;stroke-width:0.8;stroke-linecap:round;"/>
  <line y2="-8.5" x1="51" x2="51" y1="-8.5" style="fill:none;stroke:#000000;stroke-width:0.8;stroke-linecap:round;"/>
  <line y2="-8.5" x1="53.25" x2="53.25" y1="-8.5" style="fill:none;stroke:#000000;stroke-width:0.8;stroke-linecap:round;"/>
  <line y2="-7" x1="55" x2="55" y1="-7" style="fill:none;stroke:#000000;stroke-width:0.8;stroke-linecap:round;"/>
  <line y2="-8" x1="56.25" x2="56.25" y1="-8" style="fill:none;stroke:#000000;stroke-width:0.8;stroke-linecap:round;"/>
  <line y2="-10.25" x1="56.5" x2="56.5" y1="-10.25" style="fill:none;stroke:#000000;stroke-width:0.8;stroke-linecap:round;"/>
  <line y2="-10.75" x1="58.25" x2="58.25" y1="-10.75" style="fill:none;stroke:#000000;stroke-width:0.8;stroke-linecap:round;"/>
  <line y2="-45.25" x1="21" x2="21" y1="-45.25" style="fill:none;stroke:#000000;stroke-width:0.8;stroke-linecap:round;"/>
  <line y2="-48.25" x1="22.75" x2="22.75" y1="-48.25" style="fill:none;stroke:#000000;stroke-width:0.8;stroke-linecap:round;"/>
  <line y2="-47.75" x1="25.25" x2="25.25" y1="-47.75" style="fill:none;stroke:#000000;stroke-width:0.8;stroke-linecap:round;"/>
  <line y2="-49" x1="35.25" x2="35.25" y1="-49" style="fill:none;stroke:#000000;stroke-width:0.8;stroke-linecap:round;"/>
  <line y2="-47.5" x1="39" x2="39" y1="-47.5" style="fill:none;stroke:#000000;stroke-width:0.8;stroke-linecap:round;"/>
  <line y2="-42.75" x1="45" x2="45" y1="-42.75" style="fill:none;stroke:#000000;stroke-width:0.8;stroke-linecap:round;"/>
  <line y2="-43.25" x1="46.25" x2="46.25" y1="-43.25" style="fill:none;stroke:#000000;stroke-width:0.8;stroke-linecap:round;"/>
  <line y2="-44.25" x1="55.25" x2="55.25" y1="-44.25" style="fill:none;stroke:#000000;stroke-width:0.8;stroke-linecap:round;"/>
  <line y2="-47" x1="51.25" x2="51.25" y1="-47" style="fill:none;stroke:#000000;stroke-width:0.8;stroke-linecap:round;"/>
  <line y2="-42.75" x1="52" x2="52" y1="-42.75" style="fill:none;stroke:#000000;stroke-width:0.8;stroke-linecap:round;"/>
  <line y2="-36.75" x1="62.5" x2="62.5" y1="-36.75" style="fill:none;stroke:#000000;stroke-width:0.8;stroke-linecap:round;"/>
  <line y2="-34" x1="58.25" x2="58.25" y1="-34" style="fill:none;stroke:#000000;stroke-width:0.8;stroke-linecap:round;"/>
  <line y2="-33.25" x1="49" x2="49" y1="-33.25" style="fill:none;stroke:#000000;stroke-width:0.8;stroke-linecap:round;"/>
  <line y2="-31" x1="48" x2="48" y1="-31" style="fill:none;stroke:#000000;stroke-width:0.8;stroke-linecap:round;"/>
  <line y2="-29.25" x1="52" x2="52" y1="-29.25" style="fill:none;stroke:#000000;stroke-width:0.8;stroke-linecap:round;"/>
  <line y2="-27.25" x1="53.5" x2="53.5" y1="-27.25" style="fill:none;stroke:#000000;stroke-width:0.8;stroke-linecap:round;"/>
  <line y2="-24.25" x1="62.25" x2="62.25" y1="-24.25" style="fill:none;stroke:#000000;stroke-width:0.8;stroke-linecap:round;"/>
  <line y2="-20.5" x1="65" x2="65" y1="-20.5" style="fill:none;stroke:#000000;stroke-width:0.8;stroke-linecap:round;"/>
  <line y2="-20.5" x1="67" x2="67" y1="-20.5" style="fill:none;stroke:#000000;stroke-width:0.8;stroke-linecap:round;"/>
  <line y2="-27.25" x1="69.5" x2="69.5" y1="-27.25" style="fill:none;stroke:#000000;stroke-width:0.8;stroke-linecap:round;"/>
  <line y2="-33.25" x1="60" x2="60" y1="-33.25" style="fill:none;stroke:#000000;stroke-width:0.8;stroke-linecap:round;"/>
  <line y2="-24.5" x1="47.25" x2="47.25" y1="-24.5" style="fill:none;stroke:#000000;stroke-width:0.8;stroke-linecap:round;"/>
  <line y2="-25.25" x1="32.5" x2="32.5" y1="-25.25" style="fill:none;stroke:#000000;stroke-width:0.8;stroke-linecap:round;"/>
  <line y2="-27.75" x1="37" x2="37" y1="-27.75" style="fill:none;stroke:#000000;stroke-width:0.8;stroke-linecap:round;"/>
  <line y2="-34.5" x1="26.25" x2="26.25" y1="-34.5" style="fill:none;stroke:#000000;stroke-width:0.8;stroke-linecap:round;"/>
  <line y2="-36.75" x1="29.75" x2="29.75" y1="-36.75" style="fill:none;stroke:#000000;stroke-width:0.8;stroke-linecap:round;"/>
  <line y2="-43.75" x1="17" x2="17" y1="-43.75" style="fill:none;stroke:#000000;stroke-width:0.8;stroke-linecap:round;"/>
  <line y2="-42.75" x1="10.5" x2="10.5" y1="-42.75" style="fill:none;stroke:#000000;stroke-width:0.8;stroke-linecap:round;"/>
  <line y2="-40.75" x1="6" x2="6" y1="-40.75" style="fill:none;stroke:#000000;stroke-width:0.8;stroke-linecap:round;"/>
  <line y2="-37" x1="2.5" x2="2.5" y1="-37" style="fill:none;stroke:#000000;stroke-width:0.8;stroke-linecap:round;"/>
  <line y2="-35.5" x1="11.25" x2="11.25" y1="-35.5" style="fill:none;stroke:#000000;stroke-width:0.8;stroke-linecap:round;"/>
  <line y2="-30.25" x1="17" x2="17" y1="-30.25" style="fill:none;stroke:#000000;stroke-width:0.8;stroke-linecap:round;"/>
  <line y2="-36.25" x1="12.75" x2="12.75" y1="-36.25" style="fill:none;stroke:#000000;stroke-width:0.8;stroke-linecap:round;"/>
  <line y2="-42" x1="26.5" x2="26.5" y1="-42" style="fill:none;stroke:#000000;stroke-width:0.8;stroke-linecap:round;"/>
  <line y2="-41.25" x1="37.75" x2="37.75" y1="-41.25" style="fill:none;stroke:#000000;stroke-width:0.8;stroke-linecap:round;"/>
  <line y2="-39.75" x1="39.5" x2="39.5" y1="-39.75" style="fill:none;stroke:#000000;stroke-width:0.8;stroke-linecap:round;"/>
  <line y2="-30.25" x1="28" x2="28" y1="-30.25" style="fill:none;stroke:#000000;stroke-width:0.8;stroke-linecap:round;"/>
  <line y2="-51.75" x1="6.5" x2="6.5" y1="-51.75" style="fill:none;stroke:#000000;stroke-width:0.8;stroke-linecap:round;"/>
  <line y2="-52" x1="10.25" x2="10.25" y1="-52" style="fill:none;stroke:#000000;stroke-width:0.8;stroke-linecap:round;"/>
  <line y2="-48.75" x1="11.75" x2="11.75" y1="-48.75" style="fill:none;stroke:#000000;stroke-width:0.8;stroke-linecap:round;"/>
  <line y2="-46.5" x1="3" x2="3" y1="-46.5" style="fill:none;stroke:#000000;stroke-width:0.8;stroke-linecap:round;"/>
  <line y2="-42.75" x1="64.25" x2="64.25" y1="-42.75" style="fill:none;stroke:#000000;stroke-width:0.8;stroke-linecap:round;"/>
  <line y2="-41.5" x1="67.5" x2="67.5" y1="-41.5" style="fill:none;stroke:#000000;stroke-width:0.8;stroke-linecap:round;"/>
  <line y2="-42.5" x1="69.5" x2="69.5" y1="-42.5" style="fill:none;stroke:#000000;stroke-width:0.8;stroke-linecap:round;"/>
  <line y2="-56.5" x1="7.25" x2="7.25" y1="-56.5" style="fill:none;stroke:#000000;stroke-width:0.8;stroke-linecap:round;"/>
  <line y2="-63.25" x1="1.5" x2="1.5" y1="-63.25" style="fill:none;stroke:#000000;stroke-width:0.8;stroke-linecap:round;"/>
  <line y2="-65.75" x1="14.5" x2="14.5" y1="-65.75" style="fill:none;stroke:#000000;stroke-width:0.8;stroke-linecap:round;"/>
  <line y2="-67" x1="8.5" x2="8.5" y1="-67" style="fill:none;stroke:#000000;stroke-width:0.8;stroke-linecap:round;"/>
  <line y2="-69.75" x1="3.5" x2="3.5" y1="-69.75" style="fill:none;stroke:#000000;stroke-width:0.8;stroke-linecap:round;"/>
  <line y2="-66.25" x1="3.75" x2="3.75" y1="-66.25" style="fill:none;stroke:#000000;stroke-width:0.8;stroke-linecap:round;"/>
  <line y2="-58" x1="12.75" x2="12.75" y1="-58" style="fill:none;stroke:#000000;stroke-width:0.8;stroke-linecap:round;"/>
  <line y2="-53" x1="18.5" x2="18.5" y1="-53" style="fill:none;stroke:#000000;stroke-width:0.8;stroke-linecap:round;"/>
  <line y2="-35.25" x1="21.25" x2="21.25" y1="-35.25" style="fill:none;stroke:#000000;stroke-width:0.8;stroke-linecap:round;"/>
  <line y2="-28" x1="0.75" x2="0.75" y1="-28" style="fill:none;stroke:#000000;stroke-width:0.8;stroke-linecap:round;"/>
  <line y2="-35" x1="66.5" x2="66.5" y1="-35" style="fill:none;stroke:#000000;stroke-width:0.8;stroke-linecap:round;"/>
  <line y2="-6.25" x1="68" x2="68" y1="-6.25" style="fill:none;stroke:#000000;stroke-width:0.8;stroke-linecap:round;"/>
  <line y2="-2.5" x1="59.75" x2="59.75" y1="-2.5" style="fill:none;stroke:#000000;stroke-width:0.8;stroke-linecap:round;"/>
  <line y2="-4.25" x1="40.5" x2="40.5" y1="-4.25" style="fill:none;stroke:#000000;stroke-width:0.8;stroke-linecap:round;"/>
  <line y2="-9.25" x1="44" x2="44" y1="-9.25" style="fill:none;stroke:#000000;stroke-width:0.8;stroke-linecap:round;"/>
  <line y2="-2.25" x1="25.75" x2="25.75" y1="-2.25" style="fill:none;stroke:#000000;stroke-width:0.8;stroke-linecap:round;"/>
  <line y2="-12.25" x1="4.5" x2="4.5" y1="-12.25" style="fill:none;stroke:#000000;stroke-width:0.8;stroke-linecap:round;"/>
  <line y2="-12.75" x1="26.5" x2="26.5" y1="-12.75" style="fill:none;stroke:#000000;stroke-width:0.8;stroke-linecap:round;"/>
  <line y2="-23.75" x1="37.25" x2="37.25" y1="-23.75" style="fill:none;stroke:#000000;stroke-width:0.8;stroke-linecap:round;"/>
  <line y2="-30.5" x1="22" x2="22" y1="-30.5" style="fill:none;stroke:#000000;stroke-width:0.8;stroke-linecap:round;"/>
  <line y2="-32" x1="8.75" x2="8.75" y1="-32" style="fill:none;stroke:#000000;stroke-width:0.8;stroke-linecap:round;"/>
  <line y2="-43.25" x1="24" x2="24" y1="-43.25" style="fill:none;stroke:#000000;stroke-width:0.8;stroke-linecap:round;"/>
  <line y2="-37.75" x1="41.5" x2="41.5" y1="-37.75" style="fill:none;stroke:#000000;stroke-width:0.8;stroke-linecap:round;"/>
  <line y2="-34.75" x1="51.5" x2="51.5" y1="-34.75" style="fill:none;stroke:#000000;stroke-width:0.8;stroke-linecap:round;"/>
  <line y2="-26.25" x1="60.75" x2="60.75" y1="-26.25" style="fill:none;stroke:#000000;stroke-width:0.8;stroke-linecap:round;"/>
  <line y2="-28.5" x1="67.5" x2="67.5" y1="-28.5" style="fill:none;stroke:#000000;stroke-width:0.8;stroke-linecap:round;"/>
  <line y2="-6" x1="51.25" x2="51.25" y1="-6" style="fill:none;stroke:#000000;stroke-width:0.8;stroke-linecap:round;"/>
  <line y2="-34.5" x1="40" x2="40" y1="-34.5" style="fill:none;stroke:#000000;stroke-width:0.8;stroke-linecap:round;"/>
  <line y2="-57.25" x1="53.25" x2="53.25" y1="-57.25" style="fill:none;stroke:#000000;stroke-width:0.8;stroke-linecap:round;"/>
  <line y2="-56.25" x1="34" x2="34" y1="-56.25" style="fill:none;stroke:#000000;stroke-width:0.8;stroke-linecap:round;"/>
  <line y2="-58.75" x1="27.5" x2="27.5" y1="-58.75" style="fill:none;stroke:#000000;stroke-width:0.8;stroke-linecap:round;"/>
  <line y2="-53" x1="12.75" x2="12.75" y1="-53" style="fill:none;stroke:#000000;stroke-width:0.8;stroke-linecap:round;"/>
  <line y2="-45.75" x1="19.75" x2="19.75" y1="-45.75" style="fill:none;stroke:#000000;stroke-width:0.8;stroke-linecap:round;"/>
  <line y2="-67.75" x1="49.5" x2="49.5" y1="-67.75" style="fill:none;stroke:#000000;stroke-width:0.8;stroke-linecap:round;"/>
  <line y2="-70.5" x1="11.75" x2="11.75" y1="-70.5" style="fill:none;stroke:#000000;stroke-width:0.8;stroke-linecap:round;"/>
  <line y2="-68.5" x1="55.25" x2="55.25" y1="-68.5" style="fill:none;stroke:#000000;stroke-width:0.8;stroke-linecap:round;"/>
  <line y2="-51.5" x1="59" x2="59" y1="-51.5" style="fill:none;stroke:#000000;stroke-width:0.8;stroke-linecap:round;"/>
  <line y2="-15" x1="67.5" x2="67.5" y1="-15" style="fill:none;stroke:#000000;stroke-width:0.8;stroke-linecap:round;"/>
  <line y2="-2.5" x1="47.25" x2="47.25" y1="-2.5" style="fill:none;stroke:#000000;stroke-width:0.8;stroke-linecap:round;"/>
  <line y2="-2.5" x1="5.25" x2="5.25" y1="-2.5" style="fill:none;stroke:#000000;stroke-width:0.8;stroke-linecap:round;"/>
  <line y2="-32" x1="4.75" x2="4.75" y1="-32" style="fill:none;stroke:#000000;stroke-width:0.8;stroke-linecap:round;"/>
  <line y2="-59.5" x1="69.75" x2="69.75" y1="-59.5" style="fill:none;stroke:#000000;stroke-width:0.8;stroke-linecap:round;"/>
  <line y2="-58.25" x1="23.25" x2="23.25" y1="-58.25" style="fill:none;stroke:#000000;stroke-width:0.8;stroke-linecap:round;"/>
  <line y2="-55" x1="20.5" x2="20.5" y1="-55" style="fill:none;stroke:#000000;stroke-width:0.8;stroke-linecap:round;"/>
  <line y2="-55" x1="14.75" x2="14.75" y1="-55" style="fill:none;stroke:#000000;stroke-width:0.8;stroke-linecap:round;"/>
  <line y2="-59" x1="2.75" x2="2.75" y1="-59" style="fill:none;stroke:#000000;stroke-width:0.8;stroke-linecap:round;"/>
  <line y2="-60.5" x1="6" x2="6" y1="-60.5" style="fill:none;stroke:#000000;stroke-width:0.8;stroke-linecap:round;"/>
  <line y2="-69.5" x1="7" x2="7" y1="-69.5" style="fill:none;stroke:#000000;stroke-width:0.8;stroke-linecap:round;"/>
  <line y2="-64" x1="10" x2="10" y1="-64" style="fill:none;stroke:#000000;stroke-width:0.8;stroke-linecap:round;"/>
  <line y2="-64" x1="16" x2="16" y1="-64" style="fill:none;stroke:#000000;stroke-width:0.8;stroke-linecap:round;"/>
  <line y2="-69" x1="16.5" x2="16.5" y1="-69" style="fill:none;stroke:#000000;stroke-width:0.8;stroke-linecap:round;"/>
  <line y2="-65.25" x1="25.75" x2="25.75" y1="-65.25" style="fill:none;stroke:#000000;stroke-width:0.8;stroke-linecap:round;"/>
  <line y2="-64.75" x1="37" x2="37" y1="-64.75" style="fill:none;stroke:#000000;stroke-width:0.8;stroke-linecap:round;"/>
  <line y2="-67.75" x1="40.5" x2="40.5" y1="-67.75" style="fill:none;stroke:#000000;stroke-width:0.8;stroke-linecap:round;"/>
  <line y2="-68" x1="37.5" x2="37.5" y1="-68" style="fill:none;stroke:#000000;stroke-width:0.8;stroke-linecap:round;"/>
  <line y2="-70" x1="43.25" x2="43.25" y1="-70" style="fill:none;stroke:#000000;stroke-width:0.8;stroke-linecap:round;"/>
  <line y2="-64" x1="49.5" x2="49.5" y1="-64" style="fill:none;stroke:#000000;stroke-width:0.8;stroke-linecap:round;"/>
  <line y2="-63" x1="46" x2="46" y1="-63" style="fill:none;stroke:#000000;stroke-width:0.8;stroke-linecap:round;"/>
  <line y2="-61.25" x1="35.75" x2="35.75" y1="-61.25" style="fill:none;stroke:#000000;stroke-width:0.8;stroke-linecap:round;"/>
  <line y2="-57.25" x1="39.25" x2="39.25" y1="-57.25" style="fill:none;stroke:#000000;stroke-width:0.8;stroke-linecap:round;"/>
  <line y2="-54.25" x1="24.75" x2="24.75" y1="-54.25" style="fill:none;stroke:#000000;stroke-width:0.8;stroke-linecap:round;"/>
  <line y2="-45" x1="8.25" x2="8.25" y1="-45" style="fill:none;stroke:#000000;stroke-width:0.8;stroke-linecap:round;"/>
  <line y2="-40.5" x1="16" x2="16" y1="-40.5" style="fill:none;stroke:#000000;stroke-width:0.8;stroke-linecap:round;"/>
  <line y2="-38.75" x1="10.5" x2="10.5" y1="-38.75" style="fill:none;stroke:#000000;stroke-width:0.8;stroke-linecap:round;"/>
  <line y2="-35.25" x1="5.25" x2="5.25" y1="-35.25" style="fill:none;stroke:#000000;stroke-width:0.8;stroke-linecap:round;"/>
  <line y2="-40.25" x1="2.75" x2="2.75" y1="-40.25" style="fill:none;stroke:#000000;stroke-width:0.8;stroke-linecap:round;"/>
  <line y2="-47.25" x1="7.5" x2="7.5" y1="-47.25" style="fill:none;stroke:#000000;stroke-width:0.8;stroke-linecap:round;"/>
  <line y2="-51.75" x1="3.25" x2="3.25" y1="-51.75" style="fill:none;stroke:#000000;stroke-width:0.8;stroke-linecap:round;"/>
  <line y2="-41.5" x1="20.5" x2="20.5" y1="-41.5" style="fill:none;stroke:#000000;stroke-width:0.8;stroke-linecap:round;"/>
  <line y2="-36.75" x1="17.5" x2="17.5" y1="-36.75" style="fill:none;stroke:#000000;stroke-width:0.8;stroke-linecap:round;"/>
  <line y2="-33.25" x1="16" x2="16" y1="-33.25" style="fill:none;stroke:#000000;stroke-width:0.8;stroke-linecap:round;"/>
  <line y2="-31" x1="12.75" x2="12.75" y1="-31" style="fill:none;stroke:#000000;stroke-width:0.8;stroke-linecap:round;"/>
  <line y2="-25.75" x1="12.75" x2="12.75" y1="-25.75" style="fill:none;stroke:#000000;stroke-width:0.8;stroke-linecap:round;"/>
  <line y2="-25.5" x1="4" x2="4" y1="-25.5" style="fill:none;stroke:#000000;stroke-width:0.8;stroke-linecap:round;"/>
  <line y2="-23.75" x1="5.75" x2="5.75" y1="-23.75" style="fill:none;stroke:#000000;stroke-width:0.8;stroke-linecap:round;"/>
  <line y2="-21.75" x1="11" x2="11" y1="-21.75" style="fill:none;stroke:#000000;stroke-width:0.8;stroke-linecap:round;"/>
  <line y2="-17.75" x1="11" x2="11" y1="-17.75" style="fill:none;stroke:#000000;stroke-width:0.8;stroke-linecap:round;"/>
  <line y2="-13.75" x1="15.5" x2="15.5" y1="-13.75" style="fill:none;stroke:#000000;stroke-width:0.8;stroke-linecap:round;"/>
  <line y2="-12.5" x1="10" x2="10" y1="-12.5" style="fill:none;stroke:#000000;stroke-width:0.8;stroke-linecap:round;"/>
  <line y2="-8.75" x1="6" x2="6" y1="-8.75" style="fill:none;stroke:#000000;stroke-width:0.8;stroke-linecap:round;"/>
  <line y2="-10.25" x1="2.25" x2="2.25" y1="-10.25" style="fill:none;stroke:#000000;stroke-width:0.8;stroke-linecap:round;"/>
  <line y2="-4.5" x1="7.25" x2="7.25" y1="-4.5" style="fill:none;stroke:#000000;stroke-width:0.8;stroke-linecap:round;"/>
  <line y2="-2.75" x1="13.5" x2="13.5" y1="-2.75" style="fill:none;stroke:#000000;stroke-width:0.8;stroke-linecap:round;"/>
  <line y2="-6.5" x1="13.5" x2="13.5" y1="-6.5" style="fill:none;stroke:#000000;stroke-width:0.8;stroke-linecap:round;"/>
  <line y2="-3.75" x1="21.5" x2="21.5" y1="-3.75" style="fill:none;stroke:#000000;stroke-width:0.8;stroke-linecap:round;"/>
  <line y2="-6.5" x1="23" x2="23" y1="-6.5" style="fill:none;stroke:#000000;stroke-width:0.8;stroke-linecap:round;"/>
  <line y2="-12.25" x1="22.25" x2="22.25" y1="-12.25" style="fill:none;stroke:#000000;stroke-width:0.8;stroke-linecap:round;"/>
  <line y2="-14.75" x1="24.25" x2="24.25" y1="-14.75" style="fill:none;stroke:#000000;stroke-width:0.8;stroke-linecap:round;"/>
  <line y2="-19" x1="22" x2="22" y1="-19" style="fill:none;stroke:#000000;stroke-width:0.8;stroke-linecap:round;"/>
  <line y2="-24.5" x1="26.25" x2="26.25" y1="-24.5" style="fill:none;stroke:#000000;stroke-width:0.8;stroke-linecap:round;"/>
  <line y2="-28.75" x1="25.75" x2="25.75" y1="-28.75" style="fill:none;stroke:#000000;stroke-width:0.8;stroke-linecap:round;"/>
  <line y2="-34.75" x1="31.25" x2="31.25" y1="-34.75" style="fill:none;stroke:#000000;stroke-width:0.8;stroke-linecap:round;"/>
  <line y2="-41.25" x1="32.25" x2="32.25" y1="-41.25" style="fill:none;stroke:#000000;stroke-width:0.8;stroke-linecap:round;"/>
  <line y2="-38.25" x1="26" x2="26" y1="-38.25" style="fill:none;stroke:#000000;stroke-width:0.8;stroke-linecap:round;"/>
  <line y2="-44.5" x1="34.25" x2="34.25" y1="-44.5" style="fill:none;stroke:#000000;stroke-width:0.8;stroke-linecap:round;"/>
  <line y2="-43.75" x1="37.25" x2="37.25" y1="-43.75" style="fill:none;stroke:#000000;stroke-width:0.8;stroke-linecap:round;"/>
  <line y2="-46.5" x1="41.75" x2="41.75" y1="-46.5" style="fill:none;stroke:#000000;stroke-width:0.8;stroke-linecap:round;"/>
  <line y2="-51.5" x1="43" x2="43" y1="-51.5" style="fill:none;stroke:#000000;stroke-width:0.8;stroke-linecap:round;"/>
  <line y2="-53" x1="36.5" x2="36.5" y1="-53" style="fill:none;stroke:#000000;stroke-width:0.8;stroke-linecap:round;"/>
  <line y2="-50" x1="27.75" x2="27.75" y1="-50" style="fill:none;stroke:#000000;stroke-width:0.8;stroke-linecap:round;"/>
  <line y2="-50.25" x1="52" x2="52" y1="-50.25" style="fill:none;stroke:#000000;stroke-width:0.8;stroke-linecap:round;"/>
  <line y2="-54.5" x1="43.25" x2="43.25" y1="-54.5" style="fill:none;stroke:#000000;stroke-width:0.8;stroke-linecap:round;"/>
  <line y2="-54.25" x1="50.5" x2="50.5" y1="-54.25" style="fill:none;stroke:#000000;stroke-width:0.8;stroke-linecap:round;"/>
  <line y2="-55" x1="59.5" x2="59.5" y1="-55" style="fill:none;stroke:#000000;stroke-width:0.8;stroke-linecap:round;"/>
  <line y2="-58.25" x1="58.25" x2="58.25" y1="-58.25" style="fill:none;stroke:#000000;stroke-width:0.8;stroke-linecap:round;"/>
  <line y2="-61.25" x1="61.5" x2="61.5" y1="-61.25" style="fill:none;stroke:#000000;stroke-width:0.8;stroke-linecap:round;"/>
  <line y2="-64.75" x1="58.75" x2="58.75" y1="-64.75" style="fill:none;stroke:#000000;stroke-width:0.8;stroke-linecap:round;"/>
  <line y2="-67.5" x1="60" x2="60" y1="-67.5" style="fill:none;stroke:#000000;stroke-width:0.8;stroke-linecap:round;"/>
  <line y2="-66.25" x1="67.5" x2="67.5" y1="-66.25" style="fill:none;stroke:#000000;stroke-width:0.8;stroke-linecap:round;"/>
  <line y2="-64.25" x1="69.5" x2="69.5" y1="-64.25" style="fill:none;stroke:#000000;stroke-width:0.8;stroke-linecap:round;"/>
  <line y2="-62.5" x1="65.75" x2="65.75" y1="-62.5" style="fill:none;stroke:#000000;stroke-width:0.8;stroke-linecap:round;"/>
  <line y2="-55.75" x1="61.75" x2="61.75" y1="-55.75" style="fill:none;stroke:#000000;stroke-width:0.8;stroke-linecap:round;"/>
  <line y2="-48.5" x1="60.25" x2="60.25" y1="-48.5" style="fill:none;stroke:#000000;stroke-width:0.8;stroke-linecap:round;"/>
  <line y2="-48.5" x1="55.5" x2="55.5" y1="-48.5" style="fill:none;stroke:#000000;stroke-width:0.8;stroke-linecap:round;"/>
  <line y2="-53.5" x1="55.5" x2="55.5" y1="-53.5" style="fill:none;stroke:#000000;stroke-width:0.8;stroke-linecap:round;"/>
  <line y2="-46.5" x1="65" x2="65" y1="-46.5" style="fill:none;stroke:#000000;stroke-width:0.8;stroke-linecap:round;"/>
  <line y2="-45.25" x1="61.25" x2="61.25" y1="-45.25" style="fill:none;stroke:#000000;stroke-width:0.8;stroke-linecap:round;"/>
  <line y2="-41.5" x1="57.75" x2="57.75" y1="-41.5" style="fill:none;stroke:#000000;stroke-width:0.8;stroke-linecap:round;"/>
  <line y2="-39.5" x1="52.75" x2="52.75" y1="-39.5" style="fill:none;stroke:#000000;stroke-width:0.8;stroke-linecap:round;"/>
  <line y2="-38.5" x1="47.5" x2="47.5" y1="-38.5" style="fill:none;stroke:#000000;stroke-width:0.8;stroke-linecap:round;"/>
  <line y2="-33" x1="44.25" x2="44.25" y1="-33" style="fill:none;stroke:#000000;stroke-width:0.8;stroke-linecap:round;"/>
  <line y2="-30.75" x1="34" x2="34" y1="-30.75" style="fill:none;stroke:#000000;stroke-width:0.8;stroke-linecap:round;"/>
  <line y2="-24.25" x1="40.75" x2="40.75" y1="-24.25" style="fill:none;stroke:#000000;stroke-width:0.8;stroke-linecap:round;"/>
  <line y2="-20" x1="45.75" x2="45.75" y1="-20" style="fill:none;stroke:#000000;stroke-width:0.8;stroke-linecap:round;"/>
  <line y2="-15.5" x1="46.5" x2="46.5" y1="-15.5" style="fill:none;stroke:#000000;stroke-width:0.8;stroke-linecap:round;"/>
  <line y2="-12.75" x1="42" x2="42" y1="-12.75" style="fill:none;stroke:#000000;stroke-width:0.8;stroke-linecap:round;"/>
  <line y2="-9.5" x1="40" x2="40" y1="-9.5" style="fill:none;stroke:#000000;stroke-width:0.8;stroke-linecap:round;"/>
  <line y2="-9.5" x1="36" x2="36" y1="-9.5" style="fill:none;stroke:#000000;stroke-width:0.8;stroke-linecap:round;"/>
  <line y2="-19.5" x1="36.5" x2="36.5" y1="-19.5" style="fill:none;stroke:#000000;stroke-width:0.8;stroke-linecap:round;"/>
  <line y2="-8.75" x1="30" x2="30" y1="-8.75" style="fill:none;stroke:#000000;stroke-width:0.8;stroke-linecap:round;"/>
  <line y2="-3.75" x1="31.5" x2="31.5" y1="-3.75" style="fill:none;stroke:#000000;stroke-width:0.8;stroke-linecap:round;"/>
  <line y2="-1.25" x1="37" x2="37" y1="-1.25" style="fill:none;stroke:#000000;stroke-width:0.8;stroke-linecap:round;"/>
  <line y2="-15.25" x1="58.75" x2="58.75" y1="-15.25" style="fill:none;stroke:#000000;stroke-width:0.8;stroke-linecap:round;"/>
  <line y2="-15.25" x1="63" x2="63" y1="-15.25" style="fill:none;stroke:#000000;stroke-width:0.8;stroke-linecap:round;"/>
  <line y2="-21.5" x1="60" x2="60" y1="-21.5" style="fill:none;stroke:#000000;stroke-width:0.8;stroke-linecap:round;"/>
  <line y2="-21.75" x1="54.5" x2="54.5" y1="-21.75" style="fill:none;stroke:#000000;stroke-width:0.8;stroke-linecap:round;"/>
  <line y2="-28" x1="59.25" x2="59.25" y1="-28" style="fill:none;stroke:#000000;stroke-width:0.8;stroke-linecap:round;"/>
  <line y2="-30.5" x1="54.75" x2="54.75" y1="-30.5" style="fill:none;stroke:#000000;stroke-width:0.8;stroke-linecap:round;"/>
  <line y2="-36.75" x1="55.75" x2="55.75" y1="-36.75" style="fill:none;stroke:#000000;stroke-width:0.8;stroke-linecap:round;"/>
  <line y2="-30" x1="62.5" x2="62.5" y1="-30" style="fill:none;stroke:#000000;stroke-width:0.8;stroke-linecap:round;"/>
  <line y2="-24.75" x1="67" x2="67" y1="-24.75" style="fill:none;stroke:#000000;stroke-width:0.8;stroke-linecap:round;"/>
  <line y2="-18" x1="69.5" x2="69.5" y1="-18" style="fill:none;stroke:#000000;stroke-width:0.8;stroke-linecap:round;"/>
  <line y2="-10.5" x1="63.5" x2="63.5" y1="-10.5" style="fill:none;stroke:#000000;stroke-width:0.8;stroke-linecap:round;"/>
  <line y2="-8.75" x1="69.25" x2="69.25" y1="-8.75" style="fill:none;stroke:#000000;stroke-width:0.8;stroke-linecap:round;"/>
  <line y2="-6.75" x1="64.75" x2="64.75" y1="-6.75" style="fill:none;stroke:#000000;stroke-width:0.8;stroke-linecap:round;"/>
  <line y2="-4" x1="65.75" x2="65.75" y1="-4" style="fill:none;stroke:#000000;stroke-width:0.8;stroke-linecap:round;"/>
  <line y2="-1.75" x1="69.25" x2="69.25" y1="-1.75" style="fill:none;stroke:#000000;stroke-width:0.8;stroke-linecap:round;"/>
  <line y2="-2" x1="62.5" x2="62.5" y1="-2" style="fill:none;stroke:#000000;stroke-width:0.8;stroke-linecap:round;"/>
  <line y2="-6.5" x1="60.75" x2="60.75" y1="-6.5" style="fill:none;stroke:#000000;stroke-width:0.8;stroke-linecap:round;"/>
  <line y2="-2.5" x1="52.75" x2="52.75" y1="-2.5" style="fill:none;stroke:#000000;stroke-width:0.8;stroke-linecap:round;"/>
  <line y2="-5.75" x1="44.75" x2="44.75" y1="-5.75" style="fill:none;stroke:#000000;stroke-width:0.8;stroke-linecap:round;"/>
  <line y2="-1" x1="44.5" x2="44.5" y1="-1" style="fill:none;stroke:#000000;stroke-width:0.8;stroke-linecap:round;"/>
  <line y2="-1" x1="28.5" x2="28.5" y1="-1" style="fill:none;stroke:#000000;stroke-width:0.8;stroke-linecap:round;"/>
  <line y2="-42.75" x1="0.75" x2="0.75" y1="-42.75" style="fill:none;stroke:#000000;stroke-width:0.8;stroke-linecap:round;"/>
  <line y2="-71.25" x1="24.5" x2="24.5" y1="-71.25" style="fill:none;stroke:#000000;stroke-width:0.8;stroke-linecap:round;"/>
  <line y2="-67.25" x1="13.25" x2="13.25" y1="-67.25" style="fill:none;stroke:#000000;stroke-width:0.8;stroke-linecap:round;"/>
  <line y2="-37" x1="71" x2="71" y1="-37" style="fill:none;stroke:#000000;stroke-width:0.8;stroke-linecap:round;"/>
 </g>
</svg>
