<?xml version="1.0"?>
<!-- Converted with SVG Converter - Version 0.9.5 (Compiled Fri Feb 21 09:53:38 2020) - Copyright (C) 2011 Nokia -->
<svg xmlns="http://www.w3.org/2000/svg" xml:space="preserve" viewBox="0 -72 71.999 72" baseProfile="tiny" version="1.1" y="0px" x="0px" height="72" width="71.999" xmlns:xlink="http://www.w3.org/1999/xlink">
 <g>
  <rect style="fill:none;" y="-72" x="0" height="72" width="71.999"/>
  <rect y="-72" x="0" height="72" width="71.999"/>
  <rect style="fill:none;" y="-72" x="0" height="72" width="71.999"/>
  <line x2="21" style="fill:none;stroke:#FFFFFF;stroke-width:0.8;stroke-linecap:round;" x1="21" y1="-69.25" y2="-69.25"/>
  <line x2="20" style="fill:none;stroke:#FFFFFF;stroke-width:0.8;stroke-linecap:round;" x1="20" y1="-64" y2="-64"/>
  <line x2="20.25" style="fill:none;stroke:#FFFFFF;stroke-width:0.8;stroke-linecap:round;" x1="20.25" y1="-61.75" y2="-61.75"/>
  <line x2="18" style="fill:none;stroke:#FFFFFF;stroke-width:0.8;stroke-linecap:round;" x1="18" y1="-59.5" y2="-59.5"/>
  <line x2="15.25" style="fill:none;stroke:#FFFFFF;stroke-width:0.8;stroke-linecap:round;" x1="15.25" y1="-61.75" y2="-61.75"/>
  <line x2="22.75" style="fill:none;stroke:#FFFFFF;stroke-width:0.8;stroke-linecap:round;" x1="22.75" y1="-52.25" y2="-52.25"/>
  <line x2="15.25" style="fill:none;stroke:#FFFFFF;stroke-width:0.8;stroke-linecap:round;" x1="15.25" y1="-49.25" y2="-49.25"/>
  <line x2="14" style="fill:none;stroke:#FFFFFF;stroke-width:0.8;stroke-linecap:round;" x1="14" y1="-48.25" y2="-48.25"/>
  <line x2="24" style="fill:none;stroke:#FFFFFF;stroke-width:0.8;stroke-linecap:round;" x1="24" y1="-45.25" y2="-45.25"/>
  <line x2="30.75" style="fill:none;stroke:#FFFFFF;stroke-width:0.8;stroke-linecap:round;" x1="30.75" y1="-46.5" y2="-46.5"/>
  <line x2="31.25" style="fill:none;stroke:#FFFFFF;stroke-width:0.8;stroke-linecap:round;" x1="31.25" y1="-49" y2="-49"/>
  <line x2="29.25" style="fill:none;stroke:#FFFFFF;stroke-width:0.8;stroke-linecap:round;" x1="29.25" y1="-54" y2="-54"/>
  <line x2="32.25" style="fill:none;stroke:#FFFFFF;stroke-width:0.8;stroke-linecap:round;" x1="32.25" y1="-54" y2="-54"/>
  <line x2="32.5" style="fill:none;stroke:#FFFFFF;stroke-width:0.8;stroke-linecap:round;" x1="32.5" y1="-58.5" y2="-58.5"/>
  <line x2="31.75" style="fill:none;stroke:#FFFFFF;stroke-width:0.8;stroke-linecap:round;" x1="31.75" y1="-60.5" y2="-60.5"/>
  <line x2="29.25" style="fill:none;stroke:#FFFFFF;stroke-width:0.8;stroke-linecap:round;" x1="29.25" y1="-61.5" y2="-61.5"/>
  <line x2="32.25" style="fill:none;stroke:#FFFFFF;stroke-width:0.8;stroke-linecap:round;" x1="32.25" y1="-65.25" y2="-65.25"/>
  <line x2="32" style="fill:none;stroke:#FFFFFF;stroke-width:0.8;stroke-linecap:round;" x1="32" y1="-69.25" y2="-69.25"/>
  <line x2="29.25" style="fill:none;stroke:#FFFFFF;stroke-width:0.8;stroke-linecap:round;" x1="29.25" y1="-69" y2="-69"/>
  <line x2="34" style="fill:none;stroke:#FFFFFF;stroke-width:0.8;stroke-linecap:round;" x1="34" y1="-71" y2="-71"/>
  <line x2="41.5" style="fill:none;stroke:#FFFFFF;stroke-width:0.8;stroke-linecap:round;" x1="41.5" y1="-65.25" y2="-65.25"/>
  <line x2="45.5" style="fill:none;stroke:#FFFFFF;stroke-width:0.8;stroke-linecap:round;" x1="45.5" y1="-65.5" y2="-65.5"/>
  <line x2="40.25" style="fill:none;stroke:#FFFFFF;stroke-width:0.8;stroke-linecap:round;" x1="40.25" y1="-62" y2="-62"/>
  <line x2="45" style="fill:none;stroke:#FFFFFF;stroke-width:0.8;stroke-linecap:round;" x1="45" y1="-60.5" y2="-60.5"/>
  <line x2="45" style="fill:none;stroke:#FFFFFF;stroke-width:0.8;stroke-linecap:round;" x1="45" y1="-58.75" y2="-58.75"/>
  <line x2="47" style="fill:none;stroke:#FFFFFF;stroke-width:0.8;stroke-linecap:round;" x1="47" y1="-58" y2="-58"/>
  <line x2="47" style="fill:none;stroke:#FFFFFF;stroke-width:0.8;stroke-linecap:round;" x1="47" y1="-56" y2="-56"/>
  <line x2="47.25" style="fill:none;stroke:#FFFFFF;stroke-width:0.8;stroke-linecap:round;" x1="47.25" y1="-49.5" y2="-49.5"/>
  <line x2="39" style="fill:none;stroke:#FFFFFF;stroke-width:0.8;stroke-linecap:round;" x1="39" y1="-51.5" y2="-51.5"/>
  <line x2="50.25" style="fill:none;stroke:#FFFFFF;stroke-width:0.8;stroke-linecap:round;" x1="50.25" y1="-58.75" y2="-58.75"/>
  <line x2="52.25" style="fill:none;stroke:#FFFFFF;stroke-width:0.8;stroke-linecap:round;" x1="52.25" y1="-60.25" y2="-60.25"/>
  <line x2="54.75" style="fill:none;stroke:#FFFFFF;stroke-width:0.8;stroke-linecap:round;" x1="54.75" y1="-61.25" y2="-61.25"/>
  <line x2="54.75" style="fill:none;stroke:#FFFFFF;stroke-width:0.8;stroke-linecap:round;" x1="54.75" y1="-65.5" y2="-65.5"/>
  <line x2="56.5" style="fill:none;stroke:#FFFFFF;stroke-width:0.8;stroke-linecap:round;" x1="56.5" y1="-71.5" y2="-71.5"/>
  <line x2="64" style="fill:none;stroke:#FFFFFF;stroke-width:0.8;stroke-linecap:round;" x1="64" y1="-65.75" y2="-65.75"/>
  <line x2="64.999" style="fill:none;stroke:#FFFFFF;stroke-width:0.8;stroke-linecap:round;" x1="64.999" y1="-69.75" y2="-69.75"/>
  <line x2="67.999" style="fill:none;stroke:#FFFFFF;stroke-width:0.8;stroke-linecap:round;" x1="67.999" y1="-69.25" y2="-69.25"/>
  <line x2="67.999" style="fill:none;stroke:#FFFFFF;stroke-width:0.8;stroke-linecap:round;" x1="67.999" y1="-62" y2="-62"/>
  <line x2="64.249" style="fill:none;stroke:#FFFFFF;stroke-width:0.8;stroke-linecap:round;" x1="64.249" y1="-60" y2="-60"/>
  <line x2="65.249" style="fill:none;stroke:#FFFFFF;stroke-width:0.8;stroke-linecap:round;" x1="65.249" y1="-56.5" y2="-56.5"/>
  <line x2="64" style="fill:none;stroke:#FFFFFF;stroke-width:0.8;stroke-linecap:round;" x1="64" y1="-52.5" y2="-52.5"/>
  <line x2="66.249" style="fill:none;stroke:#FFFFFF;stroke-width:0.8;stroke-linecap:round;" x1="66.249" y1="-52.5" y2="-52.5"/>
  <line x2="67.999" style="fill:none;stroke:#FFFFFF;stroke-width:0.8;stroke-linecap:round;" x1="67.999" y1="-51" y2="-51"/>
  <line x2="69.249" style="fill:none;stroke:#FFFFFF;stroke-width:0.8;stroke-linecap:round;" x1="69.249" y1="-52" y2="-52"/>
  <line x2="69.499" style="fill:none;stroke:#FFFFFF;stroke-width:0.8;stroke-linecap:round;" x1="69.499" y1="-54.25" y2="-54.25"/>
  <line x2="71.249" style="fill:none;stroke:#FFFFFF;stroke-width:0.8;stroke-linecap:round;" x1="71.249" y1="-54.75" y2="-54.75"/>
  <line x2="8" style="fill:none;stroke:#FFFFFF;stroke-width:0.8;stroke-linecap:round;" x1="8" y1="-25.25" y2="-25.25"/>
  <line x2="7" style="fill:none;stroke:#FFFFFF;stroke-width:0.8;stroke-linecap:round;" x1="7" y1="-20" y2="-20"/>
  <line x2="7.25" style="fill:none;stroke:#FFFFFF;stroke-width:0.8;stroke-linecap:round;" x1="7.25" y1="-17.75" y2="-17.75"/>
  <line x2="5" style="fill:none;stroke:#FFFFFF;stroke-width:0.8;stroke-linecap:round;" x1="5" y1="-15.5" y2="-15.5"/>
  <line x2="2.25" style="fill:none;stroke:#FFFFFF;stroke-width:0.8;stroke-linecap:round;" x1="2.25" y1="-17.75" y2="-17.75"/>
  <line x2="9.75" style="fill:none;stroke:#FFFFFF;stroke-width:0.8;stroke-linecap:round;" x1="9.75" y1="-8.25" y2="-8.25"/>
  <line x2="2.25" style="fill:none;stroke:#FFFFFF;stroke-width:0.8;stroke-linecap:round;" x1="2.25" y1="-5.25" y2="-5.25"/>
  <line x2="1" style="fill:none;stroke:#FFFFFF;stroke-width:0.8;stroke-linecap:round;" x1="1" y1="-4.25" y2="-4.25"/>
  <line x2="11" style="fill:none;stroke:#FFFFFF;stroke-width:0.8;stroke-linecap:round;" x1="11" y1="-1.25" y2="-1.25"/>
  <line x2="17.75" style="fill:none;stroke:#FFFFFF;stroke-width:0.8;stroke-linecap:round;" x1="17.75" y1="-2.5" y2="-2.5"/>
  <line x2="18.25" style="fill:none;stroke:#FFFFFF;stroke-width:0.8;stroke-linecap:round;" x1="18.25" y1="-5" y2="-5"/>
  <line x2="16.25" style="fill:none;stroke:#FFFFFF;stroke-width:0.8;stroke-linecap:round;" x1="16.25" y1="-10" y2="-10"/>
  <line x2="19.25" style="fill:none;stroke:#FFFFFF;stroke-width:0.8;stroke-linecap:round;" x1="19.25" y1="-10" y2="-10"/>
  <line x2="19.5" style="fill:none;stroke:#FFFFFF;stroke-width:0.8;stroke-linecap:round;" x1="19.5" y1="-14.5" y2="-14.5"/>
  <line x2="18.75" style="fill:none;stroke:#FFFFFF;stroke-width:0.8;stroke-linecap:round;" x1="18.75" y1="-16.5" y2="-16.5"/>
  <line x2="16.25" style="fill:none;stroke:#FFFFFF;stroke-width:0.8;stroke-linecap:round;" x1="16.25" y1="-17.5" y2="-17.5"/>
  <line x2="19.25" style="fill:none;stroke:#FFFFFF;stroke-width:0.8;stroke-linecap:round;" x1="19.25" y1="-21.25" y2="-21.25"/>
  <line x2="19" style="fill:none;stroke:#FFFFFF;stroke-width:0.8;stroke-linecap:round;" x1="19" y1="-25.25" y2="-25.25"/>
  <line x2="16.25" style="fill:none;stroke:#FFFFFF;stroke-width:0.8;stroke-linecap:round;" x1="16.25" y1="-25" y2="-25"/>
  <line x2="21" style="fill:none;stroke:#FFFFFF;stroke-width:0.8;stroke-linecap:round;" x1="21" y1="-27" y2="-27"/>
  <line x2="28.5" style="fill:none;stroke:#FFFFFF;stroke-width:0.8;stroke-linecap:round;" x1="28.5" y1="-21.25" y2="-21.25"/>
  <line x2="32.5" style="fill:none;stroke:#FFFFFF;stroke-width:0.8;stroke-linecap:round;" x1="32.5" y1="-21.5" y2="-21.5"/>
  <line x2="27.25" style="fill:none;stroke:#FFFFFF;stroke-width:0.8;stroke-linecap:round;" x1="27.25" y1="-18" y2="-18"/>
  <line x2="32" style="fill:none;stroke:#FFFFFF;stroke-width:0.8;stroke-linecap:round;" x1="32" y1="-16.5" y2="-16.5"/>
  <line x2="32" style="fill:none;stroke:#FFFFFF;stroke-width:0.8;stroke-linecap:round;" x1="32" y1="-14.75" y2="-14.75"/>
  <line x2="34" style="fill:none;stroke:#FFFFFF;stroke-width:0.8;stroke-linecap:round;" x1="34" y1="-14" y2="-14"/>
  <line x2="34" style="fill:none;stroke:#FFFFFF;stroke-width:0.8;stroke-linecap:round;" x1="34" y1="-12" y2="-12"/>
  <line x2="34.25" style="fill:none;stroke:#FFFFFF;stroke-width:0.8;stroke-linecap:round;" x1="34.25" y1="-5.5" y2="-5.5"/>
  <line x2="26" style="fill:none;stroke:#FFFFFF;stroke-width:0.8;stroke-linecap:round;" x1="26" y1="-7.5" y2="-7.5"/>
  <line x2="37.25" style="fill:none;stroke:#FFFFFF;stroke-width:0.8;stroke-linecap:round;" x1="37.25" y1="-14.75" y2="-14.75"/>
  <line x2="39.25" style="fill:none;stroke:#FFFFFF;stroke-width:0.8;stroke-linecap:round;" x1="39.25" y1="-16.25" y2="-16.25"/>
  <line x2="41.75" style="fill:none;stroke:#FFFFFF;stroke-width:0.8;stroke-linecap:round;" x1="41.75" y1="-17.25" y2="-17.25"/>
  <line x2="41.75" style="fill:none;stroke:#FFFFFF;stroke-width:0.8;stroke-linecap:round;" x1="41.75" y1="-21.5" y2="-21.5"/>
  <line x2="43.5" style="fill:none;stroke:#FFFFFF;stroke-width:0.8;stroke-linecap:round;" x1="43.5" y1="-27.5" y2="-27.5"/>
  <line x2="51" style="fill:none;stroke:#FFFFFF;stroke-width:0.8;stroke-linecap:round;" x1="51" y1="-21.75" y2="-21.75"/>
  <line x2="52" style="fill:none;stroke:#FFFFFF;stroke-width:0.8;stroke-linecap:round;" x1="52" y1="-25.75" y2="-25.75"/>
  <line x2="55" style="fill:none;stroke:#FFFFFF;stroke-width:0.8;stroke-linecap:round;" x1="55" y1="-25.25" y2="-25.25"/>
  <line x2="55" style="fill:none;stroke:#FFFFFF;stroke-width:0.8;stroke-linecap:round;" x1="55" y1="-18" y2="-18"/>
  <line x2="51.25" style="fill:none;stroke:#FFFFFF;stroke-width:0.8;stroke-linecap:round;" x1="51.25" y1="-16" y2="-16"/>
  <line x2="52.25" style="fill:none;stroke:#FFFFFF;stroke-width:0.8;stroke-linecap:round;" x1="52.25" y1="-12.5" y2="-12.5"/>
  <line x2="51" style="fill:none;stroke:#FFFFFF;stroke-width:0.8;stroke-linecap:round;" x1="51" y1="-8.5" y2="-8.5"/>
  <line x2="53.25" style="fill:none;stroke:#FFFFFF;stroke-width:0.8;stroke-linecap:round;" x1="53.25" y1="-8.5" y2="-8.5"/>
  <line x2="55" style="fill:none;stroke:#FFFFFF;stroke-width:0.8;stroke-linecap:round;" x1="55" y1="-7" y2="-7"/>
  <line x2="56.25" style="fill:none;stroke:#FFFFFF;stroke-width:0.8;stroke-linecap:round;" x1="56.25" y1="-8" y2="-8"/>
  <line x2="56.5" style="fill:none;stroke:#FFFFFF;stroke-width:0.8;stroke-linecap:round;" x1="56.5" y1="-10.25" y2="-10.25"/>
  <line x2="58.25" style="fill:none;stroke:#FFFFFF;stroke-width:0.8;stroke-linecap:round;" x1="58.25" y1="-10.75" y2="-10.75"/>
  <line x2="21" style="fill:none;stroke:#FFFFFF;stroke-width:0.8;stroke-linecap:round;" x1="21" y1="-45.25" y2="-45.25"/>
  <line x2="22.75" style="fill:none;stroke:#FFFFFF;stroke-width:0.8;stroke-linecap:round;" x1="22.75" y1="-48.25" y2="-48.25"/>
  <line x2="25.25" style="fill:none;stroke:#FFFFFF;stroke-width:0.8;stroke-linecap:round;" x1="25.25" y1="-47.75" y2="-47.75"/>
  <line x2="35.25" style="fill:none;stroke:#FFFFFF;stroke-width:0.8;stroke-linecap:round;" x1="35.25" y1="-49" y2="-49"/>
  <line x2="39" style="fill:none;stroke:#FFFFFF;stroke-width:0.8;stroke-linecap:round;" x1="39" y1="-47.5" y2="-47.5"/>
  <line x2="45" style="fill:none;stroke:#FFFFFF;stroke-width:0.8;stroke-linecap:round;" x1="45" y1="-42.75" y2="-42.75"/>
  <line x2="46.25" style="fill:none;stroke:#FFFFFF;stroke-width:0.8;stroke-linecap:round;" x1="46.25" y1="-43.25" y2="-43.25"/>
  <line x2="55.25" style="fill:none;stroke:#FFFFFF;stroke-width:0.8;stroke-linecap:round;" x1="55.25" y1="-44.25" y2="-44.25"/>
  <line x2="51.25" style="fill:none;stroke:#FFFFFF;stroke-width:0.8;stroke-linecap:round;" x1="51.25" y1="-47" y2="-47"/>
  <line x2="52" style="fill:none;stroke:#FFFFFF;stroke-width:0.8;stroke-linecap:round;" x1="52" y1="-42.75" y2="-42.75"/>
  <line x2="62.5" style="fill:none;stroke:#FFFFFF;stroke-width:0.8;stroke-linecap:round;" x1="62.5" y1="-36.75" y2="-36.75"/>
  <line x2="58.25" style="fill:none;stroke:#FFFFFF;stroke-width:0.8;stroke-linecap:round;" x1="58.25" y1="-34" y2="-34"/>
  <line x2="49" style="fill:none;stroke:#FFFFFF;stroke-width:0.8;stroke-linecap:round;" x1="49" y1="-33.25" y2="-33.25"/>
  <line x2="48" style="fill:none;stroke:#FFFFFF;stroke-width:0.8;stroke-linecap:round;" x1="48" y1="-31" y2="-31"/>
  <line x2="52" style="fill:none;stroke:#FFFFFF;stroke-width:0.8;stroke-linecap:round;" x1="52" y1="-29.25" y2="-29.25"/>
  <line x2="53.5" style="fill:none;stroke:#FFFFFF;stroke-width:0.8;stroke-linecap:round;" x1="53.5" y1="-27.25" y2="-27.25"/>
  <line x2="62.25" style="fill:none;stroke:#FFFFFF;stroke-width:0.8;stroke-linecap:round;" x1="62.25" y1="-24.25" y2="-24.25"/>
  <line x2="64.999" style="fill:none;stroke:#FFFFFF;stroke-width:0.8;stroke-linecap:round;" x1="64.999" y1="-20.5" y2="-20.5"/>
  <line x2="66.999" style="fill:none;stroke:#FFFFFF;stroke-width:0.8;stroke-linecap:round;" x1="66.999" y1="-20.5" y2="-20.5"/>
  <line x2="69.499" style="fill:none;stroke:#FFFFFF;stroke-width:0.8;stroke-linecap:round;" x1="69.499" y1="-27.25" y2="-27.25"/>
  <line x2="60" style="fill:none;stroke:#FFFFFF;stroke-width:0.8;stroke-linecap:round;" x1="60" y1="-33.25" y2="-33.25"/>
  <line x2="47.25" style="fill:none;stroke:#FFFFFF;stroke-width:0.8;stroke-linecap:round;" x1="47.25" y1="-24.5" y2="-24.5"/>
  <line x2="32.5" style="fill:none;stroke:#FFFFFF;stroke-width:0.8;stroke-linecap:round;" x1="32.5" y1="-25.25" y2="-25.25"/>
  <line x2="37" style="fill:none;stroke:#FFFFFF;stroke-width:0.8;stroke-linecap:round;" x1="37" y1="-27.75" y2="-27.75"/>
  <line x2="26.25" style="fill:none;stroke:#FFFFFF;stroke-width:0.8;stroke-linecap:round;" x1="26.25" y1="-34.5" y2="-34.5"/>
  <line x2="29.75" style="fill:none;stroke:#FFFFFF;stroke-width:0.8;stroke-linecap:round;" x1="29.75" y1="-36.75" y2="-36.75"/>
  <line x2="17" style="fill:none;stroke:#FFFFFF;stroke-width:0.8;stroke-linecap:round;" x1="17" y1="-43.75" y2="-43.75"/>
  <line x2="10.5" style="fill:none;stroke:#FFFFFF;stroke-width:0.8;stroke-linecap:round;" x1="10.5" y1="-42.75" y2="-42.75"/>
  <line x2="6" style="fill:none;stroke:#FFFFFF;stroke-width:0.8;stroke-linecap:round;" x1="6" y1="-40.75" y2="-40.75"/>
  <line x2="2.5" style="fill:none;stroke:#FFFFFF;stroke-width:0.8;stroke-linecap:round;" x1="2.5" y1="-37" y2="-37"/>
  <line x2="11.25" style="fill:none;stroke:#FFFFFF;stroke-width:0.8;stroke-linecap:round;" x1="11.25" y1="-35.5" y2="-35.5"/>
  <line x2="17" style="fill:none;stroke:#FFFFFF;stroke-width:0.8;stroke-linecap:round;" x1="17" y1="-30.25" y2="-30.25"/>
  <line x2="12.75" style="fill:none;stroke:#FFFFFF;stroke-width:0.8;stroke-linecap:round;" x1="12.75" y1="-36.25" y2="-36.25"/>
  <line x2="26.5" style="fill:none;stroke:#FFFFFF;stroke-width:0.8;stroke-linecap:round;" x1="26.5" y1="-42" y2="-42"/>
  <line x2="37.75" style="fill:none;stroke:#FFFFFF;stroke-width:0.8;stroke-linecap:round;" x1="37.75" y1="-41.25" y2="-41.25"/>
  <line x2="39.5" style="fill:none;stroke:#FFFFFF;stroke-width:0.8;stroke-linecap:round;" x1="39.5" y1="-39.75" y2="-39.75"/>
  <line x2="28" style="fill:none;stroke:#FFFFFF;stroke-width:0.8;stroke-linecap:round;" x1="28" y1="-30.25" y2="-30.25"/>
  <line x2="6.5" style="fill:none;stroke:#FFFFFF;stroke-width:0.8;stroke-linecap:round;" x1="6.5" y1="-51.75" y2="-51.75"/>
  <line x2="10.25" style="fill:none;stroke:#FFFFFF;stroke-width:0.8;stroke-linecap:round;" x1="10.25" y1="-52" y2="-52"/>
  <line x2="11.75" style="fill:none;stroke:#FFFFFF;stroke-width:0.8;stroke-linecap:round;" x1="11.75" y1="-48.75" y2="-48.75"/>
  <line x2="3" style="fill:none;stroke:#FFFFFF;stroke-width:0.8;stroke-linecap:round;" x1="3" y1="-46.5" y2="-46.5"/>
  <line x2="64.249" style="fill:none;stroke:#FFFFFF;stroke-width:0.8;stroke-linecap:round;" x1="64.249" y1="-42.75" y2="-42.75"/>
  <line x2="67.499" style="fill:none;stroke:#FFFFFF;stroke-width:0.8;stroke-linecap:round;" x1="67.499" y1="-41.5" y2="-41.5"/>
  <line x2="69.499" style="fill:none;stroke:#FFFFFF;stroke-width:0.8;stroke-linecap:round;" x1="69.499" y1="-42.5" y2="-42.5"/>
  <line x2="7.25" style="fill:none;stroke:#FFFFFF;stroke-width:0.8;stroke-linecap:round;" x1="7.25" y1="-56.5" y2="-56.5"/>
  <line x2="1.5" style="fill:none;stroke:#FFFFFF;stroke-width:0.8;stroke-linecap:round;" x1="1.5" y1="-63.25" y2="-63.25"/>
  <line x2="14.5" style="fill:none;stroke:#FFFFFF;stroke-width:0.8;stroke-linecap:round;" x1="14.5" y1="-65.75" y2="-65.75"/>
  <line x2="8.5" style="fill:none;stroke:#FFFFFF;stroke-width:0.8;stroke-linecap:round;" x1="8.5" y1="-67" y2="-67"/>
  <line x2="3.5" style="fill:none;stroke:#FFFFFF;stroke-width:0.8;stroke-linecap:round;" x1="3.5" y1="-69.75" y2="-69.75"/>
  <line x2="3.75" style="fill:none;stroke:#FFFFFF;stroke-width:0.8;stroke-linecap:round;" x1="3.75" y1="-66.25" y2="-66.25"/>
  <line x2="12.75" style="fill:none;stroke:#FFFFFF;stroke-width:0.8;stroke-linecap:round;" x1="12.75" y1="-58" y2="-58"/>
  <line x2="18.5" style="fill:none;stroke:#FFFFFF;stroke-width:0.8;stroke-linecap:round;" x1="18.5" y1="-53" y2="-53"/>
  <line x2="21.25" style="fill:none;stroke:#FFFFFF;stroke-width:0.8;stroke-linecap:round;" x1="21.25" y1="-35.25" y2="-35.25"/>
  <line x2="0.75" style="fill:none;stroke:#FFFFFF;stroke-width:0.8;stroke-linecap:round;" x1="0.75" y1="-28" y2="-28"/>
  <line x2="66.499" style="fill:none;stroke:#FFFFFF;stroke-width:0.8;stroke-linecap:round;" x1="66.499" y1="-35" y2="-35"/>
  <line x2="67.999" style="fill:none;stroke:#FFFFFF;stroke-width:0.8;stroke-linecap:round;" x1="67.999" y1="-6.25" y2="-6.25"/>
  <line x2="59.75" style="fill:none;stroke:#FFFFFF;stroke-width:0.8;stroke-linecap:round;" x1="59.75" y1="-2.5" y2="-2.5"/>
  <line x2="40.5" style="fill:none;stroke:#FFFFFF;stroke-width:0.8;stroke-linecap:round;" x1="40.5" y1="-4.25" y2="-4.25"/>
  <line x2="44" style="fill:none;stroke:#FFFFFF;stroke-width:0.8;stroke-linecap:round;" x1="44" y1="-9.25" y2="-9.25"/>
  <line x2="25.75" style="fill:none;stroke:#FFFFFF;stroke-width:0.8;stroke-linecap:round;" x1="25.75" y1="-2.25" y2="-2.25"/>
  <line x2="4.5" style="fill:none;stroke:#FFFFFF;stroke-width:0.8;stroke-linecap:round;" x1="4.5" y1="-12.25" y2="-12.25"/>
  <line x2="26.5" style="fill:none;stroke:#FFFFFF;stroke-width:0.8;stroke-linecap:round;" x1="26.5" y1="-12.75" y2="-12.75"/>
  <line x2="37.25" style="fill:none;stroke:#FFFFFF;stroke-width:0.8;stroke-linecap:round;" x1="37.25" y1="-23.75" y2="-23.75"/>
  <line x2="22" style="fill:none;stroke:#FFFFFF;stroke-width:0.8;stroke-linecap:round;" x1="22" y1="-30.5" y2="-30.5"/>
  <line x2="8.75" style="fill:none;stroke:#FFFFFF;stroke-width:0.8;stroke-linecap:round;" x1="8.75" y1="-32" y2="-32"/>
  <line x2="24" style="fill:none;stroke:#FFFFFF;stroke-width:0.8;stroke-linecap:round;" x1="24" y1="-43.25" y2="-43.25"/>
  <line x2="41.5" style="fill:none;stroke:#FFFFFF;stroke-width:0.8;stroke-linecap:round;" x1="41.5" y1="-37.75" y2="-37.75"/>
  <line x2="51.5" style="fill:none;stroke:#FFFFFF;stroke-width:0.8;stroke-linecap:round;" x1="51.5" y1="-34.75" y2="-34.75"/>
  <line x2="60.75" style="fill:none;stroke:#FFFFFF;stroke-width:0.8;stroke-linecap:round;" x1="60.75" y1="-26.25" y2="-26.25"/>
  <line x2="67.499" style="fill:none;stroke:#FFFFFF;stroke-width:0.8;stroke-linecap:round;" x1="67.499" y1="-28.5" y2="-28.5"/>
  <line x2="51.25" style="fill:none;stroke:#FFFFFF;stroke-width:0.8;stroke-linecap:round;" x1="51.25" y1="-6" y2="-6"/>
  <line x2="40" style="fill:none;stroke:#FFFFFF;stroke-width:0.8;stroke-linecap:round;" x1="40" y1="-34.5" y2="-34.5"/>
  <line x2="53.25" style="fill:none;stroke:#FFFFFF;stroke-width:0.8;stroke-linecap:round;" x1="53.25" y1="-57.25" y2="-57.25"/>
  <line x2="34" style="fill:none;stroke:#FFFFFF;stroke-width:0.8;stroke-linecap:round;" x1="34" y1="-56.25" y2="-56.25"/>
  <line x2="27.5" style="fill:none;stroke:#FFFFFF;stroke-width:0.8;stroke-linecap:round;" x1="27.5" y1="-58.75" y2="-58.75"/>
  <line x2="12.75" style="fill:none;stroke:#FFFFFF;stroke-width:0.8;stroke-linecap:round;" x1="12.75" y1="-53" y2="-53"/>
  <line x2="19.75" style="fill:none;stroke:#FFFFFF;stroke-width:0.8;stroke-linecap:round;" x1="19.75" y1="-45.75" y2="-45.75"/>
  <line x2="49.5" style="fill:none;stroke:#FFFFFF;stroke-width:0.8;stroke-linecap:round;" x1="49.5" y1="-67.75" y2="-67.75"/>
  <line x2="11.75" style="fill:none;stroke:#FFFFFF;stroke-width:0.8;stroke-linecap:round;" x1="11.75" y1="-70.5" y2="-70.5"/>
  <line x2="55.25" style="fill:none;stroke:#FFFFFF;stroke-width:0.8;stroke-linecap:round;" x1="55.25" y1="-68.5" y2="-68.5"/>
  <line x2="59" style="fill:none;stroke:#FFFFFF;stroke-width:0.8;stroke-linecap:round;" x1="59" y1="-51.5" y2="-51.5"/>
  <line x2="67.499" style="fill:none;stroke:#FFFFFF;stroke-width:0.8;stroke-linecap:round;" x1="67.499" y1="-15" y2="-15"/>
  <line x2="47.25" style="fill:none;stroke:#FFFFFF;stroke-width:0.8;stroke-linecap:round;" x1="47.25" y1="-2.5" y2="-2.5"/>
  <line x2="5.25" style="fill:none;stroke:#FFFFFF;stroke-width:0.8;stroke-linecap:round;" x1="5.25" y1="-2.5" y2="-2.5"/>
  <line x2="4.75" style="fill:none;stroke:#FFFFFF;stroke-width:0.8;stroke-linecap:round;" x1="4.75" y1="-32" y2="-32"/>
  <line x2="69.749" style="fill:none;stroke:#FFFFFF;stroke-width:0.8;stroke-linecap:round;" x1="69.749" y1="-59.5" y2="-59.5"/>
  <line x2="23.25" style="fill:none;stroke:#FFFFFF;stroke-width:0.8;stroke-linecap:round;" x1="23.25" y1="-58.25" y2="-58.25"/>
  <line x2="20.5" style="fill:none;stroke:#FFFFFF;stroke-width:0.8;stroke-linecap:round;" x1="20.5" y1="-55" y2="-55"/>
  <line x2="14.75" style="fill:none;stroke:#FFFFFF;stroke-width:0.8;stroke-linecap:round;" x1="14.75" y1="-55" y2="-55"/>
  <line x2="2.75" style="fill:none;stroke:#FFFFFF;stroke-width:0.8;stroke-linecap:round;" x1="2.75" y1="-59" y2="-59"/>
  <line x2="6" style="fill:none;stroke:#FFFFFF;stroke-width:0.8;stroke-linecap:round;" x1="6" y1="-60.5" y2="-60.5"/>
  <line x2="7" style="fill:none;stroke:#FFFFFF;stroke-width:0.8;stroke-linecap:round;" x1="7" y1="-69.5" y2="-69.5"/>
  <line x2="10" style="fill:none;stroke:#FFFFFF;stroke-width:0.8;stroke-linecap:round;" x1="10" y1="-64" y2="-64"/>
  <line x2="16" style="fill:none;stroke:#FFFFFF;stroke-width:0.8;stroke-linecap:round;" x1="16" y1="-64" y2="-64"/>
  <line x2="16.5" style="fill:none;stroke:#FFFFFF;stroke-width:0.8;stroke-linecap:round;" x1="16.5" y1="-69" y2="-69"/>
  <line x2="25.75" style="fill:none;stroke:#FFFFFF;stroke-width:0.8;stroke-linecap:round;" x1="25.75" y1="-65.25" y2="-65.25"/>
  <line x2="37" style="fill:none;stroke:#FFFFFF;stroke-width:0.8;stroke-linecap:round;" x1="37" y1="-64.75" y2="-64.75"/>
  <line x2="40.5" style="fill:none;stroke:#FFFFFF;stroke-width:0.8;stroke-linecap:round;" x1="40.5" y1="-67.75" y2="-67.75"/>
  <line x2="37.5" style="fill:none;stroke:#FFFFFF;stroke-width:0.8;stroke-linecap:round;" x1="37.5" y1="-68" y2="-68"/>
  <line x2="43.25" style="fill:none;stroke:#FFFFFF;stroke-width:0.8;stroke-linecap:round;" x1="43.25" y1="-70" y2="-70"/>
  <line x2="49.5" style="fill:none;stroke:#FFFFFF;stroke-width:0.8;stroke-linecap:round;" x1="49.5" y1="-64" y2="-64"/>
  <line x2="46" style="fill:none;stroke:#FFFFFF;stroke-width:0.8;stroke-linecap:round;" x1="46" y1="-63" y2="-63"/>
  <line x2="35.75" style="fill:none;stroke:#FFFFFF;stroke-width:0.8;stroke-linecap:round;" x1="35.75" y1="-61.25" y2="-61.25"/>
  <line x2="39.25" style="fill:none;stroke:#FFFFFF;stroke-width:0.8;stroke-linecap:round;" x1="39.25" y1="-57.25" y2="-57.25"/>
  <line x2="24.75" style="fill:none;stroke:#FFFFFF;stroke-width:0.8;stroke-linecap:round;" x1="24.75" y1="-54.25" y2="-54.25"/>
  <line x2="8.25" style="fill:none;stroke:#FFFFFF;stroke-width:0.8;stroke-linecap:round;" x1="8.25" y1="-45" y2="-45"/>
  <line x2="16" style="fill:none;stroke:#FFFFFF;stroke-width:0.8;stroke-linecap:round;" x1="16" y1="-40.5" y2="-40.5"/>
  <line x2="10.5" style="fill:none;stroke:#FFFFFF;stroke-width:0.8;stroke-linecap:round;" x1="10.5" y1="-38.75" y2="-38.75"/>
  <line x2="5.25" style="fill:none;stroke:#FFFFFF;stroke-width:0.8;stroke-linecap:round;" x1="5.25" y1="-35.25" y2="-35.25"/>
  <line x2="2.75" style="fill:none;stroke:#FFFFFF;stroke-width:0.8;stroke-linecap:round;" x1="2.75" y1="-40.25" y2="-40.25"/>
  <line x2="7.5" style="fill:none;stroke:#FFFFFF;stroke-width:0.8;stroke-linecap:round;" x1="7.5" y1="-47.25" y2="-47.25"/>
  <line x2="3.25" style="fill:none;stroke:#FFFFFF;stroke-width:0.8;stroke-linecap:round;" x1="3.25" y1="-51.75" y2="-51.75"/>
  <line x2="20.5" style="fill:none;stroke:#FFFFFF;stroke-width:0.8;stroke-linecap:round;" x1="20.5" y1="-41.5" y2="-41.5"/>
  <line x2="17.5" style="fill:none;stroke:#FFFFFF;stroke-width:0.8;stroke-linecap:round;" x1="17.5" y1="-36.75" y2="-36.75"/>
  <line x2="16" style="fill:none;stroke:#FFFFFF;stroke-width:0.8;stroke-linecap:round;" x1="16" y1="-33.25" y2="-33.25"/>
  <line x2="12.75" style="fill:none;stroke:#FFFFFF;stroke-width:0.8;stroke-linecap:round;" x1="12.75" y1="-31" y2="-31"/>
  <line x2="12.75" style="fill:none;stroke:#FFFFFF;stroke-width:0.8;stroke-linecap:round;" x1="12.75" y1="-25.75" y2="-25.75"/>
  <line x2="4" style="fill:none;stroke:#FFFFFF;stroke-width:0.8;stroke-linecap:round;" x1="4" y1="-25.5" y2="-25.5"/>
  <line x2="5.75" style="fill:none;stroke:#FFFFFF;stroke-width:0.8;stroke-linecap:round;" x1="5.75" y1="-23.75" y2="-23.75"/>
  <line x2="11" style="fill:none;stroke:#FFFFFF;stroke-width:0.8;stroke-linecap:round;" x1="11" y1="-21.75" y2="-21.75"/>
  <line x2="11" style="fill:none;stroke:#FFFFFF;stroke-width:0.8;stroke-linecap:round;" x1="11" y1="-17.75" y2="-17.75"/>
  <line x2="15.5" style="fill:none;stroke:#FFFFFF;stroke-width:0.8;stroke-linecap:round;" x1="15.5" y1="-13.75" y2="-13.75"/>
  <line x2="10" style="fill:none;stroke:#FFFFFF;stroke-width:0.8;stroke-linecap:round;" x1="10" y1="-12.5" y2="-12.5"/>
  <line x2="6" style="fill:none;stroke:#FFFFFF;stroke-width:0.8;stroke-linecap:round;" x1="6" y1="-8.75" y2="-8.75"/>
  <line x2="2.25" style="fill:none;stroke:#FFFFFF;stroke-width:0.8;stroke-linecap:round;" x1="2.25" y1="-10.25" y2="-10.25"/>
  <line x2="7.25" style="fill:none;stroke:#FFFFFF;stroke-width:0.8;stroke-linecap:round;" x1="7.25" y1="-4.5" y2="-4.5"/>
  <line x2="13.5" style="fill:none;stroke:#FFFFFF;stroke-width:0.8;stroke-linecap:round;" x1="13.5" y1="-2.75" y2="-2.75"/>
  <line x2="13.5" style="fill:none;stroke:#FFFFFF;stroke-width:0.8;stroke-linecap:round;" x1="13.5" y1="-6.5" y2="-6.5"/>
  <line x2="21.5" style="fill:none;stroke:#FFFFFF;stroke-width:0.8;stroke-linecap:round;" x1="21.5" y1="-3.75" y2="-3.75"/>
  <line x2="23" style="fill:none;stroke:#FFFFFF;stroke-width:0.8;stroke-linecap:round;" x1="23" y1="-6.5" y2="-6.5"/>
  <line x2="22.25" style="fill:none;stroke:#FFFFFF;stroke-width:0.8;stroke-linecap:round;" x1="22.25" y1="-12.25" y2="-12.25"/>
  <line x2="24.25" style="fill:none;stroke:#FFFFFF;stroke-width:0.8;stroke-linecap:round;" x1="24.25" y1="-14.75" y2="-14.75"/>
  <line x2="22" style="fill:none;stroke:#FFFFFF;stroke-width:0.8;stroke-linecap:round;" x1="22" y1="-19" y2="-19"/>
  <line x2="26.25" style="fill:none;stroke:#FFFFFF;stroke-width:0.8;stroke-linecap:round;" x1="26.25" y1="-24.5" y2="-24.5"/>
  <line x2="25.75" style="fill:none;stroke:#FFFFFF;stroke-width:0.8;stroke-linecap:round;" x1="25.75" y1="-28.75" y2="-28.75"/>
  <line x2="31.25" style="fill:none;stroke:#FFFFFF;stroke-width:0.8;stroke-linecap:round;" x1="31.25" y1="-34.75" y2="-34.75"/>
  <line x2="32.25" style="fill:none;stroke:#FFFFFF;stroke-width:0.8;stroke-linecap:round;" x1="32.25" y1="-41.25" y2="-41.25"/>
  <line x2="26" style="fill:none;stroke:#FFFFFF;stroke-width:0.8;stroke-linecap:round;" x1="26" y1="-38.25" y2="-38.25"/>
  <line x2="34.25" style="fill:none;stroke:#FFFFFF;stroke-width:0.8;stroke-linecap:round;" x1="34.25" y1="-44.5" y2="-44.5"/>
  <line x2="37.25" style="fill:none;stroke:#FFFFFF;stroke-width:0.8;stroke-linecap:round;" x1="37.25" y1="-43.75" y2="-43.75"/>
  <line x2="41.75" style="fill:none;stroke:#FFFFFF;stroke-width:0.8;stroke-linecap:round;" x1="41.75" y1="-46.5" y2="-46.5"/>
  <line x2="43" style="fill:none;stroke:#FFFFFF;stroke-width:0.8;stroke-linecap:round;" x1="43" y1="-51.5" y2="-51.5"/>
  <line x2="36.5" style="fill:none;stroke:#FFFFFF;stroke-width:0.8;stroke-linecap:round;" x1="36.5" y1="-53" y2="-53"/>
  <line x2="27.75" style="fill:none;stroke:#FFFFFF;stroke-width:0.8;stroke-linecap:round;" x1="27.75" y1="-50" y2="-50"/>
  <line x2="52" style="fill:none;stroke:#FFFFFF;stroke-width:0.8;stroke-linecap:round;" x1="52" y1="-50.25" y2="-50.25"/>
  <line x2="43.25" style="fill:none;stroke:#FFFFFF;stroke-width:0.8;stroke-linecap:round;" x1="43.25" y1="-54.5" y2="-54.5"/>
  <line x2="50.5" style="fill:none;stroke:#FFFFFF;stroke-width:0.8;stroke-linecap:round;" x1="50.5" y1="-54.25" y2="-54.25"/>
  <line x2="59.5" style="fill:none;stroke:#FFFFFF;stroke-width:0.8;stroke-linecap:round;" x1="59.5" y1="-55" y2="-55"/>
  <line x2="58.25" style="fill:none;stroke:#FFFFFF;stroke-width:0.8;stroke-linecap:round;" x1="58.25" y1="-58.25" y2="-58.25"/>
  <line x2="61.5" style="fill:none;stroke:#FFFFFF;stroke-width:0.8;stroke-linecap:round;" x1="61.5" y1="-61.25" y2="-61.25"/>
  <line x2="58.75" style="fill:none;stroke:#FFFFFF;stroke-width:0.8;stroke-linecap:round;" x1="58.75" y1="-64.75" y2="-64.75"/>
  <line x2="60" style="fill:none;stroke:#FFFFFF;stroke-width:0.8;stroke-linecap:round;" x1="60" y1="-67.5" y2="-67.5"/>
  <line x2="67.499" style="fill:none;stroke:#FFFFFF;stroke-width:0.8;stroke-linecap:round;" x1="67.499" y1="-66.25" y2="-66.25"/>
  <line x2="69.499" style="fill:none;stroke:#FFFFFF;stroke-width:0.8;stroke-linecap:round;" x1="69.499" y1="-64.25" y2="-64.25"/>
  <line x2="65.749" style="fill:none;stroke:#FFFFFF;stroke-width:0.8;stroke-linecap:round;" x1="65.749" y1="-62.5" y2="-62.5"/>
  <line x2="61.75" style="fill:none;stroke:#FFFFFF;stroke-width:0.8;stroke-linecap:round;" x1="61.75" y1="-55.75" y2="-55.75"/>
  <line x2="60.25" style="fill:none;stroke:#FFFFFF;stroke-width:0.8;stroke-linecap:round;" x1="60.25" y1="-48.5" y2="-48.5"/>
  <line x2="55.5" style="fill:none;stroke:#FFFFFF;stroke-width:0.8;stroke-linecap:round;" x1="55.5" y1="-48.5" y2="-48.5"/>
  <line x2="55.5" style="fill:none;stroke:#FFFFFF;stroke-width:0.8;stroke-linecap:round;" x1="55.5" y1="-53.5" y2="-53.5"/>
  <line x2="64.999" style="fill:none;stroke:#FFFFFF;stroke-width:0.8;stroke-linecap:round;" x1="64.999" y1="-46.5" y2="-46.5"/>
  <line x2="61.25" style="fill:none;stroke:#FFFFFF;stroke-width:0.8;stroke-linecap:round;" x1="61.25" y1="-45.25" y2="-45.25"/>
  <line x2="57.75" style="fill:none;stroke:#FFFFFF;stroke-width:0.8;stroke-linecap:round;" x1="57.75" y1="-41.5" y2="-41.5"/>
  <line x2="52.75" style="fill:none;stroke:#FFFFFF;stroke-width:0.8;stroke-linecap:round;" x1="52.75" y1="-39.5" y2="-39.5"/>
  <line x2="47.5" style="fill:none;stroke:#FFFFFF;stroke-width:0.8;stroke-linecap:round;" x1="47.5" y1="-38.5" y2="-38.5"/>
  <line x2="44.25" style="fill:none;stroke:#FFFFFF;stroke-width:0.8;stroke-linecap:round;" x1="44.25" y1="-33" y2="-33"/>
  <line x2="34" style="fill:none;stroke:#FFFFFF;stroke-width:0.8;stroke-linecap:round;" x1="34" y1="-30.75" y2="-30.75"/>
  <line x2="40.75" style="fill:none;stroke:#FFFFFF;stroke-width:0.8;stroke-linecap:round;" x1="40.75" y1="-24.25" y2="-24.25"/>
  <line x2="45.75" style="fill:none;stroke:#FFFFFF;stroke-width:0.8;stroke-linecap:round;" x1="45.75" y1="-20" y2="-20"/>
  <line x2="46.5" style="fill:none;stroke:#FFFFFF;stroke-width:0.8;stroke-linecap:round;" x1="46.5" y1="-15.5" y2="-15.5"/>
  <line x2="42" style="fill:none;stroke:#FFFFFF;stroke-width:0.8;stroke-linecap:round;" x1="42" y1="-12.75" y2="-12.75"/>
  <line x2="40" style="fill:none;stroke:#FFFFFF;stroke-width:0.8;stroke-linecap:round;" x1="40" y1="-9.5" y2="-9.5"/>
  <line x2="36" style="fill:none;stroke:#FFFFFF;stroke-width:0.8;stroke-linecap:round;" x1="36" y1="-9.5" y2="-9.5"/>
  <line x2="36.5" style="fill:none;stroke:#FFFFFF;stroke-width:0.8;stroke-linecap:round;" x1="36.5" y1="-19.5" y2="-19.5"/>
  <line x2="30" style="fill:none;stroke:#FFFFFF;stroke-width:0.8;stroke-linecap:round;" x1="30" y1="-8.75" y2="-8.75"/>
  <line x2="31.5" style="fill:none;stroke:#FFFFFF;stroke-width:0.8;stroke-linecap:round;" x1="31.5" y1="-3.75" y2="-3.75"/>
  <line x2="37" style="fill:none;stroke:#FFFFFF;stroke-width:0.8;stroke-linecap:round;" x1="37" y1="-1.25" y2="-1.25"/>
  <line x2="58.75" style="fill:none;stroke:#FFFFFF;stroke-width:0.8;stroke-linecap:round;" x1="58.75" y1="-15.25" y2="-15.25"/>
  <line x2="63" style="fill:none;stroke:#FFFFFF;stroke-width:0.8;stroke-linecap:round;" x1="63" y1="-15.25" y2="-15.25"/>
  <line x2="60" style="fill:none;stroke:#FFFFFF;stroke-width:0.8;stroke-linecap:round;" x1="60" y1="-21.5" y2="-21.5"/>
  <line x2="54.5" style="fill:none;stroke:#FFFFFF;stroke-width:0.8;stroke-linecap:round;" x1="54.5" y1="-21.75" y2="-21.75"/>
  <line x2="59.25" style="fill:none;stroke:#FFFFFF;stroke-width:0.8;stroke-linecap:round;" x1="59.25" y1="-28" y2="-28"/>
  <line x2="54.75" style="fill:none;stroke:#FFFFFF;stroke-width:0.8;stroke-linecap:round;" x1="54.75" y1="-30.5" y2="-30.5"/>
  <line x2="55.75" style="fill:none;stroke:#FFFFFF;stroke-width:0.8;stroke-linecap:round;" x1="55.75" y1="-36.75" y2="-36.75"/>
  <line x2="62.5" style="fill:none;stroke:#FFFFFF;stroke-width:0.8;stroke-linecap:round;" x1="62.5" y1="-30" y2="-30"/>
  <line x2="66.999" style="fill:none;stroke:#FFFFFF;stroke-width:0.8;stroke-linecap:round;" x1="66.999" y1="-24.75" y2="-24.75"/>
  <line x2="69.499" style="fill:none;stroke:#FFFFFF;stroke-width:0.8;stroke-linecap:round;" x1="69.499" y1="-18" y2="-18"/>
  <line x2="63.5" style="fill:none;stroke:#FFFFFF;stroke-width:0.8;stroke-linecap:round;" x1="63.5" y1="-10.5" y2="-10.5"/>
  <line x2="69.249" style="fill:none;stroke:#FFFFFF;stroke-width:0.8;stroke-linecap:round;" x1="69.249" y1="-8.75" y2="-8.75"/>
  <line x2="64.749" style="fill:none;stroke:#FFFFFF;stroke-width:0.8;stroke-linecap:round;" x1="64.749" y1="-6.75" y2="-6.75"/>
  <line x2="65.749" style="fill:none;stroke:#FFFFFF;stroke-width:0.8;stroke-linecap:round;" x1="65.749" y1="-4" y2="-4"/>
  <line x2="69.249" style="fill:none;stroke:#FFFFFF;stroke-width:0.8;stroke-linecap:round;" x1="69.249" y1="-1.75" y2="-1.75"/>
  <line x2="62.5" style="fill:none;stroke:#FFFFFF;stroke-width:0.8;stroke-linecap:round;" x1="62.5" y1="-2" y2="-2"/>
  <line x2="60.75" style="fill:none;stroke:#FFFFFF;stroke-width:0.8;stroke-linecap:round;" x1="60.75" y1="-6.5" y2="-6.5"/>
  <line x2="52.75" style="fill:none;stroke:#FFFFFF;stroke-width:0.8;stroke-linecap:round;" x1="52.75" y1="-2.5" y2="-2.5"/>
  <line x2="44.75" style="fill:none;stroke:#FFFFFF;stroke-width:0.8;stroke-linecap:round;" x1="44.75" y1="-5.75" y2="-5.75"/>
  <line x2="44.5" style="fill:none;stroke:#FFFFFF;stroke-width:0.8;stroke-linecap:round;" x1="44.5" y1="-1" y2="-1"/>
  <line x2="28.5" style="fill:none;stroke:#FFFFFF;stroke-width:0.8;stroke-linecap:round;" x1="28.5" y1="-1" y2="-1"/>
  <line x2="0.75" style="fill:none;stroke:#FFFFFF;stroke-width:0.8;stroke-linecap:round;" x1="0.75" y1="-42.75" y2="-42.75"/>
  <line x2="24.5" style="fill:none;stroke:#FFFFFF;stroke-width:0.8;stroke-linecap:round;" x1="24.5" y1="-71.25" y2="-71.25"/>
  <line x2="13.25" style="fill:none;stroke:#FFFFFF;stroke-width:0.8;stroke-linecap:round;" x1="13.25" y1="-67.25" y2="-67.25"/>
  <line x2="70.999" style="fill:none;stroke:#FFFFFF;stroke-width:0.8;stroke-linecap:round;" x1="70.999" y1="-37" y2="-37"/>
 </g>
</svg>
