<?xml version="1.0" encoding="UTF-8" standalone="no"?>
<!-- Created with Inkscape (http://www.inkscape.org/) -->

<svg
   xmlns:dc="http://purl.org/dc/elements/1.1/"
   xmlns:cc="http://creativecommons.org/ns#"
   xmlns:rdf="http://www.w3.org/1999/02/22-rdf-syntax-ns#"
   xmlns:svg="http://www.w3.org/2000/svg"
   xmlns="http://www.w3.org/2000/svg"
   xmlns:sodipodi="http://sodipodi.sourceforge.net/DTD/sodipodi-0.dtd"
   xmlns:inkscape="http://www.inkscape.org/namespaces/inkscape"
   width="6.2638998mm"
   height="6.2638998mm"
   viewBox="0 0 6.2638998 6.2638998"
   version="1.1"
   id="svg596"
   inkscape:version="0.92.2 (5c3e80d, 2017-08-06)"
   sodipodi:docname="9.29.svg">
  <defs
     id="defs590" />
  <sodipodi:namedview
     id="base"
     pagecolor="#ffffff"
     bordercolor="#666666"
     borderopacity="1.0"
     inkscape:pageopacity="0.0"
     inkscape:pageshadow="2"
     inkscape:zoom="22.430532"
     inkscape:cx="12.735506"
     inkscape:cy="6.4255604"
     inkscape:document-units="mm"
     inkscape:current-layer="layer1"
     showgrid="false"
     inkscape:window-width="1920"
     inkscape:window-height="1018"
     inkscape:window-x="-8"
     inkscape:window-y="-8"
     inkscape:window-maximized="1" />
  <metadata
     id="metadata593">
    <rdf:RDF>
      <cc:Work
         rdf:about="">
        <dc:format>image/svg+xml</dc:format>
        <dc:type
           rdf:resource="http://purl.org/dc/dcmitype/StillImage" />
        <dc:title></dc:title>
      </cc:Work>
    </rdf:RDF>
  </metadata>
  <g
     inkscape:label="Layer 1"
     inkscape:groupmode="layer"
     id="layer1"
     transform="translate(-104.9884,-145.59129)">
    <g
       id="g626"
       transform="rotate(-90,106.92178,147.63477)">
      <path
         inkscape:connector-curvature="0"
         id="path3666"
         d="m 106.57089,148.35147 c 0.0923,0.15847 -0.19981,0.50574 -0.69728,0.79237 -0.49472,0.28663 -0.94258,0.3638 -1.03353,0.20809 -0.0923,-0.15848 0.19981,-0.50712 0.69729,-0.79375 0.49471,-0.28526 0.94257,-0.36518 1.03352,-0.20671 z"
         style="fill:#211e1e;fill-opacity:1;fill-rule:nonzero;stroke:#000000;stroke-width:0.2032;stroke-linecap:butt;stroke-linejoin:miter;stroke-miterlimit:4;stroke-opacity:1" />
      <path
         inkscape:connector-curvature="0"
         id="path3069"
         d="M 106.57089,148.35147"
         style="fill:#211e1e;fill-opacity:1;fill-rule:nonzero;stroke:#000000;stroke-width:0.2032;stroke-linecap:butt;stroke-linejoin:miter;stroke-miterlimit:4;stroke-opacity:1" />
      <path
         inkscape:connector-curvature="0"
         id="path3157"
         d="m 102.70136,148.84756 h 5.1015"
         style="fill:none;stroke:#000000;stroke-width:0.2032;stroke-linecap:butt;stroke-linejoin:miter;stroke-miterlimit:4;stroke-opacity:1" />
      <path
         inkscape:connector-curvature="0"
         id="path3522"
         d="m 107.80286,148.8517 -0.23564,-0.51401 1.14239,0.51401 -1.14239,0.47542 z"
         style="fill:#211e1e;fill-opacity:1;fill-rule:nonzero;stroke:#000000;stroke-width:0.2032;stroke-linecap:butt;stroke-linejoin:miter;stroke-miterlimit:4;stroke-opacity:1" />
      <path
         inkscape:connector-curvature="0"
         id="path3159"
         d="M 107.80286,148.8517"
         style="fill:#211e1e;fill-opacity:1;fill-rule:nonzero;stroke:#000000;stroke-width:0.2032;stroke-linecap:butt;stroke-linejoin:miter;stroke-miterlimit:4;stroke-opacity:1" />
      <path
         transform="scale(0.26458333)"
         inkscape:connector-curvature="0"
         id="path612"
         d="m 396.87628,564.3835 c -0.0245,-0.009 -0.0998,-0.029 -0.16718,-0.0438 -0.0974,-0.0215 -0.12252,-0.0521 -0.12218,-0.14879 6.2e-4,-0.18081 0.2313,-0.55027 0.56333,-0.90224 l 0.29411,-0.31177 h 1.56496 1.56497 l -0.32445,0.20191 c -0.78343,0.48754 -1.78632,0.92982 -2.46766,1.08824 -0.38209,0.0888 -0.82733,0.1461 -0.9059,0.11649 z"
         style="fill:#000000;stroke-width:0.04458209" />
      <path
         transform="scale(0.26458333)"
         inkscape:connector-curvature="0"
         id="path614"
         d="m 398.55703,562.15508 c 0,-0.0453 0.80204,-0.49817 1.30456,-0.73653 0.85339,-0.40478 1.60714,-0.62387 2.15177,-0.62544 0.3531,-10e-4 0.47636,0.0782 0.42115,0.27077 -0.0639,0.22275 -0.23915,0.48882 -0.53327,0.80957 l -0.27595,0.30093 h -1.53413 c -0.84377,0 -1.53413,-0.009 -1.53413,-0.0193 z"
         style="fill:#000000;stroke-width:0.04458209" />
      <path
         transform="scale(0.26458333)"
         inkscape:connector-curvature="0"
         id="path616"
         d="m 407.63008,563.10941 0.25265,-0.50377 -0.2536,-0.55305 c -0.13947,-0.30418 -0.24497,-0.56169 -0.23442,-0.57223 0.0235,-0.0235 2.44158,1.06187 2.44158,1.09587 0,0.0179 -1.8741,0.80974 -2.39971,1.01396 -0.0325,0.0126 0.0545,-0.20371 0.1935,-0.48078 z"
         style="fill:#000000;stroke-width:0.04458209" />
    </g>
  </g>
</svg>
