<?xml version="1.0" encoding="UTF-8" standalone="no"?>
<!-- Created with Inkscape (http://www.inkscape.org/) -->

<svg
   xmlns:dc="http://purl.org/dc/elements/1.1/"
   xmlns:cc="http://creativecommons.org/ns#"
   xmlns:rdf="http://www.w3.org/1999/02/22-rdf-syntax-ns#"
   xmlns:svg="http://www.w3.org/2000/svg"
   xmlns="http://www.w3.org/2000/svg"
   xmlns:sodipodi="http://sodipodi.sourceforge.net/DTD/sodipodi-0.dtd"
   xmlns:inkscape="http://www.inkscape.org/namespaces/inkscape"
   width="6.5153999mm"
   height="6.5153999mm"
   viewBox="0 0 6.5153998 6.5153999"
   version="1.1"
   id="svg735"
   inkscape:version="0.92.2 (5c3e80d, 2017-08-06)"
   sodipodi:docname="9.79.svg">
  <defs
     id="defs729" />
  <sodipodi:namedview
     id="base"
     pagecolor="#ffffff"
     bordercolor="#666666"
     borderopacity="1.0"
     inkscape:pageopacity="0.0"
     inkscape:pageshadow="2"
     inkscape:zoom="26.015302"
     inkscape:cx="6.2805177"
     inkscape:cy="8.8942455"
     inkscape:document-units="mm"
     inkscape:current-layer="layer1"
     showgrid="false"
     inkscape:window-width="1920"
     inkscape:window-height="1018"
     inkscape:window-x="-8"
     inkscape:window-y="-8"
     inkscape:window-maximized="1" />
  <metadata
     id="metadata732">
    <rdf:RDF>
      <cc:Work
         rdf:about="">
        <dc:format>image/svg+xml</dc:format>
        <dc:type
           rdf:resource="http://purl.org/dc/dcmitype/StillImage" />
        <dc:title></dc:title>
      </cc:Work>
    </rdf:RDF>
  </metadata>
  <g
     inkscape:label="Layer 1"
     inkscape:groupmode="layer"
     id="layer1"
     transform="translate(-105.1217,-145.59064)">
    <g
       id="g774"
       transform="rotate(-90,107.11385,147.56778)">
      <path
         inkscape:connector-curvature="0"
         id="path4736"
         d="m 105.32251,148.22548 v 1.24988"
         style="fill:none;stroke:#000000;stroke-width:0.2032;stroke-linecap:butt;stroke-linejoin:miter;stroke-miterlimit:4;stroke-opacity:1" />
      <path
         inkscape:connector-curvature="0"
         id="path5215"
         d="m 106.64681,148.2806 -1.13964,1.14377"
         style="fill:none;stroke:#211e1e;stroke-width:0.2032;stroke-linecap:butt;stroke-linejoin:miter;stroke-miterlimit:4;stroke-opacity:1" />
      <path
         inkscape:connector-curvature="0"
         id="path4780"
         d="m 103.75155,148.85111 h 4.17683"
         style="fill:none;stroke:#000000;stroke-width:0.2032;stroke-linecap:butt;stroke-linejoin:miter;stroke-miterlimit:4;stroke-opacity:1" />
      <path
         inkscape:connector-curvature="0"
         id="path5125"
         d="m 107.92838,148.85387 -0.23702,-0.51264 1.14377,0.51264 -1.14377,0.4768 z"
         style="fill:#211e1e;fill-opacity:1;fill-rule:nonzero;stroke:#000000;stroke-width:0.2032;stroke-linecap:butt;stroke-linejoin:miter;stroke-miterlimit:4;stroke-opacity:1" />
      <path
         inkscape:connector-curvature="0"
         id="path4782"
         d="M 107.92838,148.85387"
         style="fill:#211e1e;fill-opacity:1;fill-rule:nonzero;stroke:#000000;stroke-width:0.2032;stroke-linecap:butt;stroke-linejoin:miter;stroke-miterlimit:4;stroke-opacity:1" />
      <path
         inkscape:connector-curvature="0"
         id="path5121"
         d="m 103.73501,148.85387 0.23702,-0.51264 -1.14101,0.51264 1.14101,0.4768 z"
         style="fill:#211e1e;fill-opacity:1;fill-rule:nonzero;stroke:#000000;stroke-width:0.2032;stroke-linecap:butt;stroke-linejoin:miter;stroke-miterlimit:4;stroke-opacity:1" />
      <path
         inkscape:connector-curvature="0"
         id="path4784"
         d="M 103.73501,148.85387"
         style="fill:#211e1e;fill-opacity:1;fill-rule:nonzero;stroke:#000000;stroke-width:0.2032;stroke-linecap:butt;stroke-linejoin:miter;stroke-miterlimit:4;stroke-opacity:1" />
      <path
         transform="scale(0.26458333)"
         inkscape:connector-curvature="0"
         id="path755"
         d="m 390.90971,563.11743 c -0.6597,-0.2774 -1.20914,-0.51406 -1.22099,-0.52591 -0.0118,-0.0118 0.52571,-0.26709 1.19458,-0.56721 0.66886,-0.30012 1.22527,-0.53651 1.23647,-0.52531 0.0112,0.0112 -0.0936,0.26527 -0.23285,0.5646 l -0.25322,0.54425 0.24967,0.49822 c 0.13731,0.27403 0.24429,0.50217 0.23772,0.50698 -0.007,0.005 -0.55168,-0.21822 -1.21138,-0.49562 z"
         style="fill:#000000;fill-opacity:1;stroke-width:0.03843892" />
      <path
         transform="scale(0.26458333)"
         inkscape:connector-curvature="0"
         id="path757"
         d="m 398.78551,564.72958 -0.24812,-0.25035 0.75027,-0.75027 0.75027,-0.75027 0.48307,0.0108 0.48308,0.0108 -0.9678,0.9898 c -0.53229,0.54439 -0.97564,0.9898 -0.98522,0.9898 -0.01,0 -0.12908,-0.11266 -0.26555,-0.25035 z"
         style="fill:#000000;fill-opacity:1;stroke-width:0.03843892" />
      <path
         transform="scale(0.26458333)"
         inkscape:connector-curvature="0"
         id="path759"
         d="m 401.78597,561.19341 1.0144,-1.01891 0.26105,0.25905 0.26106,0.25905 -0.75915,0.75987 -0.75915,0.75986 h -0.51631 -0.5163 z"
         style="fill:#000000;fill-opacity:1;stroke-width:0.03843892" />
      <path
         transform="scale(0.26458333)"
         inkscape:connector-curvature="0"
         id="path761"
         d="m 407.85759,563.61242 c 0,-0.01 0.1118,-0.24051 0.24845,-0.51321 l 0.24846,-0.49582 -0.25306,-0.54329 c -0.13918,-0.29881 -0.24357,-0.55277 -0.23198,-0.56435 0.0156,-0.0156 2.41562,1.03216 2.47816,1.08186 0.006,0.005 -0.36599,0.16543 -0.82643,0.35719 -0.46044,0.19176 -1.02312,0.42658 -1.25039,0.52183 -0.22727,0.0952 -0.41321,0.16535 -0.41321,0.15579 z"
         style="fill:#000000;fill-opacity:1;stroke-width:0.03843892" />
    </g>
  </g>
</svg>
