<?xml version="1.0" encoding="UTF-8" standalone="no"?>
<!-- Created with Inkscape (http://www.inkscape.org/) -->

<svg
   xmlns:dc="http://purl.org/dc/elements/1.1/"
   xmlns:cc="http://creativecommons.org/ns#"
   xmlns:rdf="http://www.w3.org/1999/02/22-rdf-syntax-ns#"
   xmlns:svg="http://www.w3.org/2000/svg"
   xmlns="http://www.w3.org/2000/svg"
   xmlns:sodipodi="http://sodipodi.sourceforge.net/DTD/sodipodi-0.dtd"
   xmlns:inkscape="http://www.inkscape.org/namespaces/inkscape"
   width="5.2041001mm"
   height="5.2041001mm"
   viewBox="0 0 5.2041001 5.2041001"
   version="1.1"
   id="svg3872"
   inkscape:version="0.92.2 (5c3e80d, 2017-08-06)"
   sodipodi:docname="8.3.53.svg">
  <defs
     id="defs3866" />
  <sodipodi:namedview
     id="base"
     pagecolor="#ffffff"
     bordercolor="#666666"
     borderopacity="1.0"
     inkscape:pageopacity="0.0"
     inkscape:pageshadow="2"
     inkscape:zoom="19.090917"
     inkscape:cx="8.3816789"
     inkscape:cy="8.8785251"
     inkscape:document-units="mm"
     inkscape:current-layer="layer1"
     showgrid="false"
     inkscape:window-width="1920"
     inkscape:window-height="1018"
     inkscape:window-x="-8"
     inkscape:window-y="-8"
     inkscape:window-maximized="1" />
  <metadata
     id="metadata3869">
    <rdf:RDF>
      <cc:Work
         rdf:about="">
        <dc:format>image/svg+xml</dc:format>
        <dc:type
           rdf:resource="http://purl.org/dc/dcmitype/StillImage" />
        <dc:title></dc:title>
      </cc:Work>
    </rdf:RDF>
  </metadata>
  <g
     inkscape:label="Layer 1"
     inkscape:groupmode="layer"
     id="layer1"
     transform="translate(-105.08643,-146.34346)">
    <g
       id="g3896"
       transform="rotate(90,106.70482,149.817)">
      <path
         inkscape:connector-curvature="0"
         id="path2312"
         d="m 103.32599,149.19768 c 0.0992,-0.12127 0.28526,-0.20257 0.49885,-0.20257 0.21222,0 0.40239,0.0854 0.50161,0.20671 0.10197,0.113 0.29628,0.19292 0.5016,0.19292 0.21222,0 0.39412,-0.0786 0.49472,-0.19981 0.0992,-0.12127 0.30041,-0.19982 0.51401,-0.19982 0.21222,0 0.41065,0.0854 0.50987,0.20671 0.10198,0.113 0.29352,0.19292 0.49885,0.19292 0.21222,0 0.39274,-0.0786 0.49196,-0.19981 0.0992,-0.12127 0.27837,-0.19982 0.49196,-0.19982 0.21222,0 0.4079,0.0813 0.50712,0.20257"
         style="fill:none;stroke:#000000;stroke-width:0.20319998;stroke-linecap:butt;stroke-linejoin:miter;stroke-miterlimit:4;stroke-opacity:1" />
      <path
         inkscape:connector-curvature="0"
         id="path2302"
         d="m 105.31313,149.19493 0.51814,-0.99633 0.51814,0.99633"
         style="fill:none;stroke:#000000;stroke-width:0.20319998;stroke-linecap:butt;stroke-linejoin:miter;stroke-miterlimit:4;stroke-opacity:1" />
      <path
         inkscape:connector-curvature="0"
         id="path2058"
         d="m 103.32599,149.19775 c 0.0992,-0.12127 0.28526,-0.20257 0.49885,-0.20257 0.21222,0 0.40239,0.0854 0.50161,0.2067 0.10197,0.11301 0.29628,0.19293 0.50161,0.19293 0.21221,0 0.39411,-0.0786 0.49471,-0.19982 0.0992,-0.12126 0.30041,-0.19981 0.51401,-0.19981 0.21222,0 0.41065,0.0854 0.50987,0.2067 0.10198,0.11301 0.29353,0.19293 0.49885,0.19293 0.21222,0 0.39274,-0.0786 0.49196,-0.19982 0.0992,-0.12126 0.27837,-0.19981 0.49196,-0.19981 0.21222,0 0.4079,0.0813 0.50712,0.20257"
         style="fill:none;stroke:#000000;stroke-width:0.20319998;stroke-linecap:butt;stroke-linejoin:miter;stroke-miterlimit:4;stroke-opacity:1" />
      <path
         inkscape:connector-curvature="0"
         id="path2060"
         d="m 105.31312,149.19493 0.51815,-0.99633 0.51814,0.99633"
         style="fill:#000000;fill-opacity:1;fill-rule:nonzero;stroke:#000000;stroke-width:0.20319998;stroke-linecap:butt;stroke-linejoin:miter;stroke-miterlimit:4;stroke-opacity:1" />
      <path
         inkscape:connector-curvature="0"
         id="path2360"
         d="m 108.33378,149.68827 v -1.00046"
         style="fill:none;stroke:#000000;stroke-width:0.20319998;stroke-linecap:butt;stroke-linejoin:miter;stroke-miterlimit:4;stroke-opacity:1" />
      <path
         inkscape:connector-curvature="0"
         id="path2358"
         d="m 103.33288,149.68827 v -1.00046"
         style="fill:none;stroke:#000000;stroke-width:0.20319998;stroke-linecap:butt;stroke-linejoin:miter;stroke-miterlimit:4;stroke-opacity:1" />
    </g>
  </g>
</svg>
