<?xml version="1.0"?>
<!-- Converted with SVG Converter - Version 0.9.5 (Compiled Fri Feb 21 09:53:38 2020) - Copyright (C) 2011 Nokia -->
<svg xmlns="http://www.w3.org/2000/svg" width="85.875" viewBox="0 -85.875 85.875 85.875" xmlns:xlink="http://www.w3.org/1999/xlink" height="85.875" y="0px" x="0px" baseProfile="tiny" xml:space="preserve" version="1.1">
 <g>
  <rect width="85.875" height="85.875" y="-85.875" x="0" style="fill:none;"/>
  <line x2="11.625" x1="9.375" style="fill:none;stroke:#000000;stroke-width:0.3;" y1="-77.909" y2="-75.284"/>
  <line x2="12.875" x1="9.5" style="fill:none;stroke:#000000;stroke-width:0.3;" y1="-81.659" y2="-81.534"/>
  <line x2="23.063" x1="20.375" style="fill:none;stroke:#000000;stroke-width:0.3;" y1="-78.471" y2="-76.426"/>
  <line x2="14.75" x1="16.875" style="fill:none;stroke:#000000;stroke-width:0.3;" y1="-79.534" y2="-76.784"/>
  <line x2="15.75" x1="18.5" style="fill:none;stroke:#000000;stroke-width:0.3;" y1="-82.284" y2="-84.034"/>
  <line x2="21.5" x1="23.75" style="fill:none;stroke:#000000;stroke-width:0.3;" y1="-85.034" y2="-83.534"/>
  <line x2="25.5" x1="25.375" style="fill:none;stroke:#000000;stroke-width:0.3;" y1="-81.659" y2="-78.534"/>
  <line x2="31.25" x1="28.75" style="fill:none;stroke:#000000;stroke-width:0.3;" y1="-84.226" y2="-82.976"/>
  <line x2="37.125" x1="35.125" style="fill:none;stroke:#000000;stroke-width:0.3;" y1="-82.592" y2="-84.967"/>
  <line x2="42.625" x1="39.875" style="fill:none;stroke:#000000;stroke-width:0.3;" y1="-81.659" y2="-79.409"/>
  <line x2="36.375" x1="35.75" style="fill:none;stroke:#000000;stroke-width:0.3;" y1="-78.034" y2="-75.034"/>
  <line x2="29" x1="31.5" style="fill:none;stroke:#000000;stroke-width:0.3;" y1="-78.034" y2="-75.409"/>
  <line x2="40.375" x1="42.5" style="fill:none;stroke:#000000;stroke-width:0.3;" y1="-75.034" y2="-72.409"/>
  <line x2="42.375" x1="39" style="fill:none;stroke:#000000;stroke-width:0.3;" y1="-68.659" y2="-67.534"/>
  <line x2="31.398" x1="34.701" style="fill:none;stroke:#000000;stroke-width:0.3;" y1="-70.318" y2="-72.791"/>
  <line x2="28.375" x1="31.25" style="fill:none;stroke:#000000;stroke-width:0.3;" y1="-67.909" y2="-66.534"/>
  <line x2="34.25" x1="35.25" style="fill:none;stroke:#000000;stroke-width:0.3;" y1="-66.784" y2="-63.409"/>
  <line x2="41.75" x1="40" style="fill:none;stroke:#000000;stroke-width:0.3;" y1="-63.659" y2="-60.909"/>
  <line x2="39.25" x1="42" style="fill:none;stroke:#000000;stroke-width:0.3;" y1="-56.284" y2="-54.659"/>
  <line x2="34" x1="37.5" style="fill:none;stroke:#000000;stroke-width:0.3;" y1="-59.034" y2="-59.534"/>
  <line x2="42.5" x1="38.875" style="fill:none;stroke:#000000;stroke-width:0.3;" y1="-50.034" y2="-49.784"/>
  <line x2="38.65" x1="37.4" style="fill:none;stroke:#000000;stroke-width:0.3;" y1="-48.043" y2="-45.043"/>
  <line x2="3.875" x1="6.25" style="fill:none;stroke:#000000;stroke-width:0.3;" y1="-81.275" y2="-78.775"/>
  <line x2="7.75" x1="3.75" style="fill:none;stroke:#000000;stroke-width:0.3;" y1="-76.034" y2="-74.909"/>
  <line x2="3.875" x1="2.75" style="fill:none;stroke:#000000;stroke-width:0.3;" y1="-72.284" y2="-68.659"/>
  <path d="M4.5-65.659" style="fill:none;stroke:#000000;stroke-width:0.3;"/>
  <line x2="1.5" x1="4.5" style="fill:none;stroke:#000000;stroke-width:0.3;" y1="-65.659" y2="-63.284"/>
  <line x2="4.134" x1="4.509" style="fill:none;stroke:#000000;stroke-width:0.3;" y1="-60" y2="-56.375"/>
  <line x2="4.625" x1="1.75" style="fill:none;stroke:#000000;stroke-width:0.3;" y1="-53.159" y2="-51.159"/>
  <line x2="0.5" x1="2.125" style="fill:none;stroke:#000000;stroke-width:0.3;" y1="-47.409" y2="-44.409"/>
  <line x2="3.625" x1="0.375" style="fill:none;stroke:#000000;stroke-width:0.3;" y1="-84.784" y2="-84.034"/>
  <line x2="7.375" x1="8.5" style="fill:none;stroke:#000000;stroke-width:0.3;" y1="-43.784" y2="-47.284"/>
  <line x2="15.208" x1="12.083" style="fill:none;stroke:#000000;stroke-width:0.3;" y1="-43.367" y2="-45.492"/>
  <line x2="12" x1="8.625" style="fill:none;stroke:#000000;stroke-width:0.3;" y1="-51.034" y2="-51.659"/>
  <line x2="10.375" x1="6.75" style="fill:none;stroke:#000000;stroke-width:0.3;" y1="-62.159" y2="-62.034"/>
  <line x2="6.75" x1="10.875" style="fill:none;stroke:#000000;stroke-width:0.3;" y1="-71.534" y2="-71.284"/>
  <line x2="9.375" x1="11.375" style="fill:none;stroke:#000000;stroke-width:0.3;" y1="-68.409" y2="-65.409"/>
  <line x2="16.875" x1="14.375" style="fill:none;stroke:#000000;stroke-width:0.3;" y1="-64.784" y2="-62.784"/>
  <line x2="15.5" x1="14.375" style="fill:none;stroke:#000000;stroke-width:0.3;" y1="-72.409" y2="-68.659"/>
  <line x2="29.863" x1="26.099" style="fill:none;stroke:#000000;stroke-width:0.3;" y1="-50.909" y2="-49.833"/>
  <line x2="21.75" x1="18.456" style="fill:none;stroke:#000000;stroke-width:0.3;" y1="-74.121" y2="-72.784"/>
  <line x2="27.208" x1="25.625" style="fill:none;stroke:#000000;stroke-width:0.3;" y1="-72.784" y2="-69.513"/>
  <line x2="18.875" x1="21.5" style="fill:none;stroke:#000000;stroke-width:0.3;" y1="-68.784" y2="-66.034"/>
  <line x2="25.375" x1="22" style="fill:none;stroke:#000000;stroke-width:0.3;" y1="-63.784" y2="-64.284"/>
  <line x2="31.375" x1="28.125" style="fill:none;stroke:#000000;stroke-width:0.3;" y1="-62.909" y2="-60.909"/>
  <line x2="27.875" x1="30" style="fill:none;stroke:#000000;stroke-width:0.3;" y1="-57.409" y2="-54.534"/>
  <line x2="33.5" x1="35" style="fill:none;stroke:#000000;stroke-width:0.3;" y1="-51.159" y2="-54.409"/>
  <line x2="34.317" x1="31.567" style="fill:none;stroke:#000000;stroke-width:0.3;" y1="-44.117" y2="-47.242"/>
  <line x2="24.625" x1="26.375" style="fill:none;stroke:#000000;stroke-width:0.3;" y1="-44.909" y2="-47.909"/>
  <line x2="21.333" x1="20.208" style="fill:none;stroke:#000000;stroke-width:0.3;" y1="-45.025" y2="-48.15"/>
  <line x2="23.25" x1="20" style="fill:none;stroke:#000000;stroke-width:0.3;" y1="-54.242" y2="-52.867"/>
  <line x2="25.168" x1="23.868" style="fill:none;stroke:#000000;stroke-width:0.3;" y1="-56.068" y2="-59.585"/>
  <line x2="16.75" x1="19.875" style="fill:none;stroke:#000000;stroke-width:0.3;" y1="-60.784" y2="-58.659"/>
  <line x2="17.542" x1="15.167" style="fill:none;stroke:#000000;stroke-width:0.3;" y1="-53.617" y2="-50.492"/>
  <line x2="54.663" x1="52.413" style="fill:none;stroke:#000000;stroke-width:0.3;" y1="-77.909" y2="-75.284"/>
  <line x2="55.913" x1="52.538" style="fill:none;stroke:#000000;stroke-width:0.3;" y1="-81.659" y2="-81.534"/>
  <line x2="66.101" x1="63.413" style="fill:none;stroke:#000000;stroke-width:0.3;" y1="-78.471" y2="-76.426"/>
  <line x2="57.788" x1="59.913" style="fill:none;stroke:#000000;stroke-width:0.3;" y1="-79.534" y2="-76.784"/>
  <line x2="58.788" x1="61.538" style="fill:none;stroke:#000000;stroke-width:0.3;" y1="-82.284" y2="-84.034"/>
  <line x2="64.538" x1="66.788" style="fill:none;stroke:#000000;stroke-width:0.3;" y1="-85.034" y2="-83.534"/>
  <line x2="68.538" x1="68.413" style="fill:none;stroke:#000000;stroke-width:0.3;" y1="-81.659" y2="-78.534"/>
  <line x2="74.288" x1="71.788" style="fill:none;stroke:#000000;stroke-width:0.3;" y1="-84.226" y2="-82.976"/>
  <line x2="80.163" x1="78.163" style="fill:none;stroke:#000000;stroke-width:0.3;" y1="-82.592" y2="-84.967"/>
  <line x2="85.663" x1="82.913" style="fill:none;stroke:#000000;stroke-width:0.3;" y1="-81.659" y2="-79.409"/>
  <line x2="79.413" x1="78.788" style="fill:none;stroke:#000000;stroke-width:0.3;" y1="-78.034" y2="-75.034"/>
  <line x2="72.038" x1="74.538" style="fill:none;stroke:#000000;stroke-width:0.3;" y1="-78.034" y2="-75.409"/>
  <line x2="83.413" x1="85.538" style="fill:none;stroke:#000000;stroke-width:0.3;" y1="-75.034" y2="-72.409"/>
  <line x2="85.413" x1="82.038" style="fill:none;stroke:#000000;stroke-width:0.3;" y1="-68.659" y2="-67.534"/>
  <line x2="74.038" x1="78.163" style="fill:none;stroke:#000000;stroke-width:0.3;" y1="-71.409" y2="-71.534"/>
  <line x2="71.413" x1="74.288" style="fill:none;stroke:#000000;stroke-width:0.3;" y1="-67.909" y2="-66.534"/>
  <line x2="77.288" x1="78.288" style="fill:none;stroke:#000000;stroke-width:0.3;" y1="-66.784" y2="-63.409"/>
  <line x2="84.788" x1="83.038" style="fill:none;stroke:#000000;stroke-width:0.3;" y1="-63.659" y2="-60.909"/>
  <line x2="82.288" x1="85.038" style="fill:none;stroke:#000000;stroke-width:0.3;" y1="-56.284" y2="-54.659"/>
  <line x2="77.038" x1="80.538" style="fill:none;stroke:#000000;stroke-width:0.3;" y1="-59.034" y2="-59.534"/>
  <line x2="85.538" x1="81.913" style="fill:none;stroke:#000000;stroke-width:0.3;" y1="-50.034" y2="-49.784"/>
  <line x2="81.687" x1="80.437" style="fill:none;stroke:#000000;stroke-width:0.3;" y1="-48.043" y2="-45.043"/>
  <line x2="46.913" x1="49.288" style="fill:none;stroke:#000000;stroke-width:0.3;" y1="-82.409" y2="-79.909"/>
  <line x2="50.788" x1="46.788" style="fill:none;stroke:#000000;stroke-width:0.3;" y1="-76.034" y2="-74.909"/>
  <line x2="46.913" x1="45.788" style="fill:none;stroke:#000000;stroke-width:0.3;" y1="-72.284" y2="-68.659"/>
  <path d="M47.538-65.659" style="fill:none;stroke:#000000;stroke-width:0.3;"/>
  <line x2="44.538" x1="47.538" style="fill:none;stroke:#000000;stroke-width:0.3;" y1="-65.659" y2="-63.284"/>
  <line x2="48.669" x1="46.98" style="fill:none;stroke:#000000;stroke-width:0.3;" y1="-58.583" y2="-55.354"/>
  <line x2="47.663" x1="44.788" style="fill:none;stroke:#000000;stroke-width:0.3;" y1="-53.159" y2="-51.159"/>
  <line x2="45.238" x1="46.863" style="fill:none;stroke:#000000;stroke-width:0.3;" y1="-47.409" y2="-44.409"/>
  <line x2="46.663" x1="43.413" style="fill:none;stroke:#000000;stroke-width:0.3;" y1="-84.784" y2="-84.034"/>
  <line x2="51.263" x1="52.388" style="fill:none;stroke:#000000;stroke-width:0.3;" y1="-42.367" y2="-45.867"/>
  <line x2="59.413" x1="56.288" style="fill:none;stroke:#000000;stroke-width:0.3;" y1="-45.659" y2="-47.784"/>
  <line x2="55.038" x1="51.663" style="fill:none;stroke:#000000;stroke-width:0.3;" y1="-51.034" y2="-51.659"/>
  <line x2="53.529" x1="54.529" style="fill:none;stroke:#000000;stroke-width:0.3;" y1="-58.284" y2="-54.659"/>
  <line x2="53.295" x1="49.953" style="fill:none;stroke:#000000;stroke-width:0.3;" y1="-61.285" y2="-62.694"/>
  <line x2="49.788" x1="53.913" style="fill:none;stroke:#000000;stroke-width:0.3;" y1="-71.534" y2="-71.284"/>
  <line x2="52.413" x1="54.413" style="fill:none;stroke:#000000;stroke-width:0.3;" y1="-68.409" y2="-65.409"/>
  <line x2="59.913" x1="57.413" style="fill:none;stroke:#000000;stroke-width:0.3;" y1="-64.784" y2="-62.784"/>
  <line x2="58.538" x1="57.413" style="fill:none;stroke:#000000;stroke-width:0.3;" y1="-72.409" y2="-68.659"/>
  <line x2="64.776" x1="61.333" style="fill:none;stroke:#000000;stroke-width:0.3;" y1="-72.619" y2="-73.505"/>
  <line x2="67.519" x1="69.362" style="fill:none;stroke:#000000;stroke-width:0.3;" y1="-72.542" y2="-69.411"/>
  <line x2="61.913" x1="64.538" style="fill:none;stroke:#000000;stroke-width:0.3;" y1="-68.784" y2="-66.034"/>
  <line x2="68.413" x1="65.038" style="fill:none;stroke:#000000;stroke-width:0.3;" y1="-63.784" y2="-64.284"/>
  <line x2="74.413" x1="71.163" style="fill:none;stroke:#000000;stroke-width:0.3;" y1="-62.909" y2="-60.909"/>
  <line x2="72.1" x1="74.225" style="fill:none;stroke:#000000;stroke-width:0.3;" y1="-57.138" y2="-54.263"/>
  <line x2="76.538" x1="78.038" style="fill:none;stroke:#000000;stroke-width:0.3;" y1="-51.159" y2="-54.409"/>
  <line x2="77.638" x1="74.888" style="fill:none;stroke:#000000;stroke-width:0.3;" y1="-44.4" y2="-47.525"/>
  <line x2="69.413" x1="73.413" style="fill:none;stroke:#000000;stroke-width:0.3;" y1="-50.534" y2="-50.534"/>
  <line x2="67.663" x1="69.413" style="fill:none;stroke:#000000;stroke-width:0.3;" y1="-44.909" y2="-47.909"/>
  <line x2="64.5" x1="63.375" style="fill:none;stroke:#000000;stroke-width:0.3;" y1="-44.659" y2="-47.784"/>
  <line x2="67.625" x1="64.375" style="fill:none;stroke:#000000;stroke-width:0.3;" y1="-53.659" y2="-52.284"/>
  <line x2="12.184" x1="8.934" style="fill:none;stroke:#000000;stroke-width:0.3;" y1="-57.992" y2="-56.617"/>
  <line x2="66.787" x1="68.487" style="fill:none;stroke:#000000;stroke-width:0.3;" y1="-56.208" y2="-59.551"/>
  <line x2="59.788" x1="62.913" style="fill:none;stroke:#000000;stroke-width:0.3;" y1="-60.784" y2="-58.659"/>
  <line x2="60.413" x1="58.038" style="fill:none;stroke:#000000;stroke-width:0.3;" y1="-54.784" y2="-51.659"/>
  <line x2="11.658" x1="9.408" style="fill:none;stroke:#000000;stroke-width:0.3;" y1="-34.904" y2="-32.279"/>
  <line x2="12.908" x1="9.533" style="fill:none;stroke:#000000;stroke-width:0.3;" y1="-38.654" y2="-38.529"/>
  <line x2="23.096" x1="20.408" style="fill:none;stroke:#000000;stroke-width:0.3;" y1="-35.467" y2="-33.422"/>
  <line x2="14.783" x1="16.908" style="fill:none;stroke:#000000;stroke-width:0.3;" y1="-36.529" y2="-33.779"/>
  <line x2="15.783" x1="18.533" style="fill:none;stroke:#000000;stroke-width:0.3;" y1="-40.13" y2="-41.88"/>
  <line x2="21.533" x1="23.783" style="fill:none;stroke:#000000;stroke-width:0.3;" y1="-42.029" y2="-40.529"/>
  <line x2="24.905" x1="26.542" style="fill:none;stroke:#000000;stroke-width:0.3;" y1="-38.654" y2="-35.99"/>
  <line x2="31.283" x1="28.783" style="fill:none;stroke:#000000;stroke-width:0.3;" y1="-41.221" y2="-39.971"/>
  <line x2="37.158" x1="35.158" style="fill:none;stroke:#000000;stroke-width:0.3;" y1="-39.587" y2="-41.962"/>
  <line x2="42.658" x1="39.908" style="fill:none;stroke:#000000;stroke-width:0.3;" y1="-38.654" y2="-36.404"/>
  <line x2="36.408" x1="35.783" style="fill:none;stroke:#000000;stroke-width:0.3;" y1="-35.029" y2="-32.029"/>
  <line x2="29.033" x1="31.533" style="fill:none;stroke:#000000;stroke-width:0.3;" y1="-35.029" y2="-32.404"/>
  <line x2="40.408" x1="42.533" style="fill:none;stroke:#000000;stroke-width:0.3;" y1="-32.029" y2="-29.404"/>
  <line x2="42.408" x1="39.033" style="fill:none;stroke:#000000;stroke-width:0.3;" y1="-25.654" y2="-24.529"/>
  <line x2="31.123" x1="35.08" style="fill:none;stroke:#000000;stroke-width:0.3;" y1="-29.024" y2="-27.853"/>
  <line x2="28.408" x1="31.283" style="fill:none;stroke:#000000;stroke-width:0.3;" y1="-24.904" y2="-23.529"/>
  <line x2="34.283" x1="35.283" style="fill:none;stroke:#000000;stroke-width:0.3;" y1="-23.779" y2="-20.404"/>
  <line x2="41.783" x1="40.033" style="fill:none;stroke:#000000;stroke-width:0.3;" y1="-20.654" y2="-17.904"/>
  <line x2="39.283" x1="42.033" style="fill:none;stroke:#000000;stroke-width:0.3;" y1="-13.279" y2="-11.654"/>
  <line x2="34.033" x1="37.533" style="fill:none;stroke:#000000;stroke-width:0.3;" y1="-16.029" y2="-16.529"/>
  <line x2="42.533" x1="38.908" style="fill:none;stroke:#000000;stroke-width:0.3;" y1="-7.029" y2="-6.779"/>
  <line x2="39.537" x1="38.287" style="fill:none;stroke:#000000;stroke-width:0.3;" y1="-3.517" y2="-0.517"/>
  <line x2="3.908" x1="6.283" style="fill:none;stroke:#000000;stroke-width:0.3;" y1="-39.404" y2="-36.904"/>
  <line x2="7.783" x1="3.783" style="fill:none;stroke:#000000;stroke-width:0.3;" y1="-33.029" y2="-31.904"/>
  <line x2="3.908" x1="2.783" style="fill:none;stroke:#000000;stroke-width:0.3;" y1="-29.279" y2="-25.654"/>
  <path d="M4.533-22.654" style="fill:none;stroke:#000000;stroke-width:0.3;"/>
  <line x2="1.533" x1="4.533" style="fill:none;stroke:#000000;stroke-width:0.3;" y1="-22.654" y2="-20.279"/>
  <line x2="4.167" x1="4.542" style="fill:none;stroke:#000000;stroke-width:0.3;" y1="-16.996" y2="-13.371"/>
  <line x2="4.658" x1="1.783" style="fill:none;stroke:#000000;stroke-width:0.3;" y1="-10.154" y2="-8.154"/>
  <line x2="0.533" x1="2.158" style="fill:none;stroke:#000000;stroke-width:0.3;" y1="-4.404" y2="-1.404"/>
  <line x2="3.658" x1="0.408" style="fill:none;stroke:#000000;stroke-width:0.3;" y1="-41.779" y2="-41.029"/>
  <line x2="7.492" x1="8.617" style="fill:none;stroke:#000000;stroke-width:0.3;" y1="-0.175" y2="-3.675"/>
  <line x2="16.763" x1="13.637" style="fill:none;stroke:#000000;stroke-width:0.3;" y1="-1.967" y2="-4.092"/>
  <line x2="12.033" x1="8.658" style="fill:none;stroke:#000000;stroke-width:0.3;" y1="-8.029" y2="-8.654"/>
  <line x2="10.001" x1="12.658" style="fill:none;stroke:#000000;stroke-width:0.3;" y1="-15.279" y2="-12.619"/>
  <line x2="10.408" x1="6.783" style="fill:none;stroke:#000000;stroke-width:0.3;" y1="-18.021" y2="-17.896"/>
  <line x2="6.783" x1="10.908" style="fill:none;stroke:#000000;stroke-width:0.3;" y1="-28.529" y2="-28.279"/>
  <line x2="9.408" x1="11.408" style="fill:none;stroke:#000000;stroke-width:0.3;" y1="-25.404" y2="-22.404"/>
  <line x2="16.908" x1="14.408" style="fill:none;stroke:#000000;stroke-width:0.3;" y1="-21.779" y2="-19.779"/>
  <line x2="15.533" x1="14.408" style="fill:none;stroke:#000000;stroke-width:0.3;" y1="-29.404" y2="-25.654"/>
  <line x2="21.422" x1="18.283" style="fill:none;stroke:#000000;stroke-width:0.3;" y1="-30.404" y2="-28.733"/>
  <line x2="24.504" x1="26.367" style="fill:none;stroke:#000000;stroke-width:0.3;" y1="-29.544" y2="-26.424"/>
  <line x2="18.908" x1="19.846" style="fill:none;stroke:#000000;stroke-width:0.3;" y1="-26.713" y2="-23.029"/>
  <line x2="25.408" x1="22.033" style="fill:none;stroke:#000000;stroke-width:0.3;" y1="-20.779" y2="-21.279"/>
  <line x2="31.408" x1="28.158" style="fill:none;stroke:#000000;stroke-width:0.3;" y1="-19.904" y2="-17.904"/>
  <line x2="27.908" x1="30.033" style="fill:none;stroke:#000000;stroke-width:0.3;" y1="-13.554" y2="-10.679"/>
  <line x2="33.533" x1="35.033" style="fill:none;stroke:#000000;stroke-width:0.3;" y1="-8.154" y2="-11.404"/>
  <line x2="34.304" x1="31.554" style="fill:none;stroke:#000000;stroke-width:0.3;" y1="-1.342" y2="-4.467"/>
  <line x2="26.408" x1="30.408" style="fill:none;stroke:#000000;stroke-width:0.3;" y1="-6.679" y2="-6.679"/>
  <line x2="24.763" x1="26.513" style="fill:none;stroke:#000000;stroke-width:0.3;" y1="-0.967" y2="-3.967"/>
  <line x2="20.9" x1="19.775" style="fill:none;stroke:#000000;stroke-width:0.3;" y1="-2.296" y2="-5.421"/>
  <line x2="23.638" x1="20.388" style="fill:none;stroke:#000000;stroke-width:0.3;" y1="-11.425" y2="-10.05"/>
  <line x2="25.299" x1="24.029" style="fill:none;stroke:#000000;stroke-width:0.3;" y1="-13.608" y2="-17.137"/>
  <line x2="16.783" x1="19.908" style="fill:none;stroke:#000000;stroke-width:0.3;" y1="-17.779" y2="-15.654"/>
  <line x2="17.408" x1="15.033" style="fill:none;stroke:#000000;stroke-width:0.3;" y1="-11.779" y2="-8.654"/>
  <line x2="54.717" x1="52.467" style="fill:none;stroke:#000000;stroke-width:0.3;" y1="-34.938" y2="-32.313"/>
  <line x2="55.967" x1="52.592" style="fill:none;stroke:#000000;stroke-width:0.3;" y1="-38.688" y2="-38.563"/>
  <line x2="66.155" x1="63.467" style="fill:none;stroke:#000000;stroke-width:0.3;" y1="-35.5" y2="-33.455"/>
  <line x2="57.842" x1="59.967" style="fill:none;stroke:#000000;stroke-width:0.3;" y1="-36.563" y2="-33.813"/>
  <line x2="58.842" x1="61.592" style="fill:none;stroke:#000000;stroke-width:0.3;" y1="-40.447" y2="-42.197"/>
  <line x2="64.592" x1="66.842" style="fill:none;stroke:#000000;stroke-width:0.3;" y1="-42.063" y2="-40.563"/>
  <line x2="68.592" x1="70.103" style="fill:none;stroke:#000000;stroke-width:0.3;" y1="-38.301" y2="-35.563"/>
  <line x2="74.342" x1="71.842" style="fill:none;stroke:#000000;stroke-width:0.3;" y1="-41.255" y2="-40.005"/>
  <line x2="80.217" x1="78.217" style="fill:none;stroke:#000000;stroke-width:0.3;" y1="-39.621" y2="-41.996"/>
  <line x2="85.717" x1="82.967" style="fill:none;stroke:#000000;stroke-width:0.3;" y1="-38.688" y2="-36.438"/>
  <line x2="79.467" x1="78.842" style="fill:none;stroke:#000000;stroke-width:0.3;" y1="-35.063" y2="-32.063"/>
  <line x2="72.092" x1="74.592" style="fill:none;stroke:#000000;stroke-width:0.3;" y1="-35.063" y2="-32.438"/>
  <line x2="83.467" x1="85.592" style="fill:none;stroke:#000000;stroke-width:0.3;" y1="-32.063" y2="-29.438"/>
  <line x2="85.467" x1="82.092" style="fill:none;stroke:#000000;stroke-width:0.3;" y1="-25.688" y2="-24.563"/>
  <line x2="74.092" x1="78.217" style="fill:none;stroke:#000000;stroke-width:0.3;" y1="-28.438" y2="-28.563"/>
  <line x2="71.467" x1="74.342" style="fill:none;stroke:#000000;stroke-width:0.3;" y1="-24.938" y2="-23.563"/>
  <line x2="77.342" x1="78.342" style="fill:none;stroke:#000000;stroke-width:0.3;" y1="-23.813" y2="-20.438"/>
  <line x2="84.842" x1="83.092" style="fill:none;stroke:#000000;stroke-width:0.3;" y1="-20.688" y2="-17.938"/>
  <line x2="82.342" x1="85.092" style="fill:none;stroke:#000000;stroke-width:0.3;" y1="-13.313" y2="-11.688"/>
  <line x2="77.092" x1="80.592" style="fill:none;stroke:#000000;stroke-width:0.3;" y1="-16.063" y2="-16.563"/>
  <line x2="85.592" x1="81.967" style="fill:none;stroke:#000000;stroke-width:0.3;" y1="-7.063" y2="-6.813"/>
  <line x2="82.804" x1="81.554" style="fill:none;stroke:#000000;stroke-width:0.3;" y1="-3.717" y2="-0.717"/>
  <line x2="46.967" x1="49.342" style="fill:none;stroke:#000000;stroke-width:0.3;" y1="-39.438" y2="-36.938"/>
  <line x2="50.842" x1="46.842" style="fill:none;stroke:#000000;stroke-width:0.3;" y1="-33.063" y2="-31.938"/>
  <line x2="46.967" x1="45.842" style="fill:none;stroke:#000000;stroke-width:0.3;" y1="-29.313" y2="-25.688"/>
  <path d="M47.592-22.688" style="fill:none;stroke:#000000;stroke-width:0.3;"/>
  <line x2="44.592" x1="47.592" style="fill:none;stroke:#000000;stroke-width:0.3;" y1="-22.688" y2="-20.313"/>
  <line x2="47.226" x1="47.601" style="fill:none;stroke:#000000;stroke-width:0.3;" y1="-17.029" y2="-13.404"/>
  <line x2="47.717" x1="44.842" style="fill:none;stroke:#000000;stroke-width:0.3;" y1="-10.188" y2="-8.188"/>
  <line x2="43.592" x1="45.217" style="fill:none;stroke:#000000;stroke-width:0.3;" y1="-4.438" y2="-1.438"/>
  <line x2="46.717" x1="43.467" style="fill:none;stroke:#000000;stroke-width:0.3;" y1="-41.813" y2="-41.063"/>
  <line x2="50.592" x1="51.717" style="fill:none;stroke:#000000;stroke-width:0.3;" y1="-0.292" y2="-3.792"/>
  <line x2="59.654" x1="56.529" style="fill:none;stroke:#000000;stroke-width:0.3;" y1="-1.105" y2="-3.23"/>
  <line x2="55.092" x1="51.717" style="fill:none;stroke:#000000;stroke-width:0.3;" y1="-8.063" y2="-8.688"/>
  <line x2="52.121" x1="54.867" style="fill:none;stroke:#000000;stroke-width:0.3;" y1="-15.313" y2="-12.744"/>
  <line x2="53.467" x1="49.842" style="fill:none;stroke:#000000;stroke-width:0.3;" y1="-19.188" y2="-19.063"/>
  <line x2="49.842" x1="53.967" style="fill:none;stroke:#000000;stroke-width:0.3;" y1="-28.563" y2="-28.313"/>
  <line x2="52.467" x1="54.467" style="fill:none;stroke:#000000;stroke-width:0.3;" y1="-25.438" y2="-22.438"/>
  <line x2="59.967" x1="57.467" style="fill:none;stroke:#000000;stroke-width:0.3;" y1="-21.813" y2="-19.813"/>
  <line x2="58.592" x1="57.467" style="fill:none;stroke:#000000;stroke-width:0.3;" y1="-29.438" y2="-25.688"/>
  <line x2="64.842" x1="61.342" style="fill:none;stroke:#000000;stroke-width:0.3;" y1="-30.438" y2="-29.813"/>
  <line x2="69.412" x1="68.368" style="fill:none;stroke:#000000;stroke-width:0.3;" y1="-30.42" y2="-26.939"/>
  <line x2="61.967" x1="64.592" style="fill:none;stroke:#000000;stroke-width:0.3;" y1="-25.813" y2="-23.063"/>
  <line x2="68.467" x1="65.092" style="fill:none;stroke:#000000;stroke-width:0.3;" y1="-20.813" y2="-21.313"/>
  <line x2="74.467" x1="71.217" style="fill:none;stroke:#000000;stroke-width:0.3;" y1="-19.938" y2="-17.938"/>
  <line x2="70.967" x1="73.092" style="fill:none;stroke:#000000;stroke-width:0.3;" y1="-14.438" y2="-11.563"/>
  <line x2="76.592" x1="78.092" style="fill:none;stroke:#000000;stroke-width:0.3;" y1="-8.188" y2="-11.438"/>
  <line x2="77.3" x1="74.55" style="fill:none;stroke:#000000;stroke-width:0.3;" y1="-1.855" y2="-4.979"/>
  <line x2="69.699" x1="73.236" style="fill:none;stroke:#000000;stroke-width:0.3;" y1="-6.656" y2="-8.523"/>
  <line x2="67.8" x1="69.55" style="fill:none;stroke:#000000;stroke-width:0.3;" y1="-0.334" y2="-3.334"/>
  <line x2="64.467" x1="63.342" style="fill:none;stroke:#000000;stroke-width:0.3;" y1="-3.938" y2="-7.063"/>
  <line x2="66.342" x1="63.092" style="fill:none;stroke:#000000;stroke-width:0.3;" y1="-12.688" y2="-11.313"/>
  <line x2="69.24" x1="65.893" style="fill:none;stroke:#000000;stroke-width:0.3;" y1="-14.607" y2="-16.298"/>
  <line x2="59.842" x1="62.967" style="fill:none;stroke:#000000;stroke-width:0.3;" y1="-17.813" y2="-15.688"/>
  <line x2="60.55" x1="58.175" style="fill:none;stroke:#000000;stroke-width:0.3;" y1="-10.604" y2="-7.479"/>
 </g>
</svg>
