<?xml version="1.0"?>
<!-- Converted with SVG Converter - Version 0.9.5 (Compiled Fri Feb 21 09:53:38 2020) - Copyright (C) 2011 Nokia -->
<svg xmlns="http://www.w3.org/2000/svg" x="0px" width="72" version="1.1" y="0px" baseProfile="tiny" xmlns:xlink="http://www.w3.org/1999/xlink" xml:space="preserve" height="71.999" viewBox="2 -73.999 72 71.999">
 <g>
  <rect x="2" style="fill:none;" width="72" y="-73.999" height="71.999"/>
  <path style="fill:none;stroke:#000000;stroke-width:0.5;stroke-linecap:square;" d="M2-53.278    c3.168-4.326,6.774-9.781,8.044-12.48"/>
  <path style="fill:none;stroke:#000000;stroke-width:0.5;stroke-linecap:square;" d="M12.627-68.613    c1.081-1.081,2.703-3.089,4.394-5.386"/>
  <path style="fill:none;stroke:#000000;stroke-width:0.5;stroke-linecap:square;" d="M19.69-51.863c2.75-2.75,9-11.5,11-15.75"/>
  <path style="fill:none;stroke:#000000;stroke-width:0.5;stroke-linecap:square;" d="M25.25-33.25    C28-36,36.333-46.062,38.333-50.312"/>
  <path style="fill:none;stroke:#000000;stroke-width:0.5;stroke-linecap:square;" d="M40.96-55.884    c2.453-2.452,9.958-12.875,12.972-18.116"/>
  <path style="fill:none;stroke:#000000;stroke-width:0.5;stroke-linecap:square;" d="M17.882-48.148    c-2.457,4.003-9.637,12.008-12.675,14.437"/>
  <path style="fill:none;stroke:#000000;stroke-width:0.5;stroke-linecap:square;" d="M2-27.945c0.845-1.099,1.565-2.11,2.079-2.946    "/>
  <path style="fill:none;stroke:#000000;stroke-width:0.5;stroke-linecap:square;" d="M33.943-71.418    c0.559-0.54,1.357-1.445,2.294-2.582"/>
  <path style="fill:none;stroke:#000000;stroke-width:0.5;stroke-linecap:square;" d="M24.132-29.148    c-2.198,3.58-11.59,15.138-15.526,18.285"/>
  <path style="fill:none;stroke:#000000;stroke-width:0.5;stroke-linecap:square;" d="M43.439-31.279    c-1.57,3.335-6.665,7.831-9.724,11.634c-0.838,1.043-1.592,1.912-2.184,2.504"/>
  <path style="fill:none;stroke:#000000;stroke-width:0.5;stroke-linecap:square;" d="M57.419-50.363    c-1.57,3.336-6.665,7.831-9.724,11.635c-0.838,1.042-1.592,1.912-2.184,2.504"/>
  <path style="fill:none;stroke:#000000;stroke-width:0.5;stroke-linecap:square;" d="M51.886-22.537    c0.592-0.592,1.346-1.462,2.184-2.504c3.059-3.804,8.154-8.299,9.724-11.635"/>
  <path style="fill:none;stroke:#000000;stroke-width:0.5;stroke-linecap:square;" d="M60.386-56.746    c0.592-0.592,1.346-1.461,2.184-2.503c3.059-3.804,8.154-8.299,9.724-11.635"/>
  <path style="fill:none;stroke:#000000;stroke-width:0.5;stroke-linecap:square;" d="M69.314-47.676    c1.038-1.038,2.794-3.263,4.686-5.858"/>
  <path style="fill:none;stroke:#000000;stroke-width:0.5;stroke-linecap:square;" d="M74-28.19    c-0.007,0.01-0.014,0.018-0.021,0.028c-3.19,4.185-8.002,12.476-10.447,14.431"/>
  <path style="fill:none;stroke:#000000;stroke-width:0.5;stroke-linecap:square;" d="M28.273-14.551    C27.059-11.971,19.704-5.556,17.074-2"/>
  <path style="fill:none;stroke:#000000;stroke-width:0.5;stroke-linecap:square;" d="M59.127-10.029    c-0.363,0.771-4.868,6.783-5.62,8.007C53.502-2.015,53.498-2.008,53.493-2"/>
  <path style="fill:none;stroke:#000000;stroke-width:0.5;stroke-linecap:square;" d="M47.66-18.187    C46.001-14.814,40.039-6.552,36.289-2"/>
  <path style="fill:none;stroke:#000000;stroke-width:0.5;stroke-linecap:square;" d="M73.157-13.029    C71.526-10.778,67.116-5.481,64.017-2"/>
  <path style="fill:none;stroke:#000000;stroke-width:0.3;stroke-linecap:square;" d="M25.878-73.999    c-0.507,0.588-1.022,1.172-1.538,1.746"/>
  <path style="fill:none;stroke:#000000;stroke-width:0.3;stroke-linecap:square;" d="M21.903-69.631    c0.268-0.278,0.545-0.57,0.821-0.864"/>
  <path style="fill:none;stroke:#000000;stroke-width:0.3;stroke-linecap:square;" d="M22.724-70.495    c0.531-0.564,1.071-1.153,1.616-1.759"/>
  <path style="fill:none;stroke:#000000;stroke-width:0.5;stroke-linecap:square;" d="M62.267-72.14    c-0.116,0.124-0.237,0.253-0.343,0.363"/>
  <path style="fill:none;stroke:#000000;stroke-width:0.5;stroke-linecap:square;" d="M63.878-73.903    c-0.601,0.675-1.143,1.268-1.611,1.764"/>
  <path style="fill:none;stroke:#000000;stroke-width:0.3;stroke-linecap:square;" d="M3.927-44.663    c0.385-0.496,0.755-0.981,1.085-1.438"/>
  <path style="fill:none;stroke:#000000;stroke-width:0.3;stroke-linecap:square;" d="M2-42.279    c0.143-0.171,0.286-0.341,0.426-0.511"/>
  <path style="fill:none;stroke:#000000;stroke-width:0.3;stroke-linecap:square;" d="M2.426-42.79    c0.529-0.641,1.03-1.267,1.501-1.873"/>
  <path style="fill:none;stroke:#000000;stroke-width:0.3;stroke-linecap:square;" d="M21.439-40.902    c0.497-0.585,1.013-1.2,1.539-1.836"/>
  <path style="fill:none;stroke:#000000;stroke-width:0.3;stroke-linecap:square;" d="M19.813-39.027    c0.497-0.558,1.048-1.195,1.625-1.875"/>
  <path style="fill:none;stroke:#000000;stroke-width:0.3;stroke-linecap:square;" d="M27.518-48.386    c-0.455,0.584-0.945,1.206-1.46,1.853"/>
  <path style="fill:none;stroke:#000000;stroke-width:0.3;stroke-linecap:square;" d="M22.978-42.738    c0.514-0.621,1.033-1.255,1.548-1.89"/>
  <path style="fill:none;stroke:#000000;stroke-width:0.3;stroke-linecap:square;" d="M24.526-44.628    c0.522-0.644,1.037-1.283,1.532-1.905"/>
  <path style="fill:none;stroke:#000000;stroke-width:0.3;stroke-linecap:square;" d="M29.065-50.404    c0.195-0.262,0.378-0.507,0.53-0.718"/>
  <path style="fill:none;stroke:#000000;stroke-width:0.3;stroke-linecap:square;" d="M29.065-50.404    c-0.431,0.575-0.956,1.261-1.547,2.019"/>
  <path style="fill:none;stroke:#000000;stroke-width:0.3;stroke-linecap:square;" d="M18.627-37.738    c0.345-0.356,0.746-0.794,1.186-1.289"/>
  <path style="fill:none;stroke:#000000;stroke-width:0.3;stroke-linecap:square;" d="M44.139-69.643    c-0.492,0.633-0.999,1.273-1.523,1.915"/>
  <path style="fill:none;stroke:#000000;stroke-width:0.3;stroke-linecap:square;" d="M39.418-64.051    c0.546-0.585,1.09-1.189,1.627-1.81"/>
  <path style="fill:none;stroke:#000000;stroke-width:0.3;stroke-linecap:square;" d="M42.616-67.728    c-0.513,0.628-1.038,1.252-1.57,1.867"/>
  <path style="fill:none;stroke:#000000;stroke-width:0.3;stroke-linecap:square;" d="M39.418-64.051    c-0.215,0.231-0.43,0.465-0.646,0.687"/>
  <path style="fill:none;stroke:#000000;stroke-width:0.3;stroke-linecap:square;" d="M45.623-71.597    c0.225-0.305,0.449-0.608,0.66-0.9"/>
  <path style="fill:none;stroke:#000000;stroke-width:0.3;stroke-linecap:square;" d="M44.139-69.643    c0.518-0.667,1.016-1.323,1.483-1.954"/>
  <path style="fill:none;stroke:#000000;stroke-width:0.3;stroke-linecap:square;" d="M72.751-41.031    c0.425-0.491,0.843-0.982,1.249-1.47"/>
  <path style="fill:none;stroke:#000000;stroke-width:0.3;stroke-linecap:square;" d="M69.489-37.418    c-0.225,0.237-0.451,0.478-0.669,0.704"/>
  <path style="fill:none;stroke:#000000;stroke-width:0.3;stroke-linecap:square;" d="M71.139-39.205    c0.54-0.599,1.079-1.21,1.611-1.826"/>
  <path style="fill:none;stroke:#000000;stroke-width:0.3;stroke-linecap:square;" d="M69.489-37.418    c0.541-0.573,1.093-1.169,1.65-1.787"/>
  <path style="fill:none;stroke:#000000;stroke-width:0.3;stroke-linecap:square;" d="M17.351-62.118    c-0.493,0.639-1.024,1.303-1.584,1.981"/>
  <path style="fill:none;stroke:#000000;stroke-width:0.3;stroke-linecap:square;" d="M14.25-58.342    c0.519-0.601,1.027-1.201,1.518-1.795"/>
  <path style="fill:none;stroke:#000000;stroke-width:0.3;stroke-linecap:square;" d="M18.325-63.413    c-0.299,0.412-0.629,0.849-0.974,1.295"/>
  <path style="fill:none;stroke:#000000;stroke-width:0.3;stroke-linecap:square;" d="M12.638-56.516    c-0.558,0.618-1.109,1.214-1.65,1.786"/>
  <path style="fill:none;stroke:#000000;stroke-width:0.3;stroke-linecap:square;" d="M14.25-58.342    c-0.533,0.616-1.072,1.228-1.612,1.826"/>
  <path style="fill:none;stroke:#000000;stroke-width:0.3;stroke-linecap:square;" d="M10.987-54.729    c-0.224,0.237-0.45,0.478-0.667,0.703"/>
  <path style="fill:none;stroke:#000000;stroke-width:0.3;stroke-linecap:square;" d="M52.526-57.817    c0.5-0.681,0.985-1.346,1.451-1.986"/>
  <path style="fill:none;stroke:#000000;stroke-width:0.3;stroke-linecap:square;" d="M48.092-51.94    c0.478-0.608,0.982-1.264,1.497-1.941"/>
  <path style="fill:none;stroke:#000000;stroke-width:0.3;stroke-linecap:square;" d="M55.422-61.797    c0.544-0.755,1.03-1.43,1.414-1.961"/>
  <path style="fill:none;stroke:#000000;stroke-width:0.3;stroke-linecap:square;" d="M52.526-57.817    c-0.481,0.654-0.971,1.316-1.462,1.975"/>
  <path style="fill:none;stroke:#000000;stroke-width:0.3;stroke-linecap:square;" d="M53.978-59.804    c0.516-0.71,1-1.378,1.444-1.993"/>
  <path style="fill:none;stroke:#000000;stroke-width:0.3;stroke-linecap:square;" d="M56.836-63.758    c0.164-0.228,0.31-0.431,0.437-0.605"/>
  <path style="fill:none;stroke:#000000;stroke-width:0.3;stroke-linecap:square;" d="M51.064-55.843    c-0.496,0.666-0.99,1.323-1.476,1.962"/>
  <path style="fill:none;stroke:#000000;stroke-width:0.3;stroke-linecap:square;" d="M48.092-51.94    c-0.552,0.704-1.07,1.346-1.536,1.901"/>
  <path style="fill:none;stroke:#000000;stroke-width:0.3;stroke-linecap:square;" d="M46.556-50.039    c-0.444,0.53-0.842,0.983-1.173,1.325"/>
  <path style="fill:none;stroke:#000000;stroke-width:0.3;stroke-linecap:square;" d="M51.757-33.276    c0.208-0.216,0.425-0.446,0.638-0.672"/>
  <path style="fill:none;stroke:#000000;stroke-width:0.3;stroke-linecap:square;" d="M52.396-33.948    c0.532-0.562,1.074-1.146,1.622-1.753"/>
  <path style="fill:none;stroke:#000000;stroke-width:0.3;stroke-linecap:square;" d="M57.206-39.389    c-0.499,0.605-1.018,1.217-1.546,1.828"/>
  <path style="fill:none;stroke:#000000;stroke-width:0.3;stroke-linecap:square;" d="M57.206-39.389    c0.539-0.653,1.051-1.293,1.528-1.909"/>
  <path style="fill:none;stroke:#000000;stroke-width:0.3;stroke-linecap:square;" d="M55.659-37.561    c-0.542,0.628-1.092,1.251-1.642,1.859"/>
  <path style="fill:none;stroke:#000000;stroke-width:0.3;stroke-linecap:square;" d="M59.762-42.663    c-0.314,0.434-0.664,0.895-1.028,1.365"/>
  <path style="fill:none;stroke:#000000;stroke-width:0.3;stroke-linecap:square;" d="M54.005-11.711    c-0.38,0.408-0.757,0.806-1.123,1.185"/>
  <path style="fill:none;stroke:#000000;stroke-width:0.3;stroke-linecap:square;" d="M60.318-19.15    c-0.481,0.638-1.007,1.308-1.568,1.997"/>
  <path style="fill:none;stroke:#000000;stroke-width:0.3;stroke-linecap:square;" d="M60.318-19.15    c0.194-0.258,0.392-0.518,0.569-0.763"/>
  <path style="fill:none;stroke:#000000;stroke-width:0.3;stroke-linecap:square;" d="M55.643-13.511    c-0.549,0.615-1.098,1.221-1.638,1.8"/>
  <path style="fill:none;stroke:#000000;stroke-width:0.3;stroke-linecap:square;" d="M57.246-15.345    c-0.526,0.616-1.063,1.228-1.603,1.834"/>
  <path style="fill:none;stroke:#000000;stroke-width:0.3;stroke-linecap:square;" d="M58.75-17.153    c-0.484,0.596-0.985,1.199-1.505,1.809"/>
  <path style="fill:none;stroke:#000000;stroke-width:0.3;stroke-linecap:square;" d="M7.57-22.151    c0.277-0.287,0.563-0.59,0.85-0.895"/>
  <path style="fill:none;stroke:#000000;stroke-width:0.3;stroke-linecap:square;" d="M10.005-24.772    c0.55-0.611,1.099-1.234,1.639-1.861"/>
  <path style="fill:none;stroke:#000000;stroke-width:0.3;stroke-linecap:square;" d="M8.419-23.046    c0.521-0.555,1.052-1.133,1.586-1.727"/>
  <path style="fill:none;stroke:#000000;stroke-width:0.3;stroke-linecap:square;" d="M11.644-26.634    c0.54-0.627,1.063-1.252,1.569-1.869"/>
  <path style="fill:none;stroke:#000000;stroke-width:0.3;stroke-linecap:square;" d="M15.575-31.538    c-0.253,0.349-0.524,0.713-0.811,1.086"/>
  <path style="fill:none;stroke:#000000;stroke-width:0.3;stroke-linecap:square;" d="M13.213-28.503    c0.546-0.667,1.073-1.324,1.551-1.949"/>
  <path style="fill:none;stroke:#000000;stroke-width:0.3;stroke-linecap:square;" d="M29.016-5.762    c0.333-0.433,0.653-0.855,0.943-1.256"/>
  <path style="fill:none;stroke:#000000;stroke-width:0.3;stroke-linecap:square;" d="M25.976-2.053    c0.54-0.626,1.064-1.25,1.571-1.867"/>
  <path style="fill:none;stroke:#000000;stroke-width:0.3;stroke-linecap:square;" d="M27.546-3.92    c0.517-0.63,1.012-1.248,1.47-1.842"/>
  <path style="fill:none;stroke:#000000;stroke-width:0.3;stroke-linecap:square;" d="M26.214-22.377    c-0.313,0.348-0.609,0.67-0.864,0.934"/>
  <path style="fill:none;stroke:#000000;stroke-width:0.3;stroke-linecap:square;" d="M27.789-24.177    c0.501-0.587,1.029-1.214,1.571-1.867"/>
  <path style="fill:none;stroke:#000000;stroke-width:0.3;stroke-linecap:square;" d="M29.36-26.044    c0.511-0.615,1.03-1.249,1.549-1.888"/>
  <path style="fill:none;stroke:#000000;stroke-width:0.3;stroke-linecap:square;" d="M35.461-33.692    c0.419-0.551,0.783-1.037,1.062-1.421"/>
  <path style="fill:none;stroke:#000000;stroke-width:0.3;stroke-linecap:square;" d="M27.789-24.177    c-0.57,0.668-1.1,1.274-1.575,1.8"/>
  <path style="fill:none;stroke:#000000;stroke-width:0.3;stroke-linecap:square;" d="M30.909-27.932    c0.529-0.65,1.052-1.3,1.562-1.938"/>
  <path style="fill:none;stroke:#000000;stroke-width:0.3;stroke-linecap:square;" d="M32.471-29.87    c0.52-0.651,1.02-1.283,1.49-1.885"/>
  <path style="fill:none;stroke:#000000;stroke-width:0.3;stroke-linecap:square;" d="M33.961-31.755    c0.551-0.702,1.059-1.358,1.5-1.938"/>
  <line style="fill:none;stroke:#000000;stroke-width:0.3;stroke-linecap:square;" x2="15.767" y2="-60.137" x1="2" y1="-73.904"/>
  <line style="fill:none;stroke:#000000;stroke-width:0.3;stroke-linecap:square;" x2="15.767" y2="-60.137" x1="27.518" y1="-48.386"/>
  <line style="fill:none;stroke:#000000;stroke-width:0.3;stroke-linecap:square;" x2="27.518" y2="-48.386" x1="58.75" y1="-17.153"/>
  <line style="fill:none;stroke:#000000;stroke-width:0.3;stroke-linecap:square;" x2="73.903" y2="-2" x1="58.75" y1="-17.153"/>
  <line style="fill:none;stroke:#000000;stroke-width:0.3;stroke-linecap:square;" x2="57.246" y2="-15.345" x1="70.591" y1="-2"/>
  <line style="fill:none;stroke:#000000;stroke-width:0.3;stroke-linecap:square;" x2="26.058" y2="-46.533" x1="14.25" y1="-58.342"/>
  <line style="fill:none;stroke:#000000;stroke-width:0.3;stroke-linecap:square;" x2="57.246" y2="-15.345" x1="26.058" y1="-46.533"/>
  <line style="fill:none;stroke:#000000;stroke-width:0.3;stroke-linecap:square;" x2="14.25" y2="-58.342" x1="2" y1="-70.591"/>
  <line style="fill:none;stroke:#000000;stroke-width:0.3;stroke-linecap:square;" x2="55.643" y2="-13.511" x1="67.153" y1="-2"/>
  <line style="fill:none;stroke:#000000;stroke-width:0.3;stroke-linecap:square;" x2="12.638" y2="-56.516" x1="2" y1="-67.154"/>
  <line style="fill:none;stroke:#000000;stroke-width:0.3;stroke-linecap:square;" x2="12.638" y2="-56.516" x1="24.526" y1="-44.628"/>
  <line style="fill:none;stroke:#000000;stroke-width:0.3;stroke-linecap:square;" x2="35.461" y2="-33.692" x1="24.526" y1="-44.628"/>
  <line style="fill:none;stroke:#000000;stroke-width:0.3;stroke-linecap:square;" x2="35.461" y2="-33.692" x1="55.643" y1="-13.511"/>
  <line style="fill:none;stroke:#000000;stroke-width:0.3;stroke-linecap:square;" x2="10.987" y2="-54.729" x1="22.978" y1="-42.738"/>
  <line style="fill:none;stroke:#000000;stroke-width:0.3;stroke-linecap:square;" x2="33.961" y2="-31.755" x1="22.978" y1="-42.738"/>
  <line style="fill:none;stroke:#000000;stroke-width:0.3;stroke-linecap:square;" x2="54.005" y2="-11.711" x1="63.716" y1="-2"/>
  <line style="fill:none;stroke:#000000;stroke-width:0.3;stroke-linecap:square;" x2="54.005" y2="-11.711" x1="33.961" y1="-31.755"/>
  <line style="fill:none;stroke:#000000;stroke-width:0.3;stroke-linecap:square;" x2="10.987" y2="-54.729" x1="2" y1="-63.716"/>
  <line style="fill:none;stroke:#000000;stroke-width:0.3;stroke-linecap:square;" x2="32.471" y2="-29.87" x1="21.439" y1="-40.902"/>
  <line style="fill:none;stroke:#000000;stroke-width:0.3;stroke-linecap:square;" x2="2" y2="-60.341" x1="21.439" y1="-40.902"/>
  <line style="fill:none;stroke:#000000;stroke-width:0.3;stroke-linecap:square;" x2="32.471" y2="-29.87" x1="60.341" y1="-2"/>
  <line style="fill:none;stroke:#000000;stroke-width:0.3;stroke-linecap:square;" x2="30.909" y2="-27.932" x1="19.813" y1="-39.027"/>
  <line style="fill:none;stroke:#000000;stroke-width:0.3;stroke-linecap:square;" x2="30.909" y2="-27.932" x1="56.841" y1="-2"/>
  <line style="fill:none;stroke:#000000;stroke-width:0.3;stroke-linecap:square;" x2="19.813" y2="-39.027" x1="2" y1="-56.841"/>
  <line style="fill:none;stroke:#000000;stroke-width:0.3;stroke-linecap:square;" x2="29.36" y2="-26.044" x1="2" y1="-53.403"/>
  <line style="fill:none;stroke:#000000;stroke-width:0.3;stroke-linecap:square;" x2="29.36" y2="-26.044" x1="53.403" y1="-2"/>
  <line style="fill:none;stroke:#000000;stroke-width:0.3;stroke-linecap:square;" x2="27.789" y2="-24.177" x1="49.966" y1="-2"/>
  <line style="fill:none;stroke:#000000;stroke-width:0.3;stroke-linecap:square;" x2="27.789" y2="-24.177" x1="2" y1="-49.966"/>
  <line style="fill:none;stroke:#000000;stroke-width:0.3;stroke-linecap:square;" x2="3.927" y2="-44.663" x1="2" y1="-46.591"/>
  <line style="fill:none;stroke:#000000;stroke-width:0.3;stroke-linecap:square;" x2="3.927" y2="-44.663" x1="26.214" y1="-22.377"/>
  <line style="fill:none;stroke:#000000;stroke-width:0.3;stroke-linecap:square;" x2="26.214" y2="-22.377" x1="46.591" y1="-2"/>
  <line style="fill:none;stroke:#000000;stroke-width:0.3;stroke-linecap:square;" x2="14.764" y2="-30.452" x1="2.426" y1="-42.79"/>
  <line style="fill:none;stroke:#000000;stroke-width:0.3;stroke-linecap:square;" x2="2.426" y2="-42.79" x1="2" y1="-43.216"/>
  <line style="fill:none;stroke:#000000;stroke-width:0.3;stroke-linecap:square;" x2="14.764" y2="-30.452" x1="43.216" y1="-2"/>
  <line style="fill:none;stroke:#000000;stroke-width:0.3;stroke-linecap:square;" x2="13.213" y2="-28.503" x1="39.716" y1="-2"/>
  <line style="fill:none;stroke:#000000;stroke-width:0.3;stroke-linecap:square;" x2="13.213" y2="-28.503" x1="2" y1="-39.716"/>
  <line style="fill:none;stroke:#000000;stroke-width:0.3;stroke-linecap:square;" x2="36.278" y2="-2" x1="11.644" y1="-26.634"/>
  <line style="fill:none;stroke:#000000;stroke-width:0.3;stroke-linecap:square;" x2="11.644" y2="-26.634" x1="2" y1="-36.278"/>
  <line style="fill:none;stroke:#000000;stroke-width:0.3;stroke-linecap:square;" x2="29.016" y2="-5.762" x1="10.005" y1="-24.772"/>
  <line style="fill:none;stroke:#000000;stroke-width:0.3;stroke-linecap:square;" x2="29.016" y2="-5.762" x1="32.778" y1="-2"/>
  <line style="fill:none;stroke:#000000;stroke-width:0.3;stroke-linecap:square;" x2="10.005" y2="-24.772" x1="2" y1="-32.778"/>
  <line style="fill:none;stroke:#000000;stroke-width:0.3;stroke-linecap:square;" x2="27.546" y2="-3.92" x1="8.419" y1="-23.046"/>
  <line style="fill:none;stroke:#000000;stroke-width:0.3;stroke-linecap:square;" x2="8.419" y2="-23.046" x1="2" y1="-29.466"/>
  <line style="fill:none;stroke:#000000;stroke-width:0.3;stroke-linecap:square;" x2="27.546" y2="-3.92" x1="29.466" y1="-2"/>
  <line style="fill:none;stroke:#000000;stroke-width:0.3;stroke-linecap:square;" x2="25.976" y2="-2.053" x1="2" y1="-26.028"/>
  <line style="fill:none;stroke:#000000;stroke-width:0.3;stroke-linecap:square;" x2="22.528" y2="-2" x1="2" y1="-22.528"/>
  <line style="fill:none;stroke:#000000;stroke-width:0.3;stroke-linecap:square;" x2="19.153" y2="-2" x1="2" y1="-19.153"/>
  <line style="fill:none;stroke:#000000;stroke-width:0.3;stroke-linecap:square;" x2="15.716" y2="-2" x1="2" y1="-15.716"/>
  <line style="fill:none;stroke:#000000;stroke-width:0.3;stroke-linecap:square;" x2="12.278" y2="-2" x1="2" y1="-12.278"/>
  <line style="fill:none;stroke:#000000;stroke-width:0.3;stroke-linecap:square;" x2="8.841" y2="-2" x1="2" y1="-8.841"/>
  <line style="fill:none;stroke:#000000;stroke-width:0.3;stroke-linecap:square;" x2="5.403" y2="-2" x1="2" y1="-5.403"/>
  <line style="fill:none;stroke:#000000;stroke-width:0.3;stroke-linecap:square;" x2="70.532" y2="-73.999" x1="74" y1="-70.532"/>
  <line style="fill:none;stroke:#000000;stroke-width:0.3;stroke-linecap:square;" x2="67.282" y2="-73.999" x1="74" y1="-67.282"/>
  <line style="fill:none;stroke:#000000;stroke-width:0.3;stroke-linecap:square;" x2="63.878" y2="-73.903" x1="74" y1="-63.782"/>
  <line style="fill:none;stroke:#000000;stroke-width:0.3;stroke-linecap:square;" x2="62.267" y2="-72.14" x1="60.407" y1="-73.999"/>
  <line style="fill:none;stroke:#000000;stroke-width:0.3;stroke-linecap:square;" x2="62.267" y2="-72.14" x1="74" y1="-60.407"/>
  <line style="fill:none;stroke:#000000;stroke-width:0.3;stroke-linecap:square;" x2="56.907" y2="-73.999" x1="74" y1="-56.907"/>
  <line style="fill:none;stroke:#000000;stroke-width:0.3;stroke-linecap:square;" x2="53.47" y2="-73.999" x1="74" y1="-53.47"/>
  <line style="fill:none;stroke:#000000;stroke-width:0.3;stroke-linecap:square;" x2="74" y2="-50.032" x1="50.032" y1="-73.999"/>
  <line style="fill:none;stroke:#000000;stroke-width:0.3;stroke-linecap:square;" x2="56.836" y2="-63.758" x1="46.595" y1="-73.999"/>
  <line style="fill:none;stroke:#000000;stroke-width:0.3;stroke-linecap:square;" x2="74" y2="-46.595" x1="56.836" y1="-63.758"/>
  <line style="fill:none;stroke:#000000;stroke-width:0.3;stroke-linecap:square;" x2="74" y2="-43.22" x1="55.422" y1="-61.797"/>
  <line style="fill:none;stroke:#000000;stroke-width:0.3;stroke-linecap:square;" x2="55.422" y2="-61.797" x1="45.623" y1="-71.597"/>
  <line style="fill:none;stroke:#000000;stroke-width:0.3;stroke-linecap:square;" x2="45.623" y2="-71.597" x1="43.22" y1="-73.999"/>
  <line style="fill:none;stroke:#000000;stroke-width:0.3;stroke-linecap:square;" x2="39.782" y2="-73.999" x1="44.139" y1="-69.643"/>
  <line style="fill:none;stroke:#000000;stroke-width:0.3;stroke-linecap:square;" x2="44.139" y2="-69.643" x1="53.978" y1="-59.804"/>
  <line style="fill:none;stroke:#000000;stroke-width:0.3;stroke-linecap:square;" x2="72.751" y2="-41.031" x1="53.978" y1="-59.804"/>
  <line style="fill:none;stroke:#000000;stroke-width:0.3;stroke-linecap:square;" x2="72.751" y2="-41.031" x1="74" y1="-39.782"/>
  <line style="fill:none;stroke:#000000;stroke-width:0.3;stroke-linecap:square;" x2="42.616" y2="-67.728" x1="52.526" y1="-57.817"/>
  <line style="fill:none;stroke:#000000;stroke-width:0.3;stroke-linecap:square;" x2="71.139" y2="-39.205" x1="74" y1="-36.345"/>
  <line style="fill:none;stroke:#000000;stroke-width:0.3;stroke-linecap:square;" x2="42.616" y2="-67.728" x1="36.345" y1="-73.999"/>
  <line style="fill:none;stroke:#000000;stroke-width:0.3;stroke-linecap:square;" x2="71.139" y2="-39.205" x1="52.526" y1="-57.817"/>
  <line style="fill:none;stroke:#000000;stroke-width:0.3;stroke-linecap:square;" x2="41.046" y2="-65.861" x1="32.907" y1="-73.999"/>
  <line style="fill:none;stroke:#000000;stroke-width:0.3;stroke-linecap:square;" x2="41.046" y2="-65.861" x1="51.064" y1="-55.843"/>
  <line style="fill:none;stroke:#000000;stroke-width:0.3;stroke-linecap:square;" x2="69.489" y2="-37.418" x1="74" y1="-32.907"/>
  <line style="fill:none;stroke:#000000;stroke-width:0.3;stroke-linecap:square;" x2="51.064" y2="-55.843" x1="69.489" y1="-37.418"/>
  <line style="fill:none;stroke:#000000;stroke-width:0.3;stroke-linecap:square;" x2="29.47" y2="-73.999" x1="39.418" y1="-64.051"/>
  <line style="fill:none;stroke:#000000;stroke-width:0.3;stroke-linecap:square;" x2="49.588" y2="-53.881" x1="74" y1="-29.47"/>
  <line style="fill:none;stroke:#000000;stroke-width:0.3;stroke-linecap:square;" x2="49.588" y2="-53.881" x1="39.418" y1="-64.051"/>
  <line style="fill:none;stroke:#000000;stroke-width:0.3;stroke-linecap:square;" x2="26.032" y2="-73.999" x1="48.092" y1="-51.94"/>
  <line style="fill:none;stroke:#000000;stroke-width:0.3;stroke-linecap:square;" x2="48.092" y2="-51.94" x1="58.734" y1="-41.298"/>
  <line style="fill:none;stroke:#000000;stroke-width:0.3;stroke-linecap:square;" x2="58.734" y2="-41.298" x1="74" y1="-26.032"/>
  <line style="fill:none;stroke:#000000;stroke-width:0.3;stroke-linecap:square;" x2="46.556" y2="-50.039" x1="24.34" y1="-72.254"/>
  <line style="fill:none;stroke:#000000;stroke-width:0.3;stroke-linecap:square;" x2="24.34" y2="-72.254" x1="22.595" y1="-73.999"/>
  <line style="fill:none;stroke:#000000;stroke-width:0.3;stroke-linecap:square;" x2="57.206" y2="-39.389" x1="74" y1="-22.595"/>
  <line style="fill:none;stroke:#000000;stroke-width:0.3;stroke-linecap:square;" x2="46.556" y2="-50.039" x1="57.206" y1="-39.389"/>
  <line style="fill:none;stroke:#000000;stroke-width:0.3;stroke-linecap:square;" x2="55.659" y2="-37.561" x1="22.724" y1="-70.495"/>
  <line style="fill:none;stroke:#000000;stroke-width:0.3;stroke-linecap:square;" x2="22.724" y2="-70.495" x1="19.22" y1="-73.999"/>
  <line style="fill:none;stroke:#000000;stroke-width:0.3;stroke-linecap:square;" x2="55.659" y2="-37.561" x1="74" y1="-19.22"/>
  <line style="fill:none;stroke:#000000;stroke-width:0.3;stroke-linecap:square;" x2="54.018" y2="-35.701" x1="74" y1="-15.72"/>
  <line style="fill:none;stroke:#000000;stroke-width:0.3;stroke-linecap:square;" x2="54.018" y2="-35.701" x1="15.72" y1="-73.999"/>
  <line style="fill:none;stroke:#000000;stroke-width:0.3;stroke-linecap:square;" x2="52.396" y2="-33.948" x1="74" y1="-12.345"/>
  <line style="fill:none;stroke:#000000;stroke-width:0.3;stroke-linecap:square;" x2="52.396" y2="-33.948" x1="12.345" y1="-73.999"/>
  <line style="fill:none;stroke:#000000;stroke-width:0.3;stroke-linecap:square;" x2="74" y2="-8.907" x1="8.907" y1="-73.999"/>
  <line style="fill:none;stroke:#000000;stroke-width:0.3;stroke-linecap:square;" x2="17.351" y2="-62.118" x1="5.47" y1="-73.999"/>
  <line style="fill:none;stroke:#000000;stroke-width:0.3;stroke-linecap:square;" x2="74" y2="-5.47" x1="60.318" y1="-19.15"/>
  <line style="fill:none;stroke:#000000;stroke-width:0.3;stroke-linecap:square;" x2="60.318" y2="-19.15" x1="29.065" y1="-50.404"/>
  <line style="fill:none;stroke:#000000;stroke-width:0.3;stroke-linecap:square;" x2="17.351" y2="-62.118" x1="29.065" y1="-50.404"/>
 </g>
</svg>
