<?xml version="1.0"?>
<!-- Converted with SVG Converter - Version 0.9.5 (Compiled Fri Feb 21 09:53:38 2020) - Copyright (C) 2011 Nokia -->
<svg xmlns="http://www.w3.org/2000/svg" xmlns:xlink="http://www.w3.org/1999/xlink" xml:space="preserve" version="1.1" viewBox="0.133 -58.93 58.851 58.851" baseProfile="tiny" height="58.851" y="0px" x="0px" width="58.851">
 <g>
  <rect style="fill:none;" height="58.851" y="-58.93" x="0.133" width="58.851"/>
  <path style="fill:none;stroke:#000000;stroke-width:0.3;" d="M2.086-58.93c0.853,2.126,2.937,4.768,5.716,6.188    c3.094,1.582,4.698,4.37,5.5,5.913c0.894,1.719,4.16,4.366,6.497,5.466s5.363,4.262,5.913,5.913c0.55,1.65,4.125,5.087,5.913,6.05    c1.788,0.962,5.087,4.125,5.775,5.638c0.688,1.512,3.163,4.4,5.913,5.913c2.75,1.512,5.225,4.262,5.913,5.913    c0.688,1.65,3.438,4.812,5.913,5.912c1.329,0.59,2.706,1.766,3.847,3.067"/>
  <path style="fill:none;stroke:#000000;stroke-width:0.3;" d="M8.479-58.93c0.853,2.126,2.937,4.768,5.715,6.188    c3.094,1.582,4.698,4.37,5.5,5.913c0.894,1.719,4.159,4.366,6.497,5.466c2.337,1.1,5.362,4.262,5.913,5.913    c0.55,1.65,4.125,5.087,5.912,6.05c1.788,0.962,5.088,4.125,5.775,5.638c0.688,1.512,3.163,4.4,5.913,5.913    c2.75,1.512,5.225,4.262,5.913,5.913c0.452,1.085,1.795,2.823,3.366,4.2"/>
  <path style="fill:none;stroke:#000000;stroke-width:0.3;" d="M15.033-58.93c0.853,2.126,2.937,4.768,5.716,6.188    c3.094,1.582,4.697,4.37,5.5,5.913c0.894,1.719,4.159,4.366,6.497,5.466c2.338,1.1,5.363,4.262,5.913,5.913    c0.55,1.65,4.125,5.087,5.913,6.05c1.788,0.962,5.087,4.125,5.775,5.638c0.688,1.512,3.163,4.4,5.913,5.913    c0.964,0.53,1.894,1.212,2.726,1.946"/>
  <path style="fill:none;stroke:#000000;stroke-width:0.3;" d="M21.585-58.93c0.854,2.126,2.937,4.768,5.716,6.188    c3.094,1.582,4.698,4.37,5.5,5.913c0.894,1.719,4.16,4.366,6.497,5.466c2.337,1.1,5.362,4.262,5.913,5.913    c0.55,1.65,4.125,5.087,5.912,6.05c1.788,0.962,5.088,4.125,5.775,5.638c0.333,0.733,1.085,1.788,2.085,2.853"/>
  <path style="fill:none;stroke:#000000;stroke-width:0.3;" d="M28.139-58.93c0.853,2.126,2.937,4.768,5.715,6.188    c3.094,1.582,4.698,4.37,5.5,5.913c0.894,1.719,4.16,4.366,6.497,5.466c2.338,1.1,5.363,4.262,5.913,5.913    c0.55,1.65,4.125,5.087,5.913,6.05c0.38,0.205,0.829,0.509,1.307,0.876"/>
  <path style="fill:none;stroke:#000000;stroke-width:0.3;" d="M34.692-58.93c0.853,2.126,2.936,4.768,5.715,6.188    c3.094,1.582,4.698,4.37,5.5,5.913c0.894,1.719,4.159,4.366,6.497,5.466c2.338,1.1,5.363,4.262,5.913,5.913    c0.111,0.334,0.347,0.741,0.666,1.187"/>
  <path style="fill:none;stroke:#000000;stroke-width:0.3;" d="M41.245-58.93c0.854,2.126,2.937,4.768,5.716,6.188    c3.094,1.582,4.698,4.37,5.5,5.913c0.894,1.719,4.16,4.366,6.497,5.466c0.008,0.004,0.017,0.008,0.025,0.012"/>
  <path style="fill:none;stroke:#000000;stroke-width:0.3;" d="M47.798-58.93c0.854,2.126,2.937,4.768,5.716,6.188    c3.056,1.562,4.657,4.301,5.47,5.854"/>
  <path style="fill:none;stroke:#000000;stroke-width:0.3;" d="M54.352-58.93c0.738,1.839,2.398,4.065,4.632,5.551"/>
  <path style="fill:none;stroke:#000000;stroke-width:0.3;" d="M0.133-2.96c0.834,0.952,1.541,1.972,2.008,2.88"/>
  <path style="fill:none;stroke:#000000;stroke-width:0.3;" d="M0.133-7.739c0.818,0.717,1.698,1.336,2.546,1.712    c2.3,1.022,4.748,3.795,5.855,5.947"/>
  <path style="fill:none;stroke:#000000;stroke-width:0.3;" d="M0.133-15.906c1.54,1.359,2.74,2.895,3.187,3.967    c0.688,1.65,3.438,4.812,5.913,5.912c2.3,1.022,4.747,3.795,5.854,5.947"/>
  <path style="fill:none;stroke:#000000;stroke-width:0.3;" d="M0.133-20.911c1.064,1.134,2.409,2.28,3.827,3.059    c2.75,1.512,5.225,4.262,5.913,5.913c0.688,1.65,3.438,4.812,5.913,5.912c2.3,1.022,4.747,3.795,5.855,5.947"/>
  <path style="fill:none;stroke:#000000;stroke-width:0.3;" d="M0.133-28.525c1.767,1.357,3.927,3.57,4.468,4.761    c0.688,1.512,3.163,4.4,5.913,5.913c2.75,1.512,5.225,4.262,5.912,5.913c0.688,1.65,3.438,4.812,5.913,5.912    c2.3,1.022,4.747,3.795,5.855,5.947"/>
  <path style="fill:none;stroke:#000000;stroke-width:0.3;" d="M0.133-34.265c1.258,1.754,3.821,4.096,5.247,4.863    c1.787,0.962,5.087,4.125,5.775,5.638c0.688,1.512,3.163,4.4,5.913,5.913c2.75,1.512,5.225,4.262,5.913,5.913    c0.688,1.65,3.438,4.812,5.912,5.912c2.3,1.022,4.747,3.795,5.855,5.947"/>
  <path style="fill:none;stroke:#000000;stroke-width:0.3;" d="M0.133-41.352c2.334,1.111,5.339,4.256,5.887,5.9    c0.55,1.65,4.125,5.087,5.913,6.05c1.788,0.962,5.087,4.125,5.775,5.638c0.688,1.512,3.163,4.4,5.913,5.913    c2.75,1.512,5.225,4.262,5.913,5.913c0.688,1.65,3.438,4.812,5.913,5.912c2.3,1.022,4.747,3.795,5.854,5.947"/>
  <path style="fill:none;stroke:#000000;stroke-width:0.3;" d="M0.133-46.888c0.01,0.02,0.021,0.039,0.03,0.058    c0.894,1.719,4.16,4.366,6.497,5.466s5.362,4.262,5.913,5.913c0.55,1.65,4.125,5.087,5.913,6.05    c1.787,0.962,5.087,4.125,5.775,5.638c0.688,1.512,3.163,4.4,5.913,5.913c2.75,1.512,5.225,4.262,5.913,5.913    c0.688,1.65,3.438,4.812,5.913,5.912c2.299,1.022,4.747,3.795,5.854,5.947"/>
  <path style="fill:none;stroke:#000000;stroke-width:0.3;" d="M0.133-53.379c0.348,0.231,0.71,0.445,1.084,0.636    c3.094,1.582,4.697,4.37,5.5,5.913c0.893,1.719,4.159,4.366,6.497,5.466c2.338,1.1,5.363,4.262,5.913,5.913    c0.55,1.65,4.125,5.087,5.913,6.05c1.788,0.962,5.087,4.125,5.775,5.638c0.688,1.512,3.163,4.4,5.913,5.913    c2.75,1.512,5.225,4.262,5.913,5.913c0.688,1.65,3.438,4.812,5.913,5.912c2.3,1.022,4.748,3.795,5.855,5.947"/>
  <line style="fill:none;stroke:#000000;stroke-width:0.3;" y2="-52.896" x1="12.688" y1="-51.782" x2="10.089"/>
  <line style="fill:none;stroke:#000000;stroke-width:0.3;" y2="-47.027" x1="11.716" y1="-45.913" x2="9.118"/>
  <line style="fill:none;stroke:#000000;stroke-width:0.3;" y2="-44.982" x1="17.176" y1="-47.705" x2="17.052"/>
  <line style="fill:none;stroke:#000000;stroke-width:0.3;" y2="-39.573" x1="27.088" y1="-38.274" x2="24.181"/>
  <line style="fill:none;stroke:#000000;stroke-width:0.3;" y2="-31.982" x1="33.747" y1="-31.049" x2="30.742"/>
  <line style="fill:none;stroke:#000000;stroke-width:0.3;" y2="-28.667" x1="24.575" y1="-27.961" x2="22.167"/>
  <line style="fill:none;stroke:#000000;stroke-width:0.3;" y2="-22.525" x1="40.345" y1="-25.371" x2="39.603"/>
  <line style="fill:none;stroke:#000000;stroke-width:0.3;" y2="-17.711" x1="48.754" y1="-15.713" x2="46.221"/>
  <line style="fill:none;stroke:#000000;stroke-width:0.3;" y2="-11.106" x1="54.756" y1="-10.199" x2="52.364"/>
  <line style="fill:none;stroke:#000000;stroke-width:0.3;" y2="-58.486" x1="12.881" y1="-56.19" x2="12.029"/>
  <line style="fill:none;stroke:#000000;stroke-width:0.3;" y2="-50.482" x1="20.684" y1="-51.582" x2="18.575"/>
  <line style="fill:none;stroke:#000000;stroke-width:0.3;" y2="-44.962" x1="26.135" y1="-45.149" x2="23.081"/>
  <line style="fill:none;stroke:#000000;stroke-width:0.3;" y2="-40.482" x1="12.771" y1="-40.269" x2="10.408"/>
  <line style="fill:none;stroke:#000000;stroke-width:0.3;" y2="-35.422" x1="33.673" y1="-38.392" x2="33.302"/>
  <line style="fill:none;stroke:#000000;stroke-width:0.3;" y2="-32.274" x1="40.178" y1="-29.629" x2="38.89"/>
  <line style="fill:none;stroke:#000000;stroke-width:0.3;" y2="-22.14" x1="47.331" y1="-24.599" x2="45.875"/>
  <line style="fill:none;stroke:#000000;stroke-width:0.3;" y2="-24.202" x1="33.846" y1="-25.774" x2="32.829"/>
  <line style="fill:none;stroke:#000000;stroke-width:0.3;" y2="-54.911" x1="21.7" y1="-56.149" x2="20.091"/>
  <line style="fill:none;stroke:#000000;stroke-width:0.3;" y2="-39.273" x1="41.059" y1="-37.871" x2="38.377"/>
  <line style="fill:none;stroke:#000000;stroke-width:0.3;" y2="-33.896" x1="26.075" y1="-32.04" x2="23.043"/>
  <line style="fill:none;stroke:#000000;stroke-width:0.3;" y2="-45.215" x1="30.304" y1="-47.69" x2="29.933"/>
  <line style="fill:none;stroke:#000000;stroke-width:0.3;" y2="-31.119" x1="47.7" y1="-30.748" x2="44.606"/>
  <line style="fill:none;stroke:#000000;stroke-width:0.3;" y2="-22.721" x1="55.117" y1="-22.273" x2="52.688"/>
  <line style="fill:none;stroke:#000000;stroke-width:0.3;" y2="-17.323" x1="55.351" y1="-14.848" x2="54.608"/>
  <line style="fill:none;stroke:#000000;stroke-width:0.3;" y2="-47.315" x1="3.851" y1="-48.553" x2="2.242"/>
  <line style="fill:none;stroke:#000000;stroke-width:0.3;" y2="-33.834" x1="16.608" y1="-36.309" x2="16.237"/>
  <line style="fill:none;stroke:#000000;stroke-width:0.3;" y2="-23.315" x1="29.664" y1="-21.335" x2="28.908"/>
  <line style="fill:none;stroke:#000000;stroke-width:0.3;" y2="-13.03" x1="40.522" y1="-10.555" x2="39.78"/>
  <line style="fill:none;stroke:#000000;stroke-width:0.3;" y2="-54.673" x1="5.197" y1="-52.941" x2="2.227"/>
  <line style="fill:none;stroke:#000000;stroke-width:0.3;" y2="-17.705" x1="41.95" y1="-17.065" x2="39.773"/>
  <line style="fill:none;stroke:#000000;stroke-width:0.3;" y2="-11.315" x1="47.583" y1="-9.132" x2="45.908"/>
  <line style="fill:none;stroke:#000000;stroke-width:0.3;" y2="-2.107" x1="48.992" y1="-3.94" x2="47.992"/>
  <line style="fill:none;stroke:#000000;stroke-width:0.3;" y2="-5.211" x1="54.43" y1="-3.178" x2="53.783"/>
  <line style="fill:none;stroke:#000000;stroke-width:0.3;" y2="-16.111" x1="35.742" y1="-17.148" x2="34.098"/>
  <line style="fill:none;stroke:#000000;stroke-width:0.3;" y2="-40.888" x1="18.959" y1="-38.165" x2="17.969"/>
  <line style="fill:none;stroke:#000000;stroke-width:0.3;" y2="-57.766" x1="47.33" y1="-56.652" x2="44.731"/>
  <line style="fill:none;stroke:#000000;stroke-width:0.3;" y2="-46.148" x1="55.242" y1="-49.648" x2="54.908"/>
  <line style="fill:none;stroke:#000000;stroke-width:0.3;" y2="-50.531" x1="48.424" y1="-50.044" x2="45.079"/>
  <line style="fill:none;stroke:#000000;stroke-width:0.3;" y2="-54.895" x1="55.092" y1="-55.082" x2="52.037"/>
  <line style="fill:none;stroke:#000000;stroke-width:0.3;" y2="-52.148" x1="39.908" y1="-49.315" x2="38.575"/>
  <line style="fill:none;stroke:#000000;stroke-width:0.3;" y2="-41.948" x1="56.679" y1="-40.607" x2="54.191"/>
  <line style="fill:none;stroke:#000000;stroke-width:0.3;" y2="-56.378" x1="33.121" y1="-57.615" x2="31.512"/>
  <line style="fill:none;stroke:#000000;stroke-width:0.3;" y2="-41.048" x1="47.687" y1="-43.523" x2="47.316"/>
  <line style="fill:none;stroke:#000000;stroke-width:0.3;" y2="-30.188" x1="55.241" y1="-27.341" x2="54.869"/>
  <line style="fill:none;stroke:#000000;stroke-width:0.3;" y2="-52.399" x1="33.179" y1="-51.732" x2="30.346"/>
  <line style="fill:none;stroke:#000000;stroke-width:0.3;" y2="-36.482" x1="48.408" y1="-36.482" x2="46.263"/>
  <line style="fill:none;stroke:#000000;stroke-width:0.3;" y2="-8.64" x1="24.289" y1="-7.897" x2="21.442"/>
  <line style="fill:none;stroke:#000000;stroke-width:0.3;" y2="-6.331" x1="5.242" y1="-6.148" x2="7.271"/>
  <line style="fill:none;stroke:#000000;stroke-width:0.3;" y2="-23.036" x1="4.344" y1="-22.294" x2="1.375"/>
  <line style="fill:none;stroke:#000000;stroke-width:0.3;" y2="-21.556" x1="23.075" y1="-22.648" x2="21.556"/>
  <line style="fill:none;stroke:#000000;stroke-width:0.3;" y2="-15.008" x1="5.385" y1="-11.667" x2="4.642"/>
  <line style="fill:none;stroke:#000000;stroke-width:0.3;" y2="-1.065" x1="25.636" y1="-2.354" x2="22.992"/>
  <line style="fill:none;stroke:#000000;stroke-width:0.3;" y2="-4.985" x1="16.485" y1="-3.528" x2="14.026"/>
  <line style="fill:none;stroke:#000000;stroke-width:0.3;" y2="-16.116" x1="18.179" y1="-13.669" x2="16.771"/>
  <line style="fill:none;stroke:#000000;stroke-width:0.3;" y2="-28.607" x1="11.554" y1="-26.44" x2="10.387"/>
  <line style="fill:none;stroke:#000000;stroke-width:0.3;" y2="-33.75" x1="9.408" y1="-35.482" x2="8.145"/>
  <line style="fill:none;stroke:#000000;stroke-width:0.3;" y2="-40.815" x1="3.062" y1="-42.842" x2="2.742"/>
  <line style="fill:none;stroke:#000000;stroke-width:0.3;" y2="-21.064" x1="9.242" y1="-23.315" x2="8.291"/>
  <line style="fill:none;stroke:#000000;stroke-width:0.3;" y2="-28.851" x1="17.075" y1="-27.148" x2="16.135"/>
  <line style="fill:none;stroke:#000000;stroke-width:0.3;" y2="-20.482" x1="17.287" y1="-22.098" x2="15.575"/>
  <line style="fill:none;stroke:#000000;stroke-width:0.3;" y2="-7.801" x1="29.617" y1="-9.669" x2="28.719"/>
  <line style="fill:none;stroke:#000000;stroke-width:0.3;" y2="-16.343" x1="23.908" y1="-13.982" x2="23.09"/>
  <line style="fill:none;stroke:#000000;stroke-width:0.3;" y2="-7.551" x1="15.742" y1="-10.482" x2="15.327"/>
  <line style="fill:none;stroke:#000000;stroke-width:0.3;" y2="-6.972" x1="37.721" y1="-7.836" x2="35.702"/>
  <line style="fill:none;stroke:#000000;stroke-width:0.3;" y2="-1.219" x1="4.084" y1="-3.446" x2="3.238"/>
  <line style="fill:none;stroke:#000000;stroke-width:0.3;" y2="-30.194" x1="3.054" y1="-29.378" x2="0.882"/>
  <line style="fill:none;stroke:#000000;stroke-width:0.3;" y2="-34.822" x1="3.742" y1="-35.315" x2="1.684"/>
  <line style="fill:none;stroke:#000000;stroke-width:0.3;" y2="-15.14" x1="12.283" y1="-14.336" x2="9.614"/>
  <line style="fill:none;stroke:#000000;stroke-width:0.3;" y2="-13.315" x1="31.075" y1="-15.148" x2="30.261"/>
  <line style="fill:none;stroke:#000000;stroke-width:0.3;" y2="-44.925" x1="39.82" y1="-44.183" x2="36.974"/>
  <line style="fill:none;stroke:#000000;stroke-width:0.3;" y2="-1.961" x1="36.387" y1="-3.794" x2="35.573"/>
 </g>
</svg>
