<?xml version="1.0"?>
<!-- Converted with SVG Converter - Version 0.9.5 (Compiled Fri Feb 21 09:53:38 2020) - Copyright (C) 2011 Nokia -->
<svg xmlns="http://www.w3.org/2000/svg" version="1.1" height="54.167" baseProfile="tiny" xmlns:xlink="http://www.w3.org/1999/xlink" width="54.167" x="0px" xml:space="preserve" viewBox="1.6 -55.767 54.167 54.167" y="0px">
 <g>
  <rect style="fill:none;" height="54.167" width="54.167" x="1.6" y="-55.767"/>
  <path style="fill:none;stroke:#000000;stroke-width:0.3;" d="M55.767-53.651c-4.094,3.662-6.975,5.993-6.25,6.718    c0.75,0.75-1,2.167-3.5,4.667s-7.333,6.917-6.667,8.583c0,0,0.583,0.854,0.083,1.292c-0.5,0.438-8.688,9.188-9.313,9.75    s-1.188,1.688-1.062,2.25s0.125,1.375-0.625,2.125s-6.188,6.438-7.062,7.312"/>
  <path style="fill:none;stroke:#000000;stroke-width:0.3;" d="M55.767-51.737c-2.302,2.033-4.494,3.369-4.417,4.137    c0.083,0.833,0.75,1-0.5,2.333c-0.128,0.137-0.301,0.317-0.51,0.532"/>
  <path style="fill:none;stroke:#000000;stroke-width:0.3;" d="M50.34-44.734c-1.692,1.747-5.722,5.775-7.129,7.122"/>
  <path style="fill:none;stroke:#000000;stroke-width:0.3;" d="M43.211-37.612c-0.109,0.104-0.203,0.192-0.278,0.262    c-1.167,1.083-2.083,2.5-1.833,3.333c0.25,0.833,0.333,1.25-0.5,2.083c0,0-6.979,7.229-7.792,7.979    c-0.813,0.75-1.688,2.062-1.625,2.75s0.312,1.312-0.25,1.938c-0.113,0.126-0.514,0.552-1.089,1.16"/>
  <path style="fill:none;stroke:#000000;stroke-width:0.3;" d="M24.485-12.461c-1.263,1.33-2.283,2.404-2.552,2.695    c-0.812,0.875-1.188,1.25-1.062,1.875s0.5,1.188,0.125,1.625s-2.812,3-2.812,3"/>
  <path style="fill:none;stroke:#000000;stroke-width:0.3;" d="M50.683-54.934c-1.167,1.25-5.333,4.167-5.167,5.167    s0.5,1.333-0.083,1.917"/>
  <path style="fill:none;stroke:#000000;stroke-width:0.3;" d="M41.35-52.934c-1.5,1.583-2.75,3-3.083,3.333s-0.5,0.667-0.333,1.5    c0.167,0.833-0.083,0.583-0.917,1.417c-0.833,0.833-3.583,3.75-3.583,3.75"/>
  <path style="fill:none;stroke:#000000;stroke-width:0.3;" d="M38.1-53.85c-1.417,1.5-3.417,3.417-4,3.917    c-0.583,0.5-0.833,0.583-0.833,1.333s-0.583,1.75-1.667,2.917"/>
  <path style="fill:none;stroke:#000000;stroke-width:0.3;" d="M16.433-30.642c0.438-0.312,2.75-2.813,3.25-3.375    s0.438-1,0.438-1.688s0.625-1.5,1.375-2.25s8.438-8.562,8.438-8.562c0.917-0.917,1-1.417,1-2.083s0-0.833,0.583-1.5    c0.538-0.614,2.985-3.068,5.518-5.667"/>
  <path style="fill:none;stroke:#000000;stroke-width:0.3;" d="M28.017-46.6c0.917-0.917,1.083-1.167,0.833-2.083    c-0.25-0.917,0-1.75,0.75-2.417c0.658-0.584,3.24-2.965,4.82-4.667"/>
  <path style="fill:none;stroke:#000000;stroke-width:0.3;" d="M22.35-45.684c0,0,0.667-0.667,1.5-1.583    c0.833-0.917,0.917-1.333,0.583-2.25c-0.333-0.917,0.25-0.917,0.833-1.667c0.53-0.681,2.573-2.875,4.191-4.583"/>
  <path style="fill:none;stroke:#000000;stroke-width:0.3;" d="M1.6-29.01c2.047-2.234,6.693-7.26,7.333-8.006    c0,0,0.625-0.562,1-1.125s0.438-0.438,0.25-1.062s-0.375-0.875-0.062-1.188s0.646-0.708,0.646-0.708    c0.333-0.333,5.417-4.917,6.167-5.5s1.083-1.25,0.917-2.167c-0.167-0.917-0.083-1,0.583-1.583    c0.578-0.505,3.653-3.446,5.821-5.417"/>
  <path style="fill:none;stroke:#000000;stroke-width:0.3;" d="M6.1-36.184c1-1,1.667-1.75,1.667-2.917s0.666-1.833,1.666-2.667    c1-0.833,4.667-4.5,5.75-5.417c1.083-0.917,1-1.5,1-2.167s0.083-0.667,0.917-1.583c0.701-0.771,3.233-3.079,4.961-4.833"/>
  <path style="fill:none;stroke:#000000;stroke-width:0.3;" d="M17.1-52.934c0.544-0.476,1.475-1.45,2.795-2.833"/>
  <path style="fill:none;stroke:#000000;stroke-width:0.3;" d="M14.183-49.35c-1.583,1.667-4.917,5-6.333,6.333    c-1.417,1.333-2.083,1.854-2.167,2.688l-0.25,1.312c-0.125,0.875-0.125,1.25-1.125,2.375c-0.565,0.636-1.768,1.55-2.708,2.226"/>
  <line style="fill:none;stroke:#000000;stroke-width:0.3;" y2="-55.767" x2="3.819" x1="2.121" y1="-54.1"/>
  <path style="fill:none;stroke:#000000;stroke-width:0.3;" d="M4.767-54.517l-2.563,2.25c-0.201,0.188-0.403,0.37-0.604,0.547"/>
  <path style="fill:none;stroke:#000000;stroke-width:0.3;" d="M1.6-49.703c0.239-0.216,0.473-0.433,0.688-0.647L8.5-55.767"/>
  <path style="fill:none;stroke:#000000;stroke-width:0.3;" d="M1.6-45.641c0.649-0.65,1.191-1.192,1.52-1.522    c1.417-1.417,1.417-1.583,1.25-2.417c-0.167-0.833,1.75-2.167,3-3.417l3.178-2.771"/>
  <path style="fill:none;stroke:#000000;stroke-width:0.3;" d="M13.138-55.767L8.933-52.1c-1.25,1.25-3.166,2.583-3,3.417    c0.167,0.833,0.167,1-1.25,2.417C4.111-45.695,2.9-44.484,1.6-43.178"/>
  <path style="fill:none;stroke:#000000;stroke-width:0.3;" d="M22.021-1.6c0.341-0.345,0.652-0.67,0.913-0.958    c0,0,1.25-1.458,2.083-2.292S26.1-5.934,25.85-6.934s-0.75-1.75,2.417-4.916s4.584-5.083,4.584-5.083s2.167-2.25,3-3.25    c0.833-1,0.167-1.5,0.167-2.333c0-0.833,0.833-1.5,1.75-2.5s9.708-9.646,9.708-9.646c0.75-0.75,1.083-1.5,0.833-2.167    c-0.25-0.667,0.333-1.583,1.25-2.583c0.71-0.775,4.071-4.15,6.208-6.29"/>
  <path style="fill:none;stroke:#000000;stroke-width:0.3;" d="M55.767-11.648c-0.466,0.418-0.81,0.733-0.958,0.882    c0,0-0.375,0.312-0.375,0.688s0.5,0.812,0.125,1.312s-3.25,3.187-3.75,3.625s-0.938,1-0.75,1.438s0.5,0.5,0.312,0.875    s-0.438,0.688-0.438,0.688c-0.175,0.146-0.398,0.33-0.653,0.541"/>
  <path style="fill:none;stroke:#000000;stroke-width:0.3;" d="M47.35-2.392c-0.234,0.245-0.5,0.511-0.786,0.791"/>
  <path style="fill:none;stroke:#000000;stroke-width:0.3;" d="M55.121-25.579c-0.938,0.938-3.188,3.438-3.812,4.125    s-1.312,1.312-1.312,2s0.5,1.188,0.125,1.75s-4.312,4.688-4.312,4.688c-0.812,0.812-2.75,2.625-3.562,3.5s-0.875,0.688-0.812,1.5    s0.625,1.25-0.188,2.25s-0.812,0.625-3.562,3.458c-0.229,0.237-0.46,0.473-0.689,0.708"/>
  <path style="fill:none;stroke:#000000;stroke-width:0.3;" d="M34.382-1.6c0.236-0.253,0.451-0.492,0.635-0.708"/>
  <path style="fill:none;stroke:#000000;stroke-width:0.3;" d="M32.35-2.475c-0.201,0.241-0.46,0.54-0.755,0.875"/>
  <path style="fill:none;stroke:#000000;stroke-width:0.3;" d="M55.767-34.445c-0.744,0.536-1.333,0.929-1.333,0.929    s-0.938,0.75-1.125,1.188c-0.188,0.438-0.062,1-0.062,1.5s-1.312,2.188-1.312,2.188c-1,1.062-5.562,5.5-6.312,6.125    s-1.25,1.25-1.188,1.938s0.438,1.688-0.25,2.25s-5.812,5.75-6.75,6.625s-1.5,1.5-1.5,2.125s0.5,1.125-0.062,1.812    s-3.938,3.375-4.938,4.5s0.667-0.625-1,1.125c-0.164,0.173-0.337,0.355-0.514,0.541"/>
  <path style="fill:none;stroke:#000000;stroke-width:0.3;" d="M33.85-15.684c0,0-3.584,3.75-4.667,4.917    C28.1-9.6,28.267-8.267,28.35-7.1c0.083,1.167-0.75,1.917-1.417,2.667c-0.667,0.75-1.75,1.958-1.75,1.958    c-0.292,0.257-0.622,0.554-0.975,0.875"/>
  <path style="fill:none;stroke:#000000;stroke-width:0.3;" d="M55.767-49.722c-1.164,1.052-2.472,2.094-2.333,2.789    c0.167,0.833,0.167,1-1.25,2.417c-1.417,1.417-6.75,6.75-7.667,7.75s-1.5,1.917-1.25,2.583c0.25,0.667-0.083,1.417-0.833,2.167    c0,0-6.688,6.75-7.5,7.688s-1.438,2-1.25,2.5s0.5,1.375-0.125,2s-8.063,9-8.5,9.438s-1.75,1.812-1.812,2.312    s0.562,1.187,0.562,1.812s-1.812,2.313-2.375,2.938L20.85-2.642c-0.354,0.369-0.685,0.717-0.995,1.041"/>
  <path style="fill:none;stroke:#000000;stroke-width:0.3;" d="M46.606-55.767c-1.958,1.919-4.941,4.507-5.673,5.167    c-0.833,0.75-0.833,1.083-0.667,2.167c0.167,1.083-0.75,2.167-1.917,3.167c0,0-8.667,8.75-9.334,9.417s-0.417,1-0.333,1.833    c0.083,0.833-0.75,1.417-1.25,2.083c-0.5,0.667-7,7.167-8.167,8.167s-0.917,1.25-0.833,2.083c0.083,0.833-0.5,1.583-1.583,2.667    c-1.083,1.083-6.5,6.833-7.583,7.917s-0.5,1.25,0,2.083c0.5,0.833,0.417,1.666-0.333,2.333c-0.75,0.667-3.5,3.458-3.5,3.458    L3.777-1.6"/>
  <line style="fill:none;stroke:#000000;stroke-width:0.3;" y2="-1.6" x2="8.452" x1="9.933" y1="-2.892"/>
  <path style="fill:none;stroke:#000000;stroke-width:0.3;" d="M10.5-1.6l4.516-3.938c0,0,0.917-0.917,1.292-1.354    s0.438-1.25,0.25-1.687s1.688-2.25,3.875-4.438s4.625-4.562,5.125-5s0.988-0.711,0.625-1.438c-0.25-0.5,0.404-1.375,1.812-3"/>
  <line style="fill:none;stroke:#000000;stroke-width:0.3;" y2="-1.6" x2="13.091" x1="16.579" y1="-4.642"/>
  <path style="fill:none;stroke:#000000;stroke-width:0.3;" d="M49.33-55.767c-1.914,1.585-5.832,4.832-5.98,5.5    c-0.167,0.75,0.583,1.75-0.167,2.583c-0.75,0.833-3.583,3.667-4.583,4.5c0,0-5.667,5.604-6.479,6.417    c-0.813,0.812-1,1.375-0.813,2.188s0.312,0.875-1.25,2.625c-1.562,1.75-8.188,8.375-8.875,9.062s-0.688,1.062-0.5,1.938    s-0.312,1.312-1.375,2.375s-5.75,6.125-7,7.438s-0.875,1.875-0.625,2.5s0.625,1.125,0,1.812s-4.062,3.75-4.937,4.562"/>
  <path style="fill:none;stroke:#000000;stroke-width:0.3;" d="M24.871-23.767c0.875-0.875,8.563-8.938,8.563-8.938    c0.688-0.688,1.375-1.375,1.188-2.125s-0.188-1.25,0.5-1.812s7.312-7.125,7.812-7.625"/>
  <path style="fill:none;stroke:#000000;stroke-width:0.3;" d="M34.371-16.142c0,0,3.625-3.562,4.25-4.312s0.75-1.062,0.562-1.938    s0.438-1.438,0.938-2s3.062-3.5,4.375-4.812l1.438-1.5c0.75-0.812,3.104-3.063,3.104-3.063c0.75-0.75,1.083-1.5,0.833-2.167    c-0.25-0.667,0.333-1.583,1.25-2.583c0.552-0.603,2.709-2.78,4.646-4.724"/>
  <path style="fill:none;stroke:#000000;stroke-width:0.3;" d="M29.433-39.267c-1.833,2.083-2.75,3.417-3.167,3.917    s-0.583,0.917-0.417,1.5c0.167,0.583-0.167,0.917-0.667,1.417c-0.5,0.5-2.583,2.417-2.583,2.417"/>
  <path style="fill:none;stroke:#000000;stroke-width:0.3;" d="M15.204-55.434c-1.833,2.083-6.5,5.854-6.917,6.354    c-0.417,0.5-0.583,0.917-0.417,1.5c0.167,0.583-0.167,0.917-0.667,1.417s-4.083,3.979-4.083,3.979"/>
  <path style="fill:none;stroke:#000000;stroke-width:0.3;" d="M20.683-27.85c0,0-4,4.5-4.417,4.917    c-0.417,0.417-0.75,0.833-0.667,1.583c0.083,0.75,0.083,0.917-0.333,1.333c-0.417,0.417-2.833,2.75-2.833,2.75"/>
  <path style="fill:none;stroke:#000000;stroke-width:0.3;" d="M43.371-23.329c-0.812,1-1.5,1.625-1.375,2.312    s0.25,1.562-0.375,2.25s-4.688,4.438-5.312,5.125s-1.75,1.875-1.625,2.688s0.25,1.188-0.375,2s-4.938,4.937-5.563,5.625"/>
  <path style="fill:none;stroke:#000000;stroke-width:0.3;" d="M11.767-15.85c0,0-3.417,3.166-3.833,3.416    C7.517-12.184,6.35-10.6,7.183-9.35c0.31,0.465,0,0.583-0.5,1.166C6.336-7.778,3.376-5.123,1.6-3.537"/>
  <path style="fill:none;stroke:#000000;stroke-width:0.3;" d="M14.808-26.142c-1.5,1.5-2.625,2.625-3.375,3.375s-1.375,1.25-1.25,2    s-0.5,1.75-1.75,3c-1.01,1.01-4.959,4.469-6.833,6.155"/>
  <path style="fill:none;stroke:#000000;stroke-width:0.3;" d="M15.308-29.267c-2.5,2.5-4.25,3.875-5,4.875s-1.5,1.25-1.625,2.625    s-0.25,1.25-1.25,2.25c-0.734,0.734-4.098,3.626-5.833,5.11"/>
  <path style="fill:none;stroke:#000000;stroke-width:0.3;" d="M1.6-16.823c1.483-1.321,4.091-3.628,4.708-4.069    c0.875-0.625,0.75-1.625,0.75-2.5s0.5-1.125,1.75-2.25s5.5-5,7.125-6.625c0,0,1.312-1.625,1.688-2s0.375-0.688,0.438-1.5    s-0.125-1.062,0.812-2.062s7.438-7.125,8.25-7.875"/>
  <path style="fill:none;stroke:#000000;stroke-width:0.3;" d="M1.6-18.849c0.739-0.681,1.749-1.636,2.333-2.293    c1-1.125,1.125-0.625,1.125-2s1-1.875,1.875-2.875s3.217-2.904,4.625-4.5c0.938-1.062,1.562-1.438,2.312-2.25    c0.75-0.812,1.562-1.375,2.125-2s0.438-1.5,0.438-2.25s0.438-1,0.938-1.562c0,0,1.25-1.25,2.375-2.312s6.021-5.958,6.021-5.958    c0.917-0.917,1.167-1.333,0.833-2.083c-0.333-0.75,0-1.083,0.5-1.75c0.423-0.564,2.993-3.335,4.532-5.083"/>
  <path style="fill:none;stroke:#000000;stroke-width:0.3;" d="M8.808-30.392c-1.75,1.875-3.125,3.375-4,4.25s-1.375,1.25-1.5,2.125    s-0.125,1.25-0.625,1.625C2.429-22.201,1.98-21.913,1.6-21.676"/>
  <path style="fill:none;stroke:#000000;stroke-width:0.3;" d="M5.558-35.767c-1.2,1.527-2.686,2.959-3.958,4.13"/>
  <path style="fill:none;stroke:#000000;stroke-width:0.3;" d="M20.183-43.767c-1.875,1.875-3.625,3.5-4.375,4.25    s-1.125,1.5-1.25,2.125s-0.125,1.25-0.875,2s-2.125,2.125-2.125,2.125"/>
  <path style="fill:none;stroke:#000000;stroke-width:0.3;" d="M55.767-3.574c-0.447,0.398-0.822,0.733-1.067,0.951"/>
  <path style="fill:none;stroke:#000000;stroke-width:0.3;" d="M47.808-2.829c0,0,0.562-0.312,0.812-0.625s0.125-0.688,0.062-1.125    s0.5-0.812,1.125-1.5s2.688-2.375,2.938-3s0-0.5-0.188-1s-0.375-1,0.125-1.438s2-2,2-2s0.433-0.368,1.083-0.925"/>
  <path style="fill:none;stroke:#000000;stroke-width:0.3;" d="M55.767-16.859c-0.642,0.571-1.083,0.968-1.083,0.968    s-0.875,0.312-0.938,0.812s-0.125,0.938-0.625,1.562s-1.188,1.188-2.75,2.625s-3.938,3.375-4,4.25s0.375,1.125-0.188,1.625    s-2.375,2.5-2.375,2.5"/>
  <path style="fill:none;stroke:#000000;stroke-width:0.3;" d="M54.808-18.017c0,0,0.411-0.365,0.958-0.871"/>
  <path style="fill:none;stroke:#000000;stroke-width:0.3;" d="M55.767-21.702c-0.384,0.24-0.708,0.435-0.708,0.435    s-1.188,1.062-1.5,1.625s-0.25,1.25-0.25,1.812s-0.312,1.062-1.062,1.812s-6.312,5.438-7.188,6.5c0,0-0.812,0.938-1.125,1.188    s-0.75,0.875-0.625,1.437s0.312,1.375-0.062,1.812s-2.812,2.688-3.312,3.188"/>
  <path style="fill:none;stroke:#000000;stroke-width:0.3;" d="M33.871-3.954c0.938-1,3.75-3.25,4.188-3.875    s-0.25-1.062-0.188-1.812s0.75-1.125,2.312-2.812s5.938-6.125,6.562-7s0.312-1.312,0.062-1.688s0.562-1.25,1.125-1.875    s1.125-1.188,2.25-2.25c1.057-0.999,2.636-2.464,3.5-3.25c0.688-0.625,1.5-2.625,1.5-2.625c0.188-0.171,0.383-0.349,0.583-0.534"/>
  <path style="fill:none;stroke:#000000;stroke-width:0.3;" d="M54.933-28.142c0.171-0.19,0.462-0.509,0.833-0.914"/>
  <path style="fill:none;stroke:#000000;stroke-width:0.3;" d="M19.121-31.517c0,0,1.688-1.5,2.25-2.125s0.812-1.312,0.938-2.188    s0.562-1,1.438-2s2.5-2.625,4.625-4.812"/>
  <path style="fill:none;stroke:#000000;stroke-width:0.3;" d="M55.058-37.142c-1.188,1.375-3.312,3.875-3.875,4.438    s-0.625,0.813-0.625,1.438s0.062,0.875-0.688,1.625s-4,3.938-4,3.938"/>
 </g>
</svg>
