<?xml version="1.0"?>
<!-- Converted with SVG Converter - Version 0.9.5 (Compiled Fri Feb 21 09:53:38 2020) - Copyright (C) 2011 Nokia -->
<svg xmlns="http://www.w3.org/2000/svg" y="0px" xml:space="preserve" width="52.75" viewBox="1.6 -54.35 52.75 52.75" baseProfile="tiny" xmlns:xlink="http://www.w3.org/1999/xlink" x="0px" height="52.75" version="1.1">
 <g>
  <rect y="-54.35" style="fill:none;" width="52.75" x="1.6" height="52.75"/>
  <path d="M1.6-43.031c1.886-2.71,3.417-3.267,5.371-3.612    c2.202-0.389,2.125-2.25,3-3.875s2-1.875,3.375-2.5c0.794-0.361,1.171-0.805,1.444-1.333" style="fill:none;stroke:#000000;stroke-width:0.3;"/>
  <path d="M1.6-40.24c0.31-0.479,0.553-0.924,0.746-1.278    c0.75-1.375,3.5-2.875,5.25-3.375s2.5-1.125,3.75-3.125s2-2.75,3.5-3.25c1.263-0.421,1.728-1.374,2.516-3.083" style="fill:none;stroke:#000000;stroke-width:0.3;"/>
  <path d="M1.6-37.631c0.957-0.952,1.789-2.038,2.246-2.887    c0.875-1.625,1.375-1.5,3.5-2.375s3.75-1.875,4.375-3.125s2.125-2.5,3.75-3.625c1.377-0.953,2.842-2.624,3.942-4.708" style="fill:none;stroke:#000000;stroke-width:0.3;"/>
  <path d="M1.6-26.5c0.958-1.641,3.183-3.985,4.996-4.892    c2-1,3.125-2.625,4-4.625s3.625-4.25,6.125-5.5s3.75-4.375,4.625-5.875s5.125-3.5,6.75-4.375c1.167-0.628,1.561-1.643,1.782-2.583    " style="fill:none;stroke:#000000;stroke-width:0.3;"/>
  <path d="M1.6-23.787c0.885-1.079,1.659-2.249,2.121-3.105    c0.875-1.625,3-2.875,5-4.375c2-1.5,2.75-3.75,3.375-4.75s3.375-3.25,5.625-4.375s4.125-4.75,4.875-6s3.125-2.625,5.625-3.625    c1.927-0.771,2.815-2.73,3.292-4.333" style="fill:none;stroke:#000000;stroke-width:0.3;"/>
  <path d="M1.6-11.172c1.617-0.856,3.271-1.73,4.433-2.47    c1.375-0.875,3.563-3.25,4.063-4.875s3.375-3.125,4.75-3.625c1.898-0.69,3.375-3.5,3.875-4.875s2.375-3.25,5-4.25    c2.625-1,5.25-5.625,6-7.125s3.875-3.75,5.625-4.375s3.375-3.5,3.875-4.875s2.25-3.5,4-4.25c1.206-0.517,1.877-1.568,2.219-2.458" style="fill:none;stroke:#000000;stroke-width:0.3;"/>
  <path d="M1.6-9.292c1.408-1.087,3.499-2.582,4.933-2.726    c2.728-0.272,3.688-2.5,4.438-4.375s2.5-2.75,3.75-3.5c1.695-1.017,3.937-2.562,5.187-6.312c1.08-3.239,4.588-3.389,7.312-5.75    c1.875-1.625,2.722-3.616,4.188-5.875c1.5-2.312,3.688-3.188,5.688-4.188s3.375-4.625,4.125-6.125s1.75-1.5,3.25-2.5    c1.229-0.82,2.585-2.101,3.171-3.708" style="fill:none;stroke:#000000;stroke-width:0.3;"/>
  <path d="M1.6-6.798c1.585-1.201,4.29-3.612,6.996-4.22    c3.109-0.698,3.875-3.25,4.5-4.875s2-1.75,4.125-2.625s3.375-4.875,3.938-5.938c0.941-1.779,1.312-1.625,2.938-2.562    s2.25-1.438,3.062-2.688s2.125-2.5,3.312-3.438s1.312-1.625,2.125-3.125s4.75-3.438,6.188-4.625s2.188-2,2.688-4.25    s3.438-3.438,5.25-4.625c1.526-1,2.83-2.664,3.242-4.583" style="fill:none;stroke:#000000;stroke-width:0.3;"/>
  <path d="M1.6-4.974c1.748-1.199,6.277-3.456,8.996-4.857    c2.062-1.062,3.625-3.188,4-4.562s0.625-1,1.25-1.5c0.625-0.5,0.75-0.625,1.75-1.625s2.625-1.625,3.938-3    c0.824-0.864,0.812-2.25,1.25-3.312s1.062-1.125,2.812-2.188s2.5-2.562,3.375-3.875s2.062-2.125,3.5-3s1.5-2.062,2.25-3.25    s3.938-2.312,5.312-3.125s2.5-2.688,2.938-4.938s2.312-2.812,3.562-3.312s1.625-1,3.25-2.438c1.402-1.241,2.199-2.947,2.432-4.395    " style="fill:none;stroke:#000000;stroke-width:0.3;"/>
  <path d="M1.6-20.785c1.057-0.988,1.789-2.335,2.371-3.983    c0.75-2.125,2.625-3,5.125-4.375s3.5-3.625,4.5-5.625s2.25-2.75,4.75-3.625s3.75-3.625,4.75-5.75s2.625-2.625,5.625-3.875    c2.499-1.041,3.87-4.163,4.691-6.333" style="fill:none;stroke:#000000;stroke-width:0.3;"/>
  <path d="M54.35-43.001c-0.159,0.229-0.32,0.473-0.484,0.734    c-1.014,1.611-1.885,3.466-4.5,4.25c-0.833,0.25,0,0-1.021,0.375c-1.021,0.375-2.75,2.25-3.625,4c-0.875,1.75-2,2.75-5.125,4.125    s-3.125,2.75-3.875,4.5s-2.75,3-4.25,3.75s-2.875,1.875-3.375,3.5s-2.125,3.125-4.625,5s-4.25,3.375-5.75,4.875l-2.375,5    C15.134-2.417,14.99-1.986,14.79-1.6" style="fill:none;stroke:#000000;stroke-width:0.3;"/>
  <path d="M54.35-20.765c-0.3,0.278-0.627,0.528-0.984,0.748    c0,0-0.708,0.5-1.708,1.188s-2.25,0.438-3.188,1.75s-2.062,2.812-3.125,3.062s-2.312,0.875-3.562,2.25s-1.75,1.875-3.625,3.5    s-3.438,3.125-3.688,3.75s-0.625,1.75-0.625,1.75C33.72-2.433,33.577-2.036,33.412-1.6" style="fill:none;stroke:#000000;stroke-width:0.3;"/>
  <path d="M54.35-40.208c-0.895,1.374-2.339,3.013-4.734,3.565l-2.146,1.125    c-1,1-1.375,3.5-3.25,4.875c-1.875,1.375-5.5,3.25-6.875,5.25s-1.75,4.875-4.125,5.625s-3,1.5-4.125,3.5s-2.25,3.5-4.75,5.25    s-5.375,6-6.5,8.375C17.668-2.268,17.509-1.92,17.361-1.6" style="fill:none;stroke:#000000;stroke-width:0.3;"/>
  <path d="M54.35-37.61c-0.871,0.863-1.845,1.612-2.734,1.968l-2.646,1.875    c-0.875,1.125-3.25,4.75-5.125,5.625s-4.25,1.75-5,3.125s-3.5,6.125-5.625,7.125s-3.25,2.875-4.25,4.375s-0.875,3.25-3.125,4.25    s-4.75,3.875-5.875,6.5c-0.172,0.401-0.359,0.791-0.558,1.168" style="fill:none;stroke:#000000;stroke-width:0.3;"/>
  <path d="M29.877-1.6c0.087-0.369,0.148-0.726,0.218-1.043    c0.25-1.125,0.625-4.188,1.5-5.375s3.562-2.375,5.125-3.062s3.438-3.5,4.188-4.75s3.188-2.125,4.438-3.312s1.188-1.438,1.812-2.25    l1.833-0.875c1.875-0.5,4.375-2.125,5.125-3.75c0.065-0.141,0.144-0.291,0.234-0.447" style="fill:none;stroke:#000000;stroke-width:0.3;"/>
  <path d="M31.512-1.6c0.142-0.476,0.248-0.92,0.333-1.293    c0.375-1.625,1.25-3.125,2.188-4.125s3-2.5,4.312-3.562s2.938-2.562,3.75-3.875s1.375-1.125,2.75-1.687    c1.375-0.562,1.562-1.312,2.25-2.188s1.812-1.438,3.062-2.125l1.708-0.938c0.82-0.527,1.695-1.412,2.484-2.37" style="fill:none;stroke:#000000;stroke-width:0.3;"/>
  <path d="M45.44-1.6c0.155-0.401,0.242-0.77,0.281-1.043    c0,0,0.375-3.25,1.062-4.125s1.188-1.188,3.25-2.188s2.875-1.375,2.875-1.375l0.567-0.375c0.288-0.154,0.581-0.309,0.875-0.465" style="fill:none;stroke:#000000;stroke-width:0.3;"/>
  <path d="M47.642-1.6c0.129-0.353,0.221-0.722,0.266-1.105    c0,0,0.75-2.25,1.562-3s2.692-1.875,3.817-2.75c0.264-0.205,0.631-0.5,1.062-0.833" style="fill:none;stroke:#000000;stroke-width:0.3;"/>
  <path d="M49.962-1.6c0.078-0.36,0.124-0.73,0.133-1.105    c0,0,0.438-1.312,1.5-2.188s0.328-0.284,2.192-1.5c0.167-0.108,0.355-0.245,0.562-0.402" style="fill:none;stroke:#000000;stroke-width:0.3;"/>
  <path d="M54.35-4.97c-0.176,0.121-0.323,0.231-0.438,0.328    c-1.281,1.089-0.692,0.5-1.067,1s-0.562,1.375-0.562,1.375C52.275-2.054,52.251-1.83,52.215-1.6" style="fill:none;stroke:#000000;stroke-width:0.3;"/>
  <line style="fill:none;stroke:#000000;stroke-width:0.3;" x2="2.658" y2="-52.705" y1="-52.08" x1="5.033"/>
  <line style="fill:none;stroke:#000000;stroke-width:0.3;" x2="2.721" y2="-46.705" y1="-48.83" x1="3.471"/>
  <line style="fill:none;stroke:#000000;stroke-width:0.3;" x2="16.325" y2="-49.538" y1="-50.268" x1="18.346"/>
  <line style="fill:none;stroke:#000000;stroke-width:0.3;" x2="20.116" y2="-49.059" y1="-47.184" x1="20.491"/>
  <line style="fill:none;stroke:#000000;stroke-width:0.3;" x2="48.783" y2="-28.893" y1="-30.768" x1="48.408"/>
  <line style="fill:none;stroke:#000000;stroke-width:0.3;" x2="21.346" y2="-50.643" y1="-53.351" x1="22.471"/>
  <line style="fill:none;stroke:#000000;stroke-width:0.3;" x2="51.158" y2="-29.455" y1="-30.643" x1="52.971"/>
  <line style="fill:none;stroke:#000000;stroke-width:0.3;" x2="15.7" y2="-45.038" y1="-46.101" x1="13.45"/>
  <line style="fill:none;stroke:#000000;stroke-width:0.3;" x2="17.616" y2="-44.018" y1="-46.268" x1="17.741"/>
  <line style="fill:none;stroke:#000000;stroke-width:0.3;" x2="49.096" y2="-14.143" y1="-12.893" x1="47.158"/>
  <line style="fill:none;stroke:#000000;stroke-width:0.3;" x2="51.408" y2="-11.143" y1="-13.018" x1="51.033"/>
  <line style="fill:none;stroke:#000000;stroke-width:0.3;" x2="11.971" y2="-41.018" y1="-41.83" x1="13.908"/>
  <line style="fill:none;stroke:#000000;stroke-width:0.3;" x2="10.221" y2="-53.268" y1="-52.455" x1="8.283"/>
  <line style="fill:none;stroke:#000000;stroke-width:0.3;" x2="10.033" y2="-41.58" y1="-43.58" x1="10.783"/>
  <line style="fill:none;stroke:#000000;stroke-width:0.3;" x2="7.908" y2="-40.58" y1="-40.518" x1="5.471"/>
  <line style="fill:none;stroke:#000000;stroke-width:0.3;" x2="7.596" y2="-38.018" y1="-36.518" x1="6.096"/>
  <line style="fill:none;stroke:#000000;stroke-width:0.3;" x2="4.637" y2="-20.643" y1="-22.143" x1="6.137"/>
  <line style="fill:none;stroke:#000000;stroke-width:0.3;" x2="9.971" y2="-37.143" y1="-39.268" x1="9.971"/>
  <line style="fill:none;stroke:#000000;stroke-width:0.3;" x2="24.221" y2="-16.893" y1="-17.705" x1="26.158"/>
  <line style="fill:none;stroke:#000000;stroke-width:0.3;" x2="22.283" y2="-17.455" y1="-19.455" x1="23.033"/>
  <line style="fill:none;stroke:#000000;stroke-width:0.3;" x2="17.721" y2="-16.393" y1="-16.455" x1="20.158"/>
  <line style="fill:none;stroke:#000000;stroke-width:0.3;" x2="18.346" y2="-12.393" y1="-13.893" x1="19.846"/>
  <line style="fill:none;stroke:#000000;stroke-width:0.3;" x2="22.221" y2="-13.018" y1="-15.143" x1="22.221"/>
  <line style="fill:none;stroke:#000000;stroke-width:0.3;" x2="6.846" y2="-48.393" y1="-50.518" x1="6.846"/>
  <line style="fill:none;stroke:#000000;stroke-width:0.3;" x2="3.533" y2="-37.955" y1="-35.705" x1="3.596"/>
  <line style="fill:none;stroke:#000000;stroke-width:0.3;" x2="5.096" y2="-34.143" y1="-33.393" x1="6.971"/>
  <line style="fill:none;stroke:#000000;stroke-width:0.3;" x2="2.346" y2="-32.518" y1="-30.018" x1="3.033"/>
  <line style="fill:none;stroke:#000000;stroke-width:0.3;" x2="39.846" y2="-53.268" y1="-52.101" x1="41.846"/>
  <line style="fill:none;stroke:#000000;stroke-width:0.3;" x2="34.846" y2="-52.601" y1="-53.268" x1="37.012"/>
  <line style="fill:none;stroke:#000000;stroke-width:0.3;" x2="37.346" y2="-50.768" y1="-49.018" x1="36.783"/>
  <line style="fill:none;stroke:#000000;stroke-width:0.3;" x2="35.408" y2="-46.83" y1="-47.143" x1="37.721"/>
  <line style="fill:none;stroke:#000000;stroke-width:0.3;" x2="33.179" y2="-47.788" y1="-49.913" x1="33.116"/>
  <line style="fill:none;stroke:#000000;stroke-width:0.3;" x2="33.096" y2="-45.705" y1="-43.33" x1="33.471"/>
  <line style="fill:none;stroke:#000000;stroke-width:0.3;" x2="28.283" y2="-46.518" y1="-45.643" x1="30.721"/>
  <line style="fill:none;stroke:#000000;stroke-width:0.3;" x2="24.658" y2="-43.518" y1="-44.768" x1="26.346"/>
  <line style="fill:none;stroke:#000000;stroke-width:0.3;" x2="25.762" y2="-40.934" y1="-40.747" x1="28.075"/>
  <line style="fill:none;stroke:#000000;stroke-width:0.3;" x2="26.929" y2="-38.58" y1="-36.393" x1="27.366"/>
  <line style="fill:none;stroke:#000000;stroke-width:0.3;" x2="23.45" y2="-38.038" y1="-39.726" x1="21.95"/>
  <line style="fill:none;stroke:#000000;stroke-width:0.3;" x2="21.116" y2="-34.601" y1="-35.913" x1="23.241"/>
  <line style="fill:none;stroke:#000000;stroke-width:0.3;" x2="22.783" y2="-33.372" y1="-32.788" x1="24.471"/>
  <line style="fill:none;stroke:#000000;stroke-width:0.3;" x2="19.012" y2="-31.913" y1="-29.226" x1="19.2"/>
  <line style="fill:none;stroke:#000000;stroke-width:0.3;" x2="16.596" y2="-33.205" y1="-32.58" x1="14.158"/>
  <line style="fill:none;stroke:#000000;stroke-width:0.3;" x2="47.596" y2="-8.893" y1="-11.018" x1="47.971"/>
  <line style="fill:none;stroke:#000000;stroke-width:0.3;" x2="45.971" y2="-7.643" y1="-7.643" x1="43.471"/>
  <line style="fill:none;stroke:#000000;stroke-width:0.3;" x2="41.012" y2="-9.268" y1="-6.934" x1="39.512"/>
  <line style="fill:none;stroke:#000000;stroke-width:0.3;" x2="42.991" y2="-3.351" y1="-5.101" x1="44.366"/>
  <line style="fill:none;stroke:#000000;stroke-width:0.3;" x2="40.346" y2="-4.934" y1="-2.601" x1="40.512"/>
  <line style="fill:none;stroke:#000000;stroke-width:0.3;" x2="36.679" y2="-4.768" y1="-2.601" x1="37.846"/>
  <line style="fill:none;stroke:#000000;stroke-width:0.3;" x2="16.346" y2="-27.601" y1="-28.788" x1="14.346"/>
  <line style="fill:none;stroke:#000000;stroke-width:0.3;" x2="11.096" y2="-28.768" y1="-26.955" x1="12.471"/>
  <line style="fill:none;stroke:#000000;stroke-width:0.3;" x2="4.158" y2="-3.872" y1="-2.059" x1="5.533"/>
  <line style="fill:none;stroke:#000000;stroke-width:0.3;" x2="12.533" y2="-23.83" y1="-24.643" x1="14.783"/>
  <line style="fill:none;stroke:#000000;stroke-width:0.3;" x2="9.241" y2="-24.455" y1="-22.268" x1="9.179"/>
  <line style="fill:none;stroke:#000000;stroke-width:0.3;" x2="9.221" y2="-19.705" y1="-19.955" x1="6.471"/>
  <line style="fill:none;stroke:#000000;stroke-width:0.3;" x2="7.179" y2="-25.601" y1="-24.663" x1="5.304"/>
  <line style="fill:none;stroke:#000000;stroke-width:0.3;" x2="5.283" y2="-17.705" y1="-15.58" x1="6.658"/>
  <line style="fill:none;stroke:#000000;stroke-width:0.3;" x2="11.31" y2="-5.835" y1="-4.104" x1="13.461"/>
  <line style="fill:none;stroke:#000000;stroke-width:0.3;" x2="10.871" y2="-8.733" y1="-8.475" x1="12.951"/>
  <line style="fill:none;stroke:#000000;stroke-width:0.3;" x2="8.012" y2="-2.101" y1="-4.62" x1="9.075"/>
  <line style="fill:none;stroke:#000000;stroke-width:0.3;" x2="2.658" y2="-19.143" y1="-17.268" x1="2.533"/>
  <line style="fill:none;stroke:#000000;stroke-width:0.3;" x2="2.158" y2="-13.518" y1="-14.643" x1="3.908"/>
  <line style="fill:none;stroke:#000000;stroke-width:0.3;" x2="53.866" y2="-49.455" y1="-50.33" x1="51.429"/>
  <line style="fill:none;stroke:#000000;stroke-width:0.3;" x2="49.179" y2="-45.559" y1="-47.809" x1="50.116"/>
  <line style="fill:none;stroke:#000000;stroke-width:0.3;" x2="50.283" y2="-44.455" y1="-44.268" x1="52.596"/>
  <line style="fill:none;stroke:#000000;stroke-width:0.3;" x2="49.533" y2="-42.33" y1="-40.143" x1="49.971"/>
  <line style="fill:none;stroke:#000000;stroke-width:0.3;" x2="47.179" y2="-44.268" y1="-45.143" x1="45.346"/>
  <line style="fill:none;stroke:#000000;stroke-width:0.3;" x2="45.783" y2="-38.893" y1="-38.893" x1="48.283"/>
  <line style="fill:none;stroke:#000000;stroke-width:0.3;" x2="43.783" y2="-41.08" y1="-41.851" x1="46.491"/>
  <line style="fill:none;stroke:#000000;stroke-width:0.3;" x2="40.95" y2="-32.143" y1="-33.893" x1="42.325"/>
  <line style="fill:none;stroke:#000000;stroke-width:0.3;" x2="42.846" y2="-38.705" y1="-36.018" x1="43.033"/>
  <line style="fill:none;stroke:#000000;stroke-width:0.3;" x2="40.283" y2="-36.768" y1="-36.143" x1="37.846"/>
  <line style="fill:none;stroke:#000000;stroke-width:0.3;" x2="36.7" y2="-33.976" y1="-32.788" x1="38.7"/>
  <line style="fill:none;stroke:#000000;stroke-width:0.3;" x2="35.221" y2="-31.413" y1="-29.601" x1="36.596"/>
  <line style="fill:none;stroke:#000000;stroke-width:0.3;" x2="45.408" y2="-10.393" y1="-12.205" x1="44.033"/>
  <line style="fill:none;stroke:#000000;stroke-width:0.3;" x2="14.221" y2="-12.205" y1="-10.393" x1="15.596"/>
  <line style="fill:none;stroke:#000000;stroke-width:0.3;" x2="32.762" y2="-25.622" y1="-26.434" x1="35.012"/>
  <line style="fill:none;stroke:#000000;stroke-width:0.3;" x2="32.075" y2="-31.288" y1="-29.101" x1="32.012"/>
  <line style="fill:none;stroke:#000000;stroke-width:0.3;" x2="29.408" y2="-23.705" y1="-23.455" x1="32.158"/>
  <line style="fill:none;stroke:#000000;stroke-width:0.3;" x2="30.012" y2="-26.643" y1="-25.705" x1="28.137"/>
  <line style="fill:none;stroke:#000000;stroke-width:0.3;" x2="27.033" y2="-22.643" y1="-20.518" x1="28.408"/>
  <line style="fill:none;stroke:#000000;stroke-width:0.3;" x2="24.158" y2="-21.768" y1="-23.643" x1="24.283"/>
  <line style="fill:none;stroke:#000000;stroke-width:0.3;" x2="47.033" y2="-26.955" y1="-27.393" x1="44.471"/>
  <line style="fill:none;stroke:#000000;stroke-width:0.3;" x2="47.971" y2="-23.643" y1="-26.143" x1="48.533"/>
  <line style="fill:none;stroke:#000000;stroke-width:0.3;" x2="50.283" y2="-26.518" y1="-26.768" x1="52.158"/>
  <line style="fill:none;stroke:#000000;stroke-width:0.3;" x2="38.471" y2="-15.893" y1="-18.705" x1="39.096"/>
  <line style="fill:none;stroke:#000000;stroke-width:0.3;" x2="53.346" y2="-33.143" y1="-34.268" x1="51.596"/>
  <line style="fill:none;stroke:#000000;stroke-width:0.3;" x2="43.596" y2="-22.58" y1="-24.518" x1="45.221"/>
  <line style="fill:none;stroke:#000000;stroke-width:0.3;" x2="14.846" y2="-6.143" y1="-8.08" x1="16.471"/>
  <line style="fill:none;stroke:#000000;stroke-width:0.3;" x2="41.596" y2="-25.08" y1="-22.768" x1="41.408"/>
  <line style="fill:none;stroke:#000000;stroke-width:0.3;" x2="43.096" y2="-19.33" y1="-19.955" x1="40.721"/>
  <line style="fill:none;stroke:#000000;stroke-width:0.3;" x2="27.783" y2="-7.768" y1="-7.205" x1="25.096"/>
  <line style="fill:none;stroke:#000000;stroke-width:0.3;" x2="28.158" y2="-5.518" y1="-3.018" x1="27.596"/>
  <line style="fill:none;stroke:#000000;stroke-width:0.3;" x2="39.471" y2="-21.268" y1="-21.018" x1="37.596"/>
  <line style="fill:none;stroke:#000000;stroke-width:0.3;" x2="30.283" y2="-12.205" y1="-9.393" x1="29.658"/>
  <line style="fill:none;stroke:#000000;stroke-width:0.3;" x2="32.679" y2="-13.101" y1="-11.434" x1="34.679"/>
  <line style="fill:none;stroke:#000000;stroke-width:0.3;" x2="6.221" y2="-5.08" y1="-7.018" x1="7.846"/>
  <line style="fill:none;stroke:#000000;stroke-width:0.3;" x2="23.096" y2="-5.018" y1="-2.83" x1="24.221"/>
  <line style="fill:none;stroke:#000000;stroke-width:0.3;" x2="35.346" y2="-14.955" y1="-15.58" x1="32.971"/>
  <line style="fill:none;stroke:#000000;stroke-width:0.3;" x2="52.471" y2="-15.143" y1="-17.018" x1="52.096"/>
  <line style="fill:none;stroke:#000000;stroke-width:0.3;" x2="18.512" y2="-34.851" y1="-36.976" x1="18.512"/>
  <line style="fill:none;stroke:#000000;stroke-width:0.3;" x2="29.971" y2="-41.809" y1="-43.559" x1="30.533"/>
  <line style="fill:none;stroke:#000000;stroke-width:0.3;" x2="26.866" y2="-51.83" y1="-53.643" x1="25.491"/>
 </g>
</svg>
