<?xml version="1.0"?>
<!-- Converted with SVG Converter - Version 0.9.5 (Compiled Fri Feb 21 09:53:38 2020) - Copyright (C) 2011 Nokia -->
<svg xmlns="http://www.w3.org/2000/svg" xmlns:xlink="http://www.w3.org/1999/xlink" height="53.75" baseProfile="tiny" version="1.1" x="0px" width="53.75" xml:space="preserve" viewBox="2.85 -55.35 53.75 53.75" y="0px">
 <g>
  <rect style="fill:none;" height="53.75" x="2.85" width="53.75" y="-55.35"/>
  <path style="fill:none;stroke:#000000;stroke-width:0.3;" d="M56.6-51.105c-0.745,0.417-1.304,1.008-1.375,2.005    c-0.125,1.75,0,3.625-1.125,4.5s-2.125,0.25-2.25,1.625s-0.375,5.125-2.875,5.5s-3,0.25-3.875,1s-1.125,1.125-2,1.125    s-1.25,1.375-0.125,2.375c1.125,1,1.625,1.125,1.625,2.25s1,1.25,2.125,1.625s5,0.625,1.625,2s-4.25,1.875-5.125,3.375    s-0.625,2.75-1.875,3.25S39.725-20.6,39.225-19.6s-0.5,1.375-1.375,1.375S36.1-17.1,38.1-16.85s2.25,0.25,2.875,1.25    s0.375,1.125,1.75,0.75s1.75-1.625,2.875-0.125s2.375,2.5,3.125,4.25s1.125,2.25-0.25,3.625S45.85-4.85,45.1-4.475    c-0.708,0.354-0.734,1.477-2.222,2.875"/>
  <path style="fill:none;stroke:#000000;stroke-width:0.3;" d="M56.6-40.288c-0.041,0.021-0.083,0.042-0.125,0.063    c-1.75,0.875-1.5,1.875-1.875,2.75s-0.5,3-2.5,3.5s-3.5,0.5-1.625,1.5c1.875,1,3.875,4.25,3.125,5.625s-1.5,1.375-1.75,2.125    s0.125,2.125-1.5,1.625s-2.125-0.5-2.625,1s-1.375,2.875,0,3.625s4,1.75,4,3s0.125,1.625,1.25,2.25s1.5,2.125,1.625,2.875    s0.25,3.375-1.125,4.375s-2.938,1.188-3.812,2.188S48.993-3.284,47.85-1.6"/>
  <path style="fill:none;stroke:#000000;stroke-width:0.3;" d="M56.6-47.936c-0.213,0.497-0.371,1.066-0.5,1.71    c-0.375,1.875-0.512,4.144-1.375,4c-0.75-0.125-1.25-0.5-1.625,0.875s-1.25,4.5-3,4.875s-3.125-0.375-4,0.375s-2.25,1.875-1.25,3    c1,1.125,1.25,1,1.25,1.875c0,0.875,0,1,1.375,1s3.125,0.25,3.375,1.375s0.125,2.375-1.25,2.75s-3,0.125-3.875,1.125    s-1.25,1.75-1.5,3.125s-0.75,2.25-1.75,2.125s-0.875,0.25-1.625,0.875s-0.875,1,0,1.25s1.375,0.125,1.375,0.875    s-0.375,0.5,1.125,0.625s2.5-0.875,4.25,1.25s2.375,1.375,3,3.75s1.25,2.875,0,4s-3.875,2.5-4.625,3s-0.5-0.125-0.5,1.25    c0,0.625-0.323,0.98-0.7,1.25"/>
  <path style="fill:none;stroke:#000000;stroke-width:0.3;" d="M56.6-41.804c-0.185,0.3-0.426,0.507-0.75,0.579    c-1.125,0.25-1.875,1.25-2.25,2.25s-1.5,3.5-2.625,3.75s-3.5,0.5-4,1s-0.25,0.875,0.125,1.5s0,1.25,1.25,1.375s4.25,0.75,4,2.75    s-1.75,4.5-3.5,4.125s-2.5,0.375-2.625,1.625s-0.25,2.375-1.125,3.25s-3,1.625-0.75,1.875s2.5,0.25,3.75,1.25s1.625,0.375,2,1.625    s-0.125,0.625,1.125,1.75s2.375,1.5,2.125,3.375s0,2.875-1.375,3.5s-2.5,1.125-3.25,1.75s-1.75,0.5-1.375,1.75    c0.167,0.557-0.212,0.829-0.707,1.125"/>
  <path style="fill:none;stroke:#000000;stroke-width:0.3;" d="M47.85-55.35c-1.169,1.722-0.991,2.29-2,4.812    c0,0-1.125,0.938-0.688,3.125s1.062,3.25-0.438,4s-2.125,1.375-3.062,1.562s-1.746,0.289-1.746,0.289    c-0.065,0.008-0.129,0.016-0.192,0.023c-1,0.125-0.875,0.625-0.875,1.562s-0.5,1.062-1.812,1.562s-2.188,0.5-3,0.312    s-0.875,0.375-1.125,1s-0.562,1.062-2.063,1.5c-1.5,0.438,0.875,1.938,1.938,2.312c1.062,0.375,1.875,1.125,2.25,2.063    c0.375,0.938,0.562,0.688,1.5,0.688s1.188,0.375,1.312,0.812s0.375,0.75,1.25,1.062s1.062,0.688,0.875,1.25    s-0.312,0.562-0.75,0.812s-1.062,0.562-1.438,1.25s-0.375,0.562-1.25,1s-1.375,1.188-1.875,2.562s-2.25,1.75-3.75,1.938    c-1.5,0.188-1.25,0.312-1.625,1s-0.438,0.562-1.25,1s-0.812,0.312-0.375,1.125s1.188,0.812,3.125,1s1.375,0.625,2.063,1.438    s0.75,0.688,1.875,1.062s1.938,2.5,3,4.188S37.6-6.475,36.163-4.663s-1.625,2.379-1.625,2.379    C34.373-2.05,34.229-1.825,34.104-1.6"/>
  <path style="fill:none;stroke:#000000;stroke-width:0.3;" d="M44.775-55.35c-0.45,0.324-0.977,0.529-1.113,0.938    c0,0,0.25,0.625,0.125,1.75s-0.312,1.375-0.812,2.375s-0.688,1.375-0.25,2.75s0.312,2.438-1.438,2.938s-4.375,0.812-4.812,1.812    s-0.75,2.25-2,2.312s-2.938-0.375-3.688,0.75S29.725-38.163,29.1-38.1s-1.938,0.188-2.125,0.938c0,0,0,1,0.938,2    s0.938,0.875,0.938,1.5s-0.312,1,1,1.5c1.312,0.5,2.5,0.438,2.875,1.75s0.375,1.188,1.562,1.5s1.812,1.25,1.062,2.125    s-2.938,1.438-2.938,2.375s-0.625,2.062-2.188,2.312s-3.375,0.312-3.312,0.938s-0.438,1.375-1.312,1.875    c0,0-0.188,0.062-0.875,0.25s-1.188,0.5-1.188,0.5c-0.875,0.25-0.75,0.938-0.188,1.5s0.625,0.688,1,1.312s0.375,0.75,2.688,1.312    s2.938,2.938,3.188,4.25S31.6-8.6,33.163-8.038c1.562,0.562,0.5,2.625-0.438,3.625c-0.938,1-1.438,1.879-1.438,1.879    C30.989-2.216,30.792-1.91,30.653-1.6"/>
  <path style="fill:none;stroke:#000000;stroke-width:0.3;" d="M46.644-55.35c-0.614,0.368-1.405,0.773-1.543,1.812    c0,0,0.25,1-0.25,1.812s-1.438,2-0.875,3.75s0.438,3.188-0.812,3.812s-2.562,1.188-3.5,1.312s-1.688,0.062-1.875,0.812    s-1.062,1.688-1.938,2.125s-0.812,0.375-2,0.625c0,0-1.25-0.062-1.812,0.938c-0.563,1-0.438,0.938-1.625,1.312    s-2.062,0.438-1.375,1.5s0.75,1.312,0.875,1.812s0.25,0.75,1.375,1.125c1.125,0.375,1.875,0.188,2.5,1.375    c0.625,1.188,0.562,1.312,1.375,1.562s2.188,0.625,2.062,1.562s0.375,1.75-1.125,2.562s-2.375,1.438-2.625,2.25    s-0.5,2.062-2,2.312c-1.5,0.25-3,0-3.438,0.812s-0.188,1-1.125,1.375s-1.375,0.625-1.375,0.625    c-1.312,0.188-0.875,0.625-0.5,1.625s1.312,1,2.75,1.188s3.438,2,4,2.75c0.563,0.75,1.063,2.188,3.063,3.625    s0.188,3.5-0.688,4.437s-1.625,2.254-1.625,2.254c-0.15,0.225-0.266,0.453-0.359,0.683"/>
  <path style="fill:none;stroke:#000000;stroke-width:0.3;" d="M2.85-51.105c0.562-0.314,1.23-0.53,1.875-0.745    c1.5-0.5,1.75-0.5,2.875-1.875s1.625,0,5.5-1.5c0,0,0.131,0.026,0.392-0.125"/>
  <path style="fill:none;stroke:#000000;stroke-width:0.3;" d="M2.85-40.288c1.631-0.825,1.762-1.089,2.25-2.187    c0,0,0.125-0.5,0.375-2.625s0.625-3.5,2-3.625s3.25-0.625,3.125-1.625s-0.75-1.125,1.375-1s3.125-0.75,4.75-1.875    c0.857-0.594,1.68-1.327,2.394-2.125"/>
  <path style="fill:none;stroke:#000000;stroke-width:0.3;" d="M2.85-47.936c0.407-0.949,1.015-1.629,2-2.04    c1.5-0.625,2-1,2.625-1.75s1-1,2.5-1.5s3.25-0.625,4.625-1.25c0.376-0.171,0.771-0.482,1.171-0.875"/>
  <path style="fill:none;stroke:#000000;stroke-width:0.3;" d="M2.85-41.804c0.457-0.741,0.572-2.05,0.75-3.296    c0.25-1.75,0.5-1.875,1.125-2.75s2.5-1.75,3.75-2.375s0.75-1.125,1.25-1.75s2.5-0.625,4-0.75c1.186-0.099,2.839-1.447,3.913-2.625    "/>
  <path style="fill:none;stroke:#000000;stroke-width:0.3;" d="M13.492-1.6c0.311-0.179,0.805-0.607,1.483-1.625    C16.225-5.1,17.1-6.1,17.6-6.725c0,0,1.875-3.5-1.25-3.25s-5.625-1.25-6.375-2.125S8.1-12.975,7.85-14.35    c-0.25-1.375-0.25-1.375-1.125-1.875S1.6-19.35,6.85-21.475s4.125-2.5,4.375-3.375s0.625-1.625,2.625-1.75s3.375-0.375,2.375-1.75    s-0.875-2.125-0.875-2.125s-0.375-1-2.375-1.5c-2-0.5-3.625-1.375-3.375-2.625s0.125-1.375-1-2.25s-1.875-2.75-1.375-4    s3.75-3.25,5.625-3.875s2.375-0.5,2.5-1.375s2.875-1.5,4.625-1.875s3.875-0.375,3.875-1.5s1.25-2,3-2.625s2.5-0.625,2.5-1.75    c0-0.508-0.025-1.015,0.05-1.5"/>
  <path style="fill:none;stroke:#000000;stroke-width:0.3;" d="M34.101-55.35c-0.445,0.799-0.667,1.609-0.813,2.875    c-0.188,1.625-2.188,2.562-3.5,3.188s-1.688,0.75-1.625,1.938s-2.688,2.062-5.438,2.375s-2.812,1-3.062,1.938    s-2.875,1.375-5.438,2.188s-1.188,2-0.312,2.438s0.562,1.062,0.625,2.188s2.25,1.438,5.312,1.938s1.375,2.813,0.812,3.875    s0.312,1.75,1,2.875s-1.25,3.375-3.188,3.875s-2.688,0.625-3.188,1.812s-1.25,1.438-2.562,1.938s-1.688,0.625-1,1.25    s0.438,0.562,0.438,1.438s-0.312,1.188,1,1.5s2.25,0.5,2.812,1.438s1.062,1.312,3.812,1.375s2.062,1.875,2.25,3.625    s0.688,1.875,0.125,2.937s-1.438,2.5-1.438,2.5c-0.414,0.768-0.966,1.535-1.606,2.25"/>
  <path style="fill:none;stroke:#000000;stroke-width:0.3;" d="M15.771-1.6c1.064-1.043,2.17-2.66,3.079-3.75c0,0,1-0.938,1-2.5    s0.062-2.75-2.062-3.062s-3.875-1.25-4.875-1.812s-1.875-1.25-2.625-1.562s-1.062-0.312-1.125-1.5s-0.688-1.375-1.437-1.562    s-3-1.75-0.688-2.875s4.625-2.438,4.812-2.75s-0.5-1.625,2.188-2.125s5.562-1.438,4.312-3s-1.25-1.812-0.875-2.625    s-1.562-1.75-3.875-2.625s-2.562-1.25-2.312-2.25s-0.062-1.625-1.438-2.312s-2.687-3,0.688-4.438s5.188-2,5.562-2.812    s1.875-1.5,3.688-1.812s5.375-1.062,5.375-2.062s0.312-1.562,1.688-1.75s3.062-0.75,3.312-2.125    c0.175-0.962,0.167-1.711,0.489-2.438"/>
  <path style="fill:none;stroke:#000000;stroke-width:0.3;" d="M17.638-1.6c0.285-0.312,0.528-0.613,0.712-0.875    c0,0,1-1.562,1.75-2.75s1.5-1.812,1-3.562s-0.062-2.812-1.875-3.062s-3.188,0.438-3.875-0.75s-2.062-1.812-3.188-2.125    s-1.812-0.125-1.75-1.25s0.812-1.562-0.688-2s-2-1.375-0.5-2.125s2.688-1.688,3.375-1.75s0.938-0.312,1.312-1    s0.75-1.25,2.062-1.438s2.938-1,3.562-1.688s0.938-1.438,0.125-2.438s-1.375-1.312-0.875-1.938s1.625-2.688-1.062-3.125    s-5.062-1.188-4.75-2.375s0.188-1.312-0.938-2s-2.875-2.312-0.688-3.125s3.812-1.625,4.375-1.688s1.688-0.75,2.062-1.5    s-0.062-1.5,2.562-1.75s6.188-0.875,6.438-2.125s0.062-1.75,1.938-2.25s2.312-0.75,2.75-1.875    c0.362-0.931,0.254-2.076,0.702-3.188"/>
  <path style="fill:none;stroke:#000000;stroke-width:0.3;" d="M42.878-55.35c-0.087,0.083-0.18,0.166-0.278,0.25    c-0.875,0.75-0.125,0.5-0.25,2.25s-0.25,2-0.875,2.875c0,0-2.125,1.375-1.062,2.438s1.375,1.5-0.125,2.062    S34.913-44.1,34.6-43.663s-0.375,0.25-0.188,0.938s-0.25,1.188-1.438,1.25c-1.188,0.062-2.75,0.25-3.375,1.125    s-1.25,1.375-2.5,1.438s-2.75,0.25-2.312,1.188s2.125,1.625,1.875,2.438s0.312,1.125,0.938,2.125s0.938,2.688,2.25,2.875    s1.625-0.438,1.938,0.875c0.313,1.312,0.563,1.438,1.438,1.5s1.125,0.5,0,0.938s-1.938,0.25-2,1.5s-0.375,2.062-1.688,2.312    s-3.812,0.062-3.812,0.938s-0.312,1.812-1.688,2.188l-3.188,1.25c-1.375,0.438-0.375,1.375,0.688,1.625s0.812,0.938,1.562,2.5    s2.562,1.625,3.875,1.625s2.062,2.688,2.312,3.938s1.812,1.187,2.75,2.437c0.938,1.25-1.688,3.442-1.688,3.442    c-0.616,0.479-0.857,1.033-0.949,1.621"/>
  <line style="fill:none;stroke:#000000;stroke-width:0.3;" y1="-53.475" x1="5.85" y2="-54.6" x2="3.85"/>
  <line style="fill:none;stroke:#000000;stroke-width:0.3;" y1="-44.806" x1="9.855" y2="-47.1" x2="9.788"/>
  <line style="fill:none;stroke:#000000;stroke-width:0.3;" y1="-47.288" x1="13.413" y2="-49.413" x2="12.475"/>
  <line style="fill:none;stroke:#000000;stroke-width:0.3;" y1="-42.913" x1="8.1" y2="-42.85" x2="5.85"/>
  <line style="fill:none;stroke:#000000;stroke-width:0.3;" y1="-50.058" x1="17.517" y2="-50.725" x2="15.6"/>
  <line style="fill:none;stroke:#000000;stroke-width:0.3;" y1="-53.725" x1="20.85" y2="-52.975" x2="18.683"/>
  <line style="fill:none;stroke:#000000;stroke-width:0.3;" y1="-49.392" x1="21.1" y2="-51.308" x2="20.1"/>
  <line style="fill:none;stroke:#000000;stroke-width:0.3;" y1="-52.975" x1="26.183" y2="-53.808" x2="24.183"/>
  <line style="fill:none;stroke:#000000;stroke-width:0.3;" y1="-36.475" x1="4.35" y2="-38.475" x2="5.183"/>
  <line style="fill:none;stroke:#000000;stroke-width:0.3;" y1="-34.808" x1="6.517" y2="-33.392" x2="8.35"/>
  <line style="fill:none;stroke:#000000;stroke-width:0.3;" y1="-31.475" x1="6.933" y2="-31.058" x2="4.767"/>
  <line style="fill:none;stroke:#000000;stroke-width:0.3;" y1="-29.308" x1="9.767" y2="-31.392" x2="10.6"/>
  <line style="fill:none;stroke:#000000;stroke-width:0.3;" y1="-14.1" x1="4.308" y2="-16.183" x2="5.142"/>
  <line style="fill:none;stroke:#000000;stroke-width:0.3;" y1="-27.725" x1="14.517" y2="-28.892" x2="12.35"/>
  <line style="fill:none;stroke:#000000;stroke-width:0.3;" y1="-24.725" x1="10.017" y2="-26.892" x2="9.017"/>
  <line style="fill:none;stroke:#000000;stroke-width:0.3;" y1="-24.058" x1="8.017" y2="-23.725" x2="5.267"/>
  <line style="fill:none;stroke:#000000;stroke-width:0.3;" y1="-26.142" x1="6.183" y2="-28.142" x2="4.267"/>
  <line style="fill:none;stroke:#000000;stroke-width:0.3;" y1="-17.225" x1="14.017" y2="-17.808" x2="16.183"/>
  <line style="fill:none;stroke:#000000;stroke-width:0.3;" y1="-14.308" x1="18.267" y2="-16.475" x2="18.6"/>
  <line style="fill:none;stroke:#000000;stroke-width:0.3;" y1="-13.225" x1="22.933" y2="-14.225" x2="20.683"/>
  <line style="fill:none;stroke:#000000;stroke-width:0.3;" y1="-21.642" x1="17.6" y2="-19.142" x2="18.433"/>
  <line style="fill:none;stroke:#000000;stroke-width:0.3;" y1="-21.725" x1="23.267" y2="-22.558" x2="20.683"/>
  <line style="fill:none;stroke:#000000;stroke-width:0.3;" y1="-27.308" x1="23.6" y2="-24.808" x2="23.6"/>
  <line style="fill:none;stroke:#000000;stroke-width:0.3;" y1="-24.725" x1="28.767" y2="-25.642" x2="26.267"/>
  <line style="fill:none;stroke:#000000;stroke-width:0.3;" y1="-29.142" x1="30.017" y2="-26.642" x2="29.933"/>
  <line style="fill:none;stroke:#000000;stroke-width:0.3;" y1="-29.808" x1="27.517" y2="-28.392" x2="25.517"/>
  <line style="fill:none;stroke:#000000;stroke-width:0.3;" y1="-30.558" x1="25.933" y2="-31.975" x2="24.1"/>
  <line style="fill:none;stroke:#000000;stroke-width:0.3;" y1="-34.725" x1="22.517" y2="-36.725" x2="23.683"/>
  <line style="fill:none;stroke:#000000;stroke-width:0.3;" y1="-36.975" x1="16.767" y2="-35.808" x2="18.267"/>
  <line style="fill:none;stroke:#000000;stroke-width:0.3;" y1="-38.975" x1="16.85" y2="-40.975" x2="17.767"/>
  <line style="fill:none;stroke:#000000;stroke-width:0.3;" y1="-38.392" x1="21.85" y2="-37.725" x2="19.85"/>
  <line style="fill:none;stroke:#000000;stroke-width:0.3;" y1="-43.308" x1="21.35" y2="-41.475" x2="22.6"/>
  <line style="fill:none;stroke:#000000;stroke-width:0.3;" y1="-2.392" x1="55.283" y2="-4.226" x2="54.033"/>
  <line style="fill:none;stroke:#000000;stroke-width:0.3;" y1="-40.642" x1="26.683" y2="-41.475" x2="28.6"/>
  <line style="fill:none;stroke:#000000;stroke-width:0.3;" y1="-42.808" x1="25.6" y2="-44.808" x2="26.183"/>
  <line style="fill:none;stroke:#000000;stroke-width:0.3;" y1="-43.725" x1="31.1" y2="-45.225" x2="29.6"/>
  <line style="fill:none;stroke:#000000;stroke-width:0.3;" y1="-47.475" x1="30.933" y2="-48.225" x2="33.683"/>
  <line style="fill:none;stroke:#000000;stroke-width:0.3;" y1="-47.808" x1="36.183" y2="-45.392" x2="35.933"/>
  <line style="fill:none;stroke:#000000;stroke-width:0.3;" y1="-50.725" x1="40.017" y2="-49.475" x2="37.683"/>
  <line style="fill:none;stroke:#000000;stroke-width:0.3;" y1="-51.058" x1="35.517" y2="-53.475" x2="35.183"/>
  <line style="fill:none;stroke:#000000;stroke-width:0.3;" y1="-53.642" x1="38.183" y2="-54.475" x2="40.6"/>
  <line style="fill:none;stroke:#000000;stroke-width:0.3;" y1="-53.475" x1="51.517" y2="-53.975" x2="54.267"/>
  <line style="fill:none;stroke:#000000;stroke-width:0.3;" y1="-50.892" x1="49.85" y2="-52.225" x2="48.017"/>
  <line style="fill:none;stroke:#000000;stroke-width:0.3;" y1="-48.308" x1="50.683" y2="-46.392" x2="51.683"/>
  <line style="fill:none;stroke:#000000;stroke-width:0.3;" y1="-51.058" x1="54.017" y2="-48.725" x2="53.85"/>
  <line style="fill:none;stroke:#000000;stroke-width:0.3;" y1="-43.725" x1="47.1" y2="-46.142" x2="47.517"/>
  <line style="fill:none;stroke:#000000;stroke-width:0.3;" y1="-42.475" x1="49.017" y2="-43.475" x2="50.933"/>
  <line style="fill:none;stroke:#000000;stroke-width:0.3;" y1="-38.892" x1="49.1" y2="-41.058" x2="48.1"/>
  <line style="fill:none;stroke:#000000;stroke-width:0.3;" y1="-41.475" x1="44.1" y2="-41.142" x2="46.267"/>
  <line style="fill:none;stroke:#000000;stroke-width:0.3;" y1="-37.308" x1="44.767" y2="-39.308" x2="43.6"/>
  <line style="fill:none;stroke:#000000;stroke-width:0.3;" y1="-37.558" x1="40.183" y2="-40.225" x2="41.183"/>
  <line style="fill:none;stroke:#000000;stroke-width:0.3;" y1="-35.225" x1="33.6" y2="-36.558" x2="35.6"/>
  <line style="fill:none;stroke:#000000;stroke-width:0.3;" y1="-34.725" x1="40.933" y2="-34.975" x2="38.517"/>
  <line style="fill:none;stroke:#000000;stroke-width:0.3;" y1="-31.642" x1="36.433" y2="-33.725" x2="36.6"/>
  <line style="fill:none;stroke:#000000;stroke-width:0.3;" y1="-30.142" x1="39.85" y2="-31.892" x2="41.6"/>
  <line style="fill:none;stroke:#000000;stroke-width:0.3;" y1="-28.058" x1="43.6" y2="-29.892" x2="42.35"/>
  <line style="fill:none;stroke:#000000;stroke-width:0.3;" y1="-27.892" x1="47.683" y2="-27.725" x2="45.35"/>
  <line style="fill:none;stroke:#000000;stroke-width:0.3;" y1="-24.392" x1="40.267" y2="-26.308" x2="41.933"/>
  <line style="fill:none;stroke:#000000;stroke-width:0.3;" y1="-23.392" x1="37.433" y2="-21.392" x2="38.683"/>
  <line style="fill:none;stroke:#000000;stroke-width:0.3;" y1="-19.475" x1="34.267" y2="-19.892" x2="37.1"/>
  <line style="fill:none;stroke:#000000;stroke-width:0.3;" y1="-17.642" x1="33.35" y2="-15.392" x2="34.017"/>
  <line style="fill:none;stroke:#000000;stroke-width:0.3;" y1="-17.142" x1="29.767" y2="-18.642" x2="31.433"/>
  <line style="fill:none;stroke:#000000;stroke-width:0.3;" y1="-14.475" x1="38.6" y2="-14.142" x2="35.767"/>
  <line style="fill:none;stroke:#000000;stroke-width:0.3;" y1="-11.308" x1="41.85" y2="-9.225" x2="42.35"/>
  <line style="fill:none;stroke:#000000;stroke-width:0.3;" y1="-13.058" x1="43.017" y2="-12.892" x2="45.6"/>
  <line style="fill:none;stroke:#000000;stroke-width:0.3;" y1="-22.058" x1="49.183" y2="-19.308" x2="49.35"/>
  <line style="fill:none;stroke:#000000;stroke-width:0.3;" y1="-18.475" x1="51.517" y2="-19.558" x2="53.85"/>
  <line style="fill:none;stroke:#000000;stroke-width:0.3;" y1="-22.371" x1="53.913" y2="-21.454" x2="56.163"/>
  <line style="fill:none;stroke:#000000;stroke-width:0.3;" y1="-13.808" x1="55.267" y2="-15.892" x2="53.933"/>
  <path style="fill:none;stroke:#000000;stroke-width:0.3;" d="M55.183-27.392c0,0-0.083,2.167-0.083,2.5"/>
  <line style="fill:none;stroke:#000000;stroke-width:0.3;" y1="-30.225" x1="55.683" y2="-31.225" x2="53.85"/>
  <line style="fill:none;stroke:#000000;stroke-width:0.3;" y1="-33.475" x1="54.1" y2="-35.475" x2="55.767"/>
  <line style="fill:none;stroke:#000000;stroke-width:0.3;" y1="-8.892" x1="38.6" y2="-11.975" x2="39.35"/>
  <line style="fill:none;stroke:#000000;stroke-width:0.3;" y1="-9.975" x1="44.85" y2="-9.225" x2="46.933"/>
  <line style="fill:none;stroke:#000000;stroke-width:0.3;" y1="-6.558" x1="45.35" y2="-6.392" x2="42.6"/>
  <line style="fill:none;stroke:#000000;stroke-width:0.3;" y1="-2.558" x1="42.017" y2="-4.725" x2="40.85"/>
  <line style="fill:none;stroke:#000000;stroke-width:0.3;" y1="-4.475" x1="38.85" y2="-3.058" x2="36.6"/>
  <line style="fill:none;stroke:#000000;stroke-width:0.3;" y1="-10.642" x1="23.933" y2="-11.475" x2="26.517"/>
  <line style="fill:none;stroke:#000000;stroke-width:0.3;" y1="-8.642" x1="23.683" y2="-6.808" x2="25.6"/>
  <line style="fill:none;stroke:#000000;stroke-width:0.3;" y1="-6.308" x1="31.183" y2="-6.308" x2="28.433"/>
  <line style="fill:none;stroke:#000000;stroke-width:0.3;" y1="-2.392" x1="27.933" y2="-4.808" x2="27.35"/>
  <line style="fill:none;stroke:#000000;stroke-width:0.3;" y1="-4.058" x1="24.267" y2="-2.808" x2="21.267"/>
  <line style="fill:none;stroke:#000000;stroke-width:0.3;" y1="-11.142" x1="5.767" y2="-12.308" x2="8.517"/>
  <line style="fill:none;stroke:#000000;stroke-width:0.3;" y1="-6.392" x1="5.267" y2="-8.642" x2="3.433"/>
  <line style="fill:none;stroke:#000000;stroke-width:0.3;" y1="-7.892" x1="10.1" y2="-8.558" x2="7.1"/>
  <line style="fill:none;stroke:#000000;stroke-width:0.3;" y1="-8.725" x1="16.6" y2="-7.308" x2="14.517"/>
  <line style="fill:none;stroke:#000000;stroke-width:0.3;" y1="-3.142" x1="11.204" y2="-5.892" x2="11.038"/>
  <line style="fill:none;stroke:#000000;stroke-width:0.3;" y1="-4.038" x1="6.788" y2="-2.621" x2="3.954"/>
 </g>
</svg>
