<?xml version="1.0"?>
<!-- Converted with SVG Converter - Version 0.9.5 (Compiled Fri Feb 21 09:53:38 2020) - Copyright (C) 2011 Nokia -->
<svg xmlns="http://www.w3.org/2000/svg" version="1.1" baseProfile="tiny" viewBox="1 -47.233 46 46" height="46" x="0px" xml:space="preserve" xmlns:xlink="http://www.w3.org/1999/xlink" y="0px" width="46">
 <g>
  <rect style="fill:none;" height="46" x="1" y="-47.233" width="46"/>
  <line y2="-40.017" y1="-43.204" x2="8.321" style="fill:none;stroke:#000000;stroke-width:0.3;" x1="6.008"/>
  <line y2="-39.954" y1="-43.204" x2="6.008" style="fill:none;stroke:#000000;stroke-width:0.3;" x1="8.383"/>
  <line y2="-40.017" y1="-43.204" x2="16.008" style="fill:none;stroke:#000000;stroke-width:0.3;" x1="13.696"/>
  <line y2="-39.954" y1="-43.204" x2="13.696" style="fill:none;stroke:#000000;stroke-width:0.3;" x1="16.071"/>
  <line y2="-40.017" y1="-43.204" x2="23.571" style="fill:none;stroke:#000000;stroke-width:0.3;" x1="21.258"/>
  <line y2="-39.954" y1="-43.204" x2="21.258" style="fill:none;stroke:#000000;stroke-width:0.3;" x1="23.633"/>
  <line y2="-40.017" y1="-43.204" x2="31.196" style="fill:none;stroke:#000000;stroke-width:0.3;" x1="28.883"/>
  <line y2="-39.954" y1="-43.204" x2="28.883" style="fill:none;stroke:#000000;stroke-width:0.3;" x1="31.258"/>
  <line y2="-40.017" y1="-43.204" x2="38.883" style="fill:none;stroke:#000000;stroke-width:0.3;" x1="36.571"/>
  <line y2="-39.954" y1="-43.204" x2="36.571" style="fill:none;stroke:#000000;stroke-width:0.3;" x1="38.946"/>
  <line y2="-40.017" y1="-43.204" x2="46.633" style="fill:none;stroke:#000000;stroke-width:0.3;" x1="44.321"/>
  <line y2="-39.954" y1="-43.204" x2="44.321" style="fill:none;stroke:#000000;stroke-width:0.3;" x1="46.696"/>
  <line y2="-32.329" y1="-35.517" x2="4.425" style="fill:none;stroke:#000000;stroke-width:0.3;" x1="2.112"/>
  <line y2="-32.267" y1="-35.517" x2="2.112" style="fill:none;stroke:#000000;stroke-width:0.3;" x1="4.487"/>
  <line y2="-32.329" y1="-35.517" x2="12.112" style="fill:none;stroke:#000000;stroke-width:0.3;" x1="9.8"/>
  <line y2="-32.267" y1="-35.517" x2="9.8" style="fill:none;stroke:#000000;stroke-width:0.3;" x1="12.175"/>
  <line y2="-32.329" y1="-35.517" x2="19.675" style="fill:none;stroke:#000000;stroke-width:0.3;" x1="17.362"/>
  <line y2="-32.267" y1="-35.517" x2="17.362" style="fill:none;stroke:#000000;stroke-width:0.3;" x1="19.737"/>
  <line y2="-32.329" y1="-35.517" x2="27.3" style="fill:none;stroke:#000000;stroke-width:0.3;" x1="24.987"/>
  <line y2="-32.267" y1="-35.517" x2="24.987" style="fill:none;stroke:#000000;stroke-width:0.3;" x1="27.362"/>
  <line y2="-32.329" y1="-35.517" x2="34.987" style="fill:none;stroke:#000000;stroke-width:0.3;" x1="32.675"/>
  <line y2="-32.267" y1="-35.517" x2="32.675" style="fill:none;stroke:#000000;stroke-width:0.3;" x1="35.05"/>
  <line y2="-32.329" y1="-35.517" x2="42.737" style="fill:none;stroke:#000000;stroke-width:0.3;" x1="40.425"/>
  <line y2="-32.267" y1="-35.517" x2="40.425" style="fill:none;stroke:#000000;stroke-width:0.3;" x1="42.8"/>
  <line y2="-24.579" y1="-27.767" x2="8.342" style="fill:none;stroke:#000000;stroke-width:0.3;" x1="6.029"/>
  <line y2="-24.517" y1="-27.767" x2="6.029" style="fill:none;stroke:#000000;stroke-width:0.3;" x1="8.404"/>
  <line y2="-24.579" y1="-27.767" x2="16.029" style="fill:none;stroke:#000000;stroke-width:0.3;" x1="13.717"/>
  <line y2="-24.517" y1="-27.767" x2="13.717" style="fill:none;stroke:#000000;stroke-width:0.3;" x1="16.091"/>
  <line y2="-24.579" y1="-27.767" x2="23.591" style="fill:none;stroke:#000000;stroke-width:0.3;" x1="21.279"/>
  <line y2="-24.517" y1="-27.767" x2="21.279" style="fill:none;stroke:#000000;stroke-width:0.3;" x1="23.654"/>
  <line y2="-24.579" y1="-27.767" x2="31.216" style="fill:none;stroke:#000000;stroke-width:0.3;" x1="28.904"/>
  <line y2="-24.517" y1="-27.767" x2="28.904" style="fill:none;stroke:#000000;stroke-width:0.3;" x1="31.279"/>
  <line y2="-24.579" y1="-27.767" x2="38.904" style="fill:none;stroke:#000000;stroke-width:0.3;" x1="36.591"/>
  <line y2="-24.517" y1="-27.767" x2="36.591" style="fill:none;stroke:#000000;stroke-width:0.3;" x1="38.966"/>
  <line y2="-24.579" y1="-27.767" x2="46.654" style="fill:none;stroke:#000000;stroke-width:0.3;" x1="44.341"/>
  <line y2="-24.517" y1="-27.767" x2="44.341" style="fill:none;stroke:#000000;stroke-width:0.3;" x1="46.716"/>
  <line y2="-16.829" y1="-20.017" x2="4.258" style="fill:none;stroke:#000000;stroke-width:0.3;" x1="1.946"/>
  <line y2="-16.767" y1="-20.017" x2="1.946" style="fill:none;stroke:#000000;stroke-width:0.3;" x1="4.321"/>
  <line y2="-16.829" y1="-20.017" x2="11.946" style="fill:none;stroke:#000000;stroke-width:0.3;" x1="9.633"/>
  <line y2="-16.767" y1="-20.017" x2="9.633" style="fill:none;stroke:#000000;stroke-width:0.3;" x1="12.008"/>
  <line y2="-16.829" y1="-20.017" x2="19.508" style="fill:none;stroke:#000000;stroke-width:0.3;" x1="17.196"/>
  <line y2="-16.767" y1="-20.017" x2="17.196" style="fill:none;stroke:#000000;stroke-width:0.3;" x1="19.571"/>
  <line y2="-16.829" y1="-20.017" x2="27.133" style="fill:none;stroke:#000000;stroke-width:0.3;" x1="24.821"/>
  <line y2="-16.767" y1="-20.017" x2="24.821" style="fill:none;stroke:#000000;stroke-width:0.3;" x1="27.196"/>
  <line y2="-16.829" y1="-20.017" x2="34.821" style="fill:none;stroke:#000000;stroke-width:0.3;" x1="32.508"/>
  <line y2="-16.767" y1="-20.017" x2="32.508" style="fill:none;stroke:#000000;stroke-width:0.3;" x1="34.883"/>
  <line y2="-16.829" y1="-20.017" x2="42.571" style="fill:none;stroke:#000000;stroke-width:0.3;" x1="40.258"/>
  <line y2="-16.767" y1="-20.017" x2="40.258" style="fill:none;stroke:#000000;stroke-width:0.3;" x1="42.633"/>
  <line y2="-9.329" y1="-12.517" x2="8.258" style="fill:none;stroke:#000000;stroke-width:0.3;" x1="5.946"/>
  <line y2="-9.267" y1="-12.517" x2="5.946" style="fill:none;stroke:#000000;stroke-width:0.3;" x1="8.321"/>
  <line y2="-9.329" y1="-12.517" x2="15.946" style="fill:none;stroke:#000000;stroke-width:0.3;" x1="13.633"/>
  <line y2="-9.267" y1="-12.517" x2="13.633" style="fill:none;stroke:#000000;stroke-width:0.3;" x1="16.008"/>
  <line y2="-9.329" y1="-12.517" x2="23.508" style="fill:none;stroke:#000000;stroke-width:0.3;" x1="21.196"/>
  <line y2="-9.267" y1="-12.517" x2="21.196" style="fill:none;stroke:#000000;stroke-width:0.3;" x1="23.571"/>
  <line y2="-9.329" y1="-12.517" x2="31.133" style="fill:none;stroke:#000000;stroke-width:0.3;" x1="28.821"/>
  <line y2="-9.267" y1="-12.517" x2="28.821" style="fill:none;stroke:#000000;stroke-width:0.3;" x1="31.196"/>
  <line y2="-9.329" y1="-12.517" x2="38.821" style="fill:none;stroke:#000000;stroke-width:0.3;" x1="36.508"/>
  <line y2="-9.267" y1="-12.517" x2="36.508" style="fill:none;stroke:#000000;stroke-width:0.3;" x1="38.883"/>
  <line y2="-9.329" y1="-12.517" x2="46.571" style="fill:none;stroke:#000000;stroke-width:0.3;" x1="44.258"/>
  <line y2="-9.267" y1="-12.517" x2="44.258" style="fill:none;stroke:#000000;stroke-width:0.3;" x1="46.633"/>
  <line y2="-1.663" y1="-4.85" x2="4.425" style="fill:none;stroke:#000000;stroke-width:0.3;" x1="2.112"/>
  <line y2="-1.6" y1="-4.85" x2="2.112" style="fill:none;stroke:#000000;stroke-width:0.3;" x1="4.487"/>
  <line y2="-1.663" y1="-4.85" x2="12.112" style="fill:none;stroke:#000000;stroke-width:0.3;" x1="9.8"/>
  <line y2="-1.6" y1="-4.85" x2="9.8" style="fill:none;stroke:#000000;stroke-width:0.3;" x1="12.175"/>
  <line y2="-1.663" y1="-4.85" x2="19.675" style="fill:none;stroke:#000000;stroke-width:0.3;" x1="17.362"/>
  <line y2="-1.6" y1="-4.85" x2="17.362" style="fill:none;stroke:#000000;stroke-width:0.3;" x1="19.737"/>
  <line y2="-1.663" y1="-4.85" x2="27.3" style="fill:none;stroke:#000000;stroke-width:0.3;" x1="24.987"/>
  <line y2="-1.6" y1="-4.85" x2="24.987" style="fill:none;stroke:#000000;stroke-width:0.3;" x1="27.362"/>
  <line y2="-1.663" y1="-4.85" x2="34.987" style="fill:none;stroke:#000000;stroke-width:0.3;" x1="32.675"/>
  <line y2="-1.6" y1="-4.85" x2="32.675" style="fill:none;stroke:#000000;stroke-width:0.3;" x1="35.05"/>
  <line y2="-1.663" y1="-4.85" x2="42.737" style="fill:none;stroke:#000000;stroke-width:0.3;" x1="40.425"/>
  <line y2="-1.6" y1="-4.85" x2="40.425" style="fill:none;stroke:#000000;stroke-width:0.3;" x1="42.8"/>
 </g>
</svg>
