<?xml version="1.0"?>
<!-- Converted with SVG Converter - Version 0.9.5 (Compiled Fri Feb 21 09:53:38 2020) - Copyright (C) 2011 Nokia -->
<svg xmlns="http://www.w3.org/2000/svg" xml:space="preserve" viewBox="1.6 -70.104 68.982 68.982" width="68.982" version="1.1" height="68.982" baseProfile="tiny" xmlns:xlink="http://www.w3.org/1999/xlink" x="0px" y="0px">
 <g>
  <rect width="68.982" height="68.982" style="fill:none;" x="1.6" y="-70.104"/>
  <line x2="11.988" style="fill:none;stroke:#000000;stroke-width:0.3;" y2="-43.621" x1="16.676" y1="-43.621"/>
  <line x2="11.988" style="fill:none;stroke:#000000;stroke-width:0.3;" y2="-43.621" x1="7.363" y1="-43.621"/>
  <line x2="11.988" style="fill:none;stroke:#000000;stroke-width:0.3;" y2="-43.621" x1="11.988" y1="-41.934"/>
  <line x2="11.988" style="fill:none;stroke:#000000;stroke-width:0.3;" y2="-45.121" x1="11.988" y1="-43.621"/>
  <line x2="29.238" style="fill:none;stroke:#000000;stroke-width:0.3;" y2="-43.621" x1="24.613" y1="-43.621"/>
  <line x2="29.238" style="fill:none;stroke:#000000;stroke-width:0.3;" y2="-43.621" x1="33.926" y1="-43.621"/>
  <line x2="29.238" style="fill:none;stroke:#000000;stroke-width:0.3;" y2="-45.121" x1="29.238" y1="-43.621"/>
  <line x2="29.238" style="fill:none;stroke:#000000;stroke-width:0.3;" y2="-43.621" x1="29.238" y1="-41.934"/>
  <line x2="3.343" style="fill:none;stroke:#000000;stroke-width:0.3;" y2="-49.371" x1="1.6" y1="-49.371"/>
  <line x2="3.343" style="fill:none;stroke:#000000;stroke-width:0.3;" y2="-49.371" x1="8.03" y1="-49.371"/>
  <line x2="3.343" style="fill:none;stroke:#000000;stroke-width:0.3;" y2="-50.871" x1="3.343" y1="-49.371"/>
  <line x2="3.343" style="fill:none;stroke:#000000;stroke-width:0.3;" y2="-49.371" x1="3.343" y1="-47.684"/>
  <line x2="20.593" style="fill:none;stroke:#000000;stroke-width:0.3;" y2="-49.371" x1="25.28" y1="-49.371"/>
  <line x2="20.593" style="fill:none;stroke:#000000;stroke-width:0.3;" y2="-49.371" x1="15.968" y1="-49.371"/>
  <line x2="20.593" style="fill:none;stroke:#000000;stroke-width:0.3;" y2="-50.871" x1="20.593" y1="-49.371"/>
  <line x2="20.593" style="fill:none;stroke:#000000;stroke-width:0.3;" y2="-47.684" x1="20.593" y1="-49.371"/>
  <line x2="11.988" style="fill:none;stroke:#000000;stroke-width:0.3;" y2="-55.1" x1="16.676" y1="-55.1"/>
  <line x2="11.988" style="fill:none;stroke:#000000;stroke-width:0.3;" y2="-55.1" x1="7.363" y1="-55.1"/>
  <line x2="11.988" style="fill:none;stroke:#000000;stroke-width:0.3;" y2="-56.6" x1="11.988" y1="-55.1"/>
  <line x2="11.988" style="fill:none;stroke:#000000;stroke-width:0.3;" y2="-55.1" x1="11.988" y1="-53.412"/>
  <line x2="29.238" style="fill:none;stroke:#000000;stroke-width:0.3;" y2="-55.1" x1="24.613" y1="-55.1"/>
  <line x2="29.238" style="fill:none;stroke:#000000;stroke-width:0.3;" y2="-55.1" x1="33.926" y1="-55.1"/>
  <line x2="29.238" style="fill:none;stroke:#000000;stroke-width:0.3;" y2="-56.6" x1="29.238" y1="-55.1"/>
  <line x2="29.238" style="fill:none;stroke:#000000;stroke-width:0.3;" y2="-53.412" x1="29.238" y1="-55.1"/>
  <line x2="3.343" style="fill:none;stroke:#000000;stroke-width:0.3;" y2="-60.85" x1="1.6" y1="-60.85"/>
  <line x2="3.343" style="fill:none;stroke:#000000;stroke-width:0.3;" y2="-60.85" x1="8.03" y1="-60.85"/>
  <line x2="3.343" style="fill:none;stroke:#000000;stroke-width:0.3;" y2="-60.85" x1="3.343" y1="-62.35"/>
  <line x2="3.343" style="fill:none;stroke:#000000;stroke-width:0.3;" y2="-60.85" x1="3.343" y1="-59.162"/>
  <line x2="20.593" style="fill:none;stroke:#000000;stroke-width:0.3;" y2="-60.85" x1="25.28" y1="-60.85"/>
  <line x2="20.593" style="fill:none;stroke:#000000;stroke-width:0.3;" y2="-60.85" x1="15.968" y1="-60.85"/>
  <line x2="20.593" style="fill:none;stroke:#000000;stroke-width:0.3;" y2="-62.35" x1="20.593" y1="-60.85"/>
  <line x2="20.593" style="fill:none;stroke:#000000;stroke-width:0.3;" y2="-60.85" x1="20.593" y1="-59.162"/>
  <line x2="3.343" style="fill:none;stroke:#000000;stroke-width:0.3;" y2="-37.829" x1="8.03" y1="-37.829"/>
  <line x2="1.6" style="fill:none;stroke:#000000;stroke-width:0.3;" y2="-37.829" x1="3.343" y1="-37.829"/>
  <line x2="3.343" style="fill:none;stroke:#000000;stroke-width:0.3;" y2="-39.329" x1="3.343" y1="-37.829"/>
  <line x2="3.343" style="fill:none;stroke:#000000;stroke-width:0.3;" y2="-36.142" x1="3.343" y1="-37.829"/>
  <line x2="20.593" style="fill:none;stroke:#000000;stroke-width:0.3;" y2="-37.829" x1="15.968" y1="-37.829"/>
  <line x2="20.593" style="fill:none;stroke:#000000;stroke-width:0.3;" y2="-37.829" x1="25.28" y1="-37.829"/>
  <line x2="20.593" style="fill:none;stroke:#000000;stroke-width:0.3;" y2="-37.829" x1="20.593" y1="-36.142"/>
  <line x2="20.593" style="fill:none;stroke:#000000;stroke-width:0.3;" y2="-39.329" x1="20.593" y1="-37.829"/>
  <line x2="16.676" style="fill:none;stroke:#000000;stroke-width:0.3;" y2="-66.579" x1="11.988" y1="-66.579"/>
  <line x2="11.988" style="fill:none;stroke:#000000;stroke-width:0.3;" y2="-66.579" x1="7.363" y1="-66.579"/>
  <line x2="11.988" style="fill:none;stroke:#000000;stroke-width:0.3;" y2="-66.579" x1="11.988" y1="-64.892"/>
  <line x2="11.988" style="fill:none;stroke:#000000;stroke-width:0.3;" y2="-68.079" x1="11.988" y1="-66.579"/>
  <line x2="33.926" style="fill:none;stroke:#000000;stroke-width:0.3;" y2="-66.579" x1="29.238" y1="-66.579"/>
  <line x2="29.238" style="fill:none;stroke:#000000;stroke-width:0.3;" y2="-66.579" x1="24.613" y1="-66.579"/>
  <line x2="29.238" style="fill:none;stroke:#000000;stroke-width:0.3;" y2="-66.579" x1="29.238" y1="-64.892"/>
  <line x2="29.238" style="fill:none;stroke:#000000;stroke-width:0.3;" y2="-68.079" x1="29.238" y1="-66.579"/>
  <line x2="11.988" style="fill:none;stroke:#000000;stroke-width:0.3;" y2="-9.079" x1="7.363" y1="-9.079"/>
  <line x2="11.988" style="fill:none;stroke:#000000;stroke-width:0.3;" y2="-9.079" x1="16.676" y1="-9.079"/>
  <line x2="11.988" style="fill:none;stroke:#000000;stroke-width:0.3;" y2="-10.579" x1="11.988" y1="-9.079"/>
  <line x2="11.988" style="fill:none;stroke:#000000;stroke-width:0.3;" y2="-9.079" x1="11.988" y1="-7.392"/>
  <line x2="29.238" style="fill:none;stroke:#000000;stroke-width:0.3;" y2="-9.079" x1="33.926" y1="-9.079"/>
  <line x2="29.238" style="fill:none;stroke:#000000;stroke-width:0.3;" y2="-9.079" x1="24.613" y1="-9.079"/>
  <line x2="29.238" style="fill:none;stroke:#000000;stroke-width:0.3;" y2="-7.392" x1="29.238" y1="-9.079"/>
  <line x2="29.238" style="fill:none;stroke:#000000;stroke-width:0.3;" y2="-9.079" x1="29.238" y1="-10.579"/>
  <line x2="1.6" style="fill:none;stroke:#000000;stroke-width:0.3;" y2="-14.829" x1="3.343" y1="-14.829"/>
  <line x2="3.343" style="fill:none;stroke:#000000;stroke-width:0.3;" y2="-14.829" x1="8.03" y1="-14.829"/>
  <line x2="3.343" style="fill:none;stroke:#000000;stroke-width:0.3;" y2="-13.142" x1="3.343" y1="-14.829"/>
  <line x2="3.343" style="fill:none;stroke:#000000;stroke-width:0.3;" y2="-16.329" x1="3.343" y1="-14.829"/>
  <line x2="20.593" style="fill:none;stroke:#000000;stroke-width:0.3;" y2="-14.829" x1="15.968" y1="-14.829"/>
  <line x2="20.593" style="fill:none;stroke:#000000;stroke-width:0.3;" y2="-14.829" x1="25.28" y1="-14.829"/>
  <line x2="20.593" style="fill:none;stroke:#000000;stroke-width:0.3;" y2="-13.142" x1="20.593" y1="-14.829"/>
  <line x2="20.593" style="fill:none;stroke:#000000;stroke-width:0.3;" y2="-16.329" x1="20.593" y1="-14.829"/>
  <line x2="11.988" style="fill:none;stroke:#000000;stroke-width:0.3;" y2="-20.559" x1="16.676" y1="-20.559"/>
  <line x2="11.988" style="fill:none;stroke:#000000;stroke-width:0.3;" y2="-20.559" x1="7.363" y1="-20.559"/>
  <line x2="11.988" style="fill:none;stroke:#000000;stroke-width:0.3;" y2="-20.559" x1="11.988" y1="-18.871"/>
  <line x2="11.988" style="fill:none;stroke:#000000;stroke-width:0.3;" y2="-22.059" x1="11.988" y1="-20.559"/>
  <line x2="29.238" style="fill:none;stroke:#000000;stroke-width:0.3;" y2="-20.559" x1="33.926" y1="-20.559"/>
  <line x2="29.238" style="fill:none;stroke:#000000;stroke-width:0.3;" y2="-20.559" x1="24.613" y1="-20.559"/>
  <line x2="29.238" style="fill:none;stroke:#000000;stroke-width:0.3;" y2="-18.871" x1="29.238" y1="-20.559"/>
  <line x2="29.238" style="fill:none;stroke:#000000;stroke-width:0.3;" y2="-22.059" x1="29.238" y1="-20.559"/>
  <line x2="3.343" style="fill:none;stroke:#000000;stroke-width:0.3;" y2="-26.309" x1="1.6" y1="-26.309"/>
  <line x2="3.343" style="fill:none;stroke:#000000;stroke-width:0.3;" y2="-26.309" x1="8.03" y1="-26.309"/>
  <line x2="3.343" style="fill:none;stroke:#000000;stroke-width:0.3;" y2="-26.309" x1="3.343" y1="-24.621"/>
  <line x2="3.343" style="fill:none;stroke:#000000;stroke-width:0.3;" y2="-26.309" x1="3.343" y1="-27.809"/>
  <line x2="20.593" style="fill:none;stroke:#000000;stroke-width:0.3;" y2="-26.309" x1="15.968" y1="-26.309"/>
  <line x2="20.593" style="fill:none;stroke:#000000;stroke-width:0.3;" y2="-26.309" x1="25.28" y1="-26.309"/>
  <line x2="20.593" style="fill:none;stroke:#000000;stroke-width:0.3;" y2="-26.309" x1="20.593" y1="-24.621"/>
  <line x2="20.593" style="fill:none;stroke:#000000;stroke-width:0.3;" y2="-27.809" x1="20.593" y1="-26.309"/>
  <line x2="1.6" style="fill:none;stroke:#000000;stroke-width:0.3;" y2="-3.287" x1="3.343" y1="-3.287"/>
  <line x2="3.343" style="fill:none;stroke:#000000;stroke-width:0.3;" y2="-3.287" x1="8.03" y1="-3.287"/>
  <line x2="3.343" style="fill:none;stroke:#000000;stroke-width:0.3;" y2="-3.287" x1="3.343" y1="-1.6"/>
  <line x2="3.343" style="fill:none;stroke:#000000;stroke-width:0.3;" y2="-3.287" x1="3.343" y1="-4.787"/>
  <line x2="20.593" style="fill:none;stroke:#000000;stroke-width:0.3;" y2="-3.287" x1="25.28" y1="-3.287"/>
  <line x2="15.968" style="fill:none;stroke:#000000;stroke-width:0.3;" y2="-3.287" x1="20.593" y1="-3.287"/>
  <line x2="20.593" style="fill:none;stroke:#000000;stroke-width:0.3;" y2="-3.287" x1="20.593" y1="-4.787"/>
  <line x2="20.593" style="fill:none;stroke:#000000;stroke-width:0.3;" y2="-1.6" x1="20.593" y1="-3.287"/>
  <line x2="11.988" style="fill:none;stroke:#000000;stroke-width:0.3;" y2="-32.037" x1="7.363" y1="-32.037"/>
  <line x2="11.988" style="fill:none;stroke:#000000;stroke-width:0.3;" y2="-32.037" x1="16.676" y1="-32.037"/>
  <line x2="11.988" style="fill:none;stroke:#000000;stroke-width:0.3;" y2="-33.537" x1="11.988" y1="-32.037"/>
  <line x2="11.988" style="fill:none;stroke:#000000;stroke-width:0.3;" y2="-32.037" x1="11.988" y1="-30.35"/>
  <line x2="29.238" style="fill:none;stroke:#000000;stroke-width:0.3;" y2="-32.037" x1="24.613" y1="-32.037"/>
  <line x2="29.238" style="fill:none;stroke:#000000;stroke-width:0.3;" y2="-32.037" x1="33.926" y1="-32.037"/>
  <line x2="29.238" style="fill:none;stroke:#000000;stroke-width:0.3;" y2="-33.537" x1="29.238" y1="-32.037"/>
  <line x2="29.238" style="fill:none;stroke:#000000;stroke-width:0.3;" y2="-30.35" x1="29.238" y1="-32.037"/>
  <line x2="46.472" style="fill:none;stroke:#000000;stroke-width:0.3;" y2="-43.621" x1="41.847" y1="-43.621"/>
  <line x2="46.472" style="fill:none;stroke:#000000;stroke-width:0.3;" y2="-43.621" x1="51.16" y1="-43.621"/>
  <line x2="46.472" style="fill:none;stroke:#000000;stroke-width:0.3;" y2="-45.121" x1="46.472" y1="-43.621"/>
  <line x2="46.472" style="fill:none;stroke:#000000;stroke-width:0.3;" y2="-43.621" x1="46.472" y1="-41.934"/>
  <line x2="68.41" style="fill:none;stroke:#000000;stroke-width:0.3;" y2="-43.621" x1="63.722" y1="-43.621"/>
  <line x2="63.722" style="fill:none;stroke:#000000;stroke-width:0.3;" y2="-43.621" x1="59.097" y1="-43.621"/>
  <line x2="63.722" style="fill:none;stroke:#000000;stroke-width:0.3;" y2="-45.121" x1="63.722" y1="-43.621"/>
  <line x2="63.722" style="fill:none;stroke:#000000;stroke-width:0.3;" y2="-41.934" x1="63.722" y1="-43.621"/>
  <line x2="37.826" style="fill:none;stroke:#000000;stroke-width:0.3;" y2="-49.371" x1="42.514" y1="-49.371"/>
  <line x2="37.826" style="fill:none;stroke:#000000;stroke-width:0.3;" y2="-49.371" x1="33.201" y1="-49.371"/>
  <line x2="37.826" style="fill:none;stroke:#000000;stroke-width:0.3;" y2="-47.684" x1="37.826" y1="-49.371"/>
  <line x2="37.826" style="fill:none;stroke:#000000;stroke-width:0.3;" y2="-50.871" x1="37.826" y1="-49.371"/>
  <line x2="55.076" style="fill:none;stroke:#000000;stroke-width:0.3;" y2="-49.371" x1="59.764" y1="-49.371"/>
  <line x2="55.076" style="fill:none;stroke:#000000;stroke-width:0.3;" y2="-49.371" x1="50.451" y1="-49.371"/>
  <line x2="55.076" style="fill:none;stroke:#000000;stroke-width:0.3;" y2="-47.684" x1="55.076" y1="-49.371"/>
  <line x2="55.076" style="fill:none;stroke:#000000;stroke-width:0.3;" y2="-50.871" x1="55.076" y1="-49.371"/>
  <line x2="67.701" style="fill:none;stroke:#000000;stroke-width:0.3;" y2="-49.371" x1="70.582" y1="-49.371"/>
  <line x2="46.472" style="fill:none;stroke:#000000;stroke-width:0.3;" y2="-55.1" x1="41.847" y1="-55.1"/>
  <line x2="46.472" style="fill:none;stroke:#000000;stroke-width:0.3;" y2="-55.1" x1="51.16" y1="-55.1"/>
  <line x2="46.472" style="fill:none;stroke:#000000;stroke-width:0.3;" y2="-56.6" x1="46.472" y1="-55.1"/>
  <line x2="46.472" style="fill:none;stroke:#000000;stroke-width:0.3;" y2="-53.412" x1="46.472" y1="-55.1"/>
  <line x2="63.722" style="fill:none;stroke:#000000;stroke-width:0.3;" y2="-55.1" x1="59.097" y1="-55.1"/>
  <line x2="68.41" style="fill:none;stroke:#000000;stroke-width:0.3;" y2="-55.1" x1="63.722" y1="-55.1"/>
  <line x2="63.722" style="fill:none;stroke:#000000;stroke-width:0.3;" y2="-53.412" x1="63.722" y1="-55.1"/>
  <line x2="63.722" style="fill:none;stroke:#000000;stroke-width:0.3;" y2="-56.6" x1="63.722" y1="-55.1"/>
  <line x2="37.826" style="fill:none;stroke:#000000;stroke-width:0.3;" y2="-60.85" x1="42.514" y1="-60.85"/>
  <line x2="37.826" style="fill:none;stroke:#000000;stroke-width:0.3;" y2="-60.85" x1="33.201" y1="-60.85"/>
  <line x2="37.826" style="fill:none;stroke:#000000;stroke-width:0.3;" y2="-60.85" x1="37.826" y1="-59.162"/>
  <line x2="37.826" style="fill:none;stroke:#000000;stroke-width:0.3;" y2="-62.35" x1="37.826" y1="-60.85"/>
  <line x2="55.076" style="fill:none;stroke:#000000;stroke-width:0.3;" y2="-60.85" x1="50.451" y1="-60.85"/>
  <line x2="55.076" style="fill:none;stroke:#000000;stroke-width:0.3;" y2="-60.85" x1="59.764" y1="-60.85"/>
  <line x2="55.076" style="fill:none;stroke:#000000;stroke-width:0.3;" y2="-60.85" x1="55.076" y1="-59.162"/>
  <line x2="55.076" style="fill:none;stroke:#000000;stroke-width:0.3;" y2="-62.35" x1="55.076" y1="-60.85"/>
  <line x2="70.582" style="fill:none;stroke:#000000;stroke-width:0.3;" y2="-60.85" x1="67.701" y1="-60.85"/>
  <line x2="37.826" style="fill:none;stroke:#000000;stroke-width:0.3;" y2="-37.829" x1="42.514" y1="-37.829"/>
  <line x2="37.826" style="fill:none;stroke:#000000;stroke-width:0.3;" y2="-37.829" x1="33.201" y1="-37.829"/>
  <line x2="37.826" style="fill:none;stroke:#000000;stroke-width:0.3;" y2="-36.142" x1="37.826" y1="-37.829"/>
  <line x2="37.826" style="fill:none;stroke:#000000;stroke-width:0.3;" y2="-39.329" x1="37.826" y1="-37.829"/>
  <line x2="55.076" style="fill:none;stroke:#000000;stroke-width:0.3;" y2="-37.829" x1="50.451" y1="-37.829"/>
  <line x2="55.076" style="fill:none;stroke:#000000;stroke-width:0.3;" y2="-37.829" x1="59.764" y1="-37.829"/>
  <line x2="55.076" style="fill:none;stroke:#000000;stroke-width:0.3;" y2="-36.142" x1="55.076" y1="-37.829"/>
  <line x2="55.076" style="fill:none;stroke:#000000;stroke-width:0.3;" y2="-39.329" x1="55.076" y1="-37.829"/>
  <line x2="70.582" style="fill:none;stroke:#000000;stroke-width:0.3;" y2="-37.829" x1="67.701" y1="-37.829"/>
  <line x2="51.16" style="fill:none;stroke:#000000;stroke-width:0.3;" y2="-66.579" x1="46.472" y1="-66.579"/>
  <line x2="46.472" style="fill:none;stroke:#000000;stroke-width:0.3;" y2="-66.579" x1="41.847" y1="-66.579"/>
  <line x2="46.472" style="fill:none;stroke:#000000;stroke-width:0.3;" y2="-68.079" x1="46.472" y1="-66.579"/>
  <line x2="46.472" style="fill:none;stroke:#000000;stroke-width:0.3;" y2="-66.579" x1="46.472" y1="-64.892"/>
  <line x2="63.722" style="fill:none;stroke:#000000;stroke-width:0.3;" y2="-66.579" x1="59.097" y1="-66.579"/>
  <line x2="68.41" style="fill:none;stroke:#000000;stroke-width:0.3;" y2="-66.579" x1="63.722" y1="-66.579"/>
  <line x2="63.722" style="fill:none;stroke:#000000;stroke-width:0.3;" y2="-68.079" x1="63.722" y1="-66.579"/>
  <line x2="63.722" style="fill:none;stroke:#000000;stroke-width:0.3;" y2="-66.579" x1="63.722" y1="-64.892"/>
  <line x2="46.472" style="fill:none;stroke:#000000;stroke-width:0.3;" y2="-9.079" x1="51.16" y1="-9.079"/>
  <line x2="46.472" style="fill:none;stroke:#000000;stroke-width:0.3;" y2="-9.079" x1="41.847" y1="-9.079"/>
  <line x2="46.472" style="fill:none;stroke:#000000;stroke-width:0.3;" y2="-9.079" x1="46.472" y1="-10.579"/>
  <line x2="46.472" style="fill:none;stroke:#000000;stroke-width:0.3;" y2="-7.392" x1="46.472" y1="-9.079"/>
  <line x2="68.41" style="fill:none;stroke:#000000;stroke-width:0.3;" y2="-9.079" x1="63.722" y1="-9.079"/>
  <line x2="63.722" style="fill:none;stroke:#000000;stroke-width:0.3;" y2="-9.079" x1="59.097" y1="-9.079"/>
  <line x2="63.722" style="fill:none;stroke:#000000;stroke-width:0.3;" y2="-7.392" x1="63.722" y1="-9.079"/>
  <line x2="63.722" style="fill:none;stroke:#000000;stroke-width:0.3;" y2="-10.579" x1="63.722" y1="-9.079"/>
  <line x2="37.826" style="fill:none;stroke:#000000;stroke-width:0.3;" y2="-14.829" x1="33.201" y1="-14.829"/>
  <line x2="37.826" style="fill:none;stroke:#000000;stroke-width:0.3;" y2="-14.829" x1="42.514" y1="-14.829"/>
  <line x2="37.826" style="fill:none;stroke:#000000;stroke-width:0.3;" y2="-13.142" x1="37.826" y1="-14.829"/>
  <line x2="37.826" style="fill:none;stroke:#000000;stroke-width:0.3;" y2="-16.329" x1="37.826" y1="-14.829"/>
  <line x2="59.764" style="fill:none;stroke:#000000;stroke-width:0.3;" y2="-14.829" x1="55.076" y1="-14.829"/>
  <line x2="55.076" style="fill:none;stroke:#000000;stroke-width:0.3;" y2="-14.829" x1="50.451" y1="-14.829"/>
  <line x2="55.076" style="fill:none;stroke:#000000;stroke-width:0.3;" y2="-13.142" x1="55.076" y1="-14.829"/>
  <line x2="55.076" style="fill:none;stroke:#000000;stroke-width:0.3;" y2="-16.329" x1="55.076" y1="-14.829"/>
  <line x2="70.582" style="fill:none;stroke:#000000;stroke-width:0.3;" y2="-14.829" x1="67.701" y1="-14.829"/>
  <line x2="46.472" style="fill:none;stroke:#000000;stroke-width:0.3;" y2="-20.559" x1="51.16" y1="-20.559"/>
  <line x2="46.472" style="fill:none;stroke:#000000;stroke-width:0.3;" y2="-20.559" x1="41.847" y1="-20.559"/>
  <line x2="46.472" style="fill:none;stroke:#000000;stroke-width:0.3;" y2="-18.871" x1="46.472" y1="-20.559"/>
  <line x2="46.472" style="fill:none;stroke:#000000;stroke-width:0.3;" y2="-22.059" x1="46.472" y1="-20.559"/>
  <line x2="68.41" style="fill:none;stroke:#000000;stroke-width:0.3;" y2="-20.559" x1="63.722" y1="-20.559"/>
  <line x2="59.097" style="fill:none;stroke:#000000;stroke-width:0.3;" y2="-20.559" x1="63.722" y1="-20.559"/>
  <line x2="63.722" style="fill:none;stroke:#000000;stroke-width:0.3;" y2="-22.059" x1="63.722" y1="-20.559"/>
  <line x2="63.722" style="fill:none;stroke:#000000;stroke-width:0.3;" y2="-18.871" x1="63.722" y1="-20.559"/>
  <line x2="37.826" style="fill:none;stroke:#000000;stroke-width:0.3;" y2="-26.309" x1="42.514" y1="-26.309"/>
  <line x2="37.826" style="fill:none;stroke:#000000;stroke-width:0.3;" y2="-26.309" x1="33.201" y1="-26.309"/>
  <line x2="37.826" style="fill:none;stroke:#000000;stroke-width:0.3;" y2="-26.309" x1="37.826" y1="-27.809"/>
  <line x2="37.826" style="fill:none;stroke:#000000;stroke-width:0.3;" y2="-24.621" x1="37.826" y1="-26.309"/>
  <line x2="59.764" style="fill:none;stroke:#000000;stroke-width:0.3;" y2="-26.309" x1="55.076" y1="-26.309"/>
  <line x2="55.076" style="fill:none;stroke:#000000;stroke-width:0.3;" y2="-26.309" x1="50.451" y1="-26.309"/>
  <line x2="55.076" style="fill:none;stroke:#000000;stroke-width:0.3;" y2="-27.809" x1="55.076" y1="-26.309"/>
  <line x2="55.076" style="fill:none;stroke:#000000;stroke-width:0.3;" y2="-24.621" x1="55.076" y1="-26.309"/>
  <line x2="70.582" style="fill:none;stroke:#000000;stroke-width:0.3;" y2="-26.309" x1="67.701" y1="-26.309"/>
  <line x2="37.826" style="fill:none;stroke:#000000;stroke-width:0.3;" y2="-3.287" x1="42.514" y1="-3.287"/>
  <line x2="33.201" style="fill:none;stroke:#000000;stroke-width:0.3;" y2="-3.287" x1="37.826" y1="-3.287"/>
  <line x2="37.826" style="fill:none;stroke:#000000;stroke-width:0.3;" y2="-3.287" x1="37.826" y1="-4.787"/>
  <line x2="37.826" style="fill:none;stroke:#000000;stroke-width:0.3;" y2="-1.6" x1="37.826" y1="-3.287"/>
  <line x2="55.076" style="fill:none;stroke:#000000;stroke-width:0.3;" y2="-3.287" x1="59.764" y1="-3.287"/>
  <line x2="50.451" style="fill:none;stroke:#000000;stroke-width:0.3;" y2="-3.287" x1="55.076" y1="-3.287"/>
  <line x2="55.076" style="fill:none;stroke:#000000;stroke-width:0.3;" y2="-3.287" x1="55.076" y1="-4.787"/>
  <line x2="55.076" style="fill:none;stroke:#000000;stroke-width:0.3;" y2="-1.6" x1="55.076" y1="-3.287"/>
  <line x2="70.582" style="fill:none;stroke:#000000;stroke-width:0.3;" y2="-3.287" x1="67.701" y1="-3.287"/>
  <line x2="46.472" style="fill:none;stroke:#000000;stroke-width:0.3;" y2="-32.037" x1="41.847" y1="-32.037"/>
  <line x2="46.472" style="fill:none;stroke:#000000;stroke-width:0.3;" y2="-32.037" x1="51.16" y1="-32.037"/>
  <line x2="46.472" style="fill:none;stroke:#000000;stroke-width:0.3;" y2="-33.537" x1="46.472" y1="-32.037"/>
  <line x2="46.472" style="fill:none;stroke:#000000;stroke-width:0.3;" y2="-30.35" x1="46.472" y1="-32.037"/>
  <line x2="63.722" style="fill:none;stroke:#000000;stroke-width:0.3;" y2="-32.037" x1="59.097" y1="-32.037"/>
  <line x2="63.722" style="fill:none;stroke:#000000;stroke-width:0.3;" y2="-32.037" x1="68.41" y1="-32.037"/>
  <line x2="63.722" style="fill:none;stroke:#000000;stroke-width:0.3;" y2="-30.35" x1="63.722" y1="-32.037"/>
  <line x2="63.722" style="fill:none;stroke:#000000;stroke-width:0.3;" y2="-32.037" x1="63.722" y1="-33.537"/>
 </g>
</svg>
