<?xml version="1.0"?>
<!-- Converted with SVG Converter - Version 0.9.5 (Compiled Fri Feb 21 09:53:38 2020) - Copyright (C) 2011 Nokia -->
<svg xmlns="http://www.w3.org/2000/svg" xmlns:xlink="http://www.w3.org/1999/xlink" version="1.1" viewBox="1 -54.75 53.75 53.75" xml:space="preserve" baseProfile="tiny" height="53.75" x="0px" width="53.75" y="0px">
 <g>
  <rect style="fill:none;" height="53.75" x="1" width="53.75" y="-54.75"/>
  <polygon style="fill:none;stroke:#000000;stroke-width:0.3;stroke-linejoin:bevel;" points="2.604,-53.896 1.5,-52.25    3.5,-51.417   "/>
  <polygon style="fill:none;stroke:#000000;stroke-width:0.3;stroke-linejoin:bevel;" points="5.083,-53 6.917,-52.833    7.083,-51.25 5.75,-51.167   "/>
  <polygon style="fill:none;stroke:#000000;stroke-width:0.3;stroke-linejoin:bevel;" points="2,-49.083 3.417,-49.917    4.583,-48.167 3.333,-47.75   "/>
  <polygon style="fill:none;stroke:#000000;stroke-width:0.3;stroke-linejoin:bevel;" points="6.917,-49.25 9.583,-49.583    9.667,-47.75   "/>
  <polygon style="fill:none;stroke:#000000;stroke-width:0.3;stroke-linejoin:bevel;" points="10.333,-53.417 10.333,-51.917    11.833,-50.833 12.667,-52.417   "/>
  <polygon style="fill:none;stroke:#000000;stroke-width:0.3;stroke-linejoin:bevel;" points="15.417,-52.083 16.75,-53.5    17.833,-51.333   "/>
  <polygon style="fill:none;stroke:#000000;stroke-width:0.3;stroke-linejoin:bevel;" points="19.5,-53 20.917,-51.417    22.833,-52.667 22.083,-53.833   "/>
  <polygon style="fill:none;stroke:#000000;stroke-width:0.3;stroke-linejoin:bevel;" points="24.417,-51.75 23.5,-50.417    25.25,-49 26.167,-50.333   "/>
  <polygon style="fill:none;stroke:#000000;stroke-width:0.3;stroke-linejoin:bevel;" points="20.833,-49.833 21.167,-47.417    18.667,-47.75   "/>
  <polygon style="fill:none;stroke:#000000;stroke-width:0.3;stroke-linejoin:bevel;" points="13.083,-48.917 14.25,-49.917    15.833,-49.583 15.25,-47.75   "/>
  <polygon style="fill:none;stroke:#000000;stroke-width:0.3;stroke-linejoin:bevel;" points="27.333,-53.417 28.25,-51.917    30.167,-51.917 29.333,-53.5   "/>
  <polygon style="fill:none;stroke:#000000;stroke-width:0.3;stroke-linejoin:bevel;" points="31.417,-51.333 33,-51.333    32.667,-49.417 30.667,-50.417   "/>
  <polygon style="fill:none;stroke:#000000;stroke-width:0.3;stroke-linejoin:bevel;" points="29,-49.5 29.333,-47.25    26.917,-47.833   "/>
  <polygon style="fill:none;stroke:#000000;stroke-width:0.3;stroke-linejoin:bevel;" points="33.917,-53.167 36.167,-54    36.167,-51.833   "/>
  <polygon style="fill:none;stroke:#000000;stroke-width:0.3;stroke-linejoin:bevel;" points="38.667,-52.5 39.75,-53.5    41.083,-52.167 40.667,-51.333 39.333,-51.417   "/>
  <polygon style="fill:none;stroke:#000000;stroke-width:0.3;stroke-linejoin:bevel;" points="43.333,-50.917 44.083,-49.833    45.75,-50.75 44.417,-52.167   "/>
  <polygon style="fill:none;stroke:#000000;stroke-width:0.3;stroke-linejoin:bevel;" points="38.833,-49.333 40.583,-49.833    42.083,-48.583 39.917,-47.583   "/>
  <polygon style="fill:none;stroke:#000000;stroke-width:0.3;stroke-linejoin:bevel;" points="35.75,-49.333 36.5,-47.167    34.25,-47.333   "/>
  <polygon style="fill:none;stroke:#000000;stroke-width:0.3;stroke-linejoin:bevel;" points="46.667,-53.167 48.917,-53.333    49.667,-52.167 47.583,-51.667   "/>
  <polygon style="fill:none;stroke:#000000;stroke-width:0.3;stroke-linejoin:bevel;" points="50.583,-51.25 52.083,-50.5    51.083,-49.167 50,-49.75   "/>
  <polygon style="fill:none;stroke:#000000;stroke-width:0.3;stroke-linejoin:bevel;" points="51.917,-52.833 52,-53.5    53.083,-54.167 53.917,-51.833   "/>
  <polygon style="fill:none;stroke:#000000;stroke-width:0.3;stroke-linejoin:bevel;" points="52.833,-48.833 53.917,-47.667    52.25,-47.083   "/>
  <polygon style="fill:none;stroke:#000000;stroke-width:0.3;stroke-linejoin:bevel;" points="46.25,-48.917 47.75,-48.833    48.5,-47.583 45.583,-47.417   "/>
  <polygon style="fill:none;stroke:#000000;stroke-width:0.3;stroke-linejoin:bevel;" points="1.333,-19.583 2.75,-20.417    3.917,-18.667 2.667,-18.25   "/>
  <polygon style="fill:none;stroke:#000000;stroke-width:0.3;stroke-linejoin:bevel;" points="5.833,-19.667 8.5,-20 8.583,-18.167      "/>
  <polygon style="fill:none;stroke:#000000;stroke-width:0.3;stroke-linejoin:bevel;" points="20.917,-20.583 21.25,-18.167    18.75,-18.5   "/>
  <polygon style="fill:none;stroke:#000000;stroke-width:0.3;stroke-linejoin:bevel;" points="12.583,-19.5 13.75,-20.5    15.333,-20.167 14.75,-18.333   "/>
  <polygon style="fill:none;stroke:#000000;stroke-width:0.3;stroke-linejoin:bevel;" points="29.417,-20.25 29.75,-18    27.333,-18.583   "/>
  <polygon style="fill:none;stroke:#000000;stroke-width:0.3;stroke-linejoin:bevel;" points="33.104,-18.979 34.854,-19.479    36.354,-18.229 34.188,-17.229   "/>
  <polygon style="fill:none;stroke:#000000;stroke-width:0.3;stroke-linejoin:bevel;" points="38.875,-21.729 39.625,-19.562    37.375,-19.729   "/>
  <polygon style="fill:none;stroke:#000000;stroke-width:0.3;stroke-linejoin:bevel;" points="52.833,-19.583 53.917,-18.417    52.25,-17.833   "/>
  <polygon style="fill:none;stroke:#000000;stroke-width:0.3;stroke-linejoin:bevel;" points="46.438,-19.833 47.938,-19.75    48.688,-18.5 45.771,-18.333   "/>
  <polygon style="fill:none;stroke:#000000;stroke-width:0.3;stroke-linejoin:bevel;" points="3.5,-40.75 5.917,-40.5 5.667,-38.75    3.583,-38.833   "/>
  <polygon style="fill:none;stroke:#000000;stroke-width:0.3;stroke-linejoin:bevel;" points="8.333,-40.917 10.5,-40.583    9.833,-38.75   "/>
  <polygon style="fill:none;stroke:#000000;stroke-width:0.3;stroke-linejoin:bevel;" points="12.167,-38 15.25,-38.583 14.667,-36      "/>
  <polygon style="fill:none;stroke:#000000;stroke-width:0.3;stroke-linejoin:bevel;" points="17.083,-40.583 20.167,-40.083    19.417,-39.167 19.167,-37.417   "/>
  <polygon style="fill:none;stroke:#000000;stroke-width:0.3;stroke-linejoin:bevel;" points="23.75,-39.667 24.917,-38.083    22.75,-36.917 21.417,-37.25   "/>
  <polygon style="fill:none;stroke:#000000;stroke-width:0.3;stroke-linejoin:bevel;" points="27.833,-40.417 28.167,-38.583    30.667,-39.833   "/>
  <polygon style="fill:none;stroke:#000000;stroke-width:0.3;stroke-linejoin:bevel;" points="33.75,-39.917 36.25,-40.333    36.5,-38.583   "/>
  <polygon style="fill:none;stroke:#000000;stroke-width:0.3;stroke-linejoin:bevel;" points="41.75,-40.75 42,-38.75    44.417,-39.833   "/>
  <polygon style="fill:none;stroke:#000000;stroke-width:0.3;stroke-linejoin:bevel;" points="48.25,-40.25 49.167,-38.5    50.583,-39.917 49.833,-40.833   "/>
  <polygon style="fill:none;stroke:#000000;stroke-width:0.3;stroke-linejoin:bevel;" points="52.833,-40.667 53.75,-39.75    52.083,-38.917   "/>
  <polygon style="fill:none;stroke:#000000;stroke-width:0.3;stroke-linejoin:bevel;" points="7.417,-37.75 7.083,-36.583    8.667,-35.333 9.167,-37   "/>
  <polygon style="fill:none;stroke:#000000;stroke-width:0.3;stroke-linejoin:bevel;" points="11.083,-34.833 10.333,-33.5    12.583,-32.5 12.917,-34.25   "/>
  <polygon style="fill:none;stroke:#000000;stroke-width:0.3;stroke-linejoin:bevel;" points="15.583,-34 15.5,-32.917    17.5,-32.667 17.5,-34.25   "/>
  <polygon style="fill:none;stroke:#000000;stroke-width:0.3;stroke-linejoin:bevel;" points="22.333,-34.25 20.917,-32.75    23.25,-31.833   "/>
  <polygon style="fill:none;stroke:#000000;stroke-width:0.3;stroke-linejoin:bevel;" points="25.667,-35.333 27,-36.083    28.583,-36.083 27.917,-33.667   "/>
  <polygon style="fill:none;stroke:#000000;stroke-width:0.3;stroke-linejoin:bevel;" points="30.167,-33.5 29.083,-31.75    31.333,-31.667   "/>
  <polygon style="fill:none;stroke:#000000;stroke-width:0.3;stroke-linejoin:bevel;" points="31.333,-36.667 34,-36.75    32.917,-34.583   "/>
  <polygon style="fill:none;stroke:#000000;stroke-width:0.3;stroke-linejoin:bevel;" points="39.5,-37.917 39.667,-35.25    37.417,-35.75   "/>
  <polygon style="fill:none;stroke:#000000;stroke-width:0.3;stroke-linejoin:bevel;" points="12.917,-17.167 13.083,-14.5    10.833,-15   "/>
  <polygon style="fill:none;stroke:#000000;stroke-width:0.3;stroke-linejoin:bevel;" points="41.583,-33.917 41.5,-32.083    43.833,-32.333 42.833,-33.833   "/>
  <polygon style="fill:none;stroke:#000000;stroke-width:0.3;stroke-linejoin:bevel;" points="44.333,-36.583 46.917,-37.333    46.583,-35   "/>
  <polygon style="fill:none;stroke:#000000;stroke-width:0.3;stroke-linejoin:bevel;" points="48.417,-33.667 49.583,-33.917    50.583,-32 48.333,-31.667   "/>
  <polygon style="fill:none;stroke:#000000;stroke-width:0.3;stroke-linejoin:bevel;" points="52.833,-37.5 52.083,-35.583    53.667,-35.083 54.417,-36.75   "/>
  <polygon style="fill:none;stroke:#000000;stroke-width:0.3;stroke-linejoin:bevel;" points="53,-33.5 52.25,-32.833    53.167,-31.583 54.25,-32.583   "/>
  <polygon style="fill:none;stroke:#000000;stroke-width:0.3;stroke-linejoin:bevel;" points="35.75,-33.667 34.833,-31.833    37.5,-31.917   "/>
  <polygon style="fill:none;stroke:#000000;stroke-width:0.3;stroke-linejoin:bevel;" points="4.167,-35.5 2.833,-34 5,-33.25   "/>
  <polygon style="fill:none;stroke:#000000;stroke-width:0.3;stroke-linejoin:bevel;" points="6.833,-4.25 6.5,-3.083 8.083,-1.833    8.583,-3.5   "/>
  <polygon style="fill:none;stroke:#000000;stroke-width:0.3;stroke-linejoin:bevel;" points="15.667,-3.167 15.583,-2.083    17.583,-1.833 17.583,-3.417   "/>
  <polygon style="fill:none;stroke:#000000;stroke-width:0.3;stroke-linejoin:bevel;" points="22.333,-4.25 20.917,-2.75    23.25,-1.833   "/>
  <polygon style="fill:none;stroke:#000000;stroke-width:0.3;stroke-linejoin:bevel;" points="24.333,-4.667 25.667,-5.417    27.25,-5.417 26.583,-3   "/>
  <polygon style="fill:none;stroke:#000000;stroke-width:0.3;stroke-linejoin:bevel;" points="30.167,-3.5 29.083,-1.75    31.333,-1.667   "/>
  <polygon style="fill:none;stroke:#000000;stroke-width:0.3;stroke-linejoin:bevel;" points="37.667,-5.083 40.333,-5.167    39.25,-3   "/>
  <polygon style="fill:none;stroke:#000000;stroke-width:0.3;stroke-linejoin:bevel;" points="12.583,-4.167 12.75,-1.5 10.5,-2    "/>
  <polygon style="fill:none;stroke:#000000;stroke-width:0.3;stroke-linejoin:bevel;" points="41.583,-3.917 41.5,-2.083    43.833,-2.333 42.833,-3.833   "/>
  <polygon style="fill:none;stroke:#000000;stroke-width:0.3;stroke-linejoin:bevel;" points="43.833,-4.917 46.417,-5.667    46.083,-3.333   "/>
  <polygon style="fill:none;stroke:#000000;stroke-width:0.3;stroke-linejoin:bevel;" points="48.417,-3.667 49.583,-3.917    50.583,-2 48.333,-1.667   "/>
  <polygon style="fill:none;stroke:#000000;stroke-width:0.3;stroke-linejoin:bevel;" points="32.917,-5.25 32.167,-3.333    33.75,-2.833 34.5,-4.5   "/>
  <polygon style="fill:none;stroke:#000000;stroke-width:0.3;stroke-linejoin:bevel;" points="53,-3.5 52.25,-2.833 53.167,-1.583    54.25,-2.583   "/>
  <polygon style="fill:none;stroke:#000000;stroke-width:0.3;stroke-linejoin:bevel;" points="35.75,-3.667 34.833,-1.833    37.5,-1.917   "/>
  <polygon style="fill:none;stroke:#000000;stroke-width:0.3;stroke-linejoin:bevel;" points="3.208,-4.062 1.875,-2.562    4.042,-1.812   "/>
  <polygon style="fill:none;stroke:#000000;stroke-width:0.3;stroke-linejoin:bevel;" points="3.958,-24.208 5.125,-22.375    2.625,-22.208   "/>
  <polygon style="fill:none;stroke:#000000;stroke-width:0.3;stroke-linejoin:bevel;" points="6.208,-23.938 8.458,-24.021    7.458,-22.188   "/>
  <polygon style="fill:none;stroke:#000000;stroke-width:0.3;stroke-linejoin:bevel;" points="8.667,-21.625 10.833,-22.792    11.083,-20.708   "/>
  <polygon style="fill:none;stroke:#000000;stroke-width:0.3;stroke-linejoin:bevel;" points="12.792,-23.688 13.875,-22.271    15.708,-23.938   "/>
  <polygon style="fill:none;stroke:#000000;stroke-width:0.3;stroke-linejoin:bevel;" points="17.375,-23.042 17.458,-21.625    19.208,-20.958 19.542,-22.625   "/>
  <polygon style="fill:none;stroke:#000000;stroke-width:0.3;stroke-linejoin:bevel;" points="20.208,-24.271 21.958,-24.771    22.125,-22.688   "/>
  <polygon style="fill:none;stroke:#000000;stroke-width:0.3;stroke-linejoin:bevel;" points="22.896,-21.375 23.896,-19.625    25.396,-21.375   "/>
  <polygon style="fill:none;stroke:#000000;stroke-width:0.3;stroke-linejoin:bevel;" points="26.125,-22.688 26.792,-21.521    29.042,-23.354 27.292,-24.021   "/>
  <polygon style="fill:none;stroke:#000000;stroke-width:0.3;stroke-linejoin:bevel;" points="31.333,-22.625 29.917,-21.375    32.917,-21.125   "/>
  <polygon style="fill:none;stroke:#000000;stroke-width:0.3;stroke-linejoin:bevel;" points="33.125,-23.521 34.625,-21.938    36.125,-23.854 33.708,-24.104   "/>
  <polygon style="fill:none;stroke:#000000;stroke-width:0.3;stroke-linejoin:bevel;" points="39.292,-23.521 40.875,-23.688    42.042,-22.938 41.208,-21.771   "/>
  <polygon style="fill:none;stroke:#000000;stroke-width:0.3;stroke-linejoin:bevel;" points="42.333,-20.5 41.333,-19.167    43.25,-18.5 44.667,-19.5   "/>
  <polygon style="fill:none;stroke:#000000;stroke-width:0.3;stroke-linejoin:bevel;" points="45.875,-23.688 48.708,-23.854    47.375,-22.104   "/>
  <polygon style="fill:none;stroke:#000000;stroke-width:0.3;stroke-linejoin:bevel;" points="50.125,-21.583 51.625,-20.917    51.458,-19.833 49.042,-20.25   "/>
  <polygon style="fill:none;stroke:#000000;stroke-width:0.3;stroke-linejoin:bevel;" points="54.062,-22.125 51.5,-22.75    52.875,-24.375   "/>
  <polygon style="fill:none;stroke:#000000;stroke-width:0.3;stroke-linejoin:bevel;" points="2,-16.5 4.417,-16.25 4.167,-14.5    2.083,-14.583   "/>
  <polygon style="fill:none;stroke:#000000;stroke-width:0.3;stroke-linejoin:bevel;" points="6.833,-16.667 9,-16.333 8.333,-14.5      "/>
  <polygon style="fill:none;stroke:#000000;stroke-width:0.3;stroke-linejoin:bevel;" points="16.333,-17.25 19.417,-16.75    18.667,-15.833 18.417,-14.083   "/>
  <polygon style="fill:none;stroke:#000000;stroke-width:0.3;stroke-linejoin:bevel;" points="24.292,-17.375 25.458,-15.792    23.292,-14.625 21.958,-14.958   "/>
  <polygon style="fill:none;stroke:#000000;stroke-width:0.3;stroke-linejoin:bevel;" points="27.438,-16.062 27.771,-14.229    30.271,-15.479   "/>
  <polygon style="fill:none;stroke:#000000;stroke-width:0.3;stroke-linejoin:bevel;" points="34.167,-16 36.667,-16.417    36.917,-14.667   "/>
  <polygon style="fill:none;stroke:#000000;stroke-width:0.3;stroke-linejoin:bevel;" points="40.25,-16.5 40.5,-14.5    42.917,-15.583   "/>
  <polygon style="fill:none;stroke:#000000;stroke-width:0.3;stroke-linejoin:bevel;" points="45.354,-16.458 46.271,-14.708    47.688,-16.125 46.938,-17.042   "/>
  <polygon style="fill:none;stroke:#000000;stroke-width:0.3;stroke-linejoin:bevel;" points="51.062,-16.938 52.625,-15    50.062,-14.562   "/>
  <line style="fill:none;stroke:#000000;stroke-width:0.8;stroke-linecap:round;stroke-linejoin:bevel;" y1="-50.167" x2="5.083" y2="-50.167" x1="5.083"/>
  <line style="fill:none;stroke:#000000;stroke-width:0.8;stroke-linecap:round;stroke-linejoin:bevel;" y1="-50.917" x2="9.5" y2="-50.917" x1="9.5"/>
  <line style="fill:none;stroke:#000000;stroke-width:0.8;stroke-linecap:round;stroke-linejoin:bevel;" y1="-53.167" x2="13.917" y2="-53.167" x1="13.917"/>
  <line style="fill:none;stroke:#000000;stroke-width:0.8;stroke-linecap:round;stroke-linejoin:bevel;" y1="-50.833" x2="14.333" y2="-50.833" x1="14.333"/>
  <line style="fill:none;stroke:#000000;stroke-width:0.8;stroke-linecap:round;stroke-linejoin:bevel;" y1="-49.833" x2="17.917" y2="-49.833" x1="17.917"/>
  <line style="fill:none;stroke:#000000;stroke-width:0.8;stroke-linecap:round;stroke-linejoin:bevel;" y1="-51.667" x2="19.167" y2="-51.667" x1="19.167"/>
  <line style="fill:none;stroke:#000000;stroke-width:0.8;stroke-linecap:round;stroke-linejoin:bevel;" y1="-53.833" x2="18.25" y2="-53.833" x1="18.25"/>
  <line style="fill:none;stroke:#000000;stroke-width:0.8;stroke-linecap:round;stroke-linejoin:bevel;" y1="-48.167" x2="11.333" y2="-48.167" x1="11.333"/>
  <line style="fill:none;stroke:#000000;stroke-width:0.8;stroke-linecap:round;stroke-linejoin:bevel;" y1="-46.917" x2="13.667" y2="-46.917" x1="13.667"/>
  <line style="fill:none;stroke:#000000;stroke-width:0.8;stroke-linecap:round;stroke-linejoin:bevel;" y1="-47.167" x2="17.083" y2="-47.167" x1="17.083"/>
  <line style="fill:none;stroke:#000000;stroke-width:0.8;stroke-linecap:round;stroke-linejoin:bevel;" y1="-45.917" x2="20.25" y2="-45.917" x1="20.25"/>
  <line style="fill:none;stroke:#000000;stroke-width:0.8;stroke-linecap:round;stroke-linejoin:bevel;" y1="-50" x2="22.333" y2="-50" x1="22.333"/>
  <line style="fill:none;stroke:#000000;stroke-width:0.8;stroke-linecap:round;stroke-linejoin:bevel;" y1="-53.333" x2="24.25" y2="-53.333" x1="24.25"/>
  <line style="fill:none;stroke:#000000;stroke-width:0.8;stroke-linecap:round;stroke-linejoin:bevel;" y1="-51.25" x2="27.083" y2="-51.25" x1="27.083"/>
  <line style="fill:none;stroke:#000000;stroke-width:0.8;stroke-linecap:round;stroke-linejoin:bevel;" y1="-54.167" x2="30.917" y2="-54.167" x1="30.917"/>
  <line style="fill:none;stroke:#000000;stroke-width:0.8;stroke-linecap:round;stroke-linejoin:bevel;" y1="-52.5" x2="32.417" y2="-52.5" x1="32.417"/>
  <line style="fill:none;stroke:#000000;stroke-width:0.8;stroke-linecap:round;stroke-linejoin:bevel;" y1="-48.917" x2="30.917" y2="-48.917" x1="30.917"/>
  <line style="fill:none;stroke:#000000;stroke-width:0.8;stroke-linecap:round;stroke-linejoin:bevel;" y1="-47.833" x2="24.5" y2="-47.833" x1="24.5"/>
  <line style="fill:none;stroke:#000000;stroke-width:0.8;stroke-linecap:round;stroke-linejoin:bevel;" y1="-45" x2="23.5" y2="-45" x1="23.5"/>
  <line style="fill:none;stroke:#000000;stroke-width:0.8;stroke-linecap:round;stroke-linejoin:bevel;" y1="-45.833" x2="27.917" y2="-45.833" x1="27.917"/>
  <line style="fill:none;stroke:#000000;stroke-width:0.8;stroke-linecap:round;stroke-linejoin:bevel;" y1="-46.5" x2="31.333" y2="-46.5" x1="31.333"/>
  <line style="fill:none;stroke:#000000;stroke-width:0.8;stroke-linecap:round;stroke-linejoin:bevel;" y1="-46" x2="35" y2="-46" x1="35"/>
  <line style="fill:none;stroke:#000000;stroke-width:0.8;stroke-linecap:round;stroke-linejoin:bevel;" y1="-46.25" x2="37.917" y2="-46.25" x1="37.917"/>
  <line style="fill:none;stroke:#000000;stroke-width:0.8;stroke-linecap:round;stroke-linejoin:bevel;" y1="-49.333" x2="37.667" y2="-49.333" x1="37.667"/>
  <line style="fill:none;stroke:#000000;stroke-width:0.8;stroke-linecap:round;stroke-linejoin:bevel;" y1="-50.833" x2="34.917" y2="-50.833" x1="34.917"/>
  <line style="fill:none;stroke:#000000;stroke-width:0.8;stroke-linecap:round;stroke-linejoin:bevel;" y1="-52.333" x2="37.667" y2="-52.333" x1="37.667"/>
  <line style="fill:none;stroke:#000000;stroke-width:0.8;stroke-linecap:round;stroke-linejoin:bevel;" y1="-54.188" x2="41.875" y2="-54.188" x1="41.875"/>
  <line style="fill:none;stroke:#000000;stroke-width:0.8;stroke-linecap:round;stroke-linejoin:bevel;" y1="-50.583" x2="42.167" y2="-50.583" x1="42.167"/>
  <line style="fill:none;stroke:#000000;stroke-width:0.8;stroke-linecap:round;stroke-linejoin:bevel;" y1="-47.833" x2="43.75" y2="-47.833" x1="43.75"/>
  <line style="fill:none;stroke:#000000;stroke-width:0.8;stroke-linecap:round;stroke-linejoin:bevel;" y1="-50.167" x2="47.5" y2="-50.167" x1="47.5"/>
  <line style="fill:none;stroke:#000000;stroke-width:0.8;stroke-linecap:round;stroke-linejoin:bevel;" y1="-53.333" x2="45" y2="-53.333" x1="45"/>
  <line style="fill:none;stroke:#000000;stroke-width:0.8;stroke-linecap:round;stroke-linejoin:bevel;" y1="-54.167" x2="50.667" y2="-54.167" x1="50.667"/>
  <line style="fill:none;stroke:#000000;stroke-width:0.8;stroke-linecap:round;stroke-linejoin:bevel;" y1="-51.5" x2="52.333" y2="-51.5" x1="52.333"/>
  <line style="fill:none;stroke:#000000;stroke-width:0.8;stroke-linecap:round;stroke-linejoin:bevel;" y1="-49.5" x2="53.917" y2="-49.5" x1="53.917"/>
  <line style="fill:none;stroke:#000000;stroke-width:0.8;stroke-linecap:round;stroke-linejoin:bevel;" y1="-47.75" x2="50.25" y2="-47.75" x1="50.25"/>
  <line style="fill:none;stroke:#000000;stroke-width:0.8;stroke-linecap:round;stroke-linejoin:bevel;" y1="-45.583" x2="53.667" y2="-45.583" x1="53.667"/>
  <line style="fill:none;stroke:#000000;stroke-width:0.8;stroke-linecap:round;stroke-linejoin:bevel;" y1="-45.333" x2="50.5" y2="-45.333" x1="50.5"/>
  <line style="fill:none;stroke:#000000;stroke-width:0.8;stroke-linecap:round;stroke-linejoin:bevel;" y1="-45.75" x2="46.583" y2="-45.75" x1="46.583"/>
  <line style="fill:none;stroke:#000000;stroke-width:0.8;stroke-linecap:round;stroke-linejoin:bevel;" y1="-47.667" x2="6.667" y2="-47.667" x1="6.667"/>
  <line style="fill:none;stroke:#000000;stroke-width:0.8;stroke-linecap:round;stroke-linejoin:bevel;" y1="-46.917" x2="2" y2="-46.917" x1="2"/>
  <line style="fill:none;stroke:#000000;stroke-width:0.8;stroke-linecap:round;stroke-linejoin:bevel;" y1="-45.917" x2="4.75" y2="-45.917" x1="4.75"/>
  <line style="fill:none;stroke:#000000;stroke-width:0.8;stroke-linecap:round;stroke-linejoin:bevel;" y1="-45.333" x2="9.333" y2="-45.333" x1="9.333"/>
  <line style="fill:none;stroke:#000000;stroke-width:0.8;stroke-linecap:round;stroke-linejoin:bevel;" y1="-44" x2="12.75" y2="-44" x1="12.75"/>
  <line style="fill:none;stroke:#000000;stroke-width:0.8;stroke-linecap:round;stroke-linejoin:bevel;" y1="-42.833" x2="9.583" y2="-42.833" x1="9.583"/>
  <line style="fill:none;stroke:#000000;stroke-width:0.8;stroke-linecap:round;stroke-linejoin:bevel;" y1="-44.417" x2="6.75" y2="-44.417" x1="6.75"/>
  <line style="fill:none;stroke:#000000;stroke-width:0.8;stroke-linecap:round;stroke-linejoin:bevel;" y1="-42.167" x2="5" y2="-42.167" x1="5"/>
  <line style="fill:none;stroke:#000000;stroke-width:0.8;stroke-linecap:round;stroke-linejoin:bevel;" y1="-43.833" x2="3.167" y2="-43.833" x1="3.167"/>
  <line style="fill:none;stroke:#000000;stroke-width:0.8;stroke-linecap:round;stroke-linejoin:bevel;" y1="-39.5" x2="1.917" y2="-39.5" x1="1.917"/>
  <line style="fill:none;stroke:#000000;stroke-width:0.8;stroke-linecap:round;stroke-linejoin:bevel;" y1="-44.833" x2="16" y2="-44.833" x1="16"/>
  <line style="fill:none;stroke:#000000;stroke-width:0.8;stroke-linecap:round;stroke-linejoin:bevel;" y1="-41.75" x2="15.083" y2="-41.75" x1="15.083"/>
  <line style="fill:none;stroke:#000000;stroke-width:0.8;stroke-linecap:round;stroke-linejoin:bevel;" y1="-40.167" x2="12.667" y2="-40.167" x1="12.667"/>
  <line style="fill:none;stroke:#000000;stroke-width:0.8;stroke-linecap:round;stroke-linejoin:bevel;" y1="-43.5" x2="19.167" y2="-43.5" x1="19.167"/>
  <line style="fill:none;stroke:#000000;stroke-width:0.8;stroke-linecap:round;stroke-linejoin:bevel;" y1="-54.25" x2="7.5" y2="-54.25" x1="7.5"/>
  <line style="fill:none;stroke:#000000;stroke-width:0.8;stroke-linecap:round;stroke-linejoin:bevel;" y1="-42.25" x2="21.917" y2="-42.25" x1="21.917"/>
  <line style="fill:none;stroke:#000000;stroke-width:0.8;stroke-linecap:round;stroke-linejoin:bevel;" y1="-42.417" x2="25.75" y2="-42.417" x1="25.75"/>
  <line style="fill:none;stroke:#000000;stroke-width:0.8;stroke-linecap:round;stroke-linejoin:bevel;" y1="-43.583" x2="29.917" y2="-43.583" x1="29.917"/>
  <line style="fill:none;stroke:#000000;stroke-width:0.8;stroke-linecap:round;stroke-linejoin:bevel;" y1="-43.583" x2="33.417" y2="-43.583" x1="33.417"/>
  <line style="fill:none;stroke:#000000;stroke-width:0.8;stroke-linecap:round;stroke-linejoin:bevel;" y1="-40.667" x2="31.833" y2="-40.667" x1="31.833"/>
  <line style="fill:none;stroke:#000000;stroke-width:0.8;stroke-linecap:round;stroke-linejoin:bevel;" y1="-39.25" x2="26" y2="-39.25" x1="26"/>
  <line style="fill:none;stroke:#000000;stroke-width:0.8;stroke-linecap:round;stroke-linejoin:bevel;" y1="-39.083" x2="20.833" y2="-39.083" x1="20.833"/>
  <line style="fill:none;stroke:#000000;stroke-width:0.8;stroke-linecap:round;stroke-linejoin:bevel;" y1="-38.417" x2="16.667" y2="-38.417" x1="16.667"/>
  <line style="fill:none;stroke:#000000;stroke-width:0.8;stroke-linecap:round;stroke-linejoin:bevel;" y1="-36.583" x2="10.833" y2="-36.583" x1="10.833"/>
  <line style="fill:none;stroke:#000000;stroke-width:0.8;stroke-linecap:round;stroke-linejoin:bevel;" y1="-37.5" x2="5.562" y2="-37.5" x1="5.562"/>
  <line style="fill:none;stroke:#000000;stroke-width:0.8;stroke-linecap:round;stroke-linejoin:bevel;" y1="-36.5" x2="2.312" y2="-36.5" x1="2.312"/>
  <line style="fill:none;stroke:#000000;stroke-width:0.8;stroke-linecap:round;stroke-linejoin:bevel;" y1="-35.583" x2="19.333" y2="-35.583" x1="19.333"/>
  <line style="fill:none;stroke:#000000;stroke-width:0.8;stroke-linecap:round;stroke-linejoin:bevel;" y1="-33.75" x2="14.25" y2="-33.75" x1="14.25"/>
  <line style="fill:none;stroke:#000000;stroke-width:0.8;stroke-linecap:round;stroke-linejoin:bevel;" y1="-35.917" x2="23.917" y2="-35.917" x1="23.917"/>
  <line style="fill:none;stroke:#000000;stroke-width:0.8;stroke-linecap:round;stroke-linejoin:bevel;" y1="-33.167" x2="25.5" y2="-33.167" x1="25.5"/>
  <line style="fill:none;stroke:#000000;stroke-width:0.8;stroke-linecap:round;stroke-linejoin:bevel;" y1="-30.083" x2="28.5" y2="-30.083" x1="28.5"/>
  <line style="fill:none;stroke:#000000;stroke-width:0.8;stroke-linecap:round;stroke-linejoin:bevel;" y1="-35" x2="30.5" y2="-35" x1="30.5"/>
  <line style="fill:none;stroke:#000000;stroke-width:0.8;stroke-linecap:round;stroke-linejoin:bevel;" y1="-37.583" x2="29.833" y2="-37.583" x1="29.833"/>
  <line style="fill:none;stroke:#000000;stroke-width:0.8;stroke-linecap:round;stroke-linejoin:bevel;" y1="-38" x2="35.083" y2="-38" x1="35.083"/>
  <line style="fill:none;stroke:#000000;stroke-width:0.8;stroke-linecap:round;stroke-linejoin:bevel;" y1="-42.167" x2="35.917" y2="-42.167" x1="35.917"/>
  <line style="fill:none;stroke:#000000;stroke-width:0.8;stroke-linecap:round;stroke-linejoin:bevel;" y1="-44.167" x2="37.667" y2="-44.167" x1="37.667"/>
  <line style="fill:none;stroke:#000000;stroke-width:0.8;stroke-linecap:round;stroke-linejoin:bevel;" y1="-45.75" x2="40.75" y2="-45.75" x1="40.75"/>
  <line style="fill:none;stroke:#000000;stroke-width:0.8;stroke-linecap:round;stroke-linejoin:bevel;" y1="-43.417" x2="40.417" y2="-43.417" x1="40.417"/>
  <line style="fill:none;stroke:#000000;stroke-width:0.8;stroke-linecap:round;stroke-linejoin:bevel;" y1="-40.917" x2="38.75" y2="-40.917" x1="38.75"/>
  <line style="fill:none;stroke:#000000;stroke-width:0.8;stroke-linecap:round;stroke-linejoin:bevel;" y1="-35.25" x2="35.75" y2="-35.25" x1="35.75"/>
  <line style="fill:none;stroke:#000000;stroke-width:0.8;stroke-linecap:round;stroke-linejoin:bevel;" y1="-32" x2="33" y2="-32" x1="33"/>
  <line style="fill:none;stroke:#000000;stroke-width:0.8;stroke-linecap:round;stroke-linejoin:bevel;" y1="-33.167" x2="39.083" y2="-33.167" x1="39.083"/>
  <line style="fill:none;stroke:#000000;stroke-width:0.8;stroke-linecap:round;stroke-linejoin:bevel;" y1="-35.917" x2="41.833" y2="-35.917" x1="41.833"/>
  <line style="fill:none;stroke:#000000;stroke-width:0.8;stroke-linecap:round;stroke-linejoin:bevel;" y1="-38.917" x2="40.5" y2="-38.917" x1="40.5"/>
  <line style="fill:none;stroke:#000000;stroke-width:0.8;stroke-linecap:round;stroke-linejoin:bevel;" y1="-38.25" x2="44.333" y2="-38.25" x1="44.333"/>
  <line style="fill:none;stroke:#000000;stroke-width:0.8;stroke-linecap:round;stroke-linejoin:bevel;" y1="-40.083" x2="47.083" y2="-40.083" x1="47.083"/>
  <line style="fill:none;stroke:#000000;stroke-width:0.8;stroke-linecap:round;stroke-linejoin:bevel;" y1="-41.75" x2="44.167" y2="-41.75" x1="44.167"/>
  <line style="fill:none;stroke:#000000;stroke-width:0.8;stroke-linecap:round;stroke-linejoin:bevel;" y1="-44.5" x2="44.083" y2="-44.5" x1="44.083"/>
  <line style="fill:none;stroke:#000000;stroke-width:0.8;stroke-linecap:round;stroke-linejoin:bevel;" y1="-42.833" x2="47.333" y2="-42.833" x1="47.333"/>
  <line style="fill:none;stroke:#000000;stroke-width:0.8;stroke-linecap:round;stroke-linejoin:bevel;" y1="-41.583" x2="51.083" y2="-41.583" x1="51.083"/>
  <line style="fill:none;stroke:#000000;stroke-width:0.8;stroke-linecap:round;stroke-linejoin:bevel;" y1="-43.333" x2="52.833" y2="-43.333" x1="52.833"/>
  <line style="fill:none;stroke:#000000;stroke-width:0.8;stroke-linecap:round;stroke-linejoin:bevel;" y1="-36.583" x2="49.667" y2="-36.583" x1="49.667"/>
  <line style="fill:none;stroke:#000000;stroke-width:0.8;stroke-linecap:round;stroke-linejoin:bevel;" y1="-33.75" x2="51.333" y2="-33.75" x1="51.333"/>
  <line style="fill:none;stroke:#000000;stroke-width:0.8;stroke-linecap:round;stroke-linejoin:bevel;" y1="-33.917" x2="45.167" y2="-33.917" x1="45.167"/>
  <line style="fill:none;stroke:#000000;stroke-width:0.8;stroke-linecap:round;stroke-linejoin:bevel;" y1="-31" x2="46.833" y2="-31" x1="46.833"/>
  <line style="fill:none;stroke:#000000;stroke-width:0.8;stroke-linecap:round;stroke-linejoin:bevel;" y1="-30.667" x2="50.083" y2="-30.667" x1="50.083"/>
  <line style="fill:none;stroke:#000000;stroke-width:0.8;stroke-linecap:round;stroke-linejoin:bevel;" y1="-29.917" x2="53.167" y2="-29.917" x1="53.167"/>
  <line style="fill:none;stroke:#000000;stroke-width:0.8;stroke-linecap:round;stroke-linejoin:bevel;" y1="-31.062" x2="42.875" y2="-31.062" x1="42.875"/>
  <line style="fill:none;stroke:#000000;stroke-width:0.8;stroke-linecap:round;stroke-linejoin:bevel;" y1="-30.583" x2="39.083" y2="-30.583" x1="39.083"/>
  <line style="fill:none;stroke:#000000;stroke-width:0.8;stroke-linecap:round;stroke-linejoin:bevel;" y1="-30.667" x2="36.083" y2="-30.667" x1="36.083"/>
  <line style="fill:none;stroke:#000000;stroke-width:0.8;stroke-linecap:round;stroke-linejoin:bevel;" y1="-29.167" x2="31.917" y2="-29.167" x1="31.917"/>
  <line style="fill:none;stroke:#000000;stroke-width:0.8;stroke-linecap:round;stroke-linejoin:bevel;" y1="-27.062" x2="38" y2="-27.062" x1="38"/>
  <line style="fill:none;stroke:#000000;stroke-width:0.8;stroke-linecap:round;stroke-linejoin:bevel;" y1="-30.75" x2="24.417" y2="-30.75" x1="24.417"/>
  <line style="fill:none;stroke:#000000;stroke-width:0.8;stroke-linecap:round;stroke-linejoin:bevel;" y1="-32.333" x2="19.167" y2="-32.333" x1="19.167"/>
  <line style="fill:none;stroke:#000000;stroke-width:0.8;stroke-linecap:round;stroke-linejoin:bevel;" y1="-36.083" x2="16.25" y2="-36.083" x1="16.25"/>
  <line style="fill:none;stroke:#000000;stroke-width:0.8;stroke-linecap:round;stroke-linejoin:bevel;" y1="-30.667" x2="16.25" y2="-30.667" x1="16.25"/>
  <line style="fill:none;stroke:#000000;stroke-width:0.8;stroke-linecap:round;stroke-linejoin:bevel;" y1="-31.333" x2="10.667" y2="-31.333" x1="10.667"/>
  <line style="fill:none;stroke:#000000;stroke-width:0.8;stroke-linecap:round;stroke-linejoin:bevel;" y1="-34" x2="6.917" y2="-34" x1="6.917"/>
  <line style="fill:none;stroke:#000000;stroke-width:0.8;stroke-linecap:round;stroke-linejoin:bevel;" y1="-32.583" x2="2.083" y2="-32.583" x1="2.083"/>
  <line style="fill:none;stroke:#000000;stroke-width:0.8;stroke-linecap:round;stroke-linejoin:bevel;" y1="-31.833" x2="5" y2="-31.833" x1="5"/>
  <line style="fill:none;stroke:#000000;stroke-width:0.8;stroke-linecap:round;stroke-linejoin:bevel;" y1="-21" x2="4.583" y2="-21" x1="4.583"/>
  <line style="fill:none;stroke:#000000;stroke-width:0.8;stroke-linecap:round;stroke-linejoin:bevel;" y1="-13.583" x2="9.083" y2="-13.583" x1="9.083"/>
  <line style="fill:none;stroke:#000000;stroke-width:0.8;stroke-linecap:round;stroke-linejoin:bevel;" y1="-19.667" x2="17.083" y2="-19.667" x1="17.083"/>
  <line style="fill:none;stroke:#000000;stroke-width:0.8;stroke-linecap:round;stroke-linejoin:bevel;" y1="-13.5" x2="13.917" y2="-13.5" x1="13.917"/>
  <line style="fill:none;stroke:#000000;stroke-width:0.8;stroke-linecap:round;stroke-linejoin:bevel;" y1="-12.5" x2="17.5" y2="-12.5" x1="17.5"/>
  <line style="fill:none;stroke:#000000;stroke-width:0.8;stroke-linecap:round;stroke-linejoin:bevel;" y1="-15.833" x2="20.5" y2="-15.833" x1="20.5"/>
  <line style="fill:none;stroke:#000000;stroke-width:0.8;stroke-linecap:round;stroke-linejoin:bevel;" y1="-24.5" x2="24.333" y2="-24.5" x1="24.333"/>
  <line style="fill:none;stroke:#000000;stroke-width:0.8;stroke-linecap:round;stroke-linejoin:bevel;" y1="-10.833" x2="10.917" y2="-10.833" x1="10.917"/>
  <line style="fill:none;stroke:#000000;stroke-width:0.8;stroke-linecap:round;stroke-linejoin:bevel;" y1="-10.417" x2="13.833" y2="-10.417" x1="13.833"/>
  <line style="fill:none;stroke:#000000;stroke-width:0.8;stroke-linecap:round;stroke-linejoin:bevel;" y1="-9.833" x2="16.667" y2="-9.833" x1="16.667"/>
  <line style="fill:none;stroke:#000000;stroke-width:0.8;stroke-linecap:round;stroke-linejoin:bevel;" y1="-9.833" x2="20" y2="-9.833" x1="20"/>
  <line style="fill:none;stroke:#000000;stroke-width:0.8;stroke-linecap:round;stroke-linejoin:bevel;" y1="-12.667" x2="21.917" y2="-12.667" x1="21.917"/>
  <line style="fill:none;stroke:#000000;stroke-width:0.8;stroke-linecap:round;stroke-linejoin:bevel;" y1="-27" x2="30.917" y2="-27" x1="30.917"/>
  <line style="fill:none;stroke:#000000;stroke-width:0.8;stroke-linecap:round;stroke-linejoin:bevel;" y1="-13.917" x2="26.667" y2="-13.917" x1="26.667"/>
  <line style="fill:none;stroke:#000000;stroke-width:0.8;stroke-linecap:round;stroke-linejoin:bevel;" y1="-16.833" x2="30.5" y2="-16.833" x1="30.5"/>
  <line style="fill:none;stroke:#000000;stroke-width:0.8;stroke-linecap:round;stroke-linejoin:bevel;" y1="-15.167" x2="32" y2="-15.167" x1="32"/>
  <line style="fill:none;stroke:#000000;stroke-width:0.8;stroke-linecap:round;stroke-linejoin:bevel;" y1="-11.583" x2="30.5" y2="-11.583" x1="30.5"/>
  <line style="fill:none;stroke:#000000;stroke-width:0.8;stroke-linecap:round;stroke-linejoin:bevel;" y1="-10.5" x2="24.083" y2="-10.5" x1="24.083"/>
  <line style="fill:none;stroke:#000000;stroke-width:0.8;stroke-linecap:round;stroke-linejoin:bevel;" y1="-7.667" x2="23.083" y2="-7.667" x1="23.083"/>
  <line style="fill:none;stroke:#000000;stroke-width:0.8;stroke-linecap:round;stroke-linejoin:bevel;" y1="-8.5" x2="27.5" y2="-8.5" x1="27.5"/>
  <line style="fill:none;stroke:#000000;stroke-width:0.8;stroke-linecap:round;stroke-linejoin:bevel;" y1="-9.167" x2="30.917" y2="-9.167" x1="30.917"/>
  <line style="fill:none;stroke:#000000;stroke-width:0.8;stroke-linecap:round;stroke-linejoin:bevel;" y1="-10.583" x2="34" y2="-10.583" x1="34"/>
  <line style="fill:none;stroke:#000000;stroke-width:0.8;stroke-linecap:round;stroke-linejoin:bevel;" y1="-8.917" x2="37.5" y2="-8.917" x1="37.5"/>
  <line style="fill:none;stroke:#000000;stroke-width:0.8;stroke-linecap:round;stroke-linejoin:bevel;" y1="-12" x2="37.25" y2="-12" x1="37.25"/>
  <line style="fill:none;stroke:#000000;stroke-width:0.8;stroke-linecap:round;stroke-linejoin:bevel;" y1="-13.5" x2="34.5" y2="-13.5" x1="34.5"/>
  <line style="fill:none;stroke:#000000;stroke-width:0.8;stroke-linecap:round;stroke-linejoin:bevel;" y1="-28.25" x2="46.583" y2="-28.25" x1="46.583"/>
  <line style="fill:none;stroke:#000000;stroke-width:0.8;stroke-linecap:round;stroke-linejoin:bevel;" y1="-17.583" x2="38.917" y2="-17.583" x1="38.917"/>
  <line style="fill:none;stroke:#000000;stroke-width:0.8;stroke-linecap:round;stroke-linejoin:bevel;" y1="-13.25" x2="41.75" y2="-13.25" x1="41.75"/>
  <line style="fill:none;stroke:#000000;stroke-width:0.8;stroke-linecap:round;stroke-linejoin:bevel;" y1="-10.5" x2="43.333" y2="-10.5" x1="43.333"/>
  <line style="fill:none;stroke:#000000;stroke-width:0.8;stroke-linecap:round;stroke-linejoin:bevel;" y1="-12.833" x2="47.083" y2="-12.833" x1="47.083"/>
  <line style="fill:none;stroke:#000000;stroke-width:0.8;stroke-linecap:round;stroke-linejoin:bevel;" y1="-16.938" x2="43.438" y2="-16.938" x1="43.438"/>
  <line style="fill:none;stroke:#000000;stroke-width:0.8;stroke-linecap:round;stroke-linejoin:bevel;" y1="-15.5" x2="48.917" y2="-15.5" x1="48.917"/>
  <line style="fill:none;stroke:#000000;stroke-width:0.8;stroke-linecap:round;stroke-linejoin:bevel;" y1="-16.75" x2="54.25" y2="-16.75" x1="54.25"/>
  <line style="fill:none;stroke:#000000;stroke-width:0.8;stroke-linecap:round;stroke-linejoin:bevel;" y1="-11.167" x2="52.542" y2="-11.167" x1="52.542"/>
  <line style="fill:none;stroke:#000000;stroke-width:0.8;stroke-linecap:round;stroke-linejoin:bevel;" y1="-10.417" x2="48.208" y2="-10.417" x1="48.208"/>
  <line style="fill:none;stroke:#000000;stroke-width:0.8;stroke-linecap:round;stroke-linejoin:bevel;" y1="-8.25" x2="53.25" y2="-8.25" x1="53.25"/>
  <line style="fill:none;stroke:#000000;stroke-width:0.8;stroke-linecap:round;stroke-linejoin:bevel;" y1="-8" x2="50.083" y2="-8" x1="50.083"/>
  <line style="fill:none;stroke:#000000;stroke-width:0.8;stroke-linecap:round;stroke-linejoin:bevel;" y1="-8.417" x2="46.167" y2="-8.417" x1="46.167"/>
  <line style="fill:none;stroke:#000000;stroke-width:0.8;stroke-linecap:round;stroke-linejoin:bevel;" y1="-11.083" x2="7.417" y2="-11.083" x1="7.417"/>
  <line style="fill:none;stroke:#000000;stroke-width:0.8;stroke-linecap:round;stroke-linejoin:bevel;" y1="-9.583" x2="1.583" y2="-9.583" x1="1.583"/>
  <line style="fill:none;stroke:#000000;stroke-width:0.8;stroke-linecap:round;stroke-linejoin:bevel;" y1="-8.583" x2="4.333" y2="-8.583" x1="4.333"/>
  <line style="fill:none;stroke:#000000;stroke-width:0.8;stroke-linecap:round;stroke-linejoin:bevel;" y1="-8.583" x2="9.667" y2="-8.583" x1="9.667"/>
  <line style="fill:none;stroke:#000000;stroke-width:0.8;stroke-linecap:round;stroke-linejoin:bevel;" y1="-6.667" x2="12.333" y2="-6.667" x1="12.333"/>
  <line style="fill:none;stroke:#000000;stroke-width:0.8;stroke-linecap:round;stroke-linejoin:bevel;" y1="-5.5" x2="9.167" y2="-5.5" x1="9.167"/>
  <line style="fill:none;stroke:#000000;stroke-width:0.8;stroke-linecap:round;stroke-linejoin:bevel;" y1="-7.083" x2="6.333" y2="-7.083" x1="6.333"/>
  <line style="fill:none;stroke:#000000;stroke-width:0.8;stroke-linecap:round;stroke-linejoin:bevel;" y1="-4.833" x2="4.583" y2="-4.833" x1="4.583"/>
  <line style="fill:none;stroke:#000000;stroke-width:0.8;stroke-linecap:round;stroke-linejoin:bevel;" y1="-6.5" x2="2.75" y2="-6.5" x1="2.75"/>
  <line style="fill:none;stroke:#000000;stroke-width:0.8;stroke-linecap:round;stroke-linejoin:bevel;" y1="-4" x2="1.5" y2="-4" x1="1.5"/>
  <line style="fill:none;stroke:#000000;stroke-width:0.8;stroke-linecap:round;stroke-linejoin:bevel;" y1="-7.5" x2="15.583" y2="-7.5" x1="15.583"/>
  <line style="fill:none;stroke:#000000;stroke-width:0.8;stroke-linecap:round;stroke-linejoin:bevel;" y1="-4.417" x2="14.667" y2="-4.417" x1="14.667"/>
  <line style="fill:none;stroke:#000000;stroke-width:0.8;stroke-linecap:round;stroke-linejoin:bevel;" y1="-17.667" x2="5.25" y2="-17.667" x1="5.25"/>
  <line style="fill:none;stroke:#000000;stroke-width:0.8;stroke-linecap:round;stroke-linejoin:bevel;" y1="-6.167" x2="18.75" y2="-6.167" x1="18.75"/>
  <line style="fill:none;stroke:#000000;stroke-width:0.8;stroke-linecap:round;stroke-linejoin:bevel;" y1="-18.75" x2="10.583" y2="-18.75" x1="10.583"/>
  <line style="fill:none;stroke:#000000;stroke-width:0.8;stroke-linecap:round;stroke-linejoin:bevel;" y1="-4.917" x2="21.5" y2="-4.917" x1="21.5"/>
  <line style="fill:none;stroke:#000000;stroke-width:0.8;stroke-linecap:round;stroke-linejoin:bevel;" y1="-12.5" x2="3.5" y2="-12.5" x1="3.5"/>
  <line style="fill:none;stroke:#000000;stroke-width:0.8;stroke-linecap:round;stroke-linejoin:bevel;" y1="-6.25" x2="29.5" y2="-6.25" x1="29.5"/>
  <line style="fill:none;stroke:#000000;stroke-width:0.8;stroke-linecap:round;stroke-linejoin:bevel;" y1="-6.25" x2="33" y2="-6.25" x1="33"/>
  <line style="fill:none;stroke:#000000;stroke-width:0.8;stroke-linecap:round;stroke-linejoin:bevel;" y1="-3.75" x2="28.583" y2="-3.75" x1="28.583"/>
  <line style="fill:none;stroke:#000000;stroke-width:0.8;stroke-linecap:round;stroke-linejoin:bevel;" y1="-1.917" x2="25.583" y2="-1.917" x1="25.583"/>
  <line style="fill:none;stroke:#000000;stroke-width:0.8;stroke-linecap:round;stroke-linejoin:bevel;" y1="-1.75" x2="20.417" y2="-1.75" x1="20.417"/>
  <line style="fill:none;stroke:#000000;stroke-width:0.8;stroke-linecap:round;stroke-linejoin:bevel;" y1="-19.667" x2="32" y2="-19.667" x1="32"/>
  <line style="fill:none;stroke:#000000;stroke-width:0.8;stroke-linecap:round;stroke-linejoin:bevel;" y1="-21.167" x2="36.25" y2="-21.167" x1="36.25"/>
  <line style="fill:none;stroke:#000000;stroke-width:0.8;stroke-linecap:round;stroke-linejoin:bevel;" y1="-25.5" x2="5.917" y2="-25.5" x1="5.917"/>
  <line style="fill:none;stroke:#000000;stroke-width:0.8;stroke-linecap:round;stroke-linejoin:bevel;" y1="-13.667" x2="6.333" y2="-13.667" x1="6.333"/>
  <line style="fill:none;stroke:#000000;stroke-width:0.8;stroke-linecap:round;stroke-linejoin:bevel;" y1="-28.75" x2="18.75" y2="-28.75" x1="18.75"/>
  <line style="fill:none;stroke:#000000;stroke-width:0.8;stroke-linecap:round;stroke-linejoin:bevel;" y1="-28.5" x2="12.583" y2="-28.5" x1="12.583"/>
  <line style="fill:none;stroke:#000000;stroke-width:0.8;stroke-linecap:round;stroke-linejoin:bevel;" y1="-18.5" x2="25.5" y2="-18.5" x1="25.5"/>
  <line style="fill:none;stroke:#000000;stroke-width:0.8;stroke-linecap:round;stroke-linejoin:bevel;" y1="-27.917" x2="23.833" y2="-27.917" x1="23.833"/>
  <line style="fill:none;stroke:#000000;stroke-width:0.8;stroke-linecap:round;stroke-linejoin:bevel;" y1="-29.917" x2="21.667" y2="-29.917" x1="21.667"/>
  <line style="fill:none;stroke:#000000;stroke-width:0.8;stroke-linecap:round;stroke-linejoin:bevel;" y1="-26.333" x2="21.167" y2="-26.333" x1="21.167"/>
  <line style="fill:none;stroke:#000000;stroke-width:0.8;stroke-linecap:round;stroke-linejoin:bevel;" y1="-28" x2="27.417" y2="-28" x1="27.417"/>
  <line style="fill:none;stroke:#000000;stroke-width:0.8;stroke-linecap:round;stroke-linejoin:bevel;" y1="-7.75" x2="35.333" y2="-7.75" x1="35.333"/>
  <line style="fill:none;stroke:#000000;stroke-width:0.8;stroke-linecap:round;stroke-linejoin:bevel;" y1="-5.5" x2="36.25" y2="-5.5" x1="36.25"/>
  <line style="fill:none;stroke:#000000;stroke-width:0.8;stroke-linecap:round;stroke-linejoin:bevel;" y1="-10.667" x2="40.333" y2="-10.667" x1="40.333"/>
  <line style="fill:none;stroke:#000000;stroke-width:0.8;stroke-linecap:round;stroke-linejoin:bevel;" y1="-6.083" x2="40" y2="-6.083" x1="40"/>
  <line style="fill:none;stroke:#000000;stroke-width:0.8;stroke-linecap:round;stroke-linejoin:bevel;" y1="-8.333" x2="41" y2="-8.333" x1="41"/>
  <line style="fill:none;stroke:#000000;stroke-width:0.8;stroke-linecap:round;stroke-linejoin:bevel;" y1="-23.625" x2="43.625" y2="-23.625" x1="43.625"/>
  <line style="fill:none;stroke:#000000;stroke-width:0.8;stroke-linecap:round;stroke-linejoin:bevel;" y1="-25.333" x2="34.333" y2="-25.333" x1="34.333"/>
  <line style="fill:none;stroke:#000000;stroke-width:0.8;stroke-linecap:round;stroke-linejoin:bevel;" y1="-28.333" x2="35.083" y2="-28.333" x1="35.083"/>
  <line style="fill:none;stroke:#000000;stroke-width:0.8;stroke-linecap:round;stroke-linejoin:bevel;" y1="-28.438" x2="40.375" y2="-28.438" x1="40.375"/>
  <line style="fill:none;stroke:#000000;stroke-width:0.8;stroke-linecap:round;stroke-linejoin:bevel;" y1="-21.062" x2="45.562" y2="-21.062" x1="45.562"/>
  <line style="fill:none;stroke:#000000;stroke-width:0.8;stroke-linecap:round;stroke-linejoin:bevel;" y1="-1.583" x2="40.083" y2="-1.583" x1="40.083"/>
  <line style="fill:none;stroke:#000000;stroke-width:0.8;stroke-linecap:round;stroke-linejoin:bevel;" y1="-2.75" x2="46.667" y2="-2.75" x1="46.667"/>
  <line style="fill:none;stroke:#000000;stroke-width:0.8;stroke-linecap:round;stroke-linejoin:bevel;" y1="-5.167" x2="42.167" y2="-5.167" x1="42.167"/>
  <line style="fill:none;stroke:#000000;stroke-width:0.8;stroke-linecap:round;stroke-linejoin:bevel;" y1="-7.167" x2="43.667" y2="-7.167" x1="43.667"/>
  <line style="fill:none;stroke:#000000;stroke-width:0.8;stroke-linecap:round;stroke-linejoin:bevel;" y1="-6.083" x2="48.25" y2="-6.083" x1="48.25"/>
  <line style="fill:none;stroke:#000000;stroke-width:0.8;stroke-linecap:round;stroke-linejoin:bevel;" y1="-4.25" x2="50.667" y2="-4.25" x1="50.667"/>
  <line style="fill:none;stroke:#000000;stroke-width:0.8;stroke-linecap:round;stroke-linejoin:bevel;" y1="-6" x2="52.417" y2="-6" x1="52.417"/>
  <line style="fill:none;stroke:#000000;stroke-width:0.8;stroke-linecap:round;stroke-linejoin:bevel;" y1="-11.333" x2="27.333" y2="-11.333" x1="27.333"/>
  <line style="fill:none;stroke:#000000;stroke-width:0.8;stroke-linecap:round;stroke-linejoin:bevel;" y1="-27.333" x2="52.75" y2="-27.333" x1="52.75"/>
  <line style="fill:none;stroke:#000000;stroke-width:0.8;stroke-linecap:round;stroke-linejoin:bevel;" y1="-28.5" x2="49.667" y2="-28.5" x1="49.667"/>
  <line style="fill:none;stroke:#000000;stroke-width:0.8;stroke-linecap:round;stroke-linejoin:bevel;" y1="-28.667" x2="43.5" y2="-28.667" x1="43.5"/>
  <line style="fill:none;stroke:#000000;stroke-width:0.8;stroke-linecap:round;stroke-linejoin:bevel;" y1="-25.75" x2="45.167" y2="-25.75" x1="45.167"/>
  <line style="fill:none;stroke:#000000;stroke-width:0.8;stroke-linecap:round;stroke-linejoin:bevel;" y1="-25.417" x2="48.417" y2="-25.417" x1="48.417"/>
  <line style="fill:none;stroke:#000000;stroke-width:0.8;stroke-linecap:round;stroke-linejoin:bevel;" y1="-24.667" x2="51.5" y2="-24.667" x1="51.5"/>
  <line style="fill:none;stroke:#000000;stroke-width:0.8;stroke-linecap:round;stroke-linejoin:bevel;" y1="-25.583" x2="41.667" y2="-25.583" x1="41.667"/>
  <line style="fill:none;stroke:#000000;stroke-width:0.8;stroke-linecap:round;stroke-linejoin:bevel;" y1="-24.062" x2="37.812" y2="-24.062" x1="37.812"/>
  <line style="fill:none;stroke:#000000;stroke-width:0.8;stroke-linecap:round;stroke-linejoin:bevel;" y1="-25.667" x2="27.75" y2="-25.667" x1="27.75"/>
  <line style="fill:none;stroke:#000000;stroke-width:0.8;stroke-linecap:round;stroke-linejoin:bevel;" y1="-23.833" x2="30.25" y2="-23.833" x1="30.25"/>
  <line style="fill:none;stroke:#000000;stroke-width:0.8;stroke-linecap:round;stroke-linejoin:bevel;" y1="-25.083" x2="17.417" y2="-25.083" x1="17.417"/>
  <line style="fill:none;stroke:#000000;stroke-width:0.8;stroke-linecap:round;stroke-linejoin:bevel;" y1="-27.583" x2="15.583" y2="-27.583" x1="15.583"/>
  <line style="fill:none;stroke:#000000;stroke-width:0.8;stroke-linecap:round;stroke-linejoin:bevel;" y1="-16.75" x2="15.083" y2="-16.75" x1="15.083"/>
  <line style="fill:none;stroke:#000000;stroke-width:0.8;stroke-linecap:round;stroke-linejoin:bevel;" y1="-25" x2="12.417" y2="-25" x1="12.417"/>
  <line style="fill:none;stroke:#000000;stroke-width:0.8;stroke-linecap:round;stroke-linejoin:bevel;" y1="-26.083" x2="9" y2="-26.083" x1="9"/>
  <line style="fill:none;stroke:#000000;stroke-width:0.8;stroke-linecap:round;stroke-linejoin:bevel;" y1="-28.75" x2="5.25" y2="-28.75" x1="5.25"/>
  <line style="fill:none;stroke:#000000;stroke-width:0.8;stroke-linecap:round;stroke-linejoin:bevel;" y1="-29.583" x2="8.333" y2="-29.583" x1="8.333"/>
  <line style="fill:none;stroke:#000000;stroke-width:0.8;stroke-linecap:round;stroke-linejoin:bevel;" y1="-26.583" x2="3.333" y2="-26.583" x1="3.333"/>
  <line style="fill:none;stroke:#000000;stroke-width:0.8;stroke-linecap:round;stroke-linejoin:bevel;" y1="-42.458" x2="1.792" y2="-42.458" x1="1.792"/>
  <line style="fill:none;stroke:#000000;stroke-width:0.8;stroke-linecap:round;stroke-linejoin:bevel;" y1="-14.167" x2="53.542" y2="-14.167" x1="53.542"/>
  <line style="fill:none;stroke:#000000;stroke-width:0.8;stroke-linecap:round;stroke-linejoin:bevel;" y1="-18.25" x2="50.125" y2="-18.25" x1="50.125"/>
  <line style="fill:none;stroke:#000000;stroke-width:0.8;stroke-linecap:round;stroke-linejoin:bevel;" y1="-28.75" x2="2.042" y2="-28.75" x1="2.042"/>
  <line style="fill:none;stroke:#000000;stroke-width:0.8;stroke-linecap:round;stroke-linejoin:bevel;" y1="-24.625" x2="1.625" y2="-24.625" x1="1.625"/>
 </g>
</svg>
