<?xml version="1.0"?>
<!-- Converted with SVG Converter - Version 0.9.5 (Compiled Fri Feb 21 09:53:38 2020) - Copyright (C) 2011 Nokia -->
<svg xmlns="http://www.w3.org/2000/svg" baseProfile="tiny" version="1.1" xmlns:xlink="http://www.w3.org/1999/xlink" viewBox="1.225 -55.25 54.25 54.25" x="0px" y="0px" height="54.25" xml:space="preserve" width="54.25">
 <g>
  <rect x="1.225" style="fill:none;" y="-55.25" height="54.25" width="54.25"/>
  <path d="M1.6-54.146c0,0,2.25,0.25,2.75,0.625s-2.5,0.875-2.5,0.875    L1.6-54.146z" style="fill:none;stroke:#000000;stroke-width:0.3;"/>
  <path d="M16.225-54.375    c-0.5,2.25,2.375,3.312,3.125,3.5c0.192,0.048-2.375,2.25-2.375,2.25c-0.75-0.75-5.375-1-6.375-0.75c0,0,1.625-1.125,1.25-2.188    c0,0,2.75-0.688,2.812-1.75L16.225-54.375z" style="fill:none;stroke:#000000;stroke-width:0.3;stroke-linejoin:round;"/>
  <path d="M18.788-54.125    C19.6-53.438,20.6-53,21.475-52.688c0,0,0.812-0.875,0.875-1.75L18.788-54.125z" style="fill:none;stroke:#000000;stroke-width:0.3;stroke-linejoin:round;"/>
  <path d="M25.538-53.812    c0.062,0.875,0.5,1.688,0.75,2.25c0,0,1.375-1.688,2.312-2L25.538-53.812z" style="fill:none;stroke:#000000;stroke-width:0.3;stroke-linejoin:round;"/>
  <polygon style="fill:none;stroke:#000000;stroke-width:0.3;stroke-linejoin:round;" points="1.663,-48.833 4.162,-51.708    7.912,-51.458 7.35,-49.146 7.85,-47.958 6.475,-47.271 6.225,-46.146 3.787,-45.708 2.725,-47.458   "/>
  <polygon style="fill:none;stroke:#000000;stroke-width:0.3;stroke-linejoin:round;" points="20.225,-48 20.788,-46.062    19.85,-44.375 22.725,-42.375 24.913,-43.25 26.725,-45.688 28.1,-46.812 26.288,-48.688 25.975,-49.938 22.788,-50.375    21.475,-49.062   "/>
  <polygon style="fill:none;stroke:#000000;stroke-width:0.3;stroke-linejoin:round;" points="2.037,-43.375 1.788,-40.75    3.225,-41.5 3.975,-41.688 4.037,-44   "/>
  <polygon style="fill:none;stroke:#000000;stroke-width:0.3;stroke-linejoin:round;" points="8.1,-43.062 9.1,-44.438    9.038,-45.75 10.35,-46.812 12.975,-46.188 15.413,-46.5 17.725,-45 16.788,-44.062 14.538,-44.75 13.85,-43.688 12.85,-43.375    11.6,-41.562 10.538,-42.5   "/>
  <polygon style="fill:none;stroke:#000000;stroke-width:0.3;stroke-linejoin:round;" points="15.725,-41.438 18.35,-41.375    18.475,-40.688 20.1,-39.312 19.6,-38.625 18.85,-38.375 18.288,-37.312 15.475,-36.438 16.163,-39.25   "/>
  <polygon style="fill:none;stroke:#000000;stroke-width:0.3;stroke-linejoin:round;" points="21.1,-41.188 22.413,-41.438    23.475,-40.5 25.163,-39.938 23.6,-39.5 22.288,-38.812 21.663,-40.312   "/>
  <polygon style="fill:none;stroke:#000000;stroke-width:0.3;stroke-linejoin:round;" points="5.662,-39.312 8.85,-40    10.038,-38.688 12.413,-37.75 10.35,-35.938 11.538,-33.875 9.975,-33.875 7.1,-32.812 6.412,-32.875 5.912,-35.562 6.725,-38    "/>
  <polygon style="fill:none;stroke:#000000;stroke-width:0.3;stroke-linejoin:round;" points="2.287,-37.812 3.412,-37.938    3.287,-35.25 1.538,-35   "/>
  <polygon style="fill:none;stroke:#000000;stroke-width:0.3;stroke-linejoin:round;" points="26.163,-41.125 27.538,-42.938    28.475,-43.062 30.35,-45.125 31.413,-43.625 32.787,-42.625 31.288,-41.188 30.725,-39.5 27.725,-40.938   "/>
  <polygon style="fill:none;stroke:#000000;stroke-width:0.3;stroke-linejoin:round;" points="21.35,-36.562 24.725,-37.312    26.225,-38.625 28.35,-37.312 30.163,-37.062 33.162,-34.125 30.725,-31.875 28.288,-33.688 24.725,-33.688 22.663,-35.5   "/>
  <polygon style="fill:none;stroke:#000000;stroke-width:0.3;stroke-linejoin:round;" points="15.475,-32.75 17.038,-33.938    19.038,-32.188 17.35,-30.875   "/>
  <path d="M2.912-29.312c0,0,1.375-2.062,1.812-2.125    l0.125,2.875L2.912-29.312z" style="fill:none;stroke:#000000;stroke-width:0.3;stroke-linejoin:round;"/>
  <polygon style="fill:none;stroke:#000000;stroke-width:0.3;stroke-linejoin:round;" points="7.1,-29.125 9.35,-30.25    10.788,-29.812 13.6,-30.938 13.975,-29 16.6,-27 15.163,-26.875 14.163,-25.125 12.225,-27.188 9.413,-27.188 8.288,-26.938    "/>
  <polygon style="fill:none;stroke:#000000;stroke-width:0.3;stroke-linejoin:round;" points="19.163,-28 20.663,-29.875    23.225,-28.938 21.913,-28.375   "/>
  <polygon style="fill:none;stroke:#000000;stroke-width:0.3;stroke-linejoin:round;" points="25.163,-29.812 26.288,-31.125    28.288,-30.188 30.225,-29.75 30.288,-27.625 28.413,-27.438 27.225,-28.625   "/>
  <polygon style="fill:none;stroke:#000000;stroke-width:0.3;stroke-linejoin:round;" points="34.225,-31.25 34.537,-33.125    36.85,-33.125 36.287,-31.75   "/>
  <path d="M33.662-37.188c0,0,1.812-0.062,2.562,0.125    s0.812,0.375,0.812,0.375l1.75-1.062l1.438-0.375c0,0,0-0.562,0.312-1s1.312-0.75,1.312-0.75s-1.5-1.062-1.812-1.562    s-2.25,0.25-2.25,0.25l-2.125-0.062l-1.188,1c0,0,0.438,0.5,0,1.375S33.662-37.188,33.662-37.188z" style="fill:none;stroke:#000000;stroke-width:0.3;stroke-linejoin:round;"/>
  <polygon style="fill:none;stroke:#000000;stroke-width:0.3;stroke-linejoin:round;" points="37.912,-44.312 40.35,-46.5 40.6,-44      "/>
  <path d="M44.725-49.438    c1.062,0.5,2.562,0.688,2.562,0.688l0.25,5c-1.062-0.562-2.875-0.875-3.25-0.562s-1-2.062-1.438-2.188s0.812-0.938,1-1.438    S44.725-49.438,44.725-49.438z" style="fill:none;stroke:#000000;stroke-width:0.3;stroke-linejoin:round;"/>
  <path d="M50.475-47.938c0.375-0.562,1-1,1-1    l3.125,2.75l-1.438,1.75c0,0-2.125-0.125-2.438-0.438s0.062-2.438,0.062-2.438L50.475-47.938z" style="fill:none;stroke:#000000;stroke-width:0.3;stroke-linejoin:round;"/>
  <path d="M50.037-41.5c0,0,0.875,0.688,1.562,0.75    s2.25-0.062,2.25-0.062l0.25,2.875c0,0-0.562,0.188-1.75,0.438s-1.562,0.125-2.25,1.062s-0.875,1.25-0.875,1.25l-1.5-0.062    c0,0-1.25-1-1.812-1.062s0.125-1.375,0-2.312S45.6-40.062,45.6-40.062s1.625-0.062,2.312-0.25S50.037-41.5,50.037-41.5z" style="fill:none;stroke:#000000;stroke-width:0.3;stroke-linejoin:round;"/>
  <path d="M43.35-37.25L41.787-36l-1-0.812    c0,0,0.688-0.938,1.188-1.062S43.35-37.25,43.35-37.25z" style="fill:none;stroke:#000000;stroke-width:0.3;stroke-linejoin:round;"/>
  <path d="M43.037-33.875    c0.625,0,2.375-0.125,2.375-0.125s0.188,0.875,0.125,1.375s-1.438,0-1.438,0L43.037-33.875z" style="fill:none;stroke:#000000;stroke-width:0.3;stroke-linejoin:round;"/>
  <polygon style="fill:none;stroke:#000000;stroke-width:0.3;stroke-linejoin:round;" points="51.35,-36 51.912,-34.875    53.85,-34.375 53.725,-35.812   "/>
  <polygon style="fill:none;stroke:#000000;stroke-width:0.3;stroke-linejoin:round;" points="50.662,-32.75 54.287,-32.688    53.475,-31 49.037,-31.812   "/>
  <path d="M47.537-29.625    c1.562-0.438,1.312-0.562,2.312-0.25s2,0.938,2.688,1.125s1.875,0.375,1.875,0.375s-0.25,0.875-0.375,1.438    s1.125,3.062,1.125,3.062l-3.75-0.375c0,0-0.312-0.75-1.188-1.062s-1.25-0.438-1.688-1.312s-2.375-1.625-2.375-1.625    L47.537-29.625z" style="fill:none;stroke:#000000;stroke-width:0.3;stroke-linejoin:round;"/>
  <path d="M38.037-30    c1.938-0.188,3.312-0.125,3.312-0.125s0.438,0.562,0.438,0.812s-1.25,0.875-1.688,1.375s-0.375,1.562-0.312,2    s0.75,1.688,0.75,1.688l-1.312,1.125c0,0-1.25-1.125-1.688-1.625s-1.312-1.125-2.5-1.25s-1.188-0.562-0.812-1.062    s0.25-1.188,1.125-1.312S38.037-30,38.037-30z" style="fill:none;stroke:#000000;stroke-width:0.3;stroke-linejoin:round;"/>
  <path d="M42.475-25.25c0,0,1.812-0.5,2.312-0.188    S48.662-23,48.662-23l-0.75,0.688c0,0-0.625-0.625-1.188-0.812S44.975-23,44.975-23L43.6-22.25c0,0-0.312-1.875-0.438-2.125    S42.475-25.25,42.475-25.25z" style="fill:none;stroke:#000000;stroke-width:0.3;stroke-linejoin:round;"/>
  <path d="M49.85-19.75c0,0,1.312-0.75,1.875-0.75    s0.5,0,1,0.312s1.562,0.438,1.562,0.438l-0.562,2.188c0,0-1.062-0.938-1.375-1.062s-2.5,0.25-2.5,0.25V-19.75z" style="fill:none;stroke:#000000;stroke-width:0.3;stroke-linejoin:round;"/>
  <path d="M39.287-21.375l1.188,0.25    c0,0-0.938,1.062-0.812,1.688s-0.188-0.25-0.625-0.562S39.287-21.375,39.287-21.375z" style="fill:none;stroke:#000000;stroke-width:0.3;stroke-linejoin:round;"/>
  <path d="M31.288-24.5l1.125-0.062    c0,0,0.062,0.562,0.625,0.875s2.188,1.188,2.188,1.188l-1.688,2c0,0-2.25-0.562-2.562-0.438s-1-0.562-1-0.562s0.938-1.562,1-1.75    S31.288-24.5,31.288-24.5z" style="fill:none;stroke:#000000;stroke-width:0.3;stroke-linejoin:round;"/>
  <path d="M36.537-19.25c0,0,2.625,1.875,2.75,2.312    s-0.375,0.875-0.688,1.5S37.85-14,37.85-14s-2.938,0-3.625,0s-1.312,0.375-1.312,0.375l-1-0.312L32.287-16l0.688-1    c0,0,0.188,0.062,0.875-0.25s1.312-1.125,1.5-1.438L36.537-19.25z" style="fill:none;stroke:#000000;stroke-width:0.3;stroke-linejoin:round;"/>
  <path d="M43.31-20.571c0,0,1.946,0.556,2.492,1.015    c0.545,0.459,1.056,0.695,0.96,1.201c-0.096,0.506-0.145,0.759-0.162,1.095c-0.018,0.336,0.732,1.991,0.732,1.991    S46-14.92,45.589-14.628c-0.411,0.292-1.039,0.759-1.039,0.759l-3.809-2.037l1.415-1.274l1.167-2.077L43.31-20.571z" style="fill:none;stroke:#000000;stroke-width:0.3;stroke-linejoin:round;"/>
  <path d="M50.037-16.062l1.5,0.5l-0.062,1.375    c0,0-1-0.125-1.312-0.25s-1.125-0.312-1.312-0.188S50.037-16.062,50.037-16.062z" style="fill:none;stroke:#000000;stroke-width:0.3;stroke-linejoin:round;"/>
  <path d="M9.35-53.729l1.5,0.5l-0.062,1.375    c0,0-1-0.125-1.312-0.25s-1.125-0.312-1.312-0.188C7.975-52.167,9.35-53.729,9.35-53.729z" style="fill:none;stroke:#000000;stroke-width:0.3;stroke-linejoin:round;"/>
  <path d="M29.913-19.062l1.875-0.25    c0,0-0.75,1.438-0.562,2.062s-0.688-0.375-0.688-0.375L29.913-19.062z" style="fill:none;stroke:#000000;stroke-width:0.3;stroke-linejoin:round;"/>
  <path d="M19.35-24.75c0,0,1.875-0.312,3.188-1    s2.375-1.375,2.375-1.375s1.062,0.875,1.188,1.375s1.188,1,1.812,1.188s0,1.625,0,1.625s-0.625,0.062-1,0.25s-0.938,2.125-1,2.312    s-1.688,0-2.125,0s-1.812-0.375-1.812-0.375s-0.688-0.25-0.25-1.062s-0.688-1.5-1.25-1.688s-1.188-0.562-1.188-0.562L19.35-24.75z    " style="fill:none;stroke:#000000;stroke-width:0.3;stroke-linejoin:round;"/>
  <polygon style="fill:none;stroke:#000000;stroke-width:0.3;stroke-linejoin:round;" points="23.538,-17.812 27.975,-17.75    27.1,-15 24.413,-14.875 24.225,-16.375   "/>
  <polygon style="fill:none;stroke:#000000;stroke-width:0.3;stroke-linejoin:round;" points="29.1,-15.125 30.6,-14.438    30.288,-13.188 28.6,-13.062 28.85,-14.188   "/>
  <polygon style="fill:none;stroke:#000000;stroke-width:0.3;stroke-linejoin:round;" points="19.725,-18.812 21.85,-18.875    21.413,-18.125 21.413,-16.875 20.6,-16.938   "/>
  <polygon style="fill:none;stroke:#000000;stroke-width:0.3;stroke-linejoin:round;" points="20.663,-15.688 22.288,-15.75    22.538,-14.062 23.1,-13.375 22.35,-12.812 21.35,-13.188 20.225,-12.938   "/>
  <polygon style="fill:none;stroke:#000000;stroke-width:0.3;stroke-linejoin:round;" points="15.1,-17.75 17.225,-17.5    16.975,-16.375 17.038,-14.562 15.038,-14.688 13.1,-14.062 14.163,-16.188   "/>
  <polygon style="fill:none;stroke:#000000;stroke-width:0.3;stroke-linejoin:round;" points="11.413,-23.062 14.35,-23.812    15.35,-22.562 17.663,-21.812 17.038,-20.438 14.288,-20.062 11.038,-22.062   "/>
  <polygon style="fill:none;stroke:#000000;stroke-width:0.3;stroke-linejoin:round;" points="1.725,-25.292 6.162,-25.479    6.537,-24.604 7.225,-23.729 5.725,-23.042 3.537,-21.729 2.662,-21.167 2.537,-23.354 1.725,-24.792   "/>
  <polygon style="fill:none;stroke:#000000;stroke-width:0.3;stroke-linejoin:round;" points="5.577,-20.323 7.27,-19.875    10.784,-18.627 9.663,-15.492 4.911,-13.563 2.322,-14.283 4.163,-17.813   "/>
  <polygon style="fill:none;stroke:#000000;stroke-width:0.3;stroke-linejoin:round;" points="33.6,-52.062 36.037,-50.688    40.225,-52.062 40.787,-48.875 37.162,-47.75 34.1,-45.25 31.913,-48.688 30.35,-49.625 30.538,-51.125   "/>
  <polygon style="fill:none;stroke:#000000;stroke-width:0.3;stroke-linejoin:round;" points="35.85,-54.188 36.225,-53.062    38.1,-53.812   "/>
  <polygon style="fill:none;stroke:#000000;stroke-width:0.3;stroke-linejoin:round;" points="42.412,-53.312 43.85,-51.562    45.475,-52.062 46.6,-51.625 47.725,-52.812 47.225,-53.875 45.287,-54.5 42.975,-53.875   "/>
  <path d="M48.85-53.5c0,0,1.938,1.125,2.25,1.5    s0.75,1.188,0.75,1.188l1.812-0.312c0,0-0.625-0.938-0.75-1.125S52.6-53.562,52.6-53.562l-2.375-0.312L48.85-53.5z" style="fill:none;stroke:#000000;stroke-width:0.3;stroke-linejoin:round;"/>
  <path d="M37.35-2.917    c0.812,0.688,1.812,1.125,2.688,1.437c0,0,0.812-0.875,0.875-1.75L37.35-2.917z" style="fill:none;stroke:#000000;stroke-width:0.3;stroke-linejoin:round;"/>
  <polygon style="fill:none;stroke:#000000;stroke-width:0.3;stroke-linejoin:round;" points="40.808,-12.188 42.121,-12.438    43.183,-11.5 44.871,-10.938 43.308,-10.5 41.996,-9.812 41.371,-11.312   "/>
  <path d="M2.496-2.396c0,0,1.375-2.062,1.812-2.125    l0.125,2.875L2.496-2.396z" style="fill:none;stroke:#000000;stroke-width:0.3;stroke-linejoin:round;"/>
  <polygon style="fill:none;stroke:#000000;stroke-width:0.3;stroke-linejoin:round;" points="28.538,-3.667 29.663,-4.979    31.663,-4.042 33.6,-3.604 33.662,-1.479 31.788,-1.292 30.6,-2.479   "/>
  <path d="M41.392-7.521l-1.562,1.25l-1-0.812    c0,0,0.688-0.937,1.188-1.062S41.392-7.521,41.392-7.521z" style="fill:none;stroke:#000000;stroke-width:0.3;stroke-linejoin:round;"/>
  <path d="M2.037-11.917    c0.625,0,2.375-0.125,2.375-0.125s0.188,0.875,0.125,1.375s-1.438,0-1.438,0L2.037-11.917z" style="fill:none;stroke:#000000;stroke-width:0.3;stroke-linejoin:round;"/>
  <path d="M48.621-4.562c0,0,1.812-0.5,2.312-0.188    s3.875,2.438,3.875,2.438l-0.75,0.688c0,0-0.625-0.625-1.188-0.812s-1.75,0.125-1.75,0.125l-1.375,0.75    c0,0-0.312-1.875-0.438-2.125S48.621-4.562,48.621-4.562z" style="fill:none;stroke:#000000;stroke-width:0.3;stroke-linejoin:round;"/>
  <path d="M43.183-7.104l1.125-0.062    c0,0,0.062,0.562,0.625,0.875s2.188,1.188,2.188,1.188l-1.688,2c0,0-2.25-0.562-2.562-0.438s-1-0.562-1-0.562s0.938-1.562,1-1.75    S43.183-7.104,43.183-7.104z" style="fill:none;stroke:#000000;stroke-width:0.3;stroke-linejoin:round;"/>
  <polygon style="fill:none;stroke:#000000;stroke-width:0.3;stroke-linejoin:round;" points="6.225,-10.542 8.475,-11.667    9.913,-11.229 12.725,-12.354 13.1,-10.417 15.725,-8.417 14.288,-8.292 13.288,-6.542 11.35,-8.604 8.538,-8.604 7.412,-8.354    "/>
  <polygon style="fill:none;stroke:#000000;stroke-width:0.3;stroke-linejoin:round;" points="18.288,-9.417 19.788,-11.292    22.35,-10.354 21.038,-9.792   "/>
  <polygon style="fill:none;stroke:#000000;stroke-width:0.3;stroke-linejoin:round;" points="24.288,-11.229 25.413,-12.542    27.413,-11.604 29.35,-11.167 29.413,-9.042 27.538,-8.854 26.35,-10.042   "/>
  <polygon style="fill:none;stroke:#000000;stroke-width:0.3;stroke-linejoin:round;" points="3.162,-7.292 6.787,-7.229    5.975,-5.542 1.538,-6.354   "/>
  <path d="M47.35-12.25    c1.562-0.438,1.312-0.562,2.312-0.25s2,0.938,2.688,1.125S54.225-11,54.225-11s-0.25,0.875-0.375,1.438S54.975-6.5,54.975-6.5    l-3.75-0.375c0,0-0.312-0.75-1.188-1.062s-1.25-0.438-1.688-1.312s-2.375-1.625-2.375-1.625L47.35-12.25z" style="fill:none;stroke:#000000;stroke-width:0.3;stroke-linejoin:round;"/>
  <path d="M34.537-11.042    c1.938-0.188,3.312-0.125,3.312-0.125s0.438,0.562,0.438,0.812s-1.25,0.875-1.688,1.375s-0.375,1.563-0.312,2    s0.75,1.688,0.75,1.688l-1.312,1.125c0,0-1.25-1.125-1.688-1.625s-1.312-1.125-2.5-1.25c-1.188-0.125-1.188-0.562-0.812-1.063    s0.25-1.188,1.125-1.312C32.725-9.542,34.537-11.042,34.537-11.042z" style="fill:none;stroke:#000000;stroke-width:0.3;stroke-linejoin:round;"/>
  <path d="M18.475-6.167c0,0,1.875-0.312,3.188-1    s2.375-1.375,2.375-1.375s1.062,0.875,1.188,1.375s1.188,1,1.812,1.188s0,1.625,0,1.625s-0.625,0.062-1,0.25s-0.938,2.125-1,2.312    s-1.688,0-2.125,0S21.1-2.167,21.1-2.167s-0.688-0.25-0.25-1.062s-0.688-1.5-1.25-1.688s-1.188-0.562-1.188-0.562L18.475-6.167z" style="fill:none;stroke:#000000;stroke-width:0.3;stroke-linejoin:round;"/>
  <polygon style="fill:none;stroke:#000000;stroke-width:0.3;stroke-linejoin:round;" points="8.038,-4.292 10.975,-5.042    11.975,-3.792 14.288,-3.042 13.663,-1.667 10.913,-1.292 7.662,-3.292   "/>
  <line x2="3.058" y2="-14.086" style="fill:none;stroke:#000000;stroke-width:0.3;stroke-linejoin:round;" x1="2.946" y1="-15.309"/>
  <line x2="3.875" y2="-13.851" style="fill:none;stroke:#000000;stroke-width:0.3;stroke-linejoin:round;" x1="3.469" y1="-16.43"/>
  <line x2="4.911" y2="-13.563" style="fill:none;stroke:#000000;stroke-width:0.3;stroke-linejoin:round;" x1="4.163" y1="-17.813"/>
  <line x2="5.83" y2="-13.964" style="fill:none;stroke:#000000;stroke-width:0.3;stroke-linejoin:round;" x1="4.712" y1="-18.678"/>
  <line x2="6.85" y2="-14.269" style="fill:none;stroke:#000000;stroke-width:0.3;stroke-linejoin:round;" x1="5.241" y1="-19.603"/>
  <line x2="7.747" y2="-14.728" style="fill:none;stroke:#000000;stroke-width:0.3;stroke-linejoin:round;" x1="6.015" y1="-20.217"/>
  <line x2="8.531" y2="-14.947" style="fill:none;stroke:#000000;stroke-width:0.3;stroke-linejoin:round;" x1="6.971" y1="-19.966"/>
  <line x2="9.311" y2="-15.364" style="fill:none;stroke:#000000;stroke-width:0.3;stroke-linejoin:round;" x1="8.05" y1="-19.56"/>
  <line x2="9.903" y2="-16.112" style="fill:none;stroke:#000000;stroke-width:0.3;stroke-linejoin:round;" x1="8.888" y1="-19.267"/>
  <line x2="10.346" y2="-17.27" style="fill:none;stroke:#000000;stroke-width:0.3;stroke-linejoin:round;" x1="9.748" y1="-18.915"/>
  <line x2="25.475" y2="-26.625" style="fill:none;stroke:#000000;stroke-width:0.3;stroke-linejoin:round;" x1="19.288" y1="-24.062"/>
  <line x2="25.913" y2="-26.125" style="fill:none;stroke:#000000;stroke-width:0.3;stroke-linejoin:round;" x1="20.475" y1="-23.5"/>
  <line x2="26.225" y2="-25.5" style="fill:none;stroke:#000000;stroke-width:0.3;stroke-linejoin:round;" x1="21.538" y1="-22.875"/>
  <line x2="26.725" y2="-25.062" style="fill:none;stroke:#000000;stroke-width:0.3;stroke-linejoin:round;" x1="21.725" y1="-21.812"/>
  <path d="M21.975-20.75c0-0.25,5.25-4.062,5.25-4.062" style="fill:none;stroke:#000000;stroke-width:0.3;stroke-linejoin:round;"/>
  <line x2="27.913" y2="-24.562" style="fill:none;stroke:#000000;stroke-width:0.3;stroke-linejoin:round;" x1="23.038" y1="-20.5"/>
  <line x2="28.1" y2="-23.875" style="fill:none;stroke:#000000;stroke-width:0.3;stroke-linejoin:round;" x1="24.288" y1="-20.375"/>
  <line x2="41.818" y2="-15.408" style="fill:none;stroke:#000000;stroke-width:0.3;stroke-linejoin:round;" x1="44.07" y1="-20.426"/>
  <line x2="54.037" y2="-27.25" style="fill:none;stroke:#000000;stroke-width:0.3;stroke-linejoin:round;" x1="47.475" y1="-27.688"/>
  <line x2="29.038" y2="-37.062" style="fill:none;stroke:#000000;stroke-width:0.3;stroke-linejoin:round;" x1="25.788" y1="-33.625"/>
  <line x2="50.35" y2="-36.812" style="fill:none;stroke:#000000;stroke-width:0.3;stroke-linejoin:round;" x1="46.85" y1="-40.125"/>
  <line x2="36.725" y2="-47.5" style="fill:none;stroke:#000000;stroke-width:0.3;stroke-linejoin:round;" x1="35.287" y1="-51"/>
  <line x2="15.6" y2="-49.188" style="fill:none;stroke:#000000;stroke-width:0.3;stroke-linejoin:round;" x1="15.475" y1="-53.875"/>
  <line x2="52.85" y2="-52.625" style="fill:none;stroke:#000000;stroke-width:0.3;stroke-linejoin:round;" x1="51.1" y1="-52"/>
  <line x2="50.975" y2="-37.25" style="fill:none;stroke:#000000;stroke-width:0.3;stroke-linejoin:round;" x1="47.912" y1="-40.312"/>
  <line x2="51.787" y2="-37.375" style="fill:none;stroke:#000000;stroke-width:0.3;stroke-linejoin:round;" x1="48.787" y1="-40.75"/>
  <line x2="52.35" y2="-37.5" style="fill:none;stroke:#000000;stroke-width:0.3;stroke-linejoin:round;" x1="49.725" y1="-41.25"/>
  <line x2="52.85" y2="-37.688" style="fill:none;stroke:#000000;stroke-width:0.3;stroke-linejoin:round;" x1="51.225" y1="-40.875"/>
  <line x2="53.475" y2="-37.875" style="fill:none;stroke:#000000;stroke-width:0.3;stroke-linejoin:round;" x1="53.037" y1="-40.812"/>
  <line x2="49.85" y2="-36.125" style="fill:none;stroke:#000000;stroke-width:0.3;stroke-linejoin:round;" x1="45.787" y1="-39.312"/>
  <line x2="49.35" y2="-35.5" style="fill:none;stroke:#000000;stroke-width:0.3;stroke-linejoin:round;" x1="45.85" y1="-37.875"/>
  <line x2="37.662" y2="-47.938" style="fill:none;stroke:#000000;stroke-width:0.3;stroke-linejoin:round;" x1="36.537" y1="-50.875"/>
  <line x2="38.662" y2="-48.25" style="fill:none;stroke:#000000;stroke-width:0.3;stroke-linejoin:round;" x1="37.725" y1="-51.25"/>
  <line x2="39.537" y2="-48.5" style="fill:none;stroke:#000000;stroke-width:0.3;stroke-linejoin:round;" x1="38.725" y1="-51.562"/>
  <line x2="40.225" y2="-48.688" style="fill:none;stroke:#000000;stroke-width:0.3;stroke-linejoin:round;" x1="39.537" y1="-51.75"/>
  <line x2="35.975" y2="-46.812" style="fill:none;stroke:#000000;stroke-width:0.3;stroke-linejoin:round;" x1="33.6" y1="-52.062"/>
  <line x2="35.287" y2="-46.25" style="fill:none;stroke:#000000;stroke-width:0.3;stroke-linejoin:round;" x1="32.412" y1="-51.5"/>
  <line x2="34.725" y2="-45.812" style="fill:none;stroke:#000000;stroke-width:0.3;stroke-linejoin:round;" x1="31.038" y1="-51.25"/>
  <line x2="54.1" y2="-26.375" style="fill:none;stroke:#000000;stroke-width:0.3;stroke-linejoin:round;" x1="48.537" y1="-26.625"/>
  <line x2="54.225" y2="-27.812" style="fill:none;stroke:#000000;stroke-width:0.3;stroke-linejoin:round;" x1="46.725" y1="-28.688"/>
  <line x2="51.725" y2="-29.062" style="fill:none;stroke:#000000;stroke-width:0.3;stroke-linejoin:round;" x1="47.537" y1="-29.625"/>
  <line x2="54.35" y2="-25.5" style="fill:none;stroke:#000000;stroke-width:0.3;stroke-linejoin:round;" x1="50.225" y1="-25.312"/>
  <line x2="54.85" y2="-24.5" style="fill:none;stroke:#000000;stroke-width:0.3;stroke-linejoin:round;" x1="53.1" y1="-24.062"/>
  <line x2="27.538" y2="-33.688" style="fill:none;stroke:#000000;stroke-width:0.3;stroke-linejoin:round;" x1="30.288" y1="-36.812"/>
  <line x2="28.85" y2="-33.312" style="fill:none;stroke:#000000;stroke-width:0.3;stroke-linejoin:round;" x1="31.038" y1="-36.125"/>
  <line x2="29.475" y2="-32.812" style="fill:none;stroke:#000000;stroke-width:0.3;stroke-linejoin:round;" x1="31.788" y1="-35.438"/>
  <line x2="30.163" y2="-32.25" style="fill:none;stroke:#000000;stroke-width:0.3;stroke-linejoin:round;" x1="32.412" y1="-34.75"/>
  <line x2="24.475" y2="-33.938" style="fill:none;stroke:#000000;stroke-width:0.3;stroke-linejoin:round;" x1="27.913" y1="-37.562"/>
  <line x2="23.538" y2="-34.75" style="fill:none;stroke:#000000;stroke-width:0.3;stroke-linejoin:round;" x1="27.1" y1="-38.062"/>
  <line x2="22.663" y2="-35.5" style="fill:none;stroke:#000000;stroke-width:0.3;stroke-linejoin:round;" x1="24.475" y1="-37.25"/>
  <line x2="21.975" y2="-36" style="fill:none;stroke:#000000;stroke-width:0.3;stroke-linejoin:round;" x1="22.6" y1="-36.75"/>
  <line x2="42.699" y2="-14.932" style="fill:none;stroke:#000000;stroke-width:0.3;stroke-linejoin:round;" x1="44.921" y1="-20.033"/>
  <line x2="43.411" y2="-14.534" style="fill:none;stroke:#000000;stroke-width:0.3;stroke-linejoin:round;" x1="45.802" y1="-19.556"/>
  <line x2="44.179" y2="-14.11" style="fill:none;stroke:#000000;stroke-width:0.3;stroke-linejoin:round;" x1="46.722" y1="-18.718"/>
  <line x2="45.314" y2="-14.48" style="fill:none;stroke:#000000;stroke-width:0.3;stroke-linejoin:round;" x1="46.725" y1="-16.788"/>
  <line x2="46.72" y2="-15.138" style="fill:none;stroke:#000000;stroke-width:0.3;stroke-linejoin:round;" x1="47.035" y1="-15.819"/>
  <line x2="16.538" y2="-48.812" style="fill:none;stroke:#000000;stroke-width:0.3;stroke-linejoin:round;" x1="16.663" y1="-52.438"/>
  <line x2="17.85" y2="-49.438" style="fill:none;stroke:#000000;stroke-width:0.3;stroke-linejoin:round;" x1="17.788" y1="-51.562"/>
  <line x2="14.35" y2="-49.312" style="fill:none;stroke:#000000;stroke-width:0.3;stroke-linejoin:round;" x1="14.225" y1="-52.562"/>
  <line x2="13.225" y2="-49.5" style="fill:none;stroke:#000000;stroke-width:0.3;stroke-linejoin:round;" x1="13.1" y1="-51.938"/>
  <line x2="12.038" y2="-49.5" style="fill:none;stroke:#000000;stroke-width:0.3;stroke-linejoin:round;" x1="11.788" y1="-50.875"/>
  <line x2="11.475" y2="-37" style="fill:none;stroke:#000000;stroke-width:0.3;stroke-linejoin:round;" x1="7.912" y1="-39.75"/>
  <line x2="10.725" y2="-36.25" style="fill:none;stroke:#000000;stroke-width:0.3;stroke-linejoin:round;" x1="6.662" y1="-39.438"/>
  <line x2="10.725" y2="-35.125" style="fill:none;stroke:#000000;stroke-width:0.3;stroke-linejoin:round;" x1="6.6" y1="-37.562"/>
  <line x2="10.725" y2="-33.875" style="fill:none;stroke:#000000;stroke-width:0.3;stroke-linejoin:round;" x1="6.225" y1="-36.625"/>
  <line x2="8.913" y2="-33.5" style="fill:none;stroke:#000000;stroke-width:0.3;stroke-linejoin:round;" x1="5.912" y1="-35.562"/>
  <line x2="7.662" y2="-33.062" style="fill:none;stroke:#000000;stroke-width:0.3;stroke-linejoin:round;" x1="6.225" y1="-33.938"/>
  <line x2="52.6" y2="-53.25" style="fill:none;stroke:#000000;stroke-width:0.3;stroke-linejoin:round;" x1="50.35" y1="-52.625"/>
  <line x2="53.162" y2="-51.875" style="fill:none;stroke:#000000;stroke-width:0.3;stroke-linejoin:round;" x1="51.6" y1="-51.25"/>
  <line x2="51.162" y2="-53.75" style="fill:none;stroke:#000000;stroke-width:0.3;stroke-linejoin:round;" x1="49.537" y1="-53.125"/>
  <line x2="37.725" y2="-9.875" style="fill:none;stroke:#000000;stroke-width:0.3;stroke-linejoin:round;" x1="37.037" y1="-11.188"/>
  <line x2="36.975" y2="-9.25" style="fill:none;stroke:#000000;stroke-width:0.3;stroke-linejoin:round;" x1="35.662" y1="-11"/>
  <line x2="36.475" y2="-8.688" style="fill:none;stroke:#000000;stroke-width:0.3;stroke-linejoin:round;" x1="34.225" y1="-10.75"/>
  <line x2="36.225" y2="-7.812" style="fill:none;stroke:#000000;stroke-width:0.3;stroke-linejoin:round;" x1="33.225" y1="-10.125"/>
  <line x2="36.537" y2="-4.812" style="fill:none;stroke:#000000;stroke-width:0.3;stroke-linejoin:round;" x1="31.225" y1="-9"/>
  <line x2="36.662" y2="-6.125" style="fill:none;stroke:#000000;stroke-width:0.3;stroke-linejoin:round;" x1="32.287" y1="-9.688"/>
  <line x2="32.037" y2="-6.938" style="fill:none;stroke:#000000;stroke-width:0.3;stroke-linejoin:round;" x1="30.725" y1="-8"/>
  <line x2="5.162" y2="-5.75" style="fill:none;stroke:#000000;stroke-width:0.3;stroke-linejoin:round;" x1="5.912" y1="-7.188"/>
  <line x2="4.35" y2="-5.875" style="fill:none;stroke:#000000;stroke-width:0.3;stroke-linejoin:round;" x1="4.85" y1="-7.25"/>
  <line x2="3.35" y2="-6.125" style="fill:none;stroke:#000000;stroke-width:0.3;stroke-linejoin:round;" x1="3.912" y1="-7.312"/>
  <line x2="2.412" y2="-6.188" style="fill:none;stroke:#000000;stroke-width:0.3;stroke-linejoin:round;" x1="2.662" y1="-6.938"/>
  <line x2="6.475" y2="-12.875" style="fill:none;stroke:#000000;stroke-width:0.8;stroke-linecap:round;stroke-linejoin:round;" x1="6.475" y1="-12.875"/>
  <line x2="12.975" y2="-18.667" style="fill:none;stroke:#000000;stroke-width:0.8;stroke-linecap:round;stroke-linejoin:round;" x1="12.975" y1="-18.667"/>
  <line x2="11.308" y2="-14.167" style="fill:none;stroke:#000000;stroke-width:0.8;stroke-linecap:round;stroke-linejoin:round;" x1="11.308" y1="-14.167"/>
  <line x2="16.475" y2="-11.167" style="fill:none;stroke:#000000;stroke-width:0.8;stroke-linecap:round;stroke-linejoin:round;" x1="16.475" y1="-11.167"/>
  <line x2="9.642" y2="-6.333" style="fill:none;stroke:#000000;stroke-width:0.8;stroke-linecap:round;stroke-linejoin:round;" x1="9.642" y1="-6.333"/>
  <line x2="16.475" y2="-4.333" style="fill:none;stroke:#000000;stroke-width:0.8;stroke-linecap:round;stroke-linejoin:round;" x1="16.475" y1="-4.333"/>
  <line x2="5.642" y2="-3.167" style="fill:none;stroke:#000000;stroke-width:0.8;stroke-linecap:round;stroke-linejoin:round;" x1="5.642" y1="-3.167"/>
  <line x2="25.642" y2="-13.833" style="fill:none;stroke:#000000;stroke-width:0.8;stroke-linecap:round;stroke-linejoin:round;" x1="25.642" y1="-13.833"/>
  <line x2="28.308" y2="-7" style="fill:none;stroke:#000000;stroke-width:0.8;stroke-linecap:round;stroke-linejoin:round;" x1="28.308" y1="-7"/>
  <line x2="35.975" y2="-2.333" style="fill:none;stroke:#000000;stroke-width:0.8;stroke-linecap:round;stroke-linejoin:round;" x1="35.975" y1="-2.333"/>
  <line x2="45.475" y2="-8.833" style="fill:none;stroke:#000000;stroke-width:0.8;stroke-linecap:round;stroke-linejoin:round;" x1="45.475" y1="-8.833"/>
  <line x2="32.308" y2="-11.833" style="fill:none;stroke:#000000;stroke-width:0.8;stroke-linecap:round;stroke-linejoin:round;" x1="32.308" y1="-11.833"/>
  <line x2="38.975" y2="-13.333" style="fill:none;stroke:#000000;stroke-width:0.8;stroke-linecap:round;stroke-linejoin:round;" x1="38.975" y1="-13.333"/>
  <line x2="33.6" y2="-19.125" style="fill:none;stroke:#000000;stroke-width:0.8;stroke-linecap:round;stroke-linejoin:round;" x1="33.6" y1="-19.125"/>
  <line x2="52.037" y2="-12.562" style="fill:none;stroke:#000000;stroke-width:0.8;stroke-linecap:round;stroke-linejoin:round;" x1="52.037" y1="-12.562"/>
  <line x2="47.287" y2="-20.5" style="fill:none;stroke:#000000;stroke-width:0.8;stroke-linecap:round;stroke-linejoin:round;" x1="47.287" y1="-20.5"/>
  <line x2="42.412" y2="-27.688" style="fill:none;stroke:#000000;stroke-width:0.8;stroke-linecap:round;stroke-linejoin:round;" x1="42.412" y1="-27.688"/>
  <line x2="31.1" y2="-26.312" style="fill:none;stroke:#000000;stroke-width:0.8;stroke-linecap:round;stroke-linejoin:round;" x1="31.1" y1="-26.312"/>
  <line x2="47.642" y2="-3.5" style="fill:none;stroke:#000000;stroke-width:0.8;stroke-linecap:round;stroke-linejoin:round;" x1="47.642" y1="-3.5"/>
  <line x2="51.037" y2="-30.438" style="fill:none;stroke:#000000;stroke-width:0.8;stroke-linecap:round;stroke-linejoin:round;" x1="51.037" y1="-30.438"/>
  <line x2="49.1" y2="-34.062" style="fill:none;stroke:#000000;stroke-width:0.8;stroke-linecap:round;stroke-linejoin:round;" x1="49.1" y1="-34.062"/>
  <line x2="40.35" y2="-32.688" style="fill:none;stroke:#000000;stroke-width:0.8;stroke-linecap:round;stroke-linejoin:round;" x1="40.35" y1="-32.688"/>
  <line x2="34.475" y2="-35.5" style="fill:none;stroke:#000000;stroke-width:0.8;stroke-linecap:round;stroke-linejoin:round;" x1="34.475" y1="-35.5"/>
  <line x2="29.225" y2="-38.625" style="fill:none;stroke:#000000;stroke-width:0.8;stroke-linecap:round;stroke-linejoin:round;" x1="29.225" y1="-38.625"/>
  <line x2="44.225" y2="-40.25" style="fill:none;stroke:#000000;stroke-width:0.8;stroke-linecap:round;stroke-linejoin:round;" x1="44.225" y1="-40.25"/>
  <line x2="28.35" y2="-32" style="fill:none;stroke:#000000;stroke-width:0.8;stroke-linecap:round;stroke-linejoin:round;" x1="28.35" y1="-32"/>
  <line x2="21.225" y2="-31.25" style="fill:none;stroke:#000000;stroke-width:0.8;stroke-linecap:round;stroke-linejoin:round;" x1="21.225" y1="-31.25"/>
  <line x2="19.6" y2="-21.562" style="fill:none;stroke:#000000;stroke-width:0.8;stroke-linecap:round;stroke-linejoin:round;" x1="19.6" y1="-21.562"/>
  <line x2="18.913" y2="-15.25" style="fill:none;stroke:#000000;stroke-width:0.8;stroke-linecap:round;stroke-linejoin:round;" x1="18.913" y1="-15.25"/>
  <line x2="52.037" y2="-42.688" style="fill:none;stroke:#000000;stroke-width:0.8;stroke-linecap:round;stroke-linejoin:round;" x1="52.037" y1="-42.688"/>
  <line x2="48.912" y2="-46.625" style="fill:none;stroke:#000000;stroke-width:0.8;stroke-linecap:round;stroke-linejoin:round;" x1="48.912" y1="-46.625"/>
  <line x2="49.1" y2="-51.5" style="fill:none;stroke:#000000;stroke-width:0.8;stroke-linecap:round;stroke-linejoin:round;" x1="49.1" y1="-51.5"/>
  <line x2="53.225" y2="-49.188" style="fill:none;stroke:#000000;stroke-width:0.8;stroke-linecap:round;stroke-linejoin:round;" x1="53.225" y1="-49.188"/>
  <line x2="42.787" y2="-49.5" style="fill:none;stroke:#000000;stroke-width:0.8;stroke-linecap:round;stroke-linejoin:round;" x1="42.787" y1="-49.5"/>
  <line x2="37.85" y2="-52.625" style="fill:none;stroke:#000000;stroke-width:0.8;stroke-linecap:round;stroke-linejoin:round;" x1="37.85" y1="-52.625"/>
  <line x2="28.288" y2="-48.688" style="fill:none;stroke:#000000;stroke-width:0.8;stroke-linecap:round;stroke-linejoin:round;" x1="28.288" y1="-48.688"/>
  <line x2="34.35" y2="-43.375" style="fill:none;stroke:#000000;stroke-width:0.8;stroke-linecap:round;stroke-linejoin:round;" x1="34.35" y1="-43.375"/>
  <line x2="19.475" y2="-42.25" style="fill:none;stroke:#000000;stroke-width:0.8;stroke-linecap:round;stroke-linejoin:round;" x1="19.475" y1="-42.25"/>
  <line x2="19.038" y2="-48.562" style="fill:none;stroke:#000000;stroke-width:0.8;stroke-linecap:round;stroke-linejoin:round;" x1="19.038" y1="-48.562"/>
  <line x2="9.058" y2="-49" style="fill:none;stroke:#000000;stroke-width:0.8;stroke-linecap:round;stroke-linejoin:round;" x1="9.058" y1="-49"/>
  <line x2="12.142" y2="-39.75" style="fill:none;stroke:#000000;stroke-width:0.8;stroke-linecap:round;stroke-linejoin:round;" x1="12.142" y1="-39.75"/>
  <line x2="3.475" y2="-33.167" style="fill:none;stroke:#000000;stroke-width:0.8;stroke-linecap:round;stroke-linejoin:round;" x1="3.475" y1="-33.167"/>
  <line x2="5.808" y2="-41.75" style="fill:none;stroke:#000000;stroke-width:0.8;stroke-linecap:round;stroke-linejoin:round;" x1="5.808" y1="-41.75"/>
  <line x2="20.892" y2="-34.167" style="fill:none;stroke:#000000;stroke-width:0.8;stroke-linecap:round;stroke-linejoin:round;" x1="20.892" y1="-34.167"/>
  <line x2="12.808" y2="-32.917" style="fill:none;stroke:#000000;stroke-width:0.8;stroke-linecap:round;stroke-linejoin:round;" x1="12.808" y1="-32.917"/>
  <line x2="10.392" y2="-25.167" style="fill:none;stroke:#000000;stroke-width:0.8;stroke-linecap:round;stroke-linejoin:round;" x1="10.392" y1="-25.167"/>
  <line x2="18.642" y2="-26.833" style="fill:none;stroke:#000000;stroke-width:0.8;stroke-linecap:round;stroke-linejoin:round;" x1="18.642" y1="-26.833"/>
  <line x2="4.142" y2="-20.083" style="fill:none;stroke:#000000;stroke-width:0.8;stroke-linecap:round;stroke-linejoin:round;" x1="4.142" y1="-20.083"/>
  <line x2="6.058" y2="-28" style="fill:none;stroke:#000000;stroke-width:0.8;stroke-linecap:round;stroke-linejoin:round;" x1="6.058" y1="-28"/>
  <line x2="15.142" y2="-43.333" style="fill:none;stroke:#000000;stroke-width:0.8;stroke-linecap:round;stroke-linejoin:round;" x1="15.142" y1="-43.333"/>
  <line x2="32.975" y2="-29.833" style="fill:none;stroke:#000000;stroke-width:0.8;stroke-linecap:round;stroke-linejoin:round;" x1="32.975" y1="-29.833"/>
  <line x2="13.308" y2="-48.167" style="fill:none;stroke:#000000;stroke-width:0.8;stroke-linecap:round;stroke-linejoin:round;" x1="13.308" y1="-48.167"/>
  <line x2="31.808" y2="-53" style="fill:none;stroke:#000000;stroke-width:0.8;stroke-linecap:round;stroke-linejoin:round;" x1="31.808" y1="-53"/>
  <line x2="22.642" y2="-52" style="fill:none;stroke:#000000;stroke-width:0.8;stroke-linecap:round;stroke-linejoin:round;" x1="22.642" y1="-52"/>
  <line x2="44.975" y2="-30" style="fill:none;stroke:#000000;stroke-width:0.8;stroke-linecap:round;stroke-linejoin:round;" x1="44.975" y1="-30"/>
  <line x2="47.808" y2="-25.5" style="fill:none;stroke:#000000;stroke-width:0.8;stroke-linecap:round;stroke-linejoin:round;" x1="47.808" y1="-25.5"/>
  <line x2="41.808" y2="-22.833" style="fill:none;stroke:#000000;stroke-width:0.8;stroke-linecap:round;stroke-linejoin:round;" x1="41.808" y1="-22.833"/>
  <line x2="51.142" y2="-22.333" style="fill:none;stroke:#000000;stroke-width:0.8;stroke-linecap:round;stroke-linejoin:round;" x1="51.142" y1="-22.333"/>
  <line x2="36.642" y2="-23.333" style="fill:none;stroke:#000000;stroke-width:0.8;stroke-linecap:round;stroke-linejoin:round;" x1="36.642" y1="-23.333"/>
  <line x2="8.308" y2="-32" style="fill:none;stroke:#000000;stroke-width:0.8;stroke-linecap:round;stroke-linejoin:round;" x1="8.308" y1="-32"/>
  <line x2="13.808" y2="-36.5" style="fill:none;stroke:#000000;stroke-width:0.8;stroke-linecap:round;stroke-linejoin:round;" x1="13.808" y1="-36.5"/>
  <line x2="7.975" y2="-21.833" style="fill:none;stroke:#000000;stroke-width:0.8;stroke-linecap:round;stroke-linejoin:round;" x1="7.975" y1="-21.833"/>
  <line x2="27.808" y2="-20.833" style="fill:none;stroke:#000000;stroke-width:0.8;stroke-linecap:round;stroke-linejoin:round;" x1="27.808" y1="-20.833"/>
  <line x2="26.642" y2="-27.667" style="fill:none;stroke:#000000;stroke-width:0.8;stroke-linecap:round;stroke-linejoin:round;" x1="26.642" y1="-27.667"/>
  <line x2="45.808" y2="-12.833" style="fill:none;stroke:#000000;stroke-width:0.8;stroke-linecap:round;stroke-linejoin:round;" x1="45.808" y1="-12.833"/>
  <line x2="17.808" y2="-18.5" style="fill:none;stroke:#000000;stroke-width:0.8;stroke-linecap:round;stroke-linejoin:round;" x1="17.808" y1="-18.5"/>
  <line x2="48.642" y2="-6.667" style="fill:none;stroke:#000000;stroke-width:0.8;stroke-linecap:round;stroke-linejoin:round;" x1="48.642" y1="-6.667"/>
  <line x2="40.475" y2="-4.833" style="fill:none;stroke:#000000;stroke-width:0.8;stroke-linecap:round;stroke-linejoin:round;" x1="40.475" y1="-4.833"/>
  <line x2="16.642" y2="-7.5" style="fill:none;stroke:#000000;stroke-width:0.8;stroke-linecap:round;stroke-linejoin:round;" x1="16.642" y1="-7.5"/>
  <line x2="32.975" y2="-5" style="fill:none;stroke:#000000;stroke-width:0.8;stroke-linecap:round;stroke-linejoin:round;" x1="32.975" y1="-5"/>
  <line x2="27.475" y2="-2.333" style="fill:none;stroke:#000000;stroke-width:0.8;stroke-linecap:round;stroke-linejoin:round;" x1="27.475" y1="-2.333"/>
  <line x2="38.975" y2="-36" style="fill:none;stroke:#000000;stroke-width:0.8;stroke-linecap:round;stroke-linejoin:round;" x1="38.975" y1="-36"/>
  <line x2="42.142" y2="-43.5" style="fill:none;stroke:#000000;stroke-width:0.8;stroke-linecap:round;stroke-linejoin:round;" x1="42.142" y1="-43.5"/>
  <line x2="1.808" y2="-27.5" style="fill:none;stroke:#000000;stroke-width:0.8;stroke-linecap:round;stroke-linejoin:round;" x1="1.808" y1="-27.5"/>
  <line x2="6.308" y2="-54.833" style="fill:none;stroke:#000000;stroke-width:0.8;stroke-linecap:round;stroke-linejoin:round;" x1="6.308" y1="-54.833"/>
  <line x2="54.142" y2="-16" style="fill:none;stroke:#000000;stroke-width:0.8;stroke-linecap:round;stroke-linejoin:round;" x1="54.142" y1="-16"/>
  <line x2="54.642" y2="-4.667" style="fill:none;stroke:#000000;stroke-width:0.8;stroke-linecap:round;stroke-linejoin:round;" x1="54.642" y1="-4.667"/>
  <line x2="19.142" y2="-1.667" style="fill:none;stroke:#000000;stroke-width:0.8;stroke-linecap:round;stroke-linejoin:round;" x1="19.142" y1="-1.667"/>
  <line x2="54.475" y2="-54.333" style="fill:none;stroke:#000000;stroke-width:0.8;stroke-linecap:round;stroke-linejoin:round;" x1="54.475" y1="-54.333"/>
  <line x2="1.808" y2="-9.333" style="fill:none;stroke:#000000;stroke-width:0.8;stroke-linecap:round;stroke-linejoin:round;" x1="1.808" y1="-9.333"/>
 </g>
</svg>
