<?xml version="1.0"?>
<!-- Converted with SVG Converter - Version 0.9.5 (Compiled Fri Feb 21 09:53:38 2020) - Copyright (C) 2011 Nokia -->
<svg xmlns="http://www.w3.org/2000/svg" height="80.5" x="0px" xmlns:xlink="http://www.w3.org/1999/xlink" viewBox="1 -81.5 80.559 80.5" version="1.1" xml:space="preserve" width="80.559" baseProfile="tiny" y="0px">
 <g>
  <rect height="80.5" x="1" width="80.559" style="fill:none;" y="-81.5"/>
  <line y2="-78.25" x1="9.625" y1="-78.25" style="fill:none;stroke:#000000;stroke-width:0.3;" x2="12.438"/>
  <line y2="-76.75" x1="11" y1="-79.75" style="fill:none;stroke:#000000;stroke-width:0.3;" x2="11"/>
  <line y2="-64.875" x1="9.625" y1="-64.875" style="fill:none;stroke:#000000;stroke-width:0.3;" x2="12.438"/>
  <line y2="-63.375" x1="11" y1="-66.375" style="fill:none;stroke:#000000;stroke-width:0.3;" x2="11"/>
  <line y2="-64.875" x1="23.062" y1="-64.875" style="fill:none;stroke:#000000;stroke-width:0.3;" x2="25.875"/>
  <line y2="-63.375" x1="24.438" y1="-66.375" style="fill:none;stroke:#000000;stroke-width:0.3;" x2="24.438"/>
  <line y2="-64.875" x1="36.479" y1="-64.875" style="fill:none;stroke:#000000;stroke-width:0.3;" x2="39.292"/>
  <line y2="-63.375" x1="37.854" y1="-66.375" style="fill:none;stroke:#000000;stroke-width:0.3;" x2="37.854"/>
  <line y2="-78.188" x1="36.479" y1="-78.188" style="fill:none;stroke:#000000;stroke-width:0.3;" x2="39.292"/>
  <line y2="-76.688" x1="37.854" y1="-79.688" style="fill:none;stroke:#000000;stroke-width:0.3;" x2="37.854"/>
  <line y2="-78.188" x1="23.083" y1="-78.188" style="fill:none;stroke:#000000;stroke-width:0.3;" x2="25.896"/>
  <line y2="-76.688" x1="24.458" y1="-79.688" style="fill:none;stroke:#000000;stroke-width:0.3;" x2="24.458"/>
  <line y2="-71.49" x1="29.781" y1="-71.49" style="fill:none;stroke:#000000;stroke-width:0.3;" x2="32.594"/>
  <line y2="-69.99" x1="31.156" y1="-72.99" style="fill:none;stroke:#000000;stroke-width:0.3;" x2="31.156"/>
  <line y2="-71.562" x1="2.996" y1="-71.562" style="fill:none;stroke:#000000;stroke-width:0.3;" x2="5.808"/>
  <line y2="-70.062" x1="4.371" y1="-73.062" style="fill:none;stroke:#000000;stroke-width:0.3;" x2="4.371"/>
  <line y2="-71.562" x1="16.4" y1="-71.562" style="fill:none;stroke:#000000;stroke-width:0.3;" x2="19.212"/>
  <line y2="-70.062" x1="17.775" y1="-73.062" style="fill:none;stroke:#000000;stroke-width:0.3;" x2="17.775"/>
  <line y2="-51.479" x1="9.625" y1="-51.479" style="fill:none;stroke:#000000;stroke-width:0.3;" x2="12.438"/>
  <line y2="-49.979" x1="11" y1="-52.979" style="fill:none;stroke:#000000;stroke-width:0.3;" x2="11"/>
  <line y2="-51.417" x1="36.479" y1="-51.417" style="fill:none;stroke:#000000;stroke-width:0.3;" x2="39.292"/>
  <line y2="-49.917" x1="37.854" y1="-52.917" style="fill:none;stroke:#000000;stroke-width:0.3;" x2="37.854"/>
  <line y2="-51.417" x1="23.083" y1="-51.417" style="fill:none;stroke:#000000;stroke-width:0.3;" x2="25.896"/>
  <line y2="-49.917" x1="24.458" y1="-52.917" style="fill:none;stroke:#000000;stroke-width:0.3;" x2="24.458"/>
  <line y2="-44.719" x1="29.781" y1="-44.719" style="fill:none;stroke:#000000;stroke-width:0.3;" x2="32.594"/>
  <line y2="-43.219" x1="31.156" y1="-46.219" style="fill:none;stroke:#000000;stroke-width:0.3;" x2="31.156"/>
  <line y2="-44.792" x1="2.996" y1="-44.792" style="fill:none;stroke:#000000;stroke-width:0.3;" x2="5.808"/>
  <line y2="-43.292" x1="4.371" y1="-46.292" style="fill:none;stroke:#000000;stroke-width:0.3;" x2="4.371"/>
  <line y2="-58.104" x1="2.996" y1="-58.104" style="fill:none;stroke:#000000;stroke-width:0.3;" x2="5.808"/>
  <line y2="-56.604" x1="4.371" y1="-59.604" style="fill:none;stroke:#000000;stroke-width:0.3;" x2="4.371"/>
  <line y2="-58.104" x1="16.391" y1="-58.104" style="fill:none;stroke:#000000;stroke-width:0.3;" x2="19.204"/>
  <line y2="-56.604" x1="17.766" y1="-59.604" style="fill:none;stroke:#000000;stroke-width:0.3;" x2="17.766"/>
  <line y2="-58.104" x1="29.829" y1="-58.104" style="fill:none;stroke:#000000;stroke-width:0.3;" x2="32.641"/>
  <line y2="-56.604" x1="31.204" y1="-59.604" style="fill:none;stroke:#000000;stroke-width:0.3;" x2="31.204"/>
  <line y2="-44.792" x1="16.4" y1="-44.792" style="fill:none;stroke:#000000;stroke-width:0.3;" x2="19.212"/>
  <line y2="-43.292" x1="17.775" y1="-46.292" style="fill:none;stroke:#000000;stroke-width:0.3;" x2="17.775"/>
  <line y2="-78.25" x1="49.934" y1="-78.25" style="fill:none;stroke:#000000;stroke-width:0.3;" x2="52.746"/>
  <line y2="-76.75" x1="51.309" y1="-79.75" style="fill:none;stroke:#000000;stroke-width:0.3;" x2="51.309"/>
  <line y2="-64.875" x1="49.934" y1="-64.875" style="fill:none;stroke:#000000;stroke-width:0.3;" x2="52.746"/>
  <line y2="-63.375" x1="51.309" y1="-66.375" style="fill:none;stroke:#000000;stroke-width:0.3;" x2="51.309"/>
  <line y2="-64.875" x1="63.371" y1="-64.875" style="fill:none;stroke:#000000;stroke-width:0.3;" x2="66.184"/>
  <line y2="-63.375" x1="64.746" y1="-66.375" style="fill:none;stroke:#000000;stroke-width:0.3;" x2="64.746"/>
  <line y2="-64.875" x1="76.788" y1="-64.875" style="fill:none;stroke:#000000;stroke-width:0.3;" x2="79.6"/>
  <line y2="-63.375" x1="78.163" y1="-66.375" style="fill:none;stroke:#000000;stroke-width:0.3;" x2="78.163"/>
  <line y2="-78.188" x1="76.788" y1="-78.188" style="fill:none;stroke:#000000;stroke-width:0.3;" x2="79.6"/>
  <line y2="-76.688" x1="78.163" y1="-79.688" style="fill:none;stroke:#000000;stroke-width:0.3;" x2="78.163"/>
  <line y2="-78.188" x1="63.392" y1="-78.188" style="fill:none;stroke:#000000;stroke-width:0.3;" x2="66.205"/>
  <line y2="-76.688" x1="64.767" y1="-79.688" style="fill:none;stroke:#000000;stroke-width:0.3;" x2="64.767"/>
  <line y2="-71.49" x1="70.09" y1="-71.49" style="fill:none;stroke:#000000;stroke-width:0.3;" x2="72.902"/>
  <line y2="-69.99" x1="71.465" y1="-72.99" style="fill:none;stroke:#000000;stroke-width:0.3;" x2="71.465"/>
  <line y2="-71.562" x1="43.304" y1="-71.562" style="fill:none;stroke:#000000;stroke-width:0.3;" x2="46.117"/>
  <line y2="-70.062" x1="44.679" y1="-73.062" style="fill:none;stroke:#000000;stroke-width:0.3;" x2="44.679"/>
  <line y2="-71.562" x1="56.708" y1="-71.562" style="fill:none;stroke:#000000;stroke-width:0.3;" x2="59.521"/>
  <line y2="-70.062" x1="58.083" y1="-73.062" style="fill:none;stroke:#000000;stroke-width:0.3;" x2="58.083"/>
  <line y2="-51.479" x1="49.934" y1="-51.479" style="fill:none;stroke:#000000;stroke-width:0.3;" x2="52.746"/>
  <line y2="-49.979" x1="51.309" y1="-52.979" style="fill:none;stroke:#000000;stroke-width:0.3;" x2="51.309"/>
  <line y2="-51.417" x1="76.788" y1="-51.417" style="fill:none;stroke:#000000;stroke-width:0.3;" x2="79.6"/>
  <line y2="-49.917" x1="78.163" y1="-52.917" style="fill:none;stroke:#000000;stroke-width:0.3;" x2="78.163"/>
  <line y2="-51.417" x1="63.392" y1="-51.417" style="fill:none;stroke:#000000;stroke-width:0.3;" x2="66.205"/>
  <line y2="-49.917" x1="64.767" y1="-52.917" style="fill:none;stroke:#000000;stroke-width:0.3;" x2="64.767"/>
  <line y2="-44.719" x1="70.09" y1="-44.719" style="fill:none;stroke:#000000;stroke-width:0.3;" x2="72.902"/>
  <line y2="-43.219" x1="71.465" y1="-46.219" style="fill:none;stroke:#000000;stroke-width:0.3;" x2="71.465"/>
  <line y2="-44.792" x1="43.304" y1="-44.792" style="fill:none;stroke:#000000;stroke-width:0.3;" x2="46.117"/>
  <line y2="-43.292" x1="44.679" y1="-46.292" style="fill:none;stroke:#000000;stroke-width:0.3;" x2="44.679"/>
  <line y2="-58.104" x1="43.304" y1="-58.104" style="fill:none;stroke:#000000;stroke-width:0.3;" x2="46.117"/>
  <line y2="-56.604" x1="44.679" y1="-59.604" style="fill:none;stroke:#000000;stroke-width:0.3;" x2="44.679"/>
  <line y2="-58.104" x1="56.7" y1="-58.104" style="fill:none;stroke:#000000;stroke-width:0.3;" x2="59.513"/>
  <line y2="-56.604" x1="58.075" y1="-59.604" style="fill:none;stroke:#000000;stroke-width:0.3;" x2="58.075"/>
  <line y2="-58.104" x1="70.138" y1="-58.104" style="fill:none;stroke:#000000;stroke-width:0.3;" x2="72.95"/>
  <line y2="-56.604" x1="71.513" y1="-59.604" style="fill:none;stroke:#000000;stroke-width:0.3;" x2="71.513"/>
  <line y2="-44.792" x1="56.708" y1="-44.792" style="fill:none;stroke:#000000;stroke-width:0.3;" x2="59.521"/>
  <line y2="-43.292" x1="58.083" y1="-46.292" style="fill:none;stroke:#000000;stroke-width:0.3;" x2="58.083"/>
  <line y2="-38" x1="9.625" y1="-38" style="fill:none;stroke:#000000;stroke-width:0.3;" x2="12.438"/>
  <line y2="-36.5" x1="11" y1="-39.5" style="fill:none;stroke:#000000;stroke-width:0.3;" x2="11"/>
  <line y2="-24.625" x1="9.625" y1="-24.625" style="fill:none;stroke:#000000;stroke-width:0.3;" x2="12.438"/>
  <line y2="-23.125" x1="11" y1="-26.125" style="fill:none;stroke:#000000;stroke-width:0.3;" x2="11"/>
  <line y2="-24.625" x1="23.062" y1="-24.625" style="fill:none;stroke:#000000;stroke-width:0.3;" x2="25.875"/>
  <line y2="-23.125" x1="24.438" y1="-26.125" style="fill:none;stroke:#000000;stroke-width:0.3;" x2="24.438"/>
  <line y2="-24.625" x1="36.479" y1="-24.625" style="fill:none;stroke:#000000;stroke-width:0.3;" x2="39.292"/>
  <line y2="-23.125" x1="37.854" y1="-26.125" style="fill:none;stroke:#000000;stroke-width:0.3;" x2="37.854"/>
  <line y2="-37.938" x1="36.479" y1="-37.938" style="fill:none;stroke:#000000;stroke-width:0.3;" x2="39.292"/>
  <line y2="-36.438" x1="37.854" y1="-39.438" style="fill:none;stroke:#000000;stroke-width:0.3;" x2="37.854"/>
  <line y2="-37.938" x1="23.083" y1="-37.938" style="fill:none;stroke:#000000;stroke-width:0.3;" x2="25.896"/>
  <line y2="-36.438" x1="24.458" y1="-39.438" style="fill:none;stroke:#000000;stroke-width:0.3;" x2="24.458"/>
  <line y2="-31.24" x1="29.781" y1="-31.24" style="fill:none;stroke:#000000;stroke-width:0.3;" x2="32.594"/>
  <line y2="-29.74" x1="31.156" y1="-32.74" style="fill:none;stroke:#000000;stroke-width:0.3;" x2="31.156"/>
  <line y2="-31.312" x1="2.996" y1="-31.312" style="fill:none;stroke:#000000;stroke-width:0.3;" x2="5.808"/>
  <line y2="-29.812" x1="4.371" y1="-32.812" style="fill:none;stroke:#000000;stroke-width:0.3;" x2="4.371"/>
  <line y2="-31.312" x1="16.4" y1="-31.312" style="fill:none;stroke:#000000;stroke-width:0.3;" x2="19.212"/>
  <line y2="-29.812" x1="17.775" y1="-32.812" style="fill:none;stroke:#000000;stroke-width:0.3;" x2="17.775"/>
  <line y2="-11.229" x1="9.625" y1="-11.229" style="fill:none;stroke:#000000;stroke-width:0.3;" x2="12.438"/>
  <line y2="-9.729" x1="11" y1="-12.729" style="fill:none;stroke:#000000;stroke-width:0.3;" x2="11"/>
  <line y2="-11.167" x1="36.479" y1="-11.167" style="fill:none;stroke:#000000;stroke-width:0.3;" x2="39.292"/>
  <line y2="-9.667" x1="37.854" y1="-12.667" style="fill:none;stroke:#000000;stroke-width:0.3;" x2="37.854"/>
  <line y2="-11.167" x1="23.083" y1="-11.167" style="fill:none;stroke:#000000;stroke-width:0.3;" x2="25.896"/>
  <line y2="-9.667" x1="24.458" y1="-12.667" style="fill:none;stroke:#000000;stroke-width:0.3;" x2="24.458"/>
  <line y2="-4.469" x1="29.781" y1="-4.469" style="fill:none;stroke:#000000;stroke-width:0.3;" x2="32.594"/>
  <line y2="-2.969" x1="31.156" y1="-5.969" style="fill:none;stroke:#000000;stroke-width:0.3;" x2="31.156"/>
  <line y2="-4.542" x1="2.996" y1="-4.542" style="fill:none;stroke:#000000;stroke-width:0.3;" x2="5.808"/>
  <line y2="-3.042" x1="4.371" y1="-6.042" style="fill:none;stroke:#000000;stroke-width:0.3;" x2="4.371"/>
  <line y2="-17.854" x1="2.996" y1="-17.854" style="fill:none;stroke:#000000;stroke-width:0.3;" x2="5.808"/>
  <line y2="-16.354" x1="4.371" y1="-19.354" style="fill:none;stroke:#000000;stroke-width:0.3;" x2="4.371"/>
  <line y2="-17.854" x1="16.391" y1="-17.854" style="fill:none;stroke:#000000;stroke-width:0.3;" x2="19.204"/>
  <line y2="-16.354" x1="17.766" y1="-19.354" style="fill:none;stroke:#000000;stroke-width:0.3;" x2="17.766"/>
  <line y2="-17.854" x1="29.829" y1="-17.854" style="fill:none;stroke:#000000;stroke-width:0.3;" x2="32.641"/>
  <line y2="-16.354" x1="31.204" y1="-19.354" style="fill:none;stroke:#000000;stroke-width:0.3;" x2="31.204"/>
  <line y2="-4.542" x1="16.4" y1="-4.542" style="fill:none;stroke:#000000;stroke-width:0.3;" x2="19.212"/>
  <line y2="-3.042" x1="17.775" y1="-6.042" style="fill:none;stroke:#000000;stroke-width:0.3;" x2="17.775"/>
  <line y2="-38" x1="49.934" y1="-38" style="fill:none;stroke:#000000;stroke-width:0.3;" x2="52.746"/>
  <line y2="-36.5" x1="51.309" y1="-39.5" style="fill:none;stroke:#000000;stroke-width:0.3;" x2="51.309"/>
  <line y2="-24.625" x1="49.934" y1="-24.625" style="fill:none;stroke:#000000;stroke-width:0.3;" x2="52.746"/>
  <line y2="-23.125" x1="51.309" y1="-26.125" style="fill:none;stroke:#000000;stroke-width:0.3;" x2="51.309"/>
  <line y2="-24.625" x1="63.371" y1="-24.625" style="fill:none;stroke:#000000;stroke-width:0.3;" x2="66.184"/>
  <line y2="-23.125" x1="64.746" y1="-26.125" style="fill:none;stroke:#000000;stroke-width:0.3;" x2="64.746"/>
  <line y2="-24.625" x1="76.788" y1="-24.625" style="fill:none;stroke:#000000;stroke-width:0.3;" x2="79.6"/>
  <line y2="-23.125" x1="78.163" y1="-26.125" style="fill:none;stroke:#000000;stroke-width:0.3;" x2="78.163"/>
  <line y2="-37.938" x1="76.788" y1="-37.938" style="fill:none;stroke:#000000;stroke-width:0.3;" x2="79.6"/>
  <line y2="-36.438" x1="78.163" y1="-39.438" style="fill:none;stroke:#000000;stroke-width:0.3;" x2="78.163"/>
  <line y2="-37.938" x1="63.392" y1="-37.938" style="fill:none;stroke:#000000;stroke-width:0.3;" x2="66.205"/>
  <line y2="-36.438" x1="64.767" y1="-39.438" style="fill:none;stroke:#000000;stroke-width:0.3;" x2="64.767"/>
  <line y2="-31.24" x1="70.09" y1="-31.24" style="fill:none;stroke:#000000;stroke-width:0.3;" x2="72.902"/>
  <line y2="-29.74" x1="71.465" y1="-32.74" style="fill:none;stroke:#000000;stroke-width:0.3;" x2="71.465"/>
  <line y2="-31.312" x1="43.304" y1="-31.312" style="fill:none;stroke:#000000;stroke-width:0.3;" x2="46.117"/>
  <line y2="-29.812" x1="44.679" y1="-32.812" style="fill:none;stroke:#000000;stroke-width:0.3;" x2="44.679"/>
  <line y2="-31.312" x1="56.708" y1="-31.312" style="fill:none;stroke:#000000;stroke-width:0.3;" x2="59.521"/>
  <line y2="-29.812" x1="58.083" y1="-32.812" style="fill:none;stroke:#000000;stroke-width:0.3;" x2="58.083"/>
  <line y2="-11.229" x1="49.934" y1="-11.229" style="fill:none;stroke:#000000;stroke-width:0.3;" x2="52.746"/>
  <line y2="-9.729" x1="51.309" y1="-12.729" style="fill:none;stroke:#000000;stroke-width:0.3;" x2="51.309"/>
  <line y2="-11.167" x1="76.788" y1="-11.167" style="fill:none;stroke:#000000;stroke-width:0.3;" x2="79.6"/>
  <line y2="-9.667" x1="78.163" y1="-12.667" style="fill:none;stroke:#000000;stroke-width:0.3;" x2="78.163"/>
  <line y2="-11.167" x1="63.392" y1="-11.167" style="fill:none;stroke:#000000;stroke-width:0.3;" x2="66.205"/>
  <line y2="-9.667" x1="64.767" y1="-12.667" style="fill:none;stroke:#000000;stroke-width:0.3;" x2="64.767"/>
  <line y2="-4.469" x1="70.09" y1="-4.469" style="fill:none;stroke:#000000;stroke-width:0.3;" x2="72.902"/>
  <line y2="-2.969" x1="71.465" y1="-5.969" style="fill:none;stroke:#000000;stroke-width:0.3;" x2="71.465"/>
  <line y2="-4.542" x1="43.304" y1="-4.542" style="fill:none;stroke:#000000;stroke-width:0.3;" x2="46.117"/>
  <line y2="-3.042" x1="44.679" y1="-6.042" style="fill:none;stroke:#000000;stroke-width:0.3;" x2="44.679"/>
  <line y2="-17.854" x1="43.304" y1="-17.854" style="fill:none;stroke:#000000;stroke-width:0.3;" x2="46.117"/>
  <line y2="-16.354" x1="44.679" y1="-19.354" style="fill:none;stroke:#000000;stroke-width:0.3;" x2="44.679"/>
  <line y2="-17.854" x1="56.7" y1="-17.854" style="fill:none;stroke:#000000;stroke-width:0.3;" x2="59.513"/>
  <line y2="-16.354" x1="58.075" y1="-19.354" style="fill:none;stroke:#000000;stroke-width:0.3;" x2="58.075"/>
  <line y2="-17.854" x1="70.138" y1="-17.854" style="fill:none;stroke:#000000;stroke-width:0.3;" x2="72.95"/>
  <line y2="-16.354" x1="71.513" y1="-19.354" style="fill:none;stroke:#000000;stroke-width:0.3;" x2="71.513"/>
  <line y2="-4.542" x1="56.708" y1="-4.542" style="fill:none;stroke:#000000;stroke-width:0.3;" x2="59.521"/>
  <line y2="-3.042" x1="58.083" y1="-6.042" style="fill:none;stroke:#000000;stroke-width:0.3;" x2="58.083"/>
 </g>
</svg>
