<?xml version="1.0"?>
<!-- Converted with SVG Converter - Version 0.9.5 (Compiled Fri Feb 21 09:53:38 2020) - Copyright (C) 2011 Nokia -->
<svg xmlns="http://www.w3.org/2000/svg" xml:space="preserve" width="80.559" height="80.5" y="0px" version="1.1" viewBox="1 -81.5 80.559 80.5" x="0px" xmlns:xlink="http://www.w3.org/1999/xlink" baseProfile="tiny">
 <g>
  <rect width="80.559" height="80.5" y="-81.5" x="1" style="fill:none;"/>
  <polyline points="38.738,-65.54 39.021,-63.542 37.106,-64.18   " style="fill:none;stroke:#000000;stroke-width:0.3;"/>
  <polyline points="24.631,-66.474 25.646,-64.729 23.631,-64.599   " style="fill:none;stroke:#000000;stroke-width:0.3;"/>
  <polyline points="58.606,-58.849 59.621,-57.104 57.607,-56.974   " style="fill:none;stroke:#000000;stroke-width:0.3;"/>
  <polyline points="16.589,-6.828 17.604,-5.083 15.59,-4.953   " style="fill:none;stroke:#000000;stroke-width:0.3;"/>
  <polyline points="70.068,-46.287 71.083,-44.542 69.069,-44.412   " style="fill:none;stroke:#000000;stroke-width:0.3;"/>
  <polyline points="44.237,-19.385 45.252,-17.64 43.237,-17.51   " style="fill:none;stroke:#000000;stroke-width:0.3;"/>
  <polyline points="22.318,-77.934 21.69,-79.852 23.687,-79.559   " style="fill:none;stroke:#000000;stroke-width:0.3;"/>
  <polyline points="30.518,-72.544 32.271,-71.542 30.592,-70.42   " style="fill:none;stroke:#000000;stroke-width:0.3;"/>
  <polyline points="55.926,-72.207 57.678,-71.205 56,-70.083   " style="fill:none;stroke:#000000;stroke-width:0.3;"/>
  <polyline points="18.095,-44.984 18.333,-42.979 16.433,-43.66   " style="fill:none;stroke:#000000;stroke-width:0.3;"/>
  <polyline points="71.945,-58.979 72.184,-56.975 70.283,-57.655   " style="fill:none;stroke:#000000;stroke-width:0.3;"/>
  <polyline points="43.595,-7.497 43.833,-5.492 41.933,-6.173   " style="fill:none;stroke:#000000;stroke-width:0.3;"/>
  <polyline points="63.763,-41.895 64.002,-39.89 62.101,-40.571   " style="fill:none;stroke:#000000;stroke-width:0.3;"/>
  <polyline points="64.595,-53.046 64.833,-51.042 62.933,-51.722   " style="fill:none;stroke:#000000;stroke-width:0.3;"/>
  <polyline points="49.763,-52.645 50.002,-50.64 48.101,-51.321   " style="fill:none;stroke:#000000;stroke-width:0.3;"/>
  <polyline points="4.759,-42.155 2.916,-42.979 4.476,-44.261   " style="fill:none;stroke:#000000;stroke-width:0.3;"/>
  <polyline points="16.583,-72.275 15.416,-70.629 14.463,-72.408   " style="fill:none;stroke:#000000;stroke-width:0.3;"/>
  <polyline points="32.434,-57.813 30.458,-58.229 31.712,-59.812   " style="fill:none;stroke:#000000;stroke-width:0.3;"/>
  <polyline points="37.224,-50.605 38.333,-52.292 39.348,-50.547   " style="fill:none;stroke:#000000;stroke-width:0.3;"/>
  <polyline points="30.695,-34.408 30.752,-32.39 28.92,-33.239   " style="fill:none;stroke:#000000;stroke-width:0.3;"/>
  <polyline points="51.526,-80.31 51.583,-78.292 49.752,-79.14   " style="fill:none;stroke:#000000;stroke-width:0.3;"/>
  <polyline points="70.276,-6.06 70.333,-4.042 68.502,-4.89   " style="fill:none;stroke:#000000;stroke-width:0.3;"/>
  <polyline points="17.487,-57.328 19.146,-58.479 19.436,-56.482   " style="fill:none;stroke:#000000;stroke-width:0.3;"/>
  <polyline points="10.139,-52.389 11.833,-51.292 10.095,-50.265   " style="fill:none;stroke:#000000;stroke-width:0.3;"/>
  <polyline points="31.308,-19.988 33.002,-18.89 31.264,-17.863   " style="fill:none;stroke:#000000;stroke-width:0.3;"/>
  <polyline points="25.552,-51.718 23.958,-50.479 23.56,-52.458   " style="fill:none;stroke:#000000;stroke-width:0.3;"/>
  <polyline points="77.833,-65.542 76.24,-64.302 75.841,-66.281   " style="fill:none;stroke:#000000;stroke-width:0.3;"/>
  <polyline points="52.052,-38.843 50.458,-37.604 50.06,-39.582   " style="fill:none;stroke:#000000;stroke-width:0.3;"/>
  <polyline points="45.502,-71.39 43.908,-70.151 43.51,-72.13   " style="fill:none;stroke:#000000;stroke-width:0.3;"/>
  <polyline points="3.618,-33.683 3.521,-31.667 1.76,-32.653   " style="fill:none;stroke:#000000;stroke-width:0.3;"/>
  <polyline points="50.349,-27.157 50.252,-25.14 48.491,-26.127   " style="fill:none;stroke:#000000;stroke-width:0.3;"/>
  <polyline points="11.722,-24.98 9.763,-25.469 11.075,-27.004   " style="fill:none;stroke:#000000;stroke-width:0.3;"/>
  <polyline points="58.752,-4.39 56.793,-4.88 58.105,-6.414   " style="fill:none;stroke:#000000;stroke-width:0.3;"/>
  <polyline points="18.434,-18.254 16.708,-19.301 18.415,-20.378   " style="fill:none;stroke:#000000;stroke-width:0.3;"/>
  <polyline points="76.978,-12.594 75.252,-13.64 76.959,-14.718   " style="fill:none;stroke:#000000;stroke-width:0.3;"/>
  <polyline points="58.309,-30.495 56.583,-31.542 58.29,-32.62   " style="fill:none;stroke:#000000;stroke-width:0.3;"/>
  <polyline points="22.833,-24.972 24.82,-25.327 24.252,-23.39   " style="fill:none;stroke:#000000;stroke-width:0.3;"/>
  <polyline points="80.263,-48.528 79.085,-50.167 81.078,-50.49   " style="fill:none;stroke:#000000;stroke-width:0.3;"/>
  <polyline points="5.274,-19.422 6.271,-17.667 4.255,-17.558   " style="fill:none;stroke:#000000;stroke-width:0.3;"/>
  <polyline points="79.54,-25.098 77.542,-24.812 78.177,-26.728   " style="fill:none;stroke:#000000;stroke-width:0.3;"/>
  <polyline points="37.223,-38.022 38.748,-39.345 39.252,-37.39   " style="fill:none;stroke:#000000;stroke-width:0.3;"/>
  <polyline points="68.693,-18.274 70.217,-19.597 70.722,-17.642   " style="fill:none;stroke:#000000;stroke-width:0.3;"/>
  <polyline points="56.121,-45.636 57.646,-46.959 58.15,-45.004   " style="fill:none;stroke:#000000;stroke-width:0.3;"/>
  <polyline points="43.583,-57.292 45.108,-58.615 45.612,-56.66   " style="fill:none;stroke:#000000;stroke-width:0.3;"/>
  <polyline points="36.288,-77.448 37.812,-78.771 38.317,-76.816   " style="fill:none;stroke:#000000;stroke-width:0.3;"/>
  <polyline points="22.213,-37.291 22.748,-39.237 24.252,-37.89   " style="fill:none;stroke:#000000;stroke-width:0.3;"/>
  <polyline points="62.295,-63.547 62.83,-65.493 64.333,-64.146   " style="fill:none;stroke:#000000;stroke-width:0.3;"/>
  <polyline points="35.213,-10.791 35.748,-12.737 37.252,-11.39   " style="fill:none;stroke:#000000;stroke-width:0.3;"/>
  <polyline points="42.756,-43.828 44.146,-45.292 44.836,-43.395   " style="fill:none;stroke:#000000;stroke-width:0.3;"/>
  <polyline points="9.899,-38.904 11.829,-38.312 10.439,-36.848   " style="fill:none;stroke:#000000;stroke-width:0.3;"/>
  <polyline points="62.403,-79.883 64.333,-79.292 62.943,-77.828   " style="fill:none;stroke:#000000;stroke-width:0.3;"/>
  <polyline points="77.72,-75.011 75.842,-74.271 76.018,-76.282   " style="fill:none;stroke:#000000;stroke-width:0.3;"/>
  <polyline points="49.403,-12.383 51.333,-11.792 49.943,-10.328   " style="fill:none;stroke:#000000;stroke-width:0.3;"/>
  <polyline points="24.341,-12.571 26.271,-11.979 24.881,-10.516   " style="fill:none;stroke:#000000;stroke-width:0.3;"/>
  <polyline points="78.763,-3.779 80.692,-3.188 79.302,-1.724   " style="fill:none;stroke:#000000;stroke-width:0.3;"/>
  <polyline points="4.307,-72.655 5.083,-70.792 3.069,-70.928   " style="fill:none;stroke:#000000;stroke-width:0.3;"/>
  <polyline points="9.565,-65.017 11.583,-65.042 10.706,-63.224   " style="fill:none;stroke:#000000;stroke-width:0.3;"/>
  <polyline points="2.565,-59.016 4.583,-59.042 3.706,-57.224   " style="fill:none;stroke:#000000;stroke-width:0.3;"/>
  <polyline points="18.084,-31.877 18.771,-29.979 16.765,-30.211   " style="fill:none;stroke:#000000;stroke-width:0.3;"/>
  <polyline points="69.396,-32.94 70.083,-31.042 68.078,-31.273   " style="fill:none;stroke:#000000;stroke-width:0.3;"/>
  <polyline points="64.646,-26.169 65.333,-24.271 63.328,-24.502   " style="fill:none;stroke:#000000;stroke-width:0.3;"/>
  <polyline points="37.502,-26.14 35.487,-26.27 36.502,-28.015   " style="fill:none;stroke:#000000;stroke-width:0.3;"/>
  <polyline points="30.937,-3.792 28.923,-3.922 29.938,-5.667   " style="fill:none;stroke:#000000;stroke-width:0.3;"/>
  <polyline points="58.348,-18.162 56.333,-18.292 57.348,-20.037   " style="fill:none;stroke:#000000;stroke-width:0.3;"/>
  <polyline points="6.718,-8.009 4.704,-8.138 5.719,-9.883   " style="fill:none;stroke:#000000;stroke-width:0.3;"/>
  <polyline points="31.971,-44.388 29.958,-44.229 30.713,-46.101   " style="fill:none;stroke:#000000;stroke-width:0.3;"/>
  <polyline points="69.967,-70.792 67.955,-70.633 68.71,-72.505   " style="fill:none;stroke:#000000;stroke-width:0.3;"/>
  <polyline points="51.002,-62.14 48.989,-61.982 49.745,-63.854   " style="fill:none;stroke:#000000;stroke-width:0.3;"/>
  <polyline points="14.35,-12.276 12.338,-12.118 13.093,-13.989   " style="fill:none;stroke:#000000;stroke-width:0.3;"/>
  <polyline points="78.083,-37.542 76.071,-37.383 76.826,-39.255   " style="fill:none;stroke:#000000;stroke-width:0.3;"/>
  <polyline points="66.251,-11.008 64.238,-10.849 64.993,-12.721   " style="fill:none;stroke:#000000;stroke-width:0.3;"/>
  <polyline points="43.789,-32.113 45.752,-31.64 44.454,-30.094   " style="fill:none;stroke:#000000;stroke-width:0.3;"/>
  <polyline points="10.815,-79.085 11.62,-80.936 12.918,-79.39   " style="fill:none;stroke:#000000;stroke-width:0.3;"/>
 </g>
</svg>
