<?xml version="1.0"?>
<!-- Converted with SVG Converter - Version 0.9.5 (Compiled Fri Feb 21 09:53:38 2020) - Copyright (C) 2011 Nokia -->
<svg xmlns="http://www.w3.org/2000/svg" x="0px" baseProfile="tiny" version="1.1" y="0px" xml:space="preserve" xmlns:xlink="http://www.w3.org/1999/xlink" width="86.25" height="86.25" viewBox="1.054 -87.25 86.25 86.25">
 <g>
  <rect x="1.054" style="fill:none;" y="-87.25" width="86.25" height="86.25"/>
  <line x2="17.242" style="fill:none;stroke:#000000;stroke-width:0.3;" y1="-80.25" x1="13.304" y2="-84.562"/>
  <line x2="16.117" style="fill:none;stroke:#000000;stroke-width:0.3;" y1="-83.188" x1="14.679" y2="-81.938"/>
  <line x2="2.318" style="fill:none;stroke:#000000;stroke-width:0.3;" y1="-82.093" x1="6.319" y2="-86.347"/>
  <line x2="4.85" style="fill:none;stroke:#000000;stroke-width:0.3;" y1="-83.688" x1="3.494" y2="-85.026"/>
  <line x2="7.01" style="fill:none;stroke:#000000;stroke-width:0.3;" y1="-74.651" x1="1.6" y2="-76.85"/>
  <line x2="4.865" style="fill:none;stroke:#000000;stroke-width:0.3;" y1="-76.711" x1="4.105" y2="-74.964"/>
  <line x2="26.093" style="fill:none;stroke:#000000;stroke-width:0.3;" y1="-54.83" x1="20.683" y2="-57.028"/>
  <line x2="23.948" style="fill:none;stroke:#000000;stroke-width:0.3;" y1="-56.89" x1="23.189" y2="-55.143"/>
  <line x2="15.888" style="fill:none;stroke:#000000;stroke-width:0.3;" y1="-73.751" x1="10.16" y2="-74.891"/>
  <line x2="13.426" style="fill:none;stroke:#000000;stroke-width:0.3;" y1="-75.302" x1="13.009" y2="-73.444"/>
  <line x2="22.554" style="fill:none;stroke:#000000;stroke-width:0.3;" y1="-70.995" x1="18.838" y2="-75.5"/>
  <line x2="21.563" style="fill:none;stroke:#000000;stroke-width:0.3;" y1="-73.998" x1="20.064" y2="-72.822"/>
  <line x2="14.714" style="fill:none;stroke:#000000;stroke-width:0.3;" y1="-53.809" x1="10.998" y2="-58.313"/>
  <line x2="13.722" style="fill:none;stroke:#000000;stroke-width:0.3;" y1="-56.812" x1="12.224" y2="-55.635"/>
  <line x2="28.563" style="fill:none;stroke:#000000;stroke-width:0.3;" y1="-73.214" x1="32.421" y2="-77.598"/>
  <line x2="31.05" style="fill:none;stroke:#000000;stroke-width:0.3;" y1="-74.901" x1="29.651" y2="-76.194"/>
  <line x2="2.46" style="fill:none;stroke:#000000;stroke-width:0.3;" y1="-50.032" x1="7.567" y2="-47.202"/>
  <line x2="4.364" style="fill:none;stroke:#000000;stroke-width:0.3;" y1="-47.687" x1="5.327" y2="-49.33"/>
  <line x2="33.928" style="fill:none;stroke:#000000;stroke-width:0.3;" y1="-61.627" x1="31.879" y2="-67.095"/>
  <line x2="33.861" style="fill:none;stroke:#000000;stroke-width:0.3;" y1="-64.865" x1="32.061" y2="-64.24"/>
  <line x2="23.14" style="fill:none;stroke:#000000;stroke-width:0.3;" y1="-45.94" x1="21.091" y2="-51.408"/>
  <line x2="23.073" style="fill:none;stroke:#000000;stroke-width:0.3;" y1="-49.178" x1="21.274" y2="-48.553"/>
  <line x2="37.047" style="fill:none;stroke:#000000;stroke-width:0.3;" y1="-66.031" x1="42.868" y2="-65.573"/>
  <line x2="39.662" style="fill:none;stroke:#000000;stroke-width:0.3;" y1="-64.826" x1="39.857" y2="-66.72"/>
  <line x2="10.422" style="fill:none;stroke:#000000;stroke-width:0.3;" y1="-48.093" x1="16.243" y2="-47.635"/>
  <line x2="13.037" style="fill:none;stroke:#000000;stroke-width:0.3;" y1="-46.888" x1="13.232" y2="-48.783"/>
  <line x2="3.148" style="fill:none;stroke:#000000;stroke-width:0.3;" y1="-67.577" x1="7.469" y2="-63.649"/>
  <line x2="4.512" style="fill:none;stroke:#000000;stroke-width:0.3;" y1="-64.78" x1="5.827" y2="-66.158"/>
  <line x2="12.233" style="fill:none;stroke:#000000;stroke-width:0.3;" y1="-61.909" x1="14.728" y2="-67.189"/>
  <line x2="14.235" style="fill:none;stroke:#000000;stroke-width:0.3;" y1="-64.296" x1="12.532" y2="-65.151"/>
  <line x2="38.65" style="fill:none;stroke:#000000;stroke-width:0.3;" y1="-54.284" x1="41.144" y2="-59.564"/>
  <line x2="40.651" style="fill:none;stroke:#000000;stroke-width:0.3;" y1="-56.671" x1="38.949" y2="-57.526"/>
  <line x2="31.213" style="fill:none;stroke:#000000;stroke-width:0.3;" y1="-80.911" x1="32.923" y2="-86.494"/>
  <line x2="32.9" style="fill:none;stroke:#000000;stroke-width:0.3;" y1="-83.589" x1="31.093" y2="-84.19"/>
  <line x2="43.707" style="fill:none;stroke:#000000;stroke-width:0.3;" y1="-83.107" x1="38.38" y2="-85.5"/>
  <line x2="41.632" style="fill:none;stroke:#000000;stroke-width:0.3;" y1="-85.256" x1="40.809" y2="-83.538"/>
  <line x2="41.13" style="fill:none;stroke:#000000;stroke-width:0.3;" y1="-70.879" x1="38.598" y2="-76.141"/>
  <line x2="40.807" style="fill:none;stroke:#000000;stroke-width:0.3;" y1="-74.088" x1="39.071" y2="-73.304"/>
  <line x2="21.328" style="fill:none;stroke:#000000;stroke-width:0.3;" y1="-79.298" x1="24.301" y2="-84.324"/>
  <line x2="23.51" style="fill:none;stroke:#000000;stroke-width:0.3;" y1="-81.472" x1="21.894" y2="-82.481"/>
  <line x2="30.233" style="fill:none;stroke:#000000;stroke-width:0.3;" y1="-54.411" x1="35.033" y2="-57.736"/>
  <line x2="32.985" style="fill:none;stroke:#000000;stroke-width:0.3;" y1="-55.381" x1="31.938" y2="-56.972"/>
  <line x2="35.755" style="fill:none;stroke:#000000;stroke-width:0.3;" y1="-46.5" x1="40.554" y2="-49.826"/>
  <line x2="38.506" style="fill:none;stroke:#000000;stroke-width:0.3;" y1="-47.47" x1="37.46" y2="-49.062"/>
  <line x2="18.715" style="fill:none;stroke:#000000;stroke-width:0.3;" y1="-62.366" x1="24.554" y2="-62.301"/>
  <line x2="21.402" style="fill:none;stroke:#000000;stroke-width:0.3;" y1="-61.367" x1="21.469" y2="-63.271"/>
  <line x2="26.465" style="fill:none;stroke:#000000;stroke-width:0.3;" y1="-47.5" x1="32.304" y2="-47.435"/>
  <line x2="29.152" style="fill:none;stroke:#000000;stroke-width:0.3;" y1="-46.501" x1="29.219" y2="-48.404"/>
  <line x2="1.882" style="fill:none;stroke:#000000;stroke-width:0.3;" y1="-55.917" x1="7.721" y2="-55.852"/>
  <line x2="4.569" style="fill:none;stroke:#000000;stroke-width:0.3;" y1="-54.917" x1="4.636" y2="-56.821"/>
  <line x2="59.909" style="fill:none;stroke:#000000;stroke-width:0.3;" y1="-79.042" x1="55.971" y2="-83.354"/>
  <line x2="58.784" style="fill:none;stroke:#000000;stroke-width:0.3;" y1="-81.979" x1="57.346" y2="-80.729"/>
  <line x2="45.568" style="fill:none;stroke:#000000;stroke-width:0.3;" y1="-82.093" x1="49.569" y2="-86.347"/>
  <line x2="48.1" style="fill:none;stroke:#000000;stroke-width:0.3;" y1="-83.688" x1="46.744" y2="-85.026"/>
  <line x2="50.198" style="fill:none;stroke:#000000;stroke-width:0.3;" y1="-75.714" x1="44.787" y2="-77.912"/>
  <line x2="48.052" style="fill:none;stroke:#000000;stroke-width:0.3;" y1="-77.774" x1="47.293" y2="-76.027"/>
  <line x2="68.781" style="fill:none;stroke:#000000;stroke-width:0.3;" y1="-58.089" x1="63.371" y2="-60.287"/>
  <line x2="66.636" style="fill:none;stroke:#000000;stroke-width:0.3;" y1="-60.149" x1="65.876" y2="-58.402"/>
  <line x2="59.553" style="fill:none;stroke:#000000;stroke-width:0.3;" y1="-71.564" x1="56.046" y2="-76.233"/>
  <line x2="58.684" style="fill:none;stroke:#000000;stroke-width:0.3;" y1="-74.619" x1="57.134" y2="-73.512"/>
  <line x2="68.006" style="fill:none;stroke:#000000;stroke-width:0.3;" y1="-71.684" x1="64.289" y2="-76.188"/>
  <line x2="67.014" style="fill:none;stroke:#000000;stroke-width:0.3;" y1="-74.687" x1="65.515" y2="-73.51"/>
  <line x2="57.397" style="fill:none;stroke:#000000;stroke-width:0.3;" y1="-53.809" x1="53.681" y2="-58.313"/>
  <line x2="56.405" style="fill:none;stroke:#000000;stroke-width:0.3;" y1="-56.812" x1="54.907" y2="-55.635"/>
  <line x2="71.813" style="fill:none;stroke:#000000;stroke-width:0.3;" y1="-73.214" x1="75.671" y2="-77.598"/>
  <line x2="74.3" style="fill:none;stroke:#000000;stroke-width:0.3;" y1="-74.901" x1="72.901" y2="-76.194"/>
  <line x2="47.918" style="fill:none;stroke:#000000;stroke-width:0.3;" y1="-44.671" x1="48.352" y2="-50.494"/>
  <line x2="49.055" style="fill:none;stroke:#000000;stroke-width:0.3;" y1="-47.687" x1="47.159" y2="-47.875"/>
  <line x2="24.413" style="fill:none;stroke:#000000;stroke-width:0.3;" y1="-65.683" x1="28.271" y2="-70.067"/>
  <line x2="26.9" style="fill:none;stroke:#000000;stroke-width:0.3;" y1="-67.37" x1="25.501" y2="-68.663"/>
  <line x2="76.327" style="fill:none;stroke:#000000;stroke-width:0.3;" y1="-61.627" x1="74.279" y2="-67.095"/>
  <line x2="76.26" style="fill:none;stroke:#000000;stroke-width:0.3;" y1="-64.865" x1="74.461" y2="-64.24"/>
  <line x2="68.952" style="fill:none;stroke:#000000;stroke-width:0.3;" y1="-44.627" x1="66.904" y2="-50.095"/>
  <line x2="68.885" style="fill:none;stroke:#000000;stroke-width:0.3;" y1="-47.865" x1="67.086" y2="-47.24"/>
  <line x2="80.297" style="fill:none;stroke:#000000;stroke-width:0.3;" y1="-66.031" x1="86.118" y2="-65.573"/>
  <line x2="82.912" style="fill:none;stroke:#000000;stroke-width:0.3;" y1="-64.826" x1="83.107" y2="-66.72"/>
  <line x2="56.217" style="fill:none;stroke:#000000;stroke-width:0.3;" y1="-50.1" x1="57.168" y2="-44.339"/>
  <line x2="55.73" style="fill:none;stroke:#000000;stroke-width:0.3;" y1="-46.888" x1="57.616" y2="-47.153"/>
  <line x2="46.398" style="fill:none;stroke:#000000;stroke-width:0.3;" y1="-67.577" x1="50.719" y2="-63.649"/>
  <line x2="47.762" style="fill:none;stroke:#000000;stroke-width:0.3;" y1="-64.78" x1="49.077" y2="-66.158"/>
  <line x2="55.483" style="fill:none;stroke:#000000;stroke-width:0.3;" y1="-61.909" x1="57.978" y2="-67.189"/>
  <line x2="57.485" style="fill:none;stroke:#000000;stroke-width:0.3;" y1="-64.296" x1="55.782" y2="-65.151"/>
  <line x2="81.9" style="fill:none;stroke:#000000;stroke-width:0.3;" y1="-54.284" x1="84.394" y2="-59.564"/>
  <line x2="83.901" style="fill:none;stroke:#000000;stroke-width:0.3;" y1="-56.671" x1="82.199" y2="-57.526"/>
  <line x2="74.463" style="fill:none;stroke:#000000;stroke-width:0.3;" y1="-80.911" x1="76.173" y2="-86.494"/>
  <line x2="76.15" style="fill:none;stroke:#000000;stroke-width:0.3;" y1="-83.589" x1="74.343" y2="-84.19"/>
  <line x2="86.957" style="fill:none;stroke:#000000;stroke-width:0.3;" y1="-83.107" x1="81.63" y2="-85.5"/>
  <line x2="84.882" style="fill:none;stroke:#000000;stroke-width:0.3;" y1="-85.256" x1="84.059" y2="-83.538"/>
  <line x2="84.38" style="fill:none;stroke:#000000;stroke-width:0.3;" y1="-70.879" x1="81.848" y2="-76.141"/>
  <line x2="84.057" style="fill:none;stroke:#000000;stroke-width:0.3;" y1="-74.088" x1="82.321" y2="-73.304"/>
  <line x2="64.578" style="fill:none;stroke:#000000;stroke-width:0.3;" y1="-79.298" x1="67.55" y2="-84.324"/>
  <line x2="66.759" style="fill:none;stroke:#000000;stroke-width:0.3;" y1="-81.472" x1="65.144" y2="-82.481"/>
  <line x2="71.108" style="fill:none;stroke:#000000;stroke-width:0.3;" y1="-53.223" x1="75.908" y2="-56.549"/>
  <line x2="73.86" style="fill:none;stroke:#000000;stroke-width:0.3;" y1="-54.193" x1="72.813" y2="-55.785"/>
  <line x2="81.421" style="fill:none;stroke:#000000;stroke-width:0.3;" y1="-45.848" x1="86.221" y2="-49.174"/>
  <line x2="84.173" style="fill:none;stroke:#000000;stroke-width:0.3;" y1="-46.818" x1="83.126" y2="-48.41"/>
  <line x2="62.731" style="fill:none;stroke:#000000;stroke-width:0.3;" y1="-66.038" x1="68.57" y2="-65.974"/>
  <line x2="65.417" style="fill:none;stroke:#000000;stroke-width:0.3;" y1="-65.039" x1="65.484" y2="-66.943"/>
  <line x2="72.215" style="fill:none;stroke:#000000;stroke-width:0.3;" y1="-49.5" x1="78.054" y2="-49.435"/>
  <line x2="74.902" style="fill:none;stroke:#000000;stroke-width:0.3;" y1="-48.501" x1="74.969" y2="-50.404"/>
  <line x2="45.132" style="fill:none;stroke:#000000;stroke-width:0.3;" y1="-55.917" x1="50.971" y2="-55.852"/>
  <line x2="47.819" style="fill:none;stroke:#000000;stroke-width:0.3;" y1="-54.917" x1="47.886" y2="-56.821"/>
  <line x2="17.221" style="fill:none;stroke:#000000;stroke-width:0.3;" y1="-38.667" x1="13.284" y2="-42.979"/>
  <line x2="16.096" style="fill:none;stroke:#000000;stroke-width:0.3;" y1="-41.604" x1="14.659" y2="-40.354"/>
  <line x2="2.318" style="fill:none;stroke:#000000;stroke-width:0.3;" y1="-38.843" x1="6.319" y2="-43.097"/>
  <line x2="4.85" style="fill:none;stroke:#000000;stroke-width:0.3;" y1="-40.438" x1="3.494" y2="-41.776"/>
  <line x2="7.01" style="fill:none;stroke:#000000;stroke-width:0.3;" y1="-31.402" x1="1.6" y2="-33.599"/>
  <line x2="4.865" style="fill:none;stroke:#000000;stroke-width:0.3;" y1="-33.461" x1="4.105" y2="-31.714"/>
  <line x2="26.093" style="fill:none;stroke:#000000;stroke-width:0.3;" y1="-12.714" x1="20.683" y2="-14.912"/>
  <line x2="23.948" style="fill:none;stroke:#000000;stroke-width:0.3;" y1="-14.774" x1="23.189" y2="-13.027"/>
  <line x2="14.554" style="fill:none;stroke:#000000;stroke-width:0.3;" y1="-30.36" x1="8.827" y2="-31.5"/>
  <line x2="12.093" style="fill:none;stroke:#000000;stroke-width:0.3;" y1="-31.911" x1="11.676" y2="-30.052"/>
  <line x2="21.304" style="fill:none;stroke:#000000;stroke-width:0.3;" y1="-26.996" x1="17.588" y2="-31.5"/>
  <line x2="20.313" style="fill:none;stroke:#000000;stroke-width:0.3;" y1="-29.998" x1="18.814" y2="-28.822"/>
  <line x2="14.714" style="fill:none;stroke:#000000;stroke-width:0.3;" y1="-10.559" x1="10.998" y2="-15.064"/>
  <line x2="13.722" style="fill:none;stroke:#000000;stroke-width:0.3;" y1="-13.562" x1="12.224" y2="-12.385"/>
  <line x2="26.697" style="fill:none;stroke:#000000;stroke-width:0.3;" y1="-28.25" x1="30.554" y2="-32.634"/>
  <line x2="29.184" style="fill:none;stroke:#000000;stroke-width:0.3;" y1="-29.937" x1="27.784" y2="-31.229"/>
  <line x2="2.822" style="fill:none;stroke:#000000;stroke-width:0.3;" y1="-2.75" x1="6.679" y2="-7.134"/>
  <line x2="5.308" style="fill:none;stroke:#000000;stroke-width:0.3;" y1="-4.437" x1="3.909" y2="-5.729"/>
  <line x2="32.103" style="fill:none;stroke:#000000;stroke-width:0.3;" y1="-18.75" x1="30.054" y2="-24.218"/>
  <line x2="32.036" style="fill:none;stroke:#000000;stroke-width:0.3;" y1="-21.988" x1="30.237" y2="-21.363"/>
  <line x2="23.14" style="fill:none;stroke:#000000;stroke-width:0.3;" y1="-2.69" x1="21.091" y2="-8.158"/>
  <line x2="23.073" style="fill:none;stroke:#000000;stroke-width:0.3;" y1="-5.928" x1="21.274" y2="-5.303"/>
  <line x2="37.262" style="fill:none;stroke:#000000;stroke-width:0.3;" y1="-19.21" x1="39.808" y2="-24.465"/>
  <line x2="39.283" style="fill:none;stroke:#000000;stroke-width:0.3;" y1="-21.576" x1="37.589" y2="-22.448"/>
  <line x2="10.422" style="fill:none;stroke:#000000;stroke-width:0.3;" y1="-4.843" x1="16.243" y2="-4.385"/>
  <line x2="13.037" style="fill:none;stroke:#000000;stroke-width:0.3;" y1="-3.638" x1="13.232" y2="-5.533"/>
  <line x2="3.148" style="fill:none;stroke:#000000;stroke-width:0.3;" y1="-24.327" x1="7.469" y2="-20.399"/>
  <line x2="4.512" style="fill:none;stroke:#000000;stroke-width:0.3;" y1="-21.53" x1="5.827" y2="-22.908"/>
  <line x2="12.233" style="fill:none;stroke:#000000;stroke-width:0.3;" y1="-18.659" x1="14.728" y2="-23.939"/>
  <line x2="14.235" style="fill:none;stroke:#000000;stroke-width:0.3;" y1="-21.046" x1="12.532" y2="-21.901"/>
  <line x2="40.629" style="fill:none;stroke:#000000;stroke-width:0.3;" y1="-10.179" x1="39.029" y2="-15.795"/>
  <line x2="40.793" style="fill:none;stroke:#000000;stroke-width:0.3;" y1="-13.421" x1="38.949" y2="-12.944"/>
  <line x2="38.345" style="fill:none;stroke:#000000;stroke-width:0.3;" y1="-37.75" x1="40.054" y2="-43.334"/>
  <line x2="40.032" style="fill:none;stroke:#000000;stroke-width:0.3;" y1="-40.428" x1="38.225" y2="-41.03"/>
  <line x2="34.304" style="fill:none;stroke:#000000;stroke-width:0.3;" y1="-37.107" x1="28.978" y2="-39.5"/>
  <line x2="32.229" style="fill:none;stroke:#000000;stroke-width:0.3;" y1="-39.256" x1="31.407" y2="-37.538"/>
  <line x2="40.257" style="fill:none;stroke:#000000;stroke-width:0.3;" y1="-30.64" x1="34.557" y2="-31.908"/>
  <line x2="37.828" style="fill:none;stroke:#000000;stroke-width:0.3;" y1="-32.255" x1="37.37" y2="-30.406"/>
  <line x2="29.004" style="fill:none;stroke:#000000;stroke-width:0.3;" y1="-9.5" x1="33.804" y2="-12.825"/>
  <line x2="31.756" style="fill:none;stroke:#000000;stroke-width:0.3;" y1="-10.47" x1="30.71" y2="-12.062"/>
  <line x2="60.005" style="fill:none;stroke:#000000;stroke-width:0.3;" y1="-51.5" x1="64.804" y2="-54.826"/>
  <line x2="62.756" style="fill:none;stroke:#000000;stroke-width:0.3;" y1="-52.47" x1="61.71" y2="-54.062"/>
  <line x2="38.171" style="fill:none;stroke:#000000;stroke-width:0.3;" y1="-2.598" x1="42.971" y2="-5.924"/>
  <line x2="40.923" style="fill:none;stroke:#000000;stroke-width:0.3;" y1="-3.568" x1="39.876" y2="-5.16"/>
  <line x2="19.481" style="fill:none;stroke:#000000;stroke-width:0.3;" y1="-22.788" x1="25.32" y2="-22.724"/>
  <line x2="22.167" style="fill:none;stroke:#000000;stroke-width:0.3;" y1="-21.789" x1="22.235" y2="-23.693"/>
  <line x2="28.418" style="fill:none;stroke:#000000;stroke-width:0.3;" y1="-3.309" x1="34.257" y2="-3.244"/>
  <line x2="31.105" style="fill:none;stroke:#000000;stroke-width:0.3;" y1="-2.31" x1="31.172" y2="-4.213"/>
  <line x2="1.882" style="fill:none;stroke:#000000;stroke-width:0.3;" y1="-12.667" x1="7.721" y2="-12.602"/>
  <line x2="4.569" style="fill:none;stroke:#000000;stroke-width:0.3;" y1="-11.667" x1="4.636" y2="-13.571"/>
  <line x2="57.867" style="fill:none;stroke:#000000;stroke-width:0.3;" y1="-36.542" x1="53.929" y2="-40.854"/>
  <line x2="56.742" style="fill:none;stroke:#000000;stroke-width:0.3;" y1="-39.479" x1="55.304" y2="-38.229"/>
  <line x2="45.526" style="fill:none;stroke:#000000;stroke-width:0.3;" y1="-37.143" x1="49.527" y2="-41.396"/>
  <line x2="48.058" style="fill:none;stroke:#000000;stroke-width:0.3;" y1="-38.737" x1="46.703" y2="-40.075"/>
  <line x2="47.294" style="fill:none;stroke:#000000;stroke-width:0.3;" y1="-28.598" x1="44.651" y2="-33.806"/>
  <line x2="46.91" style="fill:none;stroke:#000000;stroke-width:0.3;" y1="-31.796" x1="45.191" y2="-30.976"/>
  <line x2="69.302" style="fill:none;stroke:#000000;stroke-width:0.3;" y1="-12.714" x1="63.892" y2="-14.912"/>
  <line x2="67.157" style="fill:none;stroke:#000000;stroke-width:0.3;" y1="-14.774" x1="66.397" y2="-13.027"/>
  <line x2="61.221" style="fill:none;stroke:#000000;stroke-width:0.3;" y1="-31.814" x1="55.494" y2="-32.954"/>
  <line x2="58.759" style="fill:none;stroke:#000000;stroke-width:0.3;" y1="-33.365" x1="58.342" y2="-31.506"/>
  <line x2="67.964" style="fill:none;stroke:#000000;stroke-width:0.3;" y1="-28.434" x1="64.248" y2="-32.938"/>
  <line x2="66.972" style="fill:none;stroke:#000000;stroke-width:0.3;" y1="-31.437" x1="65.474" y2="-30.26"/>
  <line x2="57.922" style="fill:none;stroke:#000000;stroke-width:0.3;" y1="-10.559" x1="54.206" y2="-15.064"/>
  <line x2="56.93" style="fill:none;stroke:#000000;stroke-width:0.3;" y1="-13.562" x1="55.432" y2="-12.385"/>
  <line x2="71.772" style="fill:none;stroke:#000000;stroke-width:0.3;" y1="-29.964" x1="75.629" y2="-34.348"/>
  <line x2="74.258" style="fill:none;stroke:#000000;stroke-width:0.3;" y1="-31.651" x1="72.859" y2="-32.944"/>
  <line x2="46.03" style="fill:none;stroke:#000000;stroke-width:0.3;" y1="-2.75" x1="49.888" y2="-7.134"/>
  <line x2="48.517" style="fill:none;stroke:#000000;stroke-width:0.3;" y1="-4.437" x1="47.118" y2="-5.729"/>
  <line x2="76.285" style="fill:none;stroke:#000000;stroke-width:0.3;" y1="-18.377" x1="74.237" y2="-23.845"/>
  <line x2="76.219" style="fill:none;stroke:#000000;stroke-width:0.3;" y1="-21.615" x1="74.419" y2="-20.99"/>
  <line x2="66.348" style="fill:none;stroke:#000000;stroke-width:0.3;" y1="-2.69" x1="64.299" y2="-8.158"/>
  <line x2="66.281" style="fill:none;stroke:#000000;stroke-width:0.3;" y1="-5.928" x1="64.482" y2="-5.303"/>
  <line x2="80.255" style="fill:none;stroke:#000000;stroke-width:0.3;" y1="-22.781" x1="86.076" y2="-22.323"/>
  <line x2="82.87" style="fill:none;stroke:#000000;stroke-width:0.3;" y1="-21.576" x1="83.065" y2="-23.471"/>
  <line x2="53.63" style="fill:none;stroke:#000000;stroke-width:0.3;" y1="-4.843" x1="59.451" y2="-4.385"/>
  <line x2="56.245" style="fill:none;stroke:#000000;stroke-width:0.3;" y1="-3.638" x1="56.44" y2="-5.533"/>
  <line x2="45.481" style="fill:none;stroke:#000000;stroke-width:0.3;" y1="-21.765" x1="49.802" y2="-17.837"/>
  <line x2="46.845" style="fill:none;stroke:#000000;stroke-width:0.3;" y1="-18.968" x1="48.16" y2="-20.346"/>
  <line x2="56.629" style="fill:none;stroke:#000000;stroke-width:0.3;" y1="-18.971" x1="59.124" y2="-24.251"/>
  <line x2="58.63" style="fill:none;stroke:#000000;stroke-width:0.3;" y1="-21.359" x1="56.928" y2="-22.214"/>
  <line x2="81.858" style="fill:none;stroke:#000000;stroke-width:0.3;" y1="-11.034" x1="84.353" y2="-16.314"/>
  <line x2="83.86" style="fill:none;stroke:#000000;stroke-width:0.3;" y1="-13.421" x1="82.157" y2="-14.276"/>
  <line x2="74.421" style="fill:none;stroke:#000000;stroke-width:0.3;" y1="-37.661" x1="76.131" y2="-43.244"/>
  <line x2="76.109" style="fill:none;stroke:#000000;stroke-width:0.3;" y1="-40.339" x1="74.301" y2="-40.94"/>
  <line x2="86.915" style="fill:none;stroke:#000000;stroke-width:0.3;" y1="-39.857" x1="81.589" y2="-42.25"/>
  <line x2="84.84" style="fill:none;stroke:#000000;stroke-width:0.3;" y1="-42.006" x1="84.017" y2="-40.288"/>
  <line x2="84.338" style="fill:none;stroke:#000000;stroke-width:0.3;" y1="-27.629" x1="81.806" y2="-32.891"/>
  <line x2="84.015" style="fill:none;stroke:#000000;stroke-width:0.3;" y1="-30.838" x1="82.279" y2="-30.054"/>
  <line x2="64.537" style="fill:none;stroke:#000000;stroke-width:0.3;" y1="-36.048" x1="67.509" y2="-41.074"/>
  <line x2="66.718" style="fill:none;stroke:#000000;stroke-width:0.3;" y1="-38.222" x1="65.102" y2="-39.231"/>
  <line x2="21.268" style="fill:none;stroke:#000000;stroke-width:0.3;" y1="-34.883" x1="22.613" y2="-40.566"/>
  <line x2="22.803" style="fill:none;stroke:#000000;stroke-width:0.3;" y1="-37.674" x1="20.96" y2="-38.158"/>
  <line x2="73.442" style="fill:none;stroke:#000000;stroke-width:0.3;" y1="-11.161" x1="78.242" y2="-14.486"/>
  <line x2="76.193" style="fill:none;stroke:#000000;stroke-width:0.3;" y1="-12.131" x1="75.147" y2="-13.722"/>
  <line x2="81.379" style="fill:none;stroke:#000000;stroke-width:0.3;" y1="-2.598" x1="86.179" y2="-5.924"/>
  <line x2="84.131" style="fill:none;stroke:#000000;stroke-width:0.3;" y1="-3.568" x1="83.084" y2="-5.16"/>
  <line x2="62.689" style="fill:none;stroke:#000000;stroke-width:0.3;" y1="-22.788" x1="68.528" y2="-22.724"/>
  <line x2="65.376" style="fill:none;stroke:#000000;stroke-width:0.3;" y1="-21.789" x1="65.443" y2="-23.693"/>
  <line x2="49.189" style="fill:none;stroke:#000000;stroke-width:0.3;" y1="-26.726" x1="55.028" y2="-26.661"/>
  <line x2="51.876" style="fill:none;stroke:#000000;stroke-width:0.3;" y1="-25.726" x1="51.943" y2="-27.63"/>
  <line x2="71.627" style="fill:none;stroke:#000000;stroke-width:0.3;" y1="-3.309" x1="77.466" y2="-3.244"/>
  <line x2="74.313" style="fill:none;stroke:#000000;stroke-width:0.3;" y1="-2.31" x1="74.38" y2="-4.213"/>
  <line x2="45.09" style="fill:none;stroke:#000000;stroke-width:0.3;" y1="-12.667" x1="50.929" y2="-12.602"/>
  <line x2="47.777" style="fill:none;stroke:#000000;stroke-width:0.3;" y1="-11.667" x1="47.844" y2="-13.571"/>
 </g>
</svg>
