<?xml version="1.0"?>
<!-- Converted with SVG Converter - Version 0.9.5 (Compiled Fri Feb 21 09:53:38 2020) - Copyright (C) 2011 Nokia -->
<svg xmlns="http://www.w3.org/2000/svg" viewBox="1 -86.042 85.058 85.042" y="0px" version="1.1" xml:space="preserve" x="0px" width="85.058" height="85.042" xmlns:xlink="http://www.w3.org/1999/xlink" baseProfile="tiny">
 <g>
  <rect y="-86.042" style="fill:none;" x="1" width="85.058" height="85.042"/>
  <line y2="-72.688" x1="24.896" style="fill:none;stroke:#000000;stroke-width:0.3;" x2="30.229" y1="-67.438"/>
  <line y2="-69.417" x1="27" style="fill:none;stroke:#000000;stroke-width:0.3;" x2="28.938" y1="-71.417"/>
  <line y2="-68.542" x1="26.125" style="fill:none;stroke:#000000;stroke-width:0.3;" x2="28.062" y1="-70.479"/>
  <line y2="-72.688" x1="35.562" style="fill:none;stroke:#000000;stroke-width:0.3;" x2="40.896" y1="-67.438"/>
  <line y2="-69.417" x1="37.667" style="fill:none;stroke:#000000;stroke-width:0.3;" x2="39.604" y1="-71.417"/>
  <line y2="-68.542" x1="36.792" style="fill:none;stroke:#000000;stroke-width:0.3;" x2="38.729" y1="-70.479"/>
  <line y2="-72.688" x1="14.312" style="fill:none;stroke:#000000;stroke-width:0.3;" x2="19.646" y1="-67.438"/>
  <line y2="-69.417" x1="16.417" style="fill:none;stroke:#000000;stroke-width:0.3;" x2="18.354" y1="-71.417"/>
  <line y2="-68.542" x1="15.542" style="fill:none;stroke:#000000;stroke-width:0.3;" x2="17.479" y1="-70.479"/>
  <line y2="-72.688" x1="3.688" style="fill:none;stroke:#000000;stroke-width:0.3;" x2="9.021" y1="-67.438"/>
  <line y2="-69.417" x1="5.792" style="fill:none;stroke:#000000;stroke-width:0.3;" x2="7.729" y1="-71.417"/>
  <line y2="-68.542" x1="4.917" style="fill:none;stroke:#000000;stroke-width:0.3;" x2="6.854" y1="-70.479"/>
  <line y2="-83.312" x1="24.896" style="fill:none;stroke:#000000;stroke-width:0.3;" x2="30.229" y1="-78.062"/>
  <line y2="-80.042" x1="27" style="fill:none;stroke:#000000;stroke-width:0.3;" x2="28.938" y1="-82.042"/>
  <line y2="-79.167" x1="26.125" style="fill:none;stroke:#000000;stroke-width:0.3;" x2="28.062" y1="-81.104"/>
  <line y2="-83.312" x1="35.562" style="fill:none;stroke:#000000;stroke-width:0.3;" x2="40.896" y1="-78.062"/>
  <line y2="-80.042" x1="37.667" style="fill:none;stroke:#000000;stroke-width:0.3;" x2="39.604" y1="-82.042"/>
  <line y2="-79.167" x1="36.792" style="fill:none;stroke:#000000;stroke-width:0.3;" x2="38.729" y1="-81.104"/>
  <line y2="-83.312" x1="14.312" style="fill:none;stroke:#000000;stroke-width:0.3;" x2="19.646" y1="-78.062"/>
  <line y2="-80.042" x1="16.417" style="fill:none;stroke:#000000;stroke-width:0.3;" x2="18.354" y1="-82.042"/>
  <line y2="-79.167" x1="15.542" style="fill:none;stroke:#000000;stroke-width:0.3;" x2="17.479" y1="-81.104"/>
  <line y2="-83.312" x1="3.688" style="fill:none;stroke:#000000;stroke-width:0.3;" x2="9.021" y1="-78.062"/>
  <line y2="-80.042" x1="5.792" style="fill:none;stroke:#000000;stroke-width:0.3;" x2="7.729" y1="-82.042"/>
  <line y2="-79.167" x1="4.917" style="fill:none;stroke:#000000;stroke-width:0.3;" x2="6.854" y1="-81.104"/>
  <line y2="-62.021" x1="24.896" style="fill:none;stroke:#000000;stroke-width:0.3;" x2="30.229" y1="-56.771"/>
  <line y2="-58.75" x1="27" style="fill:none;stroke:#000000;stroke-width:0.3;" x2="28.938" y1="-60.75"/>
  <line y2="-57.875" x1="26.125" style="fill:none;stroke:#000000;stroke-width:0.3;" x2="28.062" y1="-59.812"/>
  <line y2="-62.021" x1="35.562" style="fill:none;stroke:#000000;stroke-width:0.3;" x2="40.896" y1="-56.771"/>
  <line y2="-58.75" x1="37.667" style="fill:none;stroke:#000000;stroke-width:0.3;" x2="39.604" y1="-60.75"/>
  <line y2="-57.875" x1="36.792" style="fill:none;stroke:#000000;stroke-width:0.3;" x2="38.729" y1="-59.812"/>
  <line y2="-62.021" x1="14.312" style="fill:none;stroke:#000000;stroke-width:0.3;" x2="19.646" y1="-56.771"/>
  <line y2="-58.75" x1="16.417" style="fill:none;stroke:#000000;stroke-width:0.3;" x2="18.354" y1="-60.75"/>
  <line y2="-57.875" x1="15.542" style="fill:none;stroke:#000000;stroke-width:0.3;" x2="17.479" y1="-59.812"/>
  <line y2="-62.021" x1="3.688" style="fill:none;stroke:#000000;stroke-width:0.3;" x2="9.021" y1="-56.771"/>
  <line y2="-58.75" x1="5.792" style="fill:none;stroke:#000000;stroke-width:0.3;" x2="7.729" y1="-60.75"/>
  <line y2="-57.875" x1="4.917" style="fill:none;stroke:#000000;stroke-width:0.3;" x2="6.854" y1="-59.812"/>
  <line y2="-51.521" x1="24.896" style="fill:none;stroke:#000000;stroke-width:0.3;" x2="30.229" y1="-46.271"/>
  <line y2="-48.25" x1="27" style="fill:none;stroke:#000000;stroke-width:0.3;" x2="28.938" y1="-50.25"/>
  <line y2="-47.375" x1="26.125" style="fill:none;stroke:#000000;stroke-width:0.3;" x2="28.062" y1="-49.312"/>
  <line y2="-51.521" x1="35.562" style="fill:none;stroke:#000000;stroke-width:0.3;" x2="40.896" y1="-46.271"/>
  <line y2="-48.25" x1="37.667" style="fill:none;stroke:#000000;stroke-width:0.3;" x2="39.604" y1="-50.25"/>
  <line y2="-47.375" x1="36.792" style="fill:none;stroke:#000000;stroke-width:0.3;" x2="38.729" y1="-49.312"/>
  <line y2="-51.521" x1="14.312" style="fill:none;stroke:#000000;stroke-width:0.3;" x2="19.646" y1="-46.271"/>
  <line y2="-48.25" x1="16.417" style="fill:none;stroke:#000000;stroke-width:0.3;" x2="18.354" y1="-50.25"/>
  <line y2="-47.375" x1="15.542" style="fill:none;stroke:#000000;stroke-width:0.3;" x2="17.479" y1="-49.312"/>
  <line y2="-51.521" x1="3.688" style="fill:none;stroke:#000000;stroke-width:0.3;" x2="9.021" y1="-46.271"/>
  <line y2="-48.25" x1="5.792" style="fill:none;stroke:#000000;stroke-width:0.3;" x2="7.729" y1="-50.25"/>
  <line y2="-47.375" x1="4.917" style="fill:none;stroke:#000000;stroke-width:0.3;" x2="6.854" y1="-49.312"/>
  <line y2="-72.688" x1="67.454" style="fill:none;stroke:#000000;stroke-width:0.3;" x2="72.787" y1="-67.438"/>
  <line y2="-69.417" x1="69.558" style="fill:none;stroke:#000000;stroke-width:0.3;" x2="71.496" y1="-71.417"/>
  <line y2="-68.542" x1="68.683" style="fill:none;stroke:#000000;stroke-width:0.3;" x2="70.621" y1="-70.479"/>
  <line y2="-72.688" x1="78.121" style="fill:none;stroke:#000000;stroke-width:0.3;" x2="83.454" y1="-67.438"/>
  <line y2="-69.417" x1="80.225" style="fill:none;stroke:#000000;stroke-width:0.3;" x2="82.162" y1="-71.417"/>
  <line y2="-68.542" x1="79.35" style="fill:none;stroke:#000000;stroke-width:0.3;" x2="81.287" y1="-70.479"/>
  <line y2="-72.688" x1="56.871" style="fill:none;stroke:#000000;stroke-width:0.3;" x2="62.204" y1="-67.438"/>
  <line y2="-69.417" x1="58.975" style="fill:none;stroke:#000000;stroke-width:0.3;" x2="60.912" y1="-71.417"/>
  <line y2="-68.542" x1="58.1" style="fill:none;stroke:#000000;stroke-width:0.3;" x2="60.037" y1="-70.479"/>
  <line y2="-72.688" x1="46.246" style="fill:none;stroke:#000000;stroke-width:0.3;" x2="51.579" y1="-67.438"/>
  <line y2="-69.417" x1="48.35" style="fill:none;stroke:#000000;stroke-width:0.3;" x2="50.287" y1="-71.417"/>
  <line y2="-68.542" x1="47.475" style="fill:none;stroke:#000000;stroke-width:0.3;" x2="49.412" y1="-70.479"/>
  <line y2="-83.312" x1="67.454" style="fill:none;stroke:#000000;stroke-width:0.3;" x2="72.787" y1="-78.062"/>
  <line y2="-80.042" x1="69.558" style="fill:none;stroke:#000000;stroke-width:0.3;" x2="71.496" y1="-82.042"/>
  <line y2="-79.167" x1="68.683" style="fill:none;stroke:#000000;stroke-width:0.3;" x2="70.621" y1="-81.104"/>
  <line y2="-83.312" x1="78.121" style="fill:none;stroke:#000000;stroke-width:0.3;" x2="83.454" y1="-78.062"/>
  <line y2="-80.042" x1="80.225" style="fill:none;stroke:#000000;stroke-width:0.3;" x2="82.162" y1="-82.042"/>
  <line y2="-79.167" x1="79.35" style="fill:none;stroke:#000000;stroke-width:0.3;" x2="81.287" y1="-81.104"/>
  <line y2="-83.312" x1="56.871" style="fill:none;stroke:#000000;stroke-width:0.3;" x2="62.204" y1="-78.062"/>
  <line y2="-80.042" x1="58.975" style="fill:none;stroke:#000000;stroke-width:0.3;" x2="60.912" y1="-82.042"/>
  <line y2="-79.167" x1="58.1" style="fill:none;stroke:#000000;stroke-width:0.3;" x2="60.037" y1="-81.104"/>
  <line y2="-83.312" x1="46.246" style="fill:none;stroke:#000000;stroke-width:0.3;" x2="51.579" y1="-78.062"/>
  <line y2="-80.042" x1="48.35" style="fill:none;stroke:#000000;stroke-width:0.3;" x2="50.287" y1="-82.042"/>
  <line y2="-79.167" x1="47.475" style="fill:none;stroke:#000000;stroke-width:0.3;" x2="49.412" y1="-81.104"/>
  <line y2="-62.021" x1="67.454" style="fill:none;stroke:#000000;stroke-width:0.3;" x2="72.787" y1="-56.771"/>
  <line y2="-58.75" x1="69.558" style="fill:none;stroke:#000000;stroke-width:0.3;" x2="71.496" y1="-60.75"/>
  <line y2="-57.875" x1="68.683" style="fill:none;stroke:#000000;stroke-width:0.3;" x2="70.621" y1="-59.812"/>
  <line y2="-62.021" x1="78.121" style="fill:none;stroke:#000000;stroke-width:0.3;" x2="83.454" y1="-56.771"/>
  <line y2="-58.75" x1="80.225" style="fill:none;stroke:#000000;stroke-width:0.3;" x2="82.162" y1="-60.75"/>
  <line y2="-57.875" x1="79.35" style="fill:none;stroke:#000000;stroke-width:0.3;" x2="81.287" y1="-59.812"/>
  <line y2="-62.021" x1="56.871" style="fill:none;stroke:#000000;stroke-width:0.3;" x2="62.204" y1="-56.771"/>
  <line y2="-58.75" x1="58.975" style="fill:none;stroke:#000000;stroke-width:0.3;" x2="60.912" y1="-60.75"/>
  <line y2="-57.875" x1="58.1" style="fill:none;stroke:#000000;stroke-width:0.3;" x2="60.037" y1="-59.812"/>
  <line y2="-62.021" x1="46.246" style="fill:none;stroke:#000000;stroke-width:0.3;" x2="51.579" y1="-56.771"/>
  <line y2="-58.75" x1="48.35" style="fill:none;stroke:#000000;stroke-width:0.3;" x2="50.287" y1="-60.75"/>
  <line y2="-57.875" x1="47.475" style="fill:none;stroke:#000000;stroke-width:0.3;" x2="49.412" y1="-59.812"/>
  <line y2="-51.521" x1="67.454" style="fill:none;stroke:#000000;stroke-width:0.3;" x2="72.787" y1="-46.271"/>
  <line y2="-48.25" x1="69.558" style="fill:none;stroke:#000000;stroke-width:0.3;" x2="71.496" y1="-50.25"/>
  <line y2="-47.375" x1="68.683" style="fill:none;stroke:#000000;stroke-width:0.3;" x2="70.621" y1="-49.312"/>
  <line y2="-51.521" x1="78.121" style="fill:none;stroke:#000000;stroke-width:0.3;" x2="83.454" y1="-46.271"/>
  <line y2="-48.25" x1="80.225" style="fill:none;stroke:#000000;stroke-width:0.3;" x2="82.162" y1="-50.25"/>
  <line y2="-47.375" x1="79.35" style="fill:none;stroke:#000000;stroke-width:0.3;" x2="81.287" y1="-49.312"/>
  <line y2="-51.521" x1="56.871" style="fill:none;stroke:#000000;stroke-width:0.3;" x2="62.204" y1="-46.271"/>
  <line y2="-48.25" x1="58.975" style="fill:none;stroke:#000000;stroke-width:0.3;" x2="60.912" y1="-50.25"/>
  <line y2="-47.375" x1="58.1" style="fill:none;stroke:#000000;stroke-width:0.3;" x2="60.037" y1="-49.312"/>
  <line y2="-51.521" x1="46.246" style="fill:none;stroke:#000000;stroke-width:0.3;" x2="51.579" y1="-46.271"/>
  <line y2="-48.25" x1="48.35" style="fill:none;stroke:#000000;stroke-width:0.3;" x2="50.287" y1="-50.25"/>
  <line y2="-47.375" x1="47.475" style="fill:none;stroke:#000000;stroke-width:0.3;" x2="49.412" y1="-49.312"/>
  <line y2="-30.146" x1="24.896" style="fill:none;stroke:#000000;stroke-width:0.3;" x2="30.229" y1="-24.896"/>
  <line y2="-26.875" x1="27" style="fill:none;stroke:#000000;stroke-width:0.3;" x2="28.938" y1="-28.875"/>
  <line y2="-26" x1="26.125" style="fill:none;stroke:#000000;stroke-width:0.3;" x2="28.062" y1="-27.938"/>
  <line y2="-30.146" x1="35.562" style="fill:none;stroke:#000000;stroke-width:0.3;" x2="40.896" y1="-24.896"/>
  <line y2="-26.875" x1="37.667" style="fill:none;stroke:#000000;stroke-width:0.3;" x2="39.604" y1="-28.875"/>
  <line y2="-26" x1="36.792" style="fill:none;stroke:#000000;stroke-width:0.3;" x2="38.729" y1="-27.938"/>
  <line y2="-30.146" x1="14.312" style="fill:none;stroke:#000000;stroke-width:0.3;" x2="19.646" y1="-24.896"/>
  <line y2="-26.875" x1="16.417" style="fill:none;stroke:#000000;stroke-width:0.3;" x2="18.354" y1="-28.875"/>
  <line y2="-26" x1="15.542" style="fill:none;stroke:#000000;stroke-width:0.3;" x2="17.479" y1="-27.938"/>
  <line y2="-30.146" x1="3.688" style="fill:none;stroke:#000000;stroke-width:0.3;" x2="9.021" y1="-24.896"/>
  <line y2="-26.875" x1="5.792" style="fill:none;stroke:#000000;stroke-width:0.3;" x2="7.729" y1="-28.875"/>
  <line y2="-26" x1="4.917" style="fill:none;stroke:#000000;stroke-width:0.3;" x2="6.854" y1="-27.938"/>
  <line y2="-40.771" x1="24.896" style="fill:none;stroke:#000000;stroke-width:0.3;" x2="30.229" y1="-35.521"/>
  <line y2="-37.5" x1="27" style="fill:none;stroke:#000000;stroke-width:0.3;" x2="28.938" y1="-39.5"/>
  <line y2="-36.625" x1="26.125" style="fill:none;stroke:#000000;stroke-width:0.3;" x2="28.062" y1="-38.562"/>
  <line y2="-40.771" x1="35.562" style="fill:none;stroke:#000000;stroke-width:0.3;" x2="40.896" y1="-35.521"/>
  <line y2="-37.5" x1="37.667" style="fill:none;stroke:#000000;stroke-width:0.3;" x2="39.604" y1="-39.5"/>
  <line y2="-36.625" x1="36.792" style="fill:none;stroke:#000000;stroke-width:0.3;" x2="38.729" y1="-38.562"/>
  <line y2="-40.771" x1="14.312" style="fill:none;stroke:#000000;stroke-width:0.3;" x2="19.646" y1="-35.521"/>
  <line y2="-37.5" x1="16.417" style="fill:none;stroke:#000000;stroke-width:0.3;" x2="18.354" y1="-39.5"/>
  <line y2="-36.625" x1="15.542" style="fill:none;stroke:#000000;stroke-width:0.3;" x2="17.479" y1="-38.562"/>
  <line y2="-40.771" x1="3.688" style="fill:none;stroke:#000000;stroke-width:0.3;" x2="9.021" y1="-35.521"/>
  <line y2="-37.5" x1="5.792" style="fill:none;stroke:#000000;stroke-width:0.3;" x2="7.729" y1="-39.5"/>
  <line y2="-36.625" x1="4.917" style="fill:none;stroke:#000000;stroke-width:0.3;" x2="6.854" y1="-38.562"/>
  <line y2="-19.479" x1="24.896" style="fill:none;stroke:#000000;stroke-width:0.3;" x2="30.229" y1="-14.229"/>
  <line y2="-16.208" x1="27" style="fill:none;stroke:#000000;stroke-width:0.3;" x2="28.938" y1="-18.208"/>
  <line y2="-15.333" x1="26.125" style="fill:none;stroke:#000000;stroke-width:0.3;" x2="28.062" y1="-17.271"/>
  <line y2="-19.479" x1="35.562" style="fill:none;stroke:#000000;stroke-width:0.3;" x2="40.896" y1="-14.229"/>
  <line y2="-16.208" x1="37.667" style="fill:none;stroke:#000000;stroke-width:0.3;" x2="39.604" y1="-18.208"/>
  <line y2="-15.333" x1="36.792" style="fill:none;stroke:#000000;stroke-width:0.3;" x2="38.729" y1="-17.271"/>
  <line y2="-19.479" x1="14.312" style="fill:none;stroke:#000000;stroke-width:0.3;" x2="19.646" y1="-14.229"/>
  <line y2="-16.208" x1="16.417" style="fill:none;stroke:#000000;stroke-width:0.3;" x2="18.354" y1="-18.208"/>
  <line y2="-15.333" x1="15.542" style="fill:none;stroke:#000000;stroke-width:0.3;" x2="17.479" y1="-17.271"/>
  <line y2="-19.479" x1="3.688" style="fill:none;stroke:#000000;stroke-width:0.3;" x2="9.021" y1="-14.229"/>
  <line y2="-16.208" x1="5.792" style="fill:none;stroke:#000000;stroke-width:0.3;" x2="7.729" y1="-18.208"/>
  <line y2="-15.333" x1="4.917" style="fill:none;stroke:#000000;stroke-width:0.3;" x2="6.854" y1="-17.271"/>
  <line y2="-8.979" x1="24.896" style="fill:none;stroke:#000000;stroke-width:0.3;" x2="30.229" y1="-3.729"/>
  <line y2="-5.708" x1="27" style="fill:none;stroke:#000000;stroke-width:0.3;" x2="28.938" y1="-7.708"/>
  <line y2="-4.833" x1="26.125" style="fill:none;stroke:#000000;stroke-width:0.3;" x2="28.062" y1="-6.771"/>
  <line y2="-8.979" x1="35.562" style="fill:none;stroke:#000000;stroke-width:0.3;" x2="40.896" y1="-3.729"/>
  <line y2="-5.708" x1="37.667" style="fill:none;stroke:#000000;stroke-width:0.3;" x2="39.604" y1="-7.708"/>
  <line y2="-4.833" x1="36.792" style="fill:none;stroke:#000000;stroke-width:0.3;" x2="38.729" y1="-6.771"/>
  <line y2="-8.979" x1="14.312" style="fill:none;stroke:#000000;stroke-width:0.3;" x2="19.646" y1="-3.729"/>
  <line y2="-5.708" x1="16.417" style="fill:none;stroke:#000000;stroke-width:0.3;" x2="18.354" y1="-7.708"/>
  <line y2="-4.833" x1="15.542" style="fill:none;stroke:#000000;stroke-width:0.3;" x2="17.479" y1="-6.771"/>
  <line y2="-8.979" x1="3.688" style="fill:none;stroke:#000000;stroke-width:0.3;" x2="9.021" y1="-3.729"/>
  <line y2="-5.708" x1="5.792" style="fill:none;stroke:#000000;stroke-width:0.3;" x2="7.729" y1="-7.708"/>
  <line y2="-4.833" x1="4.917" style="fill:none;stroke:#000000;stroke-width:0.3;" x2="6.854" y1="-6.771"/>
  <line y2="-30.146" x1="67.454" style="fill:none;stroke:#000000;stroke-width:0.3;" x2="72.787" y1="-24.896"/>
  <line y2="-26.875" x1="69.558" style="fill:none;stroke:#000000;stroke-width:0.3;" x2="71.496" y1="-28.875"/>
  <line y2="-26" x1="68.683" style="fill:none;stroke:#000000;stroke-width:0.3;" x2="70.621" y1="-27.938"/>
  <line y2="-30.146" x1="78.121" style="fill:none;stroke:#000000;stroke-width:0.3;" x2="83.454" y1="-24.896"/>
  <line y2="-26.875" x1="80.225" style="fill:none;stroke:#000000;stroke-width:0.3;" x2="82.162" y1="-28.875"/>
  <line y2="-26" x1="79.35" style="fill:none;stroke:#000000;stroke-width:0.3;" x2="81.287" y1="-27.938"/>
  <line y2="-30.146" x1="56.871" style="fill:none;stroke:#000000;stroke-width:0.3;" x2="62.204" y1="-24.896"/>
  <line y2="-26.875" x1="58.975" style="fill:none;stroke:#000000;stroke-width:0.3;" x2="60.912" y1="-28.875"/>
  <line y2="-26" x1="58.1" style="fill:none;stroke:#000000;stroke-width:0.3;" x2="60.037" y1="-27.938"/>
  <line y2="-30.146" x1="46.246" style="fill:none;stroke:#000000;stroke-width:0.3;" x2="51.579" y1="-24.896"/>
  <line y2="-26.875" x1="48.35" style="fill:none;stroke:#000000;stroke-width:0.3;" x2="50.287" y1="-28.875"/>
  <line y2="-26" x1="47.475" style="fill:none;stroke:#000000;stroke-width:0.3;" x2="49.412" y1="-27.938"/>
  <line y2="-40.771" x1="67.454" style="fill:none;stroke:#000000;stroke-width:0.3;" x2="72.787" y1="-35.521"/>
  <line y2="-37.5" x1="69.558" style="fill:none;stroke:#000000;stroke-width:0.3;" x2="71.496" y1="-39.5"/>
  <line y2="-36.625" x1="68.683" style="fill:none;stroke:#000000;stroke-width:0.3;" x2="70.621" y1="-38.562"/>
  <line y2="-40.771" x1="78.121" style="fill:none;stroke:#000000;stroke-width:0.3;" x2="83.454" y1="-35.521"/>
  <line y2="-37.5" x1="80.225" style="fill:none;stroke:#000000;stroke-width:0.3;" x2="82.162" y1="-39.5"/>
  <line y2="-36.625" x1="79.35" style="fill:none;stroke:#000000;stroke-width:0.3;" x2="81.287" y1="-38.562"/>
  <line y2="-40.771" x1="56.871" style="fill:none;stroke:#000000;stroke-width:0.3;" x2="62.204" y1="-35.521"/>
  <line y2="-37.5" x1="58.975" style="fill:none;stroke:#000000;stroke-width:0.3;" x2="60.912" y1="-39.5"/>
  <line y2="-36.625" x1="58.1" style="fill:none;stroke:#000000;stroke-width:0.3;" x2="60.037" y1="-38.562"/>
  <line y2="-40.771" x1="46.246" style="fill:none;stroke:#000000;stroke-width:0.3;" x2="51.579" y1="-35.521"/>
  <line y2="-37.5" x1="48.35" style="fill:none;stroke:#000000;stroke-width:0.3;" x2="50.287" y1="-39.5"/>
  <line y2="-36.625" x1="47.475" style="fill:none;stroke:#000000;stroke-width:0.3;" x2="49.412" y1="-38.562"/>
  <line y2="-19.479" x1="67.454" style="fill:none;stroke:#000000;stroke-width:0.3;" x2="72.787" y1="-14.229"/>
  <line y2="-16.208" x1="69.558" style="fill:none;stroke:#000000;stroke-width:0.3;" x2="71.496" y1="-18.208"/>
  <line y2="-15.333" x1="68.683" style="fill:none;stroke:#000000;stroke-width:0.3;" x2="70.621" y1="-17.271"/>
  <line y2="-19.479" x1="78.121" style="fill:none;stroke:#000000;stroke-width:0.3;" x2="83.454" y1="-14.229"/>
  <line y2="-16.208" x1="80.225" style="fill:none;stroke:#000000;stroke-width:0.3;" x2="82.162" y1="-18.208"/>
  <line y2="-15.333" x1="79.35" style="fill:none;stroke:#000000;stroke-width:0.3;" x2="81.287" y1="-17.271"/>
  <line y2="-19.479" x1="56.871" style="fill:none;stroke:#000000;stroke-width:0.3;" x2="62.204" y1="-14.229"/>
  <line y2="-16.208" x1="58.975" style="fill:none;stroke:#000000;stroke-width:0.3;" x2="60.912" y1="-18.208"/>
  <line y2="-15.333" x1="58.1" style="fill:none;stroke:#000000;stroke-width:0.3;" x2="60.037" y1="-17.271"/>
  <line y2="-19.479" x1="46.246" style="fill:none;stroke:#000000;stroke-width:0.3;" x2="51.579" y1="-14.229"/>
  <line y2="-16.208" x1="48.35" style="fill:none;stroke:#000000;stroke-width:0.3;" x2="50.287" y1="-18.208"/>
  <line y2="-15.333" x1="47.475" style="fill:none;stroke:#000000;stroke-width:0.3;" x2="49.412" y1="-17.271"/>
  <line y2="-8.979" x1="67.454" style="fill:none;stroke:#000000;stroke-width:0.3;" x2="72.787" y1="-3.729"/>
  <line y2="-5.708" x1="69.558" style="fill:none;stroke:#000000;stroke-width:0.3;" x2="71.496" y1="-7.708"/>
  <line y2="-4.833" x1="68.683" style="fill:none;stroke:#000000;stroke-width:0.3;" x2="70.621" y1="-6.771"/>
  <line y2="-8.979" x1="78.121" style="fill:none;stroke:#000000;stroke-width:0.3;" x2="83.454" y1="-3.729"/>
  <line y2="-5.708" x1="80.225" style="fill:none;stroke:#000000;stroke-width:0.3;" x2="82.162" y1="-7.708"/>
  <line y2="-4.833" x1="79.35" style="fill:none;stroke:#000000;stroke-width:0.3;" x2="81.287" y1="-6.771"/>
  <line y2="-8.979" x1="56.871" style="fill:none;stroke:#000000;stroke-width:0.3;" x2="62.204" y1="-3.729"/>
  <line y2="-5.708" x1="58.975" style="fill:none;stroke:#000000;stroke-width:0.3;" x2="60.912" y1="-7.708"/>
  <line y2="-4.833" x1="58.1" style="fill:none;stroke:#000000;stroke-width:0.3;" x2="60.037" y1="-6.771"/>
  <line y2="-8.979" x1="46.246" style="fill:none;stroke:#000000;stroke-width:0.3;" x2="51.579" y1="-3.729"/>
  <line y2="-5.708" x1="48.35" style="fill:none;stroke:#000000;stroke-width:0.3;" x2="50.287" y1="-7.708"/>
  <line y2="-4.833" x1="47.475" style="fill:none;stroke:#000000;stroke-width:0.3;" x2="49.412" y1="-6.771"/>
 </g>
</svg>
