<?xml version="1.0"?>
<!-- Converted with SVG Converter - Version 0.9.5 (Compiled Fri Feb 21 09:53:38 2020) - Copyright (C) 2011 Nokia -->
<svg xmlns="http://www.w3.org/2000/svg" baseProfile="tiny" x="0px" viewBox="3.163 -56.1 54.5 54.5" y="0px" xml:space="preserve" height="54.5" version="1.1" width="54.5" xmlns:xlink="http://www.w3.org/1999/xlink">
 <g>
  <rect x="3.163" y="-56.1" style="fill:none;" height="54.5" width="54.5"/>
  <path d="M54.426-1.608    c0.047-0.094,0.102-0.252,0.15-0.365c0.591-1.398,1.258-4.193,1.836-6.043c0.625-2-1.062-2.75-2.875-3.688s-2.25-0.875-4.375-1.5    c-3.243-0.954-3.812-4.083-6.75-4.646s-6.125-3-6.25-4.812s3.125-2.938,5-3.25s3.438-0.75,1.938-0.938s-2.5-0.438-4.688-1.188    c-2.284-0.783-0.333-1.854-6.333-2.479s-7.167-5.834-6.563-7.25c0.746-1.748,3.25-2.25,6.062-2.5s2.896-0.896,6.083-1.458    s2.875-1.375,0.688-1.25s-3.062,0.482-10.75-2.812c-2.188-0.938-3.099-1.15-5.021-1.896c-3.062-1.188-6.886-1.98-7.167-3.667    c-0.166-1,1.5-2.167,7.5-1.333c6,0.833,8.5-1,13.167-1.333c4.667-0.333,12.333-0.211,14.333-0.167    c0.938,0.021,3.188-0.083,4.021-1.917" style="fill:none;stroke:#000000;stroke-width:0.3;stroke-linecap:square;"/>
  <path d="M38.6-42.975c-3.437,0.078,14.375-2.75,14.812-2.25s-0.188,1.25-1.688,1.562S39.85-42.1,38.225-41.85    S41.35-43.038,38.6-42.975z"/>
  <path d="M52.017-49.059c-2.17,1.654-3.812,0.625-9.25,0.75s-12-0.438-7.188-1.438s7.125-1.188,10-0.75    S53.329-50.059,52.017-49.059z"/>
  <path d="M42.288-26.975c-2.667-0.381,6,0.438,8.312,0.25s3.188-0.438,3.188,0.062s-1.812,0.938-4,0.812s-5.938-0.688-6.812-0.5    S42.725-26.913,42.288-26.975z"/>
  <path d="M40.1-34.975c2.346,1.613,4.125,1.125,6.625,0.125s1.938-1,3.688-0.812s3.125-0.188,4.625-0.938s2.375-1.625,1.188-1.438    s-4.625,1.312-6.125,1.25s-2.938,0.25-4.312,0.812S39.1-35.663,40.1-34.975z"/>
  <path d="M5.267-1.6    C1.6-6.954,11.038-9.538,11.413-9.725c4.837-2.419,4.215-7.69-2.5-7.958c-6.25-0.25-3.375-3.25,3.5-4s6.253-3.542,5.878-6.292    s3.737-3.378-6.375-5.625c-1.125-0.25-3.125-0.375-4.125-1.75s-2-3.625,0.5-4.125s7.742-3.236,3.875-5.5    C2.413-50.684,14.35-53.038,5.267-56.1" style="fill:none;stroke:#000000;stroke-width:0.3;stroke-linecap:square;"/>
  <line x1="32.091" y2="-12.724" y1="-30.484" style="fill:none;stroke:#000000;stroke-width:0.3;stroke-linecap:square;" x2="14.352"/>
  <line x1="29.98" y2="-15.18" y1="-30.97" style="fill:none;stroke:#000000;stroke-width:0.3;stroke-linecap:square;" x2="14.208"/>
  <line x1="52.485" y2="-54.219" y1="-56.1" style="fill:none;stroke:#000000;stroke-width:0.3;stroke-linecap:square;" x2="50.606"/>
  <line x1="28.244" y2="-16.541" y1="-31.831" style="fill:none;stroke:#000000;stroke-width:0.3;stroke-linecap:square;" x2="12.972"/>
  <line x1="49.89" y2="-54.173" y1="-56.1" style="fill:none;stroke:#000000;stroke-width:0.3;stroke-linecap:square;" x2="47.965"/>
  <line x1="36.628" y2="-40.884" y1="-42.823" style="fill:none;stroke:#000000;stroke-width:0.3;stroke-linecap:square;" x2="34.691"/>
  <line x1="26.883" y2="-24.249" y1="-33.067" style="fill:none;stroke:#000000;stroke-width:0.3;stroke-linecap:square;" x2="18.076"/>
  <line x1="18.076" y2="-22.811" y1="-24.249" style="fill:none;stroke:#000000;stroke-width:0.3;stroke-linecap:square;" x2="16.639"/>
  <line x1="16.639" y2="-17.308" y1="-22.811" style="fill:none;stroke:#000000;stroke-width:0.3;stroke-linecap:square;" x2="11.143"/>
  <line x1="47.294" y2="-54.252" y1="-56.1" style="fill:none;stroke:#000000;stroke-width:0.3;stroke-linecap:square;" x2="45.448"/>
  <line x1="34.486" y2="-40.213" y1="-43.277" style="fill:none;stroke:#000000;stroke-width:0.3;stroke-linecap:square;" x2="31.425"/>
  <line x1="25.866" y2="-27.111" y1="-34.647" style="fill:none;stroke:#000000;stroke-width:0.3;stroke-linecap:square;" x2="18.339"/>
  <line x1="12.998" y2="-17.637" y1="-21.765" style="fill:none;stroke:#000000;stroke-width:0.3;stroke-linecap:square;" x2="8.875"/>
  <line x1="44.698" y2="-54.238" y1="-56.1" style="fill:none;stroke:#000000;stroke-width:0.3;stroke-linecap:square;" x2="42.837"/>
  <line x1="32.468" y2="-39.604" y1="-43.856" style="fill:none;stroke:#000000;stroke-width:0.3;stroke-linecap:square;" x2="28.221"/>
  <line x1="25.348" y2="-30.036" y1="-36.728" style="fill:none;stroke:#000000;stroke-width:0.3;stroke-linecap:square;" x2="18.664"/>
  <line x1="9.981" y2="-17.967" y1="-21.344" style="fill:none;stroke:#000000;stroke-width:0.3;stroke-linecap:square;" x2="6.608"/>
  <line x1="42.102" y2="-54.223" y1="-56.1" style="fill:none;stroke:#000000;stroke-width:0.3;stroke-linecap:square;" x2="40.227"/>
  <line x1="30.607" y2="-31.804" y1="-44.593" style="fill:none;stroke:#000000;stroke-width:0.3;stroke-linecap:square;" x2="17.833"/>
  <line x1="39.506" y2="-54.083" y1="-56.1" style="fill:none;stroke:#000000;stroke-width:0.3;stroke-linecap:square;" x2="37.492"/>
  <line x1="28.685" y2="-32.508" y1="-45.266" style="fill:none;stroke:#000000;stroke-width:0.3;stroke-linecap:square;" x2="15.941"/>
  <line x1="36.91" y2="-53.85" y1="-56.1" style="fill:none;stroke:#000000;stroke-width:0.3;stroke-linecap:square;" x2="34.663"/>
  <line x1="26.854" y2="-33.026" y1="-46.033" style="fill:none;stroke:#000000;stroke-width:0.3;stroke-linecap:square;" x2="13.862"/>
  <line x1="34.314" y2="-53.21" y1="-56.1" style="fill:none;stroke:#000000;stroke-width:0.3;stroke-linecap:square;" x2="31.428"/>
  <line x1="25.025" y2="-33.605" y1="-46.8" style="fill:none;stroke:#000000;stroke-width:0.3;stroke-linecap:square;" x2="11.845"/>
  <line x1="31.718" y2="-52.57" y1="-56.1" style="fill:none;stroke:#000000;stroke-width:0.3;stroke-linecap:square;" x2="28.192"/>
  <line x1="23.071" y2="-34.091" y1="-47.443" style="fill:none;stroke:#000000;stroke-width:0.3;stroke-linecap:square;" x2="9.734"/>
  <line x1="29.123" y2="-52.493" y1="-56.1" style="fill:none;stroke:#000000;stroke-width:0.3;stroke-linecap:square;" x2="25.52"/>
  <line x1="21.178" y2="-35.015" y1="-48.146" style="fill:none;stroke:#000000;stroke-width:0.3;stroke-linecap:square;" x2="8.061"/>
  <line x1="26.526" y2="-52.666" y1="-56.1" style="fill:none;stroke:#000000;stroke-width:0.3;stroke-linecap:square;" x2="23.097"/>
  <line x1="19.286" y2="-43.161" y1="-48.852" style="fill:none;stroke:#000000;stroke-width:0.3;stroke-linecap:square;" x2="13.602"/>
  <line x1="11.041" y2="-36.563" y1="-40.597" style="fill:none;stroke:#000000;stroke-width:0.3;stroke-linecap:square;" x2="7.012"/>
  <line x1="23.93" y2="-52.839" y1="-56.1" style="fill:none;stroke:#000000;stroke-width:0.3;stroke-linecap:square;" x2="20.673"/>
  <line x1="17.394" y2="-44.71" y1="-49.556" style="fill:none;stroke:#000000;stroke-width:0.3;stroke-linecap:square;" x2="12.554"/>
  <line x1="21.334" y2="-52.825" y1="-56.1" style="fill:none;stroke:#000000;stroke-width:0.3;stroke-linecap:square;" x2="18.063"/>
  <line x1="15.877" y2="-45.696" y1="-50.636" style="fill:none;stroke:#000000;stroke-width:0.3;stroke-linecap:square;" x2="10.942"/>
  <line x1="18.739" y2="-46.838" y1="-56.1" style="fill:none;stroke:#000000;stroke-width:0.3;stroke-linecap:square;" x2="9.487"/>
  <line x1="16.143" y2="-48.324" y1="-56.1" style="fill:none;stroke:#000000;stroke-width:0.3;stroke-linecap:square;" x2="8.376"/>
  <line x1="13.546" y2="-50.687" y1="-56.1" style="fill:none;stroke:#000000;stroke-width:0.3;stroke-linecap:square;" x2="8.139"/>
  <line x1="10.95" y2="-53.923" y1="-56.1" style="fill:none;stroke:#000000;stroke-width:0.3;stroke-linecap:square;" x2="8.776"/>
  <line x1="8.355" y2="-55.16" y1="-56.1" style="fill:none;stroke:#000000;stroke-width:0.3;stroke-linecap:square;" x2="7.416"/>
  <line x1="41.669" y2="-25.655" y1="-27.094" style="fill:none;stroke:#000000;stroke-width:0.3;stroke-linecap:square;" x2="40.232"/>
  <line x1="8.35" y2="-38.475" y1="-56.1" style="fill:none;stroke:#000000;stroke-width:0.3;stroke-linecap:square;" x2="25.975"/>
  <line x1="34.131" y2="-25.381" y1="-30.319" style="fill:none;stroke:#000000;stroke-width:0.3;stroke-linecap:square;" x2="39.069"/>
  <line x1="52.069" y2="-8.038" y1="-12.381" style="fill:none;stroke:#000000;stroke-width:0.3;stroke-linecap:square;" x2="56.413"/>
  <line x1="10.975" y2="-51.663" y1="-56.1" style="fill:none;stroke:#000000;stroke-width:0.3;stroke-linecap:square;" x2="15.413"/>
  <line x1="17.444" y2="-39.475" y1="-49.631" style="fill:none;stroke:#000000;stroke-width:0.3;stroke-linecap:square;" x2="27.6"/>
  <line x1="39.288" y2="-25.913" y1="-27.788" style="fill:none;stroke:#000000;stroke-width:0.3;stroke-linecap:square;" x2="41.163"/>
  <line x1="13.6" y2="-52.756" y1="-56.1" style="fill:none;stroke:#000000;stroke-width:0.3;stroke-linecap:square;" x2="16.944"/>
  <line x1="21.694" y2="-40.038" y1="-48.006" style="fill:none;stroke:#000000;stroke-width:0.3;stroke-linecap:square;" x2="29.663"/>
  <line x1="16.225" y2="-52.975" y1="-56.1" style="fill:none;stroke:#000000;stroke-width:0.3;stroke-linecap:square;" x2="19.35"/>
  <line x1="25.756" y2="-40.288" y1="-46.569" style="fill:none;stroke:#000000;stroke-width:0.3;stroke-linecap:square;" x2="32.038"/>
  <line x1="18.788" y2="-52.819" y1="-56.1" style="fill:none;stroke:#000000;stroke-width:0.3;stroke-linecap:square;" x2="22.069"/>
  <line x1="30.131" y2="-40.788" y1="-44.756" style="fill:none;stroke:#000000;stroke-width:0.3;stroke-linecap:square;" x2="34.1"/>
  <line x1="21.413" y2="-52.569" y1="-56.1" style="fill:none;stroke:#000000;stroke-width:0.3;stroke-linecap:square;" x2="24.944"/>
  <line x1="34.194" y2="-41.444" y1="-43.319" style="fill:none;stroke:#000000;stroke-width:0.3;stroke-linecap:square;" x2="36.069"/>
  <line x1="23.913" y2="-52.6" y1="-56.1" style="fill:none;stroke:#000000;stroke-width:0.3;stroke-linecap:square;" x2="27.413"/>
  <line x1="37.194" y2="-41.788" y1="-42.819" style="fill:none;stroke:#000000;stroke-width:0.3;stroke-linecap:square;" x2="38.225"/>
  <line x1="26.538" y2="-52.913" y1="-56.1" style="fill:none;stroke:#000000;stroke-width:0.3;stroke-linecap:square;" x2="29.725"/>
  <line x1="29.163" y2="-53.288" y1="-56.1" style="fill:none;stroke:#000000;stroke-width:0.3;stroke-linecap:square;" x2="31.975"/>
  <line x1="31.788" y2="-53.819" y1="-56.1" style="fill:none;stroke:#000000;stroke-width:0.3;stroke-linecap:square;" x2="34.069"/>
  <line x1="34.288" y2="-54.038" y1="-56.1" style="fill:none;stroke:#000000;stroke-width:0.3;stroke-linecap:square;" x2="36.35"/>
  <line x1="36.913" y2="-54.163" y1="-56.1" style="fill:none;stroke:#000000;stroke-width:0.3;stroke-linecap:square;" x2="38.85"/>
  <line x1="39.538" y2="-54.225" y1="-56.1" style="fill:none;stroke:#000000;stroke-width:0.3;stroke-linecap:square;" x2="41.413"/>
  <line x1="42.163" y2="-54.288" y1="-56.1" style="fill:none;stroke:#000000;stroke-width:0.3;stroke-linecap:square;" x2="43.975"/>
  <line x1="44.663" y2="-54.288" y1="-56.1" style="fill:none;stroke:#000000;stroke-width:0.3;stroke-linecap:square;" x2="46.475"/>
  <line x1="47.288" y2="-54.225" y1="-56.1" style="fill:none;stroke:#000000;stroke-width:0.3;stroke-linecap:square;" x2="49.163"/>
  <line x1="49.913" y2="-54.319" y1="-56.1" style="fill:none;stroke:#000000;stroke-width:0.3;stroke-linecap:square;" x2="51.694"/>
  <line x1="52.538" y2="-55.038" y1="-56.1" style="fill:none;stroke:#000000;stroke-width:0.3;stroke-linecap:square;" x2="53.6"/>
  <line x1="8.905" y2="-36.374" y1="-52.967" style="fill:none;stroke:#000000;stroke-width:0.3;stroke-linecap:square;" x2="25.499"/>
  <line x1="31.155" y2="-24.53" y1="-30.717" style="fill:none;stroke:#000000;stroke-width:0.3;stroke-linecap:square;" x2="37.343"/>
  <line x1="48.28" y2="-5.998" y1="-13.592" style="fill:none;stroke:#000000;stroke-width:0.3;stroke-linecap:square;" x2="55.874"/>
  <line x1="8.249" y2="-23.092" y1="-51.061" style="fill:none;stroke:#000000;stroke-width:0.3;stroke-linecap:square;" x2="36.218"/>
  <line x1="41.062" y2="-3.999" y1="-18.249" style="fill:none;stroke:#000000;stroke-width:0.3;stroke-linecap:square;" x2="55.312"/>
  <line x1="8.343" y2="-45.749" y1="-48.405" style="fill:none;stroke:#000000;stroke-width:0.3;stroke-linecap:square;" x2="10.999"/>
  <line x1="10.999" y2="-43.124" y1="-45.749" style="fill:none;stroke:#000000;stroke-width:0.3;stroke-linecap:square;" x2="13.624"/>
  <line x1="13.624" y2="-2.092" y1="-43.124" style="fill:none;stroke:#000000;stroke-width:0.3;stroke-linecap:square;" x2="54.655"/>
  <line x1="9.155" y2="-32.405" y1="-39.78" style="fill:none;stroke:#000000;stroke-width:0.3;stroke-linecap:square;" x2="16.53"/>
  <line x1="7.249" y2="-33.374" y1="-39.061" style="fill:none;stroke:#000000;stroke-width:0.3;stroke-linecap:square;" x2="12.936"/>
  <line x1="7.062" y2="-34.186" y1="-36.686" style="fill:none;stroke:#000000;stroke-width:0.3;stroke-linecap:square;" x2="9.561"/>
  <line x1="7.53" y2="-17.53" y1="-20.592" style="fill:none;stroke:#000000;stroke-width:0.3;stroke-linecap:square;" x2="10.593"/>
  <line x1="5.874" y2="-17.905" y1="-19.624" style="fill:none;stroke:#000000;stroke-width:0.3;stroke-linecap:square;" x2="7.593"/>
  <line x1="4.676" y2="-1.616" y1="-2.733" style="fill:none;stroke:#000000;stroke-width:0.3;stroke-linecap:square;" x2="5.819"/>
  <line x1="4.607" y2="-9.691" y1="-2.969" style="fill:none;stroke:#000000;stroke-width:0.3;stroke-linecap:square;" x2="11.322"/>
  <line x1="52.474" y2="-4.44" y1="-1.6" style="fill:none;stroke:#000000;stroke-width:0.3;stroke-linecap:square;" x2="55.385"/>
  <line x1="56.46" y2="-1.6" y1="-8.115" style="fill:none;stroke:#000000;stroke-width:0.3;stroke-linecap:square;" x2="49.874"/>
  <line x1="55.942" y2="-1.6" y1="-10.196" style="fill:none;stroke:#000000;stroke-width:0.3;stroke-linecap:square;" x2="47.279"/>
  <line x1="54.394" y2="-1.6" y1="-11.244" style="fill:none;stroke:#000000;stroke-width:0.3;stroke-linecap:square;" x2="44.685"/>
  <line x1="52.689" y2="-1.6" y1="-12.137" style="fill:none;stroke:#000000;stroke-width:0.3;stroke-linecap:square;" x2="42.091"/>
  <line x1="50.734" y2="-1.6" y1="-12.778" style="fill:none;stroke:#000000;stroke-width:0.3;stroke-linecap:square;" x2="39.498"/>
  <line x1="48.749" y2="-1.6" y1="-13.39" style="fill:none;stroke:#000000;stroke-width:0.3;stroke-linecap:square;" x2="36.903"/>
  <line x1="47.043" y2="-1.6" y1="-14.282" style="fill:none;stroke:#000000;stroke-width:0.3;stroke-linecap:square;" x2="34.295"/>
  <line x1="45.776" y2="-1.6" y1="-15.612" style="fill:none;stroke:#000000;stroke-width:0.3;stroke-linecap:square;" x2="31.7"/>
  <line x1="44.415" y2="-1.6" y1="-16.848" style="fill:none;stroke:#000000;stroke-width:0.3;stroke-linecap:square;" x2="29.106"/>
  <line x1="42.71" y2="-1.6" y1="-17.74" style="fill:none;stroke:#000000;stroke-width:0.3;stroke-linecap:square;" x2="26.512"/>
  <line x1="40.724" y2="-1.6" y1="-18.351" style="fill:none;stroke:#000000;stroke-width:0.3;stroke-linecap:square;" x2="23.92"/>
  <line x1="38.989" y2="-1.6" y1="-19.212" style="fill:none;stroke:#000000;stroke-width:0.3;stroke-linecap:square;" x2="21.325"/>
  <line x1="37.534" y2="-1.6" y1="-20.354" style="fill:none;stroke:#000000;stroke-width:0.3;stroke-linecap:square;" x2="18.73"/>
  <line x1="36.36" y2="-1.6" y1="-21.778" style="fill:none;stroke:#000000;stroke-width:0.3;stroke-linecap:square;" x2="16.122"/>
  <line x1="39.652" y2="-1.6" y1="-27.673" style="fill:none;stroke:#000000;stroke-width:0.3;stroke-linecap:square;" x2="13.527"/>
  <line x1="37.729" y2="-1.6" y1="-28.347" style="fill:none;stroke:#000000;stroke-width:0.3;stroke-linecap:square;" x2="10.934"/>
  <line x1="36.337" y2="-1.6" y1="-29.552" style="fill:none;stroke:#000000;stroke-width:0.3;stroke-linecap:square;" x2="8.34"/>
  <line x1="5.816" y2="-30.131" y1="-1.608" style="fill:none;stroke:#000000;stroke-width:0.3;stroke-linecap:square;" x2="34.319"/>
  <line x1="52.543" y2="-41.561" y1="-1.6" style="fill:none;stroke:#000000;stroke-width:0.3;stroke-linecap:square;" x2="12.561"/>
  <line x1="10.968" y2="-1.6" y1="-40.592" style="fill:none;stroke:#000000;stroke-width:0.3;stroke-linecap:square;" x2="49.919"/>
  <line x1="18.718" y2="-1.6" y1="-30.217" style="fill:none;stroke:#000000;stroke-width:0.3;stroke-linecap:square;" x2="47.294"/>
  <line x1="18.312" y2="-1.6" y1="-27.999" style="fill:none;stroke:#000000;stroke-width:0.3;stroke-linecap:square;" x2="44.669"/>
  <line x1="18.437" y2="-1.6" y1="-25.311" style="fill:none;stroke:#000000;stroke-width:0.3;stroke-linecap:square;" x2="42.168"/>
  <line x1="17.687" y2="-1.6" y1="-23.499" style="fill:none;stroke:#000000;stroke-width:0.3;stroke-linecap:square;" x2="39.544"/>
  <line x1="36.918" y2="-22.561" y1="-1.6" style="fill:none;stroke:#000000;stroke-width:0.3;stroke-linecap:square;" x2="15.936"/>
  <line x1="13.905" y2="-1.6" y1="-22.03" style="fill:none;stroke:#000000;stroke-width:0.3;stroke-linecap:square;" x2="34.294"/>
  <line x1="11.718" y2="-1.6" y1="-21.655" style="fill:none;stroke:#000000;stroke-width:0.3;stroke-linecap:square;" x2="31.793"/>
  <line x1="9.499" y2="-1.6" y1="-21.249" style="fill:none;stroke:#000000;stroke-width:0.3;stroke-linecap:square;" x2="29.168"/>
  <line x1="14.53" y2="-1.6" y1="-13.592" style="fill:none;stroke:#000000;stroke-width:0.3;stroke-linecap:square;" x2="26.542"/>
  <line x1="23.918" y2="-11.686" y1="-1.6" style="fill:none;stroke:#000000;stroke-width:0.3;stroke-linecap:square;" x2="13.811"/>
  <line x1="12.53" y2="-1.6" y1="-10.467" style="fill:none;stroke:#000000;stroke-width:0.3;stroke-linecap:square;" x2="21.417"/>
  <line x1="10.811" y2="-1.6" y1="-9.561" style="fill:none;stroke:#000000;stroke-width:0.3;stroke-linecap:square;" x2="18.792"/>
  <line x1="16.23" y2="-8.811" y1="-1.6" style="fill:none;stroke:#000000;stroke-width:0.3;stroke-linecap:square;" x2="8.999"/>
  <line x1="7.249" y2="-1.6" y1="-7.936" style="fill:none;stroke:#000000;stroke-width:0.3;stroke-linecap:square;" x2="13.605"/>
  <line x1="10.983" y2="-6.811" y1="-1.6" style="fill:none;stroke:#000000;stroke-width:0.3;stroke-linecap:square;" x2="5.812"/>
  <line x1="4.718" y2="-1.6" y1="-5.28" style="fill:none;stroke:#000000;stroke-width:0.3;stroke-linecap:square;" x2="8.358"/>
 </g>
</svg>
