<?xml version="1.0" encoding="UTF-8" standalone="no"?>
<!-- Created with Inkscape (http://www.inkscape.org/) -->

<svg
   xmlns:dc="http://purl.org/dc/elements/1.1/"
   xmlns:cc="http://creativecommons.org/ns#"
   xmlns:rdf="http://www.w3.org/1999/02/22-rdf-syntax-ns#"
   xmlns:svg="http://www.w3.org/2000/svg"
   xmlns="http://www.w3.org/2000/svg"
   xmlns:sodipodi="http://sodipodi.sourceforge.net/DTD/sodipodi-0.dtd"
   xmlns:inkscape="http://www.inkscape.org/namespaces/inkscape"
   width="4.7750001mm"
   height="4.7750001mm"
   viewBox="0 0 4.7750001 4.7750001"
   version="1.1"
   id="svg34607"
   inkscape:version="0.92.2 (5c3e80d, 2017-08-06)"
   sodipodi:docname="23.14.svg">
  <defs
     id="defs34601" />
  <sodipodi:namedview
     id="base"
     pagecolor="#ffffff"
     bordercolor="#666666"
     borderopacity="1.0"
     inkscape:pageopacity="0.0"
     inkscape:pageshadow="2"
     inkscape:zoom="22.4"
     inkscape:cx="14.612639"
     inkscape:cy="6.0063411"
     inkscape:document-units="mm"
     inkscape:current-layer="layer1"
     showgrid="false"
     inkscape:window-width="1920"
     inkscape:window-height="1018"
     inkscape:window-x="-8"
     inkscape:window-y="-8"
     inkscape:window-maximized="1" />
  <metadata
     id="metadata34604">
    <rdf:RDF>
      <cc:Work
         rdf:about="">
        <dc:format>image/svg+xml</dc:format>
        <dc:type
           rdf:resource="http://purl.org/dc/dcmitype/StillImage" />
        <dc:title></dc:title>
      </cc:Work>
    </rdf:RDF>
  </metadata>
  <g
     inkscape:label="Layer 1"
     inkscape:groupmode="layer"
     id="layer1"
     transform="translate(-103.82337,-144.97091)">
    <g
       id="g34649"
       transform="translate(0,-0.92507863)">
      <path
         id="path34274"
         d="m 104.73526,149.64431 c 0.44786,0 0.81166,-0.3638 0.81166,-0.81029 0,-0.44786 -0.3638,-0.81166 -0.81166,-0.81166 -0.44787,0 -0.81029,0.3638 -0.81029,0.81166 0,0.44649 0.36242,0.81029 0.81029,0.81029 z"
         style="fill:none;stroke:#000000;stroke-width:0.20319998;stroke-linecap:butt;stroke-linejoin:miter;stroke-miterlimit:4;stroke-opacity:1"
         inkscape:connector-curvature="0" />
      <g
         transform="translate(0.47247024,-0.90950521)"
         id="g34641">
        <g
           style="fill:#000000;fill-opacity:1"
           transform="matrix(0.38863302,0,0,0.37431257,105.18323,149.70204)"
           id="use30690">
          <path
             style="stroke:none"
             d="M 4.203125,-3.5625 C 4.171875,-4.109375 4,-5.15625 2.234375,-5.15625 c -1.21875,0 -1.71875,0.765625 -1.71875,1.546875 0,0.875 0.734375,1.109375 1.0625,1.1875 l 1.03125,0.234375 c 0.828125,0.203125 1.078125,0.375 1.078125,0.890625 0,0.71875 -0.828125,0.84375 -1.328125,0.84375 -0.640625,0 -1.375,-0.265625 -1.375,-1.171875 H 0.34375 c 0,0.46875 0.078125,0.890625 0.515625,1.28125 0.21875,0.203125 0.578125,0.484375 1.515625,0.484375 0.859375,0 1.96875,-0.34375 1.96875,-1.53125 0,-0.796875 -0.5,-1.1875 -1.140625,-1.34375 L 1.765625,-3.0625 C 1.46875,-3.125 1.171875,-3.265625 1.171875,-3.703125 c 0,-0.75 0.71875,-0.875 1.140625,-0.875 0.578125,0 1.21875,0.25 1.25,1.015625 z m 0,0"
             id="path34629"
             inkscape:connector-curvature="0" />
        </g>
        <g
           style="fill:#000000;fill-opacity:1"
           transform="matrix(0.34919993,0,0,0.38551704,106.92641,149.6943)"
           id="use30692">
          <path
             style="stroke:none"
             d="m 1.015625,-3.453125 c 0,-0.296875 0.03125,-1.109375 0.921875,-1.109375 0.6875,0 0.84375,0.515625 0.84375,0.796875 0,0.40625 -0.09375,0.5 -0.5625,0.984375 -0.484375,0.5 -0.65625,0.703125 -0.65625,1.5 H 2.171875 C 2.15625,-1.96875 2.34375,-2.140625 2.78125,-2.5625 3.265625,-3.015625 3.4375,-3.25 3.4375,-3.71875 c 0,-0.890625 -0.6875,-1.375 -1.484375,-1.375 -0.359375,0 -0.734375,0.109375 -1.015625,0.328125 -0.5,0.390625 -0.53125,0.84375 -0.546875,1.3125 z M 2.21875,-0.71875 H 1.546875 V 0 H 2.21875 Z m 0,0"
             id="path34625"
             inkscape:connector-curvature="0" />
        </g>
      </g>
    </g>
  </g>
</svg>
