<?xml version="1.0" encoding="UTF-8" standalone="no"?>
<!-- Created with Inkscape (http://www.inkscape.org/) -->

<svg
   xmlns:dc="http://purl.org/dc/elements/1.1/"
   xmlns:cc="http://creativecommons.org/ns#"
   xmlns:rdf="http://www.w3.org/1999/02/22-rdf-syntax-ns#"
   xmlns:svg="http://www.w3.org/2000/svg"
   xmlns="http://www.w3.org/2000/svg"
   xmlns:sodipodi="http://sodipodi.sourceforge.net/DTD/sodipodi-0.dtd"
   xmlns:inkscape="http://www.inkscape.org/namespaces/inkscape"
   width="2.45522mm"
   height="2.45522mm"
   viewBox="0 0 2.4552199 2.4552199"
   version="1.1"
   id="svg22444"
   inkscape:version="0.92.2 (5c3e80d, 2017-08-06)"
   sodipodi:docname="18.69 diatreme.svg">
  <defs
     id="defs22438" />
  <sodipodi:namedview
     id="base"
     pagecolor="#ffffff"
     bordercolor="#666666"
     borderopacity="1.0"
     inkscape:pageopacity="0.0"
     inkscape:pageshadow="2"
     inkscape:zoom="42.931102"
     inkscape:cx="9.5457996"
     inkscape:cy="1.3911298"
     inkscape:document-units="mm"
     inkscape:current-layer="layer1"
     showgrid="false"
     inkscape:window-width="1920"
     inkscape:window-height="1018"
     inkscape:window-x="-8"
     inkscape:window-y="-8"
     inkscape:window-maximized="1"
     showguides="true"
     inkscape:guide-bbox="true" />
  <metadata
     id="metadata22441">
    <rdf:RDF>
      <cc:Work
         rdf:about="">
        <dc:format>image/svg+xml</dc:format>
        <dc:type
           rdf:resource="http://purl.org/dc/dcmitype/StillImage" />
        <dc:title></dc:title>
      </cc:Work>
    </rdf:RDF>
  </metadata>
  <g
     inkscape:label="Layer 1"
     inkscape:groupmode="layer"
     id="layer1"
     transform="translate(5.9030405,-147.29222)">
    <g
       id="g22492">
      <path
         style="fill:#eb172b;fill-opacity:1;fill-rule:nonzero;stroke:none;stroke-width:0.35277775"
         d="m -5.215399,149.74744 c 0.3803367,0 0.6876415,-0.30868 0.6876415,-0.68764 0,-0.38034 -0.3073048,-0.68764 -0.6876415,-0.68764 -0.3789609,0 -0.6876415,0.3073 -0.6876415,0.68764 0,0.37896 0.3086806,0.68764 0.6876415,0.68764"
         id="path10769"
         inkscape:connector-curvature="0" />
      <g
         transform="matrix(0.22382738,0,0,0.21583304,-4.492836,148.37813)"
         style="fill:#eb172b;fill-opacity:1"
         id="use10771">
        <path
           style="stroke:none"
           d="m 0.5625,0 h 2.015625 c 1.65625,0 2.140625,-1.453125 2.140625,-2.578125 0,-1.453125 -0.8125,-2.453125 -2.109375,-2.453125 H 0.5625 Z M 1.25,-4.4375 h 1.265625 c 0.921875,0 1.5,0.625 1.5,1.890625 0,1.265625 -0.578125,1.96875 -1.453125,1.96875 H 1.25 Z m 0,0"
           id="path22456"
           inkscape:connector-curvature="0" />
      </g>
    </g>
  </g>
</svg>
