<?xml version="1.0" encoding="UTF-8" standalone="no"?>
<!-- Created with Inkscape (http://www.inkscape.org/) -->

<svg
   xmlns:dc="http://purl.org/dc/elements/1.1/"
   xmlns:cc="http://creativecommons.org/ns#"
   xmlns:rdf="http://www.w3.org/1999/02/22-rdf-syntax-ns#"
   xmlns:svg="http://www.w3.org/2000/svg"
   xmlns="http://www.w3.org/2000/svg"
   xmlns:sodipodi="http://sodipodi.sourceforge.net/DTD/sodipodi-0.dtd"
   xmlns:inkscape="http://www.inkscape.org/namespaces/inkscape"
   width="6.1279998mm"
   height="6.1279998mm"
   viewBox="0 0 6.1279997 6.1279998"
   version="1.1"
   id="svg28038"
   inkscape:version="0.92.2 (5c3e80d, 2017-08-06)"
   sodipodi:docname="17.63.svg">
  <defs
     id="defs28032" />
  <sodipodi:namedview
     id="base"
     pagecolor="#ffffff"
     bordercolor="#666666"
     borderopacity="1.0"
     inkscape:pageopacity="0.0"
     inkscape:pageshadow="2"
     inkscape:zoom="12.791939"
     inkscape:cx="19.802112"
     inkscape:cy="4.0336322"
     inkscape:document-units="mm"
     inkscape:current-layer="layer1"
     showgrid="false"
     inkscape:window-width="1920"
     inkscape:window-height="1018"
     inkscape:window-x="-8"
     inkscape:window-y="-8"
     inkscape:window-maximized="1" />
  <metadata
     id="metadata28035">
    <rdf:RDF>
      <cc:Work
         rdf:about="">
        <dc:format>image/svg+xml</dc:format>
        <dc:type
           rdf:resource="http://purl.org/dc/dcmitype/StillImage" />
        <dc:title></dc:title>
      </cc:Work>
    </rdf:RDF>
  </metadata>
  <g
     inkscape:label="Layer 1"
     inkscape:groupmode="layer"
     id="layer1"
     transform="translate(-104.57205,-145.57139)">
    <g
       id="g28050"
       transform="rotate(180,106.73469,148.73434)">
      <path
         id="path27577"
         d="m 105.66119,145.7874 c 0.0193,0.16123 0.12402,0.39412 0.42168,0.49609 0.48782,0.16537 0.34451,0.70005 -0.23289,0.76757 -0.30455,0.0358 -0.46578,0.15021 -0.46578,0.45475 0,0.19844 0.0468,0.30593 0.44235,0.41066 0.74828,0.113 0.61185,0.76343 0.01,0.83371 -0.30316,0.0345 -0.46439,0.14883 -0.46439,0.45338 0,0.19843 0.15158,0.32384 0.53329,0.42719 0.44511,0.11989 0.4961,0.67937 0.12954,0.93155 -0.30868,0.21222 -0.19844,0.84887 -0.19844,1.10381"
         style="fill:none;stroke:#000000;stroke-width:0.30479997;stroke-linecap:butt;stroke-linejoin:miter;stroke-miterlimit:4;stroke-opacity:1"
         inkscape:connector-curvature="0" />
      <path
         id="path27575"
         d="m 104.68001,150.52096 1.15204,1.16031 1.1548,-1.15893"
         style="fill:none;stroke:#000000;stroke-width:0.30479997;stroke-linecap:butt;stroke-linejoin:miter;stroke-miterlimit:4;stroke-opacity:1"
         inkscape:connector-curvature="0" />
    </g>
  </g>
</svg>
