<?xml version="1.0" encoding="UTF-8" standalone="no"?>
<!-- Created with Inkscape (http://www.inkscape.org/) -->

<svg
   xmlns:dc="http://purl.org/dc/elements/1.1/"
   xmlns:cc="http://creativecommons.org/ns#"
   xmlns:rdf="http://www.w3.org/1999/02/22-rdf-syntax-ns#"
   xmlns:svg="http://www.w3.org/2000/svg"
   xmlns="http://www.w3.org/2000/svg"
   xmlns:sodipodi="http://sodipodi.sourceforge.net/DTD/sodipodi-0.dtd"
   xmlns:inkscape="http://www.inkscape.org/namespaces/inkscape"
   width="2.2854769mm"
   height="2.2610149mm"
   viewBox="0 0 2.2854769 2.2610149"
   version="1.1"
   id="svg411"
   inkscape:version="0.92.2 (5c3e80d, 2017-08-06)"
   sodipodi:docname="8.2.1 layering massive.svg">
  <defs
     id="defs405" />
  <sodipodi:namedview
     id="base"
     pagecolor="#ffffff"
     bordercolor="#666666"
     borderopacity="1.0"
     inkscape:pageopacity="0.0"
     inkscape:pageshadow="2"
     inkscape:zoom="15.839192"
     inkscape:cx="6.8009683"
     inkscape:cy="3.6757599"
     inkscape:document-units="mm"
     inkscape:current-layer="layer1"
     showgrid="false"
     inkscape:window-width="1920"
     inkscape:window-height="1018"
     inkscape:window-x="-8"
     inkscape:window-y="-8"
     inkscape:window-maximized="1" />
  <metadata
     id="metadata408">
    <rdf:RDF>
      <cc:Work
         rdf:about="">
        <dc:format>image/svg+xml</dc:format>
        <dc:type
           rdf:resource="http://purl.org/dc/dcmitype/StillImage" />
        <dc:title></dc:title>
      </cc:Work>
    </rdf:RDF>
  </metadata>
  <g
     inkscape:label="Layer 1"
     inkscape:groupmode="layer"
     id="layer1"
     transform="translate(-1.7277154,-147.52938)">
    <g
       id="g432">
      <path
         style="fill:#000000;fill-opacity:1;fill-rule:nonzero;stroke:none;stroke-width:0.35277778"
         d="m 3.0509769,148.82958 c 0.097841,-0.0978 0.097841,-0.25631 0,-0.35416 -0.097841,-0.0978 -0.2563153,-0.0978 -0.3541558,0 -0.097841,0.0978 -0.097841,0.25632 0,0.35416 0.09784,0.0965 0.256315,0.0965 0.3541558,0"
         id="path997"
         inkscape:connector-curvature="0" />
      <path
         style="fill:#000000;fill-opacity:1;fill-rule:nonzero;stroke:none;stroke-width:0.35277778"
         d="m 2.1773005,147.95591 c 0.097841,-0.0978 0.097841,-0.25632 0,-0.35416 -0.09784,-0.0965 -0.254937,-0.0965 -0.3527778,0 -0.097841,0.0978 -0.097841,0.25631 0,0.35416 0.097841,0.0978 0.2549373,0.0978 0.3527778,0"
         id="path999"
         inkscape:connector-curvature="0" />
      <path
         style="fill:#000000;fill-opacity:1;fill-rule:nonzero;stroke:none;stroke-width:0.35277778"
         d="m 3.9398115,149.71704 c 0.097841,-0.0965 0.097841,-0.25494 0,-0.35278 -0.097841,-0.0978 -0.2563149,-0.0978 -0.3541557,0 -0.097841,0.0978 -0.097841,0.25632 0,0.35278 0.097841,0.0978 0.2563149,0.0978 0.3541557,0"
         id="path1001"
         inkscape:connector-curvature="0" />
      <path
         style="fill:#000000;fill-opacity:1;fill-rule:nonzero;stroke:none;stroke-width:0.35277778"
         d="m 3.5622292,147.95591 c 0.09784,0.0978 0.2563149,0.0978 0.3527778,0 0.09784,-0.0978 0.09784,-0.25632 0,-0.35416 -0.096463,-0.0965 -0.2549374,-0.0965 -0.3527778,0 -0.097841,0.0978 -0.097841,0.25631 0,0.35416"
         id="path1003"
         inkscape:connector-curvature="0" />
      <path
         style="fill:#000000;fill-opacity:1;fill-rule:nonzero;stroke:none;stroke-width:0.35277778"
         d="m 1.8010961,149.71704 c 0.096463,0.0978 0.254937,0.0978 0.3527778,0 0.097841,-0.0965 0.097841,-0.25494 0,-0.35278 -0.097841,-0.0978 -0.256315,-0.0978 -0.3527778,0 -0.097841,0.0978 -0.097841,0.25632 0,0.35278"
         id="path1005"
         inkscape:connector-curvature="0" />
    </g>
  </g>
</svg>
