<?xml version="1.0" encoding="UTF-8" standalone="no"?>
<!-- Created with Inkscape (http://www.inkscape.org/) -->

<svg
   xmlns:dc="http://purl.org/dc/elements/1.1/"
   xmlns:cc="http://creativecommons.org/ns#"
   xmlns:rdf="http://www.w3.org/1999/02/22-rdf-syntax-ns#"
   xmlns:svg="http://www.w3.org/2000/svg"
   xmlns="http://www.w3.org/2000/svg"
   xmlns:sodipodi="http://sodipodi.sourceforge.net/DTD/sodipodi-0.dtd"
   xmlns:inkscape="http://www.inkscape.org/namespaces/inkscape"
   width="5.1670198mm"
   height="5.1670198mm"
   viewBox="0 0 5.1670199 5.1670198"
   version="1.1"
   id="svg615"
   inkscape:version="0.92.2 (5c3e80d, 2017-08-06)"
   sodipodi:docname="8.2.9 layering inclined crinkled.svg">
  <defs
     id="defs609" />
  <sodipodi:namedview
     id="base"
     pagecolor="#ffffff"
     bordercolor="#666666"
     borderopacity="1.0"
     inkscape:pageopacity="0.0"
     inkscape:pageshadow="2"
     inkscape:zoom="16.549473"
     inkscape:cx="6.5598582"
     inkscape:cy="4.4440657"
     inkscape:document-units="mm"
     inkscape:current-layer="layer1"
     showgrid="false"
     inkscape:window-width="1920"
     inkscape:window-height="1018"
     inkscape:window-x="-8"
     inkscape:window-y="-8"
     inkscape:window-maximized="1" />
  <metadata
     id="metadata612">
    <rdf:RDF>
      <cc:Work
         rdf:about="">
        <dc:format>image/svg+xml</dc:format>
        <dc:type
           rdf:resource="http://purl.org/dc/dcmitype/StillImage" />
        <dc:title></dc:title>
      </cc:Work>
    </rdf:RDF>
  </metadata>
  <g
     inkscape:label="Layer 1"
     inkscape:groupmode="layer"
     id="layer1"
     transform="translate(-104.30036,-145.97575)">
    <g
       id="g636"
       transform="rotate(90,105.9123,149.47157)">
      <path
         inkscape:connector-curvature="0"
         id="path1479"
         d="m 105.51542,148.96444 c 0.10198,0.113 0.29353,0.19293 0.49748,0.19293 0.21359,0 0.39274,-0.0785 0.49196,-0.19982 0.10059,-0.11988 0.27974,-0.19981 0.49195,-0.19981 0.21222,0 0.4079,0.0813 0.5085,0.20257"
         style="fill:none;stroke:#000000;stroke-width:0.2032;stroke-linecap:butt;stroke-linejoin:miter;stroke-miterlimit:4;stroke-opacity:1" />
      <path
         inkscape:connector-curvature="0"
         id="path1477"
         d="m 102.49476,148.96031 c 0.0992,-0.11989 0.28526,-0.20257 0.49748,-0.20257 0.21221,0 0.40376,0.0854 0.50298,0.2067 0.10197,0.113 0.29628,0.19293 0.50023,0.19293 0.21359,0 0.39549,-0.0785 0.49471,-0.19982"
         style="fill:none;stroke:#000000;stroke-width:0.2032;stroke-linecap:butt;stroke-linejoin:miter;stroke-miterlimit:4;stroke-opacity:1" />
      <path
         inkscape:connector-curvature="0"
         id="path1395"
         d="m 105.51542,148.96444 c 0.10198,0.113 0.29353,0.19293 0.49748,0.19293 0.21359,0 0.39274,-0.0785 0.49196,-0.19982 0.10059,-0.11988 0.27974,-0.19981 0.49195,-0.19981 0.21222,0 0.4079,0.0813 0.5085,0.20257"
         style="fill:none;stroke:#000000;stroke-width:0.2032;stroke-linecap:butt;stroke-linejoin:miter;stroke-miterlimit:4;stroke-opacity:1" />
      <path
         inkscape:connector-curvature="0"
         id="path1393"
         d="m 102.49476,148.96031 c 0.0992,-0.11989 0.28526,-0.20257 0.49748,-0.20257 0.21221,0 0.40376,0.0854 0.50298,0.2067 0.10197,0.113 0.29628,0.19293 0.50023,0.19293 0.21359,0 0.39549,-0.0785 0.49471,-0.19982"
         style="fill:none;stroke:#000000;stroke-width:0.2032;stroke-linecap:butt;stroke-linejoin:miter;stroke-miterlimit:4;stroke-opacity:1" />
      <path
         inkscape:connector-curvature="0"
         id="path1381"
         d="m 105.51818,148.95755 -0.51814,-0.005 -0.51814,0.005 0.51814,-0.99632 z"
         style="fill:none;stroke:#000000;stroke-width:0.2032;stroke-linecap:butt;stroke-linejoin:miter;stroke-miterlimit:4;stroke-opacity:1" />
    </g>
  </g>
</svg>
