<?xml version="1.0" encoding="UTF-8" standalone="no"?>
<!-- Created with Inkscape (http://www.inkscape.org/) -->

<svg
   xmlns:dc="http://purl.org/dc/elements/1.1/"
   xmlns:cc="http://creativecommons.org/ns#"
   xmlns:rdf="http://www.w3.org/1999/02/22-rdf-syntax-ns#"
   xmlns:svg="http://www.w3.org/2000/svg"
   xmlns="http://www.w3.org/2000/svg"
   xmlns:sodipodi="http://sodipodi.sourceforge.net/DTD/sodipodi-0.dtd"
   xmlns:inkscape="http://www.inkscape.org/namespaces/inkscape"
   width="5.1673002mm"
   height="5.1673002mm"
   viewBox="0 0 5.1673001 5.1673003"
   version="1.1"
   id="svg1028"
   inkscape:version="0.92.2 (5c3e80d, 2017-08-06)"
   sodipodi:docname="8.3.14.svg">
  <defs
     id="defs1022" />
  <sodipodi:namedview
     id="base"
     pagecolor="#ffffff"
     bordercolor="#666666"
     borderopacity="1.0"
     inkscape:pageopacity="0.0"
     inkscape:pageshadow="2"
     inkscape:zoom="19.226553"
     inkscape:cx="11.155164"
     inkscape:cy="8.1939505"
     inkscape:document-units="mm"
     inkscape:current-layer="layer1"
     showgrid="false"
     inkscape:window-width="1920"
     inkscape:window-height="1018"
     inkscape:window-x="-8"
     inkscape:window-y="-8"
     inkscape:window-maximized="1" />
  <metadata
     id="metadata1025">
    <rdf:RDF>
      <cc:Work
         rdf:about="">
        <dc:format>image/svg+xml</dc:format>
        <dc:type
           rdf:resource="http://purl.org/dc/dcmitype/StillImage" />
        <dc:title></dc:title>
      </cc:Work>
    </rdf:RDF>
  </metadata>
  <g
     inkscape:label="Layer 1"
     inkscape:groupmode="layer"
     id="layer1"
     transform="translate(-105.13386,-146.30892)">
    <g
       id="g1046"
       transform="rotate(90,106.74583,149.80502)">
      <path
         id="path639"
         d="m 103.32828,149.29372 c 0.0992,-0.12126 0.28525,-0.20256 0.49747,-0.20256 0.21222,0 0.40239,0.0868 0.50161,0.2067 0.10335,0.113 0.29765,0.19293 0.5016,0.19293 0.2136,0 0.3955,-0.0786 0.49472,-0.19982 0.0992,-0.12127 0.30179,-0.19981 0.51401,-0.19981 0.21221,0 0.41065,0.0868 0.50987,0.2067 0.10197,0.113 0.2949,0.19293 0.49885,0.19293 0.2136,0 0.39274,-0.0786 0.49196,-0.19982 0.1006,-0.12127 0.27974,-0.19981 0.49196,-0.19981 0.21222,0 0.4079,0.0813 0.5085,0.20256"
         style="fill:none;stroke:#000000;stroke-width:0.2032;stroke-linecap:butt;stroke-linejoin:miter;stroke-miterlimit:4;stroke-opacity:1"
         inkscape:connector-curvature="0" />
      <path
         id="path625"
         d="m 105.31541,149.29097 0.51814,-0.99632 0.51677,0.99632"
         style="fill:none;stroke:#000000;stroke-width:0.2032;stroke-linecap:butt;stroke-linejoin:miter;stroke-miterlimit:4;stroke-opacity:1"
         inkscape:connector-curvature="0" />
      <path
         id="path342"
         d="m 103.32828,149.29379 c 0.0992,-0.12127 0.28525,-0.20257 0.49747,-0.20257 0.21222,0 0.40239,0.0868 0.50161,0.20671 0.10335,0.113 0.29765,0.19292 0.5016,0.19292 0.2136,0 0.3955,-0.0786 0.49472,-0.19981 0.0992,-0.12127 0.30179,-0.19982 0.51401,-0.19982 0.21221,0 0.41065,0.0868 0.50987,0.20671 0.10197,0.113 0.2949,0.19292 0.49885,0.19292 0.2136,0 0.39274,-0.0786 0.49196,-0.19981 0.1006,-0.12127 0.27974,-0.19982 0.49196,-0.19982 0.21222,0 0.4079,0.0813 0.5085,0.20257"
         style="fill:none;stroke:#000000;stroke-width:0.2032;stroke-linecap:butt;stroke-linejoin:miter;stroke-miterlimit:4;stroke-opacity:1"
         inkscape:connector-curvature="0" />
      <path
         id="path346"
         d="m 105.31541,149.29097 0.51814,-0.99632 0.51677,0.99632"
         style="fill:#000000;fill-opacity:1;fill-rule:nonzero;stroke:#000000;stroke-width:0.2032;stroke-linecap:butt;stroke-linejoin:miter;stroke-miterlimit:4;stroke-opacity:1"
         inkscape:connector-curvature="0" />
    </g>
  </g>
</svg>
