<?xml version="1.0" encoding="UTF-8" standalone="no"?>
<!-- Created with Inkscape (http://www.inkscape.org/) -->

<svg
   xmlns:dc="http://purl.org/dc/elements/1.1/"
   xmlns:cc="http://creativecommons.org/ns#"
   xmlns:rdf="http://www.w3.org/1999/02/22-rdf-syntax-ns#"
   xmlns:svg="http://www.w3.org/2000/svg"
   xmlns="http://www.w3.org/2000/svg"
   xmlns:sodipodi="http://sodipodi.sourceforge.net/DTD/sodipodi-0.dtd"
   xmlns:inkscape="http://www.inkscape.org/namespaces/inkscape"
   width="3.8025999mm"
   height="3.8025999mm"
   viewBox="0 0 3.8025999 3.8025998"
   version="1.1"
   id="svg2258"
   inkscape:version="0.92.2 (5c3e80d, 2017-08-06)"
   sodipodi:docname="8.3.22.svg">
  <defs
     id="defs2252" />
  <sodipodi:namedview
     id="base"
     pagecolor="#ffffff"
     bordercolor="#666666"
     borderopacity="1.0"
     inkscape:pageopacity="0.0"
     inkscape:pageshadow="2"
     inkscape:zoom="40.182414"
     inkscape:cx="6.1912359"
     inkscape:cy="7.4787718"
     inkscape:document-units="mm"
     inkscape:current-layer="layer1"
     showgrid="false"
     inkscape:window-width="1920"
     inkscape:window-height="1018"
     inkscape:window-x="-8"
     inkscape:window-y="-8"
     inkscape:window-maximized="1" />
  <metadata
     id="metadata2255">
    <rdf:RDF>
      <cc:Work
         rdf:about="">
        <dc:format>image/svg+xml</dc:format>
        <dc:type
           rdf:resource="http://purl.org/dc/dcmitype/StillImage" />
        <dc:title></dc:title>
      </cc:Work>
    </rdf:RDF>
  </metadata>
  <g
     inkscape:label="Layer 1"
     inkscape:groupmode="layer"
     id="layer1"
     transform="translate(6.2651705,-146.93205)">
    <path
       style="fill:none;stroke:#211e1e;stroke-width:0.2032;stroke-linecap:butt;stroke-linejoin:miter;stroke-miterlimit:4;stroke-opacity:1"
       d="m -5.6137505,148.83609 c 0,0.69039 0.55948,1.24988 1.24988,1.24988 0.69039,0 1.24988,-0.55949 1.24988,-1.24988 0,-0.6904 -0.55949,-1.24988 -1.24988,-1.24988 -0.6904,0 -1.24988,0.55948 -1.24988,1.24988 z"
       id="path1478"
       inkscape:connector-curvature="0" />
    <path
       style="fill:none;stroke:#211e1e;stroke-width:0.2032;stroke-linecap:butt;stroke-linejoin:miter;stroke-miterlimit:4;stroke-opacity:1"
       d="M -5.6137505,148.83609"
       id="path1129"
       inkscape:connector-curvature="0" />
    <path
       style="fill:#000000;fill-opacity:1;fill-rule:nonzero;stroke:#211e1e;stroke-width:0.2032;stroke-linecap:butt;stroke-linejoin:miter;stroke-miterlimit:4;stroke-opacity:1"
       d="m -4.3569805,149.44104 -0.99632,-0.60358 0.99632,-0.60358 0.99632,0.60358 z"
       id="path1474"
       inkscape:connector-curvature="0" />
    <path
       style="fill:#000000;fill-opacity:1;fill-rule:nonzero;stroke:#211e1e;stroke-width:0.2032;stroke-linecap:butt;stroke-linejoin:miter;stroke-miterlimit:4;stroke-opacity:1"
       d="M -4.3569805,149.44104"
       id="path1131"
       inkscape:connector-curvature="0" />
    <path
       style="clip-rule:nonzero;fill:none;stroke:#000000;stroke-width:0.2032;stroke-linecap:butt;stroke-linejoin:miter;stroke-miterlimit:4;stroke-opacity:1"
       d="m -4.3597405,147.03361 v 3.59944"
       id="path1659"
       inkscape:connector-curvature="0" />
    <path
       style="clip-rule:nonzero;fill:none;stroke:#000000;stroke-width:0.2032;stroke-linecap:butt;stroke-linejoin:miter;stroke-miterlimit:4;stroke-opacity:1"
       d="m -4.8558305,150.63305 h 0.99907"
       id="path1657"
       inkscape:connector-curvature="0" />
    <path
       style="clip-rule:nonzero;fill:none;stroke:#000000;stroke-width:0.2032;stroke-linecap:butt;stroke-linejoin:miter;stroke-miterlimit:4;stroke-opacity:1"
       d="m -4.8558305,149.63259 h 0.99907"
       id="path1655"
       inkscape:connector-curvature="0" />
    <path
       style="clip-rule:nonzero;fill:none;stroke:#000000;stroke-width:0.2032;stroke-linecap:butt;stroke-linejoin:miter;stroke-miterlimit:4;stroke-opacity:1"
       d="m -4.8558305,147.03361 h 0.99907"
       id="path1653"
       inkscape:connector-curvature="0" />
    <path
       style="clip-rule:nonzero;fill:none;stroke:#000000;stroke-width:0.2032;stroke-linecap:butt;stroke-linejoin:miter;stroke-miterlimit:4;stroke-opacity:1"
       d="m -4.8558305,148.03269 h 0.99907"
       id="path1651"
       inkscape:connector-curvature="0" />
    <path
       style="fill:#000000;stroke-width:0.02488651"
       d="M 6.554579,12.255947 C 6.3407513,12.231866 5.8413831,12.117887 5.5936387,12.036618 5.2435741,11.921782 4.7243388,11.670445 4.405149,11.461325 3.1364374,10.630119 2.3126207,9.3048478 2.1259615,7.7948037 c -0.03353,-0.2712547 -0.03353,-0.9246032 0,-1.195858 C 2.3517616,4.7722586 3.5123164,3.2269464 5.2002992,2.5053768 5.6364614,2.3189285 6.1823044,2.1765736 6.6354601,2.1310894 L 6.803444,2.1142285 V 2.4875579 2.8608872 L 6.6603466,2.8780261 C 4.9980699,3.0771178 3.5826674,4.240775 3.0568987,5.84056 2.9342701,6.2136884 2.8408503,6.7228773 2.8515448,6.9598494 l 0.00739,0.1636965 1.1572227,-0.7012658 C 4.6526275,6.0365838 5.5401426,5.499035 5.9884109,5.227727 L 6.803444,4.7344395 6.8029762,5.1755104 6.8025083,5.6165814 5.5068298,6.3999741 C 4.7942066,6.8308402 4.2073846,7.1894618 4.2027807,7.196911 c -0.0046,0.00745 0.574475,0.3660204 1.2868421,0.7968247 0.7123671,0.4308042 1.2996812,0.7949249 1.3051423,0.8091567 0.00546,0.014232 0.00685,0.2134091 0.00308,0.4426158 L 6.7910008,9.662248 5.4222428,8.8326769 C 4.6694259,8.3764126 3.7802558,7.8375861 3.4463091,7.6352844 l -0.6071758,-0.3678209 0.01374,0.257122 c 0.050821,0.9510001 0.4951677,1.9458315 1.1936353,2.6723855 0.713,0.741671 1.6211505,1.199858 2.6138375,1.318752 l 0.1430974,0.01714 v 0.37043 0.37043 l -0.080881,-0.004 c -0.044485,-0.0022 -0.1200774,-0.0084 -0.1679839,-0.01379 z"
       id="path2302"
       inkscape:connector-curvature="0"
       transform="matrix(0.26458333,0,0,0.26458333,-6.2651705,146.93205)" />
    <path
       style="fill:#000000;stroke-width:0.02488651"
       d="m 7.5998123,11.905204 v -0.373406 l 0.1306542,-0.01673 c 0.07186,-0.0092 0.259262,-0.045 0.4164494,-0.07955 1.5889147,-0.349256 2.8720721,-1.6066972 3.2597891,-3.1944586 0.0723,-0.2960845 0.148205,-0.8801326 0.118274,-0.9100638 -0.01317,-0.013168 -1.477267,0.8631412 -3.4834312,2.0849439 L 7.5998123,9.6849681 7.6000288,9.2435113 7.6002453,8.8020545 8.9183201,8.0056862 C 10.077456,7.3053473 10.231227,7.2054048 10.193537,7.1768665 10.169966,7.1590181 9.5767343,6.7968714 8.8752459,6.372096 L 7.5998123,5.5997773 V 5.1664437 c 0,-0.2383334 0.00501,-0.4333333 0.011124,-0.4333333 0.00612,0 0.8880339,0.5314043 1.9598126,1.1808986 C 11.79441,7.2615401 11.559079,7.1644205 11.507347,6.7132328 11.337543,5.2322752 10.457565,3.9724946 9.1278155,3.3066873 8.6983567,3.0916566 8.2671754,2.9558576 7.805126,2.8901111 L 7.5998123,2.8608963 V 2.4872471 2.113598 L 7.755353,2.130551 c 0.2721358,0.029661 0.7566987,0.1362269 1.032938,0.2271648 0.3170217,0.1043635 0.8844099,0.3772127 1.1632964,0.5594134 0.9688346,0.6329539 1.7123986,1.5953172 2.0664876,2.6745656 0.545746,1.663409 0.218627,3.4591871 -0.877267,4.8159192 -0.193411,0.239445 -0.637268,0.667746 -0.883352,0.852392 -0.7169389,0.537946 -1.6451279,0.909599 -2.502103,1.001859 l -0.1555407,0.01674 z"
       id="path2304"
       inkscape:connector-curvature="0"
       transform="matrix(0.26458333,0,0,0.26458333,-6.2651705,146.93205)" />
  </g>
</svg>
