<?xml version="1.0"?>
<!-- Converted with SVG Converter - Version 0.9.5 (Compiled Fri Feb 21 09:53:38 2020) - Copyright (C) 2011 Nokia -->
<svg xmlns="http://www.w3.org/2000/svg" xml:space="preserve" version="1.1" viewBox="1.888 -55.518 54.125 54.125" xmlns:xlink="http://www.w3.org/1999/xlink" width="54.125" height="54.125" x="0px" y="0px" baseProfile="tiny">
 <g>
  <rect width="54.125" height="54.125" x="1.888" y="-55.518" style="fill:none;"/>
  <line y1="-29.17" y2="-29.17" x1="27.105" x2="27.105" style="fill:none;stroke:#000000;stroke-width:0.7;stroke-linecap:round;"/>
  <line y1="-43.255" y2="-43.255" x1="2.72" x2="2.72" style="fill:none;stroke:#000000;stroke-width:0.7;stroke-linecap:round;"/>
  <line y1="-41.825" y2="-41.825" x1="5.25" x2="5.25" style="fill:none;stroke:#000000;stroke-width:0.7;stroke-linecap:round;"/>
  <line y1="-43.585" y2="-43.585" x1="7.945" x2="7.945" style="fill:none;stroke:#000000;stroke-width:0.7;stroke-linecap:round;"/>
  <line y1="-40.505" y2="-40.505" x1="7.945" x2="7.945" style="fill:none;stroke:#000000;stroke-width:0.7;stroke-linecap:round;"/>
  <line y1="-42.595" y2="-42.595" x1="11.3" x2="11.3" style="fill:none;stroke:#000000;stroke-width:0.7;stroke-linecap:round;"/>
  <line y1="-43.64" y2="-43.64" x1="14.27" x2="14.27" style="fill:none;stroke:#000000;stroke-width:0.7;stroke-linecap:round;"/>
  <line y1="-39.075" y2="-39.075" x1="11.355" x2="11.355" style="fill:none;stroke:#000000;stroke-width:0.7;stroke-linecap:round;"/>
  <line y1="-37.067" y2="-37.067" x1="14.733" x2="14.733" style="fill:none;stroke:#000000;stroke-width:0.7;stroke-linecap:round;"/>
  <line y1="-40.233" y2="-40.233" x1="14.567" x2="14.567" style="fill:none;stroke:#000000;stroke-width:0.7;stroke-linecap:round;"/>
  <line y1="-42.375" y2="-42.375" x1="17.13" x2="17.13" style="fill:none;stroke:#000000;stroke-width:0.7;stroke-linecap:round;"/>
  <line y1="-44.4" y2="-44.4" x1="20.212" x2="20.212" style="fill:none;stroke:#000000;stroke-width:0.7;stroke-linecap:round;"/>
  <line y1="-38.415" y2="-38.415" x1="6.075" x2="6.075" style="fill:none;stroke:#000000;stroke-width:0.7;stroke-linecap:round;"/>
  <line y1="-38.91" y2="-38.91" x1="3.05" x2="3.05" style="fill:none;stroke:#000000;stroke-width:0.7;stroke-linecap:round;"/>
  <line y1="-35.94" y2="-35.94" x1="4.535" x2="4.535" style="fill:none;stroke:#000000;stroke-width:0.7;stroke-linecap:round;"/>
  <line y1="-35.28" y2="-35.28" x1="7.67" x2="7.67" style="fill:none;stroke:#000000;stroke-width:0.7;stroke-linecap:round;"/>
  <line y1="-35.39" y2="-35.39" x1="10.915" x2="10.915" style="fill:none;stroke:#000000;stroke-width:0.7;stroke-linecap:round;"/>
  <line y1="-37.535" y2="-37.535" x1="18.12" x2="18.12" style="fill:none;stroke:#000000;stroke-width:0.7;stroke-linecap:round;"/>
  <line y1="-34.567" y2="-34.567" x1="16.733" x2="16.733" style="fill:none;stroke:#000000;stroke-width:0.7;stroke-linecap:round;"/>
  <line y1="-33.245" y2="-33.245" x1="13.995" x2="13.995" style="fill:none;stroke:#000000;stroke-width:0.7;stroke-linecap:round;"/>
  <line y1="-34.455" y2="-34.455" x1="19.66" x2="19.66" style="fill:none;stroke:#000000;stroke-width:0.7;stroke-linecap:round;"/>
  <line y1="-37.315" y2="-37.315" x1="21.53" x2="21.53" style="fill:none;stroke:#000000;stroke-width:0.7;stroke-linecap:round;"/>
  <line y1="-41.66" y2="-41.66" x1="20.485" x2="20.485" style="fill:none;stroke:#000000;stroke-width:0.7;stroke-linecap:round;"/>
  <line y1="-46.088" y2="-46.088" x1="11.275" x2="11.275" style="fill:none;stroke:#000000;stroke-width:0.7;stroke-linecap:round;"/>
  <line y1="-43.2" y2="-43.2" x1="24.83" x2="24.83" style="fill:none;stroke:#000000;stroke-width:0.7;stroke-linecap:round;"/>
  <line y1="-40.45" y2="-40.45" x1="23.455" x2="23.455" style="fill:none;stroke:#000000;stroke-width:0.7;stroke-linecap:round;"/>
  <line y1="-37.315" y2="-37.315" x1="24.5" x2="24.5" style="fill:none;stroke:#000000;stroke-width:0.7;stroke-linecap:round;"/>
  <line y1="-34.345" y2="-34.345" x1="22.96" x2="22.96" style="fill:none;stroke:#000000;stroke-width:0.7;stroke-linecap:round;"/>
  <line y1="-40.065" y2="-40.065" x1="26.865" x2="26.865" style="fill:none;stroke:#000000;stroke-width:0.7;stroke-linecap:round;"/>
  <line y1="-42.65" y2="-42.65" x1="28.845" x2="28.845" style="fill:none;stroke:#000000;stroke-width:0.7;stroke-linecap:round;"/>
  <line y1="-37.37" y2="-37.37" x1="28.02" x2="28.02" style="fill:none;stroke:#000000;stroke-width:0.7;stroke-linecap:round;"/>
  <line y1="-34.18" y2="-34.18" x1="26.205" x2="26.205" style="fill:none;stroke:#000000;stroke-width:0.7;stroke-linecap:round;"/>
  <line y1="-39.13" y2="-39.13" x1="30.55" x2="30.55" style="fill:none;stroke:#000000;stroke-width:0.7;stroke-linecap:round;"/>
  <line y1="-33.135" y2="-33.135" x1="2.94" x2="2.94" style="fill:none;stroke:#000000;stroke-width:0.7;stroke-linecap:round;"/>
  <line y1="-32.64" y2="-32.64" x1="6.13" x2="6.13" style="fill:none;stroke:#000000;stroke-width:0.7;stroke-linecap:round;"/>
  <line y1="-32.42" y2="-32.42" x1="9.375" x2="9.375" style="fill:none;stroke:#000000;stroke-width:0.7;stroke-linecap:round;"/>
  <line y1="-42.045" y2="-42.045" x1="32.42" x2="32.42" style="fill:none;stroke:#000000;stroke-width:0.7;stroke-linecap:round;"/>
  <line y1="-36.9" y2="-36.9" x1="32.15" x2="32.15" style="fill:none;stroke:#000000;stroke-width:0.7;stroke-linecap:round;"/>
  <line y1="-38.4" y2="-38.4" x1="34.9" x2="34.9" style="fill:none;stroke:#000000;stroke-width:0.7;stroke-linecap:round;"/>
  <line y1="-33.685" y2="-33.685" x1="33.41" x2="33.41" style="fill:none;stroke:#000000;stroke-width:0.7;stroke-linecap:round;"/>
  <line y1="-34.62" y2="-34.62" x1="36.765" x2="36.765" style="fill:none;stroke:#000000;stroke-width:0.7;stroke-linecap:round;"/>
  <line y1="-37.975" y2="-37.975" x1="38.195" x2="38.195" style="fill:none;stroke:#000000;stroke-width:0.7;stroke-linecap:round;"/>
  <line y1="-42.485" y2="-42.485" x1="38.085" x2="38.085" style="fill:none;stroke:#000000;stroke-width:0.7;stroke-linecap:round;"/>
  <line y1="-39.625" y2="-39.625" x1="41.165" x2="41.165" style="fill:none;stroke:#000000;stroke-width:0.7;stroke-linecap:round;"/>
  <line y1="-42.65" y2="-42.65" x1="43.145" x2="43.145" style="fill:none;stroke:#000000;stroke-width:0.7;stroke-linecap:round;"/>
  <line y1="-39.515" y2="-39.515" x1="45.235" x2="45.235" style="fill:none;stroke:#000000;stroke-width:0.7;stroke-linecap:round;"/>
  <line y1="-36.215" y2="-36.215" x1="42.43" x2="42.43" style="fill:none;stroke:#000000;stroke-width:0.7;stroke-linecap:round;"/>
  <line y1="-33.465" y2="-33.465" x1="40.065" x2="40.065" style="fill:none;stroke:#000000;stroke-width:0.7;stroke-linecap:round;"/>
  <line y1="-42.375" y2="-42.375" x1="46.72" x2="46.72" style="fill:none;stroke:#000000;stroke-width:0.7;stroke-linecap:round;"/>
  <line y1="-46.4" y2="-46.4" x1="50.65" x2="50.65" style="fill:none;stroke:#000000;stroke-width:0.7;stroke-linecap:round;"/>
  <line y1="-49.15" y2="-49.15" x1="53.9" x2="53.9" style="fill:none;stroke:#000000;stroke-width:0.7;stroke-linecap:round;"/>
  <line y1="-45.15" y2="-45.15" x1="54.4" x2="54.4" style="fill:none;stroke:#000000;stroke-width:0.7;stroke-linecap:round;"/>
  <line y1="-50.65" y2="-50.65" x1="51.525" x2="51.525" style="fill:none;stroke:#000000;stroke-width:0.7;stroke-linecap:round;"/>
  <line y1="-48.15" y2="-48.15" x1="48.4" x2="48.4" style="fill:none;stroke:#000000;stroke-width:0.7;stroke-linecap:round;"/>
  <line y1="-49.775" y2="-49.775" x1="44.9" x2="44.9" style="fill:none;stroke:#000000;stroke-width:0.7;stroke-linecap:round;"/>
  <line y1="-51.025" y2="-51.025" x1="47.588" x2="47.588" style="fill:none;stroke:#000000;stroke-width:0.7;stroke-linecap:round;"/>
  <line y1="-53.588" y2="-53.588" x1="54.338" x2="54.338" style="fill:none;stroke:#000000;stroke-width:0.7;stroke-linecap:round;"/>
  <line y1="-54.275" y2="-54.275" x1="49.025" x2="49.025" style="fill:none;stroke:#000000;stroke-width:0.7;stroke-linecap:round;"/>
  <line y1="-53.838" y2="-53.838" x1="45.213" x2="45.213" style="fill:none;stroke:#000000;stroke-width:0.7;stroke-linecap:round;"/>
  <line y1="-45.588" y2="-45.588" x1="45.088" x2="45.088" style="fill:none;stroke:#000000;stroke-width:0.7;stroke-linecap:round;"/>
  <line y1="-51.9" y2="-51.9" x1="42.213" x2="42.213" style="fill:none;stroke:#000000;stroke-width:0.7;stroke-linecap:round;"/>
  <line y1="-53.4" y2="-53.4" x1="39.15" x2="39.15" style="fill:none;stroke:#000000;stroke-width:0.7;stroke-linecap:round;"/>
  <line y1="-54.67" y2="-54.67" x1="36.233" x2="36.233" style="fill:none;stroke:#000000;stroke-width:0.7;stroke-linecap:round;"/>
  <line y1="-50.463" y2="-50.463" x1="38.838" x2="38.838" style="fill:none;stroke:#000000;stroke-width:0.7;stroke-linecap:round;"/>
  <line y1="-47.713" y2="-47.713" x1="37.15" x2="37.15" style="fill:none;stroke:#000000;stroke-width:0.7;stroke-linecap:round;"/>
  <line y1="-44.338" y2="-44.338" x1="34.963" x2="34.963" style="fill:none;stroke:#000000;stroke-width:0.7;stroke-linecap:round;"/>
  <line y1="-48.15" y2="-48.15" x1="33.775" x2="33.775" style="fill:none;stroke:#000000;stroke-width:0.7;stroke-linecap:round;"/>
  <line y1="-51.775" y2="-51.775" x1="33.463" x2="33.463" style="fill:none;stroke:#000000;stroke-width:0.7;stroke-linecap:round;"/>
  <line y1="-49.275" y2="-49.275" x1="29.65" x2="29.65" style="fill:none;stroke:#000000;stroke-width:0.7;stroke-linecap:round;"/>
  <line y1="-45.4" y2="-45.4" x1="31.275" x2="31.275" style="fill:none;stroke:#000000;stroke-width:0.7;stroke-linecap:round;"/>
  <line y1="-54.4" y2="-54.4" x1="31.4" x2="31.4" style="fill:none;stroke:#000000;stroke-width:0.7;stroke-linecap:round;"/>
  <line y1="-51.4" y2="-51.4" x1="30.15" x2="30.15" style="fill:none;stroke:#000000;stroke-width:0.7;stroke-linecap:round;"/>
  <line y1="-54.15" y2="-54.15" x1="27.9" x2="27.9" style="fill:none;stroke:#000000;stroke-width:0.7;stroke-linecap:round;"/>
  <line y1="-54.713" y2="-54.713" x1="24.587" x2="24.587" style="fill:none;stroke:#000000;stroke-width:0.7;stroke-linecap:round;"/>
  <line y1="-48.65" y2="-48.65" x1="26.212" x2="26.212" style="fill:none;stroke:#000000;stroke-width:0.7;stroke-linecap:round;"/>
  <line y1="-46.213" y2="-46.213" x1="24.337" x2="24.337" style="fill:none;stroke:#000000;stroke-width:0.7;stroke-linecap:round;"/>
  <line y1="-48.525" y2="-48.525" x1="22.837" x2="22.837" style="fill:none;stroke:#000000;stroke-width:0.7;stroke-linecap:round;"/>
  <line y1="-51.713" y2="-51.713" x1="24.712" x2="24.712" style="fill:none;stroke:#000000;stroke-width:0.7;stroke-linecap:round;"/>
  <line y1="-51.713" y2="-51.713" x1="20.837" x2="20.837" style="fill:none;stroke:#000000;stroke-width:0.7;stroke-linecap:round;"/>
  <line y1="-46.463" y2="-46.463" x1="7.9" x2="7.9" style="fill:none;stroke:#000000;stroke-width:0.7;stroke-linecap:round;"/>
  <line y1="-45.463" y2="-45.463" x1="4.9" x2="4.9" style="fill:none;stroke:#000000;stroke-width:0.7;stroke-linecap:round;"/>
  <line y1="-47.525" y2="-47.525" x1="2.4" x2="2.4" style="fill:none;stroke:#000000;stroke-width:0.7;stroke-linecap:round;"/>
  <line y1="-48.9" y2="-48.9" x1="10.212" x2="10.212" style="fill:none;stroke:#000000;stroke-width:0.7;stroke-linecap:round;"/>
  <line y1="-51.025" y2="-51.025" x1="12.712" x2="12.712" style="fill:none;stroke:#000000;stroke-width:0.7;stroke-linecap:round;"/>
  <line y1="-54.713" y2="-54.713" x1="11.15" x2="11.15" style="fill:none;stroke:#000000;stroke-width:0.7;stroke-linecap:round;"/>
  <line y1="-52.15" y2="-52.15" x1="9.65" x2="9.65" style="fill:none;stroke:#000000;stroke-width:0.7;stroke-linecap:round;"/>
  <line y1="-55.067" y2="-55.067" x1="7.567" x2="7.567" style="fill:none;stroke:#000000;stroke-width:0.7;stroke-linecap:round;"/>
  <line y1="-50.025" y2="-50.025" x1="5.713" x2="5.713" style="fill:none;stroke:#000000;stroke-width:0.7;stroke-linecap:round;"/>
  <line y1="-52.4" y2="-52.4" x1="6.4" x2="6.4" style="fill:none;stroke:#000000;stroke-width:0.7;stroke-linecap:round;"/>
  <line y1="-54.9" y2="-54.9" x1="3.4" x2="3.4" style="fill:none;stroke:#000000;stroke-width:0.7;stroke-linecap:round;"/>
  <line y1="-51.275" y2="-51.275" x1="2.4" x2="2.4" style="fill:none;stroke:#000000;stroke-width:0.7;stroke-linecap:round;"/>
  <line y1="-49.525" y2="-49.525" x1="19.962" x2="19.962" style="fill:none;stroke:#000000;stroke-width:0.7;stroke-linecap:round;"/>
  <line y1="-47.213" y2="-47.213" x1="19.837" x2="19.837" style="fill:none;stroke:#000000;stroke-width:0.7;stroke-linecap:round;"/>
  <line y1="-45.838" y2="-45.838" x1="15.837" x2="15.837" style="fill:none;stroke:#000000;stroke-width:0.7;stroke-linecap:round;"/>
  <line y1="-49.9" y2="-49.9" x1="16.525" x2="16.525" style="fill:none;stroke:#000000;stroke-width:0.7;stroke-linecap:round;"/>
  <line y1="-53.9" y2="-53.9" x1="18.212" x2="18.212" style="fill:none;stroke:#000000;stroke-width:0.7;stroke-linecap:round;"/>
  <line y1="-52.4" y2="-52.4" x1="15.9" x2="15.9" style="fill:none;stroke:#000000;stroke-width:0.7;stroke-linecap:round;"/>
  <line y1="-54.9" y2="-54.9" x1="14.4" x2="14.4" style="fill:none;stroke:#000000;stroke-width:0.7;stroke-linecap:round;"/>
  <line y1="-48.525" y2="-48.525" x1="41.525" x2="41.525" style="fill:none;stroke:#000000;stroke-width:0.7;stroke-linecap:round;"/>
  <line y1="-45.15" y2="-45.15" x1="39.9" x2="39.9" style="fill:none;stroke:#000000;stroke-width:0.7;stroke-linecap:round;"/>
  <line y1="-40.34" y2="-40.34" x1="49.58" x2="49.58" style="fill:none;stroke:#000000;stroke-width:0.7;stroke-linecap:round;"/>
  <line y1="-43.9" y2="-43.9" x1="50.15" x2="50.15" style="fill:none;stroke:#000000;stroke-width:0.7;stroke-linecap:round;"/>
  <line y1="-26.65" y2="-26.65" x1="53.9" x2="53.9" style="fill:none;stroke:#000000;stroke-width:0.7;stroke-linecap:round;"/>
  <line y1="-23.9" y2="-23.9" x1="54.9" x2="54.9" style="fill:none;stroke:#000000;stroke-width:0.7;stroke-linecap:round;"/>
  <line y1="-30.15" y2="-30.15" x1="54.65" x2="54.65" style="fill:none;stroke:#000000;stroke-width:0.7;stroke-linecap:round;"/>
  <line y1="-36.985" y2="-36.985" x1="48.81" x2="48.81" style="fill:none;stroke:#000000;stroke-width:0.7;stroke-linecap:round;"/>
  <line y1="-38.65" y2="-38.65" x1="52.65" x2="52.65" style="fill:none;stroke:#000000;stroke-width:0.7;stroke-linecap:round;"/>
  <line y1="-32.9" y2="-32.9" x1="52.4" x2="52.4" style="fill:none;stroke:#000000;stroke-width:0.7;stroke-linecap:round;"/>
  <line y1="-5.15" y2="-5.15" x1="51.9" x2="51.9" style="fill:none;stroke:#000000;stroke-width:0.7;stroke-linecap:round;"/>
  <line y1="-33.74" y2="-33.74" x1="49.745" x2="49.745" style="fill:none;stroke:#000000;stroke-width:0.7;stroke-linecap:round;"/>
  <line y1="-35.15" y2="-35.15" x1="54.4" x2="54.4" style="fill:none;stroke:#000000;stroke-width:0.7;stroke-linecap:round;"/>
  <line y1="-27.69" y2="-27.69" x1="49.25" x2="49.25" style="fill:none;stroke:#000000;stroke-width:0.7;stroke-linecap:round;"/>
  <line y1="-31.32" y2="-31.32" x1="47.847" x2="47.847" style="fill:none;stroke:#000000;stroke-width:0.7;stroke-linecap:round;"/>
  <line y1="-32.145" y2="-32.145" x1="44.052" x2="44.052" style="fill:none;stroke:#000000;stroke-width:0.7;stroke-linecap:round;"/>
  <line y1="-29.175" y2="-29.175" x1="41.825" x2="41.825" style="fill:none;stroke:#000000;stroke-width:0.7;stroke-linecap:round;"/>
  <line y1="-28.597" y2="-28.597" x1="45.29" x2="45.29" style="fill:none;stroke:#000000;stroke-width:0.7;stroke-linecap:round;"/>
  <line y1="-30.495" y2="-30.495" x1="35.06" x2="35.06" style="fill:none;stroke:#000000;stroke-width:0.7;stroke-linecap:round;"/>
  <line y1="-30.743" y2="-30.743" x1="32.007" x2="32.007" style="fill:none;stroke:#000000;stroke-width:0.7;stroke-linecap:round;"/>
  <line y1="-31.073" y2="-31.073" x1="28.542" x2="28.542" style="fill:none;stroke:#000000;stroke-width:0.7;stroke-linecap:round;"/>
  <line y1="-31.237" y2="-31.237" x1="24.747" x2="24.747" style="fill:none;stroke:#000000;stroke-width:0.7;stroke-linecap:round;"/>
  <line y1="-31.815" y2="-31.815" x1="21.86" x2="21.86" style="fill:none;stroke:#000000;stroke-width:0.7;stroke-linecap:round;"/>
  <line y1="-31.733" y2="-31.733" x1="17.817" x2="17.817" style="fill:none;stroke:#000000;stroke-width:0.7;stroke-linecap:round;"/>
  <line y1="-30.577" y2="-30.577" x1="13.527" x2="13.527" style="fill:none;stroke:#000000;stroke-width:0.7;stroke-linecap:round;"/>
  <line y1="-30.33" y2="-30.33" x1="4.452" x2="4.452" style="fill:none;stroke:#000000;stroke-width:0.7;stroke-linecap:round;"/>
  <line y1="-29.093" y2="-29.093" x1="7.422" x2="7.422" style="fill:none;stroke:#000000;stroke-width:0.7;stroke-linecap:round;"/>
  <line y1="-26.452" y2="-26.452" x1="6.35" x2="6.35" style="fill:none;stroke:#000000;stroke-width:0.7;stroke-linecap:round;"/>
  <line y1="-27.608" y2="-27.608" x1="3.462" x2="3.462" style="fill:none;stroke:#000000;stroke-width:0.7;stroke-linecap:round;"/>
  <line y1="-24.638" y2="-24.638" x1="4.37" x2="4.37" style="fill:none;stroke:#000000;stroke-width:0.7;stroke-linecap:round;"/>
  <line y1="-23.317" y2="-23.317" x1="8" x2="8" style="fill:none;stroke:#000000;stroke-width:0.7;stroke-linecap:round;"/>
  <line y1="-26.288" y2="-26.288" x1="9.732" x2="9.732" style="fill:none;stroke:#000000;stroke-width:0.7;stroke-linecap:round;"/>
  <line y1="-23.647" y2="-23.647" x1="11.3" x2="11.3" style="fill:none;stroke:#000000;stroke-width:0.7;stroke-linecap:round;"/>
  <line y1="-27.112" y2="-27.112" x1="12.867" x2="12.867" style="fill:none;stroke:#000000;stroke-width:0.7;stroke-linecap:round;"/>
  <line y1="-24.308" y2="-24.308" x1="14.187" x2="14.187" style="fill:none;stroke:#000000;stroke-width:0.7;stroke-linecap:round;"/>
  <line y1="-25.298" y2="-25.298" x1="16.415" x2="16.415" style="fill:none;stroke:#000000;stroke-width:0.7;stroke-linecap:round;"/>
  <line y1="-28.02" y2="-28.02" x1="15.507" x2="15.507" style="fill:none;stroke:#000000;stroke-width:0.7;stroke-linecap:round;"/>
  <line y1="-27.525" y2="-27.525" x1="18.56" x2="18.56" style="fill:none;stroke:#000000;stroke-width:0.7;stroke-linecap:round;"/>
  <line y1="-26.37" y2="-26.37" x1="21.53" x2="21.53" style="fill:none;stroke:#000000;stroke-width:0.7;stroke-linecap:round;"/>
  <line y1="-28.597" y2="-28.597" x1="23.097" x2="23.097" style="fill:none;stroke:#000000;stroke-width:0.7;stroke-linecap:round;"/>
  <line y1="-24.142" y2="-24.142" x1="19.962" x2="19.962" style="fill:none;stroke:#000000;stroke-width:0.7;stroke-linecap:round;"/>
  <line y1="-22.823" y2="-22.823" x1="17.487" x2="17.487" style="fill:none;stroke:#000000;stroke-width:0.7;stroke-linecap:round;"/>
  <line y1="-21.585" y2="-21.585" x1="14.765" x2="14.765" style="fill:none;stroke:#000000;stroke-width:0.7;stroke-linecap:round;"/>
  <line y1="-21.42" y2="-21.42" x1="12.207" x2="12.207" style="fill:none;stroke:#000000;stroke-width:0.7;stroke-linecap:round;"/>
  <line y1="-20.925" y2="-20.925" x1="9.072" x2="9.072" style="fill:none;stroke:#000000;stroke-width:0.7;stroke-linecap:round;"/>
  <line y1="-20.347" y2="-20.347" x1="6.432" x2="6.432" style="fill:none;stroke:#000000;stroke-width:0.7;stroke-linecap:round;"/>
  <line y1="-18.945" y2="-18.945" x1="3.545" x2="3.545" style="fill:none;stroke:#000000;stroke-width:0.7;stroke-linecap:round;"/>
  <line y1="-15.645" y2="-15.645" x1="2.802" x2="2.802" style="fill:none;stroke:#000000;stroke-width:0.7;stroke-linecap:round;"/>
  <line y1="-17.048" y2="-17.048" x1="5.525" x2="5.525" style="fill:none;stroke:#000000;stroke-width:0.7;stroke-linecap:round;"/>
  <line y1="-17.955" y2="-17.955" x1="8.577" x2="8.577" style="fill:none;stroke:#000000;stroke-width:0.7;stroke-linecap:round;"/>
  <line y1="-15.315" y2="-15.315" x1="8.33" x2="8.33" style="fill:none;stroke:#000000;stroke-width:0.7;stroke-linecap:round;"/>
  <line y1="-13.665" y2="-13.665" x1="5.855" x2="5.855" style="fill:none;stroke:#000000;stroke-width:0.7;stroke-linecap:round;"/>
  <line y1="-11.932" y2="-11.932" x1="3.05" x2="3.05" style="fill:none;stroke:#000000;stroke-width:0.7;stroke-linecap:round;"/>
  <line y1="-10.86" y2="-10.86" x1="5.855" x2="5.855" style="fill:none;stroke:#000000;stroke-width:0.7;stroke-linecap:round;"/>
  <line y1="-12.427" y2="-12.427" x1="9.155" x2="9.155" style="fill:none;stroke:#000000;stroke-width:0.7;stroke-linecap:round;"/>
  <line y1="-14.242" y2="-14.242" x1="11.3" x2="11.3" style="fill:none;stroke:#000000;stroke-width:0.7;stroke-linecap:round;"/>
  <line y1="-11.355" y2="-11.355" x1="12.537" x2="12.537" style="fill:none;stroke:#000000;stroke-width:0.7;stroke-linecap:round;"/>
  <line y1="-12.922" y2="-12.922" x1="15.095" x2="15.095" style="fill:none;stroke:#000000;stroke-width:0.7;stroke-linecap:round;"/>
  <line y1="-11.107" y2="-11.107" x1="17.075" x2="17.075" style="fill:none;stroke:#000000;stroke-width:0.7;stroke-linecap:round;"/>
  <line y1="-13.335" y2="-13.335" x1="19.302" x2="19.302" style="fill:none;stroke:#000000;stroke-width:0.7;stroke-linecap:round;"/>
  <line y1="-15.397" y2="-15.397" x1="16.415" x2="16.415" style="fill:none;stroke:#000000;stroke-width:0.7;stroke-linecap:round;"/>
  <line y1="-15.975" y2="-15.975" x1="13.692" x2="13.692" style="fill:none;stroke:#000000;stroke-width:0.7;stroke-linecap:round;"/>
  <line y1="-18.945" y2="-18.945" x1="13.527" x2="13.527" style="fill:none;stroke:#000000;stroke-width:0.7;stroke-linecap:round;"/>
  <line y1="-18.532" y2="-18.532" x1="16.497" x2="16.497" style="fill:none;stroke:#000000;stroke-width:0.7;stroke-linecap:round;"/>
  <line y1="-19.935" y2="-19.935" x1="18.972" x2="18.972" style="fill:none;stroke:#000000;stroke-width:0.7;stroke-linecap:round;"/>
  <line y1="-16.388" y2="-16.388" x1="19.467" x2="19.467" style="fill:none;stroke:#000000;stroke-width:0.7;stroke-linecap:round;"/>
  <line y1="-16.718" y2="-16.718" x1="22.685" x2="22.685" style="fill:none;stroke:#000000;stroke-width:0.7;stroke-linecap:round;"/>
  <line y1="-14.077" y2="-14.077" x1="22.107" x2="22.107" style="fill:none;stroke:#000000;stroke-width:0.7;stroke-linecap:round;"/>
  <line y1="-11.437" y2="-11.437" x1="23.015" x2="23.015" style="fill:none;stroke:#000000;stroke-width:0.7;stroke-linecap:round;"/>
  <line y1="-12.592" y2="-12.592" x1="25.242" x2="25.242" style="fill:none;stroke:#000000;stroke-width:0.7;stroke-linecap:round;"/>
  <line y1="-13.17" y2="-13.17" x1="28.295" x2="28.295" style="fill:none;stroke:#000000;stroke-width:0.7;stroke-linecap:round;"/>
  <line y1="-10.2" y2="-10.2" x1="27.47" x2="27.47" style="fill:none;stroke:#000000;stroke-width:0.7;stroke-linecap:round;"/>
  <line y1="-15.397" y2="-15.397" x1="25.572" x2="25.572" style="fill:none;stroke:#000000;stroke-width:0.7;stroke-linecap:round;"/>
  <line y1="-18.038" y2="-18.038" x1="26.232" x2="26.232" style="fill:none;stroke:#000000;stroke-width:0.7;stroke-linecap:round;"/>
  <line y1="-21.09" y2="-21.09" x1="28.625" x2="28.625" style="fill:none;stroke:#000000;stroke-width:0.7;stroke-linecap:round;"/>
  <line y1="-20.43" y2="-20.43" x1="24.665" x2="24.665" style="fill:none;stroke:#000000;stroke-width:0.7;stroke-linecap:round;"/>
  <line y1="-22.08" y2="-22.08" x1="22.602" x2="22.602" style="fill:none;stroke:#000000;stroke-width:0.7;stroke-linecap:round;"/>
  <line y1="-24.555" y2="-24.555" x1="23.427" x2="23.427" style="fill:none;stroke:#000000;stroke-width:0.7;stroke-linecap:round;"/>
  <line y1="-22.987" y2="-22.987" x1="26.397" x2="26.397" style="fill:none;stroke:#000000;stroke-width:0.7;stroke-linecap:round;"/>
  <line y1="-24.968" y2="-24.968" x1="28.46" x2="28.46" style="fill:none;stroke:#000000;stroke-width:0.7;stroke-linecap:round;"/>
  <line y1="-26.618" y2="-26.618" x1="25.902" x2="25.902" style="fill:none;stroke:#000000;stroke-width:0.7;stroke-linecap:round;"/>
  <line y1="-27.772" y2="-27.772" x1="30.605" x2="30.605" style="fill:none;stroke:#000000;stroke-width:0.7;stroke-linecap:round;"/>
  <line y1="-28.02" y2="-28.02" x1="33.575" x2="33.575" style="fill:none;stroke:#000000;stroke-width:0.7;stroke-linecap:round;"/>
  <line y1="-24.472" y2="-24.472" x1="34.977" x2="34.977" style="fill:none;stroke:#000000;stroke-width:0.7;stroke-linecap:round;"/>
  <line y1="-22.327" y2="-22.327" x1="32.915" x2="32.915" style="fill:none;stroke:#000000;stroke-width:0.7;stroke-linecap:round;"/>
  <line y1="-19.522" y2="-19.522" x1="34.152" x2="34.152" style="fill:none;stroke:#000000;stroke-width:0.7;stroke-linecap:round;"/>
  <line y1="-20.677" y2="-20.677" x1="36.627" x2="36.627" style="fill:none;stroke:#000000;stroke-width:0.7;stroke-linecap:round;"/>
  <line y1="-23.647" y2="-23.647" x1="38.69" x2="38.69" style="fill:none;stroke:#000000;stroke-width:0.7;stroke-linecap:round;"/>
  <line y1="-27.442" y2="-27.442" x1="37.535" x2="37.535" style="fill:none;stroke:#000000;stroke-width:0.7;stroke-linecap:round;"/>
  <line y1="-26.452" y2="-26.452" x1="41.165" x2="41.165" style="fill:none;stroke:#000000;stroke-width:0.7;stroke-linecap:round;"/>
  <line y1="-25.628" y2="-25.628" x1="45.372" x2="45.372" style="fill:none;stroke:#000000;stroke-width:0.7;stroke-linecap:round;"/>
  <line y1="-22.905" y2="-22.905" x1="42.072" x2="42.072" style="fill:none;stroke:#000000;stroke-width:0.7;stroke-linecap:round;"/>
  <line y1="-20.347" y2="-20.347" x1="40.175" x2="40.175" style="fill:none;stroke:#000000;stroke-width:0.7;stroke-linecap:round;"/>
  <line y1="-19.77" y2="-19.77" x1="43.722" x2="43.722" style="fill:none;stroke:#000000;stroke-width:0.7;stroke-linecap:round;"/>
  <line y1="-19.11" y2="-19.11" x1="47.187" x2="47.187" style="fill:none;stroke:#000000;stroke-width:0.7;stroke-linecap:round;"/>
  <line y1="-21.173" y2="-21.173" x1="49.992" x2="49.992" style="fill:none;stroke:#000000;stroke-width:0.7;stroke-linecap:round;"/>
  <line y1="-20.677" y2="-20.677" x1="54.117" x2="54.117" style="fill:none;stroke:#000000;stroke-width:0.7;stroke-linecap:round;"/>
  <line y1="-23.812" y2="-23.812" x1="51.807" x2="51.807" style="fill:none;stroke:#000000;stroke-width:0.7;stroke-linecap:round;"/>
  <line y1="-24.472" y2="-24.472" x1="48.672" x2="48.672" style="fill:none;stroke:#000000;stroke-width:0.7;stroke-linecap:round;"/>
  <line y1="-16.14" y2="-16.14" x1="49.085" x2="49.085" style="fill:none;stroke:#000000;stroke-width:0.7;stroke-linecap:round;"/>
  <line y1="-18.9" y2="-18.9" x1="51.233" x2="51.233" style="fill:none;stroke:#000000;stroke-width:0.7;stroke-linecap:round;"/>
  <line y1="-13.252" y2="-13.252" x1="51.642" x2="51.642" style="fill:none;stroke:#000000;stroke-width:0.7;stroke-linecap:round;"/>
  <line y1="-10.2" y2="-10.2" x1="53.787" x2="53.787" style="fill:none;stroke:#000000;stroke-width:0.7;stroke-linecap:round;"/>
  <line y1="-11.685" y2="-11.685" x1="49.167" x2="49.167" style="fill:none;stroke:#000000;stroke-width:0.7;stroke-linecap:round;"/>
  <line y1="-14.242" y2="-14.242" x1="46.032" x2="46.032" style="fill:none;stroke:#000000;stroke-width:0.7;stroke-linecap:round;"/>
  <line y1="-16.882" y2="-16.882" x1="44.795" x2="44.795" style="fill:none;stroke:#000000;stroke-width:0.7;stroke-linecap:round;"/>
  <line y1="-16.635" y2="-16.635" x1="41.247" x2="41.247" style="fill:none;stroke:#000000;stroke-width:0.7;stroke-linecap:round;"/>
  <line y1="-13.747" y2="-13.747" x1="42.732" x2="42.732" style="fill:none;stroke:#000000;stroke-width:0.7;stroke-linecap:round;"/>
  <line y1="-10.942" y2="-10.942" x1="43.475" x2="43.475" style="fill:none;stroke:#000000;stroke-width:0.7;stroke-linecap:round;"/>
  <line y1="-11.437" y2="-11.437" x1="40.175" x2="40.175" style="fill:none;stroke:#000000;stroke-width:0.7;stroke-linecap:round;"/>
  <line y1="-13.995" y2="-13.995" x1="38.442" x2="38.442" style="fill:none;stroke:#000000;stroke-width:0.7;stroke-linecap:round;"/>
  <line y1="-15.81" y2="-15.81" x1="35.637" x2="35.637" style="fill:none;stroke:#000000;stroke-width:0.7;stroke-linecap:round;"/>
  <line y1="-12.097" y2="-12.097" x1="36.71" x2="36.71" style="fill:none;stroke:#000000;stroke-width:0.7;stroke-linecap:round;"/>
  <line y1="-13.912" y2="-13.912" x1="32.997" x2="32.997" style="fill:none;stroke:#000000;stroke-width:0.7;stroke-linecap:round;"/>
  <line y1="-16.65" y2="-16.65" x1="29.15" x2="29.15" style="fill:none;stroke:#000000;stroke-width:0.7;stroke-linecap:round;"/>
  <line y1="-10.777" y2="-10.777" x1="31.347" x2="31.347" style="fill:none;stroke:#000000;stroke-width:0.7;stroke-linecap:round;"/>
  <line y1="-10.035" y2="-10.035" x1="34.482" x2="34.482" style="fill:none;stroke:#000000;stroke-width:0.7;stroke-linecap:round;"/>
  <line y1="-5.91" y2="-5.91" x1="54.447" x2="54.447" style="fill:none;stroke:#000000;stroke-width:0.7;stroke-linecap:round;"/>
  <line y1="-2.445" y2="-2.445" x1="54.447" x2="54.447" style="fill:none;stroke:#000000;stroke-width:0.7;stroke-linecap:round;"/>
  <line y1="-8.22" y2="-8.22" x1="50.817" x2="50.817" style="fill:none;stroke:#000000;stroke-width:0.7;stroke-linecap:round;"/>
  <line y1="-6.075" y2="-6.075" x1="47.682" x2="47.682" style="fill:none;stroke:#000000;stroke-width:0.7;stroke-linecap:round;"/>
  <line y1="-3.27" y2="-3.27" x1="49.332" x2="49.332" style="fill:none;stroke:#000000;stroke-width:0.7;stroke-linecap:round;"/>
  <line y1="-9.375" y2="-9.375" x1="46.197" x2="46.197" style="fill:none;stroke:#000000;stroke-width:0.7;stroke-linecap:round;"/>
  <line y1="-7.477" y2="-7.477" x1="42.815" x2="42.815" style="fill:none;stroke:#000000;stroke-width:0.7;stroke-linecap:round;"/>
  <line y1="-4.59" y2="-4.59" x1="44.217" x2="44.217" style="fill:none;stroke:#000000;stroke-width:0.7;stroke-linecap:round;"/>
  <line y1="-3.067" y2="-3.067" x1="46.567" x2="46.567" style="fill:none;stroke:#000000;stroke-width:0.7;stroke-linecap:round;"/>
  <line y1="-2.4" y2="-2.4" x1="41.9" x2="41.9" style="fill:none;stroke:#000000;stroke-width:0.7;stroke-linecap:round;"/>
  <line y1="-2.733" y2="-2.733" x1="39.233" x2="39.233" style="fill:none;stroke:#000000;stroke-width:0.7;stroke-linecap:round;"/>
  <line y1="-4.733" y2="-4.733" x1="39.9" x2="39.9" style="fill:none;stroke:#000000;stroke-width:0.7;stroke-linecap:round;"/>
  <line y1="-4.4" y2="-4.4" x1="36.9" x2="36.9" style="fill:none;stroke:#000000;stroke-width:0.7;stroke-linecap:round;"/>
  <line y1="-19.4" y2="-19.4" x1="31.15" x2="31.15" style="fill:none;stroke:#000000;stroke-width:0.7;stroke-linecap:round;"/>
  <line y1="-16.9" y2="-16.9" x1="32.9" x2="32.9" style="fill:none;stroke:#000000;stroke-width:0.7;stroke-linecap:round;"/>
  <line y1="-3.105" y2="-3.105" x1="33.41" x2="33.41" style="fill:none;stroke:#000000;stroke-width:0.7;stroke-linecap:round;"/>
  <line y1="-6.487" y2="-6.487" x1="34.977" x2="34.977" style="fill:none;stroke:#000000;stroke-width:0.7;stroke-linecap:round;"/>
  <line y1="-9.045" y2="-9.045" x1="38.277" x2="38.277" style="fill:none;stroke:#000000;stroke-width:0.7;stroke-linecap:round;"/>
  <line y1="-7.807" y2="-7.807" x1="32.172" x2="32.172" style="fill:none;stroke:#000000;stroke-width:0.7;stroke-linecap:round;"/>
  <line y1="-7.642" y2="-7.642" x1="28.625" x2="28.625" style="fill:none;stroke:#000000;stroke-width:0.7;stroke-linecap:round;"/>
  <line y1="-6.075" y2="-6.075" x1="26.067" x2="26.067" style="fill:none;stroke:#000000;stroke-width:0.7;stroke-linecap:round;"/>
  <line y1="-2.857" y2="-2.857" x1="27.8" x2="27.8" style="fill:none;stroke:#000000;stroke-width:0.7;stroke-linecap:round;"/>
  <line y1="-8.55" y2="-8.55" x1="24.417" x2="24.417" style="fill:none;stroke:#000000;stroke-width:0.7;stroke-linecap:round;"/>
  <line y1="-7.065" y2="-7.065" x1="22.19" x2="22.19" style="fill:none;stroke:#000000;stroke-width:0.7;stroke-linecap:round;"/>
  <line y1="-4.177" y2="-4.177" x1="23.84" x2="23.84" style="fill:none;stroke:#000000;stroke-width:0.7;stroke-linecap:round;"/>
  <line y1="-2.733" y2="-2.733" x1="21.9" x2="21.9" style="fill:none;stroke:#000000;stroke-width:0.7;stroke-linecap:round;"/>
  <line y1="-8.137" y2="-8.137" x1="18.807" x2="18.807" style="fill:none;stroke:#000000;stroke-width:0.7;stroke-linecap:round;"/>
  <line y1="-5.167" y2="-5.167" x1="20.21" x2="20.21" style="fill:none;stroke:#000000;stroke-width:0.7;stroke-linecap:round;"/>
  <line y1="-2.692" y2="-2.692" x1="18.725" x2="18.725" style="fill:none;stroke:#000000;stroke-width:0.7;stroke-linecap:round;"/>
  <line y1="-5.827" y2="-5.827" x1="16.745" x2="16.745" style="fill:none;stroke:#000000;stroke-width:0.7;stroke-linecap:round;"/>
  <line y1="-8.962" y2="-8.962" x1="15.177" x2="15.177" style="fill:none;stroke:#000000;stroke-width:0.7;stroke-linecap:round;"/>
  <line y1="-8.88" y2="-8.88" x1="11.795" x2="11.795" style="fill:none;stroke:#000000;stroke-width:0.7;stroke-linecap:round;"/>
  <line y1="-9.622" y2="-9.622" x1="8.66" x2="8.66" style="fill:none;stroke:#000000;stroke-width:0.7;stroke-linecap:round;"/>
  <line y1="-8.467" y2="-8.467" x1="2.72" x2="2.72" style="fill:none;stroke:#000000;stroke-width:0.7;stroke-linecap:round;"/>
  <line y1="-6.322" y2="-6.322" x1="7.175" x2="7.175" style="fill:none;stroke:#000000;stroke-width:0.7;stroke-linecap:round;"/>
  <line y1="-6.24" y2="-6.24" x1="10.31" x2="10.31" style="fill:none;stroke:#000000;stroke-width:0.7;stroke-linecap:round;"/>
  <line y1="-2.94" y2="-2.94" x1="9.65" x2="9.65" style="fill:none;stroke:#000000;stroke-width:0.7;stroke-linecap:round;"/>
  <line y1="-2.857" y2="-2.857" x1="14.27" x2="14.27" style="fill:none;stroke:#000000;stroke-width:0.7;stroke-linecap:round;"/>
  <line y1="-3.765" y2="-3.765" x1="6.432" x2="6.432" style="fill:none;stroke:#000000;stroke-width:0.7;stroke-linecap:round;"/>
  <line y1="-5.167" y2="-5.167" x1="3.132" x2="3.132" style="fill:none;stroke:#000000;stroke-width:0.7;stroke-linecap:round;"/>
  <line y1="-2.692" y2="-2.692" x1="3.71" x2="3.71" style="fill:none;stroke:#000000;stroke-width:0.7;stroke-linecap:round;"/>
  <path d="M22.15-54.65c1.312,0,1.562,1.562,0.188,1.625    S21.087-54.588,22.15-54.65z" style="fill:none;stroke:#000000;stroke-width:0.3;"/>
  <path d="M35.65-52.838c1.312-0.062,1.375,1.625,0.125,1.625    S34.525-52.713,35.65-52.838z" style="fill:none;stroke:#000000;stroke-width:0.3;"/>
  <path d="M43.713-47.963c1.312-0.062,1.625,1.562,0.312,1.625    S42.713-47.9,43.713-47.963z" style="fill:none;stroke:#000000;stroke-width:0.3;"/>
  <path d="M28.275-46.025c1-0.062,1.438,1.375,0.188,1.5    S27.087-45.9,28.275-46.025z" style="fill:none;stroke:#000000;stroke-width:0.3;"/>
  <path d="M35.963-41.963c0.812-0.062,1.562,1.438,0.125,1.562    S34.838-41.838,35.963-41.963z" style="fill:none;stroke:#000000;stroke-width:0.3;"/>
  <path d="M14.025-49.275c1.188,0.062,1.25,1.5,0.125,1.562    S12.837-49.213,14.025-49.275z" style="fill:none;stroke:#000000;stroke-width:0.3;"/>
  <path d="M4.588-48.213c1,0.062,1.5,1.188,0.188,1.438    S3.275-48.088,4.588-48.213z" style="fill:none;stroke:#000000;stroke-width:0.3;"/>
  <path d="M18.837-40.713c1.062-0.062,1.312,1.5,0.062,1.562    S17.962-40.65,18.837-40.713z" style="fill:none;stroke:#000000;stroke-width:0.3;"/>
  <path d="M9.025-39.775c1.25,0,1.625,1.375,0.125,1.562    S7.65-39.713,9.025-39.775z" style="fill:none;stroke:#000000;stroke-width:0.3;"/>
  <path d="M30.025-35.088c0,1.312-1.812,1.25-1.938,0.062    S29.9-36.338,30.025-35.088z" style="fill:none;stroke:#000000;stroke-width:0.3;"/>
  <path d="M38.088-31.587c1.188,0,1.312,1.5,0.125,1.625    S36.713-31.525,38.088-31.587z" style="fill:none;stroke:#000000;stroke-width:0.3;"/>
  <path d="M47.275-35.4c0,1.25-1.75,1.375-1.875,0.125    S47.15-36.713,47.275-35.4z" style="fill:none;stroke:#000000;stroke-width:0.3;"/>
  <path d="M52.9-42.65c1.125-0.062,1.625,1.5,0.188,1.5    S51.838-42.525,52.9-42.65z" style="fill:none;stroke:#000000;stroke-width:0.3;"/>
  <path d="M51.213-52.963c-1.116,0.154-1.188-1.375-0.312-1.5    S53.025-53.213,51.213-52.963z" style="fill:none;stroke:#000000;stroke-width:0.3;"/>
  <path d="M51.9-30.15c1.188-0.062,1.312,1.438,0.188,1.5    S50.65-29.9,51.9-30.15z" style="fill:none;stroke:#000000;stroke-width:0.3;"/>
  <path d="M46.9-22.4c0,1.125-1.938,1.125-1.938,0.062S46.838-23.775,46.9-22.4    z" style="fill:none;stroke:#000000;stroke-width:0.3;"/>
  <path d="M38.525-18.4c1.312-0.062,1.25,1.438,0.188,1.5    S37.15-18.275,38.525-18.4z" style="fill:none;stroke:#000000;stroke-width:0.3;"/>
  <path d="M54.775-15.525c0,1.312-1.875,1.188-1.938,0.125    S54.588-16.775,54.775-15.525z" style="fill:none;stroke:#000000;stroke-width:0.3;"/>
  <path d="M31.025-25.837c1.188,0,1.563,1.5,0.188,1.625    C29.837-24.087,29.962-25.775,31.025-25.837z" style="fill:none;stroke:#000000;stroke-width:0.3;"/>
  <path d="M21.087-30.15c0,1.312-1.812,1.375-1.812,0.062    S21.025-31.587,21.087-30.15z" style="fill:none;stroke:#000000;stroke-width:0.3;"/>
  <path d="M30.712-15.212c0.875,0,1.625,1.812,0.062,1.75    C29.212-13.525,29.275-15.275,30.712-15.212z" style="fill:none;stroke:#000000;stroke-width:0.3;"/>
  <path d="M21.65-21.025c1.062,0.062,1.375,1.688,0.062,1.75    S20.587-20.962,21.65-21.025z" style="fill:none;stroke:#000000;stroke-width:0.3;"/>
  <path d="M12.025-17.587c0,1.125-1.875,1.625-1.938,0.125    S11.9-18.9,12.025-17.587z" style="fill:none;stroke:#000000;stroke-width:0.3;"/>
  <path d="M11.525-29.212c0.062,1.688-1.75,1.625-1.812,0.312    S11.275-30.212,11.525-29.212z" style="fill:none;stroke:#000000;stroke-width:0.3;"/>
  <path d="M3.963-23.275c1.125,0,1.375,2,0.062,2S2.338-23.087,3.963-23.275z" style="fill:none;stroke:#000000;stroke-width:0.3;"/>
  <path d="M6.025-8.087C6.088-6.963,3.9-6.65,3.838-7.963    S5.9-9.587,6.025-8.087z" style="fill:none;stroke:#000000;stroke-width:0.3;"/>
  <path d="M14.212-6.025c1.125,0,1.5,1.688,0.125,1.812    S12.587-5.9,14.212-6.025z" style="fill:none;stroke:#000000;stroke-width:0.3;"/>
  <path d="M21.337-11.275c1.188-0.062,1.25,1.562,0.125,1.625    S19.66-11.113,21.337-11.275z" style="fill:none;stroke:#000000;stroke-width:0.3;"/>
  <path d="M31.712-5.338c0,1.188-1.875,1.312-1.875,0.125    S31.65-6.525,31.712-5.338z" style="fill:none;stroke:#000000;stroke-width:0.3;"/>
  <path d="M40.525-7.588c0,1.25-1.75,1.25-1.875,0.125    S40.338-9.025,40.525-7.588z" style="fill:none;stroke:#000000;stroke-width:0.3;"/>
  <path d="M49.15-10.337c1.188-0.062,1.438,1.625,0.25,1.75    S47.713-10.212,49.15-10.337z" style="fill:none;stroke:#000000;stroke-width:0.3;"/>
 </g>
</svg>
