<?xml version="1.0"?>
<!-- Converted with SVG Converter - Version 0.9.5 (Compiled Fri Feb 21 09:53:38 2020) - Copyright (C) 2011 Nokia -->
<svg xmlns="http://www.w3.org/2000/svg" xmlns:xlink="http://www.w3.org/1999/xlink" y="0px" xml:space="preserve" viewBox="0 -54.125 54.125 54.125" height="54.125" version="1.1" width="54.125" x="0px" baseProfile="tiny">
 <g>
  <rect style="fill:none;" y="-54.125" height="54.125" width="54.125"/>
  <line x1="32.575" style="fill:none;stroke:#000000;stroke-width:0.3;" x2="15.194" y2="-3.316" y1="-3.316"/>
  <line x1="0" style="fill:none;stroke:#000000;stroke-width:0.3;" x2="7.274" y2="-7.057" y1="-7.057"/>
  <line x1="23.349" style="fill:none;stroke:#000000;stroke-width:0.3;" x2="42.488" y2="-10.997" y1="-10.997"/>
  <line x1="41.375" style="fill:none;stroke:#000000;stroke-width:0.3;" x2="53.915" y2="-17.195" y1="-17.195"/>
  <line x1="23.555" style="fill:none;stroke:#000000;stroke-width:0.3;" x2="8.814" y2="-16.755" y1="-16.755"/>
  <line x1="23.335" style="fill:none;stroke:#000000;stroke-width:0.3;" x2="40.715" y2="-23.776" y1="-23.776"/>
  <line x1="41.777" style="fill:none;stroke:#000000;stroke-width:0.3;" x2="24.397" y2="-46.693" y1="-46.693"/>
  <line x1="6.923" style="fill:none;stroke:#000000;stroke-width:0.3;" x2="0" y2="-50.047" y1="-50.047"/>
  <line x1="14.975" style="fill:none;stroke:#000000;stroke-width:0.3;" x2="0.455" y2="-25.316" y1="-25.316"/>
  <line x1="39.615" style="fill:none;stroke:#000000;stroke-width:0.3;" x2="53.915" y2="-29.937" y1="-29.937"/>
  <line x1="11.455" style="fill:none;stroke:#000000;stroke-width:0.3;" x2="26.635" y2="-33.677" y1="-33.677"/>
  <line x1="14.253" style="fill:none;stroke:#000000;stroke-width:0.3;" x2="0.173" y2="-39.651" y1="-39.651"/>
  <line x1="32.293" style="fill:none;stroke:#000000;stroke-width:0.3;" x2="48.134" y2="-39.871" y1="-39.871"/>
  <line x1="44.323" style="fill:none;stroke:#000000;stroke-width:0.3;" x2="54.125" y2="-7.057" y1="-7.057"/>
  <line x1="47.989" style="fill:none;stroke:#000000;stroke-width:0.3;" x2="54.125" y2="-50.047" y1="-50.047"/>
  <line x1="50.285" style="fill:none;stroke:#000000;stroke-width:0.7;stroke-linecap:round;" x2="50.285" y2="-41.432" y1="-41.432"/>
  <line x1="45.995" style="fill:none;stroke:#000000;stroke-width:0.7;stroke-linecap:round;" x2="45.995" y2="-41.102" y1="-41.102"/>
  <line x1="51.385" style="fill:none;stroke:#000000;stroke-width:0.7;stroke-linecap:round;" x2="51.385" y2="-37.527" y1="-37.527"/>
  <line x1="47.315" style="fill:none;stroke:#000000;stroke-width:0.7;stroke-linecap:round;" x2="47.315" y2="-37.197" y1="-37.197"/>
  <line x1="48.854" style="fill:none;stroke:#000000;stroke-width:0.7;stroke-linecap:round;" x2="48.854" y2="-34.227" y1="-34.227"/>
  <line x1="52.485" style="fill:none;stroke:#000000;stroke-width:0.7;stroke-linecap:round;" x2="52.485" y2="-33.787" y1="-33.787"/>
  <line x1="39.448" style="fill:none;stroke:#000000;stroke-width:0.7;stroke-linecap:round;" x2="39.448" y2="-42.39" y1="-42.39"/>
  <line x1="43.948" style="fill:none;stroke:#000000;stroke-width:0.7;stroke-linecap:round;" x2="43.948" y2="-38.223" y1="-38.223"/>
  <line x1="34.281" style="fill:none;stroke:#000000;stroke-width:0.7;stroke-linecap:round;" x2="34.281" y2="-41.557" y1="-41.557"/>
  <line x1="35.448" style="fill:none;stroke:#000000;stroke-width:0.7;stroke-linecap:round;" x2="35.448" y2="-38.057" y1="-38.057"/>
  <line x1="28.505" style="fill:none;stroke:#000000;stroke-width:0.7;stroke-linecap:round;" x2="28.505" y2="-39.507" y1="-39.507"/>
  <line x1="32.575" style="fill:none;stroke:#000000;stroke-width:0.7;stroke-linecap:round;" x2="32.575" y2="-36.537" y1="-36.537"/>
  <line x1="30.155" style="fill:none;stroke:#000000;stroke-width:0.7;stroke-linecap:round;" x2="30.155" y2="-30.597" y1="-30.597"/>
  <line x1="27.955" style="fill:none;stroke:#000000;stroke-width:0.7;stroke-linecap:round;" x2="27.955" y2="-32.907" y1="-32.907"/>
  <line x1="26.524" style="fill:none;stroke:#000000;stroke-width:0.7;stroke-linecap:round;" x2="26.524" y2="-36.757" y1="-36.757"/>
  <line x1="24.104" style="fill:none;stroke:#000000;stroke-width:0.7;stroke-linecap:round;" x2="24.104" y2="-40.057" y1="-40.057"/>
  <line x1="21.685" style="fill:none;stroke:#000000;stroke-width:0.7;stroke-linecap:round;" x2="21.685" y2="-35.767" y1="-35.767"/>
  <line x1="20.475" style="fill:none;stroke:#000000;stroke-width:0.7;stroke-linecap:round;" x2="20.475" y2="-39.177" y1="-39.177"/>
  <line x1="17.835" style="fill:none;stroke:#000000;stroke-width:0.7;stroke-linecap:round;" x2="17.835" y2="-36.427" y1="-36.427"/>
  <line x1="15.745" style="fill:none;stroke:#000000;stroke-width:0.7;stroke-linecap:round;" x2="15.745" y2="-40.277" y1="-40.277"/>
  <line x1="11.781" style="fill:none;stroke:#000000;stroke-width:0.7;stroke-linecap:round;" x2="11.781" y2="-37.557" y1="-37.557"/>
  <line x1="8.484" style="fill:none;stroke:#000000;stroke-width:0.7;stroke-linecap:round;" x2="8.484" y2="-40.937" y1="-40.937"/>
  <line x1="5.448" style="fill:none;stroke:#000000;stroke-width:0.7;stroke-linecap:round;" x2="5.448" y2="-42.057" y1="-42.057"/>
  <line x1="1.948" style="fill:none;stroke:#000000;stroke-width:0.7;stroke-linecap:round;" x2="1.948" y2="-43.723" y1="-43.723"/>
  <line x1="1.444" style="fill:none;stroke:#000000;stroke-width:0.7;stroke-linecap:round;" x2="1.444" y2="-35.987" y1="-35.987"/>
  <line x1="5.281" style="fill:none;stroke:#000000;stroke-width:0.7;stroke-linecap:round;" x2="5.281" y2="-37.557" y1="-37.557"/>
  <line x1="9.035" style="fill:none;stroke:#000000;stroke-width:0.7;stroke-linecap:round;" x2="9.035" y2="-36.207" y1="-36.207"/>
  <line x1="13.325" style="fill:none;stroke:#000000;stroke-width:0.7;stroke-linecap:round;" x2="13.325" y2="-35.547" y1="-35.547"/>
  <line x1="7.604" style="fill:none;stroke:#000000;stroke-width:0.7;stroke-linecap:round;" x2="7.604" y2="-32.577" y1="-32.577"/>
  <line x1="3.315" style="fill:none;stroke:#000000;stroke-width:0.7;stroke-linecap:round;" x2="3.315" y2="-32.577" y1="-32.577"/>
  <line x1="12.948" style="fill:none;stroke:#000000;stroke-width:0.7;stroke-linecap:round;" x2="12.948" y2="-43.557" y1="-43.557"/>
  <line x1="1.005" style="fill:none;stroke:#000000;stroke-width:0.7;stroke-linecap:round;" x2="1.005" y2="-29.497" y1="-29.497"/>
  <line x1="1.225" style="fill:none;stroke:#000000;stroke-width:0.7;stroke-linecap:round;" x2="1.225" y2="-26.637" y1="-26.637"/>
  <line x1="6.394" style="fill:none;stroke:#000000;stroke-width:0.7;stroke-linecap:round;" x2="6.394" y2="-26.417" y1="-26.417"/>
  <line x1="5.404" style="fill:none;stroke:#000000;stroke-width:0.7;stroke-linecap:round;" x2="5.404" y2="-29.387" y1="-29.387"/>
  <line x1="9.365" style="fill:none;stroke:#000000;stroke-width:0.7;stroke-linecap:round;" x2="9.365" y2="-28.947" y1="-28.947"/>
  <line x1="12.665" style="fill:none;stroke:#000000;stroke-width:0.7;stroke-linecap:round;" x2="12.665" y2="-31.037" y1="-31.037"/>
  <line x1="12.995" style="fill:none;stroke:#000000;stroke-width:0.7;stroke-linecap:round;" x2="12.995" y2="-27.517" y1="-27.517"/>
  <line x1="16.185" style="fill:none;stroke:#000000;stroke-width:0.7;stroke-linecap:round;" x2="16.185" y2="-30.157" y1="-30.157"/>
  <line x1="16.955" style="fill:none;stroke:#000000;stroke-width:0.7;stroke-linecap:round;" x2="16.955" y2="-26.307" y1="-26.307"/>
  <line x1="19.781" style="fill:none;stroke:#000000;stroke-width:0.7;stroke-linecap:round;" x2="19.781" y2="-30.89" y1="-30.89"/>
  <line x1="19.925" style="fill:none;stroke:#000000;stroke-width:0.7;stroke-linecap:round;" x2="19.925" y2="-25.427" y1="-25.427"/>
  <line x1="23.225" style="fill:none;stroke:#000000;stroke-width:0.7;stroke-linecap:round;" x2="23.225" y2="-28.506" y1="-28.506"/>
  <line x1="24.215" style="fill:none;stroke:#000000;stroke-width:0.7;stroke-linecap:round;" x2="24.215" y2="-31.807" y1="-31.807"/>
  <line x1="27.075" style="fill:none;stroke:#000000;stroke-width:0.7;stroke-linecap:round;" x2="27.075" y2="-29.167" y1="-29.167"/>
  <line x1="24.325" style="fill:none;stroke:#000000;stroke-width:0.7;stroke-linecap:round;" x2="24.325" y2="-25.427" y1="-25.427"/>
  <line x1="28.725" style="fill:none;stroke:#000000;stroke-width:0.7;stroke-linecap:round;" x2="28.725" y2="-25.427" y1="-25.427"/>
  <line x1="32.245" style="fill:none;stroke:#000000;stroke-width:0.7;stroke-linecap:round;" x2="32.245" y2="-27.517" y1="-27.517"/>
  <line x1="34.445" style="fill:none;stroke:#000000;stroke-width:0.7;stroke-linecap:round;" x2="34.445" y2="-25.206" y1="-25.206"/>
  <line x1="16.295" style="fill:none;stroke:#000000;stroke-width:0.7;stroke-linecap:round;" x2="16.295" y2="-22.896" y1="-22.896"/>
  <line x1="14.425" style="fill:none;stroke:#000000;stroke-width:0.7;stroke-linecap:round;" x2="14.425" y2="-19.927" y1="-19.927"/>
  <line x1="12.225" style="fill:none;stroke:#000000;stroke-width:0.7;stroke-linecap:round;" x2="12.225" y2="-22.896" y1="-22.896"/>
  <line x1="10.904" style="fill:none;stroke:#000000;stroke-width:0.7;stroke-linecap:round;" x2="10.904" y2="-18.716" y1="-18.716"/>
  <line x1="8.595" style="fill:none;stroke:#000000;stroke-width:0.7;stroke-linecap:round;" x2="8.595" y2="-21.137" y1="-21.137"/>
  <line x1="6.725" style="fill:none;stroke:#000000;stroke-width:0.7;stroke-linecap:round;" x2="6.725" y2="-23.776" y1="-23.776"/>
  <line x1="6.615" style="fill:none;stroke:#000000;stroke-width:0.7;stroke-linecap:round;" x2="6.615" y2="-18.387" y1="-18.387"/>
  <line x1="4.305" style="fill:none;stroke:#000000;stroke-width:0.7;stroke-linecap:round;" x2="4.305" y2="-21.137" y1="-21.137"/>
  <line x1="1.114" style="fill:none;stroke:#000000;stroke-width:0.7;stroke-linecap:round;" x2="1.114" y2="-23.006" y1="-23.006"/>
  <line x1="18.614" style="fill:none;stroke:#000000;stroke-width:0.7;stroke-linecap:round;" x2="18.614" y2="-42.89" y1="-42.89"/>
  <line x1="2.281" style="fill:none;stroke:#000000;stroke-width:0.7;stroke-linecap:round;" x2="2.281" y2="-19.057" y1="-19.057"/>
  <line x1="53.114" style="fill:none;stroke:#000000;stroke-width:0.7;stroke-linecap:round;" x2="53.114" y2="-40.223" y1="-40.223"/>
  <line x1="4.948" style="fill:none;stroke:#000000;stroke-width:0.7;stroke-linecap:round;" x2="4.948" y2="-14.557" y1="-14.557"/>
  <line x1="5.448" style="fill:none;stroke:#000000;stroke-width:0.7;stroke-linecap:round;" x2="5.448" y2="-45.723" y1="-45.723"/>
  <line x1="3.425" style="fill:none;stroke:#000000;stroke-width:0.7;stroke-linecap:round;" x2="3.425" y2="-9.366" y1="-9.366"/>
  <line x1="6.394" style="fill:none;stroke:#000000;stroke-width:0.7;stroke-linecap:round;" x2="6.394" y2="-12.116" y1="-12.116"/>
  <line x1="8.375" style="fill:none;stroke:#000000;stroke-width:0.7;stroke-linecap:round;" x2="8.375" y2="-9.586" y1="-9.586"/>
  <line x1="10.575" style="fill:none;stroke:#000000;stroke-width:0.7;stroke-linecap:round;" x2="10.575" y2="-13.436" y1="-13.436"/>
  <line x1="14.975" style="fill:none;stroke:#000000;stroke-width:0.7;stroke-linecap:round;" x2="14.975" y2="-14.977" y1="-14.977"/>
  <line x1="12.115" style="fill:none;stroke:#000000;stroke-width:0.7;stroke-linecap:round;" x2="12.115" y2="-9.146" y1="-9.146"/>
  <line x1="15.085" style="fill:none;stroke:#000000;stroke-width:0.7;stroke-linecap:round;" x2="15.085" y2="-11.566" y1="-11.566"/>
  <line x1="18.604" style="fill:none;stroke:#000000;stroke-width:0.7;stroke-linecap:round;" x2="18.604" y2="-11.457" y1="-11.457"/>
  <line x1="19.595" style="fill:none;stroke:#000000;stroke-width:0.7;stroke-linecap:round;" x2="19.595" y2="-14.977" y1="-14.977"/>
  <line x1="23.555" style="fill:none;stroke:#000000;stroke-width:0.7;stroke-linecap:round;" x2="23.555" y2="-14.426" y1="-14.426"/>
  <line x1="22.125" style="fill:none;stroke:#000000;stroke-width:0.7;stroke-linecap:round;" x2="22.125" y2="-11.787" y1="-11.787"/>
  <line x1="27.948" style="fill:none;stroke:#000000;stroke-width:0.7;stroke-linecap:round;" x2="27.948" y2="-13.223" y1="-13.223"/>
  <line x1="0.948" style="fill:none;stroke:#000000;stroke-width:0.7;stroke-linecap:round;" x2="0.948" y2="-15.723" y1="-15.723"/>
  <line x1="1.114" style="fill:none;stroke:#000000;stroke-width:0.7;stroke-linecap:round;" x2="1.114" y2="-11.557" y1="-11.557"/>
  <line x1="34.281" style="fill:none;stroke:#000000;stroke-width:0.7;stroke-linecap:round;" x2="34.281" y2="-12.39" y1="-12.39"/>
  <line x1="25.781" style="fill:none;stroke:#000000;stroke-width:0.7;stroke-linecap:round;" x2="25.781" y2="-43.223" y1="-43.223"/>
  <line x1="38.948" style="fill:none;stroke:#000000;stroke-width:0.7;stroke-linecap:round;" x2="38.948" y2="-13.39" y1="-13.39"/>
  <line x1="22.448" style="fill:none;stroke:#000000;stroke-width:0.7;stroke-linecap:round;" x2="22.448" y2="-44.723" y1="-44.723"/>
  <line x1="43.465" style="fill:none;stroke:#000000;stroke-width:0.7;stroke-linecap:round;" x2="43.465" y2="-15.196" y1="-15.196"/>
  <line x1="44.895" style="fill:none;stroke:#000000;stroke-width:0.7;stroke-linecap:round;" x2="44.895" y2="-12.336" y1="-12.336"/>
  <line x1="47.975" style="fill:none;stroke:#000000;stroke-width:0.7;stroke-linecap:round;" x2="47.975" y2="-14.426" y1="-14.426"/>
  <line x1="51.604" style="fill:none;stroke:#000000;stroke-width:0.7;stroke-linecap:round;" x2="51.604" y2="-16.407" y1="-16.407"/>
  <line x1="52.375" style="fill:none;stroke:#000000;stroke-width:0.7;stroke-linecap:round;" x2="52.375" y2="-13.546" y1="-13.546"/>
  <line x1="51.948" style="fill:none;stroke:#000000;stroke-width:0.7;stroke-linecap:round;" x2="51.948" y2="-9.39" y1="-9.39"/>
  <line x1="48.965" style="fill:none;stroke:#000000;stroke-width:0.7;stroke-linecap:round;" x2="48.965" y2="-11.127" y1="-11.127"/>
  <line x1="45.885" style="fill:none;stroke:#000000;stroke-width:0.7;stroke-linecap:round;" x2="45.885" y2="-8.377" y1="-8.377"/>
  <line x1="29.948" style="fill:none;stroke:#000000;stroke-width:0.7;stroke-linecap:round;" x2="29.948" y2="-43.057" y1="-43.057"/>
  <line x1="10.281" style="fill:none;stroke:#000000;stroke-width:0.7;stroke-linecap:round;" x2="10.281" y2="-48.723" y1="-48.723"/>
  <line x1="9.114" style="fill:none;stroke:#000000;stroke-width:0.7;stroke-linecap:round;" x2="9.114" y2="-44.89" y1="-44.89"/>
  <line x1="51.715" style="fill:none;stroke:#000000;stroke-width:0.7;stroke-linecap:round;" x2="51.715" y2="-6.176" y1="-6.176"/>
  <line x1="52.781" style="fill:none;stroke:#000000;stroke-width:0.7;stroke-linecap:round;" x2="52.781" y2="-3.39" y1="-3.39"/>
  <line x1="50.448" style="fill:none;stroke:#000000;stroke-width:0.7;stroke-linecap:round;" x2="50.448" y2="-1.39" y1="-1.39"/>
  <line x1="48.525" style="fill:none;stroke:#000000;stroke-width:0.7;stroke-linecap:round;" x2="48.525" y2="-3.427" y1="-3.427"/>
  <line x1="45.555" style="fill:none;stroke:#000000;stroke-width:0.7;stroke-linecap:round;" x2="45.555" y2="-1.227" y1="-1.227"/>
  <line x1="45.555" style="fill:none;stroke:#000000;stroke-width:0.7;stroke-linecap:round;" x2="45.555" y2="-4.966" y1="-4.966"/>
  <line x1="42.035" style="fill:none;stroke:#000000;stroke-width:0.7;stroke-linecap:round;" x2="42.035" y2="-7.386" y1="-7.386"/>
  <line x1="19.781" style="fill:none;stroke:#000000;stroke-width:0.7;stroke-linecap:round;" x2="19.781" y2="-53.057" y1="-53.057"/>
  <line x1="40.715" style="fill:none;stroke:#000000;stroke-width:0.7;stroke-linecap:round;" x2="40.715" y2="-1.557" y1="-1.557"/>
  <line x1="16.114" style="fill:none;stroke:#000000;stroke-width:0.7;stroke-linecap:round;" x2="16.114" y2="-46.723" y1="-46.723"/>
  <line x1="39.395" style="fill:none;stroke:#000000;stroke-width:0.7;stroke-linecap:round;" x2="39.395" y2="-8.926" y1="-8.926"/>
  <line x1="39.114" style="fill:none;stroke:#000000;stroke-width:0.7;stroke-linecap:round;" x2="39.114" y2="-4.89" y1="-4.89"/>
  <line x1="19.948" style="fill:none;stroke:#000000;stroke-width:0.7;stroke-linecap:round;" x2="19.948" y2="-47.89" y1="-47.89"/>
  <line x1="22.781" style="fill:none;stroke:#000000;stroke-width:0.7;stroke-linecap:round;" x2="22.781" y2="-50.89" y1="-50.89"/>
  <line x1="17.448" style="fill:none;stroke:#000000;stroke-width:0.7;stroke-linecap:round;" x2="17.448" y2="-51.223" y1="-51.223"/>
  <line x1="13.781" style="fill:none;stroke:#000000;stroke-width:0.7;stroke-linecap:round;" x2="13.781" y2="-50.223" y1="-50.223"/>
  <line x1="10.281" style="fill:none;stroke:#000000;stroke-width:0.7;stroke-linecap:round;" x2="10.281" y2="-52.39" y1="-52.39"/>
  <line x1="6.781" style="fill:none;stroke:#000000;stroke-width:0.7;stroke-linecap:round;" x2="6.781" y2="-48.223" y1="-48.223"/>
  <line x1="2.114" style="fill:none;stroke:#000000;stroke-width:0.7;stroke-linecap:round;" x2="2.114" y2="-47.723" y1="-47.723"/>
  <line x1="2.114" style="fill:none;stroke:#000000;stroke-width:0.7;stroke-linecap:round;" x2="2.114" y2="-52.39" y1="-52.39"/>
  <line x1="5.448" style="fill:none;stroke:#000000;stroke-width:0.7;stroke-linecap:round;" x2="5.448" y2="-53.39" y1="-53.39"/>
  <line x1="27.448" style="fill:none;stroke:#000000;stroke-width:0.7;stroke-linecap:round;" x2="27.448" y2="-50.723" y1="-50.723"/>
  <line x1="32.281" style="fill:none;stroke:#000000;stroke-width:0.7;stroke-linecap:round;" x2="32.281" y2="-48.223" y1="-48.223"/>
  <line x1="32.114" style="fill:none;stroke:#000000;stroke-width:0.7;stroke-linecap:round;" x2="32.114" y2="-52.057" y1="-52.057"/>
  <line x1="25.614" style="fill:none;stroke:#000000;stroke-width:0.7;stroke-linecap:round;" x2="25.614" y2="-53.39" y1="-53.39"/>
  <line x1="36.281" style="fill:none;stroke:#000000;stroke-width:0.7;stroke-linecap:round;" x2="36.281" y2="-50.39" y1="-50.39"/>
  <line x1="37.781" style="fill:none;stroke:#000000;stroke-width:0.7;stroke-linecap:round;" x2="37.781" y2="-45.723" y1="-45.723"/>
  <line x1="40.781" style="fill:none;stroke:#000000;stroke-width:0.7;stroke-linecap:round;" x2="40.781" y2="-49.223" y1="-49.223"/>
  <line x1="42.114" style="fill:none;stroke:#000000;stroke-width:0.7;stroke-linecap:round;" x2="42.114" y2="-44.89" y1="-44.89"/>
  <line x1="45.114" style="fill:none;stroke:#000000;stroke-width:0.7;stroke-linecap:round;" x2="45.114" y2="-47.723" y1="-47.723"/>
  <line x1="43.114" style="fill:none;stroke:#000000;stroke-width:0.7;stroke-linecap:round;" x2="43.114" y2="-52.723" y1="-52.723"/>
  <line x1="38.281" style="fill:none;stroke:#000000;stroke-width:0.7;stroke-linecap:round;" x2="38.281" y2="-53.223" y1="-53.223"/>
  <line x1="47.614" style="fill:none;stroke:#000000;stroke-width:0.7;stroke-linecap:round;" x2="47.614" y2="-51.057" y1="-51.057"/>
  <line x1="47.281" style="fill:none;stroke:#000000;stroke-width:0.7;stroke-linecap:round;" x2="47.281" y2="-44.39" y1="-44.39"/>
  <line x1="49.781" style="fill:none;stroke:#000000;stroke-width:0.7;stroke-linecap:round;" x2="49.781" y2="-48.057" y1="-48.057"/>
  <line x1="52.114" style="fill:none;stroke:#000000;stroke-width:0.7;stroke-linecap:round;" x2="52.114" y2="-44.223" y1="-44.223"/>
  <line x1="52.781" style="fill:none;stroke:#000000;stroke-width:0.7;stroke-linecap:round;" x2="52.781" y2="-51.557" y1="-51.557"/>
  <line x1="49.781" style="fill:none;stroke:#000000;stroke-width:0.7;stroke-linecap:round;" x2="49.781" y2="-53.057" y1="-53.057"/>
  <line x1="37.281" style="fill:none;stroke:#000000;stroke-width:0.7;stroke-linecap:round;" x2="37.281" y2="-2.724" y1="-2.724"/>
  <line x1="35.435" style="fill:none;stroke:#000000;stroke-width:0.7;stroke-linecap:round;" x2="35.435" y2="-7.497" y1="-7.497"/>
  <line x1="32.575" style="fill:none;stroke:#000000;stroke-width:0.7;stroke-linecap:round;" x2="32.575" y2="-9.366" y1="-9.366"/>
  <line x1="32.795" style="fill:none;stroke:#000000;stroke-width:0.7;stroke-linecap:round;" x2="32.795" y2="-5.517" y1="-5.517"/>
  <line x1="34.335" style="fill:none;stroke:#000000;stroke-width:0.7;stroke-linecap:round;" x2="34.335" y2="-1.227" y1="-1.227"/>
  <line x1="29.604" style="fill:none;stroke:#000000;stroke-width:0.7;stroke-linecap:round;" x2="29.604" y2="-6.946" y1="-6.946"/>
  <line x1="28.065" style="fill:none;stroke:#000000;stroke-width:0.7;stroke-linecap:round;" x2="28.065" y2="-10.026" y1="-10.026"/>
  <line x1="24.875" style="fill:none;stroke:#000000;stroke-width:0.7;stroke-linecap:round;" x2="24.875" y2="-7.937" y1="-7.937"/>
  <line x1="26.635" style="fill:none;stroke:#000000;stroke-width:0.7;stroke-linecap:round;" x2="26.635" y2="-4.526" y1="-4.526"/>
  <line x1="22.125" style="fill:none;stroke:#000000;stroke-width:0.7;stroke-linecap:round;" x2="22.125" y2="-5.736" y1="-5.736"/>
  <line x1="18.825" style="fill:none;stroke:#000000;stroke-width:0.7;stroke-linecap:round;" x2="18.825" y2="-8.156" y1="-8.156"/>
  <line x1="17.395" style="fill:none;stroke:#000000;stroke-width:0.7;stroke-linecap:round;" x2="17.395" y2="-4.526" y1="-4.526"/>
  <line x1="15.194" style="fill:none;stroke:#000000;stroke-width:0.7;stroke-linecap:round;" x2="15.194" y2="-7.606" y1="-7.606"/>
  <line x1="19.154" style="fill:none;stroke:#000000;stroke-width:0.7;stroke-linecap:round;" x2="19.154" y2="-1.996" y1="-1.996"/>
  <line x1="23.665" style="fill:none;stroke:#000000;stroke-width:0.7;stroke-linecap:round;" x2="23.665" y2="-1.007" y1="-1.007"/>
  <line x1="29.604" style="fill:none;stroke:#000000;stroke-width:0.7;stroke-linecap:round;" x2="29.604" y2="-1.996" y1="-1.996"/>
  <line x1="14.205" style="fill:none;stroke:#000000;stroke-width:0.7;stroke-linecap:round;" x2="14.205" y2="-1.116" y1="-1.116"/>
  <line x1="12.995" style="fill:none;stroke:#000000;stroke-width:0.7;stroke-linecap:round;" x2="12.995" y2="-4.747" y1="-4.747"/>
  <line x1="9.255" style="fill:none;stroke:#000000;stroke-width:0.7;stroke-linecap:round;" x2="9.255" y2="-5.736" y1="-5.736"/>
  <line x1="9.365" style="fill:none;stroke:#000000;stroke-width:0.7;stroke-linecap:round;" x2="9.365" y2="-1.116" y1="-1.116"/>
  <line x1="6.615" style="fill:none;stroke:#000000;stroke-width:0.7;stroke-linecap:round;" x2="6.615" y2="-3.647" y1="-3.647"/>
  <line x1="2.215" style="fill:none;stroke:#000000;stroke-width:0.7;stroke-linecap:round;" x2="2.215" y2="-5.296" y1="-5.296"/>
  <line x1="2.765" style="fill:none;stroke:#000000;stroke-width:0.7;stroke-linecap:round;" x2="2.765" y2="-1.666" y1="-1.666"/>
  <line x1="39.114" style="fill:none;stroke:#000000;stroke-width:0.7;stroke-linecap:round;" x2="39.114" y2="-34.723" y1="-34.723"/>
  <line x1="40.448" style="fill:none;stroke:#000000;stroke-width:0.7;stroke-linecap:round;" x2="40.448" y2="-37.557" y1="-37.557"/>
  <line x1="44.455" style="fill:none;stroke:#000000;stroke-width:0.7;stroke-linecap:round;" x2="44.455" y2="-34.887" y1="-34.887"/>
  <line x1="51.165" style="fill:none;stroke:#000000;stroke-width:0.7;stroke-linecap:round;" x2="51.165" y2="-31.146" y1="-31.146"/>
  <line x1="46.435" style="fill:none;stroke:#000000;stroke-width:0.7;stroke-linecap:round;" x2="46.435" y2="-31.586" y1="-31.586"/>
  <line x1="42.035" style="fill:none;stroke:#000000;stroke-width:0.7;stroke-linecap:round;" x2="42.035" y2="-32.137" y1="-32.137"/>
  <line x1="38.075" style="fill:none;stroke:#000000;stroke-width:0.7;stroke-linecap:round;" x2="38.075" y2="-32.026" y1="-32.026"/>
  <line x1="34.115" style="fill:none;stroke:#000000;stroke-width:0.7;stroke-linecap:round;" x2="34.115" y2="-30.816" y1="-30.816"/>
  <line x1="32.685" style="fill:none;stroke:#000000;stroke-width:0.7;stroke-linecap:round;" x2="32.685" y2="-33.347" y1="-33.347"/>
  <line x1="36.755" style="fill:none;stroke:#000000;stroke-width:0.7;stroke-linecap:round;" x2="36.755" y2="-28.287" y1="-28.287"/>
  <line x1="39.395" style="fill:none;stroke:#000000;stroke-width:0.7;stroke-linecap:round;" x2="39.395" y2="-25.756" y1="-25.756"/>
  <line x1="42.805" style="fill:none;stroke:#000000;stroke-width:0.7;stroke-linecap:round;" x2="42.805" y2="-27.407" y1="-27.407"/>
  <line x1="42.805" style="fill:none;stroke:#000000;stroke-width:0.7;stroke-linecap:round;" x2="42.805" y2="-23.997" y1="-23.997"/>
  <line x1="46.215" style="fill:none;stroke:#000000;stroke-width:0.7;stroke-linecap:round;" x2="46.215" y2="-24.546" y1="-24.546"/>
  <line x1="46.985" style="fill:none;stroke:#000000;stroke-width:0.7;stroke-linecap:round;" x2="46.985" y2="-27.736" y1="-27.736"/>
  <line x1="49.515" style="fill:none;stroke:#000000;stroke-width:0.7;stroke-linecap:round;" x2="49.515" y2="-25.867" y1="-25.867"/>
  <line x1="52.375" style="fill:none;stroke:#000000;stroke-width:0.7;stroke-linecap:round;" x2="52.375" y2="-27.956" y1="-27.956"/>
  <line x1="51.825" style="fill:none;stroke:#000000;stroke-width:0.7;stroke-linecap:round;" x2="51.825" y2="-24.216" y1="-24.216"/>
  <line x1="52.375" style="fill:none;stroke:#000000;stroke-width:0.7;stroke-linecap:round;" x2="52.375" y2="-20.477" y1="-20.477"/>
  <line x1="49.845" style="fill:none;stroke:#000000;stroke-width:0.7;stroke-linecap:round;" x2="49.845" y2="-19.267" y1="-19.267"/>
  <line x1="25.448" style="fill:none;stroke:#000000;stroke-width:0.7;stroke-linecap:round;" x2="25.448" y2="-48.223" y1="-48.223"/>
  <line x1="48.281" style="fill:none;stroke:#000000;stroke-width:0.7;stroke-linecap:round;" x2="48.281" y2="-22.057" y1="-22.057"/>
  <line x1="45.614" style="fill:none;stroke:#000000;stroke-width:0.7;stroke-linecap:round;" x2="45.614" y2="-19.723" y1="-19.723"/>
  <line x1="34.114" style="fill:none;stroke:#000000;stroke-width:0.7;stroke-linecap:round;" x2="34.114" y2="-44.723" y1="-44.723"/>
  <line x1="41.375" style="fill:none;stroke:#000000;stroke-width:0.7;stroke-linecap:round;" x2="41.375" y2="-20.477" y1="-20.477"/>
  <line x1="38.295" style="fill:none;stroke:#000000;stroke-width:0.7;stroke-linecap:round;" x2="38.295" y2="-21.577" y1="-21.577"/>
  <line x1="38.955" style="fill:none;stroke:#000000;stroke-width:0.7;stroke-linecap:round;" x2="38.955" y2="-18.057" y1="-18.057"/>
  <line x1="35.325" style="fill:none;stroke:#000000;stroke-width:0.7;stroke-linecap:round;" x2="35.325" y2="-17.287" y1="-17.287"/>
  <line x1="34.665" style="fill:none;stroke:#000000;stroke-width:0.7;stroke-linecap:round;" x2="34.665" y2="-20.477" y1="-20.477"/>
  <line x1="30.925" style="fill:none;stroke:#000000;stroke-width:0.7;stroke-linecap:round;" x2="30.925" y2="-20.477" y1="-20.477"/>
  <line x1="31.448" style="fill:none;stroke:#000000;stroke-width:0.7;stroke-linecap:round;" x2="31.448" y2="-15.223" y1="-15.223"/>
  <line x1="27.185" style="fill:none;stroke:#000000;stroke-width:0.7;stroke-linecap:round;" x2="27.185" y2="-21.247" y1="-21.247"/>
  <line x1="28.065" style="fill:none;stroke:#000000;stroke-width:0.7;stroke-linecap:round;" x2="28.065" y2="-17.066" y1="-17.066"/>
  <line x1="24.984" style="fill:none;stroke:#000000;stroke-width:0.7;stroke-linecap:round;" x2="24.984" y2="-18.167" y1="-18.167"/>
  <line x1="22.785" style="fill:none;stroke:#000000;stroke-width:0.7;stroke-linecap:round;" x2="22.785" y2="-20.917" y1="-20.917"/>
  <line x1="20.585" style="fill:none;stroke:#000000;stroke-width:0.7;stroke-linecap:round;" x2="20.585" y2="-17.727" y1="-17.727"/>
  <line x1="17.065" style="fill:none;stroke:#000000;stroke-width:0.7;stroke-linecap:round;" x2="17.065" y2="-18.497" y1="-18.497"/>
  <line x1="19.154" style="fill:none;stroke:#000000;stroke-width:0.7;stroke-linecap:round;" x2="19.154" y2="-21.687" y1="-21.687"/>
  <rect style="fill:none;" y="-54.125" height="54.125" width="54.125"/>
 </g>
</svg>
