<?xml version="1.0"?>
<!-- Converted with SVG Converter - Version 0.9.5 (Compiled Fri Feb 21 09:53:38 2020) - Copyright (C) 2011 Nokia -->
<svg xmlns="http://www.w3.org/2000/svg" height="54.125" x="0px" version="1.1" xml:space="preserve" xmlns:xlink="http://www.w3.org/1999/xlink" width="54.125" viewBox="0.024 -54.125 54.125 54.125" baseProfile="tiny" y="0px">
 <g>
  <rect height="54.125" x="0.024" width="54.125" style="fill:none;" y="-54.125"/>
  <line x1="50.31" y1="-41.433" y2="-41.433" x2="50.31" style="fill:none;stroke:#000000;stroke-width:0.7;stroke-linecap:round;"/>
  <line x1="46.02" y1="-41.103" y2="-41.103" x2="46.02" style="fill:none;stroke:#000000;stroke-width:0.7;stroke-linecap:round;"/>
  <line x1="51.409" y1="-37.528" y2="-37.528" x2="51.409" style="fill:none;stroke:#000000;stroke-width:0.7;stroke-linecap:round;"/>
  <line x1="47.339" y1="-37.198" y2="-37.198" x2="47.339" style="fill:none;stroke:#000000;stroke-width:0.7;stroke-linecap:round;"/>
  <line x1="48.879" y1="-34.228" y2="-34.228" x2="48.879" style="fill:none;stroke:#000000;stroke-width:0.7;stroke-linecap:round;"/>
  <line x1="52.509" y1="-33.788" y2="-33.788" x2="52.509" style="fill:none;stroke:#000000;stroke-width:0.7;stroke-linecap:round;"/>
  <line x1="39.472" y1="-42.391" y2="-42.391" x2="39.472" style="fill:none;stroke:#000000;stroke-width:0.7;stroke-linecap:round;"/>
  <line x1="43.972" y1="-38.224" y2="-38.224" x2="43.972" style="fill:none;stroke:#000000;stroke-width:0.7;stroke-linecap:round;"/>
  <line x1="34.306" y1="-41.558" y2="-41.558" x2="34.306" style="fill:none;stroke:#000000;stroke-width:0.7;stroke-linecap:round;"/>
  <line x1="35.472" y1="-38.058" y2="-38.058" x2="35.472" style="fill:none;stroke:#000000;stroke-width:0.7;stroke-linecap:round;"/>
  <line x1="28.529" y1="-39.508" y2="-39.508" x2="28.529" style="fill:none;stroke:#000000;stroke-width:0.7;stroke-linecap:round;"/>
  <line x1="32.599" y1="-36.538" y2="-36.538" x2="32.599" style="fill:none;stroke:#000000;stroke-width:0.7;stroke-linecap:round;"/>
  <line x1="30.179" y1="-30.598" y2="-30.598" x2="30.179" style="fill:none;stroke:#000000;stroke-width:0.7;stroke-linecap:round;"/>
  <line x1="10.982" y1="-33.334" y2="-33.334" x2="10.982" style="fill:none;stroke:#000000;stroke-width:0.7;stroke-linecap:round;"/>
  <line x1="26.982" y1="-36" y2="-36" x2="26.982" style="fill:none;stroke:#000000;stroke-width:0.7;stroke-linecap:round;"/>
  <line x1="24.129" y1="-40.058" y2="-40.058" x2="24.129" style="fill:none;stroke:#000000;stroke-width:0.7;stroke-linecap:round;"/>
  <line x1="21.709" y1="-35.768" y2="-35.768" x2="21.709" style="fill:none;stroke:#000000;stroke-width:0.7;stroke-linecap:round;"/>
  <line x1="20.499" y1="-39.178" y2="-39.178" x2="20.499" style="fill:none;stroke:#000000;stroke-width:0.7;stroke-linecap:round;"/>
  <line x1="15.815" y1="-36.167" y2="-36.167" x2="15.815" style="fill:none;stroke:#000000;stroke-width:0.7;stroke-linecap:round;"/>
  <line x1="15.769" y1="-40.278" y2="-40.278" x2="15.769" style="fill:none;stroke:#000000;stroke-width:0.7;stroke-linecap:round;"/>
  <line x1="11.806" y1="-37.558" y2="-37.558" x2="11.806" style="fill:none;stroke:#000000;stroke-width:0.7;stroke-linecap:round;"/>
  <line x1="8.509" y1="-40.938" y2="-40.938" x2="8.509" style="fill:none;stroke:#000000;stroke-width:0.7;stroke-linecap:round;"/>
  <line x1="12.69" y1="-42" y2="-42" x2="12.69" style="fill:none;stroke:#000000;stroke-width:0.7;stroke-linecap:round;"/>
  <line x1="1.524" y1="-42.334" y2="-42.334" x2="1.524" style="fill:none;stroke:#000000;stroke-width:0.7;stroke-linecap:round;"/>
  <line x1="1.469" y1="-35.988" y2="-35.988" x2="1.469" style="fill:none;stroke:#000000;stroke-width:0.7;stroke-linecap:round;"/>
  <line x1="5.306" y1="-37.558" y2="-37.558" x2="5.306" style="fill:none;stroke:#000000;stroke-width:0.7;stroke-linecap:round;"/>
  <line x1="9.059" y1="-36.208" y2="-36.208" x2="9.059" style="fill:none;stroke:#000000;stroke-width:0.7;stroke-linecap:round;"/>
  <line x1="7.629" y1="-32.578" y2="-32.578" x2="7.629" style="fill:none;stroke:#000000;stroke-width:0.7;stroke-linecap:round;"/>
  <line x1="3.339" y1="-32.578" y2="-32.578" x2="3.339" style="fill:none;stroke:#000000;stroke-width:0.7;stroke-linecap:round;"/>
  <line x1="13.024" y1="-45.667" y2="-45.667" x2="13.024" style="fill:none;stroke:#000000;stroke-width:0.7;stroke-linecap:round;"/>
  <line x1="1.029" y1="-29.498" y2="-29.498" x2="1.029" style="fill:none;stroke:#000000;stroke-width:0.7;stroke-linecap:round;"/>
  <line x1="1.249" y1="-26.638" y2="-26.638" x2="1.249" style="fill:none;stroke:#000000;stroke-width:0.7;stroke-linecap:round;"/>
  <line x1="6.419" y1="-26.417" y2="-26.417" x2="6.419" style="fill:none;stroke:#000000;stroke-width:0.7;stroke-linecap:round;"/>
  <line x1="5.429" y1="-29.388" y2="-29.388" x2="5.429" style="fill:none;stroke:#000000;stroke-width:0.7;stroke-linecap:round;"/>
  <line x1="9.389" y1="-28.948" y2="-28.948" x2="9.389" style="fill:none;stroke:#000000;stroke-width:0.7;stroke-linecap:round;"/>
  <line x1="12.689" y1="-31.038" y2="-31.038" x2="12.689" style="fill:none;stroke:#000000;stroke-width:0.7;stroke-linecap:round;"/>
  <line x1="13.019" y1="-27.518" y2="-27.518" x2="13.019" style="fill:none;stroke:#000000;stroke-width:0.7;stroke-linecap:round;"/>
  <line x1="16.209" y1="-30.158" y2="-30.158" x2="16.209" style="fill:none;stroke:#000000;stroke-width:0.7;stroke-linecap:round;"/>
  <line x1="16.979" y1="-26.308" y2="-26.308" x2="16.979" style="fill:none;stroke:#000000;stroke-width:0.7;stroke-linecap:round;"/>
  <line x1="19.806" y1="-30.891" y2="-30.891" x2="19.806" style="fill:none;stroke:#000000;stroke-width:0.7;stroke-linecap:round;"/>
  <line x1="19.949" y1="-25.428" y2="-25.428" x2="19.949" style="fill:none;stroke:#000000;stroke-width:0.7;stroke-linecap:round;"/>
  <line x1="23.249" y1="-28.507" y2="-28.507" x2="23.249" style="fill:none;stroke:#000000;stroke-width:0.7;stroke-linecap:round;"/>
  <line x1="25.482" y1="-32" y2="-32" x2="25.482" style="fill:none;stroke:#000000;stroke-width:0.7;stroke-linecap:round;"/>
  <line x1="27.099" y1="-29.167" y2="-29.167" x2="27.099" style="fill:none;stroke:#000000;stroke-width:0.7;stroke-linecap:round;"/>
  <line x1="24.349" y1="-25.428" y2="-25.428" x2="24.349" style="fill:none;stroke:#000000;stroke-width:0.7;stroke-linecap:round;"/>
  <line x1="28.749" y1="-25.428" y2="-25.428" x2="28.749" style="fill:none;stroke:#000000;stroke-width:0.7;stroke-linecap:round;"/>
  <line x1="32.27" y1="-27.518" y2="-27.518" x2="32.27" style="fill:none;stroke:#000000;stroke-width:0.7;stroke-linecap:round;"/>
  <line x1="34.469" y1="-25.208" y2="-25.208" x2="34.469" style="fill:none;stroke:#000000;stroke-width:0.7;stroke-linecap:round;"/>
  <line x1="16.319" y1="-22.897" y2="-22.897" x2="16.319" style="fill:none;stroke:#000000;stroke-width:0.7;stroke-linecap:round;"/>
  <line x1="14.449" y1="-19.928" y2="-19.928" x2="14.449" style="fill:none;stroke:#000000;stroke-width:0.7;stroke-linecap:round;"/>
  <line x1="12.249" y1="-22.897" y2="-22.897" x2="12.249" style="fill:none;stroke:#000000;stroke-width:0.7;stroke-linecap:round;"/>
  <line x1="35.982" y1="-14.834" y2="-14.834" x2="35.982" style="fill:none;stroke:#000000;stroke-width:0.7;stroke-linecap:round;"/>
  <line x1="8.619" y1="-21.138" y2="-21.138" x2="8.619" style="fill:none;stroke:#000000;stroke-width:0.7;stroke-linecap:round;"/>
  <line x1="6.749" y1="-23.777" y2="-23.777" x2="6.749" style="fill:none;stroke:#000000;stroke-width:0.7;stroke-linecap:round;"/>
  <line x1="6.639" y1="-18.388" y2="-18.388" x2="6.639" style="fill:none;stroke:#000000;stroke-width:0.7;stroke-linecap:round;"/>
  <line x1="4.329" y1="-21.138" y2="-21.138" x2="4.329" style="fill:none;stroke:#000000;stroke-width:0.7;stroke-linecap:round;"/>
  <line x1="1.139" y1="-23.007" y2="-23.007" x2="1.139" style="fill:none;stroke:#000000;stroke-width:0.7;stroke-linecap:round;"/>
  <line x1="18.639" y1="-42.891" y2="-42.891" x2="18.639" style="fill:none;stroke:#000000;stroke-width:0.7;stroke-linecap:round;"/>
  <line x1="2.306" y1="-19.058" y2="-19.058" x2="2.306" style="fill:none;stroke:#000000;stroke-width:0.7;stroke-linecap:round;"/>
  <line x1="53.139" y1="-40.224" y2="-40.224" x2="53.139" style="fill:none;stroke:#000000;stroke-width:0.7;stroke-linecap:round;"/>
  <line x1="4.972" y1="-14.558" y2="-14.558" x2="4.972" style="fill:none;stroke:#000000;stroke-width:0.7;stroke-linecap:round;"/>
  <line x1="5.472" y1="-45.724" y2="-45.724" x2="5.472" style="fill:none;stroke:#000000;stroke-width:0.7;stroke-linecap:round;"/>
  <line x1="3.449" y1="-9.367" y2="-9.367" x2="3.449" style="fill:none;stroke:#000000;stroke-width:0.7;stroke-linecap:round;"/>
  <line x1="6.419" y1="-12.117" y2="-12.117" x2="6.419" style="fill:none;stroke:#000000;stroke-width:0.7;stroke-linecap:round;"/>
  <line x1="8.399" y1="-9.587" y2="-9.587" x2="8.399" style="fill:none;stroke:#000000;stroke-width:0.7;stroke-linecap:round;"/>
  <line x1="10.599" y1="-13.438" y2="-13.438" x2="10.599" style="fill:none;stroke:#000000;stroke-width:0.7;stroke-linecap:round;"/>
  <line x1="14.999" y1="-14.977" y2="-14.977" x2="14.999" style="fill:none;stroke:#000000;stroke-width:0.7;stroke-linecap:round;"/>
  <line x1="12.139" y1="-9.148" y2="-9.148" x2="12.139" style="fill:none;stroke:#000000;stroke-width:0.7;stroke-linecap:round;"/>
  <line x1="15.109" y1="-11.567" y2="-11.567" x2="15.109" style="fill:none;stroke:#000000;stroke-width:0.7;stroke-linecap:round;"/>
  <line x1="18.629" y1="-11.458" y2="-11.458" x2="18.629" style="fill:none;stroke:#000000;stroke-width:0.7;stroke-linecap:round;"/>
  <line x1="19.619" y1="-14.977" y2="-14.977" x2="19.619" style="fill:none;stroke:#000000;stroke-width:0.7;stroke-linecap:round;"/>
  <line x1="23.579" y1="-14.428" y2="-14.428" x2="23.579" style="fill:none;stroke:#000000;stroke-width:0.7;stroke-linecap:round;"/>
  <line x1="22.149" y1="-11.788" y2="-11.788" x2="22.149" style="fill:none;stroke:#000000;stroke-width:0.7;stroke-linecap:round;"/>
  <line x1="29.149" y1="-12.667" y2="-12.667" x2="29.149" style="fill:none;stroke:#000000;stroke-width:0.7;stroke-linecap:round;"/>
  <line x1="0.972" y1="-15.724" y2="-15.724" x2="0.972" style="fill:none;stroke:#000000;stroke-width:0.7;stroke-linecap:round;"/>
  <line x1="1.139" y1="-11.558" y2="-11.558" x2="1.139" style="fill:none;stroke:#000000;stroke-width:0.7;stroke-linecap:round;"/>
  <line x1="34.306" y1="-12.391" y2="-12.391" x2="34.306" style="fill:none;stroke:#000000;stroke-width:0.7;stroke-linecap:round;"/>
  <line x1="25.806" y1="-43.224" y2="-43.224" x2="25.806" style="fill:none;stroke:#000000;stroke-width:0.7;stroke-linecap:round;"/>
  <line x1="38.972" y1="-13.391" y2="-13.391" x2="38.972" style="fill:none;stroke:#000000;stroke-width:0.7;stroke-linecap:round;"/>
  <line x1="22.472" y1="-44.724" y2="-44.724" x2="22.472" style="fill:none;stroke:#000000;stroke-width:0.7;stroke-linecap:round;"/>
  <line x1="43.489" y1="-15.197" y2="-15.197" x2="43.489" style="fill:none;stroke:#000000;stroke-width:0.7;stroke-linecap:round;"/>
  <line x1="44.919" y1="-12.337" y2="-12.337" x2="44.919" style="fill:none;stroke:#000000;stroke-width:0.7;stroke-linecap:round;"/>
  <line x1="47.999" y1="-14.428" y2="-14.428" x2="47.999" style="fill:none;stroke:#000000;stroke-width:0.7;stroke-linecap:round;"/>
  <line x1="51.629" y1="-16.408" y2="-16.408" x2="51.629" style="fill:none;stroke:#000000;stroke-width:0.7;stroke-linecap:round;"/>
  <line x1="52.399" y1="-13.547" y2="-13.547" x2="52.399" style="fill:none;stroke:#000000;stroke-width:0.7;stroke-linecap:round;"/>
  <line x1="50.357" y1="-9.334" y2="-9.334" x2="50.357" style="fill:none;stroke:#000000;stroke-width:0.7;stroke-linecap:round;"/>
  <line x1="48.989" y1="-11.127" y2="-11.127" x2="48.989" style="fill:none;stroke:#000000;stroke-width:0.7;stroke-linecap:round;"/>
  <line x1="45.909" y1="-8.377" y2="-8.377" x2="45.909" style="fill:none;stroke:#000000;stroke-width:0.7;stroke-linecap:round;"/>
  <line x1="29.972" y1="-43.058" y2="-43.058" x2="29.972" style="fill:none;stroke:#000000;stroke-width:0.7;stroke-linecap:round;"/>
  <line x1="10.306" y1="-48.724" y2="-48.724" x2="10.306" style="fill:none;stroke:#000000;stroke-width:0.7;stroke-linecap:round;"/>
  <line x1="9.139" y1="-44.891" y2="-44.891" x2="9.139" style="fill:none;stroke:#000000;stroke-width:0.7;stroke-linecap:round;"/>
  <line x1="51.739" y1="-6.177" y2="-6.177" x2="51.739" style="fill:none;stroke:#000000;stroke-width:0.7;stroke-linecap:round;"/>
  <line x1="52.806" y1="-3.391" y2="-3.391" x2="52.806" style="fill:none;stroke:#000000;stroke-width:0.7;stroke-linecap:round;"/>
  <line x1="50.472" y1="-1.391" y2="-1.391" x2="50.472" style="fill:none;stroke:#000000;stroke-width:0.7;stroke-linecap:round;"/>
  <line x1="48.549" y1="-3.427" y2="-3.427" x2="48.549" style="fill:none;stroke:#000000;stroke-width:0.7;stroke-linecap:round;"/>
  <line x1="45.579" y1="-1.227" y2="-1.227" x2="45.579" style="fill:none;stroke:#000000;stroke-width:0.7;stroke-linecap:round;"/>
  <line x1="45.579" y1="-4.967" y2="-4.967" x2="45.579" style="fill:none;stroke:#000000;stroke-width:0.7;stroke-linecap:round;"/>
  <line x1="42.06" y1="-7.387" y2="-7.387" x2="42.06" style="fill:none;stroke:#000000;stroke-width:0.7;stroke-linecap:round;"/>
  <line x1="19.806" y1="-53.058" y2="-53.058" x2="19.806" style="fill:none;stroke:#000000;stroke-width:0.7;stroke-linecap:round;"/>
  <line x1="40.739" y1="-1.558" y2="-1.558" x2="40.739" style="fill:none;stroke:#000000;stroke-width:0.7;stroke-linecap:round;"/>
  <line x1="16.139" y1="-46.724" y2="-46.724" x2="16.139" style="fill:none;stroke:#000000;stroke-width:0.7;stroke-linecap:round;"/>
  <line x1="39.419" y1="-8.927" y2="-8.927" x2="39.419" style="fill:none;stroke:#000000;stroke-width:0.7;stroke-linecap:round;"/>
  <line x1="39.139" y1="-4.891" y2="-4.891" x2="39.139" style="fill:none;stroke:#000000;stroke-width:0.7;stroke-linecap:round;"/>
  <line x1="19.972" y1="-47.891" y2="-47.891" x2="19.972" style="fill:none;stroke:#000000;stroke-width:0.7;stroke-linecap:round;"/>
  <line x1="22.806" y1="-50.891" y2="-50.891" x2="22.806" style="fill:none;stroke:#000000;stroke-width:0.7;stroke-linecap:round;"/>
  <line x1="17.472" y1="-51.224" y2="-51.224" x2="17.472" style="fill:none;stroke:#000000;stroke-width:0.7;stroke-linecap:round;"/>
  <line x1="13.806" y1="-50.224" y2="-50.224" x2="13.806" style="fill:none;stroke:#000000;stroke-width:0.7;stroke-linecap:round;"/>
  <line x1="10.306" y1="-52.391" y2="-52.391" x2="10.306" style="fill:none;stroke:#000000;stroke-width:0.7;stroke-linecap:round;"/>
  <line x1="6.806" y1="-48.224" y2="-48.224" x2="6.806" style="fill:none;stroke:#000000;stroke-width:0.7;stroke-linecap:round;"/>
  <line x1="2.139" y1="-47.724" y2="-47.724" x2="2.139" style="fill:none;stroke:#000000;stroke-width:0.7;stroke-linecap:round;"/>
  <line x1="2.139" y1="-52.391" y2="-52.391" x2="2.139" style="fill:none;stroke:#000000;stroke-width:0.7;stroke-linecap:round;"/>
  <line x1="5.472" y1="-53.391" y2="-53.391" x2="5.472" style="fill:none;stroke:#000000;stroke-width:0.7;stroke-linecap:round;"/>
  <line x1="29.815" y1="-50" y2="-50" x2="29.815" style="fill:none;stroke:#000000;stroke-width:0.7;stroke-linecap:round;"/>
  <line x1="32.306" y1="-48.224" y2="-48.224" x2="32.306" style="fill:none;stroke:#000000;stroke-width:0.7;stroke-linecap:round;"/>
  <line x1="32.139" y1="-52.058" y2="-52.058" x2="32.139" style="fill:none;stroke:#000000;stroke-width:0.7;stroke-linecap:round;"/>
  <line x1="25.639" y1="-53.391" y2="-53.391" x2="25.639" style="fill:none;stroke:#000000;stroke-width:0.7;stroke-linecap:round;"/>
  <line x1="36.306" y1="-50.391" y2="-50.391" x2="36.306" style="fill:none;stroke:#000000;stroke-width:0.7;stroke-linecap:round;"/>
  <line x1="37.806" y1="-45.724" y2="-45.724" x2="37.806" style="fill:none;stroke:#000000;stroke-width:0.7;stroke-linecap:round;"/>
  <line x1="40.806" y1="-49.224" y2="-49.224" x2="40.806" style="fill:none;stroke:#000000;stroke-width:0.7;stroke-linecap:round;"/>
  <line x1="42.139" y1="-44.891" y2="-44.891" x2="42.139" style="fill:none;stroke:#000000;stroke-width:0.7;stroke-linecap:round;"/>
  <line x1="45.139" y1="-47.724" y2="-47.724" x2="45.139" style="fill:none;stroke:#000000;stroke-width:0.7;stroke-linecap:round;"/>
  <line x1="43.139" y1="-52.724" y2="-52.724" x2="43.139" style="fill:none;stroke:#000000;stroke-width:0.7;stroke-linecap:round;"/>
  <line x1="38.306" y1="-53.224" y2="-53.224" x2="38.306" style="fill:none;stroke:#000000;stroke-width:0.7;stroke-linecap:round;"/>
  <line x1="45.815" y1="-50.834" y2="-50.834" x2="45.815" style="fill:none;stroke:#000000;stroke-width:0.7;stroke-linecap:round;"/>
  <line x1="47.306" y1="-44.391" y2="-44.391" x2="47.306" style="fill:none;stroke:#000000;stroke-width:0.7;stroke-linecap:round;"/>
  <line x1="49.806" y1="-48.058" y2="-48.058" x2="49.806" style="fill:none;stroke:#000000;stroke-width:0.7;stroke-linecap:round;"/>
  <line x1="52.139" y1="-44.224" y2="-44.224" x2="52.139" style="fill:none;stroke:#000000;stroke-width:0.7;stroke-linecap:round;"/>
  <line x1="52.806" y1="-51.558" y2="-51.558" x2="52.806" style="fill:none;stroke:#000000;stroke-width:0.7;stroke-linecap:round;"/>
  <line x1="46.649" y1="-53" y2="-53" x2="46.649" style="fill:none;stroke:#000000;stroke-width:0.7;stroke-linecap:round;"/>
  <line x1="37.306" y1="-2.724" y2="-2.724" x2="37.306" style="fill:none;stroke:#000000;stroke-width:0.7;stroke-linecap:round;"/>
  <line x1="35.459" y1="-7.498" y2="-7.498" x2="35.459" style="fill:none;stroke:#000000;stroke-width:0.7;stroke-linecap:round;"/>
  <line x1="32.599" y1="-9.367" y2="-9.367" x2="32.599" style="fill:none;stroke:#000000;stroke-width:0.7;stroke-linecap:round;"/>
  <line x1="32.819" y1="-5.518" y2="-5.518" x2="32.819" style="fill:none;stroke:#000000;stroke-width:0.7;stroke-linecap:round;"/>
  <line x1="34.359" y1="-1.227" y2="-1.227" x2="34.359" style="fill:none;stroke:#000000;stroke-width:0.7;stroke-linecap:round;"/>
  <line x1="29.629" y1="-6.947" y2="-6.947" x2="29.629" style="fill:none;stroke:#000000;stroke-width:0.7;stroke-linecap:round;"/>
  <line x1="28.089" y1="-10.027" y2="-10.027" x2="28.089" style="fill:none;stroke:#000000;stroke-width:0.7;stroke-linecap:round;"/>
  <line x1="24.899" y1="-7.938" y2="-7.938" x2="24.899" style="fill:none;stroke:#000000;stroke-width:0.7;stroke-linecap:round;"/>
  <line x1="26.659" y1="-4.527" y2="-4.527" x2="26.659" style="fill:none;stroke:#000000;stroke-width:0.7;stroke-linecap:round;"/>
  <line x1="22.149" y1="-5.737" y2="-5.737" x2="22.149" style="fill:none;stroke:#000000;stroke-width:0.7;stroke-linecap:round;"/>
  <line x1="18.849" y1="-8.157" y2="-8.157" x2="18.849" style="fill:none;stroke:#000000;stroke-width:0.7;stroke-linecap:round;"/>
  <line x1="15.219" y1="-7.607" y2="-7.607" x2="15.219" style="fill:none;stroke:#000000;stroke-width:0.7;stroke-linecap:round;"/>
  <line x1="19.179" y1="-1.998" y2="-1.998" x2="19.179" style="fill:none;stroke:#000000;stroke-width:0.7;stroke-linecap:round;"/>
  <line x1="23.69" y1="-1.007" y2="-1.007" x2="23.69" style="fill:none;stroke:#000000;stroke-width:0.7;stroke-linecap:round;"/>
  <line x1="29.629" y1="-1.998" y2="-1.998" x2="29.629" style="fill:none;stroke:#000000;stroke-width:0.7;stroke-linecap:round;"/>
  <line x1="14.229" y1="-1.117" y2="-1.117" x2="14.229" style="fill:none;stroke:#000000;stroke-width:0.7;stroke-linecap:round;"/>
  <line x1="13.019" y1="-4.748" y2="-4.748" x2="13.019" style="fill:none;stroke:#000000;stroke-width:0.7;stroke-linecap:round;"/>
  <line x1="9.279" y1="-5.737" y2="-5.737" x2="9.279" style="fill:none;stroke:#000000;stroke-width:0.7;stroke-linecap:round;"/>
  <line x1="9.389" y1="-1.117" y2="-1.117" x2="9.389" style="fill:none;stroke:#000000;stroke-width:0.7;stroke-linecap:round;"/>
  <line x1="6.639" y1="-3.648" y2="-3.648" x2="6.639" style="fill:none;stroke:#000000;stroke-width:0.7;stroke-linecap:round;"/>
  <line x1="2.239" y1="-5.297" y2="-5.297" x2="2.239" style="fill:none;stroke:#000000;stroke-width:0.7;stroke-linecap:round;"/>
  <line x1="2.789" y1="-1.668" y2="-1.668" x2="2.789" style="fill:none;stroke:#000000;stroke-width:0.7;stroke-linecap:round;"/>
  <line x1="39.139" y1="-34.724" y2="-34.724" x2="39.139" style="fill:none;stroke:#000000;stroke-width:0.7;stroke-linecap:round;"/>
  <line x1="40.472" y1="-37.558" y2="-37.558" x2="40.472" style="fill:none;stroke:#000000;stroke-width:0.7;stroke-linecap:round;"/>
  <line x1="44.479" y1="-34.888" y2="-34.888" x2="44.479" style="fill:none;stroke:#000000;stroke-width:0.7;stroke-linecap:round;"/>
  <line x1="51.189" y1="-31.147" y2="-31.147" x2="51.189" style="fill:none;stroke:#000000;stroke-width:0.7;stroke-linecap:round;"/>
  <line x1="46.459" y1="-31.587" y2="-31.587" x2="46.459" style="fill:none;stroke:#000000;stroke-width:0.7;stroke-linecap:round;"/>
  <line x1="38.1" y1="-32.027" y2="-32.027" x2="38.1" style="fill:none;stroke:#000000;stroke-width:0.7;stroke-linecap:round;"/>
  <line x1="34.139" y1="-30.817" y2="-30.817" x2="34.139" style="fill:none;stroke:#000000;stroke-width:0.7;stroke-linecap:round;"/>
  <line x1="32.709" y1="-33.348" y2="-33.348" x2="32.709" style="fill:none;stroke:#000000;stroke-width:0.7;stroke-linecap:round;"/>
  <line x1="36.779" y1="-28.288" y2="-28.288" x2="36.779" style="fill:none;stroke:#000000;stroke-width:0.7;stroke-linecap:round;"/>
  <line x1="39.419" y1="-25.757" y2="-25.757" x2="39.419" style="fill:none;stroke:#000000;stroke-width:0.7;stroke-linecap:round;"/>
  <line x1="42.829" y1="-27.408" y2="-27.408" x2="42.829" style="fill:none;stroke:#000000;stroke-width:0.7;stroke-linecap:round;"/>
  <line x1="42.829" y1="-23.998" y2="-23.998" x2="42.829" style="fill:none;stroke:#000000;stroke-width:0.7;stroke-linecap:round;"/>
  <line x1="46.239" y1="-24.547" y2="-24.547" x2="46.239" style="fill:none;stroke:#000000;stroke-width:0.7;stroke-linecap:round;"/>
  <line x1="47.009" y1="-27.737" y2="-27.737" x2="47.009" style="fill:none;stroke:#000000;stroke-width:0.7;stroke-linecap:round;"/>
  <line x1="49.539" y1="-25.868" y2="-25.868" x2="49.539" style="fill:none;stroke:#000000;stroke-width:0.7;stroke-linecap:round;"/>
  <line x1="52.399" y1="-27.958" y2="-27.958" x2="52.399" style="fill:none;stroke:#000000;stroke-width:0.7;stroke-linecap:round;"/>
  <line x1="51.85" y1="-24.217" y2="-24.217" x2="51.85" style="fill:none;stroke:#000000;stroke-width:0.7;stroke-linecap:round;"/>
  <line x1="52.399" y1="-20.478" y2="-20.478" x2="52.399" style="fill:none;stroke:#000000;stroke-width:0.7;stroke-linecap:round;"/>
  <line x1="48.149" y1="-19" y2="-19" x2="48.149" style="fill:none;stroke:#000000;stroke-width:0.7;stroke-linecap:round;"/>
  <line x1="25.472" y1="-48.224" y2="-48.224" x2="25.472" style="fill:none;stroke:#000000;stroke-width:0.7;stroke-linecap:round;"/>
  <line x1="48.306" y1="-22.058" y2="-22.058" x2="48.306" style="fill:none;stroke:#000000;stroke-width:0.7;stroke-linecap:round;"/>
  <line x1="34.139" y1="-44.724" y2="-44.724" x2="34.139" style="fill:none;stroke:#000000;stroke-width:0.7;stroke-linecap:round;"/>
  <line x1="41.399" y1="-20.478" y2="-20.478" x2="41.399" style="fill:none;stroke:#000000;stroke-width:0.7;stroke-linecap:round;"/>
  <line x1="38.319" y1="-21.578" y2="-21.578" x2="38.319" style="fill:none;stroke:#000000;stroke-width:0.7;stroke-linecap:round;"/>
  <line x1="38.979" y1="-18.058" y2="-18.058" x2="38.979" style="fill:none;stroke:#000000;stroke-width:0.7;stroke-linecap:round;"/>
  <line x1="35.349" y1="-17.288" y2="-17.288" x2="35.349" style="fill:none;stroke:#000000;stroke-width:0.7;stroke-linecap:round;"/>
  <line x1="34.689" y1="-20.478" y2="-20.478" x2="34.689" style="fill:none;stroke:#000000;stroke-width:0.7;stroke-linecap:round;"/>
  <line x1="30.949" y1="-20.478" y2="-20.478" x2="30.949" style="fill:none;stroke:#000000;stroke-width:0.7;stroke-linecap:round;"/>
  <line x1="31.472" y1="-15.224" y2="-15.224" x2="31.472" style="fill:none;stroke:#000000;stroke-width:0.7;stroke-linecap:round;"/>
  <line x1="27.209" y1="-21.248" y2="-21.248" x2="27.209" style="fill:none;stroke:#000000;stroke-width:0.7;stroke-linecap:round;"/>
  <line x1="28.089" y1="-17.067" y2="-17.067" x2="28.089" style="fill:none;stroke:#000000;stroke-width:0.7;stroke-linecap:round;"/>
  <line x1="25.009" y1="-18.167" y2="-18.167" x2="25.009" style="fill:none;stroke:#000000;stroke-width:0.7;stroke-linecap:round;"/>
  <line x1="22.809" y1="-20.917" y2="-20.917" x2="22.809" style="fill:none;stroke:#000000;stroke-width:0.7;stroke-linecap:round;"/>
  <line x1="20.609" y1="-17.728" y2="-17.728" x2="20.609" style="fill:none;stroke:#000000;stroke-width:0.7;stroke-linecap:round;"/>
  <line x1="17.089" y1="-18.498" y2="-18.498" x2="17.089" style="fill:none;stroke:#000000;stroke-width:0.7;stroke-linecap:round;"/>
  <line x1="19.179" y1="-21.688" y2="-21.688" x2="19.179" style="fill:none;stroke:#000000;stroke-width:0.7;stroke-linecap:round;"/>
  <line x1="15.219" y1="-3.317" y2="-3.317" x2="32.599" style="fill:none;stroke:#000000;stroke-width:0.3;"/>
  <line x1="10.561" y1="-7.501" y2="-7.501" x2="0.016" style="fill:none;stroke:#000000;stroke-width:0.3;"/>
  <line x1="42.513" y1="-10.998" y2="-10.998" x2="23.373" style="fill:none;stroke:#000000;stroke-width:0.3;"/>
  <line x1="41.399" y1="-17.196" y2="-17.196" x2="53.939" style="fill:none;stroke:#000000;stroke-width:0.3;"/>
  <line x1="23.579" y1="-16.756" y2="-16.756" x2="8.839" style="fill:none;stroke:#000000;stroke-width:0.3;"/>
  <line x1="23.359" y1="-23.777" y2="-23.777" x2="40.739" style="fill:none;stroke:#000000;stroke-width:0.3;"/>
  <line x1="19.22" y1="-46.6" y2="-46.6" x2="36.601" style="fill:none;stroke:#000000;stroke-width:0.3;"/>
  <line x1="0" y1="-50.048" y2="-50.048" x2="6.947" style="fill:none;stroke:#000000;stroke-width:0.3;"/>
  <line x1="14.999" y1="-25.317" y2="-25.317" x2="0.479" style="fill:none;stroke:#000000;stroke-width:0.3;"/>
  <line x1="39.639" y1="-29.938" y2="-29.938" x2="53.939" style="fill:none;stroke:#000000;stroke-width:0.3;"/>
  <line x1="30.701" y1="-33.823" y2="-33.823" x2="15.521" style="fill:none;stroke:#000000;stroke-width:0.3;"/>
  <line x1="14.277" y1="-39.652" y2="-39.652" x2="0.197" style="fill:none;stroke:#000000;stroke-width:0.3;"/>
  <line x1="32.317" y1="-39.872" y2="-39.872" x2="48.157" style="fill:none;stroke:#000000;stroke-width:0.3;"/>
  <line x1="54.141" y1="-7.501" y2="-7.501" x2="47.61" style="fill:none;stroke:#000000;stroke-width:0.3;"/>
  <line x1="48.014" y1="-50.048" y2="-50.048" x2="54.156" style="fill:none;stroke:#000000;stroke-width:0.3;"/>
  <line x1="50.378" y1="-49.917" y2="-52.386" x2="52.047" style="fill:none;stroke:#000000;stroke-width:0.3;"/>
  <line x1="35.878" y1="-39.873" y2="-42.341" x2="37.547" style="fill:none;stroke:#000000;stroke-width:0.3;"/>
  <line x1="2.857" y1="-39.664" y2="-42.133" x2="4.526" style="fill:none;stroke:#000000;stroke-width:0.3;"/>
  <line x1="18.545" y1="-33.878" y2="-36.347" x2="20.214" style="fill:none;stroke:#000000;stroke-width:0.3;"/>
  <line x1="42.69" y1="-30.024" y2="-32.493" x2="44.359" style="fill:none;stroke:#000000;stroke-width:0.3;"/>
  <line x1="26.503" y1="-23.809" y2="-26.277" x2="28.172" style="fill:none;stroke:#000000;stroke-width:0.3;"/>
  <line x1="3.378" y1="-25.264" y2="-27.732" x2="5.047" style="fill:none;stroke:#000000;stroke-width:0.3;"/>
  <line x1="45.024" y1="-17.101" y2="-19.569" x2="46.692" style="fill:none;stroke:#000000;stroke-width:0.3;"/>
  <line x1="12.045" y1="-16.885" y2="-19.354" x2="13.714" style="fill:none;stroke:#000000;stroke-width:0.3;"/>
  <line x1="26.857" y1="-11.113" y2="-13.582" x2="28.526" style="fill:none;stroke:#000000;stroke-width:0.3;"/>
  <line x1="51.142" y1="-7.348" y2="-9.817" x2="52.81" style="fill:none;stroke:#000000;stroke-width:0.3;"/>
  <line x1="18.357" y1="-3.363" y2="-5.832" x2="20.026" style="fill:none;stroke:#000000;stroke-width:0.3;"/>
  <line x1="22.149" y1="-46.489" y2="-48.958" x2="23.817" style="fill:none;stroke:#000000;stroke-width:0.3;"/>
 </g>
</svg>
