<?xml version="1.0"?>
<!-- Converted with SVG Converter - Version 0.9.5 (Compiled Fri Feb 21 09:53:38 2020) - Copyright (C) 2011 Nokia -->
<svg xmlns="http://www.w3.org/2000/svg" baseProfile="tiny" width="54.125" version="1.1" height="54.125" viewBox="0 -54.125 54.125 54.125" xmlns:xlink="http://www.w3.org/1999/xlink" x="0px" xml:space="preserve" y="0px">
 <g>
  <rect style="fill:none;" width="54.125" height="54.125" y="-54.125"/>
  <line style="fill:none;stroke:#000000;stroke-width:0.3;" x2="14.709" x1="5.625" y1="-52.771" y2="-52.771"/>
  <line style="fill:none;stroke:#000000;stroke-width:0.3;" x2="32.834" x1="23.75" y1="-52.771" y2="-52.771"/>
  <line style="fill:none;stroke:#000000;stroke-width:0.3;" x2="41.875" x1="50.959" y1="-52.771" y2="-52.771"/>
  <line style="fill:none;stroke:#000000;stroke-width:0.3;" x2="0" x1="6.834" y1="-49.583" y2="-49.583"/>
  <line style="fill:none;stroke:#000000;stroke-width:0.3;" x2="15.625" x1="24.709" y1="-49.583" y2="-49.583"/>
  <line style="fill:none;stroke:#000000;stroke-width:0.3;" x2="42.834" x1="33.75" y1="-49.583" y2="-49.583"/>
  <line style="fill:none;stroke:#000000;stroke-width:0.3;" x2="7.875" x1="16.959" y1="-46.583" y2="-46.583"/>
  <line style="fill:none;stroke:#000000;stroke-width:0.3;" x2="25.875" x1="34.959" y1="-46.583" y2="-46.583"/>
  <line style="fill:none;stroke:#000000;stroke-width:0.3;" x2="52.834" x1="43.75" y1="-46.583" y2="-46.583"/>
  <line style="fill:none;stroke:#000000;stroke-width:0.3;" x2="0" x1="6.834" y1="-43.708" y2="-43.708"/>
  <line style="fill:none;stroke:#000000;stroke-width:0.3;" x2="15.625" x1="24.709" y1="-43.708" y2="-43.708"/>
  <line style="fill:none;stroke:#000000;stroke-width:0.3;" x2="42.709" x1="33.625" y1="-43.708" y2="-43.708"/>
  <line style="fill:none;stroke:#000000;stroke-width:0.3;" x2="41.625" x1="50.709" y1="-40.708" y2="-40.708"/>
  <line style="fill:none;stroke:#000000;stroke-width:0.3;" x2="23.625" x1="32.709" y1="-40.708" y2="-40.708"/>
  <line style="fill:none;stroke:#000000;stroke-width:0.3;" x2="5.5" x1="14.584" y1="-40.708" y2="-40.708"/>
  <line style="fill:none;stroke:#000000;stroke-width:0.3;" x2="5.084" x1="0" y1="-37.583" y2="-37.583"/>
  <line style="fill:none;stroke:#000000;stroke-width:0.3;" x2="14" x1="23.084" y1="-37.583" y2="-37.583"/>
  <line style="fill:none;stroke:#000000;stroke-width:0.3;" x2="40.959" x1="31.875" y1="-37.583" y2="-37.583"/>
  <line style="fill:none;stroke:#000000;stroke-width:0.3;" x2="50.709" x1="41.625" y1="-34.708" y2="-34.708"/>
  <line style="fill:none;stroke:#000000;stroke-width:0.3;" x2="32.834" x1="23.75" y1="-34.708" y2="-34.708"/>
  <line style="fill:none;stroke:#000000;stroke-width:0.3;" x2="14.959" x1="5.875" y1="-34.708" y2="-34.708"/>
  <line style="fill:none;stroke:#000000;stroke-width:0.3;" x2="0" x1="4.959" y1="-31.583" y2="-31.583"/>
  <line style="fill:none;stroke:#000000;stroke-width:0.3;" x2="22.834" x1="13.75" y1="-31.583" y2="-31.583"/>
  <line style="fill:none;stroke:#000000;stroke-width:0.3;" x2="40.834" x1="31.75" y1="-31.583" y2="-31.583"/>
  <line style="fill:none;stroke:#000000;stroke-width:0.3;" x2="48.834" x1="39.75" y1="-28.583" y2="-28.583"/>
  <line style="fill:none;stroke:#000000;stroke-width:0.3;" x2="21.75" x1="30.834" y1="-28.583" y2="-28.583"/>
  <line style="fill:none;stroke:#000000;stroke-width:0.3;" x2="3.5" x1="12.584" y1="-28.583" y2="-28.583"/>
  <line style="fill:none;stroke:#000000;stroke-width:0.3;" x2="2.959" x1="0" y1="-25.458" y2="-25.458"/>
  <line style="fill:none;stroke:#000000;stroke-width:0.3;" x2="11.75" x1="20.834" y1="-25.458" y2="-25.458"/>
  <line style="fill:none;stroke:#000000;stroke-width:0.3;" x2="38.959" x1="29.875" y1="-25.458" y2="-25.458"/>
  <line style="fill:none;stroke:#000000;stroke-width:0.3;" x2="46.709" x1="37.625" y1="-22.583" y2="-22.583"/>
  <line style="fill:none;stroke:#000000;stroke-width:0.3;" x2="28.709" x1="19.625" y1="-22.583" y2="-22.583"/>
  <line style="fill:none;stroke:#000000;stroke-width:0.3;" x2="1.75" x1="10.834" y1="-22.583" y2="-22.583"/>
  <line style="fill:none;stroke:#000000;stroke-width:0.3;" x2="0" x1="2.584" y1="-19.458" y2="-19.458"/>
  <line style="fill:none;stroke:#000000;stroke-width:0.3;" x2="11.5" x1="20.584" y1="-19.458" y2="-19.458"/>
  <line style="fill:none;stroke:#000000;stroke-width:0.3;" x2="38.584" x1="29.5" y1="-19.458" y2="-19.458"/>
  <line style="fill:none;stroke:#000000;stroke-width:0.3;" x2="48.834" x1="39.75" y1="-16.458" y2="-16.458"/>
  <line style="fill:none;stroke:#000000;stroke-width:0.3;" x2="30.834" x1="21.75" y1="-16.458" y2="-16.458"/>
  <line style="fill:none;stroke:#000000;stroke-width:0.3;" x2="3.75" x1="12.834" y1="-16.458" y2="-16.458"/>
  <line style="fill:none;stroke:#000000;stroke-width:0.3;" x2="0" x1="5.084" y1="-13.458" y2="-13.458"/>
  <line style="fill:none;stroke:#000000;stroke-width:0.3;" x2="22.959" x1="13.875" y1="-13.458" y2="-13.458"/>
  <line style="fill:none;stroke:#000000;stroke-width:0.3;" x2="40.834" x1="31.75" y1="-13.458" y2="-13.458"/>
  <line style="fill:none;stroke:#000000;stroke-width:0.3;" x2="50.709" x1="41.625" y1="-10.583" y2="-10.583"/>
  <line style="fill:none;stroke:#000000;stroke-width:0.3;" x2="23.875" x1="32.959" y1="-10.583" y2="-10.583"/>
  <line style="fill:none;stroke:#000000;stroke-width:0.3;" x2="5.875" x1="14.959" y1="-10.583" y2="-10.583"/>
  <line style="fill:none;stroke:#000000;stroke-width:0.3;" x2="0" x1="6.459" y1="-7.333" y2="-7.333"/>
  <line style="fill:none;stroke:#000000;stroke-width:0.3;" x2="24.584" x1="15.5" y1="-7.333" y2="-7.333"/>
  <line style="fill:none;stroke:#000000;stroke-width:0.3;" x2="42.709" x1="33.625" y1="-7.333" y2="-7.333"/>
  <line style="fill:none;stroke:#000000;stroke-width:0.3;" x2="41.625" x1="50.709" y1="-4.458" y2="-4.458"/>
  <line style="fill:none;stroke:#000000;stroke-width:0.3;" x2="23.875" x1="32.959" y1="-4.458" y2="-4.458"/>
  <line style="fill:none;stroke:#000000;stroke-width:0.3;" x2="5.75" x1="14.834" y1="-4.458" y2="-4.458"/>
  <line style="fill:none;stroke:#000000;stroke-width:0.3;" x2="5.084" x1="0" y1="-1.333" y2="-1.333"/>
  <line style="fill:none;stroke:#000000;stroke-width:0.3;" x2="13.75" x1="22.834" y1="-1.333" y2="-1.333"/>
  <line style="fill:none;stroke:#000000;stroke-width:0.3;" x2="31.625" x1="40.709" y1="-1.333" y2="-1.333"/>
  <line style="fill:none;stroke:#000000;stroke-width:0.3;" x2="54.125" x1="51.917" y1="-49.583" y2="-49.583"/>
  <line style="fill:none;stroke:#000000;stroke-width:0.3;" x2="54.125" x1="51.917" y1="-43.708" y2="-43.708"/>
  <line style="fill:none;stroke:#000000;stroke-width:0.3;" x2="54.125" x1="50.167" y1="-37.583" y2="-37.583"/>
  <line style="fill:none;stroke:#000000;stroke-width:0.3;" x2="50.042" x1="54.125" y1="-31.583" y2="-31.583"/>
  <line style="fill:none;stroke:#000000;stroke-width:0.3;" x2="54.125" x1="48.042" y1="-25.458" y2="-25.458"/>
  <line style="fill:none;stroke:#000000;stroke-width:0.3;" x2="54.125" x1="47.667" y1="-19.458" y2="-19.458"/>
  <line style="fill:none;stroke:#000000;stroke-width:0.3;" x2="54.125" x1="50.167" y1="-13.458" y2="-13.458"/>
  <line style="fill:none;stroke:#000000;stroke-width:0.3;" x2="54.125" x1="51.542" y1="-7.333" y2="-7.333"/>
  <line style="fill:none;stroke:#000000;stroke-width:0.3;" x2="54.125" x1="50.167" y1="-1.333" y2="-1.333"/>
  <line style="fill:none;stroke:#000000;stroke-width:0.7;stroke-linecap:round;" x2="11.289" x1="11.289" y1="-49.583" y2="-49.583"/>
  <line style="fill:none;stroke:#000000;stroke-width:0.7;stroke-linecap:round;" x2="13.568" x1="13.568" y1="-49.583" y2="-49.583"/>
  <line style="fill:none;stroke:#000000;stroke-width:0.7;stroke-linecap:round;" x2="8.902" x1="8.902" y1="-49.583" y2="-49.583"/>
  <line style="fill:none;stroke:#000000;stroke-width:0.7;stroke-linecap:round;" x2="29.292" x1="29.292" y1="-49.583" y2="-49.583"/>
  <line style="fill:none;stroke:#000000;stroke-width:0.7;stroke-linecap:round;" x2="31.572" x1="31.572" y1="-49.583" y2="-49.583"/>
  <line style="fill:none;stroke:#000000;stroke-width:0.7;stroke-linecap:round;" x2="26.905" x1="26.905" y1="-49.583" y2="-49.583"/>
  <line style="fill:none;stroke:#000000;stroke-width:0.7;stroke-linecap:round;" x2="47.375" x1="47.375" y1="-49.583" y2="-49.583"/>
  <line style="fill:none;stroke:#000000;stroke-width:0.7;stroke-linecap:round;" x2="49.655" x1="49.655" y1="-49.583" y2="-49.583"/>
  <line style="fill:none;stroke:#000000;stroke-width:0.7;stroke-linecap:round;" x2="44.989" x1="44.989" y1="-49.583" y2="-49.583"/>
  <line style="fill:none;stroke:#000000;stroke-width:0.7;stroke-linecap:round;" x2="39.459" x1="39.459" y1="-46.583" y2="-46.583"/>
  <line style="fill:none;stroke:#000000;stroke-width:0.7;stroke-linecap:round;" x2="41.738" x1="41.738" y1="-46.583" y2="-46.583"/>
  <line style="fill:none;stroke:#000000;stroke-width:0.7;stroke-linecap:round;" x2="37.072" x1="37.072" y1="-46.583" y2="-46.583"/>
  <line style="fill:none;stroke:#000000;stroke-width:0.7;stroke-linecap:round;" x2="21.459" x1="21.459" y1="-46.583" y2="-46.583"/>
  <line style="fill:none;stroke:#000000;stroke-width:0.7;stroke-linecap:round;" x2="23.738" x1="23.738" y1="-46.583" y2="-46.583"/>
  <line style="fill:none;stroke:#000000;stroke-width:0.7;stroke-linecap:round;" x2="19.072" x1="19.072" y1="-46.583" y2="-46.583"/>
  <line style="fill:none;stroke:#000000;stroke-width:0.7;stroke-linecap:round;" x2="3.499" x1="3.499" y1="-46.583" y2="-46.583"/>
  <line style="fill:none;stroke:#000000;stroke-width:0.7;stroke-linecap:round;" x2="5.778" x1="5.778" y1="-46.583" y2="-46.583"/>
  <line style="fill:none;stroke:#000000;stroke-width:0.7;stroke-linecap:round;" x2="1.112" x1="1.112" y1="-46.583" y2="-46.583"/>
  <line style="fill:none;stroke:#000000;stroke-width:0.7;stroke-linecap:round;" x2="19.125" x1="19.125" y1="-52.707" y2="-52.707"/>
  <line style="fill:none;stroke:#000000;stroke-width:0.7;stroke-linecap:round;" x2="21.405" x1="21.405" y1="-52.707" y2="-52.707"/>
  <line style="fill:none;stroke:#000000;stroke-width:0.7;stroke-linecap:round;" x2="16.739" x1="16.739" y1="-52.707" y2="-52.707"/>
  <line style="fill:none;stroke:#000000;stroke-width:0.7;stroke-linecap:round;" x2="1.249" x1="1.249" y1="-52.707" y2="-52.707"/>
  <line style="fill:none;stroke:#000000;stroke-width:0.7;stroke-linecap:round;" x2="3.528" x1="3.528" y1="-52.707" y2="-52.707"/>
  <line style="fill:none;stroke:#000000;stroke-width:0.7;stroke-linecap:round;" x2="37.375" x1="37.375" y1="-52.707" y2="-52.707"/>
  <line style="fill:none;stroke:#000000;stroke-width:0.7;stroke-linecap:round;" x2="39.655" x1="39.655" y1="-52.707" y2="-52.707"/>
  <line style="fill:none;stroke:#000000;stroke-width:0.7;stroke-linecap:round;" x2="34.989" x1="34.989" y1="-52.707" y2="-52.707"/>
  <line style="fill:none;stroke:#000000;stroke-width:0.7;stroke-linecap:round;" x2="52.779" x1="52.779" y1="-52.707" y2="-52.707"/>
  <line style="fill:none;stroke:#000000;stroke-width:0.7;stroke-linecap:round;" x2="29.152" x1="29.152" y1="-43.684" y2="-43.684"/>
  <line style="fill:none;stroke:#000000;stroke-width:0.7;stroke-linecap:round;" x2="31.432" x1="31.432" y1="-43.684" y2="-43.684"/>
  <line style="fill:none;stroke:#000000;stroke-width:0.7;stroke-linecap:round;" x2="26.766" x1="26.766" y1="-43.684" y2="-43.684"/>
  <line style="fill:none;stroke:#000000;stroke-width:0.7;stroke-linecap:round;" x2="11.275" x1="11.275" y1="-43.684" y2="-43.684"/>
  <line style="fill:none;stroke:#000000;stroke-width:0.7;stroke-linecap:round;" x2="13.556" x1="13.556" y1="-43.684" y2="-43.684"/>
  <line style="fill:none;stroke:#000000;stroke-width:0.7;stroke-linecap:round;" x2="8.889" x1="8.889" y1="-43.684" y2="-43.684"/>
  <line style="fill:none;stroke:#000000;stroke-width:0.7;stroke-linecap:round;" x2="47.402" x1="47.402" y1="-43.684" y2="-43.684"/>
  <line style="fill:none;stroke:#000000;stroke-width:0.7;stroke-linecap:round;" x2="49.682" x1="49.682" y1="-43.684" y2="-43.684"/>
  <line style="fill:none;stroke:#000000;stroke-width:0.7;stroke-linecap:round;" x2="45.016" x1="45.016" y1="-43.684" y2="-43.684"/>
  <line style="fill:none;stroke:#000000;stroke-width:0.7;stroke-linecap:round;" x2="19" x1="19" y1="-40.688" y2="-40.688"/>
  <line style="fill:none;stroke:#000000;stroke-width:0.7;stroke-linecap:round;" x2="21.28" x1="21.28" y1="-40.688" y2="-40.688"/>
  <line style="fill:none;stroke:#000000;stroke-width:0.7;stroke-linecap:round;" x2="16.614" x1="16.614" y1="-40.688" y2="-40.688"/>
  <line style="fill:none;stroke:#000000;stroke-width:0.7;stroke-linecap:round;" x2="1.124" x1="1.124" y1="-40.688" y2="-40.688"/>
  <line style="fill:none;stroke:#000000;stroke-width:0.7;stroke-linecap:round;" x2="3.403" x1="3.403" y1="-40.688" y2="-40.688"/>
  <line style="fill:none;stroke:#000000;stroke-width:0.7;stroke-linecap:round;" x2="37.25" x1="37.25" y1="-40.688" y2="-40.688"/>
  <line style="fill:none;stroke:#000000;stroke-width:0.7;stroke-linecap:round;" x2="39.53" x1="39.53" y1="-40.688" y2="-40.688"/>
  <line style="fill:none;stroke:#000000;stroke-width:0.7;stroke-linecap:round;" x2="34.864" x1="34.864" y1="-40.688" y2="-40.688"/>
  <line style="fill:none;stroke:#000000;stroke-width:0.7;stroke-linecap:round;" x2="52.654" x1="52.654" y1="-40.688" y2="-40.688"/>
  <line style="fill:none;stroke:#000000;stroke-width:0.7;stroke-linecap:round;" x2="27.438" x1="27.438" y1="-37.562" y2="-37.562"/>
  <line style="fill:none;stroke:#000000;stroke-width:0.7;stroke-linecap:round;" x2="29.718" x1="29.718" y1="-37.562" y2="-37.562"/>
  <line style="fill:none;stroke:#000000;stroke-width:0.7;stroke-linecap:round;" x2="25.052" x1="25.052" y1="-37.562" y2="-37.562"/>
  <line style="fill:none;stroke:#000000;stroke-width:0.7;stroke-linecap:round;" x2="9.561" x1="9.561" y1="-37.562" y2="-37.562"/>
  <line style="fill:none;stroke:#000000;stroke-width:0.7;stroke-linecap:round;" x2="11.841" x1="11.841" y1="-37.562" y2="-37.562"/>
  <line style="fill:none;stroke:#000000;stroke-width:0.7;stroke-linecap:round;" x2="7.175" x1="7.175" y1="-37.562" y2="-37.562"/>
  <line style="fill:none;stroke:#000000;stroke-width:0.7;stroke-linecap:round;" x2="45.688" x1="45.688" y1="-37.562" y2="-37.562"/>
  <line style="fill:none;stroke:#000000;stroke-width:0.7;stroke-linecap:round;" x2="47.968" x1="47.968" y1="-37.562" y2="-37.562"/>
  <line style="fill:none;stroke:#000000;stroke-width:0.7;stroke-linecap:round;" x2="43.302" x1="43.302" y1="-37.562" y2="-37.562"/>
  <line style="fill:none;stroke:#000000;stroke-width:0.7;stroke-linecap:round;" x2="18.875" x1="18.875" y1="-34.688" y2="-34.688"/>
  <line style="fill:none;stroke:#000000;stroke-width:0.7;stroke-linecap:round;" x2="21.155" x1="21.155" y1="-34.688" y2="-34.688"/>
  <line style="fill:none;stroke:#000000;stroke-width:0.7;stroke-linecap:round;" x2="16.489" x1="16.489" y1="-34.688" y2="-34.688"/>
  <line style="fill:none;stroke:#000000;stroke-width:0.7;stroke-linecap:round;" x2="0.999" x1="0.999" y1="-34.688" y2="-34.688"/>
  <line style="fill:none;stroke:#000000;stroke-width:0.7;stroke-linecap:round;" x2="3.278" x1="3.278" y1="-34.688" y2="-34.688"/>
  <line style="fill:none;stroke:#000000;stroke-width:0.7;stroke-linecap:round;" x2="37.125" x1="37.125" y1="-34.688" y2="-34.688"/>
  <line style="fill:none;stroke:#000000;stroke-width:0.7;stroke-linecap:round;" x2="39.405" x1="39.405" y1="-34.688" y2="-34.688"/>
  <line style="fill:none;stroke:#000000;stroke-width:0.7;stroke-linecap:round;" x2="34.739" x1="34.739" y1="-34.688" y2="-34.688"/>
  <line style="fill:none;stroke:#000000;stroke-width:0.7;stroke-linecap:round;" x2="52.529" x1="52.529" y1="-34.688" y2="-34.688"/>
  <line style="fill:none;stroke:#000000;stroke-width:0.7;stroke-linecap:round;" x2="27.312" x1="27.312" y1="-31.625" y2="-31.625"/>
  <line style="fill:none;stroke:#000000;stroke-width:0.7;stroke-linecap:round;" x2="29.593" x1="29.593" y1="-31.625" y2="-31.625"/>
  <line style="fill:none;stroke:#000000;stroke-width:0.7;stroke-linecap:round;" x2="24.927" x1="24.927" y1="-31.625" y2="-31.625"/>
  <line style="fill:none;stroke:#000000;stroke-width:0.7;stroke-linecap:round;" x2="9.436" x1="9.436" y1="-31.625" y2="-31.625"/>
  <line style="fill:none;stroke:#000000;stroke-width:0.7;stroke-linecap:round;" x2="11.716" x1="11.716" y1="-31.625" y2="-31.625"/>
  <line style="fill:none;stroke:#000000;stroke-width:0.7;stroke-linecap:round;" x2="7.05" x1="7.05" y1="-31.625" y2="-31.625"/>
  <line style="fill:none;stroke:#000000;stroke-width:0.7;stroke-linecap:round;" x2="45.562" x1="45.562" y1="-31.625" y2="-31.625"/>
  <line style="fill:none;stroke:#000000;stroke-width:0.7;stroke-linecap:round;" x2="47.843" x1="47.843" y1="-31.625" y2="-31.625"/>
  <line style="fill:none;stroke:#000000;stroke-width:0.7;stroke-linecap:round;" x2="43.177" x1="43.177" y1="-31.625" y2="-31.625"/>
  <line style="fill:none;stroke:#000000;stroke-width:0.7;stroke-linecap:round;" x2="17.062" x1="17.062" y1="-28.625" y2="-28.625"/>
  <line style="fill:none;stroke:#000000;stroke-width:0.7;stroke-linecap:round;" x2="19.343" x1="19.343" y1="-28.625" y2="-28.625"/>
  <line style="fill:none;stroke:#000000;stroke-width:0.7;stroke-linecap:round;" x2="14.677" x1="14.677" y1="-28.625" y2="-28.625"/>
  <line style="fill:none;stroke:#000000;stroke-width:0.7;stroke-linecap:round;" x2="1.466" x1="1.466" y1="-28.625" y2="-28.625"/>
  <line style="fill:none;stroke:#000000;stroke-width:0.7;stroke-linecap:round;" x2="35.312" x1="35.312" y1="-28.625" y2="-28.625"/>
  <line style="fill:none;stroke:#000000;stroke-width:0.7;stroke-linecap:round;" x2="37.593" x1="37.593" y1="-28.625" y2="-28.625"/>
  <line style="fill:none;stroke:#000000;stroke-width:0.7;stroke-linecap:round;" x2="32.927" x1="32.927" y1="-28.625" y2="-28.625"/>
  <line style="fill:none;stroke:#000000;stroke-width:0.7;stroke-linecap:round;" x2="53.103" x1="53.103" y1="-28.625" y2="-28.625"/>
  <line style="fill:none;stroke:#000000;stroke-width:0.7;stroke-linecap:round;" x2="50.717" x1="50.717" y1="-28.625" y2="-28.625"/>
  <line style="fill:none;stroke:#000000;stroke-width:0.7;stroke-linecap:round;" x2="25.25" x1="25.25" y1="-25.5" y2="-25.5"/>
  <line style="fill:none;stroke:#000000;stroke-width:0.7;stroke-linecap:round;" x2="27.53" x1="27.53" y1="-25.5" y2="-25.5"/>
  <line style="fill:none;stroke:#000000;stroke-width:0.7;stroke-linecap:round;" x2="22.864" x1="22.864" y1="-25.5" y2="-25.5"/>
  <line style="fill:none;stroke:#000000;stroke-width:0.7;stroke-linecap:round;" x2="7.374" x1="7.374" y1="-25.5" y2="-25.5"/>
  <line style="fill:none;stroke:#000000;stroke-width:0.7;stroke-linecap:round;" x2="9.653" x1="9.653" y1="-25.5" y2="-25.5"/>
  <line style="fill:none;stroke:#000000;stroke-width:0.7;stroke-linecap:round;" x2="4.987" x1="4.987" y1="-25.5" y2="-25.5"/>
  <line style="fill:none;stroke:#000000;stroke-width:0.7;stroke-linecap:round;" x2="43.5" x1="43.5" y1="-25.5" y2="-25.5"/>
  <line style="fill:none;stroke:#000000;stroke-width:0.7;stroke-linecap:round;" x2="45.78" x1="45.78" y1="-25.5" y2="-25.5"/>
  <line style="fill:none;stroke:#000000;stroke-width:0.7;stroke-linecap:round;" x2="41.114" x1="41.114" y1="-25.5" y2="-25.5"/>
  <line style="fill:none;stroke:#000000;stroke-width:0.7;stroke-linecap:round;" x2="14.938" x1="14.938" y1="-22.562" y2="-22.562"/>
  <line style="fill:none;stroke:#000000;stroke-width:0.7;stroke-linecap:round;" x2="17.218" x1="17.218" y1="-22.562" y2="-22.562"/>
  <line style="fill:none;stroke:#000000;stroke-width:0.7;stroke-linecap:round;" x2="12.552" x1="12.552" y1="-22.562" y2="-22.562"/>
  <line style="fill:none;stroke:#000000;stroke-width:0.7;stroke-linecap:round;" x2="33.188" x1="33.188" y1="-22.562" y2="-22.562"/>
  <line style="fill:none;stroke:#000000;stroke-width:0.7;stroke-linecap:round;" x2="35.468" x1="35.468" y1="-22.562" y2="-22.562"/>
  <line style="fill:none;stroke:#000000;stroke-width:0.7;stroke-linecap:round;" x2="30.802" x1="30.802" y1="-22.562" y2="-22.562"/>
  <line style="fill:none;stroke:#000000;stroke-width:0.7;stroke-linecap:round;" x2="50.978" x1="50.978" y1="-22.562" y2="-22.562"/>
  <line style="fill:none;stroke:#000000;stroke-width:0.7;stroke-linecap:round;" x2="53.258" x1="53.258" y1="-22.562" y2="-22.562"/>
  <line style="fill:none;stroke:#000000;stroke-width:0.7;stroke-linecap:round;" x2="48.592" x1="48.592" y1="-22.562" y2="-22.562"/>
  <line style="fill:none;stroke:#000000;stroke-width:0.7;stroke-linecap:round;" x2="24.938" x1="24.938" y1="-19.438" y2="-19.438"/>
  <line style="fill:none;stroke:#000000;stroke-width:0.7;stroke-linecap:round;" x2="27.218" x1="27.218" y1="-19.438" y2="-19.438"/>
  <line style="fill:none;stroke:#000000;stroke-width:0.7;stroke-linecap:round;" x2="22.552" x1="22.552" y1="-19.438" y2="-19.438"/>
  <line style="fill:none;stroke:#000000;stroke-width:0.7;stroke-linecap:round;" x2="7.062" x1="7.062" y1="-19.438" y2="-19.438"/>
  <line style="fill:none;stroke:#000000;stroke-width:0.7;stroke-linecap:round;" x2="9.341" x1="9.341" y1="-19.438" y2="-19.438"/>
  <line style="fill:none;stroke:#000000;stroke-width:0.7;stroke-linecap:round;" x2="4.675" x1="4.675" y1="-19.438" y2="-19.438"/>
  <line style="fill:none;stroke:#000000;stroke-width:0.7;stroke-linecap:round;" x2="43.188" x1="43.188" y1="-19.438" y2="-19.438"/>
  <line style="fill:none;stroke:#000000;stroke-width:0.7;stroke-linecap:round;" x2="45.468" x1="45.468" y1="-19.438" y2="-19.438"/>
  <line style="fill:none;stroke:#000000;stroke-width:0.7;stroke-linecap:round;" x2="40.802" x1="40.802" y1="-19.438" y2="-19.438"/>
  <line style="fill:none;stroke:#000000;stroke-width:0.7;stroke-linecap:round;" x2="17.125" x1="17.125" y1="-16.438" y2="-16.438"/>
  <line style="fill:none;stroke:#000000;stroke-width:0.7;stroke-linecap:round;" x2="19.405" x1="19.405" y1="-16.438" y2="-16.438"/>
  <line style="fill:none;stroke:#000000;stroke-width:0.7;stroke-linecap:round;" x2="14.739" x1="14.739" y1="-16.438" y2="-16.438"/>
  <line style="fill:none;stroke:#000000;stroke-width:0.7;stroke-linecap:round;" x2="1.528" x1="1.528" y1="-16.438" y2="-16.438"/>
  <line style="fill:none;stroke:#000000;stroke-width:0.7;stroke-linecap:round;" x2="35.375" x1="35.375" y1="-16.438" y2="-16.438"/>
  <line style="fill:none;stroke:#000000;stroke-width:0.7;stroke-linecap:round;" x2="37.655" x1="37.655" y1="-16.438" y2="-16.438"/>
  <line style="fill:none;stroke:#000000;stroke-width:0.7;stroke-linecap:round;" x2="32.989" x1="32.989" y1="-16.438" y2="-16.438"/>
  <line style="fill:none;stroke:#000000;stroke-width:0.7;stroke-linecap:round;" x2="53.165" x1="53.165" y1="-16.438" y2="-16.438"/>
  <line style="fill:none;stroke:#000000;stroke-width:0.7;stroke-linecap:round;" x2="50.779" x1="50.779" y1="-16.438" y2="-16.438"/>
  <line style="fill:none;stroke:#000000;stroke-width:0.7;stroke-linecap:round;" x2="27.312" x1="27.312" y1="-13.438" y2="-13.438"/>
  <line style="fill:none;stroke:#000000;stroke-width:0.7;stroke-linecap:round;" x2="29.593" x1="29.593" y1="-13.438" y2="-13.438"/>
  <line style="fill:none;stroke:#000000;stroke-width:0.7;stroke-linecap:round;" x2="24.927" x1="24.927" y1="-13.438" y2="-13.438"/>
  <line style="fill:none;stroke:#000000;stroke-width:0.7;stroke-linecap:round;" x2="9.436" x1="9.436" y1="-13.438" y2="-13.438"/>
  <line style="fill:none;stroke:#000000;stroke-width:0.7;stroke-linecap:round;" x2="11.716" x1="11.716" y1="-13.438" y2="-13.438"/>
  <line style="fill:none;stroke:#000000;stroke-width:0.7;stroke-linecap:round;" x2="7.05" x1="7.05" y1="-13.438" y2="-13.438"/>
  <line style="fill:none;stroke:#000000;stroke-width:0.7;stroke-linecap:round;" x2="45.562" x1="45.562" y1="-13.438" y2="-13.438"/>
  <line style="fill:none;stroke:#000000;stroke-width:0.7;stroke-linecap:round;" x2="47.843" x1="47.843" y1="-13.438" y2="-13.438"/>
  <line style="fill:none;stroke:#000000;stroke-width:0.7;stroke-linecap:round;" x2="43.177" x1="43.177" y1="-13.438" y2="-13.438"/>
  <line style="fill:none;stroke:#000000;stroke-width:0.7;stroke-linecap:round;" x2="19.125" x1="19.125" y1="-10.625" y2="-10.625"/>
  <line style="fill:none;stroke:#000000;stroke-width:0.7;stroke-linecap:round;" x2="21.405" x1="21.405" y1="-10.625" y2="-10.625"/>
  <line style="fill:none;stroke:#000000;stroke-width:0.7;stroke-linecap:round;" x2="16.739" x1="16.739" y1="-10.625" y2="-10.625"/>
  <line style="fill:none;stroke:#000000;stroke-width:0.7;stroke-linecap:round;" x2="1.249" x1="1.249" y1="-10.625" y2="-10.625"/>
  <line style="fill:none;stroke:#000000;stroke-width:0.7;stroke-linecap:round;" x2="3.528" x1="3.528" y1="-10.625" y2="-10.625"/>
  <line style="fill:none;stroke:#000000;stroke-width:0.7;stroke-linecap:round;" x2="37.375" x1="37.375" y1="-10.625" y2="-10.625"/>
  <line style="fill:none;stroke:#000000;stroke-width:0.7;stroke-linecap:round;" x2="39.655" x1="39.655" y1="-10.625" y2="-10.625"/>
  <line style="fill:none;stroke:#000000;stroke-width:0.7;stroke-linecap:round;" x2="34.989" x1="34.989" y1="-10.625" y2="-10.625"/>
  <line style="fill:none;stroke:#000000;stroke-width:0.7;stroke-linecap:round;" x2="52.779" x1="52.779" y1="-10.625" y2="-10.625"/>
  <line style="fill:none;stroke:#000000;stroke-width:0.7;stroke-linecap:round;" x2="29" x1="29" y1="-7.312" y2="-7.312"/>
  <line style="fill:none;stroke:#000000;stroke-width:0.7;stroke-linecap:round;" x2="31.28" x1="31.28" y1="-7.312" y2="-7.312"/>
  <line style="fill:none;stroke:#000000;stroke-width:0.7;stroke-linecap:round;" x2="26.614" x1="26.614" y1="-7.312" y2="-7.312"/>
  <line style="fill:none;stroke:#000000;stroke-width:0.7;stroke-linecap:round;" x2="11.124" x1="11.124" y1="-7.312" y2="-7.312"/>
  <line style="fill:none;stroke:#000000;stroke-width:0.7;stroke-linecap:round;" x2="13.403" x1="13.403" y1="-7.312" y2="-7.312"/>
  <line style="fill:none;stroke:#000000;stroke-width:0.7;stroke-linecap:round;" x2="8.737" x1="8.737" y1="-7.312" y2="-7.312"/>
  <line style="fill:none;stroke:#000000;stroke-width:0.7;stroke-linecap:round;" x2="47.25" x1="47.25" y1="-7.312" y2="-7.312"/>
  <line style="fill:none;stroke:#000000;stroke-width:0.7;stroke-linecap:round;" x2="49.53" x1="49.53" y1="-7.312" y2="-7.312"/>
  <line style="fill:none;stroke:#000000;stroke-width:0.7;stroke-linecap:round;" x2="44.864" x1="44.864" y1="-7.312" y2="-7.312"/>
  <line style="fill:none;stroke:#000000;stroke-width:0.7;stroke-linecap:round;" x2="19.188" x1="19.188" y1="-4.438" y2="-4.438"/>
  <line style="fill:none;stroke:#000000;stroke-width:0.7;stroke-linecap:round;" x2="21.468" x1="21.468" y1="-4.438" y2="-4.438"/>
  <line style="fill:none;stroke:#000000;stroke-width:0.7;stroke-linecap:round;" x2="16.802" x1="16.802" y1="-4.438" y2="-4.438"/>
  <line style="fill:none;stroke:#000000;stroke-width:0.7;stroke-linecap:round;" x2="1.311" x1="1.311" y1="-4.438" y2="-4.438"/>
  <line style="fill:none;stroke:#000000;stroke-width:0.7;stroke-linecap:round;" x2="3.591" x1="3.591" y1="-4.438" y2="-4.438"/>
  <line style="fill:none;stroke:#000000;stroke-width:0.7;stroke-linecap:round;" x2="37.438" x1="37.438" y1="-4.438" y2="-4.438"/>
  <line style="fill:none;stroke:#000000;stroke-width:0.7;stroke-linecap:round;" x2="39.718" x1="39.718" y1="-4.438" y2="-4.438"/>
  <line style="fill:none;stroke:#000000;stroke-width:0.7;stroke-linecap:round;" x2="35.052" x1="35.052" y1="-4.438" y2="-4.438"/>
  <line style="fill:none;stroke:#000000;stroke-width:0.7;stroke-linecap:round;" x2="52.842" x1="52.842" y1="-4.438" y2="-4.438"/>
  <line style="fill:none;stroke:#000000;stroke-width:0.7;stroke-linecap:round;" x2="27.375" x1="27.375" y1="-1.312" y2="-1.312"/>
  <line style="fill:none;stroke:#000000;stroke-width:0.7;stroke-linecap:round;" x2="29.655" x1="29.655" y1="-1.312" y2="-1.312"/>
  <line style="fill:none;stroke:#000000;stroke-width:0.7;stroke-linecap:round;" x2="24.989" x1="24.989" y1="-1.312" y2="-1.312"/>
  <line style="fill:none;stroke:#000000;stroke-width:0.7;stroke-linecap:round;" x2="9.499" x1="9.499" y1="-1.312" y2="-1.312"/>
  <line style="fill:none;stroke:#000000;stroke-width:0.7;stroke-linecap:round;" x2="11.778" x1="11.778" y1="-1.312" y2="-1.312"/>
  <line style="fill:none;stroke:#000000;stroke-width:0.7;stroke-linecap:round;" x2="7.112" x1="7.112" y1="-1.312" y2="-1.312"/>
  <line style="fill:none;stroke:#000000;stroke-width:0.7;stroke-linecap:round;" x2="45.625" x1="45.625" y1="-1.312" y2="-1.312"/>
  <line style="fill:none;stroke:#000000;stroke-width:0.7;stroke-linecap:round;" x2="47.905" x1="47.905" y1="-1.312" y2="-1.312"/>
  <line style="fill:none;stroke:#000000;stroke-width:0.7;stroke-linecap:round;" x2="43.239" x1="43.239" y1="-1.312" y2="-1.312"/>
 </g>
</svg>
