<?xml version="1.0"?>
<!-- Converted with SVG Converter - Version 0.9.5 (Compiled Fri Feb 21 09:53:38 2020) - Copyright (C) 2011 Nokia -->
<svg xmlns="http://www.w3.org/2000/svg" viewBox="0 -54.125 54.125 54.125" x="0px" height="54.125" baseProfile="tiny" xml:space="preserve" y="0px" xmlns:xlink="http://www.w3.org/1999/xlink" version="1.1" width="54.125">
 <g>
  <rect height="54.125" y="-54.125" style="fill:none;" width="54.125"/>
  <line y1="-52.525" x1="5.666" x2="14.75" y2="-52.525" style="fill:none;stroke:#000000;stroke-width:0.3;"/>
  <line y1="-52.713" x1="6.812" x2="6.812" y2="-53.937" style="fill:none;stroke:#000000;stroke-width:0.3;"/>
  <line y1="-52.525" x1="23.791" x2="32.875" y2="-52.525" style="fill:none;stroke:#000000;stroke-width:0.3;"/>
  <line y1="-52.713" x1="24.938" x2="24.938" y2="-53.937" style="fill:none;stroke:#000000;stroke-width:0.3;"/>
  <line y1="-52.525" x1="41.916" x2="51" y2="-52.525" style="fill:none;stroke:#000000;stroke-width:0.3;"/>
  <line y1="-52.713" x1="43.062" x2="43.062" y2="-53.937" style="fill:none;stroke:#000000;stroke-width:0.3;"/>
  <line y1="-49.417" x1="6.875" x2="0" y2="-49.417" style="fill:none;stroke:#000000;stroke-width:0.3;"/>
  <line y1="-49.417" x1="24.75" x2="15.666" y2="-49.417" style="fill:none;stroke:#000000;stroke-width:0.3;"/>
  <line y1="-49.605" x1="16.812" x2="16.812" y2="-50.829" style="fill:none;stroke:#000000;stroke-width:0.3;"/>
  <line y1="-49.417" x1="42.875" x2="33.791" y2="-49.417" style="fill:none;stroke:#000000;stroke-width:0.3;"/>
  <line y1="-49.605" x1="34.938" x2="34.938" y2="-50.829" style="fill:none;stroke:#000000;stroke-width:0.3;"/>
  <line y1="-46.417" x1="17" x2="7.916" y2="-46.417" style="fill:none;stroke:#000000;stroke-width:0.3;"/>
  <line y1="-47.829" x1="9.062" x2="9.062" y2="-46.605" style="fill:none;stroke:#000000;stroke-width:0.3;"/>
  <line y1="-46.417" x1="35" x2="25.916" y2="-46.417" style="fill:none;stroke:#000000;stroke-width:0.3;"/>
  <line y1="-47.829" x1="27.062" x2="27.062" y2="-46.605" style="fill:none;stroke:#000000;stroke-width:0.3;"/>
  <line y1="-46.417" x1="43.791" x2="52.875" y2="-46.417" style="fill:none;stroke:#000000;stroke-width:0.3;"/>
  <line y1="-47.829" x1="44.938" x2="44.938" y2="-46.605" style="fill:none;stroke:#000000;stroke-width:0.3;"/>
  <line y1="-43.542" x1="0" x2="6.875" y2="-43.542" style="fill:none;stroke:#000000;stroke-width:0.3;"/>
  <line y1="-43.542" x1="15.666" x2="24.75" y2="-43.542" style="fill:none;stroke:#000000;stroke-width:0.3;"/>
  <line y1="-43.73" x1="16.812" x2="16.812" y2="-44.954" style="fill:none;stroke:#000000;stroke-width:0.3;"/>
  <line y1="-43.542" x1="33.666" x2="42.75" y2="-43.542" style="fill:none;stroke:#000000;stroke-width:0.3;"/>
  <line y1="-43.73" x1="34.812" x2="34.812" y2="-44.954" style="fill:none;stroke:#000000;stroke-width:0.3;"/>
  <line y1="-40.542" x1="41.666" x2="50.75" y2="-40.542" style="fill:none;stroke:#000000;stroke-width:0.3;"/>
  <line y1="-40.73" x1="42.812" x2="42.812" y2="-41.954" style="fill:none;stroke:#000000;stroke-width:0.3;"/>
  <line y1="-40.542" x1="23.666" x2="32.75" y2="-40.542" style="fill:none;stroke:#000000;stroke-width:0.3;"/>
  <line y1="-40.73" x1="24.812" x2="24.812" y2="-41.954" style="fill:none;stroke:#000000;stroke-width:0.3;"/>
  <line y1="-40.542" x1="14.625" x2="5.541" y2="-40.542" style="fill:none;stroke:#000000;stroke-width:0.3;"/>
  <line y1="-40.73" x1="6.688" x2="6.688" y2="-41.954" style="fill:none;stroke:#000000;stroke-width:0.3;"/>
  <line y1="-37.417" x1="5.125" x2="0" y2="-37.417" style="fill:none;stroke:#000000;stroke-width:0.3;"/>
  <line y1="-37.417" x1="23.125" x2="14.041" y2="-37.417" style="fill:none;stroke:#000000;stroke-width:0.3;"/>
  <line y1="-38.829" x1="15.188" x2="15.188" y2="-37.605" style="fill:none;stroke:#000000;stroke-width:0.3;"/>
  <line y1="-37.417" x1="31.916" x2="41" y2="-37.417" style="fill:none;stroke:#000000;stroke-width:0.3;"/>
  <line y1="-37.605" x1="33.062" x2="33.062" y2="-38.829" style="fill:none;stroke:#000000;stroke-width:0.3;"/>
  <line y1="-34.542" x1="50.75" x2="41.666" y2="-34.542" style="fill:none;stroke:#000000;stroke-width:0.3;"/>
  <line y1="-34.73" x1="42.812" x2="42.812" y2="-35.954" style="fill:none;stroke:#000000;stroke-width:0.3;"/>
  <line y1="-34.542" x1="23.791" x2="32.875" y2="-34.542" style="fill:none;stroke:#000000;stroke-width:0.3;"/>
  <line y1="-34.73" x1="24.938" x2="24.938" y2="-35.954" style="fill:none;stroke:#000000;stroke-width:0.3;"/>
  <line y1="-34.542" x1="15" x2="5.916" y2="-34.542" style="fill:none;stroke:#000000;stroke-width:0.3;"/>
  <line y1="-34.73" x1="7.062" x2="7.062" y2="-35.954" style="fill:none;stroke:#000000;stroke-width:0.3;"/>
  <line y1="-31.417" x1="0" x2="5" y2="-31.417" style="fill:none;stroke:#000000;stroke-width:0.3;"/>
  <line y1="-31.417" x1="13.791" x2="22.875" y2="-31.417" style="fill:none;stroke:#000000;stroke-width:0.3;"/>
  <line y1="-31.605" x1="14.938" x2="14.938" y2="-32.829" style="fill:none;stroke:#000000;stroke-width:0.3;"/>
  <line y1="-31.417" x1="31.791" x2="40.875" y2="-31.417" style="fill:none;stroke:#000000;stroke-width:0.3;"/>
  <line y1="-32.829" x1="32.938" x2="32.938" y2="-31.605" style="fill:none;stroke:#000000;stroke-width:0.3;"/>
  <line y1="-28.417" x1="39.791" x2="48.875" y2="-28.417" style="fill:none;stroke:#000000;stroke-width:0.3;"/>
  <line y1="-29.829" x1="40.938" x2="40.938" y2="-28.605" style="fill:none;stroke:#000000;stroke-width:0.3;"/>
  <line y1="-28.417" x1="30.875" x2="21.791" y2="-28.417" style="fill:none;stroke:#000000;stroke-width:0.3;"/>
  <line y1="-28.605" x1="22.938" x2="22.938" y2="-29.829" style="fill:none;stroke:#000000;stroke-width:0.3;"/>
  <line y1="-28.417" x1="12.625" x2="3.541" y2="-28.417" style="fill:none;stroke:#000000;stroke-width:0.3;"/>
  <line y1="-28.605" x1="4.688" x2="4.688" y2="-29.829" style="fill:none;stroke:#000000;stroke-width:0.3;"/>
  <line y1="-25.292" x1="3" x2="0" y2="-25.292" style="fill:none;stroke:#000000;stroke-width:0.3;"/>
  <line y1="-25.292" x1="20.875" x2="11.791" y2="-25.292" style="fill:none;stroke:#000000;stroke-width:0.3;"/>
  <line y1="-26.704" x1="12.938" x2="12.938" y2="-25.48" style="fill:none;stroke:#000000;stroke-width:0.3;"/>
  <line y1="-25.292" x1="29.916" x2="39" y2="-25.292" style="fill:none;stroke:#000000;stroke-width:0.3;"/>
  <line y1="-26.704" x1="31.062" x2="31.062" y2="-25.48" style="fill:none;stroke:#000000;stroke-width:0.3;"/>
  <line y1="-22.417" x1="46.75" x2="37.666" y2="-22.417" style="fill:none;stroke:#000000;stroke-width:0.3;"/>
  <line y1="-23.829" x1="38.812" x2="38.812" y2="-22.605" style="fill:none;stroke:#000000;stroke-width:0.3;"/>
  <line y1="-22.417" x1="28.75" x2="19.666" y2="-22.417" style="fill:none;stroke:#000000;stroke-width:0.3;"/>
  <line y1="-22.605" x1="20.812" x2="20.812" y2="-23.829" style="fill:none;stroke:#000000;stroke-width:0.3;"/>
  <line y1="-22.417" x1="10.875" x2="1.791" y2="-22.417" style="fill:none;stroke:#000000;stroke-width:0.3;"/>
  <line y1="-22.605" x1="2.938" x2="2.938" y2="-23.829" style="fill:none;stroke:#000000;stroke-width:0.3;"/>
  <line y1="-19.292" x1="0" x2="2.625" y2="-19.292" style="fill:none;stroke:#000000;stroke-width:0.3;"/>
  <line y1="-19.292" x1="20.625" x2="11.541" y2="-19.292" style="fill:none;stroke:#000000;stroke-width:0.3;"/>
  <line y1="-19.48" x1="12.688" x2="12.688" y2="-20.704" style="fill:none;stroke:#000000;stroke-width:0.3;"/>
  <line y1="-19.292" x1="29.541" x2="38.625" y2="-19.292" style="fill:none;stroke:#000000;stroke-width:0.3;"/>
  <line y1="-20.704" x1="30.688" x2="30.688" y2="-19.48" style="fill:none;stroke:#000000;stroke-width:0.3;"/>
  <line y1="-16.292" x1="39.791" x2="48.875" y2="-16.292" style="fill:none;stroke:#000000;stroke-width:0.3;"/>
  <line y1="-17.704" x1="40.938" x2="40.938" y2="-16.48" style="fill:none;stroke:#000000;stroke-width:0.3;"/>
  <line y1="-16.292" x1="21.791" x2="30.875" y2="-16.292" style="fill:none;stroke:#000000;stroke-width:0.3;"/>
  <line y1="-17.704" x1="22.938" x2="22.938" y2="-16.48" style="fill:none;stroke:#000000;stroke-width:0.3;"/>
  <line y1="-16.292" x1="12.875" x2="3.791" y2="-16.292" style="fill:none;stroke:#000000;stroke-width:0.3;"/>
  <line y1="-16.48" x1="4.938" x2="4.938" y2="-17.704" style="fill:none;stroke:#000000;stroke-width:0.3;"/>
  <line y1="-13.292" x1="5.125" x2="0" y2="-13.292" style="fill:none;stroke:#000000;stroke-width:0.3;"/>
  <line y1="-13.292" x1="13.916" x2="23" y2="-13.292" style="fill:none;stroke:#000000;stroke-width:0.3;"/>
  <line y1="-13.48" x1="15.062" x2="15.062" y2="-14.704" style="fill:none;stroke:#000000;stroke-width:0.3;"/>
  <line y1="-13.292" x1="31.791" x2="40.875" y2="-13.292" style="fill:none;stroke:#000000;stroke-width:0.3;"/>
  <line y1="-14.704" x1="32.938" x2="32.938" y2="-13.48" style="fill:none;stroke:#000000;stroke-width:0.3;"/>
  <line y1="-10.417" x1="41.666" x2="50.75" y2="-10.417" style="fill:none;stroke:#000000;stroke-width:0.3;"/>
  <line y1="-11.829" x1="42.812" x2="42.812" y2="-10.605" style="fill:none;stroke:#000000;stroke-width:0.3;"/>
  <line y1="-10.417" x1="33" x2="23.916" y2="-10.417" style="fill:none;stroke:#000000;stroke-width:0.3;"/>
  <line y1="-10.605" x1="25.062" x2="25.062" y2="-11.829" style="fill:none;stroke:#000000;stroke-width:0.3;"/>
  <line y1="-10.417" x1="15" x2="5.916" y2="-10.417" style="fill:none;stroke:#000000;stroke-width:0.3;"/>
  <line y1="-10.605" x1="7.062" x2="7.062" y2="-11.829" style="fill:none;stroke:#000000;stroke-width:0.3;"/>
  <line y1="-7.167" x1="6.5" x2="0" y2="-7.167" style="fill:none;stroke:#000000;stroke-width:0.3;"/>
  <line y1="-7.167" x1="15.541" x2="24.625" y2="-7.167" style="fill:none;stroke:#000000;stroke-width:0.3;"/>
  <line y1="-8.579" x1="16.688" x2="16.688" y2="-7.355" style="fill:none;stroke:#000000;stroke-width:0.3;"/>
  <line y1="-7.167" x1="33.666" x2="42.75" y2="-7.167" style="fill:none;stroke:#000000;stroke-width:0.3;"/>
  <line y1="-8.579" x1="34.812" x2="34.812" y2="-7.355" style="fill:none;stroke:#000000;stroke-width:0.3;"/>
  <line y1="-4.292" x1="50.75" x2="41.666" y2="-4.292" style="fill:none;stroke:#000000;stroke-width:0.3;"/>
  <line y1="-5.704" x1="42.812" x2="42.812" y2="-4.48" style="fill:none;stroke:#000000;stroke-width:0.3;"/>
  <line y1="-4.292" x1="33" x2="23.916" y2="-4.292" style="fill:none;stroke:#000000;stroke-width:0.3;"/>
  <line y1="-5.704" x1="25.062" x2="25.062" y2="-4.48" style="fill:none;stroke:#000000;stroke-width:0.3;"/>
  <line y1="-4.292" x1="14.875" x2="5.791" y2="-4.292" style="fill:none;stroke:#000000;stroke-width:0.3;"/>
  <line y1="-5.704" x1="6.938" x2="6.938" y2="-4.48" style="fill:none;stroke:#000000;stroke-width:0.3;"/>
  <line y1="-1.167" x1="0" x2="5.125" y2="-1.167" style="fill:none;stroke:#000000;stroke-width:0.3;"/>
  <line y1="-1.167" x1="22.875" x2="13.791" y2="-1.167" style="fill:none;stroke:#000000;stroke-width:0.3;"/>
  <line y1="-2.579" x1="14.938" x2="14.938" y2="-1.355" style="fill:none;stroke:#000000;stroke-width:0.3;"/>
  <line y1="-1.167" x1="40.75" x2="31.666" y2="-1.167" style="fill:none;stroke:#000000;stroke-width:0.3;"/>
  <line y1="-1.355" x1="32.812" x2="32.812" y2="-2.579" style="fill:none;stroke:#000000;stroke-width:0.3;"/>
  <line y1="-49.417" x1="51.958" x2="54.125" y2="-49.417" style="fill:none;stroke:#000000;stroke-width:0.3;"/>
  <line y1="-49.605" x1="53.104" x2="53.104" y2="-50.829" style="fill:none;stroke:#000000;stroke-width:0.3;"/>
  <line y1="-43.542" x1="54.125" x2="51.958" y2="-43.542" style="fill:none;stroke:#000000;stroke-width:0.3;"/>
  <line y1="-44.954" x1="53.104" x2="53.104" y2="-43.73" style="fill:none;stroke:#000000;stroke-width:0.3;"/>
  <line y1="-37.417" x1="50.208" x2="54.125" y2="-37.417" style="fill:none;stroke:#000000;stroke-width:0.3;"/>
  <line y1="-38.829" x1="51.354" x2="51.354" y2="-37.605" style="fill:none;stroke:#000000;stroke-width:0.3;"/>
  <line y1="-31.417" x1="54.125" x2="50.083" y2="-31.417" style="fill:none;stroke:#000000;stroke-width:0.3;"/>
  <line y1="-31.605" x1="51.229" x2="51.229" y2="-32.829" style="fill:none;stroke:#000000;stroke-width:0.3;"/>
  <line y1="-25.292" x1="54.125" x2="48.083" y2="-25.292" style="fill:none;stroke:#000000;stroke-width:0.3;"/>
  <line y1="-26.704" x1="49.229" x2="49.229" y2="-25.48" style="fill:none;stroke:#000000;stroke-width:0.3;"/>
  <line y1="-19.292" x1="54.125" x2="47.708" y2="-19.292" style="fill:none;stroke:#000000;stroke-width:0.3;"/>
  <line y1="-20.704" x1="48.854" x2="48.854" y2="-19.48" style="fill:none;stroke:#000000;stroke-width:0.3;"/>
  <line y1="-13.292" x1="50.208" x2="54.125" y2="-13.292" style="fill:none;stroke:#000000;stroke-width:0.3;"/>
  <line y1="-14.704" x1="51.354" x2="51.354" y2="-13.48" style="fill:none;stroke:#000000;stroke-width:0.3;"/>
  <line y1="-7.167" x1="54.125" x2="51.583" y2="-7.167" style="fill:none;stroke:#000000;stroke-width:0.3;"/>
  <line y1="-8.579" x1="52.729" x2="52.729" y2="-7.355" style="fill:none;stroke:#000000;stroke-width:0.3;"/>
  <line y1="-1.167" x1="50.208" x2="54.125" y2="-1.167" style="fill:none;stroke:#000000;stroke-width:0.3;"/>
  <line y1="-2.579" x1="51.354" x2="51.354" y2="-1.355" style="fill:none;stroke:#000000;stroke-width:0.3;"/>
  <line y1="-49.402" x1="11.298" x2="11.298" y2="-49.402" style="fill:none;stroke:#000000;stroke-width:0.7;stroke-linecap:round;"/>
  <line y1="-49.402" x1="13.578" x2="13.578" y2="-49.402" style="fill:none;stroke:#000000;stroke-width:0.7;stroke-linecap:round;"/>
  <line y1="-49.402" x1="8.911" x2="8.911" y2="-49.402" style="fill:none;stroke:#000000;stroke-width:0.7;stroke-linecap:round;"/>
  <line y1="-49.402" x1="29.302" x2="29.302" y2="-49.402" style="fill:none;stroke:#000000;stroke-width:0.7;stroke-linecap:round;"/>
  <line y1="-49.402" x1="31.581" x2="31.581" y2="-49.402" style="fill:none;stroke:#000000;stroke-width:0.7;stroke-linecap:round;"/>
  <line y1="-49.402" x1="26.915" x2="26.915" y2="-49.402" style="fill:none;stroke:#000000;stroke-width:0.7;stroke-linecap:round;"/>
  <line y1="-49.402" x1="47.385" x2="47.385" y2="-49.402" style="fill:none;stroke:#000000;stroke-width:0.7;stroke-linecap:round;"/>
  <line y1="-49.402" x1="49.665" x2="49.665" y2="-49.402" style="fill:none;stroke:#000000;stroke-width:0.7;stroke-linecap:round;"/>
  <line y1="-49.402" x1="44.998" x2="44.998" y2="-49.402" style="fill:none;stroke:#000000;stroke-width:0.7;stroke-linecap:round;"/>
  <line y1="-46.402" x1="39.468" x2="39.468" y2="-46.402" style="fill:none;stroke:#000000;stroke-width:0.7;stroke-linecap:round;"/>
  <line y1="-46.402" x1="41.748" x2="41.748" y2="-46.402" style="fill:none;stroke:#000000;stroke-width:0.7;stroke-linecap:round;"/>
  <line y1="-46.402" x1="37.081" x2="37.081" y2="-46.402" style="fill:none;stroke:#000000;stroke-width:0.7;stroke-linecap:round;"/>
  <line y1="-46.402" x1="21.468" x2="21.468" y2="-46.402" style="fill:none;stroke:#000000;stroke-width:0.7;stroke-linecap:round;"/>
  <line y1="-46.402" x1="23.748" x2="23.748" y2="-46.402" style="fill:none;stroke:#000000;stroke-width:0.7;stroke-linecap:round;"/>
  <line y1="-46.402" x1="19.081" x2="19.081" y2="-46.402" style="fill:none;stroke:#000000;stroke-width:0.7;stroke-linecap:round;"/>
  <line y1="-46.402" x1="3.508" x2="3.508" y2="-46.402" style="fill:none;stroke:#000000;stroke-width:0.7;stroke-linecap:round;"/>
  <line y1="-46.402" x1="5.788" x2="5.788" y2="-46.402" style="fill:none;stroke:#000000;stroke-width:0.7;stroke-linecap:round;"/>
  <line y1="-46.402" x1="1.121" x2="1.121" y2="-46.402" style="fill:none;stroke:#000000;stroke-width:0.7;stroke-linecap:round;"/>
  <line y1="-52.446" x1="19.135" x2="19.135" y2="-52.446" style="fill:none;stroke:#000000;stroke-width:0.7;stroke-linecap:round;"/>
  <line y1="-52.446" x1="21.415" x2="21.415" y2="-52.446" style="fill:none;stroke:#000000;stroke-width:0.7;stroke-linecap:round;"/>
  <line y1="-52.446" x1="16.748" x2="16.748" y2="-52.446" style="fill:none;stroke:#000000;stroke-width:0.7;stroke-linecap:round;"/>
  <line y1="-52.446" x1="1.258" x2="1.258" y2="-52.446" style="fill:none;stroke:#000000;stroke-width:0.7;stroke-linecap:round;"/>
  <line y1="-52.446" x1="3.538" x2="3.538" y2="-52.446" style="fill:none;stroke:#000000;stroke-width:0.7;stroke-linecap:round;"/>
  <line y1="-52.446" x1="37.385" x2="37.385" y2="-52.446" style="fill:none;stroke:#000000;stroke-width:0.7;stroke-linecap:round;"/>
  <line y1="-52.446" x1="39.665" x2="39.665" y2="-52.446" style="fill:none;stroke:#000000;stroke-width:0.7;stroke-linecap:round;"/>
  <line y1="-52.446" x1="34.998" x2="34.998" y2="-52.446" style="fill:none;stroke:#000000;stroke-width:0.7;stroke-linecap:round;"/>
  <line y1="-52.446" x1="52.788" x2="52.788" y2="-52.446" style="fill:none;stroke:#000000;stroke-width:0.7;stroke-linecap:round;"/>
  <line y1="-43.502" x1="29.161" x2="29.161" y2="-43.502" style="fill:none;stroke:#000000;stroke-width:0.7;stroke-linecap:round;"/>
  <line y1="-43.502" x1="31.441" x2="31.441" y2="-43.502" style="fill:none;stroke:#000000;stroke-width:0.7;stroke-linecap:round;"/>
  <line y1="-43.502" x1="26.775" x2="26.775" y2="-43.502" style="fill:none;stroke:#000000;stroke-width:0.7;stroke-linecap:round;"/>
  <line y1="-43.502" x1="11.285" x2="11.285" y2="-43.502" style="fill:none;stroke:#000000;stroke-width:0.7;stroke-linecap:round;"/>
  <line y1="-43.502" x1="13.564" x2="13.564" y2="-43.502" style="fill:none;stroke:#000000;stroke-width:0.7;stroke-linecap:round;"/>
  <line y1="-43.502" x1="8.898" x2="8.898" y2="-43.502" style="fill:none;stroke:#000000;stroke-width:0.7;stroke-linecap:round;"/>
  <line y1="-43.502" x1="47.411" x2="47.411" y2="-43.502" style="fill:none;stroke:#000000;stroke-width:0.7;stroke-linecap:round;"/>
  <line y1="-43.502" x1="49.691" x2="49.691" y2="-43.502" style="fill:none;stroke:#000000;stroke-width:0.7;stroke-linecap:round;"/>
  <line y1="-43.502" x1="45.024" x2="45.024" y2="-43.502" style="fill:none;stroke:#000000;stroke-width:0.7;stroke-linecap:round;"/>
  <line y1="-40.506" x1="19.01" x2="19.01" y2="-40.506" style="fill:none;stroke:#000000;stroke-width:0.7;stroke-linecap:round;"/>
  <line y1="-40.506" x1="21.29" x2="21.29" y2="-40.506" style="fill:none;stroke:#000000;stroke-width:0.7;stroke-linecap:round;"/>
  <line y1="-40.506" x1="16.623" x2="16.623" y2="-40.506" style="fill:none;stroke:#000000;stroke-width:0.7;stroke-linecap:round;"/>
  <line y1="-40.506" x1="1.133" x2="1.133" y2="-40.506" style="fill:none;stroke:#000000;stroke-width:0.7;stroke-linecap:round;"/>
  <line y1="-40.506" x1="3.413" x2="3.413" y2="-40.506" style="fill:none;stroke:#000000;stroke-width:0.7;stroke-linecap:round;"/>
  <line y1="-40.506" x1="37.26" x2="37.26" y2="-40.506" style="fill:none;stroke:#000000;stroke-width:0.7;stroke-linecap:round;"/>
  <line y1="-40.506" x1="39.54" x2="39.54" y2="-40.506" style="fill:none;stroke:#000000;stroke-width:0.7;stroke-linecap:round;"/>
  <line y1="-40.506" x1="34.873" x2="34.873" y2="-40.506" style="fill:none;stroke:#000000;stroke-width:0.7;stroke-linecap:round;"/>
  <line y1="-40.506" x1="52.663" x2="52.663" y2="-40.506" style="fill:none;stroke:#000000;stroke-width:0.7;stroke-linecap:round;"/>
  <line y1="-37.381" x1="27.447" x2="27.447" y2="-37.381" style="fill:none;stroke:#000000;stroke-width:0.7;stroke-linecap:round;"/>
  <line y1="-37.381" x1="29.728" x2="29.728" y2="-37.381" style="fill:none;stroke:#000000;stroke-width:0.7;stroke-linecap:round;"/>
  <line y1="-37.381" x1="25.061" x2="25.061" y2="-37.381" style="fill:none;stroke:#000000;stroke-width:0.7;stroke-linecap:round;"/>
  <line y1="-37.381" x1="9.57" x2="9.57" y2="-37.381" style="fill:none;stroke:#000000;stroke-width:0.7;stroke-linecap:round;"/>
  <line y1="-37.381" x1="11.851" x2="11.851" y2="-37.381" style="fill:none;stroke:#000000;stroke-width:0.7;stroke-linecap:round;"/>
  <line y1="-37.381" x1="7.184" x2="7.184" y2="-37.381" style="fill:none;stroke:#000000;stroke-width:0.7;stroke-linecap:round;"/>
  <line y1="-37.381" x1="45.697" x2="45.697" y2="-37.381" style="fill:none;stroke:#000000;stroke-width:0.7;stroke-linecap:round;"/>
  <line y1="-37.381" x1="47.978" x2="47.978" y2="-37.381" style="fill:none;stroke:#000000;stroke-width:0.7;stroke-linecap:round;"/>
  <line y1="-37.381" x1="43.311" x2="43.311" y2="-37.381" style="fill:none;stroke:#000000;stroke-width:0.7;stroke-linecap:round;"/>
  <line y1="-34.506" x1="18.885" x2="18.885" y2="-34.506" style="fill:none;stroke:#000000;stroke-width:0.7;stroke-linecap:round;"/>
  <line y1="-34.506" x1="21.165" x2="21.165" y2="-34.506" style="fill:none;stroke:#000000;stroke-width:0.7;stroke-linecap:round;"/>
  <line y1="-34.506" x1="16.498" x2="16.498" y2="-34.506" style="fill:none;stroke:#000000;stroke-width:0.7;stroke-linecap:round;"/>
  <line y1="-34.506" x1="1.008" x2="1.008" y2="-34.506" style="fill:none;stroke:#000000;stroke-width:0.7;stroke-linecap:round;"/>
  <line y1="-34.506" x1="3.288" x2="3.288" y2="-34.506" style="fill:none;stroke:#000000;stroke-width:0.7;stroke-linecap:round;"/>
  <line y1="-34.506" x1="37.135" x2="37.135" y2="-34.506" style="fill:none;stroke:#000000;stroke-width:0.7;stroke-linecap:round;"/>
  <line y1="-34.506" x1="39.415" x2="39.415" y2="-34.506" style="fill:none;stroke:#000000;stroke-width:0.7;stroke-linecap:round;"/>
  <line y1="-34.506" x1="34.748" x2="34.748" y2="-34.506" style="fill:none;stroke:#000000;stroke-width:0.7;stroke-linecap:round;"/>
  <line y1="-34.506" x1="52.538" x2="52.538" y2="-34.506" style="fill:none;stroke:#000000;stroke-width:0.7;stroke-linecap:round;"/>
  <line y1="-31.444" x1="27.322" x2="27.322" y2="-31.444" style="fill:none;stroke:#000000;stroke-width:0.7;stroke-linecap:round;"/>
  <line y1="-31.444" x1="29.603" x2="29.603" y2="-31.444" style="fill:none;stroke:#000000;stroke-width:0.7;stroke-linecap:round;"/>
  <line y1="-31.444" x1="24.936" x2="24.936" y2="-31.444" style="fill:none;stroke:#000000;stroke-width:0.7;stroke-linecap:round;"/>
  <line y1="-31.444" x1="9.445" x2="9.445" y2="-31.444" style="fill:none;stroke:#000000;stroke-width:0.7;stroke-linecap:round;"/>
  <line y1="-31.444" x1="11.726" x2="11.726" y2="-31.444" style="fill:none;stroke:#000000;stroke-width:0.7;stroke-linecap:round;"/>
  <line y1="-31.444" x1="7.059" x2="7.059" y2="-31.444" style="fill:none;stroke:#000000;stroke-width:0.7;stroke-linecap:round;"/>
  <line y1="-31.444" x1="45.572" x2="45.572" y2="-31.444" style="fill:none;stroke:#000000;stroke-width:0.7;stroke-linecap:round;"/>
  <line y1="-31.444" x1="47.853" x2="47.853" y2="-31.444" style="fill:none;stroke:#000000;stroke-width:0.7;stroke-linecap:round;"/>
  <line y1="-31.444" x1="43.186" x2="43.186" y2="-31.444" style="fill:none;stroke:#000000;stroke-width:0.7;stroke-linecap:round;"/>
  <line y1="-28.444" x1="17.072" x2="17.072" y2="-28.444" style="fill:none;stroke:#000000;stroke-width:0.7;stroke-linecap:round;"/>
  <line y1="-28.444" x1="19.353" x2="19.353" y2="-28.444" style="fill:none;stroke:#000000;stroke-width:0.7;stroke-linecap:round;"/>
  <line y1="-28.444" x1="14.686" x2="14.686" y2="-28.444" style="fill:none;stroke:#000000;stroke-width:0.7;stroke-linecap:round;"/>
  <line y1="-28.444" x1="1.476" x2="1.476" y2="-28.444" style="fill:none;stroke:#000000;stroke-width:0.7;stroke-linecap:round;"/>
  <line y1="-28.444" x1="35.322" x2="35.322" y2="-28.444" style="fill:none;stroke:#000000;stroke-width:0.7;stroke-linecap:round;"/>
  <line y1="-28.444" x1="37.603" x2="37.603" y2="-28.444" style="fill:none;stroke:#000000;stroke-width:0.7;stroke-linecap:round;"/>
  <line y1="-28.444" x1="32.936" x2="32.936" y2="-28.444" style="fill:none;stroke:#000000;stroke-width:0.7;stroke-linecap:round;"/>
  <line y1="-28.444" x1="53.112" x2="53.112" y2="-28.444" style="fill:none;stroke:#000000;stroke-width:0.7;stroke-linecap:round;"/>
  <line y1="-28.444" x1="50.726" x2="50.726" y2="-28.444" style="fill:none;stroke:#000000;stroke-width:0.7;stroke-linecap:round;"/>
  <line y1="-25.319" x1="25.26" x2="25.26" y2="-25.319" style="fill:none;stroke:#000000;stroke-width:0.7;stroke-linecap:round;"/>
  <line y1="-25.319" x1="27.54" x2="27.54" y2="-25.319" style="fill:none;stroke:#000000;stroke-width:0.7;stroke-linecap:round;"/>
  <line y1="-25.319" x1="22.873" x2="22.873" y2="-25.319" style="fill:none;stroke:#000000;stroke-width:0.7;stroke-linecap:round;"/>
  <line y1="-25.319" x1="7.383" x2="7.383" y2="-25.319" style="fill:none;stroke:#000000;stroke-width:0.7;stroke-linecap:round;"/>
  <line y1="-25.319" x1="9.663" x2="9.663" y2="-25.319" style="fill:none;stroke:#000000;stroke-width:0.7;stroke-linecap:round;"/>
  <line y1="-25.319" x1="4.996" x2="4.996" y2="-25.319" style="fill:none;stroke:#000000;stroke-width:0.7;stroke-linecap:round;"/>
  <line y1="-25.319" x1="43.51" x2="43.51" y2="-25.319" style="fill:none;stroke:#000000;stroke-width:0.7;stroke-linecap:round;"/>
  <line y1="-25.319" x1="45.79" x2="45.79" y2="-25.319" style="fill:none;stroke:#000000;stroke-width:0.7;stroke-linecap:round;"/>
  <line y1="-25.319" x1="41.123" x2="41.123" y2="-25.319" style="fill:none;stroke:#000000;stroke-width:0.7;stroke-linecap:round;"/>
  <line y1="-22.381" x1="14.947" x2="14.947" y2="-22.381" style="fill:none;stroke:#000000;stroke-width:0.7;stroke-linecap:round;"/>
  <line y1="-22.381" x1="17.228" x2="17.228" y2="-22.381" style="fill:none;stroke:#000000;stroke-width:0.7;stroke-linecap:round;"/>
  <line y1="-22.381" x1="12.561" x2="12.561" y2="-22.381" style="fill:none;stroke:#000000;stroke-width:0.7;stroke-linecap:round;"/>
  <line y1="-22.381" x1="33.197" x2="33.197" y2="-22.381" style="fill:none;stroke:#000000;stroke-width:0.7;stroke-linecap:round;"/>
  <line y1="-22.381" x1="35.478" x2="35.478" y2="-22.381" style="fill:none;stroke:#000000;stroke-width:0.7;stroke-linecap:round;"/>
  <line y1="-22.381" x1="30.811" x2="30.811" y2="-22.381" style="fill:none;stroke:#000000;stroke-width:0.7;stroke-linecap:round;"/>
  <line y1="-22.381" x1="50.987" x2="50.987" y2="-22.381" style="fill:none;stroke:#000000;stroke-width:0.7;stroke-linecap:round;"/>
  <line y1="-22.381" x1="53.268" x2="53.268" y2="-22.381" style="fill:none;stroke:#000000;stroke-width:0.7;stroke-linecap:round;"/>
  <line y1="-22.381" x1="48.601" x2="48.601" y2="-22.381" style="fill:none;stroke:#000000;stroke-width:0.7;stroke-linecap:round;"/>
  <line y1="-19.256" x1="24.947" x2="24.947" y2="-19.256" style="fill:none;stroke:#000000;stroke-width:0.7;stroke-linecap:round;"/>
  <line y1="-19.256" x1="27.228" x2="27.228" y2="-19.256" style="fill:none;stroke:#000000;stroke-width:0.7;stroke-linecap:round;"/>
  <line y1="-19.256" x1="22.561" x2="22.561" y2="-19.256" style="fill:none;stroke:#000000;stroke-width:0.7;stroke-linecap:round;"/>
  <line y1="-19.256" x1="7.07" x2="7.07" y2="-19.256" style="fill:none;stroke:#000000;stroke-width:0.7;stroke-linecap:round;"/>
  <line y1="-19.256" x1="9.351" x2="9.351" y2="-19.256" style="fill:none;stroke:#000000;stroke-width:0.7;stroke-linecap:round;"/>
  <line y1="-19.256" x1="4.684" x2="4.684" y2="-19.256" style="fill:none;stroke:#000000;stroke-width:0.7;stroke-linecap:round;"/>
  <line y1="-19.256" x1="43.197" x2="43.197" y2="-19.256" style="fill:none;stroke:#000000;stroke-width:0.7;stroke-linecap:round;"/>
  <line y1="-19.256" x1="45.478" x2="45.478" y2="-19.256" style="fill:none;stroke:#000000;stroke-width:0.7;stroke-linecap:round;"/>
  <line y1="-19.256" x1="40.811" x2="40.811" y2="-19.256" style="fill:none;stroke:#000000;stroke-width:0.7;stroke-linecap:round;"/>
  <line y1="-16.256" x1="17.135" x2="17.135" y2="-16.256" style="fill:none;stroke:#000000;stroke-width:0.7;stroke-linecap:round;"/>
  <line y1="-16.256" x1="19.415" x2="19.415" y2="-16.256" style="fill:none;stroke:#000000;stroke-width:0.7;stroke-linecap:round;"/>
  <line y1="-16.256" x1="14.748" x2="14.748" y2="-16.256" style="fill:none;stroke:#000000;stroke-width:0.7;stroke-linecap:round;"/>
  <line y1="-16.256" x1="1.538" x2="1.538" y2="-16.256" style="fill:none;stroke:#000000;stroke-width:0.7;stroke-linecap:round;"/>
  <line y1="-16.256" x1="35.385" x2="35.385" y2="-16.256" style="fill:none;stroke:#000000;stroke-width:0.7;stroke-linecap:round;"/>
  <line y1="-16.256" x1="37.665" x2="37.665" y2="-16.256" style="fill:none;stroke:#000000;stroke-width:0.7;stroke-linecap:round;"/>
  <line y1="-16.256" x1="32.998" x2="32.998" y2="-16.256" style="fill:none;stroke:#000000;stroke-width:0.7;stroke-linecap:round;"/>
  <line y1="-16.256" x1="53.175" x2="53.175" y2="-16.256" style="fill:none;stroke:#000000;stroke-width:0.7;stroke-linecap:round;"/>
  <line y1="-16.256" x1="50.788" x2="50.788" y2="-16.256" style="fill:none;stroke:#000000;stroke-width:0.7;stroke-linecap:round;"/>
  <line y1="-13.256" x1="27.322" x2="27.322" y2="-13.256" style="fill:none;stroke:#000000;stroke-width:0.7;stroke-linecap:round;"/>
  <line y1="-13.256" x1="29.603" x2="29.603" y2="-13.256" style="fill:none;stroke:#000000;stroke-width:0.7;stroke-linecap:round;"/>
  <line y1="-13.256" x1="24.936" x2="24.936" y2="-13.256" style="fill:none;stroke:#000000;stroke-width:0.7;stroke-linecap:round;"/>
  <line y1="-13.256" x1="9.445" x2="9.445" y2="-13.256" style="fill:none;stroke:#000000;stroke-width:0.7;stroke-linecap:round;"/>
  <line y1="-13.256" x1="11.726" x2="11.726" y2="-13.256" style="fill:none;stroke:#000000;stroke-width:0.7;stroke-linecap:round;"/>
  <line y1="-13.256" x1="7.059" x2="7.059" y2="-13.256" style="fill:none;stroke:#000000;stroke-width:0.7;stroke-linecap:round;"/>
  <line y1="-13.256" x1="45.572" x2="45.572" y2="-13.256" style="fill:none;stroke:#000000;stroke-width:0.7;stroke-linecap:round;"/>
  <line y1="-13.256" x1="47.853" x2="47.853" y2="-13.256" style="fill:none;stroke:#000000;stroke-width:0.7;stroke-linecap:round;"/>
  <line y1="-13.256" x1="43.186" x2="43.186" y2="-13.256" style="fill:none;stroke:#000000;stroke-width:0.7;stroke-linecap:round;"/>
  <line y1="-10.444" x1="19.135" x2="19.135" y2="-10.444" style="fill:none;stroke:#000000;stroke-width:0.7;stroke-linecap:round;"/>
  <line y1="-10.444" x1="21.415" x2="21.415" y2="-10.444" style="fill:none;stroke:#000000;stroke-width:0.7;stroke-linecap:round;"/>
  <line y1="-10.444" x1="16.748" x2="16.748" y2="-10.444" style="fill:none;stroke:#000000;stroke-width:0.7;stroke-linecap:round;"/>
  <line y1="-10.444" x1="1.258" x2="1.258" y2="-10.444" style="fill:none;stroke:#000000;stroke-width:0.7;stroke-linecap:round;"/>
  <line y1="-10.444" x1="3.538" x2="3.538" y2="-10.444" style="fill:none;stroke:#000000;stroke-width:0.7;stroke-linecap:round;"/>
  <line y1="-10.444" x1="37.385" x2="37.385" y2="-10.444" style="fill:none;stroke:#000000;stroke-width:0.7;stroke-linecap:round;"/>
  <line y1="-10.444" x1="39.665" x2="39.665" y2="-10.444" style="fill:none;stroke:#000000;stroke-width:0.7;stroke-linecap:round;"/>
  <line y1="-10.444" x1="34.998" x2="34.998" y2="-10.444" style="fill:none;stroke:#000000;stroke-width:0.7;stroke-linecap:round;"/>
  <line y1="-10.444" x1="52.788" x2="52.788" y2="-10.444" style="fill:none;stroke:#000000;stroke-width:0.7;stroke-linecap:round;"/>
  <line y1="-7.131" x1="29.01" x2="29.01" y2="-7.131" style="fill:none;stroke:#000000;stroke-width:0.7;stroke-linecap:round;"/>
  <line y1="-7.131" x1="31.29" x2="31.29" y2="-7.131" style="fill:none;stroke:#000000;stroke-width:0.7;stroke-linecap:round;"/>
  <line y1="-7.131" x1="26.623" x2="26.623" y2="-7.131" style="fill:none;stroke:#000000;stroke-width:0.7;stroke-linecap:round;"/>
  <line y1="-7.131" x1="11.133" x2="11.133" y2="-7.131" style="fill:none;stroke:#000000;stroke-width:0.7;stroke-linecap:round;"/>
  <line y1="-7.131" x1="13.413" x2="13.413" y2="-7.131" style="fill:none;stroke:#000000;stroke-width:0.7;stroke-linecap:round;"/>
  <line y1="-7.131" x1="8.746" x2="8.746" y2="-7.131" style="fill:none;stroke:#000000;stroke-width:0.7;stroke-linecap:round;"/>
  <line y1="-7.131" x1="47.26" x2="47.26" y2="-7.131" style="fill:none;stroke:#000000;stroke-width:0.7;stroke-linecap:round;"/>
  <line y1="-7.131" x1="49.54" x2="49.54" y2="-7.131" style="fill:none;stroke:#000000;stroke-width:0.7;stroke-linecap:round;"/>
  <line y1="-7.131" x1="44.873" x2="44.873" y2="-7.131" style="fill:none;stroke:#000000;stroke-width:0.7;stroke-linecap:round;"/>
  <line y1="-4.256" x1="19.197" x2="19.197" y2="-4.256" style="fill:none;stroke:#000000;stroke-width:0.7;stroke-linecap:round;"/>
  <line y1="-4.256" x1="21.478" x2="21.478" y2="-4.256" style="fill:none;stroke:#000000;stroke-width:0.7;stroke-linecap:round;"/>
  <line y1="-4.256" x1="16.811" x2="16.811" y2="-4.256" style="fill:none;stroke:#000000;stroke-width:0.7;stroke-linecap:round;"/>
  <line y1="-4.256" x1="1.32" x2="1.32" y2="-4.256" style="fill:none;stroke:#000000;stroke-width:0.7;stroke-linecap:round;"/>
  <line y1="-4.256" x1="3.601" x2="3.601" y2="-4.256" style="fill:none;stroke:#000000;stroke-width:0.7;stroke-linecap:round;"/>
  <line y1="-4.256" x1="37.447" x2="37.447" y2="-4.256" style="fill:none;stroke:#000000;stroke-width:0.7;stroke-linecap:round;"/>
  <line y1="-4.256" x1="39.728" x2="39.728" y2="-4.256" style="fill:none;stroke:#000000;stroke-width:0.7;stroke-linecap:round;"/>
  <line y1="-4.256" x1="35.061" x2="35.061" y2="-4.256" style="fill:none;stroke:#000000;stroke-width:0.7;stroke-linecap:round;"/>
  <line y1="-4.256" x1="52.851" x2="52.851" y2="-4.256" style="fill:none;stroke:#000000;stroke-width:0.7;stroke-linecap:round;"/>
  <line y1="-1.131" x1="27.385" x2="27.385" y2="-1.131" style="fill:none;stroke:#000000;stroke-width:0.7;stroke-linecap:round;"/>
  <line y1="-1.131" x1="29.665" x2="29.665" y2="-1.131" style="fill:none;stroke:#000000;stroke-width:0.7;stroke-linecap:round;"/>
  <line y1="-1.131" x1="24.998" x2="24.998" y2="-1.131" style="fill:none;stroke:#000000;stroke-width:0.7;stroke-linecap:round;"/>
  <line y1="-1.131" x1="9.508" x2="9.508" y2="-1.131" style="fill:none;stroke:#000000;stroke-width:0.7;stroke-linecap:round;"/>
  <line y1="-1.131" x1="11.788" x2="11.788" y2="-1.131" style="fill:none;stroke:#000000;stroke-width:0.7;stroke-linecap:round;"/>
  <line y1="-1.131" x1="7.121" x2="7.121" y2="-1.131" style="fill:none;stroke:#000000;stroke-width:0.7;stroke-linecap:round;"/>
  <line y1="-1.131" x1="45.635" x2="45.635" y2="-1.131" style="fill:none;stroke:#000000;stroke-width:0.7;stroke-linecap:round;"/>
  <line y1="-1.131" x1="47.915" x2="47.915" y2="-1.131" style="fill:none;stroke:#000000;stroke-width:0.7;stroke-linecap:round;"/>
  <line y1="-1.131" x1="43.248" x2="43.248" y2="-1.131" style="fill:none;stroke:#000000;stroke-width:0.7;stroke-linecap:round;"/>
 </g>
</svg>
