<?xml version="1.0"?>
<!-- Converted with SVG Converter - Version 0.9.5 (Compiled Fri Feb 21 09:53:38 2020) - Copyright (C) 2011 Nokia -->
<svg xmlns="http://www.w3.org/2000/svg" y="0px" x="0px" baseProfile="tiny" xmlns:xlink="http://www.w3.org/1999/xlink" version="1.1" viewBox="0 -54.125 54.125 54.125" height="54.125" xml:space="preserve" width="54.125">
 <g>
  <rect y="-54.125" height="54.125" style="fill:none;" width="54.125"/>
  <line y2="-52.771" x1="5.666" y1="-52.771" style="fill:none;stroke:#000000;stroke-width:0.3;" x2="14.75"/>
  <line y2="-53.973" x1="6.792" y1="-52.833" style="fill:none;stroke:#000000;stroke-width:0.3;" x2="7.602"/>
  <line y2="-52.771" x1="23.791" y1="-52.771" style="fill:none;stroke:#000000;stroke-width:0.3;" x2="32.875"/>
  <line y2="-53.973" x1="24.917" y1="-52.833" style="fill:none;stroke:#000000;stroke-width:0.3;" x2="25.727"/>
  <line y2="-52.771" x1="41.916" y1="-52.771" style="fill:none;stroke:#000000;stroke-width:0.3;" x2="51"/>
  <line y2="-53.973" x1="43.042" y1="-52.833" style="fill:none;stroke:#000000;stroke-width:0.3;" x2="43.852"/>
  <line y2="-49.583" x1="6.875" y1="-49.583" style="fill:none;stroke:#000000;stroke-width:0.3;" x2="0"/>
  <line y2="-49.583" x1="24.75" y1="-49.583" style="fill:none;stroke:#000000;stroke-width:0.3;" x2="15.666"/>
  <line y2="-50.785" x1="16.792" y1="-49.646" style="fill:none;stroke:#000000;stroke-width:0.3;" x2="17.602"/>
  <line y2="-49.583" x1="42.875" y1="-49.583" style="fill:none;stroke:#000000;stroke-width:0.3;" x2="33.791"/>
  <line y2="-50.785" x1="34.917" y1="-49.646" style="fill:none;stroke:#000000;stroke-width:0.3;" x2="35.727"/>
  <line y2="-46.583" x1="17" y1="-46.583" style="fill:none;stroke:#000000;stroke-width:0.3;" x2="7.916"/>
  <line y2="-46.646" x1="9.852" y1="-47.785" style="fill:none;stroke:#000000;stroke-width:0.3;" x2="9.042"/>
  <line y2="-46.583" x1="35" y1="-46.583" style="fill:none;stroke:#000000;stroke-width:0.3;" x2="25.916"/>
  <line y2="-46.646" x1="27.852" y1="-47.785" style="fill:none;stroke:#000000;stroke-width:0.3;" x2="27.042"/>
  <line y2="-46.583" x1="43.791" y1="-46.583" style="fill:none;stroke:#000000;stroke-width:0.3;" x2="52.875"/>
  <line y2="-46.646" x1="45.727" y1="-47.785" style="fill:none;stroke:#000000;stroke-width:0.3;" x2="44.917"/>
  <line y2="-43.708" x1="6.875" y1="-43.708" style="fill:none;stroke:#000000;stroke-width:0.3;" x2="0"/>
  <line y2="-43.708" x1="15.666" y1="-43.708" style="fill:none;stroke:#000000;stroke-width:0.3;" x2="24.75"/>
  <line y2="-44.91" x1="16.792" y1="-43.771" style="fill:none;stroke:#000000;stroke-width:0.3;" x2="17.602"/>
  <line y2="-43.708" x1="33.666" y1="-43.708" style="fill:none;stroke:#000000;stroke-width:0.3;" x2="42.75"/>
  <line y2="-44.91" x1="34.792" y1="-43.771" style="fill:none;stroke:#000000;stroke-width:0.3;" x2="35.602"/>
  <line y2="-40.708" x1="41.666" y1="-40.708" style="fill:none;stroke:#000000;stroke-width:0.3;" x2="50.75"/>
  <line y2="-41.91" x1="42.792" y1="-40.771" style="fill:none;stroke:#000000;stroke-width:0.3;" x2="43.602"/>
  <line y2="-40.708" x1="23.666" y1="-40.708" style="fill:none;stroke:#000000;stroke-width:0.3;" x2="32.75"/>
  <line y2="-41.91" x1="24.792" y1="-40.771" style="fill:none;stroke:#000000;stroke-width:0.3;" x2="25.602"/>
  <line y2="-40.708" x1="14.625" y1="-40.708" style="fill:none;stroke:#000000;stroke-width:0.3;" x2="5.541"/>
  <line y2="-40.771" x1="7.477" y1="-41.91" style="fill:none;stroke:#000000;stroke-width:0.3;" x2="6.667"/>
  <line y2="-37.583" x1="0" y1="-37.583" style="fill:none;stroke:#000000;stroke-width:0.3;" x2="5.125"/>
  <line y2="-37.583" x1="23.125" y1="-37.583" style="fill:none;stroke:#000000;stroke-width:0.3;" x2="14.041"/>
  <line y2="-37.646" x1="15.977" y1="-38.785" style="fill:none;stroke:#000000;stroke-width:0.3;" x2="15.167"/>
  <line y2="-37.583" x1="31.916" y1="-37.583" style="fill:none;stroke:#000000;stroke-width:0.3;" x2="41"/>
  <line y2="-37.646" x1="33.852" y1="-38.785" style="fill:none;stroke:#000000;stroke-width:0.3;" x2="33.042"/>
  <line y2="-34.708" x1="41.666" y1="-34.708" style="fill:none;stroke:#000000;stroke-width:0.3;" x2="50.75"/>
  <line y2="-35.91" x1="42.792" y1="-34.771" style="fill:none;stroke:#000000;stroke-width:0.3;" x2="43.602"/>
  <line y2="-34.708" x1="32.875" y1="-34.708" style="fill:none;stroke:#000000;stroke-width:0.3;" x2="23.791"/>
  <line y2="-35.91" x1="24.917" y1="-34.771" style="fill:none;stroke:#000000;stroke-width:0.3;" x2="25.727"/>
  <line y2="-34.708" x1="5.916" y1="-34.708" style="fill:none;stroke:#000000;stroke-width:0.3;" x2="15"/>
  <line y2="-35.91" x1="7.042" y1="-34.771" style="fill:none;stroke:#000000;stroke-width:0.3;" x2="7.852"/>
  <line y2="-31.583" x1="5" y1="-31.583" style="fill:none;stroke:#000000;stroke-width:0.3;" x2="0"/>
  <line y2="-31.583" x1="13.791" y1="-31.583" style="fill:none;stroke:#000000;stroke-width:0.3;" x2="22.875"/>
  <line y2="-32.785" x1="14.917" y1="-31.646" style="fill:none;stroke:#000000;stroke-width:0.3;" x2="15.727"/>
  <line y2="-31.583" x1="31.791" y1="-31.583" style="fill:none;stroke:#000000;stroke-width:0.3;" x2="40.875"/>
  <line y2="-31.646" x1="33.727" y1="-32.785" style="fill:none;stroke:#000000;stroke-width:0.3;" x2="32.917"/>
  <line y2="-28.583" x1="39.791" y1="-28.583" style="fill:none;stroke:#000000;stroke-width:0.3;" x2="48.875"/>
  <line y2="-28.646" x1="41.727" y1="-29.785" style="fill:none;stroke:#000000;stroke-width:0.3;" x2="40.917"/>
  <line y2="-28.583" x1="30.875" y1="-28.583" style="fill:none;stroke:#000000;stroke-width:0.3;" x2="21.791"/>
  <line y2="-28.646" x1="23.727" y1="-29.785" style="fill:none;stroke:#000000;stroke-width:0.3;" x2="22.917"/>
  <line y2="-28.583" x1="12.625" y1="-28.583" style="fill:none;stroke:#000000;stroke-width:0.3;" x2="3.541"/>
  <line y2="-29.785" x1="4.667" y1="-28.646" style="fill:none;stroke:#000000;stroke-width:0.3;" x2="5.477"/>
  <line y2="-25.458" x1="0" y1="-25.458" style="fill:none;stroke:#000000;stroke-width:0.3;" x2="3"/>
  <line y2="-25.458" x1="20.875" y1="-25.458" style="fill:none;stroke:#000000;stroke-width:0.3;" x2="11.791"/>
  <line y2="-25.521" x1="13.727" y1="-26.66" style="fill:none;stroke:#000000;stroke-width:0.3;" x2="12.917"/>
  <line y2="-25.458" x1="29.916" y1="-25.458" style="fill:none;stroke:#000000;stroke-width:0.3;" x2="39"/>
  <line y2="-25.521" x1="31.852" y1="-26.66" style="fill:none;stroke:#000000;stroke-width:0.3;" x2="31.042"/>
  <line y2="-22.583" x1="46.75" y1="-22.583" style="fill:none;stroke:#000000;stroke-width:0.3;" x2="37.666"/>
  <line y2="-22.646" x1="39.602" y1="-23.785" style="fill:none;stroke:#000000;stroke-width:0.3;" x2="38.792"/>
  <line y2="-22.583" x1="19.666" y1="-22.583" style="fill:none;stroke:#000000;stroke-width:0.3;" x2="28.75"/>
  <line y2="-23.785" x1="20.792" y1="-22.646" style="fill:none;stroke:#000000;stroke-width:0.3;" x2="21.602"/>
  <line y2="-22.583" x1="10.875" y1="-22.583" style="fill:none;stroke:#000000;stroke-width:0.3;" x2="1.791"/>
  <line y2="-22.646" x1="3.727" y1="-23.785" style="fill:none;stroke:#000000;stroke-width:0.3;" x2="2.917"/>
  <line y2="-19.458" x1="2.625" y1="-19.458" style="fill:none;stroke:#000000;stroke-width:0.3;" x2="0"/>
  <line y2="-19.458" x1="20.625" y1="-19.458" style="fill:none;stroke:#000000;stroke-width:0.3;" x2="11.541"/>
  <line y2="-20.66" x1="12.667" y1="-19.521" style="fill:none;stroke:#000000;stroke-width:0.3;" x2="13.477"/>
  <line y2="-19.458" x1="29.541" y1="-19.458" style="fill:none;stroke:#000000;stroke-width:0.3;" x2="38.625"/>
  <line y2="-19.521" x1="31.477" y1="-20.66" style="fill:none;stroke:#000000;stroke-width:0.3;" x2="30.667"/>
  <line y2="-16.458" x1="39.791" y1="-16.458" style="fill:none;stroke:#000000;stroke-width:0.3;" x2="48.875"/>
  <line y2="-16.521" x1="41.727" y1="-17.66" style="fill:none;stroke:#000000;stroke-width:0.3;" x2="40.917"/>
  <line y2="-16.458" x1="21.791" y1="-16.458" style="fill:none;stroke:#000000;stroke-width:0.3;" x2="30.875"/>
  <line y2="-16.521" x1="23.727" y1="-17.66" style="fill:none;stroke:#000000;stroke-width:0.3;" x2="22.917"/>
  <line y2="-16.458" x1="12.875" y1="-16.458" style="fill:none;stroke:#000000;stroke-width:0.3;" x2="3.791"/>
  <line y2="-17.66" x1="4.917" y1="-16.521" style="fill:none;stroke:#000000;stroke-width:0.3;" x2="5.727"/>
  <line y2="-13.458" x1="5.125" y1="-13.458" style="fill:none;stroke:#000000;stroke-width:0.3;" x2="0"/>
  <line y2="-13.458" x1="13.916" y1="-13.458" style="fill:none;stroke:#000000;stroke-width:0.3;" x2="23"/>
  <line y2="-14.66" x1="15.042" y1="-13.521" style="fill:none;stroke:#000000;stroke-width:0.3;" x2="15.852"/>
  <line y2="-13.458" x1="31.791" y1="-13.458" style="fill:none;stroke:#000000;stroke-width:0.3;" x2="40.875"/>
  <line y2="-13.521" x1="33.727" y1="-14.66" style="fill:none;stroke:#000000;stroke-width:0.3;" x2="32.917"/>
  <line y2="-10.583" x1="41.666" y1="-10.583" style="fill:none;stroke:#000000;stroke-width:0.3;" x2="50.75"/>
  <line y2="-10.646" x1="43.602" y1="-11.785" style="fill:none;stroke:#000000;stroke-width:0.3;" x2="42.792"/>
  <line y2="-10.583" x1="33" y1="-10.583" style="fill:none;stroke:#000000;stroke-width:0.3;" x2="23.916"/>
  <line y2="-11.785" x1="25.042" y1="-10.646" style="fill:none;stroke:#000000;stroke-width:0.3;" x2="25.852"/>
  <line y2="-10.583" x1="15" y1="-10.583" style="fill:none;stroke:#000000;stroke-width:0.3;" x2="5.916"/>
  <line y2="-11.785" x1="7.042" y1="-10.646" style="fill:none;stroke:#000000;stroke-width:0.3;" x2="7.852"/>
  <line y2="-7.333" x1="6.5" y1="-7.333" style="fill:none;stroke:#000000;stroke-width:0.3;" x2="0"/>
  <line y2="-7.333" x1="15.541" y1="-7.333" style="fill:none;stroke:#000000;stroke-width:0.3;" x2="24.625"/>
  <line y2="-7.396" x1="17.477" y1="-8.535" style="fill:none;stroke:#000000;stroke-width:0.3;" x2="16.667"/>
  <line y2="-7.333" x1="33.666" y1="-7.333" style="fill:none;stroke:#000000;stroke-width:0.3;" x2="42.75"/>
  <line y2="-7.396" x1="35.602" y1="-8.535" style="fill:none;stroke:#000000;stroke-width:0.3;" x2="34.792"/>
  <line y2="-4.458" x1="50.75" y1="-4.458" style="fill:none;stroke:#000000;stroke-width:0.3;" x2="41.666"/>
  <line y2="-4.521" x1="43.602" y1="-5.66" style="fill:none;stroke:#000000;stroke-width:0.3;" x2="42.792"/>
  <line y2="-4.458" x1="33" y1="-4.458" style="fill:none;stroke:#000000;stroke-width:0.3;" x2="23.916"/>
  <line y2="-4.521" x1="25.852" y1="-5.66" style="fill:none;stroke:#000000;stroke-width:0.3;" x2="25.042"/>
  <line y2="-4.458" x1="14.875" y1="-4.458" style="fill:none;stroke:#000000;stroke-width:0.3;" x2="5.791"/>
  <line y2="-4.521" x1="7.727" y1="-5.66" style="fill:none;stroke:#000000;stroke-width:0.3;" x2="6.917"/>
  <line y2="-1.333" x1="0" y1="-1.333" style="fill:none;stroke:#000000;stroke-width:0.3;" x2="5.125"/>
  <line y2="-1.333" x1="22.875" y1="-1.333" style="fill:none;stroke:#000000;stroke-width:0.3;" x2="13.791"/>
  <line y2="-1.395" x1="15.727" y1="-2.535" style="fill:none;stroke:#000000;stroke-width:0.3;" x2="14.917"/>
  <line y2="-1.333" x1="40.75" y1="-1.333" style="fill:none;stroke:#000000;stroke-width:0.3;" x2="31.666"/>
  <line y2="-2.535" x1="32.792" y1="-1.395" style="fill:none;stroke:#000000;stroke-width:0.3;" x2="33.602"/>
  <line y2="-49.583" x1="51.958" y1="-49.583" style="fill:none;stroke:#000000;stroke-width:0.3;" x2="54.125"/>
  <line y2="-50.785" x1="53.083" y1="-49.646" style="fill:none;stroke:#000000;stroke-width:0.3;" x2="53.894"/>
  <line y2="-43.708" x1="54.125" y1="-43.708" style="fill:none;stroke:#000000;stroke-width:0.3;" x2="51.958"/>
  <line y2="-43.771" x1="53.894" y1="-44.91" style="fill:none;stroke:#000000;stroke-width:0.3;" x2="53.083"/>
  <line y2="-37.583" x1="50.208" y1="-37.583" style="fill:none;stroke:#000000;stroke-width:0.3;" x2="54.125"/>
  <line y2="-38.785" x1="51.333" y1="-37.646" style="fill:none;stroke:#000000;stroke-width:0.3;" x2="52.144"/>
  <line y2="-31.583" x1="54.125" y1="-31.583" style="fill:none;stroke:#000000;stroke-width:0.3;" x2="50.083"/>
  <line y2="-32.785" x1="51.208" y1="-31.646" style="fill:none;stroke:#000000;stroke-width:0.3;" x2="52.019"/>
  <line y2="-25.458" x1="54.125" y1="-25.458" style="fill:none;stroke:#000000;stroke-width:0.3;" x2="48.083"/>
  <line y2="-25.521" x1="50.019" y1="-26.66" style="fill:none;stroke:#000000;stroke-width:0.3;" x2="49.208"/>
  <line y2="-19.458" x1="54.125" y1="-19.458" style="fill:none;stroke:#000000;stroke-width:0.3;" x2="47.708"/>
  <line y2="-19.521" x1="49.644" y1="-20.66" style="fill:none;stroke:#000000;stroke-width:0.3;" x2="48.833"/>
  <line y2="-13.458" x1="50.208" y1="-13.458" style="fill:none;stroke:#000000;stroke-width:0.3;" x2="54.125"/>
  <line y2="-13.521" x1="52.144" y1="-14.66" style="fill:none;stroke:#000000;stroke-width:0.3;" x2="51.333"/>
  <line y2="-7.333" x1="54.125" y1="-7.333" style="fill:none;stroke:#000000;stroke-width:0.3;" x2="51.583"/>
  <line y2="-7.396" x1="53.519" y1="-8.535" style="fill:none;stroke:#000000;stroke-width:0.3;" x2="52.708"/>
  <line y2="-1.333" x1="50.208" y1="-1.333" style="fill:none;stroke:#000000;stroke-width:0.3;" x2="54.125"/>
  <line y2="-2.535" x1="51.333" y1="-1.395" style="fill:none;stroke:#000000;stroke-width:0.3;" x2="52.144"/>
  <line y2="-49.566" x1="11.338" y1="-49.566" style="fill:none;stroke:#000000;stroke-width:0.7;stroke-linecap:round;" x2="11.338"/>
  <line y2="-49.566" x1="13.618" y1="-49.566" style="fill:none;stroke:#000000;stroke-width:0.7;stroke-linecap:round;" x2="13.618"/>
  <line y2="-49.566" x1="8.951" y1="-49.566" style="fill:none;stroke:#000000;stroke-width:0.7;stroke-linecap:round;" x2="8.951"/>
  <line y2="-49.566" x1="29.342" y1="-49.566" style="fill:none;stroke:#000000;stroke-width:0.7;stroke-linecap:round;" x2="29.342"/>
  <line y2="-49.566" x1="31.621" y1="-49.566" style="fill:none;stroke:#000000;stroke-width:0.7;stroke-linecap:round;" x2="31.621"/>
  <line y2="-49.566" x1="26.955" y1="-49.566" style="fill:none;stroke:#000000;stroke-width:0.7;stroke-linecap:round;" x2="26.955"/>
  <line y2="-49.566" x1="47.425" y1="-49.566" style="fill:none;stroke:#000000;stroke-width:0.7;stroke-linecap:round;" x2="47.425"/>
  <line y2="-49.566" x1="49.705" y1="-49.566" style="fill:none;stroke:#000000;stroke-width:0.7;stroke-linecap:round;" x2="49.705"/>
  <line y2="-49.566" x1="45.038" y1="-49.566" style="fill:none;stroke:#000000;stroke-width:0.7;stroke-linecap:round;" x2="45.038"/>
  <line y2="-46.566" x1="39.508" y1="-46.566" style="fill:none;stroke:#000000;stroke-width:0.7;stroke-linecap:round;" x2="39.508"/>
  <line y2="-46.566" x1="41.788" y1="-46.566" style="fill:none;stroke:#000000;stroke-width:0.7;stroke-linecap:round;" x2="41.788"/>
  <line y2="-46.566" x1="37.121" y1="-46.566" style="fill:none;stroke:#000000;stroke-width:0.7;stroke-linecap:round;" x2="37.121"/>
  <line y2="-46.566" x1="21.508" y1="-46.566" style="fill:none;stroke:#000000;stroke-width:0.7;stroke-linecap:round;" x2="21.508"/>
  <line y2="-46.566" x1="23.788" y1="-46.566" style="fill:none;stroke:#000000;stroke-width:0.7;stroke-linecap:round;" x2="23.788"/>
  <line y2="-46.566" x1="19.121" y1="-46.566" style="fill:none;stroke:#000000;stroke-width:0.7;stroke-linecap:round;" x2="19.121"/>
  <line y2="-46.566" x1="3.548" y1="-46.566" style="fill:none;stroke:#000000;stroke-width:0.7;stroke-linecap:round;" x2="3.548"/>
  <line y2="-46.566" x1="5.828" y1="-46.566" style="fill:none;stroke:#000000;stroke-width:0.7;stroke-linecap:round;" x2="5.828"/>
  <line y2="-46.566" x1="1.161" y1="-46.566" style="fill:none;stroke:#000000;stroke-width:0.7;stroke-linecap:round;" x2="1.161"/>
  <line y2="-52.689" x1="19.175" y1="-52.689" style="fill:none;stroke:#000000;stroke-width:0.7;stroke-linecap:round;" x2="19.175"/>
  <line y2="-52.689" x1="21.455" y1="-52.689" style="fill:none;stroke:#000000;stroke-width:0.7;stroke-linecap:round;" x2="21.455"/>
  <line y2="-52.689" x1="16.788" y1="-52.689" style="fill:none;stroke:#000000;stroke-width:0.7;stroke-linecap:round;" x2="16.788"/>
  <line y2="-52.689" x1="1.298" y1="-52.689" style="fill:none;stroke:#000000;stroke-width:0.7;stroke-linecap:round;" x2="1.298"/>
  <line y2="-52.689" x1="3.578" y1="-52.689" style="fill:none;stroke:#000000;stroke-width:0.7;stroke-linecap:round;" x2="3.578"/>
  <line y2="-52.689" x1="37.425" y1="-52.689" style="fill:none;stroke:#000000;stroke-width:0.7;stroke-linecap:round;" x2="37.425"/>
  <line y2="-52.689" x1="39.705" y1="-52.689" style="fill:none;stroke:#000000;stroke-width:0.7;stroke-linecap:round;" x2="39.705"/>
  <line y2="-52.689" x1="35.038" y1="-52.689" style="fill:none;stroke:#000000;stroke-width:0.7;stroke-linecap:round;" x2="35.038"/>
  <line y2="-52.689" x1="52.828" y1="-52.689" style="fill:none;stroke:#000000;stroke-width:0.7;stroke-linecap:round;" x2="52.828"/>
  <line y2="-43.666" x1="29.201" y1="-43.666" style="fill:none;stroke:#000000;stroke-width:0.7;stroke-linecap:round;" x2="29.201"/>
  <line y2="-43.666" x1="31.482" y1="-43.666" style="fill:none;stroke:#000000;stroke-width:0.7;stroke-linecap:round;" x2="31.482"/>
  <line y2="-43.666" x1="26.815" y1="-43.666" style="fill:none;stroke:#000000;stroke-width:0.7;stroke-linecap:round;" x2="26.815"/>
  <line y2="-43.666" x1="11.324" y1="-43.666" style="fill:none;stroke:#000000;stroke-width:0.7;stroke-linecap:round;" x2="11.324"/>
  <line y2="-43.666" x1="13.604" y1="-43.666" style="fill:none;stroke:#000000;stroke-width:0.7;stroke-linecap:round;" x2="13.604"/>
  <line y2="-43.666" x1="8.939" y1="-43.666" style="fill:none;stroke:#000000;stroke-width:0.7;stroke-linecap:round;" x2="8.939"/>
  <line y2="-43.666" x1="47.451" y1="-43.666" style="fill:none;stroke:#000000;stroke-width:0.7;stroke-linecap:round;" x2="47.451"/>
  <line y2="-43.666" x1="49.731" y1="-43.666" style="fill:none;stroke:#000000;stroke-width:0.7;stroke-linecap:round;" x2="49.731"/>
  <line y2="-43.666" x1="45.064" y1="-43.666" style="fill:none;stroke:#000000;stroke-width:0.7;stroke-linecap:round;" x2="45.064"/>
  <line y2="-40.671" x1="19.05" y1="-40.671" style="fill:none;stroke:#000000;stroke-width:0.7;stroke-linecap:round;" x2="19.05"/>
  <line y2="-40.671" x1="21.33" y1="-40.671" style="fill:none;stroke:#000000;stroke-width:0.7;stroke-linecap:round;" x2="21.33"/>
  <line y2="-40.671" x1="16.663" y1="-40.671" style="fill:none;stroke:#000000;stroke-width:0.7;stroke-linecap:round;" x2="16.663"/>
  <line y2="-40.671" x1="1.173" y1="-40.671" style="fill:none;stroke:#000000;stroke-width:0.7;stroke-linecap:round;" x2="1.173"/>
  <line y2="-40.671" x1="3.453" y1="-40.671" style="fill:none;stroke:#000000;stroke-width:0.7;stroke-linecap:round;" x2="3.453"/>
  <line y2="-40.671" x1="37.3" y1="-40.671" style="fill:none;stroke:#000000;stroke-width:0.7;stroke-linecap:round;" x2="37.3"/>
  <line y2="-40.671" x1="39.58" y1="-40.671" style="fill:none;stroke:#000000;stroke-width:0.7;stroke-linecap:round;" x2="39.58"/>
  <line y2="-40.671" x1="34.913" y1="-40.671" style="fill:none;stroke:#000000;stroke-width:0.7;stroke-linecap:round;" x2="34.913"/>
  <line y2="-40.671" x1="52.703" y1="-40.671" style="fill:none;stroke:#000000;stroke-width:0.7;stroke-linecap:round;" x2="52.703"/>
  <line y2="-37.546" x1="27.487" y1="-37.546" style="fill:none;stroke:#000000;stroke-width:0.7;stroke-linecap:round;" x2="27.487"/>
  <line y2="-37.546" x1="29.768" y1="-37.546" style="fill:none;stroke:#000000;stroke-width:0.7;stroke-linecap:round;" x2="29.768"/>
  <line y2="-37.546" x1="25.101" y1="-37.546" style="fill:none;stroke:#000000;stroke-width:0.7;stroke-linecap:round;" x2="25.101"/>
  <line y2="-37.546" x1="9.61" y1="-37.546" style="fill:none;stroke:#000000;stroke-width:0.7;stroke-linecap:round;" x2="9.61"/>
  <line y2="-37.546" x1="11.891" y1="-37.546" style="fill:none;stroke:#000000;stroke-width:0.7;stroke-linecap:round;" x2="11.891"/>
  <line y2="-37.546" x1="7.224" y1="-37.546" style="fill:none;stroke:#000000;stroke-width:0.7;stroke-linecap:round;" x2="7.224"/>
  <line y2="-37.546" x1="45.737" y1="-37.546" style="fill:none;stroke:#000000;stroke-width:0.7;stroke-linecap:round;" x2="45.737"/>
  <line y2="-37.546" x1="48.018" y1="-37.546" style="fill:none;stroke:#000000;stroke-width:0.7;stroke-linecap:round;" x2="48.018"/>
  <line y2="-37.546" x1="43.351" y1="-37.546" style="fill:none;stroke:#000000;stroke-width:0.7;stroke-linecap:round;" x2="43.351"/>
  <line y2="-34.671" x1="18.925" y1="-34.671" style="fill:none;stroke:#000000;stroke-width:0.7;stroke-linecap:round;" x2="18.925"/>
  <line y2="-34.671" x1="21.205" y1="-34.671" style="fill:none;stroke:#000000;stroke-width:0.7;stroke-linecap:round;" x2="21.205"/>
  <line y2="-34.671" x1="16.538" y1="-34.671" style="fill:none;stroke:#000000;stroke-width:0.7;stroke-linecap:round;" x2="16.538"/>
  <line y2="-34.671" x1="1.048" y1="-34.671" style="fill:none;stroke:#000000;stroke-width:0.7;stroke-linecap:round;" x2="1.048"/>
  <line y2="-34.671" x1="3.328" y1="-34.671" style="fill:none;stroke:#000000;stroke-width:0.7;stroke-linecap:round;" x2="3.328"/>
  <line y2="-34.671" x1="37.175" y1="-34.671" style="fill:none;stroke:#000000;stroke-width:0.7;stroke-linecap:round;" x2="37.175"/>
  <line y2="-34.671" x1="39.455" y1="-34.671" style="fill:none;stroke:#000000;stroke-width:0.7;stroke-linecap:round;" x2="39.455"/>
  <line y2="-34.671" x1="34.788" y1="-34.671" style="fill:none;stroke:#000000;stroke-width:0.7;stroke-linecap:round;" x2="34.788"/>
  <line y2="-34.671" x1="52.578" y1="-34.671" style="fill:none;stroke:#000000;stroke-width:0.7;stroke-linecap:round;" x2="52.578"/>
  <line y2="-31.608" x1="27.362" y1="-31.608" style="fill:none;stroke:#000000;stroke-width:0.7;stroke-linecap:round;" x2="27.362"/>
  <line y2="-31.608" x1="29.643" y1="-31.608" style="fill:none;stroke:#000000;stroke-width:0.7;stroke-linecap:round;" x2="29.643"/>
  <line y2="-31.608" x1="24.976" y1="-31.608" style="fill:none;stroke:#000000;stroke-width:0.7;stroke-linecap:round;" x2="24.976"/>
  <line y2="-31.608" x1="9.485" y1="-31.608" style="fill:none;stroke:#000000;stroke-width:0.7;stroke-linecap:round;" x2="9.485"/>
  <line y2="-31.608" x1="11.766" y1="-31.608" style="fill:none;stroke:#000000;stroke-width:0.7;stroke-linecap:round;" x2="11.766"/>
  <line y2="-31.608" x1="7.099" y1="-31.608" style="fill:none;stroke:#000000;stroke-width:0.7;stroke-linecap:round;" x2="7.099"/>
  <line y2="-31.608" x1="45.612" y1="-31.608" style="fill:none;stroke:#000000;stroke-width:0.7;stroke-linecap:round;" x2="45.612"/>
  <line y2="-31.608" x1="47.893" y1="-31.608" style="fill:none;stroke:#000000;stroke-width:0.7;stroke-linecap:round;" x2="47.893"/>
  <line y2="-31.608" x1="43.226" y1="-31.608" style="fill:none;stroke:#000000;stroke-width:0.7;stroke-linecap:round;" x2="43.226"/>
  <line y2="-28.608" x1="17.112" y1="-28.608" style="fill:none;stroke:#000000;stroke-width:0.7;stroke-linecap:round;" x2="17.112"/>
  <line y2="-28.608" x1="19.393" y1="-28.608" style="fill:none;stroke:#000000;stroke-width:0.7;stroke-linecap:round;" x2="19.393"/>
  <line y2="-28.608" x1="14.726" y1="-28.608" style="fill:none;stroke:#000000;stroke-width:0.7;stroke-linecap:round;" x2="14.726"/>
  <line y2="-28.608" x1="1.516" y1="-28.608" style="fill:none;stroke:#000000;stroke-width:0.7;stroke-linecap:round;" x2="1.516"/>
  <line y2="-28.608" x1="35.362" y1="-28.608" style="fill:none;stroke:#000000;stroke-width:0.7;stroke-linecap:round;" x2="35.362"/>
  <line y2="-28.608" x1="37.643" y1="-28.608" style="fill:none;stroke:#000000;stroke-width:0.7;stroke-linecap:round;" x2="37.643"/>
  <line y2="-28.608" x1="32.976" y1="-28.608" style="fill:none;stroke:#000000;stroke-width:0.7;stroke-linecap:round;" x2="32.976"/>
  <line y2="-28.608" x1="53.152" y1="-28.608" style="fill:none;stroke:#000000;stroke-width:0.7;stroke-linecap:round;" x2="53.152"/>
  <line y2="-28.608" x1="50.766" y1="-28.608" style="fill:none;stroke:#000000;stroke-width:0.7;stroke-linecap:round;" x2="50.766"/>
  <line y2="-25.483" x1="25.3" y1="-25.483" style="fill:none;stroke:#000000;stroke-width:0.7;stroke-linecap:round;" x2="25.3"/>
  <line y2="-25.483" x1="27.58" y1="-25.483" style="fill:none;stroke:#000000;stroke-width:0.7;stroke-linecap:round;" x2="27.58"/>
  <line y2="-25.483" x1="22.913" y1="-25.483" style="fill:none;stroke:#000000;stroke-width:0.7;stroke-linecap:round;" x2="22.913"/>
  <line y2="-25.483" x1="7.423" y1="-25.483" style="fill:none;stroke:#000000;stroke-width:0.7;stroke-linecap:round;" x2="7.423"/>
  <line y2="-25.483" x1="9.703" y1="-25.483" style="fill:none;stroke:#000000;stroke-width:0.7;stroke-linecap:round;" x2="9.703"/>
  <line y2="-25.483" x1="5.036" y1="-25.483" style="fill:none;stroke:#000000;stroke-width:0.7;stroke-linecap:round;" x2="5.036"/>
  <line y2="-25.483" x1="43.55" y1="-25.483" style="fill:none;stroke:#000000;stroke-width:0.7;stroke-linecap:round;" x2="43.55"/>
  <line y2="-25.483" x1="45.83" y1="-25.483" style="fill:none;stroke:#000000;stroke-width:0.7;stroke-linecap:round;" x2="45.83"/>
  <line y2="-25.483" x1="41.163" y1="-25.483" style="fill:none;stroke:#000000;stroke-width:0.7;stroke-linecap:round;" x2="41.163"/>
  <line y2="-22.546" x1="14.987" y1="-22.546" style="fill:none;stroke:#000000;stroke-width:0.7;stroke-linecap:round;" x2="14.987"/>
  <line y2="-22.546" x1="17.268" y1="-22.546" style="fill:none;stroke:#000000;stroke-width:0.7;stroke-linecap:round;" x2="17.268"/>
  <line y2="-22.546" x1="12.601" y1="-22.546" style="fill:none;stroke:#000000;stroke-width:0.7;stroke-linecap:round;" x2="12.601"/>
  <line y2="-22.546" x1="33.237" y1="-22.546" style="fill:none;stroke:#000000;stroke-width:0.7;stroke-linecap:round;" x2="33.237"/>
  <line y2="-22.546" x1="35.518" y1="-22.546" style="fill:none;stroke:#000000;stroke-width:0.7;stroke-linecap:round;" x2="35.518"/>
  <line y2="-22.546" x1="30.851" y1="-22.546" style="fill:none;stroke:#000000;stroke-width:0.7;stroke-linecap:round;" x2="30.851"/>
  <line y2="-22.546" x1="51.027" y1="-22.546" style="fill:none;stroke:#000000;stroke-width:0.7;stroke-linecap:round;" x2="51.027"/>
  <line y2="-22.546" x1="53.307" y1="-22.546" style="fill:none;stroke:#000000;stroke-width:0.7;stroke-linecap:round;" x2="53.307"/>
  <line y2="-22.546" x1="48.641" y1="-22.546" style="fill:none;stroke:#000000;stroke-width:0.7;stroke-linecap:round;" x2="48.641"/>
  <line y2="-19.421" x1="24.987" y1="-19.421" style="fill:none;stroke:#000000;stroke-width:0.7;stroke-linecap:round;" x2="24.987"/>
  <line y2="-19.421" x1="27.268" y1="-19.421" style="fill:none;stroke:#000000;stroke-width:0.7;stroke-linecap:round;" x2="27.268"/>
  <line y2="-19.421" x1="22.601" y1="-19.421" style="fill:none;stroke:#000000;stroke-width:0.7;stroke-linecap:round;" x2="22.601"/>
  <line y2="-19.421" x1="7.11" y1="-19.421" style="fill:none;stroke:#000000;stroke-width:0.7;stroke-linecap:round;" x2="7.11"/>
  <line y2="-19.421" x1="9.391" y1="-19.421" style="fill:none;stroke:#000000;stroke-width:0.7;stroke-linecap:round;" x2="9.391"/>
  <line y2="-19.421" x1="4.724" y1="-19.421" style="fill:none;stroke:#000000;stroke-width:0.7;stroke-linecap:round;" x2="4.724"/>
  <line y2="-19.421" x1="43.237" y1="-19.421" style="fill:none;stroke:#000000;stroke-width:0.7;stroke-linecap:round;" x2="43.237"/>
  <line y2="-19.421" x1="45.518" y1="-19.421" style="fill:none;stroke:#000000;stroke-width:0.7;stroke-linecap:round;" x2="45.518"/>
  <line y2="-19.421" x1="40.851" y1="-19.421" style="fill:none;stroke:#000000;stroke-width:0.7;stroke-linecap:round;" x2="40.851"/>
  <line y2="-16.421" x1="17.175" y1="-16.421" style="fill:none;stroke:#000000;stroke-width:0.7;stroke-linecap:round;" x2="17.175"/>
  <line y2="-16.421" x1="19.455" y1="-16.421" style="fill:none;stroke:#000000;stroke-width:0.7;stroke-linecap:round;" x2="19.455"/>
  <line y2="-16.421" x1="14.788" y1="-16.421" style="fill:none;stroke:#000000;stroke-width:0.7;stroke-linecap:round;" x2="14.788"/>
  <line y2="-16.421" x1="1.578" y1="-16.421" style="fill:none;stroke:#000000;stroke-width:0.7;stroke-linecap:round;" x2="1.578"/>
  <line y2="-16.421" x1="35.425" y1="-16.421" style="fill:none;stroke:#000000;stroke-width:0.7;stroke-linecap:round;" x2="35.425"/>
  <line y2="-16.421" x1="37.705" y1="-16.421" style="fill:none;stroke:#000000;stroke-width:0.7;stroke-linecap:round;" x2="37.705"/>
  <line y2="-16.421" x1="33.038" y1="-16.421" style="fill:none;stroke:#000000;stroke-width:0.7;stroke-linecap:round;" x2="33.038"/>
  <line y2="-16.421" x1="53.215" y1="-16.421" style="fill:none;stroke:#000000;stroke-width:0.7;stroke-linecap:round;" x2="53.215"/>
  <line y2="-16.421" x1="50.828" y1="-16.421" style="fill:none;stroke:#000000;stroke-width:0.7;stroke-linecap:round;" x2="50.828"/>
  <line y2="-13.421" x1="27.362" y1="-13.421" style="fill:none;stroke:#000000;stroke-width:0.7;stroke-linecap:round;" x2="27.362"/>
  <line y2="-13.421" x1="29.643" y1="-13.421" style="fill:none;stroke:#000000;stroke-width:0.7;stroke-linecap:round;" x2="29.643"/>
  <line y2="-13.421" x1="24.976" y1="-13.421" style="fill:none;stroke:#000000;stroke-width:0.7;stroke-linecap:round;" x2="24.976"/>
  <line y2="-13.421" x1="9.485" y1="-13.421" style="fill:none;stroke:#000000;stroke-width:0.7;stroke-linecap:round;" x2="9.485"/>
  <line y2="-13.421" x1="11.766" y1="-13.421" style="fill:none;stroke:#000000;stroke-width:0.7;stroke-linecap:round;" x2="11.766"/>
  <line y2="-13.421" x1="7.099" y1="-13.421" style="fill:none;stroke:#000000;stroke-width:0.7;stroke-linecap:round;" x2="7.099"/>
  <line y2="-13.421" x1="45.612" y1="-13.421" style="fill:none;stroke:#000000;stroke-width:0.7;stroke-linecap:round;" x2="45.612"/>
  <line y2="-13.421" x1="47.893" y1="-13.421" style="fill:none;stroke:#000000;stroke-width:0.7;stroke-linecap:round;" x2="47.893"/>
  <line y2="-13.421" x1="43.226" y1="-13.421" style="fill:none;stroke:#000000;stroke-width:0.7;stroke-linecap:round;" x2="43.226"/>
  <line y2="-10.608" x1="19.175" y1="-10.608" style="fill:none;stroke:#000000;stroke-width:0.7;stroke-linecap:round;" x2="19.175"/>
  <line y2="-10.608" x1="21.455" y1="-10.608" style="fill:none;stroke:#000000;stroke-width:0.7;stroke-linecap:round;" x2="21.455"/>
  <line y2="-10.608" x1="16.788" y1="-10.608" style="fill:none;stroke:#000000;stroke-width:0.7;stroke-linecap:round;" x2="16.788"/>
  <line y2="-10.608" x1="1.298" y1="-10.608" style="fill:none;stroke:#000000;stroke-width:0.7;stroke-linecap:round;" x2="1.298"/>
  <line y2="-10.608" x1="3.578" y1="-10.608" style="fill:none;stroke:#000000;stroke-width:0.7;stroke-linecap:round;" x2="3.578"/>
  <line y2="-10.608" x1="37.425" y1="-10.608" style="fill:none;stroke:#000000;stroke-width:0.7;stroke-linecap:round;" x2="37.425"/>
  <line y2="-10.608" x1="39.705" y1="-10.608" style="fill:none;stroke:#000000;stroke-width:0.7;stroke-linecap:round;" x2="39.705"/>
  <line y2="-10.608" x1="35.038" y1="-10.608" style="fill:none;stroke:#000000;stroke-width:0.7;stroke-linecap:round;" x2="35.038"/>
  <line y2="-10.608" x1="52.828" y1="-10.608" style="fill:none;stroke:#000000;stroke-width:0.7;stroke-linecap:round;" x2="52.828"/>
  <line y2="-7.296" x1="29.05" y1="-7.296" style="fill:none;stroke:#000000;stroke-width:0.7;stroke-linecap:round;" x2="29.05"/>
  <line y2="-7.296" x1="31.33" y1="-7.296" style="fill:none;stroke:#000000;stroke-width:0.7;stroke-linecap:round;" x2="31.33"/>
  <line y2="-7.296" x1="26.663" y1="-7.296" style="fill:none;stroke:#000000;stroke-width:0.7;stroke-linecap:round;" x2="26.663"/>
  <line y2="-7.296" x1="11.173" y1="-7.296" style="fill:none;stroke:#000000;stroke-width:0.7;stroke-linecap:round;" x2="11.173"/>
  <line y2="-7.296" x1="13.453" y1="-7.296" style="fill:none;stroke:#000000;stroke-width:0.7;stroke-linecap:round;" x2="13.453"/>
  <line y2="-7.296" x1="8.786" y1="-7.296" style="fill:none;stroke:#000000;stroke-width:0.7;stroke-linecap:round;" x2="8.786"/>
  <line y2="-7.296" x1="47.3" y1="-7.296" style="fill:none;stroke:#000000;stroke-width:0.7;stroke-linecap:round;" x2="47.3"/>
  <line y2="-7.296" x1="49.58" y1="-7.296" style="fill:none;stroke:#000000;stroke-width:0.7;stroke-linecap:round;" x2="49.58"/>
  <line y2="-7.296" x1="44.913" y1="-7.296" style="fill:none;stroke:#000000;stroke-width:0.7;stroke-linecap:round;" x2="44.913"/>
  <line y2="-4.421" x1="19.237" y1="-4.421" style="fill:none;stroke:#000000;stroke-width:0.7;stroke-linecap:round;" x2="19.237"/>
  <line y2="-4.421" x1="21.518" y1="-4.421" style="fill:none;stroke:#000000;stroke-width:0.7;stroke-linecap:round;" x2="21.518"/>
  <line y2="-4.421" x1="16.851" y1="-4.421" style="fill:none;stroke:#000000;stroke-width:0.7;stroke-linecap:round;" x2="16.851"/>
  <line y2="-4.421" x1="1.36" y1="-4.421" style="fill:none;stroke:#000000;stroke-width:0.7;stroke-linecap:round;" x2="1.36"/>
  <line y2="-4.421" x1="3.641" y1="-4.421" style="fill:none;stroke:#000000;stroke-width:0.7;stroke-linecap:round;" x2="3.641"/>
  <line y2="-4.421" x1="37.487" y1="-4.421" style="fill:none;stroke:#000000;stroke-width:0.7;stroke-linecap:round;" x2="37.487"/>
  <line y2="-4.421" x1="39.768" y1="-4.421" style="fill:none;stroke:#000000;stroke-width:0.7;stroke-linecap:round;" x2="39.768"/>
  <line y2="-4.421" x1="35.101" y1="-4.421" style="fill:none;stroke:#000000;stroke-width:0.7;stroke-linecap:round;" x2="35.101"/>
  <line y2="-4.421" x1="52.891" y1="-4.421" style="fill:none;stroke:#000000;stroke-width:0.7;stroke-linecap:round;" x2="52.891"/>
  <line y2="-1.296" x1="27.425" y1="-1.296" style="fill:none;stroke:#000000;stroke-width:0.7;stroke-linecap:round;" x2="27.425"/>
  <line y2="-1.296" x1="29.705" y1="-1.296" style="fill:none;stroke:#000000;stroke-width:0.7;stroke-linecap:round;" x2="29.705"/>
  <line y2="-1.296" x1="25.038" y1="-1.296" style="fill:none;stroke:#000000;stroke-width:0.7;stroke-linecap:round;" x2="25.038"/>
  <line y2="-1.296" x1="9.548" y1="-1.296" style="fill:none;stroke:#000000;stroke-width:0.7;stroke-linecap:round;" x2="9.548"/>
  <line y2="-1.296" x1="11.828" y1="-1.296" style="fill:none;stroke:#000000;stroke-width:0.7;stroke-linecap:round;" x2="11.828"/>
  <line y2="-1.296" x1="7.161" y1="-1.296" style="fill:none;stroke:#000000;stroke-width:0.7;stroke-linecap:round;" x2="7.161"/>
  <line y2="-1.296" x1="45.675" y1="-1.296" style="fill:none;stroke:#000000;stroke-width:0.7;stroke-linecap:round;" x2="45.675"/>
  <line y2="-1.296" x1="47.955" y1="-1.296" style="fill:none;stroke:#000000;stroke-width:0.7;stroke-linecap:round;" x2="47.955"/>
  <line y2="-1.296" x1="43.288" y1="-1.296" style="fill:none;stroke:#000000;stroke-width:0.7;stroke-linecap:round;" x2="43.288"/>
 </g>
</svg>
