<?xml version="1.0"?>
<!-- Converted with SVG Converter - Version 0.9.5 (Compiled Fri Feb 21 09:53:38 2020) - Copyright (C) 2011 Nokia -->
<svg xmlns="http://www.w3.org/2000/svg" xml:space="preserve" width="53.584" viewBox="0.163 -53.583 53.584 53.583" y="0px" version="1.1" x="0px" height="53.583" baseProfile="tiny" xmlns:xlink="http://www.w3.org/1999/xlink">
 <g>
  <rect width="53.584" y="-53.583" x="0.163" style="fill:none;" height="53.583"/>
  <line y2="-51.754" y1="-51.754" x2="0.163" x1="4.279" style="fill:none;stroke:#000000;stroke-width:0.3;"/>
  <line y2="-51.754" y1="-51.754" x2="13.229" x1="7.483" style="fill:none;stroke:#000000;stroke-width:0.3;"/>
  <line y2="-51.754" y1="-51.754" x2="22.146" x1="16.399" style="fill:none;stroke:#000000;stroke-width:0.3;"/>
  <line y2="-51.754" y1="-51.754" x2="31.062" x1="25.316" style="fill:none;stroke:#000000;stroke-width:0.3;"/>
  <line y2="-51.754" y1="-51.754" x2="39.979" x1="34.233" style="fill:none;stroke:#000000;stroke-width:0.3;"/>
  <line y2="-51.754" y1="-51.754" x2="48.895" x1="43.149" style="fill:none;stroke:#000000;stroke-width:0.3;"/>
  <line y2="-51.754" y1="-51.754" x2="53.747" x1="52.066" style="fill:none;stroke:#000000;stroke-width:0.3;"/>
  <line y2="-48.618" y1="-48.618" x2="2.865" x1="8.611" style="fill:none;stroke:#000000;stroke-width:0.3;"/>
  <line y2="-48.618" y1="-48.618" x2="11.782" x1="17.527" style="fill:none;stroke:#000000;stroke-width:0.3;"/>
  <line y2="-48.618" y1="-48.618" x2="20.699" x1="26.444" style="fill:none;stroke:#000000;stroke-width:0.3;"/>
  <line y2="-48.618" y1="-48.618" x2="29.615" x1="35.36" style="fill:none;stroke:#000000;stroke-width:0.3;"/>
  <line y2="-48.618" y1="-48.618" x2="38.532" x1="44.277" style="fill:none;stroke:#000000;stroke-width:0.3;"/>
  <line y2="-48.618" y1="-48.618" x2="53.194" x1="47.449" style="fill:none;stroke:#000000;stroke-width:0.3;"/>
  <line y2="-45.648" y1="-45.648" x2="0.163" x1="2.527" style="fill:none;stroke:#000000;stroke-width:0.3;"/>
  <line y2="-45.648" y1="-45.648" x2="5.732" x1="11.478" style="fill:none;stroke:#000000;stroke-width:0.3;"/>
  <line y2="-45.648" y1="-45.648" x2="20.394" x1="14.649" style="fill:none;stroke:#000000;stroke-width:0.3;"/>
  <line y2="-45.648" y1="-45.648" x2="29.311" x1="23.566" style="fill:none;stroke:#000000;stroke-width:0.3;"/>
  <line y2="-45.648" y1="-45.648" x2="38.227" x1="32.481" style="fill:none;stroke:#000000;stroke-width:0.3;"/>
  <line y2="-45.648" y1="-45.648" x2="47.144" x1="41.398" style="fill:none;stroke:#000000;stroke-width:0.3;"/>
  <line y2="-45.648" y1="-45.648" x2="53.747" x1="50.314" style="fill:none;stroke:#000000;stroke-width:0.3;"/>
  <line y2="-42.843" y1="-42.843" x2="2.069" x1="7.814" style="fill:none;stroke:#000000;stroke-width:0.3;"/>
  <line y2="-42.843" y1="-42.843" x2="10.986" x1="16.732" style="fill:none;stroke:#000000;stroke-width:0.3;"/>
  <line y2="-42.843" y1="-42.843" x2="19.902" x1="25.649" style="fill:none;stroke:#000000;stroke-width:0.3;"/>
  <line y2="-42.843" y1="-42.843" x2="28.819" x1="34.564" style="fill:none;stroke:#000000;stroke-width:0.3;"/>
  <line y2="-42.843" y1="-42.843" x2="37.736" x1="43.481" style="fill:none;stroke:#000000;stroke-width:0.3;"/>
  <line y2="-42.843" y1="-42.843" x2="46.652" x1="52.397" style="fill:none;stroke:#000000;stroke-width:0.3;"/>
  <line y2="-39.873" y1="-39.873" x2="0.163" x1="2.209" style="fill:none;stroke:#000000;stroke-width:0.3;"/>
  <line y2="-39.873" y1="-39.873" x2="11.158" x1="5.413" style="fill:none;stroke:#000000;stroke-width:0.3;"/>
  <line y2="-39.873" y1="-39.873" x2="14.33" x1="20.075" style="fill:none;stroke:#000000;stroke-width:0.3;"/>
  <line y2="-39.873" y1="-39.873" x2="28.992" x1="23.246" style="fill:none;stroke:#000000;stroke-width:0.3;"/>
  <line y2="-39.873" y1="-39.873" x2="37.908" x1="32.163" style="fill:none;stroke:#000000;stroke-width:0.3;"/>
  <line y2="-39.873" y1="-39.873" x2="46.825" x1="41.08" style="fill:none;stroke:#000000;stroke-width:0.3;"/>
  <line y2="-39.873" y1="-39.873" x2="53.747" x1="49.996" style="fill:none;stroke:#000000;stroke-width:0.3;"/>
  <line y2="-36.869" y1="-36.869" x2="0" x1="0.163" style="fill:none;stroke:#000000;stroke-width:0.3;"/>
  <line y2="-36.869" y1="-36.869" x2="0.163" x1="5.745" style="fill:none;stroke:#000000;stroke-width:0.3;"/>
  <line y2="-36.869" y1="-36.869" x2="8.916" x1="14.661" style="fill:none;stroke:#000000;stroke-width:0.3;"/>
  <line y2="-36.869" y1="-36.869" x2="17.833" x1="23.578" style="fill:none;stroke:#000000;stroke-width:0.3;"/>
  <line y2="-36.869" y1="-36.869" x2="32.495" x1="26.749" style="fill:none;stroke:#000000;stroke-width:0.3;"/>
  <line y2="-36.869" y1="-36.869" x2="41.411" x1="35.666" style="fill:none;stroke:#000000;stroke-width:0.3;"/>
  <line y2="-36.869" y1="-36.869" x2="50.328" x1="44.583" style="fill:none;stroke:#000000;stroke-width:0.3;"/>
  <line y2="-36.869" y1="-36.869" x2="53.747" x1="53.499" style="fill:none;stroke:#000000;stroke-width:0.3;"/>
  <line y2="-33.986" y1="-33.986" x2="0.163" x1="2.687" style="fill:none;stroke:#000000;stroke-width:0.3;"/>
  <line y2="-33.986" y1="-33.986" x2="5.891" x1="11.637" style="fill:none;stroke:#000000;stroke-width:0.3;"/>
  <line y2="-33.986" y1="-33.986" x2="14.808" x1="20.553" style="fill:none;stroke:#000000;stroke-width:0.3;"/>
  <line y2="-33.986" y1="-33.986" x2="29.47" x1="23.725" style="fill:none;stroke:#000000;stroke-width:0.3;"/>
  <line y2="-33.986" y1="-33.986" x2="38.386" x1="32.641" style="fill:none;stroke:#000000;stroke-width:0.3;"/>
  <line y2="-33.986" y1="-33.986" x2="47.303" x1="41.558" style="fill:none;stroke:#000000;stroke-width:0.3;"/>
  <line y2="-33.986" y1="-33.986" x2="53.747" x1="50.474" style="fill:none;stroke:#000000;stroke-width:0.3;"/>
  <line y2="-30.789" y1="-30.789" x2="1.433" x1="7.178" style="fill:none;stroke:#000000;stroke-width:0.3;"/>
  <line y2="-30.789" y1="-30.789" x2="10.35" x1="16.095" style="fill:none;stroke:#000000;stroke-width:0.3;"/>
  <line y2="-30.789" y1="-30.789" x2="19.266" x1="25.011" style="fill:none;stroke:#000000;stroke-width:0.3;"/>
  <line y2="-30.789" y1="-30.789" x2="33.928" x1="28.183" style="fill:none;stroke:#000000;stroke-width:0.3;"/>
  <line y2="-30.789" y1="-30.789" x2="42.845" x1="37.099" style="fill:none;stroke:#000000;stroke-width:0.3;"/>
  <line y2="-30.789" y1="-30.789" x2="51.761" x1="46.016" style="fill:none;stroke:#000000;stroke-width:0.3;"/>
  <line y2="-27.819" y1="-27.819" x2="0.163" x1="3.961" style="fill:none;stroke:#000000;stroke-width:0.3;"/>
  <line y2="-27.819" y1="-27.819" x2="7.165" x1="12.91" style="fill:none;stroke:#000000;stroke-width:0.3;"/>
  <line y2="-27.819" y1="-27.819" x2="21.827" x1="16.081" style="fill:none;stroke:#000000;stroke-width:0.3;"/>
  <line y2="-27.819" y1="-27.819" x2="30.743" x1="24.998" style="fill:none;stroke:#000000;stroke-width:0.3;"/>
  <line y2="-27.819" y1="-27.819" x2="33.915" x1="39.66" style="fill:none;stroke:#000000;stroke-width:0.3;"/>
  <line y2="-27.819" y1="-27.819" x2="42.831" x1="48.576" style="fill:none;stroke:#000000;stroke-width:0.3;"/>
  <line y2="-27.819" y1="-27.819" x2="53.747" x1="51.748" style="fill:none;stroke:#000000;stroke-width:0.3;"/>
  <line y2="-24.684" y1="-24.684" x2="8.452" x1="2.706" style="fill:none;stroke:#000000;stroke-width:0.3;"/>
  <line y2="-24.684" y1="-24.684" x2="11.623" x1="17.368" style="fill:none;stroke:#000000;stroke-width:0.3;"/>
  <line y2="-24.684" y1="-24.684" x2="20.54" x1="26.285" style="fill:none;stroke:#000000;stroke-width:0.3;"/>
  <line y2="-24.684" y1="-24.684" x2="35.201" x1="29.456" style="fill:none;stroke:#000000;stroke-width:0.3;"/>
  <line y2="-24.684" y1="-24.684" x2="44.118" x1="38.373" style="fill:none;stroke:#000000;stroke-width:0.3;"/>
  <line y2="-24.684" y1="-24.684" x2="53.035" x1="47.29" style="fill:none;stroke:#000000;stroke-width:0.3;"/>
  <line y2="-21.879" y1="-21.879" x2="0.163" x1="3.483" style="fill:none;stroke:#000000;stroke-width:0.3;"/>
  <line y2="-21.879" y1="-21.879" x2="6.688" x1="12.433" style="fill:none;stroke:#000000;stroke-width:0.3;"/>
  <line y2="-21.879" y1="-21.879" x2="15.604" x1="21.349" style="fill:none;stroke:#000000;stroke-width:0.3;"/>
  <line y2="-21.879" y1="-21.879" x2="30.266" x1="24.521" style="fill:none;stroke:#000000;stroke-width:0.3;"/>
  <line y2="-21.879" y1="-21.879" x2="39.183" x1="33.437" style="fill:none;stroke:#000000;stroke-width:0.3;"/>
  <line y2="-21.879" y1="-21.879" x2="48.099" x1="42.354" style="fill:none;stroke:#000000;stroke-width:0.3;"/>
  <line y2="-21.879" y1="-21.879" x2="53.747" x1="51.271" style="fill:none;stroke:#000000;stroke-width:0.3;"/>
  <line y2="-18.744" y1="-18.744" x2="1.592" x1="7.337" style="fill:none;stroke:#000000;stroke-width:0.3;"/>
  <line y2="-18.744" y1="-18.744" x2="10.509" x1="16.254" style="fill:none;stroke:#000000;stroke-width:0.3;"/>
  <line y2="-18.744" y1="-18.744" x2="19.425" x1="25.17" style="fill:none;stroke:#000000;stroke-width:0.3;"/>
  <line y2="-18.744" y1="-18.744" x2="34.087" x1="28.342" style="fill:none;stroke:#000000;stroke-width:0.3;"/>
  <line y2="-18.744" y1="-18.744" x2="37.259" x1="43.004" style="fill:none;stroke:#000000;stroke-width:0.3;"/>
  <line y2="-18.744" y1="-18.744" x2="51.92" x1="46.175" style="fill:none;stroke:#000000;stroke-width:0.3;"/>
  <line y2="-15.774" y1="-15.774" x2="0.163" x1="2.687" style="fill:none;stroke:#000000;stroke-width:0.3;"/>
  <line y2="-15.774" y1="-15.774" x2="11.637" x1="5.891" style="fill:none;stroke:#000000;stroke-width:0.3;"/>
  <line y2="-15.774" y1="-15.774" x2="20.553" x1="14.808" style="fill:none;stroke:#000000;stroke-width:0.3;"/>
  <line y2="-15.774" y1="-15.774" x2="29.47" x1="23.725" style="fill:none;stroke:#000000;stroke-width:0.3;"/>
  <line y2="-15.774" y1="-15.774" x2="38.386" x1="32.641" style="fill:none;stroke:#000000;stroke-width:0.3;"/>
  <line y2="-15.774" y1="-15.774" x2="47.303" x1="41.558" style="fill:none;stroke:#000000;stroke-width:0.3;"/>
  <line y2="-15.774" y1="-15.774" x2="53.747" x1="50.474" style="fill:none;stroke:#000000;stroke-width:0.3;"/>
  <line y2="-12.804" y1="-12.804" x2="0.796" x1="6.541" style="fill:none;stroke:#000000;stroke-width:0.3;"/>
  <line y2="-12.804" y1="-12.804" x2="9.712" x1="15.458" style="fill:none;stroke:#000000;stroke-width:0.3;"/>
  <line y2="-12.804" y1="-12.804" x2="18.629" x1="24.374" style="fill:none;stroke:#000000;stroke-width:0.3;"/>
  <line y2="-12.804" y1="-12.804" x2="27.546" x1="33.291" style="fill:none;stroke:#000000;stroke-width:0.3;"/>
  <line y2="-12.804" y1="-12.804" x2="42.207" x1="36.462" style="fill:none;stroke:#000000;stroke-width:0.3;"/>
  <line y2="-12.804" y1="-12.804" x2="45.379" x1="51.124" style="fill:none;stroke:#000000;stroke-width:0.3;"/>
  <line y2="-10.008" y1="-10.008" x2="0.163" x1="3.643" style="fill:none;stroke:#000000;stroke-width:0.3;"/>
  <line y2="-10.008" y1="-10.008" x2="6.847" x1="12.592" style="fill:none;stroke:#000000;stroke-width:0.3;"/>
  <line y2="-10.008" y1="-10.008" x2="21.508" x1="15.763" style="fill:none;stroke:#000000;stroke-width:0.3;"/>
  <line y2="-10.008" y1="-10.008" x2="30.425" x1="24.68" style="fill:none;stroke:#000000;stroke-width:0.3;"/>
  <line y2="-10.008" y1="-10.008" x2="39.342" x1="33.597" style="fill:none;stroke:#000000;stroke-width:0.3;"/>
  <line y2="-10.008" y1="-10.008" x2="48.258" x1="42.513" style="fill:none;stroke:#000000;stroke-width:0.3;"/>
  <line y2="-10.008" y1="-10.008" x2="53.747" x1="51.43" style="fill:none;stroke:#000000;stroke-width:0.3;"/>
  <line y2="-6.873" y1="-6.873" x2="3.024" x1="8.771" style="fill:none;stroke:#000000;stroke-width:0.3;"/>
  <line y2="-6.873" y1="-6.873" x2="11.941" x1="17.687" style="fill:none;stroke:#000000;stroke-width:0.3;"/>
  <line y2="-6.873" y1="-6.873" x2="20.858" x1="26.604" style="fill:none;stroke:#000000;stroke-width:0.3;"/>
  <line y2="-6.873" y1="-6.873" x2="29.774" x1="35.521" style="fill:none;stroke:#000000;stroke-width:0.3;"/>
  <line y2="-6.873" y1="-6.873" x2="44.437" x1="38.691" style="fill:none;stroke:#000000;stroke-width:0.3;"/>
  <line y2="-6.873" y1="-6.873" x2="53.354" x1="47.608" style="fill:none;stroke:#000000;stroke-width:0.3;"/>
  <line y2="-3.903" y1="-3.903" x2="5.234" x1="0.163" style="fill:none;stroke:#000000;stroke-width:0.3;"/>
  <line y2="-3.903" y1="-3.903" x2="14.184" x1="8.439" style="fill:none;stroke:#000000;stroke-width:0.3;"/>
  <line y2="-3.903" y1="-3.903" x2="23.101" x1="17.355" style="fill:none;stroke:#000000;stroke-width:0.3;"/>
  <line y2="-3.903" y1="-3.903" x2="32.018" x1="26.271" style="fill:none;stroke:#000000;stroke-width:0.3;"/>
  <line y2="-3.903" y1="-3.903" x2="40.934" x1="35.188" style="fill:none;stroke:#000000;stroke-width:0.3;"/>
  <line y2="-3.903" y1="-3.903" x2="49.851" x1="44.105" style="fill:none;stroke:#000000;stroke-width:0.3;"/>
  <line y2="-3.903" y1="-3.903" x2="53.747" x1="53.021" style="fill:none;stroke:#000000;stroke-width:0.3;"/>
  <line y2="-0.933" y1="-0.933" x2="3.344" x1="9.089" style="fill:none;stroke:#000000;stroke-width:0.3;"/>
  <line y2="-0.933" y1="-0.933" x2="12.26" x1="18.005" style="fill:none;stroke:#000000;stroke-width:0.3;"/>
  <line y2="-0.933" y1="-0.933" x2="21.177" x1="26.922" style="fill:none;stroke:#000000;stroke-width:0.3;"/>
  <line y2="-0.933" y1="-0.933" x2="30.093" x1="35.839" style="fill:none;stroke:#000000;stroke-width:0.3;"/>
  <line y2="-0.933" y1="-0.933" x2="39.01" x1="44.755" style="fill:none;stroke:#000000;stroke-width:0.3;"/>
  <line y2="-0.933" y1="-0.933" x2="47.927" x1="53.672" style="fill:none;stroke:#000000;stroke-width:0.3;"/>
  <line y2="-51.687" y1="-51.687" x2="5.919" x1="5.919" style="fill:none;stroke:#000000;stroke-width:0.7;stroke-linecap:round;"/>
  <line y2="-51.687" y1="-51.687" x2="14.896" x1="14.896" style="fill:none;stroke:#000000;stroke-width:0.7;stroke-linecap:round;"/>
  <line y2="-51.687" y1="-51.687" x2="23.812" x1="23.812" style="fill:none;stroke:#000000;stroke-width:0.7;stroke-linecap:round;"/>
  <line y2="-51.687" y1="-51.687" x2="32.755" x1="32.755" style="fill:none;stroke:#000000;stroke-width:0.7;stroke-linecap:round;"/>
  <line y2="-51.687" y1="-51.687" x2="41.642" x1="41.642" style="fill:none;stroke:#000000;stroke-width:0.7;stroke-linecap:round;"/>
  <line y2="-51.687" y1="-51.687" x2="50.589" x1="50.589" style="fill:none;stroke:#000000;stroke-width:0.7;stroke-linecap:round;"/>
  <line y2="-48.61" y1="-48.61" x2="1.222" x1="1.222" style="fill:none;stroke:#000000;stroke-width:0.7;stroke-linecap:round;"/>
  <line y2="-48.61" y1="-48.61" x2="10.198" x1="10.198" style="fill:none;stroke:#000000;stroke-width:0.7;stroke-linecap:round;"/>
  <line y2="-48.61" y1="-48.61" x2="19.115" x1="19.115" style="fill:none;stroke:#000000;stroke-width:0.7;stroke-linecap:round;"/>
  <line y2="-48.61" y1="-48.61" x2="28.059" x1="28.059" style="fill:none;stroke:#000000;stroke-width:0.7;stroke-linecap:round;"/>
  <line y2="-48.61" y1="-48.61" x2="36.945" x1="36.945" style="fill:none;stroke:#000000;stroke-width:0.7;stroke-linecap:round;"/>
  <line y2="-48.61" y1="-48.61" x2="45.892" x1="45.892" style="fill:none;stroke:#000000;stroke-width:0.7;stroke-linecap:round;"/>
  <line y2="-45.61" y1="-45.61" x2="4.195" x1="4.195" style="fill:none;stroke:#000000;stroke-width:0.7;stroke-linecap:round;"/>
  <line y2="-45.61" y1="-45.61" x2="13.172" x1="13.172" style="fill:none;stroke:#000000;stroke-width:0.7;stroke-linecap:round;"/>
  <line y2="-45.61" y1="-45.61" x2="22.089" x1="22.089" style="fill:none;stroke:#000000;stroke-width:0.7;stroke-linecap:round;"/>
  <line y2="-45.61" y1="-45.61" x2="31.032" x1="31.032" style="fill:none;stroke:#000000;stroke-width:0.7;stroke-linecap:round;"/>
  <line y2="-45.61" y1="-45.61" x2="39.919" x1="39.919" style="fill:none;stroke:#000000;stroke-width:0.7;stroke-linecap:round;"/>
  <line y2="-45.61" y1="-45.61" x2="48.865" x1="48.865" style="fill:none;stroke:#000000;stroke-width:0.7;stroke-linecap:round;"/>
  <line y2="-42.776" y1="-42.776" x2="0.555" x1="0.555" style="fill:none;stroke:#000000;stroke-width:0.7;stroke-linecap:round;"/>
  <line y2="-42.776" y1="-42.776" x2="9.532" x1="9.532" style="fill:none;stroke:#000000;stroke-width:0.7;stroke-linecap:round;"/>
  <line y2="-42.776" y1="-42.776" x2="18.448" x1="18.448" style="fill:none;stroke:#000000;stroke-width:0.7;stroke-linecap:round;"/>
  <line y2="-42.776" y1="-42.776" x2="27.392" x1="27.392" style="fill:none;stroke:#000000;stroke-width:0.7;stroke-linecap:round;"/>
  <line y2="-42.776" y1="-42.776" x2="36.278" x1="36.278" style="fill:none;stroke:#000000;stroke-width:0.7;stroke-linecap:round;"/>
  <line y2="-42.776" y1="-42.776" x2="45.226" x1="45.226" style="fill:none;stroke:#000000;stroke-width:0.7;stroke-linecap:round;"/>
  <line y2="-39.86" y1="-39.86" x2="3.778" x1="3.778" style="fill:none;stroke:#000000;stroke-width:0.7;stroke-linecap:round;"/>
  <line y2="-39.86" y1="-39.86" x2="12.755" x1="12.755" style="fill:none;stroke:#000000;stroke-width:0.7;stroke-linecap:round;"/>
  <line y2="-39.86" y1="-39.86" x2="21.672" x1="21.672" style="fill:none;stroke:#000000;stroke-width:0.7;stroke-linecap:round;"/>
  <line y2="-39.86" y1="-39.86" x2="30.615" x1="30.615" style="fill:none;stroke:#000000;stroke-width:0.7;stroke-linecap:round;"/>
  <line y2="-39.86" y1="-39.86" x2="39.502" x1="39.502" style="fill:none;stroke:#000000;stroke-width:0.7;stroke-linecap:round;"/>
  <line y2="-39.86" y1="-39.86" x2="48.448" x1="48.448" style="fill:none;stroke:#000000;stroke-width:0.7;stroke-linecap:round;"/>
  <line y2="-36.86" y1="-36.86" x2="7.332" x1="7.332" style="fill:none;stroke:#000000;stroke-width:0.7;stroke-linecap:round;"/>
  <line y2="-36.86" y1="-36.86" x2="16.309" x1="16.309" style="fill:none;stroke:#000000;stroke-width:0.7;stroke-linecap:round;"/>
  <line y2="-36.86" y1="-36.86" x2="25.226" x1="25.226" style="fill:none;stroke:#000000;stroke-width:0.7;stroke-linecap:round;"/>
  <line y2="-36.86" y1="-36.86" x2="34.169" x1="34.169" style="fill:none;stroke:#000000;stroke-width:0.7;stroke-linecap:round;"/>
  <line y2="-36.86" y1="-36.86" x2="43.055" x1="43.055" style="fill:none;stroke:#000000;stroke-width:0.7;stroke-linecap:round;"/>
  <line y2="-36.86" y1="-36.86" x2="52.002" x1="52.002" style="fill:none;stroke:#000000;stroke-width:0.7;stroke-linecap:round;"/>
  <line y2="-34.026" y1="-34.026" x2="4.222" x1="4.222" style="fill:none;stroke:#000000;stroke-width:0.7;stroke-linecap:round;"/>
  <line y2="-34.026" y1="-34.026" x2="13.198" x1="13.198" style="fill:none;stroke:#000000;stroke-width:0.7;stroke-linecap:round;"/>
  <line y2="-34.026" y1="-34.026" x2="22.115" x1="22.115" style="fill:none;stroke:#000000;stroke-width:0.7;stroke-linecap:round;"/>
  <line y2="-34.026" y1="-34.026" x2="31.059" x1="31.059" style="fill:none;stroke:#000000;stroke-width:0.7;stroke-linecap:round;"/>
  <line y2="-34.026" y1="-34.026" x2="39.945" x1="39.945" style="fill:none;stroke:#000000;stroke-width:0.7;stroke-linecap:round;"/>
  <line y2="-34.026" y1="-34.026" x2="48.892" x1="48.892" style="fill:none;stroke:#000000;stroke-width:0.7;stroke-linecap:round;"/>
  <line y2="-30.86" y1="-30.86" x2="8.809" x1="8.809" style="fill:none;stroke:#000000;stroke-width:0.7;stroke-linecap:round;"/>
  <line y2="-30.86" y1="-30.86" x2="17.785" x1="17.785" style="fill:none;stroke:#000000;stroke-width:0.7;stroke-linecap:round;"/>
  <line y2="-30.86" y1="-30.86" x2="26.702" x1="26.702" style="fill:none;stroke:#000000;stroke-width:0.7;stroke-linecap:round;"/>
  <line y2="-30.86" y1="-30.86" x2="35.646" x1="35.646" style="fill:none;stroke:#000000;stroke-width:0.7;stroke-linecap:round;"/>
  <line y2="-30.86" y1="-30.86" x2="44.532" x1="44.532" style="fill:none;stroke:#000000;stroke-width:0.7;stroke-linecap:round;"/>
  <line y2="-30.86" y1="-30.86" x2="53.479" x1="53.479" style="fill:none;stroke:#000000;stroke-width:0.7;stroke-linecap:round;"/>
  <line y2="-27.776" y1="-27.776" x2="5.502" x1="5.502" style="fill:none;stroke:#000000;stroke-width:0.7;stroke-linecap:round;"/>
  <line y2="-27.776" y1="-27.776" x2="14.479" x1="14.479" style="fill:none;stroke:#000000;stroke-width:0.7;stroke-linecap:round;"/>
  <line y2="-27.776" y1="-27.776" x2="23.396" x1="23.396" style="fill:none;stroke:#000000;stroke-width:0.7;stroke-linecap:round;"/>
  <line y2="-27.776" y1="-27.776" x2="32.339" x1="32.339" style="fill:none;stroke:#000000;stroke-width:0.7;stroke-linecap:round;"/>
  <line y2="-27.776" y1="-27.776" x2="41.226" x1="41.226" style="fill:none;stroke:#000000;stroke-width:0.7;stroke-linecap:round;"/>
  <line y2="-27.776" y1="-27.776" x2="50.172" x1="50.172" style="fill:none;stroke:#000000;stroke-width:0.7;stroke-linecap:round;"/>
  <line y2="-24.637" y1="-24.637" x2="9.919" x1="9.919" style="fill:none;stroke:#000000;stroke-width:0.7;stroke-linecap:round;"/>
  <line y2="-24.637" y1="-24.637" x2="1.163" x1="1.163" style="fill:none;stroke:#000000;stroke-width:0.7;stroke-linecap:round;"/>
  <line y2="-24.637" y1="-24.637" x2="18.896" x1="18.896" style="fill:none;stroke:#000000;stroke-width:0.7;stroke-linecap:round;"/>
  <line y2="-24.637" y1="-24.637" x2="27.812" x1="27.812" style="fill:none;stroke:#000000;stroke-width:0.7;stroke-linecap:round;"/>
  <line y2="-24.637" y1="-24.637" x2="36.755" x1="36.755" style="fill:none;stroke:#000000;stroke-width:0.7;stroke-linecap:round;"/>
  <line y2="-24.637" y1="-24.637" x2="45.642" x1="45.642" style="fill:none;stroke:#000000;stroke-width:0.7;stroke-linecap:round;"/>
  <line y2="-21.887" y1="-21.887" x2="5.119" x1="5.119" style="fill:none;stroke:#000000;stroke-width:0.7;stroke-linecap:round;"/>
  <line y2="-21.887" y1="-21.887" x2="14.096" x1="14.096" style="fill:none;stroke:#000000;stroke-width:0.7;stroke-linecap:round;"/>
  <line y2="-21.887" y1="-21.887" x2="23.012" x1="23.012" style="fill:none;stroke:#000000;stroke-width:0.7;stroke-linecap:round;"/>
  <line y2="-21.887" y1="-21.887" x2="31.955" x1="31.955" style="fill:none;stroke:#000000;stroke-width:0.7;stroke-linecap:round;"/>
  <line y2="-21.887" y1="-21.887" x2="40.842" x1="40.842" style="fill:none;stroke:#000000;stroke-width:0.7;stroke-linecap:round;"/>
  <line y2="-21.887" y1="-21.887" x2="49.789" x1="49.789" style="fill:none;stroke:#000000;stroke-width:0.7;stroke-linecap:round;"/>
  <line y2="-18.693" y1="-18.693" x2="8.722" x1="8.722" style="fill:none;stroke:#000000;stroke-width:0.7;stroke-linecap:round;"/>
  <line y2="-18.693" y1="-18.693" x2="17.698" x1="17.698" style="fill:none;stroke:#000000;stroke-width:0.7;stroke-linecap:round;"/>
  <line y2="-18.693" y1="-18.693" x2="26.615" x1="26.615" style="fill:none;stroke:#000000;stroke-width:0.7;stroke-linecap:round;"/>
  <line y2="-18.693" y1="-18.693" x2="35.559" x1="35.559" style="fill:none;stroke:#000000;stroke-width:0.7;stroke-linecap:round;"/>
  <line y2="-18.693" y1="-18.693" x2="44.445" x1="44.445" style="fill:none;stroke:#000000;stroke-width:0.7;stroke-linecap:round;"/>
  <line y2="-18.693" y1="-18.693" x2="53.392" x1="53.392" style="fill:none;stroke:#000000;stroke-width:0.7;stroke-linecap:round;"/>
  <line y2="-15.693" y1="-15.693" x2="4.305" x1="4.305" style="fill:none;stroke:#000000;stroke-width:0.7;stroke-linecap:round;"/>
  <line y2="-15.693" y1="-15.693" x2="13.282" x1="13.282" style="fill:none;stroke:#000000;stroke-width:0.7;stroke-linecap:round;"/>
  <line y2="-15.693" y1="-15.693" x2="22.198" x1="22.198" style="fill:none;stroke:#000000;stroke-width:0.7;stroke-linecap:round;"/>
  <line y2="-15.693" y1="-15.693" x2="31.142" x1="31.142" style="fill:none;stroke:#000000;stroke-width:0.7;stroke-linecap:round;"/>
  <line y2="-15.693" y1="-15.693" x2="40.028" x1="40.028" style="fill:none;stroke:#000000;stroke-width:0.7;stroke-linecap:round;"/>
  <line y2="-15.693" y1="-15.693" x2="48.976" x1="48.976" style="fill:none;stroke:#000000;stroke-width:0.7;stroke-linecap:round;"/>
  <line y2="-12.776" y1="-12.776" x2="8.055" x1="8.055" style="fill:none;stroke:#000000;stroke-width:0.7;stroke-linecap:round;"/>
  <line y2="-12.776" y1="-12.776" x2="17.032" x1="17.032" style="fill:none;stroke:#000000;stroke-width:0.7;stroke-linecap:round;"/>
  <line y2="-12.776" y1="-12.776" x2="25.948" x1="25.948" style="fill:none;stroke:#000000;stroke-width:0.7;stroke-linecap:round;"/>
  <line y2="-12.776" y1="-12.776" x2="34.892" x1="34.892" style="fill:none;stroke:#000000;stroke-width:0.7;stroke-linecap:round;"/>
  <line y2="-12.776" y1="-12.776" x2="43.778" x1="43.778" style="fill:none;stroke:#000000;stroke-width:0.7;stroke-linecap:round;"/>
  <line y2="-12.776" y1="-12.776" x2="52.726" x1="52.726" style="fill:none;stroke:#000000;stroke-width:0.7;stroke-linecap:round;"/>
  <line y2="-9.943" y1="-9.943" x2="5.222" x1="5.222" style="fill:none;stroke:#000000;stroke-width:0.7;stroke-linecap:round;"/>
  <line y2="-9.943" y1="-9.943" x2="14.198" x1="14.198" style="fill:none;stroke:#000000;stroke-width:0.7;stroke-linecap:round;"/>
  <line y2="-9.943" y1="-9.943" x2="23.115" x1="23.115" style="fill:none;stroke:#000000;stroke-width:0.7;stroke-linecap:round;"/>
  <line y2="-9.943" y1="-9.943" x2="32.059" x1="32.059" style="fill:none;stroke:#000000;stroke-width:0.7;stroke-linecap:round;"/>
  <line y2="-9.943" y1="-9.943" x2="40.945" x1="40.945" style="fill:none;stroke:#000000;stroke-width:0.7;stroke-linecap:round;"/>
  <line y2="-9.943" y1="-9.943" x2="49.892" x1="49.892" style="fill:none;stroke:#000000;stroke-width:0.7;stroke-linecap:round;"/>
  <line y2="-6.833" y1="-6.833" x2="1.389" x1="1.389" style="fill:none;stroke:#000000;stroke-width:0.7;stroke-linecap:round;"/>
  <line y2="-6.833" y1="-6.833" x2="10.365" x1="10.365" style="fill:none;stroke:#000000;stroke-width:0.7;stroke-linecap:round;"/>
  <line y2="-6.833" y1="-6.833" x2="19.282" x1="19.282" style="fill:none;stroke:#000000;stroke-width:0.7;stroke-linecap:round;"/>
  <line y2="-6.833" y1="-6.833" x2="28.226" x1="28.226" style="fill:none;stroke:#000000;stroke-width:0.7;stroke-linecap:round;"/>
  <line y2="-6.833" y1="-6.833" x2="37.111" x1="37.111" style="fill:none;stroke:#000000;stroke-width:0.7;stroke-linecap:round;"/>
  <line y2="-6.833" y1="-6.833" x2="46.059" x1="46.059" style="fill:none;stroke:#000000;stroke-width:0.7;stroke-linecap:round;"/>
  <line y2="-3.86" y1="-3.86" x2="6.805" x1="6.805" style="fill:none;stroke:#000000;stroke-width:0.7;stroke-linecap:round;"/>
  <line y2="-3.86" y1="-3.86" x2="15.782" x1="15.782" style="fill:none;stroke:#000000;stroke-width:0.7;stroke-linecap:round;"/>
  <line y2="-3.86" y1="-3.86" x2="24.698" x1="24.698" style="fill:none;stroke:#000000;stroke-width:0.7;stroke-linecap:round;"/>
  <line y2="-3.86" y1="-3.86" x2="33.642" x1="33.642" style="fill:none;stroke:#000000;stroke-width:0.7;stroke-linecap:round;"/>
  <line y2="-3.86" y1="-3.86" x2="42.528" x1="42.528" style="fill:none;stroke:#000000;stroke-width:0.7;stroke-linecap:round;"/>
  <line y2="-3.86" y1="-3.86" x2="51.476" x1="51.476" style="fill:none;stroke:#000000;stroke-width:0.7;stroke-linecap:round;"/>
  <line y2="-0.86" y1="-0.86" x2="1.639" x1="1.639" style="fill:none;stroke:#000000;stroke-width:0.7;stroke-linecap:round;"/>
  <line y2="-0.86" y1="-0.86" x2="10.615" x1="10.615" style="fill:none;stroke:#000000;stroke-width:0.7;stroke-linecap:round;"/>
  <line y2="-0.86" y1="-0.86" x2="19.532" x1="19.532" style="fill:none;stroke:#000000;stroke-width:0.7;stroke-linecap:round;"/>
  <line y2="-0.86" y1="-0.86" x2="28.476" x1="28.476" style="fill:none;stroke:#000000;stroke-width:0.7;stroke-linecap:round;"/>
  <line y2="-0.86" y1="-0.86" x2="37.361" x1="37.361" style="fill:none;stroke:#000000;stroke-width:0.7;stroke-linecap:round;"/>
  <line y2="-0.86" y1="-0.86" x2="46.309" x1="46.309" style="fill:none;stroke:#000000;stroke-width:0.7;stroke-linecap:round;"/>
 </g>
</svg>
