<?xml version="1.0"?>
<!-- Converted with SVG Converter - Version 0.9.5 (Compiled Fri Feb 21 09:53:38 2020) - Copyright (C) 2011 Nokia -->
<svg xmlns="http://www.w3.org/2000/svg" xml:space="preserve" baseProfile="tiny" y="0px" viewBox="0 -53.584 53.584 53.584" xmlns:xlink="http://www.w3.org/1999/xlink" x="0px" width="53.584" height="53.584" version="1.1">
 <g>
  <rect y="-53.584" x="0" width="53.584" height="53.584" style="fill:none;"/>
  <line y1="-51.754" y2="-51.754" x1="3.775" x2="0" style="fill:none;stroke:#000000;stroke-width:0.3;"/>
  <line y1="-51.754" y2="-51.754" x1="6.357" x2="12.726" style="fill:none;stroke:#000000;stroke-width:0.3;"/>
  <line y1="-51.754" y2="-51.754" x1="15.273" x2="21.642" style="fill:none;stroke:#000000;stroke-width:0.3;"/>
  <line y1="-51.754" y2="-51.754" x1="24.19" x2="30.559" style="fill:none;stroke:#000000;stroke-width:0.3;"/>
  <line y1="-51.754" y2="-51.754" x1="33.106" x2="39.476" style="fill:none;stroke:#000000;stroke-width:0.3;"/>
  <line y1="-51.754" y2="-51.754" x1="42.022" x2="48.392" style="fill:none;stroke:#000000;stroke-width:0.3;"/>
  <line y1="-51.754" y2="-51.754" x1="53.584" x2="50.939" style="fill:none;stroke:#000000;stroke-width:0.3;"/>
  <line y1="-48.619" y2="-48.619" x1="8.107" x2="1.738" style="fill:none;stroke:#000000;stroke-width:0.3;"/>
  <line y1="-48.619" y2="-48.619" x1="17.024" x2="10.655" style="fill:none;stroke:#000000;stroke-width:0.3;"/>
  <line y1="-48.619" y2="-48.619" x1="25.941" x2="19.572" style="fill:none;stroke:#000000;stroke-width:0.3;"/>
  <line y1="-48.619" y2="-48.619" x1="34.857" x2="28.488" style="fill:none;stroke:#000000;stroke-width:0.3;"/>
  <line y1="-48.619" y2="-48.619" x1="43.774" x2="37.405" style="fill:none;stroke:#000000;stroke-width:0.3;"/>
  <line y1="-48.619" y2="-48.619" x1="46.322" x2="52.69" style="fill:none;stroke:#000000;stroke-width:0.3;"/>
  <line y1="-45.648" y2="-45.648" x1="2.024" x2="0" style="fill:none;stroke:#000000;stroke-width:0.3;"/>
  <line y1="-45.648" y2="-45.648" x1="4.604" x2="5.972" style="fill:none;stroke:#000000;stroke-width:0.3;"/>
  <line y1="-45.648" y2="-45.648" x1="10.974" x2="5.972" style="fill:none;stroke:#000000;stroke-width:0.3;"/>
  <line y1="-45.648" y2="-45.648" x1="13.521" x2="19.891" style="fill:none;stroke:#000000;stroke-width:0.3;"/>
  <line y1="-45.648" y2="-45.648" x1="23.825" x2="28.807" style="fill:none;stroke:#000000;stroke-width:0.3;"/>
  <line y1="-45.648" y2="-45.648" x1="23.825" x2="22.438" style="fill:none;stroke:#000000;stroke-width:0.3;"/>
  <line y1="-45.648" y2="-45.648" x1="31.354" x2="37.724" style="fill:none;stroke:#000000;stroke-width:0.3;"/>
  <line y1="-45.648" y2="-45.648" x1="41.597" x2="40.271" style="fill:none;stroke:#000000;stroke-width:0.3;"/>
  <line y1="-45.648" y2="-45.648" x1="41.597" x2="46.641" style="fill:none;stroke:#000000;stroke-width:0.3;"/>
  <line y1="-45.648" y2="-45.648" x1="49.188" x2="53.584" style="fill:none;stroke:#000000;stroke-width:0.3;"/>
  <line y1="-42.844" y2="-42.844" x1="7.312" x2="0.942" style="fill:none;stroke:#000000;stroke-width:0.3;"/>
  <line y1="-42.844" y2="-42.844" x1="16.229" x2="9.859" style="fill:none;stroke:#000000;stroke-width:0.3;"/>
  <line y1="-42.844" y2="-42.844" x1="25.145" x2="18.775" style="fill:none;stroke:#000000;stroke-width:0.3;"/>
  <line y1="-42.844" y2="-42.844" x1="34.062" x2="27.692" style="fill:none;stroke:#000000;stroke-width:0.3;"/>
  <line y1="-42.844" y2="-42.844" x1="42.979" x2="36.609" style="fill:none;stroke:#000000;stroke-width:0.3;"/>
  <line y1="-42.844" y2="-42.844" x1="51.895" x2="45.525" style="fill:none;stroke:#000000;stroke-width:0.3;"/>
  <line y1="-39.874" y2="-39.874" x1="1.706" x2="0" style="fill:none;stroke:#000000;stroke-width:0.3;"/>
  <line y1="-39.874" y2="-39.874" x1="4.286" x2="5.35" style="fill:none;stroke:#000000;stroke-width:0.3;"/>
  <line y1="-39.874" y2="-39.874" x1="5.35" x2="10.655" style="fill:none;stroke:#000000;stroke-width:0.3;"/>
  <line y1="-39.874" y2="-39.874" x1="19.572" x2="13.203" style="fill:none;stroke:#000000;stroke-width:0.3;"/>
  <line y1="-39.874" y2="-39.874" x1="23.39" x2="22.119" style="fill:none;stroke:#000000;stroke-width:0.3;"/>
  <line y1="-39.874" y2="-39.874" x1="23.39" x2="28.488" style="fill:none;stroke:#000000;stroke-width:0.3;"/>
  <line y1="-39.874" y2="-39.874" x1="31.036" x2="37.405" style="fill:none;stroke:#000000;stroke-width:0.3;"/>
  <line y1="-39.874" y2="-39.874" x1="41.16" x2="46.322" style="fill:none;stroke:#000000;stroke-width:0.3;"/>
  <line y1="-39.874" y2="-39.874" x1="39.953" x2="41.16" style="fill:none;stroke:#000000;stroke-width:0.3;"/>
  <line y1="-39.874" y2="-39.874" x1="48.869" x2="53.584" style="fill:none;stroke:#000000;stroke-width:0.3;"/>
  <line y1="-36.869" y2="-36.869" x1="5.242" x2="0" style="fill:none;stroke:#000000;stroke-width:0.3;"/>
  <line y1="-36.869" y2="-36.869" x1="14.158" x2="7.789" style="fill:none;stroke:#000000;stroke-width:0.3;"/>
  <line y1="-36.869" y2="-36.869" x1="16.706" x2="23.075" style="fill:none;stroke:#000000;stroke-width:0.3;"/>
  <line y1="-36.869" y2="-36.869" x1="31.991" x2="25.622" style="fill:none;stroke:#000000;stroke-width:0.3;"/>
  <line y1="-36.869" y2="-36.869" x1="34.539" x2="40.908" style="fill:none;stroke:#000000;stroke-width:0.3;"/>
  <line y1="-36.869" y2="-36.869" x1="43.456" x2="49.825" style="fill:none;stroke:#000000;stroke-width:0.3;"/>
  <line y1="-36.869" y2="-36.869" x1="52.372" x2="53.584" style="fill:none;stroke:#000000;stroke-width:0.3;"/>
  <line y1="-33.986" y2="-33.986" x1="2.184" x2="0" style="fill:none;stroke:#000000;stroke-width:0.3;"/>
  <line y1="-33.986" y2="-33.986" x1="11.133" x2="4.764" style="fill:none;stroke:#000000;stroke-width:0.3;"/>
  <line y1="-33.986" y2="-33.986" x1="13.681" x2="14.836" style="fill:none;stroke:#000000;stroke-width:0.3;"/>
  <line y1="-33.986" y2="-33.986" x1="20.05" x2="14.836" style="fill:none;stroke:#000000;stroke-width:0.3;"/>
  <line y1="-33.986" y2="-33.986" x1="28.966" x2="22.598" style="fill:none;stroke:#000000;stroke-width:0.3;"/>
  <line y1="-33.986" y2="-33.986" x1="32.794" x2="31.514" style="fill:none;stroke:#000000;stroke-width:0.3;"/>
  <line y1="-33.986" y2="-33.986" x1="37.883" x2="32.794" style="fill:none;stroke:#000000;stroke-width:0.3;"/>
  <line y1="-33.986" y2="-33.986" x1="46.8" x2="40.431" style="fill:none;stroke:#000000;stroke-width:0.3;"/>
  <line y1="-33.986" y2="-33.986" x1="49.347" x2="50.565" style="fill:none;stroke:#000000;stroke-width:0.3;"/>
  <line y1="-33.986" y2="-33.986" x1="50.565" x2="53.584" style="fill:none;stroke:#000000;stroke-width:0.3;"/>
  <line y1="-30.789" y2="-30.789" x1="6.675" x2="0.306" style="fill:none;stroke:#000000;stroke-width:0.3;"/>
  <line y1="-30.789" y2="-30.789" x1="15.592" x2="9.223" style="fill:none;stroke:#000000;stroke-width:0.3;"/>
  <line y1="-30.789" y2="-30.789" x1="24.508" x2="18.139" style="fill:none;stroke:#000000;stroke-width:0.3;"/>
  <line y1="-30.789" y2="-30.789" x1="27.056" x2="33.425" style="fill:none;stroke:#000000;stroke-width:0.3;"/>
  <line y1="-30.789" y2="-30.789" x1="35.972" x2="42.341" style="fill:none;stroke:#000000;stroke-width:0.3;"/>
  <line y1="-30.789" y2="-30.789" x1="44.889" x2="51.258" style="fill:none;stroke:#000000;stroke-width:0.3;"/>
  <line y1="-27.819" y2="-27.819" x1="3.457" x2="0" style="fill:none;stroke:#000000;stroke-width:0.3;"/>
  <line y1="-27.819" y2="-27.819" x1="12.407" x2="6.038" style="fill:none;stroke:#000000;stroke-width:0.3;"/>
  <line y1="-27.819" y2="-27.819" x1="14.954" x2="15.986" style="fill:none;stroke:#000000;stroke-width:0.3;"/>
  <line y1="-27.819" y2="-27.819" x1="21.323" x2="15.986" style="fill:none;stroke:#000000;stroke-width:0.3;"/>
  <line y1="-27.819" y2="-27.819" x1="23.871" x2="30.24" style="fill:none;stroke:#000000;stroke-width:0.3;"/>
  <line y1="-27.819" y2="-27.819" x1="34.007" x2="39.156" style="fill:none;stroke:#000000;stroke-width:0.3;"/>
  <line y1="-27.819" y2="-27.819" x1="34.007" x2="32.788" style="fill:none;stroke:#000000;stroke-width:0.3;"/>
  <line y1="-27.819" y2="-27.819" x1="41.704" x2="48.073" style="fill:none;stroke:#000000;stroke-width:0.3;"/>
  <line y1="-27.819" y2="-27.819" x1="50.621" x2="51.944" style="fill:none;stroke:#000000;stroke-width:0.3;"/>
  <line y1="-27.819" y2="-27.819" x1="51.944" x2="53.584" style="fill:none;stroke:#000000;stroke-width:0.3;"/>
  <line y1="-24.685" y2="-24.685" x1="1.579" x2="7.948" style="fill:none;stroke:#000000;stroke-width:0.3;"/>
  <line y1="-24.685" y2="-24.685" x1="16.865" x2="10.496" style="fill:none;stroke:#000000;stroke-width:0.3;"/>
  <line y1="-24.685" y2="-24.685" x1="25.782" x2="19.413" style="fill:none;stroke:#000000;stroke-width:0.3;"/>
  <line y1="-24.685" y2="-24.685" x1="34.698" x2="28.329" style="fill:none;stroke:#000000;stroke-width:0.3;"/>
  <line y1="-24.685" y2="-24.685" x1="43.615" x2="37.246" style="fill:none;stroke:#000000;stroke-width:0.3;"/>
  <line y1="-24.685" y2="-24.685" x1="46.163" x2="52.531" style="fill:none;stroke:#000000;stroke-width:0.3;"/>
  <line y1="-21.88" y2="-21.88" x1="2.98" x2="0" style="fill:none;stroke:#000000;stroke-width:0.3;"/>
  <line y1="-21.88" y2="-21.88" x1="11.929" x2="5.561" style="fill:none;stroke:#000000;stroke-width:0.3;"/>
  <line y1="-21.88" y2="-21.88" x1="14.477" x2="20.846" style="fill:none;stroke:#000000;stroke-width:0.3;"/>
  <line y1="-21.88" y2="-21.88" x1="23.394" x2="29.763" style="fill:none;stroke:#000000;stroke-width:0.3;"/>
  <line y1="-21.88" y2="-21.88" x1="32.31" x2="38.679" style="fill:none;stroke:#000000;stroke-width:0.3;"/>
  <line y1="-21.88" y2="-21.88" x1="41.227" x2="47.596" style="fill:none;stroke:#000000;stroke-width:0.3;"/>
  <line y1="-21.88" y2="-21.88" x1="50.144" x2="53.584" style="fill:none;stroke:#000000;stroke-width:0.3;"/>
  <line y1="-18.744" y2="-18.744" x1="6.834" x2="0.465" style="fill:none;stroke:#000000;stroke-width:0.3;"/>
  <line y1="-18.744" y2="-18.744" x1="15.751" x2="9.382" style="fill:none;stroke:#000000;stroke-width:0.3;"/>
  <line y1="-18.744" y2="-18.744" x1="24.667" x2="18.298" style="fill:none;stroke:#000000;stroke-width:0.3;"/>
  <line y1="-18.744" y2="-18.744" x1="27.215" x2="33.584" style="fill:none;stroke:#000000;stroke-width:0.3;"/>
  <line y1="-18.744" y2="-18.744" x1="42.5" x2="36.132" style="fill:none;stroke:#000000;stroke-width:0.3;"/>
  <line y1="-18.744" y2="-18.744" x1="45.048" x2="51.417" style="fill:none;stroke:#000000;stroke-width:0.3;"/>
  <line y1="-15.774" y2="-15.774" x1="2.184" x2="0" style="fill:none;stroke:#000000;stroke-width:0.3;"/>
  <line y1="-15.774" y2="-15.774" x1="11.133" x2="4.764" style="fill:none;stroke:#000000;stroke-width:0.3;"/>
  <line y1="-15.774" y2="-15.774" x1="20.05" x2="13.681" style="fill:none;stroke:#000000;stroke-width:0.3;"/>
  <line y1="-15.774" y2="-15.774" x1="22.598" x2="28.966" style="fill:none;stroke:#000000;stroke-width:0.3;"/>
  <line y1="-15.774" y2="-15.774" x1="31.514" x2="37.883" style="fill:none;stroke:#000000;stroke-width:0.3;"/>
  <line y1="-15.774" y2="-15.774" x1="40.431" x2="46.8" style="fill:none;stroke:#000000;stroke-width:0.3;"/>
  <line y1="-15.774" y2="-15.774" x1="49.347" x2="53.584" style="fill:none;stroke:#000000;stroke-width:0.3;"/>
  <line y1="-12.805" y2="-12.805" x1="0" x2="1.339" style="fill:none;stroke:#000000;stroke-width:0.3;"/>
  <line y1="-12.805" y2="-12.805" x1="6.038" x2="1.339" style="fill:none;stroke:#000000;stroke-width:0.3;"/>
  <line y1="-12.805" y2="-12.805" x1="8.585" x2="14.954" style="fill:none;stroke:#000000;stroke-width:0.3;"/>
  <line y1="-12.805" y2="-12.805" x1="18.734" x2="17.502" style="fill:none;stroke:#000000;stroke-width:0.3;"/>
  <line y1="-12.805" y2="-12.805" x1="23.871" x2="18.734" style="fill:none;stroke:#000000;stroke-width:0.3;"/>
  <line y1="-12.805" y2="-12.805" x1="32.788" x2="26.419" style="fill:none;stroke:#000000;stroke-width:0.3;"/>
  <line y1="-12.805" y2="-12.805" x1="36.547" x2="35.335" style="fill:none;stroke:#000000;stroke-width:0.3;"/>
  <line y1="-12.805" y2="-12.805" x1="36.547" x2="41.704" style="fill:none;stroke:#000000;stroke-width:0.3;"/>
  <line y1="-12.805" y2="-12.805" x1="44.252" x2="50.621" style="fill:none;stroke:#000000;stroke-width:0.3;"/>
  <line y1="-12.805" y2="-12.805" x1="53.584" x2="53.169" style="fill:none;stroke:#000000;stroke-width:0.3;"/>
  <line y1="-10.009" y2="-10.009" x1="0" x2="3.139" style="fill:none;stroke:#000000;stroke-width:0.3;"/>
  <line y1="-10.009" y2="-10.009" x1="12.088" x2="5.72" style="fill:none;stroke:#000000;stroke-width:0.3;"/>
  <line y1="-10.009" y2="-10.009" x1="14.636" x2="21.005" style="fill:none;stroke:#000000;stroke-width:0.3;"/>
  <line y1="-10.009" y2="-10.009" x1="23.553" x2="29.922" style="fill:none;stroke:#000000;stroke-width:0.3;"/>
  <line y1="-10.009" y2="-10.009" x1="32.47" x2="38.838" style="fill:none;stroke:#000000;stroke-width:0.3;"/>
  <line y1="-10.009" y2="-10.009" x1="41.386" x2="47.755" style="fill:none;stroke:#000000;stroke-width:0.3;"/>
  <line y1="-10.009" y2="-10.009" x1="50.303" x2="53.584" style="fill:none;stroke:#000000;stroke-width:0.3;"/>
  <line y1="-6.873" y2="-6.873" x1="8.267" x2="1.898" style="fill:none;stroke:#000000;stroke-width:0.3;"/>
  <line y1="-6.873" y2="-6.873" x1="17.184" x2="10.814" style="fill:none;stroke:#000000;stroke-width:0.3;"/>
  <line y1="-6.873" y2="-6.873" x1="26.101" x2="19.732" style="fill:none;stroke:#000000;stroke-width:0.3;"/>
  <line y1="-6.873" y2="-6.873" x1="35.017" x2="28.647" style="fill:none;stroke:#000000;stroke-width:0.3;"/>
  <line y1="-6.873" y2="-6.873" x1="43.934" x2="37.564" style="fill:none;stroke:#000000;stroke-width:0.3;"/>
  <line y1="-6.873" y2="-6.873" x1="46.481" x2="52.85" style="fill:none;stroke:#000000;stroke-width:0.3;"/>
  <line y1="-3.903" y2="-3.903" x1="4.732" x2="0" style="fill:none;stroke:#000000;stroke-width:0.3;"/>
  <line y1="-3.903" y2="-3.903" x1="7.312" x2="13.681" style="fill:none;stroke:#000000;stroke-width:0.3;"/>
  <line y1="-3.903" y2="-3.903" x1="16.229" x2="22.598" style="fill:none;stroke:#000000;stroke-width:0.3;"/>
  <line y1="-3.903" y2="-3.903" x1="25.145" x2="31.514" style="fill:none;stroke:#000000;stroke-width:0.3;"/>
  <line y1="-3.903" y2="-3.903" x1="34.062" x2="40.431" style="fill:none;stroke:#000000;stroke-width:0.3;"/>
  <line y1="-3.903" y2="-3.903" x1="42.979" x2="49.347" style="fill:none;stroke:#000000;stroke-width:0.3;"/>
  <line y1="-3.903" y2="-3.903" x1="51.895" x2="53.584" style="fill:none;stroke:#000000;stroke-width:0.3;"/>
  <line y1="-0.934" y2="-0.934" x1="8.585" x2="2.217" style="fill:none;stroke:#000000;stroke-width:0.3;"/>
  <line y1="-0.934" y2="-0.934" x1="17.502" x2="11.133" style="fill:none;stroke:#000000;stroke-width:0.3;"/>
  <line y1="-0.934" y2="-0.934" x1="26.419" x2="20.05" style="fill:none;stroke:#000000;stroke-width:0.3;"/>
  <line y1="-0.934" y2="-0.934" x1="35.335" x2="28.966" style="fill:none;stroke:#000000;stroke-width:0.3;"/>
  <line y1="-0.934" y2="-0.934" x1="44.252" x2="37.883" style="fill:none;stroke:#000000;stroke-width:0.3;"/>
  <line y1="-0.934" y2="-0.934" x1="53.169" x2="46.8" style="fill:none;stroke:#000000;stroke-width:0.3;"/>
  <line y1="-51.812" y2="-53.225" x1="7.666" x2="8.752" style="fill:none;stroke:#000000;stroke-width:0.3;"/>
  <line y1="-51.812" y2="-53.225" x1="25.604" x2="26.69" style="fill:none;stroke:#000000;stroke-width:0.3;"/>
  <line y1="-51.812" y2="-53.225" x1="43.625" x2="44.71" style="fill:none;stroke:#000000;stroke-width:0.3;"/>
  <line y1="-48.625" y2="-50.037" x1="47.791" x2="48.877" style="fill:none;stroke:#000000;stroke-width:0.3;"/>
  <line y1="-48.625" y2="-50.037" x1="29.979" x2="31.065" style="fill:none;stroke:#000000;stroke-width:0.3;"/>
  <line y1="-48.625" y2="-50.037" x1="11.833" x2="12.918" style="fill:none;stroke:#000000;stroke-width:0.3;"/>
  <line y1="-45.604" y2="-45.648" x1="5.938" x2="5.972" style="fill:none;stroke:#000000;stroke-width:0.3;"/>
  <line y1="-45.648" y2="-47.017" x1="5.972" x2="7.023" style="fill:none;stroke:#000000;stroke-width:0.3;"/>
  <line y1="-45.648" y2="-47.017" x1="23.825" x2="24.877" style="fill:none;stroke:#000000;stroke-width:0.3;"/>
  <line y1="-45.604" y2="-45.648" x1="23.791" x2="23.825" style="fill:none;stroke:#000000;stroke-width:0.3;"/>
  <line y1="-45.604" y2="-45.648" x1="41.562" x2="41.597" style="fill:none;stroke:#000000;stroke-width:0.3;"/>
  <line y1="-45.648" y2="-47.017" x1="41.597" x2="42.647" style="fill:none;stroke:#000000;stroke-width:0.3;"/>
  <line y1="-42.896" y2="-44.308" x1="37.916" x2="39.002" style="fill:none;stroke:#000000;stroke-width:0.3;"/>
  <line y1="-42.896" y2="-44.308" x1="20.166" x2="21.252" style="fill:none;stroke:#000000;stroke-width:0.3;"/>
  <line y1="-42.896" y2="-44.308" x1="2.208" x2="3.293" style="fill:none;stroke:#000000;stroke-width:0.3;"/>
  <line y1="-39.874" y2="-39.854" x1="41.16" x2="41.146" style="fill:none;stroke:#000000;stroke-width:0.3;"/>
  <line y1="-39.874" y2="-41.267" x1="41.16" x2="42.23" style="fill:none;stroke:#000000;stroke-width:0.3;"/>
  <line y1="-39.874" y2="-41.267" x1="23.39" x2="24.46" style="fill:none;stroke:#000000;stroke-width:0.3;"/>
  <line y1="-39.854" y2="-39.874" x1="23.375" x2="23.39" style="fill:none;stroke:#000000;stroke-width:0.3;"/>
  <line y1="-39.854" y2="-39.874" x1="5.335" x2="5.35" style="fill:none;stroke:#000000;stroke-width:0.3;"/>
  <line y1="-39.874" y2="-41.267" x1="5.35" x2="6.421" style="fill:none;stroke:#000000;stroke-width:0.3;"/>
  <line y1="-38.308" y2="-36.896" x1="45.775" x2="44.689" style="fill:none;stroke:#000000;stroke-width:0.3;"/>
  <line y1="-38.308" y2="-36.896" x1="28.024" x2="26.94" style="fill:none;stroke:#000000;stroke-width:0.3;"/>
  <line y1="-36.896" y2="-38.308" x1="9.044" x2="10.129" style="fill:none;stroke:#000000;stroke-width:0.3;"/>
  <line y1="-33.986" y2="-33.958" x1="32.794" x2="32.772" style="fill:none;stroke:#000000;stroke-width:0.3;"/>
  <line y1="-35.37" y2="-33.986" x1="33.858" x2="32.794" style="fill:none;stroke:#000000;stroke-width:0.3;"/>
  <line y1="-33.986" y2="-35.37" x1="50.565" x2="51.629" style="fill:none;stroke:#000000;stroke-width:0.3;"/>
  <line y1="-33.986" y2="-33.958" x1="50.565" x2="50.544" style="fill:none;stroke:#000000;stroke-width:0.3;"/>
  <line y1="-33.958" y2="-33.986" x1="14.814" x2="14.836" style="fill:none;stroke:#000000;stroke-width:0.3;"/>
  <line y1="-35.37" y2="-33.986" x1="15.899" x2="14.836" style="fill:none;stroke:#000000;stroke-width:0.3;"/>
  <line y1="-32.245" y2="-30.833" x1="47.087" x2="46.002" style="fill:none;stroke:#000000;stroke-width:0.3;"/>
  <line y1="-32.245" y2="-30.833" x1="29.379" x2="28.294" style="fill:none;stroke:#000000;stroke-width:0.3;"/>
  <line y1="-30.833" y2="-32.245" x1="10.481" x2="11.566" style="fill:none;stroke:#000000;stroke-width:0.3;"/>
  <line y1="-27.812" y2="-27.819" x1="15.981" x2="15.986" style="fill:none;stroke:#000000;stroke-width:0.3;"/>
  <line y1="-29.225" y2="-27.819" x1="17.066" x2="15.986" style="fill:none;stroke:#000000;stroke-width:0.3;"/>
  <line y1="-27.819" y2="-29.225" x1="34.007" x2="35.087" style="fill:none;stroke:#000000;stroke-width:0.3;"/>
  <line y1="-27.819" y2="-27.812" x1="34.007" x2="34.002" style="fill:none;stroke:#000000;stroke-width:0.3;"/>
  <line y1="-27.819" y2="-29.225" x1="51.944" x2="53.024" style="fill:none;stroke:#000000;stroke-width:0.3;"/>
  <line y1="-27.819" y2="-27.812" x1="51.944" x2="51.939" style="fill:none;stroke:#000000;stroke-width:0.3;"/>
  <line y1="-24.708" y2="-26.12" x1="38.564" x2="39.649" style="fill:none;stroke:#000000;stroke-width:0.3;"/>
  <line y1="-24.708" y2="-26.12" x1="20.752" x2="21.837" style="fill:none;stroke:#000000;stroke-width:0.3;"/>
  <line y1="-24.708" y2="-26.12" x1="2.9" x2="3.985" style="fill:none;stroke:#000000;stroke-width:0.3;"/>
  <line y1="-21.887" y2="-23.299" x1="6.921" x2="8.006" style="fill:none;stroke:#000000;stroke-width:0.3;"/>
  <line y1="-21.887" y2="-23.299" x1="24.796" x2="25.881" style="fill:none;stroke:#000000;stroke-width:0.3;"/>
  <line y1="-23.299" y2="-21.887" x1="43.506" x2="42.421" style="fill:none;stroke:#000000;stroke-width:0.3;"/>
  <line y1="-20.194" y2="-18.782" x1="38.506" x2="37.421" style="fill:none;stroke:#000000;stroke-width:0.3;"/>
  <line y1="-18.782" y2="-20.194" x1="19.525" x2="20.61" style="fill:none;stroke:#000000;stroke-width:0.3;"/>
  <line y1="-18.782" y2="-20.194" x1="1.691" x2="2.777" style="fill:none;stroke:#000000;stroke-width:0.3;"/>
  <line y1="-17.319" y2="-15.907" x1="7.298" x2="6.213" style="fill:none;stroke:#000000;stroke-width:0.3;"/>
  <line y1="-15.907" y2="-17.319" x1="24.066" x2="25.152" style="fill:none;stroke:#000000;stroke-width:0.3;"/>
  <line y1="-17.319" y2="-15.907" x1="42.84" x2="41.754" style="fill:none;stroke:#000000;stroke-width:0.3;"/>
  <line y1="-12.805" y2="-14.216" x1="36.547" x2="37.631" style="fill:none;stroke:#000000;stroke-width:0.3;"/>
  <line y1="-12.805" y2="-12.804" x1="36.547" x2="36.546" style="fill:none;stroke:#000000;stroke-width:0.3;"/>
  <line y1="-14.216" y2="-12.805" x1="19.818" x2="18.734" style="fill:none;stroke:#000000;stroke-width:0.3;"/>
  <line y1="-12.805" y2="-12.804" x1="18.734" x2="18.733" style="fill:none;stroke:#000000;stroke-width:0.3;"/>
  <line y1="-12.805" y2="-12.804" x1="1.339" x2="1.338" style="fill:none;stroke:#000000;stroke-width:0.3;"/>
  <line y1="-14.216" y2="-12.805" x1="2.423" x2="1.339" style="fill:none;stroke:#000000;stroke-width:0.3;"/>
  <line y1="-10.095" y2="-11.507" x1="42.733" x2="43.818" style="fill:none;stroke:#000000;stroke-width:0.3;"/>
  <line y1="-11.507" y2="-10.095" x1="25.943" x2="24.858" style="fill:none;stroke:#000000;stroke-width:0.3;"/>
  <line y1="-11.507" y2="-10.095" x1="7.965" x2="6.879" style="fill:none;stroke:#000000;stroke-width:0.3;"/>
  <line y1="-6.913" y2="-8.325" x1="12.088" x2="13.173" style="fill:none;stroke:#000000;stroke-width:0.3;"/>
  <line y1="-8.325" y2="-6.913" x1="31.048" x2="29.963" style="fill:none;stroke:#000000;stroke-width:0.3;"/>
  <line y1="-3.919" y2="-5.331" x1="44.275" x2="45.36" style="fill:none;stroke:#000000;stroke-width:0.3;"/>
  <line y1="-0.939" y2="-2.352" x1="39.177" x2="40.263" style="fill:none;stroke:#000000;stroke-width:0.3;"/>
  <line y1="-0.939" y2="-2.352" x1="21.302" x2="22.388" style="fill:none;stroke:#000000;stroke-width:0.3;"/>
  <line y1="-0.939" y2="-2.352" x1="3.364" x2="4.45" style="fill:none;stroke:#000000;stroke-width:0.3;"/>
  <line y1="-5.331" y2="-3.919" x1="27.631" x2="26.546" style="fill:none;stroke:#000000;stroke-width:0.3;"/>
  <line y1="-5.331" y2="-3.919" x1="9.568" x2="8.483" style="fill:none;stroke:#000000;stroke-width:0.3;"/>
  <line y1="-8.325" y2="-6.913" x1="49.215" x2="48.129" style="fill:none;stroke:#000000;stroke-width:0.3;"/>
 </g>
</svg>
