<?xml version="1.0"?>
<!-- Converted with SVG Converter - Version 0.9.5 (Compiled Fri Feb 21 09:53:38 2020) - Copyright (C) 2011 Nokia -->
<svg xmlns="http://www.w3.org/2000/svg" height="54.125" xml:space="preserve" version="1.1" width="54.125" x="0px" viewBox="0 -54.125 54.125 54.125" y="0px" baseProfile="tiny" xmlns:xlink="http://www.w3.org/1999/xlink">
 <g>
  <rect height="54.125" width="54.125" style="fill:none;" y="-54.125"/>
  <line y2="-43.736" style="fill:none;stroke:#000000;stroke-width:0.3;" y1="-43.736" x1="54.125" x2="0"/>
  <line y2="-42.146" style="fill:none;stroke:#000000;stroke-width:0.3;" y1="-42.146" x1="54.125" x2="0"/>
  <line y2="-40.556" style="fill:none;stroke:#000000;stroke-width:0.3;" y1="-40.556" x1="54.125" x2="0"/>
  <line y2="-38.965" style="fill:none;stroke:#000000;stroke-width:0.3;" y1="-38.965" x1="54.125" x2="0"/>
  <line y2="-37.375" style="fill:none;stroke:#000000;stroke-width:0.3;" y1="-37.375" x1="54.125" x2="0"/>
  <line y2="-35.784" style="fill:none;stroke:#000000;stroke-width:0.3;" y1="-35.784" x1="54.125" x2="0"/>
  <line y2="-34.194" style="fill:none;stroke:#000000;stroke-width:0.3;" y1="-34.194" x1="54.125" x2="0"/>
  <line y2="-32.604" style="fill:none;stroke:#000000;stroke-width:0.3;" y1="-32.604" x1="54.125" x2="0"/>
  <line y2="-31.013" style="fill:none;stroke:#000000;stroke-width:0.3;" y1="-31.013" x1="54.125" x2="0"/>
  <line y2="-29.423" style="fill:none;stroke:#000000;stroke-width:0.3;" y1="-29.423" x1="54.125" x2="0"/>
  <line y2="-27.831" style="fill:none;stroke:#000000;stroke-width:0.3;" y1="-27.831" x1="54.125" x2="0"/>
  <line y2="-53.28" style="fill:none;stroke:#000000;stroke-width:0.3;" y1="-53.28" x1="0" x2="54.125"/>
  <line y2="-51.689" style="fill:none;stroke:#000000;stroke-width:0.3;" y1="-51.689" x1="54.125" x2="0"/>
  <line y2="-50.1" style="fill:none;stroke:#000000;stroke-width:0.3;" y1="-50.1" x1="54.125" x2="0"/>
  <line y2="-48.509" style="fill:none;stroke:#000000;stroke-width:0.3;" y1="-48.509" x1="54.125" x2="0"/>
  <line y2="-46.918" style="fill:none;stroke:#000000;stroke-width:0.3;" y1="-46.918" x1="54.125" x2="0"/>
  <line y2="-45.328" style="fill:none;stroke:#000000;stroke-width:0.3;" y1="-45.328" x1="54.125" x2="0"/>
  <line y2="-26.241" style="fill:none;stroke:#000000;stroke-width:0.3;" y1="-26.241" x1="54.125" x2="0"/>
  <line y2="-24.65" style="fill:none;stroke:#000000;stroke-width:0.3;" y1="-24.65" x1="54.125" x2="0"/>
  <line y2="-23.06" style="fill:none;stroke:#000000;stroke-width:0.3;" y1="-23.06" x1="54.125" x2="0"/>
  <line y2="-21.47" style="fill:none;stroke:#000000;stroke-width:0.3;" y1="-21.47" x1="54.125" x2="0"/>
  <line y2="-19.879" style="fill:none;stroke:#000000;stroke-width:0.3;" y1="-19.879" x1="54.125" x2="0"/>
  <line y2="-18.289" style="fill:none;stroke:#000000;stroke-width:0.3;" y1="-18.289" x1="54.125" x2="0"/>
  <line y2="-16.698" style="fill:none;stroke:#000000;stroke-width:0.3;" y1="-16.698" x1="54.125" x2="0"/>
  <line y2="-15.107" style="fill:none;stroke:#000000;stroke-width:0.3;" y1="-15.107" x1="54.125" x2="0"/>
  <line y2="-13.518" style="fill:none;stroke:#000000;stroke-width:0.3;" y1="-13.518" x1="54.125" x2="0"/>
  <line y2="-11.927" style="fill:none;stroke:#000000;stroke-width:0.3;" y1="-11.927" x1="54.125" x2="0"/>
  <line y2="-10.336" style="fill:none;stroke:#000000;stroke-width:0.3;" y1="-10.336" x1="54.125" x2="0"/>
  <line y2="-8.745" style="fill:none;stroke:#000000;stroke-width:0.3;" y1="-8.745" x1="54.125" x2="0"/>
  <line y2="-7.155" style="fill:none;stroke:#000000;stroke-width:0.3;" y1="-7.155" x1="54.125" x2="0"/>
  <line y2="-5.564" style="fill:none;stroke:#000000;stroke-width:0.3;" y1="-5.564" x1="54.125" x2="0"/>
  <line y2="-3.974" style="fill:none;stroke:#000000;stroke-width:0.3;" y1="-3.974" x1="54.125" x2="0"/>
  <line y2="-2.384" style="fill:none;stroke:#000000;stroke-width:0.3;" y1="-2.384" x1="54.125" x2="0"/>
  <line y2="-0.793" style="fill:none;stroke:#000000;stroke-width:0.3;" y1="-0.793" x1="54.125" x2="0"/>
 </g>
</svg>
