<?xml version="1.0"?>
<!-- Converted with SVG Converter - Version 0.9.5 (Compiled Fri Feb 21 09:53:38 2020) - Copyright (C) 2011 Nokia -->
<svg xmlns="http://www.w3.org/2000/svg" version="1.1" viewBox="0 -54.125 54.125 54.125" baseProfile="tiny" width="54.125" xml:space="preserve" x="0px" xmlns:xlink="http://www.w3.org/1999/xlink" y="0px" height="54.125">
 <g>
  <rect width="54.125" style="fill:none;" y="-54.125" height="54.125"/>
  <line y2="-51.945" x2="18.203" style="fill:none;stroke:#000000;stroke-width:0.3;" x1="18.203" y1="-49.609"/>
  <line y2="-52.771" x2="14.709" style="fill:none;stroke:#000000;stroke-width:0.3;" x1="0.953" y1="-52.771"/>
  <line y2="-52.771" x2="32.834" style="fill:none;stroke:#000000;stroke-width:0.3;" x1="19.786" y1="-52.771"/>
  <line y2="-52.771" x2="52.286" style="fill:none;stroke:#000000;stroke-width:0.3;" x1="37.453" y1="-52.771"/>
  <line y2="-49.583" x2="0" style="fill:none;stroke:#000000;stroke-width:0.3;" x1="10.619" y1="-49.583"/>
  <line y2="-49.583" x2="15.625" style="fill:none;stroke:#000000;stroke-width:0.3;" x1="28.619" y1="-49.583"/>
  <line y2="-49.583" x2="33.75" style="fill:none;stroke:#000000;stroke-width:0.3;" x1="48.119" y1="-49.583"/>
  <line y2="-46.583" x2="2.119" style="fill:none;stroke:#000000;stroke-width:0.3;" x1="16.959" y1="-46.583"/>
  <line y2="-46.583" x2="35.953" style="fill:none;stroke:#000000;stroke-width:0.3;" x1="22.619" y1="-46.583"/>
  <line y2="-46.583" x2="52.834" style="fill:none;stroke:#000000;stroke-width:0.3;" x1="39.786" y1="-46.583"/>
  <line y2="-43.708" x2="6.619" style="fill:none;stroke:#000000;stroke-width:0.3;" x1="27.453" y1="-43.708"/>
  <line y2="-43.708" x2="53.953" style="fill:none;stroke:#000000;stroke-width:0.3;" x1="37.292" y1="-43.708"/>
  <line y2="-40.708" x2="39.286" style="fill:none;stroke:#000000;stroke-width:0.3;" x1="52.619" y1="-40.708"/>
  <line y2="-40.708" x2="19.786" style="fill:none;stroke:#000000;stroke-width:0.3;" x1="35.286" y1="-40.708"/>
  <line y2="-40.708" x2="1.619" style="fill:none;stroke:#000000;stroke-width:0.3;" x1="14.584" y1="-40.708"/>
  <line y2="-37.583" x2="0" style="fill:none;stroke:#000000;stroke-width:0.3;" x1="7.786" y1="-37.583"/>
  <line y2="-37.583" x2="26.786" style="fill:none;stroke:#000000;stroke-width:0.3;" x1="14" y1="-37.583"/>
  <line y2="-37.583" x2="47.786" style="fill:none;stroke:#000000;stroke-width:0.3;" x1="31.875" y1="-37.583"/>
  <line y2="-34.708" x2="24.911" style="fill:none;stroke:#000000;stroke-width:0.3;" x1="37.411" y1="-34.708"/>
  <line y2="-34.708" x2="51.661" style="fill:none;stroke:#000000;stroke-width:0.3;" x1="40.911" y1="-34.708"/>
  <line y2="-34.708" x2="1.453" style="fill:none;stroke:#000000;stroke-width:0.3;" x1="19.619" y1="-34.708"/>
  <line y2="-31.583" x2="0" style="fill:none;stroke:#000000;stroke-width:0.3;" x1="9.786" y1="-31.583"/>
  <line y2="-31.583" x2="13.75" style="fill:none;stroke:#000000;stroke-width:0.3;" x1="26.286" y1="-31.583"/>
  <line y2="-31.583" x2="46.286" style="fill:none;stroke:#000000;stroke-width:0.3;" x1="29.786" y1="-31.583"/>
  <line y2="-28.583" x2="51.953" style="fill:none;stroke:#000000;stroke-width:0.3;" x1="41.911" y1="-28.583"/>
  <line y2="-28.583" x2="37.286" style="fill:none;stroke:#000000;stroke-width:0.3;" x1="17.619" y1="-28.583"/>
  <line y2="-28.583" x2="12.584" style="fill:none;stroke:#000000;stroke-width:0.3;" x1="0.286" y1="-28.583"/>
  <line y2="-25.458" x2="0" style="fill:none;stroke:#000000;stroke-width:0.3;" x1="9.119" y1="-25.458"/>
  <line y2="-25.458" x2="14.959" style="fill:none;stroke:#000000;stroke-width:0.3;" x1="29.453" y1="-25.458"/>
  <line y2="-25.458" x2="35.619" style="fill:none;stroke:#000000;stroke-width:0.3;" x1="46.834" y1="-25.458"/>
  <line y2="-22.583" x2="52.453" style="fill:none;stroke:#000000;stroke-width:0.3;" x1="37.625" y1="-22.583"/>
  <line y2="-22.583" x2="32.953" style="fill:none;stroke:#000000;stroke-width:0.3;" x1="19.625" y1="-22.583"/>
  <line y2="-22.583" x2="2.619" style="fill:none;stroke:#000000;stroke-width:0.3;" x1="14.119" y1="-22.583"/>
  <line y2="-19.458" x2="6.953" style="fill:none;stroke:#000000;stroke-width:0.3;" x1="0" y1="-19.458"/>
  <line y2="-19.458" x2="11.5" style="fill:none;stroke:#000000;stroke-width:0.3;" x1="24.119" y1="-19.458"/>
  <line y2="-19.458" x2="44.786" style="fill:none;stroke:#000000;stroke-width:0.3;" x1="29.5" y1="-19.458"/>
  <line y2="-16.458" x2="39.75" style="fill:none;stroke:#000000;stroke-width:0.3;" x1="52.453" y1="-16.458"/>
  <line y2="-16.458" x2="21.75" style="fill:none;stroke:#000000;stroke-width:0.3;" x1="34.953" y1="-16.458"/>
  <line y2="-16.458" x2="2.119" style="fill:none;stroke:#000000;stroke-width:0.3;" x1="17.619" y1="-16.458"/>
  <line y2="-13.458" x2="0" style="fill:none;stroke:#000000;stroke-width:0.3;" x1="9.786" y1="-13.458"/>
  <line y2="-13.458" x2="29.453" style="fill:none;stroke:#000000;stroke-width:0.3;" x1="15.536" y1="-13.458"/>
  <line y2="-13.458" x2="46.953" style="fill:none;stroke:#000000;stroke-width:0.3;" x1="33.411" y1="-13.458"/>
  <line y2="-10.583" x2="51.119" style="fill:none;stroke:#000000;stroke-width:0.3;" x1="40.334" y1="-10.583"/>
  <line y2="-10.583" x2="23.661" style="fill:none;stroke:#000000;stroke-width:0.3;" x1="36.953" y1="-10.583"/>
  <line y2="-10.583" x2="3.619" style="fill:none;stroke:#000000;stroke-width:0.3;" x1="19.036" y1="-10.583"/>
  <line y2="-7.333" x2="0" style="fill:none;stroke:#000000;stroke-width:0.3;" x1="6.459" y1="-7.333"/>
  <line y2="-7.333" x2="12.786" style="fill:none;stroke:#000000;stroke-width:0.3;" x1="25.786" y1="-7.333"/>
  <line y2="-7.333" x2="30.453" style="fill:none;stroke:#000000;stroke-width:0.3;" x1="46.953" y1="-7.333"/>
  <line y2="-4.458" x2="50.709" style="fill:none;stroke:#000000;stroke-width:0.3;" x1="41.625" y1="-4.458"/>
  <line y2="-4.458" x2="36.953" style="fill:none;stroke:#000000;stroke-width:0.3;" x1="23.875" y1="-4.458"/>
  <line y2="-4.458" x2="1.953" style="fill:none;stroke:#000000;stroke-width:0.3;" x1="18.119" y1="-4.458"/>
  <line y2="-1.333" x2="10.953" style="fill:none;stroke:#000000;stroke-width:0.3;" x1="0" y1="-1.333"/>
  <line y2="-1.333" x2="16.125" style="fill:none;stroke:#000000;stroke-width:0.3;" x1="25.209" y1="-1.333"/>
  <line y2="-1.333" x2="31.625" style="fill:none;stroke:#000000;stroke-width:0.3;" x1="45.453" y1="-1.333"/>
  <line y2="-49.583" x2="54.125" style="fill:none;stroke:#000000;stroke-width:0.3;" x1="51.875" y1="-49.583"/>
  <line y2="-37.583" x2="54.125" style="fill:none;stroke:#000000;stroke-width:0.3;" x1="50.125" y1="-37.583"/>
  <line y2="-31.583" x2="54.125" style="fill:none;stroke:#000000;stroke-width:0.3;" x1="50" y1="-31.583"/>
  <line y2="-25.458" x2="54.125" style="fill:none;stroke:#000000;stroke-width:0.3;" x1="51.078" y1="-25.458"/>
  <line y2="-19.458" x2="54.125" style="fill:none;stroke:#000000;stroke-width:0.3;" x1="47.625" y1="-19.458"/>
  <line y2="-13.458" x2="54.125" style="fill:none;stroke:#000000;stroke-width:0.3;" x1="50.125" y1="-13.458"/>
  <line y2="-7.333" x2="54.125" style="fill:none;stroke:#000000;stroke-width:0.3;" x1="51.5" y1="-7.333"/>
  <line y2="-1.333" x2="54.125" style="fill:none;stroke:#000000;stroke-width:0.3;" x1="50.125" y1="-1.333"/>
  <line y2="-46.734" x2="30.453" style="fill:none;stroke:#000000;stroke-width:0.3;" x1="30.453" y1="-49.07"/>
  <line y2="-43.105" x2="29.578" style="fill:none;stroke:#000000;stroke-width:0.3;" x1="29.578" y1="-40.769"/>
  <line y2="-37.117" x2="10.328" style="fill:none;stroke:#000000;stroke-width:0.3;" x1="10.328" y1="-34.78"/>
  <line y2="-28.667" x2="28.078" style="fill:none;stroke:#000000;stroke-width:0.3;" x1="28.078" y1="-31.004"/>
  <line y2="-22.712" x2="48.953" style="fill:none;stroke:#000000;stroke-width:0.3;" x1="48.953" y1="-25.049"/>
  <line y2="-18.834" x2="9.078" style="fill:none;stroke:#000000;stroke-width:0.3;" x1="9.078" y1="-16.497"/>
  <line y2="-46.679" x2="49.828" style="fill:none;stroke:#000000;stroke-width:0.3;" x1="49.828" y1="-49.016"/>
  <line y2="-25.542" x2="39.953" style="fill:none;stroke:#000000;stroke-width:0.3;" x1="39.953" y1="-27.879"/>
  <line y2="-19.622" x2="17.953" style="fill:none;stroke:#000000;stroke-width:0.3;" x1="17.953" y1="-21.959"/>
  <line y2="-13.497" x2="37.078" style="fill:none;stroke:#000000;stroke-width:0.3;" x1="37.078" y1="-15.834"/>
  <line y2="-12.981" x2="11.703" style="fill:none;stroke:#000000;stroke-width:0.3;" x1="11.703" y1="-10.644"/>
  <line y2="-9.731" x2="22.078" style="fill:none;stroke:#000000;stroke-width:0.3;" x1="22.078" y1="-7.394"/>
  <line y2="-1.52" x2="39.578" style="fill:none;stroke:#000000;stroke-width:0.3;" x1="39.578" y1="-3.856"/>
  <line y2="-31.667" x2="39.453" style="fill:none;stroke:#000000;stroke-width:0.3;" x1="39.453" y1="-34.004"/>
  <line y2="-31.667" x2="53.453" style="fill:none;stroke:#000000;stroke-width:0.3;" x1="53.453" y1="-34.004"/>
  <line y2="-9.792" x2="0.619" style="fill:none;stroke:#000000;stroke-width:0.3;" x1="0.619" y1="-7.455"/>
  <line y2="-40.735" x2="4.328" style="fill:none;stroke:#000000;stroke-width:0.3;" x1="4.328" y1="-43.072"/>
 </g>
</svg>
