<?xml version="1.0"?>
<!-- Converted with SVG Converter - Version 0.9.5 (Compiled Fri Feb 21 09:53:38 2020) - Copyright (C) 2011 Nokia -->
<svg xmlns="http://www.w3.org/2000/svg" width="54.125" x="0px" baseProfile="tiny" xmlns:xlink="http://www.w3.org/1999/xlink" y="0px" viewBox="1.6 -55.725 54.125 54.125" height="54.125" xml:space="preserve" version="1.1">
 <g>
  <rect width="54.125" x="1.6" y="-55.725" style="fill:none;" height="54.125"/>
  <line y1="-51.975" x2="55.725" x1="1.6" style="fill:none;stroke:#000000;stroke-width:0.3;" y2="-51.975"/>
  <line y1="-47.8" x2="55.725" x1="1.6" style="fill:none;stroke:#000000;stroke-width:0.3;" y2="-47.8"/>
  <line y1="-43.612" x2="55.725" x1="1.6" style="fill:none;stroke:#000000;stroke-width:0.3;" y2="-43.612"/>
  <line y1="-14" x2="55.787" x1="1.6" style="fill:none;stroke:#000000;stroke-width:0.3;" y2="-14"/>
  <line y1="-10.225" x2="55.725" x1="1.6" style="fill:none;stroke:#000000;stroke-width:0.3;" y2="-10.225"/>
  <line y1="-39.594" x2="55.725" x1="1.6" style="fill:none;stroke:#000000;stroke-width:0.3;" y2="-39.594"/>
  <line y1="-36.312" x2="55.725" x1="1.6" style="fill:none;stroke:#000000;stroke-width:0.3;" y2="-36.312"/>
  <line y1="-32.887" x2="55.725" x1="1.6" style="fill:none;stroke:#000000;stroke-width:0.3;" y2="-32.887"/>
  <line y1="-28.837" x2="55.725" x1="1.6" style="fill:none;stroke:#000000;stroke-width:0.3;" y2="-28.837"/>
  <line y1="-25.037" x2="55.725" x1="1.6" style="fill:none;stroke:#000000;stroke-width:0.3;" y2="-25.037"/>
  <line y1="-20.837" x2="55.787" x1="1.6" style="fill:none;stroke:#000000;stroke-width:0.3;" y2="-20.837"/>
  <line y1="-17.612" x2="55.725" x1="1.6" style="fill:none;stroke:#000000;stroke-width:0.3;" y2="-17.612"/>
  <line y1="-2.437" x2="55.725" x1="1.6" style="fill:none;stroke:#000000;stroke-width:0.3;" y2="-2.437"/>
  <line y1="-55.725" x2="7.525" x1="7.525" style="fill:none;stroke:#000000;stroke-width:0.3;" y2="-51.975"/>
  <line y1="-55.725" x2="20.275" x1="20.275" style="fill:none;stroke:#000000;stroke-width:0.3;" y2="-51.975"/>
  <line y1="-55.725" x2="33.775" x1="33.775" style="fill:none;stroke:#000000;stroke-width:0.3;" y2="-51.975"/>
  <line y1="-55.725" x2="48.15" x1="48.15" style="fill:none;stroke:#000000;stroke-width:0.3;" y2="-51.975"/>
  <line y1="-2.45" x2="7.525" x1="7.525" style="fill:none;stroke:#000000;stroke-width:0.3;" y2="-1.6"/>
  <line y1="-2.45" x2="20.275" x1="20.275" style="fill:none;stroke:#000000;stroke-width:0.3;" y2="-1.6"/>
  <line y1="-2.45" x2="33.775" x1="33.775" style="fill:none;stroke:#000000;stroke-width:0.3;" y2="-1.6"/>
  <line y1="-2.45" x2="48.15" x1="48.15" style="fill:none;stroke:#000000;stroke-width:0.3;" y2="-1.6"/>
  <line y1="-52.037" x2="14.2" x1="14.2" style="fill:none;stroke:#000000;stroke-width:0.3;" y2="-47.812"/>
  <line y1="-52.037" x2="29.075" x1="29.075" style="fill:none;stroke:#000000;stroke-width:0.3;" y2="-47.812"/>
  <line y1="-52.037" x2="42.7" x1="42.7" style="fill:none;stroke:#000000;stroke-width:0.3;" y2="-47.812"/>
  <line y1="-52.037" x2="55.525" x1="55.525" style="fill:none;stroke:#000000;stroke-width:0.3;" y2="-47.812"/>
  <line y1="-47.675" x2="8.637" x1="8.637" style="fill:none;stroke:#000000;stroke-width:0.3;" y2="-43.625"/>
  <line y1="-47.675" x2="21.888" x1="21.888" style="fill:none;stroke:#000000;stroke-width:0.3;" y2="-43.625"/>
  <line y1="-47.675" x2="35.45" x1="35.45" style="fill:none;stroke:#000000;stroke-width:0.3;" y2="-43.625"/>
  <line y1="-47.675" x2="50.388" x1="50.388" style="fill:none;stroke:#000000;stroke-width:0.3;" y2="-43.625"/>
  <line y1="-43.625" x2="41.763" x1="41.763" style="fill:none;stroke:#000000;stroke-width:0.3;" y2="-39.625"/>
  <line y1="-43.625" x2="28.388" x1="28.388" style="fill:none;stroke:#000000;stroke-width:0.3;" y2="-39.625"/>
  <line y1="-43.625" x2="13.512" x1="13.512" style="fill:none;stroke:#000000;stroke-width:0.3;" y2="-39.625"/>
  <line y1="-43.625" x2="55.013" x1="55.013" style="fill:none;stroke:#000000;stroke-width:0.3;" y2="-39.625"/>
  <line y1="-39.625" x2="48.15" x1="48.15" style="fill:none;stroke:#000000;stroke-width:0.3;" y2="-36.325"/>
  <line y1="-39.625" x2="33.525" x1="33.525" style="fill:none;stroke:#000000;stroke-width:0.3;" y2="-36.325"/>
  <line y1="-39.625" x2="20.275" x1="20.275" style="fill:none;stroke:#000000;stroke-width:0.3;" y2="-36.325"/>
  <line y1="-39.625" x2="7.525" x1="7.525" style="fill:none;stroke:#000000;stroke-width:0.3;" y2="-36.325"/>
  <line y1="-36.325" x2="14.075" x1="14.075" style="fill:none;stroke:#000000;stroke-width:0.3;" y2="-32.9"/>
  <line y1="-36.325" x2="29.075" x1="29.075" style="fill:none;stroke:#000000;stroke-width:0.3;" y2="-32.9"/>
  <line y1="-36.325" x2="42.825" x1="42.825" style="fill:none;stroke:#000000;stroke-width:0.3;" y2="-32.9"/>
  <line y1="-36.325" x2="55.575" x1="55.575" style="fill:none;stroke:#000000;stroke-width:0.3;" y2="-32.9"/>
  <line y1="-32.9" x2="8.262" x1="8.262" style="fill:none;stroke:#000000;stroke-width:0.3;" y2="-28.85"/>
  <line y1="-32.9" x2="21.763" x1="21.763" style="fill:none;stroke:#000000;stroke-width:0.3;" y2="-28.85"/>
  <line y1="-32.9" x2="35.388" x1="35.388" style="fill:none;stroke:#000000;stroke-width:0.3;" y2="-28.85"/>
  <line y1="-32.9" x2="50.263" x1="50.263" style="fill:none;stroke:#000000;stroke-width:0.3;" y2="-28.85"/>
  <line y1="-28.787" x2="41.638" x1="41.638" style="fill:none;stroke:#000000;stroke-width:0.3;" y2="-25.05"/>
  <line y1="-28.787" x2="28.313" x1="28.313" style="fill:none;stroke:#000000;stroke-width:0.3;" y2="-25.05"/>
  <line y1="-28.787" x2="13.313" x1="13.313" style="fill:none;stroke:#000000;stroke-width:0.3;" y2="-25.05"/>
  <line y1="-28.787" x2="54.867" x1="54.867" style="fill:none;stroke:#000000;stroke-width:0.3;" y2="-25.05"/>
  <line y1="-24.987" x2="7.125" x1="7.125" style="fill:none;stroke:#000000;stroke-width:0.3;" y2="-20.85"/>
  <line y1="-24.987" x2="20.125" x1="20.125" style="fill:none;stroke:#000000;stroke-width:0.3;" y2="-20.85"/>
  <line y1="-24.987" x2="33.75" x1="33.75" style="fill:none;stroke:#000000;stroke-width:0.3;" y2="-20.85"/>
  <line y1="-24.987" x2="48" x1="48" style="fill:none;stroke:#000000;stroke-width:0.3;" y2="-20.85"/>
  <line y1="-20.787" x2="43.8" x1="43.8" style="fill:none;stroke:#000000;stroke-width:0.3;" y2="-17.625"/>
  <line y1="-20.787" x2="29.65" x1="29.65" style="fill:none;stroke:#000000;stroke-width:0.3;" y2="-17.625"/>
  <line y1="-20.787" x2="14.525" x1="14.525" style="fill:none;stroke:#000000;stroke-width:0.3;" y2="-17.625"/>
  <line y1="-20.787" x2="2.108" x1="2.108" style="fill:none;stroke:#000000;stroke-width:0.3;" y2="-17.625"/>
  <line y1="-17.562" x2="8.483" x1="8.483" style="fill:none;stroke:#000000;stroke-width:0.3;" y2="-14"/>
  <line y1="-17.562" x2="21.733" x1="21.733" style="fill:none;stroke:#000000;stroke-width:0.3;" y2="-14"/>
  <line y1="-17.562" x2="35.358" x1="35.358" style="fill:none;stroke:#000000;stroke-width:0.3;" y2="-14"/>
  <line y1="-17.562" x2="50.233" x1="50.233" style="fill:none;stroke:#000000;stroke-width:0.3;" y2="-14"/>
  <line y1="-13.95" x2="41.883" x1="41.883" style="fill:none;stroke:#000000;stroke-width:0.3;" y2="-10.187"/>
  <line y1="-13.95" x2="28.008" x1="28.008" style="fill:none;stroke:#000000;stroke-width:0.3;" y2="-10.187"/>
  <line y1="-13.95" x2="13.458" x1="13.458" style="fill:none;stroke:#000000;stroke-width:0.3;" y2="-10.187"/>
  <line y1="-13.95" x2="55.333" x1="55.333" style="fill:none;stroke:#000000;stroke-width:0.3;" y2="-10.187"/>
  <line y1="-5.812" x2="55.725" x1="1.6" style="fill:none;stroke:#000000;stroke-width:0.3;" y2="-5.812"/>
  <line y1="-5.838" x2="11.896" x1="11.896" style="fill:none;stroke:#000000;stroke-width:0.3;" y2="-2.375"/>
  <line y1="-5.838" x2="26.333" x1="26.333" style="fill:none;stroke:#000000;stroke-width:0.3;" y2="-2.375"/>
  <line y1="-5.838" x2="39.958" x1="39.958" style="fill:none;stroke:#000000;stroke-width:0.3;" y2="-2.375"/>
  <line y1="-5.838" x2="53.333" x1="53.333" style="fill:none;stroke:#000000;stroke-width:0.3;" y2="-2.375"/>
  <line y1="-10.187" x2="6.171" x1="6.171" style="fill:none;stroke:#000000;stroke-width:0.3;" y2="-5.838"/>
  <line y1="-10.187" x2="19.171" x1="19.171" style="fill:none;stroke:#000000;stroke-width:0.3;" y2="-5.838"/>
  <line y1="-10.187" x2="33.171" x1="33.171" style="fill:none;stroke:#000000;stroke-width:0.3;" y2="-5.838"/>
  <line y1="-10.187" x2="47.733" x1="47.733" style="fill:none;stroke:#000000;stroke-width:0.3;" y2="-5.838"/>
 </g>
</svg>
