<?xml version="1.0"?>
<!-- Converted with SVG Converter - Version 0.9.5 (Compiled Fri Feb 21 09:53:38 2020) - Copyright (C) 2011 Nokia -->
<svg xmlns="http://www.w3.org/2000/svg" xmlns:xlink="http://www.w3.org/1999/xlink" width="54.125" viewBox="2.2 -55.725 54.125 54.125" xml:space="preserve" version="1.1" x="0px" baseProfile="tiny" y="0px" height="54.125">
 <g>
  <rect width="54.125" x="2.2" y="-55.725" style="fill:none;" height="54.125"/>
  <line y1="-51.975" x1="2.2" style="fill:none;stroke:#000000;stroke-width:0.3;" x2="56.325" y2="-51.975"/>
  <line y1="-47.8" x1="2.2" style="fill:none;stroke:#000000;stroke-width:0.3;" x2="56.325" y2="-47.8"/>
  <line y1="-43.612" x1="2.2" style="fill:none;stroke:#000000;stroke-width:0.3;" x2="56.325" y2="-43.612"/>
  <line y1="-14" x1="2.2" style="fill:none;stroke:#000000;stroke-width:0.3;" x2="56.388" y2="-14"/>
  <line y1="-10.225" x1="2.2" style="fill:none;stroke:#000000;stroke-width:0.3;" x2="56.325" y2="-10.225"/>
  <line y1="-39.594" x1="2.2" style="fill:none;stroke:#000000;stroke-width:0.3;" x2="56.325" y2="-39.594"/>
  <line y1="-36.312" x1="2.2" style="fill:none;stroke:#000000;stroke-width:0.3;" x2="56.325" y2="-36.312"/>
  <line y1="-32.887" x1="2.2" style="fill:none;stroke:#000000;stroke-width:0.3;" x2="56.325" y2="-32.887"/>
  <line y1="-28.837" x1="2.2" style="fill:none;stroke:#000000;stroke-width:0.3;" x2="56.325" y2="-28.837"/>
  <line y1="-25.037" x1="2.2" style="fill:none;stroke:#000000;stroke-width:0.3;" x2="56.325" y2="-25.037"/>
  <line y1="-20.837" x1="2.2" style="fill:none;stroke:#000000;stroke-width:0.3;" x2="56.388" y2="-20.837"/>
  <line y1="-17.612" x1="2.2" style="fill:none;stroke:#000000;stroke-width:0.3;" x2="56.325" y2="-17.612"/>
  <line y1="-2.437" x1="2.2" style="fill:none;stroke:#000000;stroke-width:0.3;" x2="56.325" y2="-2.437"/>
  <line y1="-55.725" x1="8.125" style="fill:none;stroke:#000000;stroke-width:0.3;" x2="8.125" y2="-51.975"/>
  <line y1="-55.725" x1="20.875" style="fill:none;stroke:#000000;stroke-width:0.3;" x2="20.875" y2="-51.975"/>
  <line y1="-55.725" x1="34.375" style="fill:none;stroke:#000000;stroke-width:0.3;" x2="34.375" y2="-51.975"/>
  <line y1="-55.725" x1="48.75" style="fill:none;stroke:#000000;stroke-width:0.3;" x2="48.75" y2="-51.975"/>
  <line y1="-2.45" x1="8.125" style="fill:none;stroke:#000000;stroke-width:0.3;" x2="8.125" y2="-1.6"/>
  <line y1="-2.45" x1="20.875" style="fill:none;stroke:#000000;stroke-width:0.3;" x2="20.875" y2="-1.6"/>
  <line y1="-2.45" x1="34.375" style="fill:none;stroke:#000000;stroke-width:0.3;" x2="34.375" y2="-1.6"/>
  <line y1="-2.45" x1="48.75" style="fill:none;stroke:#000000;stroke-width:0.3;" x2="48.75" y2="-1.6"/>
  <line y1="-52.037" x1="14.8" style="fill:none;stroke:#000000;stroke-width:0.3;" x2="14.8" y2="-47.812"/>
  <line y1="-52.037" x1="29.675" style="fill:none;stroke:#000000;stroke-width:0.3;" x2="29.675" y2="-47.812"/>
  <line y1="-52.037" x1="43.3" style="fill:none;stroke:#000000;stroke-width:0.3;" x2="43.3" y2="-47.812"/>
  <line y1="-52.037" x1="56.125" style="fill:none;stroke:#000000;stroke-width:0.3;" x2="56.125" y2="-47.812"/>
  <line y1="-47.675" x1="9.238" style="fill:none;stroke:#000000;stroke-width:0.3;" x2="9.238" y2="-43.625"/>
  <line y1="-47.675" x1="22.487" style="fill:none;stroke:#000000;stroke-width:0.3;" x2="22.487" y2="-43.625"/>
  <line y1="-47.675" x1="36.05" style="fill:none;stroke:#000000;stroke-width:0.3;" x2="36.05" y2="-43.625"/>
  <line y1="-47.675" x1="50.987" style="fill:none;stroke:#000000;stroke-width:0.3;" x2="50.987" y2="-43.625"/>
  <line y1="-43.625" x1="42.362" style="fill:none;stroke:#000000;stroke-width:0.3;" x2="42.362" y2="-39.625"/>
  <line y1="-43.625" x1="28.987" style="fill:none;stroke:#000000;stroke-width:0.3;" x2="28.987" y2="-39.625"/>
  <line y1="-43.625" x1="14.113" style="fill:none;stroke:#000000;stroke-width:0.3;" x2="14.113" y2="-39.625"/>
  <line y1="-43.625" x1="55.612" style="fill:none;stroke:#000000;stroke-width:0.3;" x2="55.612" y2="-39.625"/>
  <line y1="-39.625" x1="48.75" style="fill:none;stroke:#000000;stroke-width:0.3;" x2="48.75" y2="-36.325"/>
  <line y1="-39.625" x1="34.125" style="fill:none;stroke:#000000;stroke-width:0.3;" x2="34.125" y2="-36.325"/>
  <line y1="-39.625" x1="20.875" style="fill:none;stroke:#000000;stroke-width:0.3;" x2="20.875" y2="-36.325"/>
  <line y1="-39.625" x1="8.125" style="fill:none;stroke:#000000;stroke-width:0.3;" x2="8.125" y2="-36.325"/>
  <line y1="-36.325" x1="14.675" style="fill:none;stroke:#000000;stroke-width:0.3;" x2="14.675" y2="-32.9"/>
  <line y1="-36.325" x1="29.675" style="fill:none;stroke:#000000;stroke-width:0.3;" x2="29.675" y2="-32.9"/>
  <line y1="-36.325" x1="43.425" style="fill:none;stroke:#000000;stroke-width:0.3;" x2="43.425" y2="-32.9"/>
  <line y1="-36.325" x1="56.175" style="fill:none;stroke:#000000;stroke-width:0.3;" x2="56.175" y2="-32.9"/>
  <line y1="-32.9" x1="8.863" style="fill:none;stroke:#000000;stroke-width:0.3;" x2="8.863" y2="-28.85"/>
  <line y1="-32.9" x1="22.362" style="fill:none;stroke:#000000;stroke-width:0.3;" x2="22.362" y2="-28.85"/>
  <line y1="-32.9" x1="35.987" style="fill:none;stroke:#000000;stroke-width:0.3;" x2="35.987" y2="-28.85"/>
  <line y1="-32.9" x1="50.862" style="fill:none;stroke:#000000;stroke-width:0.3;" x2="50.862" y2="-28.85"/>
  <line y1="-28.787" x1="42.237" style="fill:none;stroke:#000000;stroke-width:0.3;" x2="42.237" y2="-25.05"/>
  <line y1="-28.787" x1="28.913" style="fill:none;stroke:#000000;stroke-width:0.3;" x2="28.913" y2="-25.05"/>
  <line y1="-28.787" x1="13.913" style="fill:none;stroke:#000000;stroke-width:0.3;" x2="13.913" y2="-25.05"/>
  <line y1="-28.787" x1="55.467" style="fill:none;stroke:#000000;stroke-width:0.3;" x2="55.467" y2="-25.05"/>
  <line y1="-24.987" x1="7.725" style="fill:none;stroke:#000000;stroke-width:0.3;" x2="7.725" y2="-20.85"/>
  <line y1="-24.987" x1="20.725" style="fill:none;stroke:#000000;stroke-width:0.3;" x2="20.725" y2="-20.85"/>
  <line y1="-24.987" x1="34.35" style="fill:none;stroke:#000000;stroke-width:0.3;" x2="34.35" y2="-20.85"/>
  <line y1="-24.987" x1="48.6" style="fill:none;stroke:#000000;stroke-width:0.3;" x2="48.6" y2="-20.85"/>
  <line y1="-20.787" x1="44.4" style="fill:none;stroke:#000000;stroke-width:0.3;" x2="44.4" y2="-17.625"/>
  <line y1="-20.787" x1="30.25" style="fill:none;stroke:#000000;stroke-width:0.3;" x2="30.25" y2="-17.625"/>
  <line y1="-20.787" x1="15.125" style="fill:none;stroke:#000000;stroke-width:0.3;" x2="15.125" y2="-17.625"/>
  <line y1="-20.787" x1="2.708" style="fill:none;stroke:#000000;stroke-width:0.3;" x2="2.708" y2="-17.625"/>
  <line y1="-17.562" x1="9.083" style="fill:none;stroke:#000000;stroke-width:0.3;" x2="9.083" y2="-14"/>
  <line y1="-17.562" x1="22.333" style="fill:none;stroke:#000000;stroke-width:0.3;" x2="22.333" y2="-14"/>
  <line y1="-17.562" x1="35.958" style="fill:none;stroke:#000000;stroke-width:0.3;" x2="35.958" y2="-14"/>
  <line y1="-17.562" x1="50.833" style="fill:none;stroke:#000000;stroke-width:0.3;" x2="50.833" y2="-14"/>
  <line y1="-13.95" x1="42.483" style="fill:none;stroke:#000000;stroke-width:0.3;" x2="42.483" y2="-10.187"/>
  <line y1="-13.95" x1="28.608" style="fill:none;stroke:#000000;stroke-width:0.3;" x2="28.608" y2="-10.187"/>
  <line y1="-13.95" x1="14.058" style="fill:none;stroke:#000000;stroke-width:0.3;" x2="14.058" y2="-10.187"/>
  <line y1="-13.95" x1="55.933" style="fill:none;stroke:#000000;stroke-width:0.3;" x2="55.933" y2="-10.187"/>
  <line y1="-5.812" x1="2.2" style="fill:none;stroke:#000000;stroke-width:0.3;" x2="56.325" y2="-5.812"/>
  <line y1="-5.838" x1="12.496" style="fill:none;stroke:#000000;stroke-width:0.3;" x2="12.496" y2="-2.375"/>
  <line y1="-5.838" x1="26.933" style="fill:none;stroke:#000000;stroke-width:0.3;" x2="26.933" y2="-2.375"/>
  <line y1="-5.838" x1="40.558" style="fill:none;stroke:#000000;stroke-width:0.3;" x2="40.558" y2="-2.375"/>
  <line y1="-5.838" x1="53.933" style="fill:none;stroke:#000000;stroke-width:0.3;" x2="53.933" y2="-2.375"/>
  <line y1="-10.187" x1="6.771" style="fill:none;stroke:#000000;stroke-width:0.3;" x2="6.771" y2="-5.838"/>
  <line y1="-10.187" x1="19.771" style="fill:none;stroke:#000000;stroke-width:0.3;" x2="19.771" y2="-5.838"/>
  <line y1="-10.187" x1="33.771" style="fill:none;stroke:#000000;stroke-width:0.3;" x2="33.771" y2="-5.838"/>
  <line y1="-10.187" x1="48.333" style="fill:none;stroke:#000000;stroke-width:0.3;" x2="48.333" y2="-5.838"/>
  <line y1="-46.437" x1="13.262" style="fill:none;stroke:#000000;stroke-width:0.3;" x2="11.387" y2="-44.812"/>
  <line y1="-44.75" x1="16.575" style="fill:none;stroke:#000000;stroke-width:0.3;" x2="15.45" y2="-46.5"/>
  <line y1="-46.312" x1="21.138" style="fill:none;stroke:#000000;stroke-width:0.3;" x2="18.763" y2="-44.812"/>
  <line y1="-46.437" x1="40.45" style="fill:none;stroke:#000000;stroke-width:0.3;" x2="38.575" y2="-44.812"/>
  <line y1="-44.75" x1="43.763" style="fill:none;stroke:#000000;stroke-width:0.3;" x2="42.638" y2="-46.5"/>
  <line y1="-46.312" x1="48.825" style="fill:none;stroke:#000000;stroke-width:0.3;" x2="46.45" y2="-44.812"/>
  <line y1="-42.312" x1="46.075" style="fill:none;stroke:#000000;stroke-width:0.3;" x2="44.2" y2="-40.687"/>
  <line y1="-40.625" x1="49.388" style="fill:none;stroke:#000000;stroke-width:0.3;" x2="48.263" y2="-42.375"/>
  <line y1="-42.187" x1="53.95" style="fill:none;stroke:#000000;stroke-width:0.3;" x2="51.575" y2="-40.687"/>
  <line y1="-42.437" x1="18.7" style="fill:none;stroke:#000000;stroke-width:0.3;" x2="16.825" y2="-40.812"/>
  <line y1="-40.75" x1="22.013" style="fill:none;stroke:#000000;stroke-width:0.3;" x2="20.888" y2="-42.5"/>
  <line y1="-42.312" x1="26.575" style="fill:none;stroke:#000000;stroke-width:0.3;" x2="24.2" y2="-40.812"/>
  <line y1="-38.812" x1="24.575" style="fill:none;stroke:#000000;stroke-width:0.3;" x2="22.7" y2="-37.187"/>
  <line y1="-37.125" x1="27.888" style="fill:none;stroke:#000000;stroke-width:0.3;" x2="26.763" y2="-38.875"/>
  <line y1="-38.687" x1="32.45" style="fill:none;stroke:#000000;stroke-width:0.3;" x2="30.075" y2="-37.187"/>
  <line y1="-8.75" x1="10.387" style="fill:none;stroke:#000000;stroke-width:0.3;" x2="8.512" y2="-7.125"/>
  <line y1="-7.062" x1="13.7" style="fill:none;stroke:#000000;stroke-width:0.3;" x2="12.575" y2="-8.812"/>
  <line y1="-8.625" x1="18.263" style="fill:none;stroke:#000000;stroke-width:0.3;" x2="15.887" y2="-7.125"/>
  <line y1="-4.812" x1="16.825" style="fill:none;stroke:#000000;stroke-width:0.3;" x2="14.95" y2="-3.187"/>
  <line y1="-3.125" x1="20.138" style="fill:none;stroke:#000000;stroke-width:0.3;" x2="19.013" y2="-4.875"/>
  <line y1="-4.687" x1="24.7" style="fill:none;stroke:#000000;stroke-width:0.3;" x2="22.325" y2="-3.187"/>
  <line y1="-5" x1="44.075" style="fill:none;stroke:#000000;stroke-width:0.3;" x2="42.2" y2="-3.375"/>
  <line y1="-3.312" x1="47.388" style="fill:none;stroke:#000000;stroke-width:0.3;" x2="46.263" y2="-5.062"/>
  <line y1="-4.875" x1="51.95" style="fill:none;stroke:#000000;stroke-width:0.3;" x2="49.575" y2="-3.375"/>
  <line y1="-8.625" x1="38.2" style="fill:none;stroke:#000000;stroke-width:0.3;" x2="36.325" y2="-7"/>
  <line y1="-6.937" x1="41.513" style="fill:none;stroke:#000000;stroke-width:0.3;" x2="40.388" y2="-8.687"/>
  <line y1="-8.5" x1="46.075" style="fill:none;stroke:#000000;stroke-width:0.3;" x2="43.7" y2="-7"/>
  <line y1="-12.875" x1="32.825" style="fill:none;stroke:#000000;stroke-width:0.3;" x2="30.95" y2="-11.25"/>
  <line y1="-11.187" x1="36.138" style="fill:none;stroke:#000000;stroke-width:0.3;" x2="35.013" y2="-12.937"/>
  <line y1="-12.75" x1="40.7" style="fill:none;stroke:#000000;stroke-width:0.3;" x2="38.325" y2="-11.25"/>
  <line y1="-13" x1="5.075" style="fill:none;stroke:#000000;stroke-width:0.3;" x2="3.2" y2="-11.375"/>
  <line y1="-11.312" x1="7.887" style="fill:none;stroke:#000000;stroke-width:0.3;" x2="6.762" y2="-13.062"/>
  <line y1="-12.875" x1="12.45" style="fill:none;stroke:#000000;stroke-width:0.3;" x2="10.075" y2="-11.375"/>
  <line y1="-16.437" x1="12.887" style="fill:none;stroke:#000000;stroke-width:0.3;" x2="11.012" y2="-14.812"/>
  <line y1="-14.75" x1="16.2" style="fill:none;stroke:#000000;stroke-width:0.3;" x2="15.075" y2="-16.5"/>
  <line y1="-16.312" x1="20.763" style="fill:none;stroke:#000000;stroke-width:0.3;" x2="18.388" y2="-14.812"/>
  <line y1="-16.625" x1="40.263" style="fill:none;stroke:#000000;stroke-width:0.3;" x2="38.388" y2="-15"/>
  <line y1="-14.937" x1="43.575" style="fill:none;stroke:#000000;stroke-width:0.3;" x2="42.45" y2="-16.687"/>
  <line y1="-16.5" x1="48.138" style="fill:none;stroke:#000000;stroke-width:0.3;" x2="45.763" y2="-15"/>
  <line y1="-20.062" x1="48.075" style="fill:none;stroke:#000000;stroke-width:0.3;" x2="46.2" y2="-18.437"/>
  <line y1="-18.375" x1="51.037" style="fill:none;stroke:#000000;stroke-width:0.3;" x2="49.912" y2="-20.125"/>
  <line y1="-19.937" x1="55" style="fill:none;stroke:#000000;stroke-width:0.3;" x2="52.625" y2="-18.437"/>
  <line y1="-19.937" x1="19.95" style="fill:none;stroke:#000000;stroke-width:0.3;" x2="18.075" y2="-18.312"/>
  <line y1="-18.25" x1="23.263" style="fill:none;stroke:#000000;stroke-width:0.3;" x2="22.138" y2="-20"/>
  <line y1="-19.812" x1="27.825" style="fill:none;stroke:#000000;stroke-width:0.3;" x2="25.45" y2="-18.312"/>
  <line y1="-23.687" x1="24.7" style="fill:none;stroke:#000000;stroke-width:0.3;" x2="22.825" y2="-22.062"/>
  <line y1="-22" x1="28.013" style="fill:none;stroke:#000000;stroke-width:0.3;" x2="26.888" y2="-23.75"/>
  <line y1="-23.562" x1="32.575" style="fill:none;stroke:#000000;stroke-width:0.3;" x2="30.2" y2="-22.062"/>
  <line y1="-27.812" x1="32.7" style="fill:none;stroke:#000000;stroke-width:0.3;" x2="30.825" y2="-26.187"/>
  <line y1="-26.125" x1="36.013" style="fill:none;stroke:#000000;stroke-width:0.3;" x2="34.888" y2="-27.875"/>
  <line y1="-27.687" x1="40.575" style="fill:none;stroke:#000000;stroke-width:0.3;" x2="38.2" y2="-26.187"/>
  <line y1="-27.687" x1="4.575" style="fill:none;stroke:#000000;stroke-width:0.3;" x2="2.7" y2="-26.062"/>
  <line y1="-26" x1="7.887" style="fill:none;stroke:#000000;stroke-width:0.3;" x2="6.762" y2="-27.75"/>
  <line y1="-27.562" x1="12.45" style="fill:none;stroke:#000000;stroke-width:0.3;" x2="10.075" y2="-26.062"/>
  <line y1="-31.562" x1="7.45" style="fill:none;stroke:#000000;stroke-width:0.3;" x2="5.95" y2="-29.85"/>
  <line y1="-23.687" x1="5.825" style="fill:none;stroke:#000000;stroke-width:0.3;" x2="3.45" y2="-22.187"/>
  <line y1="-35.312" x1="19.075" style="fill:none;stroke:#000000;stroke-width:0.3;" x2="17.2" y2="-33.687"/>
  <line y1="-33.625" x1="22.388" style="fill:none;stroke:#000000;stroke-width:0.3;" x2="21.263" y2="-35.375"/>
  <line y1="-35.187" x1="26.95" style="fill:none;stroke:#000000;stroke-width:0.3;" x2="24.575" y2="-33.687"/>
  <line y1="-31.687" x1="25.95" style="fill:none;stroke:#000000;stroke-width:0.3;" x2="24.075" y2="-30.062"/>
  <line y1="-30" x1="29.263" style="fill:none;stroke:#000000;stroke-width:0.3;" x2="28.138" y2="-31.75"/>
  <line y1="-31.562" x1="33.825" style="fill:none;stroke:#000000;stroke-width:0.3;" x2="31.45" y2="-30.062"/>
  <line y1="-35.437" x1="46.7" style="fill:none;stroke:#000000;stroke-width:0.3;" x2="44.825" y2="-33.812"/>
  <line y1="-33.75" x1="50.013" style="fill:none;stroke:#000000;stroke-width:0.3;" x2="48.888" y2="-35.5"/>
  <line y1="-35.312" x1="54.575" style="fill:none;stroke:#000000;stroke-width:0.3;" x2="52.2" y2="-33.812"/>
  <line y1="-38.562" x1="5.825" style="fill:none;stroke:#000000;stroke-width:0.3;" x2="3.45" y2="-37.062"/>
  <line y1="-50.687" x1="19.2" style="fill:none;stroke:#000000;stroke-width:0.3;" x2="17.325" y2="-49.062"/>
  <line y1="-49" x1="22.513" style="fill:none;stroke:#000000;stroke-width:0.3;" x2="21.388" y2="-50.75"/>
  <line y1="-50.562" x1="27.075" style="fill:none;stroke:#000000;stroke-width:0.3;" x2="24.7" y2="-49.062"/>
  <line y1="-50.562" x1="46.7" style="fill:none;stroke:#000000;stroke-width:0.3;" x2="44.825" y2="-48.937"/>
  <line y1="-48.875" x1="50.013" style="fill:none;stroke:#000000;stroke-width:0.3;" x2="48.888" y2="-50.625"/>
  <line y1="-50.437" x1="54.575" style="fill:none;stroke:#000000;stroke-width:0.3;" x2="52.2" y2="-48.937"/>
  <line y1="-54.857" x1="24.888" style="fill:none;stroke:#000000;stroke-width:0.3;" x2="23.013" y2="-53.232"/>
  <line y1="-53.17" x1="28.2" style="fill:none;stroke:#000000;stroke-width:0.3;" x2="27.075" y2="-54.92"/>
  <line y1="-54.732" x1="32.763" style="fill:none;stroke:#000000;stroke-width:0.3;" x2="30.388" y2="-53.232"/>
  <line y1="-54.795" x1="52.513" style="fill:none;stroke:#000000;stroke-width:0.3;" x2="50.638" y2="-53.17"/>
  <line y1="-53.107" x1="55.825" style="fill:none;stroke:#000000;stroke-width:0.3;" x2="54.7" y2="-54.857"/>
  <line y1="-54.732" x1="6.387" style="fill:none;stroke:#000000;stroke-width:0.3;" x2="4.012" y2="-53.232"/>
  <line y1="-44.687" x1="54.326" style="fill:none;stroke:#000000;stroke-width:0.3;" x2="52.451" y2="-46.312"/>
  <line y1="-46.375" x1="3.639" style="fill:none;stroke:#000000;stroke-width:0.3;" x2="2.514" y2="-44.625"/>
  <line y1="-44.812" x1="7.451" style="fill:none;stroke:#000000;stroke-width:0.3;" x2="5.076" y2="-46.312"/>
  <line y1="-44.687" x1="26.013" style="fill:none;stroke:#000000;stroke-width:0.3;" x2="24.138" y2="-46.312"/>
  <line y1="-46.312" x1="29.763" style="fill:none;stroke:#000000;stroke-width:0.3;" x2="28.638" y2="-44.562"/>
  <line y1="-44.75" x1="34.263" style="fill:none;stroke:#000000;stroke-width:0.3;" x2="31.888" y2="-46.25"/>
  <line y1="-40.75" x1="5.059" style="fill:none;stroke:#000000;stroke-width:0.3;" x2="3.184" y2="-42.375"/>
  <line y1="-42.437" x1="7.871" style="fill:none;stroke:#000000;stroke-width:0.3;" x2="6.746" y2="-40.687"/>
  <line y1="-40.875" x1="12.434" style="fill:none;stroke:#000000;stroke-width:0.3;" x2="10.059" y2="-42.375"/>
  <line y1="-40.75" x1="32.763" style="fill:none;stroke:#000000;stroke-width:0.3;" x2="30.888" y2="-42.375"/>
  <line y1="-42.437" x1="36.075" style="fill:none;stroke:#000000;stroke-width:0.3;" x2="34.95" y2="-40.687"/>
  <line y1="-40.875" x1="40.638" style="fill:none;stroke:#000000;stroke-width:0.3;" x2="38.263" y2="-42.375"/>
  <line y1="-37.062" x1="38.325" style="fill:none;stroke:#000000;stroke-width:0.3;" x2="36.45" y2="-38.687"/>
  <line y1="-38.75" x1="41.638" style="fill:none;stroke:#000000;stroke-width:0.3;" x2="40.513" y2="-37"/>
  <line y1="-37.187" x1="46.2" style="fill:none;stroke:#000000;stroke-width:0.3;" x2="43.825" y2="-38.687"/>
  <line y1="-33.687" x1="33.7" style="fill:none;stroke:#000000;stroke-width:0.3;" x2="31.825" y2="-35.312"/>
  <line y1="-35.375" x1="37.013" style="fill:none;stroke:#000000;stroke-width:0.3;" x2="35.888" y2="-33.625"/>
  <line y1="-33.812" x1="41.575" style="fill:none;stroke:#000000;stroke-width:0.3;" x2="39.2" y2="-35.312"/>
  <line y1="-37" x1="11.45" style="fill:none;stroke:#000000;stroke-width:0.3;" x2="9.575" y2="-38.625"/>
  <line y1="-38.687" x1="14.762" style="fill:none;stroke:#000000;stroke-width:0.3;" x2="13.637" y2="-36.937"/>
  <line y1="-37.125" x1="19.325" style="fill:none;stroke:#000000;stroke-width:0.3;" x2="16.95" y2="-38.625"/>
  <line y1="-33.75" x1="5.662" style="fill:none;stroke:#000000;stroke-width:0.3;" x2="3.787" y2="-35.375"/>
  <line y1="-35.437" x1="8.325" style="fill:none;stroke:#000000;stroke-width:0.3;" x2="7.2" y2="-33.687"/>
  <line y1="-33.875" x1="12.887" style="fill:none;stroke:#000000;stroke-width:0.3;" x2="10.512" y2="-35.375"/>
  <line y1="-29.812" x1="12.45" style="fill:none;stroke:#000000;stroke-width:0.3;" x2="10.575" y2="-31.437"/>
  <line y1="-31.5" x1="15.762" style="fill:none;stroke:#000000;stroke-width:0.3;" x2="14.637" y2="-29.75"/>
  <line y1="-29.937" x1="20.325" style="fill:none;stroke:#000000;stroke-width:0.3;" x2="17.95" y2="-31.437"/>
  <line y1="-26.125" x1="18.2" style="fill:none;stroke:#000000;stroke-width:0.3;" x2="16.325" y2="-27.75"/>
  <line y1="-27.812" x1="21.513" style="fill:none;stroke:#000000;stroke-width:0.3;" x2="20.388" y2="-26.062"/>
  <line y1="-26.25" x1="26.075" style="fill:none;stroke:#000000;stroke-width:0.3;" x2="23.7" y2="-27.75"/>
  <line y1="-22.125" x1="11.075" style="fill:none;stroke:#000000;stroke-width:0.3;" x2="9.2" y2="-23.75"/>
  <line y1="-23.812" x1="14.387" style="fill:none;stroke:#000000;stroke-width:0.3;" x2="13.262" y2="-22.062"/>
  <line y1="-22.25" x1="18.95" style="fill:none;stroke:#000000;stroke-width:0.3;" x2="16.575" y2="-23.75"/>
  <line y1="-18.375" x1="6.4" style="fill:none;stroke:#000000;stroke-width:0.3;" x2="4.525" y2="-20"/>
  <line y1="-20.062" x1="9.58" style="fill:none;stroke:#000000;stroke-width:0.3;" x2="8.455" y2="-18.312"/>
  <line y1="-18.5" x1="13.575" style="fill:none;stroke:#000000;stroke-width:0.3;" x2="11.2" y2="-20"/>
  <line y1="-22" x1="38.45" style="fill:none;stroke:#000000;stroke-width:0.3;" x2="36.575" y2="-23.625"/>
  <line y1="-23.687" x1="41.763" style="fill:none;stroke:#000000;stroke-width:0.3;" x2="40.638" y2="-21.937"/>
  <line y1="-22.125" x1="46.325" style="fill:none;stroke:#000000;stroke-width:0.3;" x2="43.95" y2="-23.625"/>
  <line y1="-26" x1="45.638" style="fill:none;stroke:#000000;stroke-width:0.3;" x2="43.763" y2="-27.625"/>
  <line y1="-27.687" x1="48.95" style="fill:none;stroke:#000000;stroke-width:0.3;" x2="47.825" y2="-25.937"/>
  <line y1="-26.125" x1="53.513" style="fill:none;stroke:#000000;stroke-width:0.3;" x2="51.138" y2="-27.625"/>
  <line y1="-29.812" x1="40.638" style="fill:none;stroke:#000000;stroke-width:0.3;" x2="38.763" y2="-31.437"/>
  <line y1="-31.5" x1="43.95" style="fill:none;stroke:#000000;stroke-width:0.3;" x2="42.825" y2="-29.75"/>
  <line y1="-29.937" x1="48.513" style="fill:none;stroke:#000000;stroke-width:0.3;" x2="46.138" y2="-31.437"/>
  <line y1="-18.312" x1="34.388" style="fill:none;stroke:#000000;stroke-width:0.3;" x2="32.513" y2="-19.937"/>
  <line y1="-20" x1="37.7" style="fill:none;stroke:#000000;stroke-width:0.3;" x2="36.575" y2="-18.25"/>
  <line y1="-18.437" x1="42.263" style="fill:none;stroke:#000000;stroke-width:0.3;" x2="39.888" y2="-19.937"/>
  <line y1="-14.812" x1="25.95" style="fill:none;stroke:#000000;stroke-width:0.3;" x2="24.075" y2="-16.437"/>
  <line y1="-16.5" x1="29.263" style="fill:none;stroke:#000000;stroke-width:0.3;" x2="28.138" y2="-14.75"/>
  <line y1="-14.937" x1="33.825" style="fill:none;stroke:#000000;stroke-width:0.3;" x2="31.45" y2="-16.437"/>
  <line y1="-16.625" x1="3.075" style="fill:none;stroke:#000000;stroke-width:0.3;" x2="1.95" y2="-14.875"/>
  <line y1="-15.062" x1="7.637" style="fill:none;stroke:#000000;stroke-width:0.3;" x2="5.262" y2="-16.562"/>
  <line y1="-11.187" x1="18.013" style="fill:none;stroke:#000000;stroke-width:0.3;" x2="16.138" y2="-12.812"/>
  <line y1="-12.875" x1="21.325" style="fill:none;stroke:#000000;stroke-width:0.3;" x2="20.2" y2="-11.125"/>
  <line y1="-11.312" x1="25.888" style="fill:none;stroke:#000000;stroke-width:0.3;" x2="23.513" y2="-12.812"/>
  <line y1="-11.187" x1="46.263" style="fill:none;stroke:#000000;stroke-width:0.3;" x2="44.388" y2="-12.812"/>
  <line y1="-12.875" x1="49.575" style="fill:none;stroke:#000000;stroke-width:0.3;" x2="48.45" y2="-11.125"/>
  <line y1="-11.312" x1="54.138" style="fill:none;stroke:#000000;stroke-width:0.3;" x2="51.763" y2="-12.812"/>
  <line y1="-7.062" x1="23.575" style="fill:none;stroke:#000000;stroke-width:0.3;" x2="21.7" y2="-8.687"/>
  <line y1="-8.75" x1="26.888" style="fill:none;stroke:#000000;stroke-width:0.3;" x2="25.763" y2="-7"/>
  <line y1="-7.187" x1="31.45" style="fill:none;stroke:#000000;stroke-width:0.3;" x2="29.075" y2="-8.687"/>
  <line y1="-3.125" x1="30.7" style="fill:none;stroke:#000000;stroke-width:0.3;" x2="28.825" y2="-4.75"/>
  <line y1="-4.812" x1="34.013" style="fill:none;stroke:#000000;stroke-width:0.3;" x2="32.888" y2="-3.062"/>
  <line y1="-3.25" x1="38.575" style="fill:none;stroke:#000000;stroke-width:0.3;" x2="36.2" y2="-4.75"/>
  <line y1="-3.187" x1="3.475" style="fill:none;stroke:#000000;stroke-width:0.3;" x2="1.6" y2="-4.812"/>
  <line y1="-4.875" x1="6.787" style="fill:none;stroke:#000000;stroke-width:0.3;" x2="5.662" y2="-3.125"/>
  <line y1="-3.312" x1="11.1" style="fill:none;stroke:#000000;stroke-width:0.3;" x2="8.725" y2="-4.812"/>
  <line y1="-7.25" x1="4.887" style="fill:none;stroke:#000000;stroke-width:0.3;" x2="2.513" y2="-8.75"/>
  <line y1="-52.982" x1="38.45" style="fill:none;stroke:#000000;stroke-width:0.3;" x2="36.575" y2="-54.607"/>
  <line y1="-54.67" x1="41.763" style="fill:none;stroke:#000000;stroke-width:0.3;" x2="40.638" y2="-52.92"/>
  <line y1="-53.107" x1="46.325" style="fill:none;stroke:#000000;stroke-width:0.3;" x2="43.95" y2="-54.607"/>
  <line y1="-53.232" x1="11.512" style="fill:none;stroke:#000000;stroke-width:0.3;" x2="9.637" y2="-54.857"/>
  <line y1="-54.92" x1="14.825" style="fill:none;stroke:#000000;stroke-width:0.3;" x2="13.7" y2="-53.17"/>
  <line y1="-53.357" x1="19.388" style="fill:none;stroke:#000000;stroke-width:0.3;" x2="17.013" y2="-54.857"/>
  <line y1="-48.875" x1="5.562" style="fill:none;stroke:#000000;stroke-width:0.3;" x2="3.688" y2="-50.5"/>
  <line y1="-50.562" x1="8.325" style="fill:none;stroke:#000000;stroke-width:0.3;" x2="7.2" y2="-48.812"/>
  <line y1="-49" x1="12.887" style="fill:none;stroke:#000000;stroke-width:0.3;" x2="10.512" y2="-50.5"/>
  <line y1="-48.937" x1="33.263" style="fill:none;stroke:#000000;stroke-width:0.3;" x2="31.388" y2="-50.562"/>
  <line y1="-50.625" x1="36.575" style="fill:none;stroke:#000000;stroke-width:0.3;" x2="35.45" y2="-48.875"/>
  <line y1="-49.062" x1="41.138" style="fill:none;stroke:#000000;stroke-width:0.3;" x2="38.763" y2="-50.562"/>
  <line y1="-31.562" x1="55.075" style="fill:none;stroke:#000000;stroke-width:0.3;" x2="53.2" y2="-29.937"/>
  <line y1="-29.875" x1="4.012" style="fill:none;stroke:#000000;stroke-width:0.3;" x2="2.888" y2="-31.625"/>
  <line y1="-23.812" x1="52.075" style="fill:none;stroke:#000000;stroke-width:0.3;" x2="50.2" y2="-22.187"/>
  <line y1="-22.125" x1="55.388" style="fill:none;stroke:#000000;stroke-width:0.3;" x2="54.263" y2="-23.875"/>
  <line y1="-38.687" x1="52.075" style="fill:none;stroke:#000000;stroke-width:0.3;" x2="50.2" y2="-37.062"/>
  <line y1="-37" x1="55.388" style="fill:none;stroke:#000000;stroke-width:0.3;" x2="54.263" y2="-38.75"/>
  <line y1="-14.937" x1="53.888" style="fill:none;stroke:#000000;stroke-width:0.3;" x2="52.013" y2="-16.562"/>
  <line y1="-16.625" x1="57.2" style="fill:none;stroke:#000000;stroke-width:0.3;" x2="56.075" y2="-14.875"/>
  <line y1="-3.187" x1="57.6" style="fill:none;stroke:#000000;stroke-width:0.3;" x2="55.725" y2="-4.812"/>
  <line y1="-7.125" x1="51.138" style="fill:none;stroke:#000000;stroke-width:0.3;" x2="49.263" y2="-8.75"/>
  <line y1="-8.812" x1="54.45" style="fill:none;stroke:#000000;stroke-width:0.3;" x2="53.325" y2="-7.062"/>
 </g>
</svg>
