<?xml version="1.0"?>
<!-- Converted with SVG Converter - Version 0.9.5 (Compiled Fri Feb 21 09:53:38 2020) - Copyright (C) 2011 Nokia -->
<svg xmlns="http://www.w3.org/2000/svg" width="54.223" height="54.125" x="0px" xml:space="preserve" viewBox="0 -54.125 54.223 54.125" y="0px" xmlns:xlink="http://www.w3.org/1999/xlink" baseProfile="tiny" version="1.1">
 <g>
  <rect width="54.223" height="54.125" x="0" style="fill:none;" y="-54.125"/>
  <line x2="5.47" style="fill:none;stroke:#000000;stroke-width:0.3;" x1="5.47" y1="-51.927" y2="-48.7"/>
  <line x2="5.47" style="fill:none;stroke:#000000;stroke-width:0.3;" x1="5.47" y1="-51.927" y2="-51.996"/>
  <line x2="14.845" style="fill:none;stroke:#000000;stroke-width:0.3;" x1="14.845" y1="-51.904" y2="-51.963"/>
  <line x2="14.845" style="fill:none;stroke:#000000;stroke-width:0.3;" x1="14.845" y1="-51.904" y2="-48.779"/>
  <line x2="23.595" style="fill:none;stroke:#000000;stroke-width:0.3;" x1="23.595" y1="-48.779" y2="-51.85"/>
  <line x2="32.72" style="fill:none;stroke:#000000;stroke-width:0.3;" x1="32.72" y1="-51.91" y2="-51.975"/>
  <line x2="32.72" style="fill:none;stroke:#000000;stroke-width:0.3;" x1="32.72" y1="-51.91" y2="-48.904"/>
  <line x2="41.845" style="fill:none;stroke:#000000;stroke-width:0.3;" x1="41.845" y1="-51.899" y2="-52.02"/>
  <line x2="41.845" style="fill:none;stroke:#000000;stroke-width:0.3;" x1="41.845" y1="-51.899" y2="-48.779"/>
  <line x2="51.22" style="fill:none;stroke:#000000;stroke-width:0.3;" x1="51.22" y1="-51.838" y2="-48.769"/>
  <line x2="46.47" style="fill:none;stroke:#000000;stroke-width:0.3;" x1="46.47" y1="-52.746" y2="-52.798"/>
  <line x2="46.47" style="fill:none;stroke:#000000;stroke-width:0.3;" x1="46.47" y1="-52.798" y2="-54.125"/>
  <line x2="37.595" style="fill:none;stroke:#000000;stroke-width:0.3;" x1="37.595" y1="-52.871" y2="-54.125"/>
  <line x2="28.47" style="fill:none;stroke:#000000;stroke-width:0.3;" x1="28.47" y1="-52.996" y2="-54.125"/>
  <line x2="19.095" style="fill:none;stroke:#000000;stroke-width:0.3;" x1="19.095" y1="-52.871" y2="-54.125"/>
  <line x2="10.345" style="fill:none;stroke:#000000;stroke-width:0.3;" x1="10.345" y1="-52.996" y2="-54.125"/>
  <line x2="0.845" style="fill:none;stroke:#000000;stroke-width:0.3;" x1="0.845" y1="-52.746" y2="-54.125"/>
  <line x2="46.22" style="fill:none;stroke:#000000;stroke-width:0.3;" x1="46.22" y1="-44.666" y2="-47.654"/>
  <line x2="37.345" style="fill:none;stroke:#000000;stroke-width:0.3;" x1="37.345" y1="-47.778" y2="-47.779"/>
  <line x2="37.345" style="fill:none;stroke:#000000;stroke-width:0.3;" x1="37.345" y1="-47.778" y2="-44.666"/>
  <line x2="28.22" style="fill:none;stroke:#000000;stroke-width:0.3;" x1="28.22" y1="-47.731" y2="-47.904"/>
  <line x2="28.22" style="fill:none;stroke:#000000;stroke-width:0.3;" x1="28.22" y1="-44.791" y2="-47.731"/>
  <line x2="18.845" style="fill:none;stroke:#000000;stroke-width:0.3;" x1="18.845" y1="-44.708" y2="-47.779"/>
  <line x2="18.845" style="fill:none;stroke:#000000;stroke-width:0.3;" x1="18.845" y1="-44.708" y2="-44.666"/>
  <line x2="10.095" style="fill:none;stroke:#000000;stroke-width:0.3;" x1="10.095" y1="-47.796" y2="-44.666"/>
  <line x2="10.095" style="fill:none;stroke:#000000;stroke-width:0.3;" x1="10.095" y1="-47.796" y2="-47.904"/>
  <line x2="0.595" style="fill:none;stroke:#000000;stroke-width:0.3;" x1="0.595" y1="-47.654" y2="-44.598"/>
  <line x2="0.595" style="fill:none;stroke:#000000;stroke-width:0.3;" x1="0.595" y1="-44.541" y2="-44.598"/>
  <line x2="50.845" style="fill:none;stroke:#000000;stroke-width:0.3;" x1="50.845" y1="-43.529" y2="-40.791"/>
  <line x2="41.97" style="fill:none;stroke:#000000;stroke-width:0.3;" x1="41.97" y1="-40.76" y2="-43.654"/>
  <line x2="41.97" style="fill:none;stroke:#000000;stroke-width:0.3;" x1="41.97" y1="-40.76" y2="-40.666"/>
  <line x2="32.845" style="fill:none;stroke:#000000;stroke-width:0.3;" x1="32.845" y1="-43.778" y2="-43.779"/>
  <line x2="32.845" style="fill:none;stroke:#000000;stroke-width:0.3;" x1="32.845" y1="-43.778" y2="-40.916"/>
  <line x2="23.47" style="fill:none;stroke:#000000;stroke-width:0.3;" x1="23.47" y1="-40.826" y2="-43.654"/>
  <line x2="23.47" style="fill:none;stroke:#000000;stroke-width:0.3;" x1="23.47" y1="-40.826" y2="-40.791"/>
  <line x2="14.72" style="fill:none;stroke:#000000;stroke-width:0.3;" x1="14.72" y1="-40.916" y2="-43.779"/>
  <line x2="5.22" style="fill:none;stroke:#000000;stroke-width:0.3;" x1="5.22" y1="-40.714" y2="-40.666"/>
  <line x2="5.22" style="fill:none;stroke:#000000;stroke-width:0.3;" x1="5.22" y1="-40.714" y2="-43.813"/>
  <line x2="1.47" style="fill:none;stroke:#000000;stroke-width:0.3;" x1="1.47" y1="-36.612" y2="-36.541"/>
  <line x2="1.47" style="fill:none;stroke:#000000;stroke-width:0.3;" x1="1.47" y1="-36.612" y2="-39.779"/>
  <line x2="46.72" style="fill:none;stroke:#000000;stroke-width:0.3;" x1="46.72" y1="-36.666" y2="-39.779"/>
  <line x2="37.595" style="fill:none;stroke:#000000;stroke-width:0.3;" x1="37.595" y1="-39.903" y2="-39.904"/>
  <line x2="37.595" style="fill:none;stroke:#000000;stroke-width:0.3;" x1="37.595" y1="-39.903" y2="-36.666"/>
  <line x2="28.22" style="fill:none;stroke:#000000;stroke-width:0.3;" x1="28.22" y1="-39.779" y2="-36.791"/>
  <line x2="19.47" style="fill:none;stroke:#000000;stroke-width:0.3;" x1="19.47" y1="-36.713" y2="-39.904"/>
  <line x2="19.47" style="fill:none;stroke:#000000;stroke-width:0.3;" x1="19.47" y1="-36.666" y2="-36.713"/>
  <line x2="9.97" style="fill:none;stroke:#000000;stroke-width:0.3;" x1="9.97" y1="-39.941" y2="-40.052"/>
  <line x2="9.97" style="fill:none;stroke:#000000;stroke-width:0.3;" x1="9.97" y1="-36.666" y2="-39.941"/>
  <line x2="51.595" style="fill:none;stroke:#000000;stroke-width:0.3;" x1="51.595" y1="-35.696" y2="-35.791"/>
  <line x2="51.595" style="fill:none;stroke:#000000;stroke-width:0.3;" x1="51.595" y1="-32.917" y2="-35.696"/>
  <line x2="51.595" style="fill:none;stroke:#000000;stroke-width:0.3;" x1="51.595" y1="-32.917" y2="-32.916"/>
  <line x2="42.72" style="fill:none;stroke:#000000;stroke-width:0.3;" x1="42.72" y1="-32.9" y2="-35.766"/>
  <line x2="42.72" style="fill:none;stroke:#000000;stroke-width:0.3;" x1="42.72" y1="-35.766" y2="-35.859"/>
  <line x2="42.72" style="fill:none;stroke:#000000;stroke-width:0.3;" x1="42.72" y1="-32.9" y2="-32.791"/>
  <line x2="33.595" style="fill:none;stroke:#000000;stroke-width:0.3;" x1="33.595" y1="-35.778" y2="-33.041"/>
  <line x2="33.595" style="fill:none;stroke:#000000;stroke-width:0.3;" x1="33.595" y1="-35.778" y2="-35.984"/>
  <line x2="24.22" style="fill:none;stroke:#000000;stroke-width:0.3;" x1="24.22" y1="-35.731" y2="-32.963"/>
  <line x2="24.22" style="fill:none;stroke:#000000;stroke-width:0.3;" x1="24.22" y1="-32.963" y2="-32.916"/>
  <line x2="24.22" style="fill:none;stroke:#000000;stroke-width:0.3;" x1="24.22" y1="-35.731" y2="-35.859"/>
  <line x2="15.47" style="fill:none;stroke:#000000;stroke-width:0.3;" x1="15.47" y1="-35.773" y2="-35.984"/>
  <line x2="15.47" style="fill:none;stroke:#000000;stroke-width:0.3;" x1="15.47" y1="-35.773" y2="-32.918"/>
  <line x2="15.47" style="fill:none;stroke:#000000;stroke-width:0.3;" x1="15.47" y1="-32.918" y2="-32.916"/>
  <line x2="5.97" style="fill:none;stroke:#000000;stroke-width:0.3;" x1="5.97" y1="-35.8" y2="-32.916"/>
  <line x2="5.97" style="fill:none;stroke:#000000;stroke-width:0.3;" x1="5.97" y1="-35.8" y2="-35.904"/>
  <line x2="47.22" style="fill:none;stroke:#000000;stroke-width:0.3;" x1="47.22" y1="-32.007" y2="-29.324"/>
  <line x2="47.22" style="fill:none;stroke:#000000;stroke-width:0.3;" x1="47.22" y1="-29.291" y2="-29.324"/>
  <line x2="38.345" style="fill:none;stroke:#000000;stroke-width:0.3;" x1="38.345" y1="-32.075" y2="-32.032"/>
  <line x2="38.345" style="fill:none;stroke:#000000;stroke-width:0.3;" x1="38.345" y1="-32.032" y2="-29.461"/>
  <line x2="29.22" style="fill:none;stroke:#000000;stroke-width:0.3;" x1="29.22" y1="-29.389" y2="-29.291"/>
  <line x2="29.22" style="fill:none;stroke:#000000;stroke-width:0.3;" x1="29.22" y1="-31.992" y2="-32.029"/>
  <line x2="29.22" style="fill:none;stroke:#000000;stroke-width:0.3;" x1="29.22" y1="-29.389" y2="-31.992"/>
  <line x2="19.845" style="fill:none;stroke:#000000;stroke-width:0.3;" x1="19.845" y1="-29.357" y2="-31.904"/>
  <line x2="19.845" style="fill:none;stroke:#000000;stroke-width:0.3;" x1="19.845" y1="-29.357" y2="-29.291"/>
  <line x2="11.095" style="fill:none;stroke:#000000;stroke-width:0.3;" x1="11.095" y1="-29.324" y2="-32.029"/>
  <line x2="11.095" style="fill:none;stroke:#000000;stroke-width:0.3;" x1="11.095" y1="-29.291" y2="-29.324"/>
  <line x2="1.595" style="fill:none;stroke:#000000;stroke-width:0.3;" x1="1.595" y1="-31.969" y2="-32.007"/>
  <line x2="1.595" style="fill:none;stroke:#000000;stroke-width:0.3;" x1="1.595" y1="-31.969" y2="-29.279"/>
  <line x2="1.595" style="fill:none;stroke:#000000;stroke-width:0.3;" x1="1.595" y1="-29.279" y2="-29.277"/>
  <line x2="51.47" style="fill:none;stroke:#000000;stroke-width:0.3;" x1="51.47" y1="-28.279" y2="-25.541"/>
  <line x2="42.595" style="fill:none;stroke:#000000;stroke-width:0.3;" x1="42.595" y1="-25.522" y2="-25.416"/>
  <line x2="42.595" style="fill:none;stroke:#000000;stroke-width:0.3;" x1="42.595" y1="-25.522" y2="-28.404"/>
  <line x2="33.47" style="fill:none;stroke:#000000;stroke-width:0.3;" x1="33.47" y1="-28.452" y2="-25.625"/>
  <line x2="33.47" style="fill:none;stroke:#000000;stroke-width:0.3;" x1="33.47" y1="-28.452" y2="-28.529"/>
  <line x2="33.47" style="fill:none;stroke:#000000;stroke-width:0.3;" x1="33.47" y1="-25.541" y2="-25.625"/>
  <line x2="24.095" style="fill:none;stroke:#000000;stroke-width:0.3;" x1="24.095" y1="-28.402" y2="-25.588"/>
  <line x2="24.095" style="fill:none;stroke:#000000;stroke-width:0.3;" x1="24.095" y1="-28.402" y2="-28.404"/>
  <line x2="24.095" style="fill:none;stroke:#000000;stroke-width:0.3;" x1="24.095" y1="-25.588" y2="-25.541"/>
  <line x2="15.345" style="fill:none;stroke:#000000;stroke-width:0.3;" x1="15.345" y1="-25.542" y2="-28.444"/>
  <line x2="15.345" style="fill:none;stroke:#000000;stroke-width:0.3;" x1="15.345" y1="-28.444" y2="-28.529"/>
  <line x2="15.345" style="fill:none;stroke:#000000;stroke-width:0.3;" x1="15.345" y1="-25.542" y2="-25.541"/>
  <line x2="5.845" style="fill:none;stroke:#000000;stroke-width:0.3;" x1="5.845" y1="-28.466" y2="-28.563"/>
  <line x2="5.845" style="fill:none;stroke:#000000;stroke-width:0.3;" x1="5.845" y1="-25.48" y2="-25.416"/>
  <line x2="5.845" style="fill:none;stroke:#000000;stroke-width:0.3;" x1="5.845" y1="-28.466" y2="-25.48"/>
  <line x2="47.345" style="fill:none;stroke:#000000;stroke-width:0.3;" x1="47.345" y1="-24.641" y2="-21.916"/>
  <line x2="47.345" style="fill:none;stroke:#000000;stroke-width:0.3;" x1="47.345" y1="-24.641" y2="-24.654"/>
  <line x2="38.47" style="fill:none;stroke:#000000;stroke-width:0.3;" x1="38.47" y1="-24.779" y2="-24.663"/>
  <line x2="38.47" style="fill:none;stroke:#000000;stroke-width:0.3;" x1="38.47" y1="-24.663" y2="-21.916"/>
  <line x2="29.345" style="fill:none;stroke:#000000;stroke-width:0.3;" x1="29.345" y1="-21.94" y2="-24.625"/>
  <line x2="29.345" style="fill:none;stroke:#000000;stroke-width:0.3;" x1="29.345" y1="-21.94" y2="-21.791"/>
  <line x2="29.345" style="fill:none;stroke:#000000;stroke-width:0.3;" x1="29.345" y1="-24.625" y2="-24.791"/>
  <line x2="19.97" style="fill:none;stroke:#000000;stroke-width:0.3;" x1="19.97" y1="-21.906" y2="-21.791"/>
  <line x2="19.97" style="fill:none;stroke:#000000;stroke-width:0.3;" x1="19.97" y1="-21.906" y2="-24.65"/>
  <line x2="19.97" style="fill:none;stroke:#000000;stroke-width:0.3;" x1="19.97" y1="-24.779" y2="-24.65"/>
  <line x2="11.22" style="fill:none;stroke:#000000;stroke-width:0.3;" x1="11.22" y1="-24.681" y2="-24.904"/>
  <line x2="11.22" style="fill:none;stroke:#000000;stroke-width:0.3;" x1="11.22" y1="-21.863" y2="-21.791"/>
  <line x2="11.22" style="fill:none;stroke:#000000;stroke-width:0.3;" x1="11.22" y1="-24.681" y2="-21.863"/>
  <line x2="1.72" style="fill:none;stroke:#000000;stroke-width:0.3;" x1="1.72" y1="-21.809" y2="-21.791"/>
  <line x2="1.72" style="fill:none;stroke:#000000;stroke-width:0.3;" x1="1.72" y1="-24.581" y2="-21.809"/>
  <line x2="1.72" style="fill:none;stroke:#000000;stroke-width:0.3;" x1="1.72" y1="-24.581" y2="-24.654"/>
  <line x2="52.22" style="fill:none;stroke:#000000;stroke-width:0.3;" x1="52.22" y1="-20.779" y2="-17.916"/>
  <line x2="43.345" style="fill:none;stroke:#000000;stroke-width:0.3;" x1="43.345" y1="-17.868" y2="-17.791"/>
  <line x2="43.345" style="fill:none;stroke:#000000;stroke-width:0.3;" x1="43.345" y1="-17.868" y2="-20.904"/>
  <line x2="34.22" style="fill:none;stroke:#000000;stroke-width:0.3;" x1="34.22" y1="-17.946" y2="-20.993"/>
  <line x2="34.22" style="fill:none;stroke:#000000;stroke-width:0.3;" x1="34.22" y1="-20.993" y2="-21.029"/>
  <line x2="34.22" style="fill:none;stroke:#000000;stroke-width:0.3;" x1="34.22" y1="-17.946" y2="-17.916"/>
  <line x2="24.845" style="fill:none;stroke:#000000;stroke-width:0.3;" x1="24.845" y1="-17.916" y2="-20.904"/>
  <line x2="24.845" style="fill:none;stroke:#000000;stroke-width:0.3;" x1="24.845" y1="-17.916" y2="-17.916"/>
  <line x2="16.095" style="fill:none;stroke:#000000;stroke-width:0.3;" x1="16.095" y1="-20.98" y2="-17.916"/>
  <line x2="16.095" style="fill:none;stroke:#000000;stroke-width:0.3;" x1="16.095" y1="-21.029" y2="-20.98"/>
  <line x2="6.595" style="fill:none;stroke:#000000;stroke-width:0.3;" x1="6.595" y1="-21.007" y2="-20.991"/>
  <line x2="6.595" style="fill:none;stroke:#000000;stroke-width:0.3;" x1="6.595" y1="-20.991" y2="-17.916"/>
  <line x2="46.97" style="fill:none;stroke:#000000;stroke-width:0.3;" x1="46.97" y1="-14.301" y2="-14.291"/>
  <line x2="46.97" style="fill:none;stroke:#000000;stroke-width:0.3;" x1="46.97" y1="-16.904" y2="-14.301"/>
  <line x2="38.095" style="fill:none;stroke:#000000;stroke-width:0.3;" x1="38.095" y1="-14.284" y2="-17.029"/>
  <line x2="38.095" style="fill:none;stroke:#000000;stroke-width:0.3;" x1="38.095" y1="-14.284" y2="-14.166"/>
  <line x2="28.97" style="fill:none;stroke:#000000;stroke-width:0.3;" x1="28.97" y1="-16.995" y2="-14.382"/>
  <line x2="28.97" style="fill:none;stroke:#000000;stroke-width:0.3;" x1="28.97" y1="-14.382" y2="-14.291"/>
  <line x2="28.97" style="fill:none;stroke:#000000;stroke-width:0.3;" x1="28.97" y1="-16.995" y2="-17.154"/>
  <line x2="19.595" style="fill:none;stroke:#000000;stroke-width:0.3;" x1="19.595" y1="-17.029" y2="-14.347"/>
  <line x2="19.595" style="fill:none;stroke:#000000;stroke-width:0.3;" x1="19.595" y1="-14.347" y2="-14.291"/>
  <line x2="10.845" style="fill:none;stroke:#000000;stroke-width:0.3;" x1="10.845" y1="-17.054" y2="-17.154"/>
  <line x2="10.845" style="fill:none;stroke:#000000;stroke-width:0.3;" x1="10.845" y1="-14.291" y2="-14.301"/>
  <line x2="10.845" style="fill:none;stroke:#000000;stroke-width:0.3;" x1="10.845" y1="-17.054" y2="-14.301"/>
  <line x2="1.345" style="fill:none;stroke:#000000;stroke-width:0.3;" x1="1.345" y1="-14.243" y2="-14.166"/>
  <line x2="1.345" style="fill:none;stroke:#000000;stroke-width:0.3;" x1="1.345" y1="-14.243" y2="-16.904"/>
  <line x2="51.845" style="fill:none;stroke:#000000;stroke-width:0.3;" x1="51.845" y1="-13.404" y2="-13.348"/>
  <line x2="51.845" style="fill:none;stroke:#000000;stroke-width:0.3;" x1="51.845" y1="-10.416" y2="-13.348"/>
  <line x2="42.97" style="fill:none;stroke:#000000;stroke-width:0.3;" x1="42.97" y1="-13.529" y2="-13.405"/>
  <line x2="42.97" style="fill:none;stroke:#000000;stroke-width:0.3;" x1="42.97" y1="-10.378" y2="-13.405"/>
  <line x2="42.97" style="fill:none;stroke:#000000;stroke-width:0.3;" x1="42.97" y1="-10.378" y2="-10.291"/>
  <line x2="33.845" style="fill:none;stroke:#000000;stroke-width:0.3;" x1="33.845" y1="-10.46" y2="-13.422"/>
  <line x2="33.845" style="fill:none;stroke:#000000;stroke-width:0.3;" x1="33.845" y1="-13.654" y2="-13.422"/>
  <line x2="33.845" style="fill:none;stroke:#000000;stroke-width:0.3;" x1="33.845" y1="-10.46" y2="-10.416"/>
  <line x2="24.47" style="fill:none;stroke:#000000;stroke-width:0.3;" x1="24.47" y1="-10.429" y2="-10.416"/>
  <line x2="24.47" style="fill:none;stroke:#000000;stroke-width:0.3;" x1="24.47" y1="-13.529" y2="-13.37"/>
  <line x2="24.47" style="fill:none;stroke:#000000;stroke-width:0.3;" x1="24.47" y1="-10.429" y2="-13.37"/>
  <line x2="15.72" style="fill:none;stroke:#000000;stroke-width:0.3;" x1="15.72" y1="-13.412" y2="-10.416"/>
  <line x2="15.72" style="fill:none;stroke:#000000;stroke-width:0.3;" x1="15.72" y1="-13.654" y2="-13.412"/>
  <line x2="6.22" style="fill:none;stroke:#000000;stroke-width:0.3;" x1="6.22" y1="-13.404" y2="-10.416"/>
  <line x2="46.845" style="fill:none;stroke:#000000;stroke-width:0.3;" x1="46.845" y1="-9.45" y2="-6.416"/>
  <line x2="37.97" style="fill:none;stroke:#000000;stroke-width:0.3;" x1="37.97" y1="-9.53" y2="-6.291"/>
  <line x2="37.97" style="fill:none;stroke:#000000;stroke-width:0.3;" x1="37.97" y1="-9.53" y2="-9.575"/>
  <line x2="28.845" style="fill:none;stroke:#000000;stroke-width:0.3;" x1="28.845" y1="-9.49" y2="-6.416"/>
  <line x2="28.845" style="fill:none;stroke:#000000;stroke-width:0.3;" x1="28.845" y1="-9.49" y2="-9.529"/>
  <line x2="19.47" style="fill:none;stroke:#000000;stroke-width:0.3;" x1="19.47" y1="-6.338" y2="-9.404"/>
  <line x2="19.47" style="fill:none;stroke:#000000;stroke-width:0.3;" x1="19.47" y1="-6.338" y2="-6.291"/>
  <line x2="10.72" style="fill:none;stroke:#000000;stroke-width:0.3;" x1="10.72" y1="-9.529" y2="-6.416"/>
  <line x2="1.22" style="fill:none;stroke:#000000;stroke-width:0.3;" x1="1.22" y1="-6.166" y2="-6.233"/>
  <line x2="1.22" style="fill:none;stroke:#000000;stroke-width:0.3;" x1="1.22" y1="-9.507" y2="-9.474"/>
  <line x2="1.22" style="fill:none;stroke:#000000;stroke-width:0.3;" x1="1.22" y1="-6.233" y2="-9.474"/>
  <line x2="51.345" style="fill:none;stroke:#000000;stroke-width:0.3;" x1="51.345" y1="-5.32" y2="-5.404"/>
  <line x2="51.345" style="fill:none;stroke:#000000;stroke-width:0.3;" x1="51.345" y1="-5.32" y2="-2.791"/>
  <line x2="42.47" style="fill:none;stroke:#000000;stroke-width:0.3;" x1="42.47" y1="-2.77" y2="-5.392"/>
  <line x2="42.47" style="fill:none;stroke:#000000;stroke-width:0.3;" x1="42.47" y1="-2.77" y2="-2.666"/>
  <line x2="42.47" style="fill:none;stroke:#000000;stroke-width:0.3;" x1="42.47" y1="-5.392" y2="-5.529"/>
  <line x2="33.345" style="fill:none;stroke:#000000;stroke-width:0.3;" x1="33.345" y1="-5.598" y2="-5.402"/>
  <line x2="33.345" style="fill:none;stroke:#000000;stroke-width:0.3;" x1="33.345" y1="-5.402" y2="-2.916"/>
  <line x2="23.97" style="fill:none;stroke:#000000;stroke-width:0.3;" x1="23.97" y1="-2.826" y2="-2.666"/>
  <line x2="23.97" style="fill:none;stroke:#000000;stroke-width:0.3;" x1="23.97" y1="-2.826" y2="-5.357"/>
  <line x2="23.97" style="fill:none;stroke:#000000;stroke-width:0.3;" x1="23.97" y1="-5.416" y2="-5.357"/>
  <line x2="15.22" style="fill:none;stroke:#000000;stroke-width:0.3;" x1="15.22" y1="-5.401" y2="-5.428"/>
  <line x2="15.22" style="fill:none;stroke:#000000;stroke-width:0.3;" x1="15.22" y1="-5.401" y2="-2.791"/>
  <line x2="5.72" style="fill:none;stroke:#000000;stroke-width:0.3;" x1="5.72" y1="-2.738" y2="-2.666"/>
  <line x2="5.72" style="fill:none;stroke:#000000;stroke-width:0.3;" x1="5.72" y1="-2.738" y2="-5.404"/>
  <path d="M48.565-52.377c-0.43-0.262-1.239-0.417-2.096-0.421" style="fill:none;stroke:#000000;stroke-width:0.3;"/>
  <path d="M48.565-52.377c-0.031-0.012-0.063-0.023-0.096-0.036l0.125,0.055    C48.585-52.364,48.575-52.371,48.565-52.377" style="fill:none;stroke:#000000;stroke-width:0.3;"/>
  <path d="M41.845-51.899c0.817,0.028,1.662-0.075,2.25-0.405    c0.617-0.347,1.52-0.496,2.375-0.493" style="fill:none;stroke:#000000;stroke-width:0.3;"/>
  <path d="M5.47-51.927c-0.734-0.022-1.458-0.178-2.125-0.432    c-0.976-0.372-2.266-0.462-3.302-0.324" style="fill:none;stroke:#000000;stroke-width:0.3;"/>
  <path d="M14.845-51.904c-0.97-0.01-1.888-0.259-2.417-0.509    c-0.75-0.485-3.333-0.54-4.5,0c-0.79,0.366-1.632,0.511-2.458,0.486" style="fill:none;stroke:#000000;stroke-width:0.3;"/>
  <path d="M41.845-51.899c-0.922-0.031-1.809-0.231-2.25-0.459    c-0.833-0.433-2.5-0.702-4.5,0.054c-0.835,0.315-1.654,0.414-2.375,0.395" style="fill:none;stroke:#000000;stroke-width:0.3;"/>
  <path d="M32.72-51.91c-1.007-0.026-1.82-0.283-2.208-0.503    c-0.667-0.378-2.778-0.852-4.5,0.055c-1.334,0.701-3.556,0.589-4.5,0.107c-1.167-0.594-3.084-0.918-4.584-0.107    c-0.634,0.343-1.372,0.462-2.083,0.454" style="fill:none;stroke:#000000;stroke-width:0.3;"/>
  <path d="M48.565-52.377c2.583,0.977,3.088,0.445,4.404,0.019    c0.312-0.151,0.729-0.261,1.198-0.324" style="fill:none;stroke:#000000;stroke-width:0.3;"/>
  <path d="M37.345-47.778c0.711,0.014,1.515-0.087,2.333-0.396    c2-0.756,3.667-0.486,4.5-0.054c0.834,0.432,3.25,0.756,4.5,0.054c1.235-0.694,3.611-0.596,4.471-0.072" style="fill:none;stroke:#000000;stroke-width:0.3;"/>
  <path d="M10.095-47.796c0.813,0.018,1.64-0.128,2.417-0.487    c1.166-0.54,3.75-0.485,4.5,0c0.916,0.433,3,0.864,4.5,0.055c1.5-0.811,3.416-0.486,4.583,0.107    c0.476,0.242,1.277,0.392,2.125,0.39" style="fill:none;stroke:#000000;stroke-width:0.3;"/>
  <path d="M53.148-48.247c0.382,0.145,0.719,0.256,1.02,0.34" style="fill:none;stroke:#000000;stroke-width:0.3;"/>
  <path d="M53.148-48.247c-0.032-0.012-0.063-0.023-0.096-0.036l0.125,0.055    C53.168-48.234,53.158-48.24,53.148-48.247" style="fill:none;stroke:#000000;stroke-width:0.3;"/>
  <path d="M28.22-47.731c0.834-0.001,1.714-0.148,2.375-0.497    c1.723-0.907,3.833-0.433,4.5-0.055c0.395,0.224,1.225,0.484,2.25,0.505" style="fill:none;stroke:#000000;stroke-width:0.3;"/>
  <path d="M10.095-47.796c-0.749-0.017-1.487-0.174-2.167-0.433    c-1.416-0.54-3.5-0.486-4.5,0c-1.122,0.363-1.654,0.804-3.385,0.321" style="fill:none;stroke:#000000;stroke-width:0.3;"/>
  <path d="M18.845-44.708c-0.629,0.026-1.261,0.171-1.833,0.479    c-1.5,0.81-3.584,0.378-4.5-0.055c-0.75-0.485-3.334-0.54-4.5,0c-1.494,0.691-3.167,0.595-4.584,0.055    c-0.832-0.317-1.895-0.43-2.833-0.369" style="fill:none;stroke:#000000;stroke-width:0.3;"/>
  <path d="M48.648-44.247c2.583,0.977,3.087,0.445,4.404,0.019    c0.293-0.143,0.68-0.248,1.115-0.312" style="fill:none;stroke:#000000;stroke-width:0.3;"/>
  <path d="M32.845-43.778c-1.025-0.021-1.855-0.281-2.25-0.505    c-0.667-0.378-2.777-0.853-4.5,0.055c-1.333,0.702-3.555,0.589-4.5,0.107c-0.722-0.367-1.731-0.631-2.75-0.587" style="fill:none;stroke:#000000;stroke-width:0.3;"/>
  <path d="M48.648-44.247c-0.032-0.012-0.063-0.023-0.096-0.036l0.125,0.055    C48.668-44.234,48.658-44.24,48.648-44.247" style="fill:none;stroke:#000000;stroke-width:0.3;"/>
  <path d="M0.043-44.54c0.177-0.026,0.361-0.046,0.552-0.058" style="fill:none;stroke:#000000;stroke-width:0.3;"/>
  <path d="M32.845-43.778c0.711,0.014,1.515-0.087,2.333-0.396    c2-0.756,3.667-0.486,4.5-0.054c0.834,0.432,3.25,0.756,4.5,0.054c1.235-0.694,3.611-0.596,4.471-0.072" style="fill:none;stroke:#000000;stroke-width:0.3;"/>
  <path d="M53.398-40.372c-0.032-0.012-0.063-0.023-0.096-0.036l0.125,0.055    C53.418-40.359,53.408-40.365,53.398-40.372" style="fill:none;stroke:#000000;stroke-width:0.3;"/>
  <path d="M41.97-40.76c1.068-0.076,1.931,0.133,2.458,0.406    c0.834,0.432,3.25,0.756,4.5,0.054c1.235-0.694,3.611-0.596,4.471-0.072" style="fill:none;stroke:#000000;stroke-width:0.3;"/>
  <path d="M53.398-40.372c0.279,0.107,0.535,0.194,0.77,0.267" style="fill:none;stroke:#000000;stroke-width:0.3;"/>
  <path d="M5.22-40.714c-0.608,0.05-1.156,0.173-1.542,0.36    c-1.175,0.38-1.702,0.845-3.635,0.248" style="fill:none;stroke:#000000;stroke-width:0.3;"/>
  <path d="M23.47-40.826c-0.587,0.04-1.174,0.184-1.708,0.473    c-1.5,0.81-3.584,0.378-4.5-0.055c-0.75-0.485-3.334-0.54-4.5,0c-0.898,0.415-1.859,0.546-2.792,0.467" style="fill:none;stroke:#000000;stroke-width:0.3;"/>
  <path d="M23.47-40.826c1.061-0.072,2.123,0.197,2.875,0.58    c0.945,0.481,3.167,0.595,4.5-0.107c1.723-0.907,3.833-0.433,4.5-0.055c0.395,0.224,1.225,0.484,2.25,0.505" style="fill:none;stroke:#000000;stroke-width:0.3;"/>
  <path d="M37.595-39.903c0.711,0.014,1.515-0.087,2.333-0.396    c0.733-0.277,1.423-0.416,2.042-0.46" style="fill:none;stroke:#000000;stroke-width:0.3;"/>
  <path d="M5.22-40.714c0.968-0.079,2.089,0.028,2.958,0.36    c0.565,0.216,1.173,0.36,1.792,0.412" style="fill:none;stroke:#000000;stroke-width:0.3;"/>
  <path d="M1.47-36.612c-0.517,0.008-1.01,0.065-1.427,0.17" style="fill:none;stroke:#000000;stroke-width:0.3;"/>
  <path d="M51.595-35.696c0.737-0.021,1.22-0.293,1.958-0.532    c0.175-0.085,0.384-0.156,0.615-0.214" style="fill:none;stroke:#000000;stroke-width:0.3;"/>
  <path d="M49.148-36.247c-0.032-0.012-0.063-0.023-0.096-0.036l0.125,0.055    C49.168-36.234,49.158-36.24,49.148-36.247" style="fill:none;stroke:#000000;stroke-width:0.3;"/>
  <path d="M49.148-36.247c1.135,0.43,1.869,0.567,2.446,0.551" style="fill:none;stroke:#000000;stroke-width:0.3;"/>
  <path d="M15.47-35.773c0.698,0.002,1.42-0.119,2.042-0.455    c0.61-0.33,1.289-0.472,1.958-0.484" style="fill:none;stroke:#000000;stroke-width:0.3;"/>
  <path d="M24.22-35.731c-0.848,0.002-1.649-0.147-2.125-0.39    c-0.692-0.352-1.649-0.609-2.625-0.592" style="fill:none;stroke:#000000;stroke-width:0.3;"/>
  <path d="M24.22-35.731c0.834-0.001,1.714-0.148,2.375-0.497    c1.723-0.907,3.833-0.433,4.5-0.055c0.426,0.241,1.36,0.526,2.5,0.505" style="fill:none;stroke:#000000;stroke-width:0.3;"/>
  <path d="M15.47-35.773c-0.985-0.004-1.922-0.257-2.458-0.51    c-0.75-0.485-3.334-0.54-4.5,0C7.694-35.905,6.823-35.763,5.97-35.8" style="fill:none;stroke:#000000;stroke-width:0.3;"/>
  <path d="M5.97-35.8c-0.706-0.031-1.4-0.185-2.042-0.429    c-0.723-0.275-1.62-0.396-2.458-0.384" style="fill:none;stroke:#000000;stroke-width:0.3;"/>
  <path d="M33.595-35.778c0.646-0.013,1.359-0.123,2.083-0.396    c2-0.756,3.667-0.486,4.5-0.054c0.488,0.253,1.521,0.469,2.542,0.463" style="fill:none;stroke:#000000;stroke-width:0.3;"/>
  <path d="M42.72-35.766c0.723-0.004,1.44-0.118,1.958-0.409    c1.235-0.694,3.611-0.596,4.471-0.072" style="fill:none;stroke:#000000;stroke-width:0.3;"/>
  <path d="M24.22-32.963c-0.709-0.004-1.435,0.134-2.083,0.484    c-1.5,0.809-3.584,0.378-4.5-0.055c-0.386-0.249-1.255-0.385-2.167-0.385" style="fill:none;stroke:#000000;stroke-width:0.3;"/>
  <path d="M1.595-31.969c-0.415-0.046-0.914-0.164-1.552-0.385" style="fill:none;stroke:#000000;stroke-width:0.3;"/>
  <path d="M29.22-31.992c0.717-0.039,1.438-0.19,2-0.486    c1.723-0.907,3.833-0.433,4.5-0.055c0.441,0.25,1.429,0.547,2.625,0.501" style="fill:none;stroke:#000000;stroke-width:0.3;"/>
  <path d="M42.72-32.9c0.896-0.01,1.619,0.181,2.083,0.422    c0.834,0.432,3.25,0.756,4.5,0.054c0.598-0.336,1.462-0.486,2.292-0.492" style="fill:none;stroke:#000000;stroke-width:0.3;"/>
  <path d="M15.47-32.918c-0.863,0-1.766,0.122-2.333,0.385    c-1.494,0.691-3.167,0.595-4.584,0.055c-1.416-0.54-3.5-0.486-4.5,0c-0.893,0.289-1.412,0.627-2.458,0.51" style="fill:none;stroke:#000000;stroke-width:0.3;"/>
  <path d="M53.773-32.497c0.137,0.052,0.269,0.1,0.395,0.144" style="fill:none;stroke:#000000;stroke-width:0.3;"/>
  <path d="M53.773-32.497c-0.032-0.012-0.063-0.023-0.096-0.036l0.125,0.055    C53.793-32.484,53.783-32.49,53.773-32.497" style="fill:none;stroke:#000000;stroke-width:0.3;"/>
  <path d="M51.595-32.917c0.887-0.008,1.735,0.149,2.179,0.42" style="fill:none;stroke:#000000;stroke-width:0.3;"/>
  <path d="M24.22-32.963c0.933,0.005,1.837,0.255,2.5,0.592    c0.546,0.278,1.518,0.433,2.5,0.379" style="fill:none;stroke:#000000;stroke-width:0.3;"/>
  <path d="M42.72-32.9c-0.712,0.008-1.531,0.141-2.417,0.476    c-0.678,0.256-1.345,0.369-1.958,0.393" style="fill:none;stroke:#000000;stroke-width:0.3;"/>
  <path d="M33.47-28.452c0.613-0.023,1.28-0.137,1.958-0.392    c2-0.756,3.667-0.486,4.5-0.054c0.834,0.432,3.25,0.756,4.5,0.054c0.719-0.404,1.824-0.54,2.792-0.479" style="fill:none;stroke:#000000;stroke-width:0.3;"/>
  <path d="M29.22-29.389c0.725,0.073,1.323,0.265,1.625,0.436    c0.441,0.25,1.429,0.547,2.625,0.501" style="fill:none;stroke:#000000;stroke-width:0.3;"/>
  <path d="M5.845-28.466c0.813,0.018,1.64-0.128,2.417-0.487    c0.678-0.314,1.835-0.427,2.833-0.371" style="fill:none;stroke:#000000;stroke-width:0.3;"/>
  <path d="M1.595-29.279c-0.549-0.018-1.086,0.022-1.552,0.111" style="fill:none;stroke:#000000;stroke-width:0.3;"/>
  <path d="M48.898-28.917c2.583,0.977,3.087,0.445,4.404,0.019    c0.235-0.114,0.532-0.205,0.865-0.27" style="fill:none;stroke:#000000;stroke-width:0.3;"/>
  <path d="M11.095-29.324c0.718,0.04,1.354,0.168,1.667,0.371    c0.559,0.264,1.553,0.527,2.583,0.509" style="fill:none;stroke:#000000;stroke-width:0.3;"/>
  <path d="M5.845-28.466c-0.749-0.017-1.487-0.174-2.167-0.433    c-0.616-0.235-1.358-0.358-2.083-0.381" style="fill:none;stroke:#000000;stroke-width:0.3;"/>
  <path d="M19.845-29.357c-0.861-0.083-1.781,0.025-2.583,0.459    c-0.585,0.315-1.259,0.442-1.917,0.454" style="fill:none;stroke:#000000;stroke-width:0.3;"/>
  <path d="M48.898-28.917c-0.359-0.219-0.983-0.363-1.679-0.407" style="fill:none;stroke:#000000;stroke-width:0.3;"/>
  <path d="M19.845-29.357c0.751,0.072,1.457,0.29,2,0.566    c0.5,0.255,1.356,0.406,2.25,0.389" style="fill:none;stroke:#000000;stroke-width:0.3;"/>
  <path d="M24.095-28.402c0.796-0.016,1.622-0.166,2.25-0.496    c0.942-0.496,2-0.579,2.875-0.49" style="fill:none;stroke:#000000;stroke-width:0.3;"/>
  <path d="M48.898-28.917c-0.032-0.012-0.063-0.023-0.096-0.036l0.125,0.055    C48.918-28.904,48.908-28.91,48.898-28.917" style="fill:none;stroke:#000000;stroke-width:0.3;"/>
  <path d="M47.345-24.641c0.723-0.004,1.44-0.118,1.958-0.409    c1.235-0.694,3.61-0.596,4.47-0.072" style="fill:none;stroke:#000000;stroke-width:0.3;"/>
  <path d="M53.772-25.122c-0.031-0.012-0.062-0.023-0.095-0.036l0.125,0.055    C53.793-25.109,53.783-25.116,53.772-25.122" style="fill:none;stroke:#000000;stroke-width:0.3;"/>
  <path d="M24.095-25.588c-0.669,0.013-1.348,0.154-1.958,0.484    c-0.659,0.355-1.431,0.472-2.167,0.453" style="fill:none;stroke:#000000;stroke-width:0.3;"/>
  <path d="M11.22-24.681c0.649-0.04,1.299-0.191,1.917-0.477    c0.54-0.25,1.383-0.372,2.208-0.384" style="fill:none;stroke:#000000;stroke-width:0.3;"/>
  <path d="M19.97-24.65c-0.94-0.023-1.819-0.266-2.333-0.508    c-0.403-0.261-1.335-0.398-2.292-0.384" style="fill:none;stroke:#000000;stroke-width:0.3;"/>
  <path d="M29.345-24.625c-1.023,0.075-2.056-0.081-2.625-0.371    c-0.692-0.353-1.649-0.609-2.625-0.592" style="fill:none;stroke:#000000;stroke-width:0.3;"/>
  <path d="M53.772-25.122c0.138,0.052,0.27,0.1,0.396,0.144" style="fill:none;stroke:#000000;stroke-width:0.3;"/>
  <path d="M42.595-25.522c0.953-0.029,1.723,0.167,2.208,0.419    c0.488,0.253,1.521,0.469,2.542,0.463" style="fill:none;stroke:#000000;stroke-width:0.3;"/>
  <path d="M1.72-24.581c-0.439-0.036-0.974-0.154-1.677-0.397" style="fill:none;stroke:#000000;stroke-width:0.3;"/>
  <path d="M5.845-25.48c-0.707,0.034-1.353,0.164-1.792,0.377    c-0.857,0.277-1.369,0.6-2.333,0.522" style="fill:none;stroke:#000000;stroke-width:0.3;"/>
  <path d="M5.845-25.48c0.906-0.042,1.912,0.073,2.708,0.377    c0.83,0.316,1.748,0.48,2.667,0.423" style="fill:none;stroke:#000000;stroke-width:0.3;"/>
  <path d="M29.345-24.625c0.675-0.05,1.345-0.199,1.875-0.479    c0.726-0.383,1.522-0.52,2.25-0.521" style="fill:none;stroke:#000000;stroke-width:0.3;"/>
  <path d="M42.595-25.522c-0.682,0.02-1.458,0.157-2.292,0.473    c-0.632,0.238-1.255,0.354-1.833,0.387" style="fill:none;stroke:#000000;stroke-width:0.3;"/>
  <path d="M38.47-24.663c-1.253,0.072-2.294-0.236-2.75-0.495    c-0.386-0.219-1.254-0.47-2.25-0.467" style="fill:none;stroke:#000000;stroke-width:0.3;"/>
  <path d="M29.345-21.94c0.89,0.035,1.647,0.262,2,0.462    c0.472,0.268,1.567,0.587,2.875,0.485" style="fill:none;stroke:#000000;stroke-width:0.3;"/>
  <path d="M6.595-20.991c-0.834,0.017-1.662-0.146-2.417-0.434    c-0.723-0.275-1.62-0.396-2.458-0.384" style="fill:none;stroke:#000000;stroke-width:0.3;"/>
  <path d="M34.22-20.993c0.543-0.042,1.121-0.156,1.708-0.378    c2-0.756,3.667-0.485,4.5-0.054c0.834,0.432,3.25,0.756,4.5,0.054c1.237-0.695,3.619-0.596,4.475-0.069" style="fill:none;stroke:#000000;stroke-width:0.3;"/>
  <path d="M19.97-21.906c-0.749-0.021-1.522,0.111-2.208,0.481    c-0.511,0.275-1.09,0.407-1.667,0.444" style="fill:none;stroke:#000000;stroke-width:0.3;"/>
  <path d="M11.22-21.863c-0.9-0.012-1.863,0.109-2.458,0.385    c-0.698,0.323-1.436,0.474-2.167,0.487" style="fill:none;stroke:#000000;stroke-width:0.3;"/>
  <path d="M49.402-21.44c2.58,0.974,3.084,0.441,4.4,0.016    c0.109-0.053,0.232-0.101,0.365-0.144" style="fill:none;stroke:#000000;stroke-width:0.3;"/>
  <path d="M16.095-20.98c-1.117,0.071-2.23-0.214-2.833-0.498    c-0.367-0.238-1.176-0.373-2.042-0.385" style="fill:none;stroke:#000000;stroke-width:0.3;"/>
  <path d="M1.72-21.809c-0.624,0.009-1.215,0.092-1.677,0.24" style="fill:none;stroke:#000000;stroke-width:0.3;"/>
  <path d="M49.402-21.44c-0.033-0.013-0.066-0.025-0.1-0.038l0.125,0.054    C49.42-21.43,49.411-21.436,49.402-21.44" style="fill:none;stroke:#000000;stroke-width:0.3;"/>
  <path d="M19.97-21.906c0.888,0.025,1.742,0.268,2.375,0.59    c0.945,0.481,3.167,0.594,4.5-0.108c0.811-0.427,1.708-0.547,2.5-0.516" style="fill:none;stroke:#000000;stroke-width:0.3;"/>
  <path d="M24.845-17.916c-0.931-0.131-1.953-0.046-2.833,0.429    c-1.5,0.81-3.584,0.378-4.5-0.054c-0.75-0.486-3.334-0.54-4.5,0c-0.698,0.323-1.436,0.474-2.167,0.487" style="fill:none;stroke:#000000;stroke-width:0.3;"/>
  <path d="M34.22-17.946c0.611,0.088,1.108,0.254,1.375,0.405    c0.667,0.378,2.583,0.863,4.583,0.107c1.217-0.46,2.31-0.539,3.167-0.435" style="fill:none;stroke:#000000;stroke-width:0.3;"/>
  <path d="M34.22-17.946c-0.917-0.132-2.091-0.085-3.125,0.459    c-0.596,0.314-1.368,0.464-2.125,0.492" style="fill:none;stroke:#000000;stroke-width:0.3;"/>
  <path d="M53.651-17.504c0.183,0.069,0.354,0.131,0.517,0.185" style="fill:none;stroke:#000000;stroke-width:0.3;"/>
  <path d="M10.845-17.054c-0.834,0.017-1.662-0.146-2.417-0.434    c-1.416-0.54-3.5-0.486-4.5,0c-1.224,0.397-1.745,0.884-3.885,0.168" style="fill:none;stroke:#000000;stroke-width:0.3;"/>
  <path d="M43.345-17.868c0.552,0.067,1.007,0.212,1.333,0.381    c0.834,0.432,3.25,0.756,4.5,0.054c1.237-0.695,3.618-0.596,4.474-0.07" style="fill:none;stroke:#000000;stroke-width:0.3;"/>
  <path d="M24.845-17.916c0.656,0.092,1.267,0.291,1.75,0.537    c0.523,0.266,1.438,0.419,2.375,0.384" style="fill:none;stroke:#000000;stroke-width:0.3;"/>
  <path d="M53.651-17.504c-0.032-0.012-0.065-0.024-0.099-0.037l0.125,0.054    C53.669-17.493,53.66-17.498,53.651-17.504" style="fill:none;stroke:#000000;stroke-width:0.3;"/>
  <path d="M54.168-14.077c-0.231,0.059-0.44,0.13-0.615,0.215    c-0.651,0.211-1.104,0.448-1.708,0.515" style="fill:none;stroke:#000000;stroke-width:0.3;"/>
  <path d="M49.152-13.878c1.303,0.491,2.076,0.6,2.692,0.53" style="fill:none;stroke:#000000;stroke-width:0.3;"/>
  <path d="M15.72-13.412c-1.074,0.044-2.127-0.229-2.708-0.504    c-0.386-0.25-1.255-0.386-2.167-0.385" style="fill:none;stroke:#000000;stroke-width:0.3;"/>
  <path d="M19.595-14.347c-0.709-0.003-1.435,0.135-2.083,0.484    c-0.548,0.296-1.174,0.426-1.792,0.45" style="fill:none;stroke:#000000;stroke-width:0.3;"/>
  <path d="M1.345-14.243c0.873-0.027,1.824,0.092,2.583,0.381    c1.417,0.54,3.09,0.638,4.584-0.054c0.567-0.263,1.47-0.385,2.333-0.385" style="fill:none;stroke:#000000;stroke-width:0.3;"/>
  <path d="M24.47-13.37c-0.938,0.035-1.852-0.118-2.375-0.384    c-0.663-0.338-1.567-0.588-2.5-0.593" style="fill:none;stroke:#000000;stroke-width:0.3;"/>
  <path d="M46.97-14.301c-0.83,0.006-1.694,0.156-2.292,0.492    c-0.458,0.257-1.072,0.377-1.708,0.403" style="fill:none;stroke:#000000;stroke-width:0.3;"/>
  <path d="M49.152-13.878c-0.033-0.013-0.066-0.025-0.1-0.038l0.125,0.054    C49.17-13.867,49.161-13.873,49.152-13.878" style="fill:none;stroke:#000000;stroke-width:0.3;"/>
  <path d="M38.095-14.284c0.896-0.009,1.619,0.182,2.083,0.422    c0.528,0.273,1.692,0.504,2.792,0.457" style="fill:none;stroke:#000000;stroke-width:0.3;"/>
  <path d="M1.345-14.243c-0.471,0.014-0.919,0.071-1.302,0.167" style="fill:none;stroke:#000000;stroke-width:0.3;"/>
  <path d="M49.152-13.878c-0.442-0.273-1.293-0.431-2.183-0.423" style="fill:none;stroke:#000000;stroke-width:0.3;"/>
  <path d="M28.97-14.382c-0.761-0.015-1.607,0.115-2.375,0.519    c-0.596,0.313-1.368,0.464-2.125,0.492" style="fill:none;stroke:#000000;stroke-width:0.3;"/>
  <path d="M33.845-13.422c-1.253,0.073-2.294-0.235-2.75-0.494    c-0.369-0.209-1.182-0.448-2.125-0.466" style="fill:none;stroke:#000000;stroke-width:0.3;"/>
  <path d="M38.095-14.284c-0.712,0.008-1.531,0.141-2.417,0.476    c-0.632,0.238-1.255,0.354-1.833,0.387" style="fill:none;stroke:#000000;stroke-width:0.3;"/>
  <path d="M53.439-9.997c0.264,0.099,0.505,0.184,0.729,0.253" style="fill:none;stroke:#000000;stroke-width:0.3;"/>
  <path d="M28.845-9.49c-0.967,0.048-1.92-0.106-2.458-0.381    c-0.524-0.267-1.197-0.477-1.917-0.558" style="fill:none;stroke:#000000;stroke-width:0.3;"/>
  <path d="M37.97-9.53c0.624-0.021,1.307-0.133,2-0.394    c1.139-0.431,2.17-0.528,3-0.453" style="fill:none;stroke:#000000;stroke-width:0.3;"/>
  <path d="M37.97-9.53c-1.178,0.037-2.147-0.256-2.583-0.503    c-0.29-0.165-0.855-0.348-1.542-0.427" style="fill:none;stroke:#000000;stroke-width:0.3;"/>
  <path d="M28.845-9.49c0.73-0.035,1.468-0.187,2.042-0.488    c0.972-0.512,2.067-0.584,2.958-0.481" style="fill:none;stroke:#000000;stroke-width:0.3;"/>
  <path d="M42.97-10.378c0.628,0.058,1.142,0.213,1.5,0.399    c0.833,0.432,3.25,0.756,4.5,0.054c1.235-0.694,3.609-0.596,4.47-0.072" style="fill:none;stroke:#000000;stroke-width:0.3;"/>
  <path d="M24.47-10.429c-0.886-0.099-1.84,0.003-2.667,0.45    c-1.5,0.81-3.583,0.378-4.5-0.055c-0.75-0.485-3.333-0.54-4.5,0C11.31-9.342,9.637-9.439,8.22-9.979c-1.417-0.54-3.5-0.486-4.5,0    c-0.904,0.293-1.426,0.636-2.5,0.505" style="fill:none;stroke:#000000;stroke-width:0.3;"/>
  <path d="M53.439-9.997c-0.031-0.013-0.062-0.023-0.095-0.036l0.125,0.055    C53.46-9.985,53.449-9.991,53.439-9.997" style="fill:none;stroke:#000000;stroke-width:0.3;"/>
  <path d="M0.043-9.743c0.463,0.145,0.846,0.23,1.177,0.27" style="fill:none;stroke:#000000;stroke-width:0.3;"/>
  <path d="M51.345-5.32c0.834,0.019,1.332-0.276,2.125-0.533    c0.195-0.095,0.433-0.174,0.698-0.234" style="fill:none;stroke:#000000;stroke-width:0.3;"/>
  <path d="M33.345-5.402c-1.064-0.008-1.929-0.276-2.333-0.506    c-0.667-0.378-2.778-0.853-4.5,0.055c-0.706,0.371-1.66,0.515-2.542,0.496" style="fill:none;stroke:#000000;stroke-width:0.3;"/>
  <path d="M1.22-6.233c0.885-0.032,1.853,0.086,2.625,0.38    c1.417,0.54,3.09,0.637,4.583-0.055c1.167-0.54,3.75-0.485,4.5,0c0.507,0.239,1.369,0.477,2.292,0.507" style="fill:none;stroke:#000000;stroke-width:0.3;"/>
  <path d="M42.47-5.392c-0.966-0.017-1.913-0.223-2.375-0.462    c-0.833-0.433-2.5-0.702-4.5,0.054c-0.787,0.297-1.561,0.401-2.25,0.397" style="fill:none;stroke:#000000;stroke-width:0.3;"/>
  <path d="M0.043-6.088c0.352-0.081,0.755-0.13,1.177-0.145" style="fill:none;stroke:#000000;stroke-width:0.3;"/>
  <path d="M42.47-5.392c0.777,0.014,1.567-0.095,2.125-0.408    c1.235-0.694,3.611-0.596,4.471-0.072" style="fill:none;stroke:#000000;stroke-width:0.3;"/>
  <path d="M15.22-5.401c0.748,0.023,1.536-0.09,2.208-0.452    c0.636-0.344,1.346-0.482,2.042-0.484" style="fill:none;stroke:#000000;stroke-width:0.3;"/>
  <path d="M51.345-5.32c-0.552-0.013-1.251-0.162-2.279-0.552" style="fill:none;stroke:#000000;stroke-width:0.3;"/>
  <path d="M49.065-5.872c-0.031-0.012-0.063-0.023-0.096-0.036l0.125,0.055    C49.085-5.859,49.075-5.865,49.065-5.872" style="fill:none;stroke:#000000;stroke-width:0.3;"/>
  <path d="M23.97-5.357c-0.785-0.017-1.514-0.162-1.958-0.389    c-0.673-0.342-1.595-0.595-2.542-0.592" style="fill:none;stroke:#000000;stroke-width:0.3;"/>
  <path d="M5.72-2.738C6.496-2.73,7.306-2.606,7.97-2.353    C8.712-2.07,9.524-1.91,10.345-1.92" style="fill:none;stroke:#000000;stroke-width:0.3;"/>
  <path d="M53.189-2.372C52.33-2.895,49.955-2.994,48.72-2.3    c-0.588,0.33-1.433,0.434-2.25,0.405" style="fill:none;stroke:#000000;stroke-width:0.3;"/>
  <path d="M0.043-2.044C1.808-1.543,2.339-1.987,3.47-2.353    c0.531-0.259,1.369-0.395,2.25-0.385" style="fill:none;stroke:#000000;stroke-width:0.3;"/>
  <path d="M42.47-2.77c0.742,0.034,1.345,0.206,1.75,0.416    c0.441,0.228,1.328,0.428,2.25,0.459" style="fill:none;stroke:#000000;stroke-width:0.3;"/>
  <path d="M53.189-2.372c-0.031-0.013-0.062-0.023-0.095-0.036l0.125,0.055    C53.21-2.359,53.2-2.366,53.189-2.372" style="fill:none;stroke:#000000;stroke-width:0.3;"/>
  <path d="M53.189-2.372c0.365,0.138,0.688,0.246,0.979,0.328" style="fill:none;stroke:#000000;stroke-width:0.3;"/>
  <path d="M23.97-2.826c-0.812-0.055-1.667,0.067-2.417,0.473    c-0.747,0.403-1.638,0.498-2.458,0.439" style="fill:none;stroke:#000000;stroke-width:0.3;"/>
  <path d="M19.095-1.914c-0.827-0.06-1.582-0.277-2.042-0.494    c-0.75-0.485-3.333-0.54-4.5,0c-0.711,0.329-1.463,0.48-2.208,0.488" style="fill:none;stroke:#000000;stroke-width:0.3;"/>
  <path d="M23.97-2.826c0.812,0.054,1.584,0.283,2.167,0.58    c0.944,0.481,3.166,0.595,4.5-0.107c1.722-0.907,3.833-0.433,4.5-0.055C35.803-2.03,37.72-1.544,39.72-2.3    c1.027-0.389,1.967-0.506,2.75-0.47" style="fill:none;stroke:#000000;stroke-width:0.3;"/>
  <line x2="46.47" style="fill:none;stroke:#000000;stroke-width:0.3;" x1="46.47" y1="-1.895" y2="-1.918"/>
  <line x2="46.47" style="fill:none;stroke:#000000;stroke-width:0.3;" x1="46.47" y1="-1.895" y2="0"/>
  <line x2="37.595" style="fill:none;stroke:#000000;stroke-width:0.3;" x1="37.595" y1="-1.872" y2="0"/>
  <line x2="28.47" style="fill:none;stroke:#000000;stroke-width:0.3;" x1="28.47" y1="-1.827" y2="0"/>
  <line x2="19.095" style="fill:none;stroke:#000000;stroke-width:0.3;" x1="19.095" y1="-1.914" y2="0"/>
  <line x2="19.095" style="fill:none;stroke:#000000;stroke-width:0.3;" x1="19.095" y1="-1.985" y2="-1.914"/>
  <line x2="10.345" style="fill:none;stroke:#000000;stroke-width:0.3;" x1="10.345" y1="-1.92" y2="0"/>
  <line x2="10.345" style="fill:none;stroke:#000000;stroke-width:0.3;" x1="10.345" y1="-1.92" y2="-1.94"/>
  <line x2="0.845" style="fill:none;stroke:#000000;stroke-width:0.3;" x1="0.845" y1="-1.86" y2="0"/>
  <rect width="54.125" height="54.125" x="0.043" style="fill:none;" y="-54.125"/>
 </g>
</svg>
