<?xml version="1.0"?>
<!-- Converted with SVG Converter - Version 0.9.5 (Compiled Fri Feb 21 09:53:38 2020) - Copyright (C) 2011 Nokia -->
<svg xmlns="http://www.w3.org/2000/svg" xml:space="preserve" viewBox="0.064 -54.147 54 54" width="54" version="1.1" y="0px" baseProfile="tiny" height="54" xmlns:xlink="http://www.w3.org/1999/xlink" x="0px">
 <g>
  <rect width="54" y="-54.147" height="54" x="0.064" style="fill:none;"/>
  <path d="M38.394-47.419c-3.167,1.016-6.389,1.959-9.553,2.815" style="fill:none;stroke:#000000;stroke-width:0.3;"/>
  <path d="M22.103-42.883c2.187-0.524,4.447-1.1,6.738-1.721" style="fill:none;stroke:#000000;stroke-width:0.3;"/>
  <path d="M46.957-50.409c2.504-0.958,4.896-1.957,7.106-2.988" style="fill:none;stroke:#000000;stroke-width:0.3;"/>
  <path d="M46.957-50.409c-2.748,1.051-5.633,2.052-8.563,2.99" style="fill:none;stroke:#000000;stroke-width:0.3;"/>
  <path d="M5.231-39.647c4.093-0.487,10.134-1.62,16.872-3.235" style="fill:none;stroke:#000000;stroke-width:0.3;"/>
  <line x2="1.671" x1="0.064" y2="-54.147" style="fill:none;stroke:#000000;stroke-width:0.3;" y1="-53.397"/>
  <line x2="3.736" x1="1.781" y2="-1.06" style="fill:none;stroke:#000000;stroke-width:0.3;" y1="-0.147"/>
  <line x2="3.736" x1="3.813" y2="-1.06" style="fill:none;stroke:#000000;stroke-width:0.3;" y1="-1.096"/>
  <path d="M32.573-3.394c4.426,1.295,9.135,2.425,14.085,3.246" style="fill:none;stroke:#000000;stroke-width:0.3;"/>
  <path d="M4.554-14.245c-0.052-0.023-0.104-0.046-0.156-0.068" style="fill:none;stroke:#000000;stroke-width:0.3;"/>
  <path d="M19.801-7.773c-5.945-2.314-11.083-4.66-15.247-6.473" style="fill:none;stroke:#000000;stroke-width:0.3;"/>
  <path d="M19.801-7.773c3.922,1.527,8.195,3.041,12.772,4.379" style="fill:none;stroke:#000000;stroke-width:0.3;"/>
  <path d="M22.071-17.144c-1.496,0.316-2.999,0.62-4.501,0.906" style="fill:none;stroke:#000000;stroke-width:0.3;"/>
  <path d="M0.064-13.845c1.464-0.099,2.964-0.234,4.49-0.4" style="fill:none;stroke:#000000;stroke-width:0.3;"/>
  <path d="M31.233-19.257c-2.981,0.741-6.057,1.456-9.162,2.113" style="fill:none;stroke:#000000;stroke-width:0.3;"/>
  <path d="M46.244-23.406c-4.4,1.341-9.544,2.789-15.011,4.149" style="fill:none;stroke:#000000;stroke-width:0.3;"/>
  <path d="M17.57-16.237c-4.412,0.84-8.814,1.534-13.017,1.992" style="fill:none;stroke:#000000;stroke-width:0.3;"/>
  <path d="M46.244-23.406c2.994-0.913,5.645-1.776,7.819-2.529" style="fill:none;stroke:#000000;stroke-width:0.3;"/>
  <path d="M54.063-41.348c-0.443-0.156-0.881-0.312-1.312-0.466" style="fill:none;stroke:#000000;stroke-width:0.3;"/>
  <path d="M38.251-47.48c0.047,0.021,0.095,0.041,0.143,0.062" style="fill:none;stroke:#000000;stroke-width:0.3;"/>
  <path d="M52.752-41.813c-6.389-2.287-11.397-4.322-14.358-5.605" style="fill:none;stroke:#000000;stroke-width:0.3;"/>
  <path d="M48.554-13.646c1.762,0.001,3.605-0.068,5.51-0.197" style="fill:none;stroke:#000000;stroke-width:0.3;"/>
  <path d="M38.034-13.966c-4.135-0.297-11.548-1.04-15.963-3.178" style="fill:none;stroke:#000000;stroke-width:0.3;"/>
  <line x2="22.071" x1="22.063" y2="-17.144" style="fill:none;stroke:#000000;stroke-width:0.3;" y1="-17.147"/>
  <path d="M48.554-13.646c-0.157,0-0.313-0.001-0.469-0.002    c0,0-5.021,0-7.688-0.166c-0.526-0.033-1.346-0.079-2.363-0.152" style="fill:none;stroke:#000000;stroke-width:0.3;"/>
  <path d="M48.434-29.037c1.877,0.263,3.755,0.494,5.63,0.69" style="fill:none;stroke:#000000;stroke-width:0.3;"/>
  <path d="M19.83-35.115c8.946,2.474,18.75,4.701,28.604,6.078" style="fill:none;stroke:#000000;stroke-width:0.3;"/>
  <path d="M19.83-35.115C12.523-37.136,5.787-39.32,0.064-41.34" style="fill:none;stroke:#000000;stroke-width:0.3;"/>
  <path d="M0.064-41.939c10.037-0.982,33.116-3.918,46.167-8.374" style="fill:none;stroke:#000000;stroke-width:0.3;"/>
  <path d="M0.064-46.275c13.564-0.652,35.088-2.331,49.21-7.437" style="fill:none;stroke:#000000;stroke-width:0.3;"/>
  <path d="M0.064-50.354c12.498-0.097,30.292-1.107,42.731-3.793" style="fill:none;stroke:#000000;stroke-width:0.3;"/>
  <path d="M44.567-0.509c-0.517,0.124-1.044,0.244-1.581,0.361" style="fill:none;stroke:#000000;stroke-width:0.3;"/>
  <path d="M38.443-1.737C26.895-0.452,14.011-0.55,3.736-1.06" style="fill:none;stroke:#000000;stroke-width:0.3;"/>
  <path d="M3.736-1.06C2.47-1.123,1.243-1.191,0.064-1.266" style="fill:none;stroke:#000000;stroke-width:0.3;"/>
  <path d="M15.231-41.313c1.044,0.461,2.104,0.905,3.177,1.332" style="fill:none;stroke:#000000;stroke-width:0.3;"/>
  <path d="M39.532-33.83c4.901,1.005,9.8,1.767,14.531,2.326" style="fill:none;stroke:#000000;stroke-width:0.3;"/>
  <path d="M18.407-39.981c6.702,2.667,13.917,4.673,21.125,6.151" style="fill:none;stroke:#000000;stroke-width:0.3;"/>
  <path d="M22.103-42.883c0.858,0.404,1.893,0.833,3.076,1.276" style="fill:none;stroke:#000000;stroke-width:0.3;"/>
  <path d="M22.103-42.883c-0.069-0.033-0.138-0.065-0.205-0.098" style="fill:none;stroke:#000000;stroke-width:0.3;"/>
  <path d="M25.179-41.606c6.585,2.466,17.777,5.386,28.885,7.177" style="fill:none;stroke:#000000;stroke-width:0.3;"/>
  <path d="M31.949-43.35c2.669,1.071,5.935,2.348,9.604,3.584" style="fill:none;stroke:#000000;stroke-width:0.3;"/>
  <path d="M28.841-44.604c-0.037-0.015-0.074-0.029-0.11-0.044" style="fill:none;stroke:#000000;stroke-width:0.3;"/>
  <path d="M54.063-36.325c-4.461-0.92-8.703-2.158-12.51-3.44" style="fill:none;stroke:#000000;stroke-width:0.3;"/>
  <path d="M31.949-43.35c-1.152-0.463-2.194-0.887-3.108-1.254" style="fill:none;stroke:#000000;stroke-width:0.3;"/>
  <path d="M34.397-46.147c7.445,3.005,10.898,5.19,19.666,6.717" style="fill:none;stroke:#000000;stroke-width:0.3;"/>
  <path d="M26.074-33.406c-6.455,1.261-16.202,0.555-26.011-1.029" style="fill:none;stroke:#000000;stroke-width:0.3;"/>
  <path d="M0.064-36.334c0.163,0.033,0.326,0.067,0.49,0.1" style="fill:none;stroke:#000000;stroke-width:0.3;"/>
  <path d="M19.83-35.115c0.092-0.011,0.184-0.021,0.275-0.032" style="fill:none;stroke:#000000;stroke-width:0.3;"/>
  <path d="M7.887-35.115c3.955,0.4,7.98,0.457,11.943,0" style="fill:none;stroke:#000000;stroke-width:0.3;"/>
  <path d="M7.887-35.115c-2.483-0.251-4.939-0.638-7.333-1.119" style="fill:none;stroke:#000000;stroke-width:0.3;"/>
  <path d="M8.773-38.313c-3.215-0.305-5.9-0.65-8.219-1.04" style="fill:none;stroke:#000000;stroke-width:0.3;"/>
  <path d="M0.064-39.438c0.161,0.028,0.325,0.056,0.49,0.084" style="fill:none;stroke:#000000;stroke-width:0.3;"/>
  <line x2="52.751" x1="52.752" y2="-41.813" style="fill:none;stroke:#000000;stroke-width:0.3;" y1="-41.813"/>
  <path d="M54.063-41.938c-0.466,0.045-0.904,0.087-1.312,0.124" style="fill:none;stroke:#000000;stroke-width:0.3;"/>
  <path d="M54.063-46.274c-5.79,0.278-10.127,0.37-11.812,0.461" style="fill:none;stroke:#000000;stroke-width:0.3;"/>
  <path d="M46.957-50.409c2.064,0.055,4.468,0.075,7.106,0.055" style="fill:none;stroke:#000000;stroke-width:0.3;"/>
  <path d="M46.957-50.409c-0.024-0.001-0.048-0.001-0.071-0.002" style="fill:none;stroke:#000000;stroke-width:0.3;"/>
  <path d="M5.277-27.933c-1.561-0.087-3.113-0.19-4.645-0.307" style="fill:none;stroke:#000000;stroke-width:0.3;"/>
  <path d="M15.116-27.612c10.312,0.095,20.124-0.617,26.518-2.448" style="fill:none;stroke:#000000;stroke-width:0.3;"/>
  <path d="M0.064-28.284c0.189,0.016,0.379,0.03,0.568,0.045" style="fill:none;stroke:#000000;stroke-width:0.3;"/>
  <path d="M5.277-27.933c3.269,0.181,6.579,0.291,9.839,0.32" style="fill:none;stroke:#000000;stroke-width:0.3;"/>
  <path d="M20.991-23.921c-6.977,0.58-14.185,0.811-20.928,0.74" style="fill:none;stroke:#000000;stroke-width:0.3;"/>
  <path d="M48.434-29.037c-7.076,2.597-17.001,4.248-27.442,5.116" style="fill:none;stroke:#000000;stroke-width:0.3;"/>
  <path d="M48.434-29.037c0.007-0.002,0.014-0.004,0.021-0.007" style="fill:none;stroke:#000000;stroke-width:0.3;"/>
  <path d="M0.064-17.857c21.369-1.635,46.96-8.085,54-10.109" style="fill:none;stroke:#000000;stroke-width:0.3;"/>
  <path d="M46.244-23.406c-0.019-0.001-0.038-0.002-0.058-0.003" style="fill:none;stroke:#000000;stroke-width:0.3;"/>
  <path d="M46.244-23.406c2.502,0.121,5.123,0.197,7.819,0.226" style="fill:none;stroke:#000000;stroke-width:0.3;"/>
  <path d="M31.233-19.257c-0.015-0.005-0.03-0.011-0.045-0.016" style="fill:none;stroke:#000000;stroke-width:0.3;"/>
  <path d="M31.233-19.257c2.691,0.926,7.092,1.298,9.268,1.484    c2.188,0.188,5.062,0.292,5.062,0.292c2.715-0.019,5.567-0.153,8.5-0.377" style="fill:none;stroke:#000000;stroke-width:0.3;"/>
  <path d="M32.573-3.394C25.356-3.128,13.036-3.19,0.064-4.633" style="fill:none;stroke:#000000;stroke-width:0.3;"/>
  <path d="M32.573-3.394c0.038-0.001,0.077-0.003,0.115-0.004" style="fill:none;stroke:#000000;stroke-width:0.3;"/>
  <path d="M15.736-5.828C11.578-5.938,6.496-6.353,0.064-7.38" style="fill:none;stroke:#000000;stroke-width:0.3;"/>
  <path d="M24.438-6.023c-2.427,0.162-5.245,0.284-8.702,0.194" style="fill:none;stroke:#000000;stroke-width:0.3;"/>
  <path d="M2.903-9.237c-0.929-0.151-1.877-0.316-2.84-0.495" style="fill:none;stroke:#000000;stroke-width:0.3;"/>
  <path d="M19.801-7.773C16.742-7.695,10.457-8.01,2.903-9.237" style="fill:none;stroke:#000000;stroke-width:0.3;"/>
  <path d="M19.801-7.773c0.005,0,0.009,0,0.013,0" style="fill:none;stroke:#000000;stroke-width:0.3;"/>
  <path d="M15.439-9.523c-4.168,0-7.996-0.454-15.375-3.632" style="fill:none;stroke:#000000;stroke-width:0.3;"/>
  <path d="M17.57-13.29c-1.56-0.648-3.115-1.35-4.632-2.108" style="fill:none;stroke:#000000;stroke-width:0.3;"/>
  <path d="M17.57-13.29c10.528,4.371,21.243,6.267,21.243,6.267    c5.006,1.051,10.178,1.826,15.25,2.391" style="fill:none;stroke:#000000;stroke-width:0.3;"/>
  <path d="M20.188-16.647c4.875,2.375,17.25,5.875,17.25,5.875    c6.393,1.544,11.877,2.635,16.625,3.393" style="fill:none;stroke:#000000;stroke-width:0.3;"/>
  <line x2="37.949" x1="38.034" y2="-13.993" style="fill:none;stroke:#000000;stroke-width:0.3;" y1="-13.966"/>
  <path d="M38.034-13.966l4.404,1.443c3.967,1.187,7.911,2.098,11.625,2.79" style="fill:none;stroke:#000000;stroke-width:0.3;"/>
  <path d="M52.938-13.648c0.384,0.171,0.759,0.336,1.125,0.493" style="fill:none;stroke:#000000;stroke-width:0.3;"/>
  <path d="M39.595-2.908c1.661,0.351,2.469,0.511,2.469,0.511l0.334,0.125    c2.556,0.304,6.25,0.652,10.666,0.943" style="fill:none;stroke:#000000;stroke-width:0.3;"/>
  <path d="M39.595-2.908c-2.867-0.605-8.277-1.777-16.469-3.677" style="fill:none;stroke:#000000;stroke-width:0.3;"/>
  <path d="M53.063-1.329c0.329,0.021,0.663,0.043,1,0.064" style="fill:none;stroke:#000000;stroke-width:0.3;"/>
  <path d="M36.23-31.147c-5.768,1.117-19.995,1.559-36.167-0.356" style="fill:none;stroke:#000000;stroke-width:0.3;"/>
  <path d="M0.064-27.967c0.069-0.019,0.138-0.039,0.204-0.059l0.364-0.214" style="fill:none;stroke:#000000;stroke-width:0.3;"/>
  <line x2="0.632" x1="0.688" y2="-28.239" style="fill:none;stroke:#000000;stroke-width:0.3;" y1="-28.272"/>
  <path d="M5.277-27.933l-0.214,0.119c-1.09,0.471-2.802,1.118-5,1.878" style="fill:none;stroke:#000000;stroke-width:0.3;"/>
  <line x2="5.438" x1="5.277" y2="-28.022" style="fill:none;stroke:#000000;stroke-width:0.3;" y1="-27.933"/>
  <path d="M46.659-54.147c2.288,0.38,4.628,0.693,7.015,0.926" style="fill:none;stroke:#000000;stroke-width:0.3;"/>
  <path d="M11.898-48.98c0-0.917-3-0.888-3,0.167    C8.898-47.98,11.898-47.894,11.898-48.98z" style="fill:none;stroke:#000000;stroke-width:0.3;"/>
  <path d="M29.777-38.074c-0.281,0.784,2.513,1.88,2.88,0.856    C32.967-38.08,30.134-39.066,29.777-38.074z" style="fill:none;stroke:#000000;stroke-width:0.3;"/>
  <path d="M7.119-25.514c-0.016,0.833,2.982,0.974,3.002-0.112    C10.138-26.543,7.138-26.568,7.119-25.514z" style="fill:none;stroke:#000000;stroke-width:0.3;"/>
  <path d="M33.706-16.43c-0.164,0.816,2.76,1.492,2.974,0.428    C36.86-16.901,33.913-17.463,33.706-16.43z" style="fill:none;stroke:#000000;stroke-width:0.3;"/>
  <path d="M26.081-7.951c-0.164,0.817,2.76,1.493,2.974,0.428    C29.235-8.422,26.288-8.984,26.081-7.951z" style="fill:none;stroke:#000000;stroke-width:0.3;"/>
  <path d="M48.597-6.919c0.181-0.898-2.767-1.461-2.975-0.428    C45.458-6.529,48.383-5.853,48.597-6.919z" style="fill:none;stroke:#000000;stroke-width:0.3;"/>
  <path d="M0.506-20.522c0.056,0.831,3.055,0.715,2.981-0.369    C3.426-21.806,0.435-21.574,0.506-20.522z" style="fill:none;stroke:#000000;stroke-width:0.3;"/>
  <path d="M44.902-31.512c-0.281,0.784,2.513,1.88,2.88,0.856    C48.092-31.518,45.259-32.504,44.902-31.512z" style="fill:none;stroke:#000000;stroke-width:0.3;"/>
  <path d="M42.326-50.522c0,0.5,1.8,0.553,1.8-0.1    C44.126-51.172,42.326-51.154,42.326-50.522z" style="fill:none;stroke:#000000;stroke-width:0.3;"/>
  <path d="M33.001-50.872c0-0.55-1.8-0.532-1.8,0.1    C31.201-50.272,33.001-50.22,33.001-50.872z" style="fill:none;stroke:#000000;stroke-width:0.3;"/>
  <path d="M53.063-47.98c0-0.55-1.8-0.532-1.8,0.101    C51.264-47.38,53.063-47.328,53.063-47.98z" style="fill:none;stroke:#000000;stroke-width:0.3;"/>
  <path d="M6.688-41.272c0-0.55-1.8-0.532-1.8,0.101    C4.889-40.672,6.688-40.62,6.688-41.272z" style="fill:none;stroke:#000000;stroke-width:0.3;"/>
  <path d="M24.813-19.147c0-0.55-1.8-0.532-1.8,0.101    C23.014-18.547,24.813-18.495,24.813-19.147z" style="fill:none;stroke:#000000;stroke-width:0.3;"/>
  <path d="M40.93-44.792c0.254-0.488-1.351-1.304-1.643-0.743    C39.056-45.092,40.629-44.214,40.93-44.792z" style="fill:none;stroke:#000000;stroke-width:0.3;"/>
  <path d="M4.598-16.437c-0.044,0.498,1.744,0.708,1.802,0.059    C6.447-16.926,4.653-17.066,4.598-16.437z" style="fill:none;stroke:#000000;stroke-width:0.3;"/>
  <path d="M2.899-10.878c0.048-0.548-1.746-0.688-1.802-0.059    C1.054-10.439,2.842-10.229,2.899-10.878z" style="fill:none;stroke:#000000;stroke-width:0.3;"/>
  <path d="M16.563-21.647c0.049-0.548-1.746-0.688-1.802-0.059    C14.718-21.208,16.507-20.998,16.563-21.647z" style="fill:none;stroke:#000000;stroke-width:0.3;"/>
  <path d="M6.649-5.356c0.048-0.548-1.746-0.689-1.802-0.06    C4.804-4.918,6.592-4.707,6.649-5.356z" style="fill:none;stroke:#000000;stroke-width:0.3;"/>
  <path d="M17.929-2.206c-0.044,0.498,1.744,0.708,1.802,0.059    C19.779-2.695,17.984-2.836,17.929-2.206z" style="fill:none;stroke:#000000;stroke-width:0.3;"/>
  <path d="M20.063-31.48c0.049-0.548-1.746-0.688-1.802-0.059    C18.218-31.041,20.007-30.831,20.063-31.48z" style="fill:none;stroke:#000000;stroke-width:0.3;"/>
  <path d="M35.188-33.272c0.049-0.548-1.746-0.688-1.802-0.059    C33.343-32.833,35.132-32.623,35.188-33.272z" style="fill:none;stroke:#000000;stroke-width:0.3;"/>
  <path d="M3.063-32.813c0.049-0.548-1.746-0.689-1.802-0.06    C1.218-32.375,3.007-32.164,3.063-32.813z" style="fill:none;stroke:#000000;stroke-width:0.3;"/>
  <path d="M31.355-23.585c0.049-0.548-1.746-0.688-1.802-0.059    C29.51-23.146,31.298-22.935,31.355-23.585z" style="fill:none;stroke:#000000;stroke-width:0.3;"/>
  <path d="M22.501-46.626c0,0.833,3,0.92,3-0.167    C25.501-47.71,22.501-47.681,22.501-46.626z" style="fill:none;stroke:#000000;stroke-width:0.3;"/>
  <path d="M50.256-38.672c0.281-0.873-2.584-1.765-2.907-0.762    C47.094-38.64,49.923-37.638,50.256-38.672z" style="fill:none;stroke:#000000;stroke-width:0.3;"/>
  <line x2="8.731" x1="11.231" y2="-45.48" style="fill:none;stroke:#000000;stroke-width:0.3;" y1="-44.48"/>
  <line x2="33.105" x1="30.605" y2="-20.48" style="fill:none;stroke:#000000;stroke-width:0.3;" y1="-21.48"/>
  <line x2="20.668" x1="18.168" y2="-28.355" style="fill:none;stroke:#000000;stroke-width:0.3;" y1="-29.355"/>
  <line x2="46.272" x1="43.772" y2="-47.063" style="fill:none;stroke:#000000;stroke-width:0.3;" y1="-48.063"/>
  <line x2="21.918" x1="23.188" y2="-37.168" style="fill:none;stroke:#000000;stroke-width:0.3;" y1="-35.272"/>
  <line x2="25.668" x1="26.938" y2="-26.918" style="fill:none;stroke:#000000;stroke-width:0.3;" y1="-25.022"/>
  <line x2="38.793" x1="40.063" y2="-9.606" style="fill:none;stroke:#000000;stroke-width:0.3;" y1="-7.71"/>
  <line x2="42.438" x1="41.168" y2="-14.523" style="fill:none;stroke:#000000;stroke-width:0.3;" y1="-16.418"/>
  <line x2="16.293" x1="17.563" y2="-12.106" style="fill:none;stroke:#000000;stroke-width:0.3;" y1="-10.21"/>
  <line x2="7.188" x1="5.918" y2="-1.085" style="fill:none;stroke:#000000;stroke-width:0.3;" y1="-2.98"/>
  <line x2="35.938" x1="34.668" y2="-35.585" style="fill:none;stroke:#000000;stroke-width:0.3;" y1="-37.48"/>
  <line x2="3.813" x1="2.543" y2="-23.835" style="fill:none;stroke:#000000;stroke-width:0.3;" y1="-25.73"/>
  <line x2="24.585" x1="27.085" y2="-53.71" style="fill:none;stroke:#000000;stroke-width:0.3;" y1="-52.71"/>
  <line x2="4.751" x1="2.251" y2="-48.022" style="fill:none;stroke:#000000;stroke-width:0.3;" y1="-49.022"/>
  <line x2="27.647" x1="29.397" y2="-46.897" style="fill:none;stroke:#000000;stroke-width:0.3;" y1="-48.23"/>
  <line x2="27.563" x1="29.313" y2="-10.648" style="fill:none;stroke:#000000;stroke-width:0.3;" y1="-11.981"/>
  <line x2="51.96" x1="50.21" y2="-3.918" style="fill:none;stroke:#000000;stroke-width:0.3;" y1="-2.585"/>
  <line x2="21.647" x1="23.397" y2="-3.71" style="fill:none;stroke:#000000;stroke-width:0.3;" y1="-5.043"/>
  <line x2="40.46" x1="42.21" y2="-19.21" style="fill:none;stroke:#000000;stroke-width:0.3;" y1="-20.543"/>
  <line x2="10.523" x1="8.773" y2="-29.73" style="fill:none;stroke:#000000;stroke-width:0.3;" y1="-28.397"/>
  <line x2="15.314" x1="13.273" y2="-17.522" style="fill:none;stroke:#000000;stroke-width:0.3;" y1="-16.835"/>
  <line x2="23.397" x1="21.647" y2="-50.355" style="fill:none;stroke:#000000;stroke-width:0.3;" y1="-49.022"/>
  <line x2="27.444" x1="29.613" y2="-34.508" style="fill:none;stroke:#000000;stroke-width:0.3;" y1="-34.875"/>
  <line x2="5.876" x1="7.626" y2="-51.48" style="fill:none;stroke:#000000;stroke-width:0.3;" y1="-52.813"/>
  <line x2="11.512" x1="11.512" y2="-54.147" style="fill:none;stroke:#000000;stroke-width:0.3;" y1="-50.701"/>
  <line x2="30.782" x1="30.782" y2="-54.147" style="fill:none;stroke:#000000;stroke-width:0.3;" y1="-52.264"/>
  <line x2="11.512" x1="11.512" y2="-0.743" style="fill:none;stroke:#000000;stroke-width:0.3;" y1="-0.147"/>
  <line x2="30.782" x1="30.782" y2="-1.056" style="fill:none;stroke:#000000;stroke-width:0.3;" y1="-0.147"/>
  <line x2="15.366" x1="15.366" y2="-50.784" style="fill:none;stroke:#000000;stroke-width:0.3;" y1="-47.347"/>
  <line x2="2.304" x1="2.304" y2="-42.243" style="fill:none;stroke:#000000;stroke-width:0.3;" y1="-46.284"/>
  <line x2="34.866" x1="34.866" y2="-47.326" style="fill:none;stroke:#000000;stroke-width:0.3;" y1="-49.951"/>
  <line x2="48.22" x1="48.22" y2="-46.139" style="fill:none;stroke:#000000;stroke-width:0.3;" y1="-50.368"/>
  <line x2="17.595" x1="17.595" y2="-41.889" style="fill:none;stroke:#000000;stroke-width:0.3;" y1="-44.118"/>
  <line x2="0.554" x1="0.554" y2="-39.354" style="fill:none;stroke:#000000;stroke-width:0.3;" y1="-36.234"/>
  <line x2="0.554" x1="0.554" y2="-39.354" style="fill:none;stroke:#000000;stroke-width:0.3;" y1="-39.368"/>
  <line x2="0.554" x1="0.554" y2="-36.201" style="fill:none;stroke:#000000;stroke-width:0.3;" y1="-36.234"/>
  <line x2="25.179" x1="25.179" y2="-41.722" style="fill:none;stroke:#000000;stroke-width:0.3;" y1="-41.606"/>
  <line x2="25.179" x1="25.179" y2="-37.681" style="fill:none;stroke:#000000;stroke-width:0.3;" y1="-41.606"/>
  <line x2="31.949" x1="31.949" y2="-39.493" style="fill:none;stroke:#000000;stroke-width:0.3;" y1="-43.35"/>
  <line x2="31.949" x1="31.949" y2="-43.368" style="fill:none;stroke:#000000;stroke-width:0.3;" y1="-43.35"/>
  <line x2="41.554" x1="41.554" y2="-39.766" style="fill:none;stroke:#000000;stroke-width:0.3;" y1="-39.722"/>
  <line x2="41.554" x1="41.554" y2="-39.766" style="fill:none;stroke:#000000;stroke-width:0.3;" y1="-43.034"/>
  <line x2="36.887" x1="36.887" y2="-37.951" style="fill:none;stroke:#000000;stroke-width:0.3;" y1="-34.534"/>
  <line x2="18.407" x1="18.407" y2="-40.034" style="fill:none;stroke:#000000;stroke-width:0.3;" y1="-39.981"/>
  <line x2="18.407" x1="18.407" y2="-35.597" style="fill:none;stroke:#000000;stroke-width:0.3;" y1="-39.981"/>
  <line x2="39.532" x1="39.532" y2="-33.931" style="fill:none;stroke:#000000;stroke-width:0.3;" y1="-33.83"/>
  <line x2="39.532" x1="39.532" y2="-30.514" style="fill:none;stroke:#000000;stroke-width:0.3;" y1="-33.83"/>
  <line x2="50.47" x1="50.47" y2="-31.868" style="fill:none;stroke:#000000;stroke-width:0.3;" y1="-28.826"/>
  <line x2="27.47" x1="27.47" y2="-30.326" style="fill:none;stroke:#000000;stroke-width:0.3;" y1="-33.034"/>
  <line x2="48.304" x1="48.304" y2="-26.368" style="fill:none;stroke:#000000;stroke-width:0.3;" y1="-24.118"/>
  <line x2="36.574" x1="36.574" y2="-23.534" style="fill:none;stroke:#000000;stroke-width:0.3;" y1="-20.743"/>
  <line x2="31.116" x1="31.116" y2="-28.201" style="fill:none;stroke:#000000;stroke-width:0.3;" y1="-25.159"/>
  <line x2="12.199" x1="12.199" y2="-30.368" style="fill:none;stroke:#000000;stroke-width:0.3;" y1="-27.722"/>
  <line x2="7.887" x1="7.887" y2="-35.118" style="fill:none;stroke:#000000;stroke-width:0.3;" y1="-35.115"/>
  <line x2="7.887" x1="7.887" y2="-33.451" style="fill:none;stroke:#000000;stroke-width:0.3;" y1="-35.115"/>
  <line x2="15.116" x1="15.116" y2="-27.618" style="fill:none;stroke:#000000;stroke-width:0.3;" y1="-27.612"/>
  <line x2="15.116" x1="15.116" y2="-27.612" style="fill:none;stroke:#000000;stroke-width:0.3;" y1="-23.576"/>
  <line x2="6.366" x1="6.366" y2="-18.472" style="fill:none;stroke:#000000;stroke-width:0.3;" y1="-23.118"/>
  <line x2="20.991" x1="20.991" y2="-20.722" style="fill:none;stroke:#000000;stroke-width:0.3;" y1="-23.921"/>
  <line x2="20.991" x1="20.991" y2="-23.921" style="fill:none;stroke:#000000;stroke-width:0.3;" y1="-23.951"/>
  <line x2="9.782" x1="9.782" y2="-18.784" style="fill:none;stroke:#000000;stroke-width:0.3;" y1="-15.056"/>
  <line x2="50.199" x1="50.199" y2="-23.201" style="fill:none;stroke:#000000;stroke-width:0.3;" y1="-17.659"/>
  <line x2="27.354" x1="27.354" y2="-15.472" style="fill:none;stroke:#000000;stroke-width:0.3;" y1="-18.264"/>
  <line x2="48.554" x1="48.554" y2="-10.972" style="fill:none;stroke:#000000;stroke-width:0.3;" y1="-13.646"/>
  <line x2="48.554" x1="48.554" y2="-13.701" style="fill:none;stroke:#000000;stroke-width:0.3;" y1="-13.646"/>
  <line x2="31.741" x1="31.741" y2="-8.701" style="fill:none;stroke:#000000;stroke-width:0.3;" y1="-12.451"/>
  <line x2="17.57" x1="17.57" y2="-13.284" style="fill:none;stroke:#000000;stroke-width:0.3;" y1="-13.29"/>
  <line x2="17.57" x1="17.57" y2="-16.237" style="fill:none;stroke:#000000;stroke-width:0.3;" y1="-16.359"/>
  <line x2="17.57" x1="17.57" y2="-16.237" style="fill:none;stroke:#000000;stroke-width:0.3;" y1="-13.29"/>
  <line x2="21.679" x1="21.679" y2="-11.681" style="fill:none;stroke:#000000;stroke-width:0.3;" y1="-7.118"/>
  <line x2="39.595" x1="39.595" y2="-6.826" style="fill:none;stroke:#000000;stroke-width:0.3;" y1="-2.908"/>
  <line x2="39.595" x1="39.595" y2="-2.868" style="fill:none;stroke:#000000;stroke-width:0.3;" y1="-2.908"/>
  <line x2="9.361" x1="9.361" y2="-10.118" style="fill:none;stroke:#000000;stroke-width:0.3;" y1="-12.089"/>
  <line x2="2.903" x1="2.903" y2="-9.256" style="fill:none;stroke:#000000;stroke-width:0.3;" y1="-9.237"/>
  <line x2="2.903" x1="2.903" y2="-7.034" style="fill:none;stroke:#000000;stroke-width:0.3;" y1="-9.237"/>
  <line x2="15.736" x1="15.736" y2="-3.534" style="fill:none;stroke:#000000;stroke-width:0.3;" y1="-5.828"/>
  <line x2="15.736" x1="15.736" y2="-5.901" style="fill:none;stroke:#000000;stroke-width:0.3;" y1="-5.828"/>
  <line x2="4.449" x1="4.449" y2="-4.181" style="fill:none;stroke:#000000;stroke-width:0.3;" y1="-1.034"/>
  <line x2="25.532" x1="25.532" y2="-3.201" style="fill:none;stroke:#000000;stroke-width:0.3;" y1="-0.931"/>
  <line x2="42.345" x1="42.345" y2="-1.014" style="fill:none;stroke:#000000;stroke-width:0.3;" y1="-2.284"/>
  <line x2="52.897" x1="52.897" y2="-51.313" style="fill:none;stroke:#000000;stroke-width:0.7;stroke-linecap:round;" y1="-51.313"/>
  <line x2="15.648" x1="15.648" y2="-45.647" style="fill:none;stroke:#000000;stroke-width:0.7;stroke-linecap:round;" y1="-45.647"/>
  <line x2="14.439" x1="14.439" y2="-39.022" style="fill:none;stroke:#000000;stroke-width:0.7;stroke-linecap:round;" y1="-39.022"/>
  <line x2="4.313" x1="4.313" y2="-37.147" style="fill:none;stroke:#000000;stroke-width:0.7;stroke-linecap:round;" y1="-37.147"/>
  <line x2="13.939" x1="13.939" y2="-33.772" style="fill:none;stroke:#000000;stroke-width:0.7;stroke-linecap:round;" y1="-33.772"/>
  <line x2="29.188" x1="29.188" y2="-42.397" style="fill:none;stroke:#000000;stroke-width:0.7;stroke-linecap:round;" y1="-42.397"/>
  <line x2="52.063" x1="52.063" y2="-35.772" style="fill:none;stroke:#000000;stroke-width:0.7;stroke-linecap:round;" y1="-35.772"/>
  <line x2="39.563" x1="39.563" y2="-49.647" style="fill:none;stroke:#000000;stroke-width:0.7;stroke-linecap:round;" y1="-49.647"/>
  <line x2="41.063" x1="41.063" y2="-52.647" style="fill:none;stroke:#000000;stroke-width:0.7;stroke-linecap:round;" y1="-52.647"/>
  <line x2="42.063" x1="42.063" y2="-35.313" style="fill:none;stroke:#000000;stroke-width:0.7;stroke-linecap:round;" y1="-35.313"/>
  <line x2="45.063" x1="45.063" y2="-43.48" style="fill:none;stroke:#000000;stroke-width:0.7;stroke-linecap:round;" y1="-43.48"/>
  <line x2="36.938" x1="36.938" y2="-43.522" style="fill:none;stroke:#000000;stroke-width:0.7;stroke-linecap:round;" y1="-43.522"/>
  <line x2="51.188" x1="51.188" y2="-44.522" style="fill:none;stroke:#000000;stroke-width:0.7;stroke-linecap:round;" y1="-44.522"/>
  <line x2="20.563" x1="20.563" y2="-52.813" style="fill:none;stroke:#000000;stroke-width:0.7;stroke-linecap:round;" y1="-52.813"/>
  <line x2="11.314" x1="11.314" y2="-20.897" style="fill:none;stroke:#000000;stroke-width:0.7;stroke-linecap:round;" y1="-20.897"/>
  <line x2="4.938" x1="4.938" y2="-29.647" style="fill:none;stroke:#000000;stroke-width:0.7;stroke-linecap:round;" y1="-29.647"/>
  <line x2="26.938" x1="26.938" y2="-29.147" style="fill:none;stroke:#000000;stroke-width:0.7;stroke-linecap:round;" y1="-29.147"/>
  <line x2="37.938" x1="37.938" y2="-27.647" style="fill:none;stroke:#000000;stroke-width:0.7;stroke-linecap:round;" y1="-27.647"/>
  <line x2="46.938" x1="46.938" y2="-12.648" style="fill:none;stroke:#000000;stroke-width:0.7;stroke-linecap:round;" y1="-12.648"/>
  <line x2="38.188" x1="38.188" y2="-12.273" style="fill:none;stroke:#000000;stroke-width:0.7;stroke-linecap:round;" y1="-12.273"/>
  <line x2="30.563" x1="30.563" y2="-16.772" style="fill:none;stroke:#000000;stroke-width:0.7;stroke-linecap:round;" y1="-16.772"/>
  <line x2="19.688" x1="19.688" y2="-18.522" style="fill:none;stroke:#000000;stroke-width:0.7;stroke-linecap:round;" y1="-18.522"/>
  <line x2="45.188" x1="45.188" y2="-20.772" style="fill:none;stroke:#000000;stroke-width:0.7;stroke-linecap:round;" y1="-20.772"/>
  <line x2="52.188" x1="52.188" y2="-8.898" style="fill:none;stroke:#000000;stroke-width:0.7;stroke-linecap:round;" y1="-8.898"/>
  <line x2="50.563" x1="50.563" y2="-15.898" style="fill:none;stroke:#000000;stroke-width:0.7;stroke-linecap:round;" y1="-15.898"/>
  <line x2="42.188" x1="42.188" y2="-4.023" style="fill:none;stroke:#000000;stroke-width:0.7;stroke-linecap:round;" y1="-4.023"/>
  <line x2="1.814" x1="1.814" y2="-16.522" style="fill:none;stroke:#000000;stroke-width:0.7;stroke-linecap:round;" y1="-16.522"/>
  <line x2="20.938" x1="20.938" y2="-25.772" style="fill:none;stroke:#000000;stroke-width:0.7;stroke-linecap:round;" y1="-25.772"/>
  <line x2="34.938" x1="34.938" y2="-22.022" style="fill:none;stroke:#000000;stroke-width:0.7;stroke-linecap:round;" y1="-22.022"/>
  <line x2="31.938" x1="31.938" y2="-6.398" style="fill:none;stroke:#000000;stroke-width:0.7;stroke-linecap:round;" y1="-6.398"/>
  <line x2="22.563" x1="22.563" y2="-13.648" style="fill:none;stroke:#000000;stroke-width:0.7;stroke-linecap:round;" y1="-13.648"/>
  <line x2="12.189" x1="12.189" y2="-12.648" style="fill:none;stroke:#000000;stroke-width:0.7;stroke-linecap:round;" y1="-12.648"/>
  <line x2="6.938" x1="6.938" y2="-9.648" style="fill:none;stroke:#000000;stroke-width:0.7;stroke-linecap:round;" y1="-9.648"/>
  <line x2="1.689" x1="1.689" y2="-5.648" style="fill:none;stroke:#000000;stroke-width:0.7;stroke-linecap:round;" y1="-5.648"/>
  <line x2="11.689" x1="11.689" y2="-2.398" style="fill:none;stroke:#000000;stroke-width:0.7;stroke-linecap:round;" y1="-2.398"/>
  <line x2="32.188" x1="32.188" y2="-2.398" style="fill:none;stroke:#000000;stroke-width:0.7;stroke-linecap:round;" y1="-2.398"/>
 </g>
</svg>
