<?xml version="1.0"?>
<!-- Converted with SVG Converter - Version 0.9.5 (Compiled Fri Feb 21 09:53:38 2020) - Copyright (C) 2011 Nokia -->
<svg xmlns="http://www.w3.org/2000/svg" version="1.1" xml:space="preserve" y="0px" x="0px" height="54.125" viewBox="1.817 -55.725 54.125 54.125" xmlns:xlink="http://www.w3.org/1999/xlink" baseProfile="tiny" width="54.125">
 <g>
  <rect y="-55.725" x="1.817" style="fill:none;" height="54.125" width="54.125"/>
  <line x2="55.942" style="fill:none;stroke:#000000;stroke-width:0.3;" x1="1.817" y1="-51.975" y2="-51.975"/>
  <line x2="55.942" style="fill:none;stroke:#000000;stroke-width:0.3;" x1="1.817" y1="-47.8" y2="-47.8"/>
  <line x2="55.942" style="fill:none;stroke:#000000;stroke-width:0.3;" x1="1.817" y1="-43.612" y2="-43.612"/>
  <line x2="56.004" style="fill:none;stroke:#000000;stroke-width:0.3;" x1="1.817" y1="-14" y2="-14"/>
  <line x2="55.942" style="fill:none;stroke:#000000;stroke-width:0.3;" x1="1.817" y1="-10.225" y2="-10.225"/>
  <line x2="55.942" style="fill:none;stroke:#000000;stroke-width:0.3;" x1="1.817" y1="-39.594" y2="-39.594"/>
  <line x2="55.942" style="fill:none;stroke:#000000;stroke-width:0.3;" x1="1.817" y1="-36.312" y2="-36.312"/>
  <line x2="55.942" style="fill:none;stroke:#000000;stroke-width:0.3;" x1="1.817" y1="-32.887" y2="-32.887"/>
  <line x2="55.942" style="fill:none;stroke:#000000;stroke-width:0.3;" x1="1.817" y1="-28.837" y2="-28.837"/>
  <line x2="55.942" style="fill:none;stroke:#000000;stroke-width:0.3;" x1="1.817" y1="-25.037" y2="-25.037"/>
  <line x2="56.004" style="fill:none;stroke:#000000;stroke-width:0.3;" x1="1.817" y1="-20.837" y2="-20.837"/>
  <line x2="55.942" style="fill:none;stroke:#000000;stroke-width:0.3;" x1="1.817" y1="-17.612" y2="-17.612"/>
  <line x2="55.942" style="fill:none;stroke:#000000;stroke-width:0.3;" x1="1.817" y1="-2.437" y2="-2.437"/>
  <line x2="7.742" style="fill:none;stroke:#000000;stroke-width:0.3;" x1="7.742" y1="-55.725" y2="-51.975"/>
  <line x2="20.492" style="fill:none;stroke:#000000;stroke-width:0.3;" x1="20.492" y1="-55.725" y2="-51.975"/>
  <line x2="33.992" style="fill:none;stroke:#000000;stroke-width:0.3;" x1="33.992" y1="-55.725" y2="-51.975"/>
  <line x2="48.367" style="fill:none;stroke:#000000;stroke-width:0.3;" x1="48.367" y1="-55.725" y2="-51.975"/>
  <line x2="7.742" style="fill:none;stroke:#000000;stroke-width:0.3;" x1="7.742" y1="-2.45" y2="-1.6"/>
  <line x2="20.492" style="fill:none;stroke:#000000;stroke-width:0.3;" x1="20.492" y1="-2.45" y2="-1.6"/>
  <line x2="33.992" style="fill:none;stroke:#000000;stroke-width:0.3;" x1="33.992" y1="-2.45" y2="-1.6"/>
  <line x2="48.367" style="fill:none;stroke:#000000;stroke-width:0.3;" x1="48.367" y1="-2.45" y2="-1.6"/>
  <line x2="14.417" style="fill:none;stroke:#000000;stroke-width:0.3;" x1="14.417" y1="-52.037" y2="-47.812"/>
  <line x2="29.292" style="fill:none;stroke:#000000;stroke-width:0.3;" x1="29.292" y1="-52.037" y2="-47.812"/>
  <line x2="42.917" style="fill:none;stroke:#000000;stroke-width:0.3;" x1="42.917" y1="-52.037" y2="-47.812"/>
  <line x2="55.742" style="fill:none;stroke:#000000;stroke-width:0.3;" x1="55.742" y1="-52.037" y2="-47.812"/>
  <line x2="8.854" style="fill:none;stroke:#000000;stroke-width:0.3;" x1="8.854" y1="-47.675" y2="-43.625"/>
  <line x2="22.104" style="fill:none;stroke:#000000;stroke-width:0.3;" x1="22.104" y1="-47.675" y2="-43.625"/>
  <line x2="35.667" style="fill:none;stroke:#000000;stroke-width:0.3;" x1="35.667" y1="-47.675" y2="-43.625"/>
  <line x2="50.604" style="fill:none;stroke:#000000;stroke-width:0.3;" x1="50.604" y1="-47.675" y2="-43.625"/>
  <line x2="41.979" style="fill:none;stroke:#000000;stroke-width:0.3;" x1="41.979" y1="-43.625" y2="-39.625"/>
  <line x2="28.604" style="fill:none;stroke:#000000;stroke-width:0.3;" x1="28.604" y1="-43.625" y2="-39.625"/>
  <line x2="13.729" style="fill:none;stroke:#000000;stroke-width:0.3;" x1="13.729" y1="-43.625" y2="-39.625"/>
  <line x2="55.229" style="fill:none;stroke:#000000;stroke-width:0.3;" x1="55.229" y1="-43.625" y2="-39.625"/>
  <line x2="48.367" style="fill:none;stroke:#000000;stroke-width:0.3;" x1="48.367" y1="-39.625" y2="-36.325"/>
  <line x2="33.742" style="fill:none;stroke:#000000;stroke-width:0.3;" x1="33.742" y1="-39.625" y2="-36.325"/>
  <line x2="20.492" style="fill:none;stroke:#000000;stroke-width:0.3;" x1="20.492" y1="-39.625" y2="-36.325"/>
  <line x2="7.742" style="fill:none;stroke:#000000;stroke-width:0.3;" x1="7.742" y1="-39.625" y2="-36.325"/>
  <line x2="14.292" style="fill:none;stroke:#000000;stroke-width:0.3;" x1="14.292" y1="-36.325" y2="-32.9"/>
  <line x2="29.292" style="fill:none;stroke:#000000;stroke-width:0.3;" x1="29.292" y1="-36.325" y2="-32.9"/>
  <line x2="43.042" style="fill:none;stroke:#000000;stroke-width:0.3;" x1="43.042" y1="-36.325" y2="-32.9"/>
  <line x2="55.792" style="fill:none;stroke:#000000;stroke-width:0.3;" x1="55.792" y1="-36.325" y2="-32.9"/>
  <line x2="8.479" style="fill:none;stroke:#000000;stroke-width:0.3;" x1="8.479" y1="-32.9" y2="-28.85"/>
  <line x2="21.979" style="fill:none;stroke:#000000;stroke-width:0.3;" x1="21.979" y1="-32.9" y2="-28.85"/>
  <line x2="35.604" style="fill:none;stroke:#000000;stroke-width:0.3;" x1="35.604" y1="-32.9" y2="-28.85"/>
  <line x2="50.479" style="fill:none;stroke:#000000;stroke-width:0.3;" x1="50.479" y1="-32.9" y2="-28.85"/>
  <line x2="41.854" style="fill:none;stroke:#000000;stroke-width:0.3;" x1="41.854" y1="-28.787" y2="-25.05"/>
  <line x2="28.529" style="fill:none;stroke:#000000;stroke-width:0.3;" x1="28.529" y1="-28.787" y2="-25.05"/>
  <line x2="13.529" style="fill:none;stroke:#000000;stroke-width:0.3;" x1="13.529" y1="-28.787" y2="-25.05"/>
  <line x2="55.083" style="fill:none;stroke:#000000;stroke-width:0.3;" x1="55.083" y1="-28.787" y2="-25.05"/>
  <line x2="7.342" style="fill:none;stroke:#000000;stroke-width:0.3;" x1="7.342" y1="-24.987" y2="-20.85"/>
  <line x2="20.342" style="fill:none;stroke:#000000;stroke-width:0.3;" x1="20.342" y1="-24.987" y2="-20.85"/>
  <line x2="33.967" style="fill:none;stroke:#000000;stroke-width:0.3;" x1="33.967" y1="-24.987" y2="-20.85"/>
  <line x2="48.217" style="fill:none;stroke:#000000;stroke-width:0.3;" x1="48.217" y1="-24.987" y2="-20.85"/>
  <line x2="44.017" style="fill:none;stroke:#000000;stroke-width:0.3;" x1="44.017" y1="-20.787" y2="-17.625"/>
  <line x2="29.867" style="fill:none;stroke:#000000;stroke-width:0.3;" x1="29.867" y1="-20.787" y2="-17.625"/>
  <line x2="14.742" style="fill:none;stroke:#000000;stroke-width:0.3;" x1="14.742" y1="-20.787" y2="-17.625"/>
  <line x2="2.325" style="fill:none;stroke:#000000;stroke-width:0.3;" x1="2.325" y1="-20.787" y2="-17.625"/>
  <line x2="8.7" style="fill:none;stroke:#000000;stroke-width:0.3;" x1="8.7" y1="-17.562" y2="-14"/>
  <line x2="21.95" style="fill:none;stroke:#000000;stroke-width:0.3;" x1="21.95" y1="-17.562" y2="-14"/>
  <line x2="35.575" style="fill:none;stroke:#000000;stroke-width:0.3;" x1="35.575" y1="-17.562" y2="-14"/>
  <line x2="50.45" style="fill:none;stroke:#000000;stroke-width:0.3;" x1="50.45" y1="-17.562" y2="-14"/>
  <line x2="42.1" style="fill:none;stroke:#000000;stroke-width:0.3;" x1="42.1" y1="-13.95" y2="-10.187"/>
  <line x2="28.225" style="fill:none;stroke:#000000;stroke-width:0.3;" x1="28.225" y1="-13.95" y2="-10.187"/>
  <line x2="13.675" style="fill:none;stroke:#000000;stroke-width:0.3;" x1="13.675" y1="-13.95" y2="-10.187"/>
  <line x2="55.55" style="fill:none;stroke:#000000;stroke-width:0.3;" x1="55.55" y1="-13.95" y2="-10.187"/>
  <line x2="55.942" style="fill:none;stroke:#000000;stroke-width:0.3;" x1="1.817" y1="-5.812" y2="-5.812"/>
  <line x2="12.113" style="fill:none;stroke:#000000;stroke-width:0.3;" x1="12.113" y1="-5.838" y2="-2.375"/>
  <line x2="26.55" style="fill:none;stroke:#000000;stroke-width:0.3;" x1="26.55" y1="-5.838" y2="-2.375"/>
  <line x2="40.175" style="fill:none;stroke:#000000;stroke-width:0.3;" x1="40.175" y1="-5.838" y2="-2.375"/>
  <line x2="53.55" style="fill:none;stroke:#000000;stroke-width:0.3;" x1="53.55" y1="-5.838" y2="-2.375"/>
  <line x2="6.387" style="fill:none;stroke:#000000;stroke-width:0.3;" x1="6.387" y1="-10.187" y2="-5.838"/>
  <line x2="19.388" style="fill:none;stroke:#000000;stroke-width:0.3;" x1="19.388" y1="-10.187" y2="-5.838"/>
  <line x2="33.388" style="fill:none;stroke:#000000;stroke-width:0.3;" x1="33.388" y1="-10.187" y2="-5.838"/>
  <line x2="47.95" style="fill:none;stroke:#000000;stroke-width:0.3;" x1="47.95" y1="-10.187" y2="-5.838"/>
  <line x2="9.15" style="fill:none;stroke:#000000;stroke-width:0.7;stroke-linecap:round;" x1="9.15" y1="-54.892" y2="-54.892"/>
  <line x2="11.567" style="fill:none;stroke:#000000;stroke-width:0.7;stroke-linecap:round;" x1="11.567" y1="-53.058" y2="-53.058"/>
  <line x2="15.067" style="fill:none;stroke:#000000;stroke-width:0.7;stroke-linecap:round;" x1="15.067" y1="-54.975" y2="-54.975"/>
  <line x2="18.483" style="fill:none;stroke:#000000;stroke-width:0.7;stroke-linecap:round;" x1="18.483" y1="-53.142" y2="-53.142"/>
  <line x2="22.067" style="fill:none;stroke:#000000;stroke-width:0.7;stroke-linecap:round;" x1="22.067" y1="-54.642" y2="-54.642"/>
  <line x2="24.483" style="fill:none;stroke:#000000;stroke-width:0.7;stroke-linecap:round;" x1="24.483" y1="-53.058" y2="-53.058"/>
  <line x2="27.9" style="fill:none;stroke:#000000;stroke-width:0.7;stroke-linecap:round;" x1="27.9" y1="-54.725" y2="-54.725"/>
  <line x2="31.483" style="fill:none;stroke:#000000;stroke-width:0.7;stroke-linecap:round;" x1="31.483" y1="-52.808" y2="-52.808"/>
  <line x2="19.192" style="fill:none;stroke:#000000;stroke-width:0.7;stroke-linecap:round;" x1="19.192" y1="-49.1" y2="-49.1"/>
  <line x2="16.067" style="fill:none;stroke:#000000;stroke-width:0.7;stroke-linecap:round;" x1="16.067" y1="-50.642" y2="-50.642"/>
  <line x2="11.817" style="fill:none;stroke:#000000;stroke-width:0.7;stroke-linecap:round;" x1="11.817" y1="-48.808" y2="-48.808"/>
  <line x2="9.15" style="fill:none;stroke:#000000;stroke-width:0.7;stroke-linecap:round;" x1="9.15" y1="-50.725" y2="-50.725"/>
  <line x2="6.067" style="fill:none;stroke:#000000;stroke-width:0.7;stroke-linecap:round;" x1="6.067" y1="-49.1" y2="-49.1"/>
  <line x2="3.233" style="fill:none;stroke:#000000;stroke-width:0.7;stroke-linecap:round;" x1="3.233" y1="-50.725" y2="-50.725"/>
  <line x2="5.317" style="fill:none;stroke:#000000;stroke-width:0.7;stroke-linecap:round;" x1="5.317" y1="-52.725" y2="-52.725"/>
  <line x2="2.65" style="fill:none;stroke:#000000;stroke-width:0.7;stroke-linecap:round;" x1="2.65" y1="-54.725" y2="-54.725"/>
  <line x2="22.567" style="fill:none;stroke:#000000;stroke-width:0.7;stroke-linecap:round;" x1="22.567" y1="-50.725" y2="-50.725"/>
  <line x2="27.067" style="fill:none;stroke:#000000;stroke-width:0.7;stroke-linecap:round;" x1="27.067" y1="-49.1" y2="-49.1"/>
  <line x2="31.15" style="fill:none;stroke:#000000;stroke-width:0.7;stroke-linecap:round;" x1="31.15" y1="-50.808" y2="-50.808"/>
  <line x2="33.817" style="fill:none;stroke:#000000;stroke-width:0.7;stroke-linecap:round;" x1="33.817" y1="-48.975" y2="-48.975"/>
  <line x2="37.942" style="fill:none;stroke:#000000;stroke-width:0.7;stroke-linecap:round;" x1="37.942" y1="-50.35" y2="-50.35"/>
  <line x2="40.983" style="fill:none;stroke:#000000;stroke-width:0.7;stroke-linecap:round;" x1="40.983" y1="-48.808" y2="-48.808"/>
  <line x2="44.692" style="fill:none;stroke:#000000;stroke-width:0.7;stroke-linecap:round;" x1="44.692" y1="-50.475" y2="-50.475"/>
  <line x2="47.942" style="fill:none;stroke:#000000;stroke-width:0.7;stroke-linecap:round;" x1="47.942" y1="-49.1" y2="-49.1"/>
  <line x2="50.942" style="fill:none;stroke:#000000;stroke-width:0.7;stroke-linecap:round;" x1="50.942" y1="-50.725" y2="-50.725"/>
  <line x2="54.317" style="fill:none;stroke:#000000;stroke-width:0.7;stroke-linecap:round;" x1="54.317" y1="-49.225" y2="-49.225"/>
  <line x2="52.233" style="fill:none;stroke:#000000;stroke-width:0.7;stroke-linecap:round;" x1="52.233" y1="-46.725" y2="-46.725"/>
  <line x2="54.983" style="fill:none;stroke:#000000;stroke-width:0.7;stroke-linecap:round;" x1="54.983" y1="-44.725" y2="-44.725"/>
  <line x2="3.483" style="fill:none;stroke:#000000;stroke-width:0.7;stroke-linecap:round;" x1="3.483" y1="-46.975" y2="-46.975"/>
  <line x2="6.4" style="fill:none;stroke:#000000;stroke-width:0.7;stroke-linecap:round;" x1="6.4" y1="-44.642" y2="-44.642"/>
  <line x2="10.567" style="fill:none;stroke:#000000;stroke-width:0.7;stroke-linecap:round;" x1="10.567" y1="-46.725" y2="-46.725"/>
  <line x2="14.192" style="fill:none;stroke:#000000;stroke-width:0.7;stroke-linecap:round;" x1="14.192" y1="-44.85" y2="-44.85"/>
  <line x2="17.692" style="fill:none;stroke:#000000;stroke-width:0.7;stroke-linecap:round;" x1="17.692" y1="-46.6" y2="-46.6"/>
  <line x2="20.15" style="fill:none;stroke:#000000;stroke-width:0.7;stroke-linecap:round;" x1="20.15" y1="-44.558" y2="-44.558"/>
  <line x2="23.983" style="fill:none;stroke:#000000;stroke-width:0.7;stroke-linecap:round;" x1="23.983" y1="-46.892" y2="-46.892"/>
  <line x2="26.942" style="fill:none;stroke:#000000;stroke-width:0.7;stroke-linecap:round;" x1="26.942" y1="-45.1" y2="-45.1"/>
  <line x2="30.067" style="fill:none;stroke:#000000;stroke-width:0.7;stroke-linecap:round;" x1="30.067" y1="-46.892" y2="-46.892"/>
  <line x2="33.067" style="fill:none;stroke:#000000;stroke-width:0.7;stroke-linecap:round;" x1="33.067" y1="-45.225" y2="-45.225"/>
  <line x2="36.942" style="fill:none;stroke:#000000;stroke-width:0.7;stroke-linecap:round;" x1="36.942" y1="-46.475" y2="-46.475"/>
  <line x2="40.442" style="fill:none;stroke:#000000;stroke-width:0.7;stroke-linecap:round;" x1="40.442" y1="-44.975" y2="-44.975"/>
  <line x2="44.067" style="fill:none;stroke:#000000;stroke-width:0.7;stroke-linecap:round;" x1="44.067" y1="-46.6" y2="-46.6"/>
  <line x2="48.067" style="fill:none;stroke:#000000;stroke-width:0.7;stroke-linecap:round;" x1="48.067" y1="-44.85" y2="-44.85"/>
  <line x2="6.192" style="fill:none;stroke:#000000;stroke-width:0.7;stroke-linecap:round;" x1="6.192" y1="-40.85" y2="-40.85"/>
  <line x2="3.192" style="fill:none;stroke:#000000;stroke-width:0.7;stroke-linecap:round;" x1="3.192" y1="-42.1" y2="-42.1"/>
  <line x2="9.442" style="fill:none;stroke:#000000;stroke-width:0.7;stroke-linecap:round;" x1="9.442" y1="-42.225" y2="-42.225"/>
  <line x2="11.9" style="fill:none;stroke:#000000;stroke-width:0.7;stroke-linecap:round;" x1="11.9" y1="-40.642" y2="-40.642"/>
  <line x2="15.317" style="fill:none;stroke:#000000;stroke-width:0.7;stroke-linecap:round;" x1="15.317" y1="-42.225" y2="-42.225"/>
  <line x2="18.567" style="fill:none;stroke:#000000;stroke-width:0.7;stroke-linecap:round;" x1="18.567" y1="-40.85" y2="-40.85"/>
  <line x2="22.317" style="fill:none;stroke:#000000;stroke-width:0.7;stroke-linecap:round;" x1="22.317" y1="-42.642" y2="-42.642"/>
  <line x2="25.233" style="fill:none;stroke:#000000;stroke-width:0.7;stroke-linecap:round;" x1="25.233" y1="-40.642" y2="-40.642"/>
  <line x2="30.067" style="fill:none;stroke:#000000;stroke-width:0.7;stroke-linecap:round;" x1="30.067" y1="-42.35" y2="-42.35"/>
  <line x2="33.067" style="fill:none;stroke:#000000;stroke-width:0.7;stroke-linecap:round;" x1="33.067" y1="-40.975" y2="-40.975"/>
  <line x2="36.733" style="fill:none;stroke:#000000;stroke-width:0.7;stroke-linecap:round;" x1="36.733" y1="-42.642" y2="-42.642"/>
  <line x2="39.817" style="fill:none;stroke:#000000;stroke-width:0.7;stroke-linecap:round;" x1="39.817" y1="-40.975" y2="-40.975"/>
  <line x2="43.9" style="fill:none;stroke:#000000;stroke-width:0.7;stroke-linecap:round;" x1="43.9" y1="-42.558" y2="-42.558"/>
  <line x2="46.942" style="fill:none;stroke:#000000;stroke-width:0.7;stroke-linecap:round;" x1="46.942" y1="-40.975" y2="-40.975"/>
  <line x2="50.15" style="fill:none;stroke:#000000;stroke-width:0.7;stroke-linecap:round;" x1="50.15" y1="-42.558" y2="-42.558"/>
  <line x2="53.692" style="fill:none;stroke:#000000;stroke-width:0.7;stroke-linecap:round;" x1="53.692" y1="-40.85" y2="-40.85"/>
  <line x2="50.817" style="fill:none;stroke:#000000;stroke-width:0.7;stroke-linecap:round;" x1="50.817" y1="-38.6" y2="-38.6"/>
  <line x2="46.65" style="fill:none;stroke:#000000;stroke-width:0.7;stroke-linecap:round;" x1="46.65" y1="-37.225" y2="-37.225"/>
  <line x2="41.567" style="fill:none;stroke:#000000;stroke-width:0.7;stroke-linecap:round;" x1="41.567" y1="-38.475" y2="-38.475"/>
  <line x2="36.692" style="fill:none;stroke:#000000;stroke-width:0.7;stroke-linecap:round;" x1="36.692" y1="-38.1" y2="-38.1"/>
  <line x2="31.442" style="fill:none;stroke:#000000;stroke-width:0.7;stroke-linecap:round;" x1="31.442" y1="-38.35" y2="-38.35"/>
  <line x2="26.942" style="fill:none;stroke:#000000;stroke-width:0.7;stroke-linecap:round;" x1="26.942" y1="-37.725" y2="-37.725"/>
  <line x2="22.4" style="fill:none;stroke:#000000;stroke-width:0.7;stroke-linecap:round;" x1="22.4" y1="-38.558" y2="-38.558"/>
  <line x2="18.442" style="fill:none;stroke:#000000;stroke-width:0.7;stroke-linecap:round;" x1="18.442" y1="-37.475" y2="-37.475"/>
  <line x2="14.067" style="fill:none;stroke:#000000;stroke-width:0.7;stroke-linecap:round;" x1="14.067" y1="-38.225" y2="-38.225"/>
  <line x2="10.067" style="fill:none;stroke:#000000;stroke-width:0.7;stroke-linecap:round;" x1="10.067" y1="-37.6" y2="-37.6"/>
  <line x2="5.567" style="fill:none;stroke:#000000;stroke-width:0.7;stroke-linecap:round;" x1="5.567" y1="-37.85" y2="-37.85"/>
  <line x2="54.692" style="fill:none;stroke:#000000;stroke-width:0.7;stroke-linecap:round;" x1="54.692" y1="-37.475" y2="-37.475"/>
  <line x2="2.442" style="fill:none;stroke:#000000;stroke-width:0.7;stroke-linecap:round;" x1="2.442" y1="-35.35" y2="-35.35"/>
  <line x2="7.15" style="fill:none;stroke:#000000;stroke-width:0.7;stroke-linecap:round;" x1="7.15" y1="-35.058" y2="-35.058"/>
  <line x2="12.067" style="fill:none;stroke:#000000;stroke-width:0.7;stroke-linecap:round;" x1="12.067" y1="-33.975" y2="-33.975"/>
  <line x2="16.483" style="fill:none;stroke:#000000;stroke-width:0.7;stroke-linecap:round;" x1="16.483" y1="-34.725" y2="-34.725"/>
  <line x2="21.483" style="fill:none;stroke:#000000;stroke-width:0.7;stroke-linecap:round;" x1="21.483" y1="-34.058" y2="-34.058"/>
  <line x2="25.983" style="fill:none;stroke:#000000;stroke-width:0.7;stroke-linecap:round;" x1="25.983" y1="-35.058" y2="-35.058"/>
  <line x2="32.15" style="fill:none;stroke:#000000;stroke-width:0.7;stroke-linecap:round;" x1="32.15" y1="-34.892" y2="-34.892"/>
  <line x2="36.483" style="fill:none;stroke:#000000;stroke-width:0.7;stroke-linecap:round;" x1="36.483" y1="-35.225" y2="-35.225"/>
  <line x2="40.65" style="fill:none;stroke:#000000;stroke-width:0.7;stroke-linecap:round;" x1="40.65" y1="-34.392" y2="-34.392"/>
  <line x2="44.983" style="fill:none;stroke:#000000;stroke-width:0.7;stroke-linecap:round;" x1="44.983" y1="-34.725" y2="-34.725"/>
  <line x2="49.15" style="fill:none;stroke:#000000;stroke-width:0.7;stroke-linecap:round;" x1="49.15" y1="-35.058" y2="-35.058"/>
  <line x2="53.817" style="fill:none;stroke:#000000;stroke-width:0.7;stroke-linecap:round;" x1="53.817" y1="-34.725" y2="-34.725"/>
  <line x2="51.567" style="fill:none;stroke:#000000;stroke-width:0.7;stroke-linecap:round;" x1="51.567" y1="-31.892" y2="-31.892"/>
  <line x2="54.567" style="fill:none;stroke:#000000;stroke-width:0.7;stroke-linecap:round;" x1="54.567" y1="-29.975" y2="-29.975"/>
  <line x2="48.733" style="fill:none;stroke:#000000;stroke-width:0.7;stroke-linecap:round;" x1="48.733" y1="-29.892" y2="-29.892"/>
  <line x2="43.567" style="fill:none;stroke:#000000;stroke-width:0.7;stroke-linecap:round;" x1="43.567" y1="-27.892" y2="-27.892"/>
  <line x2="46.317" style="fill:none;stroke:#000000;stroke-width:0.7;stroke-linecap:round;" x1="46.317" y1="-26.058" y2="-26.058"/>
  <line x2="49.733" style="fill:none;stroke:#000000;stroke-width:0.7;stroke-linecap:round;" x1="49.733" y1="-27.892" y2="-27.892"/>
  <line x2="52.9" style="fill:none;stroke:#000000;stroke-width:0.7;stroke-linecap:round;" x1="52.9" y1="-26.142" y2="-26.142"/>
  <line x2="49.65" style="fill:none;stroke:#000000;stroke-width:0.7;stroke-linecap:round;" x1="49.65" y1="-23.975" y2="-23.975"/>
  <line x2="52.692" style="fill:none;stroke:#000000;stroke-width:0.7;stroke-linecap:round;" x1="52.692" y1="-22.35" y2="-22.35"/>
  <line x2="46.317" style="fill:none;stroke:#000000;stroke-width:0.7;stroke-linecap:round;" x1="46.317" y1="-22.225" y2="-22.225"/>
  <line x2="43.067" style="fill:none;stroke:#000000;stroke-width:0.7;stroke-linecap:round;" x1="43.067" y1="-23.975" y2="-23.975"/>
  <line x2="3.15" style="fill:none;stroke:#000000;stroke-width:0.7;stroke-linecap:round;" x1="3.15" y1="-11.725" y2="-11.725"/>
  <line x2="8.317" style="fill:none;stroke:#000000;stroke-width:0.7;stroke-linecap:round;" x1="8.317" y1="-12.558" y2="-12.558"/>
  <line x2="11.9" style="fill:none;stroke:#000000;stroke-width:0.7;stroke-linecap:round;" x1="11.9" y1="-11.142" y2="-11.142"/>
  <line x2="15.4" style="fill:none;stroke:#000000;stroke-width:0.7;stroke-linecap:round;" x1="15.4" y1="-13.142" y2="-13.142"/>
  <line x2="18.4" style="fill:none;stroke:#000000;stroke-width:0.7;stroke-linecap:round;" x1="18.4" y1="-11.225" y2="-11.225"/>
  <line x2="22.4" style="fill:none;stroke:#000000;stroke-width:0.7;stroke-linecap:round;" x1="22.4" y1="-13.058" y2="-13.058"/>
  <line x2="25.692" style="fill:none;stroke:#000000;stroke-width:0.7;stroke-linecap:round;" x1="25.692" y1="-11.475" y2="-11.475"/>
  <line x2="30.15" style="fill:none;stroke:#000000;stroke-width:0.7;stroke-linecap:round;" x1="30.15" y1="-13.058" y2="-13.058"/>
  <line x2="32.567" style="fill:none;stroke:#000000;stroke-width:0.7;stroke-linecap:round;" x1="32.567" y1="-11.475" y2="-11.475"/>
  <line x2="37.067" style="fill:none;stroke:#000000;stroke-width:0.7;stroke-linecap:round;" x1="37.067" y1="-13.225" y2="-13.225"/>
  <line x2="39.942" style="fill:none;stroke:#000000;stroke-width:0.7;stroke-linecap:round;" x1="39.942" y1="-11.6" y2="-11.6"/>
  <line x2="44.067" style="fill:none;stroke:#000000;stroke-width:0.7;stroke-linecap:round;" x1="44.067" y1="-13.142" y2="-13.142"/>
  <line x2="47.067" style="fill:none;stroke:#000000;stroke-width:0.7;stroke-linecap:round;" x1="47.067" y1="-11.35" y2="-11.35"/>
  <line x2="50.65" style="fill:none;stroke:#000000;stroke-width:0.7;stroke-linecap:round;" x1="50.65" y1="-13.142" y2="-13.142"/>
  <line x2="53.733" style="fill:none;stroke:#000000;stroke-width:0.7;stroke-linecap:round;" x1="53.733" y1="-11.225" y2="-11.225"/>
  <line x2="4.192" style="fill:none;stroke:#000000;stroke-width:0.7;stroke-linecap:round;" x1="4.192" y1="-7.225" y2="-7.225"/>
  <line x2="8.317" style="fill:none;stroke:#000000;stroke-width:0.7;stroke-linecap:round;" x1="8.317" y1="-9.225" y2="-9.225"/>
  <line x2="11.192" style="fill:none;stroke:#000000;stroke-width:0.7;stroke-linecap:round;" x1="11.192" y1="-7.225" y2="-7.225"/>
  <line x2="14.483" style="fill:none;stroke:#000000;stroke-width:0.7;stroke-linecap:round;" x1="14.483" y1="-9.475" y2="-9.475"/>
  <line x2="17.233" style="fill:none;stroke:#000000;stroke-width:0.7;stroke-linecap:round;" x1="17.233" y1="-6.975" y2="-6.975"/>
  <line x2="21.067" style="fill:none;stroke:#000000;stroke-width:0.7;stroke-linecap:round;" x1="21.067" y1="-9.308" y2="-9.308"/>
  <line x2="23.942" style="fill:none;stroke:#000000;stroke-width:0.7;stroke-linecap:round;" x1="23.942" y1="-7.1" y2="-7.1"/>
  <line x2="27.9" style="fill:none;stroke:#000000;stroke-width:0.7;stroke-linecap:round;" x1="27.9" y1="-9.225" y2="-9.225"/>
  <line x2="31.317" style="fill:none;stroke:#000000;stroke-width:0.7;stroke-linecap:round;" x1="31.317" y1="-7.1" y2="-7.1"/>
  <line x2="35.4" style="fill:none;stroke:#000000;stroke-width:0.7;stroke-linecap:round;" x1="35.4" y1="-9.142" y2="-9.142"/>
  <line x2="38.567" style="fill:none;stroke:#000000;stroke-width:0.7;stroke-linecap:round;" x1="38.567" y1="-7.1" y2="-7.1"/>
  <line x2="42.483" style="fill:none;stroke:#000000;stroke-width:0.7;stroke-linecap:round;" x1="42.483" y1="-9.142" y2="-9.142"/>
  <line x2="46.067" style="fill:none;stroke:#000000;stroke-width:0.7;stroke-linecap:round;" x1="46.067" y1="-7.35" y2="-7.35"/>
  <line x2="50.15" style="fill:none;stroke:#000000;stroke-width:0.7;stroke-linecap:round;" x1="50.15" y1="-9.142" y2="-9.142"/>
  <line x2="53.233" style="fill:none;stroke:#000000;stroke-width:0.7;stroke-linecap:round;" x1="53.233" y1="-6.808" y2="-6.808"/>
  <line x2="54.567" style="fill:none;stroke:#000000;stroke-width:0.7;stroke-linecap:round;" x1="54.567" y1="-4.85" y2="-4.85"/>
  <line x2="2.942" style="fill:none;stroke:#000000;stroke-width:0.7;stroke-linecap:round;" x1="2.942" y1="-3.6" y2="-3.6"/>
  <line x2="7.233" style="fill:none;stroke:#000000;stroke-width:0.7;stroke-linecap:round;" x1="7.233" y1="-5.058" y2="-5.058"/>
  <line x2="10.317" style="fill:none;stroke:#000000;stroke-width:0.7;stroke-linecap:round;" x1="10.317" y1="-3.892" y2="-3.892"/>
  <line x2="14.317" style="fill:none;stroke:#000000;stroke-width:0.7;stroke-linecap:round;" x1="14.317" y1="-4.558" y2="-4.558"/>
  <line x2="19.983" style="fill:none;stroke:#000000;stroke-width:0.7;stroke-linecap:round;" x1="19.983" y1="-4.558" y2="-4.558"/>
  <line x2="24.817" style="fill:none;stroke:#000000;stroke-width:0.7;stroke-linecap:round;" x1="24.817" y1="-3.725" y2="-3.725"/>
  <line x2="27.942" style="fill:none;stroke:#000000;stroke-width:0.7;stroke-linecap:round;" x1="27.942" y1="-4.725" y2="-4.725"/>
  <line x2="31.317" style="fill:none;stroke:#000000;stroke-width:0.7;stroke-linecap:round;" x1="31.317" y1="-3.475" y2="-3.475"/>
  <line x2="35.067" style="fill:none;stroke:#000000;stroke-width:0.7;stroke-linecap:round;" x1="35.067" y1="-4.85" y2="-4.85"/>
  <line x2="38.317" style="fill:none;stroke:#000000;stroke-width:0.7;stroke-linecap:round;" x1="38.317" y1="-3.6" y2="-3.6"/>
  <line x2="42.192" style="fill:none;stroke:#000000;stroke-width:0.7;stroke-linecap:round;" x1="42.192" y1="-4.85" y2="-4.85"/>
  <line x2="46.483" style="fill:none;stroke:#000000;stroke-width:0.7;stroke-linecap:round;" x1="46.483" y1="-3.892" y2="-3.892"/>
  <line x2="50.817" style="fill:none;stroke:#000000;stroke-width:0.7;stroke-linecap:round;" x1="50.817" y1="-4.225" y2="-4.225"/>
  <line x2="46.692" style="fill:none;stroke:#000000;stroke-width:0.7;stroke-linecap:round;" x1="46.692" y1="-19.1" y2="-19.1"/>
  <line x2="50.567" style="fill:none;stroke:#000000;stroke-width:0.7;stroke-linecap:round;" x1="50.567" y1="-19.725" y2="-19.725"/>
  <line x2="54.442" style="fill:none;stroke:#000000;stroke-width:0.7;stroke-linecap:round;" x1="54.442" y1="-19.1" y2="-19.1"/>
  <line x2="41.692" style="fill:none;stroke:#000000;stroke-width:0.7;stroke-linecap:round;" x1="41.692" y1="-19.1" y2="-19.1"/>
  <line x2="36.817" style="fill:none;stroke:#000000;stroke-width:0.7;stroke-linecap:round;" x1="36.817" y1="-19.85" y2="-19.85"/>
  <line x2="31.817" style="fill:none;stroke:#000000;stroke-width:0.7;stroke-linecap:round;" x1="31.817" y1="-19.1" y2="-19.1"/>
  <line x2="31.567" style="fill:none;stroke:#000000;stroke-width:0.7;stroke-linecap:round;" x1="31.567" y1="-22.225" y2="-22.225"/>
  <line x2="25.067" style="fill:none;stroke:#000000;stroke-width:0.7;stroke-linecap:round;" x1="25.067" y1="-22.1" y2="-22.1"/>
  <line x2="28.317" style="fill:none;stroke:#000000;stroke-width:0.7;stroke-linecap:round;" x1="28.317" y1="-23.892" y2="-23.892"/>
  <line x2="22.233" style="fill:none;stroke:#000000;stroke-width:0.7;stroke-linecap:round;" x1="22.233" y1="-23.892" y2="-23.892"/>
  <line x2="18.442" style="fill:none;stroke:#000000;stroke-width:0.7;stroke-linecap:round;" x1="18.442" y1="-22.225" y2="-22.225"/>
  <line x2="15.4" style="fill:none;stroke:#000000;stroke-width:0.7;stroke-linecap:round;" x1="15.4" y1="-23.892" y2="-23.892"/>
  <line x2="12.4" style="fill:none;stroke:#000000;stroke-width:0.7;stroke-linecap:round;" x1="12.4" y1="-21.808" y2="-21.808"/>
  <line x2="9.233" style="fill:none;stroke:#000000;stroke-width:0.7;stroke-linecap:round;" x1="9.233" y1="-23.892" y2="-23.892"/>
  <line x2="5.233" style="fill:none;stroke:#000000;stroke-width:0.7;stroke-linecap:round;" x1="5.233" y1="-22.058" y2="-22.058"/>
  <line x2="2.4" style="fill:none;stroke:#000000;stroke-width:0.7;stroke-linecap:round;" x1="2.4" y1="-24.058" y2="-24.058"/>
  <line x2="3.692" style="fill:none;stroke:#000000;stroke-width:0.7;stroke-linecap:round;" x1="3.692" y1="-19.1" y2="-19.1"/>
  <line x2="7.817" style="fill:none;stroke:#000000;stroke-width:0.7;stroke-linecap:round;" x1="7.817" y1="-19.725" y2="-19.725"/>
  <line x2="7.317" style="fill:none;stroke:#000000;stroke-width:0.7;stroke-linecap:round;" x1="7.317" y1="-15.392" y2="-15.392"/>
  <line x2="4.067" style="fill:none;stroke:#000000;stroke-width:0.7;stroke-linecap:round;" x1="4.067" y1="-16.475" y2="-16.475"/>
  <line x2="51.733" style="fill:none;stroke:#000000;stroke-width:0.7;stroke-linecap:round;" x1="51.733" y1="-16.308" y2="-16.308"/>
  <line x2="48.567" style="fill:none;stroke:#000000;stroke-width:0.7;stroke-linecap:round;" x1="48.567" y1="-15.35" y2="-15.35"/>
  <line x2="42.65" style="fill:none;stroke:#000000;stroke-width:0.7;stroke-linecap:round;" x1="42.65" y1="-15.725" y2="-15.725"/>
  <line x2="37.192" style="fill:none;stroke:#000000;stroke-width:0.7;stroke-linecap:round;" x1="37.192" y1="-16.6" y2="-16.6"/>
  <line x2="32.817" style="fill:none;stroke:#000000;stroke-width:0.7;stroke-linecap:round;" x1="32.817" y1="-15.392" y2="-15.392"/>
  <line x2="28.15" style="fill:none;stroke:#000000;stroke-width:0.7;stroke-linecap:round;" x1="28.15" y1="-15.558" y2="-15.558"/>
  <line x2="23.817" style="fill:none;stroke:#000000;stroke-width:0.7;stroke-linecap:round;" x1="23.817" y1="-16.725" y2="-16.725"/>
  <line x2="19.692" style="fill:none;stroke:#000000;stroke-width:0.7;stroke-linecap:round;" x1="19.692" y1="-15.35" y2="-15.35"/>
  <line x2="15.317" style="fill:none;stroke:#000000;stroke-width:0.7;stroke-linecap:round;" x1="15.317" y1="-16.225" y2="-16.225"/>
  <line x2="10.317" style="fill:none;stroke:#000000;stroke-width:0.7;stroke-linecap:round;" x1="10.317" y1="-15.892" y2="-15.892"/>
  <line x2="55.192" style="fill:none;stroke:#000000;stroke-width:0.7;stroke-linecap:round;" x1="55.192" y1="-15.6" y2="-15.6"/>
  <line x2="12.317" style="fill:none;stroke:#000000;stroke-width:0.7;stroke-linecap:round;" x1="12.317" y1="-18.6" y2="-18.6"/>
  <line x2="17.567" style="fill:none;stroke:#000000;stroke-width:0.7;stroke-linecap:round;" x1="17.567" y1="-18.975" y2="-18.975"/>
  <line x2="21.942" style="fill:none;stroke:#000000;stroke-width:0.7;stroke-linecap:round;" x1="21.942" y1="-19.225" y2="-19.225"/>
  <line x2="27.192" style="fill:none;stroke:#000000;stroke-width:0.7;stroke-linecap:round;" x1="27.192" y1="-19.725" y2="-19.725"/>
  <line x2="36.233" style="fill:none;stroke:#000000;stroke-width:0.7;stroke-linecap:round;" x1="36.233" y1="-23.808" y2="-23.808"/>
  <line x2="39.317" style="fill:none;stroke:#000000;stroke-width:0.7;stroke-linecap:round;" x1="39.317" y1="-21.892" y2="-21.892"/>
  <line x2="45.317" style="fill:none;stroke:#000000;stroke-width:0.7;stroke-linecap:round;" x1="45.317" y1="-31.642" y2="-31.642"/>
  <line x2="37.233" style="fill:none;stroke:#000000;stroke-width:0.7;stroke-linecap:round;" x1="37.233" y1="-31.558" y2="-31.558"/>
  <line x2="41.733" style="fill:none;stroke:#000000;stroke-width:0.7;stroke-linecap:round;" x1="41.733" y1="-30.142" y2="-30.142"/>
  <line x2="33.067" style="fill:none;stroke:#000000;stroke-width:0.7;stroke-linecap:round;" x1="33.067" y1="-29.975" y2="-29.975"/>
  <line x2="30.483" style="fill:none;stroke:#000000;stroke-width:0.7;stroke-linecap:round;" x1="30.483" y1="-31.558" y2="-31.558"/>
  <line x2="26.692" style="fill:none;stroke:#000000;stroke-width:0.7;stroke-linecap:round;" x1="26.692" y1="-30.1" y2="-30.1"/>
  <line x2="23.9" style="fill:none;stroke:#000000;stroke-width:0.7;stroke-linecap:round;" x1="23.9" y1="-31.558" y2="-31.558"/>
  <line x2="20.317" style="fill:none;stroke:#000000;stroke-width:0.7;stroke-linecap:round;" x1="20.317" y1="-30.225" y2="-30.225"/>
  <line x2="17.733" style="fill:none;stroke:#000000;stroke-width:0.7;stroke-linecap:round;" x1="17.733" y1="-31.808" y2="-31.808"/>
  <line x2="14.15" style="fill:none;stroke:#000000;stroke-width:0.7;stroke-linecap:round;" x1="14.15" y1="-29.892" y2="-29.892"/>
  <line x2="10.317" style="fill:none;stroke:#000000;stroke-width:0.7;stroke-linecap:round;" x1="10.317" y1="-31.475" y2="-31.475"/>
  <line x2="6.567" style="fill:none;stroke:#000000;stroke-width:0.7;stroke-linecap:round;" x1="6.567" y1="-29.975" y2="-29.975"/>
  <line x2="3.192" style="fill:none;stroke:#000000;stroke-width:0.7;stroke-linecap:round;" x1="3.192" y1="-31.6" y2="-31.6"/>
  <line x2="2.692" style="fill:none;stroke:#000000;stroke-width:0.7;stroke-linecap:round;" x1="2.692" y1="-27.725" y2="-27.725"/>
  <line x2="5.317" style="fill:none;stroke:#000000;stroke-width:0.7;stroke-linecap:round;" x1="5.317" y1="-25.642" y2="-25.642"/>
  <line x2="8.483" style="fill:none;stroke:#000000;stroke-width:0.7;stroke-linecap:round;" x1="8.483" y1="-27.642" y2="-27.642"/>
  <line x2="11.65" style="fill:none;stroke:#000000;stroke-width:0.7;stroke-linecap:round;" x1="11.65" y1="-25.975" y2="-25.975"/>
  <line x2="15.483" style="fill:none;stroke:#000000;stroke-width:0.7;stroke-linecap:round;" x1="15.483" y1="-27.892" y2="-27.892"/>
  <line x2="18.483" style="fill:none;stroke:#000000;stroke-width:0.7;stroke-linecap:round;" x1="18.483" y1="-25.975" y2="-25.975"/>
  <line x2="22.067" style="fill:none;stroke:#000000;stroke-width:0.7;stroke-linecap:round;" x1="22.067" y1="-27.808" y2="-27.808"/>
  <line x2="25.733" style="fill:none;stroke:#000000;stroke-width:0.7;stroke-linecap:round;" x1="25.733" y1="-25.975" y2="-25.975"/>
  <line x2="30.233" style="fill:none;stroke:#000000;stroke-width:0.7;stroke-linecap:round;" x1="30.233" y1="-27.642" y2="-27.642"/>
  <line x2="33.567" style="fill:none;stroke:#000000;stroke-width:0.7;stroke-linecap:round;" x1="33.567" y1="-25.892" y2="-25.892"/>
  <line x2="37.733" style="fill:none;stroke:#000000;stroke-width:0.7;stroke-linecap:round;" x1="37.733" y1="-27.725" y2="-27.725"/>
  <line x2="40.15" style="fill:none;stroke:#000000;stroke-width:0.7;stroke-linecap:round;" x1="40.15" y1="-25.975" y2="-25.975"/>
  <line x2="36.4" style="fill:none;stroke:#000000;stroke-width:0.7;stroke-linecap:round;" x1="36.4" y1="-55.058" y2="-55.058"/>
  <line x2="39.733" style="fill:none;stroke:#000000;stroke-width:0.7;stroke-linecap:round;" x1="39.733" y1="-52.642" y2="-52.642"/>
  <line x2="42.983" style="fill:none;stroke:#000000;stroke-width:0.7;stroke-linecap:round;" x1="42.983" y1="-54.725" y2="-54.725"/>
  <line x2="46.233" style="fill:none;stroke:#000000;stroke-width:0.7;stroke-linecap:round;" x1="46.233" y1="-52.808" y2="-52.808"/>
  <line x2="49.983" style="fill:none;stroke:#000000;stroke-width:0.7;stroke-linecap:round;" x1="49.983" y1="-55.058" y2="-55.058"/>
  <line x2="53.15" style="fill:none;stroke:#000000;stroke-width:0.7;stroke-linecap:round;" x1="53.15" y1="-52.808" y2="-52.808"/>
 </g>
</svg>
