<?xml version="1.0"?>
<!-- Converted with SVG Converter - Version 0.9.5 (Compiled Fri Feb 21 09:53:38 2020) - Copyright (C) 2011 Nokia -->
<svg xmlns="http://www.w3.org/2000/svg" baseProfile="tiny" y="0px" xmlns:xlink="http://www.w3.org/1999/xlink" viewBox="1.6 -55.725 54.242 54.125" xml:space="preserve" x="0px" width="54.242" height="54.125" version="1.1">
 <g>
  <rect y="-55.725" x="1.6" style="fill:none;" width="54.242" height="54.125"/>
  <line y1="-54.037" x1="26.996" y2="-54.037" style="fill:none;stroke:#000000;stroke-width:0.7;stroke-linecap:round;" x2="26.996"/>
  <line y1="-54.037" x1="23.879" y2="-54.037" style="fill:none;stroke:#000000;stroke-width:0.7;stroke-linecap:round;" x2="23.879"/>
  <line y1="-54.037" x1="29.746" y2="-54.037" style="fill:none;stroke:#000000;stroke-width:0.7;stroke-linecap:round;" x2="29.746"/>
  <line y1="-54.037" x1="3.546" y2="-54.037" style="fill:none;stroke:#000000;stroke-width:0.7;stroke-linecap:round;" x2="3.546"/>
  <line y1="-54.037" x1="55.046" y2="-54.037" style="fill:none;stroke:#000000;stroke-width:0.7;stroke-linecap:round;" x2="55.046"/>
  <line y1="-54.037" x1="52.713" y2="-54.037" style="fill:none;stroke:#000000;stroke-width:0.7;stroke-linecap:round;" x2="52.713"/>
  <line y1="-49.771" x1="36.046" y2="-49.771" style="fill:none;stroke:#000000;stroke-width:0.7;stroke-linecap:round;" x2="36.046"/>
  <line y1="-49.771" x1="7.713" y2="-49.771" style="fill:none;stroke:#000000;stroke-width:0.7;stroke-linecap:round;" x2="7.713"/>
  <line y1="-49.771" x1="10.646" y2="-49.771" style="fill:none;stroke:#000000;stroke-width:0.7;stroke-linecap:round;" x2="10.646"/>
  <line y1="-45.754" x1="15.379" y2="-45.754" style="fill:none;stroke:#000000;stroke-width:0.7;stroke-linecap:round;" x2="15.379"/>
  <line y1="-45.754" x1="18.379" y2="-45.754" style="fill:none;stroke:#000000;stroke-width:0.7;stroke-linecap:round;" x2="18.379"/>
  <line y1="-45.754" x1="12.212" y2="-45.754" style="fill:none;stroke:#000000;stroke-width:0.7;stroke-linecap:round;" x2="12.212"/>
  <line y1="-34.654" x1="36.213" y2="-34.654" style="fill:none;stroke:#000000;stroke-width:0.7;stroke-linecap:round;" x2="36.213"/>
  <line y1="-34.654" x1="39.213" y2="-34.654" style="fill:none;stroke:#000000;stroke-width:0.7;stroke-linecap:round;" x2="39.213"/>
  <line y1="-34.654" x1="33.046" y2="-34.654" style="fill:none;stroke:#000000;stroke-width:0.7;stroke-linecap:round;" x2="33.046"/>
  <line y1="-34.654" x1="7.713" y2="-34.654" style="fill:none;stroke:#000000;stroke-width:0.7;stroke-linecap:round;" x2="7.713"/>
  <line y1="-34.654" x1="10.712" y2="-34.654" style="fill:none;stroke:#000000;stroke-width:0.7;stroke-linecap:round;" x2="10.712"/>
  <line y1="-34.654" x1="4.546" y2="-34.654" style="fill:none;stroke:#000000;stroke-width:0.7;stroke-linecap:round;" x2="4.546"/>
  <line y1="-30.854" x1="15.212" y2="-30.854" style="fill:none;stroke:#000000;stroke-width:0.7;stroke-linecap:round;" x2="15.212"/>
  <line y1="-30.854" x1="18.212" y2="-30.854" style="fill:none;stroke:#000000;stroke-width:0.7;stroke-linecap:round;" x2="18.212"/>
  <line y1="-30.854" x1="12.046" y2="-30.854" style="fill:none;stroke:#000000;stroke-width:0.7;stroke-linecap:round;" x2="12.046"/>
  <line y1="-30.854" x1="43.046" y2="-30.854" style="fill:none;stroke:#000000;stroke-width:0.7;stroke-linecap:round;" x2="43.046"/>
  <line y1="-30.854" x1="46.046" y2="-30.854" style="fill:none;stroke:#000000;stroke-width:0.7;stroke-linecap:round;" x2="46.046"/>
  <line y1="-30.854" x1="39.879" y2="-30.854" style="fill:none;stroke:#000000;stroke-width:0.7;stroke-linecap:round;" x2="39.879"/>
  <line y1="-26.854" x1="35.213" y2="-26.854" style="fill:none;stroke:#000000;stroke-width:0.7;stroke-linecap:round;" x2="35.213"/>
  <line y1="-26.854" x1="38.213" y2="-26.854" style="fill:none;stroke:#000000;stroke-width:0.7;stroke-linecap:round;" x2="38.213"/>
  <line y1="-26.854" x1="32.046" y2="-26.854" style="fill:none;stroke:#000000;stroke-width:0.7;stroke-linecap:round;" x2="32.046"/>
  <line y1="-26.854" x1="7.046" y2="-26.854" style="fill:none;stroke:#000000;stroke-width:0.7;stroke-linecap:round;" x2="7.046"/>
  <line y1="-26.854" x1="10.046" y2="-26.854" style="fill:none;stroke:#000000;stroke-width:0.7;stroke-linecap:round;" x2="10.046"/>
  <line y1="-26.854" x1="3.879" y2="-26.854" style="fill:none;stroke:#000000;stroke-width:0.7;stroke-linecap:round;" x2="3.879"/>
  <line y1="-22.854" x1="27.212" y2="-22.854" style="fill:none;stroke:#000000;stroke-width:0.7;stroke-linecap:round;" x2="27.212"/>
  <line y1="-22.854" x1="30.212" y2="-22.854" style="fill:none;stroke:#000000;stroke-width:0.7;stroke-linecap:round;" x2="30.212"/>
  <line y1="-22.854" x1="24.046" y2="-22.854" style="fill:none;stroke:#000000;stroke-width:0.7;stroke-linecap:round;" x2="24.046"/>
  <line y1="-19.188" x1="22.546" y2="-19.188" style="fill:none;stroke:#000000;stroke-width:0.7;stroke-linecap:round;" x2="22.546"/>
  <line y1="-19.188" x1="25.546" y2="-19.188" style="fill:none;stroke:#000000;stroke-width:0.7;stroke-linecap:round;" x2="25.546"/>
  <line y1="-19.188" x1="19.379" y2="-19.188" style="fill:none;stroke:#000000;stroke-width:0.7;stroke-linecap:round;" x2="19.379"/>
  <line y1="-19.188" x1="50.379" y2="-19.188" style="fill:none;stroke:#000000;stroke-width:0.7;stroke-linecap:round;" x2="50.379"/>
  <line y1="-19.188" x1="53.379" y2="-19.188" style="fill:none;stroke:#000000;stroke-width:0.7;stroke-linecap:round;" x2="53.379"/>
  <line y1="-19.188" x1="47.213" y2="-19.188" style="fill:none;stroke:#000000;stroke-width:0.7;stroke-linecap:round;" x2="47.213"/>
  <line y1="-15.688" x1="43.213" y2="-15.688" style="fill:none;stroke:#000000;stroke-width:0.7;stroke-linecap:round;" x2="43.213"/>
  <line y1="-15.688" x1="46.213" y2="-15.688" style="fill:none;stroke:#000000;stroke-width:0.7;stroke-linecap:round;" x2="46.213"/>
  <line y1="-15.688" x1="40.046" y2="-15.688" style="fill:none;stroke:#000000;stroke-width:0.7;stroke-linecap:round;" x2="40.046"/>
  <line y1="-15.688" x1="15.546" y2="-15.688" style="fill:none;stroke:#000000;stroke-width:0.7;stroke-linecap:round;" x2="15.546"/>
  <line y1="-15.688" x1="18.546" y2="-15.688" style="fill:none;stroke:#000000;stroke-width:0.7;stroke-linecap:round;" x2="18.546"/>
  <line y1="-15.688" x1="12.379" y2="-15.688" style="fill:none;stroke:#000000;stroke-width:0.7;stroke-linecap:round;" x2="12.379"/>
  <line y1="-12.021" x1="7.379" y2="-12.021" style="fill:none;stroke:#000000;stroke-width:0.7;stroke-linecap:round;" x2="7.379"/>
  <line y1="-12.021" x1="10.379" y2="-12.021" style="fill:none;stroke:#000000;stroke-width:0.7;stroke-linecap:round;" x2="10.379"/>
  <line y1="-12.021" x1="4.213" y2="-12.021" style="fill:none;stroke:#000000;stroke-width:0.7;stroke-linecap:round;" x2="4.213"/>
  <line y1="-12.021" x1="35.213" y2="-12.021" style="fill:none;stroke:#000000;stroke-width:0.7;stroke-linecap:round;" x2="35.213"/>
  <line y1="-12.021" x1="38.213" y2="-12.021" style="fill:none;stroke:#000000;stroke-width:0.7;stroke-linecap:round;" x2="38.213"/>
  <line y1="-12.021" x1="32.046" y2="-12.021" style="fill:none;stroke:#000000;stroke-width:0.7;stroke-linecap:round;" x2="32.046"/>
  <line y1="-7.921" x1="26.712" y2="-7.921" style="fill:none;stroke:#000000;stroke-width:0.7;stroke-linecap:round;" x2="26.712"/>
  <line y1="-7.921" x1="29.712" y2="-7.921" style="fill:none;stroke:#000000;stroke-width:0.7;stroke-linecap:round;" x2="29.712"/>
  <line y1="-7.921" x1="23.546" y2="-7.921" style="fill:none;stroke:#000000;stroke-width:0.7;stroke-linecap:round;" x2="23.546"/>
  <line y1="-4.137" x1="19.712" y2="-4.137" style="fill:none;stroke:#000000;stroke-width:0.7;stroke-linecap:round;" x2="19.712"/>
  <line y1="-4.137" x1="22.712" y2="-4.137" style="fill:none;stroke:#000000;stroke-width:0.7;stroke-linecap:round;" x2="22.712"/>
  <line y1="-4.137" x1="16.546" y2="-4.137" style="fill:none;stroke:#000000;stroke-width:0.7;stroke-linecap:round;" x2="16.546"/>
  <line y1="-4.088" x1="46.746" y2="-4.088" style="fill:none;stroke:#000000;stroke-width:0.7;stroke-linecap:round;" x2="46.746"/>
  <line y1="-4.088" x1="49.746" y2="-4.088" style="fill:none;stroke:#000000;stroke-width:0.7;stroke-linecap:round;" x2="49.746"/>
  <line y1="-4.088" x1="43.579" y2="-4.088" style="fill:none;stroke:#000000;stroke-width:0.7;stroke-linecap:round;" x2="43.579"/>
  <line y1="-7.921" x1="54.713" y2="-7.921" style="fill:none;stroke:#000000;stroke-width:0.7;stroke-linecap:round;" x2="54.713"/>
  <line y1="-7.921" x1="3.379" y2="-7.921" style="fill:none;stroke:#000000;stroke-width:0.7;stroke-linecap:round;" x2="3.379"/>
  <line y1="-7.921" x1="51.546" y2="-7.921" style="fill:none;stroke:#000000;stroke-width:0.7;stroke-linecap:round;" x2="51.546"/>
  <line y1="-22.854" x1="54.713" y2="-22.854" style="fill:none;stroke:#000000;stroke-width:0.7;stroke-linecap:round;" x2="54.713"/>
  <line y1="-22.854" x1="51.546" y2="-22.854" style="fill:none;stroke:#000000;stroke-width:0.7;stroke-linecap:round;" x2="51.546"/>
  <line y1="-22.854" x1="4.046" y2="-22.854" style="fill:none;stroke:#000000;stroke-width:0.7;stroke-linecap:round;" x2="4.046"/>
  <line y1="-45.754" x1="43.046" y2="-45.754" style="fill:none;stroke:#000000;stroke-width:0.7;stroke-linecap:round;" x2="43.046"/>
  <line y1="-45.754" x1="46.213" y2="-45.754" style="fill:none;stroke:#000000;stroke-width:0.7;stroke-linecap:round;" x2="46.213"/>
  <line y1="-45.754" x1="39.379" y2="-45.754" style="fill:none;stroke:#000000;stroke-width:0.7;stroke-linecap:round;" x2="39.379"/>
  <line y1="-41.604" x1="48.546" y2="-41.604" style="fill:none;stroke:#000000;stroke-width:0.7;stroke-linecap:round;" x2="48.546"/>
  <line y1="-41.604" x1="51.379" y2="-41.604" style="fill:none;stroke:#000000;stroke-width:0.7;stroke-linecap:round;" x2="51.379"/>
  <line y1="-41.604" x1="45.213" y2="-41.604" style="fill:none;stroke:#000000;stroke-width:0.7;stroke-linecap:round;" x2="45.213"/>
  <line y1="-41.604" x1="21.546" y2="-41.604" style="fill:none;stroke:#000000;stroke-width:0.7;stroke-linecap:round;" x2="21.546"/>
  <line y1="-41.604" x1="24.379" y2="-41.604" style="fill:none;stroke:#000000;stroke-width:0.7;stroke-linecap:round;" x2="24.379"/>
  <line y1="-41.604" x1="18.212" y2="-41.604" style="fill:none;stroke:#000000;stroke-width:0.7;stroke-linecap:round;" x2="18.212"/>
  <line y1="-37.854" x1="27.046" y2="-37.854" style="fill:none;stroke:#000000;stroke-width:0.7;stroke-linecap:round;" x2="27.046"/>
  <line y1="-37.854" x1="29.879" y2="-37.854" style="fill:none;stroke:#000000;stroke-width:0.7;stroke-linecap:round;" x2="29.879"/>
  <line y1="-37.854" x1="23.712" y2="-37.854" style="fill:none;stroke:#000000;stroke-width:0.7;stroke-linecap:round;" x2="23.712"/>
  <line y1="-37.854" x1="54.879" y2="-37.854" style="fill:none;stroke:#000000;stroke-width:0.7;stroke-linecap:round;" x2="54.879"/>
  <line y1="-37.854" x1="3.612" y2="-37.854" style="fill:none;stroke:#000000;stroke-width:0.7;stroke-linecap:round;" x2="3.612"/>
  <line y1="-37.854" x1="51.546" y2="-37.854" style="fill:none;stroke:#000000;stroke-width:0.7;stroke-linecap:round;" x2="51.546"/>
  <line y1="-49.771" x1="4.546" y2="-49.771" style="fill:none;stroke:#000000;stroke-width:0.7;stroke-linecap:round;" x2="4.546"/>
  <line y1="-49.771" x1="38.879" y2="-49.771" style="fill:none;stroke:#000000;stroke-width:0.7;stroke-linecap:round;" x2="38.879"/>
  <line y1="-49.771" x1="32.879" y2="-49.771" style="fill:none;stroke:#000000;stroke-width:0.7;stroke-linecap:round;" x2="32.879"/>
  <line y1="-51.975" x1="1.654" y2="-51.975" style="fill:none;stroke:#000000;stroke-width:0.3;" x2="55.779"/>
  <line y1="-47.8" x1="1.654" y2="-47.8" style="fill:none;stroke:#000000;stroke-width:0.3;" x2="55.779"/>
  <line y1="-43.612" x1="1.654" y2="-43.612" style="fill:none;stroke:#000000;stroke-width:0.3;" x2="55.779"/>
  <line y1="-14" x1="1.654" y2="-14" style="fill:none;stroke:#000000;stroke-width:0.3;" x2="55.842"/>
  <line y1="-10.225" x1="1.654" y2="-10.225" style="fill:none;stroke:#000000;stroke-width:0.3;" x2="55.779"/>
  <line y1="-39.594" x1="1.654" y2="-39.594" style="fill:none;stroke:#000000;stroke-width:0.3;" x2="55.779"/>
  <line y1="-36.312" x1="1.654" y2="-36.312" style="fill:none;stroke:#000000;stroke-width:0.3;" x2="55.779"/>
  <line y1="-32.887" x1="1.654" y2="-32.887" style="fill:none;stroke:#000000;stroke-width:0.3;" x2="55.779"/>
  <line y1="-28.837" x1="1.654" y2="-28.837" style="fill:none;stroke:#000000;stroke-width:0.3;" x2="55.779"/>
  <line y1="-25.037" x1="1.654" y2="-25.037" style="fill:none;stroke:#000000;stroke-width:0.3;" x2="55.779"/>
  <line y1="-20.837" x1="1.654" y2="-20.837" style="fill:none;stroke:#000000;stroke-width:0.3;" x2="55.842"/>
  <line y1="-17.612" x1="1.654" y2="-17.612" style="fill:none;stroke:#000000;stroke-width:0.3;" x2="55.779"/>
  <line y1="-2.437" x1="1.654" y2="-2.437" style="fill:none;stroke:#000000;stroke-width:0.3;" x2="55.779"/>
  <line y1="-55.725" x1="7.579" y2="-51.975" style="fill:none;stroke:#000000;stroke-width:0.3;" x2="7.579"/>
  <line y1="-55.725" x1="20.329" y2="-51.975" style="fill:none;stroke:#000000;stroke-width:0.3;" x2="20.329"/>
  <line y1="-55.725" x1="33.829" y2="-51.975" style="fill:none;stroke:#000000;stroke-width:0.3;" x2="33.829"/>
  <line y1="-55.725" x1="48.204" y2="-51.975" style="fill:none;stroke:#000000;stroke-width:0.3;" x2="48.204"/>
  <line y1="-2.45" x1="7.579" y2="-1.6" style="fill:none;stroke:#000000;stroke-width:0.3;" x2="7.579"/>
  <line y1="-2.45" x1="20.329" y2="-1.6" style="fill:none;stroke:#000000;stroke-width:0.3;" x2="20.329"/>
  <line y1="-2.45" x1="33.829" y2="-1.6" style="fill:none;stroke:#000000;stroke-width:0.3;" x2="33.829"/>
  <line y1="-2.45" x1="48.204" y2="-1.6" style="fill:none;stroke:#000000;stroke-width:0.3;" x2="48.204"/>
  <line y1="-52.037" x1="14.254" y2="-47.812" style="fill:none;stroke:#000000;stroke-width:0.3;" x2="14.254"/>
  <line y1="-52.037" x1="29.129" y2="-47.812" style="fill:none;stroke:#000000;stroke-width:0.3;" x2="29.129"/>
  <line y1="-52.037" x1="42.754" y2="-47.812" style="fill:none;stroke:#000000;stroke-width:0.3;" x2="42.754"/>
  <line y1="-52.037" x1="55.579" y2="-47.812" style="fill:none;stroke:#000000;stroke-width:0.3;" x2="55.579"/>
  <line y1="-47.675" x1="8.692" y2="-43.625" style="fill:none;stroke:#000000;stroke-width:0.3;" x2="8.692"/>
  <line y1="-47.675" x1="21.942" y2="-43.625" style="fill:none;stroke:#000000;stroke-width:0.3;" x2="21.942"/>
  <line y1="-47.675" x1="35.504" y2="-43.625" style="fill:none;stroke:#000000;stroke-width:0.3;" x2="35.504"/>
  <line y1="-47.675" x1="50.442" y2="-43.625" style="fill:none;stroke:#000000;stroke-width:0.3;" x2="50.442"/>
  <line y1="-43.625" x1="41.817" y2="-39.625" style="fill:none;stroke:#000000;stroke-width:0.3;" x2="41.817"/>
  <line y1="-43.625" x1="28.442" y2="-39.625" style="fill:none;stroke:#000000;stroke-width:0.3;" x2="28.442"/>
  <line y1="-43.625" x1="13.567" y2="-39.625" style="fill:none;stroke:#000000;stroke-width:0.3;" x2="13.567"/>
  <line y1="-43.625" x1="55.067" y2="-39.625" style="fill:none;stroke:#000000;stroke-width:0.3;" x2="55.067"/>
  <line y1="-39.625" x1="48.204" y2="-36.325" style="fill:none;stroke:#000000;stroke-width:0.3;" x2="48.204"/>
  <line y1="-39.625" x1="33.579" y2="-36.325" style="fill:none;stroke:#000000;stroke-width:0.3;" x2="33.579"/>
  <line y1="-39.625" x1="20.329" y2="-36.325" style="fill:none;stroke:#000000;stroke-width:0.3;" x2="20.329"/>
  <line y1="-39.625" x1="7.579" y2="-36.325" style="fill:none;stroke:#000000;stroke-width:0.3;" x2="7.579"/>
  <line y1="-36.325" x1="14.129" y2="-32.9" style="fill:none;stroke:#000000;stroke-width:0.3;" x2="14.129"/>
  <line y1="-36.325" x1="29.129" y2="-32.9" style="fill:none;stroke:#000000;stroke-width:0.3;" x2="29.129"/>
  <line y1="-36.325" x1="42.879" y2="-32.9" style="fill:none;stroke:#000000;stroke-width:0.3;" x2="42.879"/>
  <line y1="-36.325" x1="55.629" y2="-32.9" style="fill:none;stroke:#000000;stroke-width:0.3;" x2="55.629"/>
  <line y1="-32.9" x1="8.317" y2="-28.85" style="fill:none;stroke:#000000;stroke-width:0.3;" x2="8.317"/>
  <line y1="-32.9" x1="21.817" y2="-28.85" style="fill:none;stroke:#000000;stroke-width:0.3;" x2="21.817"/>
  <line y1="-32.9" x1="35.442" y2="-28.85" style="fill:none;stroke:#000000;stroke-width:0.3;" x2="35.442"/>
  <line y1="-32.9" x1="50.317" y2="-28.85" style="fill:none;stroke:#000000;stroke-width:0.3;" x2="50.317"/>
  <line y1="-28.787" x1="41.692" y2="-25.05" style="fill:none;stroke:#000000;stroke-width:0.3;" x2="41.692"/>
  <line y1="-28.787" x1="28.367" y2="-25.05" style="fill:none;stroke:#000000;stroke-width:0.3;" x2="28.367"/>
  <line y1="-28.787" x1="13.367" y2="-25.05" style="fill:none;stroke:#000000;stroke-width:0.3;" x2="13.367"/>
  <line y1="-28.787" x1="54.921" y2="-25.05" style="fill:none;stroke:#000000;stroke-width:0.3;" x2="54.921"/>
  <line y1="-24.987" x1="7.179" y2="-20.85" style="fill:none;stroke:#000000;stroke-width:0.3;" x2="7.179"/>
  <line y1="-24.987" x1="20.179" y2="-20.85" style="fill:none;stroke:#000000;stroke-width:0.3;" x2="20.179"/>
  <line y1="-24.987" x1="33.804" y2="-20.85" style="fill:none;stroke:#000000;stroke-width:0.3;" x2="33.804"/>
  <line y1="-24.987" x1="48.054" y2="-20.85" style="fill:none;stroke:#000000;stroke-width:0.3;" x2="48.054"/>
  <line y1="-20.787" x1="43.854" y2="-17.625" style="fill:none;stroke:#000000;stroke-width:0.3;" x2="43.854"/>
  <line y1="-20.787" x1="29.704" y2="-17.625" style="fill:none;stroke:#000000;stroke-width:0.3;" x2="29.704"/>
  <line y1="-20.787" x1="14.579" y2="-17.625" style="fill:none;stroke:#000000;stroke-width:0.3;" x2="14.579"/>
  <line y1="-20.787" x1="2.162" y2="-17.625" style="fill:none;stroke:#000000;stroke-width:0.3;" x2="2.162"/>
  <line y1="-17.562" x1="8.538" y2="-14" style="fill:none;stroke:#000000;stroke-width:0.3;" x2="8.538"/>
  <line y1="-17.562" x1="21.788" y2="-14" style="fill:none;stroke:#000000;stroke-width:0.3;" x2="21.788"/>
  <line y1="-17.562" x1="35.412" y2="-14" style="fill:none;stroke:#000000;stroke-width:0.3;" x2="35.412"/>
  <line y1="-17.562" x1="50.287" y2="-14" style="fill:none;stroke:#000000;stroke-width:0.3;" x2="50.287"/>
  <line y1="-13.95" x1="41.938" y2="-10.187" style="fill:none;stroke:#000000;stroke-width:0.3;" x2="41.938"/>
  <line y1="-13.95" x1="28.063" y2="-10.187" style="fill:none;stroke:#000000;stroke-width:0.3;" x2="28.063"/>
  <line y1="-13.95" x1="13.512" y2="-10.187" style="fill:none;stroke:#000000;stroke-width:0.3;" x2="13.512"/>
  <line y1="-13.95" x1="55.388" y2="-10.187" style="fill:none;stroke:#000000;stroke-width:0.3;" x2="55.388"/>
  <line y1="-5.812" x1="1.654" y2="-5.812" style="fill:none;stroke:#000000;stroke-width:0.3;" x2="55.779"/>
  <line y1="-5.838" x1="11.95" y2="-2.375" style="fill:none;stroke:#000000;stroke-width:0.3;" x2="11.95"/>
  <line y1="-5.838" x1="26.388" y2="-2.375" style="fill:none;stroke:#000000;stroke-width:0.3;" x2="26.388"/>
  <line y1="-5.838" x1="40.013" y2="-2.375" style="fill:none;stroke:#000000;stroke-width:0.3;" x2="40.013"/>
  <line y1="-5.838" x1="53.388" y2="-2.375" style="fill:none;stroke:#000000;stroke-width:0.3;" x2="53.388"/>
  <line y1="-10.187" x1="6.225" y2="-5.838" style="fill:none;stroke:#000000;stroke-width:0.3;" x2="6.225"/>
  <line y1="-10.187" x1="19.225" y2="-5.838" style="fill:none;stroke:#000000;stroke-width:0.3;" x2="19.225"/>
  <line y1="-10.187" x1="33.225" y2="-5.838" style="fill:none;stroke:#000000;stroke-width:0.3;" x2="33.225"/>
  <line y1="-10.187" x1="47.787" y2="-5.838" style="fill:none;stroke:#000000;stroke-width:0.3;" x2="47.787"/>
  <line y1="-54.067" x1="10.413" y2="-54.067" style="fill:none;stroke:#000000;stroke-width:0.3;" x2="17.663"/>
  <line y1="-54.067" x1="37.537" y2="-54.067" style="fill:none;stroke:#000000;stroke-width:0.3;" x2="44.787"/>
  <line y1="-49.804" x1="17.913" y2="-49.804" style="fill:none;stroke:#000000;stroke-width:0.3;" x2="25.163"/>
  <line y1="-49.804" x1="45.662" y2="-49.804" style="fill:none;stroke:#000000;stroke-width:0.3;" x2="52.912"/>
  <line y1="-45.742" x1="25.163" y2="-45.742" style="fill:none;stroke:#000000;stroke-width:0.3;" x2="32.412"/>
  <line y1="-45.742" x1="1.6" y2="-45.742" style="fill:none;stroke:#000000;stroke-width:0.3;" x2="6.088"/>
  <line y1="-41.492" x1="31.837" y2="-41.492" style="fill:none;stroke:#000000;stroke-width:0.3;" x2="39.088"/>
  <line y1="-41.492" x1="3.463" y2="-41.492" style="fill:none;stroke:#000000;stroke-width:0.3;" x2="10.712"/>
  <line y1="-37.992" x1="37.088" y2="-37.992" style="fill:none;stroke:#000000;stroke-width:0.3;" x2="44.338"/>
  <line y1="-34.617" x1="45.838" y2="-34.617" style="fill:none;stroke:#000000;stroke-width:0.3;" x2="53.088"/>
  <line y1="-30.742" x1="52.963" y2="-30.742" style="fill:none;stroke:#000000;stroke-width:0.3;" x2="55.746"/>
  <line y1="-26.992" x1="44.838" y2="-26.992" style="fill:none;stroke:#000000;stroke-width:0.3;" x2="52.088"/>
  <line y1="-22.992" x1="37.463" y2="-22.992" style="fill:none;stroke:#000000;stroke-width:0.3;" x2="44.713"/>
  <line y1="-19.242" x1="33.338" y2="-19.242" style="fill:none;stroke:#000000;stroke-width:0.3;" x2="40.588"/>
  <line y1="-15.742" x1="25.212" y2="-15.742" style="fill:none;stroke:#000000;stroke-width:0.3;" x2="32.463"/>
  <line y1="-12.117" x1="17.087" y2="-12.117" style="fill:none;stroke:#000000;stroke-width:0.3;" x2="24.337"/>
  <line y1="-7.742" x1="8.962" y2="-7.742" style="fill:none;stroke:#000000;stroke-width:0.3;" x2="16.212"/>
  <line y1="-4.067" x1="1.837" y2="-4.067" style="fill:none;stroke:#000000;stroke-width:0.3;" x2="9.087"/>
  <line y1="-37.879" x1="10.212" y2="-37.879" style="fill:none;stroke:#000000;stroke-width:0.3;" x2="17.462"/>
  <line y1="-34.629" x1="17.587" y2="-34.629" style="fill:none;stroke:#000000;stroke-width:0.3;" x2="24.837"/>
  <line y1="-30.879" x1="24.962" y2="-30.879" style="fill:none;stroke:#000000;stroke-width:0.3;" x2="32.213"/>
  <line y1="-26.879" x1="17.462" y2="-26.879" style="fill:none;stroke:#000000;stroke-width:0.3;" x2="24.712"/>
  <line y1="-22.879" x1="10.087" y2="-22.879" style="fill:none;stroke:#000000;stroke-width:0.3;" x2="17.337"/>
  <line y1="-19.129" x1="4.838" y2="-19.129" style="fill:none;stroke:#000000;stroke-width:0.3;" x2="12.087"/>
  <line y1="-15.629" x1="1.6" y2="-15.629" style="fill:none;stroke:#000000;stroke-width:0.3;" x2="5.463"/>
  <line y1="-12.004" x1="45.338" y2="-12.004" style="fill:none;stroke:#000000;stroke-width:0.3;" x2="52.588"/>
  <line y1="-7.879" x1="36.963" y2="-7.879" style="fill:none;stroke:#000000;stroke-width:0.3;" x2="44.213"/>
  <line y1="-4.129" x1="29.587" y2="-4.129" style="fill:none;stroke:#000000;stroke-width:0.3;" x2="36.838"/>
  <line y1="-45.742" x1="52.912" y2="-45.742" style="fill:none;stroke:#000000;stroke-width:0.3;" x2="55.725"/>
  <line y1="-15.629" x1="52.912" y2="-15.629" style="fill:none;stroke:#000000;stroke-width:0.3;" x2="55.725"/>
  <line y1="-30.742" x1="1.663" y2="-30.742" style="fill:none;stroke:#000000;stroke-width:0.3;" x2="4.287"/>
 </g>
</svg>
