<?xml version="1.0"?>
<!-- Converted with SVG Converter - Version 0.9.5 (Compiled Fri Feb 21 09:53:38 2020) - Copyright (C) 2011 Nokia -->
<svg xmlns="http://www.w3.org/2000/svg" viewBox="1.6 -55.725 54.242 54.125" baseProfile="tiny" x="0px" y="0px" xml:space="preserve" xmlns:xlink="http://www.w3.org/1999/xlink" height="54.125" version="1.1" width="54.242">
 <g>
  <rect x="1.6" y="-55.725" height="54.125" width="54.242" style="fill:none;"/>
  <line x2="55.779" y2="-51.975" x1="1.654" style="fill:none;stroke:#000000;stroke-width:0.3;" y1="-51.975"/>
  <line x2="55.779" y2="-47.8" x1="1.654" style="fill:none;stroke:#000000;stroke-width:0.3;" y1="-47.8"/>
  <line x2="55.779" y2="-43.612" x1="1.654" style="fill:none;stroke:#000000;stroke-width:0.3;" y1="-43.612"/>
  <line x2="55.842" y2="-14" x1="1.654" style="fill:none;stroke:#000000;stroke-width:0.3;" y1="-14"/>
  <line x2="55.779" y2="-10.225" x1="1.654" style="fill:none;stroke:#000000;stroke-width:0.3;" y1="-10.225"/>
  <line x2="55.779" y2="-39.594" x1="1.654" style="fill:none;stroke:#000000;stroke-width:0.3;" y1="-39.594"/>
  <line x2="55.779" y2="-36.312" x1="1.654" style="fill:none;stroke:#000000;stroke-width:0.3;" y1="-36.312"/>
  <line x2="55.779" y2="-32.887" x1="1.654" style="fill:none;stroke:#000000;stroke-width:0.3;" y1="-32.887"/>
  <line x2="55.779" y2="-28.837" x1="1.654" style="fill:none;stroke:#000000;stroke-width:0.3;" y1="-28.837"/>
  <line x2="55.779" y2="-25.037" x1="1.654" style="fill:none;stroke:#000000;stroke-width:0.3;" y1="-25.037"/>
  <line x2="55.842" y2="-20.837" x1="1.654" style="fill:none;stroke:#000000;stroke-width:0.3;" y1="-20.837"/>
  <line x2="55.779" y2="-17.612" x1="1.654" style="fill:none;stroke:#000000;stroke-width:0.3;" y1="-17.612"/>
  <line x2="55.779" y2="-2.437" x1="1.654" style="fill:none;stroke:#000000;stroke-width:0.3;" y1="-2.437"/>
  <line x2="7.579" y2="-51.975" x1="7.579" style="fill:none;stroke:#000000;stroke-width:0.3;" y1="-55.725"/>
  <line x2="20.329" y2="-51.975" x1="20.329" style="fill:none;stroke:#000000;stroke-width:0.3;" y1="-55.725"/>
  <line x2="33.829" y2="-51.975" x1="33.829" style="fill:none;stroke:#000000;stroke-width:0.3;" y1="-55.725"/>
  <line x2="48.204" y2="-51.975" x1="48.204" style="fill:none;stroke:#000000;stroke-width:0.3;" y1="-55.725"/>
  <line x2="7.579" y2="-1.6" x1="7.579" style="fill:none;stroke:#000000;stroke-width:0.3;" y1="-2.45"/>
  <line x2="20.329" y2="-1.6" x1="20.329" style="fill:none;stroke:#000000;stroke-width:0.3;" y1="-2.45"/>
  <line x2="33.829" y2="-1.6" x1="33.829" style="fill:none;stroke:#000000;stroke-width:0.3;" y1="-2.45"/>
  <line x2="48.204" y2="-1.6" x1="48.204" style="fill:none;stroke:#000000;stroke-width:0.3;" y1="-2.45"/>
  <line x2="14.254" y2="-47.812" x1="14.254" style="fill:none;stroke:#000000;stroke-width:0.3;" y1="-52.037"/>
  <line x2="29.129" y2="-47.812" x1="29.129" style="fill:none;stroke:#000000;stroke-width:0.3;" y1="-52.037"/>
  <line x2="42.754" y2="-47.812" x1="42.754" style="fill:none;stroke:#000000;stroke-width:0.3;" y1="-52.037"/>
  <line x2="55.579" y2="-47.812" x1="55.579" style="fill:none;stroke:#000000;stroke-width:0.3;" y1="-52.037"/>
  <line x2="8.692" y2="-43.625" x1="8.692" style="fill:none;stroke:#000000;stroke-width:0.3;" y1="-47.675"/>
  <line x2="21.942" y2="-43.625" x1="21.942" style="fill:none;stroke:#000000;stroke-width:0.3;" y1="-47.675"/>
  <line x2="35.504" y2="-43.625" x1="35.504" style="fill:none;stroke:#000000;stroke-width:0.3;" y1="-47.675"/>
  <line x2="50.442" y2="-43.625" x1="50.442" style="fill:none;stroke:#000000;stroke-width:0.3;" y1="-47.675"/>
  <line x2="41.817" y2="-39.625" x1="41.817" style="fill:none;stroke:#000000;stroke-width:0.3;" y1="-43.625"/>
  <line x2="28.442" y2="-39.625" x1="28.442" style="fill:none;stroke:#000000;stroke-width:0.3;" y1="-43.625"/>
  <line x2="13.567" y2="-39.625" x1="13.567" style="fill:none;stroke:#000000;stroke-width:0.3;" y1="-43.625"/>
  <line x2="55.067" y2="-39.625" x1="55.067" style="fill:none;stroke:#000000;stroke-width:0.3;" y1="-43.625"/>
  <line x2="48.204" y2="-36.325" x1="48.204" style="fill:none;stroke:#000000;stroke-width:0.3;" y1="-39.625"/>
  <line x2="33.579" y2="-36.325" x1="33.579" style="fill:none;stroke:#000000;stroke-width:0.3;" y1="-39.625"/>
  <line x2="20.329" y2="-36.325" x1="20.329" style="fill:none;stroke:#000000;stroke-width:0.3;" y1="-39.625"/>
  <line x2="7.579" y2="-36.325" x1="7.579" style="fill:none;stroke:#000000;stroke-width:0.3;" y1="-39.625"/>
  <line x2="14.129" y2="-32.9" x1="14.129" style="fill:none;stroke:#000000;stroke-width:0.3;" y1="-36.325"/>
  <line x2="29.129" y2="-32.9" x1="29.129" style="fill:none;stroke:#000000;stroke-width:0.3;" y1="-36.325"/>
  <line x2="42.879" y2="-32.9" x1="42.879" style="fill:none;stroke:#000000;stroke-width:0.3;" y1="-36.325"/>
  <line x2="55.629" y2="-32.9" x1="55.629" style="fill:none;stroke:#000000;stroke-width:0.3;" y1="-36.325"/>
  <line x2="8.317" y2="-28.85" x1="8.317" style="fill:none;stroke:#000000;stroke-width:0.3;" y1="-32.9"/>
  <line x2="21.817" y2="-28.85" x1="21.817" style="fill:none;stroke:#000000;stroke-width:0.3;" y1="-32.9"/>
  <line x2="35.442" y2="-28.85" x1="35.442" style="fill:none;stroke:#000000;stroke-width:0.3;" y1="-32.9"/>
  <line x2="50.317" y2="-28.85" x1="50.317" style="fill:none;stroke:#000000;stroke-width:0.3;" y1="-32.9"/>
  <line x2="41.692" y2="-25.05" x1="41.692" style="fill:none;stroke:#000000;stroke-width:0.3;" y1="-28.787"/>
  <line x2="28.367" y2="-25.05" x1="28.367" style="fill:none;stroke:#000000;stroke-width:0.3;" y1="-28.787"/>
  <line x2="13.367" y2="-25.05" x1="13.367" style="fill:none;stroke:#000000;stroke-width:0.3;" y1="-28.787"/>
  <line x2="54.921" y2="-25.05" x1="54.921" style="fill:none;stroke:#000000;stroke-width:0.3;" y1="-28.787"/>
  <line x2="7.179" y2="-20.85" x1="7.179" style="fill:none;stroke:#000000;stroke-width:0.3;" y1="-24.987"/>
  <line x2="20.179" y2="-20.85" x1="20.179" style="fill:none;stroke:#000000;stroke-width:0.3;" y1="-24.987"/>
  <line x2="33.804" y2="-20.85" x1="33.804" style="fill:none;stroke:#000000;stroke-width:0.3;" y1="-24.987"/>
  <line x2="48.054" y2="-20.85" x1="48.054" style="fill:none;stroke:#000000;stroke-width:0.3;" y1="-24.987"/>
  <line x2="43.854" y2="-17.625" x1="43.854" style="fill:none;stroke:#000000;stroke-width:0.3;" y1="-20.787"/>
  <line x2="29.704" y2="-17.625" x1="29.704" style="fill:none;stroke:#000000;stroke-width:0.3;" y1="-20.787"/>
  <line x2="14.579" y2="-17.625" x1="14.579" style="fill:none;stroke:#000000;stroke-width:0.3;" y1="-20.787"/>
  <line x2="2.162" y2="-17.625" x1="2.162" style="fill:none;stroke:#000000;stroke-width:0.3;" y1="-20.787"/>
  <line x2="8.538" y2="-14" x1="8.538" style="fill:none;stroke:#000000;stroke-width:0.3;" y1="-17.562"/>
  <line x2="21.788" y2="-14" x1="21.788" style="fill:none;stroke:#000000;stroke-width:0.3;" y1="-17.562"/>
  <line x2="35.412" y2="-14" x1="35.412" style="fill:none;stroke:#000000;stroke-width:0.3;" y1="-17.562"/>
  <line x2="50.287" y2="-14" x1="50.287" style="fill:none;stroke:#000000;stroke-width:0.3;" y1="-17.562"/>
  <line x2="41.938" y2="-10.187" x1="41.938" style="fill:none;stroke:#000000;stroke-width:0.3;" y1="-13.95"/>
  <line x2="28.063" y2="-10.187" x1="28.063" style="fill:none;stroke:#000000;stroke-width:0.3;" y1="-13.95"/>
  <line x2="13.512" y2="-10.187" x1="13.512" style="fill:none;stroke:#000000;stroke-width:0.3;" y1="-13.95"/>
  <line x2="55.388" y2="-10.187" x1="55.388" style="fill:none;stroke:#000000;stroke-width:0.3;" y1="-13.95"/>
  <line x2="55.779" y2="-5.812" x1="1.654" style="fill:none;stroke:#000000;stroke-width:0.3;" y1="-5.812"/>
  <line x2="11.95" y2="-2.375" x1="11.95" style="fill:none;stroke:#000000;stroke-width:0.3;" y1="-5.838"/>
  <line x2="26.388" y2="-2.375" x1="26.388" style="fill:none;stroke:#000000;stroke-width:0.3;" y1="-5.838"/>
  <line x2="40.013" y2="-2.375" x1="40.013" style="fill:none;stroke:#000000;stroke-width:0.3;" y1="-5.838"/>
  <line x2="53.388" y2="-2.375" x1="53.388" style="fill:none;stroke:#000000;stroke-width:0.3;" y1="-5.838"/>
  <line x2="6.225" y2="-5.838" x1="6.225" style="fill:none;stroke:#000000;stroke-width:0.3;" y1="-10.187"/>
  <line x2="19.225" y2="-5.838" x1="19.225" style="fill:none;stroke:#000000;stroke-width:0.3;" y1="-10.187"/>
  <line x2="33.225" y2="-5.838" x1="33.225" style="fill:none;stroke:#000000;stroke-width:0.3;" y1="-10.187"/>
  <line x2="47.787" y2="-5.838" x1="47.787" style="fill:none;stroke:#000000;stroke-width:0.3;" y1="-10.187"/>
  <line x2="17.663" y2="-54.067" x1="10.413" style="fill:none;stroke:#000000;stroke-width:0.3;" y1="-54.067"/>
  <line x2="44.787" y2="-54.067" x1="37.537" style="fill:none;stroke:#000000;stroke-width:0.3;" y1="-54.067"/>
  <line x2="25.163" y2="-49.804" x1="17.913" style="fill:none;stroke:#000000;stroke-width:0.3;" y1="-49.804"/>
  <line x2="52.912" y2="-49.804" x1="45.662" style="fill:none;stroke:#000000;stroke-width:0.3;" y1="-49.804"/>
  <line x2="32.412" y2="-45.742" x1="25.163" style="fill:none;stroke:#000000;stroke-width:0.3;" y1="-45.742"/>
  <line x2="6.088" y2="-45.742" x1="1.6" style="fill:none;stroke:#000000;stroke-width:0.3;" y1="-45.742"/>
  <line x2="39.088" y2="-41.492" x1="31.837" style="fill:none;stroke:#000000;stroke-width:0.3;" y1="-41.492"/>
  <line x2="10.712" y2="-41.492" x1="3.463" style="fill:none;stroke:#000000;stroke-width:0.3;" y1="-41.492"/>
  <line x2="44.338" y2="-37.992" x1="37.088" style="fill:none;stroke:#000000;stroke-width:0.3;" y1="-37.992"/>
  <line x2="53.088" y2="-34.617" x1="45.838" style="fill:none;stroke:#000000;stroke-width:0.3;" y1="-34.617"/>
  <line x2="55.746" y2="-30.742" x1="52.963" style="fill:none;stroke:#000000;stroke-width:0.3;" y1="-30.742"/>
  <line x2="52.088" y2="-26.992" x1="44.838" style="fill:none;stroke:#000000;stroke-width:0.3;" y1="-26.992"/>
  <line x2="44.713" y2="-22.992" x1="37.463" style="fill:none;stroke:#000000;stroke-width:0.3;" y1="-22.992"/>
  <line x2="40.588" y2="-19.242" x1="33.338" style="fill:none;stroke:#000000;stroke-width:0.3;" y1="-19.242"/>
  <line x2="32.463" y2="-15.742" x1="25.212" style="fill:none;stroke:#000000;stroke-width:0.3;" y1="-15.742"/>
  <line x2="24.337" y2="-12.117" x1="17.087" style="fill:none;stroke:#000000;stroke-width:0.3;" y1="-12.117"/>
  <line x2="16.212" y2="-7.742" x1="8.962" style="fill:none;stroke:#000000;stroke-width:0.3;" y1="-7.742"/>
  <line x2="9.087" y2="-4.067" x1="1.837" style="fill:none;stroke:#000000;stroke-width:0.3;" y1="-4.067"/>
  <line x2="17.462" y2="-37.879" x1="10.212" style="fill:none;stroke:#000000;stroke-width:0.3;" y1="-37.879"/>
  <line x2="24.837" y2="-34.629" x1="17.587" style="fill:none;stroke:#000000;stroke-width:0.3;" y1="-34.629"/>
  <line x2="32.213" y2="-30.879" x1="24.962" style="fill:none;stroke:#000000;stroke-width:0.3;" y1="-30.879"/>
  <line x2="24.712" y2="-26.879" x1="17.462" style="fill:none;stroke:#000000;stroke-width:0.3;" y1="-26.879"/>
  <line x2="17.337" y2="-22.879" x1="10.087" style="fill:none;stroke:#000000;stroke-width:0.3;" y1="-22.879"/>
  <line x2="12.087" y2="-19.129" x1="4.838" style="fill:none;stroke:#000000;stroke-width:0.3;" y1="-19.129"/>
  <line x2="5.463" y2="-15.629" x1="1.6" style="fill:none;stroke:#000000;stroke-width:0.3;" y1="-15.629"/>
  <line x2="52.588" y2="-12.004" x1="45.338" style="fill:none;stroke:#000000;stroke-width:0.3;" y1="-12.004"/>
  <line x2="44.213" y2="-7.879" x1="36.963" style="fill:none;stroke:#000000;stroke-width:0.3;" y1="-7.879"/>
  <line x2="36.838" y2="-4.129" x1="29.587" style="fill:none;stroke:#000000;stroke-width:0.3;" y1="-4.129"/>
  <line x2="55.725" y2="-45.742" x1="52.912" style="fill:none;stroke:#000000;stroke-width:0.3;" y1="-45.742"/>
  <line x2="55.725" y2="-15.629" x1="52.912" style="fill:none;stroke:#000000;stroke-width:0.3;" y1="-15.629"/>
  <line x2="4.287" y2="-30.742" x1="1.663" style="fill:none;stroke:#000000;stroke-width:0.3;" y1="-30.742"/>
 </g>
</svg>
