<?xml version="1.0"?>
<!-- Converted with SVG Converter - Version 0.9.5 (Compiled Fri Feb 21 09:53:38 2020) - Copyright (C) 2011 Nokia -->
<svg xmlns="http://www.w3.org/2000/svg" y="0px" xmlns:xlink="http://www.w3.org/1999/xlink" height="54" viewBox="0.064 -54.148 54 54" baseProfile="tiny" width="54" version="1.1" x="0px" xml:space="preserve">
 <g>
  <rect y="-54.148" height="54" width="54" x="0.064" style="fill:none;"/>
  <path d="M5.23-39.648c4.092-0.487,10.134-1.62,16.872-3.235" style="fill:none;stroke:#000000;stroke-width:0.3;"/>
  <path d="M38.394-47.419c-3.167,1.015-6.389,1.958-9.553,2.815" style="fill:none;stroke:#000000;stroke-width:0.3;"/>
  <path d="M54.063-53.398c-2.21,1.032-4.602,2.03-7.107,2.988" style="fill:none;stroke:#000000;stroke-width:0.3;"/>
  <path d="M38.394-47.419c2.931-0.939,5.815-1.94,8.563-2.991" style="fill:none;stroke:#000000;stroke-width:0.3;"/>
  <path d="M22.102-42.883c2.187-0.524,4.448-1.1,6.739-1.72" style="fill:none;stroke:#000000;stroke-width:0.3;"/>
  <line y2="-54.148" x1="0.064" x2="1.67" y1="-53.398" style="fill:none;stroke:#000000;stroke-width:0.3;"/>
  <line y2="-1.097" x1="3.736" x2="3.813" y1="-1.061" style="fill:none;stroke:#000000;stroke-width:0.3;"/>
  <line y2="-0.148" x1="3.736" x2="1.78" y1="-1.061" style="fill:none;stroke:#000000;stroke-width:0.3;"/>
  <path d="M41.466-1.135c0.995,0.213,2,0.415,3.017,0.605" style="fill:none;stroke:#000000;stroke-width:0.3;"/>
  <path d="M44.483-0.531c0.72,0.134,1.445,0.262,2.175,0.383" style="fill:none;stroke:#000000;stroke-width:0.3;"/>
  <path d="M19.801-7.773C16.096-9.215,12.705-10.67,9.667-12" style="fill:none;stroke:#000000;stroke-width:0.3;"/>
  <path d="M32.573-3.394c2.85,0.833,5.819,1.599,8.893,2.258" style="fill:none;stroke:#000000;stroke-width:0.3;"/>
  <path d="M19.801-7.773c3.922,1.527,8.195,3.041,12.772,4.379" style="fill:none;stroke:#000000;stroke-width:0.3;"/>
  <path d="M9.667-12c-1.837-0.804-3.544-1.563-5.113-2.246" style="fill:none;stroke:#000000;stroke-width:0.3;"/>
  <path d="M4.554-14.246c-0.053-0.023-0.105-0.046-0.158-0.069" style="fill:none;stroke:#000000;stroke-width:0.3;"/>
  <path d="M29.012-18.714c-2.278,0.547-4.601,1.075-6.94,1.57" style="fill:none;stroke:#000000;stroke-width:0.3;"/>
  <path d="M4.554-14.246c4.432-0.483,9.087-1.229,13.741-2.132" style="fill:none;stroke:#000000;stroke-width:0.3;"/>
  <path d="M46.245-23.407c2.994-0.913,5.644-1.776,7.819-2.529" style="fill:none;stroke:#000000;stroke-width:0.3;"/>
  <path d="M18.295-16.378c1.26-0.245,2.521-0.501,3.776-0.767" style="fill:none;stroke:#000000;stroke-width:0.3;"/>
  <path d="M29.012-18.714c0.746-0.179,1.487-0.36,2.222-0.544" style="fill:none;stroke:#000000;stroke-width:0.3;"/>
  <path d="M4.554-14.246c-1.526,0.166-3.026,0.301-4.491,0.401" style="fill:none;stroke:#000000;stroke-width:0.3;"/>
  <path d="M31.233-19.258c5.467-1.36,10.61-2.808,15.011-4.149" style="fill:none;stroke:#000000;stroke-width:0.3;"/>
  <path d="M54.063-41.348c-0.444-0.156-0.881-0.312-1.312-0.466" style="fill:none;stroke:#000000;stroke-width:0.3;"/>
  <path d="M38.394-47.419c2.96,1.283,7.969,3.317,14.358,5.604" style="fill:none;stroke:#000000;stroke-width:0.3;"/>
  <path d="M38.394-47.419c-0.048-0.021-0.096-0.042-0.143-0.062" style="fill:none;stroke:#000000;stroke-width:0.3;"/>
  <path d="M37.988-13.969c-4.143-0.299-11.518-1.045-15.917-3.175" style="fill:none;stroke:#000000;stroke-width:0.3;"/>
  <line y2="-17.148" x1="22.071" x2="22.063" y1="-17.144" style="fill:none;stroke:#000000;stroke-width:0.3;"/>
  <path d="M37.988-13.969c1.039,0.075,1.875,0.122,2.409,0.155    c2.667,0.167,7.688,0.167,7.688,0.167c1.904,0.014,3.906-0.055,5.979-0.196" style="fill:none;stroke:#000000;stroke-width:0.3;"/>
  <path d="M19.832-35.116c-7.308-2.021-14.045-4.206-19.769-6.225" style="fill:none;stroke:#000000;stroke-width:0.3;"/>
  <path d="M19.832-35.116c8.946,2.473,18.749,4.701,28.602,6.078" style="fill:none;stroke:#000000;stroke-width:0.3;"/>
  <path d="M48.434-29.038c1.876,0.262,3.755,0.494,5.63,0.69" style="fill:none;stroke:#000000;stroke-width:0.3;"/>
  <path d="M0.064-41.94c7.492-0.733,22.25-2.554,34.68-5.284" style="fill:none;stroke:#000000;stroke-width:0.3;"/>
  <path d="M34.743-47.225c4.223-0.928,8.178-1.96,11.487-3.09" style="fill:none;stroke:#000000;stroke-width:0.3;"/>
  <path d="M37.853-50.556c-10.327,2.197-22.033,3.323-31.562,3.933" style="fill:none;stroke:#000000;stroke-width:0.3;"/>
  <path d="M0.064-46.276c1.93-0.093,4.02-0.207,6.228-0.348" style="fill:none;stroke:#000000;stroke-width:0.3;"/>
  <path d="M37.853-50.556c4.098-0.872,7.979-1.913,11.419-3.157" style="fill:none;stroke:#000000;stroke-width:0.3;"/>
  <path d="M17.874-51.02c-1.535,0.102-3.06,0.191-4.566,0.268" style="fill:none;stroke:#000000;stroke-width:0.3;"/>
  <path d="M17.874-51.02c8.724-0.58,17.719-1.573,24.92-3.128" style="fill:none;stroke:#000000;stroke-width:0.3;"/>
  <path d="M0.064-50.355c3.99-0.031,8.52-0.155,13.244-0.397" style="fill:none;stroke:#000000;stroke-width:0.3;"/>
  <path d="M48.563-1.648c-1.26,0.398-2.627,0.771-4.081,1.117" style="fill:none;stroke:#000000;stroke-width:0.3;"/>
  <path d="M42.794-0.148c0.575-0.124,1.138-0.252,1.689-0.383" style="fill:none;stroke:#000000;stroke-width:0.3;"/>
  <path d="M31.556-1.136C21.963-0.507,12.005-0.65,3.736-1.061" style="fill:none;stroke:#000000;stroke-width:0.3;"/>
  <path d="M31.556-1.136c2.327-0.152,4.632-0.351,6.887-0.602" style="fill:none;stroke:#000000;stroke-width:0.3;"/>
  <path d="M0.064-1.266c1.18,0.074,2.406,0.143,3.673,0.206" style="fill:none;stroke:#000000;stroke-width:0.3;"/>
  <path d="M20.449-39.196c6.851,2.554,14.168,4.45,21.423,5.826" style="fill:none;stroke:#000000;stroke-width:0.3;"/>
  <path d="M20.449-39.196c-1.774-0.661-3.517-1.366-5.219-2.118" style="fill:none;stroke:#000000;stroke-width:0.3;"/>
  <path d="M41.872-33.37c4.117,0.781,8.213,1.395,12.192,1.866" style="fill:none;stroke:#000000;stroke-width:0.3;"/>
  <path d="M22.102-42.883c5.637,2.656,18.858,6.339,31.962,8.453" style="fill:none;stroke:#000000;stroke-width:0.3;"/>
  <path d="M22.102-42.883c-0.069-0.033-0.138-0.065-0.205-0.098" style="fill:none;stroke:#000000;stroke-width:0.3;"/>
  <path d="M28.841-44.604c-0.037-0.015-0.074-0.03-0.111-0.044" style="fill:none;stroke:#000000;stroke-width:0.3;"/>
  <path d="M41.555-39.766c-5.255-1.77-9.682-3.622-12.714-4.837" style="fill:none;stroke:#000000;stroke-width:0.3;"/>
  <path d="M41.555-39.766c3.807,1.282,8.048,2.52,12.509,3.441" style="fill:none;stroke:#000000;stroke-width:0.3;"/>
  <path d="M34.396-46.148c7.446,3.004,10.899,5.19,19.667,6.717" style="fill:none;stroke:#000000;stroke-width:0.3;"/>
  <path d="M8.058-33.354c6.916,0.74,13.333,0.861,18.016-0.054" style="fill:none;stroke:#000000;stroke-width:0.3;"/>
  <path d="M8.058-33.354c-2.616-0.28-5.302-0.649-7.994-1.083" style="fill:none;stroke:#000000;stroke-width:0.3;"/>
  <path d="M9.551-34.968c3.417,0.259,6.872,0.246,10.281-0.148" style="fill:none;stroke:#000000;stroke-width:0.3;"/>
  <path d="M9.551-34.968c-3.22-0.244-6.407-0.729-9.488-1.367" style="fill:none;stroke:#000000;stroke-width:0.3;"/>
  <path d="M19.832-35.116c0.091-0.011,0.182-0.021,0.273-0.032" style="fill:none;stroke:#000000;stroke-width:0.3;"/>
  <path d="M8.771-38.314c-2.227-0.211-4.199-0.442-5.972-0.693" style="fill:none;stroke:#000000;stroke-width:0.3;"/>
  <path d="M0.064-39.438c0.858,0.15,1.768,0.293,2.736,0.431" style="fill:none;stroke:#000000;stroke-width:0.3;"/>
  <path d="M54.063-41.938c-0.466,0.045-0.905,0.087-1.312,0.124" style="fill:none;stroke:#000000;stroke-width:0.3;"/>
  <line y2="-41.814" x1="52.751" x2="52.751" y1="-41.814" style="fill:none;stroke:#000000;stroke-width:0.3;"/>
  <path d="M54.063-46.275c-5.791,0.278-10.127,0.369-11.812,0.461" style="fill:none;stroke:#000000;stroke-width:0.3;"/>
  <path d="M54.063-50.355c-2.639,0.02-5.042,0-7.107-0.055" style="fill:none;stroke:#000000;stroke-width:0.3;"/>
  <path d="M46.885-50.412c0.024,0,0.048,0.001,0.072,0.002" style="fill:none;stroke:#000000;stroke-width:0.3;"/>
  <path d="M0.632-28.24c-0.19-0.015-0.379-0.029-0.569-0.044" style="fill:none;stroke:#000000;stroke-width:0.3;"/>
  <path d="M0.632-28.24c1.532,0.118,3.084,0.22,4.646,0.307" style="fill:none;stroke:#000000;stroke-width:0.3;"/>
  <path d="M5.278-27.934c13.605,0.753,27.94,0.282,36.355-2.128" style="fill:none;stroke:#000000;stroke-width:0.3;"/>
  <path d="M24.2-24.215C16.248-23.42,7.845-23.1,0.064-23.181" style="fill:none;stroke:#000000;stroke-width:0.3;"/>
  <path d="M48.434-29.038c0.006-0.003,0.013-0.005,0.019-0.007" style="fill:none;stroke:#000000;stroke-width:0.3;"/>
  <path d="M48.434-29.038c-6.347,2.329-14.986,3.897-24.233,4.822" style="fill:none;stroke:#000000;stroke-width:0.3;"/>
  <path d="M12.985-19.311c-4.355,0.624-8.72,1.131-12.922,1.453" style="fill:none;stroke:#000000;stroke-width:0.3;"/>
  <path d="M52.625-27.564c0.541-0.149,1.022-0.284,1.438-0.403" style="fill:none;stroke:#000000;stroke-width:0.3;"/>
  <path d="M12.985-19.311c16.485-2.36,32.828-6.382,39.64-8.253" style="fill:none;stroke:#000000;stroke-width:0.3;"/>
  <path d="M51.887-23.215c-1.933-0.04-3.819-0.104-5.642-0.192" style="fill:none;stroke:#000000;stroke-width:0.3;"/>
  <path d="M46.245-23.407c-0.02-0.001-0.039-0.002-0.059-0.003" style="fill:none;stroke:#000000;stroke-width:0.3;"/>
  <path d="M51.887-23.215c0.719,0.015,1.445,0.026,2.176,0.033" style="fill:none;stroke:#000000;stroke-width:0.3;"/>
  <path d="M31.233-19.258c-0.015-0.005-0.03-0.01-0.045-0.015" style="fill:none;stroke:#000000;stroke-width:0.3;"/>
  <path d="M31.233-19.258c2.691,0.926,7.092,1.298,9.268,1.485    c2.188,0.188,5.062,0.292,5.062,0.292c2.714-0.019,5.567-0.153,8.5-0.377" style="fill:none;stroke:#000000;stroke-width:0.3;"/>
  <path d="M32.573-3.394c0.039-0.002,0.077-0.003,0.115-0.004" style="fill:none;stroke:#000000;stroke-width:0.3;"/>
  <path d="M32.573-3.394c-6.38,0.234-16.75,0.214-28.033-0.792" style="fill:none;stroke:#000000;stroke-width:0.3;"/>
  <path d="M0.064-4.632c1.503,0.167,2.998,0.316,4.477,0.447" style="fill:none;stroke:#000000;stroke-width:0.3;"/>
  <path d="M0.064-7.38c6.405,1.022,11.472,1.439,15.621,1.55" style="fill:none;stroke:#000000;stroke-width:0.3;"/>
  <path d="M24.438-6.023C22-5.86,19.165-5.737,15.684-5.83" style="fill:none;stroke:#000000;stroke-width:0.3;"/>
  <path d="M19.801-7.773c-3.087,0.078-9.46-0.244-17.107-1.5" style="fill:none;stroke:#000000;stroke-width:0.3;"/>
  <line y2="-7.773" x1="19.801" x2="19.813" y1="-7.773" style="fill:none;stroke:#000000;stroke-width:0.3;"/>
  <path d="M0.064-9.733c0.891,0.167,1.769,0.32,2.631,0.461" style="fill:none;stroke:#000000;stroke-width:0.3;"/>
  <path d="M8.159-10.328c2.764,0.666,4.97,0.805,7.28,0.805" style="fill:none;stroke:#000000;stroke-width:0.3;"/>
  <path d="M8.159-10.328c-2.223-0.535-4.806-1.41-8.095-2.827" style="fill:none;stroke:#000000;stroke-width:0.3;"/>
  <path d="M12.939-15.398c11.75,5.875,25.875,8.375,25.875,8.375    c5.005,1.05,10.177,1.826,15.25,2.39" style="fill:none;stroke:#000000;stroke-width:0.3;"/>
  <path d="M54.063-7.381c-4.749-0.758-10.232-1.848-16.625-3.392    c0,0-12.375-3.5-17.25-5.875" style="fill:none;stroke:#000000;stroke-width:0.3;"/>
  <line y2="-14.148" x1="37.988" x2="37.438" y1="-13.969" style="fill:none;stroke:#000000;stroke-width:0.3;"/>
  <path d="M54.063-9.733c-1.795-0.334-3.645-0.72-5.524-1.164" style="fill:none;stroke:#000000;stroke-width:0.3;"/>
  <path d="M37.988-13.969l4.451,1.446c2.049,0.613,4.092,1.152,6.101,1.626" style="fill:none;stroke:#000000;stroke-width:0.3;"/>
  <path d="M54.063-13.155c-0.366-0.158-0.741-0.322-1.125-0.493" style="fill:none;stroke:#000000;stroke-width:0.3;"/>
  <path d="M23.126-6.585c12.938,3,18.938,4.188,18.938,4.188l0.333,0.125    c0.013,0.001,0.025,0.003,0.038,0.004" style="fill:none;stroke:#000000;stroke-width:0.3;"/>
  <path d="M53.063-1.33c-4.395-0.29-8.073-0.636-10.628-0.938" style="fill:none;stroke:#000000;stroke-width:0.3;"/>
  <path d="M53.063-1.33c0.33,0.022,0.663,0.043,1,0.064" style="fill:none;stroke:#000000;stroke-width:0.3;"/>
  <path d="M36.23-31.148c-5.767,1.117-19.995,1.558-36.167-0.356" style="fill:none;stroke:#000000;stroke-width:0.3;"/>
  <path d="M0.632-28.24l-0.365,0.214c-0.066,0.019-0.134,0.039-0.204,0.059" style="fill:none;stroke:#000000;stroke-width:0.3;"/>
  <line y2="-28.273" x1="0.632" x2="0.688" y1="-28.24" style="fill:none;stroke:#000000;stroke-width:0.3;"/>
  <line y2="-30.294" x1="12.189" x2="14.564" y1="-27.711" style="fill:none;stroke:#000000;stroke-width:0.3;"/>
  <path d="M5.278-27.934l-0.214,0.119c-1.09,0.471-2.802,1.118-5,1.879" style="fill:none;stroke:#000000;stroke-width:0.3;"/>
  <line y2="-28.023" x1="5.278" x2="5.438" y1="-27.934" style="fill:none;stroke:#000000;stroke-width:0.3;"/>
  <path d="M46.658-54.148c2.289,0.379,4.629,0.693,7.016,0.926" style="fill:none;stroke:#000000;stroke-width:0.3;"/>
  <line y2="-47.335" x1="17.874" x2="14.417" y1="-51.02" style="fill:none;stroke:#000000;stroke-width:0.3;"/>
  <line y2="-51.023" x1="17.874" x2="17.876" y1="-51.02" style="fill:none;stroke:#000000;stroke-width:0.3;"/>
  <line y2="-54.148" x1="28.605" x2="30.619" y1="-52.023" style="fill:none;stroke:#000000;stroke-width:0.3;"/>
  <line y2="-1.211" x1="31.556" x2="31.626" y1="-1.136" style="fill:none;stroke:#000000;stroke-width:0.3;"/>
  <line y2="-0.148" x1="31.556" x2="30.619" y1="-1.136" style="fill:none;stroke:#000000;stroke-width:0.3;"/>
  <line y2="-47.225" x1="34.73" x2="34.743" y1="-47.21" style="fill:none;stroke:#000000;stroke-width:0.3;"/>
  <line y2="-50.648" x1="37.853" x2="37.938" y1="-50.556" style="fill:none;stroke:#000000;stroke-width:0.3;"/>
  <line y2="-47.225" x1="37.853" x2="34.743" y1="-50.556" style="fill:none;stroke:#000000;stroke-width:0.3;"/>
  <line y2="-46.648" x1="6.292" x2="6.313" y1="-46.624" style="fill:none;stroke:#000000;stroke-width:0.3;"/>
  <line y2="-42.252" x1="6.292" x2="2.334" y1="-46.624" style="fill:none;stroke:#000000;stroke-width:0.3;"/>
  <line y2="-44.481" x1="17.584" x2="19.98" y1="-41.918" style="fill:none;stroke:#000000;stroke-width:0.3;"/>
  <line y2="-46.064" x1="52.063" x2="48.188" y1="-50.314" style="fill:none;stroke:#000000;stroke-width:0.3;"/>
  <line y2="-39.439" x1="34.563" x2="31.959" y1="-42.314" style="fill:none;stroke:#000000;stroke-width:0.3;"/>
  <line y2="-40.564" x1="25.146" x2="27.751" y1="-37.689" style="fill:none;stroke:#000000;stroke-width:0.3;"/>
  <line y2="-37.189" x1="37.001" x2="39.501" y1="-34.46" style="fill:none;stroke:#000000;stroke-width:0.3;"/>
  <line y2="-24.69" x1="52.625" x2="50.021" y1="-27.564" style="fill:none;stroke:#000000;stroke-width:0.3;"/>
  <line y2="-27.565" x1="52.625" x2="52.626" y1="-27.564" style="fill:none;stroke:#000000;stroke-width:0.3;"/>
  <line y2="-24.215" x1="24.251" x2="24.2" y1="-24.273" style="fill:none;stroke:#000000;stroke-width:0.3;"/>
  <line y2="-20.752" x1="24.2" x2="21.146" y1="-24.215" style="fill:none;stroke:#000000;stroke-width:0.3;"/>
  <line y2="-18.586" x1="10.501" x2="6.501" y1="-23.273" style="fill:none;stroke:#000000;stroke-width:0.3;"/>
  <line y2="-14.877" x1="12.985" x2="9.021" y1="-19.311" style="fill:none;stroke:#000000;stroke-width:0.3;"/>
  <line y2="-19.398" x1="12.985" x2="13.064" y1="-19.311" style="fill:none;stroke:#000000;stroke-width:0.3;"/>
  <line y2="-24.336" x1="36.459" x2="39.688" y1="-20.69" style="fill:none;stroke:#000000;stroke-width:0.3;"/>
  <line y2="-28.898" x1="52.938" x2="50.438" y1="-31.565" style="fill:none;stroke:#000000;stroke-width:0.3;"/>
  <line y2="-42.231" x1="41.555" x2="43.73" y1="-39.766" style="fill:none;stroke:#000000;stroke-width:0.3;"/>
  <line y2="-39.752" x1="41.555" x2="41.542" y1="-39.766" style="fill:none;stroke:#000000;stroke-width:0.3;"/>
  <line y2="-39.007" x1="0.396" x2="2.8" y1="-36.293" style="fill:none;stroke:#000000;stroke-width:0.3;"/>
  <line y2="-39.007" x1="2.813" x2="2.8" y1="-39.023" style="fill:none;stroke:#000000;stroke-width:0.3;"/>
  <line y2="-30.606" x1="41.872" x2="39.396" y1="-33.37" style="fill:none;stroke:#000000;stroke-width:0.3;"/>
  <line y2="-33.398" x1="41.872" x2="41.896" y1="-33.37" style="fill:none;stroke:#000000;stroke-width:0.3;"/>
  <line y2="-35.835" x1="20.449" x2="17.417" y1="-39.196" style="fill:none;stroke:#000000;stroke-width:0.3;"/>
  <line y2="-39.231" x1="20.449" x2="20.48" y1="-39.196" style="fill:none;stroke:#000000;stroke-width:0.3;"/>
  <line y2="-33.354" x1="9.551" x2="8.058" y1="-34.968" style="fill:none;stroke:#000000;stroke-width:0.3;"/>
  <line y2="-33.314" x1="8.058" x2="8.021" y1="-33.354" style="fill:none;stroke:#000000;stroke-width:0.3;"/>
  <line y2="-34.981" x1="9.551" x2="9.564" y1="-34.968" style="fill:none;stroke:#000000;stroke-width:0.3;"/>
  <line y2="-30.336" x1="28.313" x2="26.084" y1="-32.898" style="fill:none;stroke:#000000;stroke-width:0.3;"/>
  <line y2="-23.481" x1="17.188" x2="13.439" y1="-27.586" style="fill:none;stroke:#000000;stroke-width:0.3;"/>
  <line y2="-25.086" x1="33.751" x2="30.896" y1="-28.523" style="fill:none;stroke:#000000;stroke-width:0.3;"/>
  <line y2="-17.502" x1="51.887" x2="46.834" y1="-23.215" style="fill:none;stroke:#000000;stroke-width:0.3;"/>
  <line y2="-23.273" x1="51.887" x2="51.938" y1="-23.215" style="fill:none;stroke:#000000;stroke-width:0.3;"/>
  <line y2="-18.773" x1="29.012" x2="29.063" y1="-18.714" style="fill:none;stroke:#000000;stroke-width:0.3;"/>
  <line y2="-15.689" x1="29.012" x2="26.334" y1="-18.714" style="fill:none;stroke:#000000;stroke-width:0.3;"/>
  <line y2="-10.897" x1="50.938" x2="48.539" y1="-13.648" style="fill:none;stroke:#000000;stroke-width:0.3;"/>
  <line y2="-10.897" x1="48.521" x2="48.539" y1="-10.877" style="fill:none;stroke:#000000;stroke-width:0.3;"/>
  <line y2="-8.627" x1="34.501" x2="31.834" y1="-11.585" style="fill:none;stroke:#000000;stroke-width:0.3;"/>
  <line y2="-16.378" x1="18.313" x2="18.295" y1="-16.398" style="fill:none;stroke:#000000;stroke-width:0.3;"/>
  <line y2="-13.939" x1="18.295" x2="16.084" y1="-16.378" style="fill:none;stroke:#000000;stroke-width:0.3;"/>
  <line y2="-1.135" x1="42.435" x2="41.466" y1="-2.269" style="fill:none;stroke:#000000;stroke-width:0.3;"/>
  <line y2="-1.135" x1="41.459" x2="41.466" y1="-1.127" style="fill:none;stroke:#000000;stroke-width:0.3;"/>
  <line y2="-2.273" x1="42.435" x2="42.438" y1="-2.269" style="fill:none;stroke:#000000;stroke-width:0.3;"/>
  <line y2="-3.211" x1="24.584" x2="26.813" y1="-0.814" style="fill:none;stroke:#000000;stroke-width:0.3;"/>
  <line y2="-3.565" x1="15.684" x2="13.646" y1="-5.83" style="fill:none;stroke:#000000;stroke-width:0.3;"/>
  <line y2="-5.835" x1="15.684" x2="15.689" y1="-5.83" style="fill:none;stroke:#000000;stroke-width:0.3;"/>
  <line y2="-4.185" x1="4.563" x2="4.541" y1="-4.21" style="fill:none;stroke:#000000;stroke-width:0.3;"/>
  <line y2="-4.185" x1="1.896" x2="4.541" y1="-1.252" style="fill:none;stroke:#000000;stroke-width:0.3;"/>
  <line y2="-9.272" x1="0.959" x2="2.695" y1="-7.314" style="fill:none;stroke:#000000;stroke-width:0.3;"/>
  <line y2="-9.272" x1="2.751" x2="2.695" y1="-9.335" style="fill:none;stroke:#000000;stroke-width:0.3;"/>
  <line y2="-10.314" x1="8.159" x2="8.146" y1="-10.328" style="fill:none;stroke:#000000;stroke-width:0.3;"/>
  <line y2="-12" x1="8.159" x2="9.667" y1="-10.328" style="fill:none;stroke:#000000;stroke-width:0.3;"/>
  <line y2="-12.023" x1="9.667" x2="9.689" y1="-12" style="fill:none;stroke:#000000;stroke-width:0.3;"/>
  <line y2="-11.648" x1="18.688" x2="21.813" y1="-8.273" style="fill:none;stroke:#000000;stroke-width:0.3;"/>
  <line y2="-6.71" x1="36.751" x2="39.626" y1="-3.523" style="fill:none;stroke:#000000;stroke-width:0.3;"/>
  <line y2="-0.586" x1="16.416" x2="16.813" y1="-0.148" style="fill:none;stroke:#000000;stroke-width:0.3;"/>
  <line y2="-54.148" x1="13.307" x2="16.395" y1="-50.752" style="fill:none;stroke:#000000;stroke-width:0.3;"/>
  <line y2="-50.727" x1="13.307" x2="13.285" y1="-50.752" style="fill:none;stroke:#000000;stroke-width:0.3;"/>
 </g>
</svg>
