<?xml version="1.0"?>
<!-- Converted with SVG Converter - Version 0.9.5 (Compiled Fri Feb 21 09:53:38 2020) - Copyright (C) 2011 Nokia -->
<svg xmlns="http://www.w3.org/2000/svg" x="0px" baseProfile="tiny" xml:space="preserve" version="1.1" width="54.125" y="0px" height="54.125" viewBox="0 -54.203 54.125 54.125" xmlns:xlink="http://www.w3.org/1999/xlink">
 <g>
  <rect width="54.125" y="-54.203" style="fill:none;" height="54.125"/>
  <line y2="-50.453" y1="-50.453" style="fill:none;stroke:#000000;stroke-width:0.3;" x2="4.587" x1="17.337"/>
  <line y2="-50.453" y1="-50.453" style="fill:none;stroke:#000000;stroke-width:0.3;" x2="45.149" x1="42.017"/>
  <line y2="-50.453" y1="-50.453" style="fill:none;stroke:#000000;stroke-width:0.3;" x2="45.149" x1="54.125"/>
  <line y2="-50.453" y1="-50.453" style="fill:none;stroke:#000000;stroke-width:0.3;" x2="0" x1="4.587"/>
  <line y2="-50.453" y1="-50.453" style="fill:none;stroke:#000000;stroke-width:0.3;" x2="30.774" x1="42.017"/>
  <line y2="-50.453" y1="-50.453" style="fill:none;stroke:#000000;stroke-width:0.3;" x2="28.35" x1="17.337"/>
  <line y2="-50.453" y1="-50.453" style="fill:none;stroke:#000000;stroke-width:0.3;" x2="28.35" x1="30.774"/>
  <line y2="-46.278" y1="-46.278" style="fill:none;stroke:#000000;stroke-width:0.3;" x2="7.97" x1="34.782"/>
  <line y2="-46.278" y1="-46.278" style="fill:none;stroke:#000000;stroke-width:0.3;" x2="34.782" x1="54.125"/>
  <line y2="-46.278" y1="-46.278" style="fill:none;stroke:#000000;stroke-width:0.3;" x2="0" x1="7.97"/>
  <line y2="-42.09" y1="-42.09" style="fill:none;stroke:#000000;stroke-width:0.3;" x2="54.125" x1="53.782"/>
  <line y2="-42.09" y1="-42.09" style="fill:none;stroke:#000000;stroke-width:0.3;" x2="12.72" x1="27.532"/>
  <line y2="-42.09" y1="-42.09" style="fill:none;stroke:#000000;stroke-width:0.3;" x2="53.782" x1="40.97"/>
  <line y2="-42.09" y1="-42.09" style="fill:none;stroke:#000000;stroke-width:0.3;" x2="0" x1="12.72"/>
  <line y2="-42.09" y1="-42.09" style="fill:none;stroke:#000000;stroke-width:0.3;" x2="40.97" x1="27.532"/>
  <line y2="-12.477" y1="-12.477" style="fill:none;stroke:#000000;stroke-width:0.3;" x2="27.102" x1="41.102"/>
  <line y2="-12.477" y1="-12.477" style="fill:none;stroke:#000000;stroke-width:0.3;" x2="53.683" x1="41.102"/>
  <line y2="-12.477" y1="-12.477" style="fill:none;stroke:#000000;stroke-width:0.3;" x2="54.125" x1="53.683"/>
  <line y2="-12.477" y1="-12.477" style="fill:none;stroke:#000000;stroke-width:0.3;" x2="54.188" x1="54.125"/>
  <line y2="-12.477" y1="-12.477" style="fill:none;stroke:#000000;stroke-width:0.3;" x2="27.102" x1="12.602"/>
  <line y2="-12.477" y1="-12.477" style="fill:none;stroke:#000000;stroke-width:0.3;" x2="0" x1="12.602"/>
  <line y2="-8.703" y1="-8.703" style="fill:none;stroke:#000000;stroke-width:0.3;" x2="24.788" x1="18.463"/>
  <line y2="-8.703" y1="-8.703" style="fill:none;stroke:#000000;stroke-width:0.3;" x2="47.062" x1="38.788"/>
  <line y2="-8.703" y1="-8.703" style="fill:none;stroke:#000000;stroke-width:0.3;" x2="5.463" x1="10.288"/>
  <line y2="-8.703" y1="-8.703" style="fill:none;stroke:#000000;stroke-width:0.3;" x2="32.463" x1="38.788"/>
  <line y2="-8.703" y1="-8.703" style="fill:none;stroke:#000000;stroke-width:0.3;" x2="32.463" x1="24.788"/>
  <line y2="-8.703" y1="-8.703" style="fill:none;stroke:#000000;stroke-width:0.3;" x2="0" x1="5.463"/>
  <line y2="-8.703" y1="-8.703" style="fill:none;stroke:#000000;stroke-width:0.3;" x2="18.463" x1="10.288"/>
  <line y2="-8.703" y1="-8.703" style="fill:none;stroke:#000000;stroke-width:0.3;" x2="54.125" x1="51.229"/>
  <line y2="-8.703" y1="-8.703" style="fill:none;stroke:#000000;stroke-width:0.3;" x2="47.062" x1="51.229"/>
  <line y2="-38.071" y1="-38.071" style="fill:none;stroke:#000000;stroke-width:0.3;" x2="19.309" x1="32.621"/>
  <line y2="-38.071" y1="-38.071" style="fill:none;stroke:#000000;stroke-width:0.3;" x2="47.246" x1="54.125"/>
  <line y2="-38.071" y1="-38.071" style="fill:none;stroke:#000000;stroke-width:0.3;" x2="19.309" x1="6.621"/>
  <line y2="-38.071" y1="-38.071" style="fill:none;stroke:#000000;stroke-width:0.3;" x2="47.246" x1="32.621"/>
  <line y2="-38.071" y1="-38.071" style="fill:none;stroke:#000000;stroke-width:0.3;" x2="0" x1="6.621"/>
  <line y2="-34.79" y1="-34.79" style="fill:none;stroke:#000000;stroke-width:0.3;" x2="53.912" x1="54.125"/>
  <line y2="-34.79" y1="-34.79" style="fill:none;stroke:#000000;stroke-width:0.3;" x2="41.854" x1="28.041"/>
  <line y2="-34.79" y1="-34.79" style="fill:none;stroke:#000000;stroke-width:0.3;" x2="0" x1="13.041"/>
  <line y2="-34.79" y1="-34.79" style="fill:none;stroke:#000000;stroke-width:0.3;" x2="53.912" x1="41.854"/>
  <line y2="-34.79" y1="-34.79" style="fill:none;stroke:#000000;stroke-width:0.3;" x2="13.041" x1="28.041"/>
  <line y2="-31.365" y1="-31.365" style="fill:none;stroke:#000000;stroke-width:0.3;" x2="49.548" x1="34.61"/>
  <line y2="-31.365" y1="-31.365" style="fill:none;stroke:#000000;stroke-width:0.3;" x2="20.923" x1="7.485"/>
  <line y2="-31.365" y1="-31.365" style="fill:none;stroke:#000000;stroke-width:0.3;" x2="51.712" x1="49.548"/>
  <line y2="-31.365" y1="-31.365" style="fill:none;stroke:#000000;stroke-width:0.3;" x2="20.923" x1="34.61"/>
  <line y2="-31.365" y1="-31.365" style="fill:none;stroke:#000000;stroke-width:0.3;" x2="0" x1="7.485"/>
  <line y2="-31.365" y1="-31.365" style="fill:none;stroke:#000000;stroke-width:0.3;" x2="54.125" x1="51.712"/>
  <line y2="-27.315" y1="-27.315" style="fill:none;stroke:#000000;stroke-width:0.3;" x2="12.492" x1="27.492"/>
  <line y2="-27.315" y1="-27.315" style="fill:none;stroke:#000000;stroke-width:0.3;" x2="27.492" x1="40.867"/>
  <line y2="-27.315" y1="-27.315" style="fill:none;stroke:#000000;stroke-width:0.3;" x2="54.125" x1="54.055"/>
  <line y2="-27.315" y1="-27.315" style="fill:none;stroke:#000000;stroke-width:0.3;" x2="40.867" x1="54.055"/>
  <line y2="-27.315" y1="-27.315" style="fill:none;stroke:#000000;stroke-width:0.3;" x2="0" x1="12.492"/>
  <line y2="-23.515" y1="-23.515" style="fill:none;stroke:#000000;stroke-width:0.3;" x2="0" x1="54.125"/>
  <line y2="-19.315" y1="-19.315" style="fill:none;stroke:#000000;stroke-width:0.3;" x2="54.125" x1="54.188"/>
  <line y2="-19.315" y1="-19.315" style="fill:none;stroke:#000000;stroke-width:0.3;" x2="54.125" x1="0"/>
  <line y2="-16.09" y1="-16.09" style="fill:none;stroke:#000000;stroke-width:0.3;" x2="54.125" x1="51.82"/>
  <line y2="-16.09" y1="-16.09" style="fill:none;stroke:#000000;stroke-width:0.3;" x2="51.82" x1="0"/>
  <line y2="-0.915" y1="-0.915" style="fill:none;stroke:#000000;stroke-width:0.3;" x2="50.391" x1="37.016"/>
  <line y2="-0.915" y1="-0.915" style="fill:none;stroke:#000000;stroke-width:0.3;" x2="23.328" x1="9.016"/>
  <line y2="-0.915" y1="-0.915" style="fill:none;stroke:#000000;stroke-width:0.3;" x2="9.016" x1="0"/>
  <line y2="-0.915" y1="-0.915" style="fill:none;stroke:#000000;stroke-width:0.3;" x2="37.016" x1="23.328"/>
  <line y2="-0.915" y1="-0.915" style="fill:none;stroke:#000000;stroke-width:0.3;" x2="54.125" x1="50.391"/>
  <line y2="-4.29" y1="-4.29" style="fill:none;stroke:#000000;stroke-width:0.3;" x2="54.125" x1="0"/>
  <line y2="-8.703" y1="-8.765" style="fill:none;stroke:#000000;stroke-width:0.3;" x2="5.463" x1="5.5"/>
  <line y2="-4.315" y1="-8.703" style="fill:none;stroke:#000000;stroke-width:0.3;" x2="2.871" x1="5.463"/>
  <line y2="-4.315" y1="-8.703" style="fill:none;stroke:#000000;stroke-width:0.3;" x2="15.871" x1="18.463"/>
  <line y2="-8.703" y1="-8.765" style="fill:none;stroke:#000000;stroke-width:0.3;" x2="18.463" x1="18.5"/>
  <line y2="-8.703" y1="-8.765" style="fill:none;stroke:#000000;stroke-width:0.3;" x2="32.463" x1="32.5"/>
  <line y2="-8.703" y1="-4.315" style="fill:none;stroke:#000000;stroke-width:0.3;" x2="32.463" x1="29.871"/>
  <line y2="-4.315" y1="-8.703" style="fill:none;stroke:#000000;stroke-width:0.3;" x2="44.434" x1="47.062"/>
  <line y2="-0.89" y1="-0.915" style="fill:none;stroke:#000000;stroke-width:0.3;" x2="50.375" x1="50.391"/>
  <line y2="-4.265" y1="-0.915" style="fill:none;stroke:#000000;stroke-width:0.3;" x2="52.438" x1="50.391"/>
  <line y2="-0.89" y1="-0.915" style="fill:none;stroke:#000000;stroke-width:0.3;" x2="37" x1="37.016"/>
  <line y2="-4.265" y1="-0.915" style="fill:none;stroke:#000000;stroke-width:0.3;" x2="39.062" x1="37.016"/>
  <line y2="-0.89" y1="-0.915" style="fill:none;stroke:#000000;stroke-width:0.3;" x2="23.312" x1="23.328"/>
  <line y2="-4.265" y1="-0.915" style="fill:none;stroke:#000000;stroke-width:0.3;" x2="25.375" x1="23.328"/>
  <line y2="-4.265" y1="-0.915" style="fill:none;stroke:#000000;stroke-width:0.3;" x2="11.062" x1="9.016"/>
  <line y2="-0.89" y1="-0.915" style="fill:none;stroke:#000000;stroke-width:0.3;" x2="9" x1="9.016"/>
  <line y2="-8.64" y1="-8.703" style="fill:none;stroke:#000000;stroke-width:0.3;" x2="51.188" x1="51.229"/>
  <line y2="-12.498" y1="-12.477" style="fill:none;stroke:#000000;stroke-width:0.3;" x2="53.696" x1="53.683"/>
  <line y2="-12.477" y1="-8.703" style="fill:none;stroke:#000000;stroke-width:0.3;" x2="53.683" x1="51.229"/>
  <line y2="-16.078" y1="-12.515" style="fill:none;stroke:#000000;stroke-width:0.3;" x2="49.438" x1="47.312"/>
  <line y2="-19.39" y1="-23.453" style="fill:none;stroke:#000000;stroke-width:0.3;" x2="44.812" x1="47.375"/>
  <line y2="-16.09" y1="-16.078" style="fill:none;stroke:#000000;stroke-width:0.3;" x2="51.82" x1="51.812"/>
  <line y2="-16.09" y1="-19.29" style="fill:none;stroke:#000000;stroke-width:0.3;" x2="51.82" x1="53.863"/>
  <line y2="-23.578" y1="-27.315" style="fill:none;stroke:#000000;stroke-width:0.3;" x2="51.812" x1="54.055"/>
  <line y2="-27.328" y1="-27.315" style="fill:none;stroke:#000000;stroke-width:0.3;" x2="54.062" x1="54.055"/>
  <line y2="-31.39" y1="-31.365" style="fill:none;stroke:#000000;stroke-width:0.3;" x2="49.562" x1="49.548"/>
  <line y2="-27.328" y1="-31.365" style="fill:none;stroke:#000000;stroke-width:0.3;" x2="47.125" x1="49.548"/>
  <line y2="-31.365" y1="-34.79" style="fill:none;stroke:#000000;stroke-width:0.3;" x2="51.712" x1="53.912"/>
  <line y2="-31.365" y1="-31.328" style="fill:none;stroke:#000000;stroke-width:0.3;" x2="51.712" x1="51.688"/>
  <line y2="-34.811" y1="-34.79" style="fill:none;stroke:#000000;stroke-width:0.3;" x2="53.926" x1="53.912"/>
  <line y2="-38.071" y1="-38.078" style="fill:none;stroke:#000000;stroke-width:0.3;" x2="47.246" x1="47.25"/>
  <line y2="-38.071" y1="-34.828" style="fill:none;stroke:#000000;stroke-width:0.3;" x2="47.246" x1="45.25"/>
  <line y2="-42.14" y1="-42.09" style="fill:none;stroke:#000000;stroke-width:0.3;" x2="53.812" x1="53.782"/>
  <line y2="-38.078" y1="-42.09" style="fill:none;stroke:#000000;stroke-width:0.3;" x2="51.359" x1="53.782"/>
  <line y2="-46.249" y1="-42.14" style="fill:none;stroke:#000000;stroke-width:0.3;" x2="48.842" x1="46.188"/>
  <line y2="-50.436" y1="-46.328" style="fill:none;stroke:#000000;stroke-width:0.3;" x2="53.904" x1="51.292"/>
  <line y2="-54.203" y1="-50.453" style="fill:none;stroke:#000000;stroke-width:0.3;" x2="47.434" x1="45.149"/>
  <line y2="-50.44" y1="-50.453" style="fill:none;stroke:#000000;stroke-width:0.3;" x2="45.142" x1="45.149"/>
  <line y2="-12.515" y1="-12.477" style="fill:none;stroke:#000000;stroke-width:0.3;" x2="41.125" x1="41.102"/>
  <line y2="-8.64" y1="-8.703" style="fill:none;stroke:#000000;stroke-width:0.3;" x2="38.75" x1="38.788"/>
  <line y2="-8.703" y1="-12.477" style="fill:none;stroke:#000000;stroke-width:0.3;" x2="38.788" x1="41.102"/>
  <line y2="-8.703" y1="-12.477" style="fill:none;stroke:#000000;stroke-width:0.3;" x2="24.788" x1="27.102"/>
  <line y2="-8.703" y1="-8.64" style="fill:none;stroke:#000000;stroke-width:0.3;" x2="24.788" x1="24.75"/>
  <line y2="-12.477" y1="-12.515" style="fill:none;stroke:#000000;stroke-width:0.3;" x2="27.102" x1="27.125"/>
  <line y2="-8.703" y1="-12.477" style="fill:none;stroke:#000000;stroke-width:0.3;" x2="10.288" x1="12.602"/>
  <line y2="-8.64" y1="-8.703" style="fill:none;stroke:#000000;stroke-width:0.3;" x2="10.25" x1="10.288"/>
  <line y2="-12.515" y1="-12.477" style="fill:none;stroke:#000000;stroke-width:0.3;" x2="12.625" x1="12.602"/>
  <line y2="-16.078" y1="-12.515" style="fill:none;stroke:#000000;stroke-width:0.3;" x2="34.562" x1="32.438"/>
  <line y2="-16.078" y1="-12.515" style="fill:none;stroke:#000000;stroke-width:0.3;" x2="20.875" x1="18.75"/>
  <line y2="-16.078" y1="-12.515" style="fill:none;stroke:#000000;stroke-width:0.3;" x2="7.625" x1="5.5"/>
  <line y2="-16.14" y1="-19.265" style="fill:none;stroke:#000000;stroke-width:0.3;" x2="40" x1="41.938"/>
  <line y2="-16.14" y1="-19.265" style="fill:none;stroke:#000000;stroke-width:0.3;" x2="25.75" x1="27.688"/>
  <line y2="-16.14" y1="-19.265" style="fill:none;stroke:#000000;stroke-width:0.3;" x2="10.688" x1="12.625"/>
  <line y2="-19.39" y1="-23.453" style="fill:none;stroke:#000000;stroke-width:0.3;" x2="30.5" x1="33.062"/>
  <line y2="-19.39" y1="-23.453" style="fill:none;stroke:#000000;stroke-width:0.3;" x2="16.875" x1="19.438"/>
  <line y2="-19.39" y1="-23.453" style="fill:none;stroke:#000000;stroke-width:0.3;" x2="3.875" x1="6.438"/>
  <line y2="-23.578" y1="-27.315" style="fill:none;stroke:#000000;stroke-width:0.3;" x2="38.625" x1="40.867"/>
  <line y2="-27.315" y1="-27.328" style="fill:none;stroke:#000000;stroke-width:0.3;" x2="40.867" x1="40.875"/>
  <line y2="-23.578" y1="-27.315" style="fill:none;stroke:#000000;stroke-width:0.3;" x2="25.25" x1="27.492"/>
  <line y2="-27.315" y1="-27.328" style="fill:none;stroke:#000000;stroke-width:0.3;" x2="27.492" x1="27.5"/>
  <line y2="-23.578" y1="-27.315" style="fill:none;stroke:#000000;stroke-width:0.3;" x2="10.25" x1="12.492"/>
  <line y2="-27.328" y1="-27.315" style="fill:none;stroke:#000000;stroke-width:0.3;" x2="12.5" x1="12.492"/>
  <line y2="-27.328" y1="-31.365" style="fill:none;stroke:#000000;stroke-width:0.3;" x2="32.188" x1="34.61"/>
  <line y2="-31.39" y1="-31.365" style="fill:none;stroke:#000000;stroke-width:0.3;" x2="34.625" x1="34.61"/>
  <line y2="-31.365" y1="-27.328" style="fill:none;stroke:#000000;stroke-width:0.3;" x2="20.923" x1="18.5"/>
  <line y2="-31.365" y1="-31.39" style="fill:none;stroke:#000000;stroke-width:0.3;" x2="20.923" x1="20.938"/>
  <line y2="-27.328" y1="-31.365" style="fill:none;stroke:#000000;stroke-width:0.3;" x2="5.062" x1="7.485"/>
  <line y2="-31.39" y1="-31.365" style="fill:none;stroke:#000000;stroke-width:0.3;" x2="7.5" x1="7.485"/>
  <line y2="-34.828" y1="-34.79" style="fill:none;stroke:#000000;stroke-width:0.3;" x2="41.875" x1="41.854"/>
  <line y2="-31.39" y1="-34.79" style="fill:none;stroke:#000000;stroke-width:0.3;" x2="39.875" x1="41.854"/>
  <line y2="-31.39" y1="-34.79" style="fill:none;stroke:#000000;stroke-width:0.3;" x2="26.062" x1="28.041"/>
  <line y2="-34.828" y1="-34.79" style="fill:none;stroke:#000000;stroke-width:0.3;" x2="28.062" x1="28.041"/>
  <line y2="-34.828" y1="-34.79" style="fill:none;stroke:#000000;stroke-width:0.3;" x2="13.062" x1="13.041"/>
  <line y2="-31.39" y1="-34.79" style="fill:none;stroke:#000000;stroke-width:0.3;" x2="11.062" x1="13.041"/>
  <line y2="-34.828" y1="-38.071" style="fill:none;stroke:#000000;stroke-width:0.3;" x2="30.625" x1="32.621"/>
  <line y2="-38.078" y1="-38.071" style="fill:none;stroke:#000000;stroke-width:0.3;" x2="32.625" x1="32.621"/>
  <line y2="-38.071" y1="-38.078" style="fill:none;stroke:#000000;stroke-width:0.3;" x2="19.309" x1="19.312"/>
  <line y2="-38.071" y1="-34.828" style="fill:none;stroke:#000000;stroke-width:0.3;" x2="19.309" x1="17.312"/>
  <line y2="-38.078" y1="-38.071" style="fill:none;stroke:#000000;stroke-width:0.3;" x2="6.625" x1="6.621"/>
  <line y2="-34.828" y1="-38.071" style="fill:none;stroke:#000000;stroke-width:0.3;" x2="4.625" x1="6.621"/>
  <line y2="-42.14" y1="-42.09" style="fill:none;stroke:#000000;stroke-width:0.3;" x2="41" x1="40.97"/>
  <line y2="-42.09" y1="-38.078" style="fill:none;stroke:#000000;stroke-width:0.3;" x2="40.97" x1="38.562"/>
  <line y2="-38.078" y1="-42.09" style="fill:none;stroke:#000000;stroke-width:0.3;" x2="25.125" x1="27.532"/>
  <line y2="-42.14" y1="-42.09" style="fill:none;stroke:#000000;stroke-width:0.3;" x2="27.562" x1="27.532"/>
  <line y2="-42.14" y1="-42.09" style="fill:none;stroke:#000000;stroke-width:0.3;" x2="12.75" x1="12.72"/>
  <line y2="-38.078" y1="-42.09" style="fill:none;stroke:#000000;stroke-width:0.3;" x2="10.312" x1="12.72"/>
  <line y2="-46.328" y1="-46.278" style="fill:none;stroke:#000000;stroke-width:0.3;" x2="34.812" x1="34.782"/>
  <line y2="-42.14" y1="-46.278" style="fill:none;stroke:#000000;stroke-width:0.3;" x2="32.25" x1="34.782"/>
  <line y2="-46.265" y1="-42.14" style="fill:none;stroke:#000000;stroke-width:0.3;" x2="21.125" x1="18.625"/>
  <line y2="-42.14" y1="-46.278" style="fill:none;stroke:#000000;stroke-width:0.3;" x2="5.438" x1="7.97"/>
  <line y2="-46.328" y1="-46.278" style="fill:none;stroke:#000000;stroke-width:0.3;" x2="8" x1="7.97"/>
  <line y2="-46.328" y1="-50.453" style="fill:none;stroke:#000000;stroke-width:0.3;" x2="39.5" x1="42.017"/>
  <line y2="-50.495" y1="-50.453" style="fill:none;stroke:#000000;stroke-width:0.3;" x2="42.042" x1="42.017"/>
  <line y2="-50.453" y1="-46.328" style="fill:none;stroke:#000000;stroke-width:0.3;" x2="28.35" x1="25.812"/>
  <line y2="-50.453" y1="-50.495" style="fill:none;stroke:#000000;stroke-width:0.3;" x2="28.35" x1="28.375"/>
  <line y2="-46.328" y1="-50.411" style="fill:none;stroke:#000000;stroke-width:0.3;" x2="10.938" x1="13.459"/>
  <line y2="-54.203" y1="-50.453" style="fill:none;stroke:#000000;stroke-width:0.3;" x2="33.059" x1="30.774"/>
  <line y2="-50.453" y1="-50.44" style="fill:none;stroke:#000000;stroke-width:0.3;" x2="30.774" x1="30.767"/>
  <line y2="-50.44" y1="-50.453" style="fill:none;stroke:#000000;stroke-width:0.3;" x2="17.329" x1="17.337"/>
  <line y2="-54.203" y1="-50.453" style="fill:none;stroke:#000000;stroke-width:0.3;" x2="19.621" x1="17.337"/>
  <line y2="-50.453" y1="-50.44" style="fill:none;stroke:#000000;stroke-width:0.3;" x2="4.587" x1="4.579"/>
  <line y2="-54.203" y1="-50.453" style="fill:none;stroke:#000000;stroke-width:0.3;" x2="6.871" x1="4.587"/>
  <line y2="-0.078" y1="-0.828" style="fill:none;stroke:#000000;stroke-width:0.3;" x2="47.423" x1="47.875"/>
  <line y2="-0.078" y1="-0.828" style="fill:none;stroke:#000000;stroke-width:0.3;" x2="33.048" x1="33.5"/>
  <line y2="-0.078" y1="-0.828" style="fill:none;stroke:#000000;stroke-width:0.3;" x2="19.61" x1="20.062"/>
  <line y2="-0.078" y1="-0.828" style="fill:none;stroke:#000000;stroke-width:0.3;" x2="6.86" x1="7.312"/>
  <line y2="-52.27" y1="-52.27" style="fill:none;stroke:#000000;stroke-width:0.3;" x2="15.372" x1="8.122"/>
  <line y2="-52.27" y1="-52.27" style="fill:none;stroke:#000000;stroke-width:0.3;" x2="42.497" x1="35.247"/>
  <line y2="-48.257" y1="-48.257" style="fill:none;stroke:#000000;stroke-width:0.3;" x2="15.422" x1="22.672"/>
  <line y2="-48.257" y1="-48.257" style="fill:none;stroke:#000000;stroke-width:0.3;" x2="43.172" x1="50.422"/>
  <line y2="-44.194" y1="-44.194" style="fill:none;stroke:#000000;stroke-width:0.3;" x2="30.062" x1="22.812"/>
  <line y2="-44.194" y1="-44.194" style="fill:none;stroke:#000000;stroke-width:0.3;" x2="0" x1="3.398"/>
  <line y2="-39.944" y1="-39.944" style="fill:none;stroke:#000000;stroke-width:0.3;" x2="29.247" x1="36.497"/>
  <line y2="-39.944" y1="-39.944" style="fill:none;stroke:#000000;stroke-width:0.3;" x2="8.122" x1="0.872"/>
  <line y2="-36.444" y1="-36.444" style="fill:none;stroke:#000000;stroke-width:0.3;" x2="34.947" x1="42.197"/>
  <line y2="-33.069" y1="-33.069" style="fill:none;stroke:#000000;stroke-width:0.3;" x2="43.997" x1="51.247"/>
  <line y2="-29.194" y1="-29.194" style="fill:none;stroke:#000000;stroke-width:0.3;" x2="54.125" x1="51.196"/>
  <line y2="-25.444" y1="-25.444" style="fill:none;stroke:#000000;stroke-width:0.3;" x2="42.397" x1="49.647"/>
  <line y2="-21.444" y1="-21.444" style="fill:none;stroke:#000000;stroke-width:0.3;" x2="35.155" x1="42.405"/>
  <line y2="-17.694" y1="-17.694" style="fill:none;stroke:#000000;stroke-width:0.3;" x2="30.081" x1="37.331"/>
  <line y2="-14.194" y1="-14.194" style="fill:none;stroke:#000000;stroke-width:0.3;" x2="30.072" x1="22.822"/>
  <line y2="-10.569" y1="-10.569" style="fill:none;stroke:#000000;stroke-width:0.3;" x2="22.167" x1="14.917"/>
  <line y2="-6.194" y1="-6.194" style="fill:none;stroke:#000000;stroke-width:0.3;" x2="6.719" x1="13.969"/>
  <line y2="-2.52" y1="-2.52" style="fill:none;stroke:#000000;stroke-width:0.3;" x2="0.015" x1="7.265"/>
  <line y2="-36.332" y1="-36.332" style="fill:none;stroke:#000000;stroke-width:0.3;" x2="15.322" x1="8.072"/>
  <line y2="-33.082" y1="-33.082" style="fill:none;stroke:#000000;stroke-width:0.3;" x2="15.974" x1="23.224"/>
  <line y2="-29.332" y1="-29.332" style="fill:none;stroke:#000000;stroke-width:0.3;" x2="30.162" x1="22.912"/>
  <line y2="-25.332" y1="-25.332" style="fill:none;stroke:#000000;stroke-width:0.3;" x2="15.023" x1="22.272"/>
  <line y2="-21.332" y1="-21.332" style="fill:none;stroke:#000000;stroke-width:0.3;" x2="7.894" x1="15.144"/>
  <line y2="-17.582" y1="-17.582" style="fill:none;stroke:#000000;stroke-width:0.3;" x2="1.297" x1="8.547"/>
  <line y2="-14.082" y1="-14.082" style="fill:none;stroke:#000000;stroke-width:0.3;" x2="0" x1="3.072"/>
  <line y2="-10.457" y1="-10.457" style="fill:none;stroke:#000000;stroke-width:0.3;" x2="50.247" x1="42.997"/>
  <line y2="-6.332" y1="-6.332" style="fill:none;stroke:#000000;stroke-width:0.3;" x2="34.719" x1="41.969"/>
  <line y2="-2.582" y1="-2.582" style="fill:none;stroke:#000000;stroke-width:0.3;" x2="27.197" x1="34.447"/>
  <line y2="-44.194" y1="-44.194" style="fill:none;stroke:#000000;stroke-width:0.3;" x2="54.125" x1="50.222"/>
  <line y2="-14.082" y1="-14.082" style="fill:none;stroke:#000000;stroke-width:0.3;" x2="54.125" x1="50.522"/>
  <line y2="-29.194" y1="-29.194" style="fill:none;stroke:#000000;stroke-width:0.3;" x2="0" x1="2.52"/>
  <line y2="-2.52" y1="-2.52" style="fill:none;stroke:#000000;stroke-width:0.3;" x2="54.125" x1="53.723"/>
 </g>
</svg>
