<?xml version="1.0"?>
<!-- Converted with SVG Converter - Version 0.9.5 (Compiled Fri Feb 21 09:53:38 2020) - Copyright (C) 2011 Nokia -->
<svg xmlns="http://www.w3.org/2000/svg" xmlns:xlink="http://www.w3.org/1999/xlink" viewBox="0.15 -54.355 54.126 54.125" version="1.1" y="0px" xml:space="preserve" width="54.126" height="54.125" x="0px" baseProfile="tiny">
 <g>
  <rect style="fill:none;" y="-54.355" width="54.126" height="54.125" x="0.15"/>
  <path d="M45.837-50.551c-0.057-0.02-0.113-0.042-0.17-0.064    c-0.53-0.294-1.178-0.707-1.414-1.296c-0.354-0.943,0.209-1.822,1.12-2.092c0.653-0.193,1.266-0.297,1.857-0.352" style="fill:none;stroke:#000000;stroke-width:0.3;"/>
  <path d="M45.837-50.551c0.799,0.285,1.621,0.343,2.455,0.335" style="fill:none;stroke:#000000;stroke-width:0.3;"/>
  <path d="M47.231-54.355c1.077-0.099,2.087-0.031,3.151-0.031    c0.373,0,0.735,0.011,1.092,0.031" style="fill:none;stroke:#000000;stroke-width:0.3;"/>
  <path d="M54.276-54.075c-0.965-0.117-1.864-0.228-2.802-0.28" style="fill:none;stroke:#000000;stroke-width:0.3;"/>
  <path d="M54.276-50.396c-1.003,0.21-2.054,0.227-3.069,0.134    c-0.977-0.061-1.953,0.036-2.914,0.045" style="fill:none;stroke:#000000;stroke-width:0.3;"/>
  <path d="M30.992-50.33c0.325,0.121,0.671,0.187,1.006,0.187    c0.983,0.047,1.946,0.073,2.899,0.072" style="fill:none;stroke:#000000;stroke-width:0.3;"/>
  <path d="M39.224-50.29c0.865-0.091,1.736-0.212,2.621-0.37" style="fill:none;stroke:#000000;stroke-width:0.3;"/>
  <path d="M39.224-50.29c-1.445,0.151-2.875,0.216-4.327,0.218" style="fill:none;stroke:#000000;stroke-width:0.3;"/>
  <path d="M41.845-50.66c0.329-0.059,0.66-0.122,0.994-0.191    c0.707-0.118,1.532-1.061,1.179-1.65c-1.474-2.534-4.39-1.68-7.219-1.68c-2.134,0-4.39-0.383-6.275,0.324    c-0.589,0.236-1.2,0.781-1.119,1.709c0.073,0.854,0.767,1.512,1.587,1.817" style="fill:none;stroke:#000000;stroke-width:0.3;"/>
  <path d="M20.034-49.89c-0.243-0.011-0.488-0.027-0.735-0.048    c-0.415-0.052-0.914-0.142-1.407-0.277" style="fill:none;stroke:#000000;stroke-width:0.3;"/>
  <path d="M17.891-50.215c-1.188-0.327-2.347-0.917-2.234-1.879    c0.698-1.772,2.198-2.193,3.845-2.261" style="fill:none;stroke:#000000;stroke-width:0.3;"/>
  <path d="M25.828-50.458c0.793-0.178,1.589-0.39,2.399-0.628    c0.618-0.088,1.281-0.84,1.017-1.282c-0.625-1.459-1.912-1.889-3.379-1.987" style="fill:none;stroke:#000000;stroke-width:0.3;"/>
  <path d="M23.967-54.355c0.641-0.024,1.284-0.041,1.896,0" style="fill:none;stroke:#000000;stroke-width:0.3;"/>
  <path d="M20.754-54.355c0.665,0.019,1.328,0.053,1.947,0.042    c0.413-0.007,0.839-0.026,1.266-0.042" style="fill:none;stroke:#000000;stroke-width:0.3;"/>
  <path d="M19.501-54.355c0.412-0.017,0.833-0.012,1.253,0" style="fill:none;stroke:#000000;stroke-width:0.3;"/>
  <path d="M20.034-49.89c1.493,0.069,2.932-0.044,4.366-0.286" style="fill:none;stroke:#000000;stroke-width:0.3;"/>
  <path d="M25.828-50.458c-0.476,0.107-0.952,0.202-1.428,0.283" style="fill:none;stroke:#000000;stroke-width:0.3;"/>
  <path d="M9.729-54.355c0.008,0,0.016-0.001,0.023-0.002    c0.465-0.017,0.973-0.019,1.487,0.002" style="fill:none;stroke:#000000;stroke-width:0.3;"/>
  <path d="M9.395-54.355c0.076,0.01,0.18,0.013,0.334,0" style="fill:none;stroke:#000000;stroke-width:0.3;"/>
  <path d="M6.835-54.355c0.591,0.034,1.211,0.053,1.838,0" style="fill:none;stroke:#000000;stroke-width:0.3;"/>
  <path d="M4.103-54.355c-0.867,0.193-1.438,0.758-1.51,2.208    c0,0.53,0.796,1.326,1.591,1.591c3.27,1.149,6.718,0.177,10.253-0.177c0.707,0,1.017-0.663,1.149-1.591    c0.035-1.458-2.221-1.943-4.347-2.031" style="fill:none;stroke:#000000;stroke-width:0.3;"/>
  <path d="M8.673-54.355c0.139-0.012,0.277-0.026,0.416-0.046    c0.115-0.016,0.155,0.027,0.306,0.046" style="fill:none;stroke:#000000;stroke-width:0.3;"/>
  <path d="M4.103-54.355c0.737-0.165,1.689-0.06,2.732,0" style="fill:none;stroke:#000000;stroke-width:0.3;"/>
  <path d="M51.868-46.407c-1.1-0.296-1.86-0.89-1.986-1.94    c-0.062-0.512,0.707-1.679,2.165-1.723c0.967-0.029,1.584-0.149,2.23-0.25" style="fill:none;stroke:#000000;stroke-width:0.3;"/>
  <path d="M53.195-46.193c0.346,0.027,0.708,0.037,1.081,0.033" style="fill:none;stroke:#000000;stroke-width:0.3;"/>
  <path d="M53.195-46.193c-0.479-0.037-0.925-0.106-1.327-0.214" style="fill:none;stroke:#000000;stroke-width:0.3;"/>
  <path d="M46.33-46.519c0.607-0.059,1.182-0.113,1.695-0.148    c0.53,0,1.59-1.187,1.785-1.68c0.41-1.032-0.33-1.57-1.518-1.87" style="fill:none;stroke:#000000;stroke-width:0.3;"/>
  <path d="M45.837-50.551c0.878,0.062,1.746,0.156,2.455,0.335" style="fill:none;stroke:#000000;stroke-width:0.3;"/>
  <path d="M45.837-50.551c-0.546-0.039-1.096-0.065-1.613-0.093    c-0.733,0-1.556-0.034-2.379-0.015" style="fill:none;stroke:#000000;stroke-width:0.3;"/>
  <path d="M44.197-46.317c-3.461,0.297-7.119,0.369-7.309-1.587    c0.369-1.328,1.246-2.025,2.336-2.386" style="fill:none;stroke:#000000;stroke-width:0.3;"/>
  <path d="M44.197-46.317c0.731-0.062,1.453-0.136,2.133-0.202" style="fill:none;stroke:#000000;stroke-width:0.3;"/>
  <path d="M41.845-50.66c-0.91,0.021-1.822,0.105-2.621,0.37" style="fill:none;stroke:#000000;stroke-width:0.3;"/>
  <path d="M30.196-46.362c0.847-0.068,1.703-0.169,2.533-0.289" style="fill:none;stroke:#000000;stroke-width:0.3;"/>
  <path d="M30.992-50.33c1.353,0.069,2.71,0.151,3.905,0.258" style="fill:none;stroke:#000000;stroke-width:0.3;"/>
  <path d="M30.992-50.33c-0.334-0.017-0.668-0.034-0.998-0.049    c-1.565-0.075-2.52,0.133-3.934-0.044c-0.064-0.021-0.143-0.032-0.233-0.035" style="fill:none;stroke:#000000;stroke-width:0.3;"/>
  <path d="M30.196-46.362c-3.493,0.279-6.814-0.012-7.338-1.893" style="fill:none;stroke:#000000;stroke-width:0.3;"/>
  <path d="M32.729-46.65c0.938-0.136,1.842-0.295,2.656-0.458    c0.663-0.133,1.812-0.751,1.547-1.547c-0.089-0.619-0.84-1.193-1.547-1.37c-0.159-0.016-0.322-0.031-0.488-0.046" style="fill:none;stroke:#000000;stroke-width:0.3;"/>
  <path d="M22.806-48.529c-0.031-0.365,0.089-0.824,0.691-1.275    c0.171-0.103,0.515-0.245,0.902-0.371" style="fill:none;stroke:#000000;stroke-width:0.3;"/>
  <path d="M25.828-50.458c-0.371-0.01-0.934,0.123-1.428,0.283" style="fill:none;stroke:#000000;stroke-width:0.3;"/>
  <path d="M22.806-48.529c0.006,0.064,0.016,0.125,0.028,0.183    c0.007,0.031,0.015,0.062,0.023,0.092" style="fill:none;stroke:#000000;stroke-width:0.3;"/>
  <path d="M22.858-48.254c-0.01,0.645-0.908,1.224-1.438,1.322    c-0.832,0.154-1.748,0.306-2.698,0.435" style="fill:none;stroke:#000000;stroke-width:0.3;"/>
  <path d="M20.034-49.89c-0.819-0.1-1.507-0.218-2.143-0.325" style="fill:none;stroke:#000000;stroke-width:0.3;"/>
  <path d="M15.917-46.2c0.938-0.067,1.888-0.171,2.806-0.297" style="fill:none;stroke:#000000;stroke-width:0.3;"/>
  <path d="M10.196-46.548c0.503,0.155,1.076,0.262,1.697,0.331" style="fill:none;stroke:#000000;stroke-width:0.3;"/>
  <path d="M10.196-46.548c-1.032-0.317-1.771-0.834-2.034-1.622    c-0.088-1.768,4.552-2.519,7.027-2.342h0.265c0.852,0.034,1.601,0.156,2.438,0.297" style="fill:none;stroke:#000000;stroke-width:0.3;"/>
  <path d="M22.806-48.529c-0.005-0.013-0.011-0.025-0.017-0.038    c-0.308-0.663-0.662-1.105-1.458-1.193c-0.471-0.036-0.899-0.081-1.298-0.129" style="fill:none;stroke:#000000;stroke-width:0.3;"/>
  <path d="M22.806-48.529c0.037,0.092,0.054,0.184,0.052,0.275" style="fill:none;stroke:#000000;stroke-width:0.3;"/>
  <path d="M11.893-46.218c1.209,0.133,2.602,0.119,4.023,0.018" style="fill:none;stroke:#000000;stroke-width:0.3;"/>
  <path d="M46.33-46.519c-0.732,0-1.449,0.037-2.133,0.202" style="fill:none;stroke:#000000;stroke-width:0.3;"/>
  <path d="M42.137-44.349c0.303,0.896,1.124,1.547,2.105,1.882" style="fill:none;stroke:#000000;stroke-width:0.3;"/>
  <path d="M42.103-44.458c0.011,0.037,0.021,0.072,0.034,0.108" style="fill:none;stroke:#000000;stroke-width:0.3;"/>
  <path d="M42.103-44.458c-0.177-0.707,0.795-1.326,1.503-1.679    c0.193-0.073,0.391-0.132,0.591-0.18" style="fill:none;stroke:#000000;stroke-width:0.3;"/>
  <path d="M44.243-42.467c0.306,0.104,0.628,0.179,0.954,0.22    c0.162,0.024,0.322,0.045,0.48,0.062" style="fill:none;stroke:#000000;stroke-width:0.3;"/>
  <path d="M45.677-42.186c1.074,0.116,2.082,0.07,3.073-0.06" style="fill:none;stroke:#000000;stroke-width:0.3;"/>
  <path d="M46.33-46.519c0.616,0.001,1.244,0.028,1.872,0.028    c1.195,0,2.521-0.022,3.666,0.083" style="fill:none;stroke:#000000;stroke-width:0.3;"/>
  <path d="M50.223-42.491c-0.491,0.096-0.98,0.181-1.473,0.245" style="fill:none;stroke:#000000;stroke-width:0.3;"/>
  <path d="M53.195-46.193c-0.395-0.102-0.845-0.169-1.327-0.214" style="fill:none;stroke:#000000;stroke-width:0.3;"/>
  <path d="M53.195-46.193c0.441,0.114,0.812,0.271,1.081,0.486" style="fill:none;stroke:#000000;stroke-width:0.3;"/>
  <path d="M50.223-42.491c1.007-0.196,2.024-0.438,3.106-0.641    c0.331-0.062,0.679-0.238,0.947-0.509" style="fill:none;stroke:#000000;stroke-width:0.3;"/>
  <path d="M36.772-42.483c1.065-0.02,2.154-0.067,3.314-0.204" style="fill:none;stroke:#000000;stroke-width:0.3;"/>
  <path d="M31.869-42.352c-0.066,0.005-0.13,0.01-0.195,0.016    c-0.593-0.035-1.331-0.104-2.009-0.265" style="fill:none;stroke:#000000;stroke-width:0.3;"/>
  <path d="M42.137-44.349c0.094,0.506-0.532,1.45-1.36,1.571    c-0.233,0.034-0.463,0.064-0.691,0.091" style="fill:none;stroke:#000000;stroke-width:0.3;"/>
  <path d="M42.103-44.458c0.016,0.033,0.026,0.069,0.034,0.108" style="fill:none;stroke:#000000;stroke-width:0.3;"/>
  <path d="M30.196-46.362c-1.135,0.319-2.062,0.958-2.5,2.17    c0.026,0.883,0.928,1.345,1.969,1.591" style="fill:none;stroke:#000000;stroke-width:0.3;"/>
  <path d="M32.729-46.65c-0.883,0-1.757,0.069-2.533,0.289" style="fill:none;stroke:#000000;stroke-width:0.3;"/>
  <path d="M32.729-46.65c1.075,0,2.162,0.102,3.099,0.16    c2.293,0.144,5.244-0.118,6.275,2.033" style="fill:none;stroke:#000000;stroke-width:0.3;"/>
  <path d="M31.869-42.352c1.691-0.133,3.269-0.101,4.903-0.132" style="fill:none;stroke:#000000;stroke-width:0.3;"/>
  <path d="M14.086-43.955c0.052,0.6,0.861,1.064,1.643,1.282" style="fill:none;stroke:#000000;stroke-width:0.3;"/>
  <path d="M14.106-44.177c0.181-1.136,0.877-1.724,1.811-2.023" style="fill:none;stroke:#000000;stroke-width:0.3;"/>
  <path d="M15.729-42.673c0.101,0.028,0.201,0.052,0.299,0.072    c0.848,0,1.686,0.041,2.517,0.089" style="fill:none;stroke:#000000;stroke-width:0.3;"/>
  <path d="M22.905-42.364c-1.446,0.047-2.893-0.062-4.36-0.148" style="fill:none;stroke:#000000;stroke-width:0.3;"/>
  <path d="M25.175-42.592c0.396-0.071,0.795-0.161,1.194-0.274    c0.707-0.177,1.494-0.758,1.264-1.564c-0.601-2.104-3.12-2.236-6.479-2.06c-0.724,0.038-1.575-0.002-2.433-0.007" style="fill:none;stroke:#000000;stroke-width:0.3;"/>
  <path d="M18.722-46.497c-0.99-0.006-1.988,0.035-2.806,0.297" style="fill:none;stroke:#000000;stroke-width:0.3;"/>
  <path d="M22.905-42.364c0.756-0.025,1.512-0.092,2.271-0.228" style="fill:none;stroke:#000000;stroke-width:0.3;"/>
  <path d="M14.086-43.955c-0.002-0.02-0.003-0.04-0.003-0.061    c0.006-0.055,0.014-0.109,0.023-0.162" style="fill:none;stroke:#000000;stroke-width:0.3;"/>
  <path d="M2.246-42.568c0.087,0.026,0.173,0.046,0.259,0.055    c0.155-0.008,0.31-0.015,0.465-0.022" style="fill:none;stroke:#000000;stroke-width:0.3;"/>
  <path d="M2.495-46.321c-0.964,0.328-1.634,0.992-1.669,2.306    c0,0.474,0.704,1.228,1.42,1.448" style="fill:none;stroke:#000000;stroke-width:0.3;"/>
  <path d="M7.841-42.7c-1.613,0.059-3.221,0.091-4.872,0.166" style="fill:none;stroke:#000000;stroke-width:0.3;"/>
  <path d="M14.086-43.955c-0.125,0.459-0.743,0.867-1.151,0.912    c-0.915,0.102-1.812,0.174-2.701,0.229" style="fill:none;stroke:#000000;stroke-width:0.3;"/>
  <path d="M11.893-46.218c0.863,0.301,1.602,0.832,2.102,1.76    c0.065,0.092,0.1,0.186,0.11,0.28" style="fill:none;stroke:#000000;stroke-width:0.3;"/>
  <path d="M4.509-46.617c-0.73,0.021-1.427,0.096-2.015,0.296" style="fill:none;stroke:#000000;stroke-width:0.3;"/>
  <path d="M10.196-46.548c0.595,0.05,1.169,0.147,1.697,0.331" style="fill:none;stroke:#000000;stroke-width:0.3;"/>
  <path d="M14.086-43.955c0.02-0.073,0.027-0.148,0.02-0.222" style="fill:none;stroke:#000000;stroke-width:0.3;"/>
  <path d="M7.841-42.7c0.794-0.029,1.59-0.064,2.393-0.114" style="fill:none;stroke:#000000;stroke-width:0.3;"/>
  <path d="M4.509-46.617c1.051-0.029,2.169,0.054,3.122,0.038    c0.847-0.014,1.726-0.039,2.564,0.03" style="fill:none;stroke:#000000;stroke-width:0.3;"/>
  <path d="M53.976-42.66c0.099,0.014,0.198,0.026,0.3,0.035" style="fill:none;stroke:#000000;stroke-width:0.3;"/>
  <path d="M50.223-42.491c1.359-0.146,2.677-0.201,4.053-0.124" style="fill:none;stroke:#000000;stroke-width:0.3;"/>
  <path d="M48.75-42.246c-0.824,0.308-1.489,1.057-1.521,1.854    c-0.037,0.925,0.793,1.313,1.617,1.484" style="fill:none;stroke:#000000;stroke-width:0.3;"/>
  <path d="M48.846-38.908c0.161,0.033,0.321,0.059,0.475,0.078    c0.495,0.027,0.988,0.058,1.48,0.088" style="fill:none;stroke:#000000;stroke-width:0.3;"/>
  <path d="M50.801-38.742c1.168,0.071,2.327,0.136,3.475,0.124" style="fill:none;stroke:#000000;stroke-width:0.3;"/>
  <path d="M50.223-42.491c-0.304,0.032-0.608,0.069-0.917,0.11    c-0.189,0.021-0.376,0.067-0.556,0.135" style="fill:none;stroke:#000000;stroke-width:0.3;"/>
  <path d="M44.243-42.467c0.516,0.038,1.003,0.115,1.435,0.282" style="fill:none;stroke:#000000;stroke-width:0.3;"/>
  <path d="M44.243-42.467c-1.071-0.078-2.265,0.014-3.333-0.178h-0.442    c-0.131-0.016-0.258-0.03-0.381-0.042" style="fill:none;stroke:#000000;stroke-width:0.3;"/>
  <path d="M40.086-42.687c-1.23-0.114-2.136,0.001-3.314,0.204" style="fill:none;stroke:#000000;stroke-width:0.3;"/>
  <path d="M37.064-38.725c0.545,0.044,1.098,0.018,1.65-0.105" style="fill:none;stroke:#000000;stroke-width:0.3;"/>
  <path d="M36.772-42.483c-0.411,0.07-0.854,0.151-1.357,0.236    c-0.779,0.132-1.649,1.179-1.296,2.003c0.235,0.589,0.825,1.06,1.473,1.237c0.479,0.141,0.973,0.241,1.473,0.282" style="fill:none;stroke:#000000;stroke-width:0.3;"/>
  <path d="M45.677-42.186c0.601,0.232,1.094,0.637,1.405,1.352    c0.294,0.648-0.531,1.709-1.355,1.827c-2.357,0.589-4.537-0.294-7.013,0.177" style="fill:none;stroke:#000000;stroke-width:0.3;"/>
  <path d="M31.869-42.352c-0.41-0.104-0.95-0.205-1.168-0.161    c-0.399-0.052-0.732-0.076-1.036-0.088" style="fill:none;stroke:#000000;stroke-width:0.3;"/>
  <path d="M31.869-42.352c0.143,0.037,0.272,0.073,0.364,0.104    c0.825,0.118,1.826,0.442,1.649,1.591c0.118,0,0.089,1.326-1.001,1.532c-0.589,0.111-1.163,0.187-1.726,0.236" style="fill:none;stroke:#000000;stroke-width:0.3;"/>
  <path d="M25.175-42.592c-0.907,0.095-1.452,0.112-2.271,0.228" style="fill:none;stroke:#000000;stroke-width:0.3;"/>
  <path d="M20.414-40.406c0.007,0.054,0.018,0.107,0.033,0.162    c0.354,1.06,1.959,1.311,3.138,1.311c2.107-0.038,4.02,0.153,5.999,0.123" style="fill:none;stroke:#000000;stroke-width:0.3;"/>
  <path d="M20.449-40.824c-0.039,0.136-0.053,0.276-0.034,0.418" style="fill:none;stroke:#000000;stroke-width:0.3;"/>
  <path d="M31.156-38.888c-0.531,0.046-1.054,0.07-1.571,0.078" style="fill:none;stroke:#000000;stroke-width:0.3;"/>
  <path d="M25.175-42.592c0.301-0.032,0.643-0.072,1.047-0.127    c0.296-0.04,0.798,0.06,1.259,0.01" style="fill:none;stroke:#000000;stroke-width:0.3;"/>
  <path d="M29.664-42.601c-0.712-0.029-1.275,0.004-2.183-0.108" style="fill:none;stroke:#000000;stroke-width:0.3;"/>
  <path d="M20.449-40.824c0.219-0.757,1.232-1.373,1.987-1.468    c0.168-0.028,0.322-0.052,0.469-0.072" style="fill:none;stroke:#000000;stroke-width:0.3;"/>
  <path d="M27.813-42.778c-0.105,0.035-0.218,0.056-0.332,0.068" style="fill:none;stroke:#000000;stroke-width:0.3;"/>
  <path d="M27.401-42.719c0.027,0.003,0.054,0.007,0.08,0.01" style="fill:none;stroke:#000000;stroke-width:0.3;"/>
  <path d="M7.841-42.7c0.606-0.164,1.527-0.083,2.117-0.137    c0.093,0.01,0.185,0.018,0.275,0.023" style="fill:none;stroke:#000000;stroke-width:0.3;"/>
  <path d="M7.002-39.01c-0.259-0.034-0.512-0.104-0.755-0.233    c-0.213-0.142-0.499-0.337-0.647-0.652" style="fill:none;stroke:#000000;stroke-width:0.3;"/>
  <path d="M20.414-40.406c-0.183,0.558-0.864,1.103-1.602,1.208    c-3.397,0.485-5.862,0.088-9.28,0.088c-0.404-0.022-0.814,0.024-1.221,0.067" style="fill:none;stroke:#000000;stroke-width:0.3;"/>
  <path d="M5.707-41.164c-0.058,0.14-0.108,0.293-0.153,0.463    c-0.088,0.335-0.052,0.597,0.046,0.806" style="fill:none;stroke:#000000;stroke-width:0.3;"/>
  <path d="M5.707-41.164c0.352-0.853,0.956-1.178,1.968-1.482    c0.052-0.021,0.107-0.038,0.166-0.055" style="fill:none;stroke:#000000;stroke-width:0.3;"/>
  <path d="M10.234-42.814c0.952,0.057,1.826-0.125,2.848,0.036    c0.795,0.125,1.723,0.113,2.648,0.105" style="fill:none;stroke:#000000;stroke-width:0.3;"/>
  <path d="M20.449-40.824c0-0.003,0-0.006-0.001-0.009    c-0.202-1.009-0.931-1.471-1.903-1.679" style="fill:none;stroke:#000000;stroke-width:0.3;"/>
  <path d="M15.729-42.673c0.999-0.009,1.994-0.015,2.815,0.161" style="fill:none;stroke:#000000;stroke-width:0.3;"/>
  <path d="M7.002-39.01c0.424,0.056,0.864,0.014,1.309-0.033" style="fill:none;stroke:#000000;stroke-width:0.3;"/>
  <path d="M20.414-40.406c0.046-0.141,0.06-0.283,0.034-0.418" style="fill:none;stroke:#000000;stroke-width:0.3;"/>
  <path d="M52.025-35.002c1.248-0.221,2.294-0.807,2.188-2.119    c-0.118-0.943-1.076-1.075-2.077-1.37c-0.445-0.103-0.89-0.186-1.334-0.251" style="fill:none;stroke:#000000;stroke-width:0.3;"/>
  <path d="M52.025-35.002c-0.468,0.083-0.965,0.114-1.439,0.113" style="fill:none;stroke:#000000;stroke-width:0.3;"/>
  <path d="M48.846-38.908c-0.446-0.011-0.896-0.005-1.352,0.019    c-2.239,0.118-5.612,0.044-5.774,2.475c0.383,1.149,2.003,1.532,3.3,1.65c1.531,0.118,2.946-0.236,4.537-0.177    c0.316,0.03,0.665,0.05,1.028,0.051" style="fill:none;stroke:#000000;stroke-width:0.3;"/>
  <path d="M48.846-38.908c0.658,0.017,1.308,0.071,1.955,0.166" style="fill:none;stroke:#000000;stroke-width:0.3;"/>
  <path d="M28.519-34.981c0.136,0.038,0.275,0.053,0.414,0.04" style="fill:none;stroke:#000000;stroke-width:0.3;"/>
  <path d="M39.752-34.994c1.108-0.218,2.219-1.089,1.968-2.245    c-0.177-0.648-0.884-1.238-1.65-1.415c-0.472,0-0.942-0.118-1.355-0.177" style="fill:none;stroke:#000000;stroke-width:0.3;"/>
  <path d="M28.933-34.941c3.183-0.292,6.007-0.106,9.183-0.023" style="fill:none;stroke:#000000;stroke-width:0.3;"/>
  <path d="M31.156-38.888c-0.533-0.004-1.066,0.005-1.571,0.078" style="fill:none;stroke:#000000;stroke-width:0.3;"/>
  <path d="M28.519-34.981c-0.719-0.198-1.338-1.02-1.486-1.565    c-0.295-1.002,0.773-1.721,1.665-2.048c0.282-0.104,0.58-0.172,0.887-0.216" style="fill:none;stroke:#000000;stroke-width:0.3;"/>
  <path d="M38.714-38.83c-0.557,0.043-1.106,0.082-1.65,0.105" style="fill:none;stroke:#000000;stroke-width:0.3;"/>
  <path d="M38.116-34.964c0.352,0.009,0.708,0.017,1.07,0.023    c0.184,0.003,0.375-0.016,0.566-0.053" style="fill:none;stroke:#000000;stroke-width:0.3;"/>
  <path d="M31.156-38.888c0.473,0.003,0.945,0.015,1.401,0    c0.416-0.015,1.267,0,1.679,0.059c0.936,0.134,1.874,0.145,2.828,0.105" style="fill:none;stroke:#000000;stroke-width:0.3;"/>
  <path d="M25.281-35.136c-0.401,0.146-0.84,0.238-1.27,0.287" style="fill:none;stroke:#000000;stroke-width:0.3;"/>
  <path d="M14.636-34.886c0.085,0.015,0.17,0.029,0.255,0.042" style="fill:none;stroke:#000000;stroke-width:0.3;"/>
  <path d="M12.336-37.345c-0.065,0.151-0.104,0.323-0.107,0.52" style="fill:none;stroke:#000000;stroke-width:0.3;"/>
  <path d="M14.636-34.886c-1.238-0.225-2.392-0.777-2.408-1.881    c0-0.02,0-0.039,0.001-0.058" style="fill:none;stroke:#000000;stroke-width:0.3;"/>
  <path d="M25.281-35.136c0.964-0.351,1.718-1.015,1.648-2.162    c-0.647-2.21-5.126-1.532-7.778-1.532c-1.768,0-3.535-0.354-5.126,0.295c-0.655,0.281-1.411,0.552-1.689,1.19" style="fill:none;stroke:#000000;stroke-width:0.3;"/>
  <path d="M19.153-34.726c-0.909-0.002-1.828-0.016-2.771-0.038" style="fill:none;stroke:#000000;stroke-width:0.3;"/>
  <path d="M19.153-34.726c1.534,0.005,3.041-0.023,4.595-0.097    c0.087-0.007,0.175-0.015,0.264-0.025" style="fill:none;stroke:#000000;stroke-width:0.3;"/>
  <path d="M15.2-34.806c0.416,0.044,0.823,0.055,1.182,0.042" style="fill:none;stroke:#000000;stroke-width:0.3;"/>
  <path d="M15.2-34.806c-0.102-0.011-0.205-0.023-0.309-0.039" style="fill:none;stroke:#000000;stroke-width:0.3;"/>
  <path d="M10.918-35.125c0.034-0.017,0.067-0.034,0.102-0.052    c0.699-0.4,0.965-0.896,1.209-1.648" style="fill:none;stroke:#000000;stroke-width:0.3;"/>
  <path d="M10.918-35.125c-0.473,0.236-0.962,0.36-1.462,0.417" style="fill:none;stroke:#000000;stroke-width:0.3;"/>
  <path d="M8.311-39.043c1.838,0.036,3.671,0.446,4.025,1.698" style="fill:none;stroke:#000000;stroke-width:0.3;"/>
  <path d="M5.515-34.805c-0.869,0.022-1.724,0.014-2.584-0.084" style="fill:none;stroke:#000000;stroke-width:0.3;"/>
  <path d="M7.002-39.01c-0.24,0.016-0.474,0.037-0.696,0.062    c-1.045,0.116-2.033,0.175-3.076,0.064" style="fill:none;stroke:#000000;stroke-width:0.3;"/>
  <path d="M12.229-36.825c0.044-0.134,0.086-0.277,0.131-0.429    c-0.007-0.031-0.015-0.062-0.024-0.091" style="fill:none;stroke:#000000;stroke-width:0.3;"/>
  <path d="M7.002-39.01c0.423-0.028,0.866-0.042,1.309-0.033" style="fill:none;stroke:#000000;stroke-width:0.3;"/>
  <path d="M2.931-34.889c-0.522-0.059-1.045-0.15-1.575-0.288    c-0.648-0.177-1.072-0.742-1.19-1.214c-0.007-0.041-0.012-0.08-0.016-0.119" style="fill:none;stroke:#000000;stroke-width:0.3;"/>
  <path d="M9.457-34.708c-1.093,0.123-2.24-0.076-3.387-0.115    c-0.185,0.007-0.37,0.013-0.555,0.018" style="fill:none;stroke:#000000;stroke-width:0.3;"/>
  <path d="M3.229-38.884c-0.016-0.002-0.031-0.003-0.047-0.005    c-0.39,0.043-0.811,0.055-1.171,0.175" style="fill:none;stroke:#000000;stroke-width:0.3;"/>
  <path d="M0.15-36.773c-0.009,0.084-0.009,0.172,0,0.263" style="fill:none;stroke:#000000;stroke-width:0.3;"/>
  <path d="M2.011-38.714c-0.13,0.043-0.252,0.101-0.361,0.179    c-0.663,0.459-1.423,0.98-1.5,1.762" style="fill:none;stroke:#000000;stroke-width:0.3;"/>
  <path d="M52.025-35.002c0.503,0.016,1.021,0.062,1.539,0.062    c0.239,0,0.477,0.002,0.712,0.006" style="fill:none;stroke:#000000;stroke-width:0.3;"/>
  <path d="M54.276-30.809c-0.382-0.003-0.765-0.015-1.15-0.037" style="fill:none;stroke:#000000;stroke-width:0.3;"/>
  <path d="M50.014-31.337c0.2,0.081,0.404,0.139,0.604,0.167    c0.858,0.179,1.689,0.276,2.508,0.323" style="fill:none;stroke:#000000;stroke-width:0.3;"/>
  <path d="M52.025-35.002c-0.499-0.016-0.984-0.003-1.439,0.113" style="fill:none;stroke:#000000;stroke-width:0.3;"/>
  <path d="M50.585-34.89c-0.129,0.033-0.257,0.074-0.381,0.125    c-0.766,0.413-1.933,1.202-1.579,2.145c0.18,0.537,0.759,1.026,1.389,1.282" style="fill:none;stroke:#000000;stroke-width:0.3;"/>
  <path d="M44.388-30.823c-1.367-0.023-2.722-0.1-4.103-0.162" style="fill:none;stroke:#000000;stroke-width:0.3;"/>
  <path d="M46.355-31.015c-0.372,0.104-0.766,0.169-1.158,0.199    c-0.271,0-0.539-0.003-0.809-0.007" style="fill:none;stroke:#000000;stroke-width:0.3;"/>
  <path d="M38.178-31.08c0.099,0.013,0.199,0.023,0.301,0.028    c0.609,0.016,1.21,0.04,1.807,0.066" style="fill:none;stroke:#000000;stroke-width:0.3;"/>
  <path d="M46.355-31.015c1.08-0.303,1.98-0.945,2.156-2.085    c-0.089-0.972-0.619-1.591-2.476-1.591c-2.576,0-4.552-0.191-4.552-0.191c-0.566-0.023-1.15-0.08-1.731-0.112" style="fill:none;stroke:#000000;stroke-width:0.3;"/>
  <path d="M38.116-34.964c0.531-0.068,1.083-0.061,1.637-0.03" style="fill:none;stroke:#000000;stroke-width:0.3;"/>
  <path d="M38.116-34.964c-0.361,0.046-0.714,0.127-1.051,0.259    c-0.707,0.354-1.532,1.178-1.237,1.944c0.324,0.865,1.244,1.532,2.351,1.681" style="fill:none;stroke:#000000;stroke-width:0.3;"/>
  <path d="M25.281-35.136c1.014-0.099,2.112,0.042,3.238,0.155" style="fill:none;stroke:#000000;stroke-width:0.3;"/>
  <path d="M25.281-35.136c-0.441,0.043-0.866,0.131-1.27,0.287" style="fill:none;stroke:#000000;stroke-width:0.3;"/>
  <path d="M28.519-34.981c0.138,0.014,0.275,0.027,0.414,0.04" style="fill:none;stroke:#000000;stroke-width:0.3;"/>
  <path d="M24.011-34.849c-0.15,0.058-0.297,0.125-0.44,0.202    c-0.767,0.413-1.709,1.355-1.356,2.181c0.53,1.355,2.52,1.134,3.934,1.134c3.005-0.059,5.995,0.751,8.972-0.251    c0.675-0.227,0.632-1.167,0.53-2.062c-0.266-2.328-4.393-1.085-6.718-1.296" style="fill:none;stroke:#000000;stroke-width:0.3;"/>
  <path d="M19.153-34.726c-0.907-0.128-1.807-0.213-2.771-0.038" style="fill:none;stroke:#000000;stroke-width:0.3;"/>
  <path d="M15.843-30.876c-1.691,0.057-3.373,0.102-5.03-0.123" style="fill:none;stroke:#000000;stroke-width:0.3;"/>
  <path d="M20.051-31.059c1.099-0.271,2.078-0.973,1.987-2.055    c-0.059-0.766-1.002-1.355-1.944-1.473c-0.316-0.045-0.63-0.094-0.941-0.139" style="fill:none;stroke:#000000;stroke-width:0.3;"/>
  <path d="M15.2-34.806c0.409,0.016,0.82-0.113,1.182,0.042" style="fill:none;stroke:#000000;stroke-width:0.3;"/>
  <path d="M10.918-35.125c-0.401,0.056-0.8,0.151-1.195,0.301    c-0.088,0.033-0.177,0.071-0.267,0.115" style="fill:none;stroke:#000000;stroke-width:0.3;"/>
  <path d="M14.891-34.845c-0.085-0.014-0.17-0.028-0.255-0.042" style="fill:none;stroke:#000000;stroke-width:0.3;"/>
  <path d="M15.2-34.806c-0.058-0.002-0.115-0.007-0.173-0.017    c-0.045-0.007-0.09-0.015-0.136-0.022" style="fill:none;stroke:#000000;stroke-width:0.3;"/>
  <path d="M9.457-34.708c-0.871,0.426-1.758,1.344-1.383,2.36    c0.177,0.413,0.53,0.884,1.001,1.002c0.228,0.062,0.458,0.117,0.688,0.166" style="fill:none;stroke:#000000;stroke-width:0.3;"/>
  <path d="M20.051-31.059c-0.337,0.083-0.686,0.125-1.018,0.125    c-1.065-0.019-2.13,0.022-3.19,0.058" style="fill:none;stroke:#000000;stroke-width:0.3;"/>
  <path d="M10.918-35.125c1.211-0.168,2.45,0.03,3.718,0.238" style="fill:none;stroke:#000000;stroke-width:0.3;"/>
  <path d="M9.763-31.18c0.349,0.074,0.698,0.134,1.05,0.182" style="fill:none;stroke:#000000;stroke-width:0.3;"/>
  <path d="M50.014-31.337c0.122,0.013,0.244,0.029,0.368,0.05    c0.941,0.094,1.847,0.151,2.743,0.441" style="fill:none;stroke:#000000;stroke-width:0.3;"/>
  <path d="M54.276-30.339c-0.153-0.087-0.316-0.168-0.477-0.241    c-0.225-0.107-0.448-0.193-0.674-0.266" style="fill:none;stroke:#000000;stroke-width:0.3;"/>
  <path d="M46.355-31.015c-0.677,0.035-1.364,0.069-1.967,0.192" style="fill:none;stroke:#000000;stroke-width:0.3;"/>
  <path d="M50.014-31.337c-0.571-0.06-1.12-0.031-1.694,0.109    c-0.572,0.139-1.263,0.177-1.965,0.213" style="fill:none;stroke:#000000;stroke-width:0.3;"/>
  <path d="M49.965-27.032c0.837-0.006,1.681-0.047,2.538-0.131    c0.253-0.012,0.527-0.051,0.802-0.118" style="fill:none;stroke:#000000;stroke-width:0.3;"/>
  <path d="M44.388-30.823c-1.148,0.235-1.986,0.794-1.844,2.305    c0.06,0.413,0.59,0.825,1.12,1.002c2.147,0.295,4.204,0.499,6.301,0.484" style="fill:none;stroke:#000000;stroke-width:0.3;"/>
  <path d="M53.441-27.316c0.291-0.081,0.578-0.194,0.835-0.339" style="fill:none;stroke:#000000;stroke-width:0.3;"/>
  <path d="M53.305-27.281c0.045-0.011,0.091-0.023,0.136-0.036" style="fill:none;stroke:#000000;stroke-width:0.3;"/>
  <path d="M39.122-27.243c-0.565,0.08-1.121,0.119-1.703,0.08    c-0.159-0.023-0.318-0.042-0.477-0.059" style="fill:none;stroke:#000000;stroke-width:0.3;"/>
  <path d="M29.486-27.317c-0.947-0.222-1.729-0.801-1.967-1.614    c-0.202-0.525,0.441-1.738,1.473-1.944c1.942-0.389,3.771,0,5.716-0.059c0.96-0.029,2.23-0.13,3.471-0.146" style="fill:none;stroke:#000000;stroke-width:0.3;"/>
  <path d="M36.942-27.222c-1.786-0.19-3.491-0.018-5.25,0.016" style="fill:none;stroke:#000000;stroke-width:0.3;"/>
  <path d="M38.178-31.08c0.736-0.01,1.463,0.011,2.107,0.094" style="fill:none;stroke:#000000;stroke-width:0.3;"/>
  <path d="M29.486-27.317c0.221,0.052,0.45,0.084,0.685,0.095    c0.514,0.024,1.019,0.026,1.521,0.016" style="fill:none;stroke:#000000;stroke-width:0.3;"/>
  <path d="M39.122-27.243c0.293-0.042,0.588-0.095,0.89-0.156    c1.119-0.294,2.416-0.884,2.593-2.121c-0.1-0.896-1.052-1.302-2.318-1.466" style="fill:none;stroke:#000000;stroke-width:0.3;"/>
  <path d="M21.273-31.17c-0.419,0.05-0.823,0.086-1.222,0.11" style="fill:none;stroke:#000000;stroke-width:0.3;"/>
  <path d="M22.016-26.855c0.857-0.043,1.7-0.145,2.521-0.316" style="fill:none;stroke:#000000;stroke-width:0.3;"/>
  <path d="M22.016-26.855c-1.87,0.094-3.801-0.088-5.693-0.426    c-0.942-0.118-2.062-0.53-2.239-1.414c-0.259-1.121,0.683-1.864,1.76-2.181" style="fill:none;stroke:#000000;stroke-width:0.3;"/>
  <path d="M20.919-31.17c2.71-0.471,5.753,0.059,6.423,1.474    c0.294,0.766-0.06,1.708-1.297,2.121c-0.492,0.164-0.995,0.297-1.508,0.404" style="fill:none;stroke:#000000;stroke-width:0.3;"/>
  <path d="M20.051-31.059c-1.003,0.062-1.967,0.05-3.021,0.008    c-0.379,0-0.792,0.059-1.187,0.176" style="fill:none;stroke:#000000;stroke-width:0.3;"/>
  <path d="M8.24-27.276c-0.465-0.036-0.932-0.063-1.404-0.063    c-2,0.111-5.256,0.196-5.82-1.153" style="fill:none;stroke:#000000;stroke-width:0.3;"/>
  <path d="M5.702-31.231c-1,0.021-2.031,0.077-2.881,0.36" style="fill:none;stroke:#000000;stroke-width:0.3;"/>
  <path d="M1.115-29.394c0.312-0.776,0.934-1.221,1.706-1.478" style="fill:none;stroke:#000000;stroke-width:0.3;"/>
  <path d="M10.813-30.999c-0.35-0.066-0.698-0.13-1.05-0.182" style="fill:none;stroke:#000000;stroke-width:0.3;"/>
  <path d="M1.115-29.394c-0.077,0.192-0.135,0.405-0.172,0.64    c0.014,0.093,0.038,0.18,0.072,0.261" style="fill:none;stroke:#000000;stroke-width:0.3;"/>
  <path d="M9.763-31.18c-0.704-0.104-1.417-0.162-2.161-0.108    c-0.577,0.042-1.231,0.042-1.9,0.056" style="fill:none;stroke:#000000;stroke-width:0.3;"/>
  <path d="M11.538-27.172c-0.055,0.004-0.109,0.007-0.164,0.009    c-1.059,0.082-2.092-0.034-3.134-0.113" style="fill:none;stroke:#000000;stroke-width:0.3;"/>
  <path d="M11.538-27.172c1.319-0.09,2.824-0.604,2.429-2.583    c-0.07-0.347-0.59-0.825-1.12-0.884c-0.69-0.092-1.362-0.232-2.033-0.359" style="fill:none;stroke:#000000;stroke-width:0.3;"/>
  <path d="M53.446-27.281c-0.047,0-0.094,0-0.141,0" style="fill:none;stroke:#000000;stroke-width:0.3;"/>
  <path d="M53.305-27.281c-1.033,0.001-2.263,0.011-3.34,0.249" style="fill:none;stroke:#000000;stroke-width:0.3;"/>
  <path d="M53.441-27.316c0.271,0.017,0.55,0.023,0.835,0.022" style="fill:none;stroke:#000000;stroke-width:0.3;"/>
  <path d="M47.669-25.488c0.071-0.554,0.637-0.878,1.239-1.203    c0.324-0.147,0.681-0.258,1.057-0.34" style="fill:none;stroke:#000000;stroke-width:0.3;"/>
  <path d="M47.73-24.982c0.295,1.12,1.591,1.591,2.77,1.591" style="fill:none;stroke:#000000;stroke-width:0.3;"/>
  <path d="M47.669-25.488c-0.018,0.15-0.002,0.317,0.061,0.506" style="fill:none;stroke:#000000;stroke-width:0.3;"/>
  <path d="M53.441-27.316c-0.098-0.006-0.194-0.014-0.289-0.023" style="fill:none;stroke:#000000;stroke-width:0.3;"/>
  <path d="M51.31-23.357c-0.27-0.011-0.539-0.023-0.811-0.035" style="fill:none;stroke:#000000;stroke-width:0.3;"/>
  <path d="M51.31-23.357c0.998,0.041,1.982,0.073,2.966,0.058" style="fill:none;stroke:#000000;stroke-width:0.3;"/>
  <path d="M33.983-25.485c0.183-0.604,0.815-1.104,1.373-1.383    c0.515-0.206,1.045-0.307,1.586-0.354" style="fill:none;stroke:#000000;stroke-width:0.3;"/>
  <path d="M33.938-25.268c-0.011,0.093-0.01,0.188,0.004,0.286    c0.117,0.825,1.119,1.237,2.003,1.414c0.576,0.093,1.144,0.168,1.705,0.226" style="fill:none;stroke:#000000;stroke-width:0.3;"/>
  <path d="M47.73-24.982c0.016-0.2-0.008-0.364-0.061-0.506" style="fill:none;stroke:#000000;stroke-width:0.3;"/>
  <path d="M39.122-27.243c-0.738-0.009-1.469-0.041-2.18,0.021" style="fill:none;stroke:#000000;stroke-width:0.3;"/>
  <path d="M39.57-23.213c2.309,0.072,4.568-0.164,6.981-0.709    c0.472-0.118,0.943-0.589,1.179-1.061" style="fill:none;stroke:#000000;stroke-width:0.3;"/>
  <path d="M39.122-27.243c0.626,0.007,1.259-0.001,1.891-0.097    c1.995-0.302,4.759-0.015,5.687,0.825c0.434,0.392,0.822,0.624,0.971,1.026" style="fill:none;stroke:#000000;stroke-width:0.3;"/>
  <path d="M39.57-23.213c-0.635-0.02-1.273-0.063-1.92-0.129" style="fill:none;stroke:#000000;stroke-width:0.3;"/>
  <path d="M33.983-25.485c-0.021,0.071-0.036,0.143-0.045,0.217" style="fill:none;stroke:#000000;stroke-width:0.3;"/>
  <path d="M29.486-27.317c0.656,0.04,1.305,0.095,2.011,0.095    c0.064,0.003,0.129,0.009,0.195,0.016" style="fill:none;stroke:#000000;stroke-width:0.3;"/>
  <path d="M24.538-27.171c-0.914,0.026-1.815,0.083-2.521,0.316" style="fill:none;stroke:#000000;stroke-width:0.3;"/>
  <path d="M20.634-25.292c-0.006,0.062-0.01,0.125-0.01,0.192    c0,0.013,0.001,0.025,0.001,0.038" style="fill:none;stroke:#000000;stroke-width:0.3;"/>
  <path d="M20.625-25.062c0.012,0.512,0.304,0.85,0.706,1.023    c2.239,0.825,4.526,0.719,7.012,0.766" style="fill:none;stroke:#000000;stroke-width:0.3;"/>
  <path d="M33.938-25.268c0.022-0.074,0.037-0.146,0.045-0.217" style="fill:none;stroke:#000000;stroke-width:0.3;"/>
  <path d="M29.486-27.317c-0.768-0.047-1.547-0.073-2.438,0.036    c-0.741,0.09-1.632,0.085-2.51,0.11" style="fill:none;stroke:#000000;stroke-width:0.3;"/>
  <path d="M28.343-23.273c0.796,0.015,1.65-0.028,2.476-0.159" style="fill:none;stroke:#000000;stroke-width:0.3;"/>
  <path d="M22.016-26.855c-0.77,0.253-1.308,0.713-1.382,1.563" style="fill:none;stroke:#000000;stroke-width:0.3;"/>
  <path d="M33.983-25.485c0.11-1.014-1.262-1.607-2.291-1.721" style="fill:none;stroke:#000000;stroke-width:0.3;"/>
  <path d="M33.938-25.268c-0.004,0.012-0.007,0.023-0.011,0.035    c-0.177,0.53-0.236,0.854-0.884,1.149c-0.664,0.318-1.432,0.525-2.225,0.652" style="fill:none;stroke:#000000;stroke-width:0.3;"/>
  <path d="M5.845-25.763c-0.097,0.175-0.161,0.358-0.188,0.545    c0.029,0.134,0.078,0.26,0.143,0.38" style="fill:none;stroke:#000000;stroke-width:0.3;"/>
  <path d="M20.634-25.292c-0.02-0.156-0.093-0.314-0.231-0.471    c-1.768-2.003-4.626-1.12-7.16-1.414l-0.516-0.044c-0.434,0.057-0.82,0.065-1.19,0.05" style="fill:none;stroke:#000000;stroke-width:0.3;"/>
  <path d="M15.004-23.234c-1.546-0.009-3.081-0.126-4.701-0.062" style="fill:none;stroke:#000000;stroke-width:0.3;"/>
  <path d="M11.538-27.172c-0.785-0.032-1.501-0.167-2.463-0.167    c-0.279-0.01-0.561,0.013-0.835,0.063" style="fill:none;stroke:#000000;stroke-width:0.3;"/>
  <path d="M5.8-24.838c0.428,0.785,1.579,1.275,2.726,1.471" style="fill:none;stroke:#000000;stroke-width:0.3;"/>
  <path d="M15.004-23.234c0.809,0.004,1.62-0.021,2.448-0.118" style="fill:none;stroke:#000000;stroke-width:0.3;"/>
  <path d="M20.625-25.062c0.015-0.076,0.018-0.153,0.009-0.23" style="fill:none;stroke:#000000;stroke-width:0.3;"/>
  <path d="M10.303-23.296c-0.153,0.006-0.307,0.014-0.462,0.023    c-0.407,0.015-0.861-0.017-1.315-0.094" style="fill:none;stroke:#000000;stroke-width:0.3;"/>
  <path d="M5.845-25.763c0.401-0.726,1.353-1.32,2.395-1.513" style="fill:none;stroke:#000000;stroke-width:0.3;"/>
  <path d="M17.453-23.352c0.231-0.027,0.463-0.059,0.697-0.098    c0.957-0.137,2.324-0.829,2.476-1.612" style="fill:none;stroke:#000000;stroke-width:0.3;"/>
  <path d="M46.162-19.379c0.032-0.001,0.064-0.003,0.096-0.005    c2.416-0.177,4.772-0.059,7.012-0.766c0.472-0.118,1.12-0.648,0.884-1.238c-0.528-1.203-1.647-1.816-2.843-1.969" style="fill:none;stroke:#000000;stroke-width:0.3;"/>
  <path d="M41.897-21.859c-0.069,0.167-0.092,0.329-0.078,0.483" style="fill:none;stroke:#000000;stroke-width:0.3;"/>
  <path d="M44.843-19.409c0.439,0.05,0.879,0.055,1.318,0.03" style="fill:none;stroke:#000000;stroke-width:0.3;"/>
  <path d="M44.843-19.409c-0.413-0.047-0.825-0.132-1.237-0.27    c-0.736-0.344-1.718-0.932-1.787-1.697" style="fill:none;stroke:#000000;stroke-width:0.3;"/>
  <path d="M51.31-23.357c-0.269-0.034-0.54-0.045-0.811-0.035" style="fill:none;stroke:#000000;stroke-width:0.3;"/>
  <path d="M41.897-21.859c1.119-2.534,4.007-1.179,6.246-1.532    c0.759-0.12,1.709,0.177,2.356,0" style="fill:none;stroke:#000000;stroke-width:0.3;"/>
  <path d="M26.82-21.368c0.402,1.06,1.5,1.427,2.677,1.713" style="fill:none;stroke:#000000;stroke-width:0.3;"/>
  <path d="M26.82-21.368c-0.003-0.007-0.005-0.013-0.008-0.02    c-0.039-0.137-0.045-0.274-0.025-0.409" style="fill:none;stroke:#000000;stroke-width:0.3;"/>
  <path d="M26.787-21.797c0.1-0.674,0.869-1.28,1.557-1.477" style="fill:none;stroke:#000000;stroke-width:0.3;"/>
  <path d="M30.819-23.432c-0.818,0.02-1.642,0.066-2.476,0.159" style="fill:none;stroke:#000000;stroke-width:0.3;"/>
  <path d="M39.098-19.49c-0.069,0.016-0.139,0.031-0.207,0.046    c-0.536,0.088-1.062,0.157-1.578,0.21" style="fill:none;stroke:#000000;stroke-width:0.3;"/>
  <path d="M30.819-23.432c1.266-0.03,2.519,0.005,3.771,0.041" style="fill:none;stroke:#000000;stroke-width:0.3;"/>
  <path d="M29.497-19.655c0.048,0.012,0.096,0.023,0.144,0.035    c1.377,0.255,2.687,0.421,3.994,0.486" style="fill:none;stroke:#000000;stroke-width:0.3;"/>
  <path d="M37.313-19.233c-1.256,0.129-2.465,0.158-3.679,0.099" style="fill:none;stroke:#000000;stroke-width:0.3;"/>
  <path d="M37.65-23.342c-1.138,0.049-2.26,0.217-3.414-0.049" style="fill:none;stroke:#000000;stroke-width:0.3;"/>
  <path d="M41.897-21.859c-0.324-0.74-1.337-1.153-2.327-1.354" style="fill:none;stroke:#000000;stroke-width:0.3;"/>
  <path d="M39.57-23.213c-0.271-0.055-0.542-0.094-0.796-0.12    c-0.378-0.029-0.752-0.026-1.124-0.01" style="fill:none;stroke:#000000;stroke-width:0.3;"/>
  <path d="M41.819-21.376c-0.327,1.203-1.562,1.622-2.721,1.887" style="fill:none;stroke:#000000;stroke-width:0.3;"/>
  <path d="M41.897-21.859c-0.011,0.174-0.037,0.334-0.078,0.483" style="fill:none;stroke:#000000;stroke-width:0.3;"/>
  <path d="M20.439-19.129c1.067,0.076,2.125,0.086,3.176-0.076" style="fill:none;stroke:#000000;stroke-width:0.3;"/>
  <path d="M26.82-21.368c0.011-0.14,0.001-0.284-0.033-0.429" style="fill:none;stroke:#000000;stroke-width:0.3;"/>
  <path d="M26.82-21.368c-0.063,0.802-0.817,1.497-1.604,1.77" style="fill:none;stroke:#000000;stroke-width:0.3;"/>
  <path d="M17.453-23.352c0.922,0.06,1.842,0.172,2.598,0.152    c1.635-0.044,2.932-0.486,4.758-0.073c0.825,0.235,1.709,0.648,1.944,1.355c0.014,0.041,0.024,0.081,0.034,0.122" style="fill:none;stroke:#000000;stroke-width:0.3;"/>
  <path d="M25.215-19.598c-0.037,0.013-0.075,0.025-0.112,0.037    c-0.494,0.165-0.99,0.28-1.488,0.357" style="fill:none;stroke:#000000;stroke-width:0.3;"/>
  <path d="M15.069-19.559c0.039,0.001,0.077,0.002,0.115,0.001" style="fill:none;stroke:#000000;stroke-width:0.3;"/>
  <path d="M15.807-19.546c-0.162-0.007-0.324-0.012-0.486-0.015    c-0.045,0.003-0.09,0.004-0.137,0.004" style="fill:none;stroke:#000000;stroke-width:0.3;"/>
  <path d="M20.439-19.129c-1.522-0.108-3.064-0.35-4.632-0.417" style="fill:none;stroke:#000000;stroke-width:0.3;"/>
  <path d="M15.004-23.234c0.731-0.185,1.591-0.174,2.448-0.118" style="fill:none;stroke:#000000;stroke-width:0.3;"/>
  <path d="M15.004-23.234c-0.199,0.05-0.39,0.114-0.567,0.196    c-0.364,0.182-1.458,0.81-1.532,2.004c-0.058,0.933,1.185,1.444,2.164,1.476" style="fill:none;stroke:#000000;stroke-width:0.3;"/>
  <path d="M7.003-23.369c0.141,0.012,0.281,0.024,0.422,0.037" style="fill:none;stroke:#000000;stroke-width:0.3;"/>
  <path d="M7.003-23.369c0.505,0.011,1.015,0.002,1.523,0.002" style="fill:none;stroke:#000000;stroke-width:0.3;"/>
  <path d="M7.003-23.369c-0.194-0.004-0.388-0.011-0.58-0.022" style="fill:none;stroke:#000000;stroke-width:0.3;"/>
  <path d="M9.79-19.262c-1.587,0.157-3.142,0.17-4.671-0.007" style="fill:none;stroke:#000000;stroke-width:0.3;"/>
  <path d="M10.303-23.296c-0.583-0.062-1.179-0.072-1.777-0.071" style="fill:none;stroke:#000000;stroke-width:0.3;"/>
  <path d="M9.79-19.262c0.193-0.019,0.387-0.04,0.581-0.063    c0.319-0.058,0.577-0.134,0.8-0.236" style="fill:none;stroke:#000000;stroke-width:0.3;"/>
  <path d="M11.171-19.562c0.682-0.313,1.03-0.871,1.764-1.915    c0.321-0.458-0.148-1.09-0.561-1.267c-0.658-0.319-1.356-0.476-2.071-0.553" style="fill:none;stroke:#000000;stroke-width:0.3;"/>
  <path d="M3.122-19.616c0.662,0.155,1.327,0.269,1.998,0.347" style="fill:none;stroke:#000000;stroke-width:0.3;"/>
  <path d="M7.003-23.369c-1.929-0.168-3.898-0.336-5.766,0.213    c-0.648,0.177-1.301,0.908-0.942,1.768c0.441,1.061,0.824,1.179,1.532,1.414c0.43,0.137,0.861,0.256,1.294,0.357" style="fill:none;stroke:#000000;stroke-width:0.3;"/>
  <path d="M48.387-17.481c0.006,0.091,0.022,0.184,0.05,0.277    c0.362,0.981,1.402,1.465,2.527,1.648" style="fill:none;stroke:#000000;stroke-width:0.3;"/>
  <path d="M48.448-17.965c-0.049,0.155-0.071,0.317-0.061,0.484" style="fill:none;stroke:#000000;stroke-width:0.3;"/>
  <path d="M50.964-15.556c0.158,0.026,0.318,0.046,0.479,0.061    c0.508,0.011,1.011,0.025,1.511,0.038" style="fill:none;stroke:#000000;stroke-width:0.3;"/>
  <path d="M52.954-15.458c0.443,0.011,0.884,0.021,1.322,0.024" style="fill:none;stroke:#000000;stroke-width:0.3;"/>
  <path d="M48.448-17.965c0.209-0.667,0.899-1.202,1.463-1.419    c1.362-0.455,2.854-0.433,4.365-0.344" style="fill:none;stroke:#000000;stroke-width:0.3;"/>
  <path d="M39.098-19.49c0.512-0.008,1.036,0.018,1.561,0.046    c1.44,0.076,2.8,0.026,4.185,0.034" style="fill:none;stroke:#000000;stroke-width:0.3;"/>
  <path d="M48.387-17.481c-0.255,0.788-1.232,1.318-2.071,1.691    c-0.229,0.092-0.459,0.173-0.691,0.246" style="fill:none;stroke:#000000;stroke-width:0.3;"/>
  <path d="M39.422-15.378c-0.77-0.142-1.538-0.325-2.299-0.529    c-0.589-0.118-1.179-0.589-1.355-1.12c-0.395-0.96,0.725-1.919,1.545-2.206" style="fill:none;stroke:#000000;stroke-width:0.3;"/>
  <path d="M48.448-17.965c-0.004-0.064-0.012-0.129-0.025-0.196    c-0.117-0.472-0.81-1.164-1.4-1.164c-0.29-0.024-0.576-0.041-0.861-0.053" style="fill:none;stroke:#000000;stroke-width:0.3;"/>
  <path d="M39.098-19.49c-0.581,0.01-1.147,0.066-1.68,0.223    c-0.034,0.01-0.069,0.021-0.105,0.034" style="fill:none;stroke:#000000;stroke-width:0.3;"/>
  <path d="M44.843-19.409c0.436,0.002,0.874,0.011,1.318,0.03" style="fill:none;stroke:#000000;stroke-width:0.3;"/>
  <path d="M43.788-15.159c-0.988,0.115-1.99,0.094-2.995-0.017" style="fill:none;stroke:#000000;stroke-width:0.3;"/>
  <path d="M43.788-15.159c0.619-0.072,1.232-0.197,1.837-0.386" style="fill:none;stroke:#000000;stroke-width:0.3;"/>
  <path d="M48.387-17.481c0.049-0.152,0.071-0.313,0.061-0.484" style="fill:none;stroke:#000000;stroke-width:0.3;"/>
  <path d="M40.792-15.175c-0.457-0.05-0.914-0.12-1.37-0.203" style="fill:none;stroke:#000000;stroke-width:0.3;"/>
  <path d="M30.773-15.372c0.676,0.055,1.289-0.078,1.896-0.209" style="fill:none;stroke:#000000;stroke-width:0.3;"/>
  <path d="M25.215-19.598c-0.492,0.037-0.98,0.128-1.468,0.332    c-0.044,0.019-0.089,0.04-0.133,0.062" style="fill:none;stroke:#000000;stroke-width:0.3;"/>
  <path d="M25.96-15.63c-0.767-0.033-1.528-0.116-2.29-0.326" style="fill:none;stroke:#000000;stroke-width:0.3;"/>
  <path d="M25.215-19.598c0.936-0.07,1.889,0.055,2.893-0.022    c0.476-0.037,0.936-0.046,1.389-0.035" style="fill:none;stroke:#000000;stroke-width:0.3;"/>
  <path d="M23.615-19.205c-0.783,0.387-1.561,1.229-1.281,2.178    c0.177,0.53,0.707,0.943,1.296,1.061c0.014,0.004,0.027,0.007,0.041,0.011" style="fill:none;stroke:#000000;stroke-width:0.3;"/>
  <path d="M32.668-15.58c0.421-0.091,0.839-0.183,1.273-0.21    c1.886-0.118,1.649-1.061,1.649-1.886c-0.105-0.851-1.075-1.221-1.957-1.458" style="fill:none;stroke:#000000;stroke-width:0.3;"/>
  <path d="M25.96-15.63c1.537,0.067,3.1-0.06,4.74,0.252    c0.024,0.002,0.048,0.004,0.072,0.006" style="fill:none;stroke:#000000;stroke-width:0.3;"/>
  <path d="M29.497-19.655c1.282,0.032,2.506,0.229,3.855,0.447    c0.093,0.023,0.188,0.047,0.282,0.073" style="fill:none;stroke:#000000;stroke-width:0.3;"/>
  <path d="M16.083-15.568c0.684-0.037,1.369-0.081,2.058-0.121" style="fill:none;stroke:#000000;stroke-width:0.3;"/>
  <path d="M15.069-19.559c-0.161-0.002-0.316-0.003-0.455-0.003    c-1.089-0.113-2.298-0.153-3.442,0" style="fill:none;stroke:#000000;stroke-width:0.3;"/>
  <path d="M20.439-19.129c-1.809-0.268-2.057-0.402-3.969-0.402    c0,0-0.287-0.007-0.663-0.015" style="fill:none;stroke:#000000;stroke-width:0.3;"/>
  <path d="M9.521-15.738c0.826,0.126,1.642,0.198,2.449,0.233" style="fill:none;stroke:#000000;stroke-width:0.3;"/>
  <path d="M16.083-15.568c-1.367,0.074-2.731,0.123-4.113,0.063" style="fill:none;stroke:#000000;stroke-width:0.3;"/>
  <path d="M9.79-19.262c0.441-0.139,0.905-0.236,1.381-0.299" style="fill:none;stroke:#000000;stroke-width:0.3;"/>
  <path d="M20.439-19.129c0.088,0.013,0.179,0.026,0.273,0.04    c0.708,0.118,1.208,0.236,1.444,0.943c0.354,1.061-0.837,2.332-1.767,2.357c-0.757,0.021-1.505,0.059-2.248,0.102" style="fill:none;stroke:#000000;stroke-width:0.3;"/>
  <path d="M9.79-19.262c-0.163,0.052-0.323,0.109-0.479,0.172    c-0.767,0.294-1.827,1.001-1.474,2.062c0.177,0.53,0.707,1.178,1.355,1.237c0.109,0.019,0.219,0.036,0.328,0.052" style="fill:none;stroke:#000000;stroke-width:0.3;"/>
  <path d="M15.069-19.559c0.038,0,0.077,0.001,0.115,0.001" style="fill:none;stroke:#000000;stroke-width:0.3;"/>
  <path d="M15.807-19.546c-0.193-0.004-0.41-0.008-0.623-0.011" style="fill:none;stroke:#000000;stroke-width:0.3;"/>
  <path d="M50.964-15.556c0.706-0.045,1.385-0.055,1.989,0.099" style="fill:none;stroke:#000000;stroke-width:0.3;"/>
  <path d="M43.788-15.159c-0.787,0.333-1.354,0.916-1.42,1.902    c1.002,1.473,3.108,1.429,4.376,1.547c0.877,0.082,1.733,0.133,2.58,0.129" style="fill:none;stroke:#000000;stroke-width:0.3;"/>
  <path d="M51.784-11.774c0.653-0.107,1.304-0.263,1.957-0.481    c0.186-0.051,0.372-0.16,0.535-0.304" style="fill:none;stroke:#000000;stroke-width:0.3;"/>
  <path d="M52.954-15.458c0.5,0.127,0.949,0.364,1.322,0.784" style="fill:none;stroke:#000000;stroke-width:0.3;"/>
  <path d="M45.625-15.544c-0.654,0.044-1.297,0.156-1.837,0.386" style="fill:none;stroke:#000000;stroke-width:0.3;"/>
  <path d="M45.625-15.544c0.957-0.065,1.94,0.013,2.665,0.079    c0.872,0.079,1.794-0.033,2.675-0.09" style="fill:none;stroke:#000000;stroke-width:0.3;"/>
  <path d="M51.784-11.774c-0.814,0.133-1.632,0.19-2.46,0.193" style="fill:none;stroke:#000000;stroke-width:0.3;"/>
  <path d="M39.422-15.378c-1.696-0.198-4.26-0.384-4.892-0.294h0.118    c-0.695,0-1.341,0.036-1.98,0.092" style="fill:none;stroke:#000000;stroke-width:0.3;"/>
  <path d="M30.773-15.372c0.653-0.08,1.271-0.154,1.896-0.209" style="fill:none;stroke:#000000;stroke-width:0.3;"/>
  <path d="M30.773-15.372c-0.61,0.075-1.252,0.155-1.958,0.229    c-0.668,0.07-1.649,0.825-1.355,1.709c0.239,0.717,0.944,1.202,1.705,1.422" style="fill:none;stroke:#000000;stroke-width:0.3;"/>
  <path d="M36.206-11.672c1.23-0.046,2.466-0.152,3.728-0.337" style="fill:none;stroke:#000000;stroke-width:0.3;"/>
  <path d="M36.206-11.672c-1.534,0.057-3.062,0.019-4.622-0.081" style="fill:none;stroke:#000000;stroke-width:0.3;"/>
  <path d="M40.792-15.175c0.662,0.142,1.3,0.522,1.517,1.153    c0.324,0.943-0.649,1.709-1.237,1.827c-0.383,0.069-0.762,0.131-1.139,0.187" style="fill:none;stroke:#000000;stroke-width:0.3;"/>
  <path d="M29.164-12.011c0.177,0.051,0.357,0.088,0.534,0.11    c0.636,0.058,1.263,0.107,1.885,0.147" style="fill:none;stroke:#000000;stroke-width:0.3;"/>
  <path d="M40.792-15.175c-0.045-0.01-0.089-0.018-0.134-0.025    c-0.276-0.055-0.716-0.117-1.236-0.178" style="fill:none;stroke:#000000;stroke-width:0.3;"/>
  <path d="M13.851-13.8c-0.009,0.131,0.008,0.267,0.057,0.405" style="fill:none;stroke:#000000;stroke-width:0.3;"/>
  <path d="M16.062-11.999c-0.885-0.174-1.682-0.499-2.096-1.257    c-0.023-0.046-0.043-0.092-0.059-0.138" style="fill:none;stroke:#000000;stroke-width:0.3;"/>
  <path d="M16.083-15.568c-0.297,0.056-0.591,0.135-0.88,0.249    c-0.519,0.236-1.305,0.814-1.352,1.519" style="fill:none;stroke:#000000;stroke-width:0.3;"/>
  <path d="M21.933-11.759c0.779-0.045,1.535-0.112,2.269-0.189" style="fill:none;stroke:#000000;stroke-width:0.3;"/>
  <path d="M16.062-11.999c0.628,0.124,1.3,0.172,1.911,0.245    c0.015,0.001,0.029,0.001,0.044,0.002" style="fill:none;stroke:#000000;stroke-width:0.3;"/>
  <path d="M20.919-15.849c1.015-0.082,1.941-0.124,2.751-0.107" style="fill:none;stroke:#000000;stroke-width:0.3;"/>
  <path d="M25.96-15.63c0.777,0.278,1.195,0.751,1.146,1.49    c-0.058,0.868-0.433,1.895-1.296,2.003c-0.524,0.065-1.061,0.129-1.608,0.188" style="fill:none;stroke:#000000;stroke-width:0.3;"/>
  <path d="M25.96-15.63c-0.578-0.207-1.356-0.306-2.29-0.326" style="fill:none;stroke:#000000;stroke-width:0.3;"/>
  <path d="M21.933-11.759c-1.243,0.073-2.547,0.09-3.916,0.008" style="fill:none;stroke:#000000;stroke-width:0.3;"/>
  <path d="M18.141-15.688c-0.692-0.009-1.385-0.006-2.058,0.121" style="fill:none;stroke:#000000;stroke-width:0.3;"/>
  <path d="M21.273-15.967c-1.003,0.334-2.068,0.292-3.132,0.278" style="fill:none;stroke:#000000;stroke-width:0.3;"/>
  <path d="M13.908-13.394c-0.04,0.642-0.617,1.344-1.18,1.376    c-0.605,0.034-1.212,0.07-1.818,0.106" style="fill:none;stroke:#000000;stroke-width:0.3;"/>
  <path d="M7.068-11.728c-0.972,0.03-1.951,0.043-2.943,0.028" style="fill:none;stroke:#000000;stroke-width:0.3;"/>
  <path d="M2.556-15.502c-0.008,0.002-0.015,0.004-0.022,0.007    c-0.53,0.177-0.943,0.708-1.238,1.238c-0.467,0.933,0.25,1.941,1.125,2.348" style="fill:none;stroke:#000000;stroke-width:0.3;"/>
  <path d="M7.068-11.728c1.291-0.041,2.568-0.111,3.842-0.185" style="fill:none;stroke:#000000;stroke-width:0.3;"/>
  <path d="M9.521-15.738c-0.841,0.017-1.704,0.069-2.509,0.007    c-0.731-0.057-1.463-0.112-2.182-0.104" style="fill:none;stroke:#000000;stroke-width:0.3;"/>
  <path d="M2.556-15.502c0.732-0.241,1.496-0.325,2.274-0.333" style="fill:none;stroke:#000000;stroke-width:0.3;"/>
  <path d="M4.124-11.7c-0.332-0.005-0.666-0.013-1.001-0.024    c-0.232-0.012-0.473-0.078-0.702-0.186" style="fill:none;stroke:#000000;stroke-width:0.3;"/>
  <path d="M13.908-13.394c0.009-0.141-0.008-0.278-0.057-0.405" style="fill:none;stroke:#000000;stroke-width:0.3;"/>
  <path d="M13.851-13.8c-0.01-0.025-0.02-0.051-0.032-0.075    c-0.415-0.912-1.067-1.387-1.849-1.63" style="fill:none;stroke:#000000;stroke-width:0.3;"/>
  <path d="M9.521-15.738c0.871-0.017,1.717,0.006,2.449,0.233" style="fill:none;stroke:#000000;stroke-width:0.3;"/>
  <path d="M51.784-11.774c0.357,0.014,0.713,0.038,1.059,0.064    c0.46,0.035,0.943,0.017,1.434-0.021" style="fill:none;stroke:#000000;stroke-width:0.3;"/>
  <path d="M51.174-7.759c1.045,0.082,2.08,0.14,3.102,0.123" style="fill:none;stroke:#000000;stroke-width:0.3;"/>
  <path d="M51.784-11.774c-0.848-0.032-1.706-0.004-2.46,0.193" style="fill:none;stroke:#000000;stroke-width:0.3;"/>
  <path d="M49.443-7.958c0.264,0.058,0.538,0.098,0.821,0.124    c0.304,0.026,0.607,0.052,0.91,0.076" style="fill:none;stroke:#000000;stroke-width:0.3;"/>
  <path d="M47.119-9.434c0.595,0.842,1.396,1.272,2.324,1.476" style="fill:none;stroke:#000000;stroke-width:0.3;"/>
  <path d="M47.199-9.826c0.4-0.995,1.182-1.507,2.125-1.755" style="fill:none;stroke:#000000;stroke-width:0.3;"/>
  <path d="M47.199-9.826c-0.043,0.108-0.082,0.221-0.116,0.341    c0.012,0.017,0.023,0.034,0.036,0.05" style="fill:none;stroke:#000000;stroke-width:0.3;"/>
  <path d="M39.933-12.009c-1.246,0.082-2.523,0.076-3.728,0.337" style="fill:none;stroke:#000000;stroke-width:0.3;"/>
  <path d="M47.199-9.826c0-0.102-0.018-0.205-0.058-0.308    c-0.295-0.648-1.002-1.237-1.886-1.532c-1.709-0.53-3.422-0.48-5.186-0.353c-0.046,0.003-0.092,0.006-0.137,0.009" style="fill:none;stroke:#000000;stroke-width:0.3;"/>
  <path d="M39.644-7.938c-0.775-0.028-1.555-0.047-2.344-0.016    c-0.319,0.027-0.656,0.035-0.991,0.016" style="fill:none;stroke:#000000;stroke-width:0.3;"/>
  <path d="M36.206-11.672c-0.349,0.075-0.692,0.173-1.026,0.302    c-0.648,0.294-1.65,1.061-1.414,1.886c0.274,1.095,1.396,1.483,2.544,1.548" style="fill:none;stroke:#000000;stroke-width:0.3;"/>
  <path d="M47.199-9.826c0.001,0.134-0.028,0.265-0.08,0.391" style="fill:none;stroke:#000000;stroke-width:0.3;"/>
  <path d="M39.644-7.938c2.121,0.077,4.203,0.219,6.318-0.428    c0.405-0.163,0.952-0.577,1.156-1.069" style="fill:none;stroke:#000000;stroke-width:0.3;"/>
  <path d="M31.583-11.753c-0.732-0.182-1.582-0.25-2.419-0.258" style="fill:none;stroke:#000000;stroke-width:0.3;"/>
  <path d="M20.273-9.733c0.016,0.044,0.033,0.087,0.057,0.13    c0.472,1.061,1.65,1.316,2.711,1.296" style="fill:none;stroke:#000000;stroke-width:0.3;"/>
  <path d="M20.228-10.086c0.047-0.624,0.719-1.24,1.28-1.52    c0.14-0.06,0.282-0.11,0.425-0.153" style="fill:none;stroke:#000000;stroke-width:0.3;"/>
  <path d="M21.933-11.759c0.726-0.215,1.489-0.225,2.269-0.189" style="fill:none;stroke:#000000;stroke-width:0.3;"/>
  <path d="M24.202-11.949c0.881,0.039,1.782,0.134,2.669,0.048    c0.668-0.064,1.475-0.117,2.294-0.11" style="fill:none;stroke:#000000;stroke-width:0.3;"/>
  <path d="M23.041-8.307c4.655-0.088,4.699,0.751,8.058-0.044    c0.618-0.146,2.431-0.398,2.52-1.193c0.139-1.246-0.77-1.896-2.034-2.21" style="fill:none;stroke:#000000;stroke-width:0.3;"/>
  <path d="M20.228-10.086c-0.009,0.118,0.004,0.237,0.045,0.353" style="fill:none;stroke:#000000;stroke-width:0.3;"/>
  <path d="M14.741-7.72c-1.344,0.053-2.705-0.024-4.078-0.141" style="fill:none;stroke:#000000;stroke-width:0.3;"/>
  <path d="M5.519-10.51c-0.043,0.192-0.04,0.399,0.021,0.613    c0.017,0.071,0.038,0.138,0.062,0.204" style="fill:none;stroke:#000000;stroke-width:0.3;"/>
  <path d="M20.273-9.733c0.021-0.123,0.01-0.243-0.045-0.353" style="fill:none;stroke:#000000;stroke-width:0.3;"/>
  <path d="M16.062-11.999c0.684,0.007,1.34,0.061,1.955,0.248" style="fill:none;stroke:#000000;stroke-width:0.3;"/>
  <path d="M16.683-7.899c-0.643,0.097-1.29,0.153-1.942,0.179" style="fill:none;stroke:#000000;stroke-width:0.3;"/>
  <path d="M16.062-11.999c-0.79-0.008-1.617,0.044-2.465,0.024    c-0.441,0.088-2.092,0.088-2.209,0.088c-0.167-0.01-0.326-0.019-0.478-0.027" style="fill:none;stroke:#000000;stroke-width:0.3;"/>
  <path d="M20.228-10.086c-0.014-0.026-0.027-0.052-0.046-0.077    c-0.637-0.88-1.367-1.347-2.165-1.589" style="fill:none;stroke:#000000;stroke-width:0.3;"/>
  <path d="M20.273-9.733c-0.091,0.526-0.769,1.112-1.181,1.249    c-0.794,0.274-1.598,0.462-2.409,0.585" style="fill:none;stroke:#000000;stroke-width:0.3;"/>
  <path d="M5.519-10.51c0.123-0.55,0.616-0.98,1.185-1.111    c0.136-0.037,0.253-0.073,0.364-0.107" style="fill:none;stroke:#000000;stroke-width:0.3;"/>
  <path d="M9.292-7.987C9.003-8.015,8.715-8.043,8.427-8.071    C7.259-8.237,5.99-8.614,5.601-9.694" style="fill:none;stroke:#000000;stroke-width:0.3;"/>
  <path d="M10.91-11.913c-2.761-0.147-3.173-0.02-3.842,0.185" style="fill:none;stroke:#000000;stroke-width:0.3;"/>
  <path d="M9.292-7.987c0.458,0.045,0.915,0.087,1.371,0.127" style="fill:none;stroke:#000000;stroke-width:0.3;"/>
  <path d="M41.728-5.709c0.104,0.623,0.9,1.184,1.642,1.469    c0.091,0.027,0.183,0.052,0.274,0.076" style="fill:none;stroke:#000000;stroke-width:0.3;"/>
  <path d="M41.722-6.257c0.226-2.167,3.548-1.751,5.478-1.696l-0.059,0.059    c0.648-0.097,1.461-0.115,2.302-0.064" style="fill:none;stroke:#000000;stroke-width:0.3;"/>
  <path d="M49.443-7.958c0.579,0.035,1.171,0.103,1.731,0.199" style="fill:none;stroke:#000000;stroke-width:0.3;"/>
  <path d="M43.643-4.165c0.742,0.194,1.479,0.272,2.218,0.29" style="fill:none;stroke:#000000;stroke-width:0.3;"/>
  <path d="M50.301-4.007c0.047,0.001,0.093,0.002,0.14,0.003    c0.315-0.025,0.607-0.073,0.891-0.137" style="fill:none;stroke:#000000;stroke-width:0.3;"/>
  <path d="M45.861-3.875c1.464,0.038,2.93-0.156,4.44-0.133" style="fill:none;stroke:#000000;stroke-width:0.3;"/>
  <path d="M41.722-6.257c-0.016,0.149-0.018,0.311-0.002,0.485    c0.002,0.021,0.005,0.042,0.008,0.063" style="fill:none;stroke:#000000;stroke-width:0.3;"/>
  <path d="M51.332-4.142c0.404-0.09,0.797-0.21,1.23-0.334    c1.031-0.295,1.709-0.978,1.605-1.842c-0.078-0.662-1.41-1.168-2.993-1.441" style="fill:none;stroke:#000000;stroke-width:0.3;"/>
  <path d="M41.722-6.257c-0.016-0.055-0.036-0.109-0.062-0.164    c-0.396-0.738-1.122-1.365-2.017-1.517" style="fill:none;stroke:#000000;stroke-width:0.3;"/>
  <path d="M41.728-5.709c0.043-0.178,0.046-0.363-0.006-0.548" style="fill:none;stroke:#000000;stroke-width:0.3;"/>
  <path d="M39.644-7.938c-0.034-0.006-0.069-0.011-0.104-0.016    c-1.531-0.191-2.071-0.091-3.23,0.016" style="fill:none;stroke:#000000;stroke-width:0.3;"/>
  <path d="M31.051-4.093c0.994,0.074,1.978,0.166,2.951,0.227" style="fill:none;stroke:#000000;stroke-width:0.3;"/>
  <path d="M37.632-3.872c-1.198,0.111-2.406,0.082-3.63,0.006" style="fill:none;stroke:#000000;stroke-width:0.3;"/>
  <path d="M26.843-6.302c-0.033,0.13-0.028,0.268,0.027,0.412    c0.015,0.033,0.03,0.066,0.047,0.099" style="fill:none;stroke:#000000;stroke-width:0.3;"/>
  <path d="M41.728-5.709c-0.15,0.625-0.804,1.163-1.363,1.292    c-0.251,0.081-0.502,0.152-0.754,0.214" style="fill:none;stroke:#000000;stroke-width:0.3;"/>
  <path d="M31.051-4.093c-0.468-0.035-0.938-0.066-1.411-0.088    c-1.142-0.114-2.228-0.616-2.723-1.61" style="fill:none;stroke:#000000;stroke-width:0.3;"/>
  <path d="M37.632-3.872c0.663-0.062,1.322-0.167,1.979-0.331" style="fill:none;stroke:#000000;stroke-width:0.3;"/>
  <path d="M26.843-6.302c0.142-0.565,0.989-1.006,1.516-1.341    c1.293-0.8,7.026-0.221,7.026-0.221c0.354-0.022,0.656-0.047,0.924-0.072" style="fill:none;stroke:#000000;stroke-width:0.3;"/>
  <path d="M16.683-7.899c-0.672-0.034-1.328-0.027-1.942,0.179" style="fill:none;stroke:#000000;stroke-width:0.3;"/>
  <path d="M26.843-6.302c0.009,0.019,0.018,0.038,0.027,0.058    c0.059,0.152,0.07,0.303,0.047,0.452" style="fill:none;stroke:#000000;stroke-width:0.3;"/>
  <path d="M13.141-5.714c0.468,0.978,1.496,1.427,2.608,1.601" style="fill:none;stroke:#000000;stroke-width:0.3;"/>
  <path d="M15.75-4.113c0.429,0.067,0.869,0.093,1.295,0.093    c0.046-0.002,0.091-0.002,0.136-0.003" style="fill:none;stroke:#000000;stroke-width:0.3;"/>
  <path d="M17.18-4.023c1.996-0.043,3.549,0.22,5.565,0.047    c0.943-0.118,2.062,0.03,2.828-0.383c0.567-0.284,1.248-0.832,1.344-1.434" style="fill:none;stroke:#000000;stroke-width:0.3;"/>
  <path d="M13.121-6.337c-0.075,0.208-0.081,0.421,0.021,0.624" style="fill:none;stroke:#000000;stroke-width:0.3;"/>
  <path d="M23.041-8.307c1.453,0.174,3.135,0.579,3.803,2.004" style="fill:none;stroke:#000000;stroke-width:0.3;"/>
  <path d="M23.041-8.307c-1.179,0.118-2.367,0.072-3.536,0.353    c-0.928,0.224-1.89,0.101-2.821,0.054" style="fill:none;stroke:#000000;stroke-width:0.3;"/>
  <path d="M13.121-6.337c0.189-0.518,0.812-1.01,1.316-1.262    c0.1-0.046,0.201-0.086,0.304-0.12" style="fill:none;stroke:#000000;stroke-width:0.3;"/>
  <path d="M9.292-7.987c0.452,0.01,0.904,0.045,1.371,0.127" style="fill:none;stroke:#000000;stroke-width:0.3;"/>
  <path d="M13.121-6.337c-0.228-0.806-1.231-1.296-2.042-1.439    c-0.14-0.032-0.278-0.06-0.416-0.084" style="fill:none;stroke:#000000;stroke-width:0.3;"/>
  <path d="M3.678-8.081c-0.674-0.036-1.295,0.02-1.947,0.353" style="fill:none;stroke:#000000;stroke-width:0.3;"/>
  <path d="M13.141-5.714c-0.235,0.587-0.64,1.115-1.231,1.237" style="fill:none;stroke:#000000;stroke-width:0.3;"/>
  <path d="M9.292-7.987C8.422-8.005,7.556-7.928,6.6-7.894    C5.438-7.853,4.517-8.037,3.678-8.081" style="fill:none;stroke:#000000;stroke-width:0.3;"/>
  <path d="M2.659-4.204c0.851,0.165,1.708,0.237,2.569,0.254" style="fill:none;stroke:#000000;stroke-width:0.3;"/>
  <path d="M9.719-4.172C8.21-4.059,6.71-3.923,5.228-3.951" style="fill:none;stroke:#000000;stroke-width:0.3;"/>
  <path d="M9.719-4.172C9.76-4.175,9.8-4.179,9.841-4.182    c0.795-0.059,1.104-0.103,2.062-0.294c0.002-0.001,0.004-0.001,0.006-0.001" style="fill:none;stroke:#000000;stroke-width:0.3;"/>
  <path d="M1.731-7.728C1.724-7.725,1.716-7.721,1.709-7.717    C1.002-7.246,0.001-6.715,0.236-5.772c0.177,0.648,0.648,1.119,1.12,1.237c0.433,0.138,0.867,0.247,1.303,0.331" style="fill:none;stroke:#000000;stroke-width:0.3;"/>
  <path d="M13.141-5.714c0.045-0.225,0.034-0.433-0.021-0.624" style="fill:none;stroke:#000000;stroke-width:0.3;"/>
  <path d="M53.091-0.23c-0.292-0.005-0.587-0.007-0.883-0.004    c-1.412,0.017-3.015-0.343-3.907-1.536" style="fill:none;stroke:#000000;stroke-width:0.3;"/>
  <path d="M48.348-2.215c-0.035,0.123-0.064,0.252-0.088,0.39    c0.014,0.019,0.027,0.037,0.041,0.055" style="fill:none;stroke:#000000;stroke-width:0.3;"/>
  <path d="M51.332-4.142c0.976-0.048,2.033,0.069,2.944,0.08" style="fill:none;stroke:#000000;stroke-width:0.3;"/>
  <path d="M50.301-4.007c-0.911,0.214-1.646,0.711-1.953,1.793" style="fill:none;stroke:#000000;stroke-width:0.3;"/>
  <path d="M50.301-4.007c0.325-0.076,0.672-0.116,1.03-0.134" style="fill:none;stroke:#000000;stroke-width:0.3;"/>
  <path d="M43.643-4.165c-0.556-0.015-1.129-0.002-1.717,0.012l-0.84-0.132    c-0.538,0.03-1.018,0.048-1.476,0.081" style="fill:none;stroke:#000000;stroke-width:0.3;"/>
  <path d="M45.861-3.875c-0.698-0.196-1.44-0.27-2.218-0.29" style="fill:none;stroke:#000000;stroke-width:0.3;"/>
  <path d="M39.611-4.203c-0.666,0.049-1.287,0.131-1.979,0.331" style="fill:none;stroke:#000000;stroke-width:0.3;"/>
  <path d="M35.573-2.427c-0.04,0.167-0.037,0.347,0.019,0.543" style="fill:none;stroke:#000000;stroke-width:0.3;"/>
  <path d="M48.301-1.77c0.062-0.151,0.083-0.304,0.047-0.445" style="fill:none;stroke:#000000;stroke-width:0.3;"/>
  <path d="M37.632-3.872c-0.238,0.068-0.484,0.15-0.744,0.25    c-0.629,0.27-1.189,0.66-1.315,1.195" style="fill:none;stroke:#000000;stroke-width:0.3;"/>
  <path d="M48.301-1.77c-0.207,0.503-0.874,0.998-1.396,1.065    C43.12-0.219,40.291-0.13,36.652-0.823c-0.477-0.091-0.942-0.589-1.061-1.061" style="fill:none;stroke:#000000;stroke-width:0.3;"/>
  <path d="M45.861-3.875c0.854,0.241,1.641,0.665,2.341,1.402    c0.075,0.08,0.123,0.167,0.146,0.258" style="fill:none;stroke:#000000;stroke-width:0.3;"/>
  <path d="M31.041-0.23c-0.117-0.011-0.23-0.023-0.34-0.033    c-1.171-0.15-2.343-0.032-3.498,0.033" style="fill:none;stroke:#000000;stroke-width:0.3;"/>
  <path d="M22.215-2.414c0.649-2.651,3.804-1.141,5.922-1.296    c0.954-0.07,1.925-0.278,2.914-0.383" style="fill:none;stroke:#000000;stroke-width:0.3;"/>
  <path d="M22.186-2.23c-0.059,0.858,0.968,1.54,1.738,1.76    c0.428,0.127,0.86,0.201,1.296,0.239" style="fill:none;stroke:#000000;stroke-width:0.3;"/>
  <path d="M22.186-2.23c0.005-0.061,0.014-0.122,0.029-0.184" style="fill:none;stroke:#000000;stroke-width:0.3;"/>
  <path d="M35.591-1.884c0.033-0.19,0.024-0.372-0.019-0.543" style="fill:none;stroke:#000000;stroke-width:0.3;"/>
  <path d="M34.002-3.867c0.727,0.269,1.403,0.779,1.57,1.44" style="fill:none;stroke:#000000;stroke-width:0.3;"/>
  <path d="M35.591-1.884c-0.235,0.707-0.31,0.899-0.957,1.312    c-0.309,0.171-0.67,0.278-1.057,0.342" style="fill:none;stroke:#000000;stroke-width:0.3;"/>
  <path d="M33.578-0.23c-0.821,0.136-1.757,0.073-2.537,0" style="fill:none;stroke:#000000;stroke-width:0.3;"/>
  <path d="M25.22-0.23c0.654,0.058,1.315,0.038,1.982,0" style="fill:none;stroke:#000000;stroke-width:0.3;"/>
  <path d="M31.051-4.093c0.889-0.094,1.793-0.103,2.714,0.147    c0.079,0.023,0.158,0.05,0.237,0.079" style="fill:none;stroke:#000000;stroke-width:0.3;"/>
  <path d="M22.186-2.23c0.012-0.06,0.022-0.121,0.029-0.184" style="fill:none;stroke:#000000;stroke-width:0.3;"/>
  <path d="M22.186-2.23c-0.266,1.383-1.615,1.79-2.976,1.79    c-3.624,0-6.541,0.177-10.017-0.148C8.428-0.659,7.779-1.294,7.484-1.942C7.072-2.826,8.132-3.769,8.898-3.946    c0.274-0.085,0.547-0.161,0.821-0.226" style="fill:none;stroke:#000000;stroke-width:0.3;"/>
  <path d="M9.719-4.172c0.721-0.174,1.446-0.279,2.191-0.305" style="fill:none;stroke:#000000;stroke-width:0.3;"/>
  <path d="M17.18-4.023c2.458,0.137,4.974,0.276,5.035,1.609" style="fill:none;stroke:#000000;stroke-width:0.3;"/>
  <path d="M15.75-4.113c-0.559-0.043-1.086-0.101-1.548-0.187    c-0.791-0.148-1.551-0.203-2.292-0.177" style="fill:none;stroke:#000000;stroke-width:0.3;"/>
  <path d="M15.75-4.113c0.462,0.036,0.945,0.063,1.431,0.09" style="fill:none;stroke:#000000;stroke-width:0.3;"/>
  <path d="M0.15-50.391c0.286-0.059,0.569-0.132,0.846-0.225    c0.648-0.294,1.769-1.178,1.355-2.062c-0.295-0.766-1.002-1.238-1.826-1.355c-0.126-0.015-0.251-0.03-0.375-0.045" style="fill:none;stroke:#000000;stroke-width:0.3;"/>
  <path d="M0.15-46.159c0.752-0.006,1.549-0.068,2.345-0.162" style="fill:none;stroke:#000000;stroke-width:0.3;"/>
  <path d="M4.509-46.617c0.769-0.132,1.5-0.275,2.143-0.403    c0.52-0.104,1.414-0.884,1.414-1.415c-0.177-0.884-1.326-1.502-2.387-1.679c-1.237,0-2.383-0.354-3.712-0.354    c-0.757,0-1.296,0.07-1.818,0.152" style="fill:none;stroke:#000000;stroke-width:0.3;"/>
  <path d="M4.509-46.617c-0.652,0.112-1.333,0.215-2.015,0.296" style="fill:none;stroke:#000000;stroke-width:0.3;"/>
  <path d="M0.15-43.615c0.281-0.274,0.481-0.649,0.492-1.107    c0.01-0.431-0.172-0.757-0.492-1.004" style="fill:none;stroke:#000000;stroke-width:0.3;"/>
  <path d="M0.15-42.627c0.664,0.065,1.387,0.044,2.096,0.06" style="fill:none;stroke:#000000;stroke-width:0.3;"/>
  <path d="M2.969-42.535c-0.237-0.019-0.479-0.028-0.724-0.033" style="fill:none;stroke:#000000;stroke-width:0.3;"/>
  <path d="M2.011-38.714c-0.616,0.062-1.237,0.09-1.861,0.096" style="fill:none;stroke:#000000;stroke-width:0.3;"/>
  <path d="M0.15-42.616c0.086,0.004,0.171,0.009,0.257,0.015" style="fill:none;stroke:#000000;stroke-width:0.3;"/>
  <path d="M5.6-39.895c-0.25,0.297-0.606,0.538-0.892,0.652    c-0.49,0.151-0.983,0.268-1.479,0.359" style="fill:none;stroke:#000000;stroke-width:0.3;"/>
  <path d="M5.6-39.895c0.264-0.314,0.409-0.693,0.227-1.057    c-0.038-0.074-0.078-0.145-0.12-0.212" style="fill:none;stroke:#000000;stroke-width:0.3;"/>
  <path d="M5.707-41.164c-0.616-0.996-1.629-1.284-2.738-1.371" style="fill:none;stroke:#000000;stroke-width:0.3;"/>
  <path d="M2.011-38.714c0.408-0.041,0.814-0.096,1.218-0.17" style="fill:none;stroke:#000000;stroke-width:0.3;"/>
  <path d="M2.821-30.872c-0.898,0.036-1.78,0.07-2.671,0.062" style="fill:none;stroke:#000000;stroke-width:0.3;"/>
  <path d="M5.702-31.231c0.907-0.431,1.621-1.259,1.363-2.119    c-0.166-0.663-0.799-1.21-1.55-1.455" style="fill:none;stroke:#000000;stroke-width:0.3;"/>
  <path d="M5.702-31.231c-0.338,0.16-0.701,0.266-1.053,0.297    c-0.619,0.013-1.227,0.038-1.828,0.062" style="fill:none;stroke:#000000;stroke-width:0.3;"/>
  <path d="M2.931-34.889c-0.937,0.003-1.847-0.032-2.781-0.046" style="fill:none;stroke:#000000;stroke-width:0.3;"/>
  <path d="M5.515-34.805c-0.315-0.103-0.652-0.153-0.983-0.136    c-0.548,0.037-1.078,0.05-1.601,0.052" style="fill:none;stroke:#000000;stroke-width:0.3;"/>
  <path d="M1.115-29.394c0-0.002,0-0.005-0.001-0.008    c-0.091-0.361-0.49-0.687-0.964-0.952" style="fill:none;stroke:#000000;stroke-width:0.3;"/>
  <path d="M1.015-28.493c-0.168,0.357-0.484,0.64-0.865,0.851" style="fill:none;stroke:#000000;stroke-width:0.3;"/>
  <path d="M1.115-29.394c0.067,0.341,0.024,0.641-0.1,0.901" style="fill:none;stroke:#000000;stroke-width:0.3;"/>
  <path d="M5.8-24.838c0.163-0.288,0.218-0.59,0.087-0.851    c-0.014-0.025-0.027-0.049-0.042-0.074" style="fill:none;stroke:#000000;stroke-width:0.3;"/>
  <path d="M5.845-25.763c-1.077-1.874-3.547-1.533-5.695-1.531" style="fill:none;stroke:#000000;stroke-width:0.3;"/>
  <path d="M5.8-24.838c-0.276,0.492-0.866,0.945-1.387,1.093    c-1.443,0.313-2.853,0.427-4.264,0.447" style="fill:none;stroke:#000000;stroke-width:0.3;"/>
  <path d="M2.556-15.502c0.765-0.059,1.522-0.162,2.274-0.333" style="fill:none;stroke:#000000;stroke-width:0.3;"/>
  <path d="M5.12-19.27c-0.601-0.23-1.294-0.312-1.998-0.347" style="fill:none;stroke:#000000;stroke-width:0.3;"/>
  <path d="M2.556-15.502c-0.795,0.062-1.596,0.075-2.406,0.069" style="fill:none;stroke:#000000;stroke-width:0.3;"/>
  <path d="M4.831-15.835c0.176-0.04,0.352-0.083,0.526-0.131    c0.766-0.177,1.708-1.12,1.296-1.886c-0.327-0.736-0.874-1.165-1.533-1.417" style="fill:none;stroke:#000000;stroke-width:0.3;"/>
  <path d="M3.122-19.616c-0.749-0.037-1.511-0.018-2.185-0.063    c-0.263-0.017-0.525-0.035-0.787-0.05" style="fill:none;stroke:#000000;stroke-width:0.3;"/>
  <path d="M0.15-12.537c0.421-0.358,0.707-0.955,0.492-1.427    c-0.144-0.295-0.309-0.538-0.492-0.738" style="fill:none;stroke:#000000;stroke-width:0.3;"/>
  <path d="M1.731-7.728c0.656-0.07,1.306-0.183,1.947-0.353" style="fill:none;stroke:#000000;stroke-width:0.3;"/>
  <path d="M5.601-9.694C5.409-9.059,4.72-8.436,4.06-8.188    C3.933-8.15,3.806-8.115,3.678-8.081" style="fill:none;stroke:#000000;stroke-width:0.3;"/>
  <path d="M4.124-11.7c-0.512-0.181-1.092-0.226-1.703-0.21" style="fill:none;stroke:#000000;stroke-width:0.3;"/>
  <path d="M5.519-10.51c-0.352-0.628-0.833-0.991-1.395-1.19" style="fill:none;stroke:#000000;stroke-width:0.3;"/>
  <path d="M0.15-7.636c0.531-0.008,1.058-0.037,1.581-0.092" style="fill:none;stroke:#000000;stroke-width:0.3;"/>
  <path d="M5.519-10.51c0.005,0.008,0.009,0.016,0.014,0.023    c0.142,0.248,0.15,0.522,0.068,0.793" style="fill:none;stroke:#000000;stroke-width:0.3;"/>
  <path d="M2.421-11.91c-0.732,0.019-1.511,0.123-2.272,0.181" style="fill:none;stroke:#000000;stroke-width:0.3;"/>
  <path d="M0.15-4.062c0.128,0.002,0.253,0.002,0.375-0.001    c0.669-0.017,1.403-0.1,2.134-0.14" style="fill:none;stroke:#000000;stroke-width:0.3;"/>
  <path d="M2.659-4.204c0.906-0.05,1.807-0.034,2.569,0.254" style="fill:none;stroke:#000000;stroke-width:0.3;"/>
  <path d="M0.179-0.283c2.469,0.016,4.045-0.184,4.927-0.555    c0.767-0.412,1.959-1.046,1.547-1.93C6.291-3.371,5.797-3.736,5.228-3.951" style="fill:none;stroke:#000000;stroke-width:0.3;"/>
  <path d="M0.15-1.256c1.01,0.055,2.03-0.625,2.52-1.969    C1.579-2.68,0.879-2.429,0.15-2.436" style="fill:none;stroke:#000000;stroke-width:0.3;"/>
  <path d="M26.756-2.605c1.125,2.475,3.825,2.25,4.726-0.225    C29.456-1.817,28.782-1.817,26.756-2.605z" style="fill:none;stroke:#000000;stroke-width:0.3;"/>
  <path d="M17.528-6.646c1.125,2.475,3.824,2.25,4.725-0.225    C20.227-5.859,19.552-5.859,17.528-6.646z" style="fill:none;stroke:#000000;stroke-width:0.3;"/>
  <path d="M45.069-6.396c1.125,2.475,3.825,2.25,4.726-0.225    C47.769-5.609,47.094-5.609,45.069-6.396z" style="fill:none;stroke:#000000;stroke-width:0.3;"/>
  <path d="M24.465-10.834c1.125,2.475,3.824,2.25,4.725-0.225    C27.164-10.046,26.49-10.046,24.465-10.834z" style="fill:none;stroke:#000000;stroke-width:0.3;"/>
  <path d="M0.15-8.698c0.81-0.176,1.56-0.83,1.957-1.924    C1.295-10.216,0.702-9.973,0.15-9.878" style="fill:none;stroke:#000000;stroke-width:0.3;"/>
  <path d="M4.944-14.334c1.125,2.475,3.825,2.25,4.726-0.225    C7.644-13.546,6.969-13.546,4.944-14.334z" style="fill:none;stroke:#000000;stroke-width:0.3;"/>
  <path d="M32.778-14.25c1.125,2.475,3.824,2.249,4.725-0.225    C35.477-13.463,34.802-13.463,32.778-14.25z" style="fill:none;stroke:#000000;stroke-width:0.3;"/>
  <path d="M31.169-18.455c-2.025,1.013-2.7,1.013-4.726,0.225    C27.569-15.755,30.269-15.98,31.169-18.455z" style="fill:none;stroke:#000000;stroke-width:0.3;"/>
  <path d="M0.15-16.43c1.037,0.099,2.1-0.582,2.602-1.963    C1.62-17.827,0.91-17.577,0.15-17.604" style="fill:none;stroke:#000000;stroke-width:0.3;"/>
  <path d="M22.19-22.059c-2.025,1.012-2.7,1.012-4.725,0.225    C18.59-19.359,21.289-19.584,22.19-22.059z" style="fill:none;stroke:#000000;stroke-width:0.3;"/>
  <path d="M50.002-22.038c-2.025,1.012-2.7,1.012-4.725,0.225    C46.403-19.338,49.102-19.563,50.002-22.038z" style="fill:none;stroke:#000000;stroke-width:0.3;"/>
  <path d="M29.357-26.163c-2.025,1.012-2.7,1.012-4.726,0.225    C25.756-23.463,28.456-23.688,29.357-26.163z" style="fill:none;stroke:#000000;stroke-width:0.3;"/>
  <path d="M0.15-24.306c0.769-0.208,1.472-0.852,1.852-1.899    c-0.76,0.38-1.33,0.618-1.852,0.724" style="fill:none;stroke:#000000;stroke-width:0.3;"/>
  <path d="M4.986-29.771c1.125,2.475,3.825,2.25,4.725-0.225    C7.686-28.984,7.01-28.984,4.986-29.771z" style="fill:none;stroke:#000000;stroke-width:0.3;"/>
  <path d="M32.403-29.855c1.125,2.475,3.824,2.25,4.725-0.225    C35.102-29.067,34.427-29.067,32.403-29.855z" style="fill:none;stroke:#000000;stroke-width:0.3;"/>
  <path d="M26.465-33.813c1.125,2.475,3.824,2.25,4.725-0.225    C29.164-33.026,28.49-33.026,26.465-33.813z" style="fill:none;stroke:#000000;stroke-width:0.3;"/>
  <path d="M0.15-32.956c0.985,0.182,1.739-0.037,3.123-0.728    c-0.587,1.615-1.94,2.271-3.123,1.846" style="fill:none;stroke:#000000;stroke-width:0.3;"/>
  <path d="M3.756-37.646c1.125,2.475,3.825,2.25,4.726-0.225    C6.457-36.859,5.782-36.859,3.756-37.646z" style="fill:none;stroke:#000000;stroke-width:0.3;"/>
  <path d="M36.794-37.85c-2.025,1.012-2.7,1.012-4.726,0.225    C33.194-35.151,35.894-35.376,36.794-37.85z" style="fill:none;stroke:#000000;stroke-width:0.3;"/>
  <path d="M29.107-41.643c-2.025,1.013-2.7,1.013-4.726,0.225    C25.506-38.942,28.206-39.167,29.107-41.643z" style="fill:none;stroke:#000000;stroke-width:0.3;"/>
  <path d="M0.15-39.536c0.802-0.183,1.541-0.835,1.936-1.919    c-0.801,0.4-1.39,0.642-1.936,0.74" style="fill:none;stroke:#000000;stroke-width:0.3;"/>
  <path d="M9.502-45.434c-2.025,1.012-2.7,1.012-4.725,0.225    C5.903-42.734,8.602-42.959,9.502-45.434z" style="fill:none;stroke:#000000;stroke-width:0.3;"/>
  <path d="M37.21-45.35c-2.024,1.012-2.7,1.012-4.725,0.225    C33.611-42.651,36.311-42.876,37.21-45.35z" style="fill:none;stroke:#000000;stroke-width:0.3;"/>
  <path d="M0.15-47.365c1.25,0.694,2.813,0.076,3.457-1.694    c-1.536,0.767-2.296,0.953-3.457,0.654" style="fill:none;stroke:#000000;stroke-width:0.3;"/>
  <path d="M31.607-49.1c-2.025,1.012-2.7,1.012-4.726,0.225    C28.006-46.401,30.706-46.626,31.607-49.1z" style="fill:none;stroke:#000000;stroke-width:0.3;"/>
  <path d="M24.482-53.018c-2.025,1.013-2.7,1.013-4.726,0.225    C20.881-50.317,23.581-50.542,24.482-53.018z" style="fill:none;stroke:#000000;stroke-width:0.3;"/>
  <path d="M52.69-53.309c-2.025,1.012-2.7,1.012-4.725,0.225    C49.089-50.609,51.79-50.834,52.69-53.309z" style="fill:none;stroke:#000000;stroke-width:0.3;"/>
  <path d="M39.381-1.563c2.025-0.788,2.7-0.788,4.726,0.225    C43.207-3.813,40.506-4.038,39.381-1.563z" style="fill:none;stroke:#000000;stroke-width:0.3;"/>
  <path d="M12.423-1.459c2.025-0.788,2.7-0.788,4.725,0.225    C16.249-3.709,13.548-3.934,12.423-1.459z" style="fill:none;stroke:#000000;stroke-width:0.3;"/>
  <path d="M4.465-5.021C6.49-5.809,7.165-5.809,9.19-4.796    C8.29-7.271,5.59-7.497,4.465-5.021z" style="fill:none;stroke:#000000;stroke-width:0.3;"/>
  <path d="M32.506-4.959c2.025-0.788,2.7-0.788,4.726,0.225    C36.332-7.209,33.631-7.434,32.506-4.959z" style="fill:none;stroke:#000000;stroke-width:0.3;"/>
  <path d="M10.881-8.98c2.025-0.788,2.7-0.788,4.726,0.225    C14.707-11.23,12.006-11.455,10.881-8.98z" style="fill:none;stroke:#000000;stroke-width:0.3;"/>
  <path d="M38.256-8.98c2.025-0.788,2.7-0.788,4.726,0.225    C42.082-11.23,39.381-11.455,38.256-8.98z" style="fill:none;stroke:#000000;stroke-width:0.3;"/>
  <path d="M51.357-12.588c-0.9-2.475-3.601-2.7-4.726-0.225    C48.657-13.601,49.332-13.601,51.357-12.588z" style="fill:none;stroke:#000000;stroke-width:0.3;"/>
  <path d="M39.84-16.625c2.024-0.788,2.699-0.788,4.725,0.225    C43.665-18.875,40.965-19.101,39.84-16.625z" style="fill:none;stroke:#000000;stroke-width:0.3;"/>
  <path d="M18.381-12.959c2.025-0.788,2.7-0.788,4.726,0.225    C22.206-15.209,19.506-15.434,18.381-12.959z" style="fill:none;stroke:#000000;stroke-width:0.3;"/>
  <path d="M12.756-16.646c2.025-0.788,2.7-0.788,4.726,0.225    C16.581-18.896,13.881-19.122,12.756-16.646z" style="fill:none;stroke:#000000;stroke-width:0.3;"/>
  <path d="M4.798-20.48c2.025-0.788,2.7-0.788,4.725,0.225    C8.623-22.73,5.923-22.955,4.798-20.48z" style="fill:none;stroke:#000000;stroke-width:0.3;"/>
  <path d="M31.84-20.5c2.024-0.788,2.699-0.788,4.725,0.225    C35.665-22.75,32.965-22.976,31.84-20.5z" style="fill:none;stroke:#000000;stroke-width:0.3;"/>
  <path d="M43.273-24.338c-0.899-2.475-3.6-2.7-4.725-0.225    C40.573-25.351,41.249-25.351,43.273-24.338z" style="fill:none;stroke:#000000;stroke-width:0.3;"/>
  <path d="M10.528-24.396c2.024-0.788,2.699-0.788,4.725,0.225    C14.352-26.646,11.653-26.872,10.528-24.396z" style="fill:none;stroke:#000000;stroke-width:0.3;"/>
  <path d="M50.96-28.171c-0.899-2.475-3.6-2.7-4.725-0.225    C48.26-29.184,48.936-29.184,50.96-28.171z" style="fill:none;stroke:#000000;stroke-width:0.3;"/>
  <path d="M18.778-28.125c2.024-0.788,2.699-0.788,4.725,0.225    C22.602-30.375,19.903-30.601,18.778-28.125z" style="fill:none;stroke:#000000;stroke-width:0.3;"/>
  <path d="M12.653-32.042c2.024-0.788,2.699-0.788,4.725,0.225    C16.477-34.292,13.778-34.518,12.653-32.042z" style="fill:none;stroke:#000000;stroke-width:0.3;"/>
  <path d="M21.919-35.88c-0.9-2.475-3.601-2.7-4.726-0.225    C19.219-36.893,19.894-36.893,21.919-35.88z" style="fill:none;stroke:#000000;stroke-width:0.3;"/>
  <path d="M50.127-35.755c-0.9-2.475-3.6-2.7-4.725-0.225    C47.427-36.768,48.102-36.768,50.127-35.755z" style="fill:none;stroke:#000000;stroke-width:0.3;"/>
  <path d="M38.278-39.959c2.024-0.788,2.699-0.788,4.725,0.225    C42.102-42.209,39.403-42.434,38.278-39.959z" style="fill:none;stroke:#000000;stroke-width:0.3;"/>
  <path d="M10.486-40.146c2.024-0.788,2.7-0.788,4.725,0.225    C14.311-42.396,11.611-42.621,10.486-40.146z" style="fill:none;stroke:#000000;stroke-width:0.3;"/>
  <path d="M18.798-43.626c2.024-0.787,2.7-0.787,4.725,0.225    C22.624-45.876,19.923-46.1,18.798-43.626z" style="fill:none;stroke:#000000;stroke-width:0.3;"/>
  <path d="M50.46-43.463c-0.899-2.475-3.6-2.7-4.725-0.225    C47.76-44.475,48.436-44.475,50.46-43.463z" style="fill:none;stroke:#000000;stroke-width:0.3;"/>
  <path d="M45.835-47.442c-0.899-2.475-3.6-2.7-4.725-0.225    C43.135-48.455,43.811-48.455,45.835-47.442z" style="fill:none;stroke:#000000;stroke-width:0.3;"/>
  <path d="M34.486-51.521c2.024-0.788,2.7-0.788,4.725,0.225    C38.311-53.771,35.611-53.996,34.486-51.521z" style="fill:none;stroke:#000000;stroke-width:0.3;"/>
  <path d="M17.419-47.38c-0.9-2.475-3.601-2.7-4.726-0.225    C14.719-48.393,15.394-48.393,17.419-47.38z" style="fill:none;stroke:#000000;stroke-width:0.3;"/>
  <path d="M6.236-51.646c2.024-0.788,2.7-0.788,4.725,0.225    C10.061-53.896,7.361-54.121,6.236-51.646z" style="fill:none;stroke:#000000;stroke-width:0.3;"/>
  <path d="M39.694-32.292c2.025-0.788,2.7-0.788,4.726,0.225    C43.519-34.542,40.819-34.768,39.694-32.292z" style="fill:none;stroke:#000000;stroke-width:0.3;"/>
  <path d="M54.276-2.437C53.658-2.446,53.014-2.641,52.09-3    c0.51,1.122,1.343,1.688,2.186,1.743" style="fill:none;stroke:#000000;stroke-width:0.3;"/>
  <path d="M54.276-9.875c-0.817,0.136-1.544-0.054-2.748-0.522    c0.624,1.373,1.731,1.914,2.748,1.703" style="fill:none;stroke:#000000;stroke-width:0.3;"/>
  <path d="M54.276-17.605c-0.594-0.025-1.22-0.219-2.103-0.562    c0.493,1.085,1.289,1.651,2.103,1.736" style="fill:none;stroke:#000000;stroke-width:0.3;"/>
  <path d="M54.276-25.477c-0.861,0.17-1.598-0.015-2.853-0.503    c0.646,1.419,1.808,1.95,2.853,1.679" style="fill:none;stroke:#000000;stroke-width:0.3;"/>
  <path d="M54.276-32.959c-0.45-0.085-0.951-0.254-1.582-0.5    c0.387,0.851,0.96,1.383,1.582,1.614" style="fill:none;stroke:#000000;stroke-width:0.3;"/>
  <path d="M54.276-40.712c-0.826,0.143-1.555-0.046-2.77-0.518    c0.628,1.382,1.747,1.922,2.77,1.699" style="fill:none;stroke:#000000;stroke-width:0.3;"/>
  <path d="M54.276-48.41c-0.364-0.095-0.769-0.237-1.249-0.424    c0.316,0.696,0.758,1.179,1.249,1.458" style="fill:none;stroke:#000000;stroke-width:0.3;"/>
  <line x1="54.276" y1="-50.32" style="fill:none;stroke:#000000;stroke-width:0.3;" y2="-50.396" x2="54.276"/>
  <line x1="0.15" y1="-42.616" style="fill:none;stroke:#000000;stroke-width:0.3;" y2="-42.627" x2="0.15"/>
  <line x1="54.276" y1="-42.615" style="fill:none;stroke:#000000;stroke-width:0.3;" y2="-42.625" x2="54.276"/>
 </g>
</svg>
