<?xml version="1.0"?>
<!-- Converted with SVG Converter - Version 0.9.5 (Compiled Fri Feb 21 09:53:38 2020) - Copyright (C) 2011 Nokia -->
<svg xmlns="http://www.w3.org/2000/svg" width="54.125" baseProfile="tiny" xmlns:xlink="http://www.w3.org/1999/xlink" version="1.1" height="54.125" xml:space="preserve" viewBox="1 -55.125 54.125 54.125" x="0px" y="0px">
 <g>
  <rect width="54.125" style="fill:none;" height="54.125" x="1" y="-55.125"/>
  <path d="M22.161-26.354h2.97c0.413-0.99,2.062-1.011,2.392,0.021h2.929" style="fill:none;stroke:#000000;stroke-width:0.3;"/>
  <path d="M22.161-25.034h2.97c0.413,0.99,2.062,1.011,2.392-0.021h2.929" style="fill:none;stroke:#000000;stroke-width:0.3;"/>
  <path d="M29.406-17.918h2.97c0.412-0.99,2.062-1.011,2.392,0.021h2.929" style="fill:none;stroke:#000000;stroke-width:0.3;"/>
  <path d="M29.406-16.598h2.97c0.412,0.99,2.062,1.011,2.392-0.021h2.929" style="fill:none;stroke:#000000;stroke-width:0.3;"/>
  <path d="M2.763-4.845h2.97c0.412-0.99,2.062-1.011,2.392,0.021h2.929" style="fill:none;stroke:#000000;stroke-width:0.3;"/>
  <path d="M2.763-3.525h2.97c0.412,0.99,2.062,1.011,2.392-0.021h2.929" style="fill:none;stroke:#000000;stroke-width:0.3;"/>
  <path d="M18.429-46.178h2.97c0.413-0.99,2.062-1.011,2.392,0.021h2.929" style="fill:none;stroke:#000000;stroke-width:0.3;"/>
  <path d="M18.429-44.858h2.97c0.413,0.99,2.062,1.011,2.392-0.021h2.929" style="fill:none;stroke:#000000;stroke-width:0.3;"/>
  <path d="M44.096-48.845h2.97c0.413-0.99,2.062-1.011,2.393,0.021h2.929" style="fill:none;stroke:#000000;stroke-width:0.3;"/>
  <path d="M44.096-47.525h2.97c0.413,0.99,2.062,1.011,2.393-0.021h2.929" style="fill:none;stroke:#000000;stroke-width:0.3;"/>
  <path d="M36.248-38.895h2.97c0.413-0.99,2.062-1.011,2.393,0.021h2.929" style="fill:none;stroke:#000000;stroke-width:0.3;"/>
  <path d="M36.248-37.575h2.97c0.413,0.99,2.062,1.011,2.393-0.021h2.929" style="fill:none;stroke:#000000;stroke-width:0.3;"/>
  <path d="M45.901-23.858h2.97c0.413-0.99,2.062-1.011,2.393,0.021h2.929" style="fill:none;stroke:#000000;stroke-width:0.3;"/>
  <path d="M45.901-22.538h2.97c0.413,0.99,2.062,1.011,2.393-0.021h2.929" style="fill:none;stroke:#000000;stroke-width:0.3;"/>
  <path d="M45.818-13.71h2.97c0.413-0.99,2.062-1.011,2.393,0.021h2.929" style="fill:none;stroke:#000000;stroke-width:0.3;"/>
  <path d="M45.818-12.39h2.97c0.413,0.99,2.062,1.011,2.393-0.021h2.929" style="fill:none;stroke:#000000;stroke-width:0.3;"/>
  <path d="M36-5.178h2.97c0.412-0.99,2.062-1.011,2.392,0.021h2.929" style="fill:none;stroke:#000000;stroke-width:0.3;"/>
  <path d="M36-3.858h2.97c0.412,0.99,2.062,1.011,2.392-0.021h2.929" style="fill:none;stroke:#000000;stroke-width:0.3;"/>
  <path d="M17.63-8.478h2.97c0.413-0.99,2.062-1.011,2.392,0.021h2.929" style="fill:none;stroke:#000000;stroke-width:0.3;"/>
  <path d="M17.63-7.158h2.97c0.413,0.99,2.062,1.011,2.392-0.021h2.929" style="fill:none;stroke:#000000;stroke-width:0.3;"/>
  <path d="M6.191-18.029h2.97c0.413-0.99,2.062-1.011,2.392,0.021h2.929" style="fill:none;stroke:#000000;stroke-width:0.3;"/>
  <path d="M6.191-16.709h2.97c0.413,0.99,2.062,1.011,2.392-0.021h2.929" style="fill:none;stroke:#000000;stroke-width:0.3;"/>
  <path d="M1.9-33.159h2.97c0.412-0.99,2.063-1.011,2.393,0.021h2.929" style="fill:none;stroke:#000000;stroke-width:0.3;"/>
  <path d="M1.9-31.839h2.97c0.412,0.99,2.063,1.011,2.393-0.021h2.929" style="fill:none;stroke:#000000;stroke-width:0.3;"/>
 </g>
</svg>
