<?xml version="1.0"?>
<!-- Converted with SVG Converter - Version 0.9.5 (Compiled Fri Feb 21 09:53:38 2020) - Copyright (C) 2011 Nokia -->
<svg xmlns="http://www.w3.org/2000/svg" baseProfile="tiny" xmlns:xlink="http://www.w3.org/1999/xlink" viewBox="0.107 -54.125 54.125 54.125" height="54.125" version="1.1" y="0px" width="54.125" x="0px" xml:space="preserve">
 <g>
  <rect height="54.125" y="-54.125" width="54.125" x="0.107" style="fill:none;"/>
  <rect height="54.125" y="-54.125" width="54.125" x="0.107"/>
  <path d="M3.379-37.892c-3.375,0.625-0.375,2.5,1.5,2.375s3.125,0,4.125,0.375s4.5,1.25,7,1.125    s3.5-0.125,7.5-0.25c6.75-0.875,0.366-2.999-2.125-2.75c-2.5,0.25-4.875-0.125-7.125-1.25S6.754-38.517,3.379-37.892z" style="fill:#FFFFFF;"/>
  <path d="M50.213-35.538c2.25-0.75,1.125-2-3.75-2c0,0-2.75-0.125-4.25-0.625s-4-0.125-7.375,0.625    s-1.5,1.75,0,1.875s2,0,6.125,0.75S47.963-34.788,50.213-35.538z" style="fill:#FFFFFF;"/>
  <path d="M20.629-26.433c2.125,0,4.5,0.375,9.5,1.5s12.5-1,15.125-2s1.75-1.25,0.75-1.875    s-1.75-0.625-5.625-0.25c0,0-3.125,0-5.375-0.375s-6.5,0.125-10.125,0.375s-2.625,0-6.625,0.875S18.504-26.433,20.629-26.433z" style="fill:#FFFFFF;"/>
  <path d="M50.838-14.913c4.25-0.875,0.5-2.25-4.25-2.25c0,0-1.625,0-3.25-0.375s-8-0.875-9.875-0.25    c-1.875,0.625-5.375,0.625-7.25,0.75s-0.875,1.5,0.625,1.5s4,0.625,6.5,0.25s3.75-0.125,6.125,0.875S46.588-14.038,50.838-14.913z    " style="fill:#FFFFFF;"/>
  <path d="M17.963-50.746c0,0-1.625,0-3.25-0.375c0,0-3.417,0.375-5.084,0.875    c-1.666,0.5-0.166,2.167,1.209,2.25c2.375,1,7.125,0.375,11.375-0.5S22.713-50.746,17.963-50.746z" style="fill:#FFFFFF;"/>
  <path d="M1.463-19.288c1.25,0.375,4.125,0.5,6.125,0.125s1.125,0.625,0.625,1s0,1.125,2,1    s2.5-0.125,4.125,0s1.75-0.375,1.25-1s1.125-0.75,2.5-0.375s2.125-0.125,3.625-1s-1.5-1.625-5.375-1.625    c0,0-2.125,0.125-4.375-0.25s-6.875,0-9.625,0.375S0.213-19.663,1.463-19.288z" style="fill:#FFFFFF;"/>
  <path d="M24.338-8.163c5.125,0.25,2.977,0.08,3.727,0.455s3.625,0.375,5.375-0.75s1.25-1.5-1.5-1.625    s-1.227-0.205-3.227-0.205s-3.5-0.25-3.5-0.25C19.588-10.163,19.213-8.413,24.338-8.163z" style="fill:#FFFFFF;"/>
  <path d="M32.088-44.288c0,0-1.5,0.25-3.5,0.25s-5.25,0.375-8,0.5s-3.25,0.5-1.5,1.625    s4.625,1.125,5.375,0.75s3.375-0.5,8.5-0.75S37.713-43.913,32.088-44.288z" style="fill:#FFFFFF;"/>
  <path d="M0.107-8.861c1.734,0.042,3.23-0.052,3.23-0.052c4.375,0.25,4.5-0.5,5.25-0.625s1.625-1-1.625-1    c-2.922,0-5.236,0-6.856,0V-8.861z" style="fill:#FFFFFF;"/>
  <path d="M5.338-3.663c1.875-0.125,5.5,0.5,8.75,0.875s2.375,0.125,4.25-0.375s-0.5-1.625-1.5-1.375    s-0.479,0.328-1.875,0.25c-2.25-0.125-7.75-1.375-10.125-1.125S3.463-3.538,5.338-3.663z" style="fill:#FFFFFF;"/>
  <path d="M41.338-1.663c4.375,0.375,6.125,0.25,8.25-0.75S48.524-7,43.774-6.125c0,0-3.375,0.125-5.5-0.25    s-2.812,2.837-4.187,3.462S36.963-2.038,41.338-1.663z" style="fill:#FFFFFF;"/>
  <path d="M0.107-27.113c1.45-0.137,3.347-0.25,5.606-0.424c3.25-0.25,2-0.75,0.375-1.125    s-3-0.875-5.75-0.875c0,0-0.073,0.012-0.231,0.037V-27.113z" style="fill:#FFFFFF;"/>
  <path d="M0.107-43.267c1.214-0.286,1.38-1.864,3.981-2.125c3.333-0.333,1.5-2.333-0.667-2.333    c-0.706,0-1.906-0.071-3.314-0.183V-43.267z" style="fill:#FFFFFF;"/>
  <path d="M54.232-10.538c-0.182,0-0.355,0-0.52,0c-1.625,0-5.25,0.875-2.75,1.375    c0.971,0.194,2.168,0.275,3.27,0.302V-10.538z" style="fill:#FFFFFF;"/>
  <path d="M54.232-29.501c-0.347,0.054-1.104,0.167-2.395,0.338c-1.875,0.25-0.75,2.5,0.75,2.25    c0.457-0.076,1.008-0.141,1.645-0.201V-29.501z" style="fill:#FFFFFF;"/>
  <path d="M54.232-47.908c-2.915-0.233-6.718-0.646-8.854-0.983c-3.166-0.5-6.5,0.167-7.833,0.833    c0,0-1.5-1-1.167,0.333c0.334,1.333,3.667,3.333,6,3c2.334-0.333,7.834,0.5,10.5,1.333c0.586,0.183,1.012,0.205,1.354,0.125    V-47.908z" style="fill:#FFFFFF;"/>
  <line x1="0.618" y1="-47.863" x2="0.107" style="fill:none;stroke:#000000;stroke-width:0.3;" y2="-47.34"/>
  <line x1="2.82" y1="-47.725" x2="0.107" style="fill:none;stroke:#000000;stroke-width:0.3;" y2="-44.945"/>
  <line x1="2.306" y1="-44.802" x2="4.867" style="fill:none;stroke:#000000;stroke-width:0.3;" y2="-47.427"/>
  <line x1="39.44" y1="-6.292" x2="35.407" style="fill:none;stroke:#000000;stroke-width:0.3;" y2="-2.16"/>
  <line x1="41.529" y1="-6.038" x2="37.659" style="fill:none;stroke:#000000;stroke-width:0.3;" y2="-2.072"/>
  <line x1="43.946" y1="-6.119" x2="39.748" style="fill:none;stroke:#000000;stroke-width:0.3;" y2="-1.816"/>
  <line x1="46.365" y1="-6.202" x2="41.959" style="fill:none;stroke:#000000;stroke-width:0.3;" y2="-1.687"/>
  <line x1="48.124" y1="-5.609" x2="44.131" style="fill:none;stroke:#000000;stroke-width:0.3;" y2="-1.518"/>
  <line x1="49.553" y1="-4.678" x2="46.467" style="fill:none;stroke:#000000;stroke-width:0.3;" y2="-1.515"/>
  <line x1="0.107" y1="-9.422" x2="1.164" style="fill:none;stroke:#000000;stroke-width:0.3;" y2="-10.505"/>
  <line x1="3.52" y1="-10.524" x2="1.884" style="fill:none;stroke:#000000;stroke-width:0.3;" y2="-8.848"/>
  <line x1="5.876" y1="-10.543" x2="4.179" style="fill:none;stroke:#000000;stroke-width:0.3;" y2="-8.804"/>
  <line x1="8.171" y1="-10.5" x2="6.658" style="fill:none;stroke:#000000;stroke-width:0.3;" y2="-8.95"/>
  <line x1="2.081" y1="-29.401" x2="0.107" style="fill:none;stroke:#000000;stroke-width:0.3;" y2="-27.378"/>
  <line x1="4.19" y1="-29.167" x2="2.308" style="fill:none;stroke:#000000;stroke-width:0.3;" y2="-27.238"/>
  <line x1="6.022" y1="-28.648" x2="4.91" style="fill:none;stroke:#000000;stroke-width:0.3;" y2="-27.51"/>
  <line x1="2.935" y1="-21.109" x2="1.176" style="fill:none;stroke:#000000;stroke-width:0.3;" y2="-19.307"/>
  <line x1="3.224" y1="-19.009" x2="5.539" style="fill:none;stroke:#000000;stroke-width:0.3;" y2="-21.381"/>
  <line x1="5.426" y1="-18.87" x2="7.987" style="fill:none;stroke:#000000;stroke-width:0.3;" y2="-21.495"/>
  <line x1="10.404" y1="-21.576" x2="8.152" style="fill:none;stroke:#000000;stroke-width:0.3;" y2="-19.269"/>
  <line x1="8.593" y1="-17.325" x2="12.545" style="fill:none;stroke:#000000;stroke-width:0.3;" y2="-21.374"/>
  <line x1="10.733" y1="-17.123" x2="14.623" style="fill:none;stroke:#000000;stroke-width:0.3;" y2="-21.109"/>
  <line x1="16.979" y1="-21.127" x2="13.121" style="fill:none;stroke:#000000;stroke-width:0.3;" y2="-17.174"/>
  <line x1="16.896" y1="-18.648" x2="19.212" style="fill:none;stroke:#000000;stroke-width:0.3;" y2="-21.021"/>
  <line x1="21.229" y1="-20.691" x2="18.913" style="fill:none;stroke:#000000;stroke-width:0.3;" y2="-18.319"/>
  <line x1="6.651" y1="-5.455" x2="4.831" style="fill:none;stroke:#000000;stroke-width:0.3;" y2="-3.589"/>
  <line x1="8.731" y1="-5.19" x2="7.186" style="fill:none;stroke:#000000;stroke-width:0.3;" y2="-3.607"/>
  <line x1="10.839" y1="-4.955" x2="9.265" style="fill:none;stroke:#000000;stroke-width:0.3;" y2="-3.342"/>
  <line x1="12.825" y1="-4.595" x2="11.404" style="fill:none;stroke:#000000;stroke-width:0.3;" y2="-3.139"/>
  <line x1="14.811" y1="-4.234" x2="13.452" style="fill:none;stroke:#000000;stroke-width:0.3;" y2="-2.842"/>
  <line x1="17.476" y1="-4.57" x2="15.623" style="fill:none;stroke:#000000;stroke-width:0.3;" y2="-2.671"/>
  <line x1="23.781" y1="-10.39" x2="21.897" style="fill:none;stroke:#000000;stroke-width:0.3;" y2="-8.46"/>
  <line x1="26.138" y1="-10.409" x2="23.944" style="fill:none;stroke:#000000;stroke-width:0.3;" y2="-8.162"/>
  <line x1="28.276" y1="-10.206" x2="26.239" style="fill:none;stroke:#000000;stroke-width:0.3;" y2="-8.118"/>
  <line x1="30.602" y1="-10.193" x2="28.194" style="fill:none;stroke:#000000;stroke-width:0.3;" y2="-7.726"/>
  <line x1="32.772" y1="-10.022" x2="30.364" style="fill:none;stroke:#000000;stroke-width:0.3;" y2="-7.555"/>
  <line x1="26.616" y1="-15.533" x2="28.141" style="fill:none;stroke:#000000;stroke-width:0.3;" y2="-17.095"/>
  <line x1="28.786" y1="-15.361" x2="30.803" style="fill:none;stroke:#000000;stroke-width:0.3;" y2="-17.428"/>
  <line x1="30.835" y1="-15.066" x2="33.592" style="fill:none;stroke:#000000;stroke-width:0.3;" y2="-17.89"/>
  <line x1="36.256" y1="-18.226" x2="33.376" style="fill:none;stroke:#000000;stroke-width:0.3;" y2="-15.274"/>
  <line x1="35.876" y1="-15.44" x2="38.469" style="fill:none;stroke:#000000;stroke-width:0.3;" y2="-18.097"/>
  <line x1="40.64" y1="-17.927" x2="37.799" style="fill:none;stroke:#000000;stroke-width:0.3;" y2="-15.016"/>
  <line x1="42.769" y1="-17.713" x2="39.56" style="fill:none;stroke:#000000;stroke-width:0.3;" y2="-14.424"/>
  <line x1="44.776" y1="-17.375" x2="41.401" style="fill:none;stroke:#000000;stroke-width:0.3;" y2="-13.916"/>
  <line x1="46.946" y1="-17.203" x2="43.776" style="fill:none;stroke:#000000;stroke-width:0.3;" y2="-13.955"/>
  <line x1="49.117" y1="-17.032" x2="46.4" style="fill:none;stroke:#000000;stroke-width:0.3;" y2="-14.248"/>
  <line x1="49.106" y1="-14.625" x2="51.123" style="fill:none;stroke:#000000;stroke-width:0.3;" y2="-16.692"/>
  <line x1="19.691" y1="-28.478" x2="17.993" style="fill:none;stroke:#000000;stroke-width:0.3;" y2="-26.738"/>
  <line x1="20.103" y1="-26.504" x2="22.479" style="fill:none;stroke:#000000;stroke-width:0.3;" y2="-28.94"/>
  <line x1="22.367" y1="-26.429" x2="24.959" style="fill:none;stroke:#000000;stroke-width:0.3;" y2="-29.086"/>
  <line x1="24.413" y1="-26.131" x2="27.5" style="fill:none;stroke:#000000;stroke-width:0.3;" y2="-29.294"/>
  <line x1="26.308" y1="-25.676" x2="30.01" style="fill:none;stroke:#000000;stroke-width:0.3;" y2="-29.47"/>
  <line x1="32.43" y1="-29.554" x2="28.262" style="fill:none;stroke:#000000;stroke-width:0.3;" y2="-25.283"/>
  <line x1="34.661" y1="-29.445" x2="30.277" style="fill:none;stroke:#000000;stroke-width:0.3;" y2="-24.954"/>
  <line x1="36.709" y1="-29.148" x2="32.294" style="fill:none;stroke:#000000;stroke-width:0.3;" y2="-24.625"/>
  <line x1="38.973" y1="-29.073" x2="34.651" style="fill:none;stroke:#000000;stroke-width:0.3;" y2="-24.646"/>
  <line x1="41.36" y1="-29.124" x2="37.223" style="fill:none;stroke:#000000;stroke-width:0.3;" y2="-24.884"/>
  <line x1="40.135" y1="-25.473" x2="43.9" style="fill:none;stroke:#000000;stroke-width:0.3;" y2="-29.332"/>
  <line x1="43.232" y1="-26.252" x2="45.794" style="fill:none;stroke:#000000;stroke-width:0.3;" y2="-28.876"/>
  <line x1="34.401" y1="-35.708" x2="36.499" style="fill:none;stroke:#000000;stroke-width:0.3;" y2="-37.857"/>
  <line x1="39.287" y1="-38.319" x2="36.541" style="fill:none;stroke:#000000;stroke-width:0.3;" y2="-35.505"/>
  <line x1="38.588" y1="-35.207" x2="41.551" style="fill:none;stroke:#000000;stroke-width:0.3;" y2="-38.244"/>
  <line x1="40.696" y1="-34.973" x2="43.475" style="fill:none;stroke:#000000;stroke-width:0.3;" y2="-37.82"/>
  <line x1="42.683" y1="-34.612" x2="45.646" style="fill:none;stroke:#000000;stroke-width:0.3;" y2="-37.648"/>
  <line x1="45.039" y1="-34.631" x2="47.848" style="fill:none;stroke:#000000;stroke-width:0.3;" y2="-37.509"/>
  <line x1="47.579" y1="-34.839" x2="49.865" style="fill:none;stroke:#000000;stroke-width:0.3;" y2="-37.182"/>
  <line x1="3.943" y1="-38.039" x2="2.307" style="fill:none;stroke:#000000;stroke-width:0.3;" y2="-36.361"/>
  <line x1="3.893" y1="-35.59" x2="6.731" style="fill:none;stroke:#000000;stroke-width:0.3;" y2="-38.5"/>
  <line x1="6.155" y1="-35.514" x2="9.273" style="fill:none;stroke:#000000;stroke-width:0.3;" y2="-38.709"/>
  <line x1="11.69" y1="-38.791" x2="8.295" style="fill:none;stroke:#000000;stroke-width:0.3;" y2="-35.311"/>
  <line x1="10.096" y1="-34.761" x2="13.709" style="fill:none;stroke:#000000;stroke-width:0.3;" y2="-38.463"/>
  <line x1="21.065" y1="-43.606" x2="19.274" style="fill:none;stroke:#000000;stroke-width:0.3;" y2="-41.771"/>
  <line x1="15.415" y1="-37.816" x2="11.923" style="fill:none;stroke:#000000;stroke-width:0.3;" y2="-34.238"/>
  <line x1="21.014" y1="-41.158" x2="23.544" style="fill:none;stroke:#000000;stroke-width:0.3;" y2="-43.75"/>
  <line x1="17.216" y1="-37.267" x2="14.19" style="fill:none;stroke:#000000;stroke-width:0.3;" y2="-34.167"/>
  <line x1="23.122" y1="-40.923" x2="25.992" style="fill:none;stroke:#000000;stroke-width:0.3;" y2="-43.864"/>
  <line x1="19.263" y1="-36.968" x2="16.458" style="fill:none;stroke:#000000;stroke-width:0.3;" y2="-34.095"/>
  <line x1="25.94" y1="-41.416" x2="28.472" style="fill:none;stroke:#000000;stroke-width:0.3;" y2="-44.01"/>
  <line x1="18.727" y1="-34.023" x2="21.711" style="fill:none;stroke:#000000;stroke-width:0.3;" y2="-37.083"/>
  <line x1="28.451" y1="-41.592" x2="30.921" style="fill:none;stroke:#000000;stroke-width:0.3;" y2="-44.124"/>
  <line x1="21.228" y1="-34.191" x2="23.76" style="fill:none;stroke:#000000;stroke-width:0.3;" y2="-36.785"/>
  <line x1="30.931" y1="-41.738" x2="33.246" style="fill:none;stroke:#000000;stroke-width:0.3;" y2="-44.111"/>
  <line x1="23.677" y1="-34.305" x2="25.56" style="fill:none;stroke:#000000;stroke-width:0.3;" y2="-36.235"/>
  <line x1="33.441" y1="-41.916" x2="35.293" style="fill:none;stroke:#000000;stroke-width:0.3;" y2="-43.813"/>
  <line x1="9.652" y1="-48.454" x2="11.845" style="fill:none;stroke:#000000;stroke-width:0.3;" y2="-50.7"/>
  <line x1="11.392" y1="-47.841" x2="14.663" style="fill:none;stroke:#000000;stroke-width:0.3;" y2="-51.193"/>
  <line x1="13.377" y1="-47.48" x2="16.649" style="fill:none;stroke:#000000;stroke-width:0.3;" y2="-50.833"/>
  <line x1="15.888" y1="-47.658" x2="18.882" style="fill:none;stroke:#000000;stroke-width:0.3;" y2="-50.726"/>
  <line x1="18.306" y1="-47.74" x2="21.053" style="fill:none;stroke:#000000;stroke-width:0.3;" y2="-50.555"/>
  <line x1="21.248" y1="-48.359" x2="23.008" style="fill:none;stroke:#000000;stroke-width:0.3;" y2="-50.162"/>
  <line x1="37.2" y1="-46.655" x2="39.084" style="fill:none;stroke:#000000;stroke-width:0.3;" y2="-48.585"/>
  <line x1="38.508" y1="-45.6" x2="41.749" style="fill:none;stroke:#000000;stroke-width:0.3;" y2="-48.921"/>
  <line x1="40.185" y1="-44.922" x2="44.167" style="fill:none;stroke:#000000;stroke-width:0.3;" y2="-49.002"/>
  <line x1="42.324" y1="-44.719" x2="46.338" style="fill:none;stroke:#000000;stroke-width:0.3;" y2="-48.832"/>
  <line x1="44.712" y1="-44.771" x2="48.386" style="fill:none;stroke:#000000;stroke-width:0.3;" y2="-48.535"/>
  <line x1="46.79" y1="-44.504" x2="50.495" style="fill:none;stroke:#000000;stroke-width:0.3;" y2="-48.301"/>
  <line x1="48.93" y1="-44.302" x2="52.572" style="fill:none;stroke:#000000;stroke-width:0.3;" y2="-48.035"/>
  <line x1="50.885" y1="-43.909" x2="54.232" style="fill:none;stroke:#000000;stroke-width:0.3;" y2="-47.34"/>
  <line x1="52.717" y1="-43.392" x2="54.232" style="fill:none;stroke:#000000;stroke-width:0.3;" y2="-44.945"/>
  <line x1="52.871" y1="-10.423" x2="51.481" style="fill:none;stroke:#000000;stroke-width:0.3;" y2="-9"/>
  <line x1="53.653" y1="-8.829" x2="54.232" style="fill:none;stroke:#000000;stroke-width:0.3;" y2="-9.422"/>
  <line x1="51.689" y1="-27.168" x2="53.942" style="fill:none;stroke:#000000;stroke-width:0.3;" y2="-29.477"/>
  <line x1="53.892" y1="-27.029" x2="54.232" style="fill:none;stroke:#000000;stroke-width:0.3;" y2="-27.378"/>
 </g>
</svg>
