<?xml version="1.0"?>
<!-- Converted with SVG Converter - Version 0.9.5 (Compiled Fri Feb 21 09:53:38 2020) - Copyright (C) 2011 Nokia -->
<svg xmlns="http://www.w3.org/2000/svg" xmlns:xlink="http://www.w3.org/1999/xlink" version="1.1" baseProfile="tiny" x="0px" y="0px" viewBox="0 -53.978 53.978 53.978" width="53.978" height="53.978" xml:space="preserve">
 <g>
  <rect style="fill:none;" x="0" y="-53.978" width="53.978" height="53.978"/>
  <line x2="11.79" y1="-43.125" style="fill:none;stroke:#000000;stroke-width:0.3;" x1="10.727" y2="-44.125"/>
  <line x2="10.727" y1="-42.125" style="fill:none;stroke:#000000;stroke-width:0.3;" x1="11.79" y2="-43.125"/>
  <line x2="10.727" y1="-43.125" style="fill:none;stroke:#000000;stroke-width:0.3;" x1="4.54" y2="-43.125"/>
  <line x2="17.77" y1="-29.396" style="fill:none;stroke:#000000;stroke-width:0.3;" x1="18.832" y2="-28.396"/>
  <line x2="18.832" y1="-28.396" style="fill:none;stroke:#000000;stroke-width:0.3;" x1="17.77" y2="-27.396"/>
  <line x2="17.77" y1="-28.396" style="fill:none;stroke:#000000;stroke-width:0.3;" x1="11.582" y2="-28.396"/>
  <line x2="28.082" y1="-11.875" style="fill:none;stroke:#000000;stroke-width:0.3;" x1="27.02" y2="-12.875"/>
  <line x2="28.082" y1="-11.875" style="fill:none;stroke:#000000;stroke-width:0.3;" x1="27.02" y2="-10.875"/>
  <line x2="27.02" y1="-11.875" style="fill:none;stroke:#000000;stroke-width:0.3;" x1="20.832" y2="-11.875"/>
  <line x2="27.79" y1="-1.521" style="fill:none;stroke:#000000;stroke-width:0.3;" x1="26.728" y2="-0.521"/>
  <line x2="27.79" y1="-1.521" style="fill:none;stroke:#000000;stroke-width:0.3;" x1="26.728" y2="-2.521"/>
  <line x2="20.54" y1="-1.521" style="fill:none;stroke:#000000;stroke-width:0.3;" x1="26.728" y2="-1.521"/>
  <line x2="50.437" y1="-13.042" style="fill:none;stroke:#000000;stroke-width:0.3;" x1="51.499" y2="-12.042"/>
  <line x2="51.499" y1="-12.042" style="fill:none;stroke:#000000;stroke-width:0.3;" x1="50.437" y2="-11.042"/>
  <line x2="44.249" y1="-12.042" style="fill:none;stroke:#000000;stroke-width:0.3;" x1="50.437" y2="-12.042"/>
  <line x2="45.707" y1="-2.542" style="fill:none;stroke:#000000;stroke-width:0.3;" x1="44.645" y2="-1.541"/>
  <line x2="44.645" y1="-3.542" style="fill:none;stroke:#000000;stroke-width:0.3;" x1="45.707" y2="-2.542"/>
  <line x2="38.457" y1="-2.542" style="fill:none;stroke:#000000;stroke-width:0.3;" x1="44.645" y2="-2.542"/>
  <line x2="10.04" y1="-16.562" style="fill:none;stroke:#000000;stroke-width:0.3;" x1="8.977" y2="-15.562"/>
  <line x2="10.04" y1="-16.562" style="fill:none;stroke:#000000;stroke-width:0.3;" x1="8.977" y2="-17.562"/>
  <line x2="2.79" y1="-16.562" style="fill:none;stroke:#000000;stroke-width:0.3;" x1="8.977" y2="-16.562"/>
  <line x2="27.853" y1="-38.354" style="fill:none;stroke:#000000;stroke-width:0.3;" x1="28.915" y2="-37.354"/>
  <line x2="28.915" y1="-37.354" style="fill:none;stroke:#000000;stroke-width:0.3;" x1="27.853" y2="-36.354"/>
  <line x2="27.853" y1="-37.354" style="fill:none;stroke:#000000;stroke-width:0.3;" x1="21.665" y2="-37.354"/>
  <line x2="45.895" y1="-41.854" style="fill:none;stroke:#000000;stroke-width:0.3;" x1="46.957" y2="-42.854"/>
  <line x2="46.957" y1="-42.854" style="fill:none;stroke:#000000;stroke-width:0.3;" x1="45.895" y2="-43.854"/>
  <line x2="45.895" y1="-42.854" style="fill:none;stroke:#000000;stroke-width:0.3;" x1="39.707" y2="-42.854"/>
  <line x2="43.832" y1="-31.688" style="fill:none;stroke:#000000;stroke-width:0.3;" x1="42.77" y2="-30.688"/>
  <line x2="43.832" y1="-31.688" style="fill:none;stroke:#000000;stroke-width:0.3;" x1="42.77" y2="-32.688"/>
  <line x2="36.582" y1="-31.688" style="fill:none;stroke:#000000;stroke-width:0.3;" x1="42.77" y2="-31.688"/>
  <line x2="1.415" y1="-26.667" style="fill:none;stroke:#000000;stroke-width:0.3;" x1="2.477" y2="-25.667"/>
  <line x2="2.477" y1="-25.667" style="fill:none;stroke:#000000;stroke-width:0.3;" x1="1.415" y2="-24.667"/>
  <line x2="1.415" y1="-25.667" style="fill:none;stroke:#000000;stroke-width:0.3;" x1="0" y2="-25.667"/>
  <line x2="35.915" y1="-21.042" style="fill:none;stroke:#000000;stroke-width:0.3;" x1="34.853" y2="-20.042"/>
  <line x2="34.853" y1="-22.042" style="fill:none;stroke:#000000;stroke-width:0.3;" x1="35.915" y2="-21.042"/>
  <line x2="28.665" y1="-21.042" style="fill:none;stroke:#000000;stroke-width:0.3;" x1="34.853" y2="-21.042"/>
  <line x2="51.78" y1="-49.5" style="fill:none;stroke:#000000;stroke-width:0.3;" x1="50.803" y2="-48.5"/>
  <line x2="50.803" y1="-50.5" style="fill:none;stroke:#000000;stroke-width:0.3;" x1="51.78" y2="-49.5"/>
  <line x2="45.11" y1="-49.5" style="fill:none;stroke:#000000;stroke-width:0.3;" x1="50.803" y2="-49.5"/>
  <line x2="34.387" y1="-49.417" style="fill:none;stroke:#000000;stroke-width:0.3;" x1="40.079" y2="-49.417"/>
  <line x2="23.663" y1="-49.333" style="fill:none;stroke:#000000;stroke-width:0.3;" x1="29.355" y2="-49.333"/>
  <line x2="12.939" y1="-49.25" style="fill:none;stroke:#000000;stroke-width:0.3;" x1="18.632" y2="-49.25"/>
  <line x2="40.079" y1="-50.417" style="fill:none;stroke:#000000;stroke-width:0.3;" x1="41.057" y2="-49.417"/>
  <line x2="41.057" y1="-49.417" style="fill:none;stroke:#000000;stroke-width:0.3;" x1="40.079" y2="-48.417"/>
  <line x2="29.355" y1="-50.333" style="fill:none;stroke:#000000;stroke-width:0.3;" x1="30.333" y2="-49.333"/>
  <line x2="30.333" y1="-49.333" style="fill:none;stroke:#000000;stroke-width:0.3;" x1="29.355" y2="-48.333"/>
  <line x2="18.632" y1="-50.25" style="fill:none;stroke:#000000;stroke-width:0.3;" x1="19.609" y2="-49.25"/>
  <line x2="19.609" y1="-49.25" style="fill:none;stroke:#000000;stroke-width:0.3;" x1="18.632" y2="-48.25"/>
  <line x2="8.885" y1="-49.167" style="fill:none;stroke:#000000;stroke-width:0.3;" x1="7.908" y2="-48.167"/>
  <line x2="7.908" y1="-50.167" style="fill:none;stroke:#000000;stroke-width:0.3;" x1="8.885" y2="-49.167"/>
  <line x2="2.215" y1="-49.167" style="fill:none;stroke:#000000;stroke-width:0.3;" x1="7.908" y2="-49.167"/>
  <line x2="53.978" y1="-47.062" style="fill:none;stroke:#000000;stroke-width:0.3;" x1="0" y2="-47.062"/>
  <line x2="53.978" y1="-51.312" style="fill:none;stroke:#000000;stroke-width:0.3;" x1="0" y2="-51.312"/>
  <line x2="14.29" y1="-6.521" style="fill:none;stroke:#000000;stroke-width:0.3;" x1="13.227" y2="-7.521"/>
  <line x2="14.29" y1="-6.521" style="fill:none;stroke:#000000;stroke-width:0.3;" x1="13.227" y2="-5.521"/>
  <line x2="7.04" y1="-6.521" style="fill:none;stroke:#000000;stroke-width:0.3;" x1="13.227" y2="-6.521"/>
  <line x2="53.978" y1="-25.667" style="fill:none;stroke:#000000;stroke-width:0.3;" x1="49.205" y2="-25.667"/>
 </g>
</svg>
