<?xml version="1.0"?>
<!-- Converted with SVG Converter - Version 0.9.5 (Compiled Fri Feb 21 09:53:38 2020) - Copyright (C) 2011 Nokia -->
<svg xmlns="http://www.w3.org/2000/svg" height="53.978" x="0px" xml:space="preserve" baseProfile="tiny" xmlns:xlink="http://www.w3.org/1999/xlink" width="53.978" version="1.1" viewBox="0.041 -53.978 53.978 53.978" y="0px">
 <g>
  <rect height="53.978" x="0.041" style="fill:none;" width="53.978" y="-53.978"/>
  <line y1="-48.062" style="fill:none;stroke:#000000;stroke-width:0.3;" x2="54.018" y2="-48.062" x1="0.041"/>
  <line y1="-52.312" style="fill:none;stroke:#000000;stroke-width:0.3;" x2="54.018" y2="-52.312" x1="0.041"/>
  <path style="fill:none;stroke:#000000;stroke-width:0.3;" d="M13.477-41.292c0.5-0.062,1.375-0.375,1.812-1.188    c1.438,0.688,3.375,1.812,6.062,0.812"/>
  <path style="fill:none;stroke:#000000;stroke-width:0.3;" d="M4.227-35.708c-1.663,0.619-3.039,0.424-4.187,0.022"/>
  <path style="fill:none;stroke:#000000;stroke-width:0.3;" d="M22.665-6.021c-2.688,1-4.625-0.125-6.062-0.812    c-0.438,0.812-1.312,1.125-1.812,1.188"/>
  <path style="fill:none;stroke:#000000;stroke-width:0.3;" d="M42.935-9.062c-2.688,1-4.625-0.125-6.062-0.812    C36.435-9.062,35.56-8.75,35.06-8.688"/>
  <path style="fill:none;stroke:#000000;stroke-width:0.3;" d="M0.041-2.453c0.466-0.053,0.958-0.167,1.478-0.36"/>
  <path style="fill:none;stroke:#000000;stroke-width:0.3;" d="M39.518-42.375c0.5-0.062,1.375-0.375,1.812-1.188    c1.438,0.688,3.375,1.812,6.062,0.812"/>
  <path style="fill:none;stroke:#000000;stroke-width:0.3;" d="M28.06-32.604c0.5-0.062,1.375-0.375,1.812-1.188    c1.438,0.688,3.375,1.812,6.062,0.812"/>
  <path style="fill:none;stroke:#000000;stroke-width:0.3;" d="M51.081-24.458c-2.688,1-4.625-0.125-6.062-0.812    c-0.438,0.812-1.312,1.125-1.812,1.188"/>
  <path style="fill:none;stroke:#000000;stroke-width:0.3;" d="M33.31-19.021c-2.688,1-4.625-0.125-6.062-0.812    c-0.438,0.812-1.312,1.125-1.812,1.188"/>
  <path style="fill:none;stroke:#000000;stroke-width:0.3;" d="M18.248-26.292c-2.688,1-4.625-0.125-6.063-0.812    c-0.438,0.812-1.312,1.125-1.812,1.188"/>
  <path style="fill:none;stroke:#000000;stroke-width:0.3;" d="M8.206-14.854c-2.688,1-4.625-0.125-6.062-0.812    c-0.438,0.812-1.312,1.125-1.812,1.188"/>
  <path style="fill:none;stroke:#000000;stroke-width:0.3;" d="M46.646-49.806c0.438-0.051,1.205-0.304,1.589-0.962    c1.26,0.557,2.958,1.468,5.314,0.658"/>
  <path style="fill:none;stroke:#000000;stroke-width:0.3;" d="M44.576-50.11c-2.355,0.81-4.054-0.101-5.313-0.658    c-0.384,0.658-1.15,0.911-1.589,0.962"/>
  <path style="fill:none;stroke:#000000;stroke-width:0.3;" d="M35.603-50.11c-2.355,0.81-4.054-0.101-5.313-0.658    c-0.384,0.658-1.15,0.911-1.589,0.962"/>
  <path style="fill:none;stroke:#000000;stroke-width:0.3;" d="M26.631-50.11c-2.355,0.81-4.054-0.101-5.314-0.658    c-0.383,0.658-1.15,0.911-1.588,0.962"/>
  <path style="fill:none;stroke:#000000;stroke-width:0.3;" d="M17.659-50.11c-2.357,0.81-4.055-0.101-5.315-0.658    c-0.383,0.658-1.15,0.911-1.589,0.962"/>
  <path style="fill:none;stroke:#000000;stroke-width:0.3;" d="M8.686-50.11c-2.355,0.81-4.054-0.101-5.313-0.658    c-0.384,0.658-1.15,0.911-1.589,0.962"/>
  <path style="fill:none;stroke:#000000;stroke-width:0.3;" d="M50.33-35.333c0.5-0.062,1.375-0.375,1.812-1.188    c0.548,0.262,1.169,0.588,1.876,0.835"/>
  <path style="fill:none;stroke:#000000;stroke-width:0.3;" d="M47.621-2.438c0.5-0.062,1.375-0.375,1.812-1.188    c1.159,0.554,2.644,1.393,4.585,1.172"/>
 </g>
</svg>
