<?xml version="1.0"?>
<!-- Converted with SVG Converter - Version 0.9.5 (Compiled Fri Feb 21 09:53:38 2020) - Copyright (C) 2011 Nokia -->
<svg xmlns="http://www.w3.org/2000/svg" x="0px" viewBox="1 -54.978 53.978 53.978" xmlns:xlink="http://www.w3.org/1999/xlink" baseProfile="tiny" height="53.978" xml:space="preserve" width="53.978" version="1.1" y="0px">
 <g>
  <rect x="1" style="fill:none;" height="53.978" width="53.978" y="-54.978"/>
  <circle r="2.357" style="fill:none;stroke:#000000;stroke-width:0.3;" cy="-36.017" cx="4.44"/>
  <rect x="3.62" style="fill:none;stroke:#000000;stroke-width:0.3;" height="1.641" width="1.641" y="-36.838"/>
  <circle r="2.357" style="fill:none;stroke:#000000;stroke-width:0.3;" cy="-32.679" cx="37.907"/>
  <rect x="37.086" style="fill:none;stroke:#000000;stroke-width:0.3;" height="1.641" width="1.641" y="-33.5"/>
  <circle r="2.357" style="fill:none;stroke:#000000;stroke-width:0.3;" cy="-26.583" cx="51.394"/>
  <rect x="50.574" style="fill:none;stroke:#000000;stroke-width:0.3;" height="1.641" width="1.641" y="-27.404"/>
  <circle r="2.357" style="fill:none;stroke:#000000;stroke-width:0.3;" cy="-39.407" cx="23.798"/>
  <rect x="22.978" style="fill:none;stroke:#000000;stroke-width:0.3;" height="1.641" width="1.641" y="-40.228"/>
  <circle r="2.357" style="fill:none;stroke:#000000;stroke-width:0.3;" cy="-46.833" cx="8.894"/>
  <rect x="8.074" style="fill:none;stroke:#000000;stroke-width:0.3;" height="1.641" width="1.641" y="-47.654"/>
  <circle r="2.357" style="fill:none;stroke:#000000;stroke-width:0.3;" cy="-45.657" cx="42.798"/>
  <rect x="41.978" style="fill:none;stroke:#000000;stroke-width:0.3;" height="1.641" width="1.641" y="-46.478"/>
  <circle r="2.357" style="fill:none;stroke:#000000;stroke-width:0.3;" cy="-51.208" cx="23.144"/>
  <rect x="22.324" style="fill:none;stroke:#000000;stroke-width:0.3;" height="1.641" width="1.641" y="-52.029"/>
  <circle r="2.357" style="fill:none;stroke:#000000;stroke-width:0.3;" cy="-51.708" cx="51.269"/>
  <rect x="50.449" style="fill:none;stroke:#000000;stroke-width:0.3;" height="1.641" width="1.641" y="-52.529"/>
  <circle r="2.357" style="fill:none;stroke:#000000;stroke-width:0.3;" cy="-27.862" cx="19.824"/>
  <rect x="19.003" style="fill:none;stroke:#000000;stroke-width:0.3;" height="1.641" width="1.641" y="-28.683"/>
  <circle r="2.357" style="fill:none;stroke:#000000;stroke-width:0.3;" cy="-16.237" cx="4.824"/>
  <rect x="4.003" style="fill:none;stroke:#000000;stroke-width:0.3;" height="1.641" width="1.641" y="-17.058"/>
  <circle r="2.357" style="fill:none;stroke:#000000;stroke-width:0.3;" cy="-18.112" cx="39.074"/>
  <rect x="38.253" style="fill:none;stroke:#000000;stroke-width:0.3;" height="1.641" width="1.641" y="-18.933"/>
  <circle r="2.357" style="fill:none;stroke:#000000;stroke-width:0.3;" cy="-9.862" cx="48.824"/>
  <rect x="48.003" style="fill:none;stroke:#000000;stroke-width:0.3;" height="1.641" width="1.641" y="-10.683"/>
  <circle r="2.357" style="fill:none;stroke:#000000;stroke-width:0.3;" cy="-4.987" cx="34.199"/>
  <rect x="33.378" style="fill:none;stroke:#000000;stroke-width:0.3;" height="1.641" width="1.641" y="-5.808"/>
  <circle r="2.357" style="fill:none;stroke:#000000;stroke-width:0.3;" cy="-11.987" cx="22.574"/>
  <rect x="21.753" style="fill:none;stroke:#000000;stroke-width:0.3;" height="1.641" width="1.641" y="-12.808"/>
  <circle r="2.357" style="fill:none;stroke:#000000;stroke-width:0.3;" cy="-4.237" cx="11.824"/>
  <rect x="11.003" style="fill:none;stroke:#000000;stroke-width:0.3;" height="1.641" width="1.641" y="-5.058"/>
 </g>
</svg>
