<?xml version="1.0"?>
<!-- Converted with SVG Converter - Version 0.9.5 (Compiled Fri Feb 21 09:53:38 2020) - Copyright (C) 2011 Nokia -->
<svg xmlns="http://www.w3.org/2000/svg" baseProfile="tiny" version="1.1" xml:space="preserve" xmlns:xlink="http://www.w3.org/1999/xlink" width="46.75" x="0px" y="0px" height="46.75" viewBox="0 -46.75 46.75 46.75">
 <g>
  <rect width="46.75" y="-46.75" style="fill:none;" height="46.75"/>
  <line y1="-45.447" x1="5.382" x2="0" style="fill:none;stroke:#000000;stroke-width:0.3;" y2="-45.447"/>
  <line y1="-45.447" x1="12.948" x2="20.767" style="fill:none;stroke:#000000;stroke-width:0.3;" y2="-45.447"/>
  <line y1="-45.447" x1="28.44" x2="36.259" style="fill:none;stroke:#000000;stroke-width:0.3;" y2="-45.447"/>
  <line y1="-33.807" x1="0" x2="3.768" style="fill:none;stroke:#000000;stroke-width:0.3;" y2="-33.807"/>
  <line y1="-33.807" x1="19.152" x2="11.335" style="fill:none;stroke:#000000;stroke-width:0.3;" y2="-33.807"/>
  <line y1="-33.807" x1="26.827" x2="34.645" style="fill:none;stroke:#000000;stroke-width:0.3;" y2="-33.807"/>
  <line y1="-22.167" x1="0" x2="1.724" style="fill:none;stroke:#000000;stroke-width:0.3;" y2="-22.167"/>
  <line y1="-22.167" x1="9.398" x2="17.216" style="fill:none;stroke:#000000;stroke-width:0.3;" y2="-22.167"/>
  <line y1="-22.167" x1="24.891" x2="32.708" style="fill:none;stroke:#000000;stroke-width:0.3;" y2="-22.167"/>
  <line y1="-10.527" x1="5.059" x2="0" style="fill:none;stroke:#000000;stroke-width:0.3;" y2="-10.527"/>
  <line y1="-10.527" x1="20.658" x2="12.841" style="fill:none;stroke:#000000;stroke-width:0.3;" y2="-10.527"/>
  <line y1="-10.527" x1="36.259" x2="28.44" style="fill:none;stroke:#000000;stroke-width:0.3;" y2="-10.527"/>
  <line y1="-45.447" x1="44.184" x2="46.75" style="fill:none;stroke:#000000;stroke-width:0.3;" y2="-45.447"/>
  <line y1="-33.807" x1="42.57" x2="46.75" style="fill:none;stroke:#000000;stroke-width:0.3;" y2="-33.807"/>
  <line y1="-22.167" x1="40.526" x2="46.75" style="fill:none;stroke:#000000;stroke-width:0.3;" y2="-22.167"/>
  <line y1="-10.527" x1="43.861" x2="46.75" style="fill:none;stroke:#000000;stroke-width:0.3;" y2="-10.527"/>
  <line y1="-39.644" x1="43.913" x2="36.017" style="fill:none;stroke:#000000;stroke-width:0.3;" y2="-39.644"/>
  <line y1="-39.644" x1="20.367" x2="28.265" style="fill:none;stroke:#000000;stroke-width:0.3;" y2="-39.644"/>
  <line y1="-39.644" x1="4.61" x2="12.507" style="fill:none;stroke:#000000;stroke-width:0.3;" y2="-39.644"/>
  <line y1="-28.004" x1="34.114" x2="42.011" style="fill:none;stroke:#000000;stroke-width:0.3;" y2="-28.004"/>
  <line y1="-28.004" x1="26.362" x2="18.465" style="fill:none;stroke:#000000;stroke-width:0.3;" y2="-28.004"/>
  <line y1="-28.004" x1="10.496" x2="2.6" style="fill:none;stroke:#000000;stroke-width:0.3;" y2="-28.004"/>
  <line y1="-16.364" x1="34.114" x2="42.011" style="fill:none;stroke:#000000;stroke-width:0.3;" y2="-16.364"/>
  <line y1="-16.364" x1="26.362" x2="18.465" style="fill:none;stroke:#000000;stroke-width:0.3;" y2="-16.364"/>
  <line y1="-16.364" x1="10.713" x2="2.816" style="fill:none;stroke:#000000;stroke-width:0.3;" y2="-16.364"/>
  <line y1="-4.844" x1="43.641" x2="35.744" style="fill:none;stroke:#000000;stroke-width:0.3;" y2="-4.844"/>
  <line y1="-4.844" x1="28.209" x2="20.312" style="fill:none;stroke:#000000;stroke-width:0.3;" y2="-4.844"/>
  <line y1="-4.844" x1="12.452" x2="4.556" style="fill:none;stroke:#000000;stroke-width:0.3;" y2="-4.844"/>
  <line y1="-45.423" x1="24.591" x2="24.591" style="fill:none;stroke:#000000;stroke-width:0.7;stroke-linecap:round;" y2="-45.423"/>
  <line y1="-45.423" x1="26.553" x2="26.553" style="fill:none;stroke:#000000;stroke-width:0.7;stroke-linecap:round;" y2="-45.423"/>
  <line y1="-45.423" x1="22.536" x2="22.536" style="fill:none;stroke:#000000;stroke-width:0.7;stroke-linecap:round;" y2="-45.423"/>
  <line y1="-45.423" x1="9.204" x2="9.204" style="fill:none;stroke:#000000;stroke-width:0.7;stroke-linecap:round;" y2="-45.423"/>
  <line y1="-45.423" x1="11.167" x2="11.167" style="fill:none;stroke:#000000;stroke-width:0.7;stroke-linecap:round;" y2="-45.423"/>
  <line y1="-45.423" x1="7.15" x2="7.15" style="fill:none;stroke:#000000;stroke-width:0.7;stroke-linecap:round;" y2="-45.423"/>
  <line y1="-45.423" x1="40.298" x2="40.298" style="fill:none;stroke:#000000;stroke-width:0.7;stroke-linecap:round;" y2="-45.423"/>
  <line y1="-45.423" x1="42.261" x2="42.261" style="fill:none;stroke:#000000;stroke-width:0.7;stroke-linecap:round;" y2="-45.423"/>
  <line y1="-45.423" x1="38.244" x2="38.244" style="fill:none;stroke:#000000;stroke-width:0.7;stroke-linecap:round;" y2="-45.423"/>
  <line y1="-33.847" x1="23.008" x2="23.008" style="fill:none;stroke:#000000;stroke-width:0.7;stroke-linecap:round;" y2="-33.847"/>
  <line y1="-33.847" x1="24.97" x2="24.97" style="fill:none;stroke:#000000;stroke-width:0.7;stroke-linecap:round;" y2="-33.847"/>
  <line y1="-33.847" x1="20.953" x2="20.953" style="fill:none;stroke:#000000;stroke-width:0.7;stroke-linecap:round;" y2="-33.847"/>
  <line y1="-33.847" x1="7.621" x2="7.621" style="fill:none;stroke:#000000;stroke-width:0.7;stroke-linecap:round;" y2="-33.847"/>
  <line y1="-33.847" x1="9.584" x2="9.584" style="fill:none;stroke:#000000;stroke-width:0.7;stroke-linecap:round;" y2="-33.847"/>
  <line y1="-33.847" x1="5.567" x2="5.567" style="fill:none;stroke:#000000;stroke-width:0.7;stroke-linecap:round;" y2="-33.847"/>
  <line y1="-33.847" x1="38.715" x2="38.715" style="fill:none;stroke:#000000;stroke-width:0.7;stroke-linecap:round;" y2="-33.847"/>
  <line y1="-33.847" x1="40.678" x2="40.678" style="fill:none;stroke:#000000;stroke-width:0.7;stroke-linecap:round;" y2="-33.847"/>
  <line y1="-33.847" x1="36.661" x2="36.661" style="fill:none;stroke:#000000;stroke-width:0.7;stroke-linecap:round;" y2="-33.847"/>
  <line y1="-22.147" x1="20.964" x2="20.964" style="fill:none;stroke:#000000;stroke-width:0.7;stroke-linecap:round;" y2="-22.147"/>
  <line y1="-22.147" x1="22.926" x2="22.926" style="fill:none;stroke:#000000;stroke-width:0.7;stroke-linecap:round;" y2="-22.147"/>
  <line y1="-22.147" x1="18.909" x2="18.909" style="fill:none;stroke:#000000;stroke-width:0.7;stroke-linecap:round;" y2="-22.147"/>
  <line y1="-22.147" x1="5.577" x2="5.577" style="fill:none;stroke:#000000;stroke-width:0.7;stroke-linecap:round;" y2="-22.147"/>
  <line y1="-22.147" x1="7.54" x2="7.54" style="fill:none;stroke:#000000;stroke-width:0.7;stroke-linecap:round;" y2="-22.147"/>
  <line y1="-22.147" x1="3.523" x2="3.523" style="fill:none;stroke:#000000;stroke-width:0.7;stroke-linecap:round;" y2="-22.147"/>
  <line y1="-22.147" x1="36.671" x2="36.671" style="fill:none;stroke:#000000;stroke-width:0.7;stroke-linecap:round;" y2="-22.147"/>
  <line y1="-22.147" x1="38.633" x2="38.633" style="fill:none;stroke:#000000;stroke-width:0.7;stroke-linecap:round;" y2="-22.147"/>
  <line y1="-22.147" x1="34.617" x2="34.617" style="fill:none;stroke:#000000;stroke-width:0.7;stroke-linecap:round;" y2="-22.147"/>
  <line y1="-10.507" x1="24.46" x2="24.46" style="fill:none;stroke:#000000;stroke-width:0.7;stroke-linecap:round;" y2="-10.507"/>
  <line y1="-10.507" x1="26.422" x2="26.422" style="fill:none;stroke:#000000;stroke-width:0.7;stroke-linecap:round;" y2="-10.507"/>
  <line y1="-10.507" x1="22.406" x2="22.406" style="fill:none;stroke:#000000;stroke-width:0.7;stroke-linecap:round;" y2="-10.507"/>
  <line y1="-10.507" x1="9.074" x2="9.074" style="fill:none;stroke:#000000;stroke-width:0.7;stroke-linecap:round;" y2="-10.507"/>
  <line y1="-10.507" x1="11.036" x2="11.036" style="fill:none;stroke:#000000;stroke-width:0.7;stroke-linecap:round;" y2="-10.507"/>
  <line y1="-10.507" x1="7.019" x2="7.019" style="fill:none;stroke:#000000;stroke-width:0.7;stroke-linecap:round;" y2="-10.507"/>
  <line y1="-10.507" x1="40.167" x2="40.167" style="fill:none;stroke:#000000;stroke-width:0.7;stroke-linecap:round;" y2="-10.507"/>
  <line y1="-10.507" x1="42.13" x2="42.13" style="fill:none;stroke:#000000;stroke-width:0.7;stroke-linecap:round;" y2="-10.507"/>
  <line y1="-10.507" x1="38.113" x2="38.113" style="fill:none;stroke:#000000;stroke-width:0.7;stroke-linecap:round;" y2="-10.507"/>
  <line y1="-39.624" x1="16.347" x2="16.347" style="fill:none;stroke:#000000;stroke-width:0.7;stroke-linecap:round;" y2="-39.624"/>
  <line y1="-39.624" x1="18.329" x2="18.329" style="fill:none;stroke:#000000;stroke-width:0.7;stroke-linecap:round;" y2="-39.624"/>
  <line y1="-39.624" x1="14.273" x2="14.273" style="fill:none;stroke:#000000;stroke-width:0.7;stroke-linecap:round;" y2="-39.624"/>
  <line y1="-39.624" x1="0.806" x2="0.806" style="fill:none;stroke:#000000;stroke-width:0.7;stroke-linecap:round;" y2="-39.624"/>
  <line y1="-39.624" x1="2.787" x2="2.787" style="fill:none;stroke:#000000;stroke-width:0.7;stroke-linecap:round;" y2="-39.624"/>
  <line y1="-39.624" x1="32.213" x2="32.213" style="fill:none;stroke:#000000;stroke-width:0.7;stroke-linecap:round;" y2="-39.624"/>
  <line y1="-39.624" x1="34.194" x2="34.194" style="fill:none;stroke:#000000;stroke-width:0.7;stroke-linecap:round;" y2="-39.624"/>
  <line y1="-39.624" x1="30.138" x2="30.138" style="fill:none;stroke:#000000;stroke-width:0.7;stroke-linecap:round;" y2="-39.624"/>
  <line y1="-39.624" x1="45.604" x2="45.604" style="fill:none;stroke:#000000;stroke-width:0.7;stroke-linecap:round;" y2="-39.624"/>
  <line y1="-28.044" x1="14.39" x2="14.39" style="fill:none;stroke:#000000;stroke-width:0.7;stroke-linecap:round;" y2="-28.044"/>
  <line y1="-28.044" x1="16.372" x2="16.372" style="fill:none;stroke:#000000;stroke-width:0.7;stroke-linecap:round;" y2="-28.044"/>
  <line y1="-28.044" x1="12.315" x2="12.315" style="fill:none;stroke:#000000;stroke-width:0.7;stroke-linecap:round;" y2="-28.044"/>
  <line y1="-28.044" x1="30.256" x2="30.256" style="fill:none;stroke:#000000;stroke-width:0.7;stroke-linecap:round;" y2="-28.044"/>
  <line y1="-28.044" x1="32.238" x2="32.238" style="fill:none;stroke:#000000;stroke-width:0.7;stroke-linecap:round;" y2="-28.044"/>
  <line y1="-28.044" x1="28.182" x2="28.182" style="fill:none;stroke:#000000;stroke-width:0.7;stroke-linecap:round;" y2="-28.044"/>
  <line y1="-28.044" x1="45.722" x2="45.722" style="fill:none;stroke:#000000;stroke-width:0.7;stroke-linecap:round;" y2="-28.044"/>
  <line y1="-28.044" x1="43.647" x2="43.647" style="fill:none;stroke:#000000;stroke-width:0.7;stroke-linecap:round;" y2="-28.044"/>
  <line y1="-16.344" x1="14.444" x2="14.444" style="fill:none;stroke:#000000;stroke-width:0.7;stroke-linecap:round;" y2="-16.344"/>
  <line y1="-16.344" x1="16.427" x2="16.427" style="fill:none;stroke:#000000;stroke-width:0.7;stroke-linecap:round;" y2="-16.344"/>
  <line y1="-16.344" x1="12.37" x2="12.37" style="fill:none;stroke:#000000;stroke-width:0.7;stroke-linecap:round;" y2="-16.344"/>
  <line y1="-16.344" x1="0.885" x2="0.885" style="fill:none;stroke:#000000;stroke-width:0.7;stroke-linecap:round;" y2="-16.344"/>
  <line y1="-16.344" x1="30.31" x2="30.31" style="fill:none;stroke:#000000;stroke-width:0.7;stroke-linecap:round;" y2="-16.344"/>
  <line y1="-16.344" x1="32.292" x2="32.292" style="fill:none;stroke:#000000;stroke-width:0.7;stroke-linecap:round;" y2="-16.344"/>
  <line y1="-16.344" x1="28.235" x2="28.235" style="fill:none;stroke:#000000;stroke-width:0.7;stroke-linecap:round;" y2="-16.344"/>
  <line y1="-16.344" x1="45.776" x2="45.776" style="fill:none;stroke:#000000;stroke-width:0.7;stroke-linecap:round;" y2="-16.344"/>
  <line y1="-16.344" x1="43.701" x2="43.701" style="fill:none;stroke:#000000;stroke-width:0.7;stroke-linecap:round;" y2="-16.344"/>
  <line y1="-4.824" x1="16.237" x2="16.237" style="fill:none;stroke:#000000;stroke-width:0.7;stroke-linecap:round;" y2="-4.824"/>
  <line y1="-4.824" x1="18.22" x2="18.22" style="fill:none;stroke:#000000;stroke-width:0.7;stroke-linecap:round;" y2="-4.824"/>
  <line y1="-4.824" x1="14.163" x2="14.163" style="fill:none;stroke:#000000;stroke-width:0.7;stroke-linecap:round;" y2="-4.824"/>
  <line y1="-4.824" x1="0.696" x2="0.696" style="fill:none;stroke:#000000;stroke-width:0.7;stroke-linecap:round;" y2="-4.824"/>
  <line y1="-4.824" x1="2.678" x2="2.678" style="fill:none;stroke:#000000;stroke-width:0.7;stroke-linecap:round;" y2="-4.824"/>
  <line y1="-4.824" x1="32.104" x2="32.104" style="fill:none;stroke:#000000;stroke-width:0.7;stroke-linecap:round;" y2="-4.824"/>
  <line y1="-4.824" x1="34.086" x2="34.086" style="fill:none;stroke:#000000;stroke-width:0.7;stroke-linecap:round;" y2="-4.824"/>
  <line y1="-4.824" x1="30.028" x2="30.028" style="fill:none;stroke:#000000;stroke-width:0.7;stroke-linecap:round;" y2="-4.824"/>
  <line y1="-4.824" x1="45.495" x2="45.495" style="fill:none;stroke:#000000;stroke-width:0.7;stroke-linecap:round;" y2="-4.824"/>
  <line y1="-42.499" x1="1.121" x2="1.121" style="fill:none;stroke:#000000;stroke-width:0.7;stroke-linecap:round;" y2="-42.499"/>
  <line y1="-42.499" x1="4.713" x2="4.713" style="fill:none;stroke:#000000;stroke-width:0.7;stroke-linecap:round;" y2="-42.499"/>
  <line y1="-42.499" x1="2.917" x2="2.917" style="fill:none;stroke:#000000;stroke-width:0.7;stroke-linecap:round;" y2="-42.499"/>
  <line y1="-42.499" x1="8.309" x2="8.309" style="fill:none;stroke:#000000;stroke-width:0.7;stroke-linecap:round;" y2="-42.499"/>
  <line y1="-42.499" x1="6.514" x2="6.514" style="fill:none;stroke:#000000;stroke-width:0.7;stroke-linecap:round;" y2="-42.499"/>
  <line y1="-42.499" x1="11.899" x2="11.899" style="fill:none;stroke:#000000;stroke-width:0.7;stroke-linecap:round;" y2="-42.499"/>
  <line y1="-42.499" x1="10.104" x2="10.104" style="fill:none;stroke:#000000;stroke-width:0.7;stroke-linecap:round;" y2="-42.499"/>
  <line y1="-42.499" x1="15.491" x2="15.491" style="fill:none;stroke:#000000;stroke-width:0.7;stroke-linecap:round;" y2="-42.499"/>
  <line y1="-42.499" x1="13.695" x2="13.695" style="fill:none;stroke:#000000;stroke-width:0.7;stroke-linecap:round;" y2="-42.499"/>
  <line y1="-42.499" x1="19.082" x2="19.082" style="fill:none;stroke:#000000;stroke-width:0.7;stroke-linecap:round;" y2="-42.499"/>
  <line y1="-42.499" x1="17.286" x2="17.286" style="fill:none;stroke:#000000;stroke-width:0.7;stroke-linecap:round;" y2="-42.499"/>
  <line y1="-42.499" x1="22.679" x2="22.679" style="fill:none;stroke:#000000;stroke-width:0.7;stroke-linecap:round;" y2="-42.499"/>
  <line y1="-42.499" x1="20.883" x2="20.883" style="fill:none;stroke:#000000;stroke-width:0.7;stroke-linecap:round;" y2="-42.499"/>
  <line y1="-42.499" x1="26.27" x2="26.27" style="fill:none;stroke:#000000;stroke-width:0.7;stroke-linecap:round;" y2="-42.499"/>
  <line y1="-42.499" x1="24.474" x2="24.474" style="fill:none;stroke:#000000;stroke-width:0.7;stroke-linecap:round;" y2="-42.499"/>
  <line y1="-42.499" x1="29.855" x2="29.855" style="fill:none;stroke:#000000;stroke-width:0.7;stroke-linecap:round;" y2="-42.499"/>
  <line y1="-42.499" x1="28.06" x2="28.06" style="fill:none;stroke:#000000;stroke-width:0.7;stroke-linecap:round;" y2="-42.499"/>
  <line y1="-42.499" x1="33.446" x2="33.446" style="fill:none;stroke:#000000;stroke-width:0.7;stroke-linecap:round;" y2="-42.499"/>
  <line y1="-42.499" x1="31.65" x2="31.65" style="fill:none;stroke:#000000;stroke-width:0.7;stroke-linecap:round;" y2="-42.499"/>
  <line y1="-42.499" x1="37.042" x2="37.042" style="fill:none;stroke:#000000;stroke-width:0.7;stroke-linecap:round;" y2="-42.499"/>
  <line y1="-42.499" x1="35.247" x2="35.247" style="fill:none;stroke:#000000;stroke-width:0.7;stroke-linecap:round;" y2="-42.499"/>
  <line y1="-42.499" x1="40.634" x2="40.634" style="fill:none;stroke:#000000;stroke-width:0.7;stroke-linecap:round;" y2="-42.499"/>
  <line y1="-42.499" x1="38.838" x2="38.838" style="fill:none;stroke:#000000;stroke-width:0.7;stroke-linecap:round;" y2="-42.499"/>
  <line y1="-42.499" x1="44.225" x2="44.225" style="fill:none;stroke:#000000;stroke-width:0.7;stroke-linecap:round;" y2="-42.499"/>
  <line y1="-42.499" x1="42.429" x2="42.429" style="fill:none;stroke:#000000;stroke-width:0.7;stroke-linecap:round;" y2="-42.499"/>
  <line y1="-42.499" x1="46.021" x2="46.021" style="fill:none;stroke:#000000;stroke-width:0.7;stroke-linecap:round;" y2="-42.499"/>
  <line y1="-36.624" x1="1.121" x2="1.121" style="fill:none;stroke:#000000;stroke-width:0.7;stroke-linecap:round;" y2="-36.624"/>
  <line y1="-36.624" x1="4.713" x2="4.713" style="fill:none;stroke:#000000;stroke-width:0.7;stroke-linecap:round;" y2="-36.624"/>
  <line y1="-36.624" x1="2.917" x2="2.917" style="fill:none;stroke:#000000;stroke-width:0.7;stroke-linecap:round;" y2="-36.624"/>
  <line y1="-36.624" x1="8.309" x2="8.309" style="fill:none;stroke:#000000;stroke-width:0.7;stroke-linecap:round;" y2="-36.624"/>
  <line y1="-36.624" x1="6.514" x2="6.514" style="fill:none;stroke:#000000;stroke-width:0.7;stroke-linecap:round;" y2="-36.624"/>
  <line y1="-36.624" x1="11.899" x2="11.899" style="fill:none;stroke:#000000;stroke-width:0.7;stroke-linecap:round;" y2="-36.624"/>
  <line y1="-36.624" x1="10.104" x2="10.104" style="fill:none;stroke:#000000;stroke-width:0.7;stroke-linecap:round;" y2="-36.624"/>
  <line y1="-36.624" x1="15.491" x2="15.491" style="fill:none;stroke:#000000;stroke-width:0.7;stroke-linecap:round;" y2="-36.624"/>
  <line y1="-36.624" x1="13.695" x2="13.695" style="fill:none;stroke:#000000;stroke-width:0.7;stroke-linecap:round;" y2="-36.624"/>
  <line y1="-36.624" x1="19.082" x2="19.082" style="fill:none;stroke:#000000;stroke-width:0.7;stroke-linecap:round;" y2="-36.624"/>
  <line y1="-36.624" x1="17.286" x2="17.286" style="fill:none;stroke:#000000;stroke-width:0.7;stroke-linecap:round;" y2="-36.624"/>
  <line y1="-36.624" x1="22.679" x2="22.679" style="fill:none;stroke:#000000;stroke-width:0.7;stroke-linecap:round;" y2="-36.624"/>
  <line y1="-36.624" x1="20.883" x2="20.883" style="fill:none;stroke:#000000;stroke-width:0.7;stroke-linecap:round;" y2="-36.624"/>
  <line y1="-36.624" x1="26.27" x2="26.27" style="fill:none;stroke:#000000;stroke-width:0.7;stroke-linecap:round;" y2="-36.624"/>
  <line y1="-36.624" x1="24.474" x2="24.474" style="fill:none;stroke:#000000;stroke-width:0.7;stroke-linecap:round;" y2="-36.624"/>
  <line y1="-36.624" x1="29.855" x2="29.855" style="fill:none;stroke:#000000;stroke-width:0.7;stroke-linecap:round;" y2="-36.624"/>
  <line y1="-36.624" x1="28.06" x2="28.06" style="fill:none;stroke:#000000;stroke-width:0.7;stroke-linecap:round;" y2="-36.624"/>
  <line y1="-36.624" x1="33.446" x2="33.446" style="fill:none;stroke:#000000;stroke-width:0.7;stroke-linecap:round;" y2="-36.624"/>
  <line y1="-36.624" x1="31.65" x2="31.65" style="fill:none;stroke:#000000;stroke-width:0.7;stroke-linecap:round;" y2="-36.624"/>
  <line y1="-36.624" x1="37.042" x2="37.042" style="fill:none;stroke:#000000;stroke-width:0.7;stroke-linecap:round;" y2="-36.624"/>
  <line y1="-36.624" x1="35.247" x2="35.247" style="fill:none;stroke:#000000;stroke-width:0.7;stroke-linecap:round;" y2="-36.624"/>
  <line y1="-36.624" x1="40.634" x2="40.634" style="fill:none;stroke:#000000;stroke-width:0.7;stroke-linecap:round;" y2="-36.624"/>
  <line y1="-36.624" x1="38.838" x2="38.838" style="fill:none;stroke:#000000;stroke-width:0.7;stroke-linecap:round;" y2="-36.624"/>
  <line y1="-36.624" x1="44.225" x2="44.225" style="fill:none;stroke:#000000;stroke-width:0.7;stroke-linecap:round;" y2="-36.624"/>
  <line y1="-36.624" x1="42.429" x2="42.429" style="fill:none;stroke:#000000;stroke-width:0.7;stroke-linecap:round;" y2="-36.624"/>
  <line y1="-36.624" x1="46.021" x2="46.021" style="fill:none;stroke:#000000;stroke-width:0.7;stroke-linecap:round;" y2="-36.624"/>
  <line y1="-30.929" x1="1.121" x2="1.121" style="fill:none;stroke:#000000;stroke-width:0.7;stroke-linecap:round;" y2="-30.929"/>
  <line y1="-30.929" x1="4.713" x2="4.713" style="fill:none;stroke:#000000;stroke-width:0.7;stroke-linecap:round;" y2="-30.929"/>
  <line y1="-30.929" x1="2.917" x2="2.917" style="fill:none;stroke:#000000;stroke-width:0.7;stroke-linecap:round;" y2="-30.929"/>
  <line y1="-30.929" x1="8.309" x2="8.309" style="fill:none;stroke:#000000;stroke-width:0.7;stroke-linecap:round;" y2="-30.929"/>
  <line y1="-30.929" x1="6.514" x2="6.514" style="fill:none;stroke:#000000;stroke-width:0.7;stroke-linecap:round;" y2="-30.929"/>
  <line y1="-30.929" x1="11.899" x2="11.899" style="fill:none;stroke:#000000;stroke-width:0.7;stroke-linecap:round;" y2="-30.929"/>
  <line y1="-30.929" x1="10.104" x2="10.104" style="fill:none;stroke:#000000;stroke-width:0.7;stroke-linecap:round;" y2="-30.929"/>
  <line y1="-30.929" x1="15.491" x2="15.491" style="fill:none;stroke:#000000;stroke-width:0.7;stroke-linecap:round;" y2="-30.929"/>
  <line y1="-30.929" x1="13.695" x2="13.695" style="fill:none;stroke:#000000;stroke-width:0.7;stroke-linecap:round;" y2="-30.929"/>
  <line y1="-30.929" x1="19.082" x2="19.082" style="fill:none;stroke:#000000;stroke-width:0.7;stroke-linecap:round;" y2="-30.929"/>
  <line y1="-30.929" x1="17.286" x2="17.286" style="fill:none;stroke:#000000;stroke-width:0.7;stroke-linecap:round;" y2="-30.929"/>
  <line y1="-30.929" x1="22.679" x2="22.679" style="fill:none;stroke:#000000;stroke-width:0.7;stroke-linecap:round;" y2="-30.929"/>
  <line y1="-30.929" x1="20.883" x2="20.883" style="fill:none;stroke:#000000;stroke-width:0.7;stroke-linecap:round;" y2="-30.929"/>
  <line y1="-30.929" x1="26.27" x2="26.27" style="fill:none;stroke:#000000;stroke-width:0.7;stroke-linecap:round;" y2="-30.929"/>
  <line y1="-30.929" x1="24.474" x2="24.474" style="fill:none;stroke:#000000;stroke-width:0.7;stroke-linecap:round;" y2="-30.929"/>
  <line y1="-30.929" x1="29.855" x2="29.855" style="fill:none;stroke:#000000;stroke-width:0.7;stroke-linecap:round;" y2="-30.929"/>
  <line y1="-30.929" x1="28.06" x2="28.06" style="fill:none;stroke:#000000;stroke-width:0.7;stroke-linecap:round;" y2="-30.929"/>
  <line y1="-30.929" x1="33.446" x2="33.446" style="fill:none;stroke:#000000;stroke-width:0.7;stroke-linecap:round;" y2="-30.929"/>
  <line y1="-30.929" x1="31.65" x2="31.65" style="fill:none;stroke:#000000;stroke-width:0.7;stroke-linecap:round;" y2="-30.929"/>
  <line y1="-30.929" x1="37.042" x2="37.042" style="fill:none;stroke:#000000;stroke-width:0.7;stroke-linecap:round;" y2="-30.929"/>
  <line y1="-30.929" x1="35.247" x2="35.247" style="fill:none;stroke:#000000;stroke-width:0.7;stroke-linecap:round;" y2="-30.929"/>
  <line y1="-30.929" x1="40.634" x2="40.634" style="fill:none;stroke:#000000;stroke-width:0.7;stroke-linecap:round;" y2="-30.929"/>
  <line y1="-30.929" x1="38.838" x2="38.838" style="fill:none;stroke:#000000;stroke-width:0.7;stroke-linecap:round;" y2="-30.929"/>
  <line y1="-30.929" x1="44.225" x2="44.225" style="fill:none;stroke:#000000;stroke-width:0.7;stroke-linecap:round;" y2="-30.929"/>
  <line y1="-30.929" x1="42.429" x2="42.429" style="fill:none;stroke:#000000;stroke-width:0.7;stroke-linecap:round;" y2="-30.929"/>
  <line y1="-30.929" x1="46.021" x2="46.021" style="fill:none;stroke:#000000;stroke-width:0.7;stroke-linecap:round;" y2="-30.929"/>
  <line y1="-25.044" x1="1.121" x2="1.121" style="fill:none;stroke:#000000;stroke-width:0.7;stroke-linecap:round;" y2="-25.044"/>
  <line y1="-25.044" x1="4.713" x2="4.713" style="fill:none;stroke:#000000;stroke-width:0.7;stroke-linecap:round;" y2="-25.044"/>
  <line y1="-25.044" x1="2.917" x2="2.917" style="fill:none;stroke:#000000;stroke-width:0.7;stroke-linecap:round;" y2="-25.044"/>
  <line y1="-25.044" x1="8.309" x2="8.309" style="fill:none;stroke:#000000;stroke-width:0.7;stroke-linecap:round;" y2="-25.044"/>
  <line y1="-25.044" x1="6.514" x2="6.514" style="fill:none;stroke:#000000;stroke-width:0.7;stroke-linecap:round;" y2="-25.044"/>
  <line y1="-25.044" x1="11.899" x2="11.899" style="fill:none;stroke:#000000;stroke-width:0.7;stroke-linecap:round;" y2="-25.044"/>
  <line y1="-25.044" x1="10.104" x2="10.104" style="fill:none;stroke:#000000;stroke-width:0.7;stroke-linecap:round;" y2="-25.044"/>
  <line y1="-25.044" x1="15.491" x2="15.491" style="fill:none;stroke:#000000;stroke-width:0.7;stroke-linecap:round;" y2="-25.044"/>
  <line y1="-25.044" x1="13.695" x2="13.695" style="fill:none;stroke:#000000;stroke-width:0.7;stroke-linecap:round;" y2="-25.044"/>
  <line y1="-25.044" x1="19.082" x2="19.082" style="fill:none;stroke:#000000;stroke-width:0.7;stroke-linecap:round;" y2="-25.044"/>
  <line y1="-25.044" x1="17.286" x2="17.286" style="fill:none;stroke:#000000;stroke-width:0.7;stroke-linecap:round;" y2="-25.044"/>
  <line y1="-25.044" x1="22.679" x2="22.679" style="fill:none;stroke:#000000;stroke-width:0.7;stroke-linecap:round;" y2="-25.044"/>
  <line y1="-25.044" x1="20.883" x2="20.883" style="fill:none;stroke:#000000;stroke-width:0.7;stroke-linecap:round;" y2="-25.044"/>
  <line y1="-25.044" x1="26.27" x2="26.27" style="fill:none;stroke:#000000;stroke-width:0.7;stroke-linecap:round;" y2="-25.044"/>
  <line y1="-25.044" x1="24.474" x2="24.474" style="fill:none;stroke:#000000;stroke-width:0.7;stroke-linecap:round;" y2="-25.044"/>
  <line y1="-25.044" x1="29.855" x2="29.855" style="fill:none;stroke:#000000;stroke-width:0.7;stroke-linecap:round;" y2="-25.044"/>
  <line y1="-25.044" x1="28.06" x2="28.06" style="fill:none;stroke:#000000;stroke-width:0.7;stroke-linecap:round;" y2="-25.044"/>
  <line y1="-25.044" x1="33.446" x2="33.446" style="fill:none;stroke:#000000;stroke-width:0.7;stroke-linecap:round;" y2="-25.044"/>
  <line y1="-25.044" x1="31.65" x2="31.65" style="fill:none;stroke:#000000;stroke-width:0.7;stroke-linecap:round;" y2="-25.044"/>
  <line y1="-25.044" x1="37.042" x2="37.042" style="fill:none;stroke:#000000;stroke-width:0.7;stroke-linecap:round;" y2="-25.044"/>
  <line y1="-25.044" x1="35.247" x2="35.247" style="fill:none;stroke:#000000;stroke-width:0.7;stroke-linecap:round;" y2="-25.044"/>
  <line y1="-25.044" x1="40.634" x2="40.634" style="fill:none;stroke:#000000;stroke-width:0.7;stroke-linecap:round;" y2="-25.044"/>
  <line y1="-25.044" x1="38.838" x2="38.838" style="fill:none;stroke:#000000;stroke-width:0.7;stroke-linecap:round;" y2="-25.044"/>
  <line y1="-25.044" x1="44.225" x2="44.225" style="fill:none;stroke:#000000;stroke-width:0.7;stroke-linecap:round;" y2="-25.044"/>
  <line y1="-25.044" x1="42.429" x2="42.429" style="fill:none;stroke:#000000;stroke-width:0.7;stroke-linecap:round;" y2="-25.044"/>
  <line y1="-25.044" x1="46.021" x2="46.021" style="fill:none;stroke:#000000;stroke-width:0.7;stroke-linecap:round;" y2="-25.044"/>
  <line y1="-19.224" x1="1.121" x2="1.121" style="fill:none;stroke:#000000;stroke-width:0.7;stroke-linecap:round;" y2="-19.224"/>
  <line y1="-19.224" x1="4.713" x2="4.713" style="fill:none;stroke:#000000;stroke-width:0.7;stroke-linecap:round;" y2="-19.224"/>
  <line y1="-19.224" x1="2.917" x2="2.917" style="fill:none;stroke:#000000;stroke-width:0.7;stroke-linecap:round;" y2="-19.224"/>
  <line y1="-19.224" x1="8.309" x2="8.309" style="fill:none;stroke:#000000;stroke-width:0.7;stroke-linecap:round;" y2="-19.224"/>
  <line y1="-19.224" x1="6.514" x2="6.514" style="fill:none;stroke:#000000;stroke-width:0.7;stroke-linecap:round;" y2="-19.224"/>
  <line y1="-19.224" x1="11.899" x2="11.899" style="fill:none;stroke:#000000;stroke-width:0.7;stroke-linecap:round;" y2="-19.224"/>
  <line y1="-19.224" x1="10.104" x2="10.104" style="fill:none;stroke:#000000;stroke-width:0.7;stroke-linecap:round;" y2="-19.224"/>
  <line y1="-19.224" x1="15.491" x2="15.491" style="fill:none;stroke:#000000;stroke-width:0.7;stroke-linecap:round;" y2="-19.224"/>
  <line y1="-19.224" x1="13.695" x2="13.695" style="fill:none;stroke:#000000;stroke-width:0.7;stroke-linecap:round;" y2="-19.224"/>
  <line y1="-19.224" x1="19.082" x2="19.082" style="fill:none;stroke:#000000;stroke-width:0.7;stroke-linecap:round;" y2="-19.224"/>
  <line y1="-19.224" x1="17.286" x2="17.286" style="fill:none;stroke:#000000;stroke-width:0.7;stroke-linecap:round;" y2="-19.224"/>
  <line y1="-19.224" x1="22.679" x2="22.679" style="fill:none;stroke:#000000;stroke-width:0.7;stroke-linecap:round;" y2="-19.224"/>
  <line y1="-19.224" x1="20.883" x2="20.883" style="fill:none;stroke:#000000;stroke-width:0.7;stroke-linecap:round;" y2="-19.224"/>
  <line y1="-19.224" x1="26.27" x2="26.27" style="fill:none;stroke:#000000;stroke-width:0.7;stroke-linecap:round;" y2="-19.224"/>
  <line y1="-19.224" x1="24.474" x2="24.474" style="fill:none;stroke:#000000;stroke-width:0.7;stroke-linecap:round;" y2="-19.224"/>
  <line y1="-19.224" x1="29.855" x2="29.855" style="fill:none;stroke:#000000;stroke-width:0.7;stroke-linecap:round;" y2="-19.224"/>
  <line y1="-19.224" x1="28.06" x2="28.06" style="fill:none;stroke:#000000;stroke-width:0.7;stroke-linecap:round;" y2="-19.224"/>
  <line y1="-19.224" x1="33.446" x2="33.446" style="fill:none;stroke:#000000;stroke-width:0.7;stroke-linecap:round;" y2="-19.224"/>
  <line y1="-19.224" x1="31.65" x2="31.65" style="fill:none;stroke:#000000;stroke-width:0.7;stroke-linecap:round;" y2="-19.224"/>
  <line y1="-19.224" x1="37.042" x2="37.042" style="fill:none;stroke:#000000;stroke-width:0.7;stroke-linecap:round;" y2="-19.224"/>
  <line y1="-19.224" x1="35.247" x2="35.247" style="fill:none;stroke:#000000;stroke-width:0.7;stroke-linecap:round;" y2="-19.224"/>
  <line y1="-19.224" x1="40.634" x2="40.634" style="fill:none;stroke:#000000;stroke-width:0.7;stroke-linecap:round;" y2="-19.224"/>
  <line y1="-19.224" x1="38.838" x2="38.838" style="fill:none;stroke:#000000;stroke-width:0.7;stroke-linecap:round;" y2="-19.224"/>
  <line y1="-19.224" x1="44.225" x2="44.225" style="fill:none;stroke:#000000;stroke-width:0.7;stroke-linecap:round;" y2="-19.224"/>
  <line y1="-19.224" x1="42.429" x2="42.429" style="fill:none;stroke:#000000;stroke-width:0.7;stroke-linecap:round;" y2="-19.224"/>
  <line y1="-19.224" x1="46.021" x2="46.021" style="fill:none;stroke:#000000;stroke-width:0.7;stroke-linecap:round;" y2="-19.224"/>
  <line y1="-13.464" x1="1.121" x2="1.121" style="fill:none;stroke:#000000;stroke-width:0.7;stroke-linecap:round;" y2="-13.464"/>
  <line y1="-13.464" x1="4.713" x2="4.713" style="fill:none;stroke:#000000;stroke-width:0.7;stroke-linecap:round;" y2="-13.464"/>
  <line y1="-13.464" x1="2.917" x2="2.917" style="fill:none;stroke:#000000;stroke-width:0.7;stroke-linecap:round;" y2="-13.464"/>
  <line y1="-13.464" x1="8.309" x2="8.309" style="fill:none;stroke:#000000;stroke-width:0.7;stroke-linecap:round;" y2="-13.464"/>
  <line y1="-13.464" x1="6.514" x2="6.514" style="fill:none;stroke:#000000;stroke-width:0.7;stroke-linecap:round;" y2="-13.464"/>
  <line y1="-13.464" x1="11.899" x2="11.899" style="fill:none;stroke:#000000;stroke-width:0.7;stroke-linecap:round;" y2="-13.464"/>
  <line y1="-13.464" x1="10.104" x2="10.104" style="fill:none;stroke:#000000;stroke-width:0.7;stroke-linecap:round;" y2="-13.464"/>
  <line y1="-13.464" x1="15.491" x2="15.491" style="fill:none;stroke:#000000;stroke-width:0.7;stroke-linecap:round;" y2="-13.464"/>
  <line y1="-13.464" x1="13.695" x2="13.695" style="fill:none;stroke:#000000;stroke-width:0.7;stroke-linecap:round;" y2="-13.464"/>
  <line y1="-13.464" x1="19.082" x2="19.082" style="fill:none;stroke:#000000;stroke-width:0.7;stroke-linecap:round;" y2="-13.464"/>
  <line y1="-13.464" x1="17.286" x2="17.286" style="fill:none;stroke:#000000;stroke-width:0.7;stroke-linecap:round;" y2="-13.464"/>
  <line y1="-13.464" x1="22.679" x2="22.679" style="fill:none;stroke:#000000;stroke-width:0.7;stroke-linecap:round;" y2="-13.464"/>
  <line y1="-13.464" x1="20.883" x2="20.883" style="fill:none;stroke:#000000;stroke-width:0.7;stroke-linecap:round;" y2="-13.464"/>
  <line y1="-13.464" x1="26.27" x2="26.27" style="fill:none;stroke:#000000;stroke-width:0.7;stroke-linecap:round;" y2="-13.464"/>
  <line y1="-13.464" x1="24.474" x2="24.474" style="fill:none;stroke:#000000;stroke-width:0.7;stroke-linecap:round;" y2="-13.464"/>
  <line y1="-13.464" x1="29.855" x2="29.855" style="fill:none;stroke:#000000;stroke-width:0.7;stroke-linecap:round;" y2="-13.464"/>
  <line y1="-13.464" x1="28.06" x2="28.06" style="fill:none;stroke:#000000;stroke-width:0.7;stroke-linecap:round;" y2="-13.464"/>
  <line y1="-13.464" x1="33.446" x2="33.446" style="fill:none;stroke:#000000;stroke-width:0.7;stroke-linecap:round;" y2="-13.464"/>
  <line y1="-13.464" x1="31.65" x2="31.65" style="fill:none;stroke:#000000;stroke-width:0.7;stroke-linecap:round;" y2="-13.464"/>
  <line y1="-13.464" x1="37.042" x2="37.042" style="fill:none;stroke:#000000;stroke-width:0.7;stroke-linecap:round;" y2="-13.464"/>
  <line y1="-13.464" x1="35.247" x2="35.247" style="fill:none;stroke:#000000;stroke-width:0.7;stroke-linecap:round;" y2="-13.464"/>
  <line y1="-13.464" x1="40.634" x2="40.634" style="fill:none;stroke:#000000;stroke-width:0.7;stroke-linecap:round;" y2="-13.464"/>
  <line y1="-13.464" x1="38.838" x2="38.838" style="fill:none;stroke:#000000;stroke-width:0.7;stroke-linecap:round;" y2="-13.464"/>
  <line y1="-13.464" x1="44.225" x2="44.225" style="fill:none;stroke:#000000;stroke-width:0.7;stroke-linecap:round;" y2="-13.464"/>
  <line y1="-13.464" x1="42.429" x2="42.429" style="fill:none;stroke:#000000;stroke-width:0.7;stroke-linecap:round;" y2="-13.464"/>
  <line y1="-13.464" x1="46.021" x2="46.021" style="fill:none;stroke:#000000;stroke-width:0.7;stroke-linecap:round;" y2="-13.464"/>
  <line y1="-7.583" x1="1.121" x2="1.121" style="fill:none;stroke:#000000;stroke-width:0.7;stroke-linecap:round;" y2="-7.583"/>
  <line y1="-7.583" x1="4.713" x2="4.713" style="fill:none;stroke:#000000;stroke-width:0.7;stroke-linecap:round;" y2="-7.583"/>
  <line y1="-7.583" x1="2.917" x2="2.917" style="fill:none;stroke:#000000;stroke-width:0.7;stroke-linecap:round;" y2="-7.583"/>
  <line y1="-7.583" x1="8.309" x2="8.309" style="fill:none;stroke:#000000;stroke-width:0.7;stroke-linecap:round;" y2="-7.583"/>
  <line y1="-7.583" x1="6.514" x2="6.514" style="fill:none;stroke:#000000;stroke-width:0.7;stroke-linecap:round;" y2="-7.583"/>
  <line y1="-7.583" x1="11.899" x2="11.899" style="fill:none;stroke:#000000;stroke-width:0.7;stroke-linecap:round;" y2="-7.583"/>
  <line y1="-7.583" x1="10.104" x2="10.104" style="fill:none;stroke:#000000;stroke-width:0.7;stroke-linecap:round;" y2="-7.583"/>
  <line y1="-7.583" x1="15.491" x2="15.491" style="fill:none;stroke:#000000;stroke-width:0.7;stroke-linecap:round;" y2="-7.583"/>
  <line y1="-7.583" x1="13.695" x2="13.695" style="fill:none;stroke:#000000;stroke-width:0.7;stroke-linecap:round;" y2="-7.583"/>
  <line y1="-7.583" x1="19.082" x2="19.082" style="fill:none;stroke:#000000;stroke-width:0.7;stroke-linecap:round;" y2="-7.583"/>
  <line y1="-7.583" x1="17.286" x2="17.286" style="fill:none;stroke:#000000;stroke-width:0.7;stroke-linecap:round;" y2="-7.583"/>
  <line y1="-7.583" x1="22.679" x2="22.679" style="fill:none;stroke:#000000;stroke-width:0.7;stroke-linecap:round;" y2="-7.583"/>
  <line y1="-7.583" x1="20.883" x2="20.883" style="fill:none;stroke:#000000;stroke-width:0.7;stroke-linecap:round;" y2="-7.583"/>
  <line y1="-7.583" x1="26.27" x2="26.27" style="fill:none;stroke:#000000;stroke-width:0.7;stroke-linecap:round;" y2="-7.583"/>
  <line y1="-7.583" x1="24.474" x2="24.474" style="fill:none;stroke:#000000;stroke-width:0.7;stroke-linecap:round;" y2="-7.583"/>
  <line y1="-7.583" x1="29.855" x2="29.855" style="fill:none;stroke:#000000;stroke-width:0.7;stroke-linecap:round;" y2="-7.583"/>
  <line y1="-7.583" x1="28.06" x2="28.06" style="fill:none;stroke:#000000;stroke-width:0.7;stroke-linecap:round;" y2="-7.583"/>
  <line y1="-7.583" x1="33.446" x2="33.446" style="fill:none;stroke:#000000;stroke-width:0.7;stroke-linecap:round;" y2="-7.583"/>
  <line y1="-7.583" x1="31.65" x2="31.65" style="fill:none;stroke:#000000;stroke-width:0.7;stroke-linecap:round;" y2="-7.583"/>
  <line y1="-7.583" x1="37.042" x2="37.042" style="fill:none;stroke:#000000;stroke-width:0.7;stroke-linecap:round;" y2="-7.583"/>
  <line y1="-7.583" x1="35.247" x2="35.247" style="fill:none;stroke:#000000;stroke-width:0.7;stroke-linecap:round;" y2="-7.583"/>
  <line y1="-7.583" x1="40.634" x2="40.634" style="fill:none;stroke:#000000;stroke-width:0.7;stroke-linecap:round;" y2="-7.583"/>
  <line y1="-7.583" x1="38.838" x2="38.838" style="fill:none;stroke:#000000;stroke-width:0.7;stroke-linecap:round;" y2="-7.583"/>
  <line y1="-7.583" x1="44.225" x2="44.225" style="fill:none;stroke:#000000;stroke-width:0.7;stroke-linecap:round;" y2="-7.583"/>
  <line y1="-7.583" x1="42.429" x2="42.429" style="fill:none;stroke:#000000;stroke-width:0.7;stroke-linecap:round;" y2="-7.583"/>
  <line y1="-7.583" x1="46.021" x2="46.021" style="fill:none;stroke:#000000;stroke-width:0.7;stroke-linecap:round;" y2="-7.583"/>
  <line y1="-1.824" x1="1.121" x2="1.121" style="fill:none;stroke:#000000;stroke-width:0.7;stroke-linecap:round;" y2="-1.824"/>
  <line y1="-1.824" x1="4.713" x2="4.713" style="fill:none;stroke:#000000;stroke-width:0.7;stroke-linecap:round;" y2="-1.824"/>
  <line y1="-1.824" x1="2.917" x2="2.917" style="fill:none;stroke:#000000;stroke-width:0.7;stroke-linecap:round;" y2="-1.824"/>
  <line y1="-1.824" x1="8.309" x2="8.309" style="fill:none;stroke:#000000;stroke-width:0.7;stroke-linecap:round;" y2="-1.824"/>
  <line y1="-1.824" x1="6.514" x2="6.514" style="fill:none;stroke:#000000;stroke-width:0.7;stroke-linecap:round;" y2="-1.824"/>
  <line y1="-1.824" x1="11.899" x2="11.899" style="fill:none;stroke:#000000;stroke-width:0.7;stroke-linecap:round;" y2="-1.824"/>
  <line y1="-1.824" x1="10.104" x2="10.104" style="fill:none;stroke:#000000;stroke-width:0.7;stroke-linecap:round;" y2="-1.824"/>
  <line y1="-1.824" x1="15.491" x2="15.491" style="fill:none;stroke:#000000;stroke-width:0.7;stroke-linecap:round;" y2="-1.824"/>
  <line y1="-1.824" x1="13.695" x2="13.695" style="fill:none;stroke:#000000;stroke-width:0.7;stroke-linecap:round;" y2="-1.824"/>
  <line y1="-1.824" x1="19.082" x2="19.082" style="fill:none;stroke:#000000;stroke-width:0.7;stroke-linecap:round;" y2="-1.824"/>
  <line y1="-1.824" x1="17.286" x2="17.286" style="fill:none;stroke:#000000;stroke-width:0.7;stroke-linecap:round;" y2="-1.824"/>
  <line y1="-1.824" x1="22.679" x2="22.679" style="fill:none;stroke:#000000;stroke-width:0.7;stroke-linecap:round;" y2="-1.824"/>
  <line y1="-1.824" x1="20.883" x2="20.883" style="fill:none;stroke:#000000;stroke-width:0.7;stroke-linecap:round;" y2="-1.824"/>
  <line y1="-1.824" x1="26.27" x2="26.27" style="fill:none;stroke:#000000;stroke-width:0.7;stroke-linecap:round;" y2="-1.824"/>
  <line y1="-1.824" x1="24.474" x2="24.474" style="fill:none;stroke:#000000;stroke-width:0.7;stroke-linecap:round;" y2="-1.824"/>
  <line y1="-1.824" x1="29.855" x2="29.855" style="fill:none;stroke:#000000;stroke-width:0.7;stroke-linecap:round;" y2="-1.824"/>
  <line y1="-1.824" x1="28.06" x2="28.06" style="fill:none;stroke:#000000;stroke-width:0.7;stroke-linecap:round;" y2="-1.824"/>
  <line y1="-1.824" x1="33.446" x2="33.446" style="fill:none;stroke:#000000;stroke-width:0.7;stroke-linecap:round;" y2="-1.824"/>
  <line y1="-1.824" x1="31.65" x2="31.65" style="fill:none;stroke:#000000;stroke-width:0.7;stroke-linecap:round;" y2="-1.824"/>
  <line y1="-1.824" x1="37.042" x2="37.042" style="fill:none;stroke:#000000;stroke-width:0.7;stroke-linecap:round;" y2="-1.824"/>
  <line y1="-1.824" x1="35.247" x2="35.247" style="fill:none;stroke:#000000;stroke-width:0.7;stroke-linecap:round;" y2="-1.824"/>
  <line y1="-1.824" x1="40.634" x2="40.634" style="fill:none;stroke:#000000;stroke-width:0.7;stroke-linecap:round;" y2="-1.824"/>
  <line y1="-1.824" x1="38.838" x2="38.838" style="fill:none;stroke:#000000;stroke-width:0.7;stroke-linecap:round;" y2="-1.824"/>
  <line y1="-1.824" x1="44.225" x2="44.225" style="fill:none;stroke:#000000;stroke-width:0.7;stroke-linecap:round;" y2="-1.824"/>
  <line y1="-1.824" x1="42.429" x2="42.429" style="fill:none;stroke:#000000;stroke-width:0.7;stroke-linecap:round;" y2="-1.824"/>
  <line y1="-1.824" x1="46.021" x2="46.021" style="fill:none;stroke:#000000;stroke-width:0.7;stroke-linecap:round;" y2="-1.824"/>
 </g>
</svg>
