<?xml version="1.0"?>
<!-- Converted with SVG Converter - Version 0.9.5 (Compiled Fri Feb 21 09:53:38 2020) - Copyright (C) 2011 Nokia -->
<svg xmlns="http://www.w3.org/2000/svg" version="1.1" x="0px" viewBox="0 -46.75 46.75 46.75" xmlns:xlink="http://www.w3.org/1999/xlink" y="0px" width="46.75" baseProfile="tiny" height="46.75" xml:space="preserve">
 <g>
  <rect style="fill:none;" y="-46.75" width="46.75" height="46.75"/>
  <line style="fill:none;stroke:#000000;stroke-width:0.3;" y2="-45.438" x1="7.68" x2="1.059" y1="-45.438"/>
  <line style="fill:none;stroke:#000000;stroke-width:0.3;" y2="-45.438" x1="10.333" x2="16.954" y1="-45.438"/>
  <line style="fill:none;stroke:#000000;stroke-width:0.3;" y2="-45.438" x1="19.845" x2="26.466" y1="-45.438"/>
  <line style="fill:none;stroke:#000000;stroke-width:0.3;" y2="-45.438" x1="29.257" x2="35.878" y1="-45.438"/>
  <line style="fill:none;stroke:#000000;stroke-width:0.3;" y2="-45.438" x1="38.594" x2="45.215" y1="-45.438"/>
  <line style="fill:none;stroke:#000000;stroke-width:0.3;" y2="-39.646" x1="0" x2="3.117" y1="-39.646"/>
  <line style="fill:none;stroke:#000000;stroke-width:0.3;" y2="-39.646" x1="12.392" x2="5.771" y1="-39.646"/>
  <line style="fill:none;stroke:#000000;stroke-width:0.3;" y2="-39.646" x1="21.903" x2="15.282" y1="-39.646"/>
  <line style="fill:none;stroke:#000000;stroke-width:0.3;" y2="-39.646" x1="31.315" x2="24.694" y1="-39.646"/>
  <line style="fill:none;stroke:#000000;stroke-width:0.3;" y2="-39.646" x1="40.652" x2="34.031" y1="-39.646"/>
  <line style="fill:none;stroke:#000000;stroke-width:0.3;" y2="-39.646" x1="46.75" x2="43.145" y1="-39.646"/>
  <line style="fill:none;stroke:#000000;stroke-width:0.3;" y2="-33.813" x1="7.68" x2="1.059" y1="-33.813"/>
  <line style="fill:none;stroke:#000000;stroke-width:0.3;" y2="-33.813" x1="16.954" x2="10.333" y1="-33.813"/>
  <line style="fill:none;stroke:#000000;stroke-width:0.3;" y2="-33.813" x1="19.845" x2="26.466" y1="-33.813"/>
  <line style="fill:none;stroke:#000000;stroke-width:0.3;" y2="-33.813" x1="29.257" x2="35.878" y1="-33.813"/>
  <line style="fill:none;stroke:#000000;stroke-width:0.3;" y2="-33.813" x1="38.594" x2="45.215" y1="-33.813"/>
  <line style="fill:none;stroke:#000000;stroke-width:0.3;" y2="-28.021" x1="3.117" x2="0" y1="-28.021"/>
  <line style="fill:none;stroke:#000000;stroke-width:0.3;" y2="-28.021" x1="12.392" x2="5.771" y1="-28.021"/>
  <line style="fill:none;stroke:#000000;stroke-width:0.3;" y2="-28.021" x1="21.903" x2="15.282" y1="-28.021"/>
  <line style="fill:none;stroke:#000000;stroke-width:0.3;" y2="-28.021" x1="31.315" x2="24.694" y1="-28.021"/>
  <line style="fill:none;stroke:#000000;stroke-width:0.3;" y2="-28.021" x1="40.652" x2="34.031" y1="-28.021"/>
  <line style="fill:none;stroke:#000000;stroke-width:0.3;" y2="-28.021" x1="43.145" x2="46.75" y1="-28.021"/>
  <line style="fill:none;stroke:#000000;stroke-width:0.3;" y2="-22.182" x1="1.059" x2="7.68" y1="-22.182"/>
  <line style="fill:none;stroke:#000000;stroke-width:0.3;" y2="-22.182" x1="16.954" x2="10.333" y1="-22.182"/>
  <line style="fill:none;stroke:#000000;stroke-width:0.3;" y2="-22.182" x1="26.466" x2="19.845" y1="-22.182"/>
  <line style="fill:none;stroke:#000000;stroke-width:0.3;" y2="-22.182" x1="29.257" x2="35.878" y1="-22.182"/>
  <line style="fill:none;stroke:#000000;stroke-width:0.3;" y2="-22.182" x1="38.594" x2="45.215" y1="-22.182"/>
  <line style="fill:none;stroke:#000000;stroke-width:0.3;" y2="-16.391" x1="3.117" x2="0" y1="-16.391"/>
  <line style="fill:none;stroke:#000000;stroke-width:0.3;" y2="-16.391" x1="12.392" x2="5.771" y1="-16.391"/>
  <line style="fill:none;stroke:#000000;stroke-width:0.3;" y2="-16.391" x1="15.282" x2="21.903" y1="-16.391"/>
  <line style="fill:none;stroke:#000000;stroke-width:0.3;" y2="-16.391" x1="31.315" x2="24.694" y1="-16.391"/>
  <line style="fill:none;stroke:#000000;stroke-width:0.3;" y2="-16.391" x1="34.031" x2="40.652" y1="-16.391"/>
  <line style="fill:none;stroke:#000000;stroke-width:0.3;" y2="-16.391" x1="43.145" x2="46.75" y1="-16.391"/>
  <line style="fill:none;stroke:#000000;stroke-width:0.3;" y2="-10.578" x1="7.68" x2="1.059" y1="-10.578"/>
  <line style="fill:none;stroke:#000000;stroke-width:0.3;" y2="-10.578" x1="16.954" x2="10.333" y1="-10.578"/>
  <line style="fill:none;stroke:#000000;stroke-width:0.3;" y2="-10.578" x1="19.845" x2="26.466" y1="-10.578"/>
  <line style="fill:none;stroke:#000000;stroke-width:0.3;" y2="-10.578" x1="29.257" x2="35.878" y1="-10.578"/>
  <line style="fill:none;stroke:#000000;stroke-width:0.3;" y2="-10.578" x1="38.594" x2="45.215" y1="-10.578"/>
  <line style="fill:none;stroke:#000000;stroke-width:0.3;" y2="-4.786" x1="3.117" x2="0" y1="-4.786"/>
  <line style="fill:none;stroke:#000000;stroke-width:0.3;" y2="-4.786" x1="5.771" x2="12.392" y1="-4.786"/>
  <line style="fill:none;stroke:#000000;stroke-width:0.3;" y2="-4.786" x1="21.903" x2="15.282" y1="-4.786"/>
  <line style="fill:none;stroke:#000000;stroke-width:0.3;" y2="-4.786" x1="31.315" x2="24.694" y1="-4.786"/>
  <line style="fill:none;stroke:#000000;stroke-width:0.3;" y2="-4.786" x1="40.652" x2="34.031" y1="-4.786"/>
  <line style="fill:none;stroke:#000000;stroke-width:0.3;" y2="-4.786" x1="43.145" x2="46.75" y1="-4.786"/>
  <line style="fill:none;stroke:#000000;stroke-width:0.7;stroke-linecap:round;" y2="-42.499" x1="1.121" x2="1.121" y1="-42.499"/>
  <line style="fill:none;stroke:#000000;stroke-width:0.7;stroke-linecap:round;" y2="-42.499" x1="4.713" x2="4.713" y1="-42.499"/>
  <line style="fill:none;stroke:#000000;stroke-width:0.7;stroke-linecap:round;" y2="-42.499" x1="2.917" x2="2.917" y1="-42.499"/>
  <line style="fill:none;stroke:#000000;stroke-width:0.7;stroke-linecap:round;" y2="-42.499" x1="8.309" x2="8.309" y1="-42.499"/>
  <line style="fill:none;stroke:#000000;stroke-width:0.7;stroke-linecap:round;" y2="-42.499" x1="6.514" x2="6.514" y1="-42.499"/>
  <line style="fill:none;stroke:#000000;stroke-width:0.7;stroke-linecap:round;" y2="-42.499" x1="11.899" x2="11.899" y1="-42.499"/>
  <line style="fill:none;stroke:#000000;stroke-width:0.7;stroke-linecap:round;" y2="-42.499" x1="10.104" x2="10.104" y1="-42.499"/>
  <line style="fill:none;stroke:#000000;stroke-width:0.7;stroke-linecap:round;" y2="-42.499" x1="15.491" x2="15.491" y1="-42.499"/>
  <line style="fill:none;stroke:#000000;stroke-width:0.7;stroke-linecap:round;" y2="-42.499" x1="13.695" x2="13.695" y1="-42.499"/>
  <line style="fill:none;stroke:#000000;stroke-width:0.7;stroke-linecap:round;" y2="-42.499" x1="19.082" x2="19.082" y1="-42.499"/>
  <line style="fill:none;stroke:#000000;stroke-width:0.7;stroke-linecap:round;" y2="-42.499" x1="17.286" x2="17.286" y1="-42.499"/>
  <line style="fill:none;stroke:#000000;stroke-width:0.7;stroke-linecap:round;" y2="-42.499" x1="22.678" x2="22.678" y1="-42.499"/>
  <line style="fill:none;stroke:#000000;stroke-width:0.7;stroke-linecap:round;" y2="-42.499" x1="20.883" x2="20.883" y1="-42.499"/>
  <line style="fill:none;stroke:#000000;stroke-width:0.7;stroke-linecap:round;" y2="-42.499" x1="26.27" x2="26.27" y1="-42.499"/>
  <line style="fill:none;stroke:#000000;stroke-width:0.7;stroke-linecap:round;" y2="-42.499" x1="24.474" x2="24.474" y1="-42.499"/>
  <line style="fill:none;stroke:#000000;stroke-width:0.7;stroke-linecap:round;" y2="-42.499" x1="29.855" x2="29.855" y1="-42.499"/>
  <line style="fill:none;stroke:#000000;stroke-width:0.7;stroke-linecap:round;" y2="-42.499" x1="28.06" x2="28.06" y1="-42.499"/>
  <line style="fill:none;stroke:#000000;stroke-width:0.7;stroke-linecap:round;" y2="-42.499" x1="33.446" x2="33.446" y1="-42.499"/>
  <line style="fill:none;stroke:#000000;stroke-width:0.7;stroke-linecap:round;" y2="-42.499" x1="31.65" x2="31.65" y1="-42.499"/>
  <line style="fill:none;stroke:#000000;stroke-width:0.7;stroke-linecap:round;" y2="-42.499" x1="37.042" x2="37.042" y1="-42.499"/>
  <line style="fill:none;stroke:#000000;stroke-width:0.7;stroke-linecap:round;" y2="-42.499" x1="35.247" x2="35.247" y1="-42.499"/>
  <line style="fill:none;stroke:#000000;stroke-width:0.7;stroke-linecap:round;" y2="-42.499" x1="40.634" x2="40.634" y1="-42.499"/>
  <line style="fill:none;stroke:#000000;stroke-width:0.7;stroke-linecap:round;" y2="-42.499" x1="38.838" x2="38.838" y1="-42.499"/>
  <line style="fill:none;stroke:#000000;stroke-width:0.7;stroke-linecap:round;" y2="-42.499" x1="44.225" x2="44.225" y1="-42.499"/>
  <line style="fill:none;stroke:#000000;stroke-width:0.7;stroke-linecap:round;" y2="-42.499" x1="42.429" x2="42.429" y1="-42.499"/>
  <line style="fill:none;stroke:#000000;stroke-width:0.7;stroke-linecap:round;" y2="-42.499" x1="46.02" x2="46.02" y1="-42.499"/>
  <line style="fill:none;stroke:#000000;stroke-width:0.7;stroke-linecap:round;" y2="-36.624" x1="1.121" x2="1.121" y1="-36.624"/>
  <line style="fill:none;stroke:#000000;stroke-width:0.7;stroke-linecap:round;" y2="-36.624" x1="4.713" x2="4.713" y1="-36.624"/>
  <line style="fill:none;stroke:#000000;stroke-width:0.7;stroke-linecap:round;" y2="-36.624" x1="2.917" x2="2.917" y1="-36.624"/>
  <line style="fill:none;stroke:#000000;stroke-width:0.7;stroke-linecap:round;" y2="-36.624" x1="8.309" x2="8.309" y1="-36.624"/>
  <line style="fill:none;stroke:#000000;stroke-width:0.7;stroke-linecap:round;" y2="-36.624" x1="6.514" x2="6.514" y1="-36.624"/>
  <line style="fill:none;stroke:#000000;stroke-width:0.7;stroke-linecap:round;" y2="-36.624" x1="11.899" x2="11.899" y1="-36.624"/>
  <line style="fill:none;stroke:#000000;stroke-width:0.7;stroke-linecap:round;" y2="-36.624" x1="10.104" x2="10.104" y1="-36.624"/>
  <line style="fill:none;stroke:#000000;stroke-width:0.7;stroke-linecap:round;" y2="-36.624" x1="15.491" x2="15.491" y1="-36.624"/>
  <line style="fill:none;stroke:#000000;stroke-width:0.7;stroke-linecap:round;" y2="-36.624" x1="13.695" x2="13.695" y1="-36.624"/>
  <line style="fill:none;stroke:#000000;stroke-width:0.7;stroke-linecap:round;" y2="-36.624" x1="19.082" x2="19.082" y1="-36.624"/>
  <line style="fill:none;stroke:#000000;stroke-width:0.7;stroke-linecap:round;" y2="-36.624" x1="17.286" x2="17.286" y1="-36.624"/>
  <line style="fill:none;stroke:#000000;stroke-width:0.7;stroke-linecap:round;" y2="-36.624" x1="22.678" x2="22.678" y1="-36.624"/>
  <line style="fill:none;stroke:#000000;stroke-width:0.7;stroke-linecap:round;" y2="-36.624" x1="20.883" x2="20.883" y1="-36.624"/>
  <line style="fill:none;stroke:#000000;stroke-width:0.7;stroke-linecap:round;" y2="-36.624" x1="26.27" x2="26.27" y1="-36.624"/>
  <line style="fill:none;stroke:#000000;stroke-width:0.7;stroke-linecap:round;" y2="-36.624" x1="24.474" x2="24.474" y1="-36.624"/>
  <line style="fill:none;stroke:#000000;stroke-width:0.7;stroke-linecap:round;" y2="-36.624" x1="29.855" x2="29.855" y1="-36.624"/>
  <line style="fill:none;stroke:#000000;stroke-width:0.7;stroke-linecap:round;" y2="-36.624" x1="28.06" x2="28.06" y1="-36.624"/>
  <line style="fill:none;stroke:#000000;stroke-width:0.7;stroke-linecap:round;" y2="-36.624" x1="33.446" x2="33.446" y1="-36.624"/>
  <line style="fill:none;stroke:#000000;stroke-width:0.7;stroke-linecap:round;" y2="-36.624" x1="31.65" x2="31.65" y1="-36.624"/>
  <line style="fill:none;stroke:#000000;stroke-width:0.7;stroke-linecap:round;" y2="-36.624" x1="37.042" x2="37.042" y1="-36.624"/>
  <line style="fill:none;stroke:#000000;stroke-width:0.7;stroke-linecap:round;" y2="-36.624" x1="35.247" x2="35.247" y1="-36.624"/>
  <line style="fill:none;stroke:#000000;stroke-width:0.7;stroke-linecap:round;" y2="-36.624" x1="40.634" x2="40.634" y1="-36.624"/>
  <line style="fill:none;stroke:#000000;stroke-width:0.7;stroke-linecap:round;" y2="-36.624" x1="38.838" x2="38.838" y1="-36.624"/>
  <line style="fill:none;stroke:#000000;stroke-width:0.7;stroke-linecap:round;" y2="-36.624" x1="44.225" x2="44.225" y1="-36.624"/>
  <line style="fill:none;stroke:#000000;stroke-width:0.7;stroke-linecap:round;" y2="-36.624" x1="42.429" x2="42.429" y1="-36.624"/>
  <line style="fill:none;stroke:#000000;stroke-width:0.7;stroke-linecap:round;" y2="-36.624" x1="46.02" x2="46.02" y1="-36.624"/>
  <line style="fill:none;stroke:#000000;stroke-width:0.7;stroke-linecap:round;" y2="-30.929" x1="1.121" x2="1.121" y1="-30.929"/>
  <line style="fill:none;stroke:#000000;stroke-width:0.7;stroke-linecap:round;" y2="-30.929" x1="4.713" x2="4.713" y1="-30.929"/>
  <line style="fill:none;stroke:#000000;stroke-width:0.7;stroke-linecap:round;" y2="-30.929" x1="2.917" x2="2.917" y1="-30.929"/>
  <line style="fill:none;stroke:#000000;stroke-width:0.7;stroke-linecap:round;" y2="-30.929" x1="8.309" x2="8.309" y1="-30.929"/>
  <line style="fill:none;stroke:#000000;stroke-width:0.7;stroke-linecap:round;" y2="-30.929" x1="6.514" x2="6.514" y1="-30.929"/>
  <line style="fill:none;stroke:#000000;stroke-width:0.7;stroke-linecap:round;" y2="-30.929" x1="11.899" x2="11.899" y1="-30.929"/>
  <line style="fill:none;stroke:#000000;stroke-width:0.7;stroke-linecap:round;" y2="-30.929" x1="10.104" x2="10.104" y1="-30.929"/>
  <line style="fill:none;stroke:#000000;stroke-width:0.7;stroke-linecap:round;" y2="-30.929" x1="15.491" x2="15.491" y1="-30.929"/>
  <line style="fill:none;stroke:#000000;stroke-width:0.7;stroke-linecap:round;" y2="-30.929" x1="13.695" x2="13.695" y1="-30.929"/>
  <line style="fill:none;stroke:#000000;stroke-width:0.7;stroke-linecap:round;" y2="-30.929" x1="19.082" x2="19.082" y1="-30.929"/>
  <line style="fill:none;stroke:#000000;stroke-width:0.7;stroke-linecap:round;" y2="-30.929" x1="17.286" x2="17.286" y1="-30.929"/>
  <line style="fill:none;stroke:#000000;stroke-width:0.7;stroke-linecap:round;" y2="-30.929" x1="22.678" x2="22.678" y1="-30.929"/>
  <line style="fill:none;stroke:#000000;stroke-width:0.7;stroke-linecap:round;" y2="-30.929" x1="20.883" x2="20.883" y1="-30.929"/>
  <line style="fill:none;stroke:#000000;stroke-width:0.7;stroke-linecap:round;" y2="-30.929" x1="26.27" x2="26.27" y1="-30.929"/>
  <line style="fill:none;stroke:#000000;stroke-width:0.7;stroke-linecap:round;" y2="-30.929" x1="24.474" x2="24.474" y1="-30.929"/>
  <line style="fill:none;stroke:#000000;stroke-width:0.7;stroke-linecap:round;" y2="-30.929" x1="29.855" x2="29.855" y1="-30.929"/>
  <line style="fill:none;stroke:#000000;stroke-width:0.7;stroke-linecap:round;" y2="-30.929" x1="28.06" x2="28.06" y1="-30.929"/>
  <line style="fill:none;stroke:#000000;stroke-width:0.7;stroke-linecap:round;" y2="-30.929" x1="33.446" x2="33.446" y1="-30.929"/>
  <line style="fill:none;stroke:#000000;stroke-width:0.7;stroke-linecap:round;" y2="-30.929" x1="31.65" x2="31.65" y1="-30.929"/>
  <line style="fill:none;stroke:#000000;stroke-width:0.7;stroke-linecap:round;" y2="-30.929" x1="37.042" x2="37.042" y1="-30.929"/>
  <line style="fill:none;stroke:#000000;stroke-width:0.7;stroke-linecap:round;" y2="-30.929" x1="35.247" x2="35.247" y1="-30.929"/>
  <line style="fill:none;stroke:#000000;stroke-width:0.7;stroke-linecap:round;" y2="-30.929" x1="40.634" x2="40.634" y1="-30.929"/>
  <line style="fill:none;stroke:#000000;stroke-width:0.7;stroke-linecap:round;" y2="-30.929" x1="38.838" x2="38.838" y1="-30.929"/>
  <line style="fill:none;stroke:#000000;stroke-width:0.7;stroke-linecap:round;" y2="-30.929" x1="44.225" x2="44.225" y1="-30.929"/>
  <line style="fill:none;stroke:#000000;stroke-width:0.7;stroke-linecap:round;" y2="-30.929" x1="42.429" x2="42.429" y1="-30.929"/>
  <line style="fill:none;stroke:#000000;stroke-width:0.7;stroke-linecap:round;" y2="-30.929" x1="46.02" x2="46.02" y1="-30.929"/>
  <line style="fill:none;stroke:#000000;stroke-width:0.7;stroke-linecap:round;" y2="-25.044" x1="1.121" x2="1.121" y1="-25.044"/>
  <line style="fill:none;stroke:#000000;stroke-width:0.7;stroke-linecap:round;" y2="-25.044" x1="4.713" x2="4.713" y1="-25.044"/>
  <line style="fill:none;stroke:#000000;stroke-width:0.7;stroke-linecap:round;" y2="-25.044" x1="2.917" x2="2.917" y1="-25.044"/>
  <line style="fill:none;stroke:#000000;stroke-width:0.7;stroke-linecap:round;" y2="-25.044" x1="8.309" x2="8.309" y1="-25.044"/>
  <line style="fill:none;stroke:#000000;stroke-width:0.7;stroke-linecap:round;" y2="-25.044" x1="6.514" x2="6.514" y1="-25.044"/>
  <line style="fill:none;stroke:#000000;stroke-width:0.7;stroke-linecap:round;" y2="-25.044" x1="11.899" x2="11.899" y1="-25.044"/>
  <line style="fill:none;stroke:#000000;stroke-width:0.7;stroke-linecap:round;" y2="-25.044" x1="10.104" x2="10.104" y1="-25.044"/>
  <line style="fill:none;stroke:#000000;stroke-width:0.7;stroke-linecap:round;" y2="-25.044" x1="15.491" x2="15.491" y1="-25.044"/>
  <line style="fill:none;stroke:#000000;stroke-width:0.7;stroke-linecap:round;" y2="-25.044" x1="13.695" x2="13.695" y1="-25.044"/>
  <line style="fill:none;stroke:#000000;stroke-width:0.7;stroke-linecap:round;" y2="-25.044" x1="19.082" x2="19.082" y1="-25.044"/>
  <line style="fill:none;stroke:#000000;stroke-width:0.7;stroke-linecap:round;" y2="-25.044" x1="17.286" x2="17.286" y1="-25.044"/>
  <line style="fill:none;stroke:#000000;stroke-width:0.7;stroke-linecap:round;" y2="-25.044" x1="22.678" x2="22.678" y1="-25.044"/>
  <line style="fill:none;stroke:#000000;stroke-width:0.7;stroke-linecap:round;" y2="-25.044" x1="20.883" x2="20.883" y1="-25.044"/>
  <line style="fill:none;stroke:#000000;stroke-width:0.7;stroke-linecap:round;" y2="-25.044" x1="26.27" x2="26.27" y1="-25.044"/>
  <line style="fill:none;stroke:#000000;stroke-width:0.7;stroke-linecap:round;" y2="-25.044" x1="24.474" x2="24.474" y1="-25.044"/>
  <line style="fill:none;stroke:#000000;stroke-width:0.7;stroke-linecap:round;" y2="-25.044" x1="29.855" x2="29.855" y1="-25.044"/>
  <line style="fill:none;stroke:#000000;stroke-width:0.7;stroke-linecap:round;" y2="-25.044" x1="28.06" x2="28.06" y1="-25.044"/>
  <line style="fill:none;stroke:#000000;stroke-width:0.7;stroke-linecap:round;" y2="-25.044" x1="33.446" x2="33.446" y1="-25.044"/>
  <line style="fill:none;stroke:#000000;stroke-width:0.7;stroke-linecap:round;" y2="-25.044" x1="31.65" x2="31.65" y1="-25.044"/>
  <line style="fill:none;stroke:#000000;stroke-width:0.7;stroke-linecap:round;" y2="-25.044" x1="37.042" x2="37.042" y1="-25.044"/>
  <line style="fill:none;stroke:#000000;stroke-width:0.7;stroke-linecap:round;" y2="-25.044" x1="35.247" x2="35.247" y1="-25.044"/>
  <line style="fill:none;stroke:#000000;stroke-width:0.7;stroke-linecap:round;" y2="-25.044" x1="40.634" x2="40.634" y1="-25.044"/>
  <line style="fill:none;stroke:#000000;stroke-width:0.7;stroke-linecap:round;" y2="-25.044" x1="38.838" x2="38.838" y1="-25.044"/>
  <line style="fill:none;stroke:#000000;stroke-width:0.7;stroke-linecap:round;" y2="-25.044" x1="44.225" x2="44.225" y1="-25.044"/>
  <line style="fill:none;stroke:#000000;stroke-width:0.7;stroke-linecap:round;" y2="-25.044" x1="42.429" x2="42.429" y1="-25.044"/>
  <line style="fill:none;stroke:#000000;stroke-width:0.7;stroke-linecap:round;" y2="-25.044" x1="46.02" x2="46.02" y1="-25.044"/>
  <line style="fill:none;stroke:#000000;stroke-width:0.7;stroke-linecap:round;" y2="-19.224" x1="1.121" x2="1.121" y1="-19.224"/>
  <line style="fill:none;stroke:#000000;stroke-width:0.7;stroke-linecap:round;" y2="-19.224" x1="4.713" x2="4.713" y1="-19.224"/>
  <line style="fill:none;stroke:#000000;stroke-width:0.7;stroke-linecap:round;" y2="-19.224" x1="2.917" x2="2.917" y1="-19.224"/>
  <line style="fill:none;stroke:#000000;stroke-width:0.7;stroke-linecap:round;" y2="-19.224" x1="8.309" x2="8.309" y1="-19.224"/>
  <line style="fill:none;stroke:#000000;stroke-width:0.7;stroke-linecap:round;" y2="-19.224" x1="6.514" x2="6.514" y1="-19.224"/>
  <line style="fill:none;stroke:#000000;stroke-width:0.7;stroke-linecap:round;" y2="-19.224" x1="11.899" x2="11.899" y1="-19.224"/>
  <line style="fill:none;stroke:#000000;stroke-width:0.7;stroke-linecap:round;" y2="-19.224" x1="10.104" x2="10.104" y1="-19.224"/>
  <line style="fill:none;stroke:#000000;stroke-width:0.7;stroke-linecap:round;" y2="-19.224" x1="15.491" x2="15.491" y1="-19.224"/>
  <line style="fill:none;stroke:#000000;stroke-width:0.7;stroke-linecap:round;" y2="-19.224" x1="13.695" x2="13.695" y1="-19.224"/>
  <line style="fill:none;stroke:#000000;stroke-width:0.7;stroke-linecap:round;" y2="-19.224" x1="19.082" x2="19.082" y1="-19.224"/>
  <line style="fill:none;stroke:#000000;stroke-width:0.7;stroke-linecap:round;" y2="-19.224" x1="17.286" x2="17.286" y1="-19.224"/>
  <line style="fill:none;stroke:#000000;stroke-width:0.7;stroke-linecap:round;" y2="-19.224" x1="22.678" x2="22.678" y1="-19.224"/>
  <line style="fill:none;stroke:#000000;stroke-width:0.7;stroke-linecap:round;" y2="-19.224" x1="20.883" x2="20.883" y1="-19.224"/>
  <line style="fill:none;stroke:#000000;stroke-width:0.7;stroke-linecap:round;" y2="-19.224" x1="26.27" x2="26.27" y1="-19.224"/>
  <line style="fill:none;stroke:#000000;stroke-width:0.7;stroke-linecap:round;" y2="-19.224" x1="24.474" x2="24.474" y1="-19.224"/>
  <line style="fill:none;stroke:#000000;stroke-width:0.7;stroke-linecap:round;" y2="-19.224" x1="29.855" x2="29.855" y1="-19.224"/>
  <line style="fill:none;stroke:#000000;stroke-width:0.7;stroke-linecap:round;" y2="-19.224" x1="28.06" x2="28.06" y1="-19.224"/>
  <line style="fill:none;stroke:#000000;stroke-width:0.7;stroke-linecap:round;" y2="-19.224" x1="33.446" x2="33.446" y1="-19.224"/>
  <line style="fill:none;stroke:#000000;stroke-width:0.7;stroke-linecap:round;" y2="-19.224" x1="31.65" x2="31.65" y1="-19.224"/>
  <line style="fill:none;stroke:#000000;stroke-width:0.7;stroke-linecap:round;" y2="-19.224" x1="37.042" x2="37.042" y1="-19.224"/>
  <line style="fill:none;stroke:#000000;stroke-width:0.7;stroke-linecap:round;" y2="-19.224" x1="35.247" x2="35.247" y1="-19.224"/>
  <line style="fill:none;stroke:#000000;stroke-width:0.7;stroke-linecap:round;" y2="-19.224" x1="40.634" x2="40.634" y1="-19.224"/>
  <line style="fill:none;stroke:#000000;stroke-width:0.7;stroke-linecap:round;" y2="-19.224" x1="38.838" x2="38.838" y1="-19.224"/>
  <line style="fill:none;stroke:#000000;stroke-width:0.7;stroke-linecap:round;" y2="-19.224" x1="44.225" x2="44.225" y1="-19.224"/>
  <line style="fill:none;stroke:#000000;stroke-width:0.7;stroke-linecap:round;" y2="-19.224" x1="42.429" x2="42.429" y1="-19.224"/>
  <line style="fill:none;stroke:#000000;stroke-width:0.7;stroke-linecap:round;" y2="-19.224" x1="46.02" x2="46.02" y1="-19.224"/>
  <line style="fill:none;stroke:#000000;stroke-width:0.7;stroke-linecap:round;" y2="-13.464" x1="1.121" x2="1.121" y1="-13.464"/>
  <line style="fill:none;stroke:#000000;stroke-width:0.7;stroke-linecap:round;" y2="-13.464" x1="4.713" x2="4.713" y1="-13.464"/>
  <line style="fill:none;stroke:#000000;stroke-width:0.7;stroke-linecap:round;" y2="-13.464" x1="2.917" x2="2.917" y1="-13.464"/>
  <line style="fill:none;stroke:#000000;stroke-width:0.7;stroke-linecap:round;" y2="-13.464" x1="8.309" x2="8.309" y1="-13.464"/>
  <line style="fill:none;stroke:#000000;stroke-width:0.7;stroke-linecap:round;" y2="-13.464" x1="6.514" x2="6.514" y1="-13.464"/>
  <line style="fill:none;stroke:#000000;stroke-width:0.7;stroke-linecap:round;" y2="-13.464" x1="11.899" x2="11.899" y1="-13.464"/>
  <line style="fill:none;stroke:#000000;stroke-width:0.7;stroke-linecap:round;" y2="-13.464" x1="10.104" x2="10.104" y1="-13.464"/>
  <line style="fill:none;stroke:#000000;stroke-width:0.7;stroke-linecap:round;" y2="-13.464" x1="15.491" x2="15.491" y1="-13.464"/>
  <line style="fill:none;stroke:#000000;stroke-width:0.7;stroke-linecap:round;" y2="-13.464" x1="13.695" x2="13.695" y1="-13.464"/>
  <line style="fill:none;stroke:#000000;stroke-width:0.7;stroke-linecap:round;" y2="-13.464" x1="19.082" x2="19.082" y1="-13.464"/>
  <line style="fill:none;stroke:#000000;stroke-width:0.7;stroke-linecap:round;" y2="-13.464" x1="17.286" x2="17.286" y1="-13.464"/>
  <line style="fill:none;stroke:#000000;stroke-width:0.7;stroke-linecap:round;" y2="-13.464" x1="22.678" x2="22.678" y1="-13.464"/>
  <line style="fill:none;stroke:#000000;stroke-width:0.7;stroke-linecap:round;" y2="-13.464" x1="20.883" x2="20.883" y1="-13.464"/>
  <line style="fill:none;stroke:#000000;stroke-width:0.7;stroke-linecap:round;" y2="-13.464" x1="26.27" x2="26.27" y1="-13.464"/>
  <line style="fill:none;stroke:#000000;stroke-width:0.7;stroke-linecap:round;" y2="-13.464" x1="24.474" x2="24.474" y1="-13.464"/>
  <line style="fill:none;stroke:#000000;stroke-width:0.7;stroke-linecap:round;" y2="-13.464" x1="29.855" x2="29.855" y1="-13.464"/>
  <line style="fill:none;stroke:#000000;stroke-width:0.7;stroke-linecap:round;" y2="-13.464" x1="28.06" x2="28.06" y1="-13.464"/>
  <line style="fill:none;stroke:#000000;stroke-width:0.7;stroke-linecap:round;" y2="-13.464" x1="33.446" x2="33.446" y1="-13.464"/>
  <line style="fill:none;stroke:#000000;stroke-width:0.7;stroke-linecap:round;" y2="-13.464" x1="31.65" x2="31.65" y1="-13.464"/>
  <line style="fill:none;stroke:#000000;stroke-width:0.7;stroke-linecap:round;" y2="-13.464" x1="37.042" x2="37.042" y1="-13.464"/>
  <line style="fill:none;stroke:#000000;stroke-width:0.7;stroke-linecap:round;" y2="-13.464" x1="35.247" x2="35.247" y1="-13.464"/>
  <line style="fill:none;stroke:#000000;stroke-width:0.7;stroke-linecap:round;" y2="-13.464" x1="40.634" x2="40.634" y1="-13.464"/>
  <line style="fill:none;stroke:#000000;stroke-width:0.7;stroke-linecap:round;" y2="-13.464" x1="38.838" x2="38.838" y1="-13.464"/>
  <line style="fill:none;stroke:#000000;stroke-width:0.7;stroke-linecap:round;" y2="-13.464" x1="44.225" x2="44.225" y1="-13.464"/>
  <line style="fill:none;stroke:#000000;stroke-width:0.7;stroke-linecap:round;" y2="-13.464" x1="42.429" x2="42.429" y1="-13.464"/>
  <line style="fill:none;stroke:#000000;stroke-width:0.7;stroke-linecap:round;" y2="-13.464" x1="46.02" x2="46.02" y1="-13.464"/>
  <line style="fill:none;stroke:#000000;stroke-width:0.7;stroke-linecap:round;" y2="-7.583" x1="1.121" x2="1.121" y1="-7.583"/>
  <line style="fill:none;stroke:#000000;stroke-width:0.7;stroke-linecap:round;" y2="-7.583" x1="4.713" x2="4.713" y1="-7.583"/>
  <line style="fill:none;stroke:#000000;stroke-width:0.7;stroke-linecap:round;" y2="-7.583" x1="2.917" x2="2.917" y1="-7.583"/>
  <line style="fill:none;stroke:#000000;stroke-width:0.7;stroke-linecap:round;" y2="-7.583" x1="8.309" x2="8.309" y1="-7.583"/>
  <line style="fill:none;stroke:#000000;stroke-width:0.7;stroke-linecap:round;" y2="-7.583" x1="6.514" x2="6.514" y1="-7.583"/>
  <line style="fill:none;stroke:#000000;stroke-width:0.7;stroke-linecap:round;" y2="-7.583" x1="11.899" x2="11.899" y1="-7.583"/>
  <line style="fill:none;stroke:#000000;stroke-width:0.7;stroke-linecap:round;" y2="-7.583" x1="10.104" x2="10.104" y1="-7.583"/>
  <line style="fill:none;stroke:#000000;stroke-width:0.7;stroke-linecap:round;" y2="-7.583" x1="15.491" x2="15.491" y1="-7.583"/>
  <line style="fill:none;stroke:#000000;stroke-width:0.7;stroke-linecap:round;" y2="-7.583" x1="13.695" x2="13.695" y1="-7.583"/>
  <line style="fill:none;stroke:#000000;stroke-width:0.7;stroke-linecap:round;" y2="-7.583" x1="19.082" x2="19.082" y1="-7.583"/>
  <line style="fill:none;stroke:#000000;stroke-width:0.7;stroke-linecap:round;" y2="-7.583" x1="17.286" x2="17.286" y1="-7.583"/>
  <line style="fill:none;stroke:#000000;stroke-width:0.7;stroke-linecap:round;" y2="-7.583" x1="22.678" x2="22.678" y1="-7.583"/>
  <line style="fill:none;stroke:#000000;stroke-width:0.7;stroke-linecap:round;" y2="-7.583" x1="20.883" x2="20.883" y1="-7.583"/>
  <line style="fill:none;stroke:#000000;stroke-width:0.7;stroke-linecap:round;" y2="-7.583" x1="26.27" x2="26.27" y1="-7.583"/>
  <line style="fill:none;stroke:#000000;stroke-width:0.7;stroke-linecap:round;" y2="-7.583" x1="24.474" x2="24.474" y1="-7.583"/>
  <line style="fill:none;stroke:#000000;stroke-width:0.7;stroke-linecap:round;" y2="-7.583" x1="29.855" x2="29.855" y1="-7.583"/>
  <line style="fill:none;stroke:#000000;stroke-width:0.7;stroke-linecap:round;" y2="-7.583" x1="28.06" x2="28.06" y1="-7.583"/>
  <line style="fill:none;stroke:#000000;stroke-width:0.7;stroke-linecap:round;" y2="-7.583" x1="33.446" x2="33.446" y1="-7.583"/>
  <line style="fill:none;stroke:#000000;stroke-width:0.7;stroke-linecap:round;" y2="-7.583" x1="31.65" x2="31.65" y1="-7.583"/>
  <line style="fill:none;stroke:#000000;stroke-width:0.7;stroke-linecap:round;" y2="-7.583" x1="37.042" x2="37.042" y1="-7.583"/>
  <line style="fill:none;stroke:#000000;stroke-width:0.7;stroke-linecap:round;" y2="-7.583" x1="35.247" x2="35.247" y1="-7.583"/>
  <line style="fill:none;stroke:#000000;stroke-width:0.7;stroke-linecap:round;" y2="-7.583" x1="40.634" x2="40.634" y1="-7.583"/>
  <line style="fill:none;stroke:#000000;stroke-width:0.7;stroke-linecap:round;" y2="-7.583" x1="38.838" x2="38.838" y1="-7.583"/>
  <line style="fill:none;stroke:#000000;stroke-width:0.7;stroke-linecap:round;" y2="-7.583" x1="44.225" x2="44.225" y1="-7.583"/>
  <line style="fill:none;stroke:#000000;stroke-width:0.7;stroke-linecap:round;" y2="-7.583" x1="42.429" x2="42.429" y1="-7.583"/>
  <line style="fill:none;stroke:#000000;stroke-width:0.7;stroke-linecap:round;" y2="-7.583" x1="46.02" x2="46.02" y1="-7.583"/>
  <line style="fill:none;stroke:#000000;stroke-width:0.7;stroke-linecap:round;" y2="-1.824" x1="1.121" x2="1.121" y1="-1.824"/>
  <line style="fill:none;stroke:#000000;stroke-width:0.7;stroke-linecap:round;" y2="-1.824" x1="4.713" x2="4.713" y1="-1.824"/>
  <line style="fill:none;stroke:#000000;stroke-width:0.7;stroke-linecap:round;" y2="-1.824" x1="2.917" x2="2.917" y1="-1.824"/>
  <line style="fill:none;stroke:#000000;stroke-width:0.7;stroke-linecap:round;" y2="-1.824" x1="8.309" x2="8.309" y1="-1.824"/>
  <line style="fill:none;stroke:#000000;stroke-width:0.7;stroke-linecap:round;" y2="-1.824" x1="6.514" x2="6.514" y1="-1.824"/>
  <line style="fill:none;stroke:#000000;stroke-width:0.7;stroke-linecap:round;" y2="-1.824" x1="11.899" x2="11.899" y1="-1.824"/>
  <line style="fill:none;stroke:#000000;stroke-width:0.7;stroke-linecap:round;" y2="-1.824" x1="10.104" x2="10.104" y1="-1.824"/>
  <line style="fill:none;stroke:#000000;stroke-width:0.7;stroke-linecap:round;" y2="-1.824" x1="15.491" x2="15.491" y1="-1.824"/>
  <line style="fill:none;stroke:#000000;stroke-width:0.7;stroke-linecap:round;" y2="-1.824" x1="13.695" x2="13.695" y1="-1.824"/>
  <line style="fill:none;stroke:#000000;stroke-width:0.7;stroke-linecap:round;" y2="-1.824" x1="19.082" x2="19.082" y1="-1.824"/>
  <line style="fill:none;stroke:#000000;stroke-width:0.7;stroke-linecap:round;" y2="-1.824" x1="17.286" x2="17.286" y1="-1.824"/>
  <line style="fill:none;stroke:#000000;stroke-width:0.7;stroke-linecap:round;" y2="-1.824" x1="22.678" x2="22.678" y1="-1.824"/>
  <line style="fill:none;stroke:#000000;stroke-width:0.7;stroke-linecap:round;" y2="-1.824" x1="20.883" x2="20.883" y1="-1.824"/>
  <line style="fill:none;stroke:#000000;stroke-width:0.7;stroke-linecap:round;" y2="-1.824" x1="26.27" x2="26.27" y1="-1.824"/>
  <line style="fill:none;stroke:#000000;stroke-width:0.7;stroke-linecap:round;" y2="-1.824" x1="24.474" x2="24.474" y1="-1.824"/>
  <line style="fill:none;stroke:#000000;stroke-width:0.7;stroke-linecap:round;" y2="-1.824" x1="29.855" x2="29.855" y1="-1.824"/>
  <line style="fill:none;stroke:#000000;stroke-width:0.7;stroke-linecap:round;" y2="-1.824" x1="28.06" x2="28.06" y1="-1.824"/>
  <line style="fill:none;stroke:#000000;stroke-width:0.7;stroke-linecap:round;" y2="-1.824" x1="33.446" x2="33.446" y1="-1.824"/>
  <line style="fill:none;stroke:#000000;stroke-width:0.7;stroke-linecap:round;" y2="-1.824" x1="31.65" x2="31.65" y1="-1.824"/>
  <line style="fill:none;stroke:#000000;stroke-width:0.7;stroke-linecap:round;" y2="-1.824" x1="37.042" x2="37.042" y1="-1.824"/>
  <line style="fill:none;stroke:#000000;stroke-width:0.7;stroke-linecap:round;" y2="-1.824" x1="35.247" x2="35.247" y1="-1.824"/>
  <line style="fill:none;stroke:#000000;stroke-width:0.7;stroke-linecap:round;" y2="-1.824" x1="40.634" x2="40.634" y1="-1.824"/>
  <line style="fill:none;stroke:#000000;stroke-width:0.7;stroke-linecap:round;" y2="-1.824" x1="38.838" x2="38.838" y1="-1.824"/>
  <line style="fill:none;stroke:#000000;stroke-width:0.7;stroke-linecap:round;" y2="-1.824" x1="44.225" x2="44.225" y1="-1.824"/>
  <line style="fill:none;stroke:#000000;stroke-width:0.7;stroke-linecap:round;" y2="-1.824" x1="42.429" x2="42.429" y1="-1.824"/>
  <line style="fill:none;stroke:#000000;stroke-width:0.7;stroke-linecap:round;" y2="-1.824" x1="46.02" x2="46.02" y1="-1.824"/>
 </g>
</svg>
