<?xml version="1.0"?>
<!-- Converted with SVG Converter - Version 0.9.5 (Compiled Fri Feb 21 09:53:38 2020) - Copyright (C) 2011 Nokia -->
<svg xmlns="http://www.w3.org/2000/svg" xmlns:xlink="http://www.w3.org/1999/xlink" baseProfile="tiny" y="0px" viewBox="0 -44.667 44.667 44.667" height="44.667" x="0px" xml:space="preserve" width="44.667" version="1.1">
 <g>
  <rect y="-44.667" style="fill:none;" height="44.667" x="0" width="44.667"/>
  <line y1="-33" y2="-33" style="fill:none;stroke:#000000;stroke-width:0.3;" x2="8.159" x1="0.659"/>
  <line y1="-32.932" y2="-32.932" style="fill:none;stroke:#000000;stroke-width:0.3;" x2="31.626" x1="24.126"/>
  <line y1="-3.075" y2="-3.075" style="fill:none;stroke:#000000;stroke-width:0.3;" x2="4.001" x1="11.501"/>
  <line y1="-3.075" y2="-3.075" style="fill:none;stroke:#000000;stroke-width:0.3;" x2="27.501" x1="35.001"/>
  <line y1="-17.875" y2="-17.875" style="fill:none;stroke:#000000;stroke-width:0.3;" x2="9.399" x1="16.899"/>
  <line y1="-17.875" y2="-17.875" style="fill:none;stroke:#000000;stroke-width:0.3;" x2="32.899" x1="40.399"/>
  <line y1="-43.404" y2="-43.404" style="fill:none;stroke:#000000;stroke-width:0.3;" x2="3.776" x1="0"/>
  <line y1="-43.404" y2="-43.404" style="fill:none;stroke:#000000;stroke-width:0.3;" x2="12.726" x1="6.356"/>
  <line y1="-43.404" y2="-43.404" style="fill:none;stroke:#000000;stroke-width:0.3;" x2="21.643" x1="15.273"/>
  <line y1="-43.404" y2="-43.404" style="fill:none;stroke:#000000;stroke-width:0.3;" x2="30.559" x1="24.19"/>
  <line y1="-43.404" y2="-43.404" style="fill:none;stroke:#000000;stroke-width:0.3;" x2="39.476" x1="33.106"/>
  <line y1="-40.269" y2="-40.269" style="fill:none;stroke:#000000;stroke-width:0.3;" x2="1.739" x1="8.108"/>
  <line y1="-40.269" y2="-40.269" style="fill:none;stroke:#000000;stroke-width:0.3;" x2="10.655" x1="17.024"/>
  <line y1="-40.269" y2="-40.269" style="fill:none;stroke:#000000;stroke-width:0.3;" x2="19.572" x1="25.941"/>
  <line y1="-40.269" y2="-40.269" style="fill:none;stroke:#000000;stroke-width:0.3;" x2="28.489" x1="34.858"/>
  <line y1="-40.269" y2="-40.269" style="fill:none;stroke:#000000;stroke-width:0.3;" x2="37.405" x1="43.774"/>
  <line y1="-37.299" y2="-37.299" style="fill:none;stroke:#000000;stroke-width:0.3;" x2="0" x1="2.024"/>
  <line y1="-37.299" y2="-37.299" style="fill:none;stroke:#000000;stroke-width:0.3;" x2="10.975" x1="4.606"/>
  <line y1="-37.299" y2="-37.299" style="fill:none;stroke:#000000;stroke-width:0.3;" x2="19.891" x1="13.521"/>
  <line y1="-37.299" y2="-37.299" style="fill:none;stroke:#000000;stroke-width:0.3;" x2="28.808" x1="22.438"/>
  <line y1="-37.299" y2="-37.299" style="fill:none;stroke:#000000;stroke-width:0.3;" x2="37.724" x1="31.354"/>
  <line y1="-28.52" y2="-28.52" style="fill:none;stroke:#000000;stroke-width:0.3;" x2="0" x1="5.242"/>
  <line y1="-28.52" y2="-28.52" style="fill:none;stroke:#000000;stroke-width:0.3;" x2="14.158" x1="7.79"/>
  <line y1="-28.52" y2="-28.52" style="fill:none;stroke:#000000;stroke-width:0.3;" x2="16.706" x1="23.075"/>
  <line y1="-28.52" y2="-28.52" style="fill:none;stroke:#000000;stroke-width:0.3;" x2="25.623" x1="31.992"/>
  <line y1="-28.52" y2="-28.52" style="fill:none;stroke:#000000;stroke-width:0.3;" x2="40.908" x1="34.539"/>
  <line y1="-25.353" y2="-25.353" style="fill:none;stroke:#000000;stroke-width:0.3;" x2="2.184" x1="0"/>
  <line y1="-25.353" y2="-25.353" style="fill:none;stroke:#000000;stroke-width:0.3;" x2="4.765" x1="11.134"/>
  <line y1="-25.353" y2="-25.353" style="fill:none;stroke:#000000;stroke-width:0.3;" x2="13.681" x1="20.05"/>
  <line y1="-25.353" y2="-25.353" style="fill:none;stroke:#000000;stroke-width:0.3;" x2="28.967" x1="22.598"/>
  <line y1="-25.353" y2="-25.353" style="fill:none;stroke:#000000;stroke-width:0.3;" x2="37.883" x1="31.515"/>
  <line y1="-22.44" y2="-22.44" style="fill:none;stroke:#000000;stroke-width:0.3;" x2="0.306" x1="6.675"/>
  <line y1="-22.44" y2="-22.44" style="fill:none;stroke:#000000;stroke-width:0.3;" x2="9.223" x1="15.592"/>
  <line y1="-22.44" y2="-22.44" style="fill:none;stroke:#000000;stroke-width:0.3;" x2="24.508" x1="18.14"/>
  <line y1="-22.44" y2="-22.44" style="fill:none;stroke:#000000;stroke-width:0.3;" x2="27.056" x1="33.425"/>
  <line y1="-22.44" y2="-22.44" style="fill:none;stroke:#000000;stroke-width:0.3;" x2="35.973" x1="42.342"/>
  <line y1="-13.53" y2="-13.53" style="fill:none;stroke:#000000;stroke-width:0.3;" x2="0" x1="2.98"/>
  <line y1="-13.53" y2="-13.53" style="fill:none;stroke:#000000;stroke-width:0.3;" x2="11.93" x1="5.561"/>
  <line y1="-13.53" y2="-13.53" style="fill:none;stroke:#000000;stroke-width:0.3;" x2="20.846" x1="14.477"/>
  <line y1="-13.53" y2="-13.53" style="fill:none;stroke:#000000;stroke-width:0.3;" x2="29.763" x1="23.394"/>
  <line y1="-13.53" y2="-13.53" style="fill:none;stroke:#000000;stroke-width:0.3;" x2="38.68" x1="32.311"/>
  <line y1="-10.394" y2="-10.394" style="fill:none;stroke:#000000;stroke-width:0.3;" x2="0.465" x1="6.834"/>
  <line y1="-10.394" y2="-10.394" style="fill:none;stroke:#000000;stroke-width:0.3;" x2="15.751" x1="9.382"/>
  <line y1="-10.394" y2="-10.394" style="fill:none;stroke:#000000;stroke-width:0.3;" x2="24.667" x1="18.299"/>
  <line y1="-10.394" y2="-10.394" style="fill:none;stroke:#000000;stroke-width:0.3;" x2="33.584" x1="27.215"/>
  <line y1="-10.394" y2="-10.394" style="fill:none;stroke:#000000;stroke-width:0.3;" x2="42.501" x1="36.132"/>
  <line y1="-7.425" y2="-7.425" style="fill:none;stroke:#000000;stroke-width:0.3;" x2="2.184" x1="0"/>
  <line y1="-7.425" y2="-7.425" style="fill:none;stroke:#000000;stroke-width:0.3;" x2="4.765" x1="11.134"/>
  <line y1="-7.425" y2="-7.425" style="fill:none;stroke:#000000;stroke-width:0.3;" x2="13.681" x1="20.05"/>
  <line y1="-7.425" y2="-7.425" style="fill:none;stroke:#000000;stroke-width:0.3;" x2="22.598" x1="28.967"/>
  <line y1="-7.425" y2="-7.425" style="fill:none;stroke:#000000;stroke-width:0.3;" x2="31.515" x1="37.883"/>
  <line y1="-19.635" y2="-19.635" style="fill:none;stroke:#000000;stroke-width:0.3;" x2="7.019" x1="19.451"/>
  <line y1="-19.635" y2="-19.635" style="fill:none;stroke:#000000;stroke-width:0.3;" x2="44.667" x1="31.354"/>
  <line y1="-19.635" y2="-19.635" style="fill:none;stroke:#000000;stroke-width:0.3;" x2="0" x1="7.019"/>
  <line y1="-19.635" y2="-19.635" style="fill:none;stroke:#000000;stroke-width:0.3;" x2="19.451" x1="31.354"/>
  <line y1="-16.354" y2="-16.354" style="fill:none;stroke:#000000;stroke-width:0.3;" x2="44.667" x1="41.729"/>
  <line y1="-16.354" y2="-16.354" style="fill:none;stroke:#000000;stroke-width:0.3;" x2="41.729" x1="0"/>
  <line y1="-19.635" y2="-16.366" style="fill:none;stroke:#000000;stroke-width:0.3;" x2="31.354" x1="31.354"/>
  <line y1="-19.635" y2="-19.667" style="fill:none;stroke:#000000;stroke-width:0.3;" x2="31.354" x1="31.354"/>
  <line y1="-16.354" y2="-19.582" style="fill:none;stroke:#000000;stroke-width:0.3;" x2="41.729" x1="41.729"/>
  <line y1="-16.354" y2="-16.282" style="fill:none;stroke:#000000;stroke-width:0.3;" x2="41.729" x1="41.729"/>
  <line y1="-19.635" y2="-16.366" style="fill:none;stroke:#000000;stroke-width:0.3;" x2="19.451" x1="19.451"/>
  <line y1="-19.667" y2="-19.635" style="fill:none;stroke:#000000;stroke-width:0.3;" x2="19.451" x1="19.451"/>
  <line y1="-19.667" y2="-19.635" style="fill:none;stroke:#000000;stroke-width:0.3;" x2="7.019" x1="7.019"/>
  <line y1="-19.635" y2="-16.366" style="fill:none;stroke:#000000;stroke-width:0.3;" x2="7.019" x1="7.019"/>
  <line y1="-31.307" y2="-31.307" style="fill:none;stroke:#000000;stroke-width:0.3;" x2="44.171" x1="34.046"/>
  <line y1="-31.307" y2="-31.307" style="fill:none;stroke:#000000;stroke-width:0.3;" x2="0" x1="9.546"/>
  <line y1="-31.307" y2="-31.307" style="fill:none;stroke:#000000;stroke-width:0.3;" x2="44.667" x1="44.171"/>
  <line y1="-31.307" y2="-31.307" style="fill:none;stroke:#000000;stroke-width:0.3;" x2="21.955" x1="9.546"/>
  <line y1="-31.307" y2="-31.307" style="fill:none;stroke:#000000;stroke-width:0.3;" x2="34.046" x1="21.955"/>
  <line y1="-34.686" y2="-34.686" style="fill:none;stroke:#000000;stroke-width:0.3;" x2="21.955" x1="9.546"/>
  <line y1="-34.686" y2="-34.686" style="fill:none;stroke:#000000;stroke-width:0.3;" x2="34.046" x1="44.171"/>
  <line y1="-34.686" y2="-34.686" style="fill:none;stroke:#000000;stroke-width:0.3;" x2="0" x1="9.546"/>
  <line y1="-34.686" y2="-34.686" style="fill:none;stroke:#000000;stroke-width:0.3;" x2="34.046" x1="21.955"/>
  <line y1="-34.686" y2="-34.686" style="fill:none;stroke:#000000;stroke-width:0.3;" x2="44.667" x1="44.171"/>
  <line y1="-31.307" y2="-31.273" style="fill:none;stroke:#000000;stroke-width:0.3;" x2="9.546" x1="9.546"/>
  <line y1="-34.686" y2="-31.307" style="fill:none;stroke:#000000;stroke-width:0.3;" x2="9.546" x1="9.546"/>
  <line y1="-34.686" y2="-34.698" style="fill:none;stroke:#000000;stroke-width:0.3;" x2="9.546" x1="9.546"/>
  <line y1="-31.307" y2="-34.686" style="fill:none;stroke:#000000;stroke-width:0.3;" x2="21.955" x1="21.955"/>
  <line y1="-31.273" y2="-31.307" style="fill:none;stroke:#000000;stroke-width:0.3;" x2="21.955" x1="21.955"/>
  <line y1="-34.686" y2="-34.698" style="fill:none;stroke:#000000;stroke-width:0.3;" x2="21.955" x1="21.955"/>
  <line y1="-31.307" y2="-31.273" style="fill:none;stroke:#000000;stroke-width:0.3;" x2="44.171" x1="44.171"/>
  <line y1="-34.686" y2="-34.698" style="fill:none;stroke:#000000;stroke-width:0.3;" x2="44.171" x1="44.171"/>
  <line y1="-31.307" y2="-34.686" style="fill:none;stroke:#000000;stroke-width:0.3;" x2="44.171" x1="44.171"/>
  <line y1="-31.307" y2="-34.686" style="fill:none;stroke:#000000;stroke-width:0.3;" x2="34.046" x1="34.046"/>
  <line y1="-31.307" y2="-31.273" style="fill:none;stroke:#000000;stroke-width:0.3;" x2="34.046" x1="34.046"/>
  <line y1="-34.698" y2="-34.686" style="fill:none;stroke:#000000;stroke-width:0.3;" x2="34.046" x1="34.046"/>
  <line y1="-4.662" y2="-4.662" style="fill:none;stroke:#000000;stroke-width:0.3;" x2="44.667" x1="0"/>
  <line y1="-1.437" y2="-1.437" style="fill:none;stroke:#000000;stroke-width:0.3;" x2="44.667" x1="0"/>
  <line y1="-1.45" y2="-4.612" style="fill:none;stroke:#000000;stroke-width:0.3;" x2="36.915" x1="36.915"/>
  <line y1="-4.612" y2="-1.45" style="fill:none;stroke:#000000;stroke-width:0.3;" x2="25.276" x1="25.276"/>
  <line y1="-4.612" y2="-1.45" style="fill:none;stroke:#000000;stroke-width:0.3;" x2="13.709" x1="13.709"/>
  <line y1="-4.612" y2="-1.45" style="fill:none;stroke:#000000;stroke-width:0.3;" x2="1.707" x1="1.707"/>
  <line y1="-43.404" y2="-43.404" style="fill:none;stroke:#000000;stroke-width:0.3;" x2="44.667" x1="42.074"/>
  <line y1="-37.299" y2="-37.299" style="fill:none;stroke:#000000;stroke-width:0.3;" x2="44.667" x1="40.323"/>
  <line y1="-28.52" y2="-28.52" style="fill:none;stroke:#000000;stroke-width:0.3;" x2="43.54" x1="44.667"/>
  <line y1="-25.353" y2="-25.353" style="fill:none;stroke:#000000;stroke-width:0.3;" x2="44.667" x1="40.482"/>
  <line y1="-13.53" y2="-13.53" style="fill:none;stroke:#000000;stroke-width:0.3;" x2="41.278" x1="44.667"/>
  <line y1="-7.425" y2="-7.425" style="fill:none;stroke:#000000;stroke-width:0.3;" x2="44.667" x1="40.482"/>
  <line y1="-32.887" y2="-32.887" style="fill:none;stroke:#000000;stroke-width:0.7;stroke-linecap:round;" x2="16.031" x1="16.031"/>
  <line y1="-32.887" y2="-32.887" style="fill:none;stroke:#000000;stroke-width:0.7;stroke-linecap:round;" x2="18.013" x1="18.013"/>
  <line y1="-32.887" y2="-32.887" style="fill:none;stroke:#000000;stroke-width:0.7;stroke-linecap:round;" x2="13.956" x1="13.956"/>
  <line y1="-32.887" y2="-32.887" style="fill:none;stroke:#000000;stroke-width:0.7;stroke-linecap:round;" x2="39.667" x1="39.667"/>
  <line y1="-32.887" y2="-32.887" style="fill:none;stroke:#000000;stroke-width:0.7;stroke-linecap:round;" x2="41.649" x1="41.649"/>
  <line y1="-32.887" y2="-32.887" style="fill:none;stroke:#000000;stroke-width:0.7;stroke-linecap:round;" x2="37.593" x1="37.593"/>
  <line y1="-17.875" y2="-17.875" style="fill:none;stroke:#000000;stroke-width:0.7;stroke-linecap:round;" x2="25.542" x1="25.542"/>
  <line y1="-17.875" y2="-17.875" style="fill:none;stroke:#000000;stroke-width:0.7;stroke-linecap:round;" x2="27.524" x1="27.524"/>
  <line y1="-17.875" y2="-17.875" style="fill:none;stroke:#000000;stroke-width:0.7;stroke-linecap:round;" x2="23.468" x1="23.468"/>
  <line y1="-3.012" y2="-3.012" style="fill:none;stroke:#000000;stroke-width:0.7;stroke-linecap:round;" x2="19.667" x1="19.667"/>
  <line y1="-3.012" y2="-3.012" style="fill:none;stroke:#000000;stroke-width:0.7;stroke-linecap:round;" x2="21.649" x1="21.649"/>
  <line y1="-3.012" y2="-3.012" style="fill:none;stroke:#000000;stroke-width:0.7;stroke-linecap:round;" x2="17.593" x1="17.593"/>
  <line y1="-3.012" y2="-3.012" style="fill:none;stroke:#000000;stroke-width:0.7;stroke-linecap:round;" x2="41.917" x1="41.917"/>
  <line y1="-3.012" y2="-3.012" style="fill:none;stroke:#000000;stroke-width:0.7;stroke-linecap:round;" x2="43.899" x1="43.899"/>
  <line y1="-3.012" y2="-3.012" style="fill:none;stroke:#000000;stroke-width:0.7;stroke-linecap:round;" x2="39.843" x1="39.843"/>
  <line y1="-17.875" y2="-17.875" style="fill:none;stroke:#000000;stroke-width:0.7;stroke-linecap:round;" x2="1.542" x1="1.542"/>
  <line y1="-17.875" y2="-17.875" style="fill:none;stroke:#000000;stroke-width:0.7;stroke-linecap:round;" x2="3.524" x1="3.524"/>
  <line y1="-17.875" y2="-17.875" style="fill:none;stroke:#000000;stroke-width:0.7;stroke-linecap:round;" x2="44.263" x1="44.263"/>
 </g>
</svg>
