<?xml version="1.0"?>
<!-- Converted with SVG Converter - Version 0.9.5 (Compiled Fri Feb 21 09:53:38 2020) - Copyright (C) 2011 Nokia -->
<svg xmlns="http://www.w3.org/2000/svg" baseProfile="tiny" version="1.1" y="0px" height="53.584" x="0px" xml:space="preserve" viewBox="0 -53.584 53.584 53.584" xmlns:xlink="http://www.w3.org/1999/xlink" width="53.584">
 <g>
  <rect y="-53.584" height="53.584" x="0" style="fill:none;" width="53.584"/>
  <line y2="-52.321" x1="3.776" style="fill:none;stroke:#000000;stroke-width:0.3;" x2="0" y1="-52.321"/>
  <line y2="-52.321" x1="6.356" style="fill:none;stroke:#000000;stroke-width:0.3;" x2="12.726" y1="-52.321"/>
  <line y2="-52.321" x1="15.273" style="fill:none;stroke:#000000;stroke-width:0.3;" x2="21.643" y1="-52.321"/>
  <line y2="-52.321" x1="24.19" style="fill:none;stroke:#000000;stroke-width:0.3;" x2="30.559" y1="-52.321"/>
  <line y2="-52.321" x1="33.106" style="fill:none;stroke:#000000;stroke-width:0.3;" x2="39.476" y1="-52.321"/>
  <line y2="-52.321" x1="42.023" style="fill:none;stroke:#000000;stroke-width:0.3;" x2="48.393" y1="-52.321"/>
  <line y2="-52.321" x1="53.584" style="fill:none;stroke:#000000;stroke-width:0.3;" x2="50.939" y1="-52.321"/>
  <line y2="-40.441" x1="0" style="fill:none;stroke:#000000;stroke-width:0.3;" x2="1.706" y1="-40.441"/>
  <line y2="-40.441" x1="4.287" style="fill:none;stroke:#000000;stroke-width:0.3;" x2="10.655" y1="-40.441"/>
  <line y2="-40.441" x1="13.203" style="fill:none;stroke:#000000;stroke-width:0.3;" x2="19.572" y1="-40.441"/>
  <line y2="-40.441" x1="22.12" style="fill:none;stroke:#000000;stroke-width:0.3;" x2="28.489" y1="-40.441"/>
  <line y2="-40.441" x1="31.036" style="fill:none;stroke:#000000;stroke-width:0.3;" x2="37.405" y1="-40.441"/>
  <line y2="-40.441" x1="39.953" style="fill:none;stroke:#000000;stroke-width:0.3;" x2="46.322" y1="-40.441"/>
  <line y2="-40.441" x1="48.87" style="fill:none;stroke:#000000;stroke-width:0.3;" x2="53.584" y1="-40.441"/>
  <line y2="-37.437" x1="5.242" style="fill:none;stroke:#000000;stroke-width:0.3;" x2="0" y1="-37.437"/>
  <line y2="-37.437" x1="14.159" style="fill:none;stroke:#000000;stroke-width:0.3;" x2="7.79" y1="-37.437"/>
  <line y2="-37.437" x1="23.075" style="fill:none;stroke:#000000;stroke-width:0.3;" x2="16.706" y1="-37.437"/>
  <line y2="-37.437" x1="31.992" style="fill:none;stroke:#000000;stroke-width:0.3;" x2="25.623" y1="-37.437"/>
  <line y2="-37.437" x1="40.908" style="fill:none;stroke:#000000;stroke-width:0.3;" x2="34.539" y1="-37.437"/>
  <line y2="-37.437" x1="49.825" style="fill:none;stroke:#000000;stroke-width:0.3;" x2="43.456" y1="-37.437"/>
  <line y2="-37.437" x1="53.584" style="fill:none;stroke:#000000;stroke-width:0.3;" x2="52.373" y1="-37.437"/>
  <line y2="-34.27" x1="0" style="fill:none;stroke:#000000;stroke-width:0.3;" x2="2.184" y1="-34.27"/>
  <line y2="-34.27" x1="11.134" style="fill:none;stroke:#000000;stroke-width:0.3;" x2="4.765" y1="-34.27"/>
  <line y2="-34.27" x1="13.681" style="fill:none;stroke:#000000;stroke-width:0.3;" x2="20.05" y1="-34.27"/>
  <line y2="-34.27" x1="22.598" style="fill:none;stroke:#000000;stroke-width:0.3;" x2="28.967" y1="-34.27"/>
  <line y2="-34.27" x1="31.515" style="fill:none;stroke:#000000;stroke-width:0.3;" x2="37.883" y1="-34.27"/>
  <line y2="-34.27" x1="40.431" style="fill:none;stroke:#000000;stroke-width:0.3;" x2="46.8" y1="-34.27"/>
  <line y2="-34.27" x1="49.348" style="fill:none;stroke:#000000;stroke-width:0.3;" x2="53.584" y1="-34.27"/>
  <line y2="-31.356" x1="6.675" style="fill:none;stroke:#000000;stroke-width:0.3;" x2="0.306" y1="-31.356"/>
  <line y2="-31.356" x1="15.592" style="fill:none;stroke:#000000;stroke-width:0.3;" x2="9.223" y1="-31.356"/>
  <line y2="-31.356" x1="24.509" style="fill:none;stroke:#000000;stroke-width:0.3;" x2="18.14" y1="-31.356"/>
  <line y2="-31.356" x1="33.425" style="fill:none;stroke:#000000;stroke-width:0.3;" x2="27.056" y1="-31.356"/>
  <line y2="-31.356" x1="42.342" style="fill:none;stroke:#000000;stroke-width:0.3;" x2="35.973" y1="-31.356"/>
  <line y2="-31.356" x1="44.889" style="fill:none;stroke:#000000;stroke-width:0.3;" x2="51.258" y1="-31.356"/>
  <line y2="-28.387" x1="3.458" style="fill:none;stroke:#000000;stroke-width:0.3;" x2="0" y1="-28.387"/>
  <line y2="-28.387" x1="6.038" style="fill:none;stroke:#000000;stroke-width:0.3;" x2="12.407" y1="-28.387"/>
  <line y2="-28.387" x1="14.955" style="fill:none;stroke:#000000;stroke-width:0.3;" x2="21.324" y1="-28.387"/>
  <line y2="-28.387" x1="23.871" style="fill:none;stroke:#000000;stroke-width:0.3;" x2="30.24" y1="-28.387"/>
  <line y2="-28.387" x1="32.788" style="fill:none;stroke:#000000;stroke-width:0.3;" x2="39.157" y1="-28.387"/>
  <line y2="-28.387" x1="41.705" style="fill:none;stroke:#000000;stroke-width:0.3;" x2="48.073" y1="-28.387"/>
  <line y2="-28.387" x1="50.621" style="fill:none;stroke:#000000;stroke-width:0.3;" x2="53.584" y1="-28.387"/>
  <line y2="-25.535" x1="7.949" style="fill:none;stroke:#000000;stroke-width:0.3;" x2="1.58" y1="-25.535"/>
  <line y2="-25.535" x1="16.865" style="fill:none;stroke:#000000;stroke-width:0.3;" x2="10.496" y1="-25.535"/>
  <line y2="-25.535" x1="25.782" style="fill:none;stroke:#000000;stroke-width:0.3;" x2="19.413" y1="-25.535"/>
  <line y2="-25.535" x1="34.698" style="fill:none;stroke:#000000;stroke-width:0.3;" x2="28.33" y1="-25.535"/>
  <line y2="-25.535" x1="43.615" style="fill:none;stroke:#000000;stroke-width:0.3;" x2="37.246" y1="-25.535"/>
  <line y2="-25.535" x1="52.532" style="fill:none;stroke:#000000;stroke-width:0.3;" x2="46.163" y1="-25.535"/>
  <line y2="-13.372" x1="0" style="fill:none;stroke:#000000;stroke-width:0.3;" x2="6.038" y1="-13.372"/>
  <line y2="-13.372" x1="14.955" style="fill:none;stroke:#000000;stroke-width:0.3;" x2="8.586" y1="-13.372"/>
  <line y2="-13.372" x1="17.502" style="fill:none;stroke:#000000;stroke-width:0.3;" x2="23.871" y1="-13.372"/>
  <line y2="-13.372" x1="26.419" style="fill:none;stroke:#000000;stroke-width:0.3;" x2="32.788" y1="-13.372"/>
  <line y2="-13.372" x1="35.336" style="fill:none;stroke:#000000;stroke-width:0.3;" x2="41.705" y1="-13.372"/>
  <line y2="-13.372" x1="44.252" style="fill:none;stroke:#000000;stroke-width:0.3;" x2="50.621" y1="-13.372"/>
  <line y2="-13.372" x1="53.584" style="fill:none;stroke:#000000;stroke-width:0.3;" x2="53.169" y1="-13.372"/>
  <line y2="-10.576" x1="0" style="fill:none;stroke:#000000;stroke-width:0.3;" x2="3.14" y1="-10.576"/>
  <line y2="-10.576" x1="12.089" style="fill:none;stroke:#000000;stroke-width:0.3;" x2="5.72" y1="-10.576"/>
  <line y2="-10.576" x1="21.006" style="fill:none;stroke:#000000;stroke-width:0.3;" x2="14.637" y1="-10.576"/>
  <line y2="-10.576" x1="29.922" style="fill:none;stroke:#000000;stroke-width:0.3;" x2="23.553" y1="-10.576"/>
  <line y2="-10.576" x1="38.839" style="fill:none;stroke:#000000;stroke-width:0.3;" x2="32.47" y1="-10.576"/>
  <line y2="-10.576" x1="47.755" style="fill:none;stroke:#000000;stroke-width:0.3;" x2="41.386" y1="-10.576"/>
  <line y2="-10.576" x1="50.303" style="fill:none;stroke:#000000;stroke-width:0.3;" x2="53.584" y1="-10.576"/>
  <line y2="-7.44" x1="8.268" style="fill:none;stroke:#000000;stroke-width:0.3;" x2="1.898" y1="-7.44"/>
  <line y2="-7.44" x1="10.814" style="fill:none;stroke:#000000;stroke-width:0.3;" x2="17.184" y1="-7.44"/>
  <line y2="-7.44" x1="26.101" style="fill:none;stroke:#000000;stroke-width:0.3;" x2="19.731" y1="-7.44"/>
  <line y2="-7.44" x1="35.018" style="fill:none;stroke:#000000;stroke-width:0.3;" x2="28.648" y1="-7.44"/>
  <line y2="-7.44" x1="37.564" style="fill:none;stroke:#000000;stroke-width:0.3;" x2="43.934" y1="-7.44"/>
  <line y2="-7.44" x1="46.481" style="fill:none;stroke:#000000;stroke-width:0.3;" x2="52.851" y1="-7.44"/>
  <line y2="-4.471" x1="4.731" style="fill:none;stroke:#000000;stroke-width:0.3;" x2="0" y1="-4.471"/>
  <line y2="-4.471" x1="7.312" style="fill:none;stroke:#000000;stroke-width:0.3;" x2="13.681" y1="-4.471"/>
  <line y2="-4.471" x1="16.229" style="fill:none;stroke:#000000;stroke-width:0.3;" x2="22.598" y1="-4.471"/>
  <line y2="-4.471" x1="25.146" style="fill:none;stroke:#000000;stroke-width:0.3;" x2="31.515" y1="-4.471"/>
  <line y2="-4.471" x1="34.062" style="fill:none;stroke:#000000;stroke-width:0.3;" x2="40.431" y1="-4.471"/>
  <line y2="-4.471" x1="42.979" style="fill:none;stroke:#000000;stroke-width:0.3;" x2="49.348" y1="-4.471"/>
  <line y2="-4.471" x1="51.896" style="fill:none;stroke:#000000;stroke-width:0.3;" x2="53.584" y1="-4.471"/>
  <line y2="-1.5" x1="8.586" style="fill:none;stroke:#000000;stroke-width:0.3;" x2="2.217" y1="-1.5"/>
  <line y2="-1.5" x1="17.502" style="fill:none;stroke:#000000;stroke-width:0.3;" x2="11.134" y1="-1.5"/>
  <line y2="-1.5" x1="26.419" style="fill:none;stroke:#000000;stroke-width:0.3;" x2="20.05" y1="-1.5"/>
  <line y2="-1.5" x1="35.336" style="fill:none;stroke:#000000;stroke-width:0.3;" x2="28.967" y1="-1.5"/>
  <line y2="-1.5" x1="44.252" style="fill:none;stroke:#000000;stroke-width:0.3;" x2="37.883" y1="-1.5"/>
  <line y2="-1.5" x1="53.169" style="fill:none;stroke:#000000;stroke-width:0.3;" x2="46.8" y1="-1.5"/>
  <line y2="-46.37" x1="45.884" style="fill:none;stroke:#000000;stroke-width:0.3;" x2="50.621" y1="-46.37"/>
  <line y2="-46.37" x1="5.259" style="fill:none;stroke:#000000;stroke-width:0.3;" x2="9.121" y1="-46.37"/>
  <line y2="-46.37" x1="37.871" style="fill:none;stroke:#000000;stroke-width:0.3;" x2="31.259" y1="-46.37"/>
  <line y2="-46.37" x1="18.009" style="fill:none;stroke:#000000;stroke-width:0.3;" x2="24.121" y1="-46.37"/>
  <line y2="-46.37" x1="53.584" style="fill:none;stroke:#000000;stroke-width:0.3;" x2="50.621" y1="-46.37"/>
  <line y2="-46.37" x1="31.259" style="fill:none;stroke:#000000;stroke-width:0.3;" x2="24.121" y1="-46.37"/>
  <line y2="-46.37" x1="9.121" style="fill:none;stroke:#000000;stroke-width:0.3;" x2="18.009" y1="-46.37"/>
  <line y2="-46.37" x1="45.884" style="fill:none;stroke:#000000;stroke-width:0.3;" x2="37.871" y1="-46.37"/>
  <line y2="-46.37" x1="5.259" style="fill:none;stroke:#000000;stroke-width:0.3;" x2="0" y1="-46.37"/>
  <line y2="-43.088" x1="53.584" style="fill:none;stroke:#000000;stroke-width:0.3;" x2="0" y1="-43.088"/>
  <line y2="-43.101" x1="45.884" style="fill:none;stroke:#000000;stroke-width:0.3;" x2="45.884" y1="-46.37"/>
  <line y2="-46.401" x1="45.884" style="fill:none;stroke:#000000;stroke-width:0.3;" x2="45.884" y1="-46.37"/>
  <line y2="-46.37" x1="31.259" style="fill:none;stroke:#000000;stroke-width:0.3;" x2="31.259" y1="-46.401"/>
  <line y2="-43.101" x1="31.259" style="fill:none;stroke:#000000;stroke-width:0.3;" x2="31.259" y1="-46.37"/>
  <line y2="-46.37" x1="18.009" style="fill:none;stroke:#000000;stroke-width:0.3;" x2="18.009" y1="-43.101"/>
  <line y2="-46.401" x1="18.009" style="fill:none;stroke:#000000;stroke-width:0.3;" x2="18.009" y1="-46.37"/>
  <line y2="-43.101" x1="5.259" style="fill:none;stroke:#000000;stroke-width:0.3;" x2="5.259" y1="-46.37"/>
  <line y2="-46.401" x1="5.259" style="fill:none;stroke:#000000;stroke-width:0.3;" x2="5.259" y1="-46.37"/>
  <line y2="-49.748" x1="37.871" style="fill:none;stroke:#000000;stroke-width:0.3;" x2="50.621" y1="-49.748"/>
  <line y2="-49.748" x1="50.621" style="fill:none;stroke:#000000;stroke-width:0.3;" x2="53.584" y1="-49.748"/>
  <line y2="-49.748" x1="9.121" style="fill:none;stroke:#000000;stroke-width:0.3;" x2="0" y1="-49.748"/>
  <line y2="-49.748" x1="37.871" style="fill:none;stroke:#000000;stroke-width:0.3;" x2="24.121" y1="-49.748"/>
  <line y2="-49.748" x1="9.121" style="fill:none;stroke:#000000;stroke-width:0.3;" x2="24.121" y1="-49.748"/>
  <line y2="-46.37" x1="9.121" style="fill:none;stroke:#000000;stroke-width:0.3;" x2="9.121" y1="-46.335"/>
  <line y2="-46.37" x1="9.121" style="fill:none;stroke:#000000;stroke-width:0.3;" x2="9.121" y1="-49.748"/>
  <line y2="-49.76" x1="9.121" style="fill:none;stroke:#000000;stroke-width:0.3;" x2="9.121" y1="-49.748"/>
  <line y2="-49.76" x1="24.121" style="fill:none;stroke:#000000;stroke-width:0.3;" x2="24.121" y1="-49.748"/>
  <line y2="-49.748" x1="24.121" style="fill:none;stroke:#000000;stroke-width:0.3;" x2="24.121" y1="-46.37"/>
  <line y2="-46.37" x1="24.121" style="fill:none;stroke:#000000;stroke-width:0.3;" x2="24.121" y1="-46.335"/>
  <line y2="-49.76" x1="37.871" style="fill:none;stroke:#000000;stroke-width:0.3;" x2="37.871" y1="-49.748"/>
  <line y2="-46.335" x1="37.871" style="fill:none;stroke:#000000;stroke-width:0.3;" x2="37.871" y1="-46.37"/>
  <line y2="-46.37" x1="37.871" style="fill:none;stroke:#000000;stroke-width:0.3;" x2="37.871" y1="-49.748"/>
  <line y2="-49.76" x1="50.621" style="fill:none;stroke:#000000;stroke-width:0.3;" x2="50.621" y1="-49.748"/>
  <line y2="-49.748" x1="50.621" style="fill:none;stroke:#000000;stroke-width:0.3;" x2="50.621" y1="-46.37"/>
  <line y2="-46.37" x1="50.621" style="fill:none;stroke:#000000;stroke-width:0.3;" x2="50.621" y1="-46.335"/>
  <line y2="-15.659" x1="8.436" style="fill:none;stroke:#000000;stroke-width:0.3;" x2="21.685" y1="-15.659"/>
  <line y2="-15.659" x1="35.311" style="fill:none;stroke:#000000;stroke-width:0.3;" x2="21.685" y1="-15.659"/>
  <line y2="-15.659" x1="50.186" style="fill:none;stroke:#000000;stroke-width:0.3;" x2="53.584" y1="-15.659"/>
  <line y2="-15.659" x1="8.436" style="fill:none;stroke:#000000;stroke-width:0.3;" x2="0" y1="-15.659"/>
  <line y2="-15.659" x1="35.311" style="fill:none;stroke:#000000;stroke-width:0.3;" x2="50.186" y1="-15.659"/>
  <line y2="-22.497" x1="53.584" style="fill:none;stroke:#000000;stroke-width:0.3;" x2="0" y1="-22.497"/>
  <line y2="-19.271" x1="53.584" style="fill:none;stroke:#000000;stroke-width:0.3;" x2="0" y1="-19.271"/>
  <line y2="-22.446" x1="43.752" style="fill:none;stroke:#000000;stroke-width:0.3;" x2="43.752" y1="-19.284"/>
  <line y2="-22.446" x1="29.603" style="fill:none;stroke:#000000;stroke-width:0.3;" x2="29.603" y1="-19.284"/>
  <line y2="-22.446" x1="14.477" style="fill:none;stroke:#000000;stroke-width:0.3;" x2="14.477" y1="-19.284"/>
  <line y2="-19.284" x1="2.06" style="fill:none;stroke:#000000;stroke-width:0.3;" x2="2.06" y1="-22.446"/>
  <line y2="-19.221" x1="8.436" style="fill:none;stroke:#000000;stroke-width:0.3;" x2="8.436" y1="-15.659"/>
  <line y2="-15.659" x1="21.685" style="fill:none;stroke:#000000;stroke-width:0.3;" x2="21.685" y1="-19.221"/>
  <line y2="-19.221" x1="35.311" style="fill:none;stroke:#000000;stroke-width:0.3;" x2="35.311" y1="-15.659"/>
  <line y2="-19.221" x1="50.186" style="fill:none;stroke:#000000;stroke-width:0.3;" x2="50.186" y1="-15.659"/>
 </g>
</svg>
