<?xml version="1.0"?>
<!-- Converted with SVG Converter - Version 0.9.5 (Compiled Fri Feb 21 09:53:38 2020) - Copyright (C) 2011 Nokia -->
<svg xmlns="http://www.w3.org/2000/svg" width="54.125" baseProfile="tiny" viewBox="0 -54.125 54.125 54.125" height="54.125" version="1.1" x="0px" y="0px" xml:space="preserve" xmlns:xlink="http://www.w3.org/1999/xlink">
 <g>
  <rect width="54.125" height="54.125" y="-54.125" style="fill:none;"/>
  <line x1="0" x2="4.122" y2="-48.2" style="fill:none;stroke:#000000;stroke-width:0.3;" y1="-48.2"/>
  <line x1="13.072" x2="6.703" y2="-48.2" style="fill:none;stroke:#000000;stroke-width:0.3;" y1="-48.2"/>
  <line x1="21.988" x2="15.619" y2="-48.2" style="fill:none;stroke:#000000;stroke-width:0.3;" y1="-48.2"/>
  <line x1="30.905" x2="24.536" y2="-48.2" style="fill:none;stroke:#000000;stroke-width:0.3;" y1="-48.2"/>
  <line x1="33.453" x2="39.822" y2="-48.2" style="fill:none;stroke:#000000;stroke-width:0.3;" y1="-48.2"/>
  <line x1="48.738" x2="42.369" y2="-48.2" style="fill:none;stroke:#000000;stroke-width:0.3;" y1="-48.2"/>
  <line x1="51.286" x2="54.125" y2="-48.2" style="fill:none;stroke:#000000;stroke-width:0.3;" y1="-48.2"/>
  <line x1="1.456" x2="7.825" y2="-39.97" style="fill:none;stroke:#000000;stroke-width:0.3;" y1="-39.97"/>
  <line x1="10.373" x2="16.741" y2="-39.97" style="fill:none;stroke:#000000;stroke-width:0.3;" y1="-39.97"/>
  <line x1="19.289" x2="25.658" y2="-39.97" style="fill:none;stroke:#000000;stroke-width:0.3;" y1="-39.97"/>
  <line x1="34.575" x2="28.206" y2="-39.97" style="fill:none;stroke:#000000;stroke-width:0.3;" y1="-39.97"/>
  <line x1="43.491" x2="37.122" y2="-39.97" style="fill:none;stroke:#000000;stroke-width:0.3;" y1="-39.97"/>
  <line x1="46.039" x2="52.408" y2="-39.97" style="fill:none;stroke:#000000;stroke-width:0.3;" y1="-39.97"/>
  <line x1="8.101" x2="1.731" y2="-25.25" style="fill:none;stroke:#000000;stroke-width:0.3;" y1="-25.25"/>
  <line x1="17.05" x2="10.681" y2="-25.25" style="fill:none;stroke:#000000;stroke-width:0.3;" y1="-25.25"/>
  <line x1="25.966" x2="19.598" y2="-25.25" style="fill:none;stroke:#000000;stroke-width:0.3;" y1="-25.25"/>
  <line x1="34.883" x2="28.514" y2="-25.25" style="fill:none;stroke:#000000;stroke-width:0.3;" y1="-25.25"/>
  <line x1="43.8" x2="37.431" y2="-25.25" style="fill:none;stroke:#000000;stroke-width:0.3;" y1="-25.25"/>
  <line x1="52.716" x2="46.347" y2="-25.25" style="fill:none;stroke:#000000;stroke-width:0.3;" y1="-25.25"/>
  <line x1="3.476" x2="0" y2="-17.607" style="fill:none;stroke:#000000;stroke-width:0.3;" y1="-17.607"/>
  <line x1="12.425" x2="6.056" y2="-17.607" style="fill:none;stroke:#000000;stroke-width:0.3;" y1="-17.607"/>
  <line x1="21.341" x2="14.973" y2="-17.607" style="fill:none;stroke:#000000;stroke-width:0.3;" y1="-17.607"/>
  <line x1="30.258" x2="23.889" y2="-17.607" style="fill:none;stroke:#000000;stroke-width:0.3;" y1="-17.607"/>
  <line x1="39.175" x2="32.806" y2="-17.607" style="fill:none;stroke:#000000;stroke-width:0.3;" y1="-17.607"/>
  <line x1="48.091" x2="41.722" y2="-17.607" style="fill:none;stroke:#000000;stroke-width:0.3;" y1="-17.607"/>
  <line x1="50.639" x2="54.125" y2="-17.607" style="fill:none;stroke:#000000;stroke-width:0.3;" y1="-17.607"/>
  <line x1="0" x2="1.517" y2="-10.465" style="fill:none;stroke:#000000;stroke-width:0.3;" y1="-10.465"/>
  <line x1="10.467" x2="4.098" y2="-10.465" style="fill:none;stroke:#000000;stroke-width:0.3;" y1="-10.465"/>
  <line x1="19.383" x2="13.014" y2="-10.465" style="fill:none;stroke:#000000;stroke-width:0.3;" y1="-10.465"/>
  <line x1="28.3" x2="21.931" y2="-10.465" style="fill:none;stroke:#000000;stroke-width:0.3;" y1="-10.465"/>
  <line x1="37.216" x2="30.847" y2="-10.465" style="fill:none;stroke:#000000;stroke-width:0.3;" y1="-10.465"/>
  <line x1="46.133" x2="39.764" y2="-10.465" style="fill:none;stroke:#000000;stroke-width:0.3;" y1="-10.465"/>
  <line x1="48.681" x2="54.125" y2="-10.465" style="fill:none;stroke:#000000;stroke-width:0.3;" y1="-10.465"/>
  <line x1="1.523" x2="7.892" y2="-2.469" style="fill:none;stroke:#000000;stroke-width:0.3;" y1="-2.469"/>
  <line x1="16.842" x2="10.473" y2="-2.469" style="fill:none;stroke:#000000;stroke-width:0.3;" y1="-2.469"/>
  <line x1="19.389" x2="25.758" y2="-2.469" style="fill:none;stroke:#000000;stroke-width:0.3;" y1="-2.469"/>
  <line x1="28.306" x2="34.675" y2="-2.469" style="fill:none;stroke:#000000;stroke-width:0.3;" y1="-2.469"/>
  <line x1="37.222" x2="43.591" y2="-2.469" style="fill:none;stroke:#000000;stroke-width:0.3;" y1="-2.469"/>
  <line x1="46.139" x2="52.508" y2="-2.469" style="fill:none;stroke:#000000;stroke-width:0.3;" y1="-2.469"/>
  <line x1="0" x2="3.101" y2="-32.958" style="fill:none;stroke:#000000;stroke-width:0.3;" y1="-32.958"/>
  <line x1="5.681" x2="12.05" y2="-32.958" style="fill:none;stroke:#000000;stroke-width:0.3;" y1="-32.958"/>
  <line x1="14.598" x2="20.966" y2="-32.958" style="fill:none;stroke:#000000;stroke-width:0.3;" y1="-32.958"/>
  <line x1="23.514" x2="29.883" y2="-32.958" style="fill:none;stroke:#000000;stroke-width:0.3;" y1="-32.958"/>
  <line x1="32.431" x2="38.8" y2="-32.958" style="fill:none;stroke:#000000;stroke-width:0.3;" y1="-32.958"/>
  <line x1="41.347" x2="47.716" y2="-32.958" style="fill:none;stroke:#000000;stroke-width:0.3;" y1="-32.958"/>
  <line x1="50.264" x2="54.125" y2="-32.958" style="fill:none;stroke:#000000;stroke-width:0.3;" y1="-32.958"/>
  <line x1="32.176" x2="46.551" y2="-50.375" style="fill:none;stroke:#000000;stroke-width:0.3;" y1="-50.375"/>
  <line x1="32.176" x2="18.676" y2="-50.375" style="fill:none;stroke:#000000;stroke-width:0.3;" y1="-50.375"/>
  <line x1="5.926" x2="0" y2="-50.375" style="fill:none;stroke:#000000;stroke-width:0.3;" y1="-50.375"/>
  <line x1="5.926" x2="18.676" y2="-50.375" style="fill:none;stroke:#000000;stroke-width:0.3;" y1="-50.375"/>
  <line x1="54.125" x2="46.551" y2="-50.375" style="fill:none;stroke:#000000;stroke-width:0.3;" y1="-50.375"/>
  <line x1="54.125" x2="0" y2="-46.2" style="fill:none;stroke:#000000;stroke-width:0.3;" y1="-46.2"/>
  <line x1="0" x2="54.125" y2="-42.013" style="fill:none;stroke:#000000;stroke-width:0.3;" y1="-42.013"/>
  <line x1="33.759" x2="48.634" y2="-12.4" style="fill:none;stroke:#000000;stroke-width:0.3;" y1="-12.4"/>
  <line x1="6.884" x2="20.134" y2="-12.4" style="fill:none;stroke:#000000;stroke-width:0.3;" y1="-12.4"/>
  <line x1="6.884" x2="0" y2="-12.4" style="fill:none;stroke:#000000;stroke-width:0.3;" y1="-12.4"/>
  <line x1="33.759" x2="20.134" y2="-12.4" style="fill:none;stroke:#000000;stroke-width:0.3;" y1="-12.4"/>
  <line x1="48.634" x2="54.125" y2="-12.4" style="fill:none;stroke:#000000;stroke-width:0.3;" y1="-12.4"/>
  <line x1="0" x2="54.125" y2="-8.625" style="fill:none;stroke:#000000;stroke-width:0.3;" y1="-8.625"/>
  <line x1="5.926" x2="0" y2="-37.994" style="fill:none;stroke:#000000;stroke-width:0.3;" y1="-37.994"/>
  <line x1="18.676" x2="5.926" y2="-37.994" style="fill:none;stroke:#000000;stroke-width:0.3;" y1="-37.994"/>
  <line x1="31.926" x2="18.676" y2="-37.994" style="fill:none;stroke:#000000;stroke-width:0.3;" y1="-37.994"/>
  <line x1="31.926" x2="46.551" y2="-37.994" style="fill:none;stroke:#000000;stroke-width:0.3;" y1="-37.994"/>
  <line x1="46.551" x2="54.125" y2="-37.994" style="fill:none;stroke:#000000;stroke-width:0.3;" y1="-37.994"/>
  <line x1="0" x2="54.125" y2="-34.713" style="fill:none;stroke:#000000;stroke-width:0.3;" y1="-34.713"/>
  <line x1="48.663" x2="54.125" y2="-31.288" style="fill:none;stroke:#000000;stroke-width:0.3;" y1="-31.288"/>
  <line x1="6.663" x2="0" y2="-31.288" style="fill:none;stroke:#000000;stroke-width:0.3;" y1="-31.288"/>
  <line x1="20.163" x2="6.663" y2="-31.288" style="fill:none;stroke:#000000;stroke-width:0.3;" y1="-31.288"/>
  <line x1="33.788" x2="20.163" y2="-31.288" style="fill:none;stroke:#000000;stroke-width:0.3;" y1="-31.288"/>
  <line x1="48.663" x2="33.788" y2="-31.288" style="fill:none;stroke:#000000;stroke-width:0.3;" y1="-31.288"/>
  <line x1="0" x2="54.125" y2="-27.238" style="fill:none;stroke:#000000;stroke-width:0.3;" y1="-27.238"/>
  <line x1="0" x2="54.125" y2="-23.438" style="fill:none;stroke:#000000;stroke-width:0.3;" y1="-23.438"/>
  <line x1="0" x2="54.125" y2="-19.238" style="fill:none;stroke:#000000;stroke-width:0.3;" y1="-19.238"/>
  <line x1="0" x2="54.125" y2="-16.013" style="fill:none;stroke:#000000;stroke-width:0.3;" y1="-16.013"/>
  <line x1="18.676" x2="5.926" y2="-0.838" style="fill:none;stroke:#000000;stroke-width:0.3;" y1="-0.838"/>
  <line x1="18.676" x2="32.176" y2="-0.838" style="fill:none;stroke:#000000;stroke-width:0.3;" y1="-0.838"/>
  <line x1="46.551" x2="54.125" y2="-0.838" style="fill:none;stroke:#000000;stroke-width:0.3;" y1="-0.838"/>
  <line x1="0" x2="5.926" y2="-0.838" style="fill:none;stroke:#000000;stroke-width:0.3;" y1="-0.838"/>
  <line x1="46.551" x2="32.176" y2="-0.838" style="fill:none;stroke:#000000;stroke-width:0.3;" y1="-0.838"/>
  <line x1="5.926" x2="5.926" y2="-54.125" style="fill:none;stroke:#000000;stroke-width:0.3;" y1="-50.375"/>
  <line x1="18.676" x2="18.676" y2="-50.375" style="fill:none;stroke:#000000;stroke-width:0.3;" y1="-54.125"/>
  <line x1="32.176" x2="32.176" y2="-54.125" style="fill:none;stroke:#000000;stroke-width:0.3;" y1="-50.375"/>
  <line x1="46.551" x2="46.551" y2="-50.375" style="fill:none;stroke:#000000;stroke-width:0.3;" y1="-54.125"/>
  <line x1="5.926" x2="5.926" y2="-0.838" style="fill:none;stroke:#000000;stroke-width:0.3;" y1="-0.85"/>
  <line x1="5.926" x2="5.926" y2="-0.838" style="fill:none;stroke:#000000;stroke-width:0.3;" y1="-0.001"/>
  <line x1="18.676" x2="18.676" y2="-0.001" style="fill:none;stroke:#000000;stroke-width:0.3;" y1="-0.838"/>
  <line x1="18.676" x2="18.676" y2="-0.85" style="fill:none;stroke:#000000;stroke-width:0.3;" y1="-0.838"/>
  <line x1="32.176" x2="32.176" y2="-0.838" style="fill:none;stroke:#000000;stroke-width:0.3;" y1="-0.001"/>
  <line x1="32.176" x2="32.176" y2="-0.838" style="fill:none;stroke:#000000;stroke-width:0.3;" y1="-0.85"/>
  <line x1="46.551" x2="46.551" y2="-0.85" style="fill:none;stroke:#000000;stroke-width:0.3;" y1="-0.838"/>
  <line x1="46.551" x2="46.551" y2="-0.001" style="fill:none;stroke:#000000;stroke-width:0.3;" y1="-0.838"/>
  <line x1="7.038" x2="7.038" y2="-42.025" style="fill:none;stroke:#000000;stroke-width:0.3;" y1="-46.075"/>
  <line x1="20.288" x2="20.288" y2="-42.025" style="fill:none;stroke:#000000;stroke-width:0.3;" y1="-46.075"/>
  <line x1="33.851" x2="33.851" y2="-42.025" style="fill:none;stroke:#000000;stroke-width:0.3;" y1="-46.075"/>
  <line x1="48.788" x2="48.788" y2="-42.025" style="fill:none;stroke:#000000;stroke-width:0.3;" y1="-46.075"/>
  <line x1="46.551" x2="46.551" y2="-37.994" style="fill:none;stroke:#000000;stroke-width:0.3;" y1="-34.725"/>
  <line x1="46.551" x2="46.551" y2="-37.994" style="fill:none;stroke:#000000;stroke-width:0.3;" y1="-38.025"/>
  <line x1="31.926" x2="31.926" y2="-38.025" style="fill:none;stroke:#000000;stroke-width:0.3;" y1="-37.994"/>
  <line x1="31.926" x2="31.926" y2="-34.725" style="fill:none;stroke:#000000;stroke-width:0.3;" y1="-37.994"/>
  <line x1="18.676" x2="18.676" y2="-37.994" style="fill:none;stroke:#000000;stroke-width:0.3;" y1="-38.025"/>
  <line x1="18.676" x2="18.676" y2="-34.725" style="fill:none;stroke:#000000;stroke-width:0.3;" y1="-37.994"/>
  <line x1="5.926" x2="5.926" y2="-34.725" style="fill:none;stroke:#000000;stroke-width:0.3;" y1="-37.994"/>
  <line x1="5.926" x2="5.926" y2="-37.994" style="fill:none;stroke:#000000;stroke-width:0.3;" y1="-38.025"/>
  <line x1="6.663" x2="6.663" y2="-31.288" style="fill:none;stroke:#000000;stroke-width:0.3;" y1="-31.3"/>
  <line x1="6.663" x2="6.663" y2="-27.25" style="fill:none;stroke:#000000;stroke-width:0.3;" y1="-31.288"/>
  <line x1="20.163" x2="20.163" y2="-31.288" style="fill:none;stroke:#000000;stroke-width:0.3;" y1="-31.3"/>
  <line x1="20.163" x2="20.163" y2="-27.25" style="fill:none;stroke:#000000;stroke-width:0.3;" y1="-31.288"/>
  <line x1="33.788" x2="33.788" y2="-31.288" style="fill:none;stroke:#000000;stroke-width:0.3;" y1="-31.3"/>
  <line x1="33.788" x2="33.788" y2="-27.25" style="fill:none;stroke:#000000;stroke-width:0.3;" y1="-31.288"/>
  <line x1="48.663" x2="48.663" y2="-27.25" style="fill:none;stroke:#000000;stroke-width:0.3;" y1="-31.288"/>
  <line x1="48.663" x2="48.663" y2="-31.3" style="fill:none;stroke:#000000;stroke-width:0.3;" y1="-31.288"/>
  <line x1="5.525" x2="5.525" y2="-19.25" style="fill:none;stroke:#000000;stroke-width:0.3;" y1="-23.388"/>
  <line x1="18.525" x2="18.525" y2="-19.25" style="fill:none;stroke:#000000;stroke-width:0.3;" y1="-23.388"/>
  <line x1="32.15" x2="32.15" y2="-19.25" style="fill:none;stroke:#000000;stroke-width:0.3;" y1="-23.388"/>
  <line x1="46.4" x2="46.4" y2="-23.388" style="fill:none;stroke:#000000;stroke-width:0.3;" y1="-19.25"/>
  <line x1="6.884" x2="6.884" y2="-15.963" style="fill:none;stroke:#000000;stroke-width:0.3;" y1="-12.4"/>
  <line x1="20.134" x2="20.134" y2="-12.4" style="fill:none;stroke:#000000;stroke-width:0.3;" y1="-15.963"/>
  <line x1="33.759" x2="33.759" y2="-15.963" style="fill:none;stroke:#000000;stroke-width:0.3;" y1="-12.4"/>
  <line x1="48.634" x2="48.634" y2="-15.963" style="fill:none;stroke:#000000;stroke-width:0.3;" y1="-12.4"/>
  <line x1="0" x2="54.125" y2="-4.212" style="fill:none;stroke:#000000;stroke-width:0.3;" y1="-4.212"/>
  <line x1="4.571" x2="4.571" y2="-4.238" style="fill:none;stroke:#000000;stroke-width:0.3;" y1="-8.588"/>
  <line x1="17.571" x2="17.571" y2="-4.238" style="fill:none;stroke:#000000;stroke-width:0.3;" y1="-8.588"/>
  <line x1="31.571" x2="31.571" y2="-4.238" style="fill:none;stroke:#000000;stroke-width:0.3;" y1="-8.588"/>
  <line x1="46.134" x2="46.134" y2="-4.238" style="fill:none;stroke:#000000;stroke-width:0.3;" y1="-8.588"/>
  <line x1="8.759" x2="16.009" y2="-52.467" style="fill:none;stroke:#000000;stroke-width:0.3;" y1="-52.467"/>
  <line x1="35.884" x2="43.134" y2="-52.467" style="fill:none;stroke:#000000;stroke-width:0.3;" y1="-52.467"/>
  <line x1="30.759" x2="23.509" y2="-44.142" style="fill:none;stroke:#000000;stroke-width:0.3;" y1="-44.142"/>
  <line x1="4.434" x2="0" y2="-44.142" style="fill:none;stroke:#000000;stroke-width:0.3;" y1="-44.142"/>
  <line x1="42.684" x2="35.434" y2="-36.392" style="fill:none;stroke:#000000;stroke-width:0.3;" y1="-36.392"/>
  <line x1="54.092" x2="51.309" y2="-29.142" style="fill:none;stroke:#000000;stroke-width:0.3;" y1="-29.142"/>
  <line x1="43.059" x2="35.809" y2="-21.392" style="fill:none;stroke:#000000;stroke-width:0.3;" y1="-21.392"/>
  <line x1="23.559" x2="30.809" y2="-14.142" style="fill:none;stroke:#000000;stroke-width:0.3;" y1="-14.142"/>
  <line x1="14.559" x2="7.309" y2="-6.142" style="fill:none;stroke:#000000;stroke-width:0.3;" y1="-6.142"/>
  <line x1="15.809" x2="8.559" y2="-36.28" style="fill:none;stroke:#000000;stroke-width:0.3;" y1="-36.28"/>
  <line x1="30.559" x2="23.309" y2="-29.28" style="fill:none;stroke:#000000;stroke-width:0.3;" y1="-29.28"/>
  <line x1="15.684" x2="8.434" y2="-21.28" style="fill:none;stroke:#000000;stroke-width:0.3;" y1="-21.28"/>
  <line x1="0" x2="3.809" y2="-14.03" style="fill:none;stroke:#000000;stroke-width:0.3;" y1="-14.03"/>
  <line x1="42.559" x2="35.309" y2="-6.28" style="fill:none;stroke:#000000;stroke-width:0.3;" y1="-6.28"/>
  <line x1="54.071" x2="51.259" y2="-44.142" style="fill:none;stroke:#000000;stroke-width:0.3;" y1="-44.142"/>
  <line x1="51.259" x2="54.071" y2="-14.03" style="fill:none;stroke:#000000;stroke-width:0.3;" y1="-14.03"/>
  <line x1="2.634" x2="0.009" y2="-29.142" style="fill:none;stroke:#000000;stroke-width:0.3;" y1="-29.142"/>
  <rect width="54.125" height="54.125" y="-54.125" style="fill:none;"/>
  <line x1="25.342" x2="25.342" y2="-52.438" style="fill:none;stroke:#000000;stroke-width:0.7;stroke-linecap:round;" y1="-52.438"/>
  <line x1="22.226" x2="22.226" y2="-52.438" style="fill:none;stroke:#000000;stroke-width:0.7;stroke-linecap:round;" y1="-52.438"/>
  <line x1="28.092" x2="28.092" y2="-52.438" style="fill:none;stroke:#000000;stroke-width:0.7;stroke-linecap:round;" y1="-52.438"/>
  <line x1="1.892" x2="1.892" y2="-52.438" style="fill:none;stroke:#000000;stroke-width:0.7;stroke-linecap:round;" y1="-52.438"/>
  <line x1="53.392" x2="53.392" y2="-52.438" style="fill:none;stroke:#000000;stroke-width:0.7;stroke-linecap:round;" y1="-52.438"/>
  <line x1="51.059" x2="51.059" y2="-52.438" style="fill:none;stroke:#000000;stroke-width:0.7;stroke-linecap:round;" y1="-52.438"/>
  <line x1="13.726" x2="13.726" y2="-44.155" style="fill:none;stroke:#000000;stroke-width:0.7;stroke-linecap:round;" y1="-44.155"/>
  <line x1="16.726" x2="16.726" y2="-44.155" style="fill:none;stroke:#000000;stroke-width:0.7;stroke-linecap:round;" y1="-44.155"/>
  <line x1="10.559" x2="10.559" y2="-44.155" style="fill:none;stroke:#000000;stroke-width:0.7;stroke-linecap:round;" y1="-44.155"/>
  <line x1="13.559" x2="13.559" y2="-29.254" style="fill:none;stroke:#000000;stroke-width:0.7;stroke-linecap:round;" y1="-29.254"/>
  <line x1="16.559" x2="16.559" y2="-29.254" style="fill:none;stroke:#000000;stroke-width:0.7;stroke-linecap:round;" y1="-29.254"/>
  <line x1="10.392" x2="10.392" y2="-29.254" style="fill:none;stroke:#000000;stroke-width:0.7;stroke-linecap:round;" y1="-29.254"/>
  <line x1="41.392" x2="41.392" y2="-29.254" style="fill:none;stroke:#000000;stroke-width:0.7;stroke-linecap:round;" y1="-29.254"/>
  <line x1="44.392" x2="44.392" y2="-29.254" style="fill:none;stroke:#000000;stroke-width:0.7;stroke-linecap:round;" y1="-29.254"/>
  <line x1="38.226" x2="38.226" y2="-29.254" style="fill:none;stroke:#000000;stroke-width:0.7;stroke-linecap:round;" y1="-29.254"/>
  <line x1="25.559" x2="25.559" y2="-21.254" style="fill:none;stroke:#000000;stroke-width:0.7;stroke-linecap:round;" y1="-21.254"/>
  <line x1="28.559" x2="28.559" y2="-21.254" style="fill:none;stroke:#000000;stroke-width:0.7;stroke-linecap:round;" y1="-21.254"/>
  <line x1="22.392" x2="22.392" y2="-21.254" style="fill:none;stroke:#000000;stroke-width:0.7;stroke-linecap:round;" y1="-21.254"/>
  <line x1="41.559" x2="41.559" y2="-14.088" style="fill:none;stroke:#000000;stroke-width:0.7;stroke-linecap:round;" y1="-14.088"/>
  <line x1="44.559" x2="44.559" y2="-14.088" style="fill:none;stroke:#000000;stroke-width:0.7;stroke-linecap:round;" y1="-14.088"/>
  <line x1="38.392" x2="38.392" y2="-14.088" style="fill:none;stroke:#000000;stroke-width:0.7;stroke-linecap:round;" y1="-14.088"/>
  <line x1="13.892" x2="13.892" y2="-14.088" style="fill:none;stroke:#000000;stroke-width:0.7;stroke-linecap:round;" y1="-14.088"/>
  <line x1="16.892" x2="16.892" y2="-14.088" style="fill:none;stroke:#000000;stroke-width:0.7;stroke-linecap:round;" y1="-14.088"/>
  <line x1="10.726" x2="10.726" y2="-14.088" style="fill:none;stroke:#000000;stroke-width:0.7;stroke-linecap:round;" y1="-14.088"/>
  <line x1="25.059" x2="25.059" y2="-6.321" style="fill:none;stroke:#000000;stroke-width:0.7;stroke-linecap:round;" y1="-6.321"/>
  <line x1="28.059" x2="28.059" y2="-6.321" style="fill:none;stroke:#000000;stroke-width:0.7;stroke-linecap:round;" y1="-6.321"/>
  <line x1="21.892" x2="21.892" y2="-6.321" style="fill:none;stroke:#000000;stroke-width:0.7;stroke-linecap:round;" y1="-6.321"/>
  <line x1="53.059" x2="53.059" y2="-6.321" style="fill:none;stroke:#000000;stroke-width:0.7;stroke-linecap:round;" y1="-6.321"/>
  <line x1="1.726" x2="1.726" y2="-6.321" style="fill:none;stroke:#000000;stroke-width:0.7;stroke-linecap:round;" y1="-6.321"/>
  <line x1="49.892" x2="49.892" y2="-6.321" style="fill:none;stroke:#000000;stroke-width:0.7;stroke-linecap:round;" y1="-6.321"/>
  <line x1="53.059" x2="53.059" y2="-21.254" style="fill:none;stroke:#000000;stroke-width:0.7;stroke-linecap:round;" y1="-21.254"/>
  <line x1="49.892" x2="49.892" y2="-21.254" style="fill:none;stroke:#000000;stroke-width:0.7;stroke-linecap:round;" y1="-21.254"/>
  <line x1="2.392" x2="2.392" y2="-21.254" style="fill:none;stroke:#000000;stroke-width:0.7;stroke-linecap:round;" y1="-21.254"/>
  <line x1="41.392" x2="41.392" y2="-44.155" style="fill:none;stroke:#000000;stroke-width:0.7;stroke-linecap:round;" y1="-44.155"/>
  <line x1="44.559" x2="44.559" y2="-44.155" style="fill:none;stroke:#000000;stroke-width:0.7;stroke-linecap:round;" y1="-44.155"/>
  <line x1="37.726" x2="37.726" y2="-44.155" style="fill:none;stroke:#000000;stroke-width:0.7;stroke-linecap:round;" y1="-44.155"/>
  <line x1="25.392" x2="25.392" y2="-36.254" style="fill:none;stroke:#000000;stroke-width:0.7;stroke-linecap:round;" y1="-36.254"/>
  <line x1="28.226" x2="28.226" y2="-36.254" style="fill:none;stroke:#000000;stroke-width:0.7;stroke-linecap:round;" y1="-36.254"/>
  <line x1="22.059" x2="22.059" y2="-36.254" style="fill:none;stroke:#000000;stroke-width:0.7;stroke-linecap:round;" y1="-36.254"/>
  <line x1="53.226" x2="53.226" y2="-36.254" style="fill:none;stroke:#000000;stroke-width:0.7;stroke-linecap:round;" y1="-36.254"/>
  <line x1="1.959" x2="1.959" y2="-36.254" style="fill:none;stroke:#000000;stroke-width:0.7;stroke-linecap:round;" y1="-36.254"/>
  <line x1="49.892" x2="49.892" y2="-36.254" style="fill:none;stroke:#000000;stroke-width:0.7;stroke-linecap:round;" y1="-36.254"/>
 </g>
</svg>
