<?xml version="1.0"?>
<!-- Converted with SVG Converter - Version 0.9.5 (Compiled Fri Feb 21 09:53:38 2020) - Copyright (C) 2011 Nokia -->
<svg xmlns="http://www.w3.org/2000/svg" viewBox="0 -48.713 48.712 48.712" baseProfile="tiny" version="1.1" xmlns:xlink="http://www.w3.org/1999/xlink" y="0px" x="0px" width="48.712" height="48.712" xml:space="preserve">
 <g>
  <rect style="fill:none;" y="-48.713" x="0" width="48.712" height="48.712"/>
  <line style="fill:none;stroke:#000000;stroke-width:0.3;" x2="0" x1="3.52" y1="-34.511" y2="-34.511"/>
  <line style="fill:none;stroke:#000000;stroke-width:0.3;" x2="11.545" x1="5.812" y1="-34.511" y2="-34.511"/>
  <line style="fill:none;stroke:#000000;stroke-width:0.3;" x2="19.569" x1="13.838" y1="-34.511" y2="-34.511"/>
  <line style="fill:none;stroke:#000000;stroke-width:0.3;" x2="27.595" x1="21.862" y1="-34.511" y2="-34.511"/>
  <line style="fill:none;stroke:#000000;stroke-width:0.3;" x2="35.619" x1="29.888" y1="-34.511" y2="-34.511"/>
  <line style="fill:none;stroke:#000000;stroke-width:0.3;" x2="43.645" x1="37.912" y1="-34.511" y2="-34.511"/>
  <line style="fill:none;stroke:#000000;stroke-width:0.3;" x2="45.938" x1="48.712" y1="-34.511" y2="-34.511"/>
  <line style="fill:none;stroke:#000000;stroke-width:0.3;" x2="0.768" x1="0" y1="-31.304" y2="-31.304"/>
  <line style="fill:none;stroke:#000000;stroke-width:0.3;" x2="3.09" x1="8.822" y1="-31.304" y2="-31.304"/>
  <line style="fill:none;stroke:#000000;stroke-width:0.3;" x2="11.115" x1="16.847" y1="-31.304" y2="-31.304"/>
  <line style="fill:none;stroke:#000000;stroke-width:0.3;" x2="19.14" x1="24.872" y1="-31.304" y2="-31.304"/>
  <line style="fill:none;stroke:#000000;stroke-width:0.3;" x2="27.165" x1="32.896" y1="-31.304" y2="-31.304"/>
  <line style="fill:none;stroke:#000000;stroke-width:0.3;" x2="35.189" x1="40.922" y1="-31.304" y2="-31.304"/>
  <line style="fill:none;stroke:#000000;stroke-width:0.3;" x2="48.712" x1="43.215" y1="-31.304" y2="-31.304"/>
  <line style="fill:none;stroke:#000000;stroke-width:0.3;" x2="3.52" x1="0" y1="-10.808" y2="-10.808"/>
  <line style="fill:none;stroke:#000000;stroke-width:0.3;" x2="11.545" x1="5.812" y1="-10.808" y2="-10.808"/>
  <line style="fill:none;stroke:#000000;stroke-width:0.3;" x2="19.569" x1="13.838" y1="-10.808" y2="-10.808"/>
  <line style="fill:none;stroke:#000000;stroke-width:0.3;" x2="27.595" x1="21.862" y1="-10.808" y2="-10.808"/>
  <line style="fill:none;stroke:#000000;stroke-width:0.3;" x2="35.619" x1="29.888" y1="-10.808" y2="-10.808"/>
  <line style="fill:none;stroke:#000000;stroke-width:0.3;" x2="43.645" x1="37.912" y1="-10.808" y2="-10.808"/>
  <line style="fill:none;stroke:#000000;stroke-width:0.3;" x2="48.712" x1="45.938" y1="-10.808" y2="-10.808"/>
  <line style="fill:none;stroke:#000000;stroke-width:0.3;" x2="0.768" x1="0" y1="-6.938" y2="-6.938"/>
  <line style="fill:none;stroke:#000000;stroke-width:0.3;" x2="3.09" x1="8.822" y1="-6.938" y2="-6.938"/>
  <line style="fill:none;stroke:#000000;stroke-width:0.3;" x2="11.115" x1="16.847" y1="-6.938" y2="-6.938"/>
  <line style="fill:none;stroke:#000000;stroke-width:0.3;" x2="24.872" x1="19.14" y1="-6.938" y2="-6.938"/>
  <line style="fill:none;stroke:#000000;stroke-width:0.3;" x2="27.165" x1="32.896" y1="-6.938" y2="-6.938"/>
  <line style="fill:none;stroke:#000000;stroke-width:0.3;" x2="35.189" x1="40.922" y1="-6.938" y2="-6.938"/>
  <line style="fill:none;stroke:#000000;stroke-width:0.3;" x2="48.712" x1="43.215" y1="-6.938" y2="-6.938"/>
  <line style="fill:none;stroke:#000000;stroke-width:0.3;" x2="41.895" x1="48.532" y1="-45.281" y2="-45.281"/>
  <line style="fill:none;stroke:#000000;stroke-width:0.3;" x2="5.333" x1="0" y1="-45.281" y2="-45.281"/>
  <line style="fill:none;stroke:#000000;stroke-width:0.3;" x2="36.99" x1="41.895" y1="-45.281" y2="-45.281"/>
  <line style="fill:none;stroke:#000000;stroke-width:0.3;" x2="48.712" x1="48.532" y1="-45.281" y2="-45.281"/>
  <line style="fill:none;stroke:#000000;stroke-width:0.3;" x2="16.808" x1="24.728" y1="-45.281" y2="-45.281"/>
  <line style="fill:none;stroke:#000000;stroke-width:0.3;" x2="36.99" x1="28.957" y1="-45.281" y2="-45.281"/>
  <line style="fill:none;stroke:#000000;stroke-width:0.3;" x2="24.728" x1="28.957" y1="-45.281" y2="-45.281"/>
  <line style="fill:none;stroke:#000000;stroke-width:0.3;" x2="16.808" x1="11.34" y1="-45.281" y2="-45.281"/>
  <line style="fill:none;stroke:#000000;stroke-width:0.3;" x2="5.333" x1="11.34" y1="-45.281" y2="-45.281"/>
  <line style="fill:none;stroke:#000000;stroke-width:0.3;" x2="0" x1="48.712" y1="-41.523" y2="-41.523"/>
  <line style="fill:none;stroke:#000000;stroke-width:0.3;" x2="30.408" x1="18.146" y1="-28.102" y2="-28.102"/>
  <line style="fill:none;stroke:#000000;stroke-width:0.3;" x2="48.712" x1="43.796" y1="-28.102" y2="-28.102"/>
  <line style="fill:none;stroke:#000000;stroke-width:0.3;" x2="30.408" x1="43.796" y1="-28.102" y2="-28.102"/>
  <line style="fill:none;stroke:#000000;stroke-width:0.3;" x2="5.996" x1="18.146" y1="-28.102" y2="-28.102"/>
  <line style="fill:none;stroke:#000000;stroke-width:0.3;" x2="0" x1="5.996" y1="-28.102" y2="-28.102"/>
  <line style="fill:none;stroke:#000000;stroke-width:0.3;" x2="0" x1="48.712" y1="-24.457" y2="-24.457"/>
  <line style="fill:none;stroke:#000000;stroke-width:0.3;" x2="0" x1="48.712" y1="-21.037" y2="-21.037"/>
  <line style="fill:none;stroke:#000000;stroke-width:0.3;" x2="0" x1="48.712" y1="-17.257" y2="-17.257"/>
  <line style="fill:none;stroke:#000000;stroke-width:0.3;" x2="16.808" x1="9.267" y1="-0.697" y2="-0.697"/>
  <line style="fill:none;stroke:#000000;stroke-width:0.3;" x2="34.522" x1="28.957" y1="-0.697" y2="-0.697"/>
  <line style="fill:none;stroke:#000000;stroke-width:0.3;" x2="34.522" x1="41.895" y1="-0.697" y2="-0.697"/>
  <line style="fill:none;stroke:#000000;stroke-width:0.3;" x2="41.895" x1="46.56" y1="-0.697" y2="-0.697"/>
  <line style="fill:none;stroke:#000000;stroke-width:0.3;" x2="48.712" x1="46.56" y1="-0.697" y2="-0.697"/>
  <line style="fill:none;stroke:#000000;stroke-width:0.3;" x2="28.957" x1="22.26" y1="-0.697" y2="-0.697"/>
  <line style="fill:none;stroke:#000000;stroke-width:0.3;" x2="5.333" x1="9.267" y1="-0.697" y2="-0.697"/>
  <line style="fill:none;stroke:#000000;stroke-width:0.3;" x2="22.26" x1="16.808" y1="-0.697" y2="-0.697"/>
  <line style="fill:none;stroke:#000000;stroke-width:0.3;" x2="5.333" x1="0" y1="-0.697" y2="-0.697"/>
  <line style="fill:none;stroke:#000000;stroke-width:0.3;" x2="5.333" x1="5.333" y1="-45.281" y2="-48.713"/>
  <line style="fill:none;stroke:#000000;stroke-width:0.3;" x2="16.808" x1="16.808" y1="-45.281" y2="-48.713"/>
  <line style="fill:none;stroke:#000000;stroke-width:0.3;" x2="28.957" x1="28.957" y1="-45.281" y2="-48.713"/>
  <line style="fill:none;stroke:#000000;stroke-width:0.3;" x2="41.895" x1="41.895" y1="-45.281" y2="-48.713"/>
  <line style="fill:none;stroke:#000000;stroke-width:0.3;" x2="5.333" x1="5.333" y1="-0.697" y2="-0.001"/>
  <line style="fill:none;stroke:#000000;stroke-width:0.3;" x2="5.333" x1="5.333" y1="-0.709" y2="-0.697"/>
  <line style="fill:none;stroke:#000000;stroke-width:0.3;" x2="16.808" x1="16.808" y1="-0.709" y2="-0.697"/>
  <line style="fill:none;stroke:#000000;stroke-width:0.3;" x2="16.808" x1="16.808" y1="-0.697" y2="-0.001"/>
  <line style="fill:none;stroke:#000000;stroke-width:0.3;" x2="28.957" x1="28.957" y1="-0.697" y2="-0.709"/>
  <line style="fill:none;stroke:#000000;stroke-width:0.3;" x2="28.957" x1="28.957" y1="-0.001" y2="-0.697"/>
  <line style="fill:none;stroke:#000000;stroke-width:0.3;" x2="41.895" x1="41.895" y1="-0.697" y2="-0.001"/>
  <line style="fill:none;stroke:#000000;stroke-width:0.3;" x2="41.895" x1="41.895" y1="-0.709" y2="-0.697"/>
  <line style="fill:none;stroke:#000000;stroke-width:0.3;" x2="11.34" x1="11.34" y1="-45.281" y2="-41.535"/>
  <line style="fill:none;stroke:#000000;stroke-width:0.3;" x2="11.34" x1="11.34" y1="-45.281" y2="-45.337"/>
  <line style="fill:none;stroke:#000000;stroke-width:0.3;" x2="24.728" x1="24.728" y1="-45.337" y2="-45.281"/>
  <line style="fill:none;stroke:#000000;stroke-width:0.3;" x2="24.728" x1="24.728" y1="-45.281" y2="-41.535"/>
  <line style="fill:none;stroke:#000000;stroke-width:0.3;" x2="36.99" x1="36.99" y1="-41.535" y2="-45.281"/>
  <line style="fill:none;stroke:#000000;stroke-width:0.3;" x2="36.99" x1="36.99" y1="-45.337" y2="-45.281"/>
  <line style="fill:none;stroke:#000000;stroke-width:0.3;" x2="48.532" x1="48.532" y1="-45.281" y2="-41.535"/>
  <line style="fill:none;stroke:#000000;stroke-width:0.3;" x2="5.996" x1="5.996" y1="-28.102" y2="-28.113"/>
  <line style="fill:none;stroke:#000000;stroke-width:0.3;" x2="5.996" x1="5.996" y1="-28.102" y2="-24.468"/>
  <line style="fill:none;stroke:#000000;stroke-width:0.3;" x2="18.146" x1="18.146" y1="-28.113" y2="-28.102"/>
  <line style="fill:none;stroke:#000000;stroke-width:0.3;" x2="18.146" x1="18.146" y1="-28.102" y2="-24.468"/>
  <line style="fill:none;stroke:#000000;stroke-width:0.3;" x2="30.408" x1="30.408" y1="-28.113" y2="-28.102"/>
  <line style="fill:none;stroke:#000000;stroke-width:0.3;" x2="30.408" x1="30.408" y1="-24.468" y2="-28.102"/>
  <line style="fill:none;stroke:#000000;stroke-width:0.3;" x2="43.796" x1="43.796" y1="-28.113" y2="-28.102"/>
  <line style="fill:none;stroke:#000000;stroke-width:0.3;" x2="43.796" x1="43.796" y1="-28.102" y2="-24.468"/>
  <line style="fill:none;stroke:#000000;stroke-width:0.3;" x2="0" x1="48.712" y1="-14.149" y2="-14.149"/>
  <line style="fill:none;stroke:#000000;stroke-width:0.3;" x2="8.548" x1="8.548" y1="-17.238" y2="-14.161"/>
  <line style="fill:none;stroke:#000000;stroke-width:0.3;" x2="20.697" x1="20.697" y1="-14.161" y2="-17.238"/>
  <line style="fill:none;stroke:#000000;stroke-width:0.3;" x2="32.96" x1="32.96" y1="-14.161" y2="-17.238"/>
  <line style="fill:none;stroke:#000000;stroke-width:0.3;" x2="46.348" x1="46.348" y1="-14.161" y2="-17.238"/>
  <line style="fill:none;stroke:#000000;stroke-width:0.3;" x2="36.033" x1="36.033" y1="-21.048" y2="-24.412"/>
  <line style="fill:none;stroke:#000000;stroke-width:0.3;" x2="24.041" x1="24.041" y1="-21.048" y2="-24.412"/>
  <line style="fill:none;stroke:#000000;stroke-width:0.3;" x2="10.541" x1="10.541" y1="-24.412" y2="-21.048"/>
  <line style="fill:none;stroke:#000000;stroke-width:0.3;" x2="47.939" x1="47.939" y1="-21.048" y2="-24.412"/>
  <line style="fill:none;stroke:#000000;stroke-width:0.3;" x2="0" x1="48.712" y1="-37.912" y2="-37.912"/>
  <line style="fill:none;stroke:#000000;stroke-width:0.3;" x2="27.925" x1="27.925" y1="-37.923" y2="-41.287"/>
  <line style="fill:none;stroke:#000000;stroke-width:0.3;" x2="15.933" x1="15.933" y1="-37.923" y2="-41.287"/>
  <line style="fill:none;stroke:#000000;stroke-width:0.3;" x2="2.433" x1="2.433" y1="-37.923" y2="-41.287"/>
  <line style="fill:none;stroke:#000000;stroke-width:0.3;" x2="39.831" x1="39.831" y1="-37.923" y2="-41.287"/>
  <line style="fill:none;stroke:#000000;stroke-width:0.3;" x2="4.973" x1="4.973" y1="-20.992" y2="-17.269"/>
  <line style="fill:none;stroke:#000000;stroke-width:0.3;" x2="16.673" x1="16.673" y1="-17.269" y2="-20.992"/>
  <line style="fill:none;stroke:#000000;stroke-width:0.3;" x2="28.935" x1="28.935" y1="-17.269" y2="-20.992"/>
  <line style="fill:none;stroke:#000000;stroke-width:0.3;" x2="41.76" x1="41.76" y1="-17.269" y2="-20.992"/>
  <line style="fill:none;stroke:#000000;stroke-width:0.3;" x2="48.712" x1="46.56" y1="-3.735" y2="-3.735"/>
  <line style="fill:none;stroke:#000000;stroke-width:0.3;" x2="34.522" x1="46.56" y1="-3.735" y2="-3.735"/>
  <line style="fill:none;stroke:#000000;stroke-width:0.3;" x2="0" x1="9.267" y1="-3.735" y2="-3.735"/>
  <line style="fill:none;stroke:#000000;stroke-width:0.3;" x2="34.522" x1="22.26" y1="-3.735" y2="-3.735"/>
  <line style="fill:none;stroke:#000000;stroke-width:0.3;" x2="22.26" x1="9.267" y1="-3.735" y2="-3.735"/>
  <line style="fill:none;stroke:#000000;stroke-width:0.3;" x2="9.267" x1="9.267" y1="-0.697" y2="-0.641"/>
  <line style="fill:none;stroke:#000000;stroke-width:0.3;" x2="9.267" x1="9.267" y1="-3.735" y2="-0.697"/>
  <line style="fill:none;stroke:#000000;stroke-width:0.3;" x2="9.267" x1="9.267" y1="-3.735" y2="-3.757"/>
  <line style="fill:none;stroke:#000000;stroke-width:0.3;" x2="22.26" x1="22.26" y1="-3.735" y2="-0.697"/>
  <line style="fill:none;stroke:#000000;stroke-width:0.3;" x2="22.26" x1="22.26" y1="-0.641" y2="-0.697"/>
  <line style="fill:none;stroke:#000000;stroke-width:0.3;" x2="22.26" x1="22.26" y1="-3.757" y2="-3.735"/>
  <line style="fill:none;stroke:#000000;stroke-width:0.3;" x2="34.522" x1="34.522" y1="-0.697" y2="-0.641"/>
  <line style="fill:none;stroke:#000000;stroke-width:0.3;" x2="34.522" x1="34.522" y1="-0.697" y2="-3.735"/>
  <line style="fill:none;stroke:#000000;stroke-width:0.3;" x2="34.522" x1="34.522" y1="-3.757" y2="-3.735"/>
  <line style="fill:none;stroke:#000000;stroke-width:0.3;" x2="46.56" x1="46.56" y1="-0.697" y2="-0.641"/>
  <line style="fill:none;stroke:#000000;stroke-width:0.3;" x2="46.56" x1="46.56" y1="-3.735" y2="-0.697"/>
  <line style="fill:none;stroke:#000000;stroke-width:0.3;" x2="46.56" x1="46.56" y1="-3.735" y2="-3.757"/>
 </g>
</svg>
