<?xml version="1.0"?>
<!-- Converted with SVG Converter - Version 0.9.5 (Compiled Fri Feb 21 09:53:38 2020) - Copyright (C) 2011 Nokia -->
<svg xmlns="http://www.w3.org/2000/svg" y="0px" height="54.125" viewBox="0 -54.125 54.125 54.125" xmlns:xlink="http://www.w3.org/1999/xlink" xml:space="preserve" x="0px" version="1.1" baseProfile="tiny" width="54.125">
 <g>
  <rect y="-54.125" height="54.125" style="fill:none;" width="54.125"/>
  <circle r="1.015" cx="41.517" style="fill:none;stroke:#000000;stroke-width:0.43;" cy="-2.099"/>
  <circle r="1.015" cx="8.018" style="fill:none;stroke:#000000;stroke-width:0.43;" cy="-13.742"/>
  <circle r="1.015" cx="14.94" style="fill:none;stroke:#000000;stroke-width:0.43;" cy="-2.791"/>
  <circle r="1.015" cx="21.395" style="fill:none;stroke:#000000;stroke-width:0.43;" cy="-12.686"/>
  <circle r="1.015" cx="35.116" style="fill:none;stroke:#000000;stroke-width:0.43;" cy="-7.849"/>
  <circle r="1.015" cx="40.822" style="fill:none;stroke:#000000;stroke-width:0.43;" cy="-13.408"/>
  <circle r="1.015" cx="52.875" style="fill:none;stroke:#000000;stroke-width:0.43;" cy="-18.811"/>
  <circle r="1.015" cx="29.388" style="fill:none;stroke:#000000;stroke-width:0.43;" cy="-15.351"/>
  <path style="fill:none;stroke:#000000;stroke-width:0.43;" d="M31.552-14.392c0,0,2.927-2.548,2.609-3.503"/>
  <line y1="-16.193" x1="40.712" style="fill:none;stroke:#000000;stroke-width:0.43;" y2="-19.535" x2="39.598"/>
  <path style="fill:none;stroke:#000000;stroke-width:0.43;" d="M44.848-49.699c0.636-0.318-1.432,1.91-1.273,3.182"/>
  <path style="fill:none;stroke:#000000;stroke-width:0.43;" d="M46.133-9.068c-0.796-0.16,2.705-1.274,3.341-2.069"/>
  <path style="fill:none;stroke:#000000;stroke-width:0.43;" d="M9.188-6.76c-0.796-0.159,2.705-1.273,3.341-2.068"/>
  <path style="fill:none;stroke:#000000;stroke-width:0.43;" d="M21.388-6.731c-3.079,0-2.989-0.619-4.614-1.114"/>
  <line y1="-37.427" x1="0.706" style="fill:none;stroke:#000000;stroke-width:0.43;" y2="-37.109" x2="5.479"/>
  <path style="fill:none;stroke:#000000;stroke-width:0.43;" d="M33.195-39.949c-0.955,0-3.501-1.275-3.66-2.07"/>
  <path style="fill:none;stroke:#000000;stroke-width:0.43;" d="M5.241-0.982c-0.955,0-3.5-1.273-3.66-2.068"/>
  <path style="fill:none;stroke:#000000;stroke-width:0.43;" d="M17.565-14.003c0.167-0.666-3.015,1.245-2.756,1.899"/>
  <circle r="1.015" cx="10.932" style="fill:none;stroke:#000000;stroke-width:0.43;" cy="-37.573"/>
  <circle r="1.015" cx="14.068" style="fill:none;stroke:#000000;stroke-width:0.43;" cy="-30.226"/>
  <circle r="1.015" cx="32.94" style="fill:none;stroke:#000000;stroke-width:0.43;" cy="-30.56"/>
  <circle r="1.015" cx="52.367" style="fill:none;stroke:#000000;stroke-width:0.43;" cy="-37.554"/>
  <path style="fill:none;stroke:#000000;stroke-width:0.43;" d="M34.836-33.49c0,0,3.471-1.361,3.653-2.352"/>
  <path style="fill:none;stroke:#000000;stroke-width:0.43;" d="M48.782-18.769c-0.159-1.273,1.91-3.501,1.272-3.183"/>
  <path style="fill:none;stroke:#000000;stroke-width:0.43;" d="M44.068-27.023c-0.796-0.158,2.704-1.273,3.341-2.068"/>
  <path style="fill:none;stroke:#000000;stroke-width:0.43;" d="M22.924-25.83c0,0-3.978,2.547-4.933,2.547"/>
  <path style="fill:none;stroke:#000000;stroke-width:0.43;" d="M13.528-15.829c-1.652,0.009-2.965-1.265-3.442-1.899"/>
  <path style="fill:none;stroke:#000000;stroke-width:0.43;" d="M5.88-29.729c0,0,2.882-1.511,3.041-2.465"/>
  <path style="fill:none;stroke:#000000;stroke-width:0.43;" d="M21.728-35.65c-0.167-0.277,4.496-1.276,4.496-1.832"/>
  <path style="fill:none;stroke:#000000;stroke-width:0.43;" d="M31.039-22.329c0.16,0.796,3.023-1.433,3.979-1.433"/>
  <line y1="-48.307" x1="2.24" style="fill:none;stroke:#000000;stroke-width:0.43;" y2="-51.172" x2="4.149"/>
  <circle r="1.015" cx="45.928" style="fill:none;stroke:#000000;stroke-width:0.43;" cy="-41.438"/>
  <circle r="1.015" cx="13.327" style="fill:none;stroke:#000000;stroke-width:0.43;" cy="-43.623"/>
  <circle r="1.015" cx="27.5" style="fill:none;stroke:#000000;stroke-width:0.43;" cy="-45.769"/>
  <circle r="1.015" cx="41.562" style="fill:none;stroke:#000000;stroke-width:0.43;" cy="-51.309"/>
  <circle r="1.015" cx="52.478" style="fill:none;stroke:#000000;stroke-width:0.43;" cy="-52.485"/>
  <path style="fill:none;stroke:#000000;stroke-width:0.43;" d="M21.5-48.828c-0.796-0.158,2.705-1.272,3.341-2.067"/>
  <path style="fill:none;stroke:#000000;stroke-width:0.43;" d="M24.012-42.561c-0.875,0-0.596,0.109-4.615-1.113"/>
  <path style="fill:none;stroke:#000000;stroke-width:0.43;" d="M9.327-43.025c-0.955-0.16-2.864-0.479-3.342-1.115"/>
  <path style="fill:none;stroke:#000000;stroke-width:0.43;" d="M22.099-18.514c0.478,0.637,2.864-1.273,3.819-1.113"/>
  <path style="fill:none;stroke:#000000;stroke-width:0.43;" d="M35.146-50.431c0.159,0.796,2.705,2.068,3.659,2.068"/>
  <line y1="-50.882" x1="13.526" style="fill:none;stroke:#000000;stroke-width:0.43;" y2="-53.746" x2="15.435"/>
  <circle r="0.44" cx="35.561" style="stroke:#000000;stroke-width:0;" cy="-42.472"/>
  <circle r="0.44" cx="25.946" style="stroke:#000000;stroke-width:0;" cy="-49.078"/>
  <circle r="0.44" cx="10.586" style="stroke:#000000;stroke-width:0;" cy="-51.237"/>
  <circle r="0.44" cx="14.156" style="stroke:#000000;stroke-width:0;" cy="-47.807"/>
  <circle r="0.44" cx="17.565" style="stroke:#000000;stroke-width:0;" cy="-41.863"/>
  <circle r="0.44" cx="40.052" style="stroke:#000000;stroke-width:0;" cy="-41.436"/>
  <circle r="0.44" cx="41.155" style="stroke:#000000;stroke-width:0;" cy="-46.914"/>
  <circle r="0.44" cx="33.347" style="stroke:#000000;stroke-width:0;" cy="-44.439"/>
  <circle r="0.44" cx="48.841" style="stroke:#000000;stroke-width:0;" cy="-47.377"/>
  <circle r="0.44" cx="53.424" style="stroke:#000000;stroke-width:0;" cy="-44.389"/>
  <circle r="0.44" cx="51.335" style="stroke:#000000;stroke-width:0;" cy="-47.952"/>
  <circle r="0.439" cx="18.967" style="stroke:#000000;stroke-width:0;" cy="-51.052"/>
  <circle r="0.44" cx="37.253" style="stroke:#000000;stroke-width:0;" cy="-30.574"/>
  <circle r="0.439" cx="29.015" style="stroke:#000000;stroke-width:0;" cy="-27.957"/>
  <circle r="0.439" cx="23.383" style="stroke:#000000;stroke-width:0;" cy="-34.305"/>
  <circle r="0.44" cx="16.089" style="stroke:#000000;stroke-width:0;" cy="-37.146"/>
  <circle r="0.44" cx="16.483" style="stroke:#000000;stroke-width:0;" cy="-28.099"/>
  <circle r="0.44" cx="3.589" style="stroke:#000000;stroke-width:0;" cy="-18.47"/>
  <circle r="0.44" cx="10.477" style="stroke:#000000;stroke-width:0;" cy="-20.967"/>
  <circle r="0.44" cx="10.234" style="stroke:#000000;stroke-width:0;" cy="-27.89"/>
  <circle r="0.44" cx="4.448" style="stroke:#000000;stroke-width:0;" cy="-25.969"/>
  <circle r="0.44" cx="17.298" style="stroke:#000000;stroke-width:0;" cy="-25.429"/>
  <circle r="0.44" cx="39.751" style="stroke:#000000;stroke-width:0;" cy="-22.863"/>
  <circle r="0.44" cx="37.48" style="stroke:#000000;stroke-width:0;" cy="-24.774"/>
  <circle r="0.44" cx="29.111" style="stroke:#000000;stroke-width:0;" cy="-33.191"/>
  <circle r="0.44" cx="36.749" style="stroke:#000000;stroke-width:0;" cy="-38.441"/>
  <circle r="0.439" cx="47.649" style="stroke:#000000;stroke-width:0;" cy="-26.598"/>
  <circle r="0.44" cx="41.584" style="stroke:#000000;stroke-width:0;" cy="-28.631"/>
  <circle r="0.44" cx="45.553" style="stroke:#000000;stroke-width:0;" cy="-33.474"/>
  <circle r="0.44" cx="49.646" style="stroke:#000000;stroke-width:0;" cy="-34.723"/>
  <circle r="0.44" cx="51.865" style="stroke:#000000;stroke-width:0;" cy="-29.372"/>
  <circle r="0.439" cx="17.954" style="stroke:#000000;stroke-width:0;" cy="-33.537"/>
  <circle r="0.44" cx="7.518" style="stroke:#000000;stroke-width:0;" cy="-33.703"/>
  <circle r="0.44" cx="3.189" style="stroke:#000000;stroke-width:0;" cy="-31.151"/>
  <circle r="0.439" cx="1.08" style="stroke:#000000;stroke-width:0;" cy="-22.824"/>
  <circle r="0.44" cx="3.657" style="stroke:#000000;stroke-width:0;" cy="-40.305"/>
  <circle r="0.44" cx="34.196" style="stroke:#000000;stroke-width:0;" cy="-3.308"/>
  <circle r="0.44" cx="29.6" style="stroke:#000000;stroke-width:0;" cy="-7.033"/>
  <circle r="0.44" cx="25.336" style="stroke:#000000;stroke-width:0;" cy="-15.553"/>
  <circle r="0.44" cx="19.464" style="stroke:#000000;stroke-width:0;" cy="-3.047"/>
  <circle r="0.44" cx="11.459" style="stroke:#000000;stroke-width:0;" cy="-10.668"/>
  <circle r="0.44" cx="14.731" style="stroke:#000000;stroke-width:0;" cy="-9.701"/>
  <circle r="0.44" cx="2.581" style="stroke:#000000;stroke-width:0;" cy="-7.686"/>
  <circle r="0.44" cx="7.571" style="stroke:#000000;stroke-width:0;" cy="-8.27"/>
  <circle r="0.44" cx="23.675" style="stroke:#000000;stroke-width:0;" cy="-0.792"/>
  <circle r="0.44" cx="41.044" style="stroke:#000000;stroke-width:0;" cy="-6.561"/>
  <circle r="0.44" cx="38.756" style="stroke:#000000;stroke-width:0;" cy="-9.482"/>
  <circle r="0.44" cx="35.035" style="stroke:#000000;stroke-width:0;" cy="-14.373"/>
  <circle r="0.44" cx="35.035" style="stroke:#000000;stroke-width:0;" cy="-20.341"/>
  <circle r="0.44" cx="26.79" style="stroke:#000000;stroke-width:0;" cy="-22.785"/>
  <circle r="0.44" cx="21.425" style="stroke:#000000;stroke-width:0;" cy="-22.613"/>
  <circle r="0.44" cx="1.761" style="stroke:#000000;stroke-width:0;" cy="-52.922"/>
  <circle r="0.44" cx="17.242" style="stroke:#000000;stroke-width:0;" cy="-20"/>
  <circle r="0.44" cx="48.54" style="stroke:#000000;stroke-width:0;" cy="-7.867"/>
  <circle r="0.439" cx="50.784" style="stroke:#000000;stroke-width:0;" cy="-6.404"/>
  <circle r="0.44" cx="44.804" style="stroke:#000000;stroke-width:0;" cy="-15.43"/>
  <circle r="0.44" cx="47.94" style="stroke:#000000;stroke-width:0;" cy="-23.126"/>
  <circle r="0.44" cx="52.826" style="stroke:#000000;stroke-width:0;" cy="-12.037"/>
  <circle r="0.44" cx="19.402" style="stroke:#000000;stroke-width:0;" cy="-15.793"/>
  <circle r="0.44" cx="4.249" style="stroke:#000000;stroke-width:0;" cy="-15.445"/>
  <rect y="-54.125" height="54.125" style="fill:none;" width="54.125"/>
  <line y1="-39.684" x1="1.438" style="fill:none;stroke:#000000;stroke-width:0.7;stroke-linecap:round;" y2="-39.684" x2="1.438"/>
  <line y1="-40.621" x1="6.488" style="fill:none;stroke:#000000;stroke-width:0.7;stroke-linecap:round;" y2="-40.621" x2="6.488"/>
  <line y1="-38.275" x1="13.642" style="fill:none;stroke:#000000;stroke-width:0.7;stroke-linecap:round;" y2="-38.275" x2="13.642"/>
  <line y1="-38.809" x1="18.473" style="fill:none;stroke:#000000;stroke-width:0.7;stroke-linecap:round;" y2="-38.809" x2="18.473"/>
  <line y1="-36.111" x1="18.808" style="fill:none;stroke:#000000;stroke-width:0.7;stroke-linecap:round;" y2="-36.111" x2="18.808"/>
  <line y1="-34.682" x1="14.958" style="fill:none;stroke:#000000;stroke-width:0.7;stroke-linecap:round;" y2="-34.682" x2="14.958"/>
  <line y1="-34.908" x1="11.841" style="fill:none;stroke:#000000;stroke-width:0.7;stroke-linecap:round;" y2="-34.908" x2="11.841"/>
  <line y1="-36.103" x1="6.953" style="fill:none;stroke:#000000;stroke-width:0.7;stroke-linecap:round;" y2="-36.103" x2="6.953"/>
  <line y1="-31.271" x1="5.058" style="fill:none;stroke:#000000;stroke-width:0.7;stroke-linecap:round;" y2="-31.271" x2="5.058"/>
  <line y1="-31.602" x1="1.318" style="fill:none;stroke:#000000;stroke-width:0.7;stroke-linecap:round;" y2="-31.602" x2="1.318"/>
  <line y1="-49.125" x1="17.625" style="fill:none;stroke:#000000;stroke-width:0.7;stroke-linecap:round;" y2="-49.125" x2="17.625"/>
  <line y1="-41.105" x1="9.681" style="fill:none;stroke:#000000;stroke-width:0.7;stroke-linecap:round;" y2="-41.105" x2="9.681"/>
  <line y1="-42.867" x1="3.03" style="fill:none;stroke:#000000;stroke-width:0.7;stroke-linecap:round;" y2="-42.867" x2="3.03"/>
  <line y1="-50.25" x1="1.375" style="fill:none;stroke:#000000;stroke-width:0.7;stroke-linecap:round;" y2="-50.25" x2="1.375"/>
  <line y1="-51.75" x1="7.875" style="fill:none;stroke:#000000;stroke-width:0.7;stroke-linecap:round;" y2="-51.75" x2="7.875"/>
  <line y1="-49.875" x1="13.5" style="fill:none;stroke:#000000;stroke-width:0.7;stroke-linecap:round;" y2="-49.875" x2="13.5"/>
  <line y1="-43.926" x1="25.305" style="fill:none;stroke:#000000;stroke-width:0.7;stroke-linecap:round;" y2="-43.926" x2="25.305"/>
  <line y1="-47.5" x1="24.625" style="fill:none;stroke:#000000;stroke-width:0.7;stroke-linecap:round;" y2="-47.5" x2="24.625"/>
  <line y1="-50.75" x1="21.875" style="fill:none;stroke:#000000;stroke-width:0.7;stroke-linecap:round;" y2="-50.75" x2="21.875"/>
  <line y1="-51.875" x1="26" style="fill:none;stroke:#000000;stroke-width:0.7;stroke-linecap:round;" y2="-51.875" x2="26"/>
  <line y1="-53.523" x1="34.25" style="fill:none;stroke:#000000;stroke-width:0.7;stroke-linecap:round;" y2="-53.523" x2="34.25"/>
  <line y1="-48.25" x1="46.375" style="fill:none;stroke:#000000;stroke-width:0.7;stroke-linecap:round;" y2="-48.25" x2="46.375"/>
  <line y1="-48.625" x1="53.5" style="fill:none;stroke:#000000;stroke-width:0.7;stroke-linecap:round;" y2="-48.625" x2="53.5"/>
  <line y1="-50.375" x1="50.125" style="fill:none;stroke:#000000;stroke-width:0.7;stroke-linecap:round;" y2="-50.375" x2="50.125"/>
  <line y1="-44.232" x1="47.011" style="fill:none;stroke:#000000;stroke-width:0.7;stroke-linecap:round;" y2="-44.232" x2="47.011"/>
  <line y1="-51.625" x1="45" style="fill:none;stroke:#000000;stroke-width:0.7;stroke-linecap:round;" y2="-51.625" x2="45"/>
  <line y1="-44.902" x1="30.125" style="fill:none;stroke:#000000;stroke-width:0.7;stroke-linecap:round;" y2="-44.902" x2="30.125"/>
  <line y1="-30.215" x1="49.34" style="fill:none;stroke:#000000;stroke-width:0.7;stroke-linecap:round;" y2="-30.215" x2="49.34"/>
  <line y1="-30.5" x1="40.125" style="fill:none;stroke:#000000;stroke-width:0.7;stroke-linecap:round;" y2="-30.5" x2="40.125"/>
  <line y1="-33.5" x1="25.5" style="fill:none;stroke:#000000;stroke-width:0.7;stroke-linecap:round;" y2="-33.5" x2="25.5"/>
  <line y1="-45.5" x1="50.375" style="fill:none;stroke:#000000;stroke-width:0.7;stroke-linecap:round;" y2="-45.5" x2="50.375"/>
  <line y1="-49.25" x1="33.75" style="fill:none;stroke:#000000;stroke-width:0.7;stroke-linecap:round;" y2="-49.25" x2="33.75"/>
  <line y1="-49.803" x1="39.413" style="fill:none;stroke:#000000;stroke-width:0.7;stroke-linecap:round;" y2="-49.803" x2="39.413"/>
  <line y1="-51.75" x1="37.875" style="fill:none;stroke:#000000;stroke-width:0.7;stroke-linecap:round;" y2="-51.75" x2="37.875"/>
  <line y1="-45.085" x1="36.855" style="fill:none;stroke:#000000;stroke-width:0.7;stroke-linecap:round;" y2="-45.085" x2="36.855"/>
  <line y1="-25.277" x1="1.685" style="fill:none;stroke:#000000;stroke-width:0.7;stroke-linecap:round;" y2="-25.277" x2="1.685"/>
  <line y1="-27.203" x1="7.038" style="fill:none;stroke:#000000;stroke-width:0.7;stroke-linecap:round;" y2="-27.203" x2="7.038"/>
  <line y1="-29.842" x1="11.548" style="fill:none;stroke:#000000;stroke-width:0.7;stroke-linecap:round;" y2="-29.842" x2="11.548"/>
  <line y1="-27.203" x1="14.518" style="fill:none;stroke:#000000;stroke-width:0.7;stroke-linecap:round;" y2="-27.203" x2="14.518"/>
  <line y1="-29.842" x1="18.258" style="fill:none;stroke:#000000;stroke-width:0.7;stroke-linecap:round;" y2="-29.842" x2="18.258"/>
  <line y1="-33.473" x1="21.338" style="fill:none;stroke:#000000;stroke-width:0.7;stroke-linecap:round;" y2="-33.473" x2="21.338"/>
  <line y1="-37.869" x1="21.852" style="fill:none;stroke:#000000;stroke-width:0.7;stroke-linecap:round;" y2="-37.869" x2="21.852"/>
  <line y1="-36.125" x1="28.125" style="fill:none;stroke:#000000;stroke-width:0.7;stroke-linecap:round;" y2="-36.125" x2="28.125"/>
  <line y1="-40.57" x1="27.859" style="fill:none;stroke:#000000;stroke-width:0.7;stroke-linecap:round;" y2="-40.57" x2="27.859"/>
  <line y1="-42.016" x1="32.989" style="fill:none;stroke:#000000;stroke-width:0.7;stroke-linecap:round;" y2="-42.016" x2="32.989"/>
  <line y1="-37.102" x1="32.998" style="fill:none;stroke:#000000;stroke-width:0.7;stroke-linecap:round;" y2="-37.102" x2="32.998"/>
  <line y1="-36.002" x1="36.958" style="fill:none;stroke:#000000;stroke-width:0.7;stroke-linecap:round;" y2="-36.002" x2="36.958"/>
  <line y1="-40.992" x1="37.594" style="fill:none;stroke:#000000;stroke-width:0.7;stroke-linecap:round;" y2="-40.992" x2="37.594"/>
  <line y1="-42.375" x1="43" style="fill:none;stroke:#000000;stroke-width:0.7;stroke-linecap:round;" y2="-42.375" x2="43"/>
  <line y1="-40.869" x1="48.632" style="fill:none;stroke:#000000;stroke-width:0.7;stroke-linecap:round;" y2="-40.869" x2="48.632"/>
  <line y1="-41.611" x1="53.568" style="fill:none;stroke:#000000;stroke-width:0.7;stroke-linecap:round;" y2="-41.611" x2="53.568"/>
  <line y1="-36.771" x1="49.608" style="fill:none;stroke:#000000;stroke-width:0.7;stroke-linecap:round;" y2="-36.771" x2="49.608"/>
  <line y1="-35.672" x1="46.088" style="fill:none;stroke:#000000;stroke-width:0.7;stroke-linecap:round;" y2="-35.672" x2="46.088"/>
  <line y1="-32.592" x1="48.178" style="fill:none;stroke:#000000;stroke-width:0.7;stroke-linecap:round;" y2="-32.592" x2="48.178"/>
  <line y1="-34.902" x1="52.908" style="fill:none;stroke:#000000;stroke-width:0.7;stroke-linecap:round;" y2="-34.902" x2="52.908"/>
  <line y1="-33.582" x1="41.688" style="fill:none;stroke:#000000;stroke-width:0.7;stroke-linecap:round;" y2="-33.582" x2="41.688"/>
  <line y1="-27.203" x1="50.708" style="fill:none;stroke:#000000;stroke-width:0.7;stroke-linecap:round;" y2="-27.203" x2="50.708"/>
  <line y1="-29.291" x1="44.658" style="fill:none;stroke:#000000;stroke-width:0.7;stroke-linecap:round;" y2="-29.291" x2="44.658"/>
  <line y1="-26.762" x1="38.718" style="fill:none;stroke:#000000;stroke-width:0.7;stroke-linecap:round;" y2="-26.762" x2="38.718"/>
  <line y1="-28.77" x1="35.263" style="fill:none;stroke:#000000;stroke-width:0.7;stroke-linecap:round;" y2="-28.77" x2="35.263"/>
  <line y1="-30.283" x1="30.688" style="fill:none;stroke:#000000;stroke-width:0.7;stroke-linecap:round;" y2="-30.283" x2="30.688"/>
  <line y1="-26.652" x1="32.668" style="fill:none;stroke:#000000;stroke-width:0.7;stroke-linecap:round;" y2="-26.652" x2="32.668"/>
  <line y1="-22.848" x1="42.289" style="fill:none;stroke:#000000;stroke-width:0.7;stroke-linecap:round;" y2="-22.848" x2="42.289"/>
  <line y1="-23.572" x1="45.538" style="fill:none;stroke:#000000;stroke-width:0.7;stroke-linecap:round;" y2="-23.572" x2="45.538"/>
  <line y1="-21.322" x1="46.747" style="fill:none;stroke:#000000;stroke-width:0.7;stroke-linecap:round;" y2="-21.322" x2="46.747"/>
  <line y1="-22.803" x1="51.479" style="fill:none;stroke:#000000;stroke-width:0.7;stroke-linecap:round;" y2="-22.803" x2="51.479"/>
  <line y1="-17.303" x1="51.148" style="fill:none;stroke:#000000;stroke-width:0.7;stroke-linecap:round;" y2="-17.303" x2="51.148"/>
  <line y1="-13.814" x1="47.755" style="fill:none;stroke:#000000;stroke-width:0.7;stroke-linecap:round;" y2="-13.814" x2="47.755"/>
  <line y1="-13.021" x1="44.586" style="fill:none;stroke:#000000;stroke-width:0.7;stroke-linecap:round;" y2="-13.021" x2="44.586"/>
  <line y1="-15.296" x1="38.105" style="fill:none;stroke:#000000;stroke-width:0.7;stroke-linecap:round;" y2="-15.296" x2="38.105"/>
  <line y1="-16.971" x1="36.18" style="fill:none;stroke:#000000;stroke-width:0.7;stroke-linecap:round;" y2="-16.971" x2="36.18"/>
  <line y1="-17.972" x1="29.986" style="fill:none;stroke:#000000;stroke-width:0.7;stroke-linecap:round;" y2="-17.972" x2="29.986"/>
  <line y1="-22.516" x1="35.889" style="fill:none;stroke:#000000;stroke-width:0.7;stroke-linecap:round;" y2="-22.516" x2="35.889"/>
  <line y1="-20.162" x1="38.058" style="fill:none;stroke:#000000;stroke-width:0.7;stroke-linecap:round;" y2="-20.162" x2="38.058"/>
  <line y1="-9.457" x1="52.034" style="fill:none;stroke:#000000;stroke-width:0.7;stroke-linecap:round;" y2="-9.457" x2="52.034"/>
  <line y1="-16.35" x1="49.102" style="fill:none;stroke:#000000;stroke-width:0.7;stroke-linecap:round;" y2="-16.35" x2="49.102"/>
  <line y1="-9.213" x1="43.791" style="fill:none;stroke:#000000;stroke-width:0.7;stroke-linecap:round;" y2="-9.213" x2="43.791"/>
  <line y1="-8.941" x1="41.138" style="fill:none;stroke:#000000;stroke-width:0.7;stroke-linecap:round;" y2="-8.941" x2="41.138"/>
  <line y1="-6.633" x1="37.178" style="fill:none;stroke:#000000;stroke-width:0.7;stroke-linecap:round;" y2="-6.633" x2="37.178"/>
  <line y1="-1.242" x1="44.328" style="fill:none;stroke:#000000;stroke-width:0.7;stroke-linecap:round;" y2="-1.242" x2="44.328"/>
  <line y1="-1.791" x1="52.578" style="fill:none;stroke:#000000;stroke-width:0.7;stroke-linecap:round;" y2="-1.791" x2="52.578"/>
  <line y1="-6.191" x1="53.019" style="fill:none;stroke:#000000;stroke-width:0.7;stroke-linecap:round;" y2="-6.191" x2="53.019"/>
  <line y1="-2.893" x1="37.838" style="fill:none;stroke:#000000;stroke-width:0.7;stroke-linecap:round;" y2="-2.893" x2="37.838"/>
  <line y1="-2.562" x1="31.568" style="fill:none;stroke:#000000;stroke-width:0.7;stroke-linecap:round;" y2="-2.562" x2="31.568"/>
  <line y1="-8.172" x1="32.558" style="fill:none;stroke:#000000;stroke-width:0.7;stroke-linecap:round;" y2="-8.172" x2="32.558"/>
  <line y1="-12.242" x1="31.128" style="fill:none;stroke:#000000;stroke-width:0.7;stroke-linecap:round;" y2="-12.242" x2="31.128"/>
  <line y1="-17.963" x1="26.068" style="fill:none;stroke:#000000;stroke-width:0.7;stroke-linecap:round;" y2="-17.963" x2="26.068"/>
  <line y1="-23.854" x1="30.361" style="fill:none;stroke:#000000;stroke-width:0.7;stroke-linecap:round;" y2="-23.854" x2="30.361"/>
  <line y1="-26.432" x1="27.388" style="fill:none;stroke:#000000;stroke-width:0.7;stroke-linecap:round;" y2="-26.432" x2="27.388"/>
  <line y1="-23.682" x1="24.198" style="fill:none;stroke:#000000;stroke-width:0.7;stroke-linecap:round;" y2="-23.682" x2="24.198"/>
  <line y1="-20.975" x1="23.166" style="fill:none;stroke:#000000;stroke-width:0.7;stroke-linecap:round;" y2="-20.975" x2="23.166"/>
  <line y1="-26.762" x1="22.438" style="fill:none;stroke:#000000;stroke-width:0.7;stroke-linecap:round;" y2="-26.762" x2="22.438"/>
  <line y1="-26.495" x1="19.63" style="fill:none;stroke:#000000;stroke-width:0.7;stroke-linecap:round;" y2="-26.495" x2="19.63"/>
  <line y1="-20.713" x1="20.018" style="fill:none;stroke:#000000;stroke-width:0.7;stroke-linecap:round;" y2="-20.713" x2="20.018"/>
  <line y1="-22.691" x1="16.608" style="fill:none;stroke:#000000;stroke-width:0.7;stroke-linecap:round;" y2="-22.691" x2="16.608"/>
  <line y1="-22.361" x1="13.198" style="fill:none;stroke:#000000;stroke-width:0.7;stroke-linecap:round;" y2="-22.361" x2="13.198"/>
  <line y1="-23.463" x1="9.568" style="fill:none;stroke:#000000;stroke-width:0.7;stroke-linecap:round;" y2="-23.463" x2="9.568"/>
  <line y1="-18.195" x1="7.18" style="fill:none;stroke:#000000;stroke-width:0.7;stroke-linecap:round;" y2="-18.195" x2="7.18"/>
  <line y1="-16.973" x1="16.718" style="fill:none;stroke:#000000;stroke-width:0.7;stroke-linecap:round;" y2="-16.973" x2="16.718"/>
  <line y1="-14.441" x1="14.518" style="fill:none;stroke:#000000;stroke-width:0.7;stroke-linecap:round;" y2="-14.441" x2="14.518"/>
  <line y1="-14.662" x1="10.228" style="fill:none;stroke:#000000;stroke-width:0.7;stroke-linecap:round;" y2="-14.662" x2="10.228"/>
  <line y1="-15.979" x1="7.18" style="fill:none;stroke:#000000;stroke-width:0.7;stroke-linecap:round;" y2="-15.979" x2="7.18"/>
  <line y1="-13.232" x1="5.168" style="fill:none;stroke:#000000;stroke-width:0.7;stroke-linecap:round;" y2="-13.232" x2="5.168"/>
  <line y1="-16.66" x1="1.438" style="fill:none;stroke:#000000;stroke-width:0.7;stroke-linecap:round;" y2="-16.66" x2="1.438"/>
  <line y1="-26.246" x1="52.964" style="fill:none;stroke:#000000;stroke-width:0.7;stroke-linecap:round;" y2="-26.246" x2="52.964"/>
  <line y1="-13.309" x1="1.798" style="fill:none;stroke:#000000;stroke-width:0.7;stroke-linecap:round;" y2="-13.309" x2="1.798"/>
  <line y1="-8.062" x1="5.058" style="fill:none;stroke:#000000;stroke-width:0.7;stroke-linecap:round;" y2="-8.062" x2="5.058"/>
  <line y1="-44.377" x1="16.721" style="fill:none;stroke:#000000;stroke-width:0.7;stroke-linecap:round;" y2="-44.377" x2="16.721"/>
  <line y1="-9.896" x1="8.885" style="fill:none;stroke:#000000;stroke-width:0.7;stroke-linecap:round;" y2="-9.896" x2="8.885"/>
  <line y1="-6.883" x1="13.377" style="fill:none;stroke:#000000;stroke-width:0.7;stroke-linecap:round;" y2="-6.883" x2="13.377"/>
  <line y1="-6.144" x1="14.968" style="fill:none;stroke:#000000;stroke-width:0.7;stroke-linecap:round;" y2="-6.144" x2="14.968"/>
  <line y1="-10.812" x1="17.268" style="fill:none;stroke:#000000;stroke-width:0.7;stroke-linecap:round;" y2="-10.812" x2="17.268"/>
  <line y1="-10.371" x1="22.438" style="fill:none;stroke:#000000;stroke-width:0.7;stroke-linecap:round;" y2="-10.371" x2="22.438"/>
  <line y1="-45.01" x1="20.646" style="fill:none;stroke:#000000;stroke-width:0.7;stroke-linecap:round;" y2="-45.01" x2="20.646"/>
  <line y1="-7.125" x1="23.5" style="fill:none;stroke:#000000;stroke-width:0.7;stroke-linecap:round;" y2="-7.125" x2="23.5"/>
  <line y1="-5.533" x1="27.498" style="fill:none;stroke:#000000;stroke-width:0.7;stroke-linecap:round;" y2="-5.533" x2="27.498"/>
  <line y1="-2.562" x1="25.298" style="fill:none;stroke:#000000;stroke-width:0.7;stroke-linecap:round;" y2="-2.562" x2="25.298"/>
  <line y1="-0.473" x1="21.008" style="fill:none;stroke:#000000;stroke-width:0.7;stroke-linecap:round;" y2="-0.473" x2="21.008"/>
  <line y1="-2.83" x1="22.415" style="fill:none;stroke:#000000;stroke-width:0.7;stroke-linecap:round;" y2="-2.83" x2="22.415"/>
  <line y1="-1.242" x1="16.828" style="fill:none;stroke:#000000;stroke-width:0.7;stroke-linecap:round;" y2="-1.242" x2="16.828"/>
  <line y1="-4.213" x1="13.308" style="fill:none;stroke:#000000;stroke-width:0.7;stroke-linecap:round;" y2="-4.213" x2="13.308"/>
  <line y1="-0.912" x1="13.088" style="fill:none;stroke:#000000;stroke-width:0.7;stroke-linecap:round;" y2="-0.912" x2="13.088"/>
  <line y1="-0.457" x1="7.623" style="fill:none;stroke:#000000;stroke-width:0.7;stroke-linecap:round;" y2="-0.457" x2="7.623"/>
  <line y1="-3.205" x1="4.313" style="fill:none;stroke:#000000;stroke-width:0.7;stroke-linecap:round;" y2="-3.205" x2="4.313"/>
  <line y1="-0.625" x1="0.625" style="fill:none;stroke:#000000;stroke-width:0.7;stroke-linecap:round;" y2="-0.625" x2="0.625"/>
  <line y1="-5.533" x1="1.758" style="fill:none;stroke:#000000;stroke-width:0.7;stroke-linecap:round;" y2="-5.533" x2="1.758"/>
  <path style="fill:none;stroke:#000000;stroke-width:0.3;" d="M20.898-30.529"/>
  <path style="fill:none;stroke:#000000;stroke-width:0.3;" d="M20.898-30.529c0.76-1.266,2.64-1.486,3.465-1.238    c0.825,0.248,1.155,0.66,1.65,0.578c0.495-0.082,1.732,1.154,0.578,1.981c-1.155,0.824-2.888,1.566-3.465,1.236    c-0.577-0.33-1.237-0.66-1.65-0.824C21.063-28.963,20.651-30.117,20.898-30.529z"/>
  <path style="fill:none;stroke:#000000;stroke-width:0.3;" d="M41.358-38.779c0.99,0,1.815,0.576,2.062,1.236    c0.248,0.66-0.66,2.641-2.558,1.402C38.966-37.377,39.708-38.945,41.358-38.779z"/>
  <path style="fill:none;stroke:#000000;stroke-width:0.3;" d="M45.813-19.971c2.228,1.404,2.062,3.631-0.413,2.889    c-2.475-0.742-2.393-0.99-3.465-2.641C40.863-21.371,44.328-20.877,45.813-19.971z"/>
  <path style="fill:none;stroke:#000000;stroke-width:0.3;" d="M28.901-11.225c1.732,0.908,1.402,2.641-0.578,2.228    c-1.98-0.414-2.723-1.238-3.135-2.146c-0.412-0.906,0.99-1.979,2.558-0.99C28.158-11.721,28.901-11.225,28.901-11.225z"/>
  <path style="fill:none;stroke:#000000;stroke-width:0.3;" d="M6.213-23.188c1.238,0.248,1.898,0.742,1.98,1.732    c0.083,0.99-0.577,1.98-2.887,1.814c-2.31-0.164-3.795-0.576-2.475-2.145c0.825-0.082,1.155-0.248,1.485-0.906    C4.646-23.352,5.636-23.352,6.213-23.188z"/>
  <path style="fill:none;stroke:#000000;stroke-width:0.3;" d="M2.831-36.057c1.732-0.66,3.3,1.402,1.237,1.979    C2.005-33.5,1.016-35.645,2.831-36.057z"/>
  <path style="fill:none;stroke:#000000;stroke-width:0.3;" d="M49.608-4.377c1.485-1.156,2.723,0.33,1.732,1.154    c-0.99,0.826-2.393,1.981-3.3,1.32c-0.908-0.66-0.578-1.814,0.33-1.981C49.278-4.047,49.608-4.377,49.608-4.377z"/>
  <path style="fill:none;stroke:#000000;stroke-width:0.3;" d="M9.266-5.697c2.062,0.412,2.97,1.402,1.567,2.227    c-1.402,0.826-1.402,0.662-2.97,0.166c-1.568-0.494-2.97-1.072-1.98-1.814C6.873-5.861,8.193-6.109,9.266-5.697z"/>
  <line y1="-38.291" x1="6.385" style="fill:none;stroke:#000000;stroke-width:0.3;" y2="-40.977" x2="13.642"/>
  <line y1="-53.781" x1="3.783" style="fill:none;stroke:#000000;stroke-width:0.3;" y2="-52.639" x2="12.027"/>
  <line y1="-39.432" x1="24.671" style="fill:none;stroke:#000000;stroke-width:0.3;" y2="-38.514" x2="32.971"/>
  <line y1="-38.861" x1="45.979" style="fill:none;stroke:#000000;stroke-width:0.3;" y2="-39.662" x2="52.09"/>
  <line y1="-53.635" x1="42.854" style="fill:none;stroke:#000000;stroke-width:0.3;" y2="-52.559" x2="49.913"/>
  <line y1="-31.388" x1="45.26" style="fill:none;stroke:#000000;stroke-width:0.3;" y2="-32.073" x2="36.923"/>
  <line y1="-32.041" x1="17.378" style="fill:none;stroke:#000000;stroke-width:0.3;" y2="-32.568" x2="10.415"/>
  <line y1="-46.996" x1="20.33" style="fill:none;stroke:#000000;stroke-width:0.3;" y2="-45.742" x2="13.96"/>
  <line y1="-47.094" x1="39.384" style="fill:none;stroke:#000000;stroke-width:0.3;" y2="-46.539" x2="32.873"/>
  <line y1="-25.441" x1="7.038" style="fill:none;stroke:#000000;stroke-width:0.3;" y2="-24.99" x2="14.446"/>
  <line y1="-24.883" x1="27.328" style="fill:none;stroke:#000000;stroke-width:0.3;" y2="-25.93" x2="35.066"/>
  <line y1="-52.881" x1="22.587" style="fill:none;stroke:#000000;stroke-width:0.3;" y2="-53.754" x2="30.988"/>
  <line y1="-25.223" x1="46.858" style="fill:none;stroke:#000000;stroke-width:0.3;" y2="-23.56" x2="53.576"/>
  <line y1="-18.402" x1="38.718" style="fill:none;stroke:#000000;stroke-width:0.3;" y2="-18.945" x2="32.502"/>
  <line y1="-16.85" x1="23.958" style="fill:none;stroke:#000000;stroke-width:0.3;" y2="-18.182" x2="17.378"/>
  <line y1="-10.947" x1="3.907" style="fill:none;stroke:#000000;stroke-width:0.3;" y2="-12.236" x2="12.129"/>
  <line y1="-11.582" x1="38.718" style="fill:none;stroke:#000000;stroke-width:0.3;" y2="-10.803" x2="46.689"/>
  <line y1="-4.67" x1="38.941" style="fill:none;stroke:#000000;stroke-width:0.3;" y2="-5.332" x2="30.613"/>
  <line y1="-5.662" x1="25.011" style="fill:none;stroke:#000000;stroke-width:0.3;" y2="-4.586" x2="17.751"/>
  <path style="fill:none;stroke:#000000;stroke-width:0.3;" d="M21.173-41.5c1.485,0.084,1.32,1.568,0.083,1.65    C20.018-39.768,19.853-41.334,21.173-41.5z"/>
  <path style="fill:none;stroke:#000000;stroke-width:0.3;" d="M32.283-35.809c1.65,0,1.402,1.648,0.165,1.648    C31.21-34.16,30.881-35.809,32.283-35.809z"/>
  <path style="fill:none;stroke:#000000;stroke-width:0.3;" d="M16.96-52.773c1.65,0,1.402,1.648,0.165,1.648    S15.558-52.773,16.96-52.773z"/>
  <path style="fill:none;stroke:#000000;stroke-width:0.3;" d="M52.743-31.85c0,1.32-1.402,1.154-1.485,0    C51.176-33.004,52.743-32.84,52.743-31.85z"/>
  <path style="fill:none;stroke:#000000;stroke-width:0.3;" d="M42.513-26.24c1.403,0,1.32,1.402,0.165,1.402    C41.523-24.838,40.781-26.158,42.513-26.24z"/>
  <path style="fill:none;stroke:#000000;stroke-width:0.3;" d="M51.918-15.268c1.21,0,1.375,1.43,0.275,1.484    C51.093-13.727,50.488-15.158,51.918-15.268z"/>
  <path style="fill:none;stroke:#000000;stroke-width:0.3;" d="M36.683-11.691c0,1.264-1.43,1.045-1.43,0.055    C35.253-12.627,36.683-12.957,36.683-11.691z"/>
  <path style="fill:none;stroke:#000000;stroke-width:0.3;" d="M28.984-20.162c-0.055,1.318-1.54,0.988-1.595,0.055    C27.334-21.043,28.765-21.537,28.984-20.162z"/>
  <path style="fill:none;stroke:#000000;stroke-width:0.3;" d="M3.018-45.934c-0.055,1.318-1.54,0.988-1.595,0.055    C1.368-46.814,2.798-47.309,3.018-45.934z"/>
  <path style="fill:none;stroke:#000000;stroke-width:0.3;" d="M45.701-6.217c0.825,0.604,0.33,1.705-0.825,1.045    C43.721-5.832,44.381-6.988,45.701-6.217z"/>
  <path style="fill:none;stroke:#000000;stroke-width:0.3;" d="M28.323-1.957c1.132,0.416,0.77,1.869-0.44,1.43    C26.673-0.967,27.278-2.342,28.323-1.957z"/>
  <path style="fill:none;stroke:#000000;stroke-width:0.3;" d="M19.578-9.822c1.375,0.109,1.155,1.484,0.165,1.539    C18.753-8.227,18.148-9.822,19.578-9.822z"/>
  <path style="fill:none;stroke:#000000;stroke-width:0.3;" d="M14.188-20.053c1.375,0.935,0.11,1.926-0.88,1.32    C12.318-19.338,13.143-20.547,14.188-20.053z"/>
  <path style="fill:none;stroke:#000000;stroke-width:0.3;" d="M2.136-10.865c0.825,0.826-0.22,1.596-0.88,0.99    C0.596-10.479,0.981-11.58,2.136-10.865z"/>
  <path style="fill:none;stroke:#000000;stroke-width:0.3;" d="M3.974-27.711c0.055,1.266-1.43,1.156-1.485,0.221    C2.434-28.426,3.864-28.865,3.974-27.711z"/>
  <path style="fill:none;stroke:#000000;stroke-width:0.3;" d="M41.367-44.832c0.055,1.266-1.43,1.154-1.485,0.221    C39.827-45.547,41.257-45.986,41.367-44.832z"/>
  <path style="fill:none;stroke:#000000;stroke-width:0.3;" d="M30.875-50.688c1.017,0.611,1.25,2,0.5,2.5S28.5-47.812,28-48.312    s-1-1.5,0.25-2.125S30.25-51.062,30.875-50.688z"/>
  <path style="fill:none;stroke:#000000;stroke-width:0.3;" d="M5.5-49c0.625-0.75,1.625-0.75,3.125-0.25s1.625,1,2.125,1    s1.375,2,0.125,2.25s-4.375,0.5-4.75-0.375S5.5-49,5.5-49z"/>
  <line y1="-0.218" x1="34.646" style="fill:none;stroke:#000000;stroke-width:0.43;" y2="-3.082" x2="36.556"/>
  <circle r="0.44" cx="20.525" style="stroke:#000000;stroke-width:0;" cy="-53.561"/>
  <circle r="0.44" cx="31.568" style="stroke:#000000;stroke-width:0;" cy="-20.511"/>
  <circle r="0.44" cx="36.943" style="stroke:#000000;stroke-width:0;" cy="-53.373"/>
  <circle r="0.44" cx="32.323" style="stroke:#000000;stroke-width:0;" cy="-52.312"/>
 </g>
</svg>
