<?xml version="1.0"?>
<!-- Converted with SVG Converter - Version 0.9.5 (Compiled Fri Feb 21 09:53:38 2020) - Copyright (C) 2011 Nokia -->
<svg xmlns="http://www.w3.org/2000/svg" x="0px" y="0px" height="54.125" baseProfile="tiny" xml:space="preserve" viewBox="0.01 -54.221 54.125 54.125" xmlns:xlink="http://www.w3.org/1999/xlink" version="1.1" width="54.125">
 <g>
  <rect style="fill:none;" x="0.01" y="-54.221" height="54.125" width="54.125"/>
  <line style="fill:none;stroke:#000000;stroke-width:0.7;stroke-linecap:round;" y2="-40.12" x1="2.282" y1="-40.12" x2="2.282"/>
  <line style="fill:none;stroke:#000000;stroke-width:0.7;stroke-linecap:round;" y2="-40.719" x1="6.498" y1="-40.719" x2="6.498"/>
  <line style="fill:none;stroke:#000000;stroke-width:0.7;stroke-linecap:round;" y2="-41.049" x1="12.108" y1="-41.049" x2="12.108"/>
  <line style="fill:none;stroke:#000000;stroke-width:0.7;stroke-linecap:round;" y2="-40.059" x1="16.838" y1="-40.059" x2="16.838"/>
  <line style="fill:none;stroke:#000000;stroke-width:0.7;stroke-linecap:round;" y2="-36.209" x1="18.818" y1="-36.209" x2="18.818"/>
  <line style="fill:none;stroke:#000000;stroke-width:0.7;stroke-linecap:round;" y2="-34.779" x1="14.968" y1="-34.779" x2="14.968"/>
  <line style="fill:none;stroke:#000000;stroke-width:0.7;stroke-linecap:round;" y2="-35.219" x1="10.898" y1="-35.219" x2="10.898"/>
  <line style="fill:none;stroke:#000000;stroke-width:0.7;stroke-linecap:round;" y2="-35.879" x1="6.388" y1="-35.879" x2="6.388"/>
  <line style="fill:none;stroke:#000000;stroke-width:0.7;stroke-linecap:round;" y2="-31.369" x1="5.068" y1="-31.369" x2="5.068"/>
  <line style="fill:none;stroke:#000000;stroke-width:0.7;stroke-linecap:round;" y2="-31.699" x1="1.328" y1="-31.699" x2="1.328"/>
  <line style="fill:none;stroke:#000000;stroke-width:0.7;stroke-linecap:round;" y2="-49.221" x1="17.635" y1="-49.221" x2="17.635"/>
  <line style="fill:none;stroke:#000000;stroke-width:0.7;stroke-linecap:round;" y2="-43.846" x1="9.635" y1="-43.846" x2="9.635"/>
  <line style="fill:none;stroke:#000000;stroke-width:0.7;stroke-linecap:round;" y2="-44.346" x1="4.26" y1="-44.346" x2="4.26"/>
  <line style="fill:none;stroke:#000000;stroke-width:0.7;stroke-linecap:round;" y2="-50.346" x1="1.385" y1="-50.346" x2="1.385"/>
  <line style="fill:none;stroke:#000000;stroke-width:0.7;stroke-linecap:round;" y2="-51.233" x1="8.085" y1="-51.233" x2="8.085"/>
  <line style="fill:none;stroke:#000000;stroke-width:0.7;stroke-linecap:round;" y2="-49.971" x1="13.51" y1="-49.971" x2="13.51"/>
  <line style="fill:none;stroke:#000000;stroke-width:0.7;stroke-linecap:round;" y2="-44.734" x1="26.12" y1="-44.734" x2="26.12"/>
  <line style="fill:none;stroke:#000000;stroke-width:0.7;stroke-linecap:round;" y2="-47.596" x1="24.635" y1="-47.596" x2="24.635"/>
  <line style="fill:none;stroke:#000000;stroke-width:0.7;stroke-linecap:round;" y2="-50.846" x1="21.885" y1="-50.846" x2="21.885"/>
  <line style="fill:none;stroke:#000000;stroke-width:0.7;stroke-linecap:round;" y2="-51.355" x1="25.353" y1="-51.355" x2="25.353"/>
  <line style="fill:none;stroke:#000000;stroke-width:0.7;stroke-linecap:round;" y2="-53.621" x1="34.26" y1="-53.621" x2="34.26"/>
  <line style="fill:none;stroke:#000000;stroke-width:0.7;stroke-linecap:round;" y2="-48.346" x1="46.385" y1="-48.346" x2="46.385"/>
  <line style="fill:none;stroke:#000000;stroke-width:0.7;stroke-linecap:round;" y2="-48.721" x1="53.51" y1="-48.721" x2="53.51"/>
  <line style="fill:none;stroke:#000000;stroke-width:0.7;stroke-linecap:round;" y2="-50.471" x1="50.135" y1="-50.471" x2="50.135"/>
  <line style="fill:none;stroke:#000000;stroke-width:0.7;stroke-linecap:round;" y2="-44.971" x1="46.635" y1="-44.971" x2="46.635"/>
  <line style="fill:none;stroke:#000000;stroke-width:0.7;stroke-linecap:round;" y2="-51.721" x1="45.01" y1="-51.721" x2="45.01"/>
  <line style="fill:none;stroke:#000000;stroke-width:0.7;stroke-linecap:round;" y2="-44.53" x1="32.648" y1="-44.53" x2="32.648"/>
  <line style="fill:none;stroke:#000000;stroke-width:0.7;stroke-linecap:round;" y2="-28.971" x1="48.385" y1="-28.971" x2="48.385"/>
  <line style="fill:none;stroke:#000000;stroke-width:0.7;stroke-linecap:round;" y2="-30.596" x1="40.135" y1="-30.596" x2="40.135"/>
  <line style="fill:none;stroke:#000000;stroke-width:0.7;stroke-linecap:round;" y2="-33.596" x1="25.51" y1="-33.596" x2="25.51"/>
  <line style="fill:none;stroke:#000000;stroke-width:0.7;stroke-linecap:round;" y2="-44.424" x1="50.39" y1="-44.424" x2="50.39"/>
  <line style="fill:none;stroke:#000000;stroke-width:0.7;stroke-linecap:round;" y2="-49.346" x1="33.76" y1="-49.346" x2="33.76"/>
  <line style="fill:none;stroke:#000000;stroke-width:0.7;stroke-linecap:round;" y2="-49.346" x1="41.385" y1="-49.346" x2="41.385"/>
  <line style="fill:none;stroke:#000000;stroke-width:0.7;stroke-linecap:round;" y2="-51.846" x1="37.885" y1="-51.846" x2="37.885"/>
  <line style="fill:none;stroke:#000000;stroke-width:0.7;stroke-linecap:round;" y2="-43.715" x1="37.034" y1="-43.715" x2="37.034"/>
  <line style="fill:none;stroke:#000000;stroke-width:0.7;stroke-linecap:round;" y2="-24.403" x1="1.428" y1="-24.403" x2="1.428"/>
  <line style="fill:none;stroke:#000000;stroke-width:0.7;stroke-linecap:round;" y2="-27.299" x1="7.048" y1="-27.299" x2="7.048"/>
  <line style="fill:none;stroke:#000000;stroke-width:0.7;stroke-linecap:round;" y2="-29.94" x1="11.558" y1="-29.94" x2="11.558"/>
  <line style="fill:none;stroke:#000000;stroke-width:0.7;stroke-linecap:round;" y2="-27.299" x1="14.528" y1="-27.299" x2="14.528"/>
  <line style="fill:none;stroke:#000000;stroke-width:0.7;stroke-linecap:round;" y2="-29.94" x1="18.269" y1="-29.94" x2="18.269"/>
  <line style="fill:none;stroke:#000000;stroke-width:0.7;stroke-linecap:round;" y2="-33.568" x1="21.349" y1="-33.568" x2="21.349"/>
  <line style="fill:none;stroke:#000000;stroke-width:0.7;stroke-linecap:round;" y2="-37.199" x1="22.999" y1="-37.199" x2="22.999"/>
  <line style="fill:none;stroke:#000000;stroke-width:0.7;stroke-linecap:round;" y2="-36.221" x1="28.135" y1="-36.221" x2="28.135"/>
  <line style="fill:none;stroke:#000000;stroke-width:0.7;stroke-linecap:round;" y2="-40.499" x1="26.958" y1="-40.499" x2="26.958"/>
  <line style="fill:none;stroke:#000000;stroke-width:0.7;stroke-linecap:round;" y2="-40.609" x1="32.898" y1="-40.609" x2="32.898"/>
  <line style="fill:none;stroke:#000000;stroke-width:0.7;stroke-linecap:round;" y2="-37.199" x1="33.008" y1="-37.199" x2="33.008"/>
  <line style="fill:none;stroke:#000000;stroke-width:0.7;stroke-linecap:round;" y2="-36.1" x1="36.969" y1="-36.1" x2="36.969"/>
  <line style="fill:none;stroke:#000000;stroke-width:0.7;stroke-linecap:round;" y2="-41.049" x1="38.179" y1="-41.049" x2="38.179"/>
  <line style="fill:none;stroke:#000000;stroke-width:0.7;stroke-linecap:round;" y2="-42.471" x1="43.01" y1="-42.471" x2="43.01"/>
  <line style="fill:none;stroke:#000000;stroke-width:0.7;stroke-linecap:round;" y2="-40.939" x1="47.309" y1="-40.939" x2="47.309"/>
  <line style="fill:none;stroke:#000000;stroke-width:0.7;stroke-linecap:round;" y2="-41.709" x1="53.579" y1="-41.709" x2="53.579"/>
  <line style="fill:none;stroke:#000000;stroke-width:0.7;stroke-linecap:round;" y2="-36.869" x1="49.619" y1="-36.869" x2="49.619"/>
  <line style="fill:none;stroke:#000000;stroke-width:0.7;stroke-linecap:round;" y2="-35.77" x1="46.099" y1="-35.77" x2="46.099"/>
  <line style="fill:none;stroke:#000000;stroke-width:0.7;stroke-linecap:round;" y2="-32.689" x1="48.188" y1="-32.689" x2="48.188"/>
  <line style="fill:none;stroke:#000000;stroke-width:0.7;stroke-linecap:round;" y2="-34.999" x1="52.918" y1="-34.999" x2="52.918"/>
  <line style="fill:none;stroke:#000000;stroke-width:0.7;stroke-linecap:round;" y2="-33.679" x1="41.699" y1="-33.679" x2="41.699"/>
  <line style="fill:none;stroke:#000000;stroke-width:0.7;stroke-linecap:round;" y2="-27.299" x1="50.719" y1="-27.299" x2="50.719"/>
  <line style="fill:none;stroke:#000000;stroke-width:0.7;stroke-linecap:round;" y2="-29.389" x1="44.668" y1="-29.389" x2="44.668"/>
  <line style="fill:none;stroke:#000000;stroke-width:0.7;stroke-linecap:round;" y2="-26.859" x1="38.729" y1="-26.859" x2="38.729"/>
  <line style="fill:none;stroke:#000000;stroke-width:0.7;stroke-linecap:round;" y2="-29.609" x1="35.648" y1="-29.609" x2="35.648"/>
  <line style="fill:none;stroke:#000000;stroke-width:0.7;stroke-linecap:round;" y2="-30.379" x1="30.698" y1="-30.379" x2="30.698"/>
  <line style="fill:none;stroke:#000000;stroke-width:0.7;stroke-linecap:round;" y2="-26.749" x1="32.678" y1="-26.749" x2="32.678"/>
  <line style="fill:none;stroke:#000000;stroke-width:0.7;stroke-linecap:round;" y2="-22.238" x1="41.809" y1="-22.238" x2="41.809"/>
  <line style="fill:none;stroke:#000000;stroke-width:0.7;stroke-linecap:round;" y2="-23.669" x1="45.548" y1="-23.669" x2="45.548"/>
  <line style="fill:none;stroke:#000000;stroke-width:0.7;stroke-linecap:round;" y2="-20.809" x1="48.298" y1="-20.809" x2="48.298"/>
  <line style="fill:none;stroke:#000000;stroke-width:0.7;stroke-linecap:round;" y2="-22.898" x1="51.489" y1="-22.898" x2="51.489"/>
  <line style="fill:none;stroke:#000000;stroke-width:0.7;stroke-linecap:round;" y2="-17.398" x1="51.159" y1="-17.398" x2="51.159"/>
  <line style="fill:none;stroke:#000000;stroke-width:0.7;stroke-linecap:round;" y2="-13.769" x1="47.418" y1="-13.769" x2="47.418"/>
  <line style="fill:none;stroke:#000000;stroke-width:0.7;stroke-linecap:round;" y2="-14.869" x1="42.798" y1="-14.869" x2="42.798"/>
  <line style="fill:none;stroke:#000000;stroke-width:0.7;stroke-linecap:round;" y2="-14.099" x1="38.729" y1="-14.099" x2="38.729"/>
  <line style="fill:none;stroke:#000000;stroke-width:0.7;stroke-linecap:round;" y2="-15.089" x1="34.548" y1="-15.089" x2="34.548"/>
  <line style="fill:none;stroke:#000000;stroke-width:0.7;stroke-linecap:round;" y2="-17.398" x1="30.369" y1="-17.398" x2="30.369"/>
  <line style="fill:none;stroke:#000000;stroke-width:0.7;stroke-linecap:round;" y2="-22.568" x1="33.999" y1="-22.568" x2="33.999"/>
  <line style="fill:none;stroke:#000000;stroke-width:0.7;stroke-linecap:round;" y2="-20.259" x1="38.068" y1="-20.259" x2="38.068"/>
  <line style="fill:none;stroke:#000000;stroke-width:0.7;stroke-linecap:round;" y2="-11.019" x1="52.369" y1="-11.019" x2="52.369"/>
  <line style="fill:none;stroke:#000000;stroke-width:0.7;stroke-linecap:round;" y2="-8.488" x1="49.949" y1="-8.488" x2="49.949"/>
  <line style="fill:none;stroke:#000000;stroke-width:0.7;stroke-linecap:round;" y2="-8.488" x1="45.548" y1="-8.488" x2="45.548"/>
  <line style="fill:none;stroke:#000000;stroke-width:0.7;stroke-linecap:round;" y2="-9.039" x1="41.148" y1="-9.039" x2="41.148"/>
  <line style="fill:none;stroke:#000000;stroke-width:0.7;stroke-linecap:round;" y2="-6.728" x1="37.188" y1="-6.728" x2="37.188"/>
  <line style="fill:none;stroke:#000000;stroke-width:0.7;stroke-linecap:round;" y2="-4.639" x1="41.809" y1="-4.639" x2="41.809"/>
  <line style="fill:none;stroke:#000000;stroke-width:0.7;stroke-linecap:round;" y2="-1.338" x1="44.338" y1="-1.338" x2="44.338"/>
  <line style="fill:none;stroke:#000000;stroke-width:0.7;stroke-linecap:round;" y2="-1.889" x1="52.588" y1="-1.889" x2="52.588"/>
  <line style="fill:none;stroke:#000000;stroke-width:0.7;stroke-linecap:round;" y2="-6.289" x1="53.029" y1="-6.289" x2="53.029"/>
  <line style="fill:none;stroke:#000000;stroke-width:0.7;stroke-linecap:round;" y2="-0.459" x1="40.599" y1="-0.459" x2="40.599"/>
  <line style="fill:none;stroke:#000000;stroke-width:0.7;stroke-linecap:round;" y2="-2.988" x1="37.849" y1="-2.988" x2="37.849"/>
  <line style="fill:none;stroke:#000000;stroke-width:0.7;stroke-linecap:round;" y2="-2.658" x1="31.579" y1="-2.658" x2="31.579"/>
  <line style="fill:none;stroke:#000000;stroke-width:0.7;stroke-linecap:round;" y2="-8.269" x1="32.568" y1="-8.269" x2="32.568"/>
  <line style="fill:none;stroke:#000000;stroke-width:0.7;stroke-linecap:round;" y2="-12.339" x1="31.139" y1="-12.339" x2="31.139"/>
  <line style="fill:none;stroke:#000000;stroke-width:0.7;stroke-linecap:round;" y2="-14.648" x1="27.398" y1="-14.648" x2="27.398"/>
  <line style="fill:none;stroke:#000000;stroke-width:0.7;stroke-linecap:round;" y2="-18.059" x1="26.079" y1="-18.059" x2="26.079"/>
  <line style="fill:none;stroke:#000000;stroke-width:0.7;stroke-linecap:round;" y2="-14.429" x1="23.108" y1="-14.429" x2="23.108"/>
  <line style="fill:none;stroke:#000000;stroke-width:0.7;stroke-linecap:round;" y2="-22.02" x1="29.158" y1="-22.02" x2="29.158"/>
  <line style="fill:none;stroke:#000000;stroke-width:0.7;stroke-linecap:round;" y2="-26.529" x1="27.398" y1="-26.529" x2="27.398"/>
  <line style="fill:none;stroke:#000000;stroke-width:0.7;stroke-linecap:round;" y2="-23.779" x1="24.208" y1="-23.779" x2="24.208"/>
  <line style="fill:none;stroke:#000000;stroke-width:0.7;stroke-linecap:round;" y2="-20.148" x1="23.329" y1="-20.148" x2="23.329"/>
  <line style="fill:none;stroke:#000000;stroke-width:0.7;stroke-linecap:round;" y2="-26.859" x1="22.448" y1="-26.859" x2="22.448"/>
  <line style="fill:none;stroke:#000000;stroke-width:0.7;stroke-linecap:round;" y2="-24.988" x1="19.479" y1="-24.988" x2="19.479"/>
  <line style="fill:none;stroke:#000000;stroke-width:0.7;stroke-linecap:round;" y2="-20.809" x1="20.028" y1="-20.809" x2="20.028"/>
  <line style="fill:none;stroke:#000000;stroke-width:0.7;stroke-linecap:round;" y2="-22.789" x1="16.618" y1="-22.789" x2="16.618"/>
  <line style="fill:none;stroke:#000000;stroke-width:0.7;stroke-linecap:round;" y2="-22.459" x1="13.208" y1="-22.459" x2="13.208"/>
  <line style="fill:none;stroke:#000000;stroke-width:0.7;stroke-linecap:round;" y2="-23.559" x1="9.578" y1="-23.559" x2="9.578"/>
  <line style="fill:none;stroke:#000000;stroke-width:0.7;stroke-linecap:round;" y2="-18.719" x1="9.798" y1="-18.719" x2="9.798"/>
  <line style="fill:none;stroke:#000000;stroke-width:0.7;stroke-linecap:round;" y2="-17.068" x1="16.729" y1="-17.068" x2="16.729"/>
  <line style="fill:none;stroke:#000000;stroke-width:0.7;stroke-linecap:round;" y2="-13.879" x1="19.369" y1="-13.879" x2="19.369"/>
  <line style="fill:none;stroke:#000000;stroke-width:0.7;stroke-linecap:round;" y2="-15.164" x1="12.653" y1="-15.164" x2="12.653"/>
  <line style="fill:none;stroke:#000000;stroke-width:0.7;stroke-linecap:round;" y2="-15.384" x1="8.363" y1="-15.384" x2="8.363"/>
  <line style="fill:none;stroke:#000000;stroke-width:0.7;stroke-linecap:round;" y2="-16.058" x1="5.219" y1="-16.058" x2="5.219"/>
  <line style="fill:none;stroke:#000000;stroke-width:0.7;stroke-linecap:round;" y2="-10.953" x1="8.116" y1="-10.953" x2="8.116"/>
  <line style="fill:none;stroke:#000000;stroke-width:0.7;stroke-linecap:round;" y2="-16.959" x1="2.428" y1="-16.959" x2="2.428"/>
  <line style="fill:none;stroke:#000000;stroke-width:0.7;stroke-linecap:round;" y2="-19.709" x1="0.448" y1="-19.709" x2="0.448"/>
  <line style="fill:none;stroke:#000000;stroke-width:0.7;stroke-linecap:round;" y2="-9.809" x1="1.769" y1="-9.809" x2="1.769"/>
  <line style="fill:none;stroke:#000000;stroke-width:0.7;stroke-linecap:round;" y2="-8.158" x1="5.068" y1="-8.158" x2="5.068"/>
  <line style="fill:none;stroke:#000000;stroke-width:0.7;stroke-linecap:round;" y2="-43.612" x1="15.307" y1="-43.612" x2="15.307"/>
  <line style="fill:none;stroke:#000000;stroke-width:0.7;stroke-linecap:round;" y2="-9.221" x1="9.51" y1="-9.221" x2="9.51"/>
  <line style="fill:none;stroke:#000000;stroke-width:0.7;stroke-linecap:round;" y2="-8.346" x1="13.51" y1="-8.346" x2="13.51"/>
  <line style="fill:none;stroke:#000000;stroke-width:0.7;stroke-linecap:round;" y2="-6.839" x1="16.508" y1="-6.839" x2="16.508"/>
  <line style="fill:none;stroke:#000000;stroke-width:0.7;stroke-linecap:round;" y2="-10.908" x1="17.278" y1="-10.908" x2="17.278"/>
  <line style="fill:none;stroke:#000000;stroke-width:0.7;stroke-linecap:round;" y2="-10.469" x1="22.448" y1="-10.469" x2="22.448"/>
  <line style="fill:none;stroke:#000000;stroke-width:0.7;stroke-linecap:round;" y2="-44.938" x1="20.509" y1="-44.938" x2="20.509"/>
  <line style="fill:none;stroke:#000000;stroke-width:0.7;stroke-linecap:round;" y2="-7.221" x1="23.51" y1="-7.221" x2="23.51"/>
  <line style="fill:none;stroke:#000000;stroke-width:0.7;stroke-linecap:round;" y2="-5.629" x1="27.508" y1="-5.629" x2="27.508"/>
  <line style="fill:none;stroke:#000000;stroke-width:0.7;stroke-linecap:round;" y2="-2.658" x1="25.309" y1="-2.658" x2="25.309"/>
  <line style="fill:none;stroke:#000000;stroke-width:0.7;stroke-linecap:round;" y2="-0.568" x1="21.019" y1="-0.568" x2="21.019"/>
  <line style="fill:none;stroke:#000000;stroke-width:0.7;stroke-linecap:round;" y2="-3.76" x1="19.369" y1="-3.76" x2="19.369"/>
  <line style="fill:none;stroke:#000000;stroke-width:0.7;stroke-linecap:round;" y2="-1.338" x1="16.838" y1="-1.338" x2="16.838"/>
  <line style="fill:none;stroke:#000000;stroke-width:0.7;stroke-linecap:round;" y2="-4.309" x1="13.318" y1="-4.309" x2="13.318"/>
  <line style="fill:none;stroke:#000000;stroke-width:0.7;stroke-linecap:round;" y2="-1.01" x1="13.098" y1="-1.01" x2="13.098"/>
  <line style="fill:none;stroke:#000000;stroke-width:0.7;stroke-linecap:round;" y2="-0.35" x1="7.598" y1="-0.35" x2="7.598"/>
  <line style="fill:none;stroke:#000000;stroke-width:0.7;stroke-linecap:round;" y2="-2.44" x1="4.958" y1="-2.44" x2="4.958"/>
  <line style="fill:none;stroke:#000000;stroke-width:0.7;stroke-linecap:round;" y2="-0.721" x1="0.635" y1="-0.721" x2="0.635"/>
  <line style="fill:none;stroke:#000000;stroke-width:0.7;stroke-linecap:round;" y2="-5.629" x1="1.769" y1="-5.629" x2="1.769"/>
  <path style="fill:none;stroke:#000000;stroke-width:0.3;" d="M20.908-30.627"/>
  <path style="fill:none;stroke:#000000;stroke-width:0.3;" d="M20.908-30.627c0.76-1.265,2.64-1.484,3.465-1.236    c0.825,0.247,1.155,0.66,1.65,0.577c0.495-0.083,1.733,1.155,0.578,1.979c-1.155,0.825-2.888,1.568-3.465,1.238    c-0.577-0.33-1.237-0.66-1.65-0.826C21.073-29.059,20.661-30.214,20.908-30.627z"/>
  <path style="fill:none;stroke:#000000;stroke-width:0.3;" d="M41.369-38.877c0.99,0,1.815,0.578,2.062,1.238    c0.248,0.66-0.66,2.64-2.558,1.402C38.976-37.475,39.719-39.041,41.369-38.877z"/>
  <path style="fill:none;stroke:#000000;stroke-width:0.3;" d="M45.824-20.066c2.228,1.402,2.062,3.631-0.413,2.888    c-2.475-0.743-2.392-0.99-3.465-2.64C40.874-21.469,44.338-20.974,45.824-20.066z"/>
  <path style="fill:none;stroke:#000000;stroke-width:0.3;" d="M28.911-11.321c1.733,0.907,1.402,2.64-0.578,2.227    c-1.98-0.412-2.723-1.237-3.135-2.145c-0.412-0.908,0.99-1.98,2.558-0.99C28.169-11.816,28.911-11.321,28.911-11.321z"/>
  <path style="fill:none;stroke:#000000;stroke-width:0.3;" d="M6.223-23.283c1.238,0.247,1.897,0.742,1.98,1.732    c0.082,0.989-0.577,1.979-2.887,1.815c-2.31-0.165-3.795-0.578-2.475-2.145c0.825-0.083,1.155-0.248,1.485-0.908    C4.656-23.449,5.646-23.449,6.223-23.283z"/>
  <path style="fill:none;stroke:#000000;stroke-width:0.3;" d="M2.841-36.154c1.732-0.66,3.3,1.402,1.237,1.98    C2.016-33.596,1.026-35.741,2.841-36.154z"/>
  <path style="fill:none;stroke:#000000;stroke-width:0.3;" d="M49.619-4.475c1.485-1.154,2.723,0.332,1.732,1.156    c-0.99,0.824-2.393,1.98-3.3,1.32c-0.908-0.66-0.578-1.817,0.33-1.98C49.289-4.143,49.619-4.475,49.619-4.475z"/>
  <path style="fill:none;stroke:#000000;stroke-width:0.3;" d="M9.276-5.794c2.062,0.413,2.97,1.403,1.567,2.227    C9.441-2.742,9.441-2.906,7.873-3.4c-1.568-0.496-2.97-1.074-1.98-1.816C6.883-5.959,8.203-6.206,9.276-5.794z"/>
  <line style="fill:none;stroke:#000000;stroke-width:0.3;" y2="-38.062" x1="4.631" y1="-38.062" x2="18.25"/>
  <line style="fill:none;stroke:#000000;stroke-width:0.3;" y2="-52.331" x1="1.965" y1="-52.331" x2="13.304"/>
  <line style="fill:none;stroke:#000000;stroke-width:0.3;" y2="-38.959" x1="25.475" y1="-38.959" x2="37.722"/>
  <line style="fill:none;stroke:#000000;stroke-width:0.3;" y2="-38.959" x1="0" y1="-38.959" x2="2.794"/>
  <line style="fill:none;stroke:#000000;stroke-width:0.3;" y2="-38.959" x1="44.986" y1="-38.959" x2="54.125"/>
  <line style="fill:none;stroke:#000000;stroke-width:0.3;" y2="-53.26" x1="40.733" y1="-53.26" x2="52.072"/>
  <line style="fill:none;stroke:#000000;stroke-width:0.3;" y2="-32.211" x1="44.211" y1="-32.211" x2="28.311"/>
  <line style="fill:none;stroke:#000000;stroke-width:0.3;" y2="-32.493" x1="17.035" y1="-32.493" x2="6.008"/>
  <line style="fill:none;stroke:#000000;stroke-width:0.3;" y2="-47.18" x1="22.753" y1="-47.18" x2="13.804"/>
  <line style="fill:none;stroke:#000000;stroke-width:0.3;" y2="-46.637" x1="39.264" y1="-46.637" x2="28.598"/>
  <line style="fill:none;stroke:#000000;stroke-width:0.3;" y2="-25.539" x1="3.971" y1="-25.539" x2="14.308"/>
  <line style="fill:none;stroke:#000000;stroke-width:0.3;" y2="-25.096" x1="27.269" y1="-25.022" x2="38.608"/>
  <line style="fill:none;stroke:#000000;stroke-width:0.3;" y2="-53.017" x1="19.208" y1="-53.017" x2="31.965"/>
  <line style="fill:none;stroke:#000000;stroke-width:0.3;" y2="-25.318" x1="46.869" y1="-25.318" x2="53.688"/>
  <line style="fill:none;stroke:#000000;stroke-width:0.3;" y2="-18.499" x1="40.734" y1="-18.499" x2="32.568"/>
  <line style="fill:none;stroke:#000000;stroke-width:0.3;" y2="-18.633" x1="24.651" y1="-18.633" x2="16.542"/>
  <line style="fill:none;stroke:#000000;stroke-width:0.3;" y2="-13.866" x1="0.001" y1="-13.866" x2="13.299"/>
  <line style="fill:none;stroke:#000000;stroke-width:0.3;" y2="-13.866" x1="53.032" y1="-13.866" x2="54.126"/>
  <line style="fill:none;stroke:#000000;stroke-width:0.3;" y2="-11.679" x1="38.729" y1="-11.679" x2="46.648"/>
  <line style="fill:none;stroke:#000000;stroke-width:0.3;" y2="-5.41" x1="40.49" y1="-5.41" x2="29.682"/>
  <line style="fill:none;stroke:#000000;stroke-width:0.3;" y2="-5.477" x1="25.231" y1="-5.477" x2="13.095"/>
  <path style="fill:none;stroke:#000000;stroke-width:0.3;" d="M20.991-41.187c1.485,0.083,1.32,1.567,0.083,1.649    C19.836-39.454,19.671-41.021,20.991-41.187z"/>
  <path style="fill:none;stroke:#000000;stroke-width:0.3;" d="M32.293-35.906c1.65,0,1.402,1.65,0.165,1.65    C31.221-34.256,30.891-35.906,32.293-35.906z"/>
  <path style="fill:none;stroke:#000000;stroke-width:0.3;" d="M16.97-52.871c1.65,0,1.402,1.65,0.165,1.65    C15.898-51.221,15.568-52.871,16.97-52.871z"/>
  <path style="fill:none;stroke:#000000;stroke-width:0.3;" d="M52.753-31.946c0,1.319-1.402,1.155-1.485,0    C51.186-33.102,52.753-32.937,52.753-31.946z"/>
  <path style="fill:none;stroke:#000000;stroke-width:0.3;" d="M42.523-26.336c1.403,0,1.32,1.402,0.165,1.402    C41.534-24.934,40.791-26.254,42.523-26.336z"/>
  <path style="fill:none;stroke:#000000;stroke-width:0.3;" d="M50.195-15.651c1.21,0,1.375,1.43,0.275,1.484    S48.765-15.542,50.195-15.651z"/>
  <path style="fill:none;stroke:#000000;stroke-width:0.3;" d="M36.693-11.789c0,1.266-1.43,1.045-1.43,0.055    C35.264-12.724,36.693-13.054,36.693-11.789z"/>
  <path style="fill:none;stroke:#000000;stroke-width:0.3;" d="M28.278-20.094c-0.055,1.32-1.54,0.99-1.595,0.055    C26.628-20.974,28.059-21.469,28.278-20.094z"/>
  <path style="fill:none;stroke:#000000;stroke-width:0.3;" d="M3.028-46.031c-0.055,1.32-1.54,0.99-1.595,0.055    C1.378-46.911,2.809-47.406,3.028-46.031z"/>
  <path style="fill:none;stroke:#000000;stroke-width:0.3;" d="M46.113-6.482c0.825,0.605,0.33,1.705-0.825,1.045    C44.133-6.097,44.793-7.252,46.113-6.482z"/>
  <path style="fill:none;stroke:#000000;stroke-width:0.3;" d="M28.333-2.055c1.132,0.418,0.77,1.871-0.44,1.432    C26.684-1.064,27.289-2.44,28.333-2.055z"/>
  <path style="fill:none;stroke:#000000;stroke-width:0.3;" d="M19.588-9.919c1.375,0.11,1.155,1.485,0.165,1.54    C18.764-8.324,18.158-9.919,19.588-9.919z"/>
  <path style="fill:none;stroke:#000000;stroke-width:0.3;" d="M14.198-20.148c1.375,0.934,0.11,1.925-0.88,1.32    C12.328-19.434,13.153-20.645,14.198-20.148z"/>
  <path style="fill:none;stroke:#000000;stroke-width:0.3;" d="M5.971-11.779c0.825,0.826-0.22,1.596-0.88,0.99    C4.431-11.394,4.816-12.494,5.971-11.779z"/>
  <path style="fill:none;stroke:#000000;stroke-width:0.3;" d="M3.108-27.383c0.055,1.265-1.43,1.154-1.485,0.22    C1.568-28.098,2.999-28.538,3.108-27.383z"/>
  <path style="fill:none;stroke:#000000;stroke-width:0.3;" d="M43.32-46.096c0.055,1.266-1.43,1.155-1.485,0.221    C41.78-46.811,43.21-47.25,43.32-46.096z"/>
  <path style="fill:none;stroke:#000000;stroke-width:0.3;" d="M30.885-50.783c1.017,0.61,1.25,2,0.5,2.5s-2.875,0.375-3.375-0.125    s-1-1.5,0.25-2.125S30.26-51.158,30.885-50.783z"/>
  <path style="fill:none;stroke:#000000;stroke-width:0.3;" d="M5.51-49.096c0.625-0.75,1.625-0.75,3.125-0.25s1.625,1,2.125,1    s1.375,2,0.125,2.25s-4.375,0.5-4.75-0.375S5.51-49.096,5.51-49.096z"/>
  <line style="fill:none;stroke:#000000;stroke-width:0.3;" y2="-46.814" x1="53.868" y1="-46.814" x2="47.708"/>
  <line style="fill:none;stroke:#000000;stroke-width:0.3;" y2="-0.662" x1="38.188" y1="-0.662" x2="32.028"/>
  <line style="fill:none;stroke:#000000;stroke-width:0.3;" y2="-42.49" x1="8.167" y1="-42.49" x2="1.363"/>
  <line style="fill:none;stroke:#000000;stroke-width:0.3;" y2="-42.49" x1="30.678" y1="-42.49" x2="20.713"/>
 </g>
</svg>
