<?xml version="1.0"?>
<!-- Converted with SVG Converter - Version 0.9.5 (Compiled Fri Feb 21 09:53:38 2020) - Copyright (C) 2011 Nokia -->
<svg xmlns="http://www.w3.org/2000/svg" width="41.881" viewBox="0 -41.882 41.881 41.882" x="0px" y="0px" baseProfile="tiny" height="41.882" xmlns:xlink="http://www.w3.org/1999/xlink" version="1.1" xml:space="preserve">
 <g>
  <rect width="41.881" y="-41.882" height="41.882" style="fill:none;"/>
  <path d="M41.011-30.555c0.171,0.767,0.255,2.213,0.085,3.575" style="fill:none;stroke:#000000;stroke-width:0.3;"/>
  <path d="M41.229-24.856c-0.255,1.276-0.17,3.66,0.085,4.341" style="fill:none;stroke:#000000;stroke-width:0.3;"/>
  <path d="M39.359-28.74c0.17,1.447,0.17,1.958-0.17,3.49    c-0.34,1.532-0.34,2.213,0,3.32" style="fill:none;stroke:#000000;stroke-width:0.3;"/>
  <path d="M37.173-30.929c0.341,1.192,0.18,2.567-0.16,4.184" style="fill:none;stroke:#000000;stroke-width:0.3;"/>
  <path d="M36.97-24.957c-0.042,0.893-0.17,0.553-0.255,1.532    c-0.085,0.979,0.732,3.157,1.329,4.179" style="fill:none;stroke:#000000;stroke-width:0.3;"/>
  <path d="M34.459-29.511c0.341,1.362,0.254,2.384-0.17,4.043    c-0.426,1.659-0.3,2.369,0.423,3.519" style="fill:none;stroke:#000000;stroke-width:0.3;"/>
  <path d="M31.608-30.745c0.468,1.191,0.681,2.639,0.638,3.49" style="fill:none;stroke:#000000;stroke-width:0.3;"/>
  <path d="M32.161-25.767c-0.255,1.745-0.947,5.115,0.331,6.521" style="fill:none;stroke:#000000;stroke-width:0.3;"/>
  <path d="M30.962-34.237c0.17,0.894,0.254,1.669,0.254,2.009" style="fill:none;stroke:#000000;stroke-width:0.3;"/>
  <path d="M29.906-27.564c0.084,1.234,0,2.649-0.255,3.755    c-0.256,1.107,0.49,4.146,0.958,4.997" style="fill:none;stroke:#000000;stroke-width:0.3;"/>
  <path d="M27.735-30.405c0.255,1.659,0.341,3.363,0,5.192" style="fill:none;stroke:#000000;stroke-width:0.3;"/>
  <path d="M27.395-23.638c-0.255,1.021-0.255,3.021,0.128,3.617" style="fill:none;stroke:#000000;stroke-width:0.3;"/>
  <path d="M25.82-27.979c0.17,1.49,0.043,2.554-0.425,3.958    c-0.468,1.405-0.553,3.192-0.128,4.171" style="fill:none;stroke:#000000;stroke-width:0.3;"/>
  <path d="M23.437-30.541c0.214,1.233,0.383,3.499,0,5.03" style="fill:none;stroke:#000000;stroke-width:0.3;"/>
  <path d="M23.126-23.696c-0.574,2.677-0.699,5.144-0.316,5.767" style="fill:none;stroke:#000000;stroke-width:0.3;"/>
  <path d="M21.437-28.66c0.128,1.873,0.212,2.553-0.171,4.086    c-0.383,1.532-0.426,2.681-0.298,3.405" style="fill:none;stroke:#000000;stroke-width:0.3;"/>
  <path d="M19.747-31.17c0.34,1.32-0.056,3.532-0.225,4.468" style="fill:none;stroke:#000000;stroke-width:0.3;"/>
  <path d="M19.308-25c-0.085,0.809-0.042,0.468-0.213,1.447    c-0.17,0.979-0.255,2.766,0.213,3.661" style="fill:none;stroke:#000000;stroke-width:0.3;"/>
  <path d="M17.236-29.143c0.212,2.001,0.212,3.845,0.042,5.293    c-0.171,1.447-0.171,3.149,0.127,3.83" style="fill:none;stroke:#000000;stroke-width:0.3;"/>
  <path d="M15.03-30.277c0.468,1.447,0.681,2.427,0.639,3.532" style="fill:none;stroke:#000000;stroke-width:0.3;"/>
  <path d="M15.2-24.617c-0.256,1.191-0.425,3.489,0.297,4.681" style="fill:none;stroke:#000000;stroke-width:0.3;"/>
  <path d="M12.844-30.591c0.468,2.085,0.921,3.761,0.624,5.25    c-0.299,1.49-0.341,1.362-0.341,1.788" style="fill:none;stroke:#000000;stroke-width:0.3;"/>
  <path d="M13.448-22.185c0.231,0.868,0.322,2.64,0.386,3.354" style="fill:none;stroke:#000000;stroke-width:0.3;"/>
  <path d="M11.311-29.128c0.34,1.745,0.425,2.809,0.085,4.34    c-0.34,1.532-0.297,3.363,0.255,4.724" style="fill:none;stroke:#000000;stroke-width:0.3;"/>
  <path d="M8.805-30.89c0.384,1.277,0.797,2.826,0.754,3.677" style="fill:none;stroke:#000000;stroke-width:0.3;"/>
  <path d="M9.261-24.574c-0.383,1.49-0.512,3.769,0.467,5.344" style="fill:none;stroke:#000000;stroke-width:0.3;"/>
  <path d="M7.266-29.681c0.255,1.744,0.382,2.595,0.085,3.872    c-0.298,1.277-0.255,1.235-0.255,1.704" style="fill:none;stroke:#000000;stroke-width:0.3;"/>
  <path d="M26.801-40.024c0.73,0.935,0.927,7.496,0.927,7.496" style="fill:none;stroke:#000000;stroke-width:0.3;"/>
  <path d="M5.747-28.563c-0.213,1.362-0.494,3.861-0.749,4.797    c-0.255,0.936-0.639,2.767,0,3.831" style="fill:none;stroke:#000000;stroke-width:0.3;"/>
  <path d="M3.586-30.446c0.213,1.404,0.425,2.299,0.17,3.532    c-0.254,1.235-0.17,1.575-0.213,1.83" style="fill:none;stroke:#000000;stroke-width:0.3;"/>
  <path d="M3.077-22.83c-0.213,0.81-0.298,1.745-0.085,2.342    c0.212,0.596,0.784,1.592,0.784,1.592" style="fill:none;stroke:#000000;stroke-width:0.3;"/>
  <path d="M1.41-28.574c0.34,1.191,0.596,3.276,0.212,4.639    c-0.383,1.361-0.639,3.148-0.084,4.255" style="fill:none;stroke:#000000;stroke-width:0.3;"/>
  <path d="M6.797-22.148c0.042,0.85,1.223,3.701,1.605,4.254" style="fill:none;stroke:#000000;stroke-width:0.3;"/>
  <path d="M1.094-17.042c0.34,1.703,0.468,2.214,0.042,3.703    c-0.425,1.49-0.595,2.554-0.212,3.703" style="fill:none;stroke:#000000;stroke-width:0.3;"/>
  <path d="M2.668-18.318c0.341,0.894,0.681,2.042,0.596,2.894    c-0.085,0.851-0.297,1.319-0.255,1.447" style="fill:none;stroke:#000000;stroke-width:0.3;"/>
  <path d="M2.753-12.829C2.413-11.807,2.872-9.41,3.339-8.474" style="fill:none;stroke:#000000;stroke-width:0.3;"/>
  <path d="M4.796-17.254c0.212,1.064,0.425,1.618-0.086,3.191    c-0.51,1.575-0.426,2.81-0.127,3.66" style="fill:none;stroke:#000000;stroke-width:0.3;"/>
  <path d="M6.429-18.709c0.256,1.064,0.469,2.256,0.256,3.32" style="fill:none;stroke:#000000;stroke-width:0.3;"/>
  <path d="M6.838-13.552C6.456-12.488,6.56-9.96,6.857-9.109" style="fill:none;stroke:#000000;stroke-width:0.3;"/>
  <path d="M8.881-15.808c0.043,0.893,0.086,1.021-0.254,2.426    c-0.34,1.405-0.751,3.849-0.282,4.744" style="fill:none;stroke:#000000;stroke-width:0.3;"/>
  <path d="M10.882-17.552c0.256,1.192,0.468,2.17,0.043,3.533    c-0.425,1.361-0.767,2.595,0.042,4.084" style="fill:none;stroke:#000000;stroke-width:0.3;"/>
  <path d="M12.602-18.715c0.297,1.234,0.876,2.099,0.621,3.036    c-0.255,0.937-0.468,1.361-0.553,1.829" style="fill:none;stroke:#000000;stroke-width:0.3;"/>
  <path d="M12.688-12.655c0,0.894-0.034,2.003,0.264,2.6" style="fill:none;stroke:#000000;stroke-width:0.3;"/>
  <path d="M14.627-17.68c0.383,1.617,0.809,2.341,0.255,3.703    c-0.553,1.362-0.472,4.083-0.301,5.061" style="fill:none;stroke:#000000;stroke-width:0.3;"/>
  <path d="M16.245-18.488c0.468,1.021,0.723,2.639,0.638,3.277" style="fill:none;stroke:#000000;stroke-width:0.3;"/>
  <path d="M16.584-13.339c-0.298,1.022-0.24,3.659-0.028,4.255" style="fill:none;stroke:#000000;stroke-width:0.3;"/>
  <path d="M17.819-17.68c0.467,1.575,0.724,2.17,0.383,3.575    c-0.341,1.406-0.681,2.894-0.468,3.702" style="fill:none;stroke:#000000;stroke-width:0.3;"/>
  <path d="M20.063-18.808c0.169,0.851-0.201,2.405-0.201,2.916" style="fill:none;stroke:#000000;stroke-width:0.3;"/>
  <path d="M19.665-14.063c-0.086,0.894-0.042,0.767-0.256,1.575    c-0.213,0.809,0.524,4.839,0.738,5.434" style="fill:none;stroke:#000000;stroke-width:0.3;"/>
  <path d="M21.437-17.296c0.467,1.958,0.808,2.936,0.511,4.043    c-0.298,1.107-0.383,2.383-0.256,2.979" style="fill:none;stroke:#000000;stroke-width:0.3;"/>
  <path d="M23.309-17.085c-0.042,0.853,0.086,1.32,0.255,2.043    c0.17,0.723,0.341,1.32,0,2.554c-0.341,1.234,0.078,2.234,0.162,2.745" style="fill:none;stroke:#000000;stroke-width:0.3;"/>
  <path d="M25.408-18.318c0,0.766,0.17,2.255,0.298,2.809" style="fill:none;stroke:#000000;stroke-width:0.3;"/>
  <path d="M25.79-14.232c-0.042,1.022-0.042,1.064-0.212,2.127    c-0.17,1.064-0.118,2.956,0.01,3.383" style="fill:none;stroke:#000000;stroke-width:0.3;"/>
  <path d="M28.799-19.184c0.384,1.32,0.785,2.525,0.657,3.802" style="fill:none;stroke:#000000;stroke-width:0.3;"/>
  <path d="M29.202-13.851c-0.17,1.32-0.426,2.512-0.254,3.321    c0.169,0.809,0.116,2.242,0.116,2.242" style="fill:none;stroke:#000000;stroke-width:0.3;"/>
  <path d="M31.249-17.51c0.127,1.745,0.17,1.787-0.17,3.064    c-0.341,1.277-0.225,3.715,0.2,4.694" style="fill:none;stroke:#000000;stroke-width:0.3;"/>
  <path d="M34.181-20.55c0.772,1.256,1.065,4.785,0.725,6.444    c-0.341,1.661-0.17,2.979,0.255,4.087" style="fill:none;stroke:#000000;stroke-width:0.3;"/>
  <path d="M36.112-19.693c0.255,1.064,0.899,3.904,0.814,4.925" style="fill:none;stroke:#000000;stroke-width:0.3;"/>
  <path d="M36.736-13.041c-0.17,1.064,0.213,3.515,0.426,4.238" style="fill:none;stroke:#000000;stroke-width:0.3;"/>
  <path d="M38.568-17.552c0.384,1.661,0.596,2.213,0.384,3.66    c-0.213,1.448-0.298,2.681-0.171,3.277" style="fill:none;stroke:#000000;stroke-width:0.3;"/>
  <path d="M40.262-19.23c0.657,1.033,0.606,2.274,0.606,2.998" style="fill:none;stroke:#000000;stroke-width:0.3;"/>
  <path d="M40.91-14.148c-0.17,1.021-0.752,3.638,0.056,5.298" style="fill:none;stroke:#000000;stroke-width:0.3;"/>
  <path d="M1.401-40.958c0.341,0.894,0.046,1.889-0.04,2.74    c-0.085,0.852-0.297,1.32-0.255,1.447" style="fill:none;stroke:#000000;stroke-width:0.3;"/>
  <path d="M0.852-35.123c-0.341,1.021,0.214,3.61,0.683,4.547" style="fill:none;stroke:#000000;stroke-width:0.3;"/>
  <path d="M2.894-40.207c0.213,1.064,0.426,2.275-0.085,3.85    c-0.511,1.575-0.426,2.809-0.127,3.66" style="fill:none;stroke:#000000;stroke-width:0.3;"/>
  <path d="M4.467-40.989c0.255,1.064,0.468,1.829,0.255,2.893" style="fill:none;stroke:#000000;stroke-width:0.3;"/>
  <path d="M4.895-36.174c-0.384,1.064-0.169,4.925,0.128,5.776" style="fill:none;stroke:#000000;stroke-width:0.3;"/>
  <path d="M6.979-38.102c0.042,0.894,0.085,1.022-0.255,2.426    c-0.34,1.405-0.128,3.634,0.34,4.528" style="fill:none;stroke:#000000;stroke-width:0.3;"/>
  <path d="M8.979-40.636c0.255,1.191,0.469,2.96,0.043,4.322    c-0.426,1.361-0.766,2.596,0.042,4.085" style="fill:none;stroke:#000000;stroke-width:0.3;"/>
  <path d="M10.642-41.426c0.298,1.233,0.468,1.645,0.213,2.581    c-0.255,0.936-0.468,1.362-0.553,1.831" style="fill:none;stroke:#000000;stroke-width:0.3;"/>
  <path d="M10.555-35.771c0,0.895,0.687,4.391,0.985,4.986" style="fill:none;stroke:#000000;stroke-width:0.3;"/>
  <path d="M12.724-40.766c0.384,1.617,0.81,2.505,0.256,3.867    c-0.553,1.362-0.893,2.383-0.724,3.362" style="fill:none;stroke:#000000;stroke-width:0.3;"/>
  <path d="M14.917-39.446c0.468,1.021,0.263,2.835,0.177,3.475" style="fill:none;stroke:#000000;stroke-width:0.3;"/>
  <path d="M14.13-34.826c-0.297,1.021-0.51,3.064-0.297,3.659" style="fill:none;stroke:#000000;stroke-width:0.3;"/>
  <path d="M15.917-41.426c0.468,1.574,0.724,3.123,0.383,4.528    c-0.34,1.404-0.483,4.63-0.27,5.438" style="fill:none;stroke:#000000;stroke-width:0.3;"/>
  <path d="M18.02-40.471c0.415,2.081,0.029,4.233,0.029,3.684" style="fill:none;stroke:#000000;stroke-width:0.3;"/>
  <path d="M18.418-35.484c-0.085,0.895-0.373,1.593-0.586,2.402    c-0.213,0.808-0.128,2.127,0.085,2.723" style="fill:none;stroke:#000000;stroke-width:0.3;"/>
  <path d="M19.535-41.403c0.467,1.958,0.809,4.12,0.511,5.227    c-0.299,1.107-0.384,2.383-0.256,2.979" style="fill:none;stroke:#000000;stroke-width:0.3;"/>
  <path d="M21.407-39.04c-0.043,0.852,0.085,0.979,0.255,1.704    c0.17,0.724,0.341,1.319,0,2.554c-0.34,1.234-0.175,3.316-0.089,3.827" style="fill:none;stroke:#000000;stroke-width:0.3;"/>
  <path d="M23.318-41.112c0,0.766-0.432,2.256-0.304,2.809" style="fill:none;stroke:#000000;stroke-width:0.3;"/>
  <path d="M23.449-36.528c-0.042,1.022-0.042,1.065-0.212,2.129    c-0.171,1.063-0.044,2.042,0.084,2.468" style="fill:none;stroke:#000000;stroke-width:0.3;"/>
  <path d="M24.96-41.627c0.468,1.573,0.106,5.696-0.063,7.143" style="fill:none;stroke:#000000;stroke-width:0.3;"/>
  <path d="M26.322-34.629c-0.17,1.319-0.913,2.992-0.743,3.801    c0.171,0.808,0.298,1.148,0.298,1.148" style="fill:none;stroke:#000000;stroke-width:0.3;"/>
  <path d="M29.039-41.462c0.128,1.745,0.171,2.818-0.17,4.095    c-0.341,1.277-0.554,2.341-0.128,3.318" style="fill:none;stroke:#000000;stroke-width:0.3;"/>
  <path d="M31.227-38.989c0.128,0.935,0.255,1.042,0.084,1.936    c-0.169,0.895-0.383,1.405-0.425,1.746" style="fill:none;stroke:#000000;stroke-width:0.3;"/>
  <path d="M33.154-40.881c0.298,1.32,0.426,2.17,0.085,3.831    c-0.341,1.66-0.499,4.292-0.073,5.398" style="fill:none;stroke:#000000;stroke-width:0.3;"/>
  <path d="M35.291-41.59c0.256,1.064,0.182,3.316,0.097,4.337" style="fill:none;stroke:#000000;stroke-width:0.3;"/>
  <path d="M34.834-35.335c-0.171,1.064,0.196,4.238,0.409,4.961" style="fill:none;stroke:#000000;stroke-width:0.3;"/>
  <path d="M36.842-39.343c0.383,1.66,0.595,1.709,0.383,3.156    c-0.212,1.448-0.297,2.681-0.169,3.277" style="fill:none;stroke:#000000;stroke-width:0.3;"/>
  <path d="M38.972-41.49c0.213,1.15,0.213,2.239,0.213,2.962" style="fill:none;stroke:#000000;stroke-width:0.3;"/>
  <path d="M39.227-36.442c-0.17,1.022-0.859,3.441-0.051,5.1" style="fill:none;stroke:#000000;stroke-width:0.3;"/>
  <path d="M40.721-41.142c0.255,1.404,0.17,3.55,0,4.742    c-0.17,1.192-0.341,2.553,0.127,3.702" style="fill:none;stroke:#000000;stroke-width:0.3;"/>
  <path d="M1.779-8.061C2.076-6.743,2.161-5.892,2.033-5.04" style="fill:none;stroke:#000000;stroke-width:0.3;"/>
  <path d="M1.514-3.891C1.173-2.827,0.591-0.99,0.889-0.266" style="fill:none;stroke:#000000;stroke-width:0.3;"/>
  <path d="M3.598-7.082c0.17,1.233-0.128,1.999-0.341,3.063    C3.044-2.955,2.916-1.308,3.215-0.456" style="fill:none;stroke:#000000;stroke-width:0.3;"/>
  <path d="M5.587-9.506c0.17,0.893-0.359,6.469-0.786,7.788" style="fill:none;stroke:#000000;stroke-width:0.3;"/>
  <path d="M7.179-6.37c0.043,1.191-0.073,0.938-0.297,1.957    c-0.286,1.296-0.506,3.044-0.463,4.39" style="fill:none;stroke:#000000;stroke-width:0.3;"/>
  <path d="M11.216-7.082c0.084,1.489,0.255,1.83-0.255,3.15    c-0.511,1.318-0.639,1.485-0.426,2.377" style="fill:none;stroke:#000000;stroke-width:0.3;"/>
  <path d="M12.682-8.739c0.256,0.766,0.854,2.379,0.77,3.102" style="fill:none;stroke:#000000;stroke-width:0.3;"/>
  <path d="M12.7-4.443c-0.297,0.766-0.814,2.629-0.728,3.863" style="fill:none;stroke:#000000;stroke-width:0.3;"/>
  <path d="M14.647-7.211c0.383,1.574,0.482,2.236,0,3.362    c-0.394,0.92-0.333,2.726-0.341,3.836" style="fill:none;stroke:#000000;stroke-width:0.3;"/>
  <path d="M18.154-8.529c0.382,1.575,0.541,3.319,0.158,4.298    c-0.382,0.978-0.612,2.916-0.399,3.852" style="fill:none;stroke:#000000;stroke-width:0.3;"/>
  <path d="M20.195-5.634c-0.085,0.723-0.871,3.504-0.701,4.057" style="fill:none;stroke:#000000;stroke-width:0.3;"/>
  <path d="M21.581-9.012c0.383,1.362,0.308,3.021-0.053,4.065    c-0.33,0.952-0.444,3.429-0.447,4.925" style="fill:none;stroke:#000000;stroke-width:0.3;"/>
  <path d="M24.812-7.381c0.383,1.233,0.383,1.958,0.042,3.234    c-0.34,1.277-0.553,1.606-0.297,2.457" style="fill:none;stroke:#000000;stroke-width:0.3;"/>
  <path d="M27.069-8.477c0.17,0.809-0.198,2.009-0.24,2.562" style="fill:none;stroke:#000000;stroke-width:0.3;"/>
  <path d="M26.992-4.847c-0.297,0.85-0.961,3.317-0.834,3.912" style="fill:none;stroke:#000000;stroke-width:0.3;"/>
  <path d="M28.289-7.296c0.34,1.831,0.382,2.596-0.128,3.703    c-0.511,1.106-0.681,2.511-0.383,3.361" style="fill:none;stroke:#000000;stroke-width:0.3;"/>
  <path d="M32.342-7.625c0.596,1.574,0.351,2.265-0.436,3.692    c-0.483,0.876-0.645,2.654-0.636,3.91" style="fill:none;stroke:#000000;stroke-width:0.3;"/>
  <path d="M33.354-9.448c0.557,0.557,0.897,3.131,0.812,3.556" style="fill:none;stroke:#000000;stroke-width:0.3;"/>
  <path d="M33.618-4.298c0,1.065-0.565,3.062-0.82,3.913" style="fill:none;stroke:#000000;stroke-width:0.3;"/>
  <path d="M35.633-7.828c0.128,0.809-0.279,0.575,0.06,1.852    c0.341,1.276,0.086,1.83-0.255,2.723c-0.34,0.895-0.1,1.659-0.058,2.169" style="fill:none;stroke:#000000;stroke-width:0.3;"/>
  <path d="M6.418-41.87c0.032,0.982,0.147,1.494,0.425,1.813" style="fill:none;stroke:#000000;stroke-width:0.3;"/>
  <path d="M14.306-41.861c-0.003,0.441-0.018,0.739-0.076,0.863" style="fill:none;stroke:#000000;stroke-width:0.3;"/>
  <path d="M21.081-41.87c-0.001,0.663,0.019,1.472,0.053,1.524" style="fill:none;stroke:#000000;stroke-width:0.3;"/>
  <path d="M31.27-41.87c0.004,0.689,0.059,1.582,0.141,1.715" style="fill:none;stroke:#000000;stroke-width:0.3;"/>
  <path d="M37.388-41.87c-0.005,0.364,0.004,1.141,0.03,1.253" style="fill:none;stroke:#000000;stroke-width:0.3;"/>
  <path d="M37.566-7.296c0.213,0.851,0.469,2.043,0.213,3.021    c-0.197,0.755-0.374,3.023-0.391,4.252" style="fill:none;stroke:#000000;stroke-width:0.3;"/>
  <path d="M41.439-7.551c0.084,0.979,0.128,1.234-0.128,2.255    c-0.255,1.021-0.508,3.59-0.21,4.568" style="fill:none;stroke:#000000;stroke-width:0.3;"/>
  <path d="M27.19-17.544c0.129,1.547,0.516,1.805,0.257,3.74    c-0.257,1.935-0.516,2.837-0.257,3.611" style="fill:none;stroke:#000000;stroke-width:0.3;"/>
  <path d="M29.514-32.926c-0.042,1.149,0.17,2.899,0.383,3.453" style="fill:none;stroke:#000000;stroke-width:0.3;"/>
  <path d="M30.287-8.376c0.212,1.064,0.425,1.619-0.085,3.192    c-0.388,1.197-0.912,2.731-0.491,3.93" style="fill:none;stroke:#000000;stroke-width:0.3;"/>
  <path d="M33.078-17.84c0.212,1.063,0.426,1.617-0.085,3.192    c-0.511,1.575-0.426,2.808-0.128,3.66" style="fill:none;stroke:#000000;stroke-width:0.3;"/>
  <path d="M23.483-8.283c0.212,1.064,0.226,2.094-0.286,3.668    c-0.51,1.575-0.721,3.097-0.423,3.949" style="fill:none;stroke:#000000;stroke-width:0.3;"/>
  <path d="M16.212-7.676c0.212,1.063,0.54,1.722,0.029,3.296    c-0.511,1.575-0.549,2.35-0.252,3.202" style="fill:none;stroke:#000000;stroke-width:0.3;"/>
  <path d="M9.762-9.315c0.212,1.064-0.297,3.079-0.808,4.652    C8.443-3.088,8.473-1.188,8.771-0.337" style="fill:none;stroke:#000000;stroke-width:0.3;"/>
  <path d="M39.38-8.689c0.212,1.064,0.797,2.545,0.286,4.12    c-0.511,1.575-0.425,2.414-0.128,3.265" style="fill:none;stroke:#000000;stroke-width:0.3;"/>
  <rect width="41.881" y="-41.881" height="41.881" style="fill:none;"/>
 </g>
</svg>
