<?xml version="1.0"?>
<!-- Converted with SVG Converter - Version 0.9.5 (Compiled Fri Feb 21 09:53:38 2020) - Copyright (C) 2011 Nokia -->
<svg xmlns="http://www.w3.org/2000/svg" xmlns:xlink="http://www.w3.org/1999/xlink" x="0px" height="54.126" width="54.125" viewBox="0 -54.126 54.125 54.126" version="1.1" y="0px" baseProfile="tiny" xml:space="preserve">
 <g>
  <rect height="54.126" width="54.125" y="-54.126" style="fill:none;"/>
  <path d="M53-39.487c0.221,0.99,0.33,2.859,0.11,4.62" style="fill:none;stroke:#000000;stroke-width:0.3;"/>
  <path d="M53.283-32.123c-0.33,1.649-0.22,4.729,0.109,5.61" style="fill:none;stroke:#000000;stroke-width:0.3;"/>
  <path d="M50.866-37.141c0.22,1.87,0.22,2.53-0.221,4.51    c-0.439,1.981-0.439,2.86,0,4.291" style="fill:none;stroke:#000000;stroke-width:0.3;"/>
  <path d="M48.042-39.97c0.439,1.54,0.232,3.317-0.208,5.407" style="fill:none;stroke:#000000;stroke-width:0.3;"/>
  <path d="M47.778-32.253c-0.055,1.155-0.22,0.715-0.33,1.979    c-0.11,1.266,0.946,4.081,1.716,5.401" style="fill:none;stroke:#000000;stroke-width:0.3;"/>
  <path d="M44.533-38.138c0.44,1.76,0.33,3.08-0.22,5.225    c-0.55,2.146-0.388,3.062,0.546,4.548" style="fill:none;stroke:#000000;stroke-width:0.3;"/>
  <path d="M40.849-39.733c0.604,1.539,0.88,3.41,0.824,4.51" style="fill:none;stroke:#000000;stroke-width:0.3;"/>
  <path d="M41.563-33.298c-0.33,2.255-1.223,6.61,0.426,8.426" style="fill:none;stroke:#000000;stroke-width:0.3;"/>
  <path d="M40.014-44.247c0.22,1.155,0.329,2.158,0.329,2.598" style="fill:none;stroke:#000000;stroke-width:0.3;"/>
  <path d="M38.648-35.622c0.109,1.595,0,3.424-0.33,4.854    c-0.33,1.43,0.633,5.357,1.238,6.457" style="fill:none;stroke:#000000;stroke-width:0.3;"/>
  <path d="M35.843-39.293c0.33,2.145,0.44,4.346,0,6.71" style="fill:none;stroke:#000000;stroke-width:0.3;"/>
  <path d="M35.403-30.548c-0.33,1.32-0.33,3.905,0.165,4.675" style="fill:none;stroke:#000000;stroke-width:0.3;"/>
  <path d="M33.368-36.159c0.22,1.926,0.055,3.301-0.55,5.115    c-0.606,1.815-0.715,4.125-0.165,5.391" style="fill:none;stroke:#000000;stroke-width:0.3;"/>
  <path d="M30.288-39.469c0.275,1.594,0.495,4.521,0,6.501" style="fill:none;stroke:#000000;stroke-width:0.3;"/>
  <path d="M29.887-30.623c-0.741,3.459-0.904,6.648-0.408,7.453" style="fill:none;stroke:#000000;stroke-width:0.3;"/>
  <path d="M27.703-37.039c0.165,2.421,0.275,3.3-0.22,5.28    c-0.495,1.98-0.551,3.465-0.386,4.4" style="fill:none;stroke:#000000;stroke-width:0.3;"/>
  <path d="M25.52-40.282c0.44,1.705-0.071,4.563-0.291,5.773" style="fill:none;stroke:#000000;stroke-width:0.3;"/>
  <path d="M24.953-32.308c-0.11,1.045-0.055,0.605-0.275,1.87    c-0.22,1.265-0.33,3.574,0.275,4.73" style="fill:none;stroke:#000000;stroke-width:0.3;"/>
  <path d="M22.275-37.663c0.274,2.586,0.273,4.969,0.053,6.84    c-0.22,1.869-0.22,4.069,0.165,4.949" style="fill:none;stroke:#000000;stroke-width:0.3;"/>
  <path d="M19.424-39.128c0.604,1.87,0.88,3.136,0.825,4.565" style="fill:none;stroke:#000000;stroke-width:0.3;"/>
  <path d="M19.644-31.813c-0.33,1.539-0.55,4.51,0.385,6.05" style="fill:none;stroke:#000000;stroke-width:0.3;"/>
  <path d="M16.598-39.534c0.605,2.695,1.191,4.86,0.806,6.785    c-0.386,1.926-0.44,1.76-0.44,2.311" style="fill:none;stroke:#000000;stroke-width:0.3;"/>
  <path d="M17.379-28.67c0.299,1.12,0.417,3.41,0.5,4.334" style="fill:none;stroke:#000000;stroke-width:0.3;"/>
  <path d="M14.617-37.643c0.44,2.255,0.551,3.63,0.11,5.609    c-0.44,1.98-0.385,4.346,0.33,6.105" style="fill:none;stroke:#000000;stroke-width:0.3;"/>
  <path d="M11.379-39.92c0.495,1.65,1.03,3.652,0.975,4.752" style="fill:none;stroke:#000000;stroke-width:0.3;"/>
  <path d="M11.969-31.758c-0.495,1.926-0.662,4.871,0.603,6.906" style="fill:none;stroke:#000000;stroke-width:0.3;"/>
  <path d="M9.39-38.358c0.329,2.254,0.494,3.354,0.109,5.004    c-0.385,1.65-0.33,1.596-0.33,2.201" style="fill:none;stroke:#000000;stroke-width:0.3;"/>
  <path d="M34.636-51.725c0.943,1.209,1.197,9.687,1.197,9.687" style="fill:none;stroke:#000000;stroke-width:0.3;"/>
  <path d="M7.427-36.913c-0.275,1.76-0.638,4.989-0.968,6.199    c-0.33,1.21-0.825,3.575,0,4.95" style="fill:none;stroke:#000000;stroke-width:0.3;"/>
  <path d="M4.634-39.346c0.275,1.814,0.55,2.97,0.221,4.564    c-0.33,1.596-0.221,2.035-0.275,2.365" style="fill:none;stroke:#000000;stroke-width:0.3;"/>
  <path d="M3.976-29.503c-0.275,1.046-0.386,2.255-0.11,3.025    c0.275,0.771,1.014,2.058,1.014,2.058" style="fill:none;stroke:#000000;stroke-width:0.3;"/>
  <path d="M1.822-36.928c0.439,1.54,0.77,4.234,0.274,5.995    c-0.495,1.76-0.825,4.069-0.11,5.5" style="fill:none;stroke:#000000;stroke-width:0.3;"/>
  <path d="M8.784-28.624c0.055,1.1,1.58,4.783,2.074,5.498" style="fill:none;stroke:#000000;stroke-width:0.3;"/>
  <path d="M1.413-22.024c0.439,2.201,0.605,2.861,0.055,4.785    c-0.55,1.926-0.77,3.301-0.274,4.785" style="fill:none;stroke:#000000;stroke-width:0.3;"/>
  <path d="M3.448-23.673c0.44,1.155,0.88,2.64,0.77,3.74    c-0.109,1.101-0.385,1.705-0.33,1.87" style="fill:none;stroke:#000000;stroke-width:0.3;"/>
  <path d="M3.558-16.579c-0.439,1.32,0.153,4.418,0.758,5.628" style="fill:none;stroke:#000000;stroke-width:0.3;"/>
  <path d="M6.198-22.298c0.274,1.375,0.55,2.091-0.11,4.125    c-0.66,2.035-0.55,3.63-0.165,4.73" style="fill:none;stroke:#000000;stroke-width:0.3;"/>
  <path d="M8.309-24.178c0.33,1.375,0.606,2.915,0.33,4.29" style="fill:none;stroke:#000000;stroke-width:0.3;"/>
  <path d="M8.838-17.513c-0.495,1.375-0.361,4.642,0.024,5.742" style="fill:none;stroke:#000000;stroke-width:0.3;"/>
  <path d="M11.477-20.428c0.056,1.154,0.11,1.32-0.329,3.135    c-0.44,1.815-0.97,4.975-0.365,6.131" style="fill:none;stroke:#000000;stroke-width:0.3;"/>
  <path d="M14.064-22.683c0.33,1.54,0.604,2.805,0.055,4.565    c-0.55,1.76-0.99,3.355,0.055,5.279" style="fill:none;stroke:#000000;stroke-width:0.3;"/>
  <path d="M16.286-24.186c0.385,1.595,1.132,2.713,0.802,3.923    c-0.33,1.21-0.604,1.76-0.715,2.364" style="fill:none;stroke:#000000;stroke-width:0.3;"/>
  <path d="M16.396-16.354c0,1.155-0.043,2.589,0.341,3.359" style="fill:none;stroke:#000000;stroke-width:0.3;"/>
  <path d="M18.903-22.848c0.495,2.09,1.045,3.025,0.33,4.785    s-0.609,5.276-0.39,6.541" style="fill:none;stroke:#000000;stroke-width:0.3;"/>
  <path d="M20.993-23.893c0.604,1.32,0.934,3.41,0.825,4.234" style="fill:none;stroke:#000000;stroke-width:0.3;"/>
  <path d="M21.433-17.239c-0.385,1.32-0.31,4.729-0.036,5.499" style="fill:none;stroke:#000000;stroke-width:0.3;"/>
  <path d="M23.028-22.848c0.604,2.035,0.935,2.805,0.495,4.62    c-0.44,1.816-0.88,3.739-0.605,4.784" style="fill:none;stroke:#000000;stroke-width:0.3;"/>
  <path d="M25.928-24.306c0.22,1.101-0.26,3.108-0.26,3.769" style="fill:none;stroke:#000000;stroke-width:0.3;"/>
  <path d="M25.413-18.173c-0.11,1.155-0.055,0.99-0.33,2.035    c-0.274,1.045,0.678,6.253,0.954,7.023" style="fill:none;stroke:#000000;stroke-width:0.3;"/>
  <path d="M27.703-22.353c0.604,2.53,1.045,3.795,0.66,5.225    c-0.385,1.431-0.495,3.08-0.33,3.851" style="fill:none;stroke:#000000;stroke-width:0.3;"/>
  <path d="M30.123-22.079c-0.055,1.101,0.11,1.705,0.33,2.641    c0.22,0.935,0.441,1.705,0,3.3c-0.44,1.595,0.099,2.888,0.209,3.548" style="fill:none;stroke:#000000;stroke-width:0.3;"/>
  <path d="M32.835-23.673c0,0.99,0.221,2.915,0.385,3.63" style="fill:none;stroke:#000000;stroke-width:0.3;"/>
  <path d="M33.33-18.393c-0.055,1.32-0.055,1.375-0.274,2.75    c-0.221,1.375-0.152,3.82,0.013,4.371" style="fill:none;stroke:#000000;stroke-width:0.3;"/>
  <path d="M37.219-24.792c0.495,1.705,1.014,3.264,0.849,4.913" style="fill:none;stroke:#000000;stroke-width:0.3;"/>
  <path d="M37.738-17.899c-0.22,1.705-0.55,3.246-0.329,4.291    c0.22,1.045,0.151,2.897,0.151,2.897" style="fill:none;stroke:#000000;stroke-width:0.3;"/>
  <path d="M40.384-22.628c0.165,2.255,0.22,2.31-0.22,3.96    c-0.441,1.65-0.291,4.802,0.259,6.066" style="fill:none;stroke:#000000;stroke-width:0.3;"/>
  <path d="M44.173-26.557c0.998,1.623,1.377,6.184,0.937,8.329    c-0.441,2.146-0.22,3.85,0.33,5.28" style="fill:none;stroke:#000000;stroke-width:0.3;"/>
  <path d="M46.669-25.45c0.329,1.375,1.162,5.045,1.053,6.365" style="fill:none;stroke:#000000;stroke-width:0.3;"/>
  <path d="M47.476-16.853c-0.22,1.375,0.275,4.542,0.55,5.478" style="fill:none;stroke:#000000;stroke-width:0.3;"/>
  <path d="M49.844-22.683c0.495,2.146,0.771,2.86,0.495,4.729    c-0.275,1.871-0.385,3.465-0.22,4.235" style="fill:none;stroke:#000000;stroke-width:0.3;"/>
  <path d="M52.032-24.852c0.85,1.335,0.784,2.94,0.784,3.874" style="fill:none;stroke:#000000;stroke-width:0.3;"/>
  <path d="M52.87-18.284c-0.22,1.32-0.973,4.703,0.072,6.848" style="fill:none;stroke:#000000;stroke-width:0.3;"/>
  <path d="M1.811-52.932c0.44,1.155,0.06,2.442-0.051,3.542    c-0.11,1.101-0.385,1.705-0.33,1.87" style="fill:none;stroke:#000000;stroke-width:0.3;"/>
  <path d="M1.1-45.391c-0.44,1.32,0.277,4.667,0.883,5.877" style="fill:none;stroke:#000000;stroke-width:0.3;"/>
  <path d="M3.739-51.96c0.275,1.375,0.551,2.94-0.109,4.975    c-0.66,2.035-0.55,3.63-0.165,4.729" style="fill:none;stroke:#000000;stroke-width:0.3;"/>
  <path d="M5.773-52.972c0.33,1.375,0.605,2.364,0.33,3.739" style="fill:none;stroke:#000000;stroke-width:0.3;"/>
  <path d="M6.325-46.749c-0.495,1.375-0.219,6.365,0.166,7.465" style="fill:none;stroke:#000000;stroke-width:0.3;"/>
  <path d="M9.019-49.241c0.055,1.154,0.11,1.32-0.33,3.135    c-0.439,1.815-0.166,4.697,0.44,5.852" style="fill:none;stroke:#000000;stroke-width:0.3;"/>
  <path d="M11.604-52.515c0.33,1.54,0.606,3.824,0.056,5.585    c-0.551,1.76-0.99,3.354,0.055,5.279" style="fill:none;stroke:#000000;stroke-width:0.3;"/>
  <path d="M13.753-53.537c0.385,1.594,0.606,2.126,0.275,3.335    c-0.33,1.21-0.605,1.76-0.715,2.365" style="fill:none;stroke:#000000;stroke-width:0.3;"/>
  <path d="M13.64-46.227c0,1.155,0.888,5.674,1.274,6.443" style="fill:none;stroke:#000000;stroke-width:0.3;"/>
  <path d="M16.444-52.684c0.495,2.09,1.046,3.237,0.33,4.997    c-0.715,1.761-1.154,3.08-0.935,4.345" style="fill:none;stroke:#000000;stroke-width:0.3;"/>
  <path d="M19.277-50.977c0.604,1.319,0.34,3.664,0.229,4.49" style="fill:none;stroke:#000000;stroke-width:0.3;"/>
  <path d="M18.261-45.007c-0.385,1.319-0.66,3.96-0.385,4.729" style="fill:none;stroke:#000000;stroke-width:0.3;"/>
  <path d="M20.569-53.537c0.606,2.035,0.936,4.037,0.495,5.852    c-0.44,1.815-0.625,5.983-0.349,7.028" style="fill:none;stroke:#000000;stroke-width:0.3;"/>
  <path d="M23.288-52.302c0.538,2.688,0.038,5.47,0.038,4.761" style="fill:none;stroke:#000000;stroke-width:0.3;"/>
  <path d="M23.803-45.858c-0.11,1.156-0.482,2.059-0.758,3.104    c-0.275,1.045-0.165,2.75,0.11,3.519" style="fill:none;stroke:#000000;stroke-width:0.3;"/>
  <path d="M25.245-53.506c0.604,2.53,1.045,5.324,0.66,6.754    c-0.386,1.431-0.495,3.08-0.33,3.851" style="fill:none;stroke:#000000;stroke-width:0.3;"/>
  <path d="M27.665-50.452c-0.056,1.101,0.109,1.266,0.33,2.202    c0.22,0.935,0.44,1.705,0,3.3c-0.44,1.595-0.226,4.286-0.116,4.946" style="fill:none;stroke:#000000;stroke-width:0.3;"/>
  <path d="M30.135-53.13c0,0.99-0.558,2.915-0.394,3.63" style="fill:none;stroke:#000000;stroke-width:0.3;"/>
  <path d="M30.305-47.206c-0.055,1.32-0.055,1.375-0.274,2.75    c-0.221,1.375-0.056,2.64,0.109,3.189" style="fill:none;stroke:#000000;stroke-width:0.3;"/>
  <path d="M32.257-53.798c0.605,2.034,0.137,7.362-0.083,9.232" style="fill:none;stroke:#000000;stroke-width:0.3;"/>
  <path d="M34.017-44.752c-0.22,1.705-1.18,3.867-0.96,4.912    c0.22,1.045,0.385,1.484,0.385,1.484" style="fill:none;stroke:#000000;stroke-width:0.3;"/>
  <path d="M37.528-53.583c0.165,2.256,0.221,3.642-0.22,5.292    c-0.44,1.65-0.715,3.025-0.165,4.289" style="fill:none;stroke:#000000;stroke-width:0.3;"/>
  <path d="M40.356-50.387c0.165,1.209,0.33,1.347,0.109,2.501    c-0.22,1.156-0.495,1.815-0.55,2.256" style="fill:none;stroke:#000000;stroke-width:0.3;"/>
  <path d="M42.847-52.833c0.385,1.705,0.55,2.805,0.11,4.95    c-0.44,2.146-0.645,5.546-0.094,6.976" style="fill:none;stroke:#000000;stroke-width:0.3;"/>
  <path d="M45.608-53.749c0.33,1.375,0.235,4.285,0.125,5.605" style="fill:none;stroke:#000000;stroke-width:0.3;"/>
  <path d="M45.017-45.666c-0.22,1.375,0.254,5.477,0.529,6.411" style="fill:none;stroke:#000000;stroke-width:0.3;"/>
  <path d="M47.612-50.844c0.495,2.146,0.77,2.209,0.495,4.078    c-0.275,1.871-0.385,3.465-0.22,4.235" style="fill:none;stroke:#000000;stroke-width:0.3;"/>
  <path d="M50.366-53.619c0.274,1.485,0.274,2.894,0.274,3.828" style="fill:none;stroke:#000000;stroke-width:0.3;"/>
  <path d="M50.695-47.096c-0.22,1.32-1.111,4.447-0.066,6.592" style="fill:none;stroke:#000000;stroke-width:0.3;"/>
  <path d="M52.626-53.169c0.33,1.814,0.22,4.589,0,6.129    c-0.22,1.54-0.44,3.3,0.165,4.784" style="fill:none;stroke:#000000;stroke-width:0.3;"/>
  <path d="M2.298-10.418c0.385,1.705,0.494,2.805,0.329,3.905" style="fill:none;stroke:#000000;stroke-width:0.3;"/>
  <path d="M1.957-5.028c-0.44,1.375-1.193,3.749-0.809,4.684" style="fill:none;stroke:#000000;stroke-width:0.3;"/>
  <path d="M4.648-9.153c0.221,1.595-0.164,2.584-0.439,3.959    C3.934-3.819,3.769-1.69,4.154-0.589" style="fill:none;stroke:#000000;stroke-width:0.3;"/>
  <path d="M7.22-12.285C7.44-11.13,6.755-3.925,6.204-2.22" style="fill:none;stroke:#000000;stroke-width:0.3;"/>
  <path d="M9.277-8.232c0.055,1.54-0.094,1.213-0.385,2.53    c-0.37,1.674-0.654,3.934-0.598,5.674" style="fill:none;stroke:#000000;stroke-width:0.3;"/>
  <path d="M14.494-9.153c0.109,1.925,0.33,2.365-0.33,4.07    c-0.66,1.705-0.825,1.919-0.55,3.073" style="fill:none;stroke:#000000;stroke-width:0.3;"/>
  <path d="M16.39-11.293c0.33,0.99,1.104,3.075,0.994,4.01" style="fill:none;stroke:#000000;stroke-width:0.3;"/>
  <path d="M16.413-5.743c-0.385,0.99-1.052,3.398-0.941,4.993" style="fill:none;stroke:#000000;stroke-width:0.3;"/>
  <path d="M18.929-9.319c0.495,2.035,0.623,2.89,0,4.346    c-0.509,1.189-0.429,3.522-0.44,4.958" style="fill:none;stroke:#000000;stroke-width:0.3;"/>
  <path d="M23.46-11.022c0.495,2.035,0.7,4.289,0.205,5.554    C23.17-4.204,22.873-1.7,23.148-0.491" style="fill:none;stroke:#000000;stroke-width:0.3;"/>
  <path d="M26.099-7.281c-0.11,0.935-1.125,4.528-0.906,5.243" style="fill:none;stroke:#000000;stroke-width:0.3;"/>
  <path d="M27.89-11.646c0.494,1.76,0.398,3.903-0.069,5.253    c-0.426,1.23-0.574,4.432-0.578,6.365" style="fill:none;stroke:#000000;stroke-width:0.3;"/>
  <path d="M32.065-9.538c0.495,1.594,0.495,2.529,0.055,4.18    c-0.439,1.65-0.715,2.075-0.385,3.175" style="fill:none;stroke:#000000;stroke-width:0.3;"/>
  <path d="M34.983-10.955c0.22,1.045-0.255,2.596-0.31,3.311" style="fill:none;stroke:#000000;stroke-width:0.3;"/>
  <path d="M34.883-6.264c-0.385,1.1-1.243,4.286-1.078,5.056" style="fill:none;stroke:#000000;stroke-width:0.3;"/>
  <path d="M36.559-9.428c0.439,2.365,0.494,3.355-0.165,4.785    c-0.66,1.43-0.88,3.245-0.495,4.345" style="fill:none;stroke:#000000;stroke-width:0.3;"/>
  <path d="M41.797-9.854c0.769,2.035,0.452,2.928-0.564,4.772    c-0.625,1.133-0.833,3.43-0.823,5.055" style="fill:none;stroke:#000000;stroke-width:0.3;"/>
  <path d="M43.106-12.21c0.72,0.72,1.159,4.047,1.048,4.596" style="fill:none;stroke:#000000;stroke-width:0.3;"/>
  <path d="M43.446-5.554c0,1.375-0.73,3.957-1.06,5.056" style="fill:none;stroke:#000000;stroke-width:0.3;"/>
  <path d="M46.05-10.116c0.165,1.045-0.362,0.742,0.078,2.392    c0.441,1.65,0.11,2.365-0.33,3.52c-0.44,1.155-0.129,2.143-0.075,2.804" style="fill:none;stroke:#000000;stroke-width:0.3;"/>
  <path d="M8.294-54.111c0.042,1.271,0.19,1.932,0.548,2.344" style="fill:none;stroke:#000000;stroke-width:0.3;"/>
  <path d="M18.488-54.098c-0.004,0.57-0.023,0.955-0.099,1.115" style="fill:none;stroke:#000000;stroke-width:0.3;"/>
  <path d="M27.244-54.11c-0.002,0.857,0.024,1.902,0.068,1.969" style="fill:none;stroke:#000000;stroke-width:0.3;"/>
  <path d="M40.411-54.11c0.005,0.892,0.077,2.044,0.182,2.216" style="fill:none;stroke:#000000;stroke-width:0.3;"/>
  <path d="M48.319-54.11c-0.006,0.471,0.005,1.474,0.04,1.619" style="fill:none;stroke:#000000;stroke-width:0.3;"/>
  <path d="M48.548-9.428c0.275,1.1,0.605,2.641,0.275,3.905    c-0.255,0.976-0.483,3.907-0.504,5.495" style="fill:none;stroke:#000000;stroke-width:0.3;"/>
  <path d="M53.554-9.758c0.109,1.266,0.165,1.596-0.165,2.915    c-0.33,1.32-0.657,4.639-0.272,5.903" style="fill:none;stroke:#000000;stroke-width:0.3;"/>
  <path d="M35.138-22.673c0.167,2,0.667,2.333,0.333,4.833    c-0.333,2.5-0.666,3.667-0.333,4.667" style="fill:none;stroke:#000000;stroke-width:0.3;"/>
  <path d="M38.142-42.552c-0.055,1.485,0.22,3.748,0.495,4.462" style="fill:none;stroke:#000000;stroke-width:0.3;"/>
  <path d="M39.141-10.824c0.274,1.375,0.55,2.091-0.11,4.125    c-0.501,1.548-1.179,3.53-0.635,5.079" style="fill:none;stroke:#000000;stroke-width:0.3;"/>
  <path d="M42.749-23.055c0.274,1.375,0.55,2.091-0.11,4.125    c-0.66,2.035-0.55,3.63-0.165,4.73" style="fill:none;stroke:#000000;stroke-width:0.3;"/>
  <path d="M30.347-10.705c0.274,1.375,0.292,2.706-0.368,4.74    c-0.66,2.035-0.933,4.003-0.548,5.103" style="fill:none;stroke:#000000;stroke-width:0.3;"/>
  <path d="M20.951-9.92c0.274,1.375,0.698,2.226,0.038,4.26    c-0.66,2.035-0.711,3.038-0.326,4.137" style="fill:none;stroke:#000000;stroke-width:0.3;"/>
  <path d="M12.616-12.038c0.274,1.375-0.384,3.978-1.044,6.012    c-0.66,2.035-0.622,4.491-0.237,5.59" style="fill:none;stroke:#000000;stroke-width:0.3;"/>
  <path d="M50.892-11.228c0.274,1.375,1.029,3.29,0.369,5.324    c-0.66,2.035-0.55,3.12-0.165,4.22" style="fill:none;stroke:#000000;stroke-width:0.3;"/>
  <rect height="54.125" width="54.125" y="-54.125" style="fill:none;"/>
 </g>
</svg>
