<?xml version="1.0"?>
<!-- Converted with SVG Converter - Version 0.9.5 (Compiled Fri Feb 21 09:53:38 2020) - Copyright (C) 2011 Nokia -->
<svg xmlns="http://www.w3.org/2000/svg" x="0px" y="0px" xml:space="preserve" width="54.125" baseProfile="tiny" viewBox="0.028 -54.125 54.125 54.125" version="1.1" height="54.125" xmlns:xlink="http://www.w3.org/1999/xlink">
 <g>
  <rect x="0.028" y="-54.125" style="fill:none;" width="54.125" height="54.125"/>
  <line y1="-40.174" y2="-40.174" style="fill:none;stroke:#000000;stroke-width:0.5;" x1="2.276" x2="10.121"/>
  <line y1="-40.174" y2="-40.174" style="fill:none;stroke:#000000;stroke-width:0.5;" x1="13.483" x2="21.328"/>
  <line y1="-40.174" y2="-40.174" style="fill:none;stroke:#000000;stroke-width:0.5;" x1="24.62" x2="32.465"/>
  <line y1="-40.174" y2="-40.174" style="fill:none;stroke:#000000;stroke-width:0.5;" x1="35.608" x2="43.453"/>
  <line y1="-40.174" y2="-40.174" style="fill:none;stroke:#000000;stroke-width:0.5;" x1="46.418" x2="54.125"/>
  <line y1="-24.664" y2="-24.664" style="fill:none;stroke:#000000;stroke-width:0.5;" x1="0.016" x2="5.336"/>
  <line y1="-24.664" y2="-24.664" style="fill:none;stroke:#000000;stroke-width:0.5;" x1="8.698" x2="16.544"/>
  <line y1="-24.664" y2="-24.664" style="fill:none;stroke:#000000;stroke-width:0.5;" x1="19.835" x2="27.681"/>
  <line y1="-24.664" y2="-24.664" style="fill:none;stroke:#000000;stroke-width:0.5;" x1="30.823" x2="38.668"/>
  <line y1="-24.664" y2="-24.664" style="fill:none;stroke:#000000;stroke-width:0.5;" x1="41.634" x2="49.479"/>
  <line y1="-11.464" y2="-11.464" style="fill:none;stroke:#000000;stroke-width:0.5;" x1="0" x2="1.211"/>
  <line y1="-11.464" y2="-11.464" style="fill:none;stroke:#000000;stroke-width:0.5;" x1="4.573" x2="12.418"/>
  <line y1="-11.464" y2="-11.464" style="fill:none;stroke:#000000;stroke-width:0.5;" x1="15.71" x2="23.556"/>
  <line y1="-11.464" y2="-11.464" style="fill:none;stroke:#000000;stroke-width:0.5;" x1="26.698" x2="34.543"/>
  <line y1="-11.464" y2="-11.464" style="fill:none;stroke:#000000;stroke-width:0.5;" x1="37.509" x2="45.354"/>
  <line y1="-24.664" y2="-24.664" style="fill:none;stroke:#000000;stroke-width:0.5;" x1="52.437" x2="54.155"/>
  <line y1="-11.464" y2="-11.464" style="fill:none;stroke:#000000;stroke-width:0.5;" x1="48.312" x2="54.156"/>
  <path style="fill:none;stroke:#000000;stroke-width:0.3;" d="M52.701-38.964c0.221,0.99,0.33,2.86,0.11,4.62"/>
  <path style="fill:none;stroke:#000000;stroke-width:0.3;" d="M52.592-32.254c-0.33,1.65-0.22,4.73,0.109,5.61"/>
  <path style="fill:none;stroke:#000000;stroke-width:0.3;" d="M50.502-37.534c0.22,1.87,0.22,2.53-0.221,4.51    c-0.439,1.98-0.439,2.86,0,4.29"/>
  <path style="fill:none;stroke:#000000;stroke-width:0.3;" d="M47.642-38.964c0.439,1.54,0.66,2.31,0.22,4.4"/>
  <path style="fill:none;stroke:#000000;stroke-width:0.3;" d="M47.807-32.254c-0.055,1.155-0.22,0.715-0.33,1.98    c-0.11,1.265-0.275,2.915,0.495,4.235"/>
  <path style="fill:none;stroke:#000000;stroke-width:0.3;" d="M44.562-38.139c0.44,1.76,0.33,3.08-0.22,5.225    c-0.55,2.146-0.715,4.456,0.22,5.94"/>
  <path style="fill:none;stroke:#000000;stroke-width:0.3;" d="M40.877-39.734c0.604,1.54,0.88,3.41,0.824,4.51"/>
  <path style="fill:none;stroke:#000000;stroke-width:0.3;" d="M41.592-33.299c-0.33,2.255-1.54,5.445,0.109,7.26"/>
  <path style="fill:none;stroke:#000000;stroke-width:0.3;" d="M38.292-39.294c0.22,1.155,0.329,1.705,0.329,2.145"/>
  <path style="fill:none;stroke:#000000;stroke-width:0.3;" d="M38.677-34.674c0.109,1.595,0,2.475-0.33,3.905    c-0.33,1.43-0.66,3.96-0.055,5.06"/>
  <path style="fill:none;stroke:#000000;stroke-width:0.3;" d="M35.871-39.294c0.33,2.145,0.44,4.345,0,6.71"/>
  <path style="fill:none;stroke:#000000;stroke-width:0.3;" d="M35.432-30.549c-0.33,1.32-0.33,3.905,0.165,4.675"/>
  <path style="fill:none;stroke:#000000;stroke-width:0.3;" d="M33.396-36.159c0.22,1.925,0.055,3.3-0.55,5.115    c-0.605,1.816-0.715,4.125-0.165,5.39"/>
  <path style="fill:none;stroke:#000000;stroke-width:0.3;" d="M30.316-39.074c0.275,1.595,0.495,4.125,0,6.105"/>
  <path style="fill:none;stroke:#000000;stroke-width:0.3;" d="M29.656-30.384c-0.33,1.54-0.165,4.07,0.275,4.785"/>
  <path style="fill:none;stroke:#000000;stroke-width:0.3;" d="M27.731-37.039c0.165,2.42,0.275,3.3-0.22,5.28    s-0.551,3.465-0.386,4.4"/>
  <path style="fill:none;stroke:#000000;stroke-width:0.3;" d="M24.981-38.964c0.441,1.705,0.495,3.245,0.275,4.455"/>
  <path style="fill:none;stroke:#000000;stroke-width:0.3;" d="M24.981-32.309c-0.11,1.045-0.055,0.605-0.275,1.87    c-0.22,1.265-0.33,3.575,0.275,4.73"/>
  <path style="fill:none;stroke:#000000;stroke-width:0.3;" d="M22.577-36.709c0.274,2.585,0,4.015-0.221,5.885    c-0.22,1.87-0.22,4.07,0.165,4.95"/>
  <path style="fill:none;stroke:#000000;stroke-width:0.3;" d="M19.452-39.129c0.604,1.87,0.88,3.135,0.825,4.565"/>
  <path style="fill:none;stroke:#000000;stroke-width:0.3;" d="M19.672-31.814c-0.33,1.54-0.55,4.51,0.385,6.05"/>
  <path style="fill:none;stroke:#000000;stroke-width:0.3;" d="M16.882-38.579c0.606,2.695,0.936,3.905,0.551,5.83    c-0.386,1.925-0.44,1.76-0.44,2.31"/>
  <path style="fill:none;stroke:#000000;stroke-width:0.3;" d="M16.717-28.294c0.221,0.825,0.771,2.09,0.825,2.695"/>
  <path style="fill:none;stroke:#000000;stroke-width:0.3;" d="M14.646-37.644c0.44,2.255,0.551,3.63,0.11,5.61    c-0.441,1.98-0.385,4.345,0.33,6.105"/>
  <path style="fill:none;stroke:#000000;stroke-width:0.3;" d="M11.777-38.964c0.495,1.65,0.66,2.695,0.606,3.795"/>
  <path style="fill:none;stroke:#000000;stroke-width:0.3;" d="M11.997-31.759c-0.495,1.925-1.265,4.07,0,6.105"/>
  <path style="fill:none;stroke:#000000;stroke-width:0.3;" d="M9.418-38.359c0.329,2.255,0.494,3.355,0.109,5.005    c-0.385,1.65-0.33,1.595-0.33,2.2"/>
  <path style="fill:none;stroke:#000000;stroke-width:0.3;" d="M6.487-39.074c0.439,1.375,0.55,1.98,0.55,1.98"/>
  <path style="fill:none;stroke:#000000;stroke-width:0.3;" d="M7.312-34.509c-0.275,1.76-0.495,2.585-0.825,3.795    c-0.33,1.21-0.825,3.575,0,4.95"/>
  <path style="fill:none;stroke:#000000;stroke-width:0.3;" d="M4.443-38.359c0.275,1.815,0.55,2.97,0.221,4.565    c-0.33,1.595-0.221,2.035-0.275,2.365"/>
  <path style="fill:none;stroke:#000000;stroke-width:0.3;" d="M4.004-29.504c-0.275,1.045-0.386,2.255-0.11,3.025    c0.275,0.77,0.44,1.32,0.44,1.32"/>
  <path style="fill:none;stroke:#000000;stroke-width:0.3;" d="M1.851-36.929c0.439,1.54,0.77,4.235,0.274,5.995    c-0.495,1.76-0.825,4.07-0.11,5.5"/>
  <path style="fill:none;stroke:#000000;stroke-width:0.3;" d="M8.812-28.624c0.055,1.1,0.44,2.365,0.935,3.08"/>
  <path style="fill:none;stroke:#000000;stroke-width:0.3;" d="M1.441-22.024c0.439,2.2,0.605,2.86,0.055,4.785    s-0.769,3.3-0.274,4.785"/>
  <path style="fill:none;stroke:#000000;stroke-width:0.3;" d="M3.477-23.674c0.439,1.155,0.88,2.64,0.77,3.74    c-0.109,1.1-0.385,1.705-0.33,1.87"/>
  <path style="fill:none;stroke:#000000;stroke-width:0.3;" d="M3.586-16.579c-0.439,1.32-0.494,3.025,0.11,4.235"/>
  <path style="fill:none;stroke:#000000;stroke-width:0.3;" d="M6.227-22.299c0.274,1.375,0.55,2.09-0.11,4.125    c-0.66,2.035-0.55,3.63-0.165,4.73"/>
  <path style="fill:none;stroke:#000000;stroke-width:0.3;" d="M8.921-23.179c0.33,1.375,0.605,2.915,0.33,4.29"/>
  <path style="fill:none;stroke:#000000;stroke-width:0.3;" d="M8.866-17.514c-0.495,1.375-0.715,3.575-0.33,4.675"/>
  <path style="fill:none;stroke:#000000;stroke-width:0.3;" d="M11.506-20.429c0.056,1.155,0.11,1.32-0.329,3.135    c-0.44,1.816-0.551,3.85,0.055,5.005"/>
  <path style="fill:none;stroke:#000000;stroke-width:0.3;" d="M14.092-22.684c0.33,1.54,0.604,2.805,0.055,4.565    c-0.55,1.76-0.99,3.355,0.055,5.28"/>
  <path style="fill:none;stroke:#000000;stroke-width:0.3;" d="M16.842-23.784c0.385,1.595,0.604,2.31,0.274,3.52    c-0.33,1.21-0.604,1.76-0.715,2.365"/>
  <path style="fill:none;stroke:#000000;stroke-width:0.3;" d="M16.126-16.139c0,1.155,0.056,2.97,0.44,3.74"/>
  <path style="fill:none;stroke:#000000;stroke-width:0.3;" d="M18.932-22.849c0.495,2.09,1.045,3.025,0.33,4.785    c-0.715,1.76-1.155,3.08-0.935,4.345"/>
  <path style="fill:none;stroke:#000000;stroke-width:0.3;" d="M21.021-23.894c0.604,1.32,0.935,3.41,0.825,4.235"/>
  <path style="fill:none;stroke:#000000;stroke-width:0.3;" d="M21.461-17.239c-0.385,1.32-0.659,3.96-0.385,4.73"/>
  <path style="fill:none;stroke:#000000;stroke-width:0.3;" d="M23.057-22.849c0.604,2.035,0.935,2.805,0.495,4.62    c-0.441,1.815-0.88,3.74-0.605,4.785"/>
  <path style="fill:none;stroke:#000000;stroke-width:0.3;" d="M25.366-23.619c0.22,1.1,0.33,2.42,0.33,3.08"/>
  <path style="fill:none;stroke:#000000;stroke-width:0.3;" d="M25.696-18.174c-0.11,1.155-0.055,0.99-0.33,2.035    c-0.274,1.045-0.165,2.75,0.11,3.52"/>
  <path style="fill:none;stroke:#000000;stroke-width:0.3;" d="M27.731-22.354c0.604,2.53,1.045,3.795,0.66,5.225    c-0.385,1.43-0.495,3.08-0.33,3.85"/>
  <path style="fill:none;stroke:#000000;stroke-width:0.3;" d="M30.151-22.079c-0.055,1.1,0.11,1.705,0.33,2.64    c0.22,0.935,0.441,1.705,0,3.3c-0.44,1.595-0.275,2.585-0.165,3.245"/>
  <path style="fill:none;stroke:#000000;stroke-width:0.3;" d="M32.863-23.674c0,0.99,0.221,2.915,0.385,3.63"/>
  <path style="fill:none;stroke:#000000;stroke-width:0.3;" d="M33.358-18.394c-0.055,1.32-0.055,1.375-0.274,2.75    c-0.221,1.375-0.056,2.64,0.109,3.19"/>
  <path style="fill:none;stroke:#000000;stroke-width:0.3;" d="M37.712-24.004c0.495,1.705,0.55,2.475,0.385,4.125"/>
  <path style="fill:none;stroke:#000000;stroke-width:0.3;" d="M37.767-17.899c-0.22,1.705-0.55,3.245-0.329,4.29    c0.22,1.045,0.385,1.485,0.385,1.485"/>
  <path style="fill:none;stroke:#000000;stroke-width:0.3;" d="M40.412-22.629c0.165,2.255,0.22,2.31-0.22,3.96    c-0.44,1.65-0.715,3.025-0.165,4.29"/>
  <path style="fill:none;stroke:#000000;stroke-width:0.3;" d="M42-16.359c-0.055,1.485,0.221,3.025,0.495,3.74"/>
  <path style="fill:none;stroke:#000000;stroke-width:0.3;" d="M42.99-23.729c0.165,1.21,0.33,1.815,0.11,2.97    c-0.221,1.155-0.495,1.815-0.55,2.255"/>
  <path style="fill:none;stroke:#000000;stroke-width:0.3;" d="M45.028-23.179c0.386,1.705,0.551,2.805,0.11,4.95    c-0.44,2.145-0.22,3.85,0.33,5.28"/>
  <path style="fill:none;stroke:#000000;stroke-width:0.3;" d="M47.614-23.674c0.329,1.375,0.494,2.31,0.385,3.63"/>
  <path style="fill:none;stroke:#000000;stroke-width:0.3;" d="M47.504-16.854c-0.22,1.375-0.22,2.53,0.055,3.465"/>
  <path style="fill:none;stroke:#000000;stroke-width:0.3;" d="M49.872-22.684c0.495,2.145,0.771,2.86,0.495,4.73    c-0.275,1.87-0.385,3.465-0.22,4.235"/>
  <path style="fill:none;stroke:#000000;stroke-width:0.3;" d="M52.569-23.674c0.274,1.485,0.274,1.76,0.274,2.695"/>
  <path style="fill:none;stroke:#000000;stroke-width:0.3;" d="M52.898-18.284c-0.22,1.32-1.319,3.465-0.274,5.61"/>
  <line y1="-53.476" y2="-53.476" style="fill:none;stroke:#000000;stroke-width:0.5;" x1="0.016" x2="2.878"/>
  <line y1="-53.476" y2="-53.476" style="fill:none;stroke:#000000;stroke-width:0.5;" x1="6.24" x2="14.085"/>
  <line y1="-53.476" y2="-53.476" style="fill:none;stroke:#000000;stroke-width:0.5;" x1="17.377" x2="25.222"/>
  <line y1="-53.476" y2="-53.476" style="fill:none;stroke:#000000;stroke-width:0.5;" x1="28.365" x2="36.21"/>
  <line y1="-53.476" y2="-53.476" style="fill:none;stroke:#000000;stroke-width:0.5;" x1="39.175" x2="47.021"/>
  <line y1="-53.476" y2="-53.476" style="fill:none;stroke:#000000;stroke-width:0.5;" x1="49.979" x2="54.141"/>
  <path style="fill:none;stroke:#000000;stroke-width:0.3;" d="M1.018-52.486c0.44,1.155,0.881,2.64,0.77,3.74    c-0.11,1.1-0.385,1.705-0.33,1.87"/>
  <path style="fill:none;stroke:#000000;stroke-width:0.3;" d="M1.128-45.391c-0.44,1.32-0.495,3.025,0.11,4.235"/>
  <path style="fill:none;stroke:#000000;stroke-width:0.3;" d="M3.768-51.111c0.275,1.375,0.551,2.09-0.109,4.125    c-0.66,2.035-0.55,3.63-0.165,4.73"/>
  <path style="fill:none;stroke:#000000;stroke-width:0.3;" d="M6.463-51.991c0.33,1.375,0.605,2.915,0.33,4.29"/>
  <path style="fill:none;stroke:#000000;stroke-width:0.3;" d="M6.408-46.326c-0.495,1.375-0.715,3.575-0.33,4.675"/>
  <path style="fill:none;stroke:#000000;stroke-width:0.3;" d="M9.048-49.241c0.055,1.155,0.11,1.32-0.33,3.135    c-0.439,1.815-0.55,3.85,0.056,5.005"/>
  <path style="fill:none;stroke:#000000;stroke-width:0.3;" d="M11.633-51.496c0.33,1.54,0.606,2.805,0.056,4.565    c-0.551,1.76-0.99,3.355,0.055,5.28"/>
  <path style="fill:none;stroke:#000000;stroke-width:0.3;" d="M14.383-52.596c0.385,1.595,0.606,2.31,0.275,3.52    c-0.33,1.21-0.606,1.76-0.715,2.365"/>
  <path style="fill:none;stroke:#000000;stroke-width:0.3;" d="M13.668-44.951c0,1.155,0.055,2.97,0.44,3.74"/>
  <path style="fill:none;stroke:#000000;stroke-width:0.3;" d="M16.473-51.661c0.495,2.09,1.046,3.025,0.33,4.785    c-0.715,1.76-1.154,3.08-0.934,4.345"/>
  <path style="fill:none;stroke:#000000;stroke-width:0.3;" d="M18.563-52.706c0.604,1.32,0.934,3.41,0.824,4.235"/>
  <path style="fill:none;stroke:#000000;stroke-width:0.3;" d="M19.003-46.051c-0.385,1.32-0.66,3.96-0.385,4.73"/>
  <path style="fill:none;stroke:#000000;stroke-width:0.3;" d="M20.598-51.661c0.605,2.035,0.935,2.805,0.495,4.62    c-0.44,1.815-0.88,3.74-0.604,4.785"/>
  <path style="fill:none;stroke:#000000;stroke-width:0.3;" d="M22.908-52.431c0.22,1.1,0.33,2.42,0.33,3.08"/>
  <path style="fill:none;stroke:#000000;stroke-width:0.3;" d="M23.238-46.986c-0.11,1.155-0.055,0.99-0.33,2.035    c-0.275,1.045-0.165,2.75,0.11,3.52"/>
  <path style="fill:none;stroke:#000000;stroke-width:0.3;" d="M25.273-51.166c0.604,2.53,1.045,3.795,0.66,5.225    c-0.386,1.43-0.495,3.08-0.33,3.85"/>
  <path style="fill:none;stroke:#000000;stroke-width:0.3;" d="M27.693-50.891c-0.056,1.1,0.109,1.705,0.33,2.64    c0.22,0.935,0.44,1.705,0,3.3c-0.44,1.595-0.275,2.585-0.165,3.245"/>
  <path style="fill:none;stroke:#000000;stroke-width:0.3;" d="M29.838-52.486c0,0.99,0.221,2.915,0.385,3.63"/>
  <path style="fill:none;stroke:#000000;stroke-width:0.3;" d="M30.333-47.206c-0.055,1.32-0.055,1.375-0.274,2.75    c-0.221,1.375-0.056,2.64,0.109,3.19"/>
  <path style="fill:none;stroke:#000000;stroke-width:0.3;" d="M31.708-50.121c0.605,2.035,0.715,3.685,0.495,5.555"/>
  <path style="fill:none;stroke:#000000;stroke-width:0.3;" d="M34.403-52.816c0.495,1.705,0.55,2.475,0.385,4.125"/>
  <path style="fill:none;stroke:#000000;stroke-width:0.3;" d="M34.458-46.711c-0.22,1.705-0.55,3.245-0.33,4.29    c0.22,1.045,0.385,1.485,0.385,1.485"/>
  <path style="fill:none;stroke:#000000;stroke-width:0.3;" d="M37.557-51.441c0.165,2.255,0.221,2.31-0.22,3.96    c-0.44,1.65-0.715,3.025-0.165,4.29"/>
  <path style="fill:none;stroke:#000000;stroke-width:0.3;" d="M39.372-45.171c-0.055,1.485,0.22,3.025,0.495,3.74"/>
  <path style="fill:none;stroke:#000000;stroke-width:0.3;" d="M40.362-52.541c0.165,1.21,0.33,1.815,0.109,2.97    c-0.22,1.155-0.495,1.815-0.55,2.255"/>
  <path style="fill:none;stroke:#000000;stroke-width:0.3;" d="M42.514-51.991c0.385,1.705,0.55,2.805,0.11,4.95    c-0.44,2.145-0.221,3.85,0.33,5.28"/>
  <path style="fill:none;stroke:#000000;stroke-width:0.3;" d="M45.155-52.486c0.33,1.375,0.495,2.31,0.385,3.63"/>
  <path style="fill:none;stroke:#000000;stroke-width:0.3;" d="M45.045-45.666c-0.22,1.375-0.22,2.53,0.056,3.465"/>
  <path style="fill:none;stroke:#000000;stroke-width:0.3;" d="M47.641-51.496c0.495,2.145,0.77,2.86,0.495,4.73    c-0.275,1.87-0.385,3.465-0.22,4.235"/>
  <path style="fill:none;stroke:#000000;stroke-width:0.3;" d="M50.395-52.486c0.274,1.485,0.274,1.76,0.274,2.695"/>
  <path style="fill:none;stroke:#000000;stroke-width:0.3;" d="M50.724-47.096c-0.22,1.32-1.319,3.465-0.274,5.61"/>
  <path style="fill:none;stroke:#000000;stroke-width:0.3;" d="M52.654-51.386c0.33,1.815,0.22,2.805,0,4.345    c-0.22,1.54-0.44,3.3,0.165,4.785"/>
  <path style="fill:none;stroke:#000000;stroke-width:0.3;" d="M2.143-10.418c0.385,1.705,0.494,2.805,0.329,3.905"/>
  <path style="fill:none;stroke:#000000;stroke-width:0.3;" d="M2.254-5.029c-0.44,1.375-0.825,3.905-0.44,4.84"/>
  <path style="fill:none;stroke:#000000;stroke-width:0.3;" d="M4.677-9.154c0.221,1.595-0.164,2.585-0.439,3.96    s-0.44,3.135-0.055,4.235"/>
  <path style="fill:none;stroke:#000000;stroke-width:0.3;" d="M7.159-10.089c0.22,1.155,0.11,2.31-0.44,4.015"/>
  <path style="fill:none;stroke:#000000;stroke-width:0.3;" d="M6.334-4.369c-0.11,1.21-0.22,2.365,0.055,3.245"/>
  <path style="fill:none;stroke:#000000;stroke-width:0.3;" d="M9.306-8.232c0.055,1.54-0.109,1.21-0.385,2.53    c-0.275,1.32-0.33,3.905,0.11,4.84"/>
  <path style="fill:none;stroke:#000000;stroke-width:0.3;" d="M11.666-10.529c0.33,1.21,0.715,1.925,0.274,3.63"/>
  <path style="fill:none;stroke:#000000;stroke-width:0.3;" d="M11.501-5.358c-0.221,0.88-0.579,2.916-0.524,3.852"/>
  <path style="fill:none;stroke:#000000;stroke-width:0.3;" d="M14.523-9.154c0.109,1.925,0.33,2.365-0.33,4.07    c-0.66,1.705-0.825,3.08-0.55,4.235"/>
  <path style="fill:none;stroke:#000000;stroke-width:0.3;" d="M16.435-9.869c0.33,0.99,0.605,1.65,0.495,2.585"/>
  <path style="fill:none;stroke:#000000;stroke-width:0.3;" d="M16.71-5.744c-0.385,0.99-1.187,2.808-1.076,4.403"/>
  <path style="fill:none;stroke:#000000;stroke-width:0.3;" d="M18.957-9.319c0.495,2.035,0.55,2.86,0,4.345    c-0.55,1.485-0.66,2.86-0.33,4.29"/>
  <path style="fill:none;stroke:#000000;stroke-width:0.3;" d="M20.822-10.199c0.439,1.54,0.659,2.475,0.604,3.19"/>
  <path style="fill:none;stroke:#000000;stroke-width:0.3;" d="M21.151-4.589c-0.165,1.375-0.252,2.753-0.472,3.249"/>
  <path style="fill:none;stroke:#000000;stroke-width:0.3;" d="M23.528-9.759c0.495,2.035,0.66,3.025,0.165,4.29    c-0.495,1.265-0.715,3.135-0.439,4.345"/>
  <path style="fill:none;stroke:#000000;stroke-width:0.3;" d="M25.502-9.979c0.385,1.21,0.44,2.365,0.33,3.3"/>
  <path style="fill:none;stroke:#000000;stroke-width:0.3;" d="M25.282-4.094c-0.11,0.935-0.275,1.87-0.056,2.585"/>
  <path style="fill:none;stroke:#000000;stroke-width:0.3;" d="M28.07-10.574c0.494,1.76,0.165,2.805-0.221,4.18    c-0.385,1.375-0.604,4.565-0.22,5.72"/>
  <path style="fill:none;stroke:#000000;stroke-width:0.3;" d="M30.172-10.034c0.33,0.715,0.44,1.98,0.275,2.86"/>
  <path style="fill:none;stroke:#000000;stroke-width:0.3;" d="M29.668-4.091c-0.275,0.935-0.55,2.31-0.33,3.135"/>
  <path style="fill:none;stroke:#000000;stroke-width:0.3;" d="M32.094-9.539c0.495,1.595,0.495,2.53,0.055,4.18    c-0.439,1.65-0.715,3.519-0.385,4.62"/>
  <path style="fill:none;stroke:#000000;stroke-width:0.3;" d="M34.057-9.704c0.22,1.045,0.44,1.87,0.385,2.585"/>
  <path style="fill:none;stroke:#000000;stroke-width:0.3;" d="M34.057-4.974c-0.385,1.1-0.389,3.363-0.224,4.133"/>
  <path style="fill:none;stroke:#000000;stroke-width:0.3;" d="M36.587-9.429c0.44,2.365,0.494,3.355-0.165,4.785    c-0.66,1.43-0.88,3.245-0.495,4.345"/>
  <path style="fill:none;stroke:#000000;stroke-width:0.3;" d="M38.842-9.979c0.66,1.32,0.715,1.925,0.55,2.585"/>
  <path style="fill:none;stroke:#000000;stroke-width:0.3;" d="M38.566-4.699c-0.33,0.88-0.439,2.2-0.274,2.97"/>
  <path style="fill:none;stroke:#000000;stroke-width:0.3;" d="M41.262-9.704c0.77,2.035,0.715,2.64,0,4.62    c-0.715,1.98-1.155,3.63-0.88,4.73"/>
  <path style="fill:none;stroke:#000000;stroke-width:0.3;" d="M43.571-10.144c0.221,0.825,0.495,1.98,0.385,2.53"/>
  <path style="fill:none;stroke:#000000;stroke-width:0.3;" d="M43.475-5.144c0,1.375-0.479,3.203-0.809,4.303"/>
  <path style="fill:none;stroke:#000000;stroke-width:0.3;" d="M45.552-10.089c0.165,1.045,0.165,0.715,0.604,2.365    c0.44,1.65,0.11,2.365-0.33,3.52c-0.439,1.155-0.439,1.925-0.385,2.585"/>
  <path style="fill:none;stroke:#000000;stroke-width:0.3;" d="M48.576-9.429c0.275,1.1,0.605,2.64,0.275,3.905    c-0.33,1.265-0.88,3.63-0.715,4.785"/>
  <path style="fill:none;stroke:#000000;stroke-width:0.3;" d="M51.326-10.253c0.221,0.715,0.386,1.705,0.386,2.309"/>
  <path style="fill:none;stroke:#000000;stroke-width:0.3;" d="M51.491-6.293c-0.22,0.99-0.439,1.045-0.55,2.145    c-0.109,1.1-0.052,2.813,0.058,3.308"/>
  <path style="fill:none;stroke:#000000;stroke-width:0.3;" d="M53.582-9.759c0.109,1.265,0.165,1.595-0.165,2.915    c-0.33,1.32-0.495,4.565-0.11,5.83"/>
  <path style="fill:none;stroke:#000000;stroke-width:0.3;" d="M35.166-22.674c0.167,2,0.667,2.333,0.333,4.833    c-0.333,2.5-0.666,3.667-0.333,4.667"/>
 </g>
</svg>
