<?xml version="1.0" encoding="UTF-8" standalone="no"?>
<!-- Created with Inkscape (http://www.inkscape.org/) -->

<svg
   xmlns:dc="http://purl.org/dc/elements/1.1/"
   xmlns:cc="http://creativecommons.org/ns#"
   xmlns:rdf="http://www.w3.org/1999/02/22-rdf-syntax-ns#"
   xmlns:svg="http://www.w3.org/2000/svg"
   xmlns="http://www.w3.org/2000/svg"
   xmlns:sodipodi="http://sodipodi.sourceforge.net/DTD/sodipodi-0.dtd"
   xmlns:inkscape="http://www.inkscape.org/namespaces/inkscape"
   width="2.5mm"
   height="2.5mm"
   viewBox="0 0 2.5 2.5"
   version="1.1"
   id="svg22510"
   inkscape:version="0.92.2 (5c3e80d, 2017-08-06)"
   sodipodi:docname="18.70 breccia pipe.svg">
  <defs
     id="defs22504" />
  <sodipodi:namedview
     id="base"
     pagecolor="#ffffff"
     bordercolor="#666666"
     borderopacity="1.0"
     inkscape:pageopacity="0.0"
     inkscape:pageshadow="2"
     inkscape:zoom="38.965866"
     inkscape:cx="8.5639007"
     inkscape:cy="3.2129341"
     inkscape:document-units="mm"
     inkscape:current-layer="layer1"
     showgrid="false"
     showguides="true"
     inkscape:guide-bbox="true"
     inkscape:window-width="1920"
     inkscape:window-height="1018"
     inkscape:window-x="-8"
     inkscape:window-y="-8"
     inkscape:window-maximized="1" />
  <metadata
     id="metadata22507">
    <rdf:RDF>
      <cc:Work
         rdf:about="">
        <dc:format>image/svg+xml</dc:format>
        <dc:type
           rdf:resource="http://purl.org/dc/dcmitype/StillImage" />
        <dc:title></dc:title>
      </cc:Work>
    </rdf:RDF>
  </metadata>
  <g
     inkscape:label="Layer 1"
     inkscape:groupmode="layer"
     id="layer1"
     transform="translate(5.9914036,-147.0446)">
    <path
       inkscape:connector-curvature="0"
       id="path10755"
       d="m -5.3037621,149.5446 c 0.3789609,0 0.6862621,-0.30868 0.6862621,-0.68764 0,-0.38034 -0.3073012,-0.68902 -0.6862621,-0.68902 -0.3803368,0 -0.6876415,0.30868 -0.6876415,0.68902 0,0.37896 0.3073047,0.68764 0.6876415,0.68764"
       style="fill:#eb172b;fill-opacity:1;fill-rule:nonzero;stroke:none;stroke-width:0.35277775" />
    <g
       id="use10757"
       style="fill:#eb172b;fill-opacity:1"
       transform="matrix(0.22843522,0,0,0.23345698,-4.4825852,148.22921)">
      <path
         inkscape:connector-curvature="0"
         id="path22522"
         d="m 1.203125,-4.4375 h 1.21875 c 0.765625,0 1.046875,0.265625 1.046875,0.734375 0,0.609375 -0.390625,0.8125 -1.046875,0.8125 H 1.203125 Z M 0.515625,0 H 2.6875 c 1.109375,0 1.703125,-0.671875 1.703125,-1.484375 0,-0.859375 -0.578125,-1.09375 -0.90625,-1.21875 C 4.03125,-2.96875 4.15625,-3.4375 4.15625,-3.765625 4.15625,-4.4375 3.671875,-5.03125 2.734375,-5.03125 h -2.21875 z m 0.6875,-2.34375 H 2.53125 c 0.5625,0 1.171875,0.140625 1.171875,0.84375 0,0.5625 -0.34375,0.921875 -1.0625,0.921875 h -1.4375 z m 0,0"
         style="stroke:none" />
    </g>
  </g>
</svg>
