<?xml version="1.0" encoding="UTF-8" standalone="no"?>
<!-- Created with Inkscape (http://www.inkscape.org/) -->

<svg
   xmlns:dc="http://purl.org/dc/elements/1.1/"
   xmlns:cc="http://creativecommons.org/ns#"
   xmlns:rdf="http://www.w3.org/1999/02/22-rdf-syntax-ns#"
   xmlns:svg="http://www.w3.org/2000/svg"
   xmlns="http://www.w3.org/2000/svg"
   xmlns:sodipodi="http://sodipodi.sourceforge.net/DTD/sodipodi-0.dtd"
   xmlns:inkscape="http://www.inkscape.org/namespaces/inkscape"
   width="2.5mm"
   height="2.5mm"
   viewBox="0 0 2.4999999 2.5"
   version="1.1"
   id="svg22544"
   inkscape:version="0.92.2 (5c3e80d, 2017-08-06)"
   sodipodi:docname="18.71 collapse.svg">
  <defs
     id="defs22538" />
  <sodipodi:namedview
     id="base"
     pagecolor="#ffffff"
     bordercolor="#666666"
     borderopacity="1.0"
     inkscape:pageopacity="0.0"
     inkscape:pageshadow="2"
     inkscape:zoom="35.08552"
     inkscape:cx="6.5311004"
     inkscape:cy="5.1255066"
     inkscape:document-units="mm"
     inkscape:current-layer="layer1"
     showgrid="false"
     inkscape:window-width="1920"
     inkscape:window-height="1018"
     inkscape:window-x="-8"
     inkscape:window-y="-8"
     inkscape:window-maximized="1" />
  <metadata
     id="metadata22541">
    <rdf:RDF>
      <cc:Work
         rdf:about="">
        <dc:format>image/svg+xml</dc:format>
        <dc:type
           rdf:resource="http://purl.org/dc/dcmitype/StillImage" />
        <dc:title></dc:title>
      </cc:Work>
    </rdf:RDF>
  </metadata>
  <g
     inkscape:label="Layer 1"
     inkscape:groupmode="layer"
     id="layer1"
     transform="translate(5.982546,-147.12326)">
    <path
       inkscape:connector-curvature="0"
       id="path10761"
       d="m -5.1933045,149.52166 c 0.3789609,0 0.6876414,-0.30868 0.6876414,-0.68901 0,-0.37897 -0.3086805,-0.68765 -0.6876414,-0.68765 -0.3803368,0 -0.6876415,0.30868 -0.6876415,0.68765 0,0.38033 0.3073047,0.68901 0.6876415,0.68901 z m 0,0"
       style="fill:none;stroke:#eb172b;stroke-width:0.20319998;stroke-linecap:butt;stroke-linejoin:miter;stroke-miterlimit:4;stroke-opacity:1" />
    <g
       id="use10763"
       style="fill:#eb172b;fill-opacity:1"
       transform="matrix(0.22881428,0,0,0.21577629,-4.5657642,148.23253)">
      <path
         inkscape:connector-curvature="0"
         id="path22556"
         d="M 4.71875,-3.515625 C 4.625,-4.359375 3.953125,-5.15625 2.65625,-5.15625 c -1.46875,0 -2.34375,1.0625 -2.34375,2.609375 0,1.9375 1.109375,2.6875 2.25,2.6875 0.390625,0 1.921875,-0.09375 2.203125,-1.984375 h -0.65625 c -0.234375,1.171875 -1,1.375 -1.4375,1.375 -1.25,0 -1.65625,-0.90625 -1.65625,-2.09375 0,-1.328125 0.734375,-2 1.640625,-2 0.484375,0 1.21875,0.171875 1.40625,1.046875 z m 0,0"
         style="stroke:none" />
    </g>
  </g>
</svg>
