<?xml version="1.0"?>
<!-- Converted with SVG Converter - Version 0.9.5 (Compiled Fri Feb 21 09:53:38 2020) - Copyright (C) 2011 Nokia -->
<svg xmlns="http://www.w3.org/2000/svg" width="79.25" viewBox="0 -79.334 79.25 79.25" baseProfile="tiny" xmlns:xlink="http://www.w3.org/1999/xlink" x="0px" y="0px" xml:space="preserve" version="1.1" height="79.25">
 <g>
  <rect width="79.25" y="-79.334" style="fill:none;" height="79.25"/>
  <line x1="14.252" x2="15.125" y2="-15.006" y1="-13.222" style="fill-rule:evenodd;clip-rule:evenodd;fill:none;stroke:#00AEEF;stroke-width:0.9;"/>
  <line x1="8.03" x2="10.008" y2="-12.072" y1="-11.883" style="fill-rule:evenodd;clip-rule:evenodd;fill:none;stroke:#00AEEF;stroke-width:0.9;"/>
  <line x1="3.384" x2="4.769" y2="-13.701" y1="-12.277" style="fill-rule:evenodd;clip-rule:evenodd;fill:none;stroke:#00AEEF;stroke-width:0.9;"/>
  <line x1="13.002" x2="12.558" y2="-7.119" y1="-9.055" style="fill-rule:evenodd;clip-rule:evenodd;fill:none;stroke:#00AEEF;stroke-width:0.9;"/>
  <line x1="7.833" x2="5.914" y2="-8.654" y1="-8.143" style="fill-rule:evenodd;clip-rule:evenodd;fill:none;stroke:#00AEEF;stroke-width:0.9;"/>
  <line x1="1.494" x2="0.749" y2="-11.599" y1="-9.757" style="fill-rule:evenodd;clip-rule:evenodd;fill:none;stroke:#00AEEF;stroke-width:0.9;"/>
  <line x1="3.463" x2="1.663" y2="-5.452" y1="-6.292" style="fill-rule:evenodd;clip-rule:evenodd;fill:none;stroke:#00AEEF;stroke-width:0.9;"/>
  <line x1="9.133" x2="7.436" y2="-3.094" y1="-4.127" style="fill-rule:evenodd;clip-rule:evenodd;fill:none;stroke:#00AEEF;stroke-width:0.9;"/>
  <line x1="14.797" x2="13.067" y2="-3.685" y1="-2.71" style="fill-rule:evenodd;clip-rule:evenodd;fill:none;stroke:#00AEEF;stroke-width:0.9;"/>
  <line x1="10.781" x2="10.598" y2="-0.083" y1="-1.056" style="fill-rule:evenodd;clip-rule:evenodd;fill:none;stroke:#00AEEF;stroke-width:0.9;"/>
  <line x1="3.629" x2="2.671" y2="-2.972" y1="-1.232" style="fill-rule:evenodd;clip-rule:evenodd;fill:none;stroke:#00AEEF;stroke-width:0.9;"/>
  <line x1="10.668" x2="10.402" y2="-14.935" y1="-16.333" style="fill-rule:evenodd;clip-rule:evenodd;fill:none;stroke:#00AEEF;stroke-width:0.9;"/>
  <line x1="30.09" x2="30.964" y2="-15.006" y1="-13.222" style="fill-rule:evenodd;clip-rule:evenodd;fill:none;stroke:#00AEEF;stroke-width:0.9;"/>
  <line x1="23.869" x2="25.847" y2="-12.072" y1="-11.883" style="fill-rule:evenodd;clip-rule:evenodd;fill:none;stroke:#00AEEF;stroke-width:0.9;"/>
  <line x1="19.223" x2="20.608" y2="-13.701" y1="-12.277" style="fill-rule:evenodd;clip-rule:evenodd;fill:none;stroke:#00AEEF;stroke-width:0.9;"/>
  <line x1="28.841" x2="28.397" y2="-7.119" y1="-9.055" style="fill-rule:evenodd;clip-rule:evenodd;fill:none;stroke:#00AEEF;stroke-width:0.9;"/>
  <line x1="23.672" x2="21.753" y2="-8.654" y1="-8.143" style="fill-rule:evenodd;clip-rule:evenodd;fill:none;stroke:#00AEEF;stroke-width:0.9;"/>
  <line x1="17.333" x2="16.589" y2="-11.599" y1="-9.757" style="fill-rule:evenodd;clip-rule:evenodd;fill:none;stroke:#00AEEF;stroke-width:0.9;"/>
  <line x1="19.302" x2="17.502" y2="-5.452" y1="-6.292" style="fill-rule:evenodd;clip-rule:evenodd;fill:none;stroke:#00AEEF;stroke-width:0.9;"/>
  <line x1="24.972" x2="23.275" y2="-3.094" y1="-4.127" style="fill-rule:evenodd;clip-rule:evenodd;fill:none;stroke:#00AEEF;stroke-width:0.9;"/>
  <line x1="30.636" x2="28.906" y2="-3.685" y1="-2.71" style="fill-rule:evenodd;clip-rule:evenodd;fill:none;stroke:#00AEEF;stroke-width:0.9;"/>
  <line x1="26.691" x2="26.508" y2="-0.083" y1="-1.056" style="fill-rule:evenodd;clip-rule:evenodd;fill:none;stroke:#00AEEF;stroke-width:0.9;"/>
  <line x1="19.469" x2="18.51" y2="-2.972" y1="-1.232" style="fill-rule:evenodd;clip-rule:evenodd;fill:none;stroke:#00AEEF;stroke-width:0.9;"/>
  <line x1="26.507" x2="26.241" y2="-14.935" y1="-16.333" style="fill-rule:evenodd;clip-rule:evenodd;fill:none;stroke:#00AEEF;stroke-width:0.9;"/>
  <line x1="45.929" x2="46.803" y2="-15.006" y1="-13.222" style="fill-rule:evenodd;clip-rule:evenodd;fill:none;stroke:#00AEEF;stroke-width:0.9;"/>
  <line x1="39.708" x2="41.686" y2="-12.072" y1="-11.883" style="fill-rule:evenodd;clip-rule:evenodd;fill:none;stroke:#00AEEF;stroke-width:0.9;"/>
  <line x1="35.062" x2="36.447" y2="-13.701" y1="-12.277" style="fill-rule:evenodd;clip-rule:evenodd;fill:none;stroke:#00AEEF;stroke-width:0.9;"/>
  <line x1="44.68" x2="44.236" y2="-7.119" y1="-9.055" style="fill-rule:evenodd;clip-rule:evenodd;fill:none;stroke:#00AEEF;stroke-width:0.9;"/>
  <line x1="39.511" x2="37.592" y2="-8.654" y1="-8.143" style="fill-rule:evenodd;clip-rule:evenodd;fill:none;stroke:#00AEEF;stroke-width:0.9;"/>
  <line x1="33.172" x2="32.428" y2="-11.599" y1="-9.757" style="fill-rule:evenodd;clip-rule:evenodd;fill:none;stroke:#00AEEF;stroke-width:0.9;"/>
  <line x1="35.141" x2="33.341" y2="-5.452" y1="-6.292" style="fill-rule:evenodd;clip-rule:evenodd;fill:none;stroke:#00AEEF;stroke-width:0.9;"/>
  <line x1="40.811" x2="39.114" y2="-3.094" y1="-4.127" style="fill-rule:evenodd;clip-rule:evenodd;fill:none;stroke:#00AEEF;stroke-width:0.9;"/>
  <line x1="46.475" x2="44.745" y2="-3.685" y1="-2.71" style="fill-rule:evenodd;clip-rule:evenodd;fill:none;stroke:#00AEEF;stroke-width:0.9;"/>
  <line x1="42.459" x2="42.275" y2="-0.083" y1="-1.056" style="fill-rule:evenodd;clip-rule:evenodd;fill:none;stroke:#00AEEF;stroke-width:0.9;"/>
  <line x1="35.308" x2="34.349" y2="-2.972" y1="-1.232" style="fill-rule:evenodd;clip-rule:evenodd;fill:none;stroke:#00AEEF;stroke-width:0.9;"/>
  <line x1="42.346" x2="42.08" y2="-14.935" y1="-16.333" style="fill-rule:evenodd;clip-rule:evenodd;fill:none;stroke:#00AEEF;stroke-width:0.9;"/>
  <line x1="61.769" x2="62.642" y2="-15.006" y1="-13.222" style="fill-rule:evenodd;clip-rule:evenodd;fill:none;stroke:#00AEEF;stroke-width:0.9;"/>
  <line x1="55.547" x2="57.524" y2="-12.072" y1="-11.883" style="fill-rule:evenodd;clip-rule:evenodd;fill:none;stroke:#00AEEF;stroke-width:0.9;"/>
  <line x1="50.901" x2="52.286" y2="-13.701" y1="-12.277" style="fill-rule:evenodd;clip-rule:evenodd;fill:none;stroke:#00AEEF;stroke-width:0.9;"/>
  <line x1="60.519" x2="60.075" y2="-7.119" y1="-9.055" style="fill-rule:evenodd;clip-rule:evenodd;fill:none;stroke:#00AEEF;stroke-width:0.9;"/>
  <line x1="55.35" x2="53.431" y2="-8.654" y1="-8.143" style="fill-rule:evenodd;clip-rule:evenodd;fill:none;stroke:#00AEEF;stroke-width:0.9;"/>
  <line x1="49.011" x2="48.267" y2="-11.599" y1="-9.757" style="fill-rule:evenodd;clip-rule:evenodd;fill:none;stroke:#00AEEF;stroke-width:0.9;"/>
  <line x1="50.979" x2="49.18" y2="-5.452" y1="-6.292" style="fill-rule:evenodd;clip-rule:evenodd;fill:none;stroke:#00AEEF;stroke-width:0.9;"/>
  <line x1="56.65" x2="54.953" y2="-3.094" y1="-4.127" style="fill-rule:evenodd;clip-rule:evenodd;fill:none;stroke:#00AEEF;stroke-width:0.9;"/>
  <line x1="62.314" x2="60.583" y2="-3.685" y1="-2.71" style="fill-rule:evenodd;clip-rule:evenodd;fill:none;stroke:#00AEEF;stroke-width:0.9;"/>
  <line x1="58.298" x2="58.114" y2="-0.083" y1="-1.056" style="fill-rule:evenodd;clip-rule:evenodd;fill:none;stroke:#00AEEF;stroke-width:0.9;"/>
  <line x1="51.146" x2="50.188" y2="-2.972" y1="-1.232" style="fill-rule:evenodd;clip-rule:evenodd;fill:none;stroke:#00AEEF;stroke-width:0.9;"/>
  <line x1="58.186" x2="57.919" y2="-14.935" y1="-16.333" style="fill-rule:evenodd;clip-rule:evenodd;fill:none;stroke:#00AEEF;stroke-width:0.9;"/>
  <line x1="77.607" x2="78.481" y2="-15.006" y1="-13.222" style="fill-rule:evenodd;clip-rule:evenodd;fill:none;stroke:#00AEEF;stroke-width:0.9;"/>
  <line x1="71.386" x2="73.364" y2="-12.072" y1="-11.883" style="fill-rule:evenodd;clip-rule:evenodd;fill:none;stroke:#00AEEF;stroke-width:0.9;"/>
  <line x1="66.74" x2="68.124" y2="-13.701" y1="-12.277" style="fill-rule:evenodd;clip-rule:evenodd;fill:none;stroke:#00AEEF;stroke-width:0.9;"/>
  <line x1="76.358" x2="75.914" y2="-7.119" y1="-9.055" style="fill-rule:evenodd;clip-rule:evenodd;fill:none;stroke:#00AEEF;stroke-width:0.9;"/>
  <line x1="71.189" x2="69.27" y2="-8.654" y1="-8.143" style="fill-rule:evenodd;clip-rule:evenodd;fill:none;stroke:#00AEEF;stroke-width:0.9;"/>
  <line x1="64.85" x2="64.105" y2="-11.599" y1="-9.757" style="fill-rule:evenodd;clip-rule:evenodd;fill:none;stroke:#00AEEF;stroke-width:0.9;"/>
  <line x1="66.819" x2="65.019" y2="-5.452" y1="-6.292" style="fill-rule:evenodd;clip-rule:evenodd;fill:none;stroke:#00AEEF;stroke-width:0.9;"/>
  <line x1="72.489" x2="70.792" y2="-3.094" y1="-4.127" style="fill-rule:evenodd;clip-rule:evenodd;fill:none;stroke:#00AEEF;stroke-width:0.9;"/>
  <line x1="78.153" x2="76.423" y2="-3.685" y1="-2.71" style="fill-rule:evenodd;clip-rule:evenodd;fill:none;stroke:#00AEEF;stroke-width:0.9;"/>
  <line x1="74.137" x2="73.954" y2="-0.083" y1="-1.056" style="fill-rule:evenodd;clip-rule:evenodd;fill:none;stroke:#00AEEF;stroke-width:0.9;"/>
  <line x1="66.985" x2="66.027" y2="-2.972" y1="-1.232" style="fill-rule:evenodd;clip-rule:evenodd;fill:none;stroke:#00AEEF;stroke-width:0.9;"/>
  <line x1="74.024" x2="73.758" y2="-14.935" y1="-16.333" style="fill-rule:evenodd;clip-rule:evenodd;fill:none;stroke:#00AEEF;stroke-width:0.9;"/>
  <line x1="14.252" x2="15.125" y2="-30.845" y1="-29.061" style="fill-rule:evenodd;clip-rule:evenodd;fill:none;stroke:#00AEEF;stroke-width:0.9;"/>
  <line x1="8.03" x2="10.008" y2="-27.911" y1="-27.722" style="fill-rule:evenodd;clip-rule:evenodd;fill:none;stroke:#00AEEF;stroke-width:0.9;"/>
  <line x1="3.384" x2="4.769" y2="-29.541" y1="-28.116" style="fill-rule:evenodd;clip-rule:evenodd;fill:none;stroke:#00AEEF;stroke-width:0.9;"/>
  <line x1="12.558" x2="13.002" y2="-24.894" y1="-22.958" style="fill-rule:evenodd;clip-rule:evenodd;fill:none;stroke:#00AEEF;stroke-width:0.9;"/>
  <line x1="7.833" x2="5.914" y2="-24.494" y1="-23.982" style="fill-rule:evenodd;clip-rule:evenodd;fill:none;stroke:#00AEEF;stroke-width:0.9;"/>
  <line x1="1.494" x2="0.749" y2="-27.438" y1="-25.596" style="fill-rule:evenodd;clip-rule:evenodd;fill:none;stroke:#00AEEF;stroke-width:0.9;"/>
  <line x1="3.463" x2="1.663" y2="-21.291" y1="-22.131" style="fill-rule:evenodd;clip-rule:evenodd;fill:none;stroke:#00AEEF;stroke-width:0.9;"/>
  <line x1="9.133" x2="7.436" y2="-18.933" y1="-19.965" style="fill-rule:evenodd;clip-rule:evenodd;fill:none;stroke:#00AEEF;stroke-width:0.9;"/>
  <line x1="14.797" x2="13.067" y2="-19.523" y1="-18.549" style="fill-rule:evenodd;clip-rule:evenodd;fill:none;stroke:#00AEEF;stroke-width:0.9;"/>
  <line x1="10.55" x2="10.781" y2="-16.895" y1="-15.674" style="fill-rule:evenodd;clip-rule:evenodd;fill:none;stroke:#00AEEF;stroke-width:0.9;"/>
  <line x1="2.671" x2="3.629" y2="-17.071" y1="-18.811" style="fill-rule:evenodd;clip-rule:evenodd;fill:none;stroke:#00AEEF;stroke-width:0.9;"/>
  <line x1="10.668" x2="10.402" y2="-30.774" y1="-32.171" style="fill-rule:evenodd;clip-rule:evenodd;fill:none;stroke:#00AEEF;stroke-width:0.9;"/>
  <line x1="30.09" x2="30.964" y2="-30.845" y1="-29.061" style="fill-rule:evenodd;clip-rule:evenodd;fill:none;stroke:#00AEEF;stroke-width:0.9;"/>
  <line x1="23.869" x2="25.847" y2="-27.911" y1="-27.722" style="fill-rule:evenodd;clip-rule:evenodd;fill:none;stroke:#00AEEF;stroke-width:0.9;"/>
  <line x1="19.223" x2="20.608" y2="-29.541" y1="-28.116" style="fill-rule:evenodd;clip-rule:evenodd;fill:none;stroke:#00AEEF;stroke-width:0.9;"/>
  <line x1="28.397" x2="28.841" y2="-24.894" y1="-22.958" style="fill-rule:evenodd;clip-rule:evenodd;fill:none;stroke:#00AEEF;stroke-width:0.9;"/>
  <line x1="23.672" x2="21.753" y2="-24.494" y1="-23.982" style="fill-rule:evenodd;clip-rule:evenodd;fill:none;stroke:#00AEEF;stroke-width:0.9;"/>
  <line x1="17.333" x2="16.589" y2="-27.438" y1="-25.596" style="fill-rule:evenodd;clip-rule:evenodd;fill:none;stroke:#00AEEF;stroke-width:0.9;"/>
  <line x1="19.302" x2="17.502" y2="-21.291" y1="-22.131" style="fill-rule:evenodd;clip-rule:evenodd;fill:none;stroke:#00AEEF;stroke-width:0.9;"/>
  <line x1="24.972" x2="23.275" y2="-18.933" y1="-19.965" style="fill-rule:evenodd;clip-rule:evenodd;fill:none;stroke:#00AEEF;stroke-width:0.9;"/>
  <line x1="30.636" x2="28.906" y2="-19.523" y1="-18.549" style="fill-rule:evenodd;clip-rule:evenodd;fill:none;stroke:#00AEEF;stroke-width:0.9;"/>
  <line x1="26.39" x2="26.62" y2="-16.895" y1="-15.674" style="fill-rule:evenodd;clip-rule:evenodd;fill:none;stroke:#00AEEF;stroke-width:0.9;"/>
  <line x1="18.51" x2="19.469" y2="-17.071" y1="-18.811" style="fill-rule:evenodd;clip-rule:evenodd;fill:none;stroke:#00AEEF;stroke-width:0.9;"/>
  <line x1="26.507" x2="26.241" y2="-30.774" y1="-32.171" style="fill-rule:evenodd;clip-rule:evenodd;fill:none;stroke:#00AEEF;stroke-width:0.9;"/>
  <line x1="45.929" x2="46.803" y2="-30.845" y1="-29.061" style="fill-rule:evenodd;clip-rule:evenodd;fill:none;stroke:#00AEEF;stroke-width:0.9;"/>
  <line x1="39.708" x2="41.686" y2="-27.911" y1="-27.722" style="fill-rule:evenodd;clip-rule:evenodd;fill:none;stroke:#00AEEF;stroke-width:0.9;"/>
  <line x1="35.062" x2="36.447" y2="-29.541" y1="-28.116" style="fill-rule:evenodd;clip-rule:evenodd;fill:none;stroke:#00AEEF;stroke-width:0.9;"/>
  <line x1="44.236" x2="44.68" y2="-24.894" y1="-22.958" style="fill-rule:evenodd;clip-rule:evenodd;fill:none;stroke:#00AEEF;stroke-width:0.9;"/>
  <line x1="39.511" x2="37.592" y2="-24.494" y1="-23.982" style="fill-rule:evenodd;clip-rule:evenodd;fill:none;stroke:#00AEEF;stroke-width:0.9;"/>
  <line x1="33.172" x2="32.428" y2="-27.438" y1="-25.596" style="fill-rule:evenodd;clip-rule:evenodd;fill:none;stroke:#00AEEF;stroke-width:0.9;"/>
  <line x1="35.141" x2="33.341" y2="-21.291" y1="-22.131" style="fill-rule:evenodd;clip-rule:evenodd;fill:none;stroke:#00AEEF;stroke-width:0.9;"/>
  <line x1="40.811" x2="39.114" y2="-18.933" y1="-19.965" style="fill-rule:evenodd;clip-rule:evenodd;fill:none;stroke:#00AEEF;stroke-width:0.9;"/>
  <line x1="46.475" x2="44.745" y2="-19.523" y1="-18.549" style="fill-rule:evenodd;clip-rule:evenodd;fill:none;stroke:#00AEEF;stroke-width:0.9;"/>
  <line x1="42.229" x2="42.459" y2="-16.895" y1="-15.674" style="fill-rule:evenodd;clip-rule:evenodd;fill:none;stroke:#00AEEF;stroke-width:0.9;"/>
  <line x1="34.349" x2="35.308" y2="-17.071" y1="-18.811" style="fill-rule:evenodd;clip-rule:evenodd;fill:none;stroke:#00AEEF;stroke-width:0.9;"/>
  <line x1="42.346" x2="42.08" y2="-30.774" y1="-32.171" style="fill-rule:evenodd;clip-rule:evenodd;fill:none;stroke:#00AEEF;stroke-width:0.9;"/>
  <line x1="61.769" x2="62.642" y2="-30.845" y1="-29.061" style="fill-rule:evenodd;clip-rule:evenodd;fill:none;stroke:#00AEEF;stroke-width:0.9;"/>
  <line x1="55.547" x2="57.524" y2="-27.911" y1="-27.722" style="fill-rule:evenodd;clip-rule:evenodd;fill:none;stroke:#00AEEF;stroke-width:0.9;"/>
  <line x1="50.901" x2="52.286" y2="-29.541" y1="-28.116" style="fill-rule:evenodd;clip-rule:evenodd;fill:none;stroke:#00AEEF;stroke-width:0.9;"/>
  <line x1="60.075" x2="60.519" y2="-24.894" y1="-22.958" style="fill-rule:evenodd;clip-rule:evenodd;fill:none;stroke:#00AEEF;stroke-width:0.9;"/>
  <line x1="55.35" x2="53.431" y2="-24.494" y1="-23.982" style="fill-rule:evenodd;clip-rule:evenodd;fill:none;stroke:#00AEEF;stroke-width:0.9;"/>
  <line x1="49.011" x2="48.267" y2="-27.438" y1="-25.596" style="fill-rule:evenodd;clip-rule:evenodd;fill:none;stroke:#00AEEF;stroke-width:0.9;"/>
  <line x1="50.979" x2="49.18" y2="-21.291" y1="-22.131" style="fill-rule:evenodd;clip-rule:evenodd;fill:none;stroke:#00AEEF;stroke-width:0.9;"/>
  <line x1="56.65" x2="54.953" y2="-18.933" y1="-19.965" style="fill-rule:evenodd;clip-rule:evenodd;fill:none;stroke:#00AEEF;stroke-width:0.9;"/>
  <line x1="62.314" x2="60.583" y2="-19.523" y1="-18.549" style="fill-rule:evenodd;clip-rule:evenodd;fill:none;stroke:#00AEEF;stroke-width:0.9;"/>
  <line x1="58.067" x2="58.298" y2="-16.895" y1="-15.674" style="fill-rule:evenodd;clip-rule:evenodd;fill:none;stroke:#00AEEF;stroke-width:0.9;"/>
  <line x1="50.188" x2="51.146" y2="-17.071" y1="-18.811" style="fill-rule:evenodd;clip-rule:evenodd;fill:none;stroke:#00AEEF;stroke-width:0.9;"/>
  <line x1="58.186" x2="57.919" y2="-30.774" y1="-32.171" style="fill-rule:evenodd;clip-rule:evenodd;fill:none;stroke:#00AEEF;stroke-width:0.9;"/>
  <line x1="77.607" x2="78.481" y2="-30.845" y1="-29.061" style="fill-rule:evenodd;clip-rule:evenodd;fill:none;stroke:#00AEEF;stroke-width:0.9;"/>
  <line x1="71.386" x2="73.364" y2="-27.911" y1="-27.722" style="fill-rule:evenodd;clip-rule:evenodd;fill:none;stroke:#00AEEF;stroke-width:0.9;"/>
  <line x1="66.74" x2="68.124" y2="-29.541" y1="-28.116" style="fill-rule:evenodd;clip-rule:evenodd;fill:none;stroke:#00AEEF;stroke-width:0.9;"/>
  <line x1="75.914" x2="76.358" y2="-24.894" y1="-22.958" style="fill-rule:evenodd;clip-rule:evenodd;fill:none;stroke:#00AEEF;stroke-width:0.9;"/>
  <line x1="71.189" x2="69.27" y2="-24.494" y1="-23.982" style="fill-rule:evenodd;clip-rule:evenodd;fill:none;stroke:#00AEEF;stroke-width:0.9;"/>
  <line x1="64.85" x2="64.105" y2="-27.438" y1="-25.596" style="fill-rule:evenodd;clip-rule:evenodd;fill:none;stroke:#00AEEF;stroke-width:0.9;"/>
  <line x1="66.819" x2="65.019" y2="-21.291" y1="-22.131" style="fill-rule:evenodd;clip-rule:evenodd;fill:none;stroke:#00AEEF;stroke-width:0.9;"/>
  <line x1="72.489" x2="70.792" y2="-18.933" y1="-19.965" style="fill-rule:evenodd;clip-rule:evenodd;fill:none;stroke:#00AEEF;stroke-width:0.9;"/>
  <line x1="78.153" x2="76.423" y2="-19.523" y1="-18.549" style="fill-rule:evenodd;clip-rule:evenodd;fill:none;stroke:#00AEEF;stroke-width:0.9;"/>
  <line x1="73.906" x2="74.137" y2="-16.895" y1="-15.674" style="fill-rule:evenodd;clip-rule:evenodd;fill:none;stroke:#00AEEF;stroke-width:0.9;"/>
  <line x1="66.027" x2="66.985" y2="-17.071" y1="-18.811" style="fill-rule:evenodd;clip-rule:evenodd;fill:none;stroke:#00AEEF;stroke-width:0.9;"/>
  <line x1="74.024" x2="73.758" y2="-30.774" y1="-32.171" style="fill-rule:evenodd;clip-rule:evenodd;fill:none;stroke:#00AEEF;stroke-width:0.9;"/>
  <line x1="14.252" x2="15.125" y2="-46.684" y1="-44.9" style="fill-rule:evenodd;clip-rule:evenodd;fill:none;stroke:#00AEEF;stroke-width:0.9;"/>
  <line x1="8.03" x2="10.008" y2="-43.75" y1="-43.562" style="fill-rule:evenodd;clip-rule:evenodd;fill:none;stroke:#00AEEF;stroke-width:0.9;"/>
  <line x1="3.384" x2="4.769" y2="-45.379" y1="-43.955" style="fill-rule:evenodd;clip-rule:evenodd;fill:none;stroke:#00AEEF;stroke-width:0.9;"/>
  <line x1="12.558" x2="13.002" y2="-40.733" y1="-38.797" style="fill-rule:evenodd;clip-rule:evenodd;fill:none;stroke:#00AEEF;stroke-width:0.9;"/>
  <line x1="7.833" x2="5.914" y2="-40.333" y1="-39.821" style="fill-rule:evenodd;clip-rule:evenodd;fill:none;stroke:#00AEEF;stroke-width:0.9;"/>
  <line x1="1.494" x2="0.749" y2="-43.276" y1="-41.435" style="fill:none;stroke:#00AEEF;stroke-width:0.9;"/>
  <line x1="3.463" x2="1.663" y2="-37.13" y1="-37.97" style="fill-rule:evenodd;clip-rule:evenodd;fill:none;stroke:#00AEEF;stroke-width:0.9;"/>
  <line x1="9.133" x2="7.436" y2="-34.772" y1="-35.805" style="fill-rule:evenodd;clip-rule:evenodd;fill:none;stroke:#00AEEF;stroke-width:0.9;"/>
  <line x1="14.797" x2="13.067" y2="-35.362" y1="-34.388" style="fill-rule:evenodd;clip-rule:evenodd;fill:none;stroke:#00AEEF;stroke-width:0.9;"/>
  <line x1="10.55" x2="10.781" y2="-32.734" y1="-31.513" style="fill-rule:evenodd;clip-rule:evenodd;fill:none;stroke:#00AEEF;stroke-width:0.9;"/>
  <line x1="2.671" x2="3.629" y2="-32.91" y1="-34.65" style="fill-rule:evenodd;clip-rule:evenodd;fill:none;stroke:#00AEEF;stroke-width:0.9;"/>
  <line x1="10.668" x2="10.402" y2="-46.613" y1="-48.011" style="fill-rule:evenodd;clip-rule:evenodd;fill:none;stroke:#00AEEF;stroke-width:0.9;"/>
  <line x1="30.09" x2="30.964" y2="-46.684" y1="-44.9" style="fill-rule:evenodd;clip-rule:evenodd;fill:none;stroke:#00AEEF;stroke-width:0.9;"/>
  <line x1="23.869" x2="25.847" y2="-43.75" y1="-43.562" style="fill-rule:evenodd;clip-rule:evenodd;fill:none;stroke:#00AEEF;stroke-width:0.9;"/>
  <line x1="19.223" x2="20.608" y2="-45.379" y1="-43.955" style="fill-rule:evenodd;clip-rule:evenodd;fill:none;stroke:#00AEEF;stroke-width:0.9;"/>
  <line x1="28.397" x2="28.841" y2="-40.733" y1="-38.797" style="fill-rule:evenodd;clip-rule:evenodd;fill:none;stroke:#00AEEF;stroke-width:0.9;"/>
  <line x1="23.672" x2="21.753" y2="-40.333" y1="-39.821" style="fill-rule:evenodd;clip-rule:evenodd;fill:none;stroke:#00AEEF;stroke-width:0.9;"/>
  <line x1="17.333" x2="16.589" y2="-43.276" y1="-41.435" style="fill-rule:evenodd;clip-rule:evenodd;fill:none;stroke:#00AEEF;stroke-width:0.9;"/>
  <line x1="19.302" x2="17.502" y2="-37.13" y1="-37.97" style="fill-rule:evenodd;clip-rule:evenodd;fill:none;stroke:#00AEEF;stroke-width:0.9;"/>
  <line x1="24.972" x2="23.275" y2="-34.772" y1="-35.805" style="fill-rule:evenodd;clip-rule:evenodd;fill:none;stroke:#00AEEF;stroke-width:0.9;"/>
  <line x1="30.636" x2="28.906" y2="-35.362" y1="-34.388" style="fill-rule:evenodd;clip-rule:evenodd;fill:none;stroke:#00AEEF;stroke-width:0.9;"/>
  <line x1="26.39" x2="26.62" y2="-32.734" y1="-31.513" style="fill-rule:evenodd;clip-rule:evenodd;fill:none;stroke:#00AEEF;stroke-width:0.9;"/>
  <line x1="18.51" x2="19.469" y2="-32.91" y1="-34.65" style="fill-rule:evenodd;clip-rule:evenodd;fill:none;stroke:#00AEEF;stroke-width:0.9;"/>
  <line x1="26.507" x2="26.241" y2="-46.613" y1="-48.011" style="fill-rule:evenodd;clip-rule:evenodd;fill:none;stroke:#00AEEF;stroke-width:0.9;"/>
  <line x1="45.929" x2="46.803" y2="-46.684" y1="-44.9" style="fill-rule:evenodd;clip-rule:evenodd;fill:none;stroke:#00AEEF;stroke-width:0.9;"/>
  <line x1="39.708" x2="41.686" y2="-43.75" y1="-43.562" style="fill-rule:evenodd;clip-rule:evenodd;fill:none;stroke:#00AEEF;stroke-width:0.9;"/>
  <line x1="35.062" x2="36.447" y2="-45.379" y1="-43.955" style="fill-rule:evenodd;clip-rule:evenodd;fill:none;stroke:#00AEEF;stroke-width:0.9;"/>
  <line x1="44.236" x2="44.68" y2="-40.733" y1="-38.797" style="fill-rule:evenodd;clip-rule:evenodd;fill:none;stroke:#00AEEF;stroke-width:0.9;"/>
  <line x1="39.511" x2="37.592" y2="-40.333" y1="-39.821" style="fill-rule:evenodd;clip-rule:evenodd;fill:none;stroke:#00AEEF;stroke-width:0.9;"/>
  <line x1="33.172" x2="32.428" y2="-43.276" y1="-41.435" style="fill-rule:evenodd;clip-rule:evenodd;fill:none;stroke:#00AEEF;stroke-width:0.9;"/>
  <line x1="35.141" x2="33.341" y2="-37.13" y1="-37.97" style="fill-rule:evenodd;clip-rule:evenodd;fill:none;stroke:#00AEEF;stroke-width:0.9;"/>
  <line x1="40.811" x2="39.114" y2="-34.772" y1="-35.805" style="fill-rule:evenodd;clip-rule:evenodd;fill:none;stroke:#00AEEF;stroke-width:0.9;"/>
  <line x1="46.475" x2="44.745" y2="-35.362" y1="-34.388" style="fill-rule:evenodd;clip-rule:evenodd;fill:none;stroke:#00AEEF;stroke-width:0.9;"/>
  <line x1="42.229" x2="42.459" y2="-32.734" y1="-31.513" style="fill-rule:evenodd;clip-rule:evenodd;fill:none;stroke:#00AEEF;stroke-width:0.9;"/>
  <line x1="34.349" x2="35.308" y2="-32.91" y1="-34.65" style="fill-rule:evenodd;clip-rule:evenodd;fill:none;stroke:#00AEEF;stroke-width:0.9;"/>
  <line x1="42.346" x2="42.08" y2="-46.613" y1="-48.011" style="fill-rule:evenodd;clip-rule:evenodd;fill:none;stroke:#00AEEF;stroke-width:0.9;"/>
  <line x1="61.769" x2="62.642" y2="-46.684" y1="-44.9" style="fill-rule:evenodd;clip-rule:evenodd;fill:none;stroke:#00AEEF;stroke-width:0.9;"/>
  <line x1="55.547" x2="57.524" y2="-43.75" y1="-43.562" style="fill-rule:evenodd;clip-rule:evenodd;fill:none;stroke:#00AEEF;stroke-width:0.9;"/>
  <line x1="50.901" x2="52.286" y2="-45.379" y1="-43.955" style="fill-rule:evenodd;clip-rule:evenodd;fill:none;stroke:#00AEEF;stroke-width:0.9;"/>
  <line x1="60.075" x2="60.519" y2="-40.733" y1="-38.797" style="fill-rule:evenodd;clip-rule:evenodd;fill:none;stroke:#00AEEF;stroke-width:0.9;"/>
  <line x1="55.35" x2="53.431" y2="-40.333" y1="-39.821" style="fill-rule:evenodd;clip-rule:evenodd;fill:none;stroke:#00AEEF;stroke-width:0.9;"/>
  <line x1="49.011" x2="48.267" y2="-43.276" y1="-41.435" style="fill-rule:evenodd;clip-rule:evenodd;fill:none;stroke:#00AEEF;stroke-width:0.9;"/>
  <line x1="50.979" x2="49.18" y2="-37.13" y1="-37.97" style="fill-rule:evenodd;clip-rule:evenodd;fill:none;stroke:#00AEEF;stroke-width:0.9;"/>
  <line x1="56.65" x2="54.953" y2="-34.772" y1="-35.805" style="fill-rule:evenodd;clip-rule:evenodd;fill:none;stroke:#00AEEF;stroke-width:0.9;"/>
  <line x1="62.314" x2="60.583" y2="-35.362" y1="-34.388" style="fill-rule:evenodd;clip-rule:evenodd;fill:none;stroke:#00AEEF;stroke-width:0.9;"/>
  <line x1="58.067" x2="58.298" y2="-32.734" y1="-31.513" style="fill-rule:evenodd;clip-rule:evenodd;fill:none;stroke:#00AEEF;stroke-width:0.9;"/>
  <line x1="50.188" x2="51.146" y2="-32.91" y1="-34.65" style="fill-rule:evenodd;clip-rule:evenodd;fill:none;stroke:#00AEEF;stroke-width:0.9;"/>
  <line x1="58.186" x2="57.919" y2="-46.613" y1="-48.011" style="fill-rule:evenodd;clip-rule:evenodd;fill:none;stroke:#00AEEF;stroke-width:0.9;"/>
  <line x1="77.607" x2="78.481" y2="-46.684" y1="-44.9" style="fill-rule:evenodd;clip-rule:evenodd;fill:none;stroke:#00AEEF;stroke-width:0.9;"/>
  <line x1="71.386" x2="73.364" y2="-43.75" y1="-43.562" style="fill-rule:evenodd;clip-rule:evenodd;fill:none;stroke:#00AEEF;stroke-width:0.9;"/>
  <line x1="66.74" x2="68.124" y2="-45.379" y1="-43.955" style="fill-rule:evenodd;clip-rule:evenodd;fill:none;stroke:#00AEEF;stroke-width:0.9;"/>
  <line x1="75.914" x2="76.358" y2="-40.733" y1="-38.797" style="fill-rule:evenodd;clip-rule:evenodd;fill:none;stroke:#00AEEF;stroke-width:0.9;"/>
  <line x1="71.189" x2="69.27" y2="-40.333" y1="-39.821" style="fill-rule:evenodd;clip-rule:evenodd;fill:none;stroke:#00AEEF;stroke-width:0.9;"/>
  <line x1="64.85" x2="64.105" y2="-43.276" y1="-41.435" style="fill-rule:evenodd;clip-rule:evenodd;fill:none;stroke:#00AEEF;stroke-width:0.9;"/>
  <line x1="66.819" x2="65.019" y2="-37.13" y1="-37.97" style="fill-rule:evenodd;clip-rule:evenodd;fill:none;stroke:#00AEEF;stroke-width:0.9;"/>
  <line x1="72.489" x2="70.792" y2="-34.772" y1="-35.805" style="fill-rule:evenodd;clip-rule:evenodd;fill:none;stroke:#00AEEF;stroke-width:0.9;"/>
  <line x1="78.153" x2="76.423" y2="-35.362" y1="-34.388" style="fill-rule:evenodd;clip-rule:evenodd;fill:none;stroke:#00AEEF;stroke-width:0.9;"/>
  <line x1="73.906" x2="74.137" y2="-32.734" y1="-31.513" style="fill-rule:evenodd;clip-rule:evenodd;fill:none;stroke:#00AEEF;stroke-width:0.9;"/>
  <line x1="66.027" x2="66.985" y2="-32.91" y1="-34.65" style="fill-rule:evenodd;clip-rule:evenodd;fill:none;stroke:#00AEEF;stroke-width:0.9;"/>
  <line x1="74.024" x2="73.758" y2="-46.613" y1="-48.011" style="fill-rule:evenodd;clip-rule:evenodd;fill:none;stroke:#00AEEF;stroke-width:0.9;"/>
  <line x1="14.252" x2="15.125" y2="-62.523" y1="-60.739" style="fill-rule:evenodd;clip-rule:evenodd;fill:none;stroke:#00AEEF;stroke-width:0.9;"/>
  <line x1="8.03" x2="10.008" y2="-59.589" y1="-59.4" style="fill-rule:evenodd;clip-rule:evenodd;fill:none;stroke:#00AEEF;stroke-width:0.9;"/>
  <line x1="3.384" x2="4.769" y2="-61.218" y1="-59.794" style="fill-rule:evenodd;clip-rule:evenodd;fill:none;stroke:#00AEEF;stroke-width:0.9;"/>
  <line x1="12.558" x2="13.002" y2="-56.572" y1="-54.636" style="fill-rule:evenodd;clip-rule:evenodd;fill:none;stroke:#00AEEF;stroke-width:0.9;"/>
  <line x1="7.833" x2="5.914" y2="-56.171" y1="-55.66" style="fill-rule:evenodd;clip-rule:evenodd;fill:none;stroke:#00AEEF;stroke-width:0.9;"/>
  <line x1="1.494" x2="0.749" y2="-59.116" y1="-57.274" style="fill-rule:evenodd;clip-rule:evenodd;fill:none;stroke:#00AEEF;stroke-width:0.9;"/>
  <line x1="3.463" x2="1.663" y2="-52.969" y1="-53.809" style="fill-rule:evenodd;clip-rule:evenodd;fill:none;stroke:#00AEEF;stroke-width:0.9;"/>
  <line x1="9.133" x2="7.436" y2="-50.611" y1="-51.644" style="fill-rule:evenodd;clip-rule:evenodd;fill:none;stroke:#00AEEF;stroke-width:0.9;"/>
  <line x1="14.797" x2="13.067" y2="-51.201" y1="-50.227" style="fill-rule:evenodd;clip-rule:evenodd;fill:none;stroke:#00AEEF;stroke-width:0.9;"/>
  <line x1="10.55" x2="10.781" y2="-48.573" y1="-47.352" style="fill-rule:evenodd;clip-rule:evenodd;fill:none;stroke:#00AEEF;stroke-width:0.9;"/>
  <line x1="2.671" x2="3.629" y2="-48.75" y1="-50.489" style="fill-rule:evenodd;clip-rule:evenodd;fill:none;stroke:#00AEEF;stroke-width:0.9;"/>
  <line x1="10.402" x2="10.668" y2="-63.85" y1="-62.452" style="fill-rule:evenodd;clip-rule:evenodd;fill:none;stroke:#00AEEF;stroke-width:0.9;"/>
  <line x1="30.09" x2="30.964" y2="-62.523" y1="-60.739" style="fill-rule:evenodd;clip-rule:evenodd;fill:none;stroke:#00AEEF;stroke-width:0.9;"/>
  <line x1="23.869" x2="25.847" y2="-59.589" y1="-59.4" style="fill-rule:evenodd;clip-rule:evenodd;fill:none;stroke:#00AEEF;stroke-width:0.9;"/>
  <line x1="19.223" x2="20.608" y2="-61.218" y1="-59.794" style="fill-rule:evenodd;clip-rule:evenodd;fill:none;stroke:#00AEEF;stroke-width:0.9;"/>
  <line x1="28.397" x2="28.841" y2="-56.572" y1="-54.636" style="fill-rule:evenodd;clip-rule:evenodd;fill:none;stroke:#00AEEF;stroke-width:0.9;"/>
  <line x1="23.672" x2="21.753" y2="-56.171" y1="-55.66" style="fill-rule:evenodd;clip-rule:evenodd;fill:none;stroke:#00AEEF;stroke-width:0.9;"/>
  <line x1="17.333" x2="16.589" y2="-59.116" y1="-57.274" style="fill-rule:evenodd;clip-rule:evenodd;fill:none;stroke:#00AEEF;stroke-width:0.9;"/>
  <line x1="19.302" x2="17.502" y2="-52.969" y1="-53.809" style="fill-rule:evenodd;clip-rule:evenodd;fill:none;stroke:#00AEEF;stroke-width:0.9;"/>
  <line x1="24.972" x2="23.275" y2="-50.611" y1="-51.644" style="fill-rule:evenodd;clip-rule:evenodd;fill:none;stroke:#00AEEF;stroke-width:0.9;"/>
  <line x1="30.636" x2="28.906" y2="-51.201" y1="-50.227" style="fill-rule:evenodd;clip-rule:evenodd;fill:none;stroke:#00AEEF;stroke-width:0.9;"/>
  <line x1="26.39" x2="26.62" y2="-48.573" y1="-47.352" style="fill-rule:evenodd;clip-rule:evenodd;fill:none;stroke:#00AEEF;stroke-width:0.9;"/>
  <line x1="18.51" x2="19.469" y2="-48.75" y1="-50.489" style="fill-rule:evenodd;clip-rule:evenodd;fill:none;stroke:#00AEEF;stroke-width:0.9;"/>
  <line x1="26.241" x2="26.507" y2="-63.85" y1="-62.452" style="fill-rule:evenodd;clip-rule:evenodd;fill:none;stroke:#00AEEF;stroke-width:0.9;"/>
  <line x1="45.929" x2="46.803" y2="-62.523" y1="-60.739" style="fill-rule:evenodd;clip-rule:evenodd;fill:none;stroke:#00AEEF;stroke-width:0.9;"/>
  <line x1="39.708" x2="41.686" y2="-59.589" y1="-59.4" style="fill-rule:evenodd;clip-rule:evenodd;fill:none;stroke:#00AEEF;stroke-width:0.9;"/>
  <line x1="35.062" x2="36.447" y2="-61.218" y1="-59.794" style="fill-rule:evenodd;clip-rule:evenodd;fill:none;stroke:#00AEEF;stroke-width:0.9;"/>
  <line x1="44.236" x2="44.68" y2="-56.572" y1="-54.636" style="fill-rule:evenodd;clip-rule:evenodd;fill:none;stroke:#00AEEF;stroke-width:0.9;"/>
  <line x1="39.511" x2="37.592" y2="-56.171" y1="-55.66" style="fill-rule:evenodd;clip-rule:evenodd;fill:none;stroke:#00AEEF;stroke-width:0.9;"/>
  <line x1="33.172" x2="32.428" y2="-59.116" y1="-57.274" style="fill-rule:evenodd;clip-rule:evenodd;fill:none;stroke:#00AEEF;stroke-width:0.9;"/>
  <line x1="35.141" x2="33.341" y2="-52.969" y1="-53.809" style="fill-rule:evenodd;clip-rule:evenodd;fill:none;stroke:#00AEEF;stroke-width:0.9;"/>
  <line x1="40.811" x2="39.114" y2="-50.611" y1="-51.644" style="fill-rule:evenodd;clip-rule:evenodd;fill:none;stroke:#00AEEF;stroke-width:0.9;"/>
  <line x1="46.475" x2="44.745" y2="-51.201" y1="-50.227" style="fill-rule:evenodd;clip-rule:evenodd;fill:none;stroke:#00AEEF;stroke-width:0.9;"/>
  <line x1="42.229" x2="42.459" y2="-48.573" y1="-47.352" style="fill-rule:evenodd;clip-rule:evenodd;fill:none;stroke:#00AEEF;stroke-width:0.9;"/>
  <line x1="34.349" x2="35.308" y2="-48.75" y1="-50.489" style="fill-rule:evenodd;clip-rule:evenodd;fill:none;stroke:#00AEEF;stroke-width:0.9;"/>
  <line x1="42.08" x2="42.346" y2="-63.85" y1="-62.452" style="fill-rule:evenodd;clip-rule:evenodd;fill:none;stroke:#00AEEF;stroke-width:0.9;"/>
  <line x1="61.769" x2="62.642" y2="-62.523" y1="-60.739" style="fill-rule:evenodd;clip-rule:evenodd;fill:none;stroke:#00AEEF;stroke-width:0.9;"/>
  <line x1="55.547" x2="57.524" y2="-59.589" y1="-59.4" style="fill-rule:evenodd;clip-rule:evenodd;fill:none;stroke:#00AEEF;stroke-width:0.9;"/>
  <line x1="50.901" x2="52.286" y2="-61.218" y1="-59.794" style="fill-rule:evenodd;clip-rule:evenodd;fill:none;stroke:#00AEEF;stroke-width:0.9;"/>
  <line x1="60.075" x2="60.519" y2="-56.572" y1="-54.636" style="fill-rule:evenodd;clip-rule:evenodd;fill:none;stroke:#00AEEF;stroke-width:0.9;"/>
  <line x1="55.35" x2="53.431" y2="-56.171" y1="-55.66" style="fill-rule:evenodd;clip-rule:evenodd;fill:none;stroke:#00AEEF;stroke-width:0.9;"/>
  <line x1="49.011" x2="48.267" y2="-59.116" y1="-57.274" style="fill-rule:evenodd;clip-rule:evenodd;fill:none;stroke:#00AEEF;stroke-width:0.9;"/>
  <line x1="50.979" x2="49.18" y2="-52.969" y1="-53.809" style="fill-rule:evenodd;clip-rule:evenodd;fill:none;stroke:#00AEEF;stroke-width:0.9;"/>
  <line x1="56.65" x2="54.953" y2="-50.611" y1="-51.644" style="fill-rule:evenodd;clip-rule:evenodd;fill:none;stroke:#00AEEF;stroke-width:0.9;"/>
  <line x1="62.314" x2="60.583" y2="-51.201" y1="-50.227" style="fill-rule:evenodd;clip-rule:evenodd;fill:none;stroke:#00AEEF;stroke-width:0.9;"/>
  <line x1="58.067" x2="58.298" y2="-48.573" y1="-47.352" style="fill-rule:evenodd;clip-rule:evenodd;fill:none;stroke:#00AEEF;stroke-width:0.9;"/>
  <line x1="50.188" x2="51.146" y2="-48.75" y1="-50.489" style="fill-rule:evenodd;clip-rule:evenodd;fill:none;stroke:#00AEEF;stroke-width:0.9;"/>
  <line x1="57.919" x2="58.186" y2="-63.85" y1="-62.452" style="fill-rule:evenodd;clip-rule:evenodd;fill:none;stroke:#00AEEF;stroke-width:0.9;"/>
  <line x1="77.607" x2="78.481" y2="-62.523" y1="-60.739" style="fill-rule:evenodd;clip-rule:evenodd;fill:none;stroke:#00AEEF;stroke-width:0.9;"/>
  <line x1="71.386" x2="73.364" y2="-59.589" y1="-59.4" style="fill-rule:evenodd;clip-rule:evenodd;fill:none;stroke:#00AEEF;stroke-width:0.9;"/>
  <line x1="66.74" x2="68.124" y2="-61.218" y1="-59.794" style="fill-rule:evenodd;clip-rule:evenodd;fill:none;stroke:#00AEEF;stroke-width:0.9;"/>
  <line x1="75.914" x2="76.358" y2="-56.572" y1="-54.636" style="fill-rule:evenodd;clip-rule:evenodd;fill:none;stroke:#00AEEF;stroke-width:0.9;"/>
  <line x1="71.189" x2="69.27" y2="-56.171" y1="-55.66" style="fill-rule:evenodd;clip-rule:evenodd;fill:none;stroke:#00AEEF;stroke-width:0.9;"/>
  <line x1="64.85" x2="64.105" y2="-59.116" y1="-57.274" style="fill-rule:evenodd;clip-rule:evenodd;fill:none;stroke:#00AEEF;stroke-width:0.9;"/>
  <line x1="66.819" x2="65.019" y2="-52.969" y1="-53.809" style="fill-rule:evenodd;clip-rule:evenodd;fill:none;stroke:#00AEEF;stroke-width:0.9;"/>
  <line x1="72.489" x2="70.792" y2="-50.611" y1="-51.644" style="fill-rule:evenodd;clip-rule:evenodd;fill:none;stroke:#00AEEF;stroke-width:0.9;"/>
  <line x1="78.153" x2="76.423" y2="-51.201" y1="-50.227" style="fill-rule:evenodd;clip-rule:evenodd;fill:none;stroke:#00AEEF;stroke-width:0.9;"/>
  <line x1="73.906" x2="74.137" y2="-48.573" y1="-47.352" style="fill-rule:evenodd;clip-rule:evenodd;fill:none;stroke:#00AEEF;stroke-width:0.9;"/>
  <line x1="66.027" x2="66.985" y2="-48.75" y1="-50.489" style="fill-rule:evenodd;clip-rule:evenodd;fill:none;stroke:#00AEEF;stroke-width:0.9;"/>
  <line x1="73.758" x2="74.024" y2="-63.85" y1="-62.452" style="fill-rule:evenodd;clip-rule:evenodd;fill:none;stroke:#00AEEF;stroke-width:0.9;"/>
  <line x1="14.252" x2="15.125" y2="-78.362" y1="-76.578" style="fill-rule:evenodd;clip-rule:evenodd;fill:none;stroke:#00AEEF;stroke-width:0.9;"/>
  <line x1="8.03" x2="10.008" y2="-75.428" y1="-75.239" style="fill-rule:evenodd;clip-rule:evenodd;fill:none;stroke:#00AEEF;stroke-width:0.9;"/>
  <line x1="3.384" x2="4.769" y2="-77.057" y1="-75.633" style="fill-rule:evenodd;clip-rule:evenodd;fill:none;stroke:#00AEEF;stroke-width:0.9;"/>
  <line x1="12.558" x2="13.002" y2="-72.411" y1="-70.475" style="fill-rule:evenodd;clip-rule:evenodd;fill:none;stroke:#00AEEF;stroke-width:0.9;"/>
  <line x1="5.914" x2="7.833" y2="-71.498" y1="-72.01" style="fill-rule:evenodd;clip-rule:evenodd;fill:none;stroke:#00AEEF;stroke-width:0.9;"/>
  <line x1="0.749" x2="1.494" y2="-73.113" y1="-74.955" style="fill-rule:evenodd;clip-rule:evenodd;fill:none;stroke:#00AEEF;stroke-width:0.9;"/>
  <line x1="3.463" x2="1.663" y2="-68.808" y1="-69.648" style="fill-rule:evenodd;clip-rule:evenodd;fill:none;stroke:#00AEEF;stroke-width:0.9;"/>
  <line x1="9.133" x2="7.436" y2="-66.45" y1="-67.482" style="fill-rule:evenodd;clip-rule:evenodd;fill:none;stroke:#00AEEF;stroke-width:0.9;"/>
  <line x1="14.797" x2="13.067" y2="-67.04" y1="-66.066" style="fill-rule:evenodd;clip-rule:evenodd;fill:none;stroke:#00AEEF;stroke-width:0.9;"/>
  <line x1="10.55" x2="10.781" y2="-64.412" y1="-63.191" style="fill-rule:evenodd;clip-rule:evenodd;fill:none;stroke:#00AEEF;stroke-width:0.9;"/>
  <line x1="2.671" x2="3.629" y2="-64.588" y1="-66.328" style="fill-rule:evenodd;clip-rule:evenodd;fill:none;stroke:#00AEEF;stroke-width:0.9;"/>
  <line x1="10.601" x2="10.402" y2="-78.29" y1="-79.334" style="fill-rule:evenodd;clip-rule:evenodd;fill:none;stroke:#00AEEF;stroke-width:0.9;"/>
  <line x1="30.09" x2="30.964" y2="-78.362" y1="-76.578" style="fill-rule:evenodd;clip-rule:evenodd;fill:none;stroke:#00AEEF;stroke-width:0.9;"/>
  <line x1="23.869" x2="25.847" y2="-75.428" y1="-75.239" style="fill-rule:evenodd;clip-rule:evenodd;fill:none;stroke:#00AEEF;stroke-width:0.9;"/>
  <line x1="19.223" x2="20.608" y2="-77.057" y1="-75.633" style="fill-rule:evenodd;clip-rule:evenodd;fill:none;stroke:#00AEEF;stroke-width:0.9;"/>
  <line x1="28.397" x2="28.841" y2="-72.411" y1="-70.475" style="fill-rule:evenodd;clip-rule:evenodd;fill:none;stroke:#00AEEF;stroke-width:0.9;"/>
  <line x1="21.753" x2="23.672" y2="-71.498" y1="-72.01" style="fill-rule:evenodd;clip-rule:evenodd;fill:none;stroke:#00AEEF;stroke-width:0.9;"/>
  <line x1="16.589" x2="17.333" y2="-73.113" y1="-74.955" style="fill-rule:evenodd;clip-rule:evenodd;fill:none;stroke:#00AEEF;stroke-width:0.9;"/>
  <line x1="19.302" x2="17.502" y2="-68.808" y1="-69.648" style="fill-rule:evenodd;clip-rule:evenodd;fill:none;stroke:#00AEEF;stroke-width:0.9;"/>
  <line x1="24.972" x2="23.275" y2="-66.45" y1="-67.482" style="fill-rule:evenodd;clip-rule:evenodd;fill:none;stroke:#00AEEF;stroke-width:0.9;"/>
  <line x1="30.636" x2="28.906" y2="-67.04" y1="-66.066" style="fill-rule:evenodd;clip-rule:evenodd;fill:none;stroke:#00AEEF;stroke-width:0.9;"/>
  <line x1="26.39" x2="26.62" y2="-64.412" y1="-63.191" style="fill-rule:evenodd;clip-rule:evenodd;fill:none;stroke:#00AEEF;stroke-width:0.9;"/>
  <line x1="18.51" x2="19.469" y2="-64.588" y1="-66.328" style="fill-rule:evenodd;clip-rule:evenodd;fill:none;stroke:#00AEEF;stroke-width:0.9;"/>
  <line x1="26.44" x2="26.241" y2="-78.29" y1="-79.334" style="fill-rule:evenodd;clip-rule:evenodd;fill:none;stroke:#00AEEF;stroke-width:0.9;"/>
  <line x1="45.929" x2="46.803" y2="-78.362" y1="-76.578" style="fill-rule:evenodd;clip-rule:evenodd;fill:none;stroke:#00AEEF;stroke-width:0.9;"/>
  <line x1="39.708" x2="41.686" y2="-75.428" y1="-75.239" style="fill-rule:evenodd;clip-rule:evenodd;fill:none;stroke:#00AEEF;stroke-width:0.9;"/>
  <line x1="35.062" x2="36.447" y2="-77.057" y1="-75.633" style="fill-rule:evenodd;clip-rule:evenodd;fill:none;stroke:#00AEEF;stroke-width:0.9;"/>
  <line x1="44.236" x2="44.68" y2="-72.411" y1="-70.475" style="fill-rule:evenodd;clip-rule:evenodd;fill:none;stroke:#00AEEF;stroke-width:0.9;"/>
  <line x1="37.592" x2="39.511" y2="-71.498" y1="-72.01" style="fill-rule:evenodd;clip-rule:evenodd;fill:none;stroke:#00AEEF;stroke-width:0.9;"/>
  <line x1="32.428" x2="33.172" y2="-73.113" y1="-74.955" style="fill-rule:evenodd;clip-rule:evenodd;fill:none;stroke:#00AEEF;stroke-width:0.9;"/>
  <line x1="35.141" x2="33.341" y2="-68.808" y1="-69.648" style="fill-rule:evenodd;clip-rule:evenodd;fill:none;stroke:#00AEEF;stroke-width:0.9;"/>
  <line x1="40.811" x2="39.114" y2="-66.45" y1="-67.482" style="fill-rule:evenodd;clip-rule:evenodd;fill:none;stroke:#00AEEF;stroke-width:0.9;"/>
  <line x1="46.475" x2="44.745" y2="-67.04" y1="-66.066" style="fill-rule:evenodd;clip-rule:evenodd;fill:none;stroke:#00AEEF;stroke-width:0.9;"/>
  <line x1="42.229" x2="42.459" y2="-64.412" y1="-63.191" style="fill-rule:evenodd;clip-rule:evenodd;fill:none;stroke:#00AEEF;stroke-width:0.9;"/>
  <line x1="34.349" x2="35.308" y2="-64.588" y1="-66.328" style="fill-rule:evenodd;clip-rule:evenodd;fill:none;stroke:#00AEEF;stroke-width:0.9;"/>
  <line x1="42.279" x2="42.08" y2="-78.29" y1="-79.334" style="fill-rule:evenodd;clip-rule:evenodd;fill:none;stroke:#00AEEF;stroke-width:0.9;"/>
  <line x1="61.769" x2="62.642" y2="-78.362" y1="-76.578" style="fill-rule:evenodd;clip-rule:evenodd;fill:none;stroke:#00AEEF;stroke-width:0.9;"/>
  <line x1="55.547" x2="57.524" y2="-75.428" y1="-75.239" style="fill-rule:evenodd;clip-rule:evenodd;fill:none;stroke:#00AEEF;stroke-width:0.9;"/>
  <line x1="50.901" x2="52.286" y2="-77.057" y1="-75.633" style="fill-rule:evenodd;clip-rule:evenodd;fill:none;stroke:#00AEEF;stroke-width:0.9;"/>
  <line x1="60.075" x2="60.519" y2="-72.411" y1="-70.475" style="fill-rule:evenodd;clip-rule:evenodd;fill:none;stroke:#00AEEF;stroke-width:0.9;"/>
  <line x1="53.431" x2="55.35" y2="-71.498" y1="-72.01" style="fill-rule:evenodd;clip-rule:evenodd;fill:none;stroke:#00AEEF;stroke-width:0.9;"/>
  <line x1="48.267" x2="49.011" y2="-73.113" y1="-74.955" style="fill-rule:evenodd;clip-rule:evenodd;fill:none;stroke:#00AEEF;stroke-width:0.9;"/>
  <line x1="50.979" x2="49.18" y2="-68.808" y1="-69.648" style="fill-rule:evenodd;clip-rule:evenodd;fill:none;stroke:#00AEEF;stroke-width:0.9;"/>
  <line x1="56.65" x2="54.953" y2="-66.45" y1="-67.482" style="fill-rule:evenodd;clip-rule:evenodd;fill:none;stroke:#00AEEF;stroke-width:0.9;"/>
  <line x1="62.314" x2="60.583" y2="-67.04" y1="-66.066" style="fill-rule:evenodd;clip-rule:evenodd;fill:none;stroke:#00AEEF;stroke-width:0.9;"/>
  <line x1="58.067" x2="58.298" y2="-64.412" y1="-63.191" style="fill-rule:evenodd;clip-rule:evenodd;fill:none;stroke:#00AEEF;stroke-width:0.9;"/>
  <line x1="50.188" x2="51.146" y2="-64.588" y1="-66.328" style="fill-rule:evenodd;clip-rule:evenodd;fill:none;stroke:#00AEEF;stroke-width:0.9;"/>
  <line x1="58.118" x2="57.919" y2="-78.29" y1="-79.334" style="fill-rule:evenodd;clip-rule:evenodd;fill:none;stroke:#00AEEF;stroke-width:0.9;"/>
  <line x1="77.607" x2="78.481" y2="-78.362" y1="-76.578" style="fill-rule:evenodd;clip-rule:evenodd;fill:none;stroke:#00AEEF;stroke-width:0.9;"/>
  <line x1="71.386" x2="73.364" y2="-75.428" y1="-75.239" style="fill-rule:evenodd;clip-rule:evenodd;fill:none;stroke:#00AEEF;stroke-width:0.9;"/>
  <line x1="66.74" x2="68.124" y2="-77.057" y1="-75.633" style="fill-rule:evenodd;clip-rule:evenodd;fill:none;stroke:#00AEEF;stroke-width:0.9;"/>
  <line x1="75.914" x2="76.358" y2="-72.411" y1="-70.475" style="fill-rule:evenodd;clip-rule:evenodd;fill:none;stroke:#00AEEF;stroke-width:0.9;"/>
  <line x1="69.27" x2="71.189" y2="-71.498" y1="-72.01" style="fill-rule:evenodd;clip-rule:evenodd;fill:none;stroke:#00AEEF;stroke-width:0.9;"/>
  <line x1="64.105" x2="64.85" y2="-73.113" y1="-74.955" style="fill-rule:evenodd;clip-rule:evenodd;fill:none;stroke:#00AEEF;stroke-width:0.9;"/>
  <line x1="66.819" x2="65.019" y2="-68.808" y1="-69.648" style="fill-rule:evenodd;clip-rule:evenodd;fill:none;stroke:#00AEEF;stroke-width:0.9;"/>
  <line x1="72.489" x2="70.792" y2="-66.45" y1="-67.482" style="fill-rule:evenodd;clip-rule:evenodd;fill:none;stroke:#00AEEF;stroke-width:0.9;"/>
  <line x1="78.153" x2="76.423" y2="-67.04" y1="-66.066" style="fill-rule:evenodd;clip-rule:evenodd;fill:none;stroke:#00AEEF;stroke-width:0.9;"/>
  <line x1="73.906" x2="74.137" y2="-64.412" y1="-63.191" style="fill-rule:evenodd;clip-rule:evenodd;fill:none;stroke:#00AEEF;stroke-width:0.9;"/>
  <line x1="66.027" x2="66.985" y2="-64.588" y1="-66.328" style="fill-rule:evenodd;clip-rule:evenodd;fill:none;stroke:#00AEEF;stroke-width:0.9;"/>
  <line x1="73.957" x2="73.758" y2="-78.29" y1="-79.334" style="fill-rule:evenodd;clip-rule:evenodd;fill:none;stroke:#00AEEF;stroke-width:0.9;"/>
 </g>
</svg>
