<?xml version="1.0"?>
<!-- Converted with SVG Converter - Version 0.9.5 (Compiled Fri Feb 21 09:53:38 2020) - Copyright (C) 2011 Nokia -->
<svg xmlns="http://www.w3.org/2000/svg" version="1.1" viewBox="1.85 -81.85 79.25 79.25" xml:space="preserve" width="79.25" y="0px" x="0px" height="79.25" baseProfile="tiny" xmlns:xlink="http://www.w3.org/1999/xlink">
 <g>
  <rect style="fill:none;" width="79.25" y="-81.85" x="1.85" height="79.25"/>
  <line y1="-15.738" style="fill-rule:evenodd;clip-rule:evenodd;fill:none;stroke:#000000;stroke-width:0.8;" x1="16.102" x2="16.975" y2="-17.522"/>
  <line y1="-14.399" style="fill-rule:evenodd;clip-rule:evenodd;fill:none;stroke:#000000;stroke-width:0.8;" x1="9.88" x2="11.858" y2="-14.588"/>
  <line y1="-14.793" style="fill-rule:evenodd;clip-rule:evenodd;fill:none;stroke:#000000;stroke-width:0.8;" x1="5.234" x2="6.619" y2="-16.217"/>
  <line y1="-11.571" style="fill-rule:evenodd;clip-rule:evenodd;fill:none;stroke:#000000;stroke-width:0.8;" x1="14.852" x2="14.408" y2="-9.635"/>
  <line y1="-10.659" style="fill-rule:evenodd;clip-rule:evenodd;fill:none;stroke:#000000;stroke-width:0.8;" x1="9.684" x2="7.764" y2="-11.17"/>
  <line y1="-12.273" style="fill-rule:evenodd;clip-rule:evenodd;fill:none;stroke:#000000;stroke-width:0.8;" x1="3.344" x2="2.6" y2="-14.115"/>
  <line y1="-8.808" style="fill-rule:evenodd;clip-rule:evenodd;fill:none;stroke:#000000;stroke-width:0.8;" x1="5.313" x2="3.513" y2="-7.968"/>
  <line y1="-6.643" style="fill-rule:evenodd;clip-rule:evenodd;fill:none;stroke:#000000;stroke-width:0.8;" x1="10.983" x2="9.286" y2="-5.61"/>
  <line y1="-5.226" style="fill-rule:evenodd;clip-rule:evenodd;fill:none;stroke:#000000;stroke-width:0.8;" x1="16.647" x2="14.917" y2="-6.201"/>
  <line y1="-3.572" style="fill-rule:evenodd;clip-rule:evenodd;fill:none;stroke:#000000;stroke-width:0.8;" x1="12.631" x2="12.448" y2="-2.6"/>
  <line y1="-3.749" style="fill-rule:evenodd;clip-rule:evenodd;fill:none;stroke:#000000;stroke-width:0.8;" x1="5.479" x2="4.521" y2="-5.488"/>
  <line y1="-18.849" style="fill-rule:evenodd;clip-rule:evenodd;fill:none;stroke:#000000;stroke-width:0.8;" x1="12.519" x2="12.252" y2="-17.451"/>
  <line y1="-15.738" style="fill-rule:evenodd;clip-rule:evenodd;fill:none;stroke:#000000;stroke-width:0.8;" x1="31.94" x2="32.814" y2="-17.522"/>
  <line y1="-14.399" style="fill-rule:evenodd;clip-rule:evenodd;fill:none;stroke:#000000;stroke-width:0.8;" x1="25.719" x2="27.697" y2="-14.588"/>
  <line y1="-14.793" style="fill-rule:evenodd;clip-rule:evenodd;fill:none;stroke:#000000;stroke-width:0.8;" x1="21.073" x2="22.458" y2="-16.217"/>
  <line y1="-11.571" style="fill-rule:evenodd;clip-rule:evenodd;fill:none;stroke:#000000;stroke-width:0.8;" x1="30.691" x2="30.248" y2="-9.635"/>
  <line y1="-10.659" style="fill-rule:evenodd;clip-rule:evenodd;fill:none;stroke:#000000;stroke-width:0.8;" x1="25.522" x2="23.604" y2="-11.17"/>
  <line y1="-12.273" style="fill-rule:evenodd;clip-rule:evenodd;fill:none;stroke:#000000;stroke-width:0.8;" x1="19.183" x2="18.439" y2="-14.115"/>
  <line y1="-8.808" style="fill-rule:evenodd;clip-rule:evenodd;fill:none;stroke:#000000;stroke-width:0.8;" x1="21.152" x2="19.352" y2="-7.968"/>
  <line y1="-6.643" style="fill-rule:evenodd;clip-rule:evenodd;fill:none;stroke:#000000;stroke-width:0.8;" x1="26.822" x2="25.125" y2="-5.61"/>
  <line y1="-5.226" style="fill-rule:evenodd;clip-rule:evenodd;fill:none;stroke:#000000;stroke-width:0.8;" x1="32.486" x2="30.756" y2="-6.201"/>
  <line y1="-3.572" style="fill-rule:evenodd;clip-rule:evenodd;fill:none;stroke:#000000;stroke-width:0.8;" x1="28.542" x2="28.358" y2="-2.6"/>
  <line y1="-3.749" style="fill-rule:evenodd;clip-rule:evenodd;fill:none;stroke:#000000;stroke-width:0.8;" x1="21.319" x2="20.36" y2="-5.488"/>
  <line y1="-18.849" style="fill-rule:evenodd;clip-rule:evenodd;fill:none;stroke:#000000;stroke-width:0.8;" x1="28.357" x2="28.091" y2="-17.451"/>
  <line y1="-15.738" style="fill-rule:evenodd;clip-rule:evenodd;fill:none;stroke:#000000;stroke-width:0.8;" x1="47.779" x2="48.653" y2="-17.522"/>
  <line y1="-14.399" style="fill-rule:evenodd;clip-rule:evenodd;fill:none;stroke:#000000;stroke-width:0.8;" x1="41.558" x2="43.536" y2="-14.588"/>
  <line y1="-14.793" style="fill-rule:evenodd;clip-rule:evenodd;fill:none;stroke:#000000;stroke-width:0.8;" x1="36.912" x2="38.297" y2="-16.217"/>
  <line y1="-11.571" style="fill-rule:evenodd;clip-rule:evenodd;fill:none;stroke:#000000;stroke-width:0.8;" x1="46.53" x2="46.086" y2="-9.635"/>
  <line y1="-10.659" style="fill-rule:evenodd;clip-rule:evenodd;fill:none;stroke:#000000;stroke-width:0.8;" x1="41.361" x2="39.442" y2="-11.17"/>
  <line y1="-12.273" style="fill-rule:evenodd;clip-rule:evenodd;fill:none;stroke:#000000;stroke-width:0.8;" x1="35.022" x2="34.278" y2="-14.115"/>
  <line y1="-8.808" style="fill-rule:evenodd;clip-rule:evenodd;fill:none;stroke:#000000;stroke-width:0.8;" x1="36.991" x2="35.191" y2="-7.968"/>
  <line y1="-6.643" style="fill-rule:evenodd;clip-rule:evenodd;fill:none;stroke:#000000;stroke-width:0.8;" x1="42.661" x2="40.964" y2="-5.61"/>
  <line y1="-5.226" style="fill-rule:evenodd;clip-rule:evenodd;fill:none;stroke:#000000;stroke-width:0.8;" x1="48.325" x2="46.595" y2="-6.201"/>
  <line y1="-3.572" style="fill-rule:evenodd;clip-rule:evenodd;fill:none;stroke:#000000;stroke-width:0.8;" x1="44.309" x2="44.125" y2="-2.6"/>
  <line y1="-3.749" style="fill-rule:evenodd;clip-rule:evenodd;fill:none;stroke:#000000;stroke-width:0.8;" x1="37.158" x2="36.199" y2="-5.488"/>
  <line y1="-18.849" style="fill-rule:evenodd;clip-rule:evenodd;fill:none;stroke:#000000;stroke-width:0.8;" x1="44.196" x2="43.93" y2="-17.451"/>
  <line y1="-15.738" style="fill-rule:evenodd;clip-rule:evenodd;fill:none;stroke:#000000;stroke-width:0.8;" x1="63.619" x2="64.492" y2="-17.522"/>
  <line y1="-14.399" style="fill-rule:evenodd;clip-rule:evenodd;fill:none;stroke:#000000;stroke-width:0.8;" x1="57.397" x2="59.375" y2="-14.588"/>
  <line y1="-14.793" style="fill-rule:evenodd;clip-rule:evenodd;fill:none;stroke:#000000;stroke-width:0.8;" x1="52.751" x2="54.136" y2="-16.217"/>
  <line y1="-11.571" style="fill-rule:evenodd;clip-rule:evenodd;fill:none;stroke:#000000;stroke-width:0.8;" x1="62.369" x2="61.925" y2="-9.635"/>
  <line y1="-10.659" style="fill-rule:evenodd;clip-rule:evenodd;fill:none;stroke:#000000;stroke-width:0.8;" x1="57.2" x2="55.281" y2="-11.17"/>
  <line y1="-12.273" style="fill-rule:evenodd;clip-rule:evenodd;fill:none;stroke:#000000;stroke-width:0.8;" x1="50.861" x2="50.117" y2="-14.115"/>
  <line y1="-8.808" style="fill-rule:evenodd;clip-rule:evenodd;fill:none;stroke:#000000;stroke-width:0.8;" x1="52.83" x2="51.03" y2="-7.968"/>
  <line y1="-6.643" style="fill-rule:evenodd;clip-rule:evenodd;fill:none;stroke:#000000;stroke-width:0.8;" x1="58.5" x2="56.803" y2="-5.61"/>
  <line y1="-5.226" style="fill-rule:evenodd;clip-rule:evenodd;fill:none;stroke:#000000;stroke-width:0.8;" x1="64.165" x2="62.434" y2="-6.201"/>
  <line y1="-3.572" style="fill-rule:evenodd;clip-rule:evenodd;fill:none;stroke:#000000;stroke-width:0.8;" x1="60.148" x2="59.964" y2="-2.6"/>
  <line y1="-3.749" style="fill-rule:evenodd;clip-rule:evenodd;fill:none;stroke:#000000;stroke-width:0.8;" x1="52.997" x2="52.038" y2="-5.488"/>
  <line y1="-18.849" style="fill-rule:evenodd;clip-rule:evenodd;fill:none;stroke:#000000;stroke-width:0.8;" x1="60.036" x2="59.769" y2="-17.451"/>
  <line y1="-15.738" style="fill-rule:evenodd;clip-rule:evenodd;fill:none;stroke:#000000;stroke-width:0.8;" x1="79.457" x2="80.331" y2="-17.522"/>
  <line y1="-14.399" style="fill-rule:evenodd;clip-rule:evenodd;fill:none;stroke:#000000;stroke-width:0.8;" x1="73.236" x2="75.214" y2="-14.588"/>
  <line y1="-14.793" style="fill-rule:evenodd;clip-rule:evenodd;fill:none;stroke:#000000;stroke-width:0.8;" x1="68.59" x2="69.975" y2="-16.217"/>
  <line y1="-11.571" style="fill-rule:evenodd;clip-rule:evenodd;fill:none;stroke:#000000;stroke-width:0.8;" x1="78.208" x2="77.764" y2="-9.635"/>
  <line y1="-10.659" style="fill-rule:evenodd;clip-rule:evenodd;fill:none;stroke:#000000;stroke-width:0.8;" x1="73.04" x2="71.12" y2="-11.17"/>
  <line y1="-12.273" style="fill-rule:evenodd;clip-rule:evenodd;fill:none;stroke:#000000;stroke-width:0.8;" x1="66.7" x2="65.956" y2="-14.115"/>
  <line y1="-8.808" style="fill-rule:evenodd;clip-rule:evenodd;fill:none;stroke:#000000;stroke-width:0.8;" x1="68.669" x2="66.869" y2="-7.968"/>
  <line y1="-6.643" style="fill-rule:evenodd;clip-rule:evenodd;fill:none;stroke:#000000;stroke-width:0.8;" x1="74.339" x2="72.642" y2="-5.61"/>
  <line y1="-5.226" style="fill-rule:evenodd;clip-rule:evenodd;fill:none;stroke:#000000;stroke-width:0.8;" x1="80.003" x2="78.273" y2="-6.201"/>
  <line y1="-3.572" style="fill-rule:evenodd;clip-rule:evenodd;fill:none;stroke:#000000;stroke-width:0.8;" x1="75.987" x2="75.804" y2="-2.6"/>
  <line y1="-3.749" style="fill-rule:evenodd;clip-rule:evenodd;fill:none;stroke:#000000;stroke-width:0.8;" x1="68.835" x2="67.877" y2="-5.488"/>
  <line y1="-18.849" style="fill-rule:evenodd;clip-rule:evenodd;fill:none;stroke:#000000;stroke-width:0.8;" x1="75.874" x2="75.608" y2="-17.451"/>
  <line y1="-31.577" style="fill-rule:evenodd;clip-rule:evenodd;fill:none;stroke:#000000;stroke-width:0.8;" x1="16.102" x2="16.975" y2="-33.361"/>
  <line y1="-30.238" style="fill-rule:evenodd;clip-rule:evenodd;fill:none;stroke:#000000;stroke-width:0.8;" x1="9.88" x2="11.858" y2="-30.427"/>
  <line y1="-30.632" style="fill-rule:evenodd;clip-rule:evenodd;fill:none;stroke:#000000;stroke-width:0.8;" x1="5.234" x2="6.619" y2="-32.057"/>
  <line y1="-25.474" style="fill-rule:evenodd;clip-rule:evenodd;fill:none;stroke:#000000;stroke-width:0.8;" x1="14.408" x2="14.852" y2="-27.41"/>
  <line y1="-26.498" style="fill-rule:evenodd;clip-rule:evenodd;fill:none;stroke:#000000;stroke-width:0.8;" x1="9.684" x2="7.764" y2="-27.01"/>
  <line y1="-28.112" style="fill-rule:evenodd;clip-rule:evenodd;fill:none;stroke:#000000;stroke-width:0.8;" x1="3.344" x2="2.6" y2="-29.954"/>
  <line y1="-24.647" style="fill-rule:evenodd;clip-rule:evenodd;fill:none;stroke:#000000;stroke-width:0.8;" x1="5.313" x2="3.513" y2="-23.807"/>
  <line y1="-22.481" style="fill-rule:evenodd;clip-rule:evenodd;fill:none;stroke:#000000;stroke-width:0.8;" x1="10.983" x2="9.286" y2="-21.449"/>
  <line y1="-21.065" style="fill-rule:evenodd;clip-rule:evenodd;fill:none;stroke:#000000;stroke-width:0.8;" x1="16.647" x2="14.917" y2="-22.04"/>
  <line y1="-18.19" style="fill-rule:evenodd;clip-rule:evenodd;fill:none;stroke:#000000;stroke-width:0.8;" x1="12.4" x2="12.631" y2="-19.411"/>
  <line y1="-21.327" style="fill-rule:evenodd;clip-rule:evenodd;fill:none;stroke:#000000;stroke-width:0.8;" x1="4.521" x2="5.479" y2="-19.587"/>
  <line y1="-34.688" style="fill-rule:evenodd;clip-rule:evenodd;fill:none;stroke:#000000;stroke-width:0.8;" x1="12.519" x2="12.252" y2="-33.29"/>
  <line y1="-31.577" style="fill-rule:evenodd;clip-rule:evenodd;fill:none;stroke:#000000;stroke-width:0.8;" x1="31.94" x2="32.814" y2="-33.361"/>
  <line y1="-30.238" style="fill-rule:evenodd;clip-rule:evenodd;fill:none;stroke:#000000;stroke-width:0.8;" x1="25.719" x2="27.697" y2="-30.427"/>
  <line y1="-30.632" style="fill-rule:evenodd;clip-rule:evenodd;fill:none;stroke:#000000;stroke-width:0.8;" x1="21.073" x2="22.458" y2="-32.057"/>
  <line y1="-25.474" style="fill-rule:evenodd;clip-rule:evenodd;fill:none;stroke:#000000;stroke-width:0.8;" x1="30.248" x2="30.691" y2="-27.41"/>
  <line y1="-26.498" style="fill-rule:evenodd;clip-rule:evenodd;fill:none;stroke:#000000;stroke-width:0.8;" x1="25.522" x2="23.604" y2="-27.01"/>
  <line y1="-28.112" style="fill-rule:evenodd;clip-rule:evenodd;fill:none;stroke:#000000;stroke-width:0.8;" x1="19.183" x2="18.439" y2="-29.954"/>
  <line y1="-24.647" style="fill-rule:evenodd;clip-rule:evenodd;fill:none;stroke:#000000;stroke-width:0.8;" x1="21.152" x2="19.352" y2="-23.807"/>
  <line y1="-22.481" style="fill-rule:evenodd;clip-rule:evenodd;fill:none;stroke:#000000;stroke-width:0.8;" x1="26.822" x2="25.125" y2="-21.449"/>
  <line y1="-21.065" style="fill-rule:evenodd;clip-rule:evenodd;fill:none;stroke:#000000;stroke-width:0.8;" x1="32.486" x2="30.756" y2="-22.04"/>
  <line y1="-18.19" style="fill-rule:evenodd;clip-rule:evenodd;fill:none;stroke:#000000;stroke-width:0.8;" x1="28.24" x2="28.47" y2="-19.411"/>
  <line y1="-21.327" style="fill-rule:evenodd;clip-rule:evenodd;fill:none;stroke:#000000;stroke-width:0.8;" x1="20.36" x2="21.319" y2="-19.587"/>
  <line y1="-34.688" style="fill-rule:evenodd;clip-rule:evenodd;fill:none;stroke:#000000;stroke-width:0.8;" x1="28.357" x2="28.091" y2="-33.29"/>
  <line y1="-31.577" style="fill-rule:evenodd;clip-rule:evenodd;fill:none;stroke:#000000;stroke-width:0.8;" x1="47.779" x2="48.653" y2="-33.361"/>
  <line y1="-30.238" style="fill-rule:evenodd;clip-rule:evenodd;fill:none;stroke:#000000;stroke-width:0.8;" x1="41.558" x2="43.536" y2="-30.427"/>
  <line y1="-30.632" style="fill-rule:evenodd;clip-rule:evenodd;fill:none;stroke:#000000;stroke-width:0.8;" x1="36.912" x2="38.297" y2="-32.057"/>
  <line y1="-25.474" style="fill-rule:evenodd;clip-rule:evenodd;fill:none;stroke:#000000;stroke-width:0.8;" x1="46.086" x2="46.53" y2="-27.41"/>
  <line y1="-26.498" style="fill-rule:evenodd;clip-rule:evenodd;fill:none;stroke:#000000;stroke-width:0.8;" x1="41.361" x2="39.442" y2="-27.01"/>
  <line y1="-28.112" style="fill-rule:evenodd;clip-rule:evenodd;fill:none;stroke:#000000;stroke-width:0.8;" x1="35.022" x2="34.278" y2="-29.954"/>
  <line y1="-24.647" style="fill-rule:evenodd;clip-rule:evenodd;fill:none;stroke:#000000;stroke-width:0.8;" x1="36.991" x2="35.191" y2="-23.807"/>
  <line y1="-22.481" style="fill-rule:evenodd;clip-rule:evenodd;fill:none;stroke:#000000;stroke-width:0.8;" x1="42.661" x2="40.964" y2="-21.449"/>
  <line y1="-21.065" style="fill-rule:evenodd;clip-rule:evenodd;fill:none;stroke:#000000;stroke-width:0.8;" x1="48.325" x2="46.595" y2="-22.04"/>
  <line y1="-18.19" style="fill-rule:evenodd;clip-rule:evenodd;fill:none;stroke:#000000;stroke-width:0.8;" x1="44.079" x2="44.309" y2="-19.411"/>
  <line y1="-21.327" style="fill-rule:evenodd;clip-rule:evenodd;fill:none;stroke:#000000;stroke-width:0.8;" x1="36.199" x2="37.158" y2="-19.587"/>
  <line y1="-34.688" style="fill-rule:evenodd;clip-rule:evenodd;fill:none;stroke:#000000;stroke-width:0.8;" x1="44.196" x2="43.93" y2="-33.29"/>
  <line y1="-31.577" style="fill-rule:evenodd;clip-rule:evenodd;fill:none;stroke:#000000;stroke-width:0.8;" x1="63.619" x2="64.492" y2="-33.361"/>
  <line y1="-30.238" style="fill-rule:evenodd;clip-rule:evenodd;fill:none;stroke:#000000;stroke-width:0.8;" x1="57.397" x2="59.375" y2="-30.427"/>
  <line y1="-30.632" style="fill-rule:evenodd;clip-rule:evenodd;fill:none;stroke:#000000;stroke-width:0.8;" x1="52.751" x2="54.136" y2="-32.057"/>
  <line y1="-25.474" style="fill-rule:evenodd;clip-rule:evenodd;fill:none;stroke:#000000;stroke-width:0.8;" x1="61.925" x2="62.369" y2="-27.41"/>
  <line y1="-26.498" style="fill-rule:evenodd;clip-rule:evenodd;fill:none;stroke:#000000;stroke-width:0.8;" x1="57.2" x2="55.281" y2="-27.01"/>
  <line y1="-28.112" style="fill-rule:evenodd;clip-rule:evenodd;fill:none;stroke:#000000;stroke-width:0.8;" x1="50.861" x2="50.117" y2="-29.954"/>
  <line y1="-24.647" style="fill-rule:evenodd;clip-rule:evenodd;fill:none;stroke:#000000;stroke-width:0.8;" x1="52.83" x2="51.03" y2="-23.807"/>
  <line y1="-22.481" style="fill-rule:evenodd;clip-rule:evenodd;fill:none;stroke:#000000;stroke-width:0.8;" x1="58.5" x2="56.803" y2="-21.449"/>
  <line y1="-21.065" style="fill-rule:evenodd;clip-rule:evenodd;fill:none;stroke:#000000;stroke-width:0.8;" x1="64.165" x2="62.434" y2="-22.04"/>
  <line y1="-18.19" style="fill-rule:evenodd;clip-rule:evenodd;fill:none;stroke:#000000;stroke-width:0.8;" x1="59.917" x2="60.148" y2="-19.411"/>
  <line y1="-21.327" style="fill-rule:evenodd;clip-rule:evenodd;fill:none;stroke:#000000;stroke-width:0.8;" x1="52.038" x2="52.997" y2="-19.587"/>
  <line y1="-34.688" style="fill-rule:evenodd;clip-rule:evenodd;fill:none;stroke:#000000;stroke-width:0.8;" x1="60.036" x2="59.769" y2="-33.29"/>
  <line y1="-31.577" style="fill-rule:evenodd;clip-rule:evenodd;fill:none;stroke:#000000;stroke-width:0.8;" x1="79.457" x2="80.331" y2="-33.361"/>
  <line y1="-30.238" style="fill-rule:evenodd;clip-rule:evenodd;fill:none;stroke:#000000;stroke-width:0.8;" x1="73.236" x2="75.214" y2="-30.427"/>
  <line y1="-30.632" style="fill-rule:evenodd;clip-rule:evenodd;fill:none;stroke:#000000;stroke-width:0.8;" x1="68.59" x2="69.975" y2="-32.057"/>
  <line y1="-25.474" style="fill-rule:evenodd;clip-rule:evenodd;fill:none;stroke:#000000;stroke-width:0.8;" x1="77.764" x2="78.208" y2="-27.41"/>
  <line y1="-26.498" style="fill-rule:evenodd;clip-rule:evenodd;fill:none;stroke:#000000;stroke-width:0.8;" x1="73.04" x2="71.12" y2="-27.01"/>
  <line y1="-28.112" style="fill-rule:evenodd;clip-rule:evenodd;fill:none;stroke:#000000;stroke-width:0.8;" x1="66.7" x2="65.956" y2="-29.954"/>
  <line y1="-24.647" style="fill-rule:evenodd;clip-rule:evenodd;fill:none;stroke:#000000;stroke-width:0.8;" x1="68.669" x2="66.869" y2="-23.807"/>
  <line y1="-22.481" style="fill-rule:evenodd;clip-rule:evenodd;fill:none;stroke:#000000;stroke-width:0.8;" x1="74.339" x2="72.642" y2="-21.449"/>
  <line y1="-21.065" style="fill-rule:evenodd;clip-rule:evenodd;fill:none;stroke:#000000;stroke-width:0.8;" x1="80.003" x2="78.273" y2="-22.04"/>
  <line y1="-18.19" style="fill-rule:evenodd;clip-rule:evenodd;fill:none;stroke:#000000;stroke-width:0.8;" x1="75.756" x2="75.987" y2="-19.411"/>
  <line y1="-21.327" style="fill-rule:evenodd;clip-rule:evenodd;fill:none;stroke:#000000;stroke-width:0.8;" x1="67.877" x2="68.835" y2="-19.587"/>
  <line y1="-34.688" style="fill-rule:evenodd;clip-rule:evenodd;fill:none;stroke:#000000;stroke-width:0.8;" x1="75.874" x2="75.608" y2="-33.29"/>
  <line y1="-47.416" style="fill-rule:evenodd;clip-rule:evenodd;fill:none;stroke:#000000;stroke-width:0.8;" x1="16.102" x2="16.975" y2="-49.2"/>
  <line y1="-46.078" style="fill-rule:evenodd;clip-rule:evenodd;fill:none;stroke:#000000;stroke-width:0.8;" x1="9.88" x2="11.858" y2="-46.266"/>
  <line y1="-46.471" style="fill-rule:evenodd;clip-rule:evenodd;fill:none;stroke:#000000;stroke-width:0.8;" x1="5.234" x2="6.619" y2="-47.896"/>
  <line y1="-41.313" style="fill-rule:evenodd;clip-rule:evenodd;fill:none;stroke:#000000;stroke-width:0.8;" x1="14.408" x2="14.852" y2="-43.249"/>
  <line y1="-42.337" style="fill-rule:evenodd;clip-rule:evenodd;fill:none;stroke:#000000;stroke-width:0.8;" x1="9.684" x2="7.764" y2="-42.849"/>
  <line y1="-43.951" style="fill:none;stroke:#000000;stroke-width:0.8;" x1="3.344" x2="2.6" y2="-45.792"/>
  <line y1="-40.486" style="fill-rule:evenodd;clip-rule:evenodd;fill:none;stroke:#000000;stroke-width:0.8;" x1="5.313" x2="3.513" y2="-39.646"/>
  <line y1="-38.321" style="fill-rule:evenodd;clip-rule:evenodd;fill:none;stroke:#000000;stroke-width:0.8;" x1="10.983" x2="9.286" y2="-37.288"/>
  <line y1="-36.904" style="fill-rule:evenodd;clip-rule:evenodd;fill:none;stroke:#000000;stroke-width:0.8;" x1="16.647" x2="14.917" y2="-37.878"/>
  <line y1="-34.029" style="fill-rule:evenodd;clip-rule:evenodd;fill:none;stroke:#000000;stroke-width:0.8;" x1="12.4" x2="12.631" y2="-35.25"/>
  <line y1="-37.167" style="fill-rule:evenodd;clip-rule:evenodd;fill:none;stroke:#000000;stroke-width:0.8;" x1="4.521" x2="5.479" y2="-35.426"/>
  <line y1="-50.527" style="fill-rule:evenodd;clip-rule:evenodd;fill:none;stroke:#000000;stroke-width:0.8;" x1="12.519" x2="12.252" y2="-49.129"/>
  <line y1="-47.416" style="fill-rule:evenodd;clip-rule:evenodd;fill:none;stroke:#000000;stroke-width:0.8;" x1="31.94" x2="32.814" y2="-49.2"/>
  <line y1="-46.078" style="fill-rule:evenodd;clip-rule:evenodd;fill:none;stroke:#000000;stroke-width:0.8;" x1="25.719" x2="27.697" y2="-46.266"/>
  <line y1="-46.471" style="fill-rule:evenodd;clip-rule:evenodd;fill:none;stroke:#000000;stroke-width:0.8;" x1="21.073" x2="22.458" y2="-47.896"/>
  <line y1="-41.313" style="fill-rule:evenodd;clip-rule:evenodd;fill:none;stroke:#000000;stroke-width:0.8;" x1="30.248" x2="30.691" y2="-43.249"/>
  <line y1="-42.337" style="fill-rule:evenodd;clip-rule:evenodd;fill:none;stroke:#000000;stroke-width:0.8;" x1="25.522" x2="23.604" y2="-42.849"/>
  <line y1="-43.951" style="fill-rule:evenodd;clip-rule:evenodd;fill:none;stroke:#000000;stroke-width:0.8;" x1="19.183" x2="18.439" y2="-45.792"/>
  <line y1="-40.486" style="fill-rule:evenodd;clip-rule:evenodd;fill:none;stroke:#000000;stroke-width:0.8;" x1="21.152" x2="19.352" y2="-39.646"/>
  <line y1="-38.321" style="fill-rule:evenodd;clip-rule:evenodd;fill:none;stroke:#000000;stroke-width:0.8;" x1="26.822" x2="25.125" y2="-37.288"/>
  <line y1="-36.904" style="fill-rule:evenodd;clip-rule:evenodd;fill:none;stroke:#000000;stroke-width:0.8;" x1="32.486" x2="30.756" y2="-37.878"/>
  <line y1="-34.029" style="fill-rule:evenodd;clip-rule:evenodd;fill:none;stroke:#000000;stroke-width:0.8;" x1="28.24" x2="28.47" y2="-35.25"/>
  <line y1="-37.167" style="fill-rule:evenodd;clip-rule:evenodd;fill:none;stroke:#000000;stroke-width:0.8;" x1="20.36" x2="21.319" y2="-35.426"/>
  <line y1="-50.527" style="fill-rule:evenodd;clip-rule:evenodd;fill:none;stroke:#000000;stroke-width:0.8;" x1="28.357" x2="28.091" y2="-49.129"/>
  <line y1="-47.416" style="fill-rule:evenodd;clip-rule:evenodd;fill:none;stroke:#000000;stroke-width:0.8;" x1="47.779" x2="48.653" y2="-49.2"/>
  <line y1="-46.078" style="fill-rule:evenodd;clip-rule:evenodd;fill:none;stroke:#000000;stroke-width:0.8;" x1="41.558" x2="43.536" y2="-46.266"/>
  <line y1="-46.471" style="fill-rule:evenodd;clip-rule:evenodd;fill:none;stroke:#000000;stroke-width:0.8;" x1="36.912" x2="38.297" y2="-47.896"/>
  <line y1="-41.313" style="fill-rule:evenodd;clip-rule:evenodd;fill:none;stroke:#000000;stroke-width:0.8;" x1="46.086" x2="46.53" y2="-43.249"/>
  <line y1="-42.337" style="fill-rule:evenodd;clip-rule:evenodd;fill:none;stroke:#000000;stroke-width:0.8;" x1="41.361" x2="39.442" y2="-42.849"/>
  <line y1="-43.951" style="fill-rule:evenodd;clip-rule:evenodd;fill:none;stroke:#000000;stroke-width:0.8;" x1="35.022" x2="34.278" y2="-45.792"/>
  <line y1="-40.486" style="fill-rule:evenodd;clip-rule:evenodd;fill:none;stroke:#000000;stroke-width:0.8;" x1="36.991" x2="35.191" y2="-39.646"/>
  <line y1="-38.321" style="fill-rule:evenodd;clip-rule:evenodd;fill:none;stroke:#000000;stroke-width:0.8;" x1="42.661" x2="40.964" y2="-37.288"/>
  <line y1="-36.904" style="fill-rule:evenodd;clip-rule:evenodd;fill:none;stroke:#000000;stroke-width:0.8;" x1="48.325" x2="46.595" y2="-37.878"/>
  <line y1="-34.029" style="fill-rule:evenodd;clip-rule:evenodd;fill:none;stroke:#000000;stroke-width:0.8;" x1="44.079" x2="44.309" y2="-35.25"/>
  <line y1="-37.167" style="fill-rule:evenodd;clip-rule:evenodd;fill:none;stroke:#000000;stroke-width:0.8;" x1="36.199" x2="37.158" y2="-35.426"/>
  <line y1="-50.527" style="fill-rule:evenodd;clip-rule:evenodd;fill:none;stroke:#000000;stroke-width:0.8;" x1="44.196" x2="43.93" y2="-49.129"/>
  <line y1="-47.416" style="fill-rule:evenodd;clip-rule:evenodd;fill:none;stroke:#000000;stroke-width:0.8;" x1="63.619" x2="64.492" y2="-49.2"/>
  <line y1="-46.078" style="fill-rule:evenodd;clip-rule:evenodd;fill:none;stroke:#000000;stroke-width:0.8;" x1="57.397" x2="59.375" y2="-46.266"/>
  <line y1="-46.471" style="fill-rule:evenodd;clip-rule:evenodd;fill:none;stroke:#000000;stroke-width:0.8;" x1="52.751" x2="54.136" y2="-47.896"/>
  <line y1="-41.313" style="fill-rule:evenodd;clip-rule:evenodd;fill:none;stroke:#000000;stroke-width:0.8;" x1="61.925" x2="62.369" y2="-43.249"/>
  <line y1="-42.337" style="fill-rule:evenodd;clip-rule:evenodd;fill:none;stroke:#000000;stroke-width:0.8;" x1="57.2" x2="55.281" y2="-42.849"/>
  <line y1="-43.951" style="fill-rule:evenodd;clip-rule:evenodd;fill:none;stroke:#000000;stroke-width:0.8;" x1="50.861" x2="50.117" y2="-45.792"/>
  <line y1="-40.486" style="fill-rule:evenodd;clip-rule:evenodd;fill:none;stroke:#000000;stroke-width:0.8;" x1="52.83" x2="51.03" y2="-39.646"/>
  <line y1="-38.321" style="fill-rule:evenodd;clip-rule:evenodd;fill:none;stroke:#000000;stroke-width:0.8;" x1="58.5" x2="56.803" y2="-37.288"/>
  <line y1="-36.904" style="fill-rule:evenodd;clip-rule:evenodd;fill:none;stroke:#000000;stroke-width:0.8;" x1="64.165" x2="62.434" y2="-37.878"/>
  <line y1="-34.029" style="fill-rule:evenodd;clip-rule:evenodd;fill:none;stroke:#000000;stroke-width:0.8;" x1="59.917" x2="60.148" y2="-35.25"/>
  <line y1="-37.167" style="fill-rule:evenodd;clip-rule:evenodd;fill:none;stroke:#000000;stroke-width:0.8;" x1="52.038" x2="52.997" y2="-35.426"/>
  <line y1="-50.527" style="fill-rule:evenodd;clip-rule:evenodd;fill:none;stroke:#000000;stroke-width:0.8;" x1="60.036" x2="59.769" y2="-49.129"/>
  <line y1="-47.416" style="fill-rule:evenodd;clip-rule:evenodd;fill:none;stroke:#000000;stroke-width:0.8;" x1="79.457" x2="80.331" y2="-49.2"/>
  <line y1="-46.078" style="fill-rule:evenodd;clip-rule:evenodd;fill:none;stroke:#000000;stroke-width:0.8;" x1="73.236" x2="75.214" y2="-46.266"/>
  <line y1="-46.471" style="fill-rule:evenodd;clip-rule:evenodd;fill:none;stroke:#000000;stroke-width:0.8;" x1="68.59" x2="69.975" y2="-47.896"/>
  <line y1="-41.313" style="fill-rule:evenodd;clip-rule:evenodd;fill:none;stroke:#000000;stroke-width:0.8;" x1="77.764" x2="78.208" y2="-43.249"/>
  <line y1="-42.337" style="fill-rule:evenodd;clip-rule:evenodd;fill:none;stroke:#000000;stroke-width:0.8;" x1="73.04" x2="71.12" y2="-42.849"/>
  <line y1="-43.951" style="fill-rule:evenodd;clip-rule:evenodd;fill:none;stroke:#000000;stroke-width:0.8;" x1="66.7" x2="65.956" y2="-45.792"/>
  <line y1="-40.486" style="fill-rule:evenodd;clip-rule:evenodd;fill:none;stroke:#000000;stroke-width:0.8;" x1="68.669" x2="66.869" y2="-39.646"/>
  <line y1="-38.321" style="fill-rule:evenodd;clip-rule:evenodd;fill:none;stroke:#000000;stroke-width:0.8;" x1="74.339" x2="72.642" y2="-37.288"/>
  <line y1="-36.904" style="fill-rule:evenodd;clip-rule:evenodd;fill:none;stroke:#000000;stroke-width:0.8;" x1="80.003" x2="78.273" y2="-37.878"/>
  <line y1="-34.029" style="fill-rule:evenodd;clip-rule:evenodd;fill:none;stroke:#000000;stroke-width:0.8;" x1="75.756" x2="75.987" y2="-35.25"/>
  <line y1="-37.167" style="fill-rule:evenodd;clip-rule:evenodd;fill:none;stroke:#000000;stroke-width:0.8;" x1="67.877" x2="68.835" y2="-35.426"/>
  <line y1="-50.527" style="fill-rule:evenodd;clip-rule:evenodd;fill:none;stroke:#000000;stroke-width:0.8;" x1="75.874" x2="75.608" y2="-49.129"/>
  <line y1="-63.255" style="fill-rule:evenodd;clip-rule:evenodd;fill:none;stroke:#000000;stroke-width:0.8;" x1="16.102" x2="16.975" y2="-65.039"/>
  <line y1="-61.917" style="fill-rule:evenodd;clip-rule:evenodd;fill:none;stroke:#000000;stroke-width:0.8;" x1="9.88" x2="11.858" y2="-62.105"/>
  <line y1="-62.31" style="fill-rule:evenodd;clip-rule:evenodd;fill:none;stroke:#000000;stroke-width:0.8;" x1="5.234" x2="6.619" y2="-63.734"/>
  <line y1="-57.152" style="fill-rule:evenodd;clip-rule:evenodd;fill:none;stroke:#000000;stroke-width:0.8;" x1="14.408" x2="14.852" y2="-59.088"/>
  <line y1="-58.176" style="fill-rule:evenodd;clip-rule:evenodd;fill:none;stroke:#000000;stroke-width:0.8;" x1="9.684" x2="7.764" y2="-58.688"/>
  <line y1="-59.79" style="fill-rule:evenodd;clip-rule:evenodd;fill:none;stroke:#000000;stroke-width:0.8;" x1="3.344" x2="2.6" y2="-61.632"/>
  <line y1="-56.325" style="fill-rule:evenodd;clip-rule:evenodd;fill:none;stroke:#000000;stroke-width:0.8;" x1="5.313" x2="3.513" y2="-55.485"/>
  <line y1="-54.16" style="fill-rule:evenodd;clip-rule:evenodd;fill:none;stroke:#000000;stroke-width:0.8;" x1="10.983" x2="9.286" y2="-53.127"/>
  <line y1="-52.743" style="fill-rule:evenodd;clip-rule:evenodd;fill:none;stroke:#000000;stroke-width:0.8;" x1="16.647" x2="14.917" y2="-53.717"/>
  <line y1="-49.868" style="fill-rule:evenodd;clip-rule:evenodd;fill:none;stroke:#000000;stroke-width:0.8;" x1="12.4" x2="12.631" y2="-51.089"/>
  <line y1="-53.005" style="fill-rule:evenodd;clip-rule:evenodd;fill:none;stroke:#000000;stroke-width:0.8;" x1="4.521" x2="5.479" y2="-51.266"/>
  <line y1="-64.968" style="fill-rule:evenodd;clip-rule:evenodd;fill:none;stroke:#000000;stroke-width:0.8;" x1="12.252" x2="12.519" y2="-66.366"/>
  <line y1="-63.255" style="fill-rule:evenodd;clip-rule:evenodd;fill:none;stroke:#000000;stroke-width:0.8;" x1="31.94" x2="32.814" y2="-65.039"/>
  <line y1="-61.917" style="fill-rule:evenodd;clip-rule:evenodd;fill:none;stroke:#000000;stroke-width:0.8;" x1="25.719" x2="27.697" y2="-62.105"/>
  <line y1="-62.31" style="fill-rule:evenodd;clip-rule:evenodd;fill:none;stroke:#000000;stroke-width:0.8;" x1="21.073" x2="22.458" y2="-63.734"/>
  <line y1="-57.152" style="fill-rule:evenodd;clip-rule:evenodd;fill:none;stroke:#000000;stroke-width:0.8;" x1="30.248" x2="30.691" y2="-59.088"/>
  <line y1="-58.176" style="fill-rule:evenodd;clip-rule:evenodd;fill:none;stroke:#000000;stroke-width:0.8;" x1="25.522" x2="23.604" y2="-58.688"/>
  <line y1="-59.79" style="fill-rule:evenodd;clip-rule:evenodd;fill:none;stroke:#000000;stroke-width:0.8;" x1="19.183" x2="18.439" y2="-61.632"/>
  <line y1="-56.325" style="fill-rule:evenodd;clip-rule:evenodd;fill:none;stroke:#000000;stroke-width:0.8;" x1="21.152" x2="19.352" y2="-55.485"/>
  <line y1="-54.16" style="fill-rule:evenodd;clip-rule:evenodd;fill:none;stroke:#000000;stroke-width:0.8;" x1="26.822" x2="25.125" y2="-53.127"/>
  <line y1="-52.743" style="fill-rule:evenodd;clip-rule:evenodd;fill:none;stroke:#000000;stroke-width:0.8;" x1="32.486" x2="30.756" y2="-53.717"/>
  <line y1="-49.868" style="fill-rule:evenodd;clip-rule:evenodd;fill:none;stroke:#000000;stroke-width:0.8;" x1="28.24" x2="28.47" y2="-51.089"/>
  <line y1="-53.005" style="fill-rule:evenodd;clip-rule:evenodd;fill:none;stroke:#000000;stroke-width:0.8;" x1="20.36" x2="21.319" y2="-51.266"/>
  <line y1="-64.968" style="fill-rule:evenodd;clip-rule:evenodd;fill:none;stroke:#000000;stroke-width:0.8;" x1="28.091" x2="28.357" y2="-66.366"/>
  <line y1="-63.255" style="fill-rule:evenodd;clip-rule:evenodd;fill:none;stroke:#000000;stroke-width:0.8;" x1="47.779" x2="48.653" y2="-65.039"/>
  <line y1="-61.917" style="fill-rule:evenodd;clip-rule:evenodd;fill:none;stroke:#000000;stroke-width:0.8;" x1="41.558" x2="43.536" y2="-62.105"/>
  <line y1="-62.31" style="fill-rule:evenodd;clip-rule:evenodd;fill:none;stroke:#000000;stroke-width:0.8;" x1="36.912" x2="38.297" y2="-63.734"/>
  <line y1="-57.152" style="fill-rule:evenodd;clip-rule:evenodd;fill:none;stroke:#000000;stroke-width:0.8;" x1="46.086" x2="46.53" y2="-59.088"/>
  <line y1="-58.176" style="fill-rule:evenodd;clip-rule:evenodd;fill:none;stroke:#000000;stroke-width:0.8;" x1="41.361" x2="39.442" y2="-58.688"/>
  <line y1="-59.79" style="fill-rule:evenodd;clip-rule:evenodd;fill:none;stroke:#000000;stroke-width:0.8;" x1="35.022" x2="34.278" y2="-61.632"/>
  <line y1="-56.325" style="fill-rule:evenodd;clip-rule:evenodd;fill:none;stroke:#000000;stroke-width:0.8;" x1="36.991" x2="35.191" y2="-55.485"/>
  <line y1="-54.16" style="fill-rule:evenodd;clip-rule:evenodd;fill:none;stroke:#000000;stroke-width:0.8;" x1="42.661" x2="40.964" y2="-53.127"/>
  <line y1="-52.743" style="fill-rule:evenodd;clip-rule:evenodd;fill:none;stroke:#000000;stroke-width:0.8;" x1="48.325" x2="46.595" y2="-53.717"/>
  <line y1="-49.868" style="fill-rule:evenodd;clip-rule:evenodd;fill:none;stroke:#000000;stroke-width:0.8;" x1="44.079" x2="44.309" y2="-51.089"/>
  <line y1="-53.005" style="fill-rule:evenodd;clip-rule:evenodd;fill:none;stroke:#000000;stroke-width:0.8;" x1="36.199" x2="37.158" y2="-51.266"/>
  <line y1="-64.968" style="fill-rule:evenodd;clip-rule:evenodd;fill:none;stroke:#000000;stroke-width:0.8;" x1="43.93" x2="44.196" y2="-66.366"/>
  <line y1="-63.255" style="fill-rule:evenodd;clip-rule:evenodd;fill:none;stroke:#000000;stroke-width:0.8;" x1="63.619" x2="64.492" y2="-65.039"/>
  <line y1="-61.917" style="fill-rule:evenodd;clip-rule:evenodd;fill:none;stroke:#000000;stroke-width:0.8;" x1="57.397" x2="59.375" y2="-62.105"/>
  <line y1="-62.31" style="fill-rule:evenodd;clip-rule:evenodd;fill:none;stroke:#000000;stroke-width:0.8;" x1="52.751" x2="54.136" y2="-63.734"/>
  <line y1="-57.152" style="fill-rule:evenodd;clip-rule:evenodd;fill:none;stroke:#000000;stroke-width:0.8;" x1="61.925" x2="62.369" y2="-59.088"/>
  <line y1="-58.176" style="fill-rule:evenodd;clip-rule:evenodd;fill:none;stroke:#000000;stroke-width:0.8;" x1="57.2" x2="55.281" y2="-58.688"/>
  <line y1="-59.79" style="fill-rule:evenodd;clip-rule:evenodd;fill:none;stroke:#000000;stroke-width:0.8;" x1="50.861" x2="50.117" y2="-61.632"/>
  <line y1="-56.325" style="fill-rule:evenodd;clip-rule:evenodd;fill:none;stroke:#000000;stroke-width:0.8;" x1="52.83" x2="51.03" y2="-55.485"/>
  <line y1="-54.16" style="fill-rule:evenodd;clip-rule:evenodd;fill:none;stroke:#000000;stroke-width:0.8;" x1="58.5" x2="56.803" y2="-53.127"/>
  <line y1="-52.743" style="fill-rule:evenodd;clip-rule:evenodd;fill:none;stroke:#000000;stroke-width:0.8;" x1="64.165" x2="62.434" y2="-53.717"/>
  <line y1="-49.868" style="fill-rule:evenodd;clip-rule:evenodd;fill:none;stroke:#000000;stroke-width:0.8;" x1="59.917" x2="60.148" y2="-51.089"/>
  <line y1="-53.005" style="fill-rule:evenodd;clip-rule:evenodd;fill:none;stroke:#000000;stroke-width:0.8;" x1="52.038" x2="52.997" y2="-51.266"/>
  <line y1="-64.968" style="fill-rule:evenodd;clip-rule:evenodd;fill:none;stroke:#000000;stroke-width:0.8;" x1="59.769" x2="60.036" y2="-66.366"/>
  <line y1="-63.255" style="fill-rule:evenodd;clip-rule:evenodd;fill:none;stroke:#000000;stroke-width:0.8;" x1="79.457" x2="80.331" y2="-65.039"/>
  <line y1="-61.917" style="fill-rule:evenodd;clip-rule:evenodd;fill:none;stroke:#000000;stroke-width:0.8;" x1="73.236" x2="75.214" y2="-62.105"/>
  <line y1="-62.31" style="fill-rule:evenodd;clip-rule:evenodd;fill:none;stroke:#000000;stroke-width:0.8;" x1="68.59" x2="69.975" y2="-63.734"/>
  <line y1="-57.152" style="fill-rule:evenodd;clip-rule:evenodd;fill:none;stroke:#000000;stroke-width:0.8;" x1="77.764" x2="78.208" y2="-59.088"/>
  <line y1="-58.176" style="fill-rule:evenodd;clip-rule:evenodd;fill:none;stroke:#000000;stroke-width:0.8;" x1="73.04" x2="71.12" y2="-58.688"/>
  <line y1="-59.79" style="fill-rule:evenodd;clip-rule:evenodd;fill:none;stroke:#000000;stroke-width:0.8;" x1="66.7" x2="65.956" y2="-61.632"/>
  <line y1="-56.325" style="fill-rule:evenodd;clip-rule:evenodd;fill:none;stroke:#000000;stroke-width:0.8;" x1="68.669" x2="66.869" y2="-55.485"/>
  <line y1="-54.16" style="fill-rule:evenodd;clip-rule:evenodd;fill:none;stroke:#000000;stroke-width:0.8;" x1="74.339" x2="72.642" y2="-53.127"/>
  <line y1="-52.743" style="fill-rule:evenodd;clip-rule:evenodd;fill:none;stroke:#000000;stroke-width:0.8;" x1="80.003" x2="78.273" y2="-53.717"/>
  <line y1="-49.868" style="fill-rule:evenodd;clip-rule:evenodd;fill:none;stroke:#000000;stroke-width:0.8;" x1="75.756" x2="75.987" y2="-51.089"/>
  <line y1="-53.005" style="fill-rule:evenodd;clip-rule:evenodd;fill:none;stroke:#000000;stroke-width:0.8;" x1="67.877" x2="68.835" y2="-51.266"/>
  <line y1="-64.968" style="fill-rule:evenodd;clip-rule:evenodd;fill:none;stroke:#000000;stroke-width:0.8;" x1="75.608" x2="75.874" y2="-66.366"/>
  <line y1="-79.094" style="fill-rule:evenodd;clip-rule:evenodd;fill:none;stroke:#000000;stroke-width:0.8;" x1="16.102" x2="16.975" y2="-80.878"/>
  <line y1="-77.755" style="fill-rule:evenodd;clip-rule:evenodd;fill:none;stroke:#000000;stroke-width:0.8;" x1="9.88" x2="11.858" y2="-77.944"/>
  <line y1="-78.149" style="fill-rule:evenodd;clip-rule:evenodd;fill:none;stroke:#000000;stroke-width:0.8;" x1="5.234" x2="6.619" y2="-79.573"/>
  <line y1="-72.991" style="fill-rule:evenodd;clip-rule:evenodd;fill:none;stroke:#000000;stroke-width:0.8;" x1="14.408" x2="14.852" y2="-74.927"/>
  <line y1="-74.526" style="fill-rule:evenodd;clip-rule:evenodd;fill:none;stroke:#000000;stroke-width:0.8;" x1="7.764" x2="9.684" y2="-74.015"/>
  <line y1="-77.471" style="fill-rule:evenodd;clip-rule:evenodd;fill:none;stroke:#000000;stroke-width:0.8;" x1="2.6" x2="3.344" y2="-75.629"/>
  <line y1="-72.164" style="fill-rule:evenodd;clip-rule:evenodd;fill:none;stroke:#000000;stroke-width:0.8;" x1="5.313" x2="3.513" y2="-71.324"/>
  <line y1="-69.998" style="fill-rule:evenodd;clip-rule:evenodd;fill:none;stroke:#000000;stroke-width:0.8;" x1="10.983" x2="9.286" y2="-68.966"/>
  <line y1="-68.582" style="fill-rule:evenodd;clip-rule:evenodd;fill:none;stroke:#000000;stroke-width:0.8;" x1="16.647" x2="14.917" y2="-69.557"/>
  <line y1="-65.707" style="fill-rule:evenodd;clip-rule:evenodd;fill:none;stroke:#000000;stroke-width:0.8;" x1="12.4" x2="12.631" y2="-66.928"/>
  <line y1="-68.844" style="fill-rule:evenodd;clip-rule:evenodd;fill:none;stroke:#000000;stroke-width:0.8;" x1="4.521" x2="5.479" y2="-67.104"/>
  <line y1="-81.85" style="fill-rule:evenodd;clip-rule:evenodd;fill:none;stroke:#000000;stroke-width:0.8;" x1="12.451" x2="12.252" y2="-80.807"/>
  <line y1="-79.094" style="fill-rule:evenodd;clip-rule:evenodd;fill:none;stroke:#000000;stroke-width:0.8;" x1="31.94" x2="32.814" y2="-80.878"/>
  <line y1="-77.755" style="fill-rule:evenodd;clip-rule:evenodd;fill:none;stroke:#000000;stroke-width:0.8;" x1="25.719" x2="27.697" y2="-77.944"/>
  <line y1="-78.149" style="fill-rule:evenodd;clip-rule:evenodd;fill:none;stroke:#000000;stroke-width:0.8;" x1="21.073" x2="22.458" y2="-79.573"/>
  <line y1="-72.991" style="fill-rule:evenodd;clip-rule:evenodd;fill:none;stroke:#000000;stroke-width:0.8;" x1="30.248" x2="30.691" y2="-74.927"/>
  <line y1="-74.526" style="fill-rule:evenodd;clip-rule:evenodd;fill:none;stroke:#000000;stroke-width:0.8;" x1="23.604" x2="25.522" y2="-74.015"/>
  <line y1="-77.471" style="fill-rule:evenodd;clip-rule:evenodd;fill:none;stroke:#000000;stroke-width:0.8;" x1="18.439" x2="19.183" y2="-75.629"/>
  <line y1="-72.164" style="fill-rule:evenodd;clip-rule:evenodd;fill:none;stroke:#000000;stroke-width:0.8;" x1="21.152" x2="19.352" y2="-71.324"/>
  <line y1="-69.998" style="fill-rule:evenodd;clip-rule:evenodd;fill:none;stroke:#000000;stroke-width:0.8;" x1="26.822" x2="25.125" y2="-68.966"/>
  <line y1="-68.582" style="fill-rule:evenodd;clip-rule:evenodd;fill:none;stroke:#000000;stroke-width:0.8;" x1="32.486" x2="30.756" y2="-69.557"/>
  <line y1="-65.707" style="fill-rule:evenodd;clip-rule:evenodd;fill:none;stroke:#000000;stroke-width:0.8;" x1="28.24" x2="28.47" y2="-66.928"/>
  <line y1="-68.844" style="fill-rule:evenodd;clip-rule:evenodd;fill:none;stroke:#000000;stroke-width:0.8;" x1="20.36" x2="21.319" y2="-67.104"/>
  <line y1="-81.85" style="fill-rule:evenodd;clip-rule:evenodd;fill:none;stroke:#000000;stroke-width:0.8;" x1="28.29" x2="28.091" y2="-80.807"/>
  <line y1="-79.094" style="fill-rule:evenodd;clip-rule:evenodd;fill:none;stroke:#000000;stroke-width:0.8;" x1="47.779" x2="48.653" y2="-80.878"/>
  <line y1="-77.755" style="fill-rule:evenodd;clip-rule:evenodd;fill:none;stroke:#000000;stroke-width:0.8;" x1="41.558" x2="43.536" y2="-77.944"/>
  <line y1="-78.149" style="fill-rule:evenodd;clip-rule:evenodd;fill:none;stroke:#000000;stroke-width:0.8;" x1="36.912" x2="38.297" y2="-79.573"/>
  <line y1="-72.991" style="fill-rule:evenodd;clip-rule:evenodd;fill:none;stroke:#000000;stroke-width:0.8;" x1="46.086" x2="46.53" y2="-74.927"/>
  <line y1="-74.526" style="fill-rule:evenodd;clip-rule:evenodd;fill:none;stroke:#000000;stroke-width:0.8;" x1="39.442" x2="41.361" y2="-74.015"/>
  <line y1="-77.471" style="fill-rule:evenodd;clip-rule:evenodd;fill:none;stroke:#000000;stroke-width:0.8;" x1="34.278" x2="35.022" y2="-75.629"/>
  <line y1="-72.164" style="fill-rule:evenodd;clip-rule:evenodd;fill:none;stroke:#000000;stroke-width:0.8;" x1="36.991" x2="35.191" y2="-71.324"/>
  <line y1="-69.998" style="fill-rule:evenodd;clip-rule:evenodd;fill:none;stroke:#000000;stroke-width:0.8;" x1="42.661" x2="40.964" y2="-68.966"/>
  <line y1="-68.582" style="fill-rule:evenodd;clip-rule:evenodd;fill:none;stroke:#000000;stroke-width:0.8;" x1="48.325" x2="46.595" y2="-69.557"/>
  <line y1="-65.707" style="fill-rule:evenodd;clip-rule:evenodd;fill:none;stroke:#000000;stroke-width:0.8;" x1="44.079" x2="44.309" y2="-66.928"/>
  <line y1="-68.844" style="fill-rule:evenodd;clip-rule:evenodd;fill:none;stroke:#000000;stroke-width:0.8;" x1="36.199" x2="37.158" y2="-67.104"/>
  <line y1="-81.85" style="fill-rule:evenodd;clip-rule:evenodd;fill:none;stroke:#000000;stroke-width:0.8;" x1="44.129" x2="43.93" y2="-80.807"/>
  <line y1="-79.094" style="fill-rule:evenodd;clip-rule:evenodd;fill:none;stroke:#000000;stroke-width:0.8;" x1="63.619" x2="64.492" y2="-80.878"/>
  <line y1="-77.755" style="fill-rule:evenodd;clip-rule:evenodd;fill:none;stroke:#000000;stroke-width:0.8;" x1="57.397" x2="59.375" y2="-77.944"/>
  <line y1="-78.149" style="fill-rule:evenodd;clip-rule:evenodd;fill:none;stroke:#000000;stroke-width:0.8;" x1="52.751" x2="54.136" y2="-79.573"/>
  <line y1="-72.991" style="fill-rule:evenodd;clip-rule:evenodd;fill:none;stroke:#000000;stroke-width:0.8;" x1="61.925" x2="62.369" y2="-74.927"/>
  <line y1="-74.526" style="fill-rule:evenodd;clip-rule:evenodd;fill:none;stroke:#000000;stroke-width:0.8;" x1="55.281" x2="57.2" y2="-74.015"/>
  <line y1="-77.471" style="fill-rule:evenodd;clip-rule:evenodd;fill:none;stroke:#000000;stroke-width:0.8;" x1="50.117" x2="50.861" y2="-75.629"/>
  <line y1="-72.164" style="fill-rule:evenodd;clip-rule:evenodd;fill:none;stroke:#000000;stroke-width:0.8;" x1="52.83" x2="51.03" y2="-71.324"/>
  <line y1="-69.998" style="fill-rule:evenodd;clip-rule:evenodd;fill:none;stroke:#000000;stroke-width:0.8;" x1="58.5" x2="56.803" y2="-68.966"/>
  <line y1="-68.582" style="fill-rule:evenodd;clip-rule:evenodd;fill:none;stroke:#000000;stroke-width:0.8;" x1="64.165" x2="62.434" y2="-69.557"/>
  <line y1="-65.707" style="fill-rule:evenodd;clip-rule:evenodd;fill:none;stroke:#000000;stroke-width:0.8;" x1="59.917" x2="60.148" y2="-66.928"/>
  <line y1="-68.844" style="fill-rule:evenodd;clip-rule:evenodd;fill:none;stroke:#000000;stroke-width:0.8;" x1="52.038" x2="52.997" y2="-67.104"/>
  <line y1="-81.85" style="fill-rule:evenodd;clip-rule:evenodd;fill:none;stroke:#000000;stroke-width:0.8;" x1="59.968" x2="59.769" y2="-80.807"/>
  <line y1="-79.094" style="fill-rule:evenodd;clip-rule:evenodd;fill:none;stroke:#000000;stroke-width:0.8;" x1="79.457" x2="80.331" y2="-80.878"/>
  <line y1="-77.755" style="fill-rule:evenodd;clip-rule:evenodd;fill:none;stroke:#000000;stroke-width:0.8;" x1="73.236" x2="75.214" y2="-77.944"/>
  <line y1="-78.149" style="fill-rule:evenodd;clip-rule:evenodd;fill:none;stroke:#000000;stroke-width:0.8;" x1="68.59" x2="69.975" y2="-79.573"/>
  <line y1="-72.991" style="fill-rule:evenodd;clip-rule:evenodd;fill:none;stroke:#000000;stroke-width:0.8;" x1="77.764" x2="78.208" y2="-74.927"/>
  <line y1="-74.526" style="fill-rule:evenodd;clip-rule:evenodd;fill:none;stroke:#000000;stroke-width:0.8;" x1="71.12" x2="73.04" y2="-74.015"/>
  <line y1="-77.471" style="fill-rule:evenodd;clip-rule:evenodd;fill:none;stroke:#000000;stroke-width:0.8;" x1="65.956" x2="66.7" y2="-75.629"/>
  <line y1="-72.164" style="fill-rule:evenodd;clip-rule:evenodd;fill:none;stroke:#000000;stroke-width:0.8;" x1="68.669" x2="66.869" y2="-71.324"/>
  <line y1="-69.998" style="fill-rule:evenodd;clip-rule:evenodd;fill:none;stroke:#000000;stroke-width:0.8;" x1="74.339" x2="72.642" y2="-68.966"/>
  <line y1="-68.582" style="fill-rule:evenodd;clip-rule:evenodd;fill:none;stroke:#000000;stroke-width:0.8;" x1="80.003" x2="78.273" y2="-69.557"/>
  <line y1="-65.707" style="fill-rule:evenodd;clip-rule:evenodd;fill:none;stroke:#000000;stroke-width:0.8;" x1="75.756" x2="75.987" y2="-66.928"/>
  <line y1="-68.844" style="fill-rule:evenodd;clip-rule:evenodd;fill:none;stroke:#000000;stroke-width:0.8;" x1="67.877" x2="68.835" y2="-67.104"/>
  <line y1="-81.85" style="fill-rule:evenodd;clip-rule:evenodd;fill:none;stroke:#000000;stroke-width:0.8;" x1="75.807" x2="75.608" y2="-80.807"/>
 </g>
</svg>
