<?xml version="1.0"?>
<!-- Converted with SVG Converter - Version 0.9.5 (Compiled Fri Feb 21 09:53:38 2020) - Copyright (C) 2011 Nokia -->
<svg xmlns="http://www.w3.org/2000/svg" x="0px" y="0px" xmlns:xlink="http://www.w3.org/1999/xlink" version="1.1" baseProfile="tiny" height="90.647" viewBox="1.084 -92.389 90.647 90.647" xml:space="preserve" width="90.647">
 <g>
  <rect x="1.084" y="-92.389" style="fill:none;" height="90.647" width="90.647"/>
  <line x2="22.696" style="fill-rule:evenodd;clip-rule:evenodd;fill:none;stroke:#00AEEF;stroke-width:0.58;" y2="-32.281" x1="21.448" y1="-29.733"/>
  <line x2="15.386" style="fill-rule:evenodd;clip-rule:evenodd;fill:none;stroke:#00AEEF;stroke-width:0.58;" y2="-28.09" x1="12.561" y1="-27.82"/>
  <line x2="7.901" style="fill-rule:evenodd;clip-rule:evenodd;fill:none;stroke:#00AEEF;stroke-width:0.58;" y2="-30.418" x1="5.923" y1="-28.383"/>
  <line x2="19.029" style="fill-rule:evenodd;clip-rule:evenodd;fill:none;stroke:#00AEEF;stroke-width:0.58;" y2="-21.015" x1="19.664" y1="-23.78"/>
  <line x2="9.538" style="fill-rule:evenodd;clip-rule:evenodd;fill:none;stroke:#00AEEF;stroke-width:0.58;" y2="-23.208" x1="12.279" y1="-22.478"/>
  <line x2="2.16" style="fill-rule:evenodd;clip-rule:evenodd;fill:none;stroke:#00AEEF;stroke-width:0.58;" y2="-27.414" x1="3.224" y1="-24.783"/>
  <line x2="3.464" style="fill-rule:evenodd;clip-rule:evenodd;fill:none;stroke:#00AEEF;stroke-width:0.58;" y2="-18.634" x1="6.036" y1="-19.833"/>
  <line x2="11.712" style="fill-rule:evenodd;clip-rule:evenodd;fill:none;stroke:#00AEEF;stroke-width:0.58;" y2="-15.265" x1="14.136" y1="-16.739"/>
  <line x2="19.756" style="fill-rule:evenodd;clip-rule:evenodd;fill:none;stroke:#00AEEF;stroke-width:0.58;" y2="-16.108" x1="22.228" y1="-14.716"/>
  <line x2="4.905" style="fill-rule:evenodd;clip-rule:evenodd;fill:none;stroke:#00AEEF;stroke-width:0.58;" y2="-15.091" x1="6.274" y1="-12.606"/>
  <line x2="45.375" style="fill-rule:evenodd;clip-rule:evenodd;fill:none;stroke:#00AEEF;stroke-width:0.58;" y2="-32.281" x1="44.127" y1="-29.733"/>
  <line x2="38.065" style="fill-rule:evenodd;clip-rule:evenodd;fill:none;stroke:#00AEEF;stroke-width:0.58;" y2="-28.09" x1="35.24" y1="-27.82"/>
  <line x2="30.581" style="fill-rule:evenodd;clip-rule:evenodd;fill:none;stroke:#00AEEF;stroke-width:0.58;" y2="-30.418" x1="28.603" y1="-28.383"/>
  <line x2="41.708" style="fill-rule:evenodd;clip-rule:evenodd;fill:none;stroke:#00AEEF;stroke-width:0.58;" y2="-21.015" x1="42.343" y1="-23.78"/>
  <line x2="32.217" style="fill-rule:evenodd;clip-rule:evenodd;fill:none;stroke:#00AEEF;stroke-width:0.58;" y2="-23.208" x1="34.958" y1="-22.478"/>
  <line x2="24.839" style="fill-rule:evenodd;clip-rule:evenodd;fill:none;stroke:#00AEEF;stroke-width:0.58;" y2="-27.414" x1="25.902" y1="-24.783"/>
  <line x2="26.144" style="fill-rule:evenodd;clip-rule:evenodd;fill:none;stroke:#00AEEF;stroke-width:0.58;" y2="-18.634" x1="28.715" y1="-19.833"/>
  <line x2="34.391" style="fill-rule:evenodd;clip-rule:evenodd;fill:none;stroke:#00AEEF;stroke-width:0.58;" y2="-15.265" x1="36.815" y1="-16.739"/>
  <line x2="42.435" style="fill-rule:evenodd;clip-rule:evenodd;fill:none;stroke:#00AEEF;stroke-width:0.58;" y2="-16.108" x1="44.907" y1="-14.716"/>
  <line x2="27.584" style="fill-rule:evenodd;clip-rule:evenodd;fill:none;stroke:#00AEEF;stroke-width:0.58;" y2="-15.091" x1="28.953" y1="-12.606"/>
  <line x2="68.055" style="fill-rule:evenodd;clip-rule:evenodd;fill:none;stroke:#00AEEF;stroke-width:0.58;" y2="-32.281" x1="66.806" y1="-29.733"/>
  <line x2="60.744" style="fill-rule:evenodd;clip-rule:evenodd;fill:none;stroke:#00AEEF;stroke-width:0.58;" y2="-28.09" x1="57.919" y1="-27.82"/>
  <line x2="53.26" style="fill-rule:evenodd;clip-rule:evenodd;fill:none;stroke:#00AEEF;stroke-width:0.58;" y2="-30.418" x1="51.282" y1="-28.383"/>
  <line x2="64.388" style="fill-rule:evenodd;clip-rule:evenodd;fill:none;stroke:#00AEEF;stroke-width:0.58;" y2="-21.015" x1="65.021" y1="-23.78"/>
  <line x2="54.896" style="fill-rule:evenodd;clip-rule:evenodd;fill:none;stroke:#00AEEF;stroke-width:0.58;" y2="-23.208" x1="57.638" y1="-22.478"/>
  <line x2="47.518" style="fill-rule:evenodd;clip-rule:evenodd;fill:none;stroke:#00AEEF;stroke-width:0.58;" y2="-27.414" x1="48.582" y1="-24.783"/>
  <line x2="48.823" style="fill-rule:evenodd;clip-rule:evenodd;fill:none;stroke:#00AEEF;stroke-width:0.58;" y2="-18.634" x1="51.394" y1="-19.833"/>
  <line x2="57.07" style="fill-rule:evenodd;clip-rule:evenodd;fill:none;stroke:#00AEEF;stroke-width:0.58;" y2="-15.265" x1="59.494" y1="-16.739"/>
  <line x2="65.114" style="fill-rule:evenodd;clip-rule:evenodd;fill:none;stroke:#00AEEF;stroke-width:0.58;" y2="-16.108" x1="67.586" y1="-14.716"/>
  <line x2="50.263" style="fill-rule:evenodd;clip-rule:evenodd;fill:none;stroke:#00AEEF;stroke-width:0.58;" y2="-15.091" x1="51.632" y1="-12.606"/>
  <line x2="90.733" style="fill-rule:evenodd;clip-rule:evenodd;fill:none;stroke:#00AEEF;stroke-width:0.58;" y2="-32.281" x1="89.485" y1="-29.733"/>
  <line x2="83.423" style="fill-rule:evenodd;clip-rule:evenodd;fill:none;stroke:#00AEEF;stroke-width:0.58;" y2="-28.09" x1="80.598" y1="-27.82"/>
  <line x2="75.939" style="fill-rule:evenodd;clip-rule:evenodd;fill:none;stroke:#00AEEF;stroke-width:0.58;" y2="-30.418" x1="73.961" y1="-28.383"/>
  <line x2="87.067" style="fill-rule:evenodd;clip-rule:evenodd;fill:none;stroke:#00AEEF;stroke-width:0.58;" y2="-21.015" x1="87.701" y1="-23.78"/>
  <line x2="77.575" style="fill-rule:evenodd;clip-rule:evenodd;fill:none;stroke:#00AEEF;stroke-width:0.58;" y2="-23.208" x1="80.317" y1="-22.478"/>
  <line x2="70.197" style="fill-rule:evenodd;clip-rule:evenodd;fill:none;stroke:#00AEEF;stroke-width:0.58;" y2="-27.414" x1="71.261" y1="-24.783"/>
  <line x2="71.502" style="fill-rule:evenodd;clip-rule:evenodd;fill:none;stroke:#00AEEF;stroke-width:0.58;" y2="-18.634" x1="74.073" y1="-19.833"/>
  <line x2="79.749" style="fill-rule:evenodd;clip-rule:evenodd;fill:none;stroke:#00AEEF;stroke-width:0.58;" y2="-15.265" x1="82.173" y1="-16.739"/>
  <line x2="87.793" style="fill-rule:evenodd;clip-rule:evenodd;fill:none;stroke:#00AEEF;stroke-width:0.58;" y2="-16.108" x1="90.265" y1="-14.716"/>
  <line x2="72.942" style="fill-rule:evenodd;clip-rule:evenodd;fill:none;stroke:#00AEEF;stroke-width:0.58;" y2="-15.091" x1="74.312" y1="-12.606"/>
  <line x2="22.696" style="fill-rule:evenodd;clip-rule:evenodd;fill:none;stroke:#00AEEF;stroke-width:0.58;" y2="-54.961" x1="21.448" y1="-52.413"/>
  <line x2="15.386" style="fill-rule:evenodd;clip-rule:evenodd;fill:none;stroke:#00AEEF;stroke-width:0.58;" y2="-50.769" x1="12.561" y1="-50.5"/>
  <line x2="7.901" style="fill-rule:evenodd;clip-rule:evenodd;fill:none;stroke:#00AEEF;stroke-width:0.58;" y2="-53.097" x1="5.923" y1="-51.062"/>
  <line x2="19.664" style="fill-rule:evenodd;clip-rule:evenodd;fill:none;stroke:#00AEEF;stroke-width:0.58;" y2="-46.459" x1="19.029" y1="-43.694"/>
  <line x2="9.538" style="fill-rule:evenodd;clip-rule:evenodd;fill:none;stroke:#00AEEF;stroke-width:0.58;" y2="-45.887" x1="12.279" y1="-45.156"/>
  <line x2="2.16" style="fill-rule:evenodd;clip-rule:evenodd;fill:none;stroke:#00AEEF;stroke-width:0.58;" y2="-50.093" x1="3.224" y1="-47.462"/>
  <line x2="3.464" style="fill-rule:evenodd;clip-rule:evenodd;fill:none;stroke:#00AEEF;stroke-width:0.58;" y2="-41.312" x1="6.036" y1="-42.513"/>
  <line x2="11.712" style="fill-rule:evenodd;clip-rule:evenodd;fill:none;stroke:#00AEEF;stroke-width:0.58;" y2="-37.943" x1="14.136" y1="-39.418"/>
  <line x2="19.756" style="fill-rule:evenodd;clip-rule:evenodd;fill:none;stroke:#00AEEF;stroke-width:0.58;" y2="-38.787" x1="22.228" y1="-37.395"/>
  <line x2="16.491" style="fill-rule:evenodd;clip-rule:evenodd;fill:none;stroke:#00AEEF;stroke-width:0.58;" y2="-35.032" x1="15.949" y1="-32.18"/>
  <line x2="6.274" style="fill-rule:evenodd;clip-rule:evenodd;fill:none;stroke:#00AEEF;stroke-width:0.58;" y2="-35.284" x1="4.905" y1="-37.77"/>
  <line x2="45.375" style="fill-rule:evenodd;clip-rule:evenodd;fill:none;stroke:#00AEEF;stroke-width:0.58;" y2="-54.961" x1="44.127" y1="-52.413"/>
  <line x2="38.065" style="fill-rule:evenodd;clip-rule:evenodd;fill:none;stroke:#00AEEF;stroke-width:0.58;" y2="-50.769" x1="35.24" y1="-50.5"/>
  <line x2="30.581" style="fill-rule:evenodd;clip-rule:evenodd;fill:none;stroke:#00AEEF;stroke-width:0.58;" y2="-53.097" x1="28.603" y1="-51.062"/>
  <line x2="42.343" style="fill-rule:evenodd;clip-rule:evenodd;fill:none;stroke:#00AEEF;stroke-width:0.58;" y2="-46.459" x1="41.708" y1="-43.694"/>
  <line x2="32.217" style="fill-rule:evenodd;clip-rule:evenodd;fill:none;stroke:#00AEEF;stroke-width:0.58;" y2="-45.887" x1="34.958" y1="-45.156"/>
  <line x2="24.839" style="fill-rule:evenodd;clip-rule:evenodd;fill:none;stroke:#00AEEF;stroke-width:0.58;" y2="-50.093" x1="25.902" y1="-47.462"/>
  <line x2="26.144" style="fill-rule:evenodd;clip-rule:evenodd;fill:none;stroke:#00AEEF;stroke-width:0.58;" y2="-41.312" x1="28.715" y1="-42.513"/>
  <line x2="34.391" style="fill-rule:evenodd;clip-rule:evenodd;fill:none;stroke:#00AEEF;stroke-width:0.58;" y2="-37.943" x1="36.815" y1="-39.418"/>
  <line x2="42.435" style="fill-rule:evenodd;clip-rule:evenodd;fill:none;stroke:#00AEEF;stroke-width:0.58;" y2="-38.787" x1="44.907" y1="-37.395"/>
  <line x2="28.953" style="fill-rule:evenodd;clip-rule:evenodd;fill:none;stroke:#00AEEF;stroke-width:0.58;" y2="-35.284" x1="27.584" y1="-37.77"/>
  <line x2="68.055" style="fill-rule:evenodd;clip-rule:evenodd;fill:none;stroke:#00AEEF;stroke-width:0.58;" y2="-54.961" x1="66.806" y1="-52.413"/>
  <line x2="60.744" style="fill-rule:evenodd;clip-rule:evenodd;fill:none;stroke:#00AEEF;stroke-width:0.58;" y2="-50.769" x1="57.919" y1="-50.5"/>
  <line x2="53.26" style="fill-rule:evenodd;clip-rule:evenodd;fill:none;stroke:#00AEEF;stroke-width:0.58;" y2="-53.097" x1="51.282" y1="-51.062"/>
  <line x2="65.021" style="fill-rule:evenodd;clip-rule:evenodd;fill:none;stroke:#00AEEF;stroke-width:0.58;" y2="-46.459" x1="64.388" y1="-43.694"/>
  <line x2="54.896" style="fill-rule:evenodd;clip-rule:evenodd;fill:none;stroke:#00AEEF;stroke-width:0.58;" y2="-45.887" x1="57.638" y1="-45.156"/>
  <line x2="47.518" style="fill-rule:evenodd;clip-rule:evenodd;fill:none;stroke:#00AEEF;stroke-width:0.58;" y2="-50.093" x1="48.582" y1="-47.462"/>
  <line x2="48.823" style="fill-rule:evenodd;clip-rule:evenodd;fill:none;stroke:#00AEEF;stroke-width:0.58;" y2="-41.312" x1="51.394" y1="-42.513"/>
  <line x2="57.07" style="fill-rule:evenodd;clip-rule:evenodd;fill:none;stroke:#00AEEF;stroke-width:0.58;" y2="-37.943" x1="59.494" y1="-39.418"/>
  <line x2="65.114" style="fill-rule:evenodd;clip-rule:evenodd;fill:none;stroke:#00AEEF;stroke-width:0.58;" y2="-38.787" x1="67.586" y1="-37.395"/>
  <line x2="51.632" style="fill-rule:evenodd;clip-rule:evenodd;fill:none;stroke:#00AEEF;stroke-width:0.58;" y2="-35.284" x1="50.263" y1="-37.77"/>
  <line x2="90.733" style="fill-rule:evenodd;clip-rule:evenodd;fill:none;stroke:#00AEEF;stroke-width:0.58;" y2="-54.961" x1="89.485" y1="-52.413"/>
  <line x2="83.423" style="fill-rule:evenodd;clip-rule:evenodd;fill:none;stroke:#00AEEF;stroke-width:0.58;" y2="-50.769" x1="80.598" y1="-50.5"/>
  <line x2="75.939" style="fill-rule:evenodd;clip-rule:evenodd;fill:none;stroke:#00AEEF;stroke-width:0.58;" y2="-53.097" x1="73.961" y1="-51.062"/>
  <line x2="87.701" style="fill-rule:evenodd;clip-rule:evenodd;fill:none;stroke:#00AEEF;stroke-width:0.58;" y2="-46.459" x1="87.067" y1="-43.694"/>
  <line x2="77.575" style="fill-rule:evenodd;clip-rule:evenodd;fill:none;stroke:#00AEEF;stroke-width:0.58;" y2="-45.887" x1="80.317" y1="-45.156"/>
  <line x2="70.197" style="fill-rule:evenodd;clip-rule:evenodd;fill:none;stroke:#00AEEF;stroke-width:0.58;" y2="-50.093" x1="71.261" y1="-47.462"/>
  <line x2="71.502" style="fill-rule:evenodd;clip-rule:evenodd;fill:none;stroke:#00AEEF;stroke-width:0.58;" y2="-41.312" x1="74.073" y1="-42.513"/>
  <line x2="79.749" style="fill-rule:evenodd;clip-rule:evenodd;fill:none;stroke:#00AEEF;stroke-width:0.58;" y2="-37.943" x1="82.173" y1="-39.418"/>
  <line x2="87.793" style="fill-rule:evenodd;clip-rule:evenodd;fill:none;stroke:#00AEEF;stroke-width:0.58;" y2="-38.787" x1="90.265" y1="-37.395"/>
  <line x2="74.312" style="fill-rule:evenodd;clip-rule:evenodd;fill:none;stroke:#00AEEF;stroke-width:0.58;" y2="-35.284" x1="72.942" y1="-37.77"/>
  <line x2="22.696" style="fill-rule:evenodd;clip-rule:evenodd;fill:none;stroke:#00AEEF;stroke-width:0.58;" y2="-77.64" x1="21.448" y1="-75.091"/>
  <line x2="15.386" style="fill-rule:evenodd;clip-rule:evenodd;fill:none;stroke:#00AEEF;stroke-width:0.58;" y2="-73.448" x1="12.561" y1="-73.179"/>
  <line x2="7.901" style="fill-rule:evenodd;clip-rule:evenodd;fill:none;stroke:#00AEEF;stroke-width:0.58;" y2="-75.776" x1="5.923" y1="-73.741"/>
  <line x2="19.664" style="fill-rule:evenodd;clip-rule:evenodd;fill:none;stroke:#00AEEF;stroke-width:0.58;" y2="-69.139" x1="19.029" y1="-66.373"/>
  <line x2="9.538" style="fill-rule:evenodd;clip-rule:evenodd;fill:none;stroke:#00AEEF;stroke-width:0.58;" y2="-68.566" x1="12.279" y1="-67.835"/>
  <line x2="2.16" style="fill-rule:evenodd;clip-rule:evenodd;fill:none;stroke:#00AEEF;stroke-width:0.58;" y2="-72.772" x1="3.224" y1="-70.142"/>
  <line x2="3.464" style="fill-rule:evenodd;clip-rule:evenodd;fill:none;stroke:#00AEEF;stroke-width:0.58;" y2="-63.992" x1="6.036" y1="-65.191"/>
  <line x2="11.712" style="fill-rule:evenodd;clip-rule:evenodd;fill:none;stroke:#00AEEF;stroke-width:0.58;" y2="-60.623" x1="14.136" y1="-62.098"/>
  <line x2="19.756" style="fill-rule:evenodd;clip-rule:evenodd;fill:none;stroke:#00AEEF;stroke-width:0.58;" y2="-61.466" x1="22.228" y1="-60.074"/>
  <line x2="6.274" style="fill-rule:evenodd;clip-rule:evenodd;fill:none;stroke:#00AEEF;stroke-width:0.58;" y2="-57.963" x1="4.905" y1="-60.449"/>
  <line x2="45.375" style="fill-rule:evenodd;clip-rule:evenodd;fill:none;stroke:#00AEEF;stroke-width:0.58;" y2="-77.64" x1="44.127" y1="-75.091"/>
  <line x2="38.065" style="fill-rule:evenodd;clip-rule:evenodd;fill:none;stroke:#00AEEF;stroke-width:0.58;" y2="-73.448" x1="35.24" y1="-73.179"/>
  <line x2="30.581" style="fill-rule:evenodd;clip-rule:evenodd;fill:none;stroke:#00AEEF;stroke-width:0.58;" y2="-75.776" x1="28.603" y1="-73.741"/>
  <line x2="42.343" style="fill-rule:evenodd;clip-rule:evenodd;fill:none;stroke:#00AEEF;stroke-width:0.58;" y2="-69.139" x1="41.708" y1="-66.373"/>
  <line x2="32.217" style="fill-rule:evenodd;clip-rule:evenodd;fill:none;stroke:#00AEEF;stroke-width:0.58;" y2="-68.566" x1="34.958" y1="-67.835"/>
  <line x2="24.839" style="fill-rule:evenodd;clip-rule:evenodd;fill:none;stroke:#00AEEF;stroke-width:0.58;" y2="-72.772" x1="25.902" y1="-70.142"/>
  <line x2="26.144" style="fill-rule:evenodd;clip-rule:evenodd;fill:none;stroke:#00AEEF;stroke-width:0.58;" y2="-63.992" x1="28.715" y1="-65.191"/>
  <line x2="34.391" style="fill-rule:evenodd;clip-rule:evenodd;fill:none;stroke:#00AEEF;stroke-width:0.58;" y2="-60.623" x1="36.815" y1="-62.098"/>
  <line x2="42.435" style="fill-rule:evenodd;clip-rule:evenodd;fill:none;stroke:#00AEEF;stroke-width:0.58;" y2="-61.466" x1="44.907" y1="-60.074"/>
  <line x2="28.953" style="fill-rule:evenodd;clip-rule:evenodd;fill:none;stroke:#00AEEF;stroke-width:0.58;" y2="-57.963" x1="27.584" y1="-60.449"/>
  <line x2="68.055" style="fill-rule:evenodd;clip-rule:evenodd;fill:none;stroke:#00AEEF;stroke-width:0.58;" y2="-77.64" x1="66.806" y1="-75.091"/>
  <line x2="60.744" style="fill-rule:evenodd;clip-rule:evenodd;fill:none;stroke:#00AEEF;stroke-width:0.58;" y2="-73.448" x1="57.919" y1="-73.179"/>
  <line x2="53.26" style="fill-rule:evenodd;clip-rule:evenodd;fill:none;stroke:#00AEEF;stroke-width:0.58;" y2="-75.776" x1="51.282" y1="-73.741"/>
  <line x2="65.021" style="fill-rule:evenodd;clip-rule:evenodd;fill:none;stroke:#00AEEF;stroke-width:0.58;" y2="-69.139" x1="64.388" y1="-66.373"/>
  <line x2="54.896" style="fill-rule:evenodd;clip-rule:evenodd;fill:none;stroke:#00AEEF;stroke-width:0.58;" y2="-68.566" x1="57.638" y1="-67.835"/>
  <line x2="47.518" style="fill-rule:evenodd;clip-rule:evenodd;fill:none;stroke:#00AEEF;stroke-width:0.58;" y2="-72.772" x1="48.582" y1="-70.142"/>
  <line x2="48.823" style="fill-rule:evenodd;clip-rule:evenodd;fill:none;stroke:#00AEEF;stroke-width:0.58;" y2="-63.992" x1="51.394" y1="-65.191"/>
  <line x2="57.07" style="fill-rule:evenodd;clip-rule:evenodd;fill:none;stroke:#00AEEF;stroke-width:0.58;" y2="-60.623" x1="59.494" y1="-62.098"/>
  <line x2="65.114" style="fill-rule:evenodd;clip-rule:evenodd;fill:none;stroke:#00AEEF;stroke-width:0.58;" y2="-61.466" x1="67.586" y1="-60.074"/>
  <line x2="51.632" style="fill-rule:evenodd;clip-rule:evenodd;fill:none;stroke:#00AEEF;stroke-width:0.58;" y2="-57.963" x1="50.263" y1="-60.449"/>
  <line x2="90.733" style="fill-rule:evenodd;clip-rule:evenodd;fill:none;stroke:#00AEEF;stroke-width:0.58;" y2="-77.64" x1="89.485" y1="-75.091"/>
  <line x2="83.423" style="fill-rule:evenodd;clip-rule:evenodd;fill:none;stroke:#00AEEF;stroke-width:0.58;" y2="-73.448" x1="80.598" y1="-73.179"/>
  <line x2="75.939" style="fill-rule:evenodd;clip-rule:evenodd;fill:none;stroke:#00AEEF;stroke-width:0.58;" y2="-75.776" x1="73.961" y1="-73.741"/>
  <line x2="87.701" style="fill-rule:evenodd;clip-rule:evenodd;fill:none;stroke:#00AEEF;stroke-width:0.58;" y2="-69.139" x1="87.067" y1="-66.373"/>
  <line x2="77.575" style="fill-rule:evenodd;clip-rule:evenodd;fill:none;stroke:#00AEEF;stroke-width:0.58;" y2="-68.566" x1="80.317" y1="-67.835"/>
  <line x2="70.197" style="fill-rule:evenodd;clip-rule:evenodd;fill:none;stroke:#00AEEF;stroke-width:0.58;" y2="-72.772" x1="71.261" y1="-70.142"/>
  <line x2="71.502" style="fill-rule:evenodd;clip-rule:evenodd;fill:none;stroke:#00AEEF;stroke-width:0.58;" y2="-63.992" x1="74.073" y1="-65.191"/>
  <line x2="79.749" style="fill-rule:evenodd;clip-rule:evenodd;fill:none;stroke:#00AEEF;stroke-width:0.58;" y2="-60.623" x1="82.173" y1="-62.098"/>
  <line x2="87.793" style="fill-rule:evenodd;clip-rule:evenodd;fill:none;stroke:#00AEEF;stroke-width:0.58;" y2="-61.466" x1="90.265" y1="-60.074"/>
  <line x2="74.312" style="fill-rule:evenodd;clip-rule:evenodd;fill:none;stroke:#00AEEF;stroke-width:0.58;" y2="-57.963" x1="72.942" y1="-60.449"/>
  <line x2="19.664" style="fill-rule:evenodd;clip-rule:evenodd;fill:none;stroke:#00AEEF;stroke-width:0.58;" y2="-91.818" x1="19.029" y1="-89.052"/>
  <line x2="12.279" style="fill-rule:evenodd;clip-rule:evenodd;fill:none;stroke:#00AEEF;stroke-width:0.58;" y2="-90.514" x1="9.538" y1="-91.245"/>
  <line x2="3.464" style="fill-rule:evenodd;clip-rule:evenodd;fill:none;stroke:#00AEEF;stroke-width:0.58;" y2="-86.67" x1="6.036" y1="-87.871"/>
  <line x2="11.712" style="fill-rule:evenodd;clip-rule:evenodd;fill:none;stroke:#00AEEF;stroke-width:0.58;" y2="-83.301" x1="14.136" y1="-84.777"/>
  <line x2="19.756" style="fill-rule:evenodd;clip-rule:evenodd;fill:none;stroke:#00AEEF;stroke-width:0.58;" y2="-84.145" x1="22.228" y1="-82.753"/>
  <line x2="6.274" style="fill-rule:evenodd;clip-rule:evenodd;fill:none;stroke:#00AEEF;stroke-width:0.58;" y2="-80.643" x1="4.905" y1="-83.127"/>
  <line x2="42.343" style="fill-rule:evenodd;clip-rule:evenodd;fill:none;stroke:#00AEEF;stroke-width:0.58;" y2="-91.818" x1="41.708" y1="-89.052"/>
  <line x2="34.958" style="fill-rule:evenodd;clip-rule:evenodd;fill:none;stroke:#00AEEF;stroke-width:0.58;" y2="-90.514" x1="32.217" y1="-91.245"/>
  <line x2="26.144" style="fill-rule:evenodd;clip-rule:evenodd;fill:none;stroke:#00AEEF;stroke-width:0.58;" y2="-86.67" x1="28.715" y1="-87.871"/>
  <line x2="34.391" style="fill-rule:evenodd;clip-rule:evenodd;fill:none;stroke:#00AEEF;stroke-width:0.58;" y2="-83.301" x1="36.815" y1="-84.777"/>
  <line x2="42.435" style="fill-rule:evenodd;clip-rule:evenodd;fill:none;stroke:#00AEEF;stroke-width:0.58;" y2="-84.145" x1="44.907" y1="-82.753"/>
  <line x2="28.953" style="fill-rule:evenodd;clip-rule:evenodd;fill:none;stroke:#00AEEF;stroke-width:0.58;" y2="-80.643" x1="27.584" y1="-83.127"/>
  <line x2="65.021" style="fill-rule:evenodd;clip-rule:evenodd;fill:none;stroke:#00AEEF;stroke-width:0.58;" y2="-91.818" x1="64.388" y1="-89.052"/>
  <line x2="57.638" style="fill-rule:evenodd;clip-rule:evenodd;fill:none;stroke:#00AEEF;stroke-width:0.58;" y2="-90.514" x1="54.896" y1="-91.245"/>
  <line x2="48.823" style="fill-rule:evenodd;clip-rule:evenodd;fill:none;stroke:#00AEEF;stroke-width:0.58;" y2="-86.67" x1="51.394" y1="-87.871"/>
  <line x2="57.07" style="fill-rule:evenodd;clip-rule:evenodd;fill:none;stroke:#00AEEF;stroke-width:0.58;" y2="-83.301" x1="59.494" y1="-84.777"/>
  <line x2="65.114" style="fill-rule:evenodd;clip-rule:evenodd;fill:none;stroke:#00AEEF;stroke-width:0.58;" y2="-84.145" x1="67.586" y1="-82.753"/>
  <line x2="51.632" style="fill-rule:evenodd;clip-rule:evenodd;fill:none;stroke:#00AEEF;stroke-width:0.58;" y2="-80.643" x1="50.263" y1="-83.127"/>
  <line x2="87.701" style="fill-rule:evenodd;clip-rule:evenodd;fill:none;stroke:#00AEEF;stroke-width:0.58;" y2="-91.818" x1="87.067" y1="-89.052"/>
  <line x2="80.317" style="fill-rule:evenodd;clip-rule:evenodd;fill:none;stroke:#00AEEF;stroke-width:0.58;" y2="-90.514" x1="77.575" y1="-91.245"/>
  <line x2="71.502" style="fill-rule:evenodd;clip-rule:evenodd;fill:none;stroke:#00AEEF;stroke-width:0.58;" y2="-86.67" x1="74.073" y1="-87.871"/>
  <line x2="79.749" style="fill-rule:evenodd;clip-rule:evenodd;fill:none;stroke:#00AEEF;stroke-width:0.58;" y2="-83.301" x1="82.173" y1="-84.777"/>
  <line x2="87.793" style="fill-rule:evenodd;clip-rule:evenodd;fill:none;stroke:#00AEEF;stroke-width:0.58;" y2="-84.145" x1="90.265" y1="-82.753"/>
  <line x2="74.312" style="fill-rule:evenodd;clip-rule:evenodd;fill:none;stroke:#00AEEF;stroke-width:0.58;" y2="-80.643" x1="72.942" y1="-83.127"/>
  <line x2="39.17" style="fill-rule:evenodd;clip-rule:evenodd;fill:none;stroke:#00AEEF;stroke-width:0.58;" y2="-35.032" x1="38.628" y1="-32.18"/>
  <line x2="61.849" style="fill-rule:evenodd;clip-rule:evenodd;fill:none;stroke:#00AEEF;stroke-width:0.58;" y2="-35.032" x1="61.307" y1="-32.18"/>
  <line x2="84.528" style="fill-rule:evenodd;clip-rule:evenodd;fill:none;stroke:#00AEEF;stroke-width:0.58;" y2="-35.032" x1="83.986" y1="-32.18"/>
  <line x2="84.528" style="fill-rule:evenodd;clip-rule:evenodd;fill:none;stroke:#00AEEF;stroke-width:0.58;" y2="-57.711" x1="83.986" y1="-54.859"/>
  <line x2="61.849" style="fill-rule:evenodd;clip-rule:evenodd;fill:none;stroke:#00AEEF;stroke-width:0.58;" y2="-57.711" x1="61.307" y1="-54.859"/>
  <line x2="39.17" style="fill-rule:evenodd;clip-rule:evenodd;fill:none;stroke:#00AEEF;stroke-width:0.58;" y2="-57.711" x1="38.628" y1="-54.859"/>
  <line x2="16.491" style="fill-rule:evenodd;clip-rule:evenodd;fill:none;stroke:#00AEEF;stroke-width:0.58;" y2="-57.711" x1="15.949" y1="-54.859"/>
  <line x2="16.491" style="fill-rule:evenodd;clip-rule:evenodd;fill:none;stroke:#00AEEF;stroke-width:0.58;" y2="-80.39" x1="15.949" y1="-77.538"/>
  <line x2="39.17" style="fill-rule:evenodd;clip-rule:evenodd;fill:none;stroke:#00AEEF;stroke-width:0.58;" y2="-80.39" x1="38.628" y1="-77.538"/>
  <line x2="61.849" style="fill-rule:evenodd;clip-rule:evenodd;fill:none;stroke:#00AEEF;stroke-width:0.58;" y2="-80.39" x1="61.307" y1="-77.538"/>
  <line x2="84.528" style="fill-rule:evenodd;clip-rule:evenodd;fill:none;stroke:#00AEEF;stroke-width:0.58;" y2="-80.39" x1="83.986" y1="-77.538"/>
  <line x2="16.266" style="fill-rule:evenodd;clip-rule:evenodd;fill:none;stroke:#00AEEF;stroke-width:0.58;" y2="-11.235" x1="16.491" y1="-12.422"/>
  <line x2="38.945" style="fill-rule:evenodd;clip-rule:evenodd;fill:none;stroke:#00AEEF;stroke-width:0.58;" y2="-11.235" x1="39.17" y1="-12.422"/>
  <line x2="61.624" style="fill-rule:evenodd;clip-rule:evenodd;fill:none;stroke:#00AEEF;stroke-width:0.58;" y2="-11.235" x1="61.849" y1="-12.422"/>
  <line x2="84.303" style="fill-rule:evenodd;clip-rule:evenodd;fill:none;stroke:#00AEEF;stroke-width:0.58;" y2="-11.235" x1="84.528" y1="-12.422"/>
  <line x2="22.696" style="fill-rule:evenodd;clip-rule:evenodd;fill:none;stroke:#00AEEF;stroke-width:0.58;" y2="-9.658" x1="21.448" y1="-7.109"/>
  <line x2="15.386" style="fill-rule:evenodd;clip-rule:evenodd;fill:none;stroke:#00AEEF;stroke-width:0.58;" y2="-5.467" x1="12.561" y1="-5.197"/>
  <line x2="7.901" style="fill-rule:evenodd;clip-rule:evenodd;fill:none;stroke:#00AEEF;stroke-width:0.58;" y2="-7.795" x1="5.923" y1="-5.76"/>
  <line x2="3.224" style="fill-rule:evenodd;clip-rule:evenodd;fill:none;stroke:#00AEEF;stroke-width:0.58;" y2="-2.16" x1="2.16" y1="-4.791"/>
  <line x2="45.375" style="fill-rule:evenodd;clip-rule:evenodd;fill:none;stroke:#00AEEF;stroke-width:0.58;" y2="-9.658" x1="44.127" y1="-7.109"/>
  <line x2="38.065" style="fill-rule:evenodd;clip-rule:evenodd;fill:none;stroke:#00AEEF;stroke-width:0.58;" y2="-5.467" x1="35.24" y1="-5.197"/>
  <line x2="30.581" style="fill-rule:evenodd;clip-rule:evenodd;fill:none;stroke:#00AEEF;stroke-width:0.58;" y2="-7.795" x1="28.603" y1="-5.76"/>
  <line x2="25.902" style="fill-rule:evenodd;clip-rule:evenodd;fill:none;stroke:#00AEEF;stroke-width:0.58;" y2="-2.16" x1="24.839" y1="-4.791"/>
  <line x2="68.055" style="fill-rule:evenodd;clip-rule:evenodd;fill:none;stroke:#00AEEF;stroke-width:0.58;" y2="-9.658" x1="66.806" y1="-7.109"/>
  <line x2="60.744" style="fill-rule:evenodd;clip-rule:evenodd;fill:none;stroke:#00AEEF;stroke-width:0.58;" y2="-5.467" x1="57.919" y1="-5.197"/>
  <line x2="53.26" style="fill-rule:evenodd;clip-rule:evenodd;fill:none;stroke:#00AEEF;stroke-width:0.58;" y2="-7.795" x1="51.282" y1="-5.76"/>
  <line x2="48.582" style="fill-rule:evenodd;clip-rule:evenodd;fill:none;stroke:#00AEEF;stroke-width:0.58;" y2="-2.16" x1="47.518" y1="-4.791"/>
  <line x2="90.733" style="fill-rule:evenodd;clip-rule:evenodd;fill:none;stroke:#00AEEF;stroke-width:0.58;" y2="-9.658" x1="89.485" y1="-7.109"/>
  <line x2="83.423" style="fill-rule:evenodd;clip-rule:evenodd;fill:none;stroke:#00AEEF;stroke-width:0.58;" y2="-5.467" x1="80.598" y1="-5.197"/>
  <line x2="75.939" style="fill-rule:evenodd;clip-rule:evenodd;fill:none;stroke:#00AEEF;stroke-width:0.58;" y2="-7.795" x1="73.961" y1="-5.76"/>
  <line x2="71.261" style="fill-rule:evenodd;clip-rule:evenodd;fill:none;stroke:#00AEEF;stroke-width:0.58;" y2="-2.16" x1="70.197" y1="-4.791"/>
  <line x2="15.949" style="fill-rule:evenodd;clip-rule:evenodd;fill:none;stroke:#00AEEF;stroke-width:0.58;" y2="-9.557" x1="16.266" y1="-11.223"/>
  <line x2="38.628" style="fill-rule:evenodd;clip-rule:evenodd;fill:none;stroke:#00AEEF;stroke-width:0.58;" y2="-9.557" x1="38.945" y1="-11.223"/>
  <line x2="61.307" style="fill-rule:evenodd;clip-rule:evenodd;fill:none;stroke:#00AEEF;stroke-width:0.58;" y2="-9.557" x1="61.624" y1="-11.223"/>
  <line x2="83.986" style="fill-rule:evenodd;clip-rule:evenodd;fill:none;stroke:#00AEEF;stroke-width:0.58;" y2="-9.557" x1="84.303" y1="-11.223"/>
 </g>
</svg>
