<?xml version="1.0"?>
<!-- Converted with SVG Converter - Version 0.9.5 (Compiled Fri Feb 21 09:53:38 2020) - Copyright (C) 2011 Nokia -->
<svg xmlns="http://www.w3.org/2000/svg" baseProfile="tiny" width="16.631" height="16.632" xmlns:xlink="http://www.w3.org/1999/xlink">
 <defs>
  <path id="a" d="M0 0h16.63v16.63H0z"/>
 </defs>
 <path stroke="#000" stroke-width=".4" d="M10.57 0l-.4 1.57M11.54 0l-.44 1.77M14.25 3L15.6.42M15.1 3.42l1.35-2.6M10.73 3.6l-2.9.28M10.85 4.54l-2.9.28M2.88 3.8l2-2.12M3.58 4.43l2-2.1M1.1 7.03L.1 4.3M.98 3.94l1 2.74M8.55 8.7L5.72 8M8.75 7.77l-2.83-.7M13.16 6.77l-.57 2.86M13.52 9.8l.57-2.87M3.85 9.53L1.2 10.75M4.27 10.38L1.63 11.6M9.65 11.7l-2.47 1.56M10.17 12.5L7.7 14.04M3.52 15.93l-1.38-2.56M2.96 12.9l1.38 2.56M15.47 14.4l-2.5-1.47M13.42 12.1l2.5 1.48M10.9 15.37l-.33 1.26M11.8 15.57l-.26 1.06" fill="none"/>
</svg>
