<?xml version="1.0"?>
<!-- Converted with SVG Converter - Version 0.9.5 (Compiled Fri Feb 21 09:53:38 2020) - Copyright (C) 2011 Nokia -->
<svg xmlns="http://www.w3.org/2000/svg" height="25.2" width="25.199" baseProfile="tiny" xmlns:xlink="http://www.w3.org/1999/xlink">
 <defs>
  <path id="a" d="M0 0h25.2v25.2H0z"/>
 </defs>
 <path stroke-width=".6" fill="none" stroke="#EC008C" d="M11.6 5.8l4.83-.45M11.8 7.38l4.83-.47M15.98 0l-.67 2.7M17.6 0l-.75 3.02M21.47 4.66l2.25-4.3M22.88 5.35l2.25-4.3M4.18 5.87l3.36-3.5M5.35 6.93l3.36-3.5M1.73 10.85L.08 6.28M1.54 5.7l1.65 4.57M13.1 13.3l-4.7-1.15M13.44 11.77l-4.7-1.16M19.86 10.1l-.96 4.77M20.45 15.14l.96-4.76M23.6 22l-4.18-2.45M20.18 18.17l4.2 2.46M16.5 22.42l-.56 2.78M18.04 22.68l-.5 2.52M14.74 17.6l-4.12 2.6M15.6 18.92l-4.1 2.6M5.9 14.3L1.5 16.3M6.6 15.7l-4.4 2.03M5.46 24.44l-2.3-4.28M4.53 19.38l2.3 4.28"/>
</svg>
