<?xml version="1.0"?>
<!-- Converted with SVG Converter - Version 0.9.5 (Compiled Fri Feb 21 09:53:38 2020) - Copyright (C) 2011 Nokia -->
<svg xmlns="http://www.w3.org/2000/svg" xmlns:xlink="http://www.w3.org/1999/xlink" height="25.804" baseProfile="tiny" width="25.805">
 <defs>
  <path id="a" d="M0 0h25.8v25.8H0z"/>
 </defs>
 <path stroke-width=".4" d="M11.56 14.25l-1 1.63M10.85 11.6l.78 1.44M9.74 12.25l.1 2.16M14.15 21.64l-.36-1.88M7.5 19.22l.34-1.9M5.9 18.76l-1.48-1.22M.85 17.58l-.85-.7M9.32 16.2l-1.48-1.22M9.7 19.44l-.65-1.8M2.35 20.43l1.88-1.6M8.62 13.5L6.77 14M12.2 21.66l-1.54 1.14M7.76 22l-1 1.64M15.12 15.3l.75 1.76M18.7 11.13l-.24 2.58M12.74 19.1l.96-1.68M17.77 17.35l-1.48 1.2M17.3 23.32l1.48 1.2M18 15.77l-1.46-1.22M14.15 13.7l-.67 1.8M15.36 13.65l1.63-1M5.6 19.9l-1.1 1.57M18.37 9.13l-1.07 1.6M6.27 16.96l-.77-2.34M5.9 7.68l1.23-1.46M15.34 12.25l.2-2.46M9.63 10.46l.86-2.06M11.52 18.84l-.63 1.8M15.68 19.87l-1.48-1.22M8.5 11.92l-1.18-2.1M12.9 23.68l-1.64 1M5.17 12.4l1.85.5M6.44 9.1l-.73 1.36M20.5 2.62l.1 2.3M13.65 1.5l1.48 1.22M11.2 2.77L9.26 4.1M7.84 2.17L6.16 1.02M12.48 7.4l.96 1.65M13.2 5.6l.24-1.52M16.68 4.64l-1.76-.77M12.42 2.74l-1 1.64M21.6 9.45l-1.7 1.52M7.95 8.78l.86-2.2M8.83 5.2L7.47 3.83M17.92 3.85l1-1.74M19.94 6.76l.04 1.92M18.2 5.55l1.9.1M10.1 7.02L11.6 5.8M20.27 13.74l-.75 1.77M22.44 17.3l.32 1.87M22.7 15.05l.72 1.78M21.26 22.14l1.47-1.23M24.55 20.87l-.98 1.64M19.93 22.56l-.45-2.3M22.56 10.3l1.9.16M23.78 19.24L25.25 18M21.35 16.32l-.8 1.74M25.35 13.03l-1.4-1.3M3.72 2.02L2.5 3.37M4.8 5.8l1.48-1.23M5.56 2.97L5 1.14M21.64 13.52l1.9.22M3.02 21.42l-.75 1.76M2.24 24.95l1.47-1.22M4.22 14.62L2.75 13.4M21.92 3.2l1.63-1.02M22.5 4.3l-.64 1.82M0 20.95l1.2.98M.7 14.26l-.7.2M0 10.48l.44.76M2.1 6.03L.22 6.5M1.12 12.95l1-1.64M2.5 8.2L1 9.45M3.66 6.8l.97 1.66M3.07 9.58L4.3 11.6M1.8 14.5l-.36 1.9M2.46 17.33l1.8-1.38M5.27 24.27l-.14-1.9M0 23.64l.63-.52M13.8 7.12l1.77-1.48M16.75 5.95l.96 1.65M14.92 7.87l1.7.86M12.75 16.5l-1.48 1.22M9.05 20.02l-1.78.7M8.96 22.44l.9 1.9M18.04 21.87l-1.8-.66M16.4 3.35l.17-1.96M18.3 18.65l-.47 1.86M14.37 22.82l1.83-.55M14.56 10.57l-1.72 1.85M22.38 23l.75 1.76M25.18 16.36l.63.52M25.52 20.7l.3.25M24.66 14.8l1.14-.34M25.28 9.6l.52.88M25.8 23.64l-.84.7M23.67 8.28l-.76-1.76M25.16 19.63l.64-.14M0 19.5l1.22-.28M20.5 12.25l2.32-.56M4.3 3.94L2.72 5.02M21.52 20.37L20.18 19M23.8 3.88l.88 1.7M.66 8.03L0 7.98M25.8 7.98l-1.25-.1M11.8 8.87l.52 2.26M19.26 18.2l-.37-1.9M22.83 8.97l-1.68-.93M14.32 23.9l1.67.5M9.05 2.73l.2-1.9M1.34 4.86L.9 2.5M25.8 2l-.6 1.63M0 2l.06-.17M21.4 23.62l-.8 1.74M18.2 25.8h.03M13.2 24.73l-.34 1.07M9.63 25.3l.36.5M22.82 25.7l-.13.1M3.45 25.14l-.15.66M6.72 24.9l-1.24.9M.71 24.82l.2.98M25.18 25.42l-.23.38M15.16 25.3l.02.5M7.84 25.8l-.27-1.55M17.1 25.8l-.46-.8M18.23 0h-.02M19.86.97L18.23 0M12.4 1.4l.46-1.4M10.97 1.4L10 0M21.34 1.1L22.7 0M3.03 1.2L3.3 0M5.26.16L5.48 0M1.07.9L.9 0M24.2 1.25L24.94 0M15.23 1.4V0M15.22 0v-.08M7.9.34L7.83 0M17.1 0l.37.67" stroke="#000" fill="none"/>
</svg>
