<?xml version="1.0"?>
<!-- Converted with SVG Converter - Version 0.9.5 (Compiled Fri Feb 21 09:53:38 2020) - Copyright (C) 2011 Nokia -->
<svg xmlns="http://www.w3.org/2000/svg" xml:space="preserve" x="0px" height="17.795" version="1.1" y="0px" baseProfile="tiny" width="17.794" xmlns:xlink="http://www.w3.org/1999/xlink" viewBox="1.341 -19.048 17.794 17.795">
 <g>
  <rect x="1.341" height="17.795" y="-19.048" width="17.794" style="fill:none;"/>
  <line style="fill:none;stroke:#EC008C;stroke-width:0.55;" x1="16.875" y1="-17.884" x2="18.161" y2="-16.233"/>
  <line style="fill:none;stroke:#EC008C;stroke-width:0.55;" x1="18.139" y1="-16.249" x2="19.125" y2="-18.124"/>
  <line style="fill:none;stroke:#EC008C;stroke-width:0.55;" x1="5.899" y1="-17.118" x2="4.983" y2="-19"/>
  <line style="fill:none;stroke:#EC008C;stroke-width:0.55;" x1="5.001" y1="-18.979" x2="3.65" y2="-17.349"/>
  <line style="fill:none;stroke:#EC008C;stroke-width:0.55;" x1="3.029" y1="-4.566" x2="5.072" y2="-5.016"/>
  <line style="fill:none;stroke:#EC008C;stroke-width:0.55;" x1="5.049" y1="-5.004" x2="3.78" y2="-6.699"/>
  <line style="fill:none;stroke:#EC008C;stroke-width:0.55;" x1="4.345" y1="-11.518" x2="3.041" y2="-13.153"/>
  <line style="fill:none;stroke:#EC008C;stroke-width:0.55;" x1="3.063" y1="-13.139" x2="2.1" y2="-11.253"/>
  <line style="fill:none;stroke:#EC008C;stroke-width:0.55;" x1="7.601" y1="-12.594" x2="9.693" y2="-12.577"/>
  <line style="fill:none;stroke:#EC008C;stroke-width:0.55;" x1="9.667" y1="-12.57" x2="8.807" y2="-14.507"/>
  <line style="fill:none;stroke:#EC008C;stroke-width:0.55;" x1="15.337" y1="-2.1" x2="16.708" y2="-3.68"/>
  <line style="fill:none;stroke:#EC008C;stroke-width:0.55;" x1="16.697" y1="-3.655" x2="14.668" y2="-4.26"/>
  <line style="fill:none;stroke:#EC008C;stroke-width:0.55;" x1="12.036" y1="-18.033" x2="11.64" y2="-15.979"/>
  <line style="fill:none;stroke:#EC008C;stroke-width:0.55;" x1="11.638" y1="-16.007" x2="13.697" y2="-16.501"/>
  <line style="fill:none;stroke:#EC008C;stroke-width:0.55;" x1="14.658" y1="-12.029" x2="15.845" y2="-13.753"/>
  <line style="fill:none;stroke:#EC008C;stroke-width:0.55;" x1="15.836" y1="-13.727" x2="13.753" y2="-14.102"/>
  <line style="fill:none;stroke:#EC008C;stroke-width:0.55;" x1="9.482" y1="-4.286" x2="8.618" y2="-2.382"/>
  <line style="fill:none;stroke:#EC008C;stroke-width:0.55;" x1="8.622" y1="-2.407" x2="10.74" y2="-2.407"/>
  <line style="fill:none;stroke:#EC008C;stroke-width:0.55;" x1="9.275" y1="-9.139" x2="7.189" y2="-9.302"/>
  <line style="fill:none;stroke:#EC008C;stroke-width:0.55;" x1="7.215" y1="-9.307" x2="7.937" y2="-7.315"/>
  <line style="fill:none;stroke:#EC008C;stroke-width:0.55;" x1="17.826" y1="-9.243" x2="16.962" y2="-7.339"/>
  <line style="fill:none;stroke:#EC008C;stroke-width:0.55;" x1="16.966" y1="-7.364" x2="19.083" y2="-7.364"/>
  <line style="fill:none;stroke:#EC008C;stroke-width:0.55;" x1="13.694" y1="-6.697" x2="13.75" y2="-8.789"/>
  <line style="fill:none;stroke:#EC008C;stroke-width:0.55;" x1="13.757" y1="-8.763" x2="11.807" y2="-7.94"/>
 </g>
</svg>
