<?xml version="1.0"?>
<!-- Converted with SVG Converter - Version 0.9.5 (Compiled Fri Feb 21 09:53:38 2020) - Copyright (C) 2011 Nokia -->
<svg xmlns="http://www.w3.org/2000/svg" x="0px" y="0px" viewBox="1.341 -19.048 17.794 17.795" xml:space="preserve" width="17.794" height="17.795" version="1.1" xmlns:xlink="http://www.w3.org/1999/xlink" baseProfile="tiny">
 <g>
  <rect x="1.341" y="-19.048" style="fill:none;" width="17.794" height="17.795"/>
  <line style="fill:none;stroke:#00AEEF;stroke-width:0.55;" y2="-16.233" y1="-17.884" x2="18.161" x1="16.875"/>
  <line style="fill:none;stroke:#00AEEF;stroke-width:0.55;" y2="-18.124" y1="-16.249" x2="19.125" x1="18.139"/>
  <line style="fill:none;stroke:#00AEEF;stroke-width:0.55;" y2="-19" y1="-17.118" x2="4.983" x1="5.899"/>
  <line style="fill:none;stroke:#00AEEF;stroke-width:0.55;" y2="-17.349" y1="-18.979" x2="3.65" x1="5.001"/>
  <line style="fill:none;stroke:#00AEEF;stroke-width:0.55;" y2="-5.016" y1="-4.566" x2="5.072" x1="3.029"/>
  <line style="fill:none;stroke:#00AEEF;stroke-width:0.55;" y2="-6.699" y1="-5.004" x2="3.78" x1="5.049"/>
  <line style="fill:none;stroke:#00AEEF;stroke-width:0.55;" y2="-13.153" y1="-11.518" x2="3.041" x1="4.345"/>
  <line style="fill:none;stroke:#00AEEF;stroke-width:0.55;" y2="-11.253" y1="-13.139" x2="2.1" x1="3.063"/>
  <line style="fill:none;stroke:#00AEEF;stroke-width:0.55;" y2="-12.577" y1="-12.594" x2="9.693" x1="7.601"/>
  <line style="fill:none;stroke:#00AEEF;stroke-width:0.55;" y2="-14.507" y1="-12.57" x2="8.807" x1="9.667"/>
  <line style="fill:none;stroke:#00AEEF;stroke-width:0.55;" y2="-3.68" y1="-2.1" x2="16.708" x1="15.337"/>
  <line style="fill:none;stroke:#00AEEF;stroke-width:0.55;" y2="-4.26" y1="-3.655" x2="14.668" x1="16.697"/>
  <line style="fill:none;stroke:#00AEEF;stroke-width:0.55;" y2="-15.979" y1="-18.033" x2="11.64" x1="12.036"/>
  <line style="fill:none;stroke:#00AEEF;stroke-width:0.55;" y2="-16.501" y1="-16.007" x2="13.697" x1="11.638"/>
  <line style="fill:none;stroke:#00AEEF;stroke-width:0.55;" y2="-13.753" y1="-12.029" x2="15.845" x1="14.658"/>
  <line style="fill:none;stroke:#00AEEF;stroke-width:0.55;" y2="-14.102" y1="-13.727" x2="13.753" x1="15.836"/>
  <line style="fill:none;stroke:#00AEEF;stroke-width:0.55;" y2="-2.382" y1="-4.286" x2="8.618" x1="9.482"/>
  <line style="fill:none;stroke:#00AEEF;stroke-width:0.55;" y2="-2.407" y1="-2.407" x2="10.74" x1="8.622"/>
  <line style="fill:none;stroke:#00AEEF;stroke-width:0.55;" y2="-9.302" y1="-9.139" x2="7.189" x1="9.275"/>
  <line style="fill:none;stroke:#00AEEF;stroke-width:0.55;" y2="-7.315" y1="-9.307" x2="7.937" x1="7.215"/>
  <line style="fill:none;stroke:#00AEEF;stroke-width:0.55;" y2="-7.339" y1="-9.243" x2="16.962" x1="17.826"/>
  <line style="fill:none;stroke:#00AEEF;stroke-width:0.55;" y2="-7.364" y1="-7.364" x2="19.083" x1="16.966"/>
  <line style="fill:none;stroke:#00AEEF;stroke-width:0.55;" y2="-8.789" y1="-6.697" x2="13.75" x1="13.694"/>
  <line style="fill:none;stroke:#00AEEF;stroke-width:0.55;" y2="-7.94" y1="-8.763" x2="11.807" x1="13.757"/>
 </g>
</svg>
