<?xml version="1.0"?>
<!-- Converted with SVG Converter - Version 0.9.5 (Compiled Fri Feb 21 09:53:38 2020) - Copyright (C) 2011 Nokia -->
<svg xmlns="http://www.w3.org/2000/svg" xml:space="preserve" x="0px" y="0px" version="1.1" height="17.795" width="17.795" xmlns:xlink="http://www.w3.org/1999/xlink" baseProfile="tiny" viewBox="0 -17.795 17.795 17.795">
 <g>
  <rect style="fill:none;" x="0" y="-17.795" height="17.795" width="17.795"/>
  <line y1="-16.631" y2="-14.981" x2="16.819" style="fill:none;stroke:#ED1B2E;stroke-width:0.55;" x1="15.535"/>
  <line y1="-14.996" y2="-16.871" x2="17.783" style="fill:none;stroke:#ED1B2E;stroke-width:0.55;" x1="16.798"/>
  <line y1="-15.865" y2="-17.747" x2="3.642" style="fill:none;stroke:#ED1B2E;stroke-width:0.55;" x1="4.558"/>
  <line y1="-17.727" y2="-16.096" x2="2.309" style="fill:none;stroke:#ED1B2E;stroke-width:0.55;" x1="3.66"/>
  <line y1="-3.313" y2="-3.763" x2="3.731" style="fill:none;stroke:#ED1B2E;stroke-width:0.55;" x1="1.689"/>
  <line y1="-3.751" y2="-5.446" x2="2.44" style="fill:none;stroke:#ED1B2E;stroke-width:0.55;" x1="3.708"/>
  <line y1="-10.265" y2="-11.9" x2="1.7" style="fill:none;stroke:#ED1B2E;stroke-width:0.55;" x1="3.004"/>
  <line y1="-11.886" y2="-10" x2="0.76" style="fill:none;stroke:#ED1B2E;stroke-width:0.55;" x1="1.723"/>
  <line y1="-11.341" y2="-11.324" x2="8.352" style="fill:none;stroke:#ED1B2E;stroke-width:0.55;" x1="6.261"/>
  <line y1="-11.317" y2="-13.254" x2="7.466" style="fill:none;stroke:#ED1B2E;stroke-width:0.55;" x1="8.326"/>
  <line y1="-0.847" y2="-2.427" x2="15.367" style="fill:none;stroke:#ED1B2E;stroke-width:0.55;" x1="13.996"/>
  <line y1="-2.402" y2="-3.007" x2="13.327" style="fill:none;stroke:#ED1B2E;stroke-width:0.55;" x1="15.356"/>
  <line y1="-16.78" y2="-14.727" x2="10.299" style="fill:none;stroke:#ED1B2E;stroke-width:0.55;" x1="10.695"/>
  <line y1="-14.754" y2="-15.248" x2="12.356" style="fill:none;stroke:#ED1B2E;stroke-width:0.55;" x1="10.298"/>
  <line y1="-10.776" y2="-12.5" x2="14.504" style="fill:none;stroke:#ED1B2E;stroke-width:0.55;" x1="13.317"/>
  <line y1="-12.474" y2="-12.849" x2="12.412" style="fill:none;stroke:#ED1B2E;stroke-width:0.55;" x1="14.495"/>
  <line y1="-3.033" y2="-1.129" x2="7.277" style="fill:none;stroke:#ED1B2E;stroke-width:0.55;" x1="8.141"/>
  <line y1="-1.154" y2="-1.154" x2="9.399" style="fill:none;stroke:#ED1B2E;stroke-width:0.55;" x1="7.281"/>
  <line y1="-7.886" y2="-8.049" x2="5.849" style="fill:none;stroke:#ED1B2E;stroke-width:0.55;" x1="7.934"/>
  <line y1="-8.054" y2="-6.062" x2="6.596" style="fill:none;stroke:#ED1B2E;stroke-width:0.55;" x1="5.874"/>
  <line y1="-7.99" y2="-6.086" x2="15.621" style="fill:none;stroke:#ED1B2E;stroke-width:0.55;" x1="16.485"/>
  <line y1="-6.111" y2="-6.111" x2="17.742" style="fill:none;stroke:#ED1B2E;stroke-width:0.55;" x1="15.625"/>
  <line y1="-5.444" y2="-7.536" x2="12.409" style="fill:none;stroke:#ED1B2E;stroke-width:0.55;" x1="12.354"/>
  <line y1="-7.51" y2="-6.688" x2="10.466" style="fill:none;stroke:#ED1B2E;stroke-width:0.55;" x1="12.416"/>
 </g>
</svg>
