<?xml version="1.0"?>
<!-- Converted with SVG Converter - Version 0.9.5 (Compiled Fri Feb 21 09:53:38 2020) - Copyright (C) 2011 Nokia -->
<svg xmlns="http://www.w3.org/2000/svg" version="1.1" viewBox="1.341 -19.048 17.794 17.795" height="17.795" baseProfile="tiny" xmlns:xlink="http://www.w3.org/1999/xlink" width="17.794" x="0px" xml:space="preserve" y="0px">
 <g>
  <rect height="17.795" style="fill:none;" width="17.794" x="1.341" y="-19.048"/>
  <rect height="17.795" width="17.794" x="1.341" y="-19.048"/>
  <line y1="-17.884" x2="18.161" x1="16.875" y2="-16.233" style="fill:none;stroke:#FFFFFF;stroke-width:0.55;"/>
  <line y1="-16.249" x2="19.125" x1="18.139" y2="-18.124" style="fill:none;stroke:#FFFFFF;stroke-width:0.55;"/>
  <line y1="-17.118" x2="4.983" x1="5.899" y2="-19" style="fill:none;stroke:#FFFFFF;stroke-width:0.55;"/>
  <line y1="-18.979" x2="3.65" x1="5.001" y2="-17.349" style="fill:none;stroke:#FFFFFF;stroke-width:0.55;"/>
  <line y1="-4.566" x2="5.072" x1="3.029" y2="-5.016" style="fill:none;stroke:#FFFFFF;stroke-width:0.55;"/>
  <line y1="-5.004" x2="3.78" x1="5.049" y2="-6.699" style="fill:none;stroke:#FFFFFF;stroke-width:0.55;"/>
  <line y1="-11.518" x2="3.041" x1="4.345" y2="-13.153" style="fill:none;stroke:#FFFFFF;stroke-width:0.55;"/>
  <line y1="-13.139" x2="2.1" x1="3.063" y2="-11.253" style="fill:none;stroke:#FFFFFF;stroke-width:0.55;"/>
  <line y1="-12.594" x2="9.693" x1="7.601" y2="-12.577" style="fill:none;stroke:#FFFFFF;stroke-width:0.55;"/>
  <line y1="-12.57" x2="8.807" x1="9.667" y2="-14.507" style="fill:none;stroke:#FFFFFF;stroke-width:0.55;"/>
  <line y1="-2.1" x2="16.708" x1="15.337" y2="-3.68" style="fill:none;stroke:#FFFFFF;stroke-width:0.55;"/>
  <line y1="-3.655" x2="14.668" x1="16.697" y2="-4.26" style="fill:none;stroke:#FFFFFF;stroke-width:0.55;"/>
  <line y1="-18.033" x2="11.64" x1="12.036" y2="-15.979" style="fill:none;stroke:#FFFFFF;stroke-width:0.55;"/>
  <line y1="-16.007" x2="13.697" x1="11.638" y2="-16.501" style="fill:none;stroke:#FFFFFF;stroke-width:0.55;"/>
  <line y1="-12.029" x2="15.845" x1="14.658" y2="-13.753" style="fill:none;stroke:#FFFFFF;stroke-width:0.55;"/>
  <line y1="-13.727" x2="13.753" x1="15.836" y2="-14.102" style="fill:none;stroke:#FFFFFF;stroke-width:0.55;"/>
  <line y1="-4.286" x2="8.618" x1="9.482" y2="-2.382" style="fill:none;stroke:#FFFFFF;stroke-width:0.55;"/>
  <line y1="-2.407" x2="10.74" x1="8.622" y2="-2.407" style="fill:none;stroke:#FFFFFF;stroke-width:0.55;"/>
  <line y1="-9.139" x2="7.189" x1="9.275" y2="-9.302" style="fill:none;stroke:#FFFFFF;stroke-width:0.55;"/>
  <line y1="-9.307" x2="7.937" x1="7.215" y2="-7.315" style="fill:none;stroke:#FFFFFF;stroke-width:0.55;"/>
  <line y1="-9.243" x2="16.962" x1="17.826" y2="-7.339" style="fill:none;stroke:#FFFFFF;stroke-width:0.55;"/>
  <line y1="-7.364" x2="19.083" x1="16.966" y2="-7.364" style="fill:none;stroke:#FFFFFF;stroke-width:0.55;"/>
  <line y1="-6.697" x2="13.75" x1="13.694" y2="-8.789" style="fill:none;stroke:#FFFFFF;stroke-width:0.55;"/>
  <line y1="-8.763" x2="11.807" x1="13.757" y2="-7.94" style="fill:none;stroke:#FFFFFF;stroke-width:0.55;"/>
 </g>
</svg>
