<?xml version="1.0"?>
<!-- Converted with SVG Converter - Version 0.9.5 (Compiled Fri Feb 21 09:53:38 2020) - Copyright (C) 2011 Nokia -->
<svg xmlns="http://www.w3.org/2000/svg" width="25.446" baseProfile="tiny" xml:space="preserve" y="0px" viewBox="1 -26.447 25.446 25.447" version="1.1" x="0px" height="25.447" xmlns:xlink="http://www.w3.org/1999/xlink">
 <g>
  <rect width="25.446" y="-26.447" x="1" style="fill:none;" height="25.447"/>
  <line y1="-24.729" y2="-22.604" x1="23.378" x2="25.032" style="fill:none;stroke:#00AEEF;stroke-width:0.6;"/>
  <line y1="-22.625" y2="-25.038" x1="25.003" x2="26.272" style="fill:none;stroke:#00AEEF;stroke-width:0.6;"/>
  <line y1="-23.795" y2="-26.215" x1="7.364" x2="6.185" style="fill:none;stroke:#00AEEF;stroke-width:0.6;"/>
  <line y1="-26.19" y2="-24.091" x1="6.208" x2="4.469" style="fill:none;stroke:#00AEEF;stroke-width:0.6;"/>
  <line y1="-5.852" y2="-6.431" x1="3.545" x2="6.174" style="fill:none;stroke:#00AEEF;stroke-width:0.6;"/>
  <line y1="-6.415" y2="-8.597" x1="6.145" x2="4.512" style="fill:none;stroke:#00AEEF;stroke-width:0.6;"/>
  <line y1="-15.748" y2="-17.854" x1="5.126" x2="3.448" style="fill:none;stroke:#00AEEF;stroke-width:0.6;"/>
  <line y1="-17.835" y2="-15.407" x1="3.476" x2="2.237" style="fill:none;stroke:#00AEEF;stroke-width:0.6;"/>
  <line y1="-17.32" y2="-17.3" x1="10.092" x2="12.784" style="fill:none;stroke:#00AEEF;stroke-width:0.6;"/>
  <line y1="-17.291" y2="-19.783" x1="12.75" x2="11.644" style="fill:none;stroke:#00AEEF;stroke-width:0.6;"/>
  <line y1="-2.377" y2="-4.411" x1="21.036" x2="22.8" style="fill:none;stroke:#00AEEF;stroke-width:0.6;"/>
  <line y1="-4.38" y2="-5.157" x1="22.786" x2="20.174" style="fill:none;stroke:#00AEEF;stroke-width:0.6;"/>
  <line y1="-24.822" y2="-22.179" x1="16.362" x2="15.852" style="fill:none;stroke:#00AEEF;stroke-width:0.6;"/>
  <line y1="-22.213" y2="-22.849" x1="15.85" x2="18.5" style="fill:none;stroke:#00AEEF;stroke-width:0.6;"/>
  <line y1="-16.582" y2="-18.8" x1="20.049" x2="21.577" style="fill:none;stroke:#00AEEF;stroke-width:0.6;"/>
  <line y1="-18.767" y2="-19.249" x1="21.565" x2="18.884" style="fill:none;stroke:#00AEEF;stroke-width:0.6;"/>
  <line y1="-5.154" y2="-2.703" x1="12.65" x2="11.538" style="fill:none;stroke:#00AEEF;stroke-width:0.6;"/>
  <line y1="-2.736" y2="-2.736" x1="11.543" x2="14.269" style="fill:none;stroke:#00AEEF;stroke-width:0.6;"/>
  <line y1="-12.186" y2="-12.396" x1="12.184" x2="9.499" style="fill:none;stroke:#00AEEF;stroke-width:0.6;"/>
  <line y1="-12.402" y2="-9.841" x1="9.533" x2="10.462" style="fill:none;stroke:#00AEEF;stroke-width:0.6;"/>
  <line y1="-12.259" y2="-9.808" x1="24.602" x2="23.489" style="fill:none;stroke:#00AEEF;stroke-width:0.6;"/>
  <line y1="-9.841" y2="-9.841" x1="23.495" x2="26.219" style="fill:none;stroke:#00AEEF;stroke-width:0.6;"/>
  <line y1="-8.957" y2="-11.648" x1="18.583" x2="18.656" style="fill:none;stroke:#00AEEF;stroke-width:0.6;"/>
  <line y1="-11.615" y2="-10.558" x1="18.665" x2="16.155" style="fill:none;stroke:#00AEEF;stroke-width:0.6;"/>
 </g>
</svg>
