<?xml version="1.0"?>
<!-- Converted with SVG Converter - Version 0.9.5 (Compiled Fri Feb 21 09:53:38 2020) - Copyright (C) 2011 Nokia -->
<svg xmlns="http://www.w3.org/2000/svg" baseProfile="tiny" xmlns:xlink="http://www.w3.org/1999/xlink" xml:space="preserve" y="0px" version="1.1" height="25.447" x="0px" width="25.446" viewBox="1 -26.447 25.446 25.447">
 <g>
  <rect style="fill:none;" y="-26.447" height="25.447" x="1" width="25.446"/>
  <rect y="-26.447" height="25.447" x="1" width="25.446"/>
  <line style="fill:none;stroke:#FFFFFF;stroke-width:0.6;" x2="25.032" y2="-22.604" x1="23.378" y1="-24.729"/>
  <line style="fill:none;stroke:#FFFFFF;stroke-width:0.6;" x2="26.272" y2="-25.038" x1="25.003" y1="-22.625"/>
  <line style="fill:none;stroke:#FFFFFF;stroke-width:0.6;" x2="6.185" y2="-26.215" x1="7.364" y1="-23.795"/>
  <line style="fill:none;stroke:#FFFFFF;stroke-width:0.6;" x2="4.469" y2="-24.091" x1="6.208" y1="-26.19"/>
  <line style="fill:none;stroke:#FFFFFF;stroke-width:0.6;" x2="6.174" y2="-6.431" x1="3.545" y1="-5.852"/>
  <line style="fill:none;stroke:#FFFFFF;stroke-width:0.6;" x2="4.512" y2="-8.597" x1="6.145" y1="-6.415"/>
  <line style="fill:none;stroke:#FFFFFF;stroke-width:0.6;" x2="3.448" y2="-17.854" x1="5.126" y1="-15.748"/>
  <line style="fill:none;stroke:#FFFFFF;stroke-width:0.6;" x2="2.237" y2="-15.407" x1="3.476" y1="-17.835"/>
  <line style="fill:none;stroke:#FFFFFF;stroke-width:0.6;" x2="12.784" y2="-17.3" x1="10.092" y1="-17.32"/>
  <line style="fill:none;stroke:#FFFFFF;stroke-width:0.6;" x2="11.644" y2="-19.783" x1="12.75" y1="-17.291"/>
  <line style="fill:none;stroke:#FFFFFF;stroke-width:0.6;" x2="22.8" y2="-4.411" x1="21.036" y1="-2.377"/>
  <line style="fill:none;stroke:#FFFFFF;stroke-width:0.6;" x2="20.174" y2="-5.157" x1="22.786" y1="-4.38"/>
  <line style="fill:none;stroke:#FFFFFF;stroke-width:0.6;" x2="15.852" y2="-22.179" x1="16.362" y1="-24.822"/>
  <line style="fill:none;stroke:#FFFFFF;stroke-width:0.6;" x2="18.5" y2="-22.849" x1="15.85" y1="-22.213"/>
  <line style="fill:none;stroke:#FFFFFF;stroke-width:0.6;" x2="21.577" y2="-18.8" x1="20.049" y1="-16.582"/>
  <line style="fill:none;stroke:#FFFFFF;stroke-width:0.6;" x2="18.884" y2="-19.249" x1="21.565" y1="-18.767"/>
  <line style="fill:none;stroke:#FFFFFF;stroke-width:0.6;" x2="11.538" y2="-2.703" x1="12.65" y1="-5.154"/>
  <line style="fill:none;stroke:#FFFFFF;stroke-width:0.6;" x2="14.269" y2="-2.736" x1="11.543" y1="-2.736"/>
  <line style="fill:none;stroke:#FFFFFF;stroke-width:0.6;" x2="9.499" y2="-12.396" x1="12.184" y1="-12.186"/>
  <line style="fill:none;stroke:#FFFFFF;stroke-width:0.6;" x2="10.462" y2="-9.841" x1="9.533" y1="-12.402"/>
  <line style="fill:none;stroke:#FFFFFF;stroke-width:0.6;" x2="23.489" y2="-9.808" x1="24.602" y1="-12.259"/>
  <line style="fill:none;stroke:#FFFFFF;stroke-width:0.6;" x2="26.219" y2="-9.841" x1="23.495" y1="-9.841"/>
  <line style="fill:none;stroke:#FFFFFF;stroke-width:0.6;" x2="18.656" y2="-11.648" x1="18.583" y1="-8.957"/>
  <line style="fill:none;stroke:#FFFFFF;stroke-width:0.6;" x2="16.155" y2="-10.558" x1="18.665" y1="-11.615"/>
 </g>
</svg>
