<?xml version="1.0"?>
<!-- Converted with SVG Converter - Version 0.9.5 (Compiled Fri Feb 21 09:53:38 2020) - Copyright (C) 2011 Nokia -->
<svg xmlns="http://www.w3.org/2000/svg" y="0px" width="25.446" version="1.1" height="25.447" xml:space="preserve" baseProfile="tiny" xmlns:xlink="http://www.w3.org/1999/xlink" x="0px" viewBox="1 -26.447 25.446 25.447">
 <g>
  <rect y="-26.447" width="25.446" height="25.447" x="1" style="fill:none;"/>
  <line x1="23.378" y2="-22.604" style="fill:none;stroke:#EC008C;stroke-width:0.6;" y1="-24.729" x2="25.032"/>
  <line x1="25.003" y2="-25.038" style="fill:none;stroke:#EC008C;stroke-width:0.6;" y1="-22.625" x2="26.272"/>
  <line x1="7.364" y2="-26.215" style="fill:none;stroke:#EC008C;stroke-width:0.6;" y1="-23.795" x2="6.185"/>
  <line x1="6.208" y2="-24.091" style="fill:none;stroke:#EC008C;stroke-width:0.6;" y1="-26.19" x2="4.469"/>
  <line x1="3.545" y2="-6.431" style="fill:none;stroke:#EC008C;stroke-width:0.6;" y1="-5.852" x2="6.174"/>
  <line x1="6.145" y2="-8.597" style="fill:none;stroke:#EC008C;stroke-width:0.6;" y1="-6.415" x2="4.512"/>
  <line x1="5.126" y2="-17.854" style="fill:none;stroke:#EC008C;stroke-width:0.6;" y1="-15.748" x2="3.448"/>
  <line x1="3.476" y2="-15.407" style="fill:none;stroke:#EC008C;stroke-width:0.6;" y1="-17.835" x2="2.237"/>
  <line x1="10.092" y2="-17.3" style="fill:none;stroke:#EC008C;stroke-width:0.6;" y1="-17.32" x2="12.784"/>
  <line x1="12.75" y2="-19.783" style="fill:none;stroke:#EC008C;stroke-width:0.6;" y1="-17.291" x2="11.644"/>
  <line x1="21.036" y2="-4.411" style="fill:none;stroke:#EC008C;stroke-width:0.6;" y1="-2.377" x2="22.8"/>
  <line x1="22.786" y2="-5.157" style="fill:none;stroke:#EC008C;stroke-width:0.6;" y1="-4.38" x2="20.174"/>
  <line x1="16.362" y2="-22.179" style="fill:none;stroke:#EC008C;stroke-width:0.6;" y1="-24.822" x2="15.852"/>
  <line x1="15.85" y2="-22.849" style="fill:none;stroke:#EC008C;stroke-width:0.6;" y1="-22.213" x2="18.5"/>
  <line x1="20.049" y2="-18.8" style="fill:none;stroke:#EC008C;stroke-width:0.6;" y1="-16.582" x2="21.577"/>
  <line x1="21.565" y2="-19.249" style="fill:none;stroke:#EC008C;stroke-width:0.6;" y1="-18.767" x2="18.884"/>
  <line x1="12.65" y2="-2.703" style="fill:none;stroke:#EC008C;stroke-width:0.6;" y1="-5.154" x2="11.538"/>
  <line x1="11.543" y2="-2.736" style="fill:none;stroke:#EC008C;stroke-width:0.6;" y1="-2.736" x2="14.269"/>
  <line x1="12.184" y2="-12.396" style="fill:none;stroke:#EC008C;stroke-width:0.6;" y1="-12.186" x2="9.499"/>
  <line x1="9.533" y2="-9.841" style="fill:none;stroke:#EC008C;stroke-width:0.6;" y1="-12.402" x2="10.462"/>
  <line x1="24.602" y2="-9.808" style="fill:none;stroke:#EC008C;stroke-width:0.6;" y1="-12.259" x2="23.489"/>
  <line x1="23.495" y2="-9.841" style="fill:none;stroke:#EC008C;stroke-width:0.6;" y1="-9.841" x2="26.219"/>
  <line x1="18.583" y2="-11.648" style="fill:none;stroke:#EC008C;stroke-width:0.6;" y1="-8.957" x2="18.656"/>
  <line x1="18.665" y2="-10.558" style="fill:none;stroke:#EC008C;stroke-width:0.6;" y1="-11.615" x2="16.155"/>
 </g>
</svg>
