<?xml version="1.0"?>
<!-- Converted with SVG Converter - Version 0.9.5 (Compiled Fri Feb 21 09:53:38 2020) - Copyright (C) 2011 Nokia -->
<svg xmlns="http://www.w3.org/2000/svg" baseProfile="tiny" x="0px" viewBox="1.889 -36.047 34.352 34.354" y="0px" height="34.354" xmlns:xlink="http://www.w3.org/1999/xlink" version="1.1" xml:space="preserve" width="34.352">
 <g>
  <rect x="1.889" y="-36.047" height="34.354" style="fill:none;" width="34.352"/>
  <polyline points="12.562,-22.917 16.937,-22.863    16.873,-23.02 15.002,-26.974   " style="fill:none;stroke:#00AEEF;stroke-width:0.7;stroke-linecap:round;"/>
  <polyline points="4.07,-7.616 8.387,-8.325    8.297,-8.468 5.766,-12.037   " style="fill:none;stroke:#00AEEF;stroke-width:0.7;stroke-linecap:round;"/>
  <polyline points="24.621,-10.744 25.048,-15.098    24.887,-15.047 20.787,-13.521   " style="fill:none;stroke:#00AEEF;stroke-width:0.7;stroke-linecap:round;"/>
  <polyline points="26.578,-21.136 28.902,-24.843    28.735,-24.869 24.384,-25.331   " style="fill:none;stroke:#00AEEF;stroke-width:0.7;stroke-linecap:round;"/>
  <polyline points="10.101,-30.629 8.555,-34.723    8.433,-34.605 5.433,-31.42   " style="fill:none;stroke:#00AEEF;stroke-width:0.7;stroke-linecap:round;"/>
  <polyline points="7.1,-20.049 4.454,-23.534    4.37,-23.387 2.4,-19.48   " style="fill:none;stroke:#00AEEF;stroke-width:0.7;stroke-linecap:round;"/>
  <polyline points="17.222,-15.818 12.9,-16.504    12.941,-16.341 14.22,-12.156   " style="fill:none;stroke:#00AEEF;stroke-width:0.7;stroke-linecap:round;"/>
  <polyline points="22.06,-33.5 21.039,-29.245    21.206,-29.273 25.477,-30.223   " style="fill:none;stroke:#00AEEF;stroke-width:0.7;stroke-linecap:round;"/>
  <polyline points="30.64,-32.907 33.359,-29.479    33.44,-29.628 35.326,-33.576   " style="fill:none;stroke:#00AEEF;stroke-width:0.7;stroke-linecap:round;"/>
  <polyline points="32.224,-16.285 30.933,-12.104    31.101,-12.122 35.424,-12.795   " style="fill:none;stroke:#00AEEF;stroke-width:0.7;stroke-linecap:round;"/>
  <polyline points="28.026,-2.4 30.879,-5.717    30.718,-5.768 26.485,-6.877   " style="fill:none;stroke:#00AEEF;stroke-width:0.7;stroke-linecap:round;"/>
  <polyline points="17.111,-7.127 15.185,-3.199    15.353,-3.19 19.729,-3.183   " style="fill:none;stroke:#00AEEF;stroke-width:0.7;stroke-linecap:round;"/>
 </g>
</svg>
