<?xml version="1.0"?>
<!-- Converted with SVG Converter - Version 0.9.5 (Compiled Fri Feb 21 09:53:38 2020) - Copyright (C) 2011 Nokia -->
<svg xmlns="http://www.w3.org/2000/svg" width="13.857" xmlns:xlink="http://www.w3.org/1999/xlink" baseProfile="tiny" height="13.858">
 <defs>
  <path id="a" d="M0 0h13.86v13.86H0z"/>
 </defs>
 <path d="M0 0h13.86v13.86H0z"/>
 <path stroke-width=".36" fill="none" d="M4.36 0l-.9 1.8-.9-1.8M6.02 0l.9 1.8.9-1.8M9.48 0l.9 1.8.9-1.8M12.95 0l.9 1.8v-.02M0 1.78L.9 0M3.46 1.8M0 1.8h3.46M3.46 1.8L1.73 5.27 0 1.83M0 1.8v.03M6.92 1.8H3.46M6.92 1.8M6.92 1.8L5.2 5.27 3.45 1.8M3.46 1.8M3.46 1.8M6.92 1.8h3.46M6.92 1.8l1.73 3.46 1.73-3.45M6.92 1.8M10.38 1.8M6.92 1.8M10.38 1.8l1.74 3.46 1.73-3.45H10.4M10.38 1.8M10.4 1.8h-.02M5.2 5.28M5.2 5.28L3.45 8.73 1.73 5.28M5.2 5.28H1.72M1.72 5.28M8.65 5.28L6.92 8.73 5.2 5.28M8.65 5.28M5.2 5.28M8.65 5.28H5.2M5.2 5.28M12.12 5.28M8.65 5.28M8.65 5.28l1.73 3.45 1.74-3.45M8.65 5.28h3.47M8.65 5.28M12.12 5.28h1.74M13.86 8.7v.03L12.1 5.28M12.12 5.28M12.12 5.28M1.72 5.28H0M0 8.7L1.73 5.3M1.73 5.28M1.73 5.28M3.46 8.74M3.46 8.74L1.73 12.2 0 8.75M3.46 8.74H0M0 8.74v.02M3.46 8.74h3.46M3.46 8.74M6.92 8.74M3.46 8.74L5.2 12.2 6.9 8.73M3.46 8.74M6.92 8.74l1.73 3.45 1.73-3.46M10.38 8.74M10.38 8.74H6.92M6.92 8.74M6.92 8.74M10.38 8.74M10.38 8.74l1.74 3.45 1.73-3.46H10.4M10.4 8.74h-.02M5.2 12.2H1.72M1.72 12.2M5.2 12.2l-.84 1.66M2.56 13.86l-.83-1.66M5.2 12.2M6.02 13.86L5.2 12.2M5.2 12.2M8.65 12.2M8.65 12.2l-.83 1.66M8.65 12.2H5.2M5.2 12.2M12.12 12.2M12.12 12.2l-.83 1.66M9.5 13.86l-.85-1.66M12.12 12.2H8.66M8.65 12.2M8.65 12.2M12.95 13.86l-.83-1.66M12.12 12.2M13.86 12.2h-1.74M12.12 12.2M1.72 12.2H0M1.73 12.2M1.73 12.2L.9 13.86M1.73 12.2M0 1.78v.03M0 8.74v.02M0 1.8v.03M0 8.74V8.7" stroke="#fff"/>
</svg>
