<?xml version="1.0"?>
<!-- Converted with SVG Converter - Version 0.9.5 (Compiled Fri Feb 21 09:53:38 2020) - Copyright (C) 2011 Nokia -->
<svg xmlns="http://www.w3.org/2000/svg" x="0px" width="54.221" baseProfile="tiny" y="0px" xml:space="preserve" viewBox="0 -54.22 54.221 54.22" xmlns:xlink="http://www.w3.org/1999/xlink" version="1.1" height="54.22">
 <g>
  <rect x="0" width="54.221" y="-54.22" style="fill:none;" height="54.22"/>
  <path d="M4.942-24.61c-0.384,0.712-1.258,1.146-1.038,1.529c0.22,0.383,0.598,0.911,0.978,1.075    c0.386,0.162,2.731,1.55,0.855,3.192C5.295-18.423,5.438-18.568,5-18.243c-0.437,0.329-0.286,0.534,0,0.97    c0.272,0.413,0.325,0.427,0.925,0.647c0.603,0.219,0.385-0.82,0.436-1.643c0.059-0.819,1.534-1.31,2.025-1.913    c0.491-0.601-0.054-1.149-0.983-1.205c-0.933-0.055-0.657-0.491-0.491-0.873c0.161-0.383,0.326-0.219,0.491-0.711    c0.163-0.494-0.165-0.219-0.825,0.055c-0.652,0.272-0.485-0.219-0.485-0.931c0-0.711,0.032-1.721,0.607-1.638    c0.766,0.109,1.35,0.002,1.583-0.383c0.38-0.613-0.478-0.44-0.564-0.59c-0.085-0.148,0.147-0.296,0.297-0.4    c0.147-0.106-0.106-0.399-0.55-0.433c-0.602-0.038-1.115,0.172-1.532,0.658c-0.209,0.24-0.338,0.329-0.485,0.902    C5.295-25.159,4.942-24.61,4.942-24.61z" style="fill:#00AEEF;"/>
  <path d="M16.175-17.716l0.057-0.14c0.054-0.493,0.108-1.118-0.436-0.735    C15.246-18.209,15.298-16.784,16.175-17.716z" style="fill:#00AEEF;"/>
  <path d="M4.641-19.065l0.111-0.1c0.28-0.412,0.616-0.941-0.045-0.854    C4.046-19.931,3.44-18.644,4.641-19.065z" style="fill:#00AEEF;"/>
  <path d="M6.114-6.489C6.386-5.996,7.698-6.436,7.368-7.09C7.041-7.746,5.81-7.031,6.114-6.489z" style="fill:#00AEEF;"/>
  <path d="M18.489-15.245l0.156,0.048c0.349,0.166,0.472,0.323,0.836,0.263    c0.36-0.056,0.747-0.739-0.509-1.478c-1.259-0.739-2.502-0.789-2.733-0.056c-0.23,0.727,0.328,0.96,0.911,0.914    C17.738-15.598,17.827-15.512,18.489-15.245z" style="fill:#00AEEF;"/>
  <path d="M19.012-13.74c-0.93,0.217-0.765,1.033-0.765,2.022c0,0.492,1.586-0.056,2.406-1.149    C21.473-13.96,19.942-13.96,19.012-13.74z" style="fill:#00AEEF;"/>
  <path d="M14.624-7.827c0.546-0.437,0.655-0.71,1.204-0.71c0.548,0,0.71,0.109,1.418-0.11    c0.714-0.218,0.769-1.696-0.376-1.696c-1.151,0-2.771,1.592-3.394,2.353C12.985-7.39,14.078-7.39,14.624-7.827z" style="fill:#00AEEF;"/>
  <path d="M7.425-4.041c0.6-0.055,1.969-0.818,1.911-1.421c-0.053-0.602-0.219-0.657-1.146,0    C7.26-4.806,6.985-4.001,7.425-4.041z" style="fill:#00AEEF;"/>
  <path d="M3.746-5.269c0.33-0.657,0.33-1.422,0-1.749c-0.321-0.33-1.201,0.491-1.691,1.804    C1.85-4.672,3.424-4.613,3.746-5.269z" style="fill:#00AEEF;"/>
  <path d="M8.776-24.448c-0.604,0.604-0.298,0.567-0.081,0.785c0.398,0.398,0.221,0.087,1.085,0.228    c0.596,0.097,0.97-0.458,0.746-0.684C9.925-24.728,9.378-25.049,8.776-24.448z" style="fill:#00AEEF;"/>
  <path d="M18.147-7.136c0.273,0.272,0.82,0.055,1.312-0.329c0.491-0.383,1.258-0.82,2.078-0.93    c0.821-0.108,0.657-0.491,0.657-1.095c0-0.598-0.054-0.709,0.219-1.201c0.273-0.491,0.657-1.095,1.092-1.095    c0.438,0,0.604-0.271,0.659-0.602c0.052-0.327-0.109-0.382-0.712-0.382c-0.602,0-0.374-0.1-0.657-0.437    c-0.273-0.329-0.328-0.329-0.877,0.055c-0.546,0.382-0.546,1.202-0.546,1.749c0,0.548-0.545,1.04-1.475,1.694    C18.968-9.051,17.874-7.41,18.147-7.136z" style="fill:#00AEEF;"/>
  <path d="M16.148-6.002c0.376-0.33-0.082-0.852-0.549-0.385C15.269-6.057,15.759-5.676,16.148-6.002z" style="fill:#00AEEF;"/>
  <path d="M22.72-23.737c-0.328,0.327,0.167,0.71,0.549,0.383C23.649-23.683,23.19-24.204,22.72-23.737z" style="fill:#00AEEF;"/>
  <path d="M11.186-8.686c0.494-0.546,0.55-0.546,1.095-0.492c0.548,0.055,0.985-0.106,0.985-0.765    c0-0.492,0.819-1.26,1.642-1.75c0.818-0.493,1.149-0.71,0.982-1.314c-0.164-0.6-0.982-1.203-1.365-0.927    c-0.385,0.271-1.75,2.842-2.954,3.498C10.368-9.78,9.163-9.56,8.893-9.998c-0.274-0.437-0.329-1.312-0.766-1.312    c-0.439,0-0.493,0.549-0.71,0.931C7.196-9.998,7.142-9.505,6.43-9.56C5.719-9.614,5.172-9.614,4.79-8.957    C4.404-8.302,4.295-6.879,5.338-7.644C6.371-8.41,7.852-9.89,8.564-9.178c0.711,0.713,0.931,1.916,1.256,1.916    C10.149-7.262,10.695-8.139,11.186-8.686z" style="fill:#00AEEF;"/>
  <path d="M25.316-26.049c0,0-0.59-0.291-0.952-0.091c-0.253,0.139-1.059,0.757-0.562,1.3    c0.336,0.366,0.743,1.541,1.463,0.321C25.576-25.052,25.918-26.049,25.316-26.049z" style="fill:#00AEEF;"/>
  <path d="M20.853-16.723c0.767,0.766,1.531,0.547,1.642,0.164c0.109-0.381,1.53-0.053,2.133-0.435    c0.601-0.386,0.49-0.714,0.983-1.479c0.492-0.767,0.437-1.147,0.437-2.023c0-0.438,0.426-0.818,1.028-1.13h0.009    c0,0,0.938-0.311,1.188-0.756c0.249-0.449-0.014-0.905,0.304-1.274c0.505-0.586,1.399-1.531,2.054-1.203    c0,0,0.198,0.087,0.498-0.187c0.298-0.272,0.701-0.694,0.214-0.906c-0.56-0.243-2.502-0.655-2.994-0.435    c-0.492,0.218-0.973,1.528-0.922,2.13c0.038,0.376-0.327,0.945-0.327,0.945l-0.031,0.013c-0.229,0.151-0.47,0.399-0.743,0.835    c-0.768,1.205-1.416,0.726-3.558,0.055c-0.482-0.151-0.866,0.398-0.702,0.998c0.163,0.601,0.539,0.533,2.066,0.533    c1.534,0,1.316,1.039-0.051,2.517c-1.367,1.476-2.602-1.608-3.828-0.44C19.467-18.054,20.086-17.486,20.853-16.723z" style="fill:#00AEEF;"/>
  <path d="M54.221-21.565l-0.095,0.047c-0.609,0.307-1.031,0.691-1.031,1.129    c0,0.874,0.053,1.257-0.438,2.024c-0.491,0.763-0.383,1.092-0.982,1.476c-0.602,0.382-2.026,0.055-2.135,0.436    c-0.11,0.384-0.876,0.601-1.642-0.165c-0.762-0.765-1.386-1.33-0.601-2.077c1.227-1.17,2.46,1.915,3.828,0.438    c1.37-1.478,1.584-2.516,0.055-2.516c-1.533,0-1.906,0.068-2.067-0.532c-0.166-0.602,0.22-1.15,0.702-1    c2.14,0.675,2.788,1.149,3.554-0.053c0.277-0.435,0.516-0.685,0.748-0.837l0.104-0.048" style="fill:#00AEEF;"/>
  <path d="M31.105-22.352c0.22,0.385,0.601,0.907,0.982,1.071c0.383,0.166,2.727,1.553,0.856,3.195    c-0.44,0.391-0.304,0.242-0.739,0.571c-0.438,0.328-0.288,0.535,0,0.969c0.271,0.414,0.323,0.427,0.927,0.647    c0.6,0.218,0.38-0.82,0.437-1.64c0.057-0.82,1.531-1.312,2.024-1.915c0.491-0.6-0.057-1.149-0.986-1.203    c-0.93-0.054-0.657-0.492-0.493-0.875c0.165-0.382,0.331-0.218,0.493-0.711c0.164-0.491-0.162-0.219-0.818,0.053    c-0.655,0.276-0.494-0.217-0.494-0.929c0-0.711-0.301-1.05,0.274-0.966c0.767,0.11,2.146-0.617,2.258-1.056    c0.109-0.437,0.372-0.812,1.358-0.483c0,0,0.283-0.134,0.486-0.056c0.524,0.205,0.832,0.685,1.215-0.079l0.365-0.053    c0.261-0.519,0.326-0.588-0.268-0.461c-0.591,0.131-0.812-0.147-1.036-0.387c-0.22-0.24-0.922-0.112-1.363,0.074    c-0.446,0.186-1.578,0.024-1.578,0.024c-0.604,0-1.787,0.847-2.205,1.329c-0.211,0.241-0.336,0.329-0.487,0.9    c-0.148,0.574-0.166,0.449-0.166,0.449C31.764-23.172,30.889-22.733,31.105-22.352z" style="fill:#00AEEF;"/>
  <path d="M35.284-4.023c0.21,0,1.415-0.97,1.415-1.18c0-0.211-1.304-0.445-1.516-0.445    c-0.213,0-1.079,0.421-1.079,0.632C34.104-4.802,35.072-4.023,35.284-4.023z" style="fill:#00AEEF;"/>
  <path d="M34.507-7.606c0.752,1.254,1.771,0.727,1.007-0.48C35.2-8.585,34.25-8.034,34.507-7.606z" style="fill:#00AEEF;"/>
  <path d="M35.792-23.115c0.271,0.492,1.589,0.055,1.257-0.602C36.721-24.373,35.489-23.66,35.792-23.115z" style="fill:#00AEEF;"/>
  <path d="M45.398-15.413c0.328-1.422,0-2.627-0.764-2.627c-0.768,0-0.823,0.604-0.604,1.15    c0.221,0.545,0.165,0.654,0.11,1.367v0.163c-0.054,0.382-0.166,0.547,0,0.874C44.306-14.157,45.072-13.993,45.398-15.413z" style="fill:#00AEEF;"/>
  <path d="M45.459-11.023c0,0.491,1.586-0.056,2.407-1.15c0.821-1.095-0.713-1.095-1.646-0.874    C45.292-12.831,45.459-12.016,45.459-11.023z" style="fill:#00AEEF;"/>
  <path d="M42.18-7.481c0.55-0.438,0.655-0.712,1.202-0.712c0.55,0,0.713,0.11,1.424-0.107    c0.709-0.218,0.766-1.698-0.382-1.698c-1.15,0-2.767,1.592-3.393,2.354C40.541-7.044,41.635-7.044,42.18-7.481z" style="fill:#00AEEF;"/>
  <path d="M36.564-1.672c0.603-0.055,1.966-0.82,1.915-1.421c-0.06-0.602-0.219-0.658-1.151,0    C36.4-2.438,36.128-1.632,36.564-1.672z" style="fill:#00AEEF;"/>
  <path d="M31.753-4.918c0.663-0.316,1.131-0.921,1.072-1.383c-0.058-0.459-1.25-0.348-2.444,0.386    C29.889-5.61,31.092-4.602,31.753-4.918z" style="fill:#00AEEF;"/>
  <path d="M45.969-5.956c0.272,0.274,0.818,0.055,1.311-0.33c0.493-0.382,1.255-0.819,2.08-0.929    c0.819-0.108,0.658-0.491,0.658-1.094c0-0.601-0.06-0.712,0.215-1.202c0.274-0.494,0.655-1.096,1.095-1.096    c0.437,0,0.602-0.273,0.655-0.602c0.056-0.327-0.108-0.382-0.713-0.382c-0.601,0-0.373-0.1-0.653-0.437    c-0.276-0.328-0.329-0.328-0.879,0.054c-0.545,0.383-0.545,1.202-0.545,1.75c0,0.547-0.547,1.038-1.479,1.694    C46.787-7.87,45.693-6.231,45.969-5.956z" style="fill:#00AEEF;"/>
  <path d="M45.186-6.714c0.385-0.33-0.078-0.851-0.546-0.385C44.31-6.769,44.804-6.387,45.186-6.714z" style="fill:#00AEEF;"/>
  <path d="M50.48-23.354c0.382-0.328-0.082-0.85-0.549-0.383C49.603-23.41,50.092-23.027,50.48-23.354z" style="fill:#00AEEF;"/>
  <path d="M38.396-8.686c0.492-0.546,0.55-0.546,1.096-0.492c0.547,0.055,0.984-0.106,0.984-0.765    c0-0.492,0.821-1.26,1.642-1.75c0.819-0.493,1.146-0.71,0.983-1.314c-0.164-0.6-0.983-1.203-1.368-0.927    c-0.382,0.271-1.748,2.842-2.953,3.498c-1.196,0.654-2.404,0.875-2.679,0.437c-0.272-0.437-0.329-1.312-0.765-1.312    c-0.438,0-0.493,0.549-0.713,0.931c-0.216,0.381-0.274,0.874-0.983,0.819c-0.712-0.055-1.259-0.055-1.64,0.603    c-0.385,0.655-0.492,2.078,0.545,1.312c1.041-0.766,2.517-2.245,3.227-1.533c0.714,0.713,0.931,1.916,1.258,1.916    C37.356-7.262,37.911-8.139,38.396-8.686z" style="fill:#00AEEF;"/>
  <path d="M47.767-3.244c0.651,0.055,0.822,0.165,1.477-0.165c0.659-0.326,0.598-0.381,1.199-0.326    c0.602,0.056,0.822,0.217,1.313-0.438c0.492-0.657,0.547-0.438,0.985-0.056c0.436,0.384,0.82,0.329,0.874,0.056    c0.054-0.273-0.491-0.985-0.711-1.203c-0.218-0.22-0.548-0.438,0.384-0.93c0,0,0.622,0.092,0.733-0.52    c0.111-0.611-0.353-1.684-0.963-1.147c-0.609,0.535-1.084,1.229-1.084,1.229c-1.228,1.353-1.255,1.968-1.584,2.022    c-0.33,0.056-0.514,0.44-0.878,0.22c-1.767-1.068-1.89-0.073-2.193,0.538C47.015-3.355,47.767-3.244,47.767-3.244z" style="fill:#00AEEF;"/>
  <path d="M28.141-9.367c0.094,0.232,0.742,1.184,0.696,1.462c-0.046,0.281,1.464,0.187,1.603-0.093    c0.139-0.276-0.209-0.649-0.163-0.882c0.047-0.231,0.929-0.485,1.114-1.042c0.399-1.198,0.821-3.172,1.642-2.954    c0.82,0.219,1.75,0.383,2.403,0c0.659-0.383,0.602-0.655,1.262-0.547c0.651,0.109,2.074-0.108,2.679-0.438    c0.602-0.328,0.874-0.491,0.928-0.93c0.058-0.436,0.853-0.874,0.877-1.804c0.013-0.579,0.083-0.802,1.364-0.506    c1.285,0.295-1.379-2.467-1.675-1.874c-0.296,0.592-0.296,1.184-0.887,0.592c-0.591-0.592-0.396-0.986-0.89-0.889    c-0.492,0.102-1.524,1.146-1.524,1.146c-0.328,0.329-0.872,0.819-1.147,0.874c-0.274,0.056-0.876,0.547-0.656,0.875    c0.219,0.329,0.766,0.766,1.533,0.055c0.76-0.709,1.473-0.709,1.859-0.328c0.382,0.383,0.326,1.314-0.387,1.589    c-0.713,0.27-1.747,0.928-2.35,0.381c-0.602-0.547-0.821-0.822-1.149-0.492c-0.328,0.328-0.658,0.382-1.312,0.437    c-0.657,0.056-2.135,0.274-2.516,0.767c-0.384,0.491-1.532,0.711-1.532,1.039c0,0.329,0.601,0.654,0.819,0.82    c0.22,0.165,0.383,0.491,0.166,0.875c-0.22,0.383-0.548,1.475-1.423,1.314c-0.876-0.164-0.546-0.055-0.985,0.164    C28.491-9.758,28.048-9.602,28.141-9.367z" style="fill:#00AEEF;"/>
  <path d="M7.892-13.415c0.197,1.083,2.022,0.125,2.022,0.125c0.655,0.109,2.077-0.108,2.679-0.439    c0.604-0.327,0.876-0.49,0.929-0.929c0.057-0.438,0.93-0.873,0.876-1.804c-0.055-0.929-0.491-2.023-1.477-2.023    c-0.983,0-1.804,0.162-2.133,0.489c-0.327,0.329-0.874,0.821-1.149,0.876c-0.271,0.055-0.875,0.548-0.656,0.875    c0.221,0.328,0.766,0.768,1.533,0.055c0.765-0.711,1.476-0.711,1.859-0.327c0.382,0.382,0.328,1.311-0.384,1.585    c-0.711,0.274-1.636,0.77-2.352,0.383C8.822-14.988,7.696-14.502,7.892-13.415z" style="fill:#00AEEF;"/>
  <path d="M4.086-9.854c0.403-1.197,0.826-3.173,1.643-2.952c0,0,0.464-0.575,0.168-0.97    c-0.298-0.393,1.234-0.202,0.763-0.891c-0.368-0.544-2.136,0.275-2.512,0.767c-0.384,0.49-1.533,0.71-1.533,1.039    c0,0.327,0.602,0.657,0.821,0.82c0.219,0.163,0.381,0.492,0.16,0.874c-0.218,0.383-0.544,1.477-1.419,1.312    C1.302-10.018,1.63-9.907,1.19-9.686c0,0-0.443,0.155-0.351,0.39c0.092,0.232,0.744,1.184,0.696,1.462    C1.489-7.557,2.999-7.648,3.137-7.927c0.139-0.279-0.207-0.65-0.159-0.881C3.02-9.04,3.906-9.295,4.086-9.854z" style="fill:#00AEEF;"/>
  <path d="M23.563-13.371c0.218,0.382,1.64-0.109,2.35-0.493c0.38-0.204,0.793-0.314,1.172-0.312l0.078,0.027    c0.135,0.093,0.439,0.159,0.973-0.54c0.711-0.93,1.094-1.532,1.75-1.532c0.656,0,0.983-0.435,0.764-1.093    c-0.216-0.654-1.302-1.661-1.138-1.934c0.165-0.274,1.541-1.236,0.976-1.916c-0.733-0.886-2.531-0.486-1.83,0.567    c0.218,0.325-0.229,1.754-0.286,1.919c-0.055,0.165,0.968,0.601,1.24,0.764c0.274,0.163,0.437,0.383,0.165,0.601    c-0.272,0.221-0.711,0.33-1.039,0.276c-0.329-0.056-0.713-0.276-0.931,0.271c-0.218,0.545-0.015,1.441-0.644,1.36l-0.027,0.009    c-0.159-0.101-0.345-0.257-0.511-0.383c-0.656-0.491-0.712,0.22-0.931,0.877c-0.217,0.658-0.505,0.663-0.873,0.547    C23.944-14.628,23.344-13.753,23.563-13.371z" style="fill:#00AEEF;"/>
  <path d="M45.952,0c0.04-0.088,0.07-0.189,0.1-0.31c0.164-0.709,0.547-1.093,1.146-1.039    c0.604,0.056,0.553,0.602,1.314,0.384c0.766-0.218,1.914-0.929,2.353-0.604c0.44,0.331,0.874,0.658,1.205,0.111    c0.305-0.509,1.317-1.018,1.94-0.999l0.211,0.019v1.073l-0.189-0.017c-0.518-0.034-0.603,0.083-0.925,0.525    c-0.438,0.602-2.078,0.547-3.011,0.602C49.763-0.235,49.518-0.147,49.354,0" style="fill:#00AEEF;"/>
  <path d="M54.221-12.177l-0.114,0.09c-0.165,0.196-0.398,0.312-0.59,0.489    c-0.711,0.654-0.717,0.897-0.231,1.087c0.233,0.096,0.52,0.007,0.786-0.154l0.149-0.077" style="fill:#00AEEF;"/>
  <path d="M25.149-10.081c0.233,0.093,0.518,0.007,0.786-0.155l-0.001-0.022    c0.336-0.215,0.641-0.542,0.761-0.752c0,0,0.333,0.327,0.659,0.271c0.324-0.054,0.541-0.983,0.324-1.53    c-0.216-0.545-0.65-0.162-0.65-0.162c-0.318-0.316-0.664,0.16-1.094,0.696l-0.021-0.01c-0.164,0.197-0.343,0.401-0.531,0.576    C24.67-10.515,24.666-10.274,25.149-10.081z" style="fill:#00AEEF;"/>
  <path d="M43.604-19.784c1.149-0.219,2.899-0.33,3.557-0.822c0.653-0.492,1.293-2.625,1.316-3.171    c0.01-0.421,0.224-0.708,0.131-1.005c-0.094-0.295-2.312-0.516-2.558-0.449h-0.092c0-0.6-0.508-0.692-0.508-0.692    c-0.787,0.177-1.562-0.968-1.924-0.963c-0.822,0.014-1.312,0.766-1.094,1.313c0,0-0.151,0.301,0.492,0.663    c0.583,0.33,1.096,0.88,1.681,0.5l0.405-0.126c1.065,0.15,0.165,1.157,0.875,0.883c0.71-0.274,1.984-0.453,1.818,0.204    c-0.159,0.656-1.42,2.08-2.13,2.135c-0.713,0.053-1.351-0.207-1.613-0.335c-0.408-0.207-0.943-0.207-1.34-0.213    c-0.471-0.01-1.315-0.597-0.656-0.76c0.656-0.164,1.038,0.056,1.038-0.329c0-0.383-0.109-0.383-0.438-0.546    c-0.329-0.164-0.329-0.163-0.493-0.383c-0.162-0.219-0.436-0.273-0.818-0.273c-0.384,0-0.384,0.053-0.767-0.273    c-0.382-0.329-0.866-0.329-1.141,0.273c-0.273,0.601-0.06,0.976,0.594,0.922c0.657-0.056,0.984,0,0.984,0.438    c0,0.437-0.274,1.259-1.149,0.985c-0.875-0.274-1.198-0.877-1.746-0.767c-0.545,0.11-0.605,0.547-0.171,1.421    c0.308,0.613,0.498,1.424,1.428,0.766c0.927-0.657,1.257-1.312,2.021-1.093c0.766,0.219,0.931,0.436,1.151,0.984    C42.674-19.949,42.458-19.567,43.604-19.784z" style="fill:#00AEEF;"/>
  <path d="M51.585-25.41c0.336,0.363,0.742,1.538,1.461,0.319c0.314-0.531,0.654-1.531,0.054-1.531    c0,0-0.589-0.291-0.953-0.092C51.896-26.572,51.089-25.955,51.585-25.41z" style="fill:#00AEEF;"/>
  <path d="M12.081-54.22l-0.034,0.09c-0.153,0.28-0.286,0.558-0.398,0.781    c-0.38,0.765-1.278-0.016-1.804-0.22c-0.204-0.078-0.492,0.057-0.492,0.057c-0.983-0.329-1.037,0.71-1.147,1.146    c-0.11,0.438-0.823,0.493-1.584,0.384c-0.579-0.084-0.276,0.253-0.276,0.967c0,0.71-0.16,1.204,0.493,0.93    c0.658-0.275,0.985-0.547,0.82-0.056c-0.162,0.493-0.329,0.33-0.494,0.713c-0.161,0.382-0.436,0.821,0.494,0.874    c0.932,0.055,1.477,0.602,0.984,1.203c-0.492,0.601-1.972,1.094-2.022,1.914c-0.06,0.821,0.158,1.859-0.438,1.64    c-0.603-0.219-0.659-0.231-0.928-0.644c-0.289-0.437-0.438-0.642,0-0.971c0.438-0.327,0.299-0.181,0.742-0.571    c1.867-1.641-0.477-3.029-0.855-3.193c-0.387-0.163-0.764-0.69-0.984-1.072c-0.22-0.381,0.658-0.819,1.037-1.532    c0,0,0.023,0.125,0.171-0.446c0.147-0.571,0.278-0.662,0.482-0.904c0.418-0.481,0.931-0.653,1.533-0.653    c0.561,0,0.698-0.12,1.076-0.317l0.104-0.117" style="fill:#00AEEF;"/>
  <path d="M14.749-46.051c-0.547,0.382-0.491,1.804,0.385,0.874l0.051-0.14    C15.244-45.809,15.294-46.435,14.749-46.051z" style="fill:#00AEEF;"/>
  <path d="M4.752-46.364c0.28-0.412,0.616-0.94-0.045-0.854c-0.661,0.087-1.267,1.375-0.066,0.953    L4.752-46.364z" style="fill:#00AEEF;"/>
  <path d="M4.921-31.595c0.27,0.493,1.587,0.056,1.256-0.602C5.845-32.852,4.616-32.141,4.921-31.595z" style="fill:#00AEEF;"/>
  <path d="M18.931-43.994c-1.187-0.85-2.423-1.01-2.724-0.303c-0.285,0.707-0.134,1.507,0.459,1.516    c0.584,0.007,1.045-0.417,1.678-0.095l0.152,0.063c0.333,0.198-0.445-0.63-0.079-0.656C18.783-43.492,20.116-43.143,18.931-43.994    z" style="fill:#00AEEF;"/>
  <path d="M21.163-39.103c-0.879-0.133-0.591-1.43-0.462-1.662c0.661-1.196-0.688-0.842-1.643-0.876    c-2.711-0.097-1.461,2.194-0.07,1.337c0.73-0.451,1.029,1.259,0.268,1.734c-0.765,0.479,1.753,1.735,2.422,1.165    C22.344-37.978,22.041-38.97,21.163-39.103z" style="fill:#00AEEF;"/>
  <path d="M13.822-34.844c-0.489,0.6,0.601,0.6,1.147,0.162c0.546-0.437,0.654-0.709,1.205-0.709    c0.544,0,0.712,0.109,1.421-0.11c0.711-0.218,0.766-1.694-0.384-1.694C16.065-37.195,14.446-35.607,13.822-34.844z" style="fill:#00AEEF;"/>
  <path d="M3.058-32.122c0.326-0.659,0.325-1.422,0-1.751c-0.326-0.327-1.205,0.492-1.695,1.806    C1.16-31.523,2.73-31.465,3.058-32.122z" style="fill:#00AEEF;"/>
  <path d="M10.526-51.318c-0.602-0.608-1.148-0.93-1.75-0.328c-0.604,0.602-0.298,0.565-0.081,0.785    c0.398,0.396,0.221,0.086,1.085,0.227C10.376-50.539,10.75-51.091,10.526-51.318z" style="fill:#00AEEF;"/>
  <path d="M25.909-33.448c0.399,0.4,0.222,0.087,1.087,0.229c0.595,0.096,0.969-0.457,0.744-0.684    c-0.596-0.61-1.148-0.931-1.752-0.329C25.388-33.631,25.691-33.667,25.909-33.448z" style="fill:#00AEEF;"/>
  <path d="M17.978-33.915c0.383-0.329-0.081-0.85-0.55-0.382C17.101-33.97,17.595-33.587,17.978-33.915z" style="fill:#00AEEF;"/>
  <path d="M25.312-50.938c-0.327,0.33,0.167,0.711,0.549,0.385C26.245-50.883,25.78-51.405,25.312-50.938z" style="fill:#00AEEF;"/>
  <path d="M15.891-40.205c-0.164-0.601-0.982-1.201-1.365-0.93c-0.385,0.273-1.75,2.845-2.954,3.499    c-1.203,0.656-2.408,0.875-2.679,0.438c-0.274-0.438-0.329-1.313-0.766-1.313c-0.439,0-0.493,0.549-0.71,0.931    c-0.221,0.383-0.275,0.876-0.987,0.819c-0.711-0.055-1.258-0.054-1.64,0.603c-0.386,0.656-0.495,2.077,0.548,1.314    c1.033-0.768,2.515-2.245,3.226-1.533c0.711,0.711,0.931,1.914,1.256,1.914c0.33,0,0.876-0.875,1.367-1.422    c0.494-0.547,0.55-0.547,1.095-0.492c0.548,0.054,0.985-0.108,0.985-0.764c0-0.495,0.819-1.261,1.642-1.75    C15.727-39.384,16.058-39.603,15.891-40.205z" style="fill:#00AEEF;"/>
  <path d="M22.677-36.795c-1.225,1.351-1.257,1.969-1.588,2.022c-0.325,0.055-0.599-0.108-0.873,0.218    c-0.272,0.329-0.108,0.22-0.984,0.057c-0.873-0.166,0.212,1.569-0.554,2.172c-0.767,0.6-1.151,0.655-1.425,0.163    c-0.269-0.493-0.438-1.149-1.309-0.384c-0.88,0.766-1.203,0.876-1.697,0.384c-0.493-0.493-1.312-1.586-2.241-1.424    c-0.93,0.165-0.713,0.274-0.713,0.658c0,0.382,0.657,0.929,1.423,0.929c0.765,0,1.478,1.259,0.713,1.915    c-0.766,0.655-1.447,0.528-2.218,0.667c-0.233,0.044-0.658-0.389-0.743-0.514c-0.086-0.129-0.562,0.074-0.65,0.267    c-0.082,0.189,0.085,0.947,0.78,1.054c0.695,0.105,1.166,0.505,1.486-0.193c0.316-0.697,1.661-0.477,1.836-0.461    c1.046,0.108,1.035,0.272,1.205,0.438c0.16,0.165,0.599,0.273,0.93-0.602c0.327-0.874,0.379-1.421,1.365-1.367    c0.983,0.056,1.476,0.219,1.914-0.272c0.437-0.492,0.493-0.603,1.147-0.548c0.656,0.056-1.192-1.515-0.537-1.843    c0.655-0.328,0.602-0.383,1.202-0.328c0.602,0.055,0.819,0.219,1.312-0.438c0.493-0.656,0.548-0.438,0.984-0.056    c0.438,0.383,0.821,0.329,0.876,0.056c0.056-0.272-0.492-0.984-0.711-1.201c-0.218-0.221-0.55-0.439,0.382-0.932    c0,0,0.86-0.192,0.561-0.47c-0.306-0.278,0.58-0.652,0.209-0.836C24.412-37.648,23.507-37.712,22.677-36.795z" style="fill:#00AEEF;"/>
  <path d="M20.12-25.793c0.637,0.033,1.203-0.022,1.311-0.267c0.137-0.3,0.226-0.68,0.489-0.949l0.155-0.169    c0.171-0.171-0.242-0.61,0.124-0.633c0.93-0.054,2.65,0.051,3.009-0.601c0.084-0.154,0.08-0.641,0.608-0.892    c0.528-0.254,1.646-1.816,0.405-2.337c-3.184-1.335-1.725,2.079-2.053,2.626c-0.329,0.549-0.768,0.22-1.204-0.109    c-0.439-0.328-0.913,0.72-1.679,0.938c-0.767,0.219-0.712-0.328-1.312-0.384c-0.601-0.054-0.986,0.329-1.151,1.041    c-0.031,0.141-0.07,0.259-0.119,0.354l-0.188,0.171c-0.194,0.383-0.534-0.24-1.186-0.24c-0.821,0-1.31,0.764-1.091,1.312    c0,0,0.486,0.438,1.039-0.054c0.545-0.494,0.043-0.339,0.809-0.121l0.223,0.037c1.478,0.276,0.335,2.015,1.045,1.742    c0.712-0.273,1.312,0.218,1.146,0.876c-0.161,0.657-1.42,2.079-2.129,2.134c-0.713,0.053-1.429-0.219-1.536-0.492    c-0.11-0.275-0.158-0.222,0.223-0.547c0.381-0.33,0.381-0.441,0.109-0.658c-0.271-0.22-0.768,0.109-0.877,0.602    c-0.108,0.495-0.487,0.822-0.877,0.55c-0.38-0.275-1.98-2.275-1.324-2.441c0.656-0.163,1.039,0.056,1.039-0.326    c0-0.383-0.108-0.383-0.438-0.547c-0.328-0.162-0.328-0.162-0.493-0.383c-0.162-0.218-0.438-0.274-0.82-0.274    c-0.382,0-0.382,0.055-0.767-0.272c-0.38-0.328-1.201-0.328-1.477,0.272c-0.273,0.603,0.275,1.312,0.93,1.258    c0.657-0.055,1.657,1.342,1.657,1.782c0,0.438-0.273,1.258-1.148,0.984c-0.875-0.275-1.204-0.877-1.749-0.767    c-0.548,0.11-0.601,0.546-0.166,1.422c0.308,0.614,0.495,1.424,1.424,0.767c0.931-0.658,1.258-1.311,2.024-1.093    c0.765,0.217,0.928,0.434,1.149,0.983c0.22,0.547,0,0.929,1.146,0.711c1.148-0.22,2.9-0.328,3.558-0.82    c0.654-0.493,1.294-2.625,1.309-3.173c0.018-0.418,0.228-0.706,0.14-1.003c-0.096-0.297-0.242-0.39-0.489-0.324    C20.219-24.928,19.4-25.718,20.12-25.793" style="fill:#00AEEF;"/>
  <polyline style="fill:#00AEEF;" points="20.12,-25.793 20.12,-25.793 20.118,-25.793 20.12,-25.793   "/>
  <path d="M15.708-50.461c0-0.382-0.11-0.382-0.439-0.546c-0.33-0.166-0.33-0.165-0.491-0.382    c-0.164-0.221-0.438-0.274-0.822-0.274c-0.381,0-0.384,0.054-0.763-0.274c-0.385-0.328-1.205-0.329-1.481,0.274    c-0.271,0.602,0.275,1.311,0.932,1.255c0.654-0.053,0.983,0,0.983,0.439c0,0.438-0.273,1.259-1.148,0.986    c-0.877-0.274-1.202-0.875-1.749-0.767c-0.548,0.109-0.602,0.547-0.164,1.422c0.303,0.614,0.49,1.422,1.421,0.767    c0.93-0.658,1.258-1.313,2.023-1.095c0,0,0.918-0.475,0.55-0.918c-0.368-0.445-0.378-0.451,0.107-0.559    C15.329-50.278,15.708-50.078,15.708-50.461z" style="fill:#00AEEF;"/>
  <polyline style="fill:#00AEEF;" points="20.188,-52.985 20.188,-52.985 20.185,-52.985 20.188,-52.985   "/>
  <path d="M20.188-52.985c0.377,0.029,0.489-0.344,0.397-0.51c-0.304-0.544-3.184-0.249-3.184-0.249    c-0.82,0-1.317,0.765-1.099,1.313c0,0,0.496,0.438,1.041-0.055c0.549-0.494,0.047-1.031,0.813-0.814l0.22,0.038    c1.481,0.276,0.334,2.017,1.047,1.742c0.712-0.271,1.311,0.218,1.149,0.874c-0.164,0.659-1.424,2.081-2.133,2.136    c-0.712,0.055-1.424-0.221-1.532-0.493c-0.109-0.275-0.17-0.22,0.217-0.548c0.385-0.327,0.385-0.436,0.11-0.655    c-0.271-0.22-0.764,0.108-0.871,0.602c0,0-1.79,2.823-0.086,2.676l0.193-0.05c1.146-0.22,2.898-0.328,3.553-0.822    c0.658-0.489,1.295-2.623,1.316-3.17c0.011-0.42,0.225-0.71,0.132-1.007c-0.095-0.294-0.238-0.388-0.488-0.322    C20.288-52.12,19.469-52.91,20.188-52.985" style="fill:#00AEEF;"/>
  <path d="M24.352-53.861c0,0-0.59-0.29-0.954-0.088c-0.25,0.138-1.06,0.757-0.561,1.302    c0.334,0.363,0.74,1.538,1.46,0.319C24.61-52.86,24.953-53.861,24.352-53.861z" style="fill:#00AEEF;"/>
  <path d="M30.742-53.231c-0.564-0.241-0.775-0.653-1.267-0.434c-0.491,0.218-1.981,1.529-1.927,2.13    c0.035,0.376-0.313,0.944-0.313,0.944l-0.209,0.141c-0.235,0.148-0.478,0.399-0.756,0.833c-0.763,1.203-1.412,0.729-3.553,0.056    c-0.482-0.152-0.867,0.396-0.703,0.998c0.162,0.602,0.538,0.533,2.069,0.533c1.531,0,1.312,1.039-0.055,2.516    c-1.368,1.477-2.601-1.608-3.827-0.438c-0.786,0.748-0.163,1.312,0.6,2.079c0.768,0.765,1.531,0.547,1.642,0.163    c0.11-0.383,1.531-0.054,2.133-0.438c0.601-0.383,0.491-0.712,0.983-1.476c0.493-0.767,0.438-1.148,0.438-2.024    c0-0.437,0.426-0.822,1.037-1.129l0.168-0.126c0,0,0.941-0.311,1.188-0.758c0.25-0.447-0.012-0.903,0.307-1.275    c0.503-0.584,0.673-1.529,1.331-1.2c0,0,0.197,0.088,0.496-0.187C30.823-52.595,31.228-53.021,30.742-53.231z" style="fill:#00AEEF;"/>
  <path d="M39.076-54.22l-0.077,0.116c-0.152,0.278-0.281,0.556-0.393,0.78    c-0.376,0.766-1.281-0.017-1.806-0.221c-0.202-0.077-0.491,0.057-0.491,0.057c-0.984-0.328-1.04,0.711-1.149,1.148    c-0.11,0.438-0.82,0.492-1.587,0.383c-0.576-0.082-0.273,0.254-0.273,0.967c0,0.711-0.161,1.203,0.493,0.929    c0.657-0.271,0.983-0.546,0.819-0.055c-0.162,0.492-0.328,0.33-0.49,0.711c-0.164,0.383-0.439,0.822,0.49,0.876    c0.93,0.053,1.478,0.602,0.985,1.205c-0.492,0.6-1.969,1.092-2.024,1.912c-0.055,0.819,0.165,1.86-0.436,1.642    c-0.605-0.22-0.657-0.234-0.929-0.647c-0.285-0.436-0.438-0.64,0-0.969c0.437-0.328,0.301-0.18,0.744-0.571    c1.869-1.644-0.476-3.029-0.856-3.192c-0.384-0.165-0.766-0.693-0.983-1.073c-0.219-0.384,0.656-0.821,1.04-1.532    c0,0,0.018,0.125,0.166-0.447c0.149-0.572,0.28-0.661,0.488-0.902c0.419-0.482,0.931-0.657,1.532-0.657    c0.559,0,0.787-0.14,1.167-0.336L35.6-54.22" style="fill:#00AEEF;"/>
  <path d="M43.003-45.79c-0.545,0.381-0.491,1.805,0.38,0.875l0.057-0.141    C43.494-45.546,43.547-46.173,43.003-45.79z" style="fill:#00AEEF;"/>
  <path d="M31.855-46.265l0.11-0.1c0.278-0.412,0.612-0.94-0.05-0.854    C31.255-47.131,30.647-45.843,31.855-46.265z" style="fill:#00AEEF;"/>
  <path d="M34.909-34.371c-0.331-0.656-1.562,0.056-1.26,0.601C33.924-33.276,35.234-33.715,34.909-34.371z" style="fill:#00AEEF;"/>
  <path d="M46.084-42.622c-0.688-1.287-1.52-1.634-2.097-1.132c-0.578,0.501-0.753,0.874-0.232,1.143    c0.525,0.271,0.556,0.389,0.981,0.96l0.107,0.125c0.211,0.322,0.146-0.477,0.483-0.337C45.667-41.723,46.768-41.333,46.084-42.622    z" style="fill:#00AEEF;"/>
  <path d="M46.221-40.249c-0.929,0.219-0.762,1.033-0.762,2.022c0,0.491,1.586-0.055,2.407-1.147    C48.688-40.468,47.153-40.467,46.221-40.249z" style="fill:#00AEEF;"/>
  <path d="M42.18-34.682c0.55-0.437,0.655-0.709,1.202-0.709c0.55,0,0.713,0.109,1.424-0.11    c0.709-0.218,0.766-1.694-0.382-1.694c-1.15,0-2.767,1.588-3.393,2.352C40.541-34.244,41.635-34.244,42.18-34.682z" style="fill:#00AEEF;"/>
  <path d="M35.683-31.676c-0.056-0.601-0.334-1.049-1.263-0.391c-0.929,0.656-0.363,1.265,0.072,1.224    C35.094-30.897,35.739-31.074,35.683-31.676z" style="fill:#00AEEF;"/>
  <path d="M30.961-34.219c-0.326-0.328-1.203,0.491-1.693,1.805c-0.205,0.545,1.367,0.602,1.693-0.055    C31.29-33.126,31.288-33.89,30.961-34.219z" style="fill:#00AEEF;"/>
  <path d="M50.136-39.454c-0.548,0.384-0.548,1.204-0.548,1.751c0,0.547-0.549,1.038-1.481,1.695    c-0.927,0.655-2.021,2.298-1.746,2.57c0.272,0.273,0.819,0.053,1.312-0.329c0.494-0.383,1.258-0.82,2.073-0.929    c0.822-0.111,0.659-0.493,0.659-1.095c0-0.601-0.056-0.711,0.221-1.204c0.271-0.492,0.654-1.092,1.093-1.092    c0.437,0,0.602-0.274,0.657-0.603c0.054-0.329-0.108-0.383-0.712-0.383c-0.602,0-0.376-0.099-0.658-0.438    C50.735-39.837,50.677-39.837,50.136-39.454z" style="fill:#00AEEF;"/>
  <path d="M45.186-33.915c0.385-0.329-0.078-0.85-0.546-0.382C44.31-33.97,44.804-33.587,45.186-33.915z" style="fill:#00AEEF;"/>
  <path d="M49.932-50.938c-0.329,0.33,0.16,0.711,0.549,0.385C50.862-50.883,50.398-51.405,49.932-50.938z" style="fill:#00AEEF;"/>
  <path d="M41.733-41.135c-0.382,0.273-1.748,2.845-2.953,3.499c-1.196,0.656-2.404,0.875-2.679,0.438    c-0.272-0.438-0.329-1.313-0.765-1.313c-0.438,0-0.493,0.549-0.713,0.931c-0.216,0.383-0.274,0.876-0.983,0.819    c-0.712-0.055-1.259-0.054-1.64,0.603c-0.385,0.656-0.492,2.077,0.545,1.314c1.041-0.768,2.517-2.245,3.227-1.533    c0.714,0.711,0.931,1.914,1.258,1.914c0.326,0,0.881-0.875,1.366-1.422c0.492-0.547,0.55-0.547,1.096-0.492    c0.547,0.054,0.984-0.108,0.984-0.764c0-0.495,0.821-1.261,1.642-1.75c0.819-0.493,1.146-0.712,0.983-1.315    C42.938-40.807,42.119-41.406,41.733-41.135z" style="fill:#00AEEF;"/>
  <path d="M46.42-30.272c0.438-0.492,0.49-0.602,1.149-0.548c0.652,0.056,0.82,0.165,1.475-0.164    c0.657-0.33,0.601-0.383,1.207-0.33c0.599,0.056,0.818,0.221,1.31-0.436c0.49-0.655,0.545-0.438,0.982-0.054    c0.439,0.383,0.819,0.327,0.876,0.054c0.054-0.271-0.493-0.983-0.712-1.203c-0.217-0.218-0.548-0.435,0.385-0.928    c0,0-0.483-1.354-1.312-0.438c-1.231,1.354-1.26,1.966-1.59,2.021c-0.329,0.054-0.599-0.108-0.873,0.22    c-0.274,0.327-0.111,0.219-0.986,0.056c-0.872-0.167-1.805-0.11-2.568,0.491c-0.766,0.602-1.149,0.657-1.423,0.164    c-0.272-0.492-0.436-1.148-1.31-0.384c-0.875,0.767-1.206,0.877-1.699,0.384c-0.489-0.492-1.312-2.624-2.242-2.46    c-0.929,0.162-0.71,0.274-0.71,0.657c0,1.275,0.66,0.926,1.422,0.926c0.768,0,1.479,2.299,0.712,2.955l-0.04,0.021    c-0.703,0.888,0.532,0.8,0.532,0.8c1.039,0.164,1.039,0.274,1.203,0.438c0.164,0.164,0.603,0.274,0.93-0.601    c0.329-0.876,0.384-1.423,1.365-1.367C45.49-29.945,45.981-29.782,46.42-30.272z" style="fill:#00AEEF;"/>
  <path d="M37.547-45.314c-0.327,0.325-1.544-0.189-1.817-0.134c-0.273,0.055-0.878,0.549-0.657,0.874    c0.22,0.33,0.766,0.768,1.532,0.055c0,0,0.525-0.269,0.299,0.771c-0.081,0.371,1.019-0.001,1.78-0.593    c1.21-0.941,1.326,2.99,0.067,2.086c-0.614-0.443-1.747,0.932-2.35,0.386c-0.602-0.549-0.821-0.82-1.149-0.494    c-0.327,0.329-0.656,0.383-1.312,0.438c-0.658,0.057-2.132,0.273-2.515,0.767c-0.384,0.491-1.531,0.711-1.531,1.039    c0,0.329,0.6,0.655,0.821,0.82c0.218,0.163,0.382,0.492,0.161,0.877c-0.219,0.382-0.545,1.475-1.421,1.31    c-0.876-0.164-0.545-0.056-0.983,0.165c0,0-0.447,0.158-0.354,0.393c0.095,0.232,0.743,1.183,0.697,1.462    c-0.046,0.278,1.462,0.185,1.602-0.092c0.14-0.279-0.207-0.651-0.161-0.883c0.047-0.232,0.928-0.486,1.114-1.045    c0.397-1.196,0.822-3.171,1.641-2.952c0.82,0.219,1.75,0.382,2.407,0c0.655-0.383,0.6-0.656,1.258-0.547    c0.652,0.11,2.075-0.109,2.677-0.439c0.603-0.326,0.878-0.491,0.931-0.929c0.056-0.438,0.93-0.875,0.875-1.805    c-0.056-0.93-0.492-2.023-1.478-2.023C38.7-45.809,37.875-45.644,37.547-45.314z" style="fill:#00AEEF;"/>
  <path d="M8.718-44.979c-0.274,0.054-0.875,0.548-0.658,0.876c0.219,0.325,0.767,0.764,1.534,0.054    c0,0,3.982-1.595,2.405-2.296c-0.899-0.4-1.804,0.164-2.135,0.491C9.539-45.524,8.99-45.033,8.718-44.979z" style="fill:#00AEEF;"/>
  <path d="M54.221-42.565c-0.065,0.041-0.149,0.055-0.26,0.042l-0.021,0.017    c-0.148-0.104-0.341-0.259-0.506-0.379c-0.656-0.492-0.71,0.217-0.928,0.873c-0.22,0.656-0.508,0.663-0.878,0.548    c-0.873-0.273-1.474,0.601-1.254,0.982c0.22,0.384,1.638-0.107,2.35-0.491c0.38-0.203,0.789-0.315,1.177-0.312l0.059,0.021    c0.059,0.037,0.143,0.07,0.26,0.049" style="fill:#00AEEF;"/>
  <path d="M29.886-43.419c0.656,0,0.983-0.438,0.764-1.097c-0.216-0.653-1.302-1.661-1.138-1.934    c0.165-0.273,1.541-1.236,0.976-1.916c-0.733-0.883-2.531-0.488-1.83,0.566c0.218,0.329-0.229,1.755-0.286,1.919    c-0.055,0.165,0.968,0.601,1.24,0.766c0.274,0.164,0.437,0.383,0.165,0.599c-0.272,0.221-0.711,0.33-1.039,0.276    c-0.329-0.056-0.713-0.276-0.931,0.273c-0.218,0.547-0.015,1.441-0.644,1.357l-0.027,0.012c-0.159-0.102-0.345-0.259-0.511-0.382    c-0.656-0.491-0.712,0.218-0.931,0.876c-0.217,0.657-0.505,0.663-0.873,0.547c-0.877-0.273-1.478,0.602-1.258,0.983    c0.218,0.384,1.64-0.108,2.35-0.49c0.38-0.205,0.793-0.314,1.172-0.313l0.078,0.027c0.135,0.093,0.439,0.156,0.973-0.54    C28.847-42.818,29.229-43.419,29.886-43.419z" style="fill:#00AEEF;"/>
  <path d="M54.221-29.615l-0.261-0.017c-0.603-0.11-1.751,0.438-2.079,0.984    c-0.327,0.547-0.767,0.218-1.205-0.109c0,0-2.674-0.892-3.857-0.475c-2.316,0.816,1.052,3.65,1.038,2.664    c-0.042-2.584,3.354-1.128,4.021-0.979c0.664,0.149,1.042-0.499,1.042-0.499c0.36-0.494,0.427-0.582,1.12-0.509l0.182,0.014" style="fill:#00AEEF;"/>
  <path d="M31.168-30.21c-0.38-0.641-2.944-0.653-3.369,0.27c-0.164,0.355,0.064,0.618,0.012,1.163    c-0.052,0.543,0.747,1.392,1.109,1.042c0.362-0.352,0.805-2.478,2.379-1.747c0.585,0.272,1.524,1.876,2.161,1.552    c0.635-0.324,1.213-0.049,1.626,0.211c0.418,0.259,1.834-0.441,2.385-0.445c0,0,0.691,0.25,0.663-0.072    c-0.038-0.32-0.81-1.787-0.268-1.732c0.547,0.053,1.11,0.393,0.833-0.212c-0.244-0.528-0.168-0.62-0.71-0.671    c0,0-0.195-0.186-0.896,0.187c-0.695,0.374-2.793,1.993-3.188,1.515c-0.396-0.476-0.727-1.058-1.252-0.723    C32.129-29.54,31.544-29.569,31.168-30.21z" style="fill:#00AEEF;"/>
  <path d="M28.57-38.548c0.328-0.054,0.546-0.983,0.328-1.53c-0.217-0.548-0.656-0.165-0.656-0.165    c-0.315-0.314-0.656,0.163-1.087,0.699l-0.015-0.012c-0.176,0.197-0.347,0.4-0.538,0.575c-0.712,0.657-0.717,0.896-0.234,1.087    c0.234,0.096,0.521,0.009,0.788-0.152l-0.001-0.024c0.336-0.216,0.638-0.543,0.758-0.75C27.913-38.82,28.242-38.494,28.57-38.548z    " style="fill:#00AEEF;"/>
  <path d="M47.494-52.794c0.635,0.033,1.205-0.021,1.315-0.266c0.132-0.301,0.225-0.682,0.483-0.946    l0.009-0.158c0.023-0.021,0.048-0.04,0.067-0.056" style="fill:#00AEEF;"/>
  <path d="M47.494-52.794c-0.72,0.075,0.098,0.866,0.797,0.684c0.245-0.064,0.398,0.028,0.486,0.324    c0.091,0.296-0.397,0.682-0.137,1.005c0.39,0.471-0.755,1.156-0.762,0.329c-0.009-0.679-0.435-1.15-1.15-0.876    c-0.71,0.271,0.435-1.467-1.047-1.744l-0.22-0.035c-0.766-0.22-0.266,0.319-0.81,0.812c-0.549,0.492-1.038,0.054-1.038,0.054    c-0.222-0.547,0.271-1.312,1.093-1.312c0.648,0,0.988-0.068,1.183-0.448l0.043-0.158c0.01-0.022,0.017-0.04,0.027-0.061" style="fill:#00AEEF;"/>
  <polyline style="fill:#00AEEF;" points="47.494,-52.794 47.495,-52.794 47.492,-52.794 47.494,-52.794   "/>
  <path d="M38.991-51.655c-0.271,0.603,0.279,1.315,0.931,1.262c0.658-0.057,0.985,0,0.985,0.435    c0,0.438-0.273,1.258-1.147,0.985c-0.878-0.274-1.204-0.875-1.745-0.766c-0.555,0.108-0.606,0.546-0.173,1.421    c0.31,0.613,0.5,1.422,1.429,0.767c0.927-0.658,1.254-1.313,2.02-1.095c0.766,0.22,0.931,0.436,1.147,0.985    c0.22,0.546,0.182,1.365,1.15,0.71c0.401-0.271,1.668-0.317,2.629,0.124c0.963,0.444,1.632-0.886,1.259-1.85    c-0.37-0.96-1.108-1.108-1.701-0.517c-0.591,0.592-1.183,0.592-1.75,0.22c-0.245-0.162-0.163-0.22,0.22-0.548    c0.381-0.329,0.381-0.438,0.11-0.658c-0.274-0.214-0.767,0.109-0.877,0.603c-0.11,0.494-0.491,0.822-0.876,0.549    c-0.382-0.274-1.312-0.931-0.657-1.096c0.657-0.163,1.041,0.054,1.041-0.326c0-0.383-0.108-0.383-0.438-0.547    c-0.327-0.164-0.327-0.163-0.491-0.384c-0.162-0.22-0.438-0.274-0.821-0.274c-0.382,0-0.382,0.055-0.763-0.272    C40.086-52.255,39.271-52.256,38.991-51.655z" style="fill:#00AEEF;"/>
  <path d="M52.529-53.249c0,0-0.593-0.294-0.953-0.091c-0.253,0.14-1.062,0.758-0.564,1.302    c0.335,0.363,0.741,1.54,1.462,0.319C52.788-52.251,53.131-53.249,52.529-53.249z" style="fill:#00AEEF;"/>
  <path d="M6.764-41.897c-0.652,0.055-2.131,0.273-2.51,0.766C3.867-40.64,2.72-40.42,2.72-40.094    c0,0.329,0.602,0.655,0.822,0.821c0.22,0.164,0.381,0.491,0.161,0.875c-0.219,0.382-0.55,1.475-1.421,1.312    c-0.875-0.163-0.548-0.056-0.983,0.162c0,0-0.445,0.161-0.352,0.392c0.094,0.233,0.744,1.187,0.695,1.464    c-0.048,0.279,1.465,0.187,1.603-0.092c0.138-0.279-0.21-0.651-0.161-0.885c0.045-0.23,0.93-0.483,1.109-1.041    c0.403-1.199,0.826-3.174,1.643-2.955c0.82,0.221,1.752,0.384,2.408,0C8.9-40.42,8.846-40.695,9.5-40.585    c0.655,0.108,2.08-0.11,2.68-0.438c0.604-0.328,0.746-0.529,0.93-0.931c0.502-1.091,0.979-2.164-0.304-2.064    c-1.282,0.1-1.182,1.578-1.182,1.578l-0.044,0.213c-0.714,0.273-1.752,0.931-2.354,0.383c-0.602-0.547-0.819-0.822-1.148-0.492    C7.75-42.007,7.423-41.953,6.764-41.897z" style="fill:#00AEEF;"/>
  <path d="M54.221-50.439c-0.063-0.056-0.125-0.112-0.17-0.121c-0.097-0.021-0.167,0.11-0.167,0.11    c-0.229,0.148-0.472,0.399-0.747,0.833c-0.765,1.203-1.414,0.729-3.554,0.056c-0.485-0.152-0.867,0.396-0.705,0.998    c0.165,0.602,0.537,0.533,2.072,0.533c1.53,0,1.312,1.039-0.058,2.516c-1.369,1.477-2.598-1.608-3.825-0.438    c-0.787,0.748-0.166,1.312,0.6,2.079c0.764,0.765,1.529,0.547,1.64,0.163c0.109-0.383-1.236,4.299,2.135-0.438    c0.412-0.58,0.491-0.712,0.984-1.476c0.49-0.767,0.437-1.148,0.437-2.024c0-0.437,0.425-0.822,1.032-1.129    c0,0,0.184-0.153,0.326-0.162" style="fill:#00AEEF;"/>
  <path d="M54.221-39.309c-0.304,0.118-0.667,0.235-0.783,0.339c-0.709,0.658-0.714,0.896-0.234,1.09    c0.165,0.066,0.649,0.024,1.018-0.06" style="fill:#00AEEF;"/>
  <path d="M54.221-15.305l-0.168-0.022c-0.146-0.101-0.337-0.256-0.502-0.378    c-0.658-0.493-0.713,0.216-0.93,0.874c-0.222,0.656-0.508,0.663-0.878,0.546c-0.874-0.273-1.474,0.603-1.253,0.984    c0.217,0.384,1.638-0.109,2.348-0.493c0.379-0.204,0.79-0.314,1.177-0.312l0.206,0.045" style="fill:#00AEEF;"/>
  <path d="M0-21.553l0.197-0.091c0,0,0.932-0.311,1.183-0.76c0.25-0.447-0.015-0.905,0.303-1.274    c0.504-0.585,1.367-1.532,2.023-1.203c0,0,0.2,0.089,0.491-0.185c0.305-0.274,0.711-0.696,0.217-0.907    c-0.561-0.243-1.461-0.654-1.952-0.437c-0.493,0.22-1.98,1.529-1.927,2.131c0.033,0.376-0.318,0.944-0.318,0.944L0-23.232" style="fill:#00AEEF;"/>
  <path d="M4.749-0.998c0.438,0.223,1.045-0.438,1.645-0.055c0.602,0.384,1.694-0.437,1.932-1.038    C8.564-2.692,9.51-2.256,9.84-1.873c0.326,0.384,1.204-0.383,1.204-0.93c0-0.547-0.712-0.712-1.148-0.766    C9.454-3.621,8.964-3.404,8.527-2.803C8.089-2.201,7.868-2.529,7.376-2.91C6.883-3.295,6.507-2.748,6.061-2.31    c0,0-0.047-0.358-0.456-0.462C5.196-2.873,3.743-1.513,4.749-0.998z" style="fill:#00AEEF;"/>
  <path d="M0-1.367l0.171,0.016c0.115,0.017,0.243,0.032,0.388,0.054c1.203,0.164,1.01-0.714,1.586-0.656    c0,0,1.566-0.591,1.139-0.788C3.067-2.843,2.856-2.938,2.692-3.05C2.036-3.486,1.817-3.321,1.817-3.321    c-0.547,0-0.384,0.162-0.766,0.601C0.718-2.34,0.63-2.345,0.207-2.422L0-2.44" style="fill:#00AEEF;"/>
  <path d="M0-10.729l0.17-0.084c0.338-0.215,0.643-0.543,0.761-0.755c0,0,0.328,0.331,0.657,0.276    c0.328-0.057,0.547-0.986,0.328-1.532c-0.22-0.547-0.657-0.165-0.657-0.165c-0.315-0.314-0.657,0.163-1.089,0.699L0-12.156" style="fill:#00AEEF;"/>
  <path d="M0-41.213c0.167-0.022,0.407-0.161,0.736-0.593c0.71-0.929,1.093-1.53,1.751-1.53    c0.654,0,0.983-0.437,0.764-1.094c-0.219-0.656-1.303-1.661-1.137-1.936c0.163-0.274,1.54-1.236,0.975-1.915    c-0.737-0.886-2.534-0.488-1.831,0.565c0.219,0.326-0.231,1.755-0.285,1.92c-0.056,0.163,0.965,0.6,1.241,0.764    c0.273,0.162,0.438,0.383,0.165,0.602c-0.275,0.218-0.71,0.328-1.041,0.273c-0.328-0.056-0.71-0.273-0.931,0.272    C0.224-43.419,0.341-42.71,0-42.55" style="fill:#00AEEF;"/>
  <path d="M0-28.544l0.171,0.013c0.115,0.014,0.243,0.032,0.388,0.051c0.308,0.043,0.338-0.155,0.49-0.364    c0,0,0.229-0.707-0.02-0.858C0.801-29.844,0.8-29.78,0.8-29.78c-0.332,0.382-0.17,0.254-0.593,0.178L0-29.616" style="fill:#00AEEF;"/>
  <path d="M2.76-27.883c0.538-0.116,1.397,0.409,1.746,0.064c0.347-0.341,0.853-0.736,1.541-0.559    c0.693,0.179,2.139-1.153,2.179-1.799c0.04-0.644-0.012-1.624,0.419-1.362c0.432,0.264,1.027-0.733,0.859-1.256    c-0.171-0.519-0.896-0.457-1.332-0.372c-0.432,0.082-0.405,1.76-0.634,2.467c-0.229,0.709-0.539,0.462-1.124,0.251    c-0.59-0.212-0.787,0.424-1.064,0.976c-0.284,0.552-1.635,0.526-2.409,0.379c-0.335-0.062-0.611,0.17-0.628,0.618    C2.299-28.028,2.76-27.883,2.76-27.883z" style="fill:#00AEEF;"/>
  <path d="M0-48.937c0.054-0.008,0.105-0.002,0.139,0.034c0.133,0.134,0.038,0.192,0.27,0.096    c0,0,0.933-0.312,1.183-0.761c0.249-0.446-0.012-0.902,0.305-1.271c0.505-0.585,0.674-1.531,1.33-1.202c0,0,0.2,0.088,0.496-0.187    c0.302-0.273,0.7-0.696,0.216-0.908c-0.56-0.241-0.77-0.653-1.265-0.434c-0.491,0.219-1.979,1.528-1.925,2.13    c0.034,0.375-0.319,0.944-0.319,0.944s-0.117,0.142-0.212,0.164C0.159-50.319,0.076-50.394,0-50.462" style="fill:#00AEEF;"/>
  <path d="M0-37.934c0.171-0.04,0.322-0.087,0.406-0.14l0.204-0.113c0.341-0.216,0.296-0.543,0.415-0.751    l0.657,0.272c0.329-0.055,0.546-0.984,0.329-1.531c-0.221-0.546-0.657-0.163-0.657-0.163c-0.314-0.316-0.311,0.161-0.744,0.698    L0.47-39.544C0.399-39.463,0.21-39.381,0-39.3" style="fill:#00AEEF;"/>
  <path d="M0-14.065l0.17,0.037c0.141,0.093,0.438,0.159,0.97-0.54c0.712-0.93,1.096-1.527,1.751-1.527    c0.659,0,0.986-0.44,0.77-1.095c-0.22-0.657-1.305-1.663-1.141-1.939c0.161-0.273,1.539-1.234,0.972-1.915    c-0.732-0.886-2.53-0.487-1.828,0.567c0.221,0.326-0.232,1.754-0.284,1.919c-0.055,0.165,0.966,0.6,1.239,0.764    c0.272,0.165,0.438,0.384,0.163,0.604c-0.272,0.217-0.71,0.326-1.038,0.271c-0.326-0.055-0.712-0.271-0.929,0.271    C0.597-16.096,0.8-15.203,0.17-15.285L0-15.307" style="fill:#00AEEF;"/>
  <path d="M8.583,0L8.65-0.078c0.438-0.221,0.768-0.408,1.532-0.571c0.766-0.164,2.297-0.82,3.062-1.478    c0.765-0.655,0.053-1.914-0.712-1.914c-0.766,0-1.42-0.546-1.42-0.928c0-0.383-0.22-0.494,0.711-0.657    c0.929-0.165,1.75,0.931,2.241,1.421c0.492,0.493,0.821,0.382,1.692-0.382c0.874-0.766,1.042-0.108,1.317,0.382    c0,0,0.649,0.585,0.477,1.022c-0.17,0.438-0.875,0.477-1.337,0.438C15.756-2.782,14.751-2,15.266-1.868    c0.515,0.134,0.581,0.225,0.601,0.396c0.121,0.928-0.759,0.768-0.928,0.604c-0.161-0.165-0.161-0.275-1.2-0.439    c-0.733-0.115-1.248,0.558-1.622,1.232L12.088,0" style="fill:#00AEEF;"/>
  <path d="M19.16-5.307c0.609,0.475,0.264,1.632,1.01,1.309c0.604-0.258,0.49-0.6,1.145-0.545    c0.656,0.055,0.824,0.162,1.479-0.163c0.656-0.328,0.601-0.384,1.203-0.328c0.601,0.056,0.819,0.22,1.311-0.436    c0.491-0.659,0.548-0.44,0.984-0.056c0.438,0.383,0.83,0.328,0.874,0.056c0.057-0.275-0.488-0.985-0.708-1.205    C26.24-6.897,25.91-7.113,26.84-7.606c0,0,0.859-0.192,0.556-0.47c-0.307-0.278,0.583-0.649,0.211-0.837    c-0.342,0.016-1.247-0.047-2.078,0.869c-1.229,1.355-1.259,1.97-1.586,2.022c-0.33,0.056-0.601-0.106-0.873,0.221    c-0.275,0.33-0.111,0.22-0.987,0.055c0,0-0.712,0.132-0.804-0.248c-0.097-0.382-0.688-0.61-0.843-0.306    c-0.151,0.306-0.456,0.306-0.666,0.249C19.56-6.107,18.55-5.784,19.16-5.307z" style="fill:#00AEEF;"/>
  <path d="M20.302-0.448c0,0,1.691-0.452,2.238-1.084c0.647-0.749,1.13-0.409,1.13-0.409    c0.93-0.054,1.943,1.279,2.664,1.088c0.686-0.182-0.565-1.766-0.274-1.628c0.228,0.105,1.351-1.304-0.273-1.09    c-0.291,0.039-0.147,1.119-0.147,1.119c-0.329,0.547-0.765-0.475-1.204-0.803c-0.438-0.329-1.546-0.067-2.313,0.149    c-0.766,0.22-0.521,1.357-1.002,0.995C19.491-3.316,18.672-0.719,20.302-0.448z" style="fill:#00AEEF;"/>
  <path d="M27.975-1.761c0.895,0.755,0.874-1.608,1.454-1.551c0.548,0.056,1.55,1.856,1.986,1.64    c0.439-0.217,1.041-0.438,1.64-0.055c0.604,0.384,1.658-0.455,1.936-1.039c0.387-0.816-0.949-0.821-0.949-0.821    c-0.492-0.38-0.877,0.165-1.312,0.605c-0.439,0.438-1.404-0.267-2.058-0.704c-0.658-0.437-1.207-1.404-1.207-1.404    c-2.922-0.097-0.919,1.667-1.303,2.104C28.162-2.986,27.203-2.402,27.975-1.761z" style="fill:#00AEEF;"/>
  <path d="M35.601,0l0.081-0.107c0.438-0.22,0.764-0.407,1.53-0.572c0.762-0.163,2.299-0.815,3.062-1.476    c0.768-0.656,0.057-1.913-0.712-1.913c-0.76,0-1.419-0.547-1.419-0.932c0-0.381-0.218-0.492,0.708-0.656    c0.931-0.163,1.752,0.93,2.242,1.424c0.492,0.493,0.823,0.383,1.695-0.383c0.877-0.767,1.041-0.111,1.313,0.383    c0.273,0.493,0.572,0.309,1.424-0.165c0.29-0.163,0.597,0.219,0.521,0.906c-0.076,0.685-1.679,2.364-1.604,1.754    c0.08-0.61,0.41-0.958-0.177-1.128c-0.945-0.274-1.038,0.492-1.366,1.367c-0.326,0.874-0.765,0.764-0.929,0.601    c-0.165-0.164-0.165-0.273-1.203-0.435c-0.732-0.118-1.247,0.554-1.621,1.228L39.078,0" style="fill:#00AEEF;"/>
 </g>
</svg>
