<?xml version="1.0"?>
<!-- Converted with SVG Converter - Version 0.9.5 (Compiled Fri Feb 21 09:53:38 2020) - Copyright (C) 2011 Nokia -->
<svg xmlns="http://www.w3.org/2000/svg" height="10.312" y="0px" viewBox="0 -10.562 10.312 10.312" xmlns:xlink="http://www.w3.org/1999/xlink" xml:space="preserve" baseProfile="tiny" x="0px" width="10.312" version="1.1">
 <g>
  <rect height="10.312" y="-10.562" style="fill:none;" width="10.312"/>
  <line x1="1.781" style="fill:none;stroke:#000000;stroke-width:0.5;" y2="-7.125" y1="-7.125" x2="0"/>
  <line x1="3.468" style="fill:none;stroke:#000000;stroke-width:0.5;" y2="-0.25" y1="-1.969" x2="1.781"/>
  <line x1="1.781" style="fill:none;stroke:#000000;stroke-width:0.5;" y2="-3.688" y1="-3.688" x2="0"/>
  <line x1="1.781" style="fill:none;stroke:#000000;stroke-width:0.5;" y2="-5.406" y1="-7.125" x2="3.468"/>
  <line x1="3.468" style="fill:none;stroke:#000000;stroke-width:0.5;" y2="-7.125" y1="-8.844" x2="1.781"/>
  <line x1="3.468" style="fill:none;stroke:#000000;stroke-width:0.5;" y2="-10.562" y1="-8.844" x2="1.781"/>
  <line x1="3.468" style="fill:none;stroke:#000000;stroke-width:0.5;" y2="-8.844" y1="-8.844" x2="6.968"/>
  <line x1="6.968" style="fill:none;stroke:#000000;stroke-width:0.5;" y2="-1.969" y1="-1.969" x2="3.468"/>
  <line x1="3.468" style="fill:none;stroke:#000000;stroke-width:0.5;" y2="-3.688" y1="-5.406" x2="1.781"/>
  <line x1="1.781" style="fill:none;stroke:#000000;stroke-width:0.5;" y2="-1.969" y1="-3.688" x2="3.468"/>
  <line x1="3.468" style="fill:none;stroke:#000000;stroke-width:0.5;" y2="-5.406" y1="-5.406" x2="6.968"/>
  <line x1="6.968" style="fill:none;stroke:#000000;stroke-width:0.5;" y2="-7.125" y1="-5.406" x2="8.656"/>
  <line x1="6.968" style="fill:none;stroke:#000000;stroke-width:0.5;" y2="-3.688" y1="-5.406" x2="8.656"/>
  <line x1="6.968" style="fill:none;stroke:#000000;stroke-width:0.5;" y2="-7.125" y1="-8.844" x2="8.656"/>
  <line x1="6.968" style="fill:none;stroke:#000000;stroke-width:0.5;" y2="-10.562" y1="-8.844" x2="8.656"/>
  <line x1="10.312" style="fill:none;stroke:#000000;stroke-width:0.5;" y2="-7.125" y1="-7.125" x2="8.656"/>
  <line x1="6.968" style="fill:none;stroke:#000000;stroke-width:0.5;" y2="-0.25" y1="-1.969" x2="8.656"/>
  <line x1="6.968" style="fill:none;stroke:#000000;stroke-width:0.5;" y2="-3.688" y1="-1.969" x2="8.656"/>
  <line x1="8.656" style="fill:none;stroke:#000000;stroke-width:0.5;" y2="-3.688" y1="-3.688" x2="10.312"/>
  <line x1="0" style="fill:none;stroke:#000000;stroke-width:0.5;" y2="-10.562" y1="-10.562" x2="1.781"/>
  <line x1="0" style="fill:none;stroke:#000000;stroke-width:0.5;" y2="-0.25" y1="-0.25" x2="1.781"/>
  <line x1="10.312" style="fill:none;stroke:#000000;stroke-width:0.5;" y2="-10.562" y1="-10.562" x2="8.656"/>
  <line x1="8.656" style="fill:none;stroke:#000000;stroke-width:0.5;" y2="-0.25" y1="-0.25" x2="10.312"/>
 </g>
</svg>
