<?xml version="1.0"?>
<!-- Converted with SVG Converter - Version 0.9.5 (Compiled Fri Feb 21 09:53:38 2020) - Copyright (C) 2011 Nokia -->
<svg xmlns="http://www.w3.org/2000/svg" y="0px" version="1.1" height="10.312" viewBox="0 -10.562 10.312 10.312" x="0px" width="10.312" baseProfile="tiny" xml:space="preserve" xmlns:xlink="http://www.w3.org/1999/xlink">
 <g>
  <rect y="-10.562" style="fill:none;" height="10.312" width="10.312"/>
  <line y2="-7.125" style="fill:none;stroke:#00AEEF;stroke-width:0.5;" x2="0" x1="1.781" y1="-7.125"/>
  <line y2="-0.25" style="fill:none;stroke:#00AEEF;stroke-width:0.5;" x2="1.781" x1="3.468" y1="-1.969"/>
  <line y2="-3.688" style="fill:none;stroke:#00AEEF;stroke-width:0.5;" x2="0" x1="1.781" y1="-3.688"/>
  <line y2="-5.407" style="fill:none;stroke:#00AEEF;stroke-width:0.5;" x2="3.468" x1="1.781" y1="-7.125"/>
  <line y2="-7.125" style="fill:none;stroke:#00AEEF;stroke-width:0.5;" x2="1.781" x1="3.468" y1="-8.844"/>
  <line y2="-10.562" style="fill:none;stroke:#00AEEF;stroke-width:0.5;" x2="1.781" x1="3.468" y1="-8.844"/>
  <line y2="-8.844" style="fill:none;stroke:#00AEEF;stroke-width:0.5;" x2="6.968" x1="3.468" y1="-8.844"/>
  <line y2="-1.969" style="fill:none;stroke:#00AEEF;stroke-width:0.5;" x2="3.468" x1="6.968" y1="-1.969"/>
  <line y2="-3.688" style="fill:none;stroke:#00AEEF;stroke-width:0.5;" x2="1.781" x1="3.468" y1="-5.407"/>
  <line y2="-1.969" style="fill:none;stroke:#00AEEF;stroke-width:0.5;" x2="3.468" x1="1.781" y1="-3.688"/>
  <line y2="-5.407" style="fill:none;stroke:#00AEEF;stroke-width:0.5;" x2="6.968" x1="3.468" y1="-5.407"/>
  <line y2="-7.125" style="fill:none;stroke:#00AEEF;stroke-width:0.5;" x2="8.656" x1="6.968" y1="-5.407"/>
  <line y2="-3.688" style="fill:none;stroke:#00AEEF;stroke-width:0.5;" x2="8.656" x1="6.968" y1="-5.407"/>
  <line y2="-7.125" style="fill:none;stroke:#00AEEF;stroke-width:0.5;" x2="8.656" x1="6.968" y1="-8.844"/>
  <line y2="-10.562" style="fill:none;stroke:#00AEEF;stroke-width:0.5;" x2="8.656" x1="6.968" y1="-8.844"/>
  <line y2="-7.125" style="fill:none;stroke:#00AEEF;stroke-width:0.5;" x2="8.656" x1="10.312" y1="-7.125"/>
  <line y2="-0.25" style="fill:none;stroke:#00AEEF;stroke-width:0.5;" x2="8.656" x1="6.968" y1="-1.969"/>
  <line y2="-3.688" style="fill:none;stroke:#00AEEF;stroke-width:0.5;" x2="8.656" x1="6.968" y1="-1.969"/>
  <line y2="-3.688" style="fill:none;stroke:#00AEEF;stroke-width:0.5;" x2="10.312" x1="8.656" y1="-3.688"/>
  <line y2="-10.562" style="fill:none;stroke:#00AEEF;stroke-width:0.5;" x2="1.781" x1="0" y1="-10.562"/>
  <line y2="-0.25" style="fill:none;stroke:#00AEEF;stroke-width:0.5;" x2="1.781" x1="0" y1="-0.25"/>
  <line y2="-10.562" style="fill:none;stroke:#00AEEF;stroke-width:0.5;" x2="8.656" x1="10.312" y1="-10.562"/>
  <line y2="-0.25" style="fill:none;stroke:#00AEEF;stroke-width:0.5;" x2="10.312" x1="8.656" y1="-0.25"/>
 </g>
</svg>
