<?xml version="1.0"?>
<!-- Converted with SVG Converter - Version 0.9.5 (Compiled Fri Feb 21 09:53:38 2020) - Copyright (C) 2011 Nokia -->
<svg xmlns="http://www.w3.org/2000/svg" xmlns:xlink="http://www.w3.org/1999/xlink" width="10.188" baseProfile="tiny" height="10.188">
 <defs>
  <path id="a" d="M0 0h10.2v10.2H0z"/>
 </defs>
 <path stroke="#00AEEF" d="M10.2 7.98c-1.3 0-2.36.96-2.53 2.2M7.65 10.17c-.17-1.23-1.24-2.2-2.53-2.2-1.28 0-2.35.97-2.52 2.2M2.6 10.17c-.2-1.23-1.25-2.2-2.54-2.2-.02 0-.04 0-.06 0M7.66 0c0 .07 0 .15 0 .22M2.6-.04c-.02.1-.03.17-.03.26M7.68.22c0-.08 0-.16 0-.24M2.6.22c0-.08 0-.17 0-.25M10.18 7.66c0 .1.02.2.02.3M10.2 7.6c-.17-1.23-1.23-2.2-2.52-2.2-1.4 0-2.56 1.15-2.56 2.56M5.17 7.96c0-1.4-1.15-2.55-2.56-2.55C1.2 5.4.07 6.56.07 7.97M.1 7.96c0-.24-.03-.47-.1-.7M10.2 2.46C10.02 1.23 8.96.27 7.68.27c-1.4 0-2.55 1.15-2.55 2.56M5.17 2.83C5.17 1.44 4.02.3 2.6.3 1.2.28.07 1.43.07 2.83M.1 2.83c0-.23-.03-.47-.1-.7M10.2 2.85C8.77 2.85 7.63 4 7.63 5.4M7.67 5.4c0-1.4-1.15-2.55-2.56-2.55C3.7 2.85 2.57 4 2.57 5.4M2.6 5.4C2.6 4 1.46 2.85.05 2.85c0 0-.03 0-.04 0" fill="none" stroke-width=".5"/>
</svg>
