<?xml version="1.0" encoding="UTF-8" standalone="no"?>
<!-- Created with Inkscape (http://www.inkscape.org/) -->

<svg
   xmlns:dc="http://purl.org/dc/elements/1.1/"
   xmlns:cc="http://creativecommons.org/ns#"
   xmlns:rdf="http://www.w3.org/1999/02/22-rdf-syntax-ns#"
   xmlns:svg="http://www.w3.org/2000/svg"
   xmlns="http://www.w3.org/2000/svg"
   xmlns:sodipodi="http://sodipodi.sourceforge.net/DTD/sodipodi-0.dtd"
   xmlns:inkscape="http://www.inkscape.org/namespaces/inkscape"
   width="5.1494999mm"
   height="5.1494999mm"
   viewBox="0 0 5.1495 5.1494999"
   version="1.1"
   id="svg14026"
   inkscape:version="0.92.2 (5c3e80d, 2017-08-06)"
   sodipodi:docname="16.9.svg">
  <defs
     id="defs14020" />
  <sodipodi:namedview
     id="base"
     pagecolor="#ffffff"
     bordercolor="#666666"
     borderopacity="1.0"
     inkscape:pageopacity="0.0"
     inkscape:pageshadow="2"
     inkscape:zoom="13.796674"
     inkscape:cx="4.6470944"
     inkscape:cy="7.7713252"
     inkscape:document-units="mm"
     inkscape:current-layer="layer1"
     showgrid="false"
     inkscape:window-width="1920"
     inkscape:window-height="1018"
     inkscape:window-x="-8"
     inkscape:window-y="-8"
     inkscape:window-maximized="1" />
  <metadata
     id="metadata14023">
    <rdf:RDF>
      <cc:Work
         rdf:about="">
        <dc:format>image/svg+xml</dc:format>
        <dc:type
           rdf:resource="http://purl.org/dc/dcmitype/StillImage" />
        <dc:title></dc:title>
      </cc:Work>
    </rdf:RDF>
  </metadata>
  <g
     inkscape:label="Layer 1"
     inkscape:groupmode="layer"
     id="layer1"
     transform="translate(-104.60584,-146.18642)">
    <g
       id="g14077"
       transform="rotate(-90,106.47086,148.12359)">
      <path
         id="path10273"
         d="m 103.50537,147.94312 c 0.0634,-0.0537 0.0717,-0.14745 0.0179,-0.21084 -0.0537,-0.0634 -0.14745,-0.0717 -0.21083,-0.0179 -0.0648,0.0524 -0.0717,0.14745 -0.0179,0.21084 0.0524,0.0634 0.14745,0.0717 0.21084,0.0179"
         style="fill:#000000;fill-opacity:1;fill-rule:nonzero;stroke:none;stroke-width:0.35277775"
         inkscape:connector-curvature="0" />
      <path
         id="path10275"
         d="m 103.84575,148.34826 c 0.0634,-0.0524 0.0717,-0.14744 0.0179,-0.21083 -0.0524,-0.0634 -0.14745,-0.0717 -0.21084,-0.0179 -0.0634,0.0524 -0.0717,0.14745 -0.0179,0.21083 0.0524,0.0634 0.14607,0.0717 0.21083,0.0179"
         style="fill:#000000;fill-opacity:1;fill-rule:nonzero;stroke:none;stroke-width:0.35277775"
         inkscape:connector-curvature="0" />
      <path
         id="path10277"
         d="m 104.18475,148.75341 c 0.0648,-0.0524 0.0717,-0.14745 0.0193,-0.21084 -0.0537,-0.0634 -0.14883,-0.0717 -0.21221,-0.0193 -0.0634,0.0538 -0.0703,0.14883 -0.0179,0.21222 0.0537,0.0634 0.14745,0.0717 0.21084,0.0179"
         style="fill:#000000;fill-opacity:1;fill-rule:nonzero;stroke:none;stroke-width:0.35277775"
         inkscape:connector-curvature="0" />
      <path
         id="path10279"
         d="m 104.52512,149.15855 c 0.0634,-0.0524 0.073,-0.14745 0.0193,-0.20946 -0.0537,-0.0648 -0.14883,-0.073 -0.21084,-0.0193 -0.0634,0.0524 -0.073,0.14745 -0.0193,0.21085 0.0524,0.0634 0.14745,0.0717 0.21084,0.0179"
         style="fill:#000000;fill-opacity:1;fill-rule:nonzero;stroke:none;stroke-width:0.35277775"
         inkscape:connector-curvature="0" />
      <path
         id="path10281"
         d="m 104.85172,149.54854 c 0.0634,-0.0538 0.0717,-0.14883 0.0179,-0.21222 -0.0524,-0.0634 -0.14745,-0.0717 -0.20946,-0.0179 -0.0648,0.0524 -0.073,0.14745 -0.0193,0.21084 0.0537,0.0634 0.14745,0.0717 0.21084,0.0193"
         style="fill:#000000;fill-opacity:1;fill-rule:nonzero;stroke:none;stroke-width:0.35277775"
         inkscape:connector-curvature="0" />
      <path
         id="path10283"
         d="m 105.19209,149.95368 c 0.0634,-0.0537 0.0717,-0.14883 0.0193,-0.21084 -0.0551,-0.0648 -0.14883,-0.073 -0.21222,-0.0193 -0.0648,0.0524 -0.0717,0.14745 -0.0193,0.21085 0.0537,0.0634 0.14745,0.073 0.21221,0.0193"
         style="fill:#000000;fill-opacity:1;fill-rule:nonzero;stroke:none;stroke-width:0.35277775"
         inkscape:connector-curvature="0" />
      <path
         id="path10285"
         d="m 104.51823,147.94312 c 0.0634,-0.0537 0.073,-0.14883 0.0193,-0.21222 -0.0537,-0.0634 -0.14745,-0.0703 -0.21222,-0.0179 -0.062,0.0538 -0.0703,0.14883 -0.0165,0.21084 0.0524,0.0648 0.14745,0.0717 0.20946,0.0193"
         style="fill:#000000;fill-opacity:1;fill-rule:nonzero;stroke:none;stroke-width:0.35277775"
         inkscape:connector-curvature="0" />
      <path
         id="path10287"
         d="m 104.85861,148.34826 c 0.0634,-0.0524 0.073,-0.14744 0.0193,-0.21221 -0.0537,-0.0634 -0.14746,-0.0703 -0.21085,-0.0179 -0.0648,0.0524 -0.073,0.14883 -0.0193,0.21084 0.0537,0.0634 0.14745,0.0717 0.21084,0.0193"
         style="fill:#000000;fill-opacity:1;fill-rule:nonzero;stroke:none;stroke-width:0.35277775"
         inkscape:connector-curvature="0" />
      <path
         id="path10289"
         d="m 105.19898,148.75341 c 0.0634,-0.0524 0.073,-0.14745 0.0179,-0.21084 -0.0524,-0.0634 -0.14745,-0.0717 -0.21083,-0.0193 -0.062,0.0538 -0.0703,0.14883 -0.0179,0.21222 0.0537,0.0634 0.14745,0.0717 0.21084,0.0179"
         style="fill:#000000;fill-opacity:1;fill-rule:nonzero;stroke:none;stroke-width:0.35277775"
         inkscape:connector-curvature="0" />
      <path
         id="path10291"
         d="m 105.54074,149.15855 c 0.062,-0.0537 0.0703,-0.14745 0.0179,-0.21084 -0.0538,-0.0634 -0.14883,-0.0717 -0.21222,-0.0179 -0.0634,0.0524 -0.0703,0.14745 -0.0179,0.21084 0.0524,0.0634 0.14745,0.0717 0.21222,0.0179"
         style="fill:#000000;fill-opacity:1;fill-rule:nonzero;stroke:none;stroke-width:0.35277775"
         inkscape:connector-curvature="0" />
      <path
         id="path10293"
         d="m 105.86595,149.54716 c 0.0634,-0.0537 0.0717,-0.14745 0.0179,-0.21084 -0.0524,-0.0634 -0.14746,-0.0717 -0.21085,-0.0193 -0.0648,0.0537 -0.0716,0.14883 -0.0193,0.21222 0.0537,0.0634 0.14883,0.0703 0.21222,0.0179"
         style="fill:#000000;fill-opacity:1;fill-rule:nonzero;stroke:none;stroke-width:0.35277775"
         inkscape:connector-curvature="0" />
      <path
         id="path10295"
         d="m 106.20495,149.95368 c 0.0648,-0.0537 0.073,-0.14883 0.0193,-0.21222 -0.0537,-0.0634 -0.14746,-0.0716 -0.21084,-0.0179 -0.0648,0.0524 -0.073,0.14745 -0.0193,0.21084 0.0524,0.062 0.14883,0.073 0.21084,0.0193"
         style="fill:#000000;fill-opacity:1;fill-rule:nonzero;stroke:none;stroke-width:0.35277775"
         inkscape:connector-curvature="0" />
      <path
         id="path13733"
         d="m 106.99732,149.32392 1.26642,-0.48232 -1.26642,-0.46991 0.791,0.46991 z"
         style="fill:#000000;fill-opacity:1;fill-rule:nonzero;stroke:#000000;stroke-width:0.10159999;stroke-linecap:butt;stroke-linejoin:miter;stroke-miterlimit:4;stroke-opacity:1"
         inkscape:connector-curvature="0" />
      <path
         id="path10305"
         d="M 106.99732,149.32392"
         style="fill:#000000;fill-opacity:1;fill-rule:nonzero;stroke:#000000;stroke-width:0.10159999;stroke-linecap:butt;stroke-linejoin:miter;stroke-miterlimit:4;stroke-opacity:1"
         inkscape:connector-curvature="0" />
      <path
         id="path10307"
         d="m 103.2587,148.84023 h 4.52962"
         style="fill:none;stroke:#000000;stroke-width:0.15239999;stroke-linecap:butt;stroke-linejoin:miter;stroke-miterlimit:4;stroke-opacity:1"
         inkscape:connector-curvature="0" />
    </g>
  </g>
</svg>
