<?xml version="1.0" encoding="UTF-8" standalone="no"?>
<!-- Created with Inkscape (http://www.inkscape.org/) -->

<svg
   xmlns:dc="http://purl.org/dc/elements/1.1/"
   xmlns:cc="http://creativecommons.org/ns#"
   xmlns:rdf="http://www.w3.org/1999/02/22-rdf-syntax-ns#"
   xmlns:svg="http://www.w3.org/2000/svg"
   xmlns="http://www.w3.org/2000/svg"
   xmlns:sodipodi="http://sodipodi.sourceforge.net/DTD/sodipodi-0.dtd"
   xmlns:inkscape="http://www.inkscape.org/namespaces/inkscape"
   width="3.55mm"
   height="3.55mm"
   viewBox="0 0 3.55 3.55"
   version="1.1"
   id="svg1714"
   inkscape:version="0.92.2 (5c3e80d, 2017-08-06)"
   sodipodi:docname="26.1.36.svg">
  <defs
     id="defs1708" />
  <sodipodi:namedview
     id="base"
     pagecolor="#ffffff"
     bordercolor="#666666"
     borderopacity="1.0"
     inkscape:pageopacity="0.0"
     inkscape:pageshadow="2"
     inkscape:zoom="22.4"
     inkscape:cx="6.1316928"
     inkscape:cy="2.5600923"
     inkscape:document-units="mm"
     inkscape:current-layer="layer1"
     showgrid="false"
     inkscape:window-width="1920"
     inkscape:window-height="1018"
     inkscape:window-x="-8"
     inkscape:window-y="-8"
     inkscape:window-maximized="1" />
  <metadata
     id="metadata1711">
    <rdf:RDF>
      <cc:Work
         rdf:about="">
        <dc:format>image/svg+xml</dc:format>
        <dc:type
           rdf:resource="http://purl.org/dc/dcmitype/StillImage" />
        <dc:title></dc:title>
      </cc:Work>
    </rdf:RDF>
  </metadata>
  <g
     inkscape:label="Layer 1"
     inkscape:groupmode="layer"
     id="layer1"
     transform="translate(-104.73161,-147.0601)">
    <g
       id="g1732"
       transform="translate(0.67327498)">
      <path
         id="path1212"
         d="m 105.19375,147.45803 c 0,-0.17286 0.1397,-0.31256 0.31185,-0.31256 0.17322,0 0.31997,0.1397 0.31997,0.31256 0,-0.17286 0.14746,-0.31256 0.31962,-0.31256 0.17286,0 0.31291,0.1397 0.31291,0.31256"
         style="fill:none;stroke:#000000;stroke-width:0.1778;stroke-linecap:butt;stroke-linejoin:miter;stroke-miterlimit:4;stroke-dasharray:none;stroke-opacity:1"
         inkscape:connector-curvature="0" />
      <path
         id="path196"
         d="m 105.82698,147.39488 -0.003,1.11337"
         style="fill:none;stroke:#000000;stroke-width:0.1778;stroke-linecap:butt;stroke-linejoin:miter;stroke-miterlimit:4;stroke-dasharray:none;stroke-opacity:1"
         inkscape:connector-curvature="0" />
      <path
         id="path228"
         d="m 105.83369,150.5085 c 0.55209,0 0.99977,-0.44803 0.99977,-0.99977 0,-0.55245 -0.44768,-1.00048 -0.99977,-1.00048 -0.55245,0 -1.00048,0.44803 -1.00048,1.00048 0,0.55174 0.44803,0.99977 1.00048,0.99977 z"
         style="fill:none;stroke:#000000;stroke-width:0.20319998;stroke-linecap:butt;stroke-linejoin:miter;stroke-miterlimit:4;stroke-dasharray:none;stroke-opacity:1"
         inkscape:connector-curvature="0" />
      <path
         id="path230"
         d="m 105.83157,150.06964 c 0.3108,0 0.56303,-0.25223 0.56303,-0.56303 0,-0.31009 -0.25223,-0.56233 -0.56303,-0.56233 -0.31009,0 -0.56233,0.25224 -0.56233,0.56233 0,0.3108 0.25224,0.56303 0.56233,0.56303 z"
         style="fill:#000000;fill-opacity:1;fill-rule:nonzero;stroke:#000000;stroke-width:0.10159999;stroke-linecap:butt;stroke-linejoin:miter;stroke-miterlimit:4;stroke-dasharray:none;stroke-opacity:1"
         inkscape:connector-curvature="0" />
    </g>
  </g>
</svg>
