<?xml version="1.0" encoding="UTF-8" standalone="no"?>
<!-- Created with Inkscape (http://www.inkscape.org/) -->

<svg
   xmlns:dc="http://purl.org/dc/elements/1.1/"
   xmlns:cc="http://creativecommons.org/ns#"
   xmlns:rdf="http://www.w3.org/1999/02/22-rdf-syntax-ns#"
   xmlns:svg="http://www.w3.org/2000/svg"
   xmlns="http://www.w3.org/2000/svg"
   xmlns:sodipodi="http://sodipodi.sourceforge.net/DTD/sodipodi-0.dtd"
   xmlns:inkscape="http://www.inkscape.org/namespaces/inkscape"
   width="6mm"
   height="6mm"
   viewBox="0 0 6 6"
   version="1.1"
   id="svg2046"
   inkscape:version="0.92.2 (5c3e80d, 2017-08-06)"
   sodipodi:docname="26.2.18.svg">
  <defs
     id="defs2040" />
  <sodipodi:namedview
     id="base"
     pagecolor="#ffffff"
     bordercolor="#666666"
     borderopacity="1.0"
     inkscape:pageopacity="0.0"
     inkscape:pageshadow="2"
     inkscape:zoom="11.2"
     inkscape:cx="9.5803267"
     inkscape:cy="18.937011"
     inkscape:document-units="mm"
     inkscape:current-layer="layer1"
     showgrid="false"
     inkscape:window-width="1920"
     inkscape:window-height="1018"
     inkscape:window-x="-8"
     inkscape:window-y="-8"
     inkscape:window-maximized="1" />
  <metadata
     id="metadata2043">
    <rdf:RDF>
      <cc:Work
         rdf:about="">
        <dc:format>image/svg+xml</dc:format>
        <dc:type
           rdf:resource="http://purl.org/dc/dcmitype/StillImage" />
        <dc:title />
      </cc:Work>
    </rdf:RDF>
  </metadata>
  <g
     inkscape:label="Layer 1"
     inkscape:groupmode="layer"
     id="layer1"
     transform="translate(-102.84705,-149.31898)">
    <path
       inkscape:connector-curvature="0"
       style="fill:none;stroke:#000000;stroke-width:0.20319998;stroke-linecap:butt;stroke-linejoin:miter;stroke-miterlimit:4;stroke-dasharray:none;stroke-opacity:1"
       d="m 105.68563,153.85353 c 0.5521,0 0.99977,-0.44768 0.99977,-0.99978 0,-0.55245 -0.44767,-0.99942 -0.99977,-0.99942 -0.55245,0 -0.99978,0.44697 -0.99978,0.99942 0,0.5521 0.44733,0.99978 0.99978,0.99978 z"
       id="path212" />
    <path
       inkscape:connector-curvature="0"
       style="fill:#000000;fill-opacity:1;fill-rule:nonzero;stroke:none;stroke-width:0.35277775"
       d="m 105.68563,153.42455 c 0.31079,0 0.56233,-0.25224 0.56233,-0.56303 0,-0.3108 -0.25154,-0.56233 -0.56233,-0.56233 -0.3108,0 -0.56233,0.25153 -0.56233,0.56233 0,0.31079 0.25153,0.56303 0.56233,0.56303"
       id="path214" />
    <path
       inkscape:connector-curvature="0"
       style="fill:none;stroke:#000000;stroke-width:0.20319998;stroke-linecap:butt;stroke-linejoin:miter;stroke-miterlimit:4;stroke-dasharray:none;stroke-opacity:1"
       d="m 108.77843,152.73029 c -0.23706,-0.14217 -0.53482,-0.1143 -0.64382,0.11006 -0.0882,0.19862 -0.19826,0.4632 -0.44097,0.44097 -0.22085,-0.0201 -0.26459,-0.19826 -0.37465,-0.39687 0,0 -0.24271,-0.37465 -0.63959,-0.17639"
       id="path730" />
    <text
       y="152.32042"
       x="102.7702"
       style="font-variant:normal;font-weight:normal;font-size:2.11666656px;font-family:Helvetica;-inkscape-font-specification:Helvetica;writing-mode:lr-tb;fill:#000000;fill-opacity:1;fill-rule:nonzero;stroke:none;stroke-width:0.35277775"
       id="text244">
      <tspan
         style="stroke-width:0.35277775"
         x="102.7702"
         y="152.32042"
         id="tspan240">M</tspan>
      <tspan
         style="stroke-width:0.35277775"
         x="101.89751"
         y="161.99504"
         id="tspan242" />
    </text>
  </g>
</svg>
