<?xml version="1.0" encoding="UTF-8" standalone="no"?>
<!-- Created with Inkscape (http://www.inkscape.org/) -->

<svg
   xmlns:dc="http://purl.org/dc/elements/1.1/"
   xmlns:cc="http://creativecommons.org/ns#"
   xmlns:rdf="http://www.w3.org/1999/02/22-rdf-syntax-ns#"
   xmlns:svg="http://www.w3.org/2000/svg"
   xmlns="http://www.w3.org/2000/svg"
   xmlns:sodipodi="http://sodipodi.sourceforge.net/DTD/sodipodi-0.dtd"
   xmlns:inkscape="http://www.inkscape.org/namespaces/inkscape"
   width="3.98mm"
   height="3.98mm"
   viewBox="0 0 3.98 3.9799999"
   version="1.1"
   id="svg1101"
   inkscape:version="0.92.2 (5c3e80d, 2017-08-06)"
   sodipodi:docname="26.2.03.svg">
  <defs
     id="defs1095" />
  <sodipodi:namedview
     id="base"
     pagecolor="#ffffff"
     bordercolor="#666666"
     borderopacity="1.0"
     inkscape:pageopacity="0.0"
     inkscape:pageshadow="2"
     inkscape:zoom="44.8"
     inkscape:cx="3.2753236"
     inkscape:cy="3.8612398"
     inkscape:document-units="mm"
     inkscape:current-layer="layer1"
     showgrid="false"
     inkscape:window-width="1920"
     inkscape:window-height="1018"
     inkscape:window-x="-8"
     inkscape:window-y="-8"
     inkscape:window-maximized="1" />
  <metadata
     id="metadata1098">
    <rdf:RDF>
      <cc:Work
         rdf:about="">
        <dc:format>image/svg+xml</dc:format>
        <dc:type
           rdf:resource="http://purl.org/dc/dcmitype/StillImage" />
        <dc:title></dc:title>
      </cc:Work>
    </rdf:RDF>
  </metadata>
  <g
     inkscape:label="Layer 1"
     inkscape:groupmode="layer"
     id="layer1"
     transform="translate(-103.84158,-145.83)">
    <g
       id="g1116"
       transform="translate(-0.00175565,-1.013335)">
      <path
         id="path176"
         d="m 104.81806,149.7084 c 0.48366,0 0.87524,-0.39195 0.87524,-0.87525 0,-0.48331 -0.39158,-0.87488 -0.87524,-0.87488 -0.48296,0 -0.87488,0.39157 -0.87488,0.87488 0,0.4833 0.39192,0.87525 0.87488,0.87525 z"
         style="fill:none;stroke:#000000;stroke-width:0.20319998;stroke-linecap:butt;stroke-linejoin:miter;stroke-miterlimit:4;stroke-dasharray:none;stroke-opacity:1"
         inkscape:connector-curvature="0" />
      <path
         id="path178"
         d="m 104.81806,149.03212 c 0.10408,0 0.18768,-0.084 0.18768,-0.18732 0,-0.10406 -0.0836,-0.18767 -0.18768,-0.18767 -0.10337,0 -0.18732,0.0836 -0.18732,0.18767 0,0.10335 0.084,0.18732 0.18732,0.18732"
         style="fill:#000000;fill-opacity:1;fill-rule:nonzero;stroke:none;stroke-width:0.35277775"
         inkscape:connector-curvature="0" />
      <path
         id="path760"
         d="m 107.77293,148.80247 c -0.23707,-0.14183 -0.53022,-0.11395 -0.63923,0.11041 -0.0882,0.19827 -0.19826,0.46285 -0.44097,0.44097 -0.2212,-0.0201 -0.26458,-0.19861 -0.37465,-0.39687 0,0 -0.24271,-0.375 -0.63959,-0.17639"
         style="fill:none;stroke:#000000;stroke-width:0.20319998;stroke-linecap:butt;stroke-linejoin:miter;stroke-miterlimit:4;stroke-dasharray:none;stroke-opacity:1"
         inkscape:connector-curvature="0" />
    </g>
  </g>
</svg>
