<?xml version="1.0"?>
<!-- Converted with SVG Converter - Version 0.9.5 (Compiled Fri Feb 21 09:53:38 2020) - Copyright (C) 2011 Nokia -->
<svg xmlns="http://www.w3.org/2000/svg" xmlns:xlink="http://www.w3.org/1999/xlink" x="0px" version="1.1" baseProfile="tiny" y="0px" xml:space="preserve" height="71.301" width="71.339" viewBox="2.16 -73.46 71.339 71.301">
 <g>
  <rect x="2.16" y="-73.46" height="71.301" style="fill:none;" width="71.339"/>
  <polyline style="fill:none;stroke:#EC008C;stroke-width:0.58;" points="2.16,-49.646 2.311,-49.84 3.389,-47.75 2.16,-47.795    "/>
  <polygon style="fill:none;stroke:#EC008C;stroke-width:0.58;" points="35.37,-71.053 33.047,-70.635 34.14,-68.719   "/>
  <polygon style="fill:none;stroke:#EC008C;stroke-width:0.58;" points="7.969,-71.022 7.911,-73.256 5.917,-71.804   "/>
  <polygon style="fill:none;stroke:#EC008C;stroke-width:0.58;" points="30.6,-39.438 33.149,-40.119 31.265,-41.541   "/>
  <polygon style="fill:none;stroke:#EC008C;stroke-width:0.58;" points="35.102,-43.155 36.649,-41.369 37.286,-43.98   "/>
  <polygon style="fill:none;stroke:#EC008C;stroke-width:0.58;" points="6.628,-40.078 4.983,-41.759 4.079,-39.396   "/>
  <polygon style="fill:none;stroke:#EC008C;stroke-width:0.58;" points="23.149,-71.244 20.984,-72.752 20.761,-70.412   "/>
  <polygon style="fill:none;stroke:#EC008C;stroke-width:0.58;" points="25.399,-66.244 25.235,-68.59 23.016,-67.377   "/>
  <polygon style="fill:none;stroke:#EC008C;stroke-width:0.58;" points="14.288,-71.889 11.781,-71.549 13.602,-69.64   "/>
  <polygon style="fill:none;stroke:#EC008C;stroke-width:0.58;" points="9.841,-67.256 9.653,-64.733 11.899,-66.119   "/>
  <polygon style="fill:none;stroke:#EC008C;stroke-width:0.58;" points="24.558,-61.554 21.988,-61.083 23.602,-58.782   "/>
  <polygon style="fill:none;stroke:#EC008C;stroke-width:0.58;" points="27.928,-59.412 26.709,-57.401 29.223,-57.112   "/>
  <polygon style="fill:none;stroke:#EC008C;stroke-width:0.58;" points="32.844,-59.928 32.856,-57.289 34.899,-58.453   "/>
  <polygon style="fill:none;stroke:#EC008C;stroke-width:0.58;" points="36.771,-54.925 34.707,-53.8 36.733,-52.286   "/>
  <polygon style="fill:none;stroke:#EC008C;stroke-width:0.58;" points="30.682,-49.806 32.032,-47.667 33.013,-50.117   "/>
  <polygon style="fill:none;stroke:#EC008C;stroke-width:0.58;" points="8.109,-56.614 6.623,-59.141 5.312,-56.882   "/>
  <polygon style="fill:none;stroke:#EC008C;stroke-width:0.58;" points="18.752,-56.852 18.565,-54.329 20.81,-55.715   "/>
  <polygon style="fill:none;stroke:#EC008C;stroke-width:0.58;" points="28.091,-45.506 27.904,-42.983 30.149,-44.369   "/>
  <polygon style="fill:none;stroke:#EC008C;stroke-width:0.58;" points="19.381,-40 21.233,-38.119 21.882,-40.379   "/>
  <polygon style="fill:none;stroke:#EC008C;stroke-width:0.58;" points="10.667,-41.709 13.259,-41.209 12.513,-43.439   "/>
  <polygon style="fill:none;stroke:#EC008C;stroke-width:0.58;" points="20.877,-49.413 23.803,-49.211 22.679,-51.57   "/>
  <polygon style="fill:none;stroke:#EC008C;stroke-width:0.58;" points="26.316,-54.035 27.066,-51.619 28.648,-53.731   "/>
  <polygon style="fill:none;stroke:#EC008C;stroke-width:0.58;" points="24.149,-43.369 23.813,-45.697 21.688,-44.323   "/>
  <polygon style="fill:none;stroke:#EC008C;stroke-width:0.58;" points="7.988,-47.05 7.642,-44.544 9.971,-45.786   "/>
  <polygon style="fill:none;stroke:#EC008C;stroke-width:0.58;" points="15.676,-47.159 18.268,-47.652 16.751,-49.448   "/>
  <polygon style="fill:none;stroke:#EC008C;stroke-width:0.58;" points="17.399,-41.953 18.726,-44.234 16.374,-44.265   "/>
  <polygon style="fill:none;stroke:#EC008C;stroke-width:0.58;" points="31.45,-66.595 29.277,-67.494 29.374,-64.966   "/>
  <polygon style="fill:none;stroke:#EC008C;stroke-width:0.58;" points="19.334,-66.699 18.194,-68.755 16.696,-66.717   "/>
  <polygon style="fill:none;stroke:#EC008C;stroke-width:0.58;" points="16.613,-63.753 17.544,-61.284 19.053,-63.087   "/>
  <polygon style="fill:none;stroke:#EC008C;stroke-width:0.58;" points="14.678,-56.83 12.46,-55.4 14.54,-54.304   "/>
  <polygon style="fill:none;stroke:#EC008C;stroke-width:0.58;" points="10.473,-60.143 13.223,-59.565 12.028,-62.242   "/>
  <polygon style="fill:none;stroke:#EC008C;stroke-width:0.58;" points="10.432,-50.798 11.878,-48.944 13.042,-51.19   "/>
  <polygon style="fill:none;stroke:#EC008C;stroke-width:0.58;" points="7.305,-53.232 4.668,-53.327 5.748,-51.239   "/>
  <polygon style="fill:none;stroke:#EC008C;stroke-width:0.58;" points="36.481,-63.033 34.682,-64.547 34.01,-62.108   "/>
  <polygon style="fill:none;stroke:#EC008C;stroke-width:0.58;" points="3.072,-67.066 5.53,-67.259 4.086,-69.148   "/>
  <polygon style="fill:none;stroke:#EC008C;stroke-width:0.58;" points="5.429,-64.362 3.435,-62.735 6.004,-61.783   "/>
  <polygon style="fill:none;stroke:#EC008C;stroke-width:0.58;" points="38.488,-49.042 36.929,-47.05 39.566,-46.953   "/>
  <polygon style="fill:none;stroke:#EC008C;stroke-width:0.58;" points="25.806,-37.808 25.893,-35.533 27.761,-36.999   "/>
  <polygon style="fill:none;stroke:#EC008C;stroke-width:0.58;" points="71.043,-71.053 68.719,-70.635 69.812,-68.719   "/>
  <polygon style="fill:none;stroke:#EC008C;stroke-width:0.58;" points="43.788,-70.873 43.724,-73.354 41.508,-71.741   "/>
  <polygon style="fill:none;stroke:#EC008C;stroke-width:0.58;" points="70.899,-38.286 69.204,-39.565 68.605,-37.672   "/>
  <polygon style="fill:none;stroke:#EC008C;stroke-width:0.58;" points="72.99,-44.608 70.807,-43.784 72.354,-41.998   "/>
  <polygon style="fill:none;stroke:#EC008C;stroke-width:0.58;" points="42.303,-40.343 40.658,-42.023 39.753,-39.661   "/>
  <polygon style="fill:none;stroke:#EC008C;stroke-width:0.58;" points="57.974,-71.134 55.809,-72.643 55.585,-70.302   "/>
  <polygon style="fill:none;stroke:#EC008C;stroke-width:0.58;" points="61.733,-64.536 61.568,-66.882 59.349,-65.669   "/>
  <polygon style="fill:none;stroke:#EC008C;stroke-width:0.58;" points="49.962,-71.891 47.456,-71.551 49.277,-69.642   "/>
  <polygon style="fill:none;stroke:#EC008C;stroke-width:0.58;" points="45.507,-67.089 45.32,-64.566 47.566,-65.953   "/>
  <polygon style="fill:none;stroke:#EC008C;stroke-width:0.58;" points="60.825,-61.629 58.512,-61.206 59.964,-59.135   "/>
  <polygon style="fill:none;stroke:#EC008C;stroke-width:0.58;" points="63.677,-59.297 62.459,-57.286 64.972,-56.998   "/>
  <polygon style="fill:none;stroke:#EC008C;stroke-width:0.58;" points="67.985,-59.338 67.997,-56.7 70.04,-57.864   "/>
  <polygon style="fill:none;stroke:#EC008C;stroke-width:0.58;" points="70.951,-54.875 72.977,-53.361 73.016,-56   "/>
  <polygon style="fill:none;stroke:#EC008C;stroke-width:0.58;" points="66.714,-50.849 68.063,-48.709 69.044,-51.159   "/>
  <polygon style="fill:none;stroke:#EC008C;stroke-width:0.58;" points="43.904,-56.749 42.418,-59.277 41.106,-57.018   "/>
  <polygon style="fill:none;stroke:#EC008C;stroke-width:0.58;" points="55.089,-56.723 54.902,-54.2 57.147,-55.586   "/>
  <polygon style="fill:none;stroke:#EC008C;stroke-width:0.58;" points="65.719,-42.616 67.74,-43.864 65.888,-44.887   "/>
  <polygon style="fill:none;stroke:#EC008C;stroke-width:0.58;" points="56.756,-41.312 58.608,-39.432 59.257,-41.692   "/>
  <polygon style="fill:none;stroke:#EC008C;stroke-width:0.58;" points="46.235,-39.878 48.827,-39.378 48.081,-41.608   "/>
  <polygon style="fill:none;stroke:#EC008C;stroke-width:0.58;" points="58.399,-49.953 57.388,-52.076 55.767,-50.134   "/>
  <polygon style="fill:none;stroke:#EC008C;stroke-width:0.58;" points="61.445,-53.495 62.194,-51.079 63.776,-53.191   "/>
  <polygon style="fill:none;stroke:#EC008C;stroke-width:0.58;" points="62.566,-44.453 62.166,-47.857 59.642,-45.848   "/>
  <polygon style="fill:none;stroke:#EC008C;stroke-width:0.58;" points="44.272,-47.146 43.927,-44.64 46.255,-45.882   "/>
  <polygon style="fill:none;stroke:#EC008C;stroke-width:0.58;" points="52.474,-46.543 55.066,-47.036 53.549,-48.833   "/>
  <polygon style="fill:none;stroke:#EC008C;stroke-width:0.58;" points="51.875,-43.349 52.899,-41.036 54.226,-43.317   "/>
  <polygon style="fill:none;stroke:#EC008C;stroke-width:0.58;" points="67.237,-66.657 65.064,-67.556 65.161,-65.029   "/>
  <polygon style="fill:none;stroke:#EC008C;stroke-width:0.58;" points="55.149,-66.869 54.009,-68.925 52.511,-66.887   "/>
  <polygon style="fill:none;stroke:#EC008C;stroke-width:0.58;" points="55.152,-62.126 52.712,-62.792 53.643,-60.323   "/>
  <polygon style="fill:none;stroke:#EC008C;stroke-width:0.58;" points="50.375,-56.817 48.157,-55.388 50.237,-54.292   "/>
  <polygon style="fill:none;stroke:#EC008C;stroke-width:0.58;" points="48.896,-59.565 47.701,-62.242 46.146,-60.143   "/>
  <polygon style="fill:none;stroke:#EC008C;stroke-width:0.58;" points="49.6,-50.877 46.99,-50.486 48.436,-48.632   "/>
  <polygon style="fill:none;stroke:#EC008C;stroke-width:0.58;" points="43.1,-53.216 40.463,-53.311 41.543,-51.222   "/>
  <polygon style="fill:none;stroke:#EC008C;stroke-width:0.58;" points="72.105,-62.894 70.306,-64.407 69.634,-61.969   "/>
  <polygon style="fill:none;stroke:#EC008C;stroke-width:0.58;" points="41.14,-67.37 39.696,-69.259 38.681,-67.177   "/>
  <polygon style="fill:none;stroke:#EC008C;stroke-width:0.58;" points="41.019,-64.298 39.224,-62.834 41.536,-61.977   "/>
  <polygon style="fill:none;stroke:#EC008C;stroke-width:0.58;" points="62.919,-39.13 63.016,-36.603 65.092,-38.231   "/>
  <polyline style="fill:none;stroke:#EC008C;stroke-width:0.58;" points="2.16,-12.186 3.389,-12.14 2.311,-14.23 2.16,-14.037    "/>
  <polyline style="fill:none;stroke:#EC008C;stroke-width:0.58;" points="73.499,-49.645 72.093,-47.848 73.499,-47.795   "/>
  <polyline style="fill:none;stroke:#EC008C;stroke-width:0.58;" points="73.499,-14.035 72.093,-12.238 73.499,-12.186   "/>
  <polygon style="fill:none;stroke:#EC008C;stroke-width:0.58;" points="31.852,-35.749 33.066,-33.619 34.433,-36.213   "/>
  <polygon style="fill:none;stroke:#EC008C;stroke-width:0.58;" points="7.014,-36.401 9.066,-35.619 9.009,-37.853   "/>
  <polygon style="fill:none;stroke:#EC008C;stroke-width:0.58;" points="32.365,-3.851 34.659,-4.464 32.963,-5.744   "/>
  <polygon style="fill:none;stroke:#EC008C;stroke-width:0.58;" points="35.744,-8.441 37.137,-6.833 37.709,-9.183   "/>
  <polygon style="fill:none;stroke:#EC008C;stroke-width:0.58;" points="3.683,-3.605 6.233,-4.286 4.588,-5.966   "/>
  <polygon style="fill:none;stroke:#EC008C;stroke-width:0.58;" points="20.25,-32.37 22.399,-33.119 20.451,-34.477   "/>
  <polygon style="fill:none;stroke:#EC008C;stroke-width:0.58;" points="25.066,-28.953 24.902,-31.298 22.683,-30.085   "/>
  <polygon style="fill:none;stroke:#EC008C;stroke-width:0.58;" points="13.593,-38.005 15.233,-36.286 15.85,-38.311   "/>
  <polygon style="fill:none;stroke:#EC008C;stroke-width:0.58;" points="11.433,-29.696 9.374,-30.832 9.187,-28.31   "/>
  <polygon style="fill:none;stroke:#EC008C;stroke-width:0.58;" points="23.733,-23.119 24.593,-25.614 22.28,-25.19   "/>
  <polygon style="fill:none;stroke:#EC008C;stroke-width:0.58;" points="29.633,-22.33 28.339,-24.629 27.12,-22.619   "/>
  <polygon style="fill:none;stroke:#EC008C;stroke-width:0.58;" points="34.945,-22.316 32.891,-23.792 32.902,-21.152   "/>
  <polygon style="fill:none;stroke:#EC008C;stroke-width:0.58;" points="35.309,-18.357 37.335,-16.843 37.374,-19.481   "/>
  <polygon style="fill:none;stroke:#EC008C;stroke-width:0.58;" points="33.275,-12.874 34.158,-15.079 32.06,-14.799   "/>
  <polygon style="fill:none;stroke:#EC008C;stroke-width:0.58;" points="8.733,-21.869 7.247,-24.397 5.935,-22.138   "/>
  <polygon style="fill:none;stroke:#EC008C;stroke-width:0.58;" points="19.34,-18.384 21.585,-19.77 19.527,-20.907   "/>
  <polygon style="fill:none;stroke:#EC008C;stroke-width:0.58;" points="30.114,-8.449 32.135,-9.696 30.282,-10.719   "/>
  <polygon style="fill:none;stroke:#EC008C;stroke-width:0.58;" points="21.236,-5.719 22.903,-4.027 23.487,-6.061   "/>
  <polygon style="fill:none;stroke:#EC008C;stroke-width:0.58;" points="9.642,-5.12 12.233,-4.619 11.487,-6.85   "/>
  <polygon style="fill:none;stroke:#EC008C;stroke-width:0.58;" points="20.642,-13.717 23.274,-13.536 22.263,-15.659   "/>
  <polygon style="fill:none;stroke:#EC008C;stroke-width:0.58;" points="26.635,-18.333 27.385,-15.917 28.967,-18.029   "/>
  <polygon style="fill:none;stroke:#EC008C;stroke-width:0.58;" points="25.783,-11.05 23.872,-9.814 26.086,-8.956   "/>
  <polygon style="fill:none;stroke:#EC008C;stroke-width:0.58;" points="7.175,-9.723 9.504,-10.964 7.521,-12.228   "/>
  <polygon style="fill:none;stroke:#EC008C;stroke-width:0.58;" points="17.843,-11.517 16.326,-13.314 15.251,-11.024   "/>
  <polygon style="fill:none;stroke:#EC008C;stroke-width:0.58;" points="15.047,-7.212 16.073,-4.9 17.398,-7.182   "/>
  <polygon style="fill:none;stroke:#EC008C;stroke-width:0.58;" points="31.69,-31.002 29.275,-32.001 29.382,-29.193   "/>
  <polygon style="fill:none;stroke:#EC008C;stroke-width:0.58;" points="13.808,-31.747 16.447,-31.729 15.306,-33.785   "/>
  <polygon style="fill:none;stroke:#EC008C;stroke-width:0.58;" points="18.566,-25.619 20.075,-27.422 17.635,-28.088   "/>
  <polygon style="fill:none;stroke:#EC008C;stroke-width:0.58;" points="12.986,-19.049 15.066,-17.953 15.205,-20.478   "/>
  <polygon style="fill:none;stroke:#EC008C;stroke-width:0.58;" points="14.566,-24.619 13.49,-27.029 12.091,-25.14   "/>
  <polygon style="fill:none;stroke:#EC008C;stroke-width:0.58;" points="12.523,-16.076 9.914,-15.684 11.36,-13.83   "/>
  <polygon style="fill:none;stroke:#EC008C;stroke-width:0.58;" points="6.764,-18.421 4.127,-18.516 5.207,-16.428   "/>
  <polygon style="fill:none;stroke:#EC008C;stroke-width:0.58;" points="36.588,-27.342 34.588,-29.023 33.841,-26.314   "/>
  <polygon style="fill:none;stroke:#EC008C;stroke-width:0.58;" points="3.441,-32.593 5.899,-32.786 4.456,-34.675   "/>
  <polygon style="fill:none;stroke:#EC008C;stroke-width:0.58;" points="3.42,-26.976 5.733,-26.119 5.215,-28.44   "/>
  <polygon style="fill:none;stroke:#EC008C;stroke-width:0.58;" points="39.733,-11.786 38.762,-13.667 37.359,-11.874   "/>
  <polygon style="fill:none;stroke:#EC008C;stroke-width:0.58;" points="68.559,-34.092 69.651,-32.176 70.882,-34.51   "/>
  <polygon style="fill:none;stroke:#EC008C;stroke-width:0.58;" points="41.453,-35.488 43.733,-34.619 43.669,-37.101   "/>
  <polygon style="fill:none;stroke:#EC008C;stroke-width:0.58;" points="67.113,-3.968 69.662,-4.649 67.778,-6.071   "/>
  <polygon style="fill:none;stroke:#EC008C;stroke-width:0.58;" points="70.852,-8.639 72.399,-6.852 73.036,-9.463   "/>
  <polygon style="fill:none;stroke:#EC008C;stroke-width:0.58;" points="40.068,-3.835 42.617,-4.517 40.972,-6.197   "/>
  <polygon style="fill:none;stroke:#EC008C;stroke-width:0.58;" points="59.587,-35.14 57.421,-36.648 57.198,-34.308   "/>
  <polygon style="fill:none;stroke:#EC008C;stroke-width:0.58;" points="61.066,-28.786 60.902,-31.132 58.682,-29.919   "/>
  <polygon style="fill:none;stroke:#EC008C;stroke-width:0.58;" points="50.354,-35.607 47.848,-35.268 49.669,-33.358   "/>
  <polygon style="fill:none;stroke:#EC008C;stroke-width:0.58;" points="47.272,-29.594 45.214,-30.731 45.027,-28.208   "/>
  <polygon style="fill:none;stroke:#EC008C;stroke-width:0.58;" points="59.781,-23.843 57.468,-23.419 58.92,-21.349   "/>
  <polygon style="fill:none;stroke:#EC008C;stroke-width:0.58;" points="62.359,-23.373 64.872,-23.084 63.578,-25.384   "/>
  <polygon style="fill:none;stroke:#EC008C;stroke-width:0.58;" points="68.678,-24.594 68.689,-21.956 70.733,-23.119   "/>
  <polygon style="fill:none;stroke:#EC008C;stroke-width:0.58;" points="71.669,-17.426 71.708,-20.065 69.643,-18.94   "/>
  <polygon style="fill:none;stroke:#EC008C;stroke-width:0.58;" points="66.351,-14.878 67.566,-12.953 68.449,-15.158   "/>
  <polygon style="fill:none;stroke:#EC008C;stroke-width:0.58;" points="41.927,-23.69 40.615,-21.431 43.413,-21.162   "/>
  <polygon style="fill:none;stroke:#EC008C;stroke-width:0.58;" points="56.312,-19.005 54.253,-20.142 54.066,-17.619   "/>
  <polygon style="fill:none;stroke:#EC008C;stroke-width:0.58;" points="63.926,-7.981 66.172,-9.367 64.113,-10.503   "/>
  <polygon style="fill:none;stroke:#EC008C;stroke-width:0.58;" points="56.59,-5.147 58.441,-3.266 59.091,-5.526   "/>
  <polygon style="fill:none;stroke:#EC008C;stroke-width:0.58;" points="46.642,-4.287 49.233,-3.786 48.487,-6.017   "/>
  <polygon style="fill:none;stroke:#EC008C;stroke-width:0.58;" points="56.709,-14.185 59.342,-14.003 58.331,-16.126   "/>
  <polygon style="fill:none;stroke:#EC008C;stroke-width:0.58;" points="62.228,-18.024 62.978,-15.609 64.56,-17.721   "/>
  <polygon style="fill:none;stroke:#EC008C;stroke-width:0.58;" points="60.833,-8.581 60.496,-10.908 58.372,-9.535   "/>
  <polygon style="fill:none;stroke:#EC008C;stroke-width:0.58;" points="43.889,-8.652 46.218,-9.894 44.235,-11.157   "/>
  <polygon style="fill:none;stroke:#EC008C;stroke-width:0.58;" points="50.947,-10.964 53.54,-11.457 52.023,-13.254   "/>
  <polygon style="fill:none;stroke:#EC008C;stroke-width:0.58;" points="51.897,-7.637 52.922,-5.325 54.248,-7.606   "/>
  <polygon style="fill:none;stroke:#EC008C;stroke-width:0.58;" points="67.166,-31.21 64.993,-32.109 65.09,-29.581   "/>
  <polygon style="fill:none;stroke:#EC008C;stroke-width:0.58;" points="52.427,-30.887 55.066,-30.869 53.925,-32.925   "/>
  <polygon style="fill:none;stroke:#EC008C;stroke-width:0.58;" points="53.302,-27.922 54.233,-25.453 55.742,-27.256   "/>
  <polygon style="fill:none;stroke:#EC008C;stroke-width:0.58;" points="49.233,-18.286 49.371,-20.812 47.153,-19.383   "/>
  <polygon style="fill:none;stroke:#EC008C;stroke-width:0.58;" points="50.233,-23.953 49.157,-26.362 47.757,-24.473   "/>
  <polygon style="fill:none;stroke:#EC008C;stroke-width:0.58;" points="46.537,-14.473 47.983,-12.619 49.146,-14.865   "/>
  <polygon style="fill:none;stroke:#EC008C;stroke-width:0.58;" points="43.843,-17.045 41.207,-17.141 42.287,-15.052   "/>
  <polygon style="fill:none;stroke:#EC008C;stroke-width:0.58;" points="72.47,-27.895 70.67,-29.408 69.998,-26.969   "/>
  <polygon style="fill:none;stroke:#EC008C;stroke-width:0.58;" points="37.435,-31.859 40.166,-32.073 38.562,-34.172   "/>
  <polygon style="fill:none;stroke:#EC008C;stroke-width:0.58;" points="41.677,-26.18 41.102,-28.758 39.107,-27.132   "/>
  <polyline style="fill:none;stroke:#EC008C;stroke-width:0.58;" points="29.038,-73.46 27.164,-71.991 27.108,-73.46   "/>
  <polyline style="fill:none;stroke:#EC008C;stroke-width:0.58;" points="64.71,-73.46 62.836,-71.991 62.78,-73.46   "/>
  <polyline style="fill:none;stroke:#EC008C;stroke-width:0.58;" points="29.023,-2.16 29.241,-2.331 27.068,-3.23 27.108,-2.16    "/>
  <polyline style="fill:none;stroke:#EC008C;stroke-width:0.58;" points="64.695,-2.16 64.913,-2.331 62.74,-3.23 62.781,-2.16    "/>
 </g>
</svg>
