<?xml version="1.0"?>
<!-- Converted with SVG Converter - Version 0.9.5 (Compiled Fri Feb 21 09:53:38 2020) - Copyright (C) 2011 Nokia -->
<svg xmlns="http://www.w3.org/2000/svg" version="1.1" height="71.301" xmlns:xlink="http://www.w3.org/1999/xlink" x="0px" viewBox="1 -72.301 71.339 71.301" width="71.339" baseProfile="tiny" xml:space="preserve" y="0px">
 <g>
  <rect height="71.301" x="1" style="fill:none;" width="71.339" y="-72.301"/>
  <polyline style="fill:#00AEEF;" points="1,-48.487 1.151,-48.68 2.229,-46.59 1,-46.636   "/>
  <polygon style="fill:#00AEEF;" points="34.21,-69.894 31.887,-69.476 32.98,-67.559   "/>
  <polygon style="fill:#00AEEF;" points="6.809,-69.863 6.751,-72.096 4.756,-70.644   "/>
  <polygon style="fill:#00AEEF;" points="29.44,-38.278 31.989,-38.96 30.105,-40.381   "/>
  <polygon style="fill:#00AEEF;" points="33.942,-41.996 35.489,-40.21 36.125,-42.82   "/>
  <polygon style="fill:#00AEEF;" points="5.468,-38.919 3.824,-40.6 2.919,-38.237   "/>
  <polygon style="fill:#00AEEF;" points="21.989,-70.085 19.824,-71.593 19.601,-69.252   "/>
  <polygon style="fill:#00AEEF;" points="24.239,-65.085 24.075,-67.431 21.856,-66.217   "/>
  <polygon style="fill:#00AEEF;" points="13.128,-70.729 10.621,-70.39 12.442,-68.48   "/>
  <polygon style="fill:#00AEEF;" points="8.681,-66.096 8.494,-63.574 10.739,-64.96   "/>
  <polygon style="fill:#00AEEF;" points="23.398,-60.395 20.828,-59.923 22.442,-57.623   "/>
  <polygon style="fill:#00AEEF;" points="26.768,-58.252 25.55,-56.242 28.062,-55.953   "/>
  <polygon style="fill:#00AEEF;" points="31.685,-58.768 31.696,-56.129 33.739,-57.293   "/>
  <polygon style="fill:#00AEEF;" points="35.611,-53.765 33.546,-52.641 35.573,-51.126   "/>
  <polygon style="fill:#00AEEF;" points="29.521,-48.646 30.872,-46.507 31.853,-48.958   "/>
  <polygon style="fill:#00AEEF;" points="6.949,-55.454 5.463,-57.982 4.151,-55.722   "/>
  <polygon style="fill:#00AEEF;" points="17.592,-55.692 17.405,-53.169 19.65,-54.556   "/>
  <polygon style="fill:#00AEEF;" points="26.931,-44.346 26.744,-41.824 28.989,-43.21   "/>
  <polygon style="fill:#00AEEF;" points="18.221,-38.84 20.073,-36.96 20.722,-39.22   "/>
  <polygon style="fill:#00AEEF;" points="9.508,-40.55 12.099,-40.049 11.354,-42.28   "/>
  <polygon style="fill:#00AEEF;" points="19.717,-48.253 22.643,-48.052 21.519,-50.411   "/>
  <polygon style="fill:#00AEEF;" points="25.156,-52.875 25.906,-50.46 27.488,-52.572   "/>
  <polygon style="fill:#00AEEF;" points="22.989,-42.21 22.653,-44.537 20.529,-43.164   "/>
  <polygon style="fill:#00AEEF;" points="6.828,-45.891 6.482,-43.385 8.811,-44.627   "/>
  <polygon style="fill:#00AEEF;" points="14.516,-46 17.108,-46.492 15.591,-48.289   "/>
  <polygon style="fill:#00AEEF;" points="16.239,-40.793 17.565,-43.075 15.214,-43.105   "/>
  <polygon style="fill:#00AEEF;" points="30.29,-65.435 28.117,-66.334 28.213,-63.807   "/>
  <polygon style="fill:#00AEEF;" points="18.174,-65.539 17.034,-67.595 15.536,-65.557   "/>
  <polygon style="fill:#00AEEF;" points="15.453,-62.593 16.384,-60.124 17.893,-61.927   "/>
  <polygon style="fill:#00AEEF;" points="13.518,-55.67 11.3,-54.241 13.38,-53.144   "/>
  <polygon style="fill:#00AEEF;" points="9.313,-58.983 12.064,-58.405 10.868,-61.083   "/>
  <polygon style="fill:#00AEEF;" points="9.273,-49.639 10.718,-47.785 11.882,-50.03   "/>
  <polygon style="fill:#00AEEF;" points="6.144,-52.073 3.508,-52.168 4.588,-50.08   "/>
  <polygon style="fill:#00AEEF;" points="35.321,-61.874 33.521,-63.387 32.85,-60.949   "/>
  <polygon style="fill:#00AEEF;" points="1.912,-65.907 4.37,-66.1 2.926,-67.989   "/>
  <polygon style="fill:#00AEEF;" points="4.269,-63.202 2.274,-61.576 4.844,-60.624   "/>
  <polygon style="fill:#00AEEF;" points="37.328,-47.883 35.769,-45.891 38.406,-45.793   "/>
  <polygon style="fill:#00AEEF;" points="24.646,-36.648 24.733,-34.374 26.602,-35.839   "/>
  <polygon style="fill:#00AEEF;" points="69.882,-69.894 67.559,-69.476 68.652,-67.559   "/>
  <polygon style="fill:#00AEEF;" points="42.628,-69.713 42.564,-72.195 40.348,-70.581   "/>
  <polygon style="fill:#00AEEF;" points="69.739,-37.126 68.044,-38.406 67.445,-36.513   "/>
  <polygon style="fill:#00AEEF;" points="71.831,-43.448 69.647,-42.624 71.194,-40.838   "/>
  <polygon style="fill:#00AEEF;" points="41.143,-39.183 39.498,-40.864 38.593,-38.501   "/>
  <polygon style="fill:#00AEEF;" points="56.814,-69.975 54.648,-71.483 54.425,-69.142   "/>
  <polygon style="fill:#00AEEF;" points="60.573,-63.376 60.409,-65.722 58.189,-64.509   "/>
  <polygon style="fill:#00AEEF;" points="48.802,-70.731 46.295,-70.392 48.117,-68.482   "/>
  <polygon style="fill:#00AEEF;" points="44.347,-65.93 44.16,-63.407 46.406,-64.793   "/>
  <polygon style="fill:#00AEEF;" points="59.665,-60.47 57.352,-60.046 58.804,-57.975   "/>
  <polygon style="fill:#00AEEF;" points="62.518,-58.138 61.299,-56.127 63.812,-55.838   "/>
  <polygon style="fill:#00AEEF;" points="66.826,-58.179 66.837,-55.54 68.88,-56.704   "/>
  <polygon style="fill:#00AEEF;" points="69.79,-53.715 71.817,-52.201 71.856,-54.84   "/>
  <polygon style="fill:#00AEEF;" points="65.554,-49.689 66.903,-47.55 67.885,-50   "/>
  <polygon style="fill:#00AEEF;" points="42.745,-55.589 41.259,-58.117 39.947,-55.858   "/>
  <polygon style="fill:#00AEEF;" points="53.929,-55.563 53.742,-53.041 55.987,-54.426   "/>
  <polygon style="fill:#00AEEF;" points="64.559,-41.457 66.581,-42.705 64.728,-43.727   "/>
  <polygon style="fill:#00AEEF;" points="55.596,-40.153 57.448,-38.272 58.097,-40.533   "/>
  <polygon style="fill:#00AEEF;" points="45.076,-38.719 47.667,-38.218 46.921,-40.448   "/>
  <polygon style="fill:#00AEEF;" points="57.239,-48.793 56.228,-50.916 54.606,-48.974   "/>
  <polygon style="fill:#00AEEF;" points="60.285,-52.335 61.035,-49.919 62.616,-52.032   "/>
  <polygon style="fill:#00AEEF;" points="61.062,-43.734 60.738,-46.492 58.693,-44.864   "/>
  <polygon style="fill:#00AEEF;" points="43.112,-45.986 42.767,-43.481 45.095,-44.723   "/>
  <polygon style="fill:#00AEEF;" points="51.313,-45.384 53.906,-45.876 52.389,-47.673   "/>
  <polygon style="fill:#00AEEF;" points="50.714,-42.189 51.739,-39.876 53.065,-42.158   "/>
  <polygon style="fill:#00AEEF;" points="66.077,-65.498 63.904,-66.396 64.001,-63.869   "/>
  <polygon style="fill:#00AEEF;" points="53.989,-65.71 52.849,-67.766 51.351,-65.728   "/>
  <polygon style="fill:#00AEEF;" points="53.992,-60.967 51.552,-61.633 52.483,-59.164   "/>
  <polygon style="fill:#00AEEF;" points="49.215,-55.657 46.997,-54.229 49.077,-53.132   "/>
  <polygon style="fill:#00AEEF;" points="47.736,-58.405 46.541,-61.083 44.986,-58.983   "/>
  <polygon style="fill:#00AEEF;" points="48.439,-49.718 45.83,-49.326 47.276,-47.472   "/>
  <polygon style="fill:#00AEEF;" points="41.939,-52.056 39.303,-52.151 40.383,-50.062   "/>
  <polygon style="fill:#00AEEF;" points="70.945,-61.734 69.146,-63.248 68.474,-60.809   "/>
  <polygon style="fill:#00AEEF;" points="39.98,-66.21 38.536,-68.1 37.521,-66.017   "/>
  <polygon style="fill:#00AEEF;" points="39.859,-63.139 38.064,-61.674 40.376,-60.817   "/>
  <polygon style="fill:#00AEEF;" points="61.759,-37.971 61.855,-35.443 63.932,-37.071   "/>
  <polyline style="fill:#00AEEF;" points="1,-11.026 2.229,-10.981 1.151,-13.07 1,-12.877   "/>
  <polyline style="fill:#00AEEF;" points="72.339,-48.485 70.933,-46.688 72.339,-46.636   "/>
  <polyline style="fill:#00AEEF;" points="72.339,-12.875 70.933,-11.079 72.339,-11.026   "/>
  <polygon style="fill:#00AEEF;" points="30.692,-34.589 31.906,-32.46 33.273,-35.054   "/>
  <polygon style="fill:#00AEEF;" points="5.854,-35.241 7.906,-34.46 7.849,-36.693   "/>
  <polygon style="fill:#00AEEF;" points="31.205,-2.691 33.499,-3.305 31.803,-4.584   "/>
  <polygon style="fill:#00AEEF;" points="34.584,-7.281 35.977,-5.674 36.549,-8.023   "/>
  <polygon style="fill:#00AEEF;" points="2.523,-2.445 5.073,-3.126 3.428,-4.807   "/>
  <polygon style="fill:#00AEEF;" points="19.089,-31.21 21.239,-31.96 19.291,-33.317   "/>
  <polygon style="fill:#00AEEF;" points="23.906,-27.793 23.742,-30.139 21.522,-28.925   "/>
  <polygon style="fill:#00AEEF;" points="12.433,-36.845 14.073,-35.126 14.689,-37.151   "/>
  <polygon style="fill:#00AEEF;" points="10.273,-28.536 8.214,-29.673 8.027,-27.15   "/>
  <polygon style="fill:#00AEEF;" points="22.573,-21.96 23.433,-24.455 21.12,-24.031   "/>
  <polygon style="fill:#00AEEF;" points="28.473,-21.17 27.179,-23.47 25.96,-21.459   "/>
  <polygon style="fill:#00AEEF;" points="33.786,-21.157 31.73,-22.632 31.742,-19.993   "/>
  <polygon style="fill:#00AEEF;" points="34.148,-17.197 36.175,-15.684 36.213,-18.322   "/>
  <polygon style="fill:#00AEEF;" points="32.115,-11.714 32.998,-13.919 30.9,-13.64   "/>
  <polygon style="fill:#00AEEF;" points="7.573,-20.71 6.087,-23.238 4.775,-20.979   "/>
  <polygon style="fill:#00AEEF;" points="18.18,-17.225 20.426,-18.61 18.367,-19.747   "/>
  <polygon style="fill:#00AEEF;" points="28.954,-7.289 30.975,-8.537 29.122,-9.56   "/>
  <polygon style="fill:#00AEEF;" points="20.076,-4.559 21.743,-2.867 22.327,-4.901   "/>
  <polygon style="fill:#00AEEF;" points="8.481,-3.96 11.073,-3.46 10.328,-5.69   "/>
  <polygon style="fill:#00AEEF;" points="19.481,-12.558 22.114,-12.377 21.103,-14.5   "/>
  <polygon style="fill:#00AEEF;" points="25.475,-17.173 26.225,-14.758 27.807,-16.87   "/>
  <polygon style="fill:#00AEEF;" points="24.623,-9.891 22.711,-8.654 24.926,-7.796   "/>
  <polygon style="fill:#00AEEF;" points="6.015,-8.563 8.344,-9.805 6.361,-11.068   "/>
  <polygon style="fill:#00AEEF;" points="16.683,-10.357 15.166,-12.154 14.091,-9.865   "/>
  <polygon style="fill:#00AEEF;" points="13.887,-6.053 14.913,-3.741 16.238,-6.022   "/>
  <polygon style="fill:#00AEEF;" points="30.529,-29.843 28.115,-30.842 28.222,-28.033   "/>
  <polygon style="fill:#00AEEF;" points="12.648,-30.587 15.287,-30.569 14.146,-32.625   "/>
  <polygon style="fill:#00AEEF;" points="17.406,-24.46 18.915,-26.263 16.475,-26.929   "/>
  <polygon style="fill:#00AEEF;" points="11.826,-17.89 13.906,-16.793 14.044,-19.319   "/>
  <polygon style="fill:#00AEEF;" points="13.406,-23.46 12.33,-25.869 10.931,-23.98   "/>
  <polygon style="fill:#00AEEF;" points="11.363,-14.917 8.754,-14.524 10.2,-12.67   "/>
  <polygon style="fill:#00AEEF;" points="5.604,-17.262 2.967,-17.356 4.047,-15.268   "/>
  <polygon style="fill:#00AEEF;" points="35.428,-26.182 33.428,-27.864 32.681,-25.154   "/>
  <polygon style="fill:#00AEEF;" points="2.281,-31.434 4.739,-31.626 3.295,-33.516   "/>
  <polygon style="fill:#00AEEF;" points="2.26,-25.817 4.573,-24.96 4.055,-27.28   "/>
  <polygon style="fill:#00AEEF;" points="38.573,-10.627 37.603,-12.507 36.199,-10.714   "/>
  <polygon style="fill:#00AEEF;" points="67.399,-32.933 68.491,-31.016 69.722,-33.351   "/>
  <polygon style="fill:#00AEEF;" points="40.292,-34.328 42.573,-33.46 42.509,-35.942   "/>
  <polygon style="fill:#00AEEF;" points="65.953,-2.808 68.502,-3.49 66.618,-4.912   "/>
  <polygon style="fill:#00AEEF;" points="69.692,-7.479 71.239,-5.693 71.876,-8.304   "/>
  <polygon style="fill:#00AEEF;" points="38.908,-2.675 41.457,-3.357 39.812,-5.038   "/>
  <polygon style="fill:#00AEEF;" points="58.427,-33.98 56.261,-35.489 56.038,-33.148   "/>
  <polygon style="fill:#00AEEF;" points="59.906,-27.626 59.742,-29.972 57.522,-28.759   "/>
  <polygon style="fill:#00AEEF;" points="49.194,-34.448 46.688,-34.108 48.509,-32.198   "/>
  <polygon style="fill:#00AEEF;" points="46.112,-28.435 44.054,-29.571 43.867,-27.049   "/>
  <polygon style="fill:#00AEEF;" points="58.621,-22.684 56.308,-22.26 57.76,-20.189   "/>
  <polygon style="fill:#00AEEF;" points="61.199,-22.213 63.712,-21.924 62.417,-24.224   "/>
  <polygon style="fill:#00AEEF;" points="67.518,-23.435 67.529,-20.796 69.573,-21.96   "/>
  <polygon style="fill:#00AEEF;" points="70.509,-16.267 70.548,-18.906 68.483,-17.781   "/>
  <polygon style="fill:#00AEEF;" points="65.191,-13.718 66.406,-11.793 67.289,-13.998   "/>
  <polygon style="fill:#00AEEF;" points="40.767,-22.531 39.455,-20.271 42.253,-20.002   "/>
  <polygon style="fill:#00AEEF;" points="55.152,-17.846 53.093,-18.982 52.906,-16.46   "/>
  <polygon style="fill:#00AEEF;" points="62.766,-6.821 65.012,-8.207 62.953,-9.344   "/>
  <polygon style="fill:#00AEEF;" points="55.43,-3.987 57.282,-2.106 57.931,-4.367   "/>
  <polygon style="fill:#00AEEF;" points="45.481,-3.127 48.073,-2.626 47.327,-4.857   "/>
  <polygon style="fill:#00AEEF;" points="55.549,-13.025 58.182,-12.844 57.171,-14.967   "/>
  <polygon style="fill:#00AEEF;" points="61.068,-16.865 61.818,-14.449 63.4,-16.562   "/>
  <polygon style="fill:#00AEEF;" points="59.673,-7.421 59.336,-9.749 57.212,-8.375   "/>
  <polygon style="fill:#00AEEF;" points="42.729,-7.492 45.058,-8.734 43.075,-9.998   "/>
  <polygon style="fill:#00AEEF;" points="49.788,-9.805 52.38,-10.297 50.863,-12.094   "/>
  <polygon style="fill:#00AEEF;" points="50.737,-6.477 51.762,-4.165 53.088,-6.447   "/>
  <polygon style="fill:#00AEEF;" points="66.006,-30.05 63.833,-30.95 63.93,-28.422   "/>
  <polygon style="fill:#00AEEF;" points="51.267,-29.728 53.906,-29.71 52.765,-31.766   "/>
  <polygon style="fill:#00AEEF;" points="52.142,-26.762 53.073,-24.293 54.582,-26.096   "/>
  <polygon style="fill:#00AEEF;" points="48.073,-17.126 48.211,-19.652 45.993,-18.223   "/>
  <polygon style="fill:#00AEEF;" points="49.073,-22.793 47.997,-25.203 46.598,-23.313   "/>
  <polygon style="fill:#00AEEF;" points="45.376,-13.314 46.823,-11.46 47.986,-13.706   "/>
  <polygon style="fill:#00AEEF;" points="42.684,-15.886 40.046,-15.981 41.127,-13.893   "/>
  <polygon style="fill:#00AEEF;" points="71.31,-26.735 69.51,-28.249 68.838,-25.81   "/>
  <polygon style="fill:#00AEEF;" points="36.274,-30.7 39.006,-30.914 37.402,-33.013   "/>
  <polygon style="fill:#00AEEF;" points="40.517,-25.021 39.941,-27.599 37.947,-25.973   "/>
  <polyline style="fill:#00AEEF;" points="27.877,-72.301 26.004,-70.831 25.948,-72.301   "/>
  <polyline style="fill:#00AEEF;" points="63.55,-72.301 61.676,-70.831 61.62,-72.301   "/>
  <polyline style="fill:#00AEEF;" points="27.863,-1 28.081,-1.171 25.908,-2.07 25.949,-1   "/>
  <polyline style="fill:#00AEEF;" points="63.535,-1 63.753,-1.171 61.58,-2.07 61.621,-1   "/>
  <line x1="1" y1="-48.487" style="fill:#00AEEF;" x2="1" y2="-46.636"/>
  <line x1="72.339" y1="-46.636" style="fill:#00AEEF;" x2="72.339" y2="-48.485"/>
  <line x1="25.949" y1="-1" style="fill:#00AEEF;" x2="27.863" y2="-1"/>
  <line x1="1" y1="-11.026" style="fill:#00AEEF;" x2="1" y2="-12.877"/>
  <line x1="61.621" y1="-1" style="fill:#00AEEF;" x2="63.535" y2="-1"/>
  <line x1="72.339" y1="-11.026" style="fill:#00AEEF;" x2="72.339" y2="-12.875"/>
  <line x1="63.55" y1="-72.301" style="fill:#00AEEF;" x2="61.62" y2="-72.301"/>
  <line x1="27.877" y1="-72.301" style="fill:#00AEEF;" x2="25.948" y2="-72.301"/>
 </g>
</svg>
