<?xml version="1.0"?>
<!-- Converted with SVG Converter - Version 0.9.5 (Compiled Fri Feb 21 09:53:38 2020) - Copyright (C) 2011 Nokia -->
<svg xmlns="http://www.w3.org/2000/svg" height="16.899" width="16.9" baseProfile="tiny" xmlns:xlink="http://www.w3.org/1999/xlink" x="0px" viewBox="1.176 -18.26 16.9 16.899" xml:space="preserve" y="0px" version="1.1">
 <g>
  <rect height="16.899" style="fill:none;" width="16.9" x="1.176" y="-18.26"/>
  <polygon style="fill:none;stroke:#EC008C;stroke-width:0.58;" points="5.381,-12.856 4.781,-15.965 7.738,-15.027   "/>
  <line y1="-10.666" x1="7.306" style="fill:none;stroke:#EC008C;stroke-width:0.8;stroke-linecap:round;" x2="7.306" y2="-10.666"/>
  <line y1="-11.803" x1="2.6" style="fill:none;stroke:#EC008C;stroke-width:0.8;stroke-linecap:round;" x2="2.6" y2="-11.803"/>
  <polygon style="fill:none;stroke:#EC008C;stroke-width:0.58;" points="12.523,-10.859 13.409,-13.901 15.61,-11.715   "/>
  <line y1="-14.248" x1="16.417" style="fill:none;stroke:#EC008C;stroke-width:0.8;stroke-linecap:round;" x2="16.417" y2="-14.248"/>
  <line y1="-16.69" x1="12.928" style="fill:none;stroke:#EC008C;stroke-width:0.8;stroke-linecap:round;" x2="12.928" y2="-16.69"/>
  <line y1="-9.874" x1="14.976" style="fill:none;stroke:#EC008C;stroke-width:0.8;stroke-linecap:round;" x2="14.976" y2="-9.874"/>
  <line y1="-11.787" x1="10.892" style="fill:none;stroke:#EC008C;stroke-width:0.8;stroke-linecap:round;" x2="10.892" y2="-11.787"/>
  <line y1="-15.01" x1="10.778" style="fill:none;stroke:#EC008C;stroke-width:0.8;stroke-linecap:round;" x2="10.778" y2="-15.01"/>
  <line y1="-16.344" x1="3.077" style="fill:none;stroke:#EC008C;stroke-width:0.8;stroke-linecap:round;" x2="3.077" y2="-16.344"/>
  <line y1="-17.089" x1="8.842" style="fill:none;stroke:#EC008C;stroke-width:0.8;stroke-linecap:round;" x2="8.842" y2="-17.089"/>
  <line y1="-17.259" x1="16.534" style="fill:none;stroke:#EC008C;stroke-width:0.8;stroke-linecap:round;" x2="16.534" y2="-17.259"/>
  <polygon style="fill:none;stroke:#EC008C;stroke-width:0.58;" points="8.222,-4.985 5.054,-4.945 6.502,-7.689   "/>
  <line y1="-2.932" x1="6.46" style="fill:none;stroke:#EC008C;stroke-width:0.8;stroke-linecap:round;" x2="6.46" y2="-2.932"/>
  <line y1="-2.601" x1="2.88" style="fill:none;stroke:#EC008C;stroke-width:0.8;stroke-linecap:round;" x2="2.88" y2="-2.601"/>
  <line y1="-6.008" x1="3.364" style="fill:none;stroke:#EC008C;stroke-width:0.8;stroke-linecap:round;" x2="3.364" y2="-6.008"/>
  <line y1="-9.019" x1="4.631" style="fill:none;stroke:#EC008C;stroke-width:0.8;stroke-linecap:round;" x2="4.631" y2="-9.019"/>
  <polygon style="fill:none;stroke:#EC008C;stroke-width:0.58;" points="13.984,-3.394 16.396,-5.449 17.035,-2.414   "/>
  <line y1="-3.55" x1="10.778" style="fill:none;stroke:#EC008C;stroke-width:0.8;stroke-linecap:round;" x2="10.778" y2="-3.55"/>
  <line y1="-7.756" x1="17.231" style="fill:none;stroke:#EC008C;stroke-width:0.8;stroke-linecap:round;" x2="17.231" y2="-7.756"/>
  <line y1="-8.211" x1="9.579" style="fill:none;stroke:#EC008C;stroke-width:0.8;stroke-linecap:round;" x2="9.579" y2="-8.211"/>
  <line y1="-6.722" x1="12.846" style="fill:none;stroke:#EC008C;stroke-width:0.8;stroke-linecap:round;" x2="12.846" y2="-6.722"/>
 </g>
</svg>
