<?xml version="1.0"?>
<!-- Converted with SVG Converter - Version 0.9.5 (Compiled Fri Feb 21 09:53:38 2020) - Copyright (C) 2011 Nokia -->
<svg xmlns="http://www.w3.org/2000/svg" version="1.1" height="16.899" y="0px" baseProfile="tiny" width="16.9" x="0px" xml:space="preserve" viewBox="1 -18.06 16.9 16.899" xmlns:xlink="http://www.w3.org/1999/xlink">
 <g>
  <rect height="16.899" y="-18.06" width="16.9" x="1" style="fill:none;"/>
  <polygon points="5.206,-12.655 4.605,-15.765 7.562,-14.827   " style="fill:none;stroke:#000000;stroke-width:0.43;"/>
  <line x1="7.13" y1="-10.466" x2="7.13" y2="-10.466" style="fill:none;stroke:#000000;stroke-width:0.7;stroke-linecap:round;"/>
  <line x1="2.424" y1="-11.602" x2="2.424" y2="-11.602" style="fill:none;stroke:#000000;stroke-width:0.7;stroke-linecap:round;"/>
  <polygon points="12.347,-10.659 13.233,-13.701 15.435,-11.515   " style="fill:none;stroke:#000000;stroke-width:0.43;"/>
  <line x1="16.242" y1="-14.048" x2="16.242" y2="-14.048" style="fill:none;stroke:#000000;stroke-width:0.7;stroke-linecap:round;"/>
  <line x1="12.752" y1="-16.489" x2="12.752" y2="-16.489" style="fill:none;stroke:#000000;stroke-width:0.7;stroke-linecap:round;"/>
  <line x1="14.8" y1="-9.674" x2="14.8" y2="-9.674" style="fill:none;stroke:#000000;stroke-width:0.7;stroke-linecap:round;"/>
  <line x1="10.716" y1="-11.587" x2="10.716" y2="-11.587" style="fill:none;stroke:#000000;stroke-width:0.7;stroke-linecap:round;"/>
  <line x1="10.602" y1="-14.81" x2="10.602" y2="-14.81" style="fill:none;stroke:#000000;stroke-width:0.7;stroke-linecap:round;"/>
  <line x1="2.901" y1="-16.144" x2="2.901" y2="-16.144" style="fill:none;stroke:#000000;stroke-width:0.7;stroke-linecap:round;"/>
  <line x1="8.666" y1="-16.889" x2="8.666" y2="-16.889" style="fill:none;stroke:#000000;stroke-width:0.7;stroke-linecap:round;"/>
  <line x1="16.358" y1="-17.059" x2="16.358" y2="-17.059" style="fill:none;stroke:#000000;stroke-width:0.7;stroke-linecap:round;"/>
  <polygon points="8.046,-4.785 4.878,-4.745 6.326,-7.489   " style="fill:none;stroke:#000000;stroke-width:0.43;"/>
  <line x1="6.285" y1="-2.731" x2="6.285" y2="-2.731" style="fill:none;stroke:#000000;stroke-width:0.7;stroke-linecap:round;"/>
  <line x1="2.705" y1="-2.4" x2="2.705" y2="-2.4" style="fill:none;stroke:#000000;stroke-width:0.7;stroke-linecap:round;"/>
  <line x1="3.188" y1="-5.808" x2="3.188" y2="-5.808" style="fill:none;stroke:#000000;stroke-width:0.7;stroke-linecap:round;"/>
  <line x1="4.456" y1="-8.818" x2="4.456" y2="-8.818" style="fill:none;stroke:#000000;stroke-width:0.7;stroke-linecap:round;"/>
  <polygon points="13.809,-3.193 16.22,-5.249 16.859,-2.214   " style="fill:none;stroke:#000000;stroke-width:0.43;"/>
  <line x1="10.602" y1="-3.35" x2="10.602" y2="-3.35" style="fill:none;stroke:#000000;stroke-width:0.7;stroke-linecap:round;"/>
  <line x1="17.055" y1="-7.556" x2="17.055" y2="-7.556" style="fill:none;stroke:#000000;stroke-width:0.7;stroke-linecap:round;"/>
  <line x1="9.403" y1="-8.011" x2="9.403" y2="-8.011" style="fill:none;stroke:#000000;stroke-width:0.7;stroke-linecap:round;"/>
  <line x1="12.67" y1="-6.522" x2="12.67" y2="-6.522" style="fill:none;stroke:#000000;stroke-width:0.7;stroke-linecap:round;"/>
 </g>
</svg>
