<?xml version="1.0"?>
<!-- Converted with SVG Converter - Version 0.9.5 (Compiled Fri Feb 21 09:53:38 2020) - Copyright (C) 2011 Nokia -->
<svg xmlns="http://www.w3.org/2000/svg" version="1.1" xmlns:xlink="http://www.w3.org/1999/xlink" x="0px" y="0px" xml:space="preserve" baseProfile="tiny" height="44.438" width="44.437" viewBox="0 -44.438 44.437 44.438">
 <g>
  <rect x="0" y="-44.438" style="fill:none;" height="44.438" width="44.437"/>
  <path style="fill:#ED1B2E;" d="M4.05-20.17c-0.313,0.583-1.031,0.94-0.852,1.254c0.18,0.313,0.492,0.745,0.805,0.88    c0.314,0.134,2.235,1.271,0.702,2.617c-0.364,0.32-0.249,0.199-0.607,0.468c-0.359,0.27-0.235,0.438,0,0.795    c0.223,0.339,0.267,0.35,0.759,0.529c0.493,0.18,0.313-0.672,0.358-1.345c0.046-0.672,1.255-1.075,1.658-1.568    c0.403-0.493-0.045-0.941-0.806-0.986c-0.763-0.044-0.539-0.403-0.404-0.717c0.135-0.313,0.269-0.18,0.404-0.583    c0.134-0.404-0.136-0.18-0.673,0.045c-0.538,0.224-0.403-0.179-0.403-0.763c0-0.583,0.027-1.41,0.499-1.342    c0.628,0.089,1.107,0.001,1.3-0.313c0.309-0.503-0.396-0.362-0.465-0.484c-0.069-0.121,0.122-0.242,0.243-0.328    c0.121-0.086-0.087-0.329-0.45-0.354c-0.492-0.032-0.913,0.142-1.255,0.538c-0.171,0.197-0.278,0.271-0.4,0.74    C4.341-20.619,4.05-20.17,4.05-20.17z"/>
  <path style="fill:#ED1B2E;" d="M13.256-14.519l0.046-0.114c0.045-0.403,0.088-0.916-0.359-0.603    C12.494-14.923,12.54-13.757,13.256-14.519z"/>
  <path style="fill:#ED1B2E;" d="M3.806-15.625l0.092-0.081c0.225-0.338,0.502-0.771-0.041-0.7    C3.315-16.335,2.818-15.279,3.806-15.625z"/>
  <path style="fill:#ED1B2E;" d="M5.01-5.318c0.223,0.403,1.299,0.045,1.03-0.492C5.772-6.349,4.761-5.765,5.01-5.318z"/>
  <path style="fill:#ED1B2E;" d="M15.154-12.495l0.127,0.04c0.287,0.137,0.389,0.264,0.686,0.216    c0.297-0.047,0.613-0.605-0.418-1.213c-1.031-0.606-2.051-0.646-2.24-0.047c-0.189,0.598,0.269,0.789,0.749,0.752    C14.539-12.783,14.611-12.713,15.154-12.495z"/>
  <path style="fill:#ED1B2E;" d="M15.582-11.262c-0.762,0.179-0.627,0.847-0.627,1.658c0,0.403,1.301-0.045,1.973-0.941    C17.599-11.441,16.343-11.441,15.582-11.262z"/>
  <path style="fill:#ED1B2E;" d="M11.985-6.415c0.449-0.358,0.537-0.582,0.986-0.582c0.448,0,0.583,0.09,1.165-0.09    c0.582-0.179,0.629-1.39-0.312-1.39c-0.942,0-2.268,1.303-2.78,1.928C10.642-6.057,11.537-6.057,11.985-6.415z"/>
  <path style="fill:#ED1B2E;" d="M6.085-3.312c0.492-0.045,1.613-0.672,1.567-1.165c-0.045-0.493-0.179-0.538-0.94,0    C5.95-3.938,5.727-3.278,6.085-3.312z"/>
  <path style="fill:#ED1B2E;" d="M3.074-4.318c0.269-0.538,0.269-1.165,0-1.434C2.805-6.022,2.087-5.35,1.685-4.273    C1.518-3.828,2.805-3.78,3.074-4.318z"/>
  <path style="fill:#ED1B2E;" d="M7.192-20.036c-0.493,0.493-0.244,0.464-0.065,0.642c0.326,0.326,0.181,0.071,0.888,0.188    c0.49,0.079,0.796-0.375,0.612-0.561C8.136-20.266,7.686-20.529,7.192-20.036z"/>
  <path style="fill:#ED1B2E;" d="M14.873-5.849c0.225,0.224,0.672,0.044,1.076-0.27c0.402-0.313,1.029-0.672,1.703-0.762    c0.672-0.09,0.537-0.403,0.537-0.897c0-0.492-0.045-0.583,0.18-0.985c0.225-0.403,0.537-0.898,0.896-0.898    c0.358,0,0.492-0.224,0.537-0.493c0.045-0.269-0.088-0.312-0.582-0.312c-0.492,0-0.307-0.082-0.539-0.358    c-0.223-0.27-0.268-0.27-0.717,0.045c-0.447,0.314-0.447,0.984-0.447,1.434c0,0.448-0.449,0.851-1.211,1.389    C15.544-7.418,14.648-6.073,14.873-5.849z"/>
  <path style="fill:#ED1B2E;" d="M13.232-4.92c0.314-0.27-0.065-0.697-0.448-0.314C12.515-4.965,12.919-4.651,13.232-4.92z"/>
  <path style="fill:#ED1B2E;" d="M18.621-19.454c-0.269,0.269,0.135,0.582,0.449,0.313C19.384-19.41,19.003-19.837,18.621-19.454z"/>
  <path style="fill:#ED1B2E;" d="M9.169-7.118c0.404-0.447,0.449-0.448,0.897-0.403c0.449,0.045,0.808-0.089,0.808-0.627    c0-0.403,0.672-1.032,1.345-1.435c0.672-0.403,0.941-0.582,0.806-1.076c-0.134-0.493-0.806-0.985-1.12-0.761    c-0.314,0.224-1.434,2.33-2.42,2.868C8.498-8.015,7.511-7.835,7.287-8.193C7.063-8.552,7.019-9.269,6.66-9.269    c-0.358,0-0.403,0.448-0.583,0.762C5.898-8.193,5.852-7.79,5.269-7.835C4.688-7.88,4.239-7.88,3.925-7.342    C3.612-6.805,3.523-5.639,4.374-6.266c0.852-0.628,2.062-1.839,2.645-1.256c0.583,0.583,0.762,1.569,1.03,1.569    C8.318-5.952,8.766-6.67,9.169-7.118z"/>
  <path style="fill:#ED1B2E;" d="M20.75-21.349c0,0-0.484-0.239-0.781-0.074c-0.207,0.113-0.869,0.62-0.461,1.065    c0.274,0.3,0.607,1.263,1.197,0.264C20.962-20.531,21.242-21.349,20.75-21.349z"/>
  <path style="fill:#ED1B2E;" d="M17.089-13.705c0.629,0.628,1.256,0.449,1.346,0.135c0.09-0.314,1.254-0.044,1.748-0.358    c0.492-0.314,0.402-0.583,0.807-1.211c0.402-0.627,0.358-0.94,0.358-1.658c0-0.358,0.348-0.672,0.846-0.925h0.01    c0,0,0.764-0.255,0.969-0.621c0.203-0.367-0.012-0.741,0.248-1.043c0.414-0.481,1.147-1.256,1.684-0.986    c0,0,0.162,0.071,0.408-0.152c0.244-0.224,0.576-0.57,0.176-0.743c-0.461-0.2-2.051-0.537-2.455-0.357    c-0.402,0.18-0.797,1.253-0.754,1.746c0.029,0.308-0.262,0.774-0.262,0.774l-0.031,0.011c-0.19,0.123-0.387,0.327-0.613,0.684    c-0.627,0.986-1.158,0.597-2.912,0.046c-0.396-0.125-0.711,0.324-0.576,0.817c0.135,0.492,0.441,0.437,1.695,0.437    c1.256,0,1.076,0.851-0.045,2.062c-1.119,1.209-2.131-1.317-3.137-0.359C15.955-14.796,16.462-14.332,17.089-13.705z"/>
  <path style="fill:#ED1B2E;" d="M44.437-17.673l-0.076,0.037c-0.5,0.252-0.848,0.566-0.848,0.925c0,0.717,0.045,1.03-0.357,1.658    c-0.404,0.627-0.314,0.896-0.809,1.21c-0.492,0.314-1.656,0.045-1.746,0.358c-0.09,0.314-0.717,0.493-1.346-0.135    c-0.627-0.628-1.137-1.091-0.492-1.703c1.006-0.958,2.018,1.569,3.137,0.358c1.121-1.21,1.299-2.062,0.045-2.062    c-1.256,0-1.561,0.057-1.695-0.437c-0.135-0.494,0.18-0.942,0.574-0.818c1.756,0.553,2.287,0.941,2.914-0.044    c0.227-0.357,0.424-0.562,0.613-0.686l0.086-0.04"/>
  <path style="fill:#ED1B2E;" d="M25.494-18.318c0.18,0.313,0.492,0.745,0.805,0.879c0.315,0.135,2.234,1.272,0.701,2.618    c-0.363,0.319-0.248,0.198-0.607,0.468c-0.357,0.269-0.234,0.438,0,0.794c0.223,0.34,0.268,0.351,0.76,0.53    c0.492,0.179,0.312-0.673,0.359-1.345c0.045-0.672,1.254-1.075,1.658-1.569c0.402-0.492-0.047-0.941-0.809-0.985    c-0.762-0.045-0.537-0.403-0.402-0.718c0.135-0.313,0.27-0.179,0.402-0.582c0.135-0.403-0.133-0.18-0.672,0.044    c-0.537,0.225-0.402-0.179-0.402-0.762s-0.248-0.86,0.225-0.792c0.627,0.09,1.758-0.506,1.85-0.864    c0.09-0.358,0.305-0.666,1.111-0.397c0,0,0.236-0.109,0.402-0.045c0.43,0.167,0.682,0.561,0.994-0.065l0.299-0.043    c0.213-0.425,0.268-0.482-0.217-0.377c-0.486,0.107-0.666-0.121-0.85-0.317c-0.182-0.197-0.758-0.092-1.121,0.061    c-0.363,0.151-1.291,0.018-1.291,0.018c-0.494,0-1.465,0.694-1.807,1.089c-0.172,0.198-0.277,0.271-0.4,0.74    c-0.121,0.469-0.137,0.366-0.137,0.366C26.031-18.99,25.314-18.632,25.494-18.318z"/>
  <path style="fill:#ED1B2E;" d="M28.917-3.298c0.172,0,1.158-0.793,1.158-0.967c0-0.173-1.066-0.364-1.24-0.364    c-0.174,0-0.885,0.346-0.885,0.518C27.951-3.937,28.744-3.298,28.917-3.298z"/>
  <path style="fill:#ED1B2E;" d="M28.281-6.234c0.615,1.027,1.451,0.595,0.824-0.394C28.847-7.035,28.072-6.585,28.281-6.234z"/>
  <path style="fill:#ED1B2E;" d="M29.333-18.944c0.223,0.403,1.299,0.045,1.031-0.493C30.095-19.976,29.085-19.391,29.333-18.944z"/>
  <path style="fill:#ED1B2E;" d="M37.207-12.633c0.27-1.166,0-2.152-0.627-2.152c-0.627,0-0.672,0.494-0.494,0.941    c0.18,0.448,0.135,0.538,0.092,1.121v0.134c-0.045,0.314-0.137,0.449,0,0.718C36.31-11.602,36.939-11.468,37.207-12.633z"/>
  <path style="fill:#ED1B2E;" d="M37.255-9.036c0,0.403,1.299-0.045,1.973-0.941c0.67-0.896-0.584-0.896-1.346-0.717    C37.121-10.516,37.255-9.848,37.255-9.036z"/>
  <path style="fill:#ED1B2E;" d="M34.57-6.131c0.449-0.358,0.537-0.583,0.986-0.583c0.449,0,0.582,0.09,1.164-0.089    s0.627-1.391-0.312-1.391c-0.941,0-2.268,1.303-2.779,1.928C33.226-5.773,34.121-5.773,34.57-6.131z"/>
  <path style="fill:#ED1B2E;" d="M29.966-1.37c0.494-0.045,1.613-0.673,1.568-1.165c-0.045-0.493-0.178-0.538-0.941,0    C29.831-1.998,29.609-1.338,29.966-1.37z"/>
  <path style="fill:#ED1B2E;" d="M26.023-4.031c0.545-0.259,0.928-0.755,0.881-1.133C26.857-5.54,25.878-5.449,24.9-4.848    C24.494-4.598,25.482-3.772,26.023-4.031z"/>
  <path style="fill:#ED1B2E;" d="M37.673-4.882c0.223,0.224,0.672,0.045,1.074-0.27c0.404-0.313,1.031-0.672,1.703-0.762    c0.674-0.09,0.539-0.403,0.539-0.897c0-0.492-0.045-0.583,0.18-0.985c0.223-0.403,0.537-0.898,0.895-0.898    c0.359,0,0.494-0.224,0.539-0.493c0.045-0.269-0.09-0.312-0.584-0.312c-0.492,0-0.307-0.082-0.537-0.358    c-0.225-0.27-0.27-0.27-0.717,0.045c-0.447,0.313-0.447,0.984-0.447,1.434c0,0.448-0.449,0.852-1.211,1.389    C38.345-6.451,37.449-5.106,37.673-4.882z"/>
  <path style="fill:#ED1B2E;" d="M37.033-5.503c0.314-0.27-0.064-0.697-0.449-0.314C36.314-5.548,36.718-5.234,37.033-5.503z"/>
  <path style="fill:#ED1B2E;" d="M41.369-19.141c0.314-0.27-0.064-0.696-0.447-0.313C40.652-19.185,41.056-18.872,41.369-19.141z"/>
  <path style="fill:#ED1B2E;" d="M31.47-7.118c0.402-0.447,0.449-0.448,0.896-0.403s0.807-0.089,0.807-0.627    c0-0.403,0.672-1.032,1.344-1.435c0.672-0.403,0.941-0.582,0.807-1.076c-0.135-0.493-0.805-0.985-1.119-0.761    c-0.315,0.224-1.436,2.33-2.42,2.868c-0.986,0.537-1.973,0.717-2.197,0.358c-0.223-0.358-0.27-1.075-0.627-1.075    c-0.359,0-0.404,0.448-0.584,0.762c-0.178,0.313-0.225,0.717-0.807,0.672c-0.582-0.045-1.029-0.045-1.344,0.493    c-0.315,0.537-0.402,1.703,0.447,1.076c0.854-0.628,2.062-1.839,2.645-1.256c0.584,0.583,0.762,1.569,1.031,1.569    C30.619-5.952,31.066-6.67,31.47-7.118z"/>
  <path style="fill:#ED1B2E;" d="M39.146-2.659c0.537,0.045,0.672,0.135,1.209-0.135c0.539-0.269,0.494-0.313,0.986-0.269    c0.494,0.045,0.674,0.179,1.076-0.358c0.402-0.538,0.447-0.358,0.807-0.045c0.357,0.314,0.672,0.269,0.717,0.045    c0.045-0.224-0.402-0.807-0.582-0.985c-0.18-0.18-0.449-0.358,0.312-0.763c0,0,0.51,0.074,0.602-0.427    c0.092-0.5-0.287-1.379-0.787-0.94c-0.5,0.44-0.889,1.008-0.889,1.008c-1.008,1.109-1.031,1.613-1.301,1.658    c-0.269,0.045-0.418,0.36-0.717,0.18c-1.451-0.877-1.549-0.06-1.799,0.44S39.146-2.659,39.146-2.659z"/>
  <path style="fill:#ED1B2E;" d="M23.064-7.677c0.076,0.19,0.607,0.97,0.57,1.198c-0.039,0.228,1.197,0.152,1.312-0.076    c0.113-0.227-0.172-0.532-0.133-0.723c0.037-0.191,0.76-0.398,0.912-0.856c0.326-0.981,0.674-2.6,1.346-2.42s1.434,0.313,1.971,0    c0.539-0.314,0.494-0.538,1.031-0.448c0.537,0.09,1.703-0.09,2.197-0.359c0.492-0.268,0.715-0.403,0.76-0.762    c0.047-0.358,0.699-0.715,0.719-1.479c0.012-0.475,0.068-0.656,1.119-0.414c1.053,0.242-1.131-2.022-1.373-1.536    c-0.242,0.485-0.242,0.97-0.729,0.485c-0.484-0.485-0.322-0.809-0.727-0.728c-0.404,0.082-1.25,0.938-1.25,0.938    c-0.268,0.27-0.717,0.672-0.939,0.717c-0.225,0.045-0.719,0.448-0.539,0.717c0.18,0.27,0.627,0.628,1.256,0.045    c0.627-0.582,1.209-0.582,1.523-0.269c0.314,0.314,0.27,1.076-0.314,1.3c-0.582,0.224-1.434,0.762-1.926,0.314    c-0.494-0.449-0.674-0.674-0.941-0.404c-0.27,0.269-0.539,0.313-1.076,0.358c-0.539,0.046-1.748,0.225-2.062,0.628    c-0.315,0.402-1.254,0.582-1.254,0.851c0,0.27,0.492,0.537,0.672,0.672c0.18,0.135,0.312,0.403,0.135,0.717    c-0.18,0.314-0.449,1.21-1.166,1.076c-0.717-0.135-0.447-0.045-0.807,0.135C23.351-7.998,22.986-7.868,23.064-7.677z"/>
  <path style="fill:#ED1B2E;" d="M6.468-10.995c0.162,0.889,1.656,0.102,1.656,0.102c0.537,0.09,1.703-0.089,2.196-0.358    c0.493-0.268,0.716-0.403,0.762-0.762c0.045-0.358,0.762-0.717,0.717-1.479c-0.044-0.762-0.403-1.658-1.21-1.658    c-0.807,0-1.478,0.134-1.748,0.402c-0.269,0.27-0.717,0.673-0.941,0.718c-0.224,0.045-0.717,0.448-0.538,0.717    c0.18,0.269,0.628,0.628,1.256,0.045c0.627-0.582,1.21-0.582,1.523-0.269c0.314,0.313,0.27,1.075-0.314,1.3    c-0.583,0.224-1.341,0.63-1.928,0.313C7.231-12.284,6.307-11.886,6.468-10.995z"/>
  <path style="fill:#ED1B2E;" d="M3.352-8.076c0.327-0.98,0.673-2.6,1.345-2.419c0,0,0.376-0.472,0.134-0.795    c-0.242-0.323,1.013-0.165,0.628-0.729c-0.305-0.445-1.749,0.225-2.062,0.628c-0.314,0.402-1.255,0.582-1.255,0.852    c0,0.269,0.493,0.537,0.672,0.672c0.18,0.135,0.314,0.403,0.135,0.717C2.77-8.837,2.5-7.941,1.784-8.076    C1.066-8.21,1.335-8.12,0.977-7.94c0,0-0.364,0.13-0.288,0.321c0.076,0.189,0.609,0.97,0.571,1.198    C1.221-6.193,2.458-6.269,2.572-6.497C2.687-6.726,2.401-7.03,2.439-7.22C2.477-7.41,3.2-7.618,3.352-8.076z"/>
  <path style="fill:#ED1B2E;" d="M19.31-10.959c0.18,0.313,1.346-0.089,1.928-0.403c0.31-0.168,0.648-0.258,0.965-0.257l0.059,0.022    c0.115,0.076,0.361,0.13,0.799-0.441c0.582-0.763,0.894-1.256,1.434-1.256c0.537,0,0.807-0.358,0.627-0.896    c-0.18-0.538-1.068-1.362-0.934-1.587s1.262-1.013,0.799-1.569c-0.601-0.725-2.076-0.401-1.5,0.464    c0.18,0.267-0.188,1.438-0.234,1.573c-0.045,0.135,0.793,0.491,1.017,0.626c0.225,0.135,0.358,0.314,0.135,0.493    c-0.225,0.179-0.582,0.27-0.852,0.225c-0.27-0.046-0.584-0.225-0.762,0.224c-0.18,0.447-0.012,1.182-0.529,1.114l-0.027,0.008    c-0.119-0.083-0.279-0.211-0.412-0.312c-0.539-0.403-0.584,0.18-0.764,0.718c-0.178,0.538-0.414,0.543-0.717,0.448    C19.625-11.989,19.13-11.273,19.31-10.959z"/>
  <path style="fill:#ED1B2E;" d="M37.66,0c0.033-0.072,0.059-0.156,0.082-0.253c0.135-0.583,0.449-0.896,0.941-0.853    c0.494,0.045,0.447,0.493,1.076,0.314c0.627-0.18,1.568-0.763,1.926-0.494c0.359,0.27,0.719,0.539,0.988,0.091    c0.25-0.417,1.08-0.834,1.592-0.818l0.172,0.015v0.88l-0.156-0.014c-0.424-0.028-0.492,0.067-0.758,0.43    c-0.357,0.493-1.701,0.449-2.465,0.493C40.785-0.193,40.583-0.12,40.445,0"/>
  <path style="fill:#ED1B2E;" d="M44.437-9.979l-0.094,0.073c-0.137,0.16-0.326,0.257-0.482,0.4    c-0.582,0.538-0.588,0.734-0.191,0.893c0.191,0.077,0.426,0.005,0.645-0.127l0.123-0.064"/>
  <path style="fill:#ED1B2E;" d="M20.611-8.263c0.191,0.077,0.426,0.006,0.645-0.127l-0.002-0.02    c0.277-0.176,0.525-0.443,0.623-0.615c0,0,0.27,0.268,0.539,0.224c0.27-0.045,0.447-0.807,0.27-1.255    c-0.18-0.447-0.539-0.134-0.539-0.134c-0.258-0.259-0.539,0.133-0.893,0.572L21.24-9.626c-0.137,0.161-0.283,0.328-0.438,0.472    C20.218-8.617,20.214-8.421,20.611-8.263z"/>
  <path style="fill:#ED1B2E;" d="M35.736-16.215c0.941-0.18,2.375-0.271,2.914-0.674c0.537-0.402,1.061-2.15,1.076-2.599    c0.01-0.344,0.185-0.581,0.109-0.823c-0.074-0.242-1.892-0.422-2.096-0.369h-0.076c0-0.49-0.414-0.566-0.414-0.566    c-0.646,0.146-1.281-0.793-1.576-0.789c-0.674,0.011-1.076,0.628-0.896,1.076c0,0-0.125,0.247,0.4,0.544    c0.479,0.271,0.9,0.721,1.379,0.409l0.334-0.104c0.873,0.125,0.133,0.949,0.717,0.725c0.582-0.224,1.625-0.371,1.49,0.167    c-0.135,0.538-1.164,1.703-1.746,1.748c-0.584,0.045-1.107-0.167-1.322-0.274c-0.334-0.168-0.773-0.168-1.1-0.174    c-0.385-0.007-1.076-0.487-0.537-0.621c0.537-0.135,0.852,0.045,0.852-0.27c0-0.313-0.09-0.313-0.359-0.447    c-0.27-0.135-0.27-0.134-0.402-0.313c-0.135-0.18-0.359-0.225-0.672-0.225c-0.314,0-0.314,0.044-0.629-0.224    c-0.312-0.269-0.711-0.269-0.934,0.224c-0.225,0.493-0.051,0.801,0.486,0.756c0.537-0.046,0.807,0,0.807,0.358    s-0.225,1.031-0.941,0.807c-0.717-0.224-0.986-0.717-1.434-0.627c-0.449,0.09-0.494,0.448-0.135,1.165    c0.25,0.502,0.402,1.166,1.164,0.627c0.762-0.538,1.033-1.076,1.658-0.896c0.629,0.18,0.764,0.358,0.941,0.808    C34.974-16.351,34.794-16.036,35.736-16.215z"/>
  <path style="fill:#ED1B2E;" d="M42.277-20.826c0.273,0.299,0.607,1.262,1.197,0.263c0.258-0.436,0.537-1.255,0.045-1.255    c0,0-0.484-0.238-0.783-0.074C42.531-21.777,41.869-21.271,42.277-20.826z"/>
  <path style="fill:#ED1B2E;" d="M9.9-44.438l-0.027,0.076c-0.126,0.229-0.232,0.456-0.324,0.639    c-0.313,0.627-1.048-0.013-1.48-0.18c-0.166-0.063-0.402,0.046-0.402,0.046c-0.807-0.27-0.852,0.582-0.941,0.941    c-0.09,0.358-0.673,0.403-1.3,0.312c-0.472-0.067-0.224,0.209-0.224,0.793c0,0.583-0.134,0.986,0.403,0.762    c0.538-0.225,0.807-0.448,0.672-0.045c-0.134,0.403-0.269,0.27-0.403,0.583c-0.135,0.313-0.359,0.673,0.403,0.717    c0.763,0.045,1.209,0.494,0.807,0.986c-0.403,0.493-1.613,0.896-1.658,1.568c-0.045,0.673,0.135,1.524-0.358,1.345    c-0.493-0.18-0.536-0.19-0.76-0.529c-0.234-0.357-0.358-0.525,0-0.795c0.358-0.269,0.244-0.147,0.607-0.468    c1.533-1.346-0.388-2.482-0.7-2.617c-0.314-0.134-0.626-0.566-0.806-0.879c-0.18-0.313,0.538-0.672,0.852-1.255    c0,0,0.016,0.102,0.138-0.366c0.122-0.47,0.229-0.543,0.4-0.741c0.342-0.395,0.763-0.537,1.255-0.537    c0.458,0,0.57-0.099,0.881-0.259l0.084-0.098"/>
  <path style="fill:#ED1B2E;" d="M12.088-37.742c-0.448,0.314-0.402,1.479,0.314,0.718l0.045-0.115    C12.492-37.543,12.536-38.056,12.088-37.742z"/>
  <path style="fill:#ED1B2E;" d="M3.898-37.998c0.225-0.337,0.502-0.771-0.041-0.7c-0.542,0.072-1.039,1.128-0.051,0.782    L3.898-37.998z"/>
  <path style="fill:#ED1B2E;" d="M4.032-25.894c0.224,0.404,1.299,0.046,1.031-0.492C4.794-26.924,3.783-26.34,4.032-25.894z"/>
  <path style="fill:#ED1B2E;" d="M15.515-36.056c-0.973-0.696-1.984-0.828-2.227-0.249c-0.242,0.579-0.114,1.235,0.368,1.242    c0.482,0.007,0.859-0.341,1.379-0.076l0.125,0.053c0.271,0.161-0.365-0.518-0.066-0.539    C15.394-35.645,16.486-35.357,15.515-36.056z"/>
  <path style="fill:#ED1B2E;" d="M17.343-32.047c-0.719-0.109-0.484-1.172-0.379-1.362c0.543-0.98-0.562-0.689-1.344-0.718    c-2.225-0.079-1.199,1.799-0.059,1.096c0.6-0.369,0.844,1.031,0.219,1.422s1.438,1.422,1.984,0.953    C18.312-31.125,18.062-31.938,17.343-32.047z"/>
  <path style="fill:#ED1B2E;" d="M11.328-28.557c-0.402,0.492,0.492,0.492,0.941,0.134c0.449-0.358,0.538-0.582,0.987-0.582    c0.449,0,0.582,0.09,1.163-0.09c0.584-0.179,0.629-1.39-0.312-1.39C13.166-30.484,11.84-29.182,11.328-28.557z"/>
  <path style="fill:#ED1B2E;" d="M2.506-26.326c0.269-0.538,0.269-1.165,0-1.434c-0.269-0.269-0.986,0.403-1.389,1.479    C0.95-25.836,2.237-25.788,2.506-26.326z"/>
  <path style="fill:#ED1B2E;" d="M8.627-42.059c-0.491-0.498-0.941-0.762-1.435-0.268c-0.493,0.492-0.244,0.463-0.065,0.642    c0.326,0.326,0.181,0.071,0.888,0.187C8.505-41.419,8.811-41.872,8.627-42.059z"/>
  <path style="fill:#ED1B2E;" d="M21.234-27.413c0.326,0.327,0.182,0.072,0.889,0.186c0.488,0.08,0.795-0.374,0.611-0.559    c-0.49-0.499-0.941-0.762-1.436-0.27C20.806-27.562,21.056-27.592,21.234-27.413z"/>
  <path style="fill:#ED1B2E;" d="M14.732-27.795c0.314-0.27-0.064-0.697-0.447-0.313C14.015-27.84,14.419-27.526,14.732-27.795z"/>
  <path style="fill:#ED1B2E;" d="M20.746-41.745c-0.269,0.268,0.135,0.582,0.449,0.313C21.509-41.701,21.128-42.129,20.746-41.745z"/>
  <path style="fill:#ED1B2E;" d="M13.023-32.95c-0.134-0.493-0.806-0.985-1.12-0.762c-0.314,0.224-1.434,2.331-2.42,2.868    c-0.985,0.537-1.973,0.717-2.196,0.358C7.063-30.844,7.019-31.56,6.66-31.56c-0.358,0-0.403,0.448-0.583,0.763    c-0.18,0.312-0.225,0.717-0.808,0.671c-0.582-0.045-1.03-0.044-1.344,0.494c-0.313,0.537-0.403,1.702,0.449,1.075    c0.852-0.628,2.062-1.839,2.645-1.256c0.583,0.583,0.762,1.569,1.03,1.569c0.27,0,0.717-0.717,1.12-1.165    c0.404-0.448,0.449-0.448,0.897-0.404c0.449,0.045,0.808-0.089,0.808-0.626c0-0.404,0.672-1.032,1.345-1.434    C12.89-32.277,13.159-32.457,13.023-32.95z"/>
  <path style="fill:#ED1B2E;" d="M18.585-30.156c-1.006,1.109-1.031,1.613-1.301,1.658c-0.268,0.045-0.492-0.089-0.717,0.18    c-0.223,0.269-0.09,0.179-0.807,0.045c-0.717-0.136,0.174,1.285-0.455,1.779c-0.627,0.492-0.941,0.538-1.166,0.134    c-0.223-0.403-0.357-0.941-1.075-0.313c-0.718,0.627-0.985,0.718-1.389,0.313c-0.404-0.403-1.076-1.3-1.838-1.166    c-0.762,0.136-0.583,0.225-0.583,0.538c0,0.315,0.538,0.763,1.165,0.763c0.627,0,1.21,1.031,0.583,1.569    c-0.627,0.537-1.185,0.433-1.816,0.547c-0.19,0.035-0.54-0.318-0.609-0.422c-0.069-0.104-0.461,0.062-0.531,0.219    c-0.069,0.156,0.067,0.777,0.639,0.863c0.57,0.087,0.957,0.414,1.217-0.157c0.26-0.571,1.362-0.393,1.505-0.379    c0.857,0.089,0.852,0.225,0.986,0.358c0.134,0.135,0.492,0.225,0.762-0.492c0.268-0.717,0.313-1.165,1.122-1.12    c0.805,0.045,1.209,0.179,1.568-0.225c0.357-0.403,0.402-0.493,0.94-0.448c0.539,0.045-0.979-1.241-0.44-1.511    c0.537-0.269,0.492-0.313,0.986-0.269c0.492,0.045,0.672,0.179,1.074-0.358c0.404-0.538,0.449-0.358,0.807-0.045    c0.359,0.313,0.674,0.268,0.719,0.045c0.045-0.224-0.404-0.807-0.584-0.985c-0.178-0.18-0.449-0.358,0.314-0.763    c0,0,0.703-0.157,0.457-0.385c-0.248-0.229,0.476-0.533,0.172-0.686C20.007-30.855,19.267-30.908,18.585-30.156z"/>
  <polyline points="16.49,-21.139 16.49,-21.139 16.488,-21.139 16.49,-21.139   " style="fill:#ED1B2E;"/>
  <path style="fill:#ED1B2E;" d="M16.49-21.139c0.521,0.027,0.988-0.018,1.076-0.219c0.109-0.245,0.186-0.558,0.4-0.775l0.127-0.14    c0.139-0.142-0.201-0.502,0.1-0.52c0.764-0.044,2.172,0.042,2.467-0.493c0.068-0.126,0.066-0.523,0.498-0.73    c0.432-0.208,1.348-1.487,0.332-1.914c-2.609-1.096-1.414,1.703-1.684,2.152c-0.268,0.448-0.627,0.179-0.984-0.091    c-0.359-0.268-0.75,0.59-1.377,0.77c-0.629,0.179-0.584-0.27-1.076-0.314c-0.492-0.044-0.807,0.269-0.941,0.853    c-0.027,0.115-0.059,0.212-0.1,0.292l-0.152,0.14c-0.16,0.312-0.439-0.199-0.971-0.199c-0.674,0-1.077,0.627-0.897,1.076    c0,0,0.403,0.358,0.852-0.045c0.447-0.404,0.037-0.278,0.664-0.1l0.182,0.031c1.213,0.226,0.275,1.651,0.857,1.428    s1.076,0.18,0.941,0.718s-1.166,1.702-1.748,1.747c-0.582,0.046-1.166-0.179-1.254-0.403c-0.092-0.224-0.135-0.179,0.178-0.447    c0.314-0.27,0.314-0.359,0.09-0.538c-0.223-0.18-0.627,0.089-0.717,0.492c-0.089,0.404-0.404,0.673-0.717,0.449    c-0.313-0.224-1.626-1.862-1.088-1.998c0.537-0.134,0.851,0.045,0.851-0.269c0-0.313-0.089-0.313-0.358-0.448    c-0.269-0.134-0.269-0.134-0.403-0.313c-0.134-0.179-0.358-0.225-0.672-0.225c-0.313,0-0.313,0.045-0.628-0.224    c-0.313-0.269-0.985-0.269-1.21,0.224c-0.224,0.493,0.225,1.076,0.763,1.031c0.537-0.045,1.357,1.101,1.357,1.46    c0,0.358-0.224,1.03-0.94,0.806c-0.718-0.224-0.987-0.717-1.435-0.627c-0.448,0.09-0.493,0.448-0.135,1.166    c0.251,0.502,0.403,1.165,1.165,0.627c0.763-0.538,1.031-1.076,1.659-0.896c0.627,0.18,0.762,0.358,0.941,0.807    c0.179,0.448,0,0.762,0.941,0.583c0.941-0.18,2.375-0.269,2.914-0.673c0.537-0.403,1.061-2.15,1.074-2.6    c0.012-0.343,0.188-0.58,0.111-0.822c-0.076-0.243-0.197-0.319-0.4-0.266C16.572-20.43,15.9-21.077,16.49-21.139"/>
  <path style="fill:#ED1B2E;" d="M12.872-41.355c0-0.313-0.09-0.313-0.358-0.447c-0.27-0.136-0.27-0.135-0.403-0.314    c-0.135-0.18-0.358-0.224-0.673-0.224c-0.314,0-0.314,0.044-0.627-0.225c-0.313-0.269-0.986-0.27-1.21,0.225    c-0.225,0.493,0.224,1.076,0.762,1.03c0.537-0.045,0.807,0,0.807,0.358c0,0.358-0.225,1.031-0.941,0.808    c-0.717-0.225-0.985-0.717-1.434-0.628c-0.449,0.09-0.493,0.448-0.135,1.166c0.251,0.502,0.402,1.165,1.165,0.627    c0.762-0.538,1.031-1.076,1.658-0.896c0,0,0.753-0.389,0.45-0.752c-0.303-0.364-0.31-0.37,0.088-0.458    C12.561-41.206,12.872-41.042,12.872-41.355z"/>
  <polyline points="16.546,-43.424 16.546,-43.424 16.544,-43.424 16.546,-43.424   " style="fill:#ED1B2E;"/>
  <path style="fill:#ED1B2E;" d="M16.546-43.424c0.309,0.022,0.4-0.282,0.324-0.418c-0.248-0.445-2.609-0.204-2.609-0.204    c-0.674,0-1.077,0.627-0.896,1.076c0,0,0.402,0.358,0.852-0.045c0.447-0.404,0.035-0.846,0.664-0.667l0.182,0.03    c1.213,0.228,0.273,1.653,0.857,1.429c0.582-0.224,1.074,0.179,0.941,0.717c-0.135,0.538-1.166,1.704-1.748,1.749    c-0.582,0.045-1.166-0.18-1.256-0.403c-0.09-0.225-0.135-0.18,0.18-0.449c0.314-0.268,0.314-0.358,0.09-0.538    c-0.225-0.179-0.629,0.09-0.717,0.494c0,0-1.464,2.313-0.07,2.192l0.158-0.041c0.941-0.18,2.377-0.27,2.914-0.673    c0.539-0.402,1.062-2.15,1.076-2.599c0.01-0.345,0.185-0.581,0.111-0.824c-0.076-0.242-0.197-0.317-0.4-0.266    C16.626-42.715,15.957-43.363,16.546-43.424"/>
  <path style="fill:#ED1B2E;" d="M19.958-44.141c0,0-0.484-0.239-0.781-0.074c-0.207,0.114-0.869,0.621-0.461,1.066    c0.273,0.299,0.607,1.262,1.197,0.263C20.169-43.322,20.451-44.141,19.958-44.141z"/>
  <path style="fill:#ED1B2E;" d="M25.193-43.625c-0.459-0.198-0.633-0.536-1.035-0.356c-0.402,0.18-1.623,1.253-1.58,1.746    c0.029,0.308-0.262,0.775-0.262,0.775l-0.172,0.113c-0.189,0.124-0.387,0.328-0.613,0.685c-0.627,0.986-1.158,0.597-2.912,0.045    c-0.396-0.125-0.711,0.324-0.576,0.817c0.135,0.493,0.441,0.437,1.695,0.437c1.256,0,1.076,0.853-0.045,2.062    c-1.119,1.21-2.129-1.317-3.137-0.358c-0.643,0.612-0.135,1.075,0.492,1.703c0.629,0.627,1.256,0.448,1.346,0.134    c0.09-0.313,1.254-0.044,1.748-0.358c0.492-0.313,0.402-0.582,0.807-1.21c0.402-0.627,0.358-0.94,0.358-1.658    c0-0.358,0.348-0.673,0.848-0.925l0.148-0.103c0,0,0.764-0.255,0.967-0.621c0.205-0.367-0.01-0.741,0.25-1.044    c0.414-0.479,0.553-1.255,1.092-0.985c0,0,0.162,0.072,0.406-0.152C25.261-43.105,25.593-43.452,25.193-43.625z"/>
  <path style="fill:#ED1B2E;" d="M32.025-44.438l-0.06,0.097c-0.127,0.229-0.233,0.456-0.324,0.639    c-0.312,0.628-1.049-0.012-1.48-0.179c-0.166-0.064-0.402,0.045-0.402,0.045c-0.807-0.269-0.851,0.583-0.941,0.941    c-0.09,0.358-0.672,0.403-1.299,0.313c-0.473-0.067-0.225,0.209-0.225,0.792s-0.133,0.986,0.404,0.762    c0.537-0.224,0.807-0.448,0.672-0.045c-0.135,0.404-0.27,0.271-0.404,0.583c-0.135,0.313-0.358,0.674,0.404,0.718    c0.762,0.044,1.209,0.493,0.807,0.986c-0.404,0.492-1.613,0.896-1.658,1.568c-0.045,0.672,0.135,1.524-0.359,1.345    c-0.492-0.18-0.535-0.19-0.76-0.53c-0.234-0.357-0.357-0.524,0-0.794c0.359-0.269,0.244-0.147,0.608-0.468    c1.533-1.347-0.387-2.483-0.699-2.617c-0.315-0.135-0.627-0.566-0.807-0.88c-0.18-0.314,0.539-0.672,0.852-1.255    c0,0,0.016,0.103,0.139-0.366c0.121-0.47,0.229-0.542,0.4-0.74c0.342-0.396,0.762-0.538,1.254-0.538    c0.457,0,0.645-0.115,0.955-0.275l0.076-0.102"/>
  <path style="fill:#ED1B2E;" d="M35.244-37.527c-0.449,0.312-0.404,1.479,0.312,0.717l0.045-0.115    C35.646-37.328,35.691-37.841,35.244-37.527z"/>
  <path style="fill:#ED1B2E;" d="M26.107-37.916l0.092-0.082c0.225-0.337,0.502-0.771-0.041-0.7    C25.615-38.626,25.119-37.57,26.107-37.916z"/>
  <path style="fill:#ED1B2E;" d="M28.609-28.169c-0.27-0.538-1.279,0.046-1.031,0.492C27.802-27.272,28.876-27.631,28.609-28.169z"/>
  <path style="fill:#ED1B2E;" d="M37.767-34.931c-0.561-1.056-1.244-1.341-1.717-0.929c-0.475,0.411-0.619,0.717-0.189,0.938    c0.43,0.22,0.455,0.318,0.803,0.787l0.088,0.102c0.172,0.265,0.119-0.391,0.396-0.276C37.425-34.194,38.33-33.874,37.767-34.931z"/>
  <path style="fill:#ED1B2E;" d="M37.882-32.986c-0.762,0.18-0.627,0.847-0.627,1.659c0,0.403,1.299-0.046,1.973-0.941    C39.898-33.166,38.644-33.165,37.882-32.986z"/>
  <path style="fill:#ED1B2E;" d="M34.57-28.423c0.449-0.358,0.537-0.582,0.986-0.582c0.449,0,0.582,0.09,1.164-0.09    c0.582-0.179,0.627-1.39-0.312-1.39c-0.941,0-2.268,1.303-2.779,1.928C33.226-28.065,34.121-28.065,34.57-28.423z"/>
  <path style="fill:#ED1B2E;" d="M29.244-25.96c-0.045-0.493-0.274-0.858-1.035-0.32s-0.299,1.036,0.06,1.003    C28.761-25.322,29.291-25.467,29.244-25.96z"/>
  <path style="fill:#ED1B2E;" d="M25.375-28.044c-0.27-0.27-0.986,0.403-1.389,1.479c-0.168,0.446,1.119,0.493,1.389-0.045    C25.644-27.147,25.642-27.774,25.375-28.044z"/>
  <path style="fill:#ED1B2E;" d="M41.085-32.335c-0.447,0.314-0.447,0.986-0.447,1.435c0,0.448-0.449,0.852-1.211,1.39    c-0.762,0.537-1.658,1.883-1.434,2.106c0.225,0.224,0.672,0.044,1.076-0.269c0.402-0.314,1.031-0.672,1.703-0.762    c0.672-0.09,0.537-0.403,0.537-0.897c0-0.492-0.045-0.583,0.18-0.986c0.225-0.403,0.537-0.896,0.896-0.896    c0.357,0,0.492-0.224,0.537-0.492c0.045-0.27-0.088-0.314-0.582-0.314c-0.494,0-0.307-0.081-0.539-0.358    C41.58-32.648,41.535-32.648,41.085-32.335z"/>
  <path style="fill:#ED1B2E;" d="M37.033-27.795c0.314-0.27-0.064-0.697-0.449-0.313C36.314-27.84,36.718-27.526,37.033-27.795z"/>
  <path style="fill:#ED1B2E;" d="M40.921-41.745c-0.269,0.268,0.135,0.582,0.447,0.313C41.683-41.701,41.304-42.129,40.921-41.745z"/>
  <path style="fill:#ED1B2E;" d="M34.205-33.712c-0.315,0.224-1.436,2.331-2.42,2.868c-0.986,0.537-1.973,0.717-2.197,0.358    c-0.223-0.358-0.27-1.075-0.627-1.075c-0.359,0-0.404,0.448-0.584,0.763c-0.178,0.312-0.225,0.717-0.807,0.671    c-0.582-0.045-1.029-0.044-1.344,0.494c-0.315,0.537-0.402,1.702,0.447,1.075c0.854-0.628,2.062-1.839,2.645-1.256    c0.584,0.583,0.762,1.569,1.031,1.569c0.27,0,0.717-0.717,1.121-1.165c0.402-0.448,0.449-0.448,0.896-0.404    c0.447,0.045,0.807-0.089,0.807-0.626c0-0.404,0.672-1.032,1.344-1.434c0.672-0.403,0.941-0.583,0.807-1.076    C35.189-33.443,34.519-33.936,34.205-33.712z"/>
  <path style="fill:#ED1B2E;" d="M38.042-24.81c0.359-0.403,0.404-0.494,0.941-0.449c0.537,0.046,0.672,0.136,1.211-0.134    c0.537-0.269,0.492-0.313,0.986-0.269c0.492,0.045,0.672,0.18,1.074-0.358c0.404-0.537,0.449-0.358,0.807-0.044    c0.359,0.313,0.672,0.267,0.719,0.044c0.043-0.224-0.404-0.806-0.584-0.985c-0.178-0.18-0.449-0.358,0.314-0.762    c0,0-0.395-1.11-1.076-0.358c-1.006,1.109-1.031,1.612-1.299,1.658c-0.27,0.045-0.494-0.089-0.717,0.179    c-0.225,0.269-0.092,0.18-0.809,0.045c-0.717-0.135-1.479-0.09-2.105,0.403c-0.629,0.493-0.941,0.538-1.166,0.135    c-0.225-0.403-0.358-0.941-1.074-0.314c-0.719,0.628-0.988,0.718-1.391,0.314c-0.402-0.403-1.076-2.151-1.838-2.017    c-0.762,0.134-0.582,0.225-0.582,0.538c0,1.047,0.539,0.762,1.164,0.762c0.629,0,1.211,1.882,0.584,2.42l-0.033,0.017    c-0.576,0.728,0.436,0.655,0.436,0.655c0.852,0.135,0.852,0.225,0.986,0.358c0.135,0.135,0.494,0.225,0.762-0.492    c0.27-0.718,0.314-1.165,1.121-1.12C37.281-24.542,37.685-24.408,38.042-24.81z"/>
  <path style="fill:#ED1B2E;" d="M30.773-37.139c-0.267,0.269-1.267-0.154-1.49-0.108c-0.225,0.045-0.719,0.448-0.539,0.717    c0.18,0.27,0.629,0.628,1.256,0.045c0,0,0.432-0.222,0.244,0.632c-0.065,0.303,0.834-0.002,1.455-0.485    c0.996-0.772,1.092,2.449,0.061,1.71c-0.506-0.364-1.434,0.762-1.926,0.314c-0.494-0.449-0.674-0.674-0.943-0.404    c-0.267,0.27-0.537,0.313-1.074,0.358c-0.539,0.046-1.748,0.225-2.062,0.628c-0.312,0.402-1.254,0.583-1.254,0.851    c0,0.27,0.492,0.537,0.672,0.672s0.314,0.403,0.135,0.717c-0.18,0.315-0.449,1.21-1.166,1.076    c-0.717-0.135-0.447-0.045-0.807,0.135c0,0-0.365,0.13-0.289,0.321c0.078,0.19,0.609,0.97,0.572,1.198    c-0.039,0.229,1.197,0.152,1.312-0.075c0.115-0.228-0.17-0.533-0.133-0.724c0.037-0.191,0.76-0.399,0.914-0.856    c0.324-0.981,0.672-2.6,1.344-2.42c0.672,0.18,1.434,0.313,1.973,0c0.537-0.313,0.492-0.538,1.029-0.448    c0.537,0.09,1.703-0.09,2.197-0.359c0.492-0.269,0.717-0.403,0.762-0.762c0.045-0.358,0.762-0.717,0.717-1.479    c-0.045-0.763-0.404-1.659-1.211-1.659C31.714-37.543,31.042-37.407,30.773-37.139z"/>
  <path style="fill:#ED1B2E;" d="M7.144-36.861c-0.224,0.044-0.717,0.447-0.538,0.717c0.18,0.269,0.628,0.627,1.256,0.044    c0,0,3.264-1.307,1.972-1.882c-0.737-0.328-1.478,0.135-1.748,0.403C7.817-37.311,7.369-36.907,7.144-36.861z"/>
  <path style="fill:#ED1B2E;" d="M44.437-34.883c-0.053,0.031-0.123,0.044-0.213,0.032l-0.018,0.015    c-0.121-0.084-0.279-0.212-0.414-0.312c-0.537-0.403-0.582,0.18-0.762,0.717c-0.18,0.538-0.414,0.543-0.717,0.449    c-0.717-0.225-1.211,0.492-1.031,0.806c0.18,0.313,1.344-0.089,1.928-0.403c0.311-0.167,0.646-0.258,0.965-0.256l0.049,0.017    c0.047,0.031,0.117,0.059,0.213,0.04"/>
  <path style="fill:#ED1B2E;" d="M24.494-35.585c0.537,0,0.807-0.358,0.627-0.896c-0.18-0.537-1.068-1.362-0.934-1.587    c0.135-0.224,1.262-1.012,0.799-1.568c-0.601-0.726-2.076-0.401-1.5,0.463c0.18,0.269-0.188,1.438-0.234,1.573    c-0.045,0.135,0.793,0.492,1.017,0.627c0.225,0.134,0.358,0.313,0.135,0.492c-0.225,0.18-0.582,0.27-0.852,0.225    c-0.27-0.045-0.584-0.225-0.762,0.224c-0.18,0.448-0.012,1.182-0.529,1.114l-0.027,0.009c-0.119-0.084-0.279-0.212-0.412-0.312    c-0.539-0.403-0.584,0.18-0.764,0.718c-0.178,0.538-0.414,0.543-0.717,0.448c-0.717-0.225-1.211,0.492-1.031,0.806    c0.18,0.314,1.346-0.089,1.928-0.402c0.31-0.168,0.648-0.258,0.965-0.257l0.059,0.022c0.115,0.076,0.361,0.13,0.799-0.442    C23.642-35.092,23.955-35.585,24.494-35.585z"/>
  <path style="fill:#ED1B2E;" d="M44.437-24.271l-0.215-0.014c-0.492-0.091-1.434,0.358-1.703,0.807    c-0.268,0.448-0.627,0.179-0.986-0.09c0,0-2.191-0.729-3.162-0.388c-1.898,0.669,0.861,2.991,0.848,2.183    c-0.029-2.117,2.752-0.925,3.297-0.804c0.545,0.122,0.856-0.408,0.856-0.408c0.295-0.404,0.348-0.478,0.918-0.417l0.148,0.011"/>
  <path style="fill:#ED1B2E;" d="M25.542-24.759c-0.311-0.525-2.412-0.535-2.758,0.222c-0.137,0.29,0.051,0.506,0.008,0.952    c-0.043,0.445,0.611,1.141,0.91,0.854c0.297-0.288,0.658-2.03,1.947-1.432c0.48,0.223,1.252,1.537,1.771,1.272    c0.521-0.266,0.994-0.04,1.334,0.172c0.342,0.213,1.504-0.36,1.955-0.363c0,0,0.566,0.204,0.539-0.06    c-0.027-0.264-0.66-1.464-0.213-1.42c0.447,0.043,0.908,0.321,0.678-0.174c-0.203-0.434-0.133-0.509-0.578-0.551    c0,0-0.168-0.151-0.736,0.154c-0.568,0.306-2.289,1.633-2.611,1.241c-0.324-0.392-0.596-0.867-1.025-0.594    C26.331-24.21,25.853-24.234,25.542-24.759z"/>
  <path style="fill:#ED1B2E;" d="M23.416-31.593c0.27-0.044,0.447-0.806,0.27-1.254c-0.18-0.448-0.539-0.135-0.539-0.135    c-0.258-0.258-0.539,0.134-0.893,0.573l-0.014-0.009c-0.137,0.16-0.283,0.327-0.438,0.471c-0.584,0.538-0.588,0.734-0.191,0.892    c0.191,0.077,0.426,0.006,0.645-0.127l-0.002-0.02c0.277-0.176,0.525-0.442,0.623-0.615    C22.876-31.816,23.146-31.548,23.416-31.593z"/>
  <polyline points="38.923,-43.268 38.925,-43.268 38.923,-43.268 38.923,-43.268   " style="fill:#ED1B2E;"/>
  <path style="fill:#ED1B2E;" d="M38.923-43.268c0.523,0.027,0.986-0.018,1.076-0.218c0.109-0.246,0.186-0.558,0.4-0.775l0.008-0.13    c0.016-0.017,0.033-0.032,0.051-0.047"/>
  <path style="fill:#ED1B2E;" d="M38.923-43.268c-0.59,0.062,0.082,0.71,0.654,0.562c0.201-0.053,0.322,0.024,0.399,0.266    c0.076,0.242-0.328,0.558-0.111,0.823c0.316,0.386-0.619,0.948-0.627,0.269c-0.006-0.555-0.357-0.941-0.941-0.717    c-0.582,0.224,0.356-1.202-0.857-1.429l-0.182-0.03c-0.627-0.179-0.217,0.263-0.664,0.666c-0.447,0.403-0.852,0.044-0.852,0.044    c-0.18-0.447,0.223-1.075,0.896-1.075c0.531,0,0.811-0.056,0.971-0.367l0.035-0.13c0.008-0.017,0.016-0.033,0.021-0.051"/>
  <path style="fill:#ED1B2E;" d="M31.956-42.334c-0.223,0.494,0.225,1.077,0.762,1.032c0.539-0.046,0.809,0,0.809,0.358    c0,0.358-0.225,1.03-0.942,0.807c-0.717-0.225-0.986-0.717-1.435-0.628c-0.447,0.09-0.492,0.448-0.135,1.166    c0.252,0.502,0.404,1.165,1.166,0.627c0.762-0.538,1.031-1.076,1.658-0.896c0.627,0.18,0.764,0.357,0.941,0.807    c0.18,0.448,0.146,1.119,0.941,0.583c0.33-0.223,1.367-0.262,2.156,0.102c0.787,0.363,1.334-0.728,1.031-1.516    c-0.303-0.788-0.91-0.909-1.395-0.425c-0.484,0.485-0.971,0.485-1.434,0.181c-0.203-0.133-0.135-0.18,0.18-0.448    c0.312-0.27,0.312-0.359,0.088-0.538c-0.223-0.179-0.627,0.089-0.717,0.492c-0.09,0.404-0.402,0.674-0.717,0.449    c-0.314-0.225-1.076-0.762-0.539-0.896c0.539-0.135,0.852,0.044,0.852-0.27c0-0.312-0.088-0.312-0.357-0.447    c-0.27-0.135-0.27-0.135-0.404-0.315c-0.133-0.18-0.357-0.225-0.672-0.225c-0.312,0-0.312,0.045-0.627-0.224    C32.853-42.826,32.181-42.827,31.956-42.334z"/>
  <path style="fill:#ED1B2E;" d="M43.05-43.641c0,0-0.484-0.239-0.781-0.074c-0.207,0.114-0.869,0.621-0.461,1.066    c0.273,0.299,0.607,1.262,1.197,0.263C43.261-42.822,43.542-43.641,43.05-43.641z"/>
  <path style="fill:#ED1B2E;" d="M5.545-34.338c-0.537,0.045-1.747,0.225-2.061,0.628c-0.314,0.403-1.255,0.583-1.255,0.852    c0,0.269,0.493,0.538,0.672,0.672c0.18,0.135,0.314,0.403,0.135,0.718c-0.179,0.313-0.448,1.209-1.165,1.075    c-0.717-0.134-0.449-0.046-0.807,0.134c0,0-0.364,0.132-0.288,0.321c0.076,0.191,0.609,0.971,0.571,1.199    c-0.038,0.229,1.199,0.152,1.313-0.076c0.114-0.229-0.171-0.532-0.133-0.724c0.038-0.189,0.761-0.397,0.913-0.854    c0.327-0.981,0.672-2.6,1.345-2.421c0.672,0.18,1.434,0.313,1.972,0c0.538-0.312,0.493-0.537,1.03-0.447    c0.538,0.089,1.703-0.09,2.196-0.358c0.494-0.27,0.611-0.435,0.762-0.763c0.411-0.895,0.803-1.772-0.249-1.691    c-1.051,0.081-0.97,1.293-0.97,1.293l-0.036,0.175c-0.582,0.224-1.434,0.763-1.927,0.313c-0.493-0.448-0.673-0.672-0.941-0.403    C6.352-34.427,6.083-34.383,5.545-34.338z"/>
  <path style="fill:#ED1B2E;" d="M44.437-41.339c-0.051-0.045-0.104-0.092-0.141-0.099c-0.078-0.016-0.135,0.09-0.135,0.09    c-0.189,0.124-0.387,0.328-0.613,0.685c-0.627,0.986-1.158,0.597-2.914,0.045c-0.395-0.125-0.709,0.324-0.574,0.817    c0.133,0.493,0.439,0.437,1.695,0.437c1.254,0,1.076,0.853-0.045,2.062c-1.121,1.21-2.131-1.317-3.137-0.358    c-0.645,0.612-0.135,1.075,0.492,1.703c0.627,0.627,1.256,0.448,1.344,0.134c0.092-0.313-1.016,3.523,1.748-0.358    c0.34-0.476,0.404-0.582,0.807-1.21c0.404-0.627,0.359-0.94,0.359-1.658c0-0.358,0.348-0.673,0.846-0.925    c0,0,0.149-0.126,0.268-0.134"/>
  <path style="fill:#ED1B2E;" d="M44.437-32.216c-0.25,0.097-0.547,0.192-0.641,0.278c-0.582,0.538-0.588,0.734-0.193,0.893    c0.135,0.053,0.533,0.021,0.834-0.05"/>
  <path style="fill:#ED1B2E;" d="M44.437-12.543l-0.139-0.017c-0.119-0.083-0.277-0.212-0.412-0.312    c-0.537-0.403-0.582,0.18-0.762,0.718s-0.414,0.543-0.717,0.448c-0.717-0.225-1.211,0.493-1.031,0.807    c0.18,0.314,1.346-0.09,1.928-0.404c0.311-0.167,0.646-0.257,0.965-0.256l0.168,0.037"/>
  <path style="fill:#ED1B2E;" d="M0-17.663l0.162-0.076c0,0,0.764-0.255,0.968-0.622c0.204-0.366-0.01-0.741,0.25-1.043    c0.414-0.48,1.12-1.256,1.658-0.986c0,0,0.162,0.072,0.407-0.152c0.244-0.224,0.576-0.57,0.176-0.743    c-0.46-0.199-1.2-0.537-1.603-0.358c-0.403,0.18-1.623,1.253-1.579,1.746c0.028,0.308-0.262,0.774-0.262,0.774L0-19.04"/>
  <path style="fill:#ED1B2E;" d="M3.895-0.818c0.357,0.183,0.852-0.358,1.344-0.045C5.732-0.549,6.63-1.222,6.824-1.715    c0.194-0.492,0.97-0.134,1.239,0.18C8.332-1.222,9.05-1.849,9.05-2.298c0-0.447-0.582-0.582-0.94-0.627    C7.75-2.97,7.347-2.79,6.988-2.298C6.63-1.805,6.45-2.073,6.047-2.387C5.644-2.7,5.33-2.252,4.971-1.894    c0,0-0.043-0.294-0.377-0.378C4.261-2.355,3.071-1.239,3.895-0.818z"/>
  <path style="fill:#ED1B2E;" d="M0-1.12l0.141,0.013c0.093,0.012,0.199,0.026,0.318,0.043c0.985,0.134,0.826-0.585,1.3-0.538    c0,0,1.283-0.484,0.933-0.645C2.513-2.33,2.341-2.409,2.207-2.499C1.669-2.857,1.49-2.723,1.49-2.723    c-0.448,0-0.314,0.134-0.628,0.492C0.589-1.918,0.516-1.923,0.17-1.985L0-2"/>
  <path style="fill:#ED1B2E;" d="M0-8.793l0.14-0.071C0.417-9.04,0.665-9.308,0.764-9.481c0,0,0.268,0.27,0.538,0.225    c0.269-0.046,0.448-0.807,0.269-1.255c-0.179-0.448-0.538-0.135-0.538-0.135c-0.258-0.258-0.539,0.134-0.893,0.573L0-9.963"/>
  <path style="fill:#ED1B2E;" d="M0-33.776c0.138-0.017,0.335-0.133,0.604-0.485c0.582-0.762,0.896-1.255,1.434-1.255    s0.807-0.357,0.627-0.896c-0.179-0.538-1.067-1.361-0.933-1.586c0.134-0.225,1.262-1.013,0.799-1.569    c-0.603-0.725-2.076-0.401-1.5,0.463c0.179,0.269-0.188,1.439-0.233,1.574c-0.045,0.134,0.792,0.491,1.016,0.625    c0.224,0.135,0.359,0.314,0.135,0.493c-0.224,0.179-0.582,0.27-0.851,0.225c-0.269-0.046-0.583-0.225-0.762,0.224    C0.183-35.585,0.28-35.002,0-34.872"/>
  <path style="fill:#ED1B2E;" d="M0-23.394l0.141,0.01c0.093,0.012,0.199,0.026,0.318,0.043c0.252,0.034,0.275-0.128,0.4-0.3    c0,0,0.188-0.578-0.016-0.703c-0.187-0.115-0.188-0.062-0.188-0.062c-0.273,0.312-0.14,0.208-0.486,0.146L0-24.272"/>
  <path style="fill:#ED1B2E;" d="M2.262-22.852c0.44-0.096,1.146,0.335,1.432,0.054c0.285-0.28,0.698-0.604,1.265-0.458    c0.565,0.146,1.75-0.946,1.783-1.475c0.033-0.529-0.009-1.331,0.344-1.116c0.353,0.216,0.842-0.602,0.703-1.029    c-0.139-0.426-0.734-0.375-1.089-0.307c-0.355,0.068-0.333,1.443-0.522,2.022c-0.188,0.58-0.442,0.379-0.923,0.206    c-0.48-0.174-0.641,0.349-0.871,0.801c-0.231,0.452-1.337,0.431-1.973,0.31c-0.275-0.052-0.501,0.14-0.514,0.506    C1.885-22.972,2.262-22.852,2.262-22.852z"/>
  <path style="fill:#ED1B2E;" d="M0-40.106c0.043-0.007,0.084-0.002,0.115,0.028C0.224-39.969,0.146-39.922,0.336-40    c0,0,0.764-0.255,0.968-0.622c0.204-0.366-0.01-0.74,0.25-1.043c0.414-0.479,0.553-1.255,1.091-0.986c0,0,0.162,0.073,0.407-0.151    c0.244-0.225,0.576-0.57,0.176-0.744c-0.459-0.198-0.633-0.536-1.036-0.356c-0.403,0.18-1.623,1.252-1.579,1.746    c0.028,0.308-0.262,0.774-0.262,0.774s-0.096,0.117-0.174,0.133C0.131-41.24,0.064-41.302,0-41.356"/>
  <path style="fill:#ED1B2E;" d="M0-31.09c0.141-0.032,0.264-0.07,0.333-0.113l0.168-0.094c0.278-0.176,0.242-0.442,0.34-0.615    l0.538,0.224c0.269-0.045,0.448-0.807,0.269-1.255c-0.179-0.447-0.538-0.134-0.538-0.134c-0.258-0.258-0.256,0.133-0.609,0.572    l-0.117,0.097C0.328-32.342,0.173-32.274,0-32.209"/>
  <path style="fill:#ED1B2E;" d="M0-11.527l0.139,0.03c0.115,0.076,0.36,0.13,0.797-0.442c0.583-0.762,0.896-1.254,1.434-1.254    s0.807-0.358,0.628-0.896c-0.179-0.538-1.067-1.362-0.933-1.587c0.134-0.225,1.262-1.013,0.799-1.569    c-0.603-0.726-2.076-0.401-1.5,0.464c0.179,0.268-0.188,1.438-0.233,1.573c-0.045,0.135,0.793,0.491,1.016,0.626    c0.224,0.135,0.359,0.314,0.135,0.493c-0.224,0.179-0.583,0.269-0.852,0.224c-0.269-0.045-0.583-0.224-0.762,0.224    c-0.179,0.449-0.011,1.183-0.528,1.115L0-12.545"/>
  <path style="fill:#ED1B2E;" d="M7.035,0l0.056-0.065c0.358-0.18,0.627-0.333,1.254-0.468c0.628-0.135,1.883-0.672,2.511-1.21    c0.627-0.538,0.044-1.568-0.583-1.568c-0.628,0-1.165-0.449-1.165-0.762c0-0.313-0.18-0.404,0.582-0.538    c0.763-0.136,1.434,0.762,1.838,1.165c0.404,0.403,0.672,0.313,1.391-0.314c0.716-0.627,0.851-0.089,1.076,0.314    c0,0,0.533,0.477,0.392,0.837c-0.142,0.359-0.721,0.391-1.095,0.359c-0.375-0.031-1.202,0.609-0.78,0.719    c0.421,0.109,0.478,0.183,0.496,0.325c0.101,0.76-0.627,0.628-0.763,0.494c-0.134-0.136-0.134-0.225-0.985-0.359    c-0.6-0.095-1.022,0.457-1.328,1.009L9.907,0"/>
  <path style="fill:#ED1B2E;" d="M15.703-4.351c0.5,0.391,0.217,1.337,0.828,1.074c0.494-0.213,0.402-0.492,0.939-0.447    c0.539,0.045,0.674,0.134,1.211-0.135c0.537-0.269,0.492-0.315,0.986-0.269c0.492,0.045,0.672,0.179,1.076-0.358    c0.402-0.538,0.447-0.358,0.805-0.045c0.359,0.313,0.674,0.269,0.717,0.045c0.045-0.225-0.402-0.807-0.582-0.986    c-0.178-0.18-0.447-0.358,0.315-0.762c0,0,0.705-0.157,0.457-0.386c-0.248-0.229,0.477-0.532,0.172-0.686    c-0.283,0.014-1.023-0.039-1.705,0.712c-1.006,1.11-1.031,1.614-1.299,1.658c-0.27,0.045-0.494-0.088-0.717,0.18    c-0.225,0.269-0.09,0.18-0.809,0.045c0,0-0.582,0.109-0.66-0.203s-0.562-0.5-0.688-0.25s-0.375,0.25-0.547,0.203    C16.031-5.007,15.203-4.741,15.703-4.351z"/>
  <path style="fill:#ED1B2E;" d="M16.64-0.368c0,0,1.383-0.37,1.832-0.889c0.529-0.613,0.926-0.335,0.926-0.335    c0.764-0.044,1.594,1.048,2.184,0.892c0.557-0.148-0.463-1.446-0.225-1.335c0.188,0.088,1.111-1.068-0.223-0.892    c-0.238,0.031-0.121,0.916-0.121,0.916c-0.27,0.449-0.627-0.388-0.986-0.657c-0.359-0.269-1.268-0.056-1.896,0.123    c-0.627,0.18-0.424,1.11-0.822,0.815C15.974-2.719,15.302-0.591,16.64-0.368z"/>
  <path style="fill:#ED1B2E;" d="M22.927-1.443c0.733,0.619,0.717-1.318,1.191-1.271c0.447,0.046,1.27,1.523,1.629,1.345    c0.357-0.179,0.85-0.358,1.344-0.045c0.494,0.313,1.357-0.374,1.584-0.852c0.318-0.669-0.777-0.673-0.777-0.673    c-0.402-0.312-0.717,0.135-1.076,0.494c-0.357,0.358-1.149-0.218-1.686-0.576C24.597-3.38,24.15-4.174,24.15-4.174    c-2.396-0.078-0.756,1.367-1.068,1.726C23.081-2.448,22.302-1.969,22.927-1.443z"/>
  <path style="fill:#ED1B2E;" d="M29.177,0l0.066-0.089c0.357-0.18,0.625-0.333,1.254-0.468c0.627-0.134,1.883-0.671,2.51-1.209    c0.627-0.539,0.045-1.569-0.584-1.569c-0.627,0-1.164-0.448-1.164-0.763c0-0.312-0.18-0.403,0.582-0.537    c0.762-0.135,1.434,0.762,1.838,1.166c0.402,0.403,0.672,0.312,1.389-0.314c0.719-0.628,0.851-0.09,1.076,0.314    c0.225,0.403,0.469,0.253,1.166-0.135c0.238-0.134,0.488,0.179,0.426,0.741s-1.375,1.938-1.312,1.437s0.336-0.785-0.145-0.924    c-0.775-0.225-0.852,0.403-1.121,1.12c-0.268,0.717-0.627,0.627-0.762,0.493C34.261-0.87,34.261-0.96,33.41-1.094    c-0.6-0.096-1.021,0.455-1.328,1.008L32.027,0"/>
 </g>
</svg>
