<?xml version="1.0"?>
<!-- Converted with SVG Converter - Version 0.9.5 (Compiled Fri Feb 21 09:53:38 2020) - Copyright (C) 2011 Nokia -->
<svg xmlns="http://www.w3.org/2000/svg" version="1.1" xml:space="preserve" viewBox="1 -45.438 44.438 44.438" width="44.438" height="44.438" baseProfile="tiny" xmlns:xlink="http://www.w3.org/1999/xlink" x="0px" y="0px">
 <g>
  <rect style="fill:none;" width="44.438" height="44.438" x="1" y="-45.438"/>
  <path d="M5.05-21.17c-0.313,0.583-1.031,0.941-0.852,1.254c0.18,0.313,0.492,0.745,0.805,0.88    c0.314,0.134,2.234,1.271,0.702,2.618c-0.364,0.32-0.249,0.198-0.608,0.467c-0.358,0.269-0.235,0.438,0,0.795    c0.223,0.339,0.267,0.35,0.759,0.529c0.493,0.18,0.313-0.672,0.359-1.345c0.045-0.672,1.255-1.075,1.658-1.568    c0.403-0.493-0.045-0.942-0.807-0.986c-0.762-0.044-0.538-0.403-0.404-0.717c0.135-0.313,0.269-0.18,0.404-0.583    c0.134-0.404-0.135-0.179-0.672,0.045c-0.538,0.224-0.403-0.179-0.403-0.762c0-0.583,0.027-1.411,0.499-1.343    c0.628,0.09,1.107,0.001,1.3-0.313c0.309-0.503-0.395-0.362-0.465-0.484c-0.069-0.121,0.122-0.242,0.243-0.329    c0.121-0.086-0.087-0.329-0.45-0.353c-0.492-0.033-0.913,0.143-1.255,0.538c-0.171,0.197-0.277,0.271-0.4,0.74    C5.341-21.619,5.05-21.17,5.05-21.17z" style="fill:#00AEEF;"/>
  <path d="M14.256-15.519l0.045-0.114c0.045-0.403,0.089-0.916-0.359-0.602    C13.495-15.923,13.54-14.757,14.256-15.519z" style="fill:#00AEEF;"/>
  <path d="M4.806-16.625l0.092-0.081c0.226-0.337,0.502-0.771-0.041-0.7    C4.315-17.334,3.818-16.279,4.806-16.625z" style="fill:#00AEEF;"/>
  <path d="M6.009-6.318C6.233-5.915,7.309-6.273,7.04-6.811C6.772-7.349,5.761-6.765,6.009-6.318z" style="fill:#00AEEF;"/>
  <path d="M16.153-13.495l0.128,0.04c0.286,0.137,0.388,0.264,0.684,0.216    c0.297-0.047,0.613-0.605-0.417-1.212c-1.031-0.606-2.052-0.646-2.24-0.048c-0.189,0.599,0.268,0.789,0.749,0.753    C15.539-13.783,15.611-13.713,16.153-13.495z" style="fill:#00AEEF;"/>
  <path d="M16.582-12.262c-0.762,0.179-0.628,0.847-0.628,1.659c0,0.403,1.3-0.045,1.973-0.941    C18.599-12.441,17.344-12.441,16.582-12.262z" style="fill:#00AEEF;"/>
  <path d="M12.985-7.415c0.449-0.359,0.537-0.582,0.986-0.582c0.449,0,0.583,0.089,1.165-0.09    c0.583-0.179,0.628-1.39-0.313-1.39c-0.941,0-2.267,1.302-2.779,1.927C11.642-7.056,12.537-7.056,12.985-7.415z" style="fill:#00AEEF;"/>
  <path d="M7.084-4.312c0.493-0.045,1.613-0.672,1.568-1.165c-0.045-0.493-0.179-0.538-0.941,0    C6.95-4.938,6.727-4.279,7.084-4.312z" style="fill:#00AEEF;"/>
  <path d="M4.074-5.318c0.269-0.538,0.269-1.165,0-1.434C3.805-7.022,3.087-6.35,2.685-5.274    C2.518-4.828,3.805-4.78,4.074-5.318z" style="fill:#00AEEF;"/>
  <path d="M8.192-21.036c-0.493,0.493-0.244,0.464-0.065,0.642c0.327,0.327,0.181,0.072,0.888,0.187    c0.489,0.079,0.795-0.374,0.611-0.561C9.135-21.266,8.685-21.529,8.192-21.036z" style="fill:#00AEEF;"/>
  <path d="M15.873-6.849c0.224,0.224,0.672,0.045,1.076-0.269c0.403-0.314,1.031-0.672,1.703-0.762    c0.673-0.09,0.538-0.403,0.538-0.896c0-0.493-0.044-0.583,0.18-0.986c0.224-0.403,0.538-0.896,0.896-0.896    c0.358,0,0.493-0.224,0.538-0.493c0.045-0.269-0.089-0.313-0.583-0.313c-0.493,0-0.307-0.081-0.538-0.358    c-0.224-0.269-0.269-0.269-0.717,0.045c-0.448,0.314-0.448,0.985-0.448,1.434c0,0.449-0.448,0.851-1.21,1.389    C16.545-8.418,15.648-7.073,15.873-6.849z" style="fill:#00AEEF;"/>
  <path d="M14.232-5.92c0.314-0.269-0.065-0.697-0.449-0.313C13.515-5.965,13.918-5.651,14.232-5.92z" style="fill:#00AEEF;"/>
  <path d="M19.621-20.454c-0.269,0.269,0.135,0.583,0.449,0.313C20.383-20.41,20.004-20.837,19.621-20.454z" style="fill:#00AEEF;"/>
  <path d="M10.169-8.118c0.404-0.448,0.449-0.449,0.896-0.404c0.448,0.045,0.807-0.089,0.807-0.627    c0-0.403,0.673-1.032,1.345-1.435c0.672-0.403,0.941-0.582,0.807-1.076c-0.134-0.493-0.806-0.986-1.12-0.762    s-1.434,2.331-2.42,2.869C9.498-9.015,8.511-8.835,8.287-9.193c-0.224-0.358-0.268-1.076-0.627-1.076    c-0.358,0-0.403,0.449-0.583,0.762C6.898-9.193,6.852-8.79,6.27-8.835C5.688-8.88,5.239-8.879,4.925-8.342    C4.612-7.804,4.523-6.639,5.374-7.266c0.852-0.628,2.062-1.838,2.645-1.255c0.582,0.583,0.761,1.569,1.03,1.569    C9.318-6.953,9.766-7.67,10.169-8.118z" style="fill:#00AEEF;"/>
  <path d="M21.75-22.349c0,0-0.484-0.239-0.782-0.074c-0.207,0.114-0.868,0.621-0.461,1.066    c0.274,0.299,0.608,1.262,1.197,0.263C21.962-21.531,22.242-22.349,21.75-22.349z" style="fill:#00AEEF;"/>
  <path d="M18.09-14.705c0.628,0.628,1.254,0.449,1.344,0.135c0.09-0.314,1.255-0.044,1.748-0.358    c0.493-0.314,0.403-0.583,0.807-1.21c0.403-0.627,0.358-0.941,0.358-1.658c0-0.358,0.348-0.672,0.846-0.925h0.008    c0,0,0.764-0.255,0.969-0.622c0.204-0.367-0.011-0.741,0.25-1.043c0.414-0.48,1.146-1.255,1.684-0.986    c0,0,0.162,0.072,0.406-0.152c0.245-0.224,0.577-0.57,0.176-0.744c-0.46-0.199-2.051-0.537-2.454-0.357    c-0.403,0.18-0.798,1.253-0.753,1.746c0.028,0.308-0.262,0.774-0.262,0.774l-0.031,0.01c-0.189,0.124-0.387,0.328-0.613,0.684    c-0.627,0.986-1.159,0.597-2.914,0.045c-0.396-0.125-0.71,0.324-0.575,0.817c0.134,0.493,0.441,0.437,1.695,0.437    c1.255,0,1.076,0.851-0.044,2.062c-1.121,1.21-2.13-1.317-3.137-0.359C16.954-15.796,17.462-15.333,18.09-14.705z" style="fill:#00AEEF;"/>
  <path d="M45.438-18.673l-0.078,0.037c-0.499,0.252-0.847,0.566-0.847,0.925c0,0.717,0.045,1.03-0.358,1.658    c-0.403,0.628-0.313,0.896-0.807,1.21c-0.493,0.314-1.658,0.045-1.747,0.358c-0.09,0.314-0.717,0.493-1.345-0.134    c-0.628-0.628-1.136-1.091-0.493-1.704c1.007-0.958,2.017,1.569,3.138,0.359c1.121-1.21,1.299-2.062,0.044-2.062    c-1.255,0-1.561,0.056-1.696-0.437c-0.134-0.493,0.18-0.942,0.576-0.817c1.755,0.552,2.286,0.941,2.913-0.045    c0.227-0.357,0.424-0.561,0.613-0.685l0.086-0.041" style="fill:#00AEEF;"/>
  <path d="M26.493-19.318c0.18,0.313,0.492,0.745,0.805,0.879c0.314,0.134,2.234,1.271,0.702,2.618    c-0.364,0.32-0.249,0.199-0.608,0.468c-0.358,0.269-0.235,0.437,0,0.794c0.223,0.339,0.267,0.35,0.759,0.53    c0.493,0.179,0.313-0.673,0.359-1.345c0.045-0.672,1.255-1.076,1.658-1.569c0.403-0.493-0.045-0.941-0.807-0.986    c-0.762-0.045-0.538-0.404-0.404-0.717c0.135-0.313,0.269-0.179,0.404-0.583c0.134-0.403-0.135-0.179-0.672,0.045    c-0.538,0.224-0.403-0.179-0.403-0.762s-0.247-0.86,0.224-0.792c0.627,0.09,1.76-0.505,1.85-0.864    c0.09-0.358,0.305-0.666,1.111-0.397c0,0,0.237-0.109,0.403-0.045c0.43,0.167,0.681,0.561,0.995-0.066l0.298-0.043    c0.212-0.424,0.268-0.482-0.217-0.376c-0.485,0.106-0.667-0.121-0.849-0.318c-0.182-0.197-0.758-0.091-1.122,0.061    c-0.364,0.151-1.292,0.019-1.292,0.019c-0.493,0-1.463,0.693-1.806,1.088c-0.171,0.198-0.277,0.271-0.399,0.74    c-0.123,0.469-0.138,0.367-0.138,0.367C27.031-19.99,26.314-19.632,26.493-19.318z" style="fill:#00AEEF;"/>
  <path d="M29.917-4.298c0.173,0,1.159-0.793,1.159-0.966c0-0.173-1.068-0.365-1.241-0.365    c-0.173,0-0.884,0.346-0.884,0.519C28.951-4.937,29.744-4.298,29.917-4.298z" style="fill:#00AEEF;"/>
  <path d="M29.281-7.234c0.615,1.026,1.45,0.594,0.825-0.394C29.848-8.035,29.071-7.584,29.281-7.234z" style="fill:#00AEEF;"/>
  <path d="M30.333-19.945c0.224,0.404,1.299,0.045,1.031-0.493C31.095-20.976,30.084-20.391,30.333-19.945z" style="fill:#00AEEF;"/>
  <path d="M38.207-13.633c0.269-1.166,0-2.151-0.628-2.151c-0.627,0-0.672,0.493-0.493,0.941    c0.18,0.448,0.134,0.538,0.09,1.121v0.134c-0.044,0.313-0.135,0.448,0,0.717C37.311-12.602,37.938-12.468,38.207-13.633z" style="fill:#00AEEF;"/>
  <path d="M38.254-10.036c0,0.403,1.3-0.045,1.973-0.941c0.672-0.896-0.583-0.896-1.345-0.717    C38.12-11.516,38.254-10.848,38.254-10.036z" style="fill:#00AEEF;"/>
  <path d="M35.569-7.131c0.449-0.359,0.538-0.582,0.986-0.582c0.449,0,0.583,0.089,1.165-0.09    c0.583-0.179,0.627-1.39-0.313-1.39s-2.268,1.302-2.779,1.927C34.226-6.773,35.121-6.773,35.569-7.131z" style="fill:#00AEEF;"/>
  <path d="M30.967-2.371c0.493-0.045,1.613-0.672,1.568-1.165c-0.045-0.493-0.179-0.538-0.941,0    C30.833-2.998,30.609-2.338,30.967-2.371z" style="fill:#00AEEF;"/>
  <path d="M27.024-5.031c0.543-0.26,0.927-0.756,0.879-1.133C27.856-6.541,26.878-6.45,25.9-5.847    C25.495-5.597,26.482-4.771,27.024-5.031z" style="fill:#00AEEF;"/>
  <path d="M38.672-5.882c0.224,0.224,0.672,0.045,1.076-0.269c0.403-0.314,1.031-0.672,1.703-0.762    c0.673-0.09,0.538-0.403,0.538-0.896c0-0.493-0.044-0.583,0.18-0.986c0.224-0.403,0.538-0.897,0.896-0.897    c0.358,0,0.493-0.224,0.538-0.493c0.045-0.269-0.089-0.313-0.583-0.313c-0.493,0-0.307-0.081-0.538-0.358    c-0.224-0.269-0.269-0.269-0.717,0.045c-0.448,0.314-0.448,0.985-0.448,1.434c0,0.449-0.448,0.852-1.21,1.389    C39.345-7.451,38.448-6.106,38.672-5.882z" style="fill:#00AEEF;"/>
  <path d="M38.033-6.503c0.314-0.269-0.065-0.697-0.449-0.313C37.315-6.548,37.719-6.234,38.033-6.503z" style="fill:#00AEEF;"/>
  <path d="M42.37-20.141c0.314-0.269-0.065-0.697-0.449-0.313C41.652-20.185,42.056-19.872,42.37-20.141z" style="fill:#00AEEF;"/>
  <path d="M32.47-8.118c0.404-0.448,0.449-0.449,0.896-0.404c0.448,0.045,0.807-0.089,0.807-0.627    c0-0.403,0.673-1.032,1.345-1.435c0.672-0.403,0.941-0.582,0.807-1.076c-0.134-0.493-0.806-0.986-1.12-0.762    c-0.314,0.224-1.434,2.331-2.42,2.869c-0.986,0.537-1.972,0.717-2.196,0.358c-0.224-0.358-0.269-1.076-0.627-1.076    c-0.358,0-0.403,0.449-0.583,0.762c-0.179,0.313-0.225,0.717-0.807,0.672c-0.582-0.045-1.031-0.044-1.345,0.493    c-0.313,0.538-0.403,1.703,0.449,1.076c0.852-0.628,2.062-1.838,2.645-1.255c0.583,0.583,0.761,1.569,1.03,1.569    C31.618-6.953,32.066-7.67,32.47-8.118z" style="fill:#00AEEF;"/>
  <path d="M40.146-3.659c0.538,0.045,0.672,0.135,1.21-0.134c0.538-0.269,0.493-0.314,0.986-0.269    c0.493,0.045,0.672,0.179,1.076-0.358c0.403-0.538,0.448-0.358,0.807-0.045c0.358,0.313,0.672,0.268,0.717,0.045    c0.045-0.224-0.403-0.806-0.583-0.986c-0.179-0.18-0.448-0.358,0.314-0.762c0,0,0.51,0.074,0.601-0.427    c0.091-0.5-0.287-1.379-0.788-0.94c-0.5,0.44-0.889,1.008-0.889,1.008c-1.006,1.11-1.03,1.613-1.299,1.658    c-0.269,0.045-0.418,0.36-0.717,0.18c-1.452-0.877-1.548-0.061-1.798,0.439S40.146-3.659,40.146-3.659z" style="fill:#00AEEF;"/>
  <path d="M24.063-8.677c0.076,0.19,0.608,0.97,0.571,1.199c-0.038,0.228,1.199,0.152,1.313-0.076    c0.114-0.228-0.171-0.533-0.133-0.723c0.038-0.191,0.761-0.398,0.913-0.856c0.327-0.981,0.673-2.6,1.345-2.42    c0.672,0.18,1.434,0.313,1.972,0c0.538-0.314,0.494-0.538,1.031-0.448c0.538,0.089,1.703-0.09,2.196-0.359    c0.493-0.269,0.716-0.403,0.761-0.762c0.045-0.358,0.699-0.715,0.717-1.479c0.011-0.475,0.07-0.657,1.121-0.414    c1.051,0.243-1.132-2.021-1.375-1.536c-0.242,0.485-0.242,0.97-0.727,0.485c-0.485-0.485-0.323-0.809-0.728-0.728    c-0.404,0.081-1.249,0.938-1.249,0.938c-0.269,0.269-0.717,0.672-0.941,0.717c-0.224,0.045-0.718,0.448-0.538,0.717    c0.18,0.269,0.628,0.628,1.255,0.045c0.627-0.582,1.21-0.582,1.523-0.269c0.314,0.314,0.269,1.076-0.313,1.3    c-0.583,0.224-1.434,0.762-1.927,0.314c-0.493-0.449-0.673-0.673-0.941-0.404c-0.269,0.269-0.538,0.313-1.076,0.359    c-0.538,0.045-1.748,0.224-2.062,0.628c-0.313,0.403-1.254,0.582-1.254,0.851c0,0.269,0.493,0.538,0.672,0.672    c0.18,0.135,0.314,0.403,0.135,0.717c-0.179,0.314-0.448,1.21-1.165,1.076c-0.717-0.134-0.449-0.045-0.807,0.134    C24.351-8.998,23.987-8.868,24.063-8.677z" style="fill:#00AEEF;"/>
  <path d="M7.468-11.996c0.162,0.889,1.656,0.103,1.656,0.103c0.538,0.089,1.703-0.089,2.196-0.358    c0.493-0.269,0.716-0.404,0.762-0.762c0.045-0.358,0.761-0.717,0.717-1.479c-0.044-0.762-0.403-1.659-1.21-1.659    c-0.807,0-1.479,0.134-1.748,0.403c-0.269,0.269-0.717,0.672-0.941,0.717c-0.224,0.045-0.717,0.448-0.538,0.717    c0.18,0.269,0.627,0.628,1.255,0.045c0.627-0.582,1.21-0.582,1.523-0.269c0.314,0.313,0.269,1.075-0.314,1.299    c-0.582,0.224-1.34,0.63-1.927,0.314C8.231-13.284,7.306-12.885,7.468-11.996z" style="fill:#00AEEF;"/>
  <path d="M4.352-9.076c0.327-0.981,0.673-2.6,1.345-2.42c0,0,0.376-0.471,0.134-0.794    c-0.243-0.323,1.013-0.165,0.627-0.729c-0.304-0.445-1.748,0.225-2.062,0.628c-0.314,0.403-1.255,0.582-1.255,0.852    c0,0.269,0.493,0.537,0.672,0.672c0.18,0.135,0.314,0.403,0.135,0.717C3.77-9.837,3.5-8.941,2.784-9.076    C2.066-9.21,2.335-9.121,1.977-8.941c0,0-0.364,0.131-0.288,0.321c0.076,0.19,0.609,0.97,0.571,1.199    C2.221-7.193,3.458-7.269,3.572-7.497C3.687-7.725,3.401-8.03,3.439-8.22C3.477-8.411,4.2-8.618,4.352-9.076z" style="fill:#00AEEF;"/>
  <path d="M20.311-11.959c0.18,0.313,1.345-0.089,1.927-0.403c0.31-0.168,0.647-0.258,0.965-0.256    l0.058,0.023c0.116,0.076,0.36,0.129,0.797-0.442c0.583-0.762,0.896-1.255,1.434-1.255c0.538,0,0.807-0.358,0.627-0.896    c-0.179-0.538-1.067-1.362-0.934-1.587c0.134-0.224,1.262-1.013,0.799-1.569c-0.603-0.725-2.077-0.401-1.5,0.463    c0.179,0.268-0.189,1.439-0.234,1.574c-0.045,0.134,0.793,0.492,1.017,0.626c0.224,0.135,0.358,0.314,0.134,0.493    c-0.224,0.179-0.582,0.269-0.851,0.224c-0.269-0.045-0.583-0.224-0.762,0.224c-0.179,0.448-0.012,1.182-0.528,1.114l-0.028,0.008    c-0.12-0.083-0.279-0.211-0.413-0.312c-0.538-0.403-0.583,0.18-0.762,0.718c-0.179,0.538-0.414,0.542-0.717,0.448    C20.625-12.989,20.131-12.273,20.311-11.959z" style="fill:#00AEEF;"/>
  <path d="M38.661-1c0.032-0.072,0.059-0.156,0.081-0.253c0.135-0.582,0.449-0.896,0.941-0.852    c0.493,0.045,0.448,0.493,1.076,0.314c0.628-0.179,1.569-0.762,1.927-0.493c0.359,0.269,0.717,0.539,0.986,0.09    c0.25-0.417,1.08-0.835,1.593-0.818l0.172,0.015v0.88l-0.156-0.014c-0.423-0.028-0.494,0.068-0.757,0.431    c-0.358,0.493-1.703,0.448-2.465,0.493C41.784-1.193,41.583-1.121,41.445-1" style="fill:#00AEEF;"/>
  <path d="M45.438-10.979l-0.094,0.073c-0.137,0.16-0.327,0.257-0.483,0.401    c-0.583,0.538-0.587,0.734-0.192,0.892c0.193,0.077,0.427,0.005,0.645-0.127l0.124-0.064" style="fill:#00AEEF;"/>
  <path d="M21.61-9.263c0.192,0.077,0.427,0.005,0.645-0.127l0-0.02c0.277-0.176,0.525-0.443,0.623-0.616    c0,0,0.269,0.269,0.538,0.224c0.269-0.045,0.448-0.807,0.269-1.255c-0.179-0.448-0.538-0.134-0.538-0.134    c-0.258-0.258-0.539,0.133-0.893,0.573l-0.015-0.009c-0.137,0.16-0.282,0.327-0.438,0.471C21.219-9.617,21.215-9.421,21.61-9.263z    " style="fill:#00AEEF;"/>
  <path d="M36.736-17.215c0.941-0.18,2.375-0.27,2.913-0.673c0.538-0.403,1.062-2.151,1.076-2.599    c0.01-0.344,0.186-0.581,0.111-0.823c-0.076-0.243-1.893-0.422-2.096-0.369h-0.076c0-0.49-0.415-0.566-0.415-0.566    c-0.645,0.146-1.28-0.793-1.577-0.789c-0.673,0.01-1.076,0.628-0.896,1.076c0,0-0.124,0.247,0.401,0.543    c0.479,0.271,0.899,0.721,1.378,0.409l0.333-0.104c0.874,0.125,0.134,0.949,0.717,0.725c0.583-0.224,1.626-0.371,1.492,0.167    c-0.135,0.538-1.165,1.703-1.748,1.748c-0.583,0.045-1.106-0.167-1.322-0.275c-0.333-0.167-0.773-0.167-1.099-0.173    c-0.386-0.007-1.076-0.487-0.538-0.622c0.538-0.135,0.852,0.044,0.852-0.269c0-0.314-0.089-0.314-0.358-0.448    c-0.269-0.134-0.27-0.134-0.404-0.314c-0.134-0.179-0.358-0.225-0.672-0.225s-0.314,0.045-0.628-0.224    c-0.314-0.269-0.711-0.269-0.935,0.224c-0.224,0.493-0.051,0.801,0.487,0.756c0.538-0.045,0.807,0,0.807,0.358    s-0.224,1.031-0.941,0.807c-0.717-0.224-0.986-0.717-1.434-0.627c-0.448,0.089-0.493,0.448-0.134,1.165    c0.251,0.502,0.403,1.165,1.165,0.627s1.032-1.076,1.659-0.896c0.627,0.179,0.762,0.358,0.941,0.807    C35.974-17.35,35.795-17.036,36.736-17.215z" style="fill:#00AEEF;"/>
  <path d="M43.276-21.826c0.274,0.299,0.608,1.262,1.197,0.263c0.257-0.437,0.538-1.255,0.045-1.255    c0,0-0.484-0.239-0.782-0.074C43.53-22.778,42.869-22.271,43.276-21.826z" style="fill:#00AEEF;"/>
  <path d="M10.9-45.438l-0.027,0.076c-0.126,0.229-0.232,0.457-0.324,0.639    c-0.314,0.627-1.049-0.012-1.479-0.179c-0.166-0.064-0.403,0.045-0.403,0.045c-0.807-0.269-0.852,0.583-0.941,0.941    c-0.09,0.358-0.672,0.403-1.3,0.313c-0.472-0.068-0.224,0.209-0.224,0.792c0,0.583-0.134,0.986,0.404,0.762    c0.538-0.224,0.807-0.448,0.672-0.045c-0.134,0.404-0.269,0.27-0.403,0.583c-0.135,0.313-0.359,0.673,0.403,0.717    c0.762,0.044,1.21,0.493,0.807,0.986c-0.403,0.493-1.613,0.897-1.658,1.569c-0.045,0.672,0.134,1.524-0.358,1.345    c-0.493-0.18-0.536-0.19-0.759-0.53c-0.235-0.357-0.359-0.525,0-0.794c0.358-0.269,0.243-0.148,0.607-0.468    c1.533-1.346-0.388-2.483-0.701-2.618c-0.313-0.134-0.626-0.566-0.805-0.879c-0.18-0.314,0.538-0.672,0.852-1.255    c0,0,0.016,0.103,0.138-0.366c0.122-0.469,0.229-0.542,0.4-0.74c0.342-0.395,0.762-0.538,1.255-0.538    c0.458,0,0.569-0.098,0.88-0.258l0.084-0.098" style="fill:#00AEEF;"/>
  <path d="M13.088-38.742c-0.448,0.313-0.403,1.479,0.314,0.717l0.045-0.115    C13.492-38.542,13.536-39.055,13.088-38.742z" style="fill:#00AEEF;"/>
  <path d="M4.898-38.998c0.226-0.337,0.502-0.771-0.041-0.7c-0.542,0.072-1.039,1.127-0.051,0.781    L4.898-38.998z" style="fill:#00AEEF;"/>
  <path d="M5.032-26.894c0.224,0.404,1.299,0.045,1.031-0.493S4.783-27.34,5.032-26.894z" style="fill:#00AEEF;"/>
  <path d="M16.516-37.055c-0.973-0.697-1.985-0.829-2.227-0.249c-0.242,0.579-0.114,1.234,0.368,1.242    c0.482,0.007,0.858-0.341,1.379-0.076l0.124,0.052c0.272,0.162-0.365-0.518-0.065-0.539    C16.394-36.645,17.486-36.357,16.516-37.055z" style="fill:#00AEEF;"/>
  <path d="M18.344-33.047c-0.719-0.109-0.484-1.172-0.379-1.362c0.543-0.98-0.563-0.689-1.345-0.717    c-2.224-0.08-1.198,1.798-0.058,1.095c0.599-0.369,0.844,1.031,0.219,1.422c-0.625,0.391,1.438,1.422,1.984,0.953    C19.312-32.125,19.062-32.938,18.344-33.047z" style="fill:#00AEEF;"/>
  <path d="M12.328-29.557c-0.403,0.493,0.493,0.493,0.941,0.135c0.449-0.359,0.538-0.583,0.986-0.583    c0.449,0,0.583,0.089,1.165-0.09c0.582-0.179,0.627-1.39-0.313-1.39C14.166-31.484,12.839-30.182,12.328-29.557z" style="fill:#00AEEF;"/>
  <path d="M3.506-27.326c0.269-0.538,0.269-1.165,0-1.434c-0.269-0.269-0.986,0.403-1.389,1.479    C1.95-26.836,3.237-26.788,3.506-27.326z" style="fill:#00AEEF;"/>
  <path d="M9.627-43.059c-0.491-0.498-0.941-0.762-1.435-0.269c-0.493,0.493-0.244,0.464-0.065,0.643    c0.327,0.326,0.181,0.071,0.888,0.187C9.504-42.418,9.81-42.872,9.627-43.059z" style="fill:#00AEEF;"/>
  <path d="M22.234-28.413c0.327,0.326,0.181,0.071,0.888,0.186c0.489,0.08,0.795-0.374,0.611-0.56    c-0.491-0.499-0.941-0.762-1.435-0.269C21.807-28.562,22.056-28.592,22.234-28.413z" style="fill:#00AEEF;"/>
  <path d="M15.732-28.795c0.314-0.269-0.065-0.697-0.449-0.313C15.015-28.839,15.418-28.526,15.732-28.795z" style="fill:#00AEEF;"/>
  <path d="M21.746-42.746c-0.269,0.269,0.135,0.583,0.449,0.314C22.508-42.701,22.129-43.129,21.746-42.746z" style="fill:#00AEEF;"/>
  <path d="M14.024-33.95c-0.134-0.493-0.806-0.986-1.12-0.762c-0.314,0.224-1.434,2.331-2.42,2.868    c-0.986,0.538-1.972,0.717-2.196,0.359c-0.224-0.359-0.268-1.076-0.627-1.076c-0.358,0-0.403,0.448-0.583,0.762    c-0.18,0.313-0.225,0.717-0.807,0.672c-0.582-0.045-1.031-0.044-1.345,0.493c-0.313,0.538-0.403,1.703,0.449,1.076    c0.852-0.628,2.062-1.838,2.645-1.255c0.582,0.583,0.761,1.569,1.03,1.569c0.269,0,0.717-0.717,1.121-1.165    c0.404-0.448,0.449-0.449,0.896-0.404c0.448,0.045,0.807-0.089,0.807-0.627c0-0.404,0.673-1.032,1.345-1.435    C13.89-33.278,14.159-33.457,14.024-33.95z" style="fill:#00AEEF;"/>
  <path d="M19.585-31.156c-1.006,1.11-1.031,1.613-1.3,1.658c-0.269,0.045-0.493-0.089-0.717,0.18    c-0.224,0.269-0.09,0.179-0.807,0.045c-0.717-0.135,0.172,1.286-0.456,1.779c-0.628,0.493-0.941,0.538-1.166,0.134    c-0.224-0.403-0.358-0.941-1.075-0.314c-0.718,0.628-0.986,0.718-1.39,0.314c-0.404-0.403-1.076-1.3-1.838-1.166    c-0.762,0.135-0.582,0.225-0.582,0.538c0,0.314,0.538,0.762,1.165,0.762c0.627,0,1.21,1.031,0.583,1.569    c-0.627,0.538-1.185,0.433-1.816,0.547c-0.19,0.035-0.54-0.318-0.609-0.422c-0.069-0.104-0.461,0.063-0.531,0.219    c-0.07,0.156,0.067,0.777,0.638,0.863c0.571,0.087,0.958,0.414,1.217-0.157c0.26-0.571,1.362-0.393,1.505-0.378    c0.857,0.088,0.852,0.224,0.986,0.358c0.135,0.135,0.493,0.224,0.762-0.493c0.269-0.717,0.314-1.165,1.121-1.12    c0.807,0.045,1.21,0.178,1.569-0.225c0.358-0.403,0.403-0.493,0.941-0.448c0.538,0.045-0.979-1.241-0.441-1.51    c0.538-0.269,0.493-0.314,0.986-0.269c0.493,0.045,0.673,0.179,1.076-0.358c0.403-0.538,0.448-0.358,0.807-0.045    c0.358,0.313,0.672,0.268,0.717,0.045c0.045-0.224-0.404-0.806-0.583-0.986c-0.179-0.18-0.449-0.358,0.313-0.762    c0,0,0.705-0.157,0.458-0.385c-0.248-0.229,0.476-0.533,0.171-0.685C21.008-31.855,20.267-31.908,19.585-31.156z" style="fill:#00AEEF;"/>
  <path d="M17.49-22.139c0.522,0.027,0.987-0.018,1.076-0.219c0.109-0.246,0.185-0.558,0.4-0.775l0.127-0.14    c0.138-0.141-0.201-0.502,0.1-0.519c0.762-0.044,2.172,0.042,2.465-0.493c0.07-0.126,0.067-0.524,0.498-0.731    c0.432-0.208,1.348-1.487,0.332-1.914c-2.608-1.096-1.413,1.704-1.682,2.152c-0.269,0.448-0.627,0.179-0.986-0.09    c-0.358-0.269-0.749,0.589-1.377,0.769c-0.628,0.179-0.583-0.269-1.076-0.314c-0.493-0.044-0.807,0.269-0.942,0.852    c-0.026,0.116-0.059,0.212-0.098,0.292l-0.153,0.14c-0.159,0.312-0.439-0.199-0.971-0.199c-0.672,0-1.076,0.627-0.896,1.076    c0,0,0.403,0.359,0.852-0.045c0.448-0.404,0.037-0.278,0.664-0.099l0.182,0.03c1.212,0.227,0.275,1.652,0.857,1.428    c0.582-0.224,1.076,0.179,0.941,0.717c-0.134,0.538-1.165,1.703-1.747,1.748c-0.583,0.045-1.166-0.179-1.255-0.403    c-0.09-0.224-0.134-0.179,0.179-0.448c0.313-0.269,0.313-0.359,0.089-0.538c-0.224-0.179-0.627,0.089-0.717,0.493    c-0.089,0.403-0.403,0.672-0.717,0.449c-0.314-0.224-1.626-1.863-1.088-1.998c0.538-0.134,0.851,0.045,0.851-0.269    c0-0.313-0.089-0.313-0.358-0.448c-0.269-0.134-0.269-0.134-0.403-0.313c-0.134-0.179-0.359-0.224-0.672-0.224    c-0.313,0-0.314,0.045-0.627-0.224c-0.314-0.269-0.986-0.269-1.21,0.224c-0.224,0.493,0.224,1.076,0.762,1.031    c0.538-0.045,1.357,1.101,1.357,1.459c0,0.358-0.224,1.031-0.941,0.807c-0.717-0.224-0.986-0.717-1.434-0.627    c-0.448,0.09-0.493,0.448-0.135,1.165c0.251,0.502,0.403,1.166,1.165,0.627c0.762-0.538,1.032-1.076,1.659-0.896    c0.627,0.179,0.762,0.358,0.941,0.807c0.179,0.448,0,0.762,0.941,0.583c0.941-0.18,2.375-0.269,2.914-0.673    c0.538-0.403,1.061-2.15,1.076-2.599c0.01-0.344,0.187-0.58,0.111-0.823c-0.076-0.243-0.197-0.318-0.4-0.266    C17.57-21.43,16.9-22.077,17.49-22.139" style="fill:#00AEEF;"/>
  <polyline style="fill:#00AEEF;" points="17.49,-22.139 17.491,-22.139 17.488,-22.139 17.49,-22.139   "/>
  <path d="M13.872-42.355c0-0.313-0.09-0.313-0.359-0.448c-0.269-0.135-0.269-0.134-0.403-0.313    c-0.134-0.18-0.358-0.225-0.672-0.225c-0.314,0-0.314,0.044-0.627-0.224c-0.313-0.269-0.986-0.269-1.21,0.224    c-0.224,0.493,0.225,1.076,0.762,1.031c0.537-0.045,0.806,0,0.806,0.359c0,0.358-0.224,1.031-0.941,0.807    c-0.717-0.224-0.986-0.717-1.434-0.627c-0.448,0.09-0.493,0.448-0.135,1.166c0.252,0.502,0.403,1.166,1.165,0.627    c0.762-0.538,1.031-1.076,1.659-0.896c0,0,0.753-0.389,0.45-0.752s-0.31-0.37,0.088-0.458    C13.561-42.206,13.872-42.042,13.872-42.355z" style="fill:#00AEEF;"/>
  <polyline style="fill:#00AEEF;" points="17.547,-44.424 17.547,-44.424 17.544,-44.424 17.547,-44.424   "/>
  <path d="M17.547-44.424c0.309,0.023,0.4-0.282,0.324-0.418c-0.248-0.445-2.611-0.204-2.611-0.204    c-0.672,0-1.076,0.627-0.896,1.076c0,0,0.403,0.359,0.852-0.044c0.448-0.404,0.037-0.846,0.664-0.667l0.182,0.03    c1.213,0.227,0.275,1.652,0.857,1.428c0.583-0.224,1.076,0.179,0.941,0.717c-0.134,0.538-1.165,1.703-1.748,1.748    c-0.583,0.045-1.166-0.179-1.255-0.403c-0.09-0.224-0.134-0.179,0.179-0.448c0.313-0.269,0.313-0.359,0.09-0.538    c-0.224-0.179-0.628,0.089-0.717,0.493c0,0-1.464,2.313-0.07,2.192l0.159-0.041c0.941-0.18,2.376-0.27,2.914-0.673    c0.538-0.403,1.062-2.15,1.076-2.599c0.01-0.344,0.186-0.581,0.111-0.823c-0.076-0.243-0.197-0.318-0.4-0.266    C17.626-43.715,16.956-44.363,17.547-44.424" style="fill:#00AEEF;"/>
  <path d="M20.958-45.141c0,0-0.484-0.239-0.782-0.074c-0.207,0.114-0.868,0.621-0.461,1.066    c0.274,0.299,0.608,1.262,1.197,0.263C21.17-44.322,21.451-45.141,20.958-45.141z" style="fill:#00AEEF;"/>
  <path d="M26.193-44.625c-0.459-0.199-0.633-0.536-1.036-0.356c-0.403,0.179-1.623,1.252-1.579,1.746    c0.028,0.308-0.262,0.774-0.262,0.774l-0.172,0.114c-0.189,0.124-0.387,0.328-0.613,0.685c-0.627,0.986-1.158,0.597-2.913,0.045    c-0.396-0.125-0.71,0.324-0.576,0.817c0.135,0.493,0.441,0.437,1.696,0.437c1.254,0,1.076,0.852-0.045,2.062    c-1.121,1.21-2.131-1.317-3.138-0.359c-0.643,0.612-0.134,1.076,0.493,1.704c0.628,0.627,1.255,0.448,1.345,0.134    c0.09-0.314,1.254-0.044,1.748-0.358c0.493-0.314,0.404-0.583,0.807-1.21c0.403-0.627,0.358-0.941,0.358-1.658    c0-0.358,0.348-0.672,0.847-0.925l0.149-0.103c0,0,0.764-0.255,0.968-0.622s-0.01-0.741,0.25-1.043    c0.414-0.48,0.553-1.255,1.091-0.986c0,0,0.162,0.072,0.407-0.152C26.261-44.105,26.593-44.452,26.193-44.625z" style="fill:#00AEEF;"/>
  <path d="M33.025-45.438l-0.061,0.097c-0.126,0.229-0.233,0.457-0.324,0.639    c-0.313,0.627-1.049-0.012-1.479-0.179c-0.166-0.064-0.403,0.045-0.403,0.045c-0.807-0.269-0.851,0.583-0.941,0.941    c-0.09,0.358-0.672,0.403-1.3,0.313c-0.472-0.068-0.224,0.209-0.224,0.792c0,0.583-0.134,0.986,0.404,0.762    c0.538-0.224,0.807-0.448,0.672-0.045c-0.134,0.404-0.269,0.27-0.403,0.583c-0.135,0.313-0.359,0.673,0.403,0.717    s1.209,0.493,0.807,0.986c-0.403,0.493-1.613,0.897-1.658,1.569c-0.045,0.672,0.134,1.524-0.358,1.345    c-0.493-0.18-0.536-0.19-0.759-0.53c-0.235-0.357-0.359-0.525,0-0.794c0.358-0.269,0.243-0.148,0.607-0.468    c1.533-1.346-0.388-2.483-0.701-2.618c-0.314-0.134-0.626-0.566-0.805-0.879c-0.18-0.314,0.538-0.672,0.852-1.255    c0,0,0.016,0.103,0.138-0.366c0.122-0.469,0.229-0.542,0.4-0.74c0.342-0.395,0.762-0.538,1.255-0.538    c0.458,0,0.645-0.115,0.956-0.275l0.076-0.102" style="fill:#00AEEF;"/>
  <path d="M36.243-38.528c-0.448,0.313-0.403,1.479,0.314,0.717l0.045-0.115    C36.646-38.329,36.691-38.841,36.243-38.528z" style="fill:#00AEEF;"/>
  <path d="M27.106-38.917l0.092-0.082c0.226-0.337,0.502-0.771-0.041-0.7    C26.616-39.626,26.118-38.571,27.106-38.917z" style="fill:#00AEEF;"/>
  <path d="M29.609-29.169c-0.269-0.538-1.279,0.046-1.031,0.493C28.802-28.272,29.877-28.631,29.609-29.169z" style="fill:#00AEEF;"/>
  <path d="M38.768-35.931c-0.562-1.056-1.244-1.341-1.718-0.929c-0.474,0.412-0.618,0.717-0.189,0.938    c0.43,0.22,0.455,0.318,0.804,0.787l0.088,0.102c0.172,0.265,0.118-0.391,0.396-0.276C38.426-35.194,39.329-34.874,38.768-35.931z    " style="fill:#00AEEF;"/>
  <path d="M38.882-33.986c-0.762,0.179-0.628,0.847-0.628,1.659c0,0.404,1.3-0.045,1.973-0.941    C40.899-34.166,39.644-34.165,38.882-33.986z" style="fill:#00AEEF;"/>
  <path d="M35.569-29.422c0.449-0.359,0.538-0.583,0.986-0.583c0.449,0,0.583,0.089,1.165-0.09    c0.583-0.179,0.627-1.39-0.313-1.39s-2.268,1.302-2.779,1.927C34.226-29.064,35.121-29.064,35.569-29.422z" style="fill:#00AEEF;"/>
  <path d="M30.245-26.96c-0.045-0.493-0.274-0.858-1.036-0.32s-0.298,1.036,0.059,1.003    C29.761-26.322,30.29-26.467,30.245-26.96z" style="fill:#00AEEF;"/>
  <path d="M26.374-29.044c-0.269-0.269-0.986,0.403-1.389,1.479c-0.167,0.446,1.12,0.494,1.389-0.045    C26.643-28.148,26.643-28.775,26.374-29.044z" style="fill:#00AEEF;"/>
  <path d="M42.086-33.334c-0.448,0.314-0.448,0.985-0.448,1.434c0,0.448-0.448,0.852-1.21,1.389    c-0.762,0.538-1.658,1.883-1.434,2.107c0.224,0.224,0.672,0.044,1.076-0.269c0.403-0.314,1.031-0.672,1.703-0.762    c0.673-0.09,0.538-0.403,0.538-0.897c0-0.493-0.045-0.583,0.18-0.986c0.224-0.404,0.538-0.897,0.896-0.897    s0.493-0.224,0.538-0.493c0.045-0.269-0.089-0.313-0.583-0.313c-0.493,0-0.307-0.081-0.538-0.358    C42.579-33.648,42.534-33.648,42.086-33.334z" style="fill:#00AEEF;"/>
  <path d="M38.033-28.795c0.314-0.269-0.065-0.697-0.449-0.313C37.315-28.839,37.719-28.526,38.033-28.795z" style="fill:#00AEEF;"/>
  <path d="M41.921-42.746c-0.269,0.269,0.135,0.583,0.449,0.314C42.684-42.701,42.304-43.129,41.921-42.746z" style="fill:#00AEEF;"/>
  <path d="M35.204-34.712c-0.314,0.224-1.434,2.331-2.42,2.868c-0.986,0.538-1.972,0.717-2.196,0.359    c-0.224-0.359-0.269-1.076-0.627-1.076c-0.358,0-0.403,0.448-0.583,0.762c-0.179,0.313-0.225,0.717-0.807,0.672    c-0.582-0.045-1.031-0.044-1.345,0.493c-0.313,0.538-0.403,1.703,0.449,1.076c0.852-0.628,2.062-1.838,2.645-1.255    c0.583,0.583,0.761,1.569,1.03,1.569c0.269,0,0.717-0.717,1.121-1.165c0.404-0.448,0.449-0.449,0.896-0.404    c0.448,0.045,0.807-0.089,0.807-0.627c0-0.404,0.673-1.032,1.345-1.435c0.672-0.403,0.941-0.583,0.807-1.076    C36.19-34.443,35.518-34.936,35.204-34.712z" style="fill:#00AEEF;"/>
  <path d="M39.043-25.811c0.358-0.403,0.403-0.493,0.941-0.448c0.538,0.045,0.673,0.135,1.21-0.134    c0.538-0.269,0.493-0.314,0.986-0.269c0.493,0.045,0.673,0.179,1.076-0.358c0.403-0.538,0.448-0.358,0.807-0.045    c0.358,0.314,0.672,0.269,0.717,0.045c0.045-0.224-0.404-0.806-0.583-0.986c-0.179-0.18-0.449-0.358,0.313-0.762    c0,0-0.395-1.11-1.076-0.358c-1.006,1.11-1.031,1.613-1.3,1.658c-0.269,0.045-0.493-0.089-0.717,0.18    c-0.224,0.269-0.09,0.179-0.807,0.045c-0.717-0.135-1.479-0.09-2.107,0.403c-0.628,0.493-0.941,0.538-1.165,0.135    c-0.224-0.404-0.358-0.942-1.076-0.314c-0.718,0.627-0.986,0.717-1.39,0.314c-0.403-0.404-1.076-2.151-1.838-2.017    c-0.761,0.135-0.582,0.225-0.582,0.538c0,1.048,0.539,0.762,1.165,0.762c0.628,0,1.211,1.882,0.583,2.42l-0.034,0.017    c-0.576,0.728,0.437,0.655,0.437,0.655c0.852,0.135,0.852,0.224,0.986,0.358c0.134,0.135,0.493,0.224,0.762-0.493    c0.269-0.717,0.314-1.165,1.121-1.12C38.281-25.542,38.685-25.408,39.043-25.811z" style="fill:#00AEEF;"/>
  <path d="M31.774-38.139c-0.269,0.269-1.268-0.154-1.492-0.108c-0.224,0.045-0.717,0.448-0.538,0.717    c0.18,0.269,0.628,0.627,1.255,0.045c0,0,0.431-0.222,0.245,0.631c-0.065,0.303,0.832-0.001,1.455-0.485    c0.995-0.773,1.09,2.45,0.06,1.71c-0.506-0.364-1.434,0.762-1.927,0.314c-0.493-0.449-0.673-0.673-0.942-0.404    c-0.268,0.269-0.538,0.313-1.076,0.359c-0.538,0.045-1.748,0.224-2.061,0.628c-0.314,0.403-1.255,0.583-1.255,0.851    c0,0.269,0.493,0.538,0.672,0.672c0.179,0.135,0.313,0.403,0.134,0.717c-0.179,0.314-0.448,1.209-1.165,1.076    c-0.717-0.134-0.449-0.045-0.807,0.134c0,0-0.364,0.131-0.288,0.321c0.077,0.19,0.609,0.97,0.571,1.199    c-0.038,0.229,1.199,0.152,1.313-0.076c0.114-0.229-0.171-0.533-0.133-0.723c0.038-0.191,0.761-0.398,0.913-0.856    c0.326-0.981,0.672-2.6,1.345-2.42c0.672,0.18,1.434,0.313,1.972,0s0.493-0.538,1.031-0.448c0.538,0.089,1.703-0.09,2.196-0.359    c0.493-0.269,0.717-0.403,0.762-0.762c0.045-0.358,0.762-0.716,0.717-1.479c-0.045-0.762-0.404-1.659-1.21-1.659    C32.715-38.542,32.043-38.408,31.774-38.139z" style="fill:#00AEEF;"/>
  <path d="M8.145-37.862c-0.224,0.045-0.717,0.448-0.538,0.717c0.18,0.269,0.627,0.627,1.255,0.045    c0,0,3.263-1.308,1.972-1.882c-0.737-0.329-1.479,0.134-1.748,0.403C8.817-38.31,8.369-37.907,8.145-37.862z" style="fill:#00AEEF;"/>
  <path d="M45.438-35.883c-0.054,0.032-0.123,0.045-0.214,0.033l-0.018,0.014    c-0.12-0.083-0.278-0.212-0.413-0.312c-0.538-0.404-0.583,0.179-0.762,0.717c-0.18,0.538-0.415,0.543-0.717,0.448    c-0.717-0.224-1.21,0.493-1.03,0.806c0.179,0.314,1.344-0.089,1.927-0.403c0.311-0.167,0.647-0.258,0.965-0.256l0.048,0.017    c0.048,0.031,0.118,0.059,0.214,0.04" style="fill:#00AEEF;"/>
  <path d="M25.493-36.585c0.538,0,0.807-0.358,0.627-0.896c-0.179-0.538-1.067-1.362-0.934-1.587    c0.134-0.224,1.262-1.012,0.799-1.569c-0.603-0.725-2.077-0.401-1.5,0.463c0.179,0.269-0.189,1.439-0.234,1.574    c-0.045,0.134,0.793,0.492,1.017,0.626c0.224,0.134,0.358,0.314,0.134,0.493c-0.224,0.179-0.582,0.269-0.851,0.224    c-0.269-0.045-0.583-0.224-0.762,0.224c-0.179,0.448-0.012,1.182-0.528,1.115l-0.028,0.008c-0.12-0.083-0.279-0.211-0.413-0.312    c-0.538-0.403-0.583,0.18-0.762,0.718c-0.179,0.538-0.414,0.543-0.717,0.448c-0.717-0.224-1.211,0.493-1.031,0.807    c0.18,0.313,1.345-0.089,1.927-0.403c0.31-0.167,0.647-0.258,0.965-0.256l0.058,0.022c0.116,0.076,0.36,0.129,0.797-0.442    C24.642-36.092,24.955-36.585,25.493-36.585z" style="fill:#00AEEF;"/>
  <path d="M45.438-25.271l-0.215-0.014c-0.493-0.09-1.435,0.358-1.703,0.807    c-0.269,0.448-0.628,0.179-0.986-0.09c0,0-2.192-0.729-3.163-0.387c-1.897,0.669,0.861,2.991,0.849,2.182    c-0.031-2.117,2.75-0.924,3.296-0.803c0.545,0.122,0.856-0.409,0.856-0.409c0.294-0.404,0.347-0.477,0.917-0.416l0.149,0.01" style="fill:#00AEEF;"/>
  <path d="M26.542-25.759c-0.31-0.525-2.412-0.535-2.759,0.222c-0.135,0.291,0.051,0.506,0.009,0.952    c-0.042,0.446,0.612,1.141,0.91,0.854c0.297-0.288,0.66-2.03,1.948-1.431c0.481,0.223,1.251,1.538,1.771,1.272    c0.521-0.265,0.994-0.04,1.334,0.172c0.34,0.212,1.502-0.361,1.953-0.364c0,0,0.568,0.204,0.541-0.06    c-0.027-0.263-0.661-1.463-0.213-1.42c0.447,0.043,0.908,0.321,0.677-0.174c-0.202-0.433-0.132-0.509-0.578-0.55    c0,0-0.167-0.151-0.735,0.154c-0.569,0.306-2.29,1.632-2.612,1.241c-0.323-0.392-0.594-0.867-1.024-0.593    C27.332-25.21,26.852-25.234,26.542-25.759z" style="fill:#00AEEF;"/>
  <path d="M24.415-32.592c0.269-0.045,0.448-0.807,0.269-1.254c-0.179-0.448-0.538-0.135-0.538-0.135    c-0.258-0.258-0.539,0.133-0.893,0.573l-0.015-0.009c-0.137,0.16-0.282,0.327-0.438,0.471c-0.583,0.538-0.587,0.734-0.192,0.892    c0.192,0.077,0.427,0.005,0.645-0.127l0-0.02c0.277-0.176,0.525-0.443,0.623-0.616C23.877-32.816,24.146-32.547,24.415-32.592z" style="fill:#00AEEF;"/>
  <path d="M39.924-44.267c0.522,0.027,0.986-0.018,1.076-0.219c0.109-0.246,0.185-0.559,0.4-0.775l0.008-0.13    c0.016-0.016,0.033-0.032,0.051-0.046" style="fill:#00AEEF;"/>
  <path d="M39.924-44.267c-0.59,0.061,0.08,0.709,0.652,0.561c0.203-0.053,0.324,0.023,0.399,0.266    c0.076,0.243-0.329,0.558-0.111,0.823c0.317,0.385-0.62,0.948-0.627,0.269c-0.006-0.555-0.358-0.941-0.941-0.717    c-0.583,0.224,0.355-1.201-0.857-1.428l-0.182-0.03c-0.628-0.179-0.216,0.263-0.664,0.666c-0.448,0.404-0.852,0.044-0.852,0.044    c-0.18-0.448,0.223-1.075,0.896-1.075c0.532,0,0.812-0.056,0.971-0.368l0.034-0.13c0.008-0.016,0.015-0.033,0.023-0.05" style="fill:#00AEEF;"/>
  <polyline style="fill:#00AEEF;" points="39.924,-44.267 39.925,-44.267 39.922,-44.267 39.924,-44.267   "/>
  <path d="M32.957-43.333c-0.224,0.493,0.225,1.076,0.762,1.031c0.538-0.045,0.807,0,0.807,0.358    c0,0.359-0.224,1.031-0.941,0.807c-0.717-0.224-0.986-0.716-1.435-0.627c-0.448,0.089-0.493,0.448-0.134,1.165    c0.251,0.502,0.403,1.165,1.165,0.627c0.762-0.538,1.032-1.076,1.659-0.896c0.627,0.18,0.762,0.358,0.941,0.807    c0.179,0.448,0.147,1.12,0.941,0.583c0.329-0.223,1.368-0.262,2.156,0.102c0.788,0.364,1.334-0.728,1.031-1.516    c-0.303-0.788-0.909-0.91-1.395-0.425c-0.485,0.485-0.97,0.485-1.434,0.18c-0.202-0.132-0.134-0.179,0.18-0.448    c0.313-0.27,0.313-0.359,0.089-0.538c-0.224-0.179-0.627,0.089-0.717,0.493c-0.09,0.404-0.403,0.673-0.717,0.449    c-0.314-0.224-1.076-0.762-0.538-0.896c0.538-0.135,0.852,0.044,0.852-0.269c0-0.313-0.089-0.313-0.358-0.448    c-0.269-0.134-0.27-0.134-0.404-0.313c-0.134-0.18-0.358-0.225-0.672-0.225s-0.314,0.044-0.627-0.224    C33.854-43.826,33.181-43.827,32.957-43.333z" style="fill:#00AEEF;"/>
  <path d="M44.05-44.641c0,0-0.484-0.239-0.782-0.074c-0.207,0.114-0.868,0.621-0.461,1.066    c0.274,0.299,0.608,1.262,1.197,0.263C44.262-43.822,44.542-44.641,44.05-44.641z" style="fill:#00AEEF;"/>
  <path d="M6.545-35.338c-0.538,0.045-1.748,0.225-2.062,0.628c-0.314,0.403-1.255,0.583-1.255,0.852    c0,0.269,0.493,0.538,0.672,0.672c0.18,0.135,0.314,0.403,0.135,0.717c-0.179,0.314-0.448,1.209-1.165,1.076    c-0.717-0.134-0.449-0.045-0.807,0.134c0,0-0.364,0.131-0.288,0.321c0.076,0.19,0.609,0.97,0.571,1.199    c-0.038,0.228,1.199,0.152,1.313-0.076c0.114-0.228-0.171-0.533-0.133-0.723c0.038-0.19,0.761-0.398,0.913-0.855    c0.327-0.981,0.673-2.6,1.345-2.42c0.672,0.179,1.434,0.313,1.972,0c0.538-0.313,0.494-0.538,1.031-0.448    c0.538,0.089,1.703-0.089,2.196-0.358c0.493-0.269,0.611-0.434,0.762-0.762c0.411-0.895,0.802-1.772-0.25-1.691    c-1.051,0.081-0.97,1.293-0.97,1.293l-0.036,0.174c-0.583,0.224-1.434,0.763-1.927,0.314c-0.493-0.448-0.673-0.672-0.941-0.403    C7.352-35.427,7.083-35.383,6.545-35.338z" style="fill:#00AEEF;"/>
  <path d="M45.438-42.339c-0.052-0.045-0.104-0.091-0.141-0.099c-0.078-0.016-0.136,0.09-0.136,0.09    c-0.189,0.124-0.387,0.328-0.613,0.685c-0.627,0.986-1.158,0.597-2.913,0.045c-0.396-0.125-0.71,0.324-0.576,0.817    c0.135,0.493,0.441,0.437,1.696,0.437c1.254,0,1.076,0.852-0.045,2.062c-1.121,1.21-2.131-1.317-3.138-0.359    c-0.643,0.612-0.134,1.076,0.493,1.704c0.628,0.627,1.255,0.448,1.345,0.134c0.09-0.314-1.016,3.523,1.748-0.358    c0.339-0.476,0.404-0.583,0.807-1.21c0.403-0.627,0.358-0.941,0.358-1.658c0-0.358,0.348-0.672,0.847-0.925    c0,0,0.149-0.125,0.268-0.134" style="fill:#00AEEF;"/>
  <path d="M45.438-33.216c-0.251,0.097-0.548,0.192-0.642,0.279c-0.582,0.538-0.587,0.734-0.192,0.892    c0.134,0.054,0.531,0.021,0.833-0.049" style="fill:#00AEEF;"/>
  <path d="M45.438-13.542l-0.138-0.018c-0.12-0.083-0.278-0.212-0.413-0.312    c-0.538-0.403-0.583,0.18-0.762,0.718s-0.415,0.543-0.717,0.448c-0.717-0.224-1.21,0.493-1.03,0.807    c0.179,0.314,1.344-0.09,1.927-0.404c0.311-0.167,0.647-0.257,0.965-0.256l0.168,0.037" style="fill:#00AEEF;"/>
  <path d="M1-18.663l0.162-0.077c0,0,0.764-0.255,0.968-0.622c0.204-0.367-0.01-0.741,0.25-1.043    c0.414-0.48,1.12-1.255,1.658-0.986c0,0,0.162,0.072,0.407-0.152c0.244-0.224,0.576-0.571,0.176-0.744    c-0.46-0.199-1.2-0.536-1.603-0.357c-0.403,0.179-1.623,1.253-1.579,1.746c0.028,0.308-0.262,0.774-0.262,0.774L1-20.04" style="fill:#00AEEF;"/>
  <path d="M4.895-1.818C5.252-1.635,5.747-2.177,6.24-1.863c0.493,0.314,1.39-0.359,1.585-0.852    c0.195-0.493,0.97-0.135,1.239,0.179c0.269,0.314,0.986-0.314,0.986-0.762c0-0.448-0.582-0.582-0.941-0.627    C8.75-3.97,8.347-3.79,7.988-3.297C7.629-2.804,7.45-3.073,7.047-3.387C6.644-3.7,6.33-3.252,5.971-2.894    c0,0-0.043-0.294-0.376-0.377C5.261-3.355,4.071-2.24,4.895-1.818z" style="fill:#00AEEF;"/>
  <path d="M1-2.12l0.141,0.013c0.093,0.012,0.199,0.026,0.318,0.043c0.985,0.134,0.826-0.585,1.3-0.538    c0,0,1.283-0.484,0.933-0.645C3.513-3.33,3.341-3.409,3.207-3.499C2.669-3.858,2.49-3.723,2.49-3.723    c-0.448,0-0.314,0.134-0.628,0.493C1.589-2.918,1.516-2.922,1.17-2.985L1-3" style="fill:#00AEEF;"/>
  <path d="M1-9.793l0.14-0.071c0.278-0.176,0.525-0.443,0.624-0.616c0,0,0.269,0.269,0.538,0.224    c0.269-0.045,0.448-0.807,0.269-1.255c-0.179-0.448-0.538-0.135-0.538-0.135c-0.258-0.258-0.54,0.133-0.893,0.573L1-10.963" style="fill:#00AEEF;"/>
  <path d="M1-34.776c0.138-0.018,0.334-0.133,0.604-0.486c0.583-0.762,0.896-1.255,1.434-1.255    s0.807-0.358,0.627-0.896C3.487-37.951,2.598-38.775,2.732-39c0.134-0.225,1.262-1.013,0.799-1.569    c-0.603-0.725-2.076-0.401-1.5,0.463c0.179,0.269-0.189,1.439-0.233,1.574c-0.045,0.134,0.792,0.492,1.016,0.626    c0.224,0.134,0.359,0.314,0.135,0.493c-0.224,0.179-0.582,0.269-0.852,0.224c-0.269-0.045-0.583-0.224-0.762,0.224    C1.183-36.585,1.28-36.001,1-35.872" style="fill:#00AEEF;"/>
  <path d="M1-24.393l0.141,0.009c0.093,0.012,0.199,0.026,0.318,0.043c0.252,0.034,0.275-0.128,0.4-0.3    c0,0,0.188-0.578-0.016-0.703c-0.187-0.115-0.188-0.062-0.188-0.062c-0.273,0.312-0.14,0.208-0.486,0.145L1-25.272" style="fill:#00AEEF;"/>
  <path d="M3.262-23.852c0.44-0.095,1.145,0.335,1.432,0.054c0.285-0.281,0.698-0.604,1.265-0.459    c0.565,0.146,1.75-0.945,1.783-1.474c0.033-0.529-0.009-1.332,0.344-1.116c0.354,0.216,0.842-0.603,0.703-1.029    c-0.139-0.426-0.734-0.375-1.089-0.307c-0.355,0.068-0.333,1.443-0.522,2.022c-0.188,0.58-0.442,0.379-0.923,0.206    c-0.48-0.174-0.641,0.349-0.871,0.801c-0.231,0.452-1.337,0.43-1.973,0.311c-0.275-0.052-0.501,0.139-0.514,0.505    S3.262-23.852,3.262-23.852z" style="fill:#00AEEF;"/>
  <path d="M1-41.106c0.043-0.007,0.084-0.002,0.115,0.028C1.224-40.969,1.146-40.922,1.336-41    c0,0,0.764-0.255,0.968-0.622c0.204-0.367-0.01-0.741,0.25-1.043c0.414-0.48,0.553-1.255,1.091-0.986c0,0,0.162,0.072,0.407-0.152    c0.244-0.224,0.576-0.571,0.176-0.744c-0.459-0.199-0.633-0.536-1.036-0.356c-0.403,0.179-1.623,1.252-1.579,1.746    c0.028,0.308-0.262,0.774-0.262,0.774s-0.096,0.118-0.174,0.133C1.131-42.241,1.064-42.302,1-42.357" style="fill:#00AEEF;"/>
  <path d="M1-32.09c0.141-0.031,0.264-0.07,0.334-0.113l0.168-0.093c0.278-0.176,0.242-0.443,0.34-0.616    l0.538,0.224c0.269-0.045,0.448-0.807,0.269-1.254c-0.179-0.448-0.538-0.135-0.538-0.135c-0.258-0.258-0.256,0.133-0.609,0.573    l-0.117,0.096c-0.057,0.066-0.211,0.133-0.385,0.2" style="fill:#00AEEF;"/>
  <path d="M1-12.528l0.139,0.031c0.115,0.076,0.36,0.13,0.797-0.442c0.583-0.762,0.896-1.255,1.434-1.255    s0.807-0.358,0.628-0.896c-0.179-0.538-1.067-1.362-0.933-1.587c0.134-0.225,1.262-1.013,0.799-1.569    c-0.603-0.726-2.076-0.401-1.5,0.463c0.179,0.268-0.189,1.439-0.233,1.574c-0.045,0.134,0.793,0.491,1.016,0.626    c0.224,0.134,0.359,0.314,0.135,0.493c-0.224,0.179-0.583,0.269-0.852,0.224c-0.269-0.045-0.583-0.224-0.762,0.224    c-0.179,0.448-0.011,1.182-0.528,1.115L1-13.545" style="fill:#00AEEF;"/>
  <path d="M8.035-1l0.056-0.065c0.358-0.18,0.627-0.333,1.254-0.468c0.628-0.134,1.883-0.672,2.51-1.21    c0.627-0.538,0.044-1.568-0.583-1.568c-0.627,0-1.165-0.449-1.165-0.762c0-0.313-0.179-0.404,0.583-0.538    c0.762-0.135,1.434,0.762,1.838,1.166c0.403,0.403,0.672,0.313,1.39-0.314c0.717-0.627,0.852-0.089,1.075,0.314    c0,0,0.533,0.477,0.393,0.837c-0.141,0.359-0.719,0.391-1.094,0.359c-0.375-0.031-1.203,0.609-0.781,0.719    c0.422,0.109,0.477,0.183,0.497,0.326c0.101,0.759-0.627,0.628-0.762,0.493c-0.134-0.135-0.134-0.224-0.986-0.359    c-0.6-0.095-1.022,0.457-1.329,1.009L10.908-1" style="fill:#00AEEF;"/>
  <path d="M16.703-5.351c0.5,0.391,0.216,1.337,0.827,1.075c0.496-0.213,0.403-0.493,0.941-0.448    c0.538,0.045,0.672,0.134,1.21-0.135s0.493-0.314,0.986-0.269c0.493,0.045,0.672,0.179,1.076-0.358    c0.403-0.538,0.448-0.358,0.807-0.045c0.358,0.313,0.672,0.269,0.717,0.045c0.045-0.224-0.403-0.806-0.583-0.986    c-0.179-0.179-0.448-0.358,0.314-0.762c0,0,0.705-0.157,0.457-0.386c-0.247-0.229,0.476-0.532,0.171-0.685    c-0.282,0.013-1.023-0.04-1.705,0.712c-1.006,1.11-1.03,1.613-1.299,1.658c-0.269,0.045-0.493-0.089-0.717,0.18    c-0.224,0.269-0.089,0.179-0.807,0.044c0,0-0.583,0.109-0.661-0.203s-0.562-0.5-0.688-0.25s-0.375,0.25-0.547,0.203    C17.031-6.007,16.203-5.741,16.703-5.351z" style="fill:#00AEEF;"/>
  <path d="M17.64-1.368c0,0,1.384-0.37,1.833-0.889c0.53-0.613,0.926-0.335,0.926-0.335    c0.762-0.044,1.593,1.048,2.182,0.892c0.557-0.148-0.462-1.446-0.223-1.334c0.188,0.088,1.111-1.069-0.223-0.893    c-0.239,0.032-0.122,0.917-0.122,0.917c-0.269,0.449-0.627-0.388-0.986-0.657c-0.359-0.269-1.269-0.056-1.896,0.123    c-0.628,0.179-0.425,1.11-0.822,0.815C16.974-3.719,16.302-1.591,17.64-1.368z" style="fill:#00AEEF;"/>
  <path d="M23.926-2.443c0.734,0.618,0.718-1.319,1.192-1.272c0.448,0.045,1.27,1.523,1.628,1.344    c0.359-0.179,0.852-0.359,1.345-0.045c0.493,0.313,1.357-0.374,1.585-0.852c0.318-0.669-0.777-0.672-0.777-0.672    c-0.403-0.313-0.718,0.134-1.076,0.493c-0.358,0.358-1.149-0.217-1.687-0.575C25.598-4.38,25.15-5.174,25.15-5.174    c-2.396-0.078-0.755,1.368-1.069,1.727C24.081-3.448,23.302-2.968,23.926-2.443z" style="fill:#00AEEF;"/>
  <path d="M30.177-1l0.066-0.089c0.358-0.179,0.626-0.332,1.254-0.467c0.628-0.134,1.883-0.672,2.51-1.21    c0.628-0.538,0.044-1.569-0.583-1.569c-0.627,0-1.165-0.448-1.165-0.762c0-0.313-0.179-0.403,0.583-0.538    c0.762-0.135,1.434,0.762,1.838,1.166c0.403,0.403,0.672,0.313,1.39-0.314c0.717-0.628,0.852-0.09,1.076,0.314    c0.224,0.403,0.468,0.253,1.165-0.135c0.24-0.133,0.49,0.179,0.427,0.742s-1.375,1.937-1.312,1.438s0.334-0.785-0.146-0.924    c-0.776-0.225-0.852,0.403-1.121,1.12c-0.269,0.717-0.627,0.627-0.762,0.493c-0.134-0.135-0.134-0.224-0.986-0.359    c-0.6-0.095-1.022,0.456-1.329,1.008L33.027-1" style="fill:#00AEEF;"/>
 </g>
</svg>
