<?xml version="1.0"?>
<!-- Converted with SVG Converter - Version 0.9.5 (Compiled Fri Feb 21 09:53:38 2020) - Copyright (C) 2011 Nokia -->
<svg xmlns="http://www.w3.org/2000/svg" baseProfile="tiny" width="44.438" xmlns:xlink="http://www.w3.org/1999/xlink" xml:space="preserve" viewBox="0 -44.438 44.438 44.438" version="1.1" x="0px" height="44.438" y="0px">
 <g>
  <rect style="fill:none;" width="44.438" height="44.438" y="-44.438"/>
  <path d="M4.05-20.17c-0.313,0.583-1.031,0.94-0.852,1.254c0.18,0.313,0.492,0.745,0.805,0.88c0.314,0.134,2.234,1.271,0.702,2.617    c-0.364,0.32-0.249,0.199-0.608,0.468c-0.358,0.27-0.235,0.438,0,0.795c0.223,0.339,0.267,0.35,0.759,0.529    c0.493,0.18,0.313-0.672,0.359-1.345c0.045-0.672,1.255-1.075,1.658-1.568c0.403-0.493-0.045-0.941-0.807-0.986    c-0.762-0.045-0.538-0.403-0.404-0.717c0.135-0.313,0.269-0.18,0.404-0.583c0.134-0.404-0.135-0.18-0.672,0.045    c-0.538,0.224-0.403-0.179-0.403-0.763c0-0.583,0.027-1.41,0.499-1.342c0.628,0.089,1.107,0.001,1.3-0.313    c0.309-0.503-0.395-0.362-0.465-0.484c-0.069-0.121,0.122-0.242,0.243-0.328c0.121-0.086-0.087-0.329-0.45-0.354    c-0.492-0.032-0.913,0.142-1.255,0.538c-0.171,0.197-0.277,0.271-0.4,0.74C4.341-20.619,4.05-20.17,4.05-20.17z"/>
  <path d="M13.256-14.519l0.045-0.114c0.045-0.403,0.089-0.916-0.359-0.603C12.495-14.923,12.54-13.757,13.256-14.519z"/>
  <path d="M3.806-15.625l0.092-0.081c0.226-0.338,0.502-0.771-0.041-0.7C3.315-16.335,2.818-15.279,3.806-15.625z"/>
  <path d="M5.009-5.318C5.233-4.915,6.309-5.273,6.04-5.811C5.772-6.349,4.761-5.765,5.009-5.318z"/>
  <path d="M15.153-12.495l0.128,0.04c0.286,0.137,0.388,0.264,0.685,0.216c0.297-0.047,0.613-0.605-0.417-1.213    c-1.031-0.606-2.052-0.646-2.24-0.047c-0.189,0.598,0.268,0.789,0.749,0.752C14.539-12.783,14.611-12.713,15.153-12.495z"/>
  <path d="M15.582-11.262c-0.762,0.179-0.628,0.847-0.628,1.658c0,0.403,1.3-0.045,1.973-0.941    C17.599-11.441,16.344-11.441,15.582-11.262z"/>
  <path d="M11.985-6.415c0.449-0.358,0.537-0.582,0.986-0.582c0.449,0,0.583,0.09,1.165-0.09c0.583-0.179,0.628-1.39-0.313-1.39    c-0.941,0-2.267,1.303-2.779,1.928C10.642-6.057,11.537-6.057,11.985-6.415z"/>
  <path d="M6.084-3.312c0.493-0.045,1.613-0.672,1.568-1.165c-0.045-0.493-0.179-0.538-0.941,0C5.95-3.938,5.727-3.278,6.084-3.312z    "/>
  <path d="M3.074-4.318c0.269-0.538,0.269-1.165,0-1.434C2.805-6.022,2.087-5.35,1.685-4.273C1.518-3.828,2.805-3.78,3.074-4.318z"/>
  <path d="M7.192-20.036c-0.493,0.493-0.244,0.464-0.065,0.642c0.327,0.326,0.181,0.071,0.888,0.188    c0.489,0.079,0.795-0.375,0.611-0.561C8.135-20.266,7.685-20.529,7.192-20.036z"/>
  <path d="M14.873-5.849c0.224,0.224,0.672,0.044,1.076-0.27c0.403-0.313,1.031-0.672,1.703-0.762    c0.673-0.09,0.538-0.403,0.538-0.897c0-0.492-0.044-0.583,0.18-0.985c0.224-0.403,0.538-0.898,0.896-0.898    c0.358,0,0.493-0.224,0.538-0.493c0.045-0.269-0.089-0.312-0.583-0.312c-0.493,0-0.307-0.082-0.538-0.358    c-0.224-0.27-0.269-0.27-0.717,0.045c-0.448,0.314-0.448,0.984-0.448,1.434c0,0.448-0.448,0.851-1.21,1.389    C15.545-7.418,14.648-6.073,14.873-5.849z"/>
  <path d="M13.232-4.92c0.314-0.27-0.065-0.697-0.449-0.314C12.515-4.965,12.918-4.651,13.232-4.92z"/>
  <path d="M18.621-19.454c-0.269,0.269,0.135,0.582,0.449,0.313C19.383-19.41,19.004-19.837,18.621-19.454z"/>
  <path d="M9.169-7.118c0.404-0.447,0.449-0.448,0.896-0.403c0.448,0.045,0.807-0.089,0.807-0.627c0-0.403,0.673-1.032,1.345-1.435    c0.672-0.403,0.941-0.582,0.807-1.076c-0.134-0.493-0.806-0.985-1.12-0.761c-0.314,0.224-1.434,2.33-2.42,2.868    C8.498-8.015,7.511-7.835,7.287-8.193C7.063-8.552,7.019-9.269,6.66-9.269c-0.358,0-0.403,0.448-0.583,0.762    C5.898-8.193,5.852-7.79,5.27-7.835C4.688-7.88,4.239-7.88,3.925-7.342C3.612-6.805,3.523-5.639,4.374-6.266    c0.852-0.628,2.062-1.839,2.645-1.256c0.582,0.583,0.761,1.569,1.03,1.569C8.318-5.952,8.766-6.67,9.169-7.118z"/>
  <path d="M20.75-21.349c0,0-0.484-0.239-0.782-0.074c-0.207,0.113-0.868,0.62-0.461,1.065c0.274,0.3,0.608,1.263,1.197,0.264    C20.962-20.531,21.242-21.349,20.75-21.349z"/>
  <path d="M17.09-13.705c0.628,0.628,1.254,0.449,1.344,0.135c0.09-0.314,1.255-0.044,1.748-0.358    c0.493-0.314,0.403-0.583,0.807-1.211c0.403-0.627,0.358-0.94,0.358-1.658c0-0.358,0.348-0.672,0.846-0.925h0.008    c0,0,0.764-0.255,0.969-0.621c0.204-0.367-0.011-0.741,0.25-1.043c0.414-0.481,1.146-1.256,1.684-0.986    c0,0,0.162,0.071,0.406-0.152c0.245-0.224,0.577-0.57,0.176-0.743c-0.46-0.2-2.051-0.537-2.454-0.357    c-0.403,0.18-0.798,1.253-0.753,1.746c0.028,0.308-0.262,0.774-0.262,0.774l-0.031,0.011c-0.189,0.123-0.387,0.327-0.613,0.684    c-0.627,0.986-1.159,0.597-2.914,0.046c-0.396-0.125-0.71,0.324-0.575,0.817c0.134,0.492,0.441,0.437,1.695,0.437    c1.255,0,1.076,0.851-0.044,2.062c-1.121,1.209-2.13-1.317-3.137-0.359C15.954-14.796,16.462-14.332,17.09-13.705z"/>
  <path d="M44.438-17.673l-0.078,0.037c-0.499,0.252-0.847,0.566-0.847,0.925c0,0.717,0.045,1.03-0.358,1.658    c-0.403,0.627-0.313,0.896-0.807,1.21c-0.493,0.314-1.658,0.045-1.747,0.358c-0.09,0.314-0.717,0.493-1.345-0.135    c-0.628-0.628-1.136-1.091-0.493-1.703c1.007-0.958,2.017,1.569,3.138,0.358c1.121-1.21,1.299-2.062,0.044-2.062    c-1.255,0-1.561,0.057-1.696-0.437c-0.134-0.494,0.18-0.942,0.576-0.818c1.755,0.553,2.286,0.941,2.913-0.044    c0.227-0.357,0.424-0.562,0.613-0.686l0.086-0.04"/>
  <path d="M25.493-18.318c0.18,0.313,0.492,0.745,0.805,0.879c0.314,0.135,2.234,1.272,0.702,2.618    c-0.364,0.319-0.249,0.198-0.608,0.468c-0.358,0.269-0.235,0.438,0,0.794c0.223,0.34,0.267,0.351,0.759,0.53    c0.493,0.179,0.313-0.673,0.359-1.345c0.045-0.672,1.255-1.075,1.658-1.569c0.403-0.492-0.045-0.941-0.807-0.985    c-0.762-0.045-0.538-0.403-0.404-0.718c0.135-0.313,0.269-0.179,0.404-0.582c0.134-0.403-0.135-0.18-0.672,0.044    c-0.538,0.225-0.403-0.179-0.403-0.762s-0.247-0.86,0.224-0.792c0.627,0.09,1.76-0.506,1.85-0.864    c0.09-0.358,0.305-0.666,1.111-0.397c0,0,0.237-0.109,0.403-0.045c0.43,0.167,0.681,0.561,0.995-0.065l0.298-0.043    c0.212-0.425,0.268-0.482-0.217-0.377c-0.485,0.107-0.666-0.121-0.849-0.317c-0.182-0.197-0.758-0.092-1.122,0.061    c-0.364,0.151-1.292,0.018-1.292,0.018c-0.493,0-1.463,0.694-1.806,1.089c-0.171,0.198-0.277,0.271-0.399,0.74    c-0.123,0.469-0.138,0.366-0.138,0.366C26.031-18.99,25.314-18.632,25.493-18.318z"/>
  <path d="M28.917-3.298c0.173,0,1.159-0.793,1.159-0.967c0-0.173-1.068-0.364-1.241-0.364c-0.173,0-0.884,0.346-0.884,0.518    C27.951-3.937,28.744-3.298,28.917-3.298z"/>
  <path d="M28.281-6.234c0.615,1.027,1.45,0.595,0.825-0.394C28.848-7.035,28.071-6.585,28.281-6.234z"/>
  <path d="M29.333-18.944c0.224,0.403,1.299,0.045,1.031-0.493C30.095-19.976,29.084-19.391,29.333-18.944z"/>
  <path d="M37.207-12.633c0.269-1.166,0-2.152-0.628-2.152c-0.627,0-0.672,0.494-0.493,0.941c0.18,0.448,0.134,0.538,0.09,1.121    v0.134c-0.044,0.314-0.135,0.449,0,0.718C36.311-11.602,36.938-11.468,37.207-12.633z"/>
  <path d="M37.254-9.036c0,0.403,1.3-0.045,1.973-0.941c0.672-0.896-0.583-0.896-1.345-0.717    C37.12-10.516,37.254-9.848,37.254-9.036z"/>
  <path d="M34.569-6.131c0.449-0.358,0.538-0.583,0.986-0.583c0.449,0,0.583,0.09,1.165-0.089s0.627-1.391-0.313-1.391    s-2.268,1.303-2.779,1.928C33.226-5.773,34.121-5.773,34.569-6.131z"/>
  <path d="M29.967-1.37c0.493-0.045,1.613-0.673,1.568-1.165c-0.045-0.493-0.179-0.538-0.941,0    C29.833-1.998,29.609-1.338,29.967-1.37z"/>
  <path d="M26.024-4.031c0.543-0.259,0.927-0.755,0.879-1.133C26.856-5.54,25.878-5.449,24.9-4.848    C24.495-4.598,25.482-3.772,26.024-4.031z"/>
  <path d="M37.672-4.882c0.224,0.224,0.672,0.045,1.076-0.27c0.403-0.313,1.031-0.672,1.703-0.762    c0.673-0.09,0.538-0.403,0.538-0.897c0-0.492-0.044-0.583,0.18-0.985c0.224-0.403,0.538-0.898,0.896-0.898    c0.358,0,0.493-0.224,0.538-0.493c0.045-0.269-0.089-0.312-0.583-0.312c-0.493,0-0.307-0.082-0.538-0.358    c-0.224-0.27-0.269-0.27-0.717,0.045c-0.448,0.313-0.448,0.984-0.448,1.434c0,0.448-0.448,0.852-1.21,1.389    C38.345-6.451,37.448-5.106,37.672-4.882z"/>
  <path d="M37.033-5.503c0.314-0.27-0.065-0.697-0.449-0.314C36.315-5.548,36.719-5.234,37.033-5.503z"/>
  <path d="M41.37-19.141c0.314-0.27-0.065-0.696-0.449-0.313C40.652-19.185,41.056-18.872,41.37-19.141z"/>
  <path d="M31.47-7.118c0.404-0.447,0.449-0.448,0.896-0.403c0.448,0.045,0.807-0.089,0.807-0.627c0-0.403,0.673-1.032,1.345-1.435    c0.672-0.403,0.941-0.582,0.807-1.076c-0.134-0.493-0.806-0.985-1.12-0.761c-0.314,0.224-1.434,2.33-2.42,2.868    c-0.986,0.537-1.972,0.717-2.196,0.358c-0.224-0.358-0.269-1.075-0.627-1.075c-0.358,0-0.403,0.448-0.583,0.762    c-0.179,0.313-0.225,0.717-0.807,0.672C26.988-7.88,26.54-7.88,26.226-7.342c-0.313,0.537-0.403,1.703,0.449,1.076    c0.852-0.628,2.062-1.839,2.645-1.256c0.583,0.583,0.761,1.569,1.03,1.569C30.618-5.952,31.066-6.67,31.47-7.118z"/>
  <path d="M39.146-2.659c0.538,0.045,0.672,0.135,1.21-0.135c0.538-0.269,0.493-0.313,0.986-0.269    c0.493,0.045,0.672,0.179,1.076-0.358c0.403-0.538,0.448-0.358,0.807-0.045c0.358,0.314,0.672,0.269,0.717,0.045    c0.045-0.224-0.403-0.807-0.583-0.985c-0.179-0.18-0.448-0.358,0.314-0.763c0,0,0.51,0.074,0.601-0.427    c0.091-0.5-0.287-1.379-0.788-0.94c-0.5,0.44-0.889,1.008-0.889,1.008c-1.006,1.109-1.03,1.613-1.299,1.658    c-0.269,0.045-0.418,0.36-0.717,0.18c-1.452-0.877-1.548-0.06-1.798,0.44S39.146-2.659,39.146-2.659z"/>
  <path d="M23.063-7.677c0.076,0.19,0.608,0.97,0.571,1.198c-0.038,0.228,1.199,0.152,1.313-0.076    c0.114-0.227-0.171-0.532-0.133-0.723c0.038-0.191,0.761-0.398,0.913-0.856c0.327-0.981,0.673-2.6,1.345-2.42s1.434,0.313,1.972,0    c0.538-0.314,0.494-0.538,1.031-0.448c0.538,0.09,1.703-0.09,2.196-0.359c0.493-0.268,0.716-0.403,0.761-0.762    c0.045-0.358,0.699-0.715,0.717-1.479c0.011-0.475,0.07-0.656,1.121-0.414c1.051,0.242-1.132-2.022-1.375-1.536    c-0.242,0.485-0.242,0.97-0.727,0.485c-0.485-0.485-0.323-0.809-0.728-0.728c-0.404,0.082-1.249,0.938-1.249,0.938    c-0.269,0.27-0.717,0.672-0.941,0.717c-0.224,0.045-0.718,0.448-0.538,0.717c0.18,0.27,0.628,0.628,1.255,0.045    c0.627-0.582,1.209-0.582,1.523-0.269c0.314,0.314,0.269,1.076-0.314,1.3c-0.583,0.224-1.434,0.762-1.927,0.314    c-0.493-0.449-0.673-0.674-0.941-0.404c-0.269,0.269-0.538,0.313-1.076,0.358c-0.538,0.046-1.748,0.225-2.062,0.628    c-0.313,0.402-1.254,0.582-1.254,0.851c0,0.27,0.493,0.537,0.672,0.672c0.18,0.135,0.314,0.403,0.135,0.717    c-0.179,0.314-0.448,1.21-1.165,1.076c-0.717-0.135-0.449-0.045-0.807,0.135C23.351-7.998,22.987-7.868,23.063-7.677z"/>
  <path d="M6.468-10.995c0.162,0.889,1.656,0.102,1.656,0.102c0.538,0.09,1.703-0.089,2.196-0.358    c0.493-0.268,0.716-0.403,0.762-0.762c0.045-0.358,0.761-0.717,0.717-1.479c-0.044-0.762-0.403-1.658-1.21-1.658    c-0.807,0-1.479,0.134-1.748,0.402c-0.269,0.27-0.717,0.673-0.941,0.718c-0.224,0.045-0.717,0.448-0.538,0.717    c0.18,0.269,0.627,0.628,1.255,0.045c0.627-0.582,1.21-0.582,1.523-0.269c0.314,0.313,0.269,1.075-0.314,1.3    c-0.582,0.224-1.34,0.63-1.927,0.313C7.231-12.284,6.306-11.886,6.468-10.995z"/>
  <path d="M3.352-8.076c0.327-0.98,0.673-2.6,1.345-2.419c0,0,0.376-0.472,0.134-0.795c-0.243-0.323,1.013-0.165,0.627-0.729    c-0.304-0.445-1.748,0.225-2.061,0.628c-0.314,0.402-1.255,0.582-1.255,0.852c0,0.269,0.493,0.537,0.672,0.672    c0.18,0.135,0.314,0.403,0.135,0.717C2.77-8.837,2.5-7.941,1.784-8.076C1.066-8.21,1.335-8.12,0.977-7.94    c0,0-0.364,0.13-0.288,0.321c0.076,0.189,0.609,0.97,0.571,1.198C1.221-6.193,2.458-6.269,2.572-6.497    C2.687-6.726,2.401-7.03,2.439-7.22C2.477-7.41,3.2-7.618,3.352-8.076z"/>
  <path d="M19.311-10.959c0.18,0.313,1.345-0.089,1.927-0.403c0.31-0.168,0.647-0.258,0.965-0.257l0.058,0.022    c0.116,0.076,0.36,0.13,0.797-0.441c0.583-0.763,0.896-1.256,1.434-1.256c0.538,0,0.807-0.358,0.627-0.896    c-0.179-0.538-1.067-1.362-0.934-1.587c0.134-0.225,1.262-1.013,0.799-1.569c-0.603-0.726-2.077-0.401-1.5,0.464    c0.179,0.267-0.189,1.438-0.234,1.573c-0.045,0.135,0.793,0.491,1.017,0.626c0.224,0.135,0.358,0.314,0.134,0.493    c-0.224,0.179-0.582,0.27-0.851,0.225c-0.269-0.046-0.583-0.225-0.762,0.224c-0.179,0.447-0.012,1.182-0.528,1.114l-0.028,0.008    c-0.12-0.083-0.279-0.211-0.413-0.312c-0.538-0.403-0.583,0.18-0.762,0.718c-0.179,0.538-0.414,0.543-0.717,0.448    C19.625-11.989,19.131-11.273,19.311-10.959z"/>
  <path d="M37.661,0c0.032-0.072,0.059-0.156,0.081-0.253c0.135-0.583,0.449-0.896,0.941-0.853c0.493,0.045,0.448,0.493,1.076,0.314    c0.628-0.18,1.569-0.763,1.927-0.494c0.359,0.27,0.717,0.539,0.986,0.091c0.25-0.417,1.08-0.834,1.593-0.818l0.172,0.015v0.88    l-0.156-0.014c-0.423-0.028-0.494,0.067-0.757,0.43c-0.358,0.493-1.703,0.449-2.465,0.493C40.784-0.193,40.583-0.12,40.445,0"/>
  <path d="M44.438-9.979l-0.094,0.073c-0.137,0.16-0.327,0.257-0.483,0.4c-0.583,0.538-0.587,0.734-0.192,0.893    c0.193,0.077,0.427,0.005,0.645-0.127l0.124-0.064"/>
  <path d="M20.61-8.263c0.192,0.077,0.427,0.006,0.645-0.127l0-0.02c0.277-0.176,0.525-0.443,0.623-0.615    c0,0,0.269,0.268,0.538,0.224c0.269-0.045,0.448-0.807,0.269-1.255c-0.179-0.447-0.538-0.134-0.538-0.134    c-0.258-0.259-0.539,0.133-0.893,0.572l-0.015-0.009c-0.137,0.161-0.282,0.328-0.438,0.472C20.219-8.617,20.215-8.421,20.61-8.263    z"/>
  <path d="M35.736-16.215c0.941-0.18,2.375-0.271,2.913-0.674c0.538-0.402,1.062-2.15,1.076-2.599    c0.01-0.344,0.186-0.581,0.111-0.823c-0.076-0.242-1.893-0.422-2.096-0.369h-0.076c0-0.49-0.415-0.566-0.415-0.566    c-0.645,0.146-1.28-0.793-1.577-0.789c-0.673,0.011-1.076,0.628-0.896,1.076c0,0-0.124,0.247,0.401,0.544    c0.479,0.271,0.899,0.721,1.378,0.409l0.333-0.104c0.874,0.125,0.134,0.949,0.717,0.725c0.583-0.224,1.626-0.371,1.492,0.167    c-0.135,0.538-1.165,1.703-1.748,1.748c-0.583,0.045-1.106-0.167-1.322-0.274c-0.333-0.168-0.773-0.168-1.099-0.174    c-0.386-0.007-1.076-0.487-0.538-0.621c0.538-0.135,0.852,0.045,0.852-0.27c0-0.313-0.089-0.313-0.358-0.447    c-0.269-0.135-0.27-0.134-0.404-0.315c-0.134-0.179-0.358-0.224-0.672-0.224s-0.314,0.044-0.628-0.224    c-0.314-0.269-0.711-0.269-0.935,0.224c-0.224,0.493-0.051,0.801,0.487,0.756c0.538-0.046,0.807,0,0.807,0.358    s-0.224,1.031-0.941,0.807c-0.717-0.224-0.986-0.717-1.434-0.627c-0.448,0.09-0.493,0.448-0.134,1.165    c0.251,0.502,0.403,1.166,1.165,0.627c0.762-0.538,1.032-1.076,1.659-0.896c0.627,0.18,0.762,0.358,0.941,0.808    C34.974-16.351,34.795-16.036,35.736-16.215z"/>
  <path d="M42.276-20.826c0.274,0.299,0.608,1.262,1.197,0.263c0.257-0.436,0.538-1.255,0.045-1.255c0,0-0.484-0.238-0.782-0.074    C42.53-21.777,41.869-21.271,42.276-20.826z"/>
  <path d="M9.9-44.438l-0.027,0.076c-0.126,0.228-0.232,0.456-0.324,0.639c-0.314,0.627-1.049-0.013-1.479-0.18    c-0.166-0.063-0.403,0.046-0.403,0.046c-0.807-0.27-0.852,0.582-0.941,0.941c-0.09,0.358-0.672,0.403-1.3,0.312    c-0.472-0.067-0.224,0.209-0.224,0.793c0,0.583-0.134,0.986,0.404,0.762c0.538-0.225,0.807-0.448,0.672-0.045    c-0.134,0.403-0.269,0.27-0.403,0.583c-0.135,0.313-0.359,0.673,0.403,0.717c0.762,0.045,1.21,0.494,0.807,0.986    c-0.403,0.493-1.613,0.896-1.658,1.568c-0.045,0.673,0.134,1.524-0.358,1.345c-0.493-0.18-0.536-0.19-0.759-0.529    c-0.235-0.357-0.359-0.525,0-0.795c0.358-0.269,0.243-0.147,0.607-0.468c1.533-1.346-0.388-2.482-0.701-2.617    c-0.313-0.134-0.626-0.566-0.805-0.879c-0.18-0.313,0.538-0.672,0.852-1.255c0,0,0.016,0.102,0.138-0.366    c0.122-0.47,0.229-0.543,0.4-0.741c0.342-0.395,0.762-0.537,1.255-0.537c0.458,0,0.569-0.098,0.88-0.259l0.084-0.098"/>
  <path d="M12.088-37.741c-0.448,0.313-0.403,1.479,0.314,0.717l0.045-0.115C12.492-37.543,12.536-38.056,12.088-37.741z"/>
  <path d="M3.898-37.998c0.226-0.337,0.502-0.771-0.041-0.7c-0.542,0.072-1.039,1.127-0.051,0.782L3.898-37.998z"/>
  <path d="M4.032-25.894c0.224,0.404,1.299,0.046,1.031-0.492C4.794-26.924,3.783-26.34,4.032-25.894z"/>
  <path d="M15.516-36.056c-0.973-0.696-1.985-0.828-2.227-0.248c-0.242,0.578-0.114,1.234,0.368,1.241    c0.482,0.007,0.858-0.341,1.379-0.076l0.124,0.053c0.272,0.161-0.365-0.518-0.065-0.539    C15.394-35.645,16.486-35.357,15.516-36.056z"/>
  <path d="M17.344-32.047c-0.719-0.109-0.484-1.172-0.379-1.362c0.543-0.98-0.563-0.689-1.345-0.718    c-2.224-0.079-1.198,1.799-0.058,1.096c0.599-0.369,0.844,1.031,0.219,1.422s1.438,1.422,1.984,0.953    C18.312-31.125,18.062-31.938,17.344-32.047z"/>
  <path d="M11.328-28.557c-0.403,0.492,0.493,0.492,0.941,0.134c0.449-0.358,0.538-0.582,0.986-0.582c0.449,0,0.583,0.09,1.165-0.09    c0.583-0.179,0.628-1.39-0.313-1.39C13.166-30.484,11.839-29.182,11.328-28.557z"/>
  <path d="M2.506-26.326c0.269-0.538,0.269-1.165,0-1.434c-0.269-0.269-0.986,0.403-1.389,1.479    C0.95-25.836,2.237-25.788,2.506-26.326z"/>
  <path d="M8.627-42.059c-0.491-0.498-0.941-0.762-1.435-0.268c-0.493,0.492-0.244,0.463-0.065,0.642    c0.327,0.326,0.181,0.071,0.888,0.187C8.504-41.419,8.81-41.872,8.627-42.059z"/>
  <path d="M21.234-27.413c0.327,0.327,0.181,0.072,0.888,0.186c0.489,0.08,0.795-0.374,0.611-0.559    c-0.491-0.499-0.941-0.762-1.435-0.27C20.807-27.562,21.056-27.592,21.234-27.413z"/>
  <path d="M14.732-27.795c0.314-0.27-0.065-0.696-0.449-0.313C14.015-27.84,14.418-27.526,14.732-27.795z"/>
  <path d="M20.746-41.745c-0.269,0.268,0.135,0.582,0.449,0.313C21.508-41.701,21.129-42.129,20.746-41.745z"/>
  <path d="M13.024-32.95c-0.134-0.493-0.806-0.985-1.12-0.762c-0.314,0.224-1.434,2.331-2.42,2.868    c-0.986,0.537-1.972,0.717-2.196,0.358C7.063-30.844,7.019-31.56,6.66-31.56c-0.358,0-0.403,0.448-0.583,0.763    c-0.18,0.312-0.225,0.717-0.807,0.671c-0.582-0.045-1.031-0.044-1.345,0.493c-0.313,0.538-0.403,1.703,0.449,1.076    c0.852-0.628,2.062-1.839,2.645-1.256c0.582,0.583,0.761,1.569,1.03,1.569c0.269,0,0.717-0.717,1.121-1.165    c0.404-0.448,0.449-0.448,0.896-0.404c0.448,0.045,0.807-0.089,0.807-0.626c0-0.404,0.673-1.032,1.345-1.434    C12.89-32.277,13.159-32.457,13.024-32.95z"/>
  <path d="M18.585-30.156c-1.006,1.109-1.031,1.613-1.3,1.658c-0.269,0.045-0.493-0.089-0.717,0.18    c-0.224,0.269-0.09,0.179-0.807,0.045c-0.717-0.136,0.172,1.285-0.456,1.779c-0.628,0.492-0.941,0.538-1.165,0.134    c-0.224-0.403-0.358-0.941-1.075-0.313c-0.718,0.627-0.986,0.718-1.39,0.313c-0.404-0.403-1.076-1.3-1.838-1.166    c-0.762,0.136-0.582,0.225-0.582,0.538c0,0.315,0.538,0.763,1.165,0.763c0.627,0,1.21,1.031,0.583,1.569    c-0.627,0.537-1.185,0.433-1.816,0.547c-0.19,0.035-0.54-0.318-0.609-0.422c-0.069-0.104-0.461,0.062-0.531,0.219    c-0.07,0.156,0.067,0.777,0.638,0.863c0.571,0.087,0.958,0.414,1.217-0.157c0.26-0.571,1.362-0.393,1.505-0.379    c0.857,0.089,0.852,0.225,0.986,0.358c0.135,0.136,0.493,0.225,0.762-0.492c0.269-0.717,0.314-1.165,1.121-1.12    c0.807,0.045,1.21,0.179,1.569-0.225c0.358-0.403,0.403-0.493,0.941-0.448c0.538,0.045-0.979-1.241-0.441-1.511    c0.538-0.269,0.493-0.313,0.986-0.269c0.493,0.045,0.673,0.179,1.076-0.358c0.403-0.538,0.448-0.358,0.807-0.045    c0.358,0.313,0.672,0.268,0.717,0.045c0.045-0.224-0.404-0.807-0.583-0.985c-0.179-0.18-0.449-0.358,0.313-0.763    c0,0,0.705-0.157,0.458-0.385c-0.248-0.229,0.476-0.533,0.171-0.686C20.008-30.855,19.267-30.908,18.585-30.156z"/>
  <path d="M16.49-21.139c0.522,0.027,0.987-0.018,1.076-0.219c0.109-0.245,0.185-0.558,0.4-0.775l0.127-0.14    c0.138-0.142-0.201-0.502,0.1-0.52c0.762-0.044,2.172,0.042,2.465-0.493c0.07-0.126,0.067-0.523,0.498-0.73    c0.432-0.208,1.348-1.487,0.332-1.914c-2.608-1.096-1.413,1.703-1.682,2.152c-0.269,0.448-0.627,0.179-0.986-0.091    c-0.358-0.268-0.749,0.59-1.377,0.77c-0.628,0.179-0.583-0.27-1.076-0.314c-0.493-0.044-0.807,0.269-0.942,0.853    c-0.026,0.115-0.059,0.212-0.098,0.292l-0.153,0.14c-0.159,0.312-0.439-0.199-0.971-0.199c-0.672,0-1.076,0.627-0.896,1.076    c0,0,0.403,0.358,0.852-0.045c0.448-0.404,0.037-0.278,0.664-0.1l0.182,0.031c1.212,0.226,0.275,1.651,0.857,1.428    s1.076,0.179,0.941,0.718c-0.134,0.538-1.165,1.702-1.747,1.747c-0.583,0.046-1.166-0.179-1.255-0.403    c-0.09-0.224-0.134-0.179,0.179-0.447c0.313-0.27,0.313-0.359,0.089-0.538c-0.224-0.18-0.627,0.089-0.717,0.492    c-0.089,0.404-0.403,0.673-0.717,0.449c-0.314-0.224-1.626-1.862-1.088-1.998c0.538-0.134,0.851,0.045,0.851-0.269    c0-0.313-0.089-0.313-0.358-0.448c-0.269-0.134-0.269-0.134-0.403-0.313c-0.134-0.179-0.359-0.225-0.672-0.225    c-0.313,0-0.314,0.045-0.627-0.224c-0.314-0.269-0.986-0.269-1.21,0.224c-0.224,0.493,0.224,1.076,0.762,1.031    c0.538-0.045,1.357,1.101,1.357,1.46c0,0.358-0.224,1.03-0.941,0.806c-0.717-0.224-0.986-0.717-1.434-0.627    c-0.448,0.09-0.493,0.448-0.135,1.166c0.251,0.502,0.403,1.165,1.165,0.627c0.762-0.538,1.032-1.076,1.659-0.896    c0.627,0.18,0.762,0.358,0.941,0.807c0.179,0.448,0,0.762,0.941,0.583c0.941-0.18,2.375-0.269,2.914-0.673    c0.538-0.403,1.061-2.15,1.076-2.6c0.01-0.343,0.187-0.58,0.111-0.822c-0.076-0.243-0.197-0.319-0.4-0.266    C16.57-20.43,15.9-21.077,16.49-21.139"/>
  <polyline points="16.49,-21.139 16.491,-21.139 16.488,-21.139 16.49,-21.139   "/>
  <path d="M12.872-41.355c0-0.313-0.09-0.313-0.359-0.447c-0.269-0.136-0.269-0.135-0.403-0.313    c-0.134-0.181-0.358-0.225-0.672-0.225c-0.314,0-0.314,0.044-0.627-0.225c-0.313-0.269-0.986-0.27-1.21,0.225    c-0.224,0.493,0.225,1.076,0.762,1.03c0.537-0.045,0.806,0,0.806,0.358c0,0.358-0.224,1.031-0.941,0.808    c-0.717-0.225-0.986-0.717-1.434-0.628c-0.448,0.09-0.493,0.448-0.135,1.166c0.252,0.502,0.403,1.165,1.165,0.627    c0.762-0.538,1.031-1.076,1.659-0.896c0,0,0.753-0.389,0.45-0.752c-0.303-0.364-0.31-0.37,0.088-0.458    C12.561-41.206,12.872-41.042,12.872-41.355z"/>
  <polyline points="16.547,-43.424 16.547,-43.424 16.544,-43.424 16.547,-43.424   "/>
  <path d="M16.547-43.424c0.309,0.022,0.4-0.282,0.324-0.418c-0.248-0.445-2.611-0.204-2.611-0.204    c-0.672,0-1.076,0.627-0.896,1.076c0,0,0.403,0.358,0.852-0.045c0.448-0.404,0.037-0.846,0.664-0.667l0.182,0.03    c1.213,0.228,0.275,1.653,0.857,1.429c0.583-0.224,1.076,0.179,0.941,0.717c-0.134,0.538-1.165,1.704-1.748,1.749    c-0.582,0.045-1.165-0.18-1.255-0.403c-0.09-0.225-0.134-0.18,0.179-0.449c0.313-0.268,0.313-0.358,0.09-0.538    c-0.224-0.179-0.628,0.09-0.717,0.494c0,0-1.464,2.313-0.07,2.192l0.159-0.041c0.941-0.18,2.375-0.27,2.914-0.673    c0.538-0.402,1.062-2.15,1.076-2.599c0.01-0.345,0.186-0.581,0.111-0.824c-0.076-0.242-0.197-0.317-0.4-0.266    C16.626-42.715,15.956-43.363,16.547-43.424"/>
  <path d="M19.958-44.141c0,0-0.484-0.239-0.782-0.074c-0.207,0.114-0.868,0.621-0.461,1.066c0.274,0.299,0.608,1.262,1.197,0.263    C20.17-43.322,20.451-44.141,19.958-44.141z"/>
  <path d="M25.193-43.625c-0.459-0.198-0.633-0.536-1.036-0.356c-0.403,0.18-1.623,1.253-1.579,1.746    c0.028,0.308-0.262,0.775-0.262,0.775l-0.172,0.113c-0.189,0.124-0.387,0.328-0.613,0.685c-0.627,0.986-1.158,0.597-2.913,0.045    c-0.396-0.125-0.71,0.324-0.576,0.817c0.135,0.493,0.441,0.437,1.696,0.437c1.254,0,1.076,0.853-0.045,2.062    c-1.121,1.21-2.131-1.317-3.138-0.358c-0.643,0.612-0.134,1.075,0.493,1.703c0.628,0.627,1.255,0.448,1.345,0.134    c0.09-0.313,1.254-0.044,1.748-0.358c0.493-0.313,0.404-0.582,0.807-1.21c0.403-0.627,0.358-0.94,0.358-1.658    c0-0.358,0.348-0.673,0.847-0.925l0.149-0.103c0,0,0.764-0.255,0.968-0.621c0.204-0.367-0.01-0.741,0.25-1.044    c0.414-0.479,0.553-1.255,1.091-0.985c0,0,0.162,0.072,0.407-0.152C25.261-43.105,25.593-43.452,25.193-43.625z"/>
  <path d="M32.025-44.438l-0.061,0.097c-0.126,0.229-0.233,0.456-0.324,0.639c-0.313,0.628-1.049-0.012-1.479-0.179    c-0.166-0.064-0.403,0.045-0.403,0.045c-0.807-0.269-0.851,0.583-0.941,0.941c-0.09,0.358-0.672,0.403-1.3,0.313    c-0.472-0.067-0.224,0.209-0.224,0.792s-0.134,0.986,0.404,0.762c0.538-0.224,0.807-0.448,0.672-0.045    c-0.134,0.404-0.269,0.271-0.403,0.583c-0.135,0.313-0.359,0.674,0.403,0.718c0.762,0.044,1.209,0.493,0.807,0.986    c-0.403,0.492-1.613,0.896-1.658,1.568c-0.045,0.672,0.134,1.524-0.358,1.345c-0.493-0.18-0.536-0.19-0.759-0.53    c-0.235-0.357-0.359-0.524,0-0.794c0.358-0.269,0.243-0.147,0.607-0.468c1.533-1.347-0.388-2.483-0.701-2.617    c-0.314-0.135-0.626-0.566-0.805-0.88c-0.18-0.314,0.538-0.672,0.852-1.255c0,0,0.016,0.103,0.138-0.366    c0.122-0.47,0.229-0.542,0.4-0.74c0.342-0.396,0.762-0.538,1.255-0.538c0.458,0,0.645-0.115,0.956-0.275l0.076-0.102"/>
  <path d="M35.243-37.527c-0.448,0.312-0.403,1.479,0.314,0.717l0.045-0.115C35.646-37.328,35.691-37.841,35.243-37.527z"/>
  <path d="M26.106-37.916l0.092-0.082c0.226-0.337,0.502-0.771-0.041-0.7C25.616-38.626,25.118-37.571,26.106-37.916z"/>
  <path d="M28.609-28.169c-0.269-0.538-1.279,0.046-1.031,0.492C27.802-27.272,28.877-27.631,28.609-28.169z"/>
  <path d="M37.768-34.931c-0.562-1.056-1.244-1.341-1.718-0.929c-0.474,0.411-0.618,0.717-0.189,0.938    c0.43,0.22,0.455,0.318,0.804,0.787l0.088,0.102c0.172,0.265,0.118-0.391,0.396-0.276C37.426-34.194,38.329-33.874,37.768-34.931z    "/>
  <path d="M37.882-32.986c-0.762,0.18-0.628,0.847-0.628,1.659c0,0.403,1.3-0.046,1.973-0.941    C39.899-33.166,38.644-33.165,37.882-32.986z"/>
  <path d="M34.569-28.423c0.449-0.358,0.538-0.582,0.986-0.582c0.449,0,0.583,0.09,1.165-0.09c0.583-0.179,0.627-1.39-0.313-1.39    s-2.268,1.303-2.779,1.928C33.226-28.065,34.121-28.065,34.569-28.423z"/>
  <path d="M29.245-25.96c-0.045-0.493-0.274-0.858-1.036-0.32s-0.298,1.036,0.059,1.003C28.761-25.322,29.29-25.467,29.245-25.96z"/>
  <path d="M25.374-28.044c-0.269-0.27-0.986,0.403-1.389,1.479c-0.167,0.446,1.12,0.493,1.389-0.045    C25.643-27.147,25.643-27.774,25.374-28.044z"/>
  <path d="M41.086-32.335c-0.448,0.314-0.448,0.986-0.448,1.435c0,0.448-0.448,0.852-1.21,1.39    c-0.762,0.537-1.658,1.883-1.434,2.106c0.224,0.224,0.672,0.044,1.076-0.269c0.403-0.314,1.031-0.672,1.703-0.762    c0.673-0.09,0.538-0.403,0.538-0.897c0-0.492-0.045-0.583,0.18-0.986c0.224-0.403,0.538-0.896,0.896-0.896    s0.493-0.224,0.538-0.492c0.045-0.27-0.089-0.314-0.583-0.314c-0.493,0-0.307-0.081-0.538-0.358    C41.579-32.648,41.534-32.648,41.086-32.335z"/>
  <path d="M37.033-27.795c0.314-0.27-0.065-0.696-0.449-0.313C36.315-27.84,36.719-27.526,37.033-27.795z"/>
  <path d="M40.921-41.745c-0.269,0.268,0.135,0.582,0.449,0.313C41.684-41.701,41.304-42.129,40.921-41.745z"/>
  <path d="M34.204-33.712c-0.314,0.224-1.434,2.331-2.42,2.868c-0.986,0.537-1.972,0.717-2.196,0.358    c-0.224-0.358-0.269-1.075-0.627-1.075c-0.358,0-0.403,0.448-0.583,0.763c-0.179,0.312-0.225,0.717-0.807,0.671    c-0.582-0.045-1.031-0.044-1.345,0.493c-0.313,0.538-0.403,1.703,0.449,1.076c0.852-0.628,2.062-1.839,2.645-1.256    c0.583,0.583,0.761,1.569,1.03,1.569c0.269,0,0.717-0.717,1.121-1.165c0.404-0.448,0.449-0.448,0.896-0.404    c0.448,0.045,0.807-0.089,0.807-0.626c0-0.404,0.673-1.032,1.345-1.434c0.672-0.403,0.941-0.583,0.807-1.076    C35.19-33.443,34.518-33.936,34.204-33.712z"/>
  <path d="M38.043-24.81c0.358-0.403,0.403-0.493,0.941-0.449c0.538,0.046,0.673,0.136,1.21-0.134    c0.538-0.269,0.493-0.313,0.986-0.269c0.493,0.045,0.673,0.18,1.076-0.358c0.403-0.537,0.448-0.358,0.807-0.044    c0.358,0.313,0.672,0.267,0.717,0.044c0.045-0.224-0.404-0.806-0.583-0.985c-0.179-0.18-0.449-0.358,0.313-0.762    c0,0-0.395-1.11-1.076-0.358c-1.006,1.109-1.031,1.612-1.3,1.658c-0.269,0.045-0.493-0.089-0.717,0.179    c-0.224,0.269-0.09,0.18-0.807,0.045c-0.717-0.135-1.479-0.09-2.107,0.403c-0.628,0.493-0.941,0.538-1.165,0.135    c-0.224-0.403-0.358-0.941-1.076-0.314c-0.718,0.628-0.986,0.718-1.39,0.314c-0.403-0.403-1.076-2.151-1.838-2.017    c-0.761,0.134-0.582,0.225-0.582,0.538c0,1.047,0.539,0.762,1.165,0.762c0.628,0,1.211,1.882,0.583,2.42l-0.034,0.017    c-0.576,0.728,0.437,0.655,0.437,0.655c0.852,0.135,0.852,0.225,0.986,0.358c0.134,0.135,0.493,0.225,0.762-0.492    c0.269-0.718,0.314-1.165,1.121-1.12C37.281-24.542,37.685-24.408,38.043-24.81z"/>
  <path d="M30.774-37.139c-0.269,0.269-1.268-0.154-1.492-0.108c-0.224,0.045-0.717,0.448-0.538,0.717    c0.18,0.27,0.628,0.628,1.255,0.045c0,0,0.431-0.222,0.245,0.632c-0.065,0.303,0.833-0.002,1.455-0.485    c0.995-0.772,1.09,2.449,0.06,1.71c-0.506-0.364-1.434,0.763-1.927,0.314c-0.493-0.449-0.673-0.674-0.942-0.404    c-0.268,0.27-0.538,0.313-1.076,0.358c-0.538,0.046-1.748,0.225-2.061,0.628c-0.314,0.402-1.255,0.583-1.255,0.851    c0,0.27,0.493,0.537,0.672,0.672c0.179,0.135,0.313,0.403,0.134,0.718c-0.179,0.313-0.448,1.209-1.165,1.075    c-0.717-0.135-0.449-0.045-0.807,0.135c0,0-0.364,0.13-0.288,0.321c0.077,0.19,0.609,0.97,0.571,1.198    c-0.038,0.229,1.199,0.152,1.313-0.075c0.114-0.228-0.171-0.533-0.133-0.724c0.038-0.191,0.761-0.399,0.913-0.856    c0.326-0.981,0.672-2.6,1.345-2.42c0.672,0.18,1.434,0.313,1.972,0c0.538-0.313,0.493-0.538,1.031-0.448    c0.538,0.09,1.703-0.09,2.196-0.359c0.493-0.269,0.717-0.403,0.762-0.762c0.045-0.358,0.762-0.717,0.717-1.479    c-0.045-0.763-0.404-1.659-1.21-1.659C31.715-37.543,31.043-37.407,30.774-37.139z"/>
  <path d="M7.145-36.861c-0.224,0.044-0.717,0.447-0.538,0.717c0.18,0.269,0.627,0.627,1.255,0.044c0,0,3.263-1.307,1.972-1.882    c-0.737-0.328-1.479,0.135-1.748,0.403C7.817-37.311,7.369-36.907,7.145-36.861z"/>
  <path d="M44.438-34.884c-0.054,0.032-0.123,0.045-0.214,0.033l-0.018,0.015c-0.12-0.084-0.278-0.212-0.413-0.312    c-0.538-0.403-0.583,0.18-0.762,0.717c-0.18,0.538-0.415,0.543-0.717,0.449c-0.717-0.225-1.21,0.492-1.03,0.806    c0.179,0.313,1.344-0.089,1.927-0.403c0.311-0.167,0.647-0.258,0.965-0.256l0.048,0.017c0.048,0.031,0.118,0.059,0.214,0.04"/>
  <path d="M24.493-35.585c0.538,0,0.807-0.358,0.627-0.896c-0.179-0.537-1.067-1.362-0.934-1.587    c0.134-0.224,1.262-1.012,0.799-1.568c-0.603-0.726-2.077-0.401-1.5,0.463c0.179,0.269-0.189,1.438-0.234,1.573    c-0.045,0.135,0.793,0.492,1.017,0.627c0.224,0.134,0.358,0.313,0.134,0.492c-0.224,0.18-0.582,0.27-0.851,0.225    c-0.269-0.045-0.583-0.225-0.762,0.224c-0.179,0.448-0.012,1.182-0.528,1.114l-0.028,0.009c-0.12-0.084-0.279-0.212-0.413-0.312    c-0.538-0.403-0.583,0.18-0.762,0.718c-0.179,0.538-0.414,0.543-0.717,0.448c-0.717-0.225-1.211,0.492-1.031,0.806    c0.18,0.314,1.345-0.089,1.927-0.402c0.31-0.168,0.647-0.258,0.965-0.257l0.058,0.022c0.116,0.076,0.36,0.129,0.797-0.442    C23.642-35.092,23.955-35.585,24.493-35.585z"/>
  <path d="M44.438-24.271l-0.215-0.014c-0.493-0.091-1.435,0.358-1.703,0.807c-0.269,0.448-0.628,0.179-0.986-0.09    c0,0-2.192-0.729-3.163-0.388c-1.897,0.669,0.861,2.991,0.849,2.183c-0.031-2.117,2.75-0.925,3.296-0.804    c0.545,0.122,0.856-0.408,0.856-0.408c0.294-0.404,0.347-0.478,0.917-0.417l0.149,0.011"/>
  <path d="M25.542-24.759c-0.31-0.525-2.412-0.535-2.759,0.222c-0.135,0.29,0.051,0.506,0.009,0.952    c-0.042,0.445,0.612,1.141,0.91,0.854c0.297-0.288,0.66-2.03,1.948-1.432c0.481,0.223,1.251,1.537,1.771,1.272    c0.521-0.266,0.994-0.04,1.334,0.172c0.34,0.213,1.502-0.36,1.953-0.363c0,0,0.568,0.204,0.541-0.06    c-0.027-0.264-0.661-1.464-0.213-1.42c0.447,0.043,0.908,0.321,0.677-0.174c-0.202-0.434-0.132-0.509-0.578-0.551    c0,0-0.167-0.151-0.735,0.154c-0.569,0.306-2.29,1.633-2.612,1.241c-0.323-0.392-0.594-0.867-1.024-0.594    C26.332-24.21,25.852-24.234,25.542-24.759z"/>
  <path d="M23.415-31.593c0.269-0.044,0.448-0.806,0.269-1.254c-0.179-0.448-0.538-0.135-0.538-0.135    c-0.258-0.258-0.539,0.134-0.893,0.573l-0.015-0.009c-0.137,0.16-0.282,0.327-0.438,0.471c-0.583,0.538-0.587,0.734-0.192,0.893    c0.192,0.076,0.427,0.005,0.645-0.128l0-0.02c0.277-0.176,0.525-0.442,0.623-0.615C22.877-31.816,23.146-31.548,23.415-31.593z"/>
  <path d="M38.924-43.268c0.522,0.027,0.986-0.018,1.076-0.218c0.109-0.246,0.185-0.558,0.4-0.775l0.008-0.13    c0.016-0.017,0.033-0.032,0.051-0.047"/>
  <path d="M38.924-43.268c-0.59,0.062,0.08,0.71,0.652,0.562c0.203-0.053,0.324,0.024,0.399,0.266    c0.076,0.242-0.329,0.558-0.111,0.823c0.317,0.386-0.62,0.948-0.627,0.269c-0.006-0.555-0.358-0.941-0.941-0.717    c-0.583,0.224,0.355-1.202-0.857-1.429l-0.182-0.03c-0.628-0.179-0.216,0.263-0.664,0.666c-0.448,0.403-0.852,0.044-0.852,0.044    c-0.18-0.447,0.223-1.075,0.896-1.075c0.532,0,0.812-0.056,0.971-0.367l0.034-0.13c0.008-0.017,0.015-0.033,0.023-0.051"/>
  <polyline points="38.924,-43.268 38.925,-43.268 38.922,-43.268 38.924,-43.268   "/>
  <path d="M31.957-42.334c-0.224,0.494,0.225,1.077,0.762,1.032c0.538-0.046,0.807,0,0.807,0.358c0,0.358-0.224,1.03-0.941,0.807    c-0.717-0.225-0.986-0.717-1.435-0.628c-0.448,0.09-0.493,0.448-0.134,1.166c0.251,0.502,0.403,1.165,1.165,0.627    c0.762-0.538,1.032-1.076,1.659-0.896c0.627,0.18,0.762,0.357,0.941,0.807c0.179,0.448,0.147,1.119,0.941,0.583    c0.329-0.223,1.368-0.262,2.156,0.102c0.788,0.363,1.334-0.728,1.031-1.516c-0.303-0.788-0.909-0.909-1.395-0.425    c-0.485,0.485-0.97,0.485-1.434,0.181c-0.202-0.133-0.134-0.18,0.18-0.448c0.313-0.27,0.313-0.359,0.089-0.538    c-0.224-0.179-0.627,0.089-0.717,0.492c-0.09,0.404-0.403,0.674-0.717,0.449c-0.314-0.225-1.076-0.762-0.538-0.896    c0.538-0.135,0.852,0.044,0.852-0.27c0-0.312-0.089-0.312-0.358-0.447c-0.269-0.135-0.27-0.134-0.404-0.315    c-0.134-0.18-0.358-0.225-0.672-0.225s-0.314,0.045-0.627-0.224C32.854-42.826,32.181-42.827,31.957-42.334z"/>
  <path d="M43.05-43.641c0,0-0.484-0.239-0.782-0.074c-0.207,0.114-0.868,0.621-0.461,1.066c0.274,0.299,0.608,1.262,1.197,0.263    C43.262-42.822,43.542-43.641,43.05-43.641z"/>
  <path d="M5.545-34.338c-0.538,0.045-1.748,0.225-2.062,0.628c-0.314,0.403-1.255,0.583-1.255,0.852    c0,0.269,0.493,0.537,0.672,0.672c0.18,0.135,0.314,0.403,0.135,0.718c-0.179,0.313-0.448,1.209-1.165,1.075    c-0.717-0.134-0.449-0.046-0.807,0.134c0,0-0.364,0.132-0.288,0.321c0.076,0.191,0.609,0.971,0.571,1.199    c-0.038,0.229,1.199,0.152,1.313-0.076c0.114-0.229-0.171-0.532-0.133-0.724c0.038-0.189,0.761-0.397,0.913-0.854    c0.327-0.981,0.673-2.6,1.345-2.421c0.672,0.18,1.434,0.313,1.972,0c0.538-0.312,0.494-0.537,1.031-0.447    c0.538,0.089,1.703-0.09,2.196-0.358c0.493-0.27,0.611-0.435,0.762-0.763c0.411-0.895,0.802-1.772-0.25-1.691    c-1.051,0.081-0.97,1.293-0.97,1.293L9.49-34.606c-0.583,0.224-1.434,0.763-1.927,0.313c-0.493-0.448-0.673-0.672-0.941-0.403    C6.352-34.427,6.083-34.383,5.545-34.338z"/>
  <path d="M44.438-41.339c-0.052-0.045-0.104-0.092-0.141-0.099c-0.078-0.016-0.136,0.09-0.136,0.09    c-0.189,0.124-0.387,0.328-0.613,0.685c-0.627,0.986-1.158,0.597-2.913,0.045c-0.396-0.125-0.71,0.324-0.576,0.817    c0.135,0.493,0.441,0.437,1.696,0.437c1.254,0,1.076,0.853-0.045,2.062c-1.121,1.21-2.131-1.317-3.138-0.358    c-0.643,0.612-0.134,1.075,0.493,1.703c0.628,0.627,1.255,0.448,1.345,0.134c0.09-0.313-1.016,3.523,1.748-0.358    c0.339-0.476,0.404-0.582,0.807-1.21c0.403-0.627,0.358-0.94,0.358-1.658c0-0.358,0.348-0.673,0.847-0.925    c0,0,0.149-0.126,0.268-0.134"/>
  <path d="M44.438-32.216c-0.251,0.097-0.548,0.192-0.642,0.278c-0.582,0.538-0.587,0.734-0.192,0.893    c0.134,0.054,0.531,0.021,0.833-0.05"/>
  <path d="M44.438-12.543l-0.138-0.017c-0.12-0.083-0.278-0.212-0.413-0.312c-0.538-0.403-0.583,0.18-0.762,0.718    s-0.415,0.543-0.717,0.448c-0.717-0.225-1.21,0.493-1.03,0.807c0.179,0.314,1.344-0.09,1.927-0.404    c0.311-0.167,0.647-0.257,0.965-0.256l0.168,0.037"/>
  <path d="M0-17.663l0.162-0.076c0,0,0.764-0.255,0.968-0.622c0.204-0.366-0.01-0.741,0.25-1.043c0.414-0.48,1.12-1.256,1.658-0.986    c0,0,0.162,0.072,0.407-0.152c0.244-0.224,0.576-0.57,0.176-0.743c-0.46-0.199-1.2-0.537-1.603-0.358    c-0.403,0.18-1.623,1.253-1.579,1.746c0.028,0.308-0.262,0.774-0.262,0.774L0-19.04"/>
  <path d="M3.895-0.818C4.252-0.636,4.747-1.177,5.24-0.863c0.493,0.315,1.39-0.358,1.585-0.851c0.195-0.492,0.97-0.134,1.239,0.18    C8.333-1.222,9.05-1.849,9.05-2.298c0-0.447-0.582-0.582-0.941-0.627C7.75-2.97,7.347-2.79,6.988-2.298    C6.629-1.805,6.45-2.073,6.047-2.387C5.644-2.7,5.33-2.252,4.971-1.894c0,0-0.043-0.294-0.376-0.378    C4.261-2.355,3.071-1.239,3.895-0.818z"/>
  <path d="M0-1.12l0.141,0.013c0.093,0.012,0.199,0.026,0.318,0.043c0.985,0.134,0.826-0.585,1.3-0.538c0,0,1.283-0.484,0.933-0.645    C2.513-2.33,2.341-2.409,2.207-2.499C1.669-2.857,1.49-2.723,1.49-2.723c-0.448,0-0.314,0.134-0.628,0.492    C0.589-1.918,0.516-1.923,0.17-1.985L0-2"/>
  <path d="M0-8.793l0.14-0.071C0.417-9.04,0.665-9.308,0.764-9.481c0,0,0.268,0.27,0.538,0.225c0.269-0.046,0.448-0.807,0.269-1.255    c-0.179-0.448-0.538-0.135-0.538-0.135c-0.258-0.258-0.539,0.134-0.893,0.573L0-9.963"/>
  <path d="M0-33.776c0.138-0.017,0.335-0.133,0.604-0.485c0.582-0.762,0.896-1.255,1.434-1.255s0.807-0.357,0.627-0.896    c-0.179-0.538-1.067-1.361-0.933-1.586c0.134-0.225,1.262-1.013,0.799-1.569c-0.603-0.725-2.076-0.401-1.5,0.463    c0.179,0.269-0.188,1.439-0.233,1.574c-0.045,0.134,0.792,0.491,1.016,0.625c0.224,0.135,0.359,0.314,0.135,0.493    c-0.224,0.179-0.582,0.27-0.851,0.225c-0.269-0.046-0.583-0.225-0.762,0.224C0.183-35.585,0.28-35.002,0-34.872"/>
  <path d="M0-23.394l0.141,0.01c0.093,0.012,0.199,0.026,0.318,0.043c0.252,0.034,0.275-0.128,0.4-0.3c0,0,0.188-0.578-0.016-0.703    c-0.187-0.115-0.188-0.062-0.188-0.062c-0.273,0.312-0.14,0.208-0.486,0.146L0-24.272"/>
  <path d="M2.262-22.852c0.44-0.096,1.146,0.335,1.432,0.054c0.285-0.28,0.698-0.604,1.265-0.458    c0.565,0.146,1.75-0.946,1.783-1.475c0.033-0.529-0.009-1.331,0.344-1.116c0.353,0.216,0.842-0.602,0.703-1.029    c-0.139-0.426-0.734-0.375-1.089-0.307c-0.355,0.068-0.333,1.443-0.522,2.022c-0.188,0.58-0.442,0.379-0.923,0.206    c-0.48-0.174-0.641,0.349-0.871,0.801c-0.231,0.452-1.337,0.431-1.973,0.31c-0.275-0.052-0.501,0.14-0.514,0.506    C1.885-22.972,2.262-22.852,2.262-22.852z"/>
  <path d="M0-40.106c0.043-0.007,0.084-0.002,0.115,0.028C0.224-39.969,0.146-39.922,0.336-40c0,0,0.764-0.255,0.968-0.622    c0.204-0.366-0.01-0.74,0.25-1.043c0.414-0.479,0.553-1.255,1.091-0.986c0,0,0.162,0.073,0.407-0.151    c0.244-0.225,0.576-0.57,0.176-0.744c-0.459-0.198-0.633-0.536-1.036-0.356c-0.403,0.18-1.623,1.252-1.579,1.746    c0.028,0.308-0.262,0.773-0.262,0.773s-0.096,0.118-0.174,0.134C0.131-41.24,0.064-41.302,0-41.356"/>
  <path d="M0-31.09c0.141-0.032,0.264-0.07,0.333-0.113l0.168-0.094c0.278-0.176,0.242-0.442,0.34-0.615l0.538,0.224    c0.269-0.045,0.448-0.807,0.269-1.255c-0.179-0.447-0.538-0.134-0.538-0.134c-0.258-0.258-0.256,0.133-0.609,0.572l-0.117,0.097    C0.328-32.342,0.173-32.274,0-32.209"/>
  <path d="M0-11.527l0.139,0.03c0.115,0.076,0.36,0.13,0.797-0.442c0.583-0.762,0.896-1.254,1.434-1.254s0.807-0.358,0.628-0.896    c-0.179-0.538-1.067-1.362-0.933-1.587c0.134-0.225,1.262-1.013,0.799-1.569c-0.603-0.726-2.076-0.401-1.5,0.464    c0.179,0.268-0.188,1.438-0.233,1.573c-0.045,0.135,0.793,0.491,1.016,0.626c0.224,0.135,0.359,0.314,0.135,0.493    c-0.224,0.179-0.583,0.269-0.852,0.224c-0.269-0.045-0.583-0.224-0.762,0.224c-0.179,0.449-0.011,1.183-0.528,1.115L0-12.545"/>
  <path d="M7.035,0l0.056-0.065c0.358-0.18,0.627-0.333,1.254-0.468c0.628-0.135,1.883-0.672,2.51-1.21    c0.627-0.538,0.044-1.568-0.583-1.568c-0.627,0-1.165-0.449-1.165-0.762c0-0.313-0.179-0.404,0.583-0.538    c0.762-0.136,1.434,0.762,1.838,1.165c0.403,0.403,0.672,0.313,1.39-0.314c0.717-0.627,0.852-0.089,1.075,0.314    c0,0,0.533,0.477,0.393,0.837c-0.141,0.359-0.719,0.391-1.094,0.359c-0.375-0.031-1.203,0.609-0.781,0.719    c0.422,0.109,0.477,0.183,0.497,0.325c0.101,0.76-0.627,0.628-0.762,0.494c-0.134-0.136-0.134-0.225-0.986-0.359    c-0.6-0.095-1.022,0.457-1.329,1.009L9.908,0"/>
  <path d="M15.703-4.351c0.5,0.391,0.216,1.337,0.827,1.074c0.496-0.213,0.403-0.492,0.941-0.447    c0.538,0.045,0.672,0.134,1.21-0.135c0.538-0.269,0.493-0.315,0.986-0.269c0.493,0.045,0.672,0.179,1.076-0.358    c0.403-0.538,0.448-0.358,0.807-0.045c0.358,0.313,0.672,0.269,0.717,0.045c0.045-0.225-0.403-0.807-0.583-0.986    c-0.179-0.18-0.448-0.358,0.314-0.762c0,0,0.705-0.157,0.457-0.386c-0.247-0.229,0.476-0.532,0.171-0.686    c-0.282,0.014-1.023-0.039-1.705,0.712c-1.006,1.11-1.03,1.614-1.299,1.658c-0.269,0.045-0.493-0.088-0.717,0.18    c-0.224,0.269-0.089,0.18-0.807,0.045c0,0-0.583,0.109-0.661-0.203s-0.562-0.5-0.688-0.25s-0.375,0.25-0.547,0.203    C16.031-5.007,15.203-4.741,15.703-4.351z"/>
  <path d="M16.64-0.368c0,0,1.384-0.37,1.833-0.889c0.53-0.613,0.926-0.335,0.926-0.335c0.762-0.044,1.593,1.048,2.182,0.892    c0.557-0.148-0.462-1.446-0.223-1.335c0.188,0.088,1.111-1.068-0.223-0.892c-0.239,0.031-0.122,0.916-0.122,0.916    c-0.269,0.449-0.627-0.388-0.986-0.657c-0.359-0.269-1.269-0.056-1.896,0.123c-0.628,0.18-0.425,1.11-0.822,0.815    C15.974-2.719,15.302-0.591,16.64-0.368z"/>
  <path d="M22.926-1.443c0.734,0.619,0.718-1.318,1.192-1.271c0.448,0.046,1.27,1.523,1.628,1.345    c0.359-0.179,0.852-0.358,1.345-0.045c0.493,0.313,1.357-0.374,1.585-0.852c0.318-0.669-0.777-0.673-0.777-0.673    c-0.403-0.312-0.718,0.135-1.076,0.494c-0.358,0.358-1.149-0.218-1.687-0.576S24.15-4.174,24.15-4.174    c-2.396-0.078-0.755,1.367-1.069,1.726C23.081-2.448,22.302-1.969,22.926-1.443z"/>
  <path d="M29.177,0l0.066-0.089c0.358-0.18,0.626-0.333,1.254-0.468c0.628-0.134,1.883-0.671,2.51-1.209    c0.628-0.539,0.044-1.569-0.583-1.569c-0.627,0-1.165-0.448-1.165-0.763c0-0.312-0.179-0.403,0.582-0.537    c0.762-0.135,1.434,0.762,1.838,1.166c0.403,0.403,0.672,0.312,1.39-0.314c0.717-0.628,0.852-0.09,1.076,0.314    c0.224,0.403,0.468,0.253,1.165-0.135c0.24-0.134,0.49,0.179,0.427,0.741s-1.375,1.938-1.312,1.437s0.334-0.785-0.146-0.924    c-0.776-0.225-0.852,0.403-1.121,1.12s-0.627,0.627-0.762,0.493C34.262-0.87,34.262-0.96,33.41-1.094    c-0.6-0.096-1.022,0.455-1.329,1.008L32.027,0"/>
 </g>
</svg>
