<?xml version="1.0"?>
<!-- Converted with SVG Converter - Version 0.9.5 (Compiled Fri Feb 21 09:53:38 2020) - Copyright (C) 2011 Nokia -->
<svg xmlns="http://www.w3.org/2000/svg" viewBox="0 -42.917 42.917 42.917" x="0px" xmlns:xlink="http://www.w3.org/1999/xlink" y="0px" xml:space="preserve" baseProfile="tiny" width="42.917" version="1.1" height="42.917">
 <g>
  <rect style="fill:none;" x="0" y="-42.917" width="42.917" height="42.917"/>
  <line style="fill:none;stroke:#000000;stroke-width:0.33;" x1="0.75" x2="4.667" y2="-34.167" y1="-34.167"/>
  <line style="fill:none;stroke:#000000;stroke-width:0.33;" x1="5.932" x2="9.848" y2="-39.292" y1="-39.292"/>
  <line style="fill:none;stroke:#000000;stroke-width:0.33;" x1="8.598" x2="8.598" y2="-41.729" y1="-39.312"/>
  <line style="fill:none;stroke:#000000;stroke-width:0.33;" x1="7.265" x2="7.265" y2="-40.562" y1="-39.312"/>
  <line style="fill:none;stroke:#000000;stroke-width:0.33;" x1="11.494" x2="15.411" y2="-34.167" y1="-34.167"/>
  <line style="fill:none;stroke:#000000;stroke-width:0.33;" x1="16.619" x2="20.536" y2="-39.292" y1="-39.292"/>
  <line style="fill:none;stroke:#000000;stroke-width:0.33;" x1="19.286" x2="19.286" y2="-41.729" y1="-39.312"/>
  <line style="fill:none;stroke:#000000;stroke-width:0.33;" x1="17.953" x2="17.953" y2="-40.562" y1="-39.312"/>
  <line style="fill:none;stroke:#000000;stroke-width:0.33;" x1="0.75" x2="4.667" y2="-23.417" y1="-23.417"/>
  <line style="fill:none;stroke:#000000;stroke-width:0.33;" x1="3.083" x2="3.083" y2="-36.688" y1="-34.188"/>
  <line style="fill:none;stroke:#000000;stroke-width:0.33;" x1="1.666" x2="1.666" y2="-35.604" y1="-34.188"/>
  <line style="fill:none;stroke:#000000;stroke-width:0.33;" x1="5.932" x2="9.848" y2="-28.542" y1="-28.542"/>
  <line style="fill:none;stroke:#000000;stroke-width:0.33;" x1="8.598" x2="8.598" y2="-30.979" y1="-28.562"/>
  <line style="fill:none;stroke:#000000;stroke-width:0.33;" x1="7.265" x2="7.265" y2="-29.812" y1="-28.562"/>
  <line style="fill:none;stroke:#000000;stroke-width:0.33;" x1="11.494" x2="15.411" y2="-23.417" y1="-23.417"/>
  <line style="fill:none;stroke:#000000;stroke-width:0.33;" x1="13.828" x2="13.828" y2="-36.688" y1="-34.188"/>
  <line style="fill:none;stroke:#000000;stroke-width:0.33;" x1="12.411" x2="12.411" y2="-35.604" y1="-34.188"/>
  <line style="fill:none;stroke:#000000;stroke-width:0.33;" x1="16.619" x2="20.536" y2="-28.542" y1="-28.542"/>
  <line style="fill:none;stroke:#000000;stroke-width:0.33;" x1="19.286" x2="19.286" y2="-30.979" y1="-28.562"/>
  <line style="fill:none;stroke:#000000;stroke-width:0.33;" x1="17.953" x2="17.953" y2="-29.812" y1="-28.562"/>
  <line style="fill:none;stroke:#000000;stroke-width:0.33;" x1="22.25" x2="26.167" y2="-34.167" y1="-34.167"/>
  <line style="fill:none;stroke:#000000;stroke-width:0.33;" x1="27.432" x2="31.348" y2="-39.292" y1="-39.292"/>
  <line style="fill:none;stroke:#000000;stroke-width:0.33;" x1="30.098" x2="30.098" y2="-41.729" y1="-39.312"/>
  <line style="fill:none;stroke:#000000;stroke-width:0.33;" x1="28.765" x2="28.765" y2="-40.562" y1="-39.312"/>
  <line style="fill:none;stroke:#000000;stroke-width:0.33;" x1="32.994" x2="36.911" y2="-34.167" y1="-34.167"/>
  <line style="fill:none;stroke:#000000;stroke-width:0.33;" x1="38.119" x2="42.036" y2="-39.292" y1="-39.292"/>
  <line style="fill:none;stroke:#000000;stroke-width:0.33;" x1="40.786" x2="40.786" y2="-41.729" y1="-39.312"/>
  <line style="fill:none;stroke:#000000;stroke-width:0.33;" x1="39.453" x2="39.453" y2="-40.562" y1="-39.312"/>
  <line style="fill:none;stroke:#000000;stroke-width:0.33;" x1="22.25" x2="26.167" y2="-23.417" y1="-23.417"/>
  <line style="fill:none;stroke:#000000;stroke-width:0.33;" x1="24.583" x2="24.583" y2="-36.688" y1="-34.188"/>
  <line style="fill:none;stroke:#000000;stroke-width:0.33;" x1="23.167" x2="23.167" y2="-35.604" y1="-34.188"/>
  <line style="fill:none;stroke:#000000;stroke-width:0.33;" x1="27.432" x2="31.348" y2="-28.542" y1="-28.542"/>
  <line style="fill:none;stroke:#000000;stroke-width:0.33;" x1="30.098" x2="30.098" y2="-30.979" y1="-28.562"/>
  <line style="fill:none;stroke:#000000;stroke-width:0.33;" x1="28.765" x2="28.765" y2="-29.812" y1="-28.562"/>
  <line style="fill:none;stroke:#000000;stroke-width:0.33;" x1="32.994" x2="36.911" y2="-23.417" y1="-23.417"/>
  <line style="fill:none;stroke:#000000;stroke-width:0.33;" x1="35.328" x2="35.328" y2="-36.688" y1="-34.188"/>
  <line style="fill:none;stroke:#000000;stroke-width:0.33;" x1="33.911" x2="33.911" y2="-35.604" y1="-34.188"/>
  <line style="fill:none;stroke:#000000;stroke-width:0.33;" x1="38.119" x2="42.036" y2="-28.542" y1="-28.542"/>
  <line style="fill:none;stroke:#000000;stroke-width:0.33;" x1="40.786" x2="40.786" y2="-30.979" y1="-28.562"/>
  <line style="fill:none;stroke:#000000;stroke-width:0.33;" x1="39.453" x2="39.453" y2="-29.812" y1="-28.562"/>
  <line style="fill:none;stroke:#000000;stroke-width:0.33;" x1="0.75" x2="4.667" y2="-12.68" y1="-12.68"/>
  <line style="fill:none;stroke:#000000;stroke-width:0.33;" x1="3.083" x2="3.083" y2="-25.951" y1="-23.451"/>
  <line style="fill:none;stroke:#000000;stroke-width:0.33;" x1="1.666" x2="1.666" y2="-24.867" y1="-23.451"/>
  <line style="fill:none;stroke:#000000;stroke-width:0.33;" x1="5.932" x2="9.848" y2="-17.805" y1="-17.805"/>
  <line style="fill:none;stroke:#000000;stroke-width:0.33;" x1="8.598" x2="8.598" y2="-20.242" y1="-17.826"/>
  <line style="fill:none;stroke:#000000;stroke-width:0.33;" x1="7.265" x2="7.265" y2="-19.076" y1="-17.826"/>
  <line style="fill:none;stroke:#000000;stroke-width:0.33;" x1="11.494" x2="15.411" y2="-12.68" y1="-12.68"/>
  <line style="fill:none;stroke:#000000;stroke-width:0.33;" x1="13.828" x2="13.828" y2="-25.951" y1="-23.451"/>
  <line style="fill:none;stroke:#000000;stroke-width:0.33;" x1="12.411" x2="12.411" y2="-24.867" y1="-23.451"/>
  <line style="fill:none;stroke:#000000;stroke-width:0.33;" x1="16.619" x2="20.536" y2="-17.805" y1="-17.805"/>
  <line style="fill:none;stroke:#000000;stroke-width:0.33;" x1="19.286" x2="19.286" y2="-20.242" y1="-17.826"/>
  <line style="fill:none;stroke:#000000;stroke-width:0.33;" x1="17.953" x2="17.953" y2="-19.076" y1="-17.826"/>
  <line style="fill:none;stroke:#000000;stroke-width:0.33;" x1="0.75" x2="4.667" y2="-1.93" y1="-1.93"/>
  <line style="fill:none;stroke:#000000;stroke-width:0.33;" x1="3.083" x2="3.083" y2="-15.201" y1="-12.701"/>
  <line style="fill:none;stroke:#000000;stroke-width:0.33;" x1="1.666" x2="1.666" y2="-14.117" y1="-12.701"/>
  <line style="fill:none;stroke:#000000;stroke-width:0.33;" x1="3.417" x2="3.417" y2="-4.367" y1="-1.951"/>
  <line style="fill:none;stroke:#000000;stroke-width:0.33;" x1="2.083" x2="2.083" y2="-3.201" y1="-1.951"/>
  <line style="fill:none;stroke:#000000;stroke-width:0.33;" x1="5.932" x2="9.848" y2="-7.055" y1="-7.055"/>
  <line style="fill:none;stroke:#000000;stroke-width:0.33;" x1="8.598" x2="8.598" y2="-9.492" y1="-7.076"/>
  <line style="fill:none;stroke:#000000;stroke-width:0.33;" x1="7.265" x2="7.265" y2="-8.326" y1="-7.076"/>
  <line style="fill:none;stroke:#000000;stroke-width:0.33;" x1="11.494" x2="15.411" y2="-1.93" y1="-1.93"/>
  <line style="fill:none;stroke:#000000;stroke-width:0.33;" x1="13.828" x2="13.828" y2="-15.201" y1="-12.701"/>
  <line style="fill:none;stroke:#000000;stroke-width:0.33;" x1="12.411" x2="12.411" y2="-14.117" y1="-12.701"/>
  <line style="fill:none;stroke:#000000;stroke-width:0.33;" x1="14.161" x2="14.161" y2="-4.367" y1="-1.951"/>
  <line style="fill:none;stroke:#000000;stroke-width:0.33;" x1="12.828" x2="12.828" y2="-3.201" y1="-1.951"/>
  <line style="fill:none;stroke:#000000;stroke-width:0.33;" x1="16.619" x2="20.536" y2="-7.055" y1="-7.055"/>
  <line style="fill:none;stroke:#000000;stroke-width:0.33;" x1="19.286" x2="19.286" y2="-9.492" y1="-7.076"/>
  <line style="fill:none;stroke:#000000;stroke-width:0.33;" x1="17.953" x2="17.953" y2="-8.326" y1="-7.076"/>
  <line style="fill:none;stroke:#000000;stroke-width:0.33;" x1="22.25" x2="26.167" y2="-12.68" y1="-12.68"/>
  <line style="fill:none;stroke:#000000;stroke-width:0.33;" x1="24.583" x2="24.583" y2="-25.951" y1="-23.451"/>
  <line style="fill:none;stroke:#000000;stroke-width:0.33;" x1="23.167" x2="23.167" y2="-24.867" y1="-23.451"/>
  <line style="fill:none;stroke:#000000;stroke-width:0.33;" x1="27.432" x2="31.348" y2="-17.805" y1="-17.805"/>
  <line style="fill:none;stroke:#000000;stroke-width:0.33;" x1="30.098" x2="30.098" y2="-20.242" y1="-17.826"/>
  <line style="fill:none;stroke:#000000;stroke-width:0.33;" x1="28.765" x2="28.765" y2="-19.076" y1="-17.826"/>
  <line style="fill:none;stroke:#000000;stroke-width:0.33;" x1="32.994" x2="36.911" y2="-12.68" y1="-12.68"/>
  <line style="fill:none;stroke:#000000;stroke-width:0.33;" x1="35.328" x2="35.328" y2="-25.951" y1="-23.451"/>
  <line style="fill:none;stroke:#000000;stroke-width:0.33;" x1="33.911" x2="33.911" y2="-24.867" y1="-23.451"/>
  <line style="fill:none;stroke:#000000;stroke-width:0.33;" x1="38.119" x2="42.036" y2="-17.805" y1="-17.805"/>
  <line style="fill:none;stroke:#000000;stroke-width:0.33;" x1="40.786" x2="40.786" y2="-20.242" y1="-17.826"/>
  <line style="fill:none;stroke:#000000;stroke-width:0.33;" x1="39.453" x2="39.453" y2="-19.076" y1="-17.826"/>
  <line style="fill:none;stroke:#000000;stroke-width:0.33;" x1="22.25" x2="26.167" y2="-1.93" y1="-1.93"/>
  <line style="fill:none;stroke:#000000;stroke-width:0.33;" x1="24.583" x2="24.583" y2="-15.201" y1="-12.701"/>
  <line style="fill:none;stroke:#000000;stroke-width:0.33;" x1="23.167" x2="23.167" y2="-14.117" y1="-12.701"/>
  <line style="fill:none;stroke:#000000;stroke-width:0.33;" x1="24.917" x2="24.917" y2="-4.367" y1="-1.951"/>
  <line style="fill:none;stroke:#000000;stroke-width:0.33;" x1="23.583" x2="23.583" y2="-3.201" y1="-1.951"/>
  <line style="fill:none;stroke:#000000;stroke-width:0.33;" x1="27.432" x2="31.348" y2="-7.055" y1="-7.055"/>
  <line style="fill:none;stroke:#000000;stroke-width:0.33;" x1="30.098" x2="30.098" y2="-9.492" y1="-7.076"/>
  <line style="fill:none;stroke:#000000;stroke-width:0.33;" x1="28.765" x2="28.765" y2="-8.326" y1="-7.076"/>
  <line style="fill:none;stroke:#000000;stroke-width:0.33;" x1="32.994" x2="36.911" y2="-1.93" y1="-1.93"/>
  <line style="fill:none;stroke:#000000;stroke-width:0.33;" x1="35.328" x2="35.328" y2="-15.201" y1="-12.701"/>
  <line style="fill:none;stroke:#000000;stroke-width:0.33;" x1="33.911" x2="33.911" y2="-14.117" y1="-12.701"/>
  <line style="fill:none;stroke:#000000;stroke-width:0.33;" x1="35.661" x2="35.661" y2="-4.367" y1="-1.951"/>
  <line style="fill:none;stroke:#000000;stroke-width:0.33;" x1="34.328" x2="34.328" y2="-3.201" y1="-1.951"/>
  <line style="fill:none;stroke:#000000;stroke-width:0.33;" x1="38.119" x2="42.036" y2="-7.055" y1="-7.055"/>
  <line style="fill:none;stroke:#000000;stroke-width:0.33;" x1="40.786" x2="40.786" y2="-9.492" y1="-7.076"/>
  <line style="fill:none;stroke:#000000;stroke-width:0.33;" x1="39.453" x2="39.453" y2="-8.326" y1="-7.076"/>
 </g>
</svg>
