<?xml version="1.0"?>
<!-- Converted with SVG Converter - Version 0.9.5 (Compiled Fri Feb 21 09:53:38 2020) - Copyright (C) 2011 Nokia -->
<svg xmlns="http://www.w3.org/2000/svg" xmlns:xlink="http://www.w3.org/1999/xlink" height="33.5" baseProfile="tiny" version="1.1" width="33.5" xml:space="preserve" viewBox="0 -33.5 33.5 33.5" x="0px" y="0px">
 <g>
  <rect style="fill:none;" height="33.5" width="33.5" y="-33.5"/>
  <path style="fill:none;stroke:#000000;stroke-width:0.33;" d="M5.438-26.812c-0.625-1.062,0.688-2.062,1.312-1.375    S6.375-27,5.438-26.812S3.875-24.375,3.75-22.75s0.375,1.75,1,3.375c0,0,0.667,0.875,0.083,1.125c-0.583,0.25-1.167,0-1.167-0.667    c0-0.666,0.417-0.75,1.083-0.458"/>
  <path style="fill:none;stroke:#000000;stroke-width:0.33;" d="M4-24.312c-0.188-0.5-0.125-1.938-0.938-1.938s-2-1.438-0.875-1.812    s1.438,1.188,0.875,1.812"/>
  <path style="fill:none;stroke:#000000;stroke-width:0.33;" d="M3.75-22.75C4.125-23,4.312-23.5,4.938-23.375s2.562,0.375,2-0.688    s-1.5-0.875-2,0.688"/>
  <path style="fill:none;stroke:#000000;stroke-width:0.33;" d="M3.688-22.25c-0.875-0.938-0.505-1.913-1.312-1.375    c-0.562,0.375-1.211,1.25-1.586,0.125s1.688-1.438,1.875-0.312"/>
  <path style="fill:none;stroke:#000000;stroke-width:0.33;" d="M4.312-20.5c0.375-0.875,0.688-1.375,1.5-0.75S7.25-21.125,7-21.75    s-1.312-1-1.188,0.5"/>
  <path style="fill:none;stroke:#000000;stroke-width:0.33;" d="M3.875-21.312c-0.688-0.5-0.875-0.625-1.25,0s-2,2.062-2.25,0.875    s0.5-1.375,1.75-0.25"/>
  <path style="fill:none;stroke:#000000;stroke-width:0.33;" d="M2.741-2.001c0.818,0.922-0.277,2.156-1.023,1.603    C0.972-0.952,1.857-1.636,2.741-2.001c0.884-0.364,1.367-1.797,1.176-3.416c-0.19-1.618-0.706-1.645-1.632-3.118    c0,0-0.823-0.73-0.299-1.088C2.51-9.981,3.13-9.848,3.259-9.194C3.388-8.54,2.995-8.378,2.285-8.535"/>
  <path style="fill:none;stroke:#000000;stroke-width:0.33;" d="M3.937-4.019c0.28,0.455,1.183,2.066,1.98,1.91    C6.714-2.267,8.156-1.085,7.125-0.5c-1.032,0.585-1.64-0.888-1.208-1.609"/>
  <path style="fill:none;stroke:#000000;stroke-width:0.33;" d="M3.917-5.417c-0.32,0.318-0.407,0.845-1.044,0.843    c-0.638-0.002-2.587,0.126-1.83,1.061c0.757,0.934,1.641,0.569,1.83-1.061"/>
  <path style="fill:none;stroke:#000000;stroke-width:0.33;" d="M3.881-5.919c1.04,0.751,1.594,2.071,2.283,1.388    c0.48-0.477,0.947-1.46,1.532-0.429c0.584,1.032-1.379,1.736-1.78,0.668"/>
  <path style="fill:none;stroke:#000000;stroke-width:0.33;" d="M2.931-7.516C2.731-6.585,2.522-6.034,1.604-6.49    C0.686-6.947,0.169-6.336,0.535-5.772C0.9-5.206,2.016-5.043,1.604-6.49"/>
  <path style="fill:none;stroke:#000000;stroke-width:0.33;" d="M3.517-6.803c0.771,0.357,0.979,0.444,1.227-0.241    c0.247-0.686,1.565-2.409,2.039-1.293C7.257-7.22,6.557-6.891,5.113-7.754"/>
  <path style="fill:none;stroke:#000000;stroke-width:0.33;" d="M14.625-31.438c-1-1.125,0.375-2,1.062-1.5    S16.062-31.812,14.625-31.438s-1.125,2.375-0.062,3.125s1.188,2.25,1.25,4c0,0,0.104,0.646,0.271,1.229    c0.167,0.583-0.417,1-1.25,0.833C14-22.417,14-23.583,14.5-23.917c0.5-0.333,1.042-0.458,1.312-0.396"/>
  <path style="fill:none;stroke:#000000;stroke-width:0.33;" d="M15.562-26.375c-0.938-0.188-1.625-0.375-2.062,0.125    s-1.938,1.062-0.562,1.562s1.375-1.25,0.562-1.562"/>
  <path style="fill:none;stroke:#000000;stroke-width:0.33;" d="M15.25-27.562c0.25-1.125-0.25-1.312,0.438-1.5s1.188-1,1.438,0    s-0.5,1.812-1.062,0"/>
  <path style="fill:none;stroke:#000000;stroke-width:0.33;" d="M14-28.75c-0.812,0-2.352-0.258-2.688,0.75    c-0.125,0.375-0.562,0.688,0.062,1.125s1.875-0.5,0.688-1.688"/>
  <path style="fill:none;stroke:#000000;stroke-width:0.33;" d="M13.688-30c-1-0.125-1.854-0.25-2.021-0.5    c-0.419-0.628-2.021-1.396-0.833-2.083s1.583,1,0.167,1.416"/>
  <path style="fill:none;stroke:#000000;stroke-width:0.33;" d="M10.36-23.193c0.929-0.892,2.832,0.919,1.36,1.62    C10.249-20.873,11.2-22.579,10.36-23.193c-0.839-0.614-1.614-1.689-1.533-2.524c0,0-1.114-1.849,0.116-1.786    s1.141,1.57-0.116,1.786"/>
  <path style="fill:none;stroke:#000000;stroke-width:0.33;" d="M26.062-29.812c-0.75,1.125,0.375,2.125,0.938,1.688    C27.74-28.7,26.75-29.562,26.062-29.812c-1.266-0.46-0.562-1.812-0.688-2.75c0,0-0.125-0.5-0.75-0.438s-1.125,0.812-0.5,1.438    s1.125,0.75,1.188,0.188"/>
  <path style="fill:none;stroke:#000000;stroke-width:0.33;" d="M1.312-32.75c1,0.188,1.77,0.354,2.52,1.479s2.125,2.25,3.25,1.688    s2.438-1.125,1.438-2.125s-1.312,0.562-0.938,1.688"/>
  <path style="fill:none;stroke:#000000;stroke-width:0.33;" d="M3.958-31.021c0.063,0.688-1.535,0.658-2.145,1.208    c-0.625,0.562-1.125,0.75-1.48-0.021c-0.532-1.158,0.917-1.604,1.48,0.021"/>
  <path style="fill:none;stroke:#000000;stroke-width:0.33;" d="M4.458-30.521c0.75,0,0.688-0.188,1.125-0.938    s1.438-1.188,0.25-1.688s-1.562,0.75-0.438,1.562"/>
  <path style="fill:none;stroke:#000000;stroke-width:0.33;" d="M18.938-30c-0.062,0.312-0.625,1.062-1.25,0.125    s-0.25-1.812,0.375-1.812S18.875-30.375,18.938-30s0.688,0.625,1.438,0.812s1.312,0.125,1.438,1s0.562,1.438,1.375,1.562    S24.125-25.5,24.5-24.75c0,0,0.062-0.062,0.438-0.562s0.688-0.125,1.188-0.062s0.5-1.125,0.5-1.125s-1.688-1.688-1.188,0.938"/>
  <path style="fill:none;stroke:#000000;stroke-width:0.33;" d="M23.625-26.375c-0.062-0.812-0.188-0.938,0.125-1.25    s1.125-1.375,0.375-1.75s-1.375,1.062-0.375,1.75"/>
  <path style="fill:none;stroke:#000000;stroke-width:0.33;" d="M21.562-28.812c0-0.812-1.188-2.125-0.75-2.312    s0.375-1.625-0.438-1.75s-0.688,1.562,0.25,1.938"/>
  <path style="fill:none;stroke:#000000;stroke-width:0.33;" d="M22.5-26.812c-0.875-0.125-1.062-0.375-1.438,0.125    s-1.062,0.812-1.25,0.125s0.625-1.688,1.438-0.375"/>
  <path style="fill:none;stroke:#000000;stroke-width:0.33;" d="M24.312-25.125c-0.625-0.062-0.812-0.188-1.125,0.438    s-0.688,1.5-1.25,0.625s0-1.875,1.375-0.812"/>
  <path style="fill:none;stroke:#000000;stroke-width:0.33;" d="M23.167-8.533c0.202,0.246,1.05,0.645,1.162-0.477    s-0.63-1.718-1.182-1.425C22.595-10.141,23.045-8.894,23.167-8.533c0.121,0.36,0.187,1.562-0.388,2.08    c-0.574,0.518-1.1,0.727-0.8,1.558c0.301,0.831,0.178,1.533-0.48,2.025c-0.659,0.491-0.3,1.433-0.279,2.272    c0,0-0.084-0.026-0.65-0.291c-0.566-0.266-0.665,0.212-1.078,0.502c-0.412,0.29-0.97-0.759-0.97-0.759s0.698-2.282,1.489,0.271"/>
  <path style="fill:none;stroke:#000000;stroke-width:0.33;" d="M21.23-2.444c-0.326-0.747-0.275-0.916-0.697-1.045    c-0.423-0.129-1.639-0.685-1.153-1.369c0.486-0.684,1.713,0.293,1.153,1.369"/>
  <path style="fill:none;stroke:#000000;stroke-width:0.33;" d="M21.906-5.564c-0.381-0.718-0.495-1.851-0.969-1.811    c-0.475,0.04-1.094-1.259-0.435-1.75c0.659-0.492,1.341,1.057,0.689,1.828"/>
  <path style="fill:none;stroke:#000000;stroke-width:0.33;" d="M22.018-3.359c0.714-0.52,0.762-0.829,1.328-0.564    c0.566,0.266,1.319,0.219,1.162-0.477c-0.157-0.694-1.344-1.196-1.445,0.344"/>
  <path style="fill:none;stroke:#000000;stroke-width:0.33;" d="M21.21-1.018c0.522-0.349,0.629-0.548,1.199-0.143    c0.569,0.405,1.311,1.002,1.397-0.035c0.086-1.036-0.88-1.655-1.596-0.071"/>
  <path style="fill:none;stroke:#000000;stroke-width:0.33;" d="M29.125-32.938c-0.75,0.5,0.062,1.875,1.375,2.062    s1.438,0.312,1.562,1.062S31-27.062,31.75-26.438s1.562-0.125,1.312-0.938s-1.125-0.875-1.5-0.875"/>
  <path style="fill:none;stroke:#000000;stroke-width:0.33;" d="M29.25-31.438c-0.375,1-1,2.188-1.812,1.375s0.375-1.625,0.75-1.25    s0.438,1,0.438,1"/>
  <path style="fill:none;stroke:#000000;stroke-width:0.33;" d="M30.5-30.875c0.5-0.25,0.625-0.625,0.812-1.375    s0.625-1.25,1.25-0.625s0.125,1.25-0.438,1.312s-0.875-0.312-0.875-0.312"/>
  <path style="fill:none;stroke:#000000;stroke-width:0.33;" d="M30.062-30.938c0.125,0.438,0.312,0.938,0.312,1.375    s-0.188,1.25-0.875,1.125s-0.438-2.062,0.812-1.625"/>
  <path style="fill:none;stroke:#000000;stroke-width:0.33;" d="M16.829-14.405c-0.119,1.143-0.415,1.693,0.652,2.481    c1.066,0.787,1.118,0.957,0.872,1.676c-0.246,0.72-1.719,1.522-1.355,2.428c0.364,0.906,1.435,0.631,1.6-0.203    c0.165-0.834-0.661-1.226-1.036-1.163"/>
  <path style="fill:none;stroke:#000000;stroke-width:0.33;" d="M16.646-13.013c-0.804,0.702-1.917,1.452-2.248,0.352    s1.101-1.253,1.253-0.745c0.152,0.508-0.089,1.088-0.089,1.088"/>
  <path style="fill:none;stroke:#000000;stroke-width:0.33;" d="M17.48-11.925c0.559,0.017,0.847-0.254,1.367-0.825    c0.521-0.571,1.143-0.805,1.397,0.042s-0.482,1.16-1.007,0.948c-0.525-0.212-0.623-0.69-0.623-0.69"/>
  <path style="fill:none;stroke:#000000;stroke-width:0.33;" d="M17.125-12.188c-0.098,0.444-0.315,1.516-0.522,1.9    c-0.208,0.386-0.758,1.012-1.304,0.576c-0.546-0.437,0.593-2.023,1.486-1.046"/>
  <path style="fill:none;stroke:#000000;stroke-width:0.33;" d="M10.422-12.554c-0.285,1.113-0.659,1.614,0.281,2.55    c0.939,0.935,0.965,1.11,0.617,1.786c-0.349,0.676-2.476,0.672-2.249,1.622c0.228,0.949,1.022,0.644,1.613,0.033    c0.186-0.191,0.153-0.801-0.148-1.025"/>
  <path style="fill:none;stroke:#000000;stroke-width:0.33;" d="M10.038-11.202c-0.898,0.576-2.109,1.154-2.275,0.017    c-0.165-1.138,1.273-1.078,1.349-0.554c0.076,0.525-0.248,1.064-0.248,1.064"/>
  <path style="fill:none;stroke:#000000;stroke-width:0.33;" d="M10.703-10.004c0.55,0.099,1.26,0.618,1.859,0.129    c0.599-0.488,1.248-0.628,1.375,0.247c0.127,0.874-0.648,1.076-1.136,0.79c-0.488-0.286-0.514-0.773-0.514-0.773"/>
  <path style="fill:none;stroke:#000000;stroke-width:0.33;" d="M10.39-10.316c-0.161,0.426-0.31,0.938-0.572,1.289    C9.556-8.677,8.92-8.138,8.444-8.648c-0.477-0.512,0.883-1.915,1.623-0.816"/>
  <path style="fill:none;stroke:#000000;stroke-width:0.33;" d="M19.125-23.438c-0.625-0.125-1.188-0.312-0.875-1.25    s0.5-0.688,0.938,0.25s-0.125,0.812,0.125,1.562s0.5,1.625,0.375,2.25S19.5-18.938,19.812-18s0.375,0.438,0.25,1.125    S21.25-15.188,19.875-15S19-16.75,20.062-16.875"/>
  <path style="fill:none;stroke:#000000;stroke-width:0.33;" d="M19.562-19.375c0.625,0,1.125-0.312,1.562-0.125    s2.25-0.562,1.562-1.375s-2.062,0.5-1.562,1.375"/>
  <path style="fill:none;stroke:#000000;stroke-width:0.33;" d="M19.625-20.188c-0.312-0.312-0.562-0.688-1-0.562    s-1.375-0.125-1.25-1s0.938-0.625,1.375-0.125s0.188,0.812-0.125,1.125"/>
  <path style="fill:none;stroke:#000000;stroke-width:0.33;" d="M19.688-18.625c-0.75,0-1.312-0.062-1.438,0.25    s0.312,1.812-0.75,1.562s-0.188-1.875,0.75-1.562"/>
  <path style="fill:none;stroke:#000000;stroke-width:0.33;" d="M31.188-23.562c-0.188,0.5,0.938,1.312,1.188,1.25    c0.669-0.167,0.625-0.812,0.5-1.188C32.618-24.271,32-23.75,31.188-23.562S30-25.75,29.75-26.375c0,0-1.375-1.188-1.625-0.125    s0.125,1.688,0.812,1.5s0.812-1.062,0.812-1.375"/>
  <path style="fill:none;stroke:#000000;stroke-width:0.33;" d="M25.75-21.312c-1.375-0.125-1.5-1.75-0.25-1.812    S25.5-21.75,25.75-21.312s0.562,0.938,1.75,1.125s1.75,1.312,2.5,2.125c0,0,0.75,1.062,1.938,0.375"/>
  <path style="fill:none;stroke:#000000;stroke-width:0.33;" d="M29.5-18.625c-0.062,0.688-0.688,1-0.188,1.562    s1.375,2.062,0.312,2.188s-1.312-2.062-0.312-2.188"/>
  <path style="fill:none;stroke:#000000;stroke-width:0.33;" d="M27-20.25c0.375,0.625,0.312,1.25-0.188,1.688    s-1.938,1.688-0.188,1.75s1.562-1.688,0.188-1.75"/>
  <path style="fill:none;stroke:#000000;stroke-width:0.33;" d="M26.562-20.5c0.812-0.125,2,0.125,2-0.625S28.688-23,29.5-22.938    s0.938,2.25-0.938,1.812"/>
  <path style="fill:none;stroke:#000000;stroke-width:0.33;" d="M26.188-20.75c-0.938-0.062-0.875,0-1.062,0.625s0,2-1,1.375    s0.062-1.688,1-1.375"/>
  <path style="fill:none;stroke:#000000;stroke-width:0.33;" d="M29.5-18.812c0.875-0.188,1.125-0.375,1.688-0.312    s1.25-0.625,0.5-1.188s-1.562,0.188-1,1.25"/>
  <path style="fill:none;stroke:#000000;stroke-width:0.33;" d="M10.257-3.044C9.781-1.748,8.179-2.048,8.441-3.272    C8.704-4.495,9.769-2.916,10.257-3.044c0.487-0.129,2.62,1.4,3.108,0.302c0.488-1.1,1.72-1.352,2.699-1.866    c0,0,1.221-0.45,0.863-1.774"/>
  <path style="fill:none;stroke:#000000;stroke-width:0.33;" d="M15.391-4.271c0.648,0.237,0.942,0.354,0.942,0.354    c0.673-0.337,2.394-0.244,1.833,0.667c-0.667,1.083-1.971,0.332-1.833-0.667"/>
  <path style="fill:none;stroke:#000000;stroke-width:0.33;" d="M12.75-2.333c0.089-0.817,0.708-1.484-0.016-1.679    c-0.725-0.193-1.779-0.604-1.509-1.374c0.271-0.769,2.416-0.324,1.509,1.374"/>
  <path style="fill:none;stroke:#000000;stroke-width:0.33;" d="M11.375-2.75c-0.5,0.062-0.43,0.821-0.562,0.875    c0,0,2.3,0.508,1.438,1.312s-1.427-0.184-0.882-1.009"/>
  <path style="fill:none;stroke:#000000;stroke-width:0.33;" d="M15.21-4.319c0.045-0.894-0.071-1.184,0.134-1.711    c0.206-0.527-0.281-1.369-1.018-0.79c-0.737,0.579-0.223,1.558,0.949,1.289"/>
  <path style="fill:none;stroke:#000000;stroke-width:0.33;" d="M30.319-1.923c-0.424,1.314,1.021,2.066,1.569,0.941    C32.436-2.106,30.624-1.521,30.319-1.923c-0.305-0.401-0.642-0.885-0.349-2.051c0.294-1.166-0.521-2.124-0.974-3.133    c0,0-0.497-2.561-0.914-2.811c0,0-0.75-1.25-1.417-1.25s-1.083,0.25-0.833,0.917s0.917,1.167,1.25,1c0.333-0.167,1-0.667,1-0.667"/>
  <path style="fill:none;stroke:#000000;stroke-width:0.33;" d="M29.318-6.426c-0.657-0.213-1.189,0.24-1.511-0.44    s-1.358-2.074-1.89-1.145c-0.532,0.928,1.382,2.016,1.89,1.145"/>
  <path style="fill:none;stroke:#000000;stroke-width:0.33;" d="M29.832-3.489c-0.428-0.59-1.027-0.777-1.626-0.489    c-0.599,0.288-2.312,1.12-1.684-0.514c0.629-1.635,2.165-0.775,1.684,0.514"/>
  <path style="fill:none;stroke:#000000;stroke-width:0.33;" d="M29.891-2.988c0.434-0.698,0.67-1.889,1.359-1.595    c0.69,0.294,1.773,0.62,2.035-0.151c0.261-0.772-1.702-1.745-2.035,0.151"/>
  <path style="fill:none;stroke:#000000;stroke-width:0.33;" d="M29.974-2.546c-0.311,0.887-0.343,0.805-0.992,0.732    c-0.648-0.072-1.84-0.784-1.657,0.381c0.183,1.165,1.577,0.604,1.657-0.381"/>
  <path style="fill:none;stroke:#000000;stroke-width:0.33;" d="M29.49-6.352c0.516-0.732,0.787-0.888,0.95-1.43    c0.163-0.542,1.065-0.904,1.288,0.006c0.224,0.91-0.785,1.363-1.542,0.43"/>
  <path style="fill:none;stroke:#000000;stroke-width:0.33;" d="M21.438-10.438c0.312-0.812,2.562-2.188,2.188-3.438    s-2.25-3.312-0.812-3.5s1.188,1.938,0.25,2.188"/>
  <path style="fill:none;stroke:#000000;stroke-width:0.33;" d="M23.625-13.062c0.625-0.25,2.375-2,3-0.562s-1.562,1.5-1.688,0.938    s-0.125-1.125-0.125-1.125"/>
  <path style="fill:none;stroke:#000000;stroke-width:0.33;" d="M22.812-12.062c-0.188-0.75-0.625-3.062-1.375-2.688    s-0.375,1.375,0.312,1.625s0.688-0.125,0.688-0.125"/>
  <path style="fill:none;stroke:#000000;stroke-width:0.33;" d="M12.062-11.5c0.875-0.875,1.125-1.688,1-2.688s0.438-3,1.438-3.938    s2.125-1.5,0.625-2.312S13.562-20,13.938-19.625s0.625,0.812,1.25,0.812"/>
  <path style="fill:none;stroke:#000000;stroke-width:0.33;" d="M13.438-16.562C13.25-17,13.25-16.875,13.125-17.5    s-0.125-1.062-0.75-0.938c-0.699,0.14-1.312,0.688-0.062,1.312c0.57,0.285,0.812-0.375,0.812-0.375"/>
  <path style="fill:none;stroke:#000000;stroke-width:0.33;" d="M13.188-15.75c0.688-0.312,1.438-1.375,2.188-0.875    s0.562,1.062-0.188,1.312s-1.125-0.562-0.938-1.188"/>
  <path style="fill:none;stroke:#000000;stroke-width:0.33;" d="M10.125-18.938c-0.375,0.25-0.625,0.062-1.188-0.375    S9.062-20.688,10-20.5s0.438,1.688-0.688,2.812s0.125,2.625,0.125,3.438c0,0-0.375,1.625-1.562,0.562s0.188-1.375,0.625-1.125    s0.938,0.562,0.938,0.562"/>
  <path style="fill:none;stroke:#000000;stroke-width:0.33;" d="M8.812-16.312C7.938-16.375,7.5-16.188,7.25-16.75    s1.453-2.703-0.188-2.812c-0.938-0.062-0.375,1.875,0.375,1.938"/>
  <path style="fill:none;stroke:#000000;stroke-width:0.33;" d="M12.625-12.438c-0.125-0.938-0.333-0.909-0.5-1.688    c-0.188-0.875-0.75-1.438-1.188-1.062c-0.866,0.742,0.188,2.5,1.188,1.062"/>
  <path style="fill:none;stroke:#000000;stroke-width:0.33;" d="M0.688-18.5c1.812,0.375,1.875,1.938,1.938,3.125    s0.062,1.438-0.188,2s0.062,0.688,0.812,1s1.188,0.25,1.25,0.75s1.438,1.312,1.75,0.812s-0.312-2.25-1.75-0.812"/>
  <path style="fill:none;stroke:#000000;stroke-width:0.33;" d="M2.688-15.125c0.688,0.312,1,0.312,1.25,0.75s1.25,0.312,1.25-0.5    s-1.625-1.062-1.25,0.5"/>
  <path style="fill:none;stroke:#000000;stroke-width:0.33;" d="M2.5-16.375C2-16.438,1.375-16.625,1.188-16s0.5,1.312-0.188,1.688    S-0.688-15.188,1.188-16"/>
  <path style="fill:none;stroke:#000000;stroke-width:0.33;" d="M2.312-12.938c-0.25,0.312-1.875,0.812-1.188,1.5    S2.75-11,2.562-11.688s-0.438-0.875-0.625-1"/>
  <path style="fill:none;stroke:#000000;stroke-width:0.33;" d="M29.938-9.062c0-1-0.25-2.812,0.625-3.438s1.312-1.062,1.625-1.562    s1-1.875,0.5-2.438s-1.562,1.25-0.5,2.438"/>
  <path style="fill:none;stroke:#000000;stroke-width:0.33;" d="M30.062-11.75c-0.188-0.688-1.125-2.375-1.688-1.562    s0.188,2,1.25,0.75"/>
  <path style="fill:none;stroke:#000000;stroke-width:0.33;" d="M29.875-10.562c0.438-0.188,0.75-1.125,1.75-0.938    s1.625-0.062,1.688,0.625s-0.25,0.812-0.938,0.75s-1.188-0.812-0.75-1.375"/>
  <path style="fill:none;stroke:#000000;stroke-width:0.33;" d="M13.365-2.742c0.76-0.133,1.01-0.195,1.573,0.617    s-0.312,0.812-0.125,1.25s1.5,0.938,1.625,0.438S15.812-2.25,15.062-1.75"/>
 </g>
</svg>
