<?xml version="1.0"?>
<!-- Converted with SVG Converter - Version 0.9.5 (Compiled Fri Feb 21 09:53:38 2020) - Copyright (C) 2011 Nokia -->
<svg xmlns="http://www.w3.org/2000/svg" viewBox="1 -8.924 7.924 7.924" width="7.924" version="1.1" xml:space="preserve" x="0px" height="7.924" xmlns:xlink="http://www.w3.org/1999/xlink" baseProfile="tiny" y="0px">
 <g>
  <rect width="7.924" x="1" style="fill:none;" height="7.924" y="-8.924"/>
  <circle cx="5.163" r="0.82" cy="-7.413"/>
  <circle cx="6.687" r="0.82" cy="-4.913"/>
  <circle cx="3.581" r="0.82" cy="-4.913"/>
  <circle cx="5.163" r="0.82" cy="-2.413"/>
  <path d="M1-7.217v1.64c0.007,0,0.015,0,0.023,0c0.453,0,0.82-0.367,0.82-0.82c0-0.453-0.367-0.82-0.82-0.82    C1.015-7.217,1.007-7.217,1-7.217z"/>
  <path d="M8.924-5.578v-1.639C8.488-7.198,8.14-6.838,8.14-6.397S8.488-5.596,8.924-5.578z"/>
  <path d="M1-4.248v1.64c0.007,0,0.015,0.001,0.023,0.001c0.453,0,0.82-0.367,0.82-0.82s-0.367-0.82-0.82-0.82    C1.015-4.248,1.007-4.248,1-4.248z"/>
  <path d="M8.561-8.924h-1.64c0,0.009-0.001,0.018-0.001,0.027c0,0.453,0.367,0.82,0.82,0.82c0.453,0,0.82-0.367,0.82-0.82    C8.561-8.906,8.561-8.915,8.561-8.924z"/>
  <path d="M8.924-2.609v-1.639C8.488-4.229,8.14-3.87,8.14-3.428S8.488-2.627,8.924-2.609z"/>
  <path d="M1.785-1h1.639c-0.021-0.434-0.38-0.78-0.819-0.78C2.165-1.78,1.806-1.434,1.785-1z"/>
  <path d="M6.922-1h1.639C8.54-1.434,8.181-1.78,7.741-1.78C7.302-1.78,6.943-1.434,6.922-1z"/>
  <path d="M1.785-8.924c0,0.009-0.001,0.018-0.001,0.027c0,0.453,0.367,0.82,0.82,0.82s0.82-0.367,0.82-0.82    c0-0.009,0-0.018,0-0.027H1.785z"/>
  <rect width="7.924" x="1" style="fill:none;" height="7.924" y="-8.924"/>
 </g>
</svg>
