<?xml version="1.0"?>
<!-- Converted with SVG Converter - Version 0.9.5 (Compiled Fri Feb 21 09:53:38 2020) - Copyright (C) 2011 Nokia -->
<svg xmlns="http://www.w3.org/2000/svg" x="0px" xmlns:xlink="http://www.w3.org/1999/xlink" xml:space="preserve" height="54" y="0px" width="54" viewBox="2.16 -56.16 54 54" version="1.1" baseProfile="tiny">
 <g>
  <rect x="2.16" height="54" y="-56.16" width="54" style="fill:none;"/>
  <line y1="-51.793" x2="9.567" x1="6.917" style="fill:none;stroke:#00AEEF;stroke-width:0.58;" y2="-48.973"/>
  <line y1="-56.16" x2="6.917" x1="2.813" style="fill:none;stroke:#00AEEF;stroke-width:0.58;" y2="-51.793"/>
  <line y1="-46.093" x2="9.567" x1="12.274" style="fill:none;stroke:#00AEEF;stroke-width:0.58;" y2="-48.973"/>
  <line y1="-41.076" x2="12.274" x1="16.989" style="fill:none;stroke:#00AEEF;stroke-width:0.58;" y2="-46.093"/>
  <line y1="-52.563" x2="21.218" x1="17.834" style="fill:none;stroke:#00AEEF;stroke-width:0.58;" y2="-48.896"/>
  <line y1="-45.725" x2="26.415" x1="24.144" style="fill:none;stroke:#00AEEF;stroke-width:0.58;" y2="-43.264"/>
  <line y1="-55.9" x2="14.515" x1="14.755" style="fill:none;stroke:#00AEEF;stroke-width:0.58;" y2="-56.16"/>
  <line y1="-55.9" x2="17.834" x1="14.755" style="fill:none;stroke:#00AEEF;stroke-width:0.58;" y2="-52.563"/>
  <line y1="-45.725" x2="21.218" x1="24.144" style="fill:none;stroke:#00AEEF;stroke-width:0.58;" y2="-48.896"/>
  <line y1="-2.16" x2="11.74" x1="14.515" style="fill:none;stroke:#00AEEF;stroke-width:0.58;" y2="-5.168"/>
  <line y1="-7.201" x2="11.74" x1="9.864" style="fill:none;stroke:#00AEEF;stroke-width:0.58;" y2="-5.168"/>
  <line y1="-47.535" x2="45.114" x1="38.253" style="fill:none;stroke:#00AEEF;stroke-width:0.58;" y2="-39.576"/>
  <line y1="-50.881" x2="38.253" x1="35.369" style="fill:none;stroke:#00AEEF;stroke-width:0.58;" y2="-47.535"/>
  <line y1="-50.881" x2="33.5" x1="35.369" style="fill:none;stroke:#00AEEF;stroke-width:0.58;" y2="-53.048"/>
  <line y1="-56.16" x2="31.285" x1="30.817" style="fill:none;stroke:#00AEEF;stroke-width:0.58;" y2="-55.618"/>
  <line y1="-53.048" x2="31.285" x1="33.5" style="fill:none;stroke:#00AEEF;stroke-width:0.58;" y2="-55.618"/>
  <line y1="-42.846" x2="40.505" x1="46.998" style="fill:none;stroke:#00AEEF;stroke-width:0.58;" y2="-50.447"/>
  <line y1="-42.846" x2="49.31" x1="46.998" style="fill:none;stroke:#00AEEF;stroke-width:0.58;" y2="-40.139"/>
  <line y1="-55.952" x2="40.505" x1="35.803" style="fill:none;stroke:#00AEEF;stroke-width:0.58;" y2="-50.447"/>
  <line y1="-55.952" x2="35.625" x1="35.803" style="fill:none;stroke:#00AEEF;stroke-width:0.58;" y2="-56.16"/>
  <line y1="-40.076" x2="49.31" x1="49.364" style="fill:none;stroke:#00AEEF;stroke-width:0.58;" y2="-40.139"/>
  <line y1="-56.16" x2="46.345" x1="41.399" style="fill:none;stroke:#00AEEF;stroke-width:0.58;" y2="-50.391"/>
  <line y1="-50.391" x2="48.114" x1="46.345" style="fill:none;stroke:#00AEEF;stroke-width:0.58;" y2="-48.326"/>
  <line y1="-45.181" x2="52.678" x1="50.998" style="fill:none;stroke:#00AEEF;stroke-width:0.58;" y2="-43.329"/>
  <line y1="-43.329" x2="54.04" x1="52.678" style="fill:none;stroke:#00AEEF;stroke-width:0.58;" y2="-41.826"/>
  <line y1="-56.035" x2="21.353" x1="20.639" style="fill:none;stroke:#00AEEF;stroke-width:0.58;" y2="-55.139"/>
  <line y1="-56.16" x2="20.639" x1="20.54" style="fill:none;stroke:#00AEEF;stroke-width:0.58;" y2="-56.035"/>
  <line y1="-48.297" x2="36.342" x1="33.14" style="fill:none;stroke:#00AEEF;stroke-width:0.58;" y2="-45.063"/>
  <line y1="-48.297" x2="32.697" x1="33.14" style="fill:none;stroke:#00AEEF;stroke-width:0.58;" y2="-48.743"/>
  <line y1="-45.063" x2="39.135" x1="36.342" style="fill:none;stroke:#00AEEF;stroke-width:0.58;" y2="-42.243"/>
  <line y1="-51.986" x2="25.917" x1="28.664" style="fill:none;stroke:#00AEEF;stroke-width:0.58;" y2="-55.367"/>
  <line y1="-56.16" x2="25.917" x1="25.272" style="fill:none;stroke:#00AEEF;stroke-width:0.58;" y2="-55.367"/>
  <line y1="-51.986" x2="30.114" x1="28.664" style="fill:none;stroke:#00AEEF;stroke-width:0.58;" y2="-50.201"/>
  <line y1="-52.01" x2="26.493" x1="23.479" style="fill:none;stroke:#00AEEF;stroke-width:0.58;" y2="-48.979"/>
  <line y1="-52.01" x2="22.915" x1="23.479" style="fill:none;stroke:#00AEEF;stroke-width:0.58;" y2="-52.576"/>
  <line y1="-45.085" x2="26.493" x1="30.369" style="fill:none;stroke:#00AEEF;stroke-width:0.58;" y2="-48.979"/>
  <line y1="-40.264" x2="30.369" x1="35.165" style="fill:none;stroke:#00AEEF;stroke-width:0.58;" y2="-45.085"/>
  <path d="M51.311-55.17c-0.26-0.33-0.52-0.661-0.775-0.99" style="fill:none;stroke:#00AEEF;stroke-width:0.58;"/>
  <path d="M51.311-55.17c0.778,0.99,1.558,1.969,2.246,2.84" style="fill:none;stroke:#00AEEF;stroke-width:0.58;"/>
  <path d="M55.114-50.326c-0.399-0.533-0.941-1.225-1.558-2.004" style="fill:none;stroke:#00AEEF;stroke-width:0.58;"/>
  <line y1="-55.033" x2="6.917" x1="9.671" style="fill:none;stroke:#00AEEF;stroke-width:0.58;" y2="-51.793"/>
  <line y1="-55.033" x2="10.239" x1="9.671" style="fill:none;stroke:#00AEEF;stroke-width:0.58;" y2="-55.701"/>
  <line y1="-51.793" x2="5.989" x1="6.917" style="fill:none;stroke:#00AEEF;stroke-width:0.58;" y2="-50.701"/>
  <line y1="-52.416" x2="11.489" x1="12.045" style="fill:none;stroke:#00AEEF;stroke-width:0.58;" y2="-51.701"/>
  <line y1="-52.416" x2="14.755" x1="12.045" style="fill:none;stroke:#00AEEF;stroke-width:0.58;" y2="-55.9"/>
  <line y1="-55.9" x2="14.957" x1="14.755" style="fill:none;stroke:#00AEEF;stroke-width:0.58;" y2="-56.16"/>
  <line y1="-41.014" x2="9.213" x1="8.665" style="fill:none;stroke:#00AEEF;stroke-width:0.58;" y2="-41.784"/>
  <line y1="-46.093" x2="9.213" x1="12.274" style="fill:none;stroke:#00AEEF;stroke-width:0.58;" y2="-41.784"/>
  <line y1="-47.451" x2="12.274" x1="13.239" style="fill:none;stroke:#00AEEF;stroke-width:0.58;" y2="-46.093"/>
  <line y1="-52.563" x2="20.639" x1="17.834" style="fill:none;stroke:#00AEEF;stroke-width:0.58;" y2="-56.035"/>
  <line y1="-56.16" x2="20.639" x1="20.739" style="fill:none;stroke:#00AEEF;stroke-width:0.58;" y2="-56.035"/>
  <line y1="-48.576" x2="17.834" x1="14.614" style="fill:none;stroke:#00AEEF;stroke-width:0.58;" y2="-52.563"/>
  <line y1="-43.951" x2="24.144" x1="22.864" style="fill:none;stroke:#00AEEF;stroke-width:0.58;" y2="-45.725"/>
  <line y1="-55.618" x2="31.676" x1="31.285" style="fill:none;stroke:#00AEEF;stroke-width:0.58;" y2="-56.16"/>
  <line y1="-45.725" x2="26.493" x1="24.144" style="fill:none;stroke:#00AEEF;stroke-width:0.58;" y2="-48.979"/>
  <line y1="-55.618" x2="28.664" x1="31.285" style="fill:none;stroke:#00AEEF;stroke-width:0.58;" y2="-51.986"/>
  <line y1="-51.986" x2="26.493" x1="28.664" style="fill:none;stroke:#00AEEF;stroke-width:0.58;" y2="-48.979"/>
  <line y1="-55.952" x2="33.5" x1="35.803" style="fill:none;stroke:#00AEEF;stroke-width:0.58;" y2="-53.048"/>
  <line y1="-55.952" x2="35.968" x1="35.803" style="fill:none;stroke:#00AEEF;stroke-width:0.58;" y2="-56.16"/>
  <line y1="-53.048" x2="31.739" x1="33.5" style="fill:none;stroke:#00AEEF;stroke-width:0.58;" y2="-50.826"/>
  <line y1="-53.201" x2="40.505" x1="42.635" style="fill:none;stroke:#00AEEF;stroke-width:0.58;" y2="-50.447"/>
  <line y1="-47.535" x2="40.505" x1="38.253" style="fill:none;stroke:#00AEEF;stroke-width:0.58;" y2="-50.447"/>
  <line y1="-43.826" x2="36.342" x1="35.385" style="fill:none;stroke:#00AEEF;stroke-width:0.58;" y2="-45.063"/>
  <line y1="-47.535" x2="36.342" x1="38.253" style="fill:none;stroke:#00AEEF;stroke-width:0.58;" y2="-45.063"/>
  <line y1="-50.391" x2="45.239" x1="46.345" style="fill:none;stroke:#00AEEF;stroke-width:0.58;" y2="-49.326"/>
  <line y1="-55.17" x2="51.864" x1="51.311" style="fill:none;stroke:#00AEEF;stroke-width:0.58;" y2="-55.701"/>
  <line y1="-55.17" x2="46.345" x1="51.311" style="fill:none;stroke:#00AEEF;stroke-width:0.58;" y2="-50.391"/>
  <line y1="-47.951" x2="53.557" x1="49.739" style="fill:none;stroke:#00AEEF;stroke-width:0.58;" y2="-52.33"/>
  <line y1="-52.33" x2="53.989" x1="53.557" style="fill:none;stroke:#00AEEF;stroke-width:0.58;" y2="-52.826"/>
  <line y1="-42.66" x2="46.998" x1="46.822" style="fill:none;stroke:#00AEEF;stroke-width:0.58;" y2="-42.846"/>
  <line y1="-46.098" x2="46.998" x1="50.082" style="fill:none;stroke:#00AEEF;stroke-width:0.58;" y2="-42.846"/>
  <line y1="-42.639" x2="52.678" x1="52.051" style="fill:none;stroke:#00AEEF;stroke-width:0.58;" y2="-43.329"/>
  <line y1="-45.451" x2="52.678" x1="54.603" style="fill:none;stroke:#00AEEF;stroke-width:0.58;" y2="-43.329"/>
  <line y1="-35.667" x2="51.453" x1="53.727" style="fill:none;stroke:#00AEEF;stroke-width:0.58;" y2="-32.594"/>
  <line y1="-30.025" x2="51.453" x1="49.552" style="fill:none;stroke:#00AEEF;stroke-width:0.58;" y2="-32.594"/>
  <line y1="-28.223" x2="49.552" x1="48.218" style="fill:none;stroke:#00AEEF;stroke-width:0.58;" y2="-30.025"/>
  <line y1="-38.957" x2="53.727" x1="56.16" style="fill:none;stroke:#00AEEF;stroke-width:0.58;" y2="-35.667"/>
  <line y1="-39.503" x2="2.16" x1="2.56" style="fill:none;stroke:#00AEEF;stroke-width:0.58;" y2="-38.961"/>
  <line y1="-50.014" x2="9.567" x1="10.337" style="fill:none;stroke:#00AEEF;stroke-width:0.58;" y2="-48.973"/>
  <line y1="-44.655" x2="9.567" x1="6.373" style="fill:none;stroke:#00AEEF;stroke-width:0.58;" y2="-48.973"/>
  <line y1="-39.503" x2="6.373" x1="2.56" style="fill:none;stroke:#00AEEF;stroke-width:0.58;" y2="-44.655"/>
  <line y1="-23.481" x2="48.978" x1="50.845" style="fill:none;stroke:#00AEEF;stroke-width:0.58;" y2="-20.712"/>
  <line y1="-23.481" x2="56.16" x1="50.845" style="fill:none;stroke:#00AEEF;stroke-width:0.58;" y2="-31.368"/>
  <line y1="-14.201" x2="45.948" x1="44.589" style="fill:none;stroke:#00AEEF;stroke-width:0.58;" y2="-16.217"/>
  <line y1="-20.712" x2="45.948" x1="48.978" style="fill:none;stroke:#00AEEF;stroke-width:0.58;" y2="-16.217"/>
  <line y1="-31.33" x2="5.645" x1="2.16" style="fill:none;stroke:#00AEEF;stroke-width:0.58;" y2="-36.501"/>
  <line y1="-38.014" x2="5.645" x1="6.665" style="fill:none;stroke:#00AEEF;stroke-width:0.58;" y2="-36.501"/>
  <line y1="-37.254" x2="39.489" x1="42.491" style="fill:none;stroke:#00AEEF;stroke-width:0.58;" y2="-40.326"/>
  <line y1="-34.535" x2="42.491" x1="45.147" style="fill:none;stroke:#00AEEF;stroke-width:0.58;" y2="-37.254"/>
  <line y1="-34.535" x2="49.552" x1="45.147" style="fill:none;stroke:#00AEEF;stroke-width:0.58;" y2="-30.025"/>
  <line y1="-29.451" x2="49.552" x1="50.114" style="fill:none;stroke:#00AEEF;stroke-width:0.58;" y2="-30.025"/>
  <line y1="-37.256" x2="51.453" x1="47.168" style="fill:none;stroke:#00AEEF;stroke-width:0.58;" y2="-32.594"/>
  <line y1="-32.594" x2="52.79" x1="51.453" style="fill:none;stroke:#00AEEF;stroke-width:0.58;" y2="-31.139"/>
  <line y1="-37.256" x2="46.989" x1="47.168" style="fill:none;stroke:#00AEEF;stroke-width:0.58;" y2="-37.451"/>
  <line y1="-35.667" x2="52.394" x1="53.727" style="fill:none;stroke:#00AEEF;stroke-width:0.58;" y2="-36.889"/>
  <line y1="-33.436" x2="53.727" x1="56.16" style="fill:none;stroke:#00AEEF;stroke-width:0.58;" y2="-35.667"/>
  <line y1="-34.535" x2="42.778" x1="45.147" style="fill:none;stroke:#00AEEF;stroke-width:0.58;" y2="-31.345"/>
  <line y1="-29.105" x2="42.778" x1="41.114" style="fill:none;stroke:#00AEEF;stroke-width:0.58;" y2="-31.345"/>
  <line y1="-37.256" x2="49.31" x1="47.168" style="fill:none;stroke:#00AEEF;stroke-width:0.58;" y2="-40.139"/>
  <line y1="-26.076" x2="41.114" x1="38.864" style="fill:none;stroke:#00AEEF;stroke-width:0.58;" y2="-29.105"/>
  <line y1="-34.535" x2="47.168" x1="45.147" style="fill:none;stroke:#00AEEF;stroke-width:0.58;" y2="-37.256"/>
  <line y1="-41.514" x2="49.31" x1="50.332" style="fill:none;stroke:#00AEEF;stroke-width:0.58;" y2="-40.139"/>
  <line y1="-37.254" x2="37.93" x1="42.491" style="fill:none;stroke:#00AEEF;stroke-width:0.58;" y2="-32.104"/>
  <line y1="-37.254" x2="43.551" x1="42.491" style="fill:none;stroke:#00AEEF;stroke-width:0.58;" y2="-38.451"/>
  <line y1="-29.701" x2="37.93" x1="35.801" style="fill:none;stroke:#00AEEF;stroke-width:0.58;" y2="-32.104"/>
  <line y1="-41.264" x2="30.652" x1="32.79" style="fill:none;stroke:#00AEEF;stroke-width:0.58;" y2="-38.959"/>
  <line y1="-34.764" x2="30.652" x1="26.76" style="fill:none;stroke:#00AEEF;stroke-width:0.58;" y2="-38.959"/>
  <line y1="-36.061" x2="12.216" x1="14.877" style="fill:none;stroke:#00AEEF;stroke-width:0.58;" y2="-38.75"/>
  <line y1="-36.061" x2="15.665" x1="14.877" style="fill:none;stroke:#00AEEF;stroke-width:0.58;" y2="-35.264"/>
  <line y1="-38.75" x2="9.213" x1="12.216" style="fill:none;stroke:#00AEEF;stroke-width:0.58;" y2="-41.784"/>
  <line y1="-44.655" x2="2.864" x1="6.373" style="fill:none;stroke:#00AEEF;stroke-width:0.58;" y2="-48.201"/>
  <line y1="-44.655" x2="9.213" x1="6.373" style="fill:none;stroke:#00AEEF;stroke-width:0.58;" y2="-41.784"/>
  <line y1="-20.121" x2="11.765" x1="14.712" style="fill:none;stroke:#00AEEF;stroke-width:0.58;" y2="-23.273"/>
  <line y1="-30.514" x2="5.828" x1="4.998" style="fill:none;stroke:#00AEEF;stroke-width:0.58;" y2="-29.625"/>
  <line y1="-25.415" x2="5.828" x1="9.763" style="fill:none;stroke:#00AEEF;stroke-width:0.58;" y2="-29.625"/>
  <line y1="-23.273" x2="9.763" x1="11.765" style="fill:none;stroke:#00AEEF;stroke-width:0.58;" y2="-25.415"/>
  <line y1="-20.121" x2="19.954" x1="14.712" style="fill:none;stroke:#00AEEF;stroke-width:0.58;" y2="-14.512"/>
  <line y1="-14.512" x2="22.114" x1="19.954" style="fill:none;stroke:#00AEEF;stroke-width:0.58;" y2="-12.201"/>
  <line y1="-33.608" x2="5.645" x1="8.616" style="fill:none;stroke:#00AEEF;stroke-width:0.58;" y2="-36.501"/>
  <line y1="-39.503" x2="2.16" x1="2.56" style="fill:none;stroke:#00AEEF;stroke-width:0.58;" y2="-39.893"/>
  <line y1="-39.503" x2="5.645" x1="2.56" style="fill:none;stroke:#00AEEF;stroke-width:0.58;" y2="-36.501"/>
  <line y1="-30.326" x2="8.616" x1="11.989" style="fill:none;stroke:#00AEEF;stroke-width:0.58;" y2="-33.608"/>
  <line y1="-29.625" x2="4.248" x1="5.828" style="fill:none;stroke:#00AEEF;stroke-width:0.58;" y2="-27.368"/>
  <line y1="-33.608" x2="5.828" x1="8.616" style="fill:none;stroke:#00AEEF;stroke-width:0.58;" y2="-29.625"/>
  <line y1="-33.608" x2="12.216" x1="8.616" style="fill:none;stroke:#00AEEF;stroke-width:0.58;" y2="-38.75"/>
  <line y1="-40.701" x2="12.216" x1="13.582" style="fill:none;stroke:#00AEEF;stroke-width:0.58;" y2="-38.75"/>
  <line y1="-36.061" x2="20.54" x1="14.877" style="fill:none;stroke:#00AEEF;stroke-width:0.58;" y2="-44.223"/>
  <line y1="-31.973" x2="14.877" x1="12.04" style="fill:none;stroke:#00AEEF;stroke-width:0.58;" y2="-36.061"/>
  <line y1="-38.775" x2="30.369" x1="24.925" style="fill:none;stroke:#00AEEF;stroke-width:0.58;" y2="-45.085"/>
  <line y1="-48.297" x2="35.369" x1="33.14" style="fill:none;stroke:#00AEEF;stroke-width:0.58;" y2="-50.881"/>
  <line y1="-35.41" x2="17.796" x1="22.021" style="fill:none;stroke:#00AEEF;stroke-width:0.58;" y2="-30.512"/>
  <line y1="-48.297" x2="30.369" x1="33.14" style="fill:none;stroke:#00AEEF;stroke-width:0.58;" y2="-45.085"/>
  <line y1="-27.461" x2="13.915" x1="15.164" style="fill:none;stroke:#00AEEF;stroke-width:0.58;" y2="-26.014"/>
  <line y1="-38.775" x2="22.021" x1="24.925" style="fill:none;stroke:#00AEEF;stroke-width:0.58;" y2="-35.41"/>
  <line y1="-27.461" x2="17.796" x1="15.164" style="fill:none;stroke:#00AEEF;stroke-width:0.58;" y2="-30.512"/>
  <line y1="-50.881" x2="35.915" x1="35.369" style="fill:none;stroke:#00AEEF;stroke-width:0.58;" y2="-51.514"/>
  <line y1="-35.572" x2="30.652" x1="34.248" style="fill:none;stroke:#00AEEF;stroke-width:0.58;" y2="-38.959"/>
  <line y1="-35.572" x2="37.93" x1="34.248" style="fill:none;stroke:#00AEEF;stroke-width:0.58;" y2="-32.104"/>
  <line y1="-29.105" x2="37.93" x1="41.114" style="fill:none;stroke:#00AEEF;stroke-width:0.58;" y2="-32.104"/>
  <line y1="-38.959" x2="29.864" x1="30.652" style="fill:none;stroke:#00AEEF;stroke-width:0.58;" y2="-39.701"/>
  <line y1="-29.105" x2="42.739" x1="41.114" style="fill:none;stroke:#00AEEF;stroke-width:0.58;" y2="-27.576"/>
  <line y1="-32.737" x2="26.614" x1="24.699" style="fill:none;stroke:#00AEEF;stroke-width:0.58;" y2="-30.826"/>
  <line y1="-35.41" x2="20.415" x1="22.021" style="fill:none;stroke:#00AEEF;stroke-width:0.58;" y2="-37.014"/>
  <line y1="-35.41" x2="24.699" x1="22.021" style="fill:none;stroke:#00AEEF;stroke-width:0.58;" y2="-32.737"/>
  <line y1="-30.512" x2="15.102" x1="17.796" style="fill:none;stroke:#00AEEF;stroke-width:0.58;" y2="-33.098"/>
  <line y1="-30.512" x2="19.79" x1="17.796" style="fill:none;stroke:#00AEEF;stroke-width:0.58;" y2="-28.598"/>
  <line y1="-25.746" x2="27.392" x1="24.482" style="fill:none;stroke:#00AEEF;stroke-width:0.58;" y2="-22.972"/>
  <line y1="-26.764" x2="24.482" x1="23.415" style="fill:none;stroke:#00AEEF;stroke-width:0.58;" y2="-25.746"/>
  <line y1="-22.972" x2="31.61" x1="27.392" style="fill:none;stroke:#00AEEF;stroke-width:0.58;" y2="-18.949"/>
  <line y1="-31.492" x2="24.482" x1="30.192" style="fill:none;stroke:#00AEEF;stroke-width:0.58;" y2="-25.746"/>
  <line y1="-35.572" x2="30.192" x1="34.248" style="fill:none;stroke:#00AEEF;stroke-width:0.58;" y2="-31.492"/>
  <line y1="-35.572" x2="37.915" x1="34.248" style="fill:none;stroke:#00AEEF;stroke-width:0.58;" y2="-39.264"/>
  <line y1="-25.746" x2="20.382" x1="24.482" style="fill:none;stroke:#00AEEF;stroke-width:0.58;" y2="-21.618"/>
  <line y1="-21.618" x2="18.394" x1="20.382" style="fill:none;stroke:#00AEEF;stroke-width:0.58;" y2="-19.618"/>
  <line y1="-32.737" x2="25.364" x1="24.699" style="fill:none;stroke:#00AEEF;stroke-width:0.58;" y2="-33.576"/>
  <line y1="-20.121" x2="18.004" x1="14.712" style="fill:none;stroke:#00AEEF;stroke-width:0.58;" y2="-24.28"/>
  <line y1="-32.737" x2="18.004" x1="24.699" style="fill:none;stroke:#00AEEF;stroke-width:0.58;" y2="-24.28"/>
  <line y1="-20.121" x2="13.489" x1="14.712" style="fill:none;stroke:#00AEEF;stroke-width:0.58;" y2="-18.576"/>
  <line y1="-28.076" x2="15.164" x1="14.614" style="fill:none;stroke:#00AEEF;stroke-width:0.58;" y2="-27.461"/>
  <line y1="-18.335" x2="20.382" x1="23.315" style="fill:none;stroke:#00AEEF;stroke-width:0.58;" y2="-21.618"/>
  <line y1="-18.335" x2="31.551" x1="23.315" style="fill:none;stroke:#00AEEF;stroke-width:0.58;" y2="-9.114"/>
  <line y1="-21.618" x2="18.004" x1="20.382" style="fill:none;stroke:#00AEEF;stroke-width:0.58;" y2="-24.28"/>
  <line y1="-27.461" x2="18.004" x1="15.164" style="fill:none;stroke:#00AEEF;stroke-width:0.58;" y2="-24.28"/>
  <line y1="-9.114" x2="32.832" x1="31.551" style="fill:none;stroke:#00AEEF;stroke-width:0.58;" y2="-7.681"/>
  <line y1="-26.479" x2="27.392" x1="30.475" style="fill:none;stroke:#00AEEF;stroke-width:0.58;" y2="-22.972"/>
  <line y1="-5.168" x2="11.165" x1="11.74" style="fill:none;stroke:#00AEEF;stroke-width:0.58;" y2="-4.514"/>
  <line y1="-18.335" x2="27.392" x1="23.315" style="fill:none;stroke:#00AEEF;stroke-width:0.58;" y2="-22.972"/>
  <line y1="-18.335" x2="19.954" x1="23.315" style="fill:none;stroke:#00AEEF;stroke-width:0.58;" y2="-14.512"/>
  <line y1="-28.201" x2="30.475" x1="31.989" style="fill:none;stroke:#00AEEF;stroke-width:0.58;" y2="-26.479"/>
  <line y1="-5.168" x2="15.102" x1="11.74" style="fill:none;stroke:#00AEEF;stroke-width:0.58;" y2="-8.992"/>
  <line y1="-14.512" x2="15.102" x1="19.954" style="fill:none;stroke:#00AEEF;stroke-width:0.58;" y2="-8.992"/>
  <line y1="-24.665" x2="37.614" x1="37.234" style="fill:none;stroke:#00AEEF;stroke-width:0.58;" y2="-25.201"/>
  <line y1="-21.512" x2="29.114" x1="35" style="fill:none;stroke:#00AEEF;stroke-width:0.58;" y2="-13.201"/>
  <line y1="-24.665" x2="35" x1="37.234" style="fill:none;stroke:#00AEEF;stroke-width:0.58;" y2="-21.512"/>
  <line y1="-19.482" x2="55.364" x1="54.947" style="fill:none;stroke:#00AEEF;stroke-width:0.58;" y2="-19.076"/>
  <line y1="-23.481" x2="42.778" x1="50.845" style="fill:none;stroke:#00AEEF;stroke-width:0.58;" y2="-31.345"/>
  <line y1="-31.345" x2="40.489" x1="42.778" style="fill:none;stroke:#00AEEF;stroke-width:0.58;" y2="-33.576"/>
  <line y1="-23.481" x2="54.947" x1="50.845" style="fill:none;stroke:#00AEEF;stroke-width:0.58;" y2="-19.482"/>
  <line y1="-18.434" x2="45.948" x1="43.662" style="fill:none;stroke:#00AEEF;stroke-width:0.58;" y2="-16.217"/>
  <line y1="-16.217" x2="46.415" x1="45.948" style="fill:none;stroke:#00AEEF;stroke-width:0.58;" y2="-15.764"/>
  <line y1="-21.474" x2="43.662" x1="40.526" style="fill:none;stroke:#00AEEF;stroke-width:0.58;" y2="-18.434"/>
  <line y1="-21.474" x2="37.234" x1="40.526" style="fill:none;stroke:#00AEEF;stroke-width:0.58;" y2="-24.665"/>
  <line y1="-31.681" x2="30.192" x1="29.998" style="fill:none;stroke:#00AEEF;stroke-width:0.58;" y2="-31.492"/>
  <line y1="-31.492" x2="37.234" x1="30.192" style="fill:none;stroke:#00AEEF;stroke-width:0.58;" y2="-24.665"/>
  <line y1="-22.546" x2="44.114" x1="47.145" style="fill:none;stroke:#00AEEF;stroke-width:0.58;" y2="-25.576"/>
  <line y1="-18.701" x2="48.978" x1="50.989" style="fill:none;stroke:#00AEEF;stroke-width:0.58;" y2="-20.712"/>
  <line y1="-20.712" x2="47.145" x1="48.978" style="fill:none;stroke:#00AEEF;stroke-width:0.58;" y2="-22.546"/>
  <line y1="-10.951" x2="25.614" x1="23.239" style="fill:none;stroke:#00AEEF;stroke-width:0.58;" y2="-8.195"/>
  <line y1="-8.195" x2="28.475" x1="25.614" style="fill:none;stroke:#00AEEF;stroke-width:0.58;" y2="-4.877"/>
  <line y1="-2.16" x2="28.475" x1="30.817" style="fill:none;stroke:#00AEEF;stroke-width:0.58;" y2="-4.877"/>
  <line y1="-3.368" x2="35.625" x1="34.593" style="fill:none;stroke:#00AEEF;stroke-width:0.58;" y2="-2.16"/>
  <line y1="-5.452" x2="41.399" x1="38.577" style="fill:none;stroke:#00AEEF;stroke-width:0.58;" y2="-2.16"/>
  <line y1="-7.451" x2="38.577" x1="36.864" style="fill:none;stroke:#00AEEF;stroke-width:0.58;" y2="-5.452"/>
  <line y1="-12.916" x2="15.102" x1="11.979" style="fill:none;stroke:#00AEEF;stroke-width:0.58;" y2="-8.992"/>
  <line y1="-12.916" x2="9.364" x1="11.979" style="fill:none;stroke:#00AEEF;stroke-width:0.58;" y2="-16.201"/>
  <line y1="-2.16" x2="15.102" x1="20.541" style="fill:none;stroke:#00AEEF;stroke-width:0.58;" y2="-8.992"/>
  <line y1="-6.201" x2="22.999" x1="21.989" style="fill:none;stroke:#00AEEF;stroke-width:0.58;" y2="-4.958"/>
  <line y1="-4.958" x2="25.272" x1="22.999" style="fill:none;stroke:#00AEEF;stroke-width:0.58;" y2="-2.16"/>
  <line y1="-17.985" x2="40.639" x1="37.993" style="fill:none;stroke:#00AEEF;stroke-width:0.58;" y2="-14.785"/>
  <path d="M46.828-7.298l0.286,0.347c0.528,0.997,1.91,2.849,3.422,4.791" style="fill:none;stroke:#00AEEF;stroke-width:0.58;"/>
  <line y1="-17.985" x2="36.989" x1="37.993" style="fill:none;stroke:#00AEEF;stroke-width:0.58;" y2="-19.201"/>
  <line y1="-14.785" x2="46.828" x1="40.639" style="fill:none;stroke:#00AEEF;stroke-width:0.58;" y2="-7.298"/>
  <line y1="-4.451" x2="14.957" x1="16.739" style="fill:none;stroke:#00AEEF;stroke-width:0.58;" y2="-2.16"/>
  <line y1="-10.826" x2="25.614" x1="27.739" style="fill:none;stroke:#00AEEF;stroke-width:0.58;" y2="-8.195"/>
  <line y1="-4.958" x2="20.739" x1="22.999" style="fill:none;stroke:#00AEEF;stroke-width:0.58;" y2="-2.16"/>
  <line y1="-8.195" x2="22.999" x1="25.614" style="fill:none;stroke:#00AEEF;stroke-width:0.58;" y2="-4.958"/>
  <line y1="-17.985" x2="40.526" x1="37.993" style="fill:none;stroke:#00AEEF;stroke-width:0.58;" y2="-21.474"/>
  <line y1="-21.474" x2="42.915" x1="40.526" style="fill:none;stroke:#00AEEF;stroke-width:0.58;" y2="-24.764"/>
  <line y1="-17.985" x2="31.551" x1="37.993" style="fill:none;stroke:#00AEEF;stroke-width:0.58;" y2="-9.114"/>
  <line y1="-9.114" x2="28.475" x1="31.551" style="fill:none;stroke:#00AEEF;stroke-width:0.58;" y2="-4.877"/>
  <line y1="-4.877" x2="26.501" x1="28.475" style="fill:none;stroke:#00AEEF;stroke-width:0.58;" y2="-2.16"/>
  <line y1="-6.576" x2="31.676" x1="34.864" style="fill:none;stroke:#00AEEF;stroke-width:0.58;" y2="-2.16"/>
  <line y1="-5.452" x2="42.739" x1="38.577" style="fill:none;stroke:#00AEEF;stroke-width:0.58;" y2="-10.701"/>
  <line y1="-5.452" x2="35.968" x1="38.577" style="fill:none;stroke:#00AEEF;stroke-width:0.58;" y2="-2.16"/>
  <line y1="-14.014" x2="20.385" x1="24.998" style="fill:none;stroke:#00AEEF;stroke-width:0.58;" y2="-8.868"/>
  <path d="M47.832-23.348c0,0-0.255,0.297-0.687,0.802" style="fill:none;stroke:#00AEEF;stroke-width:0.58;"/>
  <path d="M43.662-18.434c1.423-1.697,2.725-3.226,3.483-4.112" style="fill:none;stroke:#00AEEF;stroke-width:0.58;"/>
  <path d="M40.639-14.785c-1.456,1.785-2.721,3.392-3.308,4.272" style="fill:none;stroke:#00AEEF;stroke-width:0.58;"/>
  <path d="M43.662-18.434c-0.996,1.188-2.052,2.458-3.022,3.648" style="fill:none;stroke:#00AEEF;stroke-width:0.58;"/>
  <path d="M2.16-21.218c0.347-0.517,0.671-1.001,0.966-1.442" style="fill:none;stroke:#00AEEF;stroke-width:0.58;"/>
  <path d="M4.915-25.326c0,0-0.702,1.045-1.789,2.666" style="fill:none;stroke:#00AEEF;stroke-width:0.58;"/>
  <line y1="-8.995" x2="5.358" x1="8.324" style="fill:none;stroke:#00AEEF;stroke-width:0.58;" y2="-5.813"/>
  <line y1="-16.514" x2="11.979" x1="15.332" style="fill:none;stroke:#00AEEF;stroke-width:0.58;" y2="-12.916"/>
  <line y1="-4.076" x2="5.358" x1="3.739" style="fill:none;stroke:#00AEEF;stroke-width:0.58;" y2="-5.813"/>
  <line y1="-12.916" x2="8.324" x1="11.979" style="fill:none;stroke:#00AEEF;stroke-width:0.58;" y2="-8.995"/>
  <line y1="-9.606" x2="56.16" x1="55.761" style="fill:none;stroke:#00AEEF;stroke-width:0.58;" y2="-10.155"/>
  <line y1="-9.606" x2="51.559" x1="55.761" style="fill:none;stroke:#00AEEF;stroke-width:0.58;" y2="-3.826"/>
  <line y1="-13.211" x2="2.16" x1="4.45" style="fill:none;stroke:#00AEEF;stroke-width:0.58;" y2="-10.061"/>
  <line y1="-24.889" x2="11.765" x1="12.939" style="fill:none;stroke:#00AEEF;stroke-width:0.58;" y2="-23.273"/>
  <line y1="-23.273" x2="4.45" x1="11.765" style="fill:none;stroke:#00AEEF;stroke-width:0.58;" y2="-13.211"/>
  <line y1="-14.312" x2="48.548" x1="51.491" style="fill:none;stroke:#00AEEF;stroke-width:0.58;" y2="-17.556"/>
  <line y1="-9.606" x2="51.491" x1="55.761" style="fill:none;stroke:#00AEEF;stroke-width:0.58;" y2="-14.312"/>
  <line y1="-9.606" x2="56.16" x1="55.761" style="fill:none;stroke:#00AEEF;stroke-width:0.58;" y2="-9.167"/>
  <line y1="-32.701" x2="2.16" x1="2.989" style="fill:none;stroke:#00AEEF;stroke-width:0.58;" y2="-33.461"/>
  <line y1="-2.16" x2="5.358" x1="8.673" style="fill:none;stroke:#00AEEF;stroke-width:0.58;" y2="-5.813"/>
  <line y1="-9.338" x2="5.358" x1="2.16" style="fill:none;stroke:#00AEEF;stroke-width:0.58;" y2="-5.813"/>
  <line y1="-51.389" x2="12.045" x1="12.977" style="fill:none;stroke:#00AEEF;stroke-width:0.58;" y2="-52.416"/>
  <line y1="-56.16" x2="9.671" x1="8.648" style="fill:none;stroke:#00AEEF;stroke-width:0.58;" y2="-55.033"/>
  <line y1="-52.416" x2="9.671" x1="12.045" style="fill:none;stroke:#00AEEF;stroke-width:0.58;" y2="-55.033"/>
  <line y1="-25.415" x2="2.16" x1="9.763" style="fill:none;stroke:#00AEEF;stroke-width:0.58;" y2="-15.346"/>
  <line y1="-25.415" x2="11.018" x1="9.763" style="fill:none;stroke:#00AEEF;stroke-width:0.58;" y2="-27.076"/>
  <path d="M49.342-11.089c-0.942,1.415-1.808,2.721-2.514,3.791" style="fill:none;stroke:#00AEEF;stroke-width:0.58;"/>
  <path d="M49.342-11.089c0.688-1.033,1.415-2.124,2.149-3.224" style="fill:none;stroke:#00AEEF;stroke-width:0.58;"/>
  <path d="M45.064-4.576c0.174-0.299,0.828-1.305,1.763-2.722" style="fill:none;stroke:#00AEEF;stroke-width:0.58;"/>
  <path d="M54.947-19.482c-1.077,1.609-2.275,3.401-3.457,5.17" style="fill:none;stroke:#00AEEF;stroke-width:0.58;"/>
  <path d="M56.16-21.293c-0.38,0.567-0.787,1.175-1.213,1.811" style="fill:none;stroke:#00AEEF;stroke-width:0.58;"/>
  <line y1="-15.412" x2="54.49" x1="56.16" style="fill:none;stroke:#00AEEF;stroke-width:0.58;" y2="-13.201"/>
  <line y1="-26.479" x2="28.165" x1="30.475" style="fill:none;stroke:#00AEEF;stroke-width:0.58;" y2="-29.014"/>
  <line y1="-21.512" x2="35.739" x1="35" style="fill:none;stroke:#00AEEF;stroke-width:0.58;" y2="-20.701"/>
  <line y1="-21.512" x2="30.475" x1="35" style="fill:none;stroke:#00AEEF;stroke-width:0.58;" y2="-26.479"/>
  <line y1="-11.089" x2="47.364" x1="49.342" style="fill:none;stroke:#00AEEF;stroke-width:0.58;" y2="-13.389"/>
  <line y1="-7.951" x2="49.342" x1="52.04" style="fill:none;stroke:#00AEEF;stroke-width:0.58;" y2="-11.089"/>
  <line y1="-2.16" x2="43.051" x1="45.505" style="fill:none;stroke:#00AEEF;stroke-width:0.58;" y2="-5.014"/>
  <line y1="-53.576" x2="45.505" x1="47.728" style="fill:none;stroke:#00AEEF;stroke-width:0.58;" y2="-56.16"/>
  <line y1="-25.848" x2="56.16" x1="54.302" style="fill:none;stroke:#00AEEF;stroke-width:0.58;" y2="-23.687"/>
  <line y1="-20.41" x2="3.126" x1="5.061" style="fill:none;stroke:#00AEEF;stroke-width:0.58;" y2="-22.66"/>
  <line y1="-23.783" x2="3.126" x1="2.16" style="fill:none;stroke:#00AEEF;stroke-width:0.58;" y2="-22.66"/>
  <line y1="-39.889" x2="54.661" x1="56.16" style="fill:none;stroke:#00AEEF;stroke-width:0.58;" y2="-41.348"/>
  <line y1="-8.995" x2="9.207" x1="8.324" style="fill:none;stroke:#00AEEF;stroke-width:0.58;" y2="-8.035"/>
  <line y1="-13.211" x2="8.324" x1="4.45" style="fill:none;stroke:#00AEEF;stroke-width:0.58;" y2="-8.995"/>
  <line y1="-13.211" x2="3.406" x1="4.45" style="fill:none;stroke:#00AEEF;stroke-width:0.58;" y2="-14.348"/>
  <line y1="-38.775" x2="26.331" x1="24.925" style="fill:none;stroke:#00AEEF;stroke-width:0.58;" y2="-37.098"/>
  <line y1="-38.775" x2="21.581" x1="24.925" style="fill:none;stroke:#00AEEF;stroke-width:0.58;" y2="-42.764"/>
  <line y1="-2.855" x2="53.603" x1="56.16" style="fill:none;stroke:#00AEEF;stroke-width:0.58;" y2="-5.576"/>
  <line y1="-43.589" x2="21.218" x1="17.364" style="fill:none;stroke:#00AEEF;stroke-width:0.58;" y2="-48.896"/>
  <line y1="-48.896" x2="23.479" x1="21.218" style="fill:none;stroke:#00AEEF;stroke-width:0.58;" y2="-52.01"/>
  <line y1="-55.367" x2="26.492" x1="25.917" style="fill:none;stroke:#00AEEF;stroke-width:0.58;" y2="-56.16"/>
  <line y1="-55.367" x2="23.479" x1="25.917" style="fill:none;stroke:#00AEEF;stroke-width:0.58;" y2="-52.01"/>
 </g>
</svg>
