<?xml version="1.0"?>
<!-- Converted with SVG Converter - Version 0.9.5 (Compiled Fri Feb 21 09:53:38 2020) - Copyright (C) 2011 Nokia -->
<svg xmlns="http://www.w3.org/2000/svg" baseProfile="tiny" y="0px" xmlns:xlink="http://www.w3.org/1999/xlink" x="0px" version="1.1" width="74.561" viewBox="1.86 -76.41 74.561 74.55" height="74.55" xml:space="preserve">
 <g>
  <rect y="-76.41" style="fill:none;" x="1.86" width="74.561" height="74.55"/>
  <path style="fill:none;stroke:#000000;stroke-width:0.43;" d="M65.756-65.259c3.5-3.166,7.232-9.006,8.954-11.151"/>
  <path style="fill:none;stroke:#000000;stroke-width:0.43;" d="M72.277-76.41c-0.693,1.063-1.295,2.1-1.445,2.363"/>
  <path style="fill:none;stroke:#000000;stroke-width:0.43;" d="M59.457-61.097c4.9-2.494,6.06-8.729,10.435-11.704"/>
  <path style="fill:none;stroke:#000000;stroke-width:0.43;" d="M59.256-62.592c3.167-4.333,5.876-7.907,8.754-10.908"/>
  <path style="fill-rule:evenodd;clip-rule:evenodd;fill:none;stroke:#000000;stroke-width:0.43;" d="M52.435-56.985    c2.844-2.013,7.94-11.288,8.903-12.6c0.963-1.312,1.875-2.349,3.319-3.399"/>
  <path style="fill:none;stroke:#000000;stroke-width:0.43;" d="M64.298-76.41c-1.75,1.929-4.881,6.074-6.11,8.532    c-1.356,2.712-4.863,3.797-6.219,6.904"/>
  <path style="fill:none;stroke:#000000;stroke-width:0.43;" d="M51.901-63.339c2.704-3.166,3.501-8.931,7.336-12.24"/>
  <path style="fill:none;stroke:#000000;stroke-width:0.43;" d="M55.422-73.489c-0.973,1.4-1.432,2.419-2.178,3.423"/>
  <path style="fill:none;stroke:#000000;stroke-width:0.43;" d="M40.163-63.985c1.05-0.656,2.056-2.231,3.369-4.462    c1.18-2.006,4.021-5.921,5.41-7.963"/>
  <path style="fill:none;stroke:#000000;stroke-width:0.43;" d="M69.956-58.101c1.575-1.837,3.15-6.497,4.004-8.072    c0.339-0.626,1.311-1.771,2.461-3.194"/>
  <path style="fill:none;stroke:#000000;stroke-width:0.43;" d="M76.421-75.111c-0.167,0.258-0.352,0.506-0.558,0.735    c-1.058,1.175-4.2,4.791-4.856,5.71"/>
  <path style="fill:none;stroke:#000000;stroke-width:0.43;" d="M61.426-59.085c2.559-4.134,6.103-4.725,9.581-9.581"/>
  <path style="fill:none;stroke:#000000;stroke-width:0.43;" d="M75.338-64.729c0.368-0.595,0.729-1.097,1.083-1.54"/>
  <path style="fill:none;stroke:#000000;stroke-width:0.43;" d="M70.425-76.41c-0.652,0.987-1.49,1.945-2.414,2.909"/>
  <path style="fill:none;stroke:#000000;stroke-width:0.43;" d="M55.913-68.141c1.788-1.609,3.718-5.472,5.929-8.269"/>
  <path style="fill:none;stroke:#000000;stroke-width:0.43;" d="M64.269-73.697c1.165-0.666,2.333-1.61,3.491-2.713"/>
  <path style="fill:none;stroke:#000000;stroke-width:0.43;" d="M76.421-72.768c-0.546,0.885-0.936,1.623-1.479,2.352"/>
  <path style="fill:none;stroke:#000000;stroke-width:0.43;" d="M74.419-56.722c-0.919,1.05-3.988,4.65-5.075,6.212    c-1.074,1.542-4.244,6.825-5.95,7.875"/>
  <path style="fill:none;stroke:#000000;stroke-width:0.43;" d="M69.731-53.822c-1.443,1.444-3.843,4.449-5.418,7.468    c-1.575,3.019-4.003,4.725-5.315,5.906"/>
  <path style="fill:none;stroke:#000000;stroke-width:0.43;" d="M64.969-50.619c2.297-4.266,6.737-6.191,10.938-13.016"/>
  <path style="fill:none;stroke:#000000;stroke-width:0.43;" d="M71.619-64.072c-1.05,1.181-2.209,5.862-5.075,8.575"/>
  <path style="fill:none;stroke:#000000;stroke-width:0.43;" d="M69.731-47.784c2.625-2.538,4.547-4.847,5.038-6.138    c0.334-0.876,0.979-1.934,1.652-2.903"/>
  <path style="fill:none;stroke:#000000;stroke-width:0.43;" d="M59.319-51.459c-0.854,1.969-2.225,4.318-3.603,5.893    c-1.378,1.575-1.51,2.625-2.166,4.068"/>
  <path style="fill:none;stroke:#000000;stroke-width:0.43;" d="M59.719-53.31c0.656-1.312,1.969-4.396,3.872-5.972    c1.903-1.575,2.756-2.494,3.609-3.413"/>
  <path style="fill:none;stroke:#000000;stroke-width:0.43;" d="M59.785-56.066c-1.837,1.903-6.037,5.841-7.219,8.072    c-1.181,2.231-3.476,5.568-4.643,7.735"/>
  <path style="fill:none;stroke:#000000;stroke-width:0.43;" d="M45.756-38.259c0.591-1.575,1.275-4.529,2.588-6.038    c1.312-1.509,1.969-2.384,2.362-2.975"/>
  <path style="fill:none;stroke:#000000;stroke-width:0.43;" d="M45.59-42.259c0.654-1.297,1.086-2.832,1.857-3.766    c1.247-1.509,3.413-3.019,4.725-5.053c1.312-2.034,3.019-3.806,3.544-4.462"/>
  <path style="fill:none;stroke:#000000;stroke-width:0.43;" d="M50.657-60.712c-1.05,1.182-1.634,3.859-2.816,6.746    c-1.181,2.888-4.396,5.906-5.775,7.153c0,0-1.017,1.083-1.607,2.001c-0.591,0.919-1.018,2.231-1.116,2.658"/>
  <path style="fill:none;stroke:#000000;stroke-width:0.43;" d="M61.819-47.623c0.328-0.459,1.247-2.668,1.772-3.456    c1.143-1.714,2.69-6.497,3.478-8.531c0.788-2.034,4.594-6.431,5.841-8.006"/>
  <path style="fill:none;stroke:#000000;stroke-width:0.43;" d="M54.929-61.972c-1.247,1.509-3.872,3.872-4.397,5.644    c-0.525,1.772-0.919,2.887-1.247,3.347"/>
  <path style="fill:none;stroke:#000000;stroke-width:0.43;" d="M58.472-61.447c-1.181,0.984-2.953,2.953-3.872,4.594    c-0.919,1.641-2.369,3.12-4.994,6.357"/>
  <path style="fill:none;stroke:#000000;stroke-width:0.43;" d="M56.519-54.697c1.522-1.991,1.459-2.276,1.428-2.223    c0.656-1.133,1.203-1.673,2.509-3.027"/>
  <path style="fill:none;stroke:#000000;stroke-width:0.43;" d="M50.722-68.456c-1.086,1.278-2.45,3.734-3.537,6.549    c-1.116,2.888-3.762,6.481-4.595,8.981"/>
  <path style="fill:none;stroke:#000000;stroke-width:0.43;" d="M52.566-69.126c-0.656,1.837-1.443,4.134-2.887,6.431    c-1.444,2.297-2.625,5.513-3.019,6.956c-0.394,1.444-3.869,6.404-5.903,7.979"/>
  <path style="fill:none;stroke:#000000;stroke-width:0.43;" d="M39.146-75.12c0.266-0.412,0.49-0.851,0.693-1.291"/>
  <path style="fill:none;stroke:#000000;stroke-width:0.43;" d="M72.757-57.248c0.778-0.849,2.885-2.254,3.664-2.762"/>
  <path style="fill:none;stroke:#000000;stroke-width:0.43;" d="M76.421-52.208c-2.88,2.991-6.792,8.119-6.792,8.119"/>
  <path style="fill:none;stroke:#000000;stroke-width:0.43;" d="M55.47-73.535c0.567-0.809,1.307-1.745,2.371-2.876"/>
  <path style="fill:none;stroke:#000000;stroke-width:0.43;" d="M55.595-76.41c-0.824,1.047-2.194,2.517-3.446,3.868l-0.095,0.082    c-1.244,1.343-2.926,2.743-3.234,3.283c-0.7,1.225-2.188,4.965-4.594,6.891"/>
  <path style="fill:none;stroke:#000000;stroke-width:0.43;" d="M53.605-76.41c-0.616,0.728-1.255,1.553-1.63,2.166"/>
  <path style="fill:none;stroke:#000000;stroke-width:0.43;" d="M46.824-69.814c1.05-0.984,2.658-3.424,2.658-3.424    c0.903-1.225,1.475-2.265,1.852-3.172"/>
  <path style="fill:none;stroke:#000000;stroke-width:0.43;" d="M29.455-66.894c4.083-2.295,6.248-7.371,7.969-9.516"/>
  <path style="fill:none;stroke:#000000;stroke-width:0.43;" d="M34.991-76.41c-0.693,1.063-1.295,2.1-1.445,2.363"/>
  <path style="fill:none;stroke:#000000;stroke-width:0.43;" d="M22.171-61.097c4.9-2.494,6.059-8.729,10.434-11.704"/>
  <path style="fill:none;stroke:#000000;stroke-width:0.43;" d="M22.565-63.285c1.566-4.156,5.282-7.214,8.16-10.216"/>
  <path style="fill-rule:evenodd;clip-rule:evenodd;fill:none;stroke:#000000;stroke-width:0.43;" d="M15.088-57.3    c2.844-2.013,8.001-10.973,8.964-12.285c0.963-1.312,2.157-2.728,3.601-3.778"/>
  <path style="fill:none;stroke:#000000;stroke-width:0.43;" d="M27.012-76.41c-1.75,1.929-4.881,6.074-6.11,8.532    c-0.753,1.506-2.029,3.172-3.25,4.265"/>
  <path style="fill:none;stroke:#000000;stroke-width:0.43;" d="M13.71-61.828c4.025-2.538,3.78-9.901,8.243-13.751"/>
  <path style="fill:none;stroke:#000000;stroke-width:0.43;" d="M6.819-62.353c2.406-1.925,3.763-5.337,4.463-6.562    c0.308-0.54,1.231-2.834,2.475-4.177"/>
  <path style="fill:none;stroke:#000000;stroke-width:0.43;" d="M2.877-63.985c1.05-0.656,2.056-2.231,3.369-4.462    c1.18-2.006,4.022-5.921,5.41-7.963"/>
  <path style="fill:none;stroke:#000000;stroke-width:0.43;" d="M33.777-60.363c1.438-2.625,2.043-4.234,2.896-5.809    c0.339-0.626,1.311-1.771,2.461-3.194h0.011c1.627-2.014,3.614-4.588,4.676-7.044"/>
  <path style="fill:none;stroke:#000000;stroke-width:0.43;" d="M24.14-59.085c2.559-4.134,6.103-4.725,9.581-9.581    c0.657-0.918,3.799-4.535,4.856-5.71c0.206-0.229,0.39-0.477,0.558-0.735"/>
  <path style="fill:none;stroke:#000000;stroke-width:0.43;" d="M38.052-64.729c0.368-0.595,1.094-1.54,1.094-1.54    c2.11-2.636,4.029-3.163,6.333-8.5"/>
  <path style="fill:none;stroke:#000000;stroke-width:0.43;" d="M1.86-69.366c1.628-2.014,3.614-4.588,4.676-7.044"/>
  <path style="fill:none;stroke:#000000;stroke-width:0.43;" d="M1.86-66.269c2.11-2.636,4.029-3.163,6.332-8.5"/>
  <path style="fill:none;stroke:#000000;stroke-width:0.43;" d="M39.135-45.943c-1.25,1.146-1.327,2.243-2.724,3.396    c-1.509,1.247-2.996,2.975-2.996,2.975c-0.088,0.146-0.18,0.292-0.276,0.438"/>
  <path style="fill:none;stroke:#000000;stroke-width:0.43;" d="M33.139-76.41c-0.652,0.987-1.49,1.945-2.414,2.909"/>
  <path style="fill:none;stroke:#000000;stroke-width:0.43;" d="M30.475-39.135c3.009-2.863,5.96-6.796,8.66-9.705h0.011    c0.847-0.913,1.669-1.724,2.461-2.371"/>
  <path style="fill:none;stroke:#000000;stroke-width:0.43;" d="M19.09-67.988c1.556-1.88,3.591-6.05,5.466-8.422"/>
  <path style="fill:none;stroke:#000000;stroke-width:0.43;" d="M26.983-73.697c1.164-0.666,2.332-1.61,3.491-2.713"/>
  <path style="fill:none;stroke:#000000;stroke-width:0.43;" d="M1.86-72.782c0.599-0.97,1.386-2.118,2.764-3.628"/>
  <path style="fill:none;stroke:#000000;stroke-width:0.43;" d="M37.657-70.416c0.542-0.729,0.932-1.466,1.478-2.352l0.011-0.015    c0.599-0.97,1.386-2.118,2.764-3.628"/>
  <path style="fill:none;stroke:#000000;stroke-width:0.43;" d="M5.896-45.894c-0.525,0.722-1.509,2.297-1.772,3.084    c-0.262,0.788-0.459,1.312-0.459,1.312c-0.394,0.644-0.709,1.503-1.106,2.363"/>
  <path style="fill:none;stroke:#000000;stroke-width:0.43;" d="M37.965-56.863c-0.918,1.05-4.688,4.812-5.907,6.354    c-1.166,1.474-4.244,6.825-5.95,7.875"/>
  <path style="fill:none;stroke:#000000;stroke-width:0.43;" d="M33.09-54.051c-1.444,1.444-4.488,4.678-6.063,7.697    c-1.575,3.019-3.08,4.147-4.392,5.329"/>
  <path style="fill:none;stroke:#000000;stroke-width:0.43;" d="M27.683-50.619c2.297-4.266,6.707-5.857,10.907-12.682"/>
  <path style="fill:none;stroke:#000000;stroke-width:0.43;" d="M32.902-61.301c-0.735,1.569-1.198,3.49-2.813,5.438"/>
  <path style="fill:none;stroke:#000000;stroke-width:0.43;" d="M33.2-49.031c2.691-2.297,2.923-2.726,3.827-3.77    c0.812-0.938,1.39-1.656,2.062-2.625l0.75-1.375c0.791-1.139,2.346-3.003,2.75-3.458"/>
  <path style="fill:none;stroke:#000000;stroke-width:0.43;" d="M3.883-59.435C3.479-58.98,2.65-57.964,1.86-56.826"/>
  <path style="fill:none;stroke:#000000;stroke-width:0.43;" d="M22.307-51.394c-0.854,1.969-2.499,4.252-3.876,5.828    c-1.378,1.575-1.509,2.625-2.166,4.068"/>
  <path style="fill:none;stroke:#000000;stroke-width:0.43;" d="M22.63-52.851c0.656-1.312,1.969-4.397,3.872-5.972    c1.903-1.575,2.756-2.494,3.609-3.413"/>
  <path style="fill:none;stroke:#000000;stroke-width:0.43;" d="M22.499-56.066c-1.838,1.903-6.038,5.841-7.219,8.072    c-1.182,2.231-3.651,6.155-5.024,8.735"/>
  <path style="fill:none;stroke:#000000;stroke-width:0.43;" d="M8.423-38.759c0.59-1.575,1.322-4.029,2.635-5.538    c1.312-1.509,1.969-2.384,2.363-2.975"/>
  <path style="fill:none;stroke:#000000;stroke-width:0.43;" d="M7.756-40.926c0.655-1.297,1.633-4.166,2.405-5.1    c1.247-1.509,3.68-2.809,4.992-4.843c1.312-2.034,2.822-3.675,3.347-4.331"/>
  <path style="fill:none;stroke:#000000;stroke-width:0.43;" d="M12.852-59.807c-1.05,1.181-1.116,2.953-2.297,5.84    c-1.181,2.888-4.397,5.906-5.775,7.153c0,0-1.018,1.083-1.608,2.001c-0.591,0.919-1.017,2.231-1.116,2.658"/>
  <path style="fill:none;stroke:#000000;stroke-width:0.43;" d="M24.533-47.623c0.328-0.459,1.247-2.668,1.772-3.456    c1.143-1.714,2.69-6.497,3.478-8.531c0.788-2.034,4.594-6.431,5.841-8.006"/>
  <path style="fill:none;stroke:#000000;stroke-width:0.43;" d="M16.86-61.959c-1.247,1.509-3.089,3.858-3.614,5.63    c-0.525,1.772-0.918,2.887-1.247,3.347"/>
  <path style="fill:none;stroke:#000000;stroke-width:0.43;" d="M21.652-62.051c-1.181,0.984-3.419,3.557-4.338,5.197    c-0.919,1.641-3.058,3.428-5.391,7.428"/>
  <path style="fill:none;stroke:#000000;stroke-width:0.43;" d="M19.874-55.869c0.656-1.133,2.597-3.39,3.903-4.744"/>
  <path style="fill:none;stroke:#000000;stroke-width:0.43;" d="M14.432-70.184c-1.116,1.312-3.417,5.39-4.533,8.277    c-1.116,2.888-3.281,6.562-5.316,8.203"/>
  <path style="fill:none;stroke:#000000;stroke-width:0.43;" d="M15.756-69.426c-0.656,1.837-1.92,4.435-3.364,6.731    c-1.444,2.297-2.625,5.513-3.019,6.956c-0.394,1.444-2.494,4.266-4.528,5.841"/>
  <path style="fill:none;stroke:#000000;stroke-width:0.43;" d="M1.86-75.12c0.266-0.412,0.49-0.851,0.693-1.291"/>
  <path style="fill:none;stroke:#000000;stroke-width:0.43;" d="M8.291-68.732c-0.427,0.656-1.936,4.069-2.658,5.053    c-0.722,0.984-1.871,2.396-3.478,3.478c0,0-0.11,0.07-0.295,0.191"/>
  <path style="fill:none;stroke:#000000;stroke-width:0.43;" d="M34.902-55.926c0.778-0.849,3.453-3.576,4.232-4.084h0.011    c0.185-0.121,0.295-0.191,0.295-0.191c1.608-1.083,2.756-2.494,3.479-3.478c0.722-0.984,2.783-3.858,3.209-4.515"/>
  <path style="fill:none;stroke:#000000;stroke-width:0.43;" d="M31.256-42.092c0,0,4.999-7.125,7.878-10.116h0.011    c0.477-0.495,0.925-0.932,1.323-1.277c0.965-0.837,3.357-5.376,4.954-7.607"/>
  <path style="fill:none;stroke:#000000;stroke-width:0.43;" d="M2.188-46.222c-0.118,0.093-0.227,0.187-0.328,0.279"/>
  <path style="fill:none;stroke:#000000;stroke-width:0.43;" d="M1.86-48.839c0.847-0.913,1.669-1.724,2.461-2.371"/>
  <path style="fill:none;stroke:#000000;stroke-width:0.43;" d="M6.793-60.529c-1.597,2.231-2.644,6.207-3.609,7.044    c-0.398,0.345-0.847,0.782-1.323,1.277"/>
  <path style="fill:none;stroke:#000000;stroke-width:0.43;" d="M20.554-76.41c-1.063,1.131-1.804,2.067-2.371,2.876l-0.047,0.046    c-0.973,1.4-1.432,2.419-2.178,3.423"/>
  <path style="fill:none;stroke:#000000;stroke-width:0.43;" d="M18.309-76.41c-0.824,1.047-2.194,2.517-3.445,3.868l-0.628,0.74"/>
  <path style="fill:none;stroke:#000000;stroke-width:0.43;" d="M16.319-76.41c-0.616,0.728-1.255,1.553-1.63,2.166"/>
  <path style="fill:none;stroke:#000000;stroke-width:0.43;" d="M9.538-69.814c1.05-0.984,2.658-3.424,2.658-3.424    c0.903-1.225,1.475-2.265,1.852-3.172"/>
  <path style="fill:none;stroke:#000000;stroke-width:0.43;" d="M67.282-29.759c3.69-3.115,5.707-7.231,7.428-9.376    c0.215-0.269,0.424-0.491,0.628-0.656"/>
  <path style="fill:none;stroke:#000000;stroke-width:0.43;" d="M75.338-2.516c-0.204,0.165-0.413,0.388-0.628,0.656"/>
  <path style="fill:none;stroke:#000000;stroke-width:0.43;" d="M70.831-36.772c0.15-0.263,0.752-1.299,1.445-2.362    c0.114-0.175,0.231-0.352,0.349-0.525c0,0,1.302-1.641,1.925-2.035"/>
  <path style="fill:none;stroke:#000000;stroke-width:0.43;" d="M59.457-23.822c4.9-2.494,6.775-8.562,10.435-11.703"/>
  <path style="fill:none;stroke:#000000;stroke-width:0.43;" d="M59.851-26.01c2.619-4.012,5.282-7.214,8.16-10.215"/>
  <path style="fill-rule:evenodd;clip-rule:evenodd;fill:none;stroke:#000000;stroke-width:0.43;" d="M52.435-19.71    c2.844-2.012,7.94-11.288,8.903-12.6c1.012-1.379,2.025-2.068,3.494-3.137"/>
  <path style="fill:none;stroke:#000000;stroke-width:0.43;" d="M51.794-23.372c2.013-3.062,5.038-4.52,6.394-7.232    c1.229-2.458,4.36-6.602,6.11-8.531l0,0c0.182-0.2,1.757-1.851,1.905-2c0,0,2.446-3.259,3.003-4.375"/>
  <path style="fill:none;stroke:#000000;stroke-width:0.43;" d="M65.144-4.747c-1.171,0.502-2.267,1.578-3.302,2.887"/>
  <path style="fill:none;stroke:#000000;stroke-width:0.43;" d="M51.707-25.909c3.581-3.53,3.494-7.993,7.263-11.637"/>
  <path style="fill:none;stroke:#000000;stroke-width:0.43;" d="M39.923-25.426c1-1.667,3.188-3.935,4.5-6.167    c1.18-2.006,5.321-9.183,5.912-10.167"/>
  <path style="fill:none;stroke:#000000;stroke-width:0.43;" d="M71.132-22.584c1.575-1.837,1.975-4.738,2.828-6.313    c0.339-0.626,1.311-1.77,2.461-3.194"/>
  <path style="fill:none;stroke:#000000;stroke-width:0.43;" d="M76.421-37.835c-0.167,0.258-0.352,0.506-0.558,0.735    c-1.058,1.175-4.2,4.791-4.856,5.71"/>
  <path style="fill:none;stroke:#000000;stroke-width:0.43;" d="M61.426-21.81c2.559-4.135,6.103-4.725,9.581-9.581"/>
  <path style="fill:none;stroke:#000000;stroke-width:0.43;" d="M75.338-27.454c0.368-0.595,0.729-1.097,1.083-1.54"/>
  <path style="fill:none;stroke:#000000;stroke-width:0.43;" d="M72.277-1.86c0.114-0.175,0.231-0.352,0.349-0.525    c0,0,1.302-1.641,1.925-2.034"/>
  <path style="fill:none;stroke:#000000;stroke-width:0.43;" d="M76.421-8.668c-1.25,1.145-1.327,2.242-2.724,3.396    c-1.509,1.247-2.997,2.975-2.997,2.975c-0.088,0.147-0.18,0.293-0.276,0.438"/>
  <path style="fill:none;stroke:#000000;stroke-width:0.43;" d="M68.011-36.226c0.924-0.964,1.762-1.922,2.414-2.909    c0.096-0.146,0.188-0.291,0.276-0.438c0,0,1.487-1.728,2.997-2.975c1.396-1.153,1.473-2.25,2.724-3.396"/>
  <path style="fill:none;stroke:#000000;stroke-width:0.43;" d="M67.76-1.86c3.009-2.863,5.96-6.796,8.661-9.705"/>
  <path style="fill:none;stroke:#000000;stroke-width:0.43;" d="M64.298-1.86c0.182-0.2,0.348-0.376,0.497-0.525    c0,0,1.225-0.918,1.783-2.034c0.558-1.116,3.216-5.513,3.773-6.169"/>
  <path style="fill:none;stroke:#000000;stroke-width:0.43;" d="M55.59-29.426c1.575-2.275,5.106-8.386,7.317-11.183"/>
  <path style="fill:none;stroke:#000000;stroke-width:0.43;" d="M64.269-36.422c1.165-0.665,2.333-1.61,3.491-2.712    c3.009-2.863,5.96-6.796,8.661-9.705"/>
  <path style="fill:none;stroke:#000000;stroke-width:0.43;" d="M57.82-1.86c0.211-0.225,0.436-0.458,0.674-0.7"/>
  <path style="fill:none;stroke:#000000;stroke-width:0.43;" d="M62.935-10.063c-1.707,2.691-5.447,6.169-6.169,6.891    C56.044-2.45,56.088-2.56,56.088-2.56c-0.129,0.202-0.303,0.438-0.51,0.7"/>
  <path style="fill:none;stroke:#000000;stroke-width:0.43;" d="M65.057-20.847c-1.837,2.538-3.434,5.753-4.288,8.312    c-0.853,2.559-2.428,4.047-4.003,5.884c-1.575,1.837-1.641,2.756-2.166,3.478c-0.525,0.722-0.482,0.7-0.482,0.7    c-0.17,0.191-0.35,0.397-0.532,0.612"/>
  <path style="fill:none;stroke:#000000;stroke-width:0.43;" d="M48.941-1.86c0.156-0.23,0.294-0.435,0.409-0.612    c0,0,0.393-1.028,0.984-2.013"/>
  <path style="fill:none;stroke:#000000;stroke-width:0.43;" d="M48.563-14.263c-0.328,0.787-2.822,3.609-3.413,4.725    c-0.59,1.116-1.05,4.266-1.312,5.053c-0.262,0.788-0.93,1.564-0.93,1.564C42.54-2.548,42.206-2.195,41.9-1.86"/>
  <path style="fill:none;stroke:#000000;stroke-width:0.43;" d="M76.421-35.492c-0.546,0.885-0.936,1.622-1.479,2.351"/>
  <path style="fill:none;stroke:#000000;stroke-width:0.43;" d="M44.035-2.385c-0.066,0.174-0.137,0.35-0.213,0.525"/>
  <path style="fill:none;stroke:#000000;stroke-width:0.43;" d="M43.182-8.619c-0.525,0.722-1.509,2.297-1.772,3.084    c-0.262,0.788-0.459,1.312-0.459,1.312c-0.394,0.644-0.709,1.502-1.106,2.362"/>
  <path style="fill:none;stroke:#000000;stroke-width:0.43;" d="M74.419-19.447c-0.919,1.05-4.288,4.506-5.075,6.212    c-0.788,1.707-4.244,6.825-5.95,7.875"/>
  <path style="fill:none;stroke:#000000;stroke-width:0.43;" d="M69.731-16.372c-1.443,1.444-3.843,4.274-5.418,7.293    c-1.575,3.019-4.003,4.725-5.315,5.906"/>
  <path style="fill:none;stroke:#000000;stroke-width:0.43;" d="M64.969-13.344c2.297-4.266,6.737-6.191,10.938-13.016"/>
  <path style="fill:none;stroke:#000000;stroke-width:0.43;" d="M71.619-26.797c-1.05,1.181-2.15,4.826-4.163,7.801"/>
  <path style="fill:none;stroke:#000000;stroke-width:0.43;" d="M69.607-11.135c2.975-2.188,4.671-4.222,5.162-5.513    c0.334-0.876,0.979-1.934,1.652-2.903"/>
  <path style="fill:none;stroke:#000000;stroke-width:0.43;" d="M59.932-14.534c-0.853,1.969-2.837,4.668-4.215,6.243    c-1.378,1.575-1.51,2.625-2.166,4.069"/>
  <path style="fill:none;stroke:#000000;stroke-width:0.43;" d="M59.719-16.035c0.656-1.312,1.969-4.397,3.872-5.972    c1.903-1.575,2.756-2.494,3.609-3.412"/>
  <path style="fill:none;stroke:#000000;stroke-width:0.43;" d="M59.785-18.791c-1.837,1.903-6.037,5.841-7.219,8.072    c-1.181,2.231-2.69,4.988-4.396,6.234"/>
  <path style="fill:none;stroke:#000000;stroke-width:0.43;" d="M45.938-2.45c0.59-1.575,1.094-3.062,2.406-4.572    c1.312-1.509,1.969-2.384,2.362-2.975"/>
  <path style="fill:none;stroke:#000000;stroke-width:0.43;" d="M45.199-5.007c0.655-1.297,1.477-2.809,2.248-3.743    c1.247-1.509,3.413-3.019,4.725-5.053c1.312-2.034,3.019-3.806,3.544-4.462"/>
  <path style="fill:none;stroke:#000000;stroke-width:0.43;" d="M50.138-22.532c-1.05,1.181-1.116,2.953-2.297,5.841    c-1.181,2.887-4.396,5.906-5.775,7.153c0,0-1.017,1.083-1.607,2.002c-0.591,0.918-1.018,2.231-1.116,2.658"/>
  <path style="fill:none;stroke:#000000;stroke-width:0.43;" d="M61.819-10.347c0.328-0.459,1.247-2.669,1.772-3.457    c1.143-1.714,2.69-6.497,3.478-8.531c0.788-2.034,4.594-6.431,5.841-8.006"/>
  <path style="fill:none;stroke:#000000;stroke-width:0.43;" d="M54.929-24.697c-1.247,1.509-3.872,3.872-4.397,5.644    c-0.525,1.772-0.919,2.888-1.247,3.347"/>
  <path style="fill:none;stroke:#000000;stroke-width:0.43;" d="M58.472-24.172c-1.181,0.984-3.747,3.71-4.666,5.351    c-0.919,1.641-1.663,2.45-4.288,5.688"/>
  <path style="fill:none;stroke:#000000;stroke-width:0.43;" d="M56.606-17.684c0.64-0.836,0.619-0.713,1.341-1.96    c0.656-1.133,0.94-1.411,2.247-2.765"/>
  <path style="fill:none;stroke:#000000;stroke-width:0.43;" d="M52.09-33.259c-1.116,1.312-3.79,5.74-4.905,8.628    c-1.116,2.888-2.916,5.285-4.141,8.085"/>
  <path style="fill:none;stroke:#000000;stroke-width:0.43;" d="M52.844-31.247c-0.656,1.837-1.722,3.53-3.166,5.828    c-1.444,2.297-2.625,5.512-3.019,6.956c-0.394,1.444-4.036,6.274-6.07,7.85"/>
  <path style="fill:none;stroke:#000000;stroke-width:0.43;" d="M40.945-4.222c-0.394,0.644-0.709,1.502-1.106,2.362"/>
  <path style="fill:none;stroke:#000000;stroke-width:0.43;" d="M72.757-19.972c0.778-0.849,2.885-2.254,3.664-2.763"/>
  <path style="fill:none;stroke:#000000;stroke-width:0.43;" d="M76.421-14.933c-2.88,2.99-6.792,8.118-6.792,8.118"/>
  <path style="fill:none;stroke:#000000;stroke-width:0.43;" d="M57.816-14.394c-2.649,3.179-5.099,7.201-5.316,7.809    c-0.457,1.28-0.309,2.655-1.175,4.725"/>
  <path style="fill:none;stroke:#000000;stroke-width:0.43;" d="M53.244-32.791c0.747-1.004,1.206-2.023,2.178-3.422l0.047-0.046    c0.567-0.809,1.307-1.744,2.371-2.875H57.82c0.211-0.226,0.436-0.458,0.674-0.7"/>
  <path style="fill:none;stroke:#000000;stroke-width:0.43;" d="M44.582-24.566c1.788-2.918,4.113-6.3,4.812-7.525    c0.309-0.54,1.416-1.751,2.66-3.094l0.095-0.082c1.251-1.351,2.622-2.821,3.446-3.868h-0.017c0.207-0.262,0.467-0.591,1.189-1.312    c0.722-0.722,4.462-4.2,6.169-6.891"/>
  <path style="fill:none;stroke:#000000;stroke-width:0.43;" d="M51.976-36.969c0.375-0.613,1.014-1.438,1.63-2.166h-0.018    c0.181-0.215,0.361-0.422,0.532-0.613c0,0-0.043,0.022,0.482-0.7c0.525-0.722,0.591-1.641,2.166-3.478    c1.575-1.838,3.15-3.325,4.003-5.885c0.854-2.559,2.45-5.775,4.288-8.312"/>
  <path style="fill:none;stroke:#000000;stroke-width:0.43;" d="M46.824-32.54c1.05-0.984,2.658-3.423,2.658-3.423    c0.903-1.225,1.475-2.265,1.852-3.172h-0.009c0.866-2.07,0.718-3.445,1.175-4.725c0.656-1.837,3.675-5.841,5.316-7.809"/>
  <line x1="39.844" y1="-1.86" style="fill:none;stroke:#000000;stroke-width:0.43;" x2="39.839" y2="-1.86"/>
  <path style="fill:none;stroke:#000000;stroke-width:0.43;" d="M29.455-29.619c4.083-2.295,7.414-8.162,9.135-10.307"/>
  <path style="fill:none;stroke:#000000;stroke-width:0.43;" d="M38.052-2.516c-0.205,0.165-0.413,0.388-0.628,0.656"/>
  <path style="fill:none;stroke:#000000;stroke-width:0.43;" d="M33.546-36.772c0.15-0.263,0.536-0.892,1.229-1.955    c0.114-0.176,1.129-1.205,1.247-1.378c0,0,1.214-0.788,1.838-1.181"/>
  <path style="fill:none;stroke:#000000;stroke-width:0.43;" d="M23.006-24.334c4.417-5.092,5.75-7.425,10.084-10.925"/>
  <path style="fill-rule:evenodd;clip-rule:evenodd;fill:none;stroke:#000000;stroke-width:0.43;" d="M15.149-19.71    c2.844-2.012,7.94-11.288,8.903-12.6c0.963-1.312,3.428-3.065,4.872-4.116"/>
  <path style="fill:none;stroke:#000000;stroke-width:0.43;" d="M15.127-23.822c1.356-3.106,4.419-4.069,5.775-6.781    c1.229-2.458,4.36-6.602,6.11-8.531l0,0c0.182-0.2,0.349-0.377,0.497-0.525c0,0,1.225-0.919,1.783-2.035    c0.558-1.116,3.216-5.512,3.773-6.168"/>
  <path style="fill:none;stroke:#000000;stroke-width:0.43;" d="M27.858-4.747c-1.172,0.502-2.268,1.578-3.303,2.887"/>
  <path style="fill:none;stroke:#000000;stroke-width:0.43;" d="M13.731-24.509c3.33-3.355,4.462-10.15,8.925-14"/>
  <path style="fill:none;stroke:#000000;stroke-width:0.43;" d="M5.756-23.259c1.886-2.305,4.825-6.938,5.525-8.162    c0.308-0.54,2.242-2.421,3.486-3.764"/>
  <path style="fill:none;stroke:#000000;stroke-width:0.43;" d="M2.877-26.71c1.05-0.656,2.056-2.231,3.369-4.462    c1.18-2.006,4.022-5.92,5.41-7.962l0,0c0.156-0.229,0.294-0.436,0.409-0.613c0,0,0.394-1.028,0.984-2.012"/>
  <path style="fill:none;stroke:#000000;stroke-width:0.43;" d="M33.856-22.584c1.575-1.837,1.964-4.738,2.817-6.313    c0.339-0.626,1.311-1.77,2.461-3.194h0.011c1.627-2.014,4.716-5.212,5.777-7.668"/>
  <path style="fill:none;stroke:#000000;stroke-width:0.43;" d="M24.14-21.81c2.559-4.135,6.103-4.725,9.581-9.581"/>
  <path style="fill:none;stroke:#000000;stroke-width:0.43;" d="M38.052-27.454c0.368-0.595,0.728-1.097,1.083-1.54h0.011    c2.11-2.636,4.029-3.163,6.333-8.5"/>
  <path style="fill:none;stroke:#000000;stroke-width:0.43;" d="M1.86-32.091c1.628-2.014,3.614-4.587,4.676-7.043"/>
  <path style="fill:none;stroke:#000000;stroke-width:0.43;" d="M1.86-28.994c2.11-2.636,4.029-3.163,6.332-8.5"/>
  <path style="fill:none;stroke:#000000;stroke-width:0.43;" d="M34.991-1.86c0.114-0.175,0.231-0.352,0.349-0.525    c0,0,1.302-1.641,1.925-2.034"/>
  <path style="fill:none;stroke:#000000;stroke-width:0.43;" d="M39.135-8.668c-1.25,1.145-1.327,2.242-2.724,3.396    c-1.509,1.247-2.996,2.975-2.996,2.975c-0.088,0.147-0.18,0.293-0.276,0.438"/>
  <path style="fill:none;stroke:#000000;stroke-width:0.43;" d="M33.139-39.135c-0.652,0.987-1.49,1.945-2.414,2.909l0,0    c-2.877,3.002-6.593,6.06-8.16,10.215"/>
  <path style="fill:none;stroke:#000000;stroke-width:0.43;" d="M30.475-1.86c3.009-2.863,5.96-6.796,8.66-9.705h0.011    c0.847-0.912,2.59-3.09,3.381-3.736"/>
  <path style="fill:none;stroke:#000000;stroke-width:0.43;" d="M27.012-1.86c0.182-0.2,0.349-0.376,0.497-0.525    c0,0,1.225-0.918,1.783-2.034c0.558-1.116,4.554-6.476,5.111-7.132"/>
  <path style="fill:none;stroke:#000000;stroke-width:0.43;" d="M19.157-30.896c1.667-2.218,3.188-5.441,5.399-8.238    c1.035-1.31,2.131-2.385,3.303-2.888"/>
  <path style="fill:none;stroke:#000000;stroke-width:0.43;" d="M26.983-36.422c1.164-0.665,2.332-1.61,3.491-2.712"/>
  <path style="fill:none;stroke:#000000;stroke-width:0.43;" d="M20.534-1.86c0.212-0.225,0.436-0.458,0.675-0.7"/>
  <path style="fill:none;stroke:#000000;stroke-width:0.43;" d="M25.649-10.063c-1.706,2.691-5.447,6.169-6.169,6.891    C18.758-2.45,18.802-2.56,18.802-2.56c-0.129,0.202-0.303,0.438-0.51,0.7"/>
  <path style="fill:none;stroke:#000000;stroke-width:0.43;" d="M27.771-20.847c-1.838,2.538-3.435,5.753-4.288,8.312    C22.63-9.976,21.055-8.488,19.48-6.65c-1.575,1.837-1.641,2.756-2.165,3.478c-0.525,0.722-0.482,0.7-0.482,0.7    c-0.17,0.191-0.35,0.397-0.532,0.612"/>
  <path style="fill:none;stroke:#000000;stroke-width:0.43;" d="M11.655-1.86c0.156-0.23,0.294-0.435,0.409-0.612    c0,0,0.394-1.028,0.984-2.013"/>
  <path style="fill:none;stroke:#000000;stroke-width:0.43;" d="M11.277-14.263c-0.328,0.787-2.822,3.609-3.413,4.725    c-0.59,1.116-1.05,4.266-1.312,5.053c-0.262,0.788-0.93,1.564-0.93,1.564C5.254-2.548,4.919-2.195,4.614-1.86"/>
  <path style="fill:none;stroke:#000000;stroke-width:0.43;" d="M1.86-35.507c0.599-0.97,1.386-2.118,2.764-3.627h-0.01    c0.306-0.335,0.64-0.688,1.008-1.061c0,0,0.668-0.776,0.93-1.564c0.263-0.788,0.722-3.938,1.312-5.053    c0.591-1.116,3.084-3.938,3.413-4.725"/>
  <path style="fill:none;stroke:#000000;stroke-width:0.43;" d="M37.657-33.141c0.542-0.729,0.932-1.466,1.478-2.351l0.011-0.015    c0.599-0.97,1.386-2.118,2.764-3.627H41.9c0.306-0.335,0.64-0.688,1.008-1.061c0,0,0.667-0.776,0.93-1.564    c0.263-0.788,0.722-3.938,1.312-5.053c0.591-1.116,3.085-3.938,3.413-4.725"/>
  <path style="fill:none;stroke:#000000;stroke-width:0.43;" d="M6.748-2.385C6.683-2.21,6.611-2.035,6.535-1.86"/>
  <path style="fill:none;stroke:#000000;stroke-width:0.43;" d="M5.896-8.619C5.371-7.898,4.386-6.322,4.123-5.535    C3.861-4.747,3.665-4.222,3.665-4.222C3.271-3.578,2.955-2.72,2.559-1.86"/>
  <path style="fill:none;stroke:#000000;stroke-width:0.43;" d="M37.923-20.092c-0.732,0.836-4.944,4.862-5.865,6.857    c-0.787,1.707-4.244,6.825-5.95,7.875"/>
  <path style="fill:none;stroke:#000000;stroke-width:0.43;" d="M33.777-18.051c-1.444,1.444-5.175,5.954-6.75,8.972    c-1.575,3.019-4.003,4.725-5.316,5.906"/>
  <path style="fill:none;stroke:#000000;stroke-width:0.43;" d="M27.683-13.344c2.297-4.266,6.738-6.191,10.938-13.016"/>
  <path style="fill:none;stroke:#000000;stroke-width:0.43;" d="M33.856-25.472c-1.05,1.182-1.704,4.108-4.142,7.296"/>
  <path style="fill:none;stroke:#000000;stroke-width:0.43;" d="M32.321-11.135c1.952-1.435,4.479-4.876,5.207-5.604    c-1.375,1.375,0.703-0.656,1.375-1.625l1.062-1.125c0.791-1.139,1.554-2.982,1.958-3.438"/>
  <path style="fill:none;stroke:#000000;stroke-width:0.43;" d="M3.883-22.16C3.479-21.705,2.65-20.689,1.86-19.55"/>
  <path style="fill:none;stroke:#000000;stroke-width:0.43;" d="M21.908-14.788c-0.853,1.969-2.1,4.922-3.478,6.497    c-1.378,1.575-1.509,2.625-2.166,4.069"/>
  <path style="fill:none;stroke:#000000;stroke-width:0.43;" d="M22.433-16.035c0.656-1.312,1.969-4.397,3.872-5.972    c1.903-1.575,2.756-2.494,3.609-3.412"/>
  <path style="fill:none;stroke:#000000;stroke-width:0.43;" d="M22.499-18.791c-1.838,1.903-6.038,5.841-7.219,8.072    c-1.182,2.231-2.691,4.988-4.397,6.234"/>
  <path style="fill:none;stroke:#000000;stroke-width:0.43;" d="M8.652-2.45c0.591-1.575,1.094-3.062,2.406-4.572    c1.312-1.509,1.969-2.384,2.363-2.975"/>
  <path style="fill:none;stroke:#000000;stroke-width:0.43;" d="M7.914-5.007C8.568-6.304,9.39-7.816,10.161-8.75    c1.247-1.509,3.413-3.019,4.725-5.053c1.312-2.034,3.019-3.806,3.544-4.462"/>
  <path style="fill:none;stroke:#000000;stroke-width:0.43;" d="M12.852-22.532c-1.05,1.181-1.116,2.953-2.297,5.841    c-1.181,2.887-4.397,5.906-5.775,7.153c0,0-1.018,1.083-1.608,2.002C2.582-6.618,2.155-5.305,2.057-4.878"/>
  <path style="fill:none;stroke:#000000;stroke-width:0.43;" d="M24.533-10.347c0.328-0.459,1.247-2.669,1.772-3.457    c1.143-1.714,2.69-6.497,3.478-8.531c0.788-2.034,4.594-6.431,5.841-8.006"/>
  <path style="fill:none;stroke:#000000;stroke-width:0.43;" d="M17.643-24.697c-1.247,1.509-3.872,3.872-4.397,5.644    c-0.525,1.772-0.918,2.888-1.247,3.347"/>
  <path style="fill:none;stroke:#000000;stroke-width:0.43;" d="M21.187-24.172c-1.182,0.984-2.953,2.953-3.872,4.594    c-0.919,1.641-2.362,4.134-5.71,6.431"/>
  <path style="fill:none;stroke:#000000;stroke-width:0.43;" d="M18.627-16.544c0.64-0.836,1.312-1.854,2.034-3.1    c0.656-1.133,1.841-2.498,3.149-3.852"/>
  <path style="fill:none;stroke:#000000;stroke-width:0.43;" d="M14.09-32.092c-0.914,1.435-3.526,6.218-4.908,9.158    c-1.317,2.801-1.903,5.097-3.937,6.738"/>
  <path style="fill:none;stroke:#000000;stroke-width:0.43;" d="M15.657-31.334c-0.656,1.837-1.82,3.618-3.264,5.915    c-1.444,2.297-2.625,5.512-3.019,6.956c-0.394,1.444-2.494,4.266-4.528,5.841"/>
  <path style="fill:none;stroke:#000000;stroke-width:0.43;" d="M1.86-37.844c0.266-0.412,0.49-0.852,0.693-1.291"/>
  <path style="fill:none;stroke:#000000;stroke-width:0.43;" d="M3.659-4.222C3.265-3.578,2.95-2.72,2.553-1.86"/>
  <path style="fill:none;stroke:#000000;stroke-width:0.43;" d="M8.291-31.456c-0.427,0.656-1.936,4.068-2.658,5.053    c-0.722,0.985-1.871,2.395-3.478,3.478c0,0-0.11,0.07-0.295,0.19"/>
  <path style="fill:none;stroke:#000000;stroke-width:0.43;" d="M35.471-19.972c0.778-0.849,2.885-2.254,3.664-2.763h0.011    c0.185-0.121,0.295-0.19,0.295-0.19c1.608-1.083,2.756-2.494,3.479-3.478c0.722-0.984,2.911-3.699,3.337-4.356"/>
  <path style="fill:none;stroke:#000000;stroke-width:0.43;" d="M32.343-6.814c0,0,3.912-5.128,6.792-8.118h0.011    c0.477-0.496,0.925-0.932,1.323-1.277c0.965-0.837,2.013-4.812,3.609-7.043"/>
  <path style="fill:none;stroke:#000000;stroke-width:0.43;" d="M2.188-8.947C2.07-8.854,1.961-8.761,1.86-8.668"/>
  <path style="fill:none;stroke:#000000;stroke-width:0.43;" d="M1.86-11.564c0.847-0.912,1.669-1.724,2.461-2.37"/>
  <path style="fill:none;stroke:#000000;stroke-width:0.43;" d="M6.906-22.671C5.31-20.44,4.148-17.047,3.183-16.21    c-0.398,0.345-0.847,0.782-1.323,1.277"/>
  <path style="fill:none;stroke:#000000;stroke-width:0.43;" d="M20.53-14.394c-1.641,1.969-4.66,5.972-5.316,7.809    c-0.457,1.28-0.309,2.655-1.175,4.725"/>
  <path style="fill:none;stroke:#000000;stroke-width:0.43;" d="M21.423-40.092c-1.063,1.131-2.225,2.875-2.792,3.683l-0.7,0.875    c-0.973,1.399-1.227,1.739-1.973,2.743"/>
  <path style="fill:none;stroke:#000000;stroke-width:0.43;" d="M14.863-35.267c1.251-1.351,3.428-3.868,3.428-3.868    c0.207-0.262,5.651-5.513,7.357-8.203"/>
  <path style="fill:none;stroke:#000000;stroke-width:0.43;" d="M14.689-36.969c0.375-0.613,1.014-1.438,1.63-2.166h-0.018    c0.182-0.215,0.361-0.422,0.532-0.613c0,0-0.043,0.022,0.482-0.7c0.525-0.722,0.591-1.641,2.165-3.478    c1.575-1.838,3.15-3.325,4.003-5.885c0.853-2.559,2.45-5.775,4.288-8.312"/>
  <path style="fill:none;stroke:#000000;stroke-width:0.43;" d="M9.538-32.54c1.05-0.984,2.658-3.423,2.658-3.423    c0.903-1.225,1.475-2.265,1.852-3.172h-0.009c0.866-2.07,0.718-3.445,1.175-4.725c0.656-1.837,3.675-5.841,5.316-7.809"/>
  <path style="fill:none;stroke:#000000;stroke-width:0.43;" d="M43.182-45.894c-0.525,0.722-1.509,2.297-1.772,3.084    c0,0-0.459,1.312-0.793,2.376c-0.335,1.063-1.481,2.599-1.481,2.599l0.011-0.009l-0.011,0.009    c-0.167,0.258-0.352,0.506-0.558,0.735c-1.058,1.175-4.2,4.791-4.856,5.71"/>
 </g>
</svg>
