<?xml version="1.0"?>
<!-- Converted with SVG Converter - Version 0.9.5 (Compiled Fri Feb 21 09:53:38 2020) - Copyright (C) 2011 Nokia -->
<svg xmlns="http://www.w3.org/2000/svg" xmlns:xlink="http://www.w3.org/1999/xlink" xml:space="preserve" baseProfile="tiny" height="37.8" viewBox="2.16 -39.96 37.801 37.8" x="0px" version="1.1" y="0px" width="37.801">
 <g>
  <rect height="37.8" x="2.16" style="fill:none;" y="-39.96" width="37.801"/>
  <path d="M19.601-36.602c-0.643-1.23-1.376-2.347-2.172-3.358" style="fill:none;stroke:#00AEEF;stroke-width:0.58;"/>
  <path d="M25.658-39.96c0.303,0.667,0.577,1.366,0.817,2.108    c1.375,4.25,3.5,16.75,12,21.75" style="fill:none;stroke:#00AEEF;stroke-width:0.58;"/>
  <path d="M3.383-39.96c1.867,1.131,3.668,2.032,4.843,2.983" style="fill:none;stroke:#00AEEF;stroke-width:0.58;"/>
  <path d="M17.101-31.977c-2.71-2.609-5.179-4.494-7.405-7.983" style="fill:none;stroke:#00AEEF;stroke-width:0.58;"/>
  <path d="M24.726-22.227c-0.375-0.75-0.875-1.75-1.875-5.125    s-6.625-9.5-8.75-11.5" style="fill:none;stroke:#00AEEF;stroke-width:0.58;"/>
  <path d="M29.492-39.96c0.638,1.673,1.243,3.415,1.733,4.983    c1.25,4,4.125,8,5.875,9.5" style="fill:none;stroke:#00AEEF;stroke-width:0.58;"/>
  <path d="M35.226-37.352c-0.596-0.596-1.378-1.495-2.186-2.608" style="fill:none;stroke:#00AEEF;stroke-width:0.58;"/>
  <path d="M37.351-38.977c0.904,0.67,1.772,1.403,2.61,2.183" style="fill:none;stroke:#00AEEF;stroke-width:0.58;"/>
  <path d="M16.101-19.977c-4.344-4.778-8.499-11.819-13.94-16.864" style="fill:none;stroke:#00AEEF;stroke-width:0.58;"/>
  <path d="M5.726-21.144c0,0,0.334,1.5,1.667,6s6.583,9.49,6.583,9.49    c1.208,0.995,2.376,2.152,3.435,3.493" style="fill:none;stroke:#00AEEF;stroke-width:0.58;"/>
  <path d="M20.101-10.403c2.059,2.676,4.116,5.099,5.547,8.243" style="fill:none;stroke:#00AEEF;stroke-width:0.58;"/>
  <path d="M2.16-2.911C2.555-2.648,2.95-2.399,3.345-2.16" style="fill:none;stroke:#00AEEF;stroke-width:0.58;"/>
  <path d="M8.101-5.028C8.613-3.955,9.14-3.01,9.681-2.16" style="fill:none;stroke:#00AEEF;stroke-width:0.58;"/>
  <path d="M29.483-2.16c-0.986-2.585-2.05-5.005-2.883-6.368" style="fill:none;stroke:#00AEEF;stroke-width:0.58;"/>
  <path d="M27.726-17.528c1.25,1.25,4.625,4.875,7.25,9.625    c1.205,2.181,3.068,3.755,4.985,5.025" style="fill:none;stroke:#00AEEF;stroke-width:0.58;"/>
  <path d="M34.101-34.727l1.875,1.875c1.688,1.62,2.865,3.168,3.985,4.939" style="fill:none;stroke:#00AEEF;stroke-width:0.58;"/>
  <path d="M21.976-38.852c0.5,1.25,1,3.625,1,3.625    c1.25,2,3.75,11.375,6.125,14.375s9,10.25,9,10.25" style="fill:none;stroke:#00AEEF;stroke-width:0.58;"/>
  <path d="M37.351-22.477c0.622,0.746,1.646,2.05,2.61,3.494" style="fill:none;stroke:#00AEEF;stroke-width:0.58;"/>
  <path d="M5.226-22.727c-1.17-2.048-2.094-3.739-3.065-5.267" style="fill:none;stroke:#00AEEF;stroke-width:0.58;"/>
  <path d="M7.726-6.477c-0.125-0.625-2.5-5.5-3.25-8.125    c-0.384-1.342-1.322-2.977-2.315-4.457" style="fill:none;stroke:#00AEEF;stroke-width:0.58;"/>
  <path d="M3.601-31.102c5.542,4.541,4.379,12.816,10.125,20    c5.301,6.625,7.625,7.5,7.625,7.5" style="fill:none;stroke:#00AEEF;stroke-width:0.58;"/>
  <path d="M9.726-35.477c0,0,4.125,4.375,5.875,7.875s7.25,13.75,9.875,17.5" style="fill:none;stroke:#00AEEF;stroke-width:0.58;"/>
  <path d="M12.226-20.227c1.834,2.333,1.334,2.5,6.667,8.666" style="fill:none;stroke:#00AEEF;stroke-width:0.58;"/>
  <path d="M19.393-27.977c0,0,2.5,6.5,3.5,7.666    c1,1.167,2.208,3.157,2.208,3.157c1.625,1.25,3.625,6.25,5,9.75c0.775,1.974,1.869,3.789,2.922,5.243" style="fill:none;stroke:#00AEEF;stroke-width:0.58;"/>
  <path d="M38.726-9.977c0.442,0.477,0.85,0.945,1.235,1.408" style="fill:none;stroke:#00AEEF;stroke-width:0.58;"/>
  <path d="M6.351-3.477C4.785-5.042,3.628-6.71,2.16-8.479" style="fill:none;stroke:#00AEEF;stroke-width:0.58;"/>
 </g>
</svg>
