<?xml version="1.0"?>
<!-- Converted with SVG Converter - Version 0.9.5 (Compiled Fri Feb 21 09:53:38 2020) - Copyright (C) 2011 Nokia -->
<svg xmlns="http://www.w3.org/2000/svg" y="0px" version="1.1" xml:space="preserve" viewBox="0.246 -38.046 37.801 37.8" x="0px" width="37.801" height="37.8" baseProfile="tiny" xmlns:xlink="http://www.w3.org/1999/xlink">
 <g>
  <rect style="fill:none;" y="-38.046" x="0.246" width="37.801" height="37.8"/>
  <rect y="-38.046" x="0.246" width="37.801" height="37.8"/>
  <path style="fill:none;stroke:#FFFFFF;stroke-width:0.58;" d="M17.687-34.688c-0.643-1.23-1.376-2.347-2.172-3.358"/>
  <path style="fill:none;stroke:#FFFFFF;stroke-width:0.58;" d="M23.744-38.046c0.303,0.667,0.577,1.366,0.817,2.108    c1.375,4.25,3.5,16.75,12,21.75"/>
  <path style="fill:none;stroke:#FFFFFF;stroke-width:0.58;" d="M1.469-38.046c1.867,1.131,3.668,2.032,4.843,2.983"/>
  <path style="fill:none;stroke:#FFFFFF;stroke-width:0.58;" d="M15.186-30.062c-2.71-2.609-5.179-4.494-7.405-7.983"/>
  <path style="fill:none;stroke:#FFFFFF;stroke-width:0.58;" d="M22.812-20.312c-0.375-0.75-0.875-1.75-1.875-5.125    s-6.625-9.5-8.75-11.5"/>
  <path style="fill:none;stroke:#FFFFFF;stroke-width:0.58;" d="M27.578-38.046c0.638,1.673,1.243,3.415,1.733,4.983    c1.25,4,4.125,8,5.875,9.5"/>
  <path style="fill:none;stroke:#FFFFFF;stroke-width:0.58;" d="M33.312-35.438c-0.596-0.596-1.378-1.495-2.186-2.608"/>
  <path style="fill:none;stroke:#FFFFFF;stroke-width:0.58;" d="M35.437-37.062c0.904,0.67,1.772,1.403,2.61,2.183"/>
  <path style="fill:none;stroke:#FFFFFF;stroke-width:0.58;" d="M14.186-18.062c-4.344-4.778-8.499-11.819-13.94-16.864"/>
  <path style="fill:none;stroke:#FFFFFF;stroke-width:0.58;" d="M3.812-19.229c0,0,0.334,1.5,1.667,6s6.583,9.49,6.583,9.49    c1.208,0.995,2.376,2.152,3.435,3.493"/>
  <path style="fill:none;stroke:#FFFFFF;stroke-width:0.58;" d="M18.187-8.489c2.059,2.676,4.116,5.099,5.547,8.243"/>
  <path style="fill:none;stroke:#FFFFFF;stroke-width:0.58;" d="M0.246-0.997c0.395,0.263,0.79,0.512,1.185,0.751"/>
  <path style="fill:none;stroke:#FFFFFF;stroke-width:0.58;" d="M6.187-3.114c0.513,1.073,1.039,2.019,1.58,2.868"/>
  <path style="fill:none;stroke:#FFFFFF;stroke-width:0.58;" d="M27.569-0.246c-0.986-2.585-2.05-5.005-2.883-6.368"/>
  <path style="fill:none;stroke:#FFFFFF;stroke-width:0.58;" d="M25.812-15.614c1.25,1.25,4.625,4.875,7.25,9.625    c1.205,2.181,3.068,3.755,4.985,5.025"/>
  <path style="fill:none;stroke:#FFFFFF;stroke-width:0.58;" d="M32.187-32.812l1.875,1.875c1.688,1.62,2.865,3.168,3.985,4.938"/>
  <path style="fill:none;stroke:#FFFFFF;stroke-width:0.58;" d="M20.062-36.938c0.5,1.25,1,3.625,1,3.625    c1.25,2,3.75,11.375,6.125,14.375s9,10.25,9,10.25"/>
  <path style="fill:none;stroke:#FFFFFF;stroke-width:0.58;" d="M35.437-20.562c0.622,0.746,1.646,2.05,2.61,3.494"/>
  <path style="fill:none;stroke:#FFFFFF;stroke-width:0.58;" d="M3.312-20.812c-1.17-2.048-2.094-3.739-3.065-5.267"/>
  <path style="fill:none;stroke:#FFFFFF;stroke-width:0.58;" d="M5.812-4.562c-0.125-0.625-2.5-5.5-3.25-8.125    c-0.384-1.342-1.322-2.977-2.315-4.457"/>
  <path style="fill:none;stroke:#FFFFFF;stroke-width:0.58;" d="M1.686-29.188c5.542,4.541,4.379,12.816,10.125,20    c5.301,6.625,7.625,7.5,7.625,7.5"/>
  <path style="fill:none;stroke:#FFFFFF;stroke-width:0.58;" d="M7.812-33.562c0,0,4.125,4.375,5.875,7.875s7.25,13.75,9.875,17.5"/>
  <path style="fill:none;stroke:#FFFFFF;stroke-width:0.58;" d="M10.311-18.312c1.834,2.333,1.334,2.5,6.667,8.666"/>
  <path style="fill:none;stroke:#FFFFFF;stroke-width:0.58;" d="M17.479-26.062c0,0,2.5,6.5,3.5,7.666    c1,1.167,2.208,3.157,2.208,3.157c1.625,1.25,3.625,6.25,5,9.75c0.775,1.974,1.869,3.789,2.922,5.243"/>
  <path style="fill:none;stroke:#FFFFFF;stroke-width:0.58;" d="M36.812-8.062c0.442,0.477,0.85,0.945,1.235,1.408"/>
  <path style="fill:none;stroke:#FFFFFF;stroke-width:0.58;" d="M4.437-1.562c-1.565-1.565-2.723-3.233-4.19-5.003"/>
 </g>
</svg>
