<?xml version="1.0"?>
<!-- Converted with SVG Converter - Version 0.9.5 (Compiled Fri Feb 21 09:53:38 2020) - Copyright (C) 2011 Nokia -->
<svg xmlns="http://www.w3.org/2000/svg" y="0px" viewBox="2 -61.333 59.333 59.333" xml:space="preserve" baseProfile="tiny" height="59.333" xmlns:xlink="http://www.w3.org/1999/xlink" version="1.1" width="59.333" x="0px">
 <g>
  <rect y="-61.333" style="fill:none;" height="59.333" width="59.333" x="2"/>
  <line y1="-59.771" style="fill:none;stroke:#000000;stroke-width:0.5;" x1="25.298" x2="26.23" y2="-61.333"/>
  <line y1="-59.829" style="fill:none;stroke:#000000;stroke-width:0.5;" x1="43.581" x2="44.552" y2="-61.333"/>
  <line y1="-60.196" style="fill:none;stroke:#000000;stroke-width:0.5;" x1="6.34" x2="7.744" y2="-61.333"/>
  <line y1="-59.672" style="fill:none;stroke:#000000;stroke-width:0.5;" x1="35.236" x2="35.776" y2="-61.333"/>
  <line y1="-61.333" style="fill:none;stroke:#000000;stroke-width:0.5;" x1="54.347" x2="53.054" y2="-60.205"/>
  <line y1="-60.56" style="fill:none;stroke:#000000;stroke-width:0.5;" x1="15.77" x2="17.298" y2="-61.333"/>
  <line y1="-3.698" style="fill:none;stroke:#000000;stroke-width:0.5;" x1="27.195" x2="26.181" y2="-2"/>
  <line y1="-3.688" style="fill:none;stroke:#000000;stroke-width:0.5;" x1="45.589" x2="44.499" y2="-2"/>
  <line y1="-3.275" style="fill:none;stroke:#000000;stroke-width:0.5;" x1="9.216" x2="7.641" y2="-2"/>
  <line y1="-3.94" style="fill:none;stroke:#000000;stroke-width:0.5;" x1="36.38" x2="35.75" y2="-2"/>
  <line y1="-3.388" style="fill:none;stroke:#000000;stroke-width:0.5;" x1="55.843" x2="54.252" y2="-2"/>
  <line y1="-2.98" style="fill:none;stroke:#000000;stroke-width:0.5;" x1="19.072" x2="17.134" y2="-2"/>
  <line y1="-56.368" style="fill:none;stroke:#000000;stroke-width:0.5;" x1="26.797" x2="28.695" y2="-53.19"/>
  <line y1="-56.316" style="fill:none;stroke:#000000;stroke-width:0.5;" x1="9.237" x2="11.245" y2="-53.207"/>
  <line y1="-55.945" style="fill:none;stroke:#000000;stroke-width:0.5;" x1="44.839" x2="47.714" y2="-53.616"/>
  <line y1="-53.091" style="fill:none;stroke:#000000;stroke-width:0.5;" x1="18.631" x2="17.487" y2="-56.61"/>
  <line y1="-53.214" style="fill:none;stroke:#000000;stroke-width:0.5;" x1="52.61" x2="54.37" y2="-56.47"/>
  <line y1="-53.562" style="fill:none;stroke:#000000;stroke-width:0.5;" x1="3.572" x2="2" y2="-54.348"/>
  <line y1="-53.979" style="fill:none;stroke:#000000;stroke-width:0.5;" x1="38.785" x2="35.482" y2="-55.649"/>
  <line y1="-49.552" style="fill:none;stroke:#000000;stroke-width:0.5;" x1="27.442" x2="25.545" y2="-46.375"/>
  <line y1="-49.542" style="fill:none;stroke:#000000;stroke-width:0.5;" x1="45.836" x2="43.828" y2="-46.434"/>
  <line y1="-47.946" style="fill:none;stroke:#000000;stroke-width:0.5;" x1="7.44" x2="10.996" y2="-48.971"/>
  <line y1="-49.419" style="fill:none;stroke:#000000;stroke-width:0.5;" x1="34.506" x2="36.957" y2="-46.646"/>
  <line y1="-45.611" style="fill:none;stroke:#000000;stroke-width:0.5;" x1="2" x2="3.332" y2="-44.104"/>
  <line y1="-49.242" style="fill:none;stroke:#000000;stroke-width:0.5;" x1="56.09" x2="53.301" y2="-46.81"/>
  <line y1="-49.616" style="fill:none;stroke:#000000;stroke-width:0.5;" x1="16.215" x2="18.42" y2="-46.644"/>
  <line y1="-33.823" style="fill:none;stroke:#000000;stroke-width:0.5;" x1="35.942" x2="34.045" y2="-30.646"/>
  <line y1="-30.651" style="fill:none;stroke:#000000;stroke-width:0.5;" x1="54.333" x2="52.58" y2="-33.91"/>
  <line y1="-30.813" style="fill:none;stroke:#000000;stroke-width:0.5;" x1="17.739" x2="15.165" y2="-33.473"/>
  <line y1="-34.065" style="fill:none;stroke:#000000;stroke-width:0.5;" x1="45.127" x2="43.983" y2="-30.547"/>
  <line y1="-33.293" style="fill:none;stroke:#000000;stroke-width:0.5;" x1="26.361" x2="23.059" y2="-31.622"/>
  <line y1="-35.011" style="fill:none;stroke:#000000;stroke-width:0.5;" x1="8.942" x2="7.045" y2="-31.833"/>
  <line y1="-41.659" style="fill:none;stroke:#000000;stroke-width:0.5;" x1="27.753" x2="29.65" y2="-38.482"/>
  <line y1="-41.987" style="fill:none;stroke:#000000;stroke-width:0.5;" x1="9.042" x2="11.917" y2="-39.657"/>
  <line y1="-41.148" style="fill:none;stroke:#000000;stroke-width:0.5;" x1="20.542" x2="17.5" y2="-39.043"/>
  <line y1="-41.23" style="fill:none;stroke:#000000;stroke-width:0.5;" x1="45.931" x2="48.75" y2="-38.833"/>
  <line y1="-39.133" style="fill:none;stroke:#000000;stroke-width:0.5;" x1="55.268" x2="54.124" y2="-42.652"/>
  <line y1="-36.261" style="fill:none;stroke:#000000;stroke-width:0.5;" x1="2" x2="2.917" y2="-36.833"/>
  <line y1="-41.609" style="fill:none;stroke:#000000;stroke-width:0.5;" x1="39.655" x2="36.661" y2="-39.435"/>
  <line y1="-23.753" style="fill:none;stroke:#000000;stroke-width:0.5;" x1="27.529" x2="25.632" y2="-26.931"/>
  <line y1="-23.491" style="fill:none;stroke:#000000;stroke-width:0.5;" x1="9.885" x2="7.877" y2="-26.6"/>
  <line y1="-26.647" style="fill:none;stroke:#000000;stroke-width:0.5;" x1="45.593" x2="46.712" y2="-23.12"/>
  <line y1="-26.136" style="fill:none;stroke:#000000;stroke-width:0.5;" x1="19.983" x2="18.887" y2="-22.602"/>
  <line y1="-25.849" style="fill:none;stroke:#000000;stroke-width:0.5;" x1="54.833" x2="53.045" y2="-22.609"/>
  <line y1="-24.555" style="fill:none;stroke:#000000;stroke-width:0.5;" x1="3.556" x2="2" y2="-25.128"/>
  <line y1="-24.197" style="fill:none;stroke:#000000;stroke-width:0.5;" x1="38.821" x2="35.519" y2="-25.867"/>
  <line y1="-15.966" style="fill:none;stroke:#000000;stroke-width:0.5;" x1="26.795" x2="28.692" y2="-19.144"/>
  <line y1="-15.201" style="fill:none;stroke:#000000;stroke-width:0.5;" x1="2" x2="3.103" y2="-13.637"/>
  <line y1="-15.233" style="fill:none;stroke:#000000;stroke-width:0.5;" x1="43.828" x2="45.836" y2="-18.342"/>
  <line y1="-18.117" style="fill:none;stroke:#000000;stroke-width:0.5;" x1="11.004" x2="8.129" y2="-15.787"/>
  <line y1="-15.479" style="fill:none;stroke:#000000;stroke-width:0.5;" x1="37.147" x2="34.725" y2="-18.275"/>
  <line y1="-18.042" style="fill:none;stroke:#000000;stroke-width:0.5;" x1="56.09" x2="53.301" y2="-15.609"/>
  <line y1="-15.508" style="fill:none;stroke:#000000;stroke-width:0.5;" x1="19.058" x2="16.528" y2="-18.208"/>
  <line y1="-7.753" style="fill:none;stroke:#000000;stroke-width:0.5;" x1="29.608" x2="27.711" y2="-10.931"/>
  <line y1="-10.487" style="fill:none;stroke:#000000;stroke-width:0.5;" x1="9.042" x2="11.917" y2="-8.157"/>
  <line y1="-7.633" style="fill:none;stroke:#000000;stroke-width:0.5;" x1="19.545" x2="18.401" y2="-11.152"/>
  <line y1="-7.633" style="fill:none;stroke:#000000;stroke-width:0.5;" x1="47.583" x2="46.439" y2="-11.152"/>
  <line y1="-7.633" style="fill:none;stroke:#000000;stroke-width:0.5;" x1="55.268" x2="54.124" y2="-11.152"/>
  <line y1="-4.734" style="fill:none;stroke:#000000;stroke-width:0.5;" x1="3.872" x2="2" y2="-6.367"/>
  <line y1="-10.447" style="fill:none;stroke:#000000;stroke-width:0.5;" x1="39.693" x2="36.454" y2="-8.657"/>
  <line y1="-55.218" style="fill:none;stroke:#000000;stroke-width:0.5;" x1="59.679" x2="61.333" y2="-54.39"/>
  <line y1="-46.877" style="fill:none;stroke:#000000;stroke-width:0.5;" x1="60.298" x2="61.333" y2="-45.705"/>
  <line y1="-34.874" style="fill:none;stroke:#000000;stroke-width:0.5;" x1="59.194" x2="61.333" y2="-36.209"/>
  <line y1="-25.833" style="fill:none;stroke:#000000;stroke-width:0.5;" x1="59.5" x2="61.333" y2="-25.158"/>
  <line y1="-16.661" style="fill:none;stroke:#000000;stroke-width:0.5;" x1="60.388" x2="61.333" y2="-15.319"/>
  <line y1="-7.167" style="fill:none;stroke:#000000;stroke-width:0.5;" x1="60.5" x2="61.333" y2="-6.44"/>
  <line y1="-61.333" style="fill:none;stroke:#000000;stroke-width:0.3;" x1="2.622" x2="2.622" y2="-2"/>
  <line y1="-61.333" style="fill:none;stroke:#000000;stroke-width:0.3;" x1="3.786" x2="3.786" y2="-2"/>
  <line y1="-61.333" style="fill:none;stroke:#000000;stroke-width:0.3;" x1="4.95" x2="4.95" y2="-2"/>
  <line y1="-61.333" style="fill:none;stroke:#000000;stroke-width:0.3;" x1="6.113" x2="6.113" y2="-2"/>
  <line y1="-61.333" style="fill:none;stroke:#000000;stroke-width:0.3;" x1="7.277" x2="7.277" y2="-2"/>
  <line y1="-61.333" style="fill:none;stroke:#000000;stroke-width:0.3;" x1="8.44" x2="8.44" y2="-2"/>
  <line y1="-61.333" style="fill:none;stroke:#000000;stroke-width:0.3;" x1="9.604" x2="9.604" y2="-2"/>
  <line y1="-61.333" style="fill:none;stroke:#000000;stroke-width:0.3;" x1="10.768" x2="10.768" y2="-2"/>
  <line y1="-61.333" style="fill:none;stroke:#000000;stroke-width:0.3;" x1="11.931" x2="11.931" y2="-2"/>
  <line y1="-61.333" style="fill:none;stroke:#000000;stroke-width:0.3;" x1="13.095" x2="13.095" y2="-2"/>
  <line y1="-61.333" style="fill:none;stroke:#000000;stroke-width:0.3;" x1="14.259" x2="14.259" y2="-2"/>
  <line y1="-61.333" style="fill:none;stroke:#000000;stroke-width:0.3;" x1="15.422" x2="15.422" y2="-2"/>
  <line y1="-61.333" style="fill:none;stroke:#000000;stroke-width:0.3;" x1="16.586" x2="16.586" y2="-2"/>
  <line y1="-61.333" style="fill:none;stroke:#000000;stroke-width:0.3;" x1="17.75" x2="17.75" y2="-2"/>
  <line y1="-61.333" style="fill:none;stroke:#000000;stroke-width:0.3;" x1="18.913" x2="18.913" y2="-2"/>
  <line y1="-61.333" style="fill:none;stroke:#000000;stroke-width:0.3;" x1="20.077" x2="20.077" y2="-2"/>
  <line y1="-61.333" style="fill:none;stroke:#000000;stroke-width:0.3;" x1="21.241" x2="21.241" y2="-2"/>
  <line y1="-61.333" style="fill:none;stroke:#000000;stroke-width:0.3;" x1="22.404" x2="22.404" y2="-2"/>
  <line y1="-61.333" style="fill:none;stroke:#000000;stroke-width:0.3;" x1="23.568" x2="23.568" y2="-2"/>
  <line y1="-61.333" style="fill:none;stroke:#000000;stroke-width:0.3;" x1="24.731" x2="24.731" y2="-2"/>
  <line y1="-61.333" style="fill:none;stroke:#000000;stroke-width:0.3;" x1="25.895" x2="25.895" y2="-2"/>
  <line y1="-61.333" style="fill:none;stroke:#000000;stroke-width:0.3;" x1="27.059" x2="27.059" y2="-2"/>
  <line y1="-61.333" style="fill:none;stroke:#000000;stroke-width:0.3;" x1="28.222" x2="28.222" y2="-2"/>
  <line y1="-61.333" style="fill:none;stroke:#000000;stroke-width:0.3;" x1="29.386" x2="29.386" y2="-2"/>
  <line y1="-61.333" style="fill:none;stroke:#000000;stroke-width:0.3;" x1="30.55" x2="30.55" y2="-2"/>
  <line y1="-61.333" style="fill:none;stroke:#000000;stroke-width:0.3;" x1="31.713" x2="31.713" y2="-2"/>
  <line y1="-61.333" style="fill:none;stroke:#000000;stroke-width:0.3;" x1="32.878" x2="32.878" y2="-2"/>
  <line y1="-61.333" style="fill:none;stroke:#000000;stroke-width:0.3;" x1="34.042" x2="34.042" y2="-2"/>
  <line y1="-61.333" style="fill:none;stroke:#000000;stroke-width:0.3;" x1="35.205" x2="35.205" y2="-2"/>
  <line y1="-61.333" style="fill:none;stroke:#000000;stroke-width:0.3;" x1="36.369" x2="36.369" y2="-2"/>
  <line y1="-61.333" style="fill:none;stroke:#000000;stroke-width:0.3;" x1="37.532" x2="37.532" y2="-2"/>
  <line y1="-61.333" style="fill:none;stroke:#000000;stroke-width:0.3;" x1="38.696" x2="38.696" y2="-2"/>
  <line y1="-61.333" style="fill:none;stroke:#000000;stroke-width:0.3;" x1="39.86" x2="39.86" y2="-2"/>
  <line y1="-61.333" style="fill:none;stroke:#000000;stroke-width:0.3;" x1="41.023" x2="41.023" y2="-2"/>
  <line y1="-61.333" style="fill:none;stroke:#000000;stroke-width:0.3;" x1="42.187" x2="42.187" y2="-2"/>
  <line y1="-61.333" style="fill:none;stroke:#000000;stroke-width:0.3;" x1="43.351" x2="43.351" y2="-2"/>
  <line y1="-61.333" style="fill:none;stroke:#000000;stroke-width:0.3;" x1="44.514" x2="44.514" y2="-2"/>
  <line y1="-61.333" style="fill:none;stroke:#000000;stroke-width:0.3;" x1="45.678" x2="45.678" y2="-2"/>
  <line y1="-61.333" style="fill:none;stroke:#000000;stroke-width:0.3;" x1="46.841" x2="46.841" y2="-2"/>
  <line y1="-61.333" style="fill:none;stroke:#000000;stroke-width:0.3;" x1="48.005" x2="48.005" y2="-2"/>
  <line y1="-61.333" style="fill:none;stroke:#000000;stroke-width:0.3;" x1="49.169" x2="49.169" y2="-2"/>
  <line y1="-61.333" style="fill:none;stroke:#000000;stroke-width:0.3;" x1="50.333" x2="50.333" y2="-2"/>
  <line y1="-61.333" style="fill:none;stroke:#000000;stroke-width:0.3;" x1="51.496" x2="51.496" y2="-2"/>
  <line y1="-61.333" style="fill:none;stroke:#000000;stroke-width:0.3;" x1="52.66" x2="52.66" y2="-2"/>
  <line y1="-61.333" style="fill:none;stroke:#000000;stroke-width:0.3;" x1="53.823" x2="53.823" y2="-2"/>
  <line y1="-61.333" style="fill:none;stroke:#000000;stroke-width:0.3;" x1="54.987" x2="54.987" y2="-2"/>
  <line y1="-61.333" style="fill:none;stroke:#000000;stroke-width:0.3;" x1="56.151" x2="56.151" y2="-2"/>
  <line y1="-61.333" style="fill:none;stroke:#000000;stroke-width:0.3;" x1="57.314" x2="57.314" y2="-2"/>
  <line y1="-61.333" style="fill:none;stroke:#000000;stroke-width:0.3;" x1="58.478" x2="58.478" y2="-2"/>
  <line y1="-61.333" style="fill:none;stroke:#000000;stroke-width:0.3;" x1="59.642" x2="59.642" y2="-2"/>
  <line y1="-61.333" style="fill:none;stroke:#000000;stroke-width:0.3;" x1="60.805" x2="60.805" y2="-2"/>
 </g>
</svg>
