<?xml version="1.0"?>
<!-- Converted with SVG Converter - Version 0.9.5 (Compiled Fri Feb 21 09:53:38 2020) - Copyright (C) 2011 Nokia -->
<svg xmlns="http://www.w3.org/2000/svg" x="0px" xmlns:xlink="http://www.w3.org/1999/xlink" xml:space="preserve" baseProfile="tiny" viewBox="2 -61.333 59.333 59.333" width="59.333" version="1.1" height="59.333" y="0px">
 <g>
  <rect x="2" style="fill:none;" width="59.333" height="59.333" y="-61.333"/>
  <rect x="2" width="59.333" height="59.333" y="-61.333"/>
  <line y1="-59.771" y2="-61.333" x1="25.298" style="fill:none;stroke:#FFFFFF;stroke-width:0.5;" x2="26.23"/>
  <line y1="-59.829" y2="-61.333" x1="43.581" style="fill:none;stroke:#FFFFFF;stroke-width:0.5;" x2="44.552"/>
  <line y1="-60.196" y2="-61.333" x1="6.34" style="fill:none;stroke:#FFFFFF;stroke-width:0.5;" x2="7.744"/>
  <line y1="-59.672" y2="-61.333" x1="35.236" style="fill:none;stroke:#FFFFFF;stroke-width:0.5;" x2="35.776"/>
  <line y1="-61.333" y2="-60.205" x1="54.347" style="fill:none;stroke:#FFFFFF;stroke-width:0.5;" x2="53.054"/>
  <line y1="-60.56" y2="-61.333" x1="15.77" style="fill:none;stroke:#FFFFFF;stroke-width:0.5;" x2="17.298"/>
  <line y1="-3.698" y2="-2" x1="27.195" style="fill:none;stroke:#FFFFFF;stroke-width:0.5;" x2="26.181"/>
  <line y1="-3.688" y2="-2" x1="45.589" style="fill:none;stroke:#FFFFFF;stroke-width:0.5;" x2="44.499"/>
  <line y1="-3.275" y2="-2" x1="9.216" style="fill:none;stroke:#FFFFFF;stroke-width:0.5;" x2="7.641"/>
  <line y1="-3.94" y2="-2" x1="36.38" style="fill:none;stroke:#FFFFFF;stroke-width:0.5;" x2="35.75"/>
  <line y1="-3.388" y2="-2" x1="55.843" style="fill:none;stroke:#FFFFFF;stroke-width:0.5;" x2="54.252"/>
  <line y1="-2.98" y2="-2" x1="19.072" style="fill:none;stroke:#FFFFFF;stroke-width:0.5;" x2="17.134"/>
  <line y1="-56.368" y2="-53.19" x1="26.797" style="fill:none;stroke:#FFFFFF;stroke-width:0.5;" x2="28.695"/>
  <line y1="-56.316" y2="-53.207" x1="9.237" style="fill:none;stroke:#FFFFFF;stroke-width:0.5;" x2="11.245"/>
  <line y1="-55.945" y2="-53.616" x1="44.839" style="fill:none;stroke:#FFFFFF;stroke-width:0.5;" x2="47.714"/>
  <line y1="-53.091" y2="-56.61" x1="18.631" style="fill:none;stroke:#FFFFFF;stroke-width:0.5;" x2="17.487"/>
  <line y1="-53.214" y2="-56.47" x1="52.61" style="fill:none;stroke:#FFFFFF;stroke-width:0.5;" x2="54.37"/>
  <line y1="-53.562" y2="-54.348" x1="3.572" style="fill:none;stroke:#FFFFFF;stroke-width:0.5;" x2="2"/>
  <line y1="-53.979" y2="-55.649" x1="38.785" style="fill:none;stroke:#FFFFFF;stroke-width:0.5;" x2="35.482"/>
  <line y1="-49.552" y2="-46.375" x1="27.442" style="fill:none;stroke:#FFFFFF;stroke-width:0.5;" x2="25.545"/>
  <line y1="-49.542" y2="-46.434" x1="45.836" style="fill:none;stroke:#FFFFFF;stroke-width:0.5;" x2="43.828"/>
  <line y1="-47.946" y2="-48.971" x1="7.44" style="fill:none;stroke:#FFFFFF;stroke-width:0.5;" x2="10.996"/>
  <line y1="-49.419" y2="-46.646" x1="34.506" style="fill:none;stroke:#FFFFFF;stroke-width:0.5;" x2="36.957"/>
  <line y1="-45.611" y2="-44.104" x1="2" style="fill:none;stroke:#FFFFFF;stroke-width:0.5;" x2="3.332"/>
  <line y1="-49.242" y2="-46.81" x1="56.09" style="fill:none;stroke:#FFFFFF;stroke-width:0.5;" x2="53.301"/>
  <line y1="-49.616" y2="-46.644" x1="16.215" style="fill:none;stroke:#FFFFFF;stroke-width:0.5;" x2="18.42"/>
  <line y1="-33.823" y2="-30.646" x1="35.942" style="fill:none;stroke:#FFFFFF;stroke-width:0.5;" x2="34.045"/>
  <line y1="-30.651" y2="-33.91" x1="54.333" style="fill:none;stroke:#FFFFFF;stroke-width:0.5;" x2="52.58"/>
  <line y1="-30.813" y2="-33.473" x1="17.739" style="fill:none;stroke:#FFFFFF;stroke-width:0.5;" x2="15.165"/>
  <line y1="-34.065" y2="-30.547" x1="45.127" style="fill:none;stroke:#FFFFFF;stroke-width:0.5;" x2="43.983"/>
  <line y1="-33.293" y2="-31.622" x1="26.361" style="fill:none;stroke:#FFFFFF;stroke-width:0.5;" x2="23.059"/>
  <line y1="-35.011" y2="-31.833" x1="8.942" style="fill:none;stroke:#FFFFFF;stroke-width:0.5;" x2="7.045"/>
  <line y1="-41.659" y2="-38.482" x1="27.753" style="fill:none;stroke:#FFFFFF;stroke-width:0.5;" x2="29.65"/>
  <line y1="-41.987" y2="-39.657" x1="9.042" style="fill:none;stroke:#FFFFFF;stroke-width:0.5;" x2="11.917"/>
  <line y1="-41.148" y2="-39.043" x1="20.542" style="fill:none;stroke:#FFFFFF;stroke-width:0.5;" x2="17.5"/>
  <line y1="-41.23" y2="-38.833" x1="45.931" style="fill:none;stroke:#FFFFFF;stroke-width:0.5;" x2="48.75"/>
  <line y1="-39.133" y2="-42.652" x1="55.268" style="fill:none;stroke:#FFFFFF;stroke-width:0.5;" x2="54.124"/>
  <line y1="-36.261" y2="-36.833" x1="2" style="fill:none;stroke:#FFFFFF;stroke-width:0.5;" x2="2.917"/>
  <line y1="-41.609" y2="-39.435" x1="39.655" style="fill:none;stroke:#FFFFFF;stroke-width:0.5;" x2="36.661"/>
  <line y1="-23.753" y2="-26.931" x1="27.529" style="fill:none;stroke:#FFFFFF;stroke-width:0.5;" x2="25.632"/>
  <line y1="-23.491" y2="-26.6" x1="9.885" style="fill:none;stroke:#FFFFFF;stroke-width:0.5;" x2="7.877"/>
  <line y1="-26.647" y2="-23.12" x1="45.593" style="fill:none;stroke:#FFFFFF;stroke-width:0.5;" x2="46.712"/>
  <line y1="-26.136" y2="-22.602" x1="19.983" style="fill:none;stroke:#FFFFFF;stroke-width:0.5;" x2="18.887"/>
  <line y1="-25.849" y2="-22.609" x1="54.833" style="fill:none;stroke:#FFFFFF;stroke-width:0.5;" x2="53.045"/>
  <line y1="-24.555" y2="-25.128" x1="3.556" style="fill:none;stroke:#FFFFFF;stroke-width:0.5;" x2="2"/>
  <line y1="-24.197" y2="-25.867" x1="38.821" style="fill:none;stroke:#FFFFFF;stroke-width:0.5;" x2="35.519"/>
  <line y1="-15.966" y2="-19.144" x1="26.795" style="fill:none;stroke:#FFFFFF;stroke-width:0.5;" x2="28.692"/>
  <line y1="-15.201" y2="-13.637" x1="2" style="fill:none;stroke:#FFFFFF;stroke-width:0.5;" x2="3.103"/>
  <line y1="-15.233" y2="-18.342" x1="43.828" style="fill:none;stroke:#FFFFFF;stroke-width:0.5;" x2="45.836"/>
  <line y1="-18.117" y2="-15.787" x1="11.004" style="fill:none;stroke:#FFFFFF;stroke-width:0.5;" x2="8.129"/>
  <line y1="-15.479" y2="-18.275" x1="37.147" style="fill:none;stroke:#FFFFFF;stroke-width:0.5;" x2="34.725"/>
  <line y1="-18.042" y2="-15.609" x1="56.09" style="fill:none;stroke:#FFFFFF;stroke-width:0.5;" x2="53.301"/>
  <line y1="-15.508" y2="-18.208" x1="19.058" style="fill:none;stroke:#FFFFFF;stroke-width:0.5;" x2="16.528"/>
  <line y1="-7.753" y2="-10.931" x1="29.608" style="fill:none;stroke:#FFFFFF;stroke-width:0.5;" x2="27.711"/>
  <line y1="-10.487" y2="-8.157" x1="9.042" style="fill:none;stroke:#FFFFFF;stroke-width:0.5;" x2="11.917"/>
  <line y1="-7.633" y2="-11.152" x1="19.545" style="fill:none;stroke:#FFFFFF;stroke-width:0.5;" x2="18.401"/>
  <line y1="-7.633" y2="-11.152" x1="47.583" style="fill:none;stroke:#FFFFFF;stroke-width:0.5;" x2="46.439"/>
  <line y1="-7.633" y2="-11.152" x1="55.268" style="fill:none;stroke:#FFFFFF;stroke-width:0.5;" x2="54.124"/>
  <line y1="-4.734" y2="-6.367" x1="3.872" style="fill:none;stroke:#FFFFFF;stroke-width:0.5;" x2="2"/>
  <line y1="-10.447" y2="-8.657" x1="39.693" style="fill:none;stroke:#FFFFFF;stroke-width:0.5;" x2="36.454"/>
  <line y1="-55.218" y2="-54.39" x1="59.679" style="fill:none;stroke:#FFFFFF;stroke-width:0.5;" x2="61.333"/>
  <line y1="-46.877" y2="-45.705" x1="60.298" style="fill:none;stroke:#FFFFFF;stroke-width:0.5;" x2="61.333"/>
  <line y1="-34.874" y2="-36.209" x1="59.194" style="fill:none;stroke:#FFFFFF;stroke-width:0.5;" x2="61.333"/>
  <line y1="-25.833" y2="-25.158" x1="59.5" style="fill:none;stroke:#FFFFFF;stroke-width:0.5;" x2="61.333"/>
  <line y1="-16.661" y2="-15.319" x1="60.388" style="fill:none;stroke:#FFFFFF;stroke-width:0.5;" x2="61.333"/>
  <line y1="-7.167" y2="-6.44" x1="60.5" style="fill:none;stroke:#FFFFFF;stroke-width:0.5;" x2="61.333"/>
  <line y1="-61.333" y2="-2" x1="2.622" style="fill:none;stroke:#FFFFFF;stroke-width:0.3;" x2="2.622"/>
  <line y1="-61.333" y2="-2" x1="3.786" style="fill:none;stroke:#FFFFFF;stroke-width:0.3;" x2="3.786"/>
  <line y1="-61.333" y2="-2" x1="4.95" style="fill:none;stroke:#FFFFFF;stroke-width:0.3;" x2="4.95"/>
  <line y1="-61.333" y2="-2" x1="6.113" style="fill:none;stroke:#FFFFFF;stroke-width:0.3;" x2="6.113"/>
  <line y1="-61.333" y2="-2" x1="7.277" style="fill:none;stroke:#FFFFFF;stroke-width:0.3;" x2="7.277"/>
  <line y1="-61.333" y2="-2" x1="8.44" style="fill:none;stroke:#FFFFFF;stroke-width:0.3;" x2="8.44"/>
  <line y1="-61.333" y2="-2" x1="9.604" style="fill:none;stroke:#FFFFFF;stroke-width:0.3;" x2="9.604"/>
  <line y1="-61.333" y2="-2" x1="10.768" style="fill:none;stroke:#FFFFFF;stroke-width:0.3;" x2="10.768"/>
  <line y1="-61.333" y2="-2" x1="11.931" style="fill:none;stroke:#FFFFFF;stroke-width:0.3;" x2="11.931"/>
  <line y1="-61.333" y2="-2" x1="13.095" style="fill:none;stroke:#FFFFFF;stroke-width:0.3;" x2="13.095"/>
  <line y1="-61.333" y2="-2" x1="14.259" style="fill:none;stroke:#FFFFFF;stroke-width:0.3;" x2="14.259"/>
  <line y1="-61.333" y2="-2" x1="15.422" style="fill:none;stroke:#FFFFFF;stroke-width:0.3;" x2="15.422"/>
  <line y1="-61.333" y2="-2" x1="16.586" style="fill:none;stroke:#FFFFFF;stroke-width:0.3;" x2="16.586"/>
  <line y1="-61.333" y2="-2" x1="17.75" style="fill:none;stroke:#FFFFFF;stroke-width:0.3;" x2="17.75"/>
  <line y1="-61.333" y2="-2" x1="18.913" style="fill:none;stroke:#FFFFFF;stroke-width:0.3;" x2="18.913"/>
  <line y1="-61.333" y2="-2" x1="20.077" style="fill:none;stroke:#FFFFFF;stroke-width:0.3;" x2="20.077"/>
  <line y1="-61.333" y2="-2" x1="21.241" style="fill:none;stroke:#FFFFFF;stroke-width:0.3;" x2="21.241"/>
  <line y1="-61.333" y2="-2" x1="22.404" style="fill:none;stroke:#FFFFFF;stroke-width:0.3;" x2="22.404"/>
  <line y1="-61.333" y2="-2" x1="23.568" style="fill:none;stroke:#FFFFFF;stroke-width:0.3;" x2="23.568"/>
  <line y1="-61.333" y2="-2" x1="24.731" style="fill:none;stroke:#FFFFFF;stroke-width:0.3;" x2="24.731"/>
  <line y1="-61.333" y2="-2" x1="25.895" style="fill:none;stroke:#FFFFFF;stroke-width:0.3;" x2="25.895"/>
  <line y1="-61.333" y2="-2" x1="27.059" style="fill:none;stroke:#FFFFFF;stroke-width:0.3;" x2="27.059"/>
  <line y1="-61.333" y2="-2" x1="28.222" style="fill:none;stroke:#FFFFFF;stroke-width:0.3;" x2="28.222"/>
  <line y1="-61.333" y2="-2" x1="29.386" style="fill:none;stroke:#FFFFFF;stroke-width:0.3;" x2="29.386"/>
  <line y1="-61.333" y2="-2" x1="30.55" style="fill:none;stroke:#FFFFFF;stroke-width:0.3;" x2="30.55"/>
  <line y1="-61.333" y2="-2" x1="31.713" style="fill:none;stroke:#FFFFFF;stroke-width:0.3;" x2="31.713"/>
  <line y1="-61.333" y2="-2" x1="32.878" style="fill:none;stroke:#FFFFFF;stroke-width:0.3;" x2="32.878"/>
  <line y1="-61.333" y2="-2" x1="34.042" style="fill:none;stroke:#FFFFFF;stroke-width:0.3;" x2="34.042"/>
  <line y1="-61.333" y2="-2" x1="35.205" style="fill:none;stroke:#FFFFFF;stroke-width:0.3;" x2="35.205"/>
  <line y1="-61.333" y2="-2" x1="36.369" style="fill:none;stroke:#FFFFFF;stroke-width:0.3;" x2="36.369"/>
  <line y1="-61.333" y2="-2" x1="37.532" style="fill:none;stroke:#FFFFFF;stroke-width:0.3;" x2="37.532"/>
  <line y1="-61.333" y2="-2" x1="38.696" style="fill:none;stroke:#FFFFFF;stroke-width:0.3;" x2="38.696"/>
  <line y1="-61.333" y2="-2" x1="39.86" style="fill:none;stroke:#FFFFFF;stroke-width:0.3;" x2="39.86"/>
  <line y1="-61.333" y2="-2" x1="41.023" style="fill:none;stroke:#FFFFFF;stroke-width:0.3;" x2="41.023"/>
  <line y1="-61.333" y2="-2" x1="42.187" style="fill:none;stroke:#FFFFFF;stroke-width:0.3;" x2="42.187"/>
  <line y1="-61.333" y2="-2" x1="43.351" style="fill:none;stroke:#FFFFFF;stroke-width:0.3;" x2="43.351"/>
  <line y1="-61.333" y2="-2" x1="44.514" style="fill:none;stroke:#FFFFFF;stroke-width:0.3;" x2="44.514"/>
  <line y1="-61.333" y2="-2" x1="45.678" style="fill:none;stroke:#FFFFFF;stroke-width:0.3;" x2="45.678"/>
  <line y1="-61.333" y2="-2" x1="46.841" style="fill:none;stroke:#FFFFFF;stroke-width:0.3;" x2="46.841"/>
  <line y1="-61.333" y2="-2" x1="48.005" style="fill:none;stroke:#FFFFFF;stroke-width:0.3;" x2="48.005"/>
  <line y1="-61.333" y2="-2" x1="49.169" style="fill:none;stroke:#FFFFFF;stroke-width:0.3;" x2="49.169"/>
  <line y1="-61.333" y2="-2" x1="50.333" style="fill:none;stroke:#FFFFFF;stroke-width:0.3;" x2="50.333"/>
  <line y1="-61.333" y2="-2" x1="51.496" style="fill:none;stroke:#FFFFFF;stroke-width:0.3;" x2="51.496"/>
  <line y1="-61.333" y2="-2" x1="52.66" style="fill:none;stroke:#FFFFFF;stroke-width:0.3;" x2="52.66"/>
  <line y1="-61.333" y2="-2" x1="53.823" style="fill:none;stroke:#FFFFFF;stroke-width:0.3;" x2="53.823"/>
  <line y1="-61.333" y2="-2" x1="54.987" style="fill:none;stroke:#FFFFFF;stroke-width:0.3;" x2="54.987"/>
  <line y1="-61.333" y2="-2" x1="56.151" style="fill:none;stroke:#FFFFFF;stroke-width:0.3;" x2="56.151"/>
  <line y1="-61.333" y2="-2" x1="57.314" style="fill:none;stroke:#FFFFFF;stroke-width:0.3;" x2="57.314"/>
  <line y1="-61.333" y2="-2" x1="58.478" style="fill:none;stroke:#FFFFFF;stroke-width:0.3;" x2="58.478"/>
  <line y1="-61.333" y2="-2" x1="59.642" style="fill:none;stroke:#FFFFFF;stroke-width:0.3;" x2="59.642"/>
  <line y1="-61.333" y2="-2" x1="60.805" style="fill:none;stroke:#FFFFFF;stroke-width:0.3;" x2="60.805"/>
 </g>
</svg>
