<?xml version="1.0"?>
<!-- Converted with SVG Converter - Version 0.9.5 (Compiled Fri Feb 21 09:53:38 2020) - Copyright (C) 2011 Nokia -->
<svg xmlns="http://www.w3.org/2000/svg" width="22.448" height="25.921" baseProfile="tiny" xmlns:xlink="http://www.w3.org/1999/xlink">
 <defs>
  <path d="M0 0h22.45v25.92H0z" id="a"/>
 </defs>
 <path d="M0 9.33c.4 0 .74-.32.74-.7 0-.4-.33-.72-.75-.72" fill="#ED1C2E"/>
 <circle stroke="#ED1C2E" cx="4.788" cy="4.057" r=".177" fill="#ED1C2E" stroke-width=".35"/>
 <ellipse stroke="#ED1C2E" cx="12.101" cy="1.807" ry=".795" rx=".707" fill="#ED1C2E" stroke-width=".35"/>
 <ellipse stroke="#ED1C2E" cx="8.351" cy="1.838" ry=".398" rx=".442" fill="#ED1C2E" stroke-width=".35"/>
 <ellipse stroke="#ED1C2E" cx="16.565" cy="2.112" ry=".221" rx=".133" fill="#ED1C2E" stroke-width=".35"/>
 <ellipse stroke="#ED1C2E" cx="19.258" cy="1.838" ry=".486" rx=".75" fill="#ED1C2E" stroke-width=".35"/>
 <ellipse stroke="#ED1C2E" cx="14.788" cy="4.307" ry=".795" rx=".707" fill="#ED1C2E" stroke-width=".35"/>
 <ellipse stroke="#ED1C2E" cx="18.476" cy="6.62" ry=".795" rx=".531" fill="#ED1C2E" stroke-width=".35"/>
 <path d="M22.46 7.9c-.42 0-.76.33-.76.72 0 .4.34.7.76.7" fill="#ED1C2E"/>
 <ellipse stroke="#ED1C2E" cx="19.226" cy="10.182" ry=".619" rx=".884" fill="#ED1C2E" stroke-width=".35"/>
 <ellipse stroke="#ED1C2E" cx="15.633" cy="8.557" ry=".795" rx=".662" fill="#ED1C2E" stroke-width=".35"/>
 <ellipse stroke="#ED1C2E" cx="12.163" cy="6.682" ry=".619" rx=".796" fill="#ED1C2E" stroke-width=".35"/>
 <ellipse stroke="#ED1C2E" cx="6.82" cy="8.338" ry=".575" rx=".841" fill="#ED1C2E" stroke-width=".35"/>
 <ellipse stroke="#ED1C2E" cx="3.413" cy="5.963" ry=".751" rx=".706" fill="#ED1C2E" stroke-width=".35"/>
 <ellipse stroke="#ED1C2E" cx="11.195" cy="3.994" ry=".177" rx=".309" fill="#ED1C2E" stroke-width=".35"/>
 <ellipse stroke="#ED1C2E" cx="18.351" cy="3.994" ry=".354" rx=".531" fill="#ED1C2E" stroke-width=".35"/>
 <ellipse stroke="#ED1C2E" cx="21.038" cy="6.182" ry=".265" rx=".178" fill="#ED1C2E" stroke-width=".35"/>
 <ellipse stroke="#ED1C2E" cx="12.788" cy="11.088" ry=".398" rx=".354" fill="#ED1C2E" stroke-width=".35"/>
 <ellipse stroke="#ED1C2E" cx="10.788" cy="8.995" ry=".265" rx=".354" fill="#ED1C2E" stroke-width=".35"/>
 <ellipse stroke="#ED1C2E" cx="18.913" cy="12.463" ry=".221" rx=".178" fill="#ED1C2E" stroke-width=".35"/>
 <ellipse stroke="#ED1C2E" cx="15.445" cy="12.182" ry=".619" rx=".929" fill="#ED1C2E" stroke-width=".35"/>
 <ellipse stroke="#ED1C2E" cx="10.008" cy="11.088" ry=".663" rx=".752" fill="#ED1C2E" stroke-width=".35"/>
 <circle stroke="#ED1C2E" cx="5.82" cy="11.088" r=".221" fill="#ED1C2E" stroke-width=".35"/>
 <ellipse stroke="#ED1C2E" cx="3.663" cy="8.463" ry=".486" rx=".441" fill="#ED1C2E" stroke-width=".35"/>
 <ellipse stroke="#ED1C2E" cx="3.101" cy="11.026" ry=".839" rx=".619" fill="#ED1C2E" stroke-width=".35"/>
 <circle stroke="#ED1C2E" cx="2.07" cy="13.463" r=".221" fill="#ED1C2E" stroke-width=".35"/>
 <ellipse stroke="#ED1C2E" cx="4.413" cy="14.745" ry=".619" rx=".796" fill="#ED1C2E" stroke-width=".35"/>
 <ellipse stroke="#ED1C2E" cx="9.663" cy="13.745" ry=".442" rx=".266" fill="#ED1C2E" stroke-width=".35"/>
 <circle stroke="#ED1C2E" cx="5.663" cy="17.682" r=".354" fill="#ED1C2E" stroke-width=".35"/>
 <ellipse stroke="#ED1C2E" cx="11.788" cy="16.651" ry=".132" rx=".178" fill="#ED1C2E" stroke-width=".35"/>
 <ellipse stroke="#ED1C2E" cx="12.258" cy="14.651" ry=".751" rx=".662" fill="#ED1C2E" stroke-width=".35"/>
 <ellipse stroke="#ED1C2E" cx="8.913" cy="16.776" ry=".575" rx=".795" fill="#ED1C2E" stroke-width=".35"/>
 <ellipse stroke="#ED1C2E" cx="15.195" cy="14.901" ry=".221" rx=".132" fill="#ED1C2E" stroke-width=".35"/>
 <ellipse stroke="#ED1C2E" cx="18.383" cy="14.901" ry=".751" rx=".839" fill="#ED1C2E" stroke-width=".35"/>
 <ellipse stroke="#ED1C2E" cx="15.829" cy="17.119" ry=".672" rx=".494" fill="#ED1C2E" stroke-width=".35"/>
 <circle stroke="#ED1C2E" cx="21.601" cy="15.432" r=".177" fill="#ED1C2E" stroke-width=".35"/>
 <ellipse stroke="#ED1C2E" cx="21.788" cy="10.807" ry=".354" rx=".265" fill="#ED1C2E" stroke-width=".35"/>
 <ellipse stroke="#ED1C2E" cx="18.758" cy="19.807" ry=".619" rx=".662" fill="#ED1C2E" stroke-width=".35"/>
 <circle stroke="#ED1C2E" cx="2.133" cy="16.588" r=".221" fill="#ED1C2E" stroke-width=".35"/>
 <ellipse stroke="#ED1C2E" cx="2.82" cy="19.088" ry=".839" rx=".662" fill="#ED1C2E" stroke-width=".35"/>
 <ellipse stroke="#ED1C2E" cx="4.57" cy="21.213" ry=".309" rx=".487" fill="#ED1C2E" stroke-width=".35"/>
 <ellipse stroke="#ED1C2E" cx="3.163" cy="23.745" ry=".708" rx=".531" fill="#ED1C2E" stroke-width=".35"/>
 <circle stroke="#ED1C2E" cx="9.195" cy="18.963" r=".221" fill="#ED1C2E" stroke-width=".35"/>
 <ellipse stroke="#ED1C2E" cx="11.892" cy="19.231" ry=".601" rx=".743" fill="#ED1C2E" stroke-width=".35"/>
 <ellipse stroke="#ED1C2E" cx="14.886" cy="19.38" ry=".177" rx=".311" fill="#ED1C2E" stroke-width=".35"/>
 <ellipse stroke="#ED1C2E" cx="21.32" cy="19.682" ry=".177" rx=".132" fill="#ED1C2E" stroke-width=".35"/>
 <ellipse stroke="#ED1C2E" cx="21.913" cy="23.869" ry=".177" rx=".265" fill="#ED1C2E" stroke-width=".35"/>
 <ellipse stroke="#ED1C2E" cx="19.133" cy="23.65" ry=".663" rx=".752" fill="#ED1C2E" stroke-width=".35"/>
 <ellipse stroke="#ED1C2E" cx="15.851" cy="21.807" ry=".708" rx=".795" fill="#ED1C2E" stroke-width=".35"/>
 <ellipse stroke="#ED1C2E" cx="14.101" cy="23.776" ry=".221" rx=".176" fill="#ED1C2E" stroke-width=".35"/>
 <ellipse stroke="#ED1C2E" cx="11.663" cy="23.745" ry=".619" rx=".53" fill="#ED1C2E" stroke-width=".35"/>
 <ellipse stroke="#ED1C2E" cx="10.163" cy="25.276" ry=".309" rx=".354" fill="#ED1C2E" stroke-width=".35"/>
 <circle stroke="#ED1C2E" cx="7.445" cy="23.088" r=".221" fill="#ED1C2E" stroke-width=".35"/>
 <ellipse stroke="#ED1C2E" cx="10.945" cy="21.557" ry=".177" rx=".31" fill="#ED1C2E" stroke-width=".35"/>
 <circle stroke="#ED1C2E" cx="18.758" cy="17.401" r=".221" fill="#ED1C2E" stroke-width=".35"/>
 <ellipse stroke="#ED1C2E" cx="3.695" cy="1.807" ry=".619" rx=".929" fill="#ED1C2E" stroke-width=".35"/>
 <ellipse stroke="#ED1C2E" cx="7.892" cy="4.356" ry=".601" rx=".743" fill="#ED1C2E" stroke-width=".35"/>
 <circle stroke="#ED1C2E" cx="8.913" cy="6.682" r=".354" fill="#ED1C2E" stroke-width=".35"/>
 <ellipse stroke="#ED1C2E" cx="7.288" cy="13.245" ry=".619" rx=".53" fill="#ED1C2E" stroke-width=".35"/>
 <ellipse stroke="#ED1C2E" cx="7.454" cy="20.619" ry=".672" rx=".494" fill="#ED1C2E" stroke-width=".35"/>
 <path d="M7.6 25.92c.15-.1.23-.26.23-.4 0-.4-.47-.7-1.04-.7-.6 0-1.06.3-1.06.7 0 .14.08.3.2.4h1.68zM5.94 0h1.68-.02c-.2.15-.5.26-.82.26-.34 0-.64-.1-.84-.27zM0 4.55c.07.02.14.03.22.03.43 0 .8-.32.8-.7 0-.4-.36-.72-.8-.72-.08 0-.15 0-.22.03v1.35zM22.45 4.55V3.2c-.33.07-.58.35-.58.67s.25.6.58.68zM16.5 25.93c0-.1.02-.2.02-.28 0-.56-.32-1-.7-1-.38 0-.7.44-.7 1 0 .1.02.2.03.27h1.33zM16.48 0h-1.33c.08.4.35.72.67.72.32 0 .6-.3.67-.73h-.02zM22.46 13.6c-.07 0-.14.02-.22.02-.44 0-.8-.32-.8-.7 0-.4.36-.72.8-.72.08 0 .15 0 .22.03v1.35zM0 13.6v-1.37c.33.08.57.36.57.68s-.24.6-.57.7zM0 22.23c.06 0 .13.02.2.02.45 0 .8-.24.8-.55s-.35-.54-.8-.54c-.07 0-.14 0-.2.02v1.05zM22.45 22.23v-1.06c-.33.07-.58.28-.58.53s.25.46.58.53zM22.46 18.15c-.07.03-.15.04-.22.04-.44 0-.8-.44-.8-.96s.36-.94.8-.94c.07 0 .15 0 .22.03v1.82zM0 18.14v-1.8c.33.1.57.47.57.9 0 .43-.24.8-.58.9zM22.46 25.92v-.95c-.38 0-.7.44-.7.97v-.02s.7 0 .7 0zM0 25.92v-.95c.37 0 .7.44.7.97v-.02H0zM22.46 0v.94c-.38 0-.7-.44-.7-.97V0s.7 0 .7 0zM0 0v.94C.36.94.7.5.7-.03V0H0z" fill="#ED1C2E"/>
</svg>
