<?xml version="1.0"?>
<!-- Converted with SVG Converter - Version 0.9.5 (Compiled Fri Feb 21 09:53:38 2020) - Copyright (C) 2011 Nokia -->
<svg xmlns="http://www.w3.org/2000/svg" height="25.921" baseProfile="tiny" xmlns:xlink="http://www.w3.org/1999/xlink" width="22.448">
 <defs>
  <path id="a" d="M0 0h22.45v25.92H0z"/>
 </defs>
 <path fill="#EC008C" d="M0 9.33c.4 0 .74-.32.74-.7 0-.4-.33-.72-.75-.72"/>
 <circle cy="4.057" stroke-width=".35" r=".177" fill="#EC008C" cx="4.788" stroke="#EC008C"/>
 <ellipse cy="1.807" stroke-width=".35" fill="#EC008C" rx=".707" cx="12.101" ry=".795" stroke="#EC008C"/>
 <ellipse cy="1.838" stroke-width=".35" fill="#EC008C" rx=".442" cx="8.351" ry=".398" stroke="#EC008C"/>
 <ellipse cy="2.112" stroke-width=".35" fill="#EC008C" rx=".133" cx="16.565" ry=".221" stroke="#EC008C"/>
 <ellipse cy="1.838" stroke-width=".35" fill="#EC008C" rx=".75" cx="19.258" ry=".486" stroke="#EC008C"/>
 <ellipse cy="4.307" stroke-width=".35" fill="#EC008C" rx=".707" cx="14.788" ry=".795" stroke="#EC008C"/>
 <ellipse cy="6.62" stroke-width=".35" fill="#EC008C" rx=".531" cx="18.476" ry=".795" stroke="#EC008C"/>
 <path fill="#EC008C" d="M22.46 7.9c-.42 0-.76.33-.76.72 0 .4.34.7.76.7"/>
 <ellipse cy="10.182" stroke-width=".35" fill="#EC008C" rx=".884" cx="19.226" ry=".619" stroke="#EC008C"/>
 <ellipse cy="8.557" stroke-width=".35" fill="#EC008C" rx=".662" cx="15.633" ry=".795" stroke="#EC008C"/>
 <ellipse cy="6.682" stroke-width=".35" fill="#EC008C" rx=".796" cx="12.163" ry=".619" stroke="#EC008C"/>
 <ellipse cy="8.338" stroke-width=".35" fill="#EC008C" rx=".841" cx="6.82" ry=".575" stroke="#EC008C"/>
 <ellipse cy="5.963" stroke-width=".35" fill="#EC008C" rx=".706" cx="3.413" ry=".751" stroke="#EC008C"/>
 <ellipse cy="3.994" stroke-width=".35" fill="#EC008C" rx=".309" cx="11.195" ry=".177" stroke="#EC008C"/>
 <ellipse cy="3.994" stroke-width=".35" fill="#EC008C" rx=".531" cx="18.351" ry=".354" stroke="#EC008C"/>
 <ellipse cy="6.182" stroke-width=".35" fill="#EC008C" rx=".178" cx="21.038" ry=".265" stroke="#EC008C"/>
 <ellipse cy="11.088" stroke-width=".35" fill="#EC008C" rx=".354" cx="12.788" ry=".398" stroke="#EC008C"/>
 <ellipse cy="8.995" stroke-width=".35" fill="#EC008C" rx=".354" cx="10.788" ry=".265" stroke="#EC008C"/>
 <ellipse cy="12.463" stroke-width=".35" fill="#EC008C" rx=".178" cx="18.913" ry=".221" stroke="#EC008C"/>
 <ellipse cy="12.182" stroke-width=".35" fill="#EC008C" rx=".929" cx="15.445" ry=".619" stroke="#EC008C"/>
 <ellipse cy="11.088" stroke-width=".35" fill="#EC008C" rx=".752" cx="10.008" ry=".663" stroke="#EC008C"/>
 <circle cy="11.088" stroke-width=".35" r=".221" fill="#EC008C" cx="5.82" stroke="#EC008C"/>
 <ellipse cy="8.463" stroke-width=".35" fill="#EC008C" rx=".441" cx="3.663" ry=".486" stroke="#EC008C"/>
 <ellipse cy="11.026" stroke-width=".35" fill="#EC008C" rx=".619" cx="3.101" ry=".839" stroke="#EC008C"/>
 <circle cy="13.463" stroke-width=".35" r=".221" fill="#EC008C" cx="2.07" stroke="#EC008C"/>
 <ellipse cy="14.745" stroke-width=".35" fill="#EC008C" rx=".796" cx="4.413" ry=".619" stroke="#EC008C"/>
 <ellipse cy="13.745" stroke-width=".35" fill="#EC008C" rx=".266" cx="9.663" ry=".442" stroke="#EC008C"/>
 <circle cy="17.682" stroke-width=".35" r=".354" fill="#EC008C" cx="5.663" stroke="#EC008C"/>
 <ellipse cy="16.651" stroke-width=".35" fill="#EC008C" rx=".178" cx="11.788" ry=".132" stroke="#EC008C"/>
 <ellipse cy="14.651" stroke-width=".35" fill="#EC008C" rx=".662" cx="12.258" ry=".751" stroke="#EC008C"/>
 <ellipse cy="16.776" stroke-width=".35" fill="#EC008C" rx=".795" cx="8.913" ry=".575" stroke="#EC008C"/>
 <ellipse cy="14.901" stroke-width=".35" fill="#EC008C" rx=".132" cx="15.195" ry=".221" stroke="#EC008C"/>
 <ellipse cy="14.901" stroke-width=".35" fill="#EC008C" rx=".839" cx="18.383" ry=".751" stroke="#EC008C"/>
 <ellipse cy="17.119" stroke-width=".35" fill="#EC008C" rx=".494" cx="15.829" ry=".672" stroke="#EC008C"/>
 <circle cy="15.432" stroke-width=".35" r=".177" fill="#EC008C" cx="21.601" stroke="#EC008C"/>
 <ellipse cy="10.807" stroke-width=".35" fill="#EC008C" rx=".265" cx="21.788" ry=".354" stroke="#EC008C"/>
 <ellipse cy="19.807" stroke-width=".35" fill="#EC008C" rx=".662" cx="18.758" ry=".619" stroke="#EC008C"/>
 <circle cy="16.588" stroke-width=".35" r=".221" fill="#EC008C" cx="2.133" stroke="#EC008C"/>
 <ellipse cy="19.088" stroke-width=".35" fill="#EC008C" rx=".662" cx="2.82" ry=".839" stroke="#EC008C"/>
 <ellipse cy="21.213" stroke-width=".35" fill="#EC008C" rx=".487" cx="4.57" ry=".309" stroke="#EC008C"/>
 <ellipse cy="23.745" stroke-width=".35" fill="#EC008C" rx=".531" cx="3.163" ry=".708" stroke="#EC008C"/>
 <circle cy="18.963" stroke-width=".35" r=".221" fill="#EC008C" cx="9.195" stroke="#EC008C"/>
 <ellipse cy="19.231" stroke-width=".35" fill="#EC008C" rx=".743" cx="11.892" ry=".601" stroke="#EC008C"/>
 <ellipse cy="19.38" stroke-width=".35" fill="#EC008C" rx=".311" cx="14.886" ry=".177" stroke="#EC008C"/>
 <ellipse cy="19.682" stroke-width=".35" fill="#EC008C" rx=".132" cx="21.32" ry=".177" stroke="#EC008C"/>
 <ellipse cy="23.869" stroke-width=".35" fill="#EC008C" rx=".265" cx="21.913" ry=".177" stroke="#EC008C"/>
 <ellipse cy="23.65" stroke-width=".35" fill="#EC008C" rx=".752" cx="19.133" ry=".663" stroke="#EC008C"/>
 <ellipse cy="21.807" stroke-width=".35" fill="#EC008C" rx=".795" cx="15.851" ry=".708" stroke="#EC008C"/>
 <ellipse cy="23.776" stroke-width=".35" fill="#EC008C" rx=".176" cx="14.101" ry=".221" stroke="#EC008C"/>
 <ellipse cy="23.745" stroke-width=".35" fill="#EC008C" rx=".53" cx="11.663" ry=".619" stroke="#EC008C"/>
 <ellipse cy="25.276" stroke-width=".35" fill="#EC008C" rx=".354" cx="10.163" ry=".309" stroke="#EC008C"/>
 <circle cy="23.088" stroke-width=".35" r=".221" fill="#EC008C" cx="7.445" stroke="#EC008C"/>
 <ellipse cy="21.557" stroke-width=".35" fill="#EC008C" rx=".31" cx="10.945" ry=".177" stroke="#EC008C"/>
 <circle cy="17.401" stroke-width=".35" r=".221" fill="#EC008C" cx="18.758" stroke="#EC008C"/>
 <ellipse cy="1.807" stroke-width=".35" fill="#EC008C" rx=".929" cx="3.695" ry=".619" stroke="#EC008C"/>
 <ellipse cy="4.356" stroke-width=".35" fill="#EC008C" rx=".743" cx="7.892" ry=".601" stroke="#EC008C"/>
 <circle cy="6.682" stroke-width=".35" r=".354" fill="#EC008C" cx="8.913" stroke="#EC008C"/>
 <ellipse cy="13.245" stroke-width=".35" fill="#EC008C" rx=".53" cx="7.288" ry=".619" stroke="#EC008C"/>
 <ellipse cy="20.619" stroke-width=".35" fill="#EC008C" rx=".494" cx="7.454" ry=".672" stroke="#EC008C"/>
 <path fill="#EC008C" d="M7.6 25.92c.15-.1.23-.26.23-.4 0-.4-.47-.7-1.04-.7-.6 0-1.06.3-1.06.7 0 .14.08.3.2.4h1.68zM5.94 0h1.68-.02c-.2.15-.5.26-.82.26-.34 0-.64-.1-.84-.27zM0 4.55c.07.02.14.03.22.03.43 0 .8-.32.8-.7 0-.4-.36-.72-.8-.72-.08 0-.15 0-.22.03v1.35zM22.45 4.55V3.2c-.33.07-.58.35-.58.67s.25.6.58.68zM16.5 25.93c0-.1.02-.2.02-.28 0-.56-.32-1-.7-1-.38 0-.7.44-.7 1 0 .1.02.2.03.27h1.33zM16.48 0h-1.33c.08.4.35.72.67.72.32 0 .6-.3.67-.73h-.02zM22.46 13.6c-.07 0-.14.02-.22.02-.44 0-.8-.32-.8-.7 0-.4.36-.72.8-.72.08 0 .15 0 .22.03v1.35zM0 13.6v-1.37c.33.08.57.36.57.68s-.24.6-.57.7zM0 22.23c.06 0 .13.02.2.02.45 0 .8-.24.8-.55s-.35-.54-.8-.54c-.07 0-.14 0-.2.02v1.05zM22.45 22.23v-1.06c-.33.07-.58.28-.58.53s.25.46.58.53zM22.46 18.15c-.07.03-.15.04-.22.04-.44 0-.8-.44-.8-.96s.36-.94.8-.94c.07 0 .15 0 .22.03v1.82zM0 18.14v-1.8c.33.1.57.47.57.9 0 .43-.24.8-.58.9zM22.46 25.92v-.95c-.38 0-.7.44-.7.97v-.02s.7 0 .7 0zM0 25.92v-.95c.37 0 .7.44.7.97v-.02H0zM22.46 0v.94c-.38 0-.7-.44-.7-.97V0s.7 0 .7 0zM0 0v.94C.36.94.7.5.7-.03V0H0z"/>
</svg>
