<?xml version="1.0" encoding="UTF-8" standalone="no"?>
<!-- Created with Inkscape (http://www.inkscape.org/) -->

<svg
   xmlns:dc="http://purl.org/dc/elements/1.1/"
   xmlns:cc="http://creativecommons.org/ns#"
   xmlns:rdf="http://www.w3.org/1999/02/22-rdf-syntax-ns#"
   xmlns:svg="http://www.w3.org/2000/svg"
   xmlns="http://www.w3.org/2000/svg"
   xmlns:sodipodi="http://sodipodi.sourceforge.net/DTD/sodipodi-0.dtd"
   xmlns:inkscape="http://www.inkscape.org/namespaces/inkscape"
   width="4.2399998mm"
   height="4.2399998mm"
   viewBox="0 0 4.2399998 4.2399998"
   version="1.1"
   id="svg2006"
   inkscape:version="0.92.2 (5c3e80d, 2017-08-06)"
   sodipodi:docname="26.2.16.svg">
  <defs
     id="defs2000" />
  <sodipodi:namedview
     id="base"
     pagecolor="#ffffff"
     bordercolor="#666666"
     borderopacity="1.0"
     inkscape:pageopacity="0.0"
     inkscape:pageshadow="2"
     inkscape:zoom="31.678384"
     inkscape:cx="5.2879707"
     inkscape:cy="2.5581914"
     inkscape:document-units="mm"
     inkscape:current-layer="layer1"
     showgrid="false"
     inkscape:window-width="1920"
     inkscape:window-height="1018"
     inkscape:window-x="-8"
     inkscape:window-y="-8"
     inkscape:window-maximized="1" />
  <metadata
     id="metadata2003">
    <rdf:RDF>
      <cc:Work
         rdf:about="">
        <dc:format>image/svg+xml</dc:format>
        <dc:type
           rdf:resource="http://purl.org/dc/dcmitype/StillImage" />
        <dc:title></dc:title>
      </cc:Work>
    </rdf:RDF>
  </metadata>
  <g
     inkscape:label="Layer 1"
     inkscape:groupmode="layer"
     id="layer1"
     transform="translate(-103.71259,-145.69471)">
    <g
       id="g2021"
       transform="translate(-7.4812282e-4,-1.0186251)">
      <path
         id="path184"
         d="m 104.81396,149.83311 c 0.5521,0 0.99977,-0.44804 0.99977,-0.99978 0,-0.55246 -0.44767,-0.99977 -0.99977,-0.99977 -0.55245,0 -0.99977,0.44731 -0.99977,0.99977 0,0.55174 0.44732,0.99978 0.99977,0.99978 z"
         style="fill:none;stroke:#000000;stroke-width:0.20319998;stroke-linecap:butt;stroke-linejoin:miter;stroke-miterlimit:4;stroke-dasharray:none;stroke-opacity:1"
         inkscape:connector-curvature="0" />
      <path
         id="path186"
         d="m 104.81396,149.40377 c 0.31081,0 0.56233,-0.25223 0.56233,-0.56304 0,-0.31044 -0.25152,-0.56197 -0.56233,-0.56197 -0.3108,0 -0.56197,0.25153 -0.56197,0.56197 0,0.31081 0.25117,0.56304 0.56197,0.56304"
         style="fill:#000000;fill-opacity:1;fill-rule:nonzero;stroke:none;stroke-width:0.35277775"
         inkscape:connector-curvature="0" />
      <path
         id="path734"
         d="m 107.90183,148.70951 c -0.23707,-0.14218 -0.53517,-0.11431 -0.64382,0.11041 -0.0882,0.19827 -0.19862,0.46285 -0.44097,0.44098 -0.2212,-0.0205 -0.26459,-0.19861 -0.37501,-0.39688 0,0 -0.24235,-0.375 -0.63923,-0.17639"
         style="fill:none;stroke:#000000;stroke-width:0.20319998;stroke-linecap:butt;stroke-linejoin:miter;stroke-miterlimit:4;stroke-dasharray:none;stroke-opacity:1"
         inkscape:connector-curvature="0" />
    </g>
  </g>
</svg>
