<?xml version="1.0" encoding="UTF-8" standalone="no"?>
<!-- Created with Inkscape (http://www.inkscape.org/) -->

<svg
   xmlns:dc="http://purl.org/dc/elements/1.1/"
   xmlns:cc="http://creativecommons.org/ns#"
   xmlns:rdf="http://www.w3.org/1999/02/22-rdf-syntax-ns#"
   xmlns:svg="http://www.w3.org/2000/svg"
   xmlns="http://www.w3.org/2000/svg"
   xmlns:sodipodi="http://sodipodi.sourceforge.net/DTD/sodipodi-0.dtd"
   xmlns:inkscape="http://www.inkscape.org/namespaces/inkscape"
   width="5.6184001mm"
   height="5.6184001mm"
   viewBox="0 0 5.6184003 5.6184001"
   version="1.1"
   id="svg10788"
   inkscape:version="0.92.2 (5c3e80d, 2017-08-06)"
   sodipodi:docname="10.2.03.svg">
  <defs
     id="defs10782" />
  <sodipodi:namedview
     id="base"
     pagecolor="#ffffff"
     bordercolor="#666666"
     borderopacity="1.0"
     inkscape:pageopacity="0.0"
     inkscape:pageshadow="2"
     inkscape:zoom="9.8656771"
     inkscape:cx="24.764456"
     inkscape:cy="-5.4932964"
     inkscape:document-units="mm"
     inkscape:current-layer="layer1"
     showgrid="false"
     inkscape:window-width="1920"
     inkscape:window-height="1018"
     inkscape:window-x="-8"
     inkscape:window-y="-8"
     inkscape:window-maximized="1" />
  <metadata
     id="metadata10785">
    <rdf:RDF>
      <cc:Work
         rdf:about="">
        <dc:format>image/svg+xml</dc:format>
        <dc:type
           rdf:resource="http://purl.org/dc/dcmitype/StillImage" />
        <dc:title></dc:title>
      </cc:Work>
    </rdf:RDF>
  </metadata>
  <g
     inkscape:label="Layer 1"
     inkscape:groupmode="layer"
     id="layer1"
     transform="translate(-104.92277,-146.02418)">
    <path
       inkscape:connector-curvature="0"
       style="fill:#ffffff;fill-opacity:1;fill-rule:nonzero;stroke:#000000;stroke-width:0.127;stroke-linecap:butt;stroke-linejoin:miter;stroke-miterlimit:4;stroke-opacity:1"
       d="m 107.96443,151.57908 c 0.16536,0 0.30179,-0.35554 0.30179,-0.78962 0,-0.43408 -0.26045,-1.05007 -0.5774,-1.36701 -0.31694,-0.31695 -0.24666,-0.90676 0.1571,-1.31052 0.40376,-0.40239 0.73311,-1.02388 0.73311,-1.37941 0,-0.35416 -0.13642,-0.64493 -0.30179,-0.64493 -0.16674,0 -0.30316,0.29077 -0.30316,0.64493 0,0.35553 -0.32936,0.97702 -0.73312,1.37941 -0.40377,0.40376 -0.47405,0.99357 -0.1571,1.31052 0.31695,0.31694 0.5774,0.93293 0.5774,1.36701 0,0.43408 0.13643,0.78962 0.30317,0.78962 z"
       id="path10445" />
    <path
       inkscape:connector-curvature="0"
       style="fill:#ffffff;fill-opacity:1;fill-rule:nonzero;stroke:#000000;stroke-width:0.127;stroke-linecap:butt;stroke-linejoin:miter;stroke-miterlimit:4;stroke-opacity:1"
       d="M 107.96443,151.57908"
       id="path5655" />
  </g>
</svg>
