<?xml version="1.0" encoding="UTF-8" standalone="no"?>
<!-- Created with Inkscape (http://www.inkscape.org/) -->

<svg
   xmlns:dc="http://purl.org/dc/elements/1.1/"
   xmlns:cc="http://creativecommons.org/ns#"
   xmlns:rdf="http://www.w3.org/1999/02/22-rdf-syntax-ns#"
   xmlns:svg="http://www.w3.org/2000/svg"
   xmlns="http://www.w3.org/2000/svg"
   xmlns:sodipodi="http://sodipodi.sourceforge.net/DTD/sodipodi-0.dtd"
   xmlns:inkscape="http://www.inkscape.org/namespaces/inkscape"
   width="7mm"
   height="7mm"
   viewBox="0 0 7 7"
   version="1.1"
   id="svg11038"
   inkscape:version="0.92.2 (5c3e80d, 2017-08-06)"
   sodipodi:docname="10.2.06.svg">
  <defs
     id="defs11032" />
  <sodipodi:namedview
     id="base"
     pagecolor="#ffffff"
     bordercolor="#666666"
     borderopacity="1.0"
     inkscape:pageopacity="0.0"
     inkscape:pageshadow="2"
     inkscape:zoom="13.990907"
     inkscape:cx="25.146724"
     inkscape:cy="3.8519156"
     inkscape:document-units="mm"
     inkscape:current-layer="layer1"
     showgrid="false"
     inkscape:window-width="1920"
     inkscape:window-height="1018"
     inkscape:window-x="-8"
     inkscape:window-y="-8"
     inkscape:window-maximized="1" />
  <metadata
     id="metadata11035">
    <rdf:RDF>
      <cc:Work
         rdf:about="">
        <dc:format>image/svg+xml</dc:format>
        <dc:type
           rdf:resource="http://purl.org/dc/dcmitype/StillImage" />
        <dc:title></dc:title>
      </cc:Work>
    </rdf:RDF>
  </metadata>
  <g
     inkscape:label="Layer 1"
     inkscape:groupmode="layer"
     id="layer1"
     transform="translate(-102.32349,-144.6348)">
    <g
       id="g11110"
       transform="translate(0,-0.69853235)">
      <path
         id="path10361"
         d="m 104.4429,148.59297 c -0.11714,0.15158 -0.14883,0.24943 -0.14883,0.24943 l -0.44649,-0.79513 0.11438,-0.52228 0.50574,-0.88884 0.83923,-0.55121 -0.52917,0.72071 0.71244,-0.49885 -0.59669,0.85577 -0.40376,0.49196 -0.0358,0.39274 0.17914,0.34726 c 0,0 -0.10611,0.0909 -0.19016,0.19844 z"
         style="fill:#ffffff;fill-opacity:1;fill-rule:nonzero;stroke:#000000;stroke-width:0.127;stroke-linecap:butt;stroke-linejoin:miter;stroke-miterlimit:4;stroke-opacity:1"
         inkscape:connector-curvature="0" />
      <path
         id="path5699"
         d="M 104.4429,148.59297"
         style="fill:#ffffff;fill-opacity:1;fill-rule:nonzero;stroke:#000000;stroke-width:0.127;stroke-linecap:butt;stroke-linejoin:miter;stroke-miterlimit:4;stroke-opacity:1"
         inkscape:connector-curvature="0" />
      <path
         id="path10357"
         d="m 107.2224,148.59021 c 0.12126,0.1571 0.1502,0.25219 0.1502,0.25219 l 0.44649,-0.79513 -0.11438,-0.52228 -0.50574,-0.88884 -0.83923,-0.55121 0.53055,0.72071 -0.71382,-0.49885 0.59669,0.85577 0.40376,0.49196 0.0358,0.39274 -0.17914,0.34726 c 0,0 0.11024,0.0951 0.18879,0.19568 z"
         style="fill:#ffffff;fill-opacity:1;fill-rule:nonzero;stroke:#000000;stroke-width:0.127;stroke-linecap:butt;stroke-linejoin:miter;stroke-miterlimit:4;stroke-opacity:1"
         inkscape:connector-curvature="0" />
      <path
         id="path5701"
         d="M 107.2224,148.59021"
         style="fill:#ffffff;fill-opacity:1;fill-rule:nonzero;stroke:#000000;stroke-width:0.127;stroke-linecap:butt;stroke-linejoin:miter;stroke-miterlimit:4;stroke-opacity:1"
         inkscape:connector-curvature="0" />
      <path
         id="path5703"
         d="m 104.4677,146.63615 0.30868,0.1695 0.11438,0.35829"
         style="fill:none;stroke:#000000;stroke-width:0.127;stroke-linecap:butt;stroke-linejoin:miter;stroke-miterlimit:4;stroke-opacity:1"
         inkscape:connector-curvature="0" />
      <path
         id="path10351"
         d="m 105.83333,150.25075 c 0.19155,0 0.56913,-0.008 0.84061,-0.27974 0.27147,-0.27148 0.31832,-0.71383 0.68764,-0.92605 0.2067,-0.11988 -0.42582,-1.11069 -1.52825,-1.11069 -1.10243,0 -1.73495,0.99081 -1.52686,1.11069 0.36931,0.21222 0.41479,0.65457 0.68626,0.92605 0.27147,0.27147 0.64906,0.27974 0.8406,0.27974 z"
         style="fill:#ffffff;fill-opacity:1;fill-rule:nonzero;stroke:#000000;stroke-width:0.127;stroke-linecap:butt;stroke-linejoin:miter;stroke-miterlimit:4;stroke-opacity:1"
         inkscape:connector-curvature="0" />
      <path
         id="path5705"
         d="M 105.83333,150.25075"
         style="fill:#ffffff;fill-opacity:1;fill-rule:nonzero;stroke:#000000;stroke-width:0.127;stroke-linecap:butt;stroke-linejoin:miter;stroke-miterlimit:4;stroke-opacity:1"
         inkscape:connector-curvature="0" />
      <path
         id="path10347"
         d="m 104.66338,149.4446 c 0,0 -0.0496,-0.0937 -0.10749,-0.17088 -0.0565,-0.0772 -0.11299,-0.12678 -0.11299,-0.12678 l -0.63941,-0.23151 -0.53744,-0.54708 -0.0358,-1.38906 -0.12127,1.3987 0.63941,0.73174 z"
         style="fill:#ffffff;fill-opacity:1;fill-rule:nonzero;stroke:#000000;stroke-width:0.127;stroke-linecap:butt;stroke-linejoin:miter;stroke-miterlimit:4;stroke-opacity:1"
         inkscape:connector-curvature="0" />
      <path
         id="path5707"
         d="M 104.66338,149.4446"
         style="fill:#ffffff;fill-opacity:1;fill-rule:nonzero;stroke:#000000;stroke-width:0.127;stroke-linecap:butt;stroke-linejoin:miter;stroke-miterlimit:4;stroke-opacity:1"
         inkscape:connector-curvature="0" />
      <path
         id="path10343"
         d="m 104.83288,149.76017 -0.113,-0.20809 -1.09141,-0.36931 -0.64767,-0.0648 -0.55673,0.41617 -0.0372,0.61047 0.15848,-0.49885 0.48093,-0.35278 0.55673,0.0648 z"
         style="fill:#ffffff;fill-opacity:1;fill-rule:nonzero;stroke:#000000;stroke-width:0.127;stroke-linecap:butt;stroke-linejoin:miter;stroke-miterlimit:4;stroke-opacity:1"
         inkscape:connector-curvature="0" />
      <path
         id="path5709"
         d="M 104.83288,149.76017"
         style="fill:#ffffff;fill-opacity:1;fill-rule:nonzero;stroke:#000000;stroke-width:0.127;stroke-linecap:butt;stroke-linejoin:miter;stroke-miterlimit:4;stroke-opacity:1"
         inkscape:connector-curvature="0" />
      <path
         id="path10339"
         d="m 104.9762,149.95309 c 0,0 -0.051,-0.0551 -0.0799,-0.0965 -0.0331,-0.0469 -0.0634,-0.0965 -0.0634,-0.0965 l -0.90813,-0.0689 -0.58291,0.18603 -0.47267,0.38861 -0.16674,0.74138 0.30593,-0.62149 0.45337,-0.29628 0.55535,-0.19431 z"
         style="fill:#ffffff;fill-opacity:1;fill-rule:nonzero;stroke:#000000;stroke-width:0.127;stroke-linecap:butt;stroke-linejoin:miter;stroke-miterlimit:4;stroke-opacity:1"
         inkscape:connector-curvature="0" />
      <path
         id="path5711"
         d="M 104.9762,149.95309"
         style="fill:#ffffff;fill-opacity:1;fill-rule:nonzero;stroke:#000000;stroke-width:0.127;stroke-linecap:butt;stroke-linejoin:miter;stroke-miterlimit:4;stroke-opacity:1"
         inkscape:connector-curvature="0" />
      <path
         id="path5713"
         d="m 107.19897,146.63615 -0.30868,0.1695 -0.11438,0.35829"
         style="fill:none;stroke:#000000;stroke-width:0.127;stroke-linecap:butt;stroke-linejoin:miter;stroke-miterlimit:4;stroke-opacity:1"
         inkscape:connector-curvature="0" />
      <path
         id="path10333"
         d="m 107.00329,149.4446 c 0,0 0.0496,-0.0937 0.10749,-0.17088 0.0565,-0.0772 0.113,-0.12678 0.113,-0.12678 l 0.6394,-0.23151 0.53606,-0.54708 0.0372,-1.38906 0.12127,1.3987 -0.63941,0.73174 z"
         style="fill:#ffffff;fill-opacity:1;fill-rule:nonzero;stroke:#000000;stroke-width:0.127;stroke-linecap:butt;stroke-linejoin:miter;stroke-miterlimit:4;stroke-opacity:1"
         inkscape:connector-curvature="0" />
      <path
         id="path5715"
         d="M 107.00329,149.4446"
         style="fill:#ffffff;fill-opacity:1;fill-rule:nonzero;stroke:#000000;stroke-width:0.127;stroke-linecap:butt;stroke-linejoin:miter;stroke-miterlimit:4;stroke-opacity:1"
         inkscape:connector-curvature="0" />
      <path
         id="path10329"
         d="m 106.83379,149.76017 0.113,-0.20809 1.0914,-0.36931 0.64906,-0.0648 0.55535,0.41617 0.0372,0.61047 -0.15848,-0.49885 -0.48093,-0.35278 -0.55535,0.0648 z"
         style="fill:#ffffff;fill-opacity:1;fill-rule:nonzero;stroke:#000000;stroke-width:0.127;stroke-linecap:butt;stroke-linejoin:miter;stroke-miterlimit:4;stroke-opacity:1"
         inkscape:connector-curvature="0" />
      <path
         id="path5717"
         d="M 106.83379,149.76017"
         style="fill:#ffffff;fill-opacity:1;fill-rule:nonzero;stroke:#000000;stroke-width:0.127;stroke-linecap:butt;stroke-linejoin:miter;stroke-miterlimit:4;stroke-opacity:1"
         inkscape:connector-curvature="0" />
      <path
         id="path10325"
         d="m 106.69047,149.95309 c 0,0 0.051,-0.0551 0.0799,-0.0965 0.0331,-0.0469 0.0634,-0.0965 0.0634,-0.0965 l 0.90813,-0.0689 0.58291,0.18603 0.47267,0.38861 0.16674,0.74138 -0.30593,-0.62149 -0.45337,-0.29628 -0.55535,-0.19431 z"
         style="fill:#ffffff;fill-opacity:1;fill-rule:nonzero;stroke:#000000;stroke-width:0.127;stroke-linecap:butt;stroke-linejoin:miter;stroke-miterlimit:4;stroke-opacity:1"
         inkscape:connector-curvature="0" />
      <path
         id="path5719"
         d="M 106.69047,149.95309"
         style="fill:#ffffff;fill-opacity:1;fill-rule:nonzero;stroke:#000000;stroke-width:0.127;stroke-linecap:butt;stroke-linejoin:miter;stroke-miterlimit:4;stroke-opacity:1"
         inkscape:connector-curvature="0" />
      <path
         id="path10321"
         d="m 106.69047,149.95309 0.15296,0.14608 0.69454,0.30592 0.47267,0.42581 0.20394,0.36105 -0.50987,0.31419 0.10197,-0.565 -0.45337,-0.20256 -0.59256,-0.38999 -0.92604,-0.0455 h -0.003 l -0.92604,0.0455 -0.59256,0.38999 -0.45338,0.20256 0.10198,0.565 -0.50987,-0.31419 0.20395,-0.36105 0.47266,-0.42581 0.69453,-0.30592 0.15297,-0.14608 0.0606,0.0579 c 0.26596,0.23289 0.61461,0.23978 0.79651,0.23978 0.1819,0 0.53054,-0.007 0.79788,-0.23978 z"
         style="fill:#ffffff;fill-opacity:1;fill-rule:nonzero;stroke:#000000;stroke-width:0.127;stroke-linecap:butt;stroke-linejoin:miter;stroke-miterlimit:4;stroke-opacity:1"
         inkscape:connector-curvature="0" />
      <path
         id="path5721"
         d="M 106.69047,149.95309"
         style="fill:#ffffff;fill-opacity:1;fill-rule:nonzero;stroke:#000000;stroke-width:0.127;stroke-linecap:butt;stroke-linejoin:miter;stroke-miterlimit:4;stroke-opacity:1"
         inkscape:connector-curvature="0" />
    </g>
  </g>
</svg>
