<?xml version="1.0" encoding="UTF-8" standalone="no"?>
<!-- Created with Inkscape (http://www.inkscape.org/) -->

<svg
   xmlns:dc="http://purl.org/dc/elements/1.1/"
   xmlns:cc="http://creativecommons.org/ns#"
   xmlns:rdf="http://www.w3.org/1999/02/22-rdf-syntax-ns#"
   xmlns:svg="http://www.w3.org/2000/svg"
   xmlns="http://www.w3.org/2000/svg"
   xmlns:sodipodi="http://sodipodi.sourceforge.net/DTD/sodipodi-0.dtd"
   xmlns:inkscape="http://www.inkscape.org/namespaces/inkscape"
   width="5.6321998mm"
   height="5.6321998mm"
   viewBox="0 0 5.6321998 5.6321997"
   version="1.1"
   id="svg13355"
   inkscape:version="0.92.2 (5c3e80d, 2017-08-06)"
   sodipodi:docname="10.2.20.svg">
  <defs
     id="defs13349" />
  <sodipodi:namedview
     id="base"
     pagecolor="#ffffff"
     bordercolor="#666666"
     borderopacity="1.0"
     inkscape:pageopacity="0.0"
     inkscape:pageshadow="2"
     inkscape:zoom="19.683114"
     inkscape:cx="19.962019"
     inkscape:cy="3.2787402"
     inkscape:document-units="mm"
     inkscape:current-layer="layer1"
     showgrid="false"
     inkscape:window-width="1920"
     inkscape:window-height="1018"
     inkscape:window-x="-8"
     inkscape:window-y="-8"
     inkscape:window-maximized="1" />
  <metadata
     id="metadata13352">
    <rdf:RDF>
      <cc:Work
         rdf:about="">
        <dc:format>image/svg+xml</dc:format>
        <dc:type
           rdf:resource="http://purl.org/dc/dcmitype/StillImage" />
        <dc:title></dc:title>
      </cc:Work>
    </rdf:RDF>
  </metadata>
  <g
     inkscape:label="Layer 1"
     inkscape:groupmode="layer"
     id="layer1"
     transform="translate(7.3653778,-146.01726)">
    <g
       id="g13388"
       transform="translate(0.36441257)">
      <path
         id="path12280"
         d="m -3.8084535,146.39352 c 0.7717012,0.50436 1.2829503,1.37666 1.2829503,2.36747 0,1.55994 -1.2650364,2.82497 -2.8249773,2.82497 -0.7579219,0 -1.444184,-0.29765 -1.9513021,-0.78134 0,0 -0.017921,-0.46716 0.3252188,-1.01148 0.3445087,-0.54433 0.7965052,-0.80478 0.7965052,-0.80478 -0.2563142,-0.3073 -0.4092787,-0.7028 -0.4092787,-1.13274 0,-0.98117 0.79375,-1.77492 1.772158,-1.77492 0.3665572,0 0.7083107,0.11024 0.9908082,0.30179 z"
         style="fill:#ffffff;fill-opacity:1;fill-rule:nonzero;stroke:#000000;stroke-width:0.127;stroke-linecap:butt;stroke-linejoin:miter;stroke-miterlimit:4;stroke-opacity:1"
         inkscape:connector-curvature="0" />
      <path
         id="path5793"
         d="M -3.8084535,146.39352"
         style="fill:#ffffff;fill-opacity:1;fill-rule:nonzero;stroke:#000000;stroke-width:0.127;stroke-linecap:butt;stroke-linejoin:miter;stroke-miterlimit:4;stroke-opacity:1"
         inkscape:connector-curvature="0" />
      <path
         id="path12284"
         d="m -4.8309588,147.82806 c 0,0.073 -0.059256,0.13229 -0.1322917,0.13229 -0.073035,0 -0.1322916,-0.0593 -0.1322916,-0.13229 0,-0.073 0.059256,-0.13092 0.1322916,-0.13092 0.073036,0 0.1322917,0.0579 0.1322917,0.13092 z"
         style="fill:#000000;fill-opacity:1;fill-rule:nonzero;stroke:#000000;stroke-width:0.127;stroke-linecap:butt;stroke-linejoin:miter;stroke-miterlimit:4;stroke-opacity:1"
         inkscape:connector-curvature="0" />
      <path
         id="path5795"
         d="M -4.8309588,147.82806"
         style="fill:#000000;fill-opacity:1;fill-rule:nonzero;stroke:#000000;stroke-width:0.127;stroke-linecap:butt;stroke-linejoin:miter;stroke-miterlimit:4;stroke-opacity:1"
         inkscape:connector-curvature="0" />
      <path
         id="path12294"
         d="m -6.1800586,148.98836 1.3063784,-1.06246"
         style="fill:none;stroke:#000000;stroke-width:0.127;stroke-linecap:butt;stroke-linejoin:miter;stroke-miterlimit:4;stroke-opacity:1"
         inkscape:connector-curvature="0" />
      <path
         id="path12292"
         d="m -5.0004579,147.81428 c -0.1557197,-0.04 -0.020673,-0.27424 -0.1502057,-0.31557 -0.125402,-0.0413 -0.2673386,0.38998 -0.3954992,0.34864 -0.1336675,-0.0441 0.00826,-0.47543 -0.1267777,-0.51952 -0.1295365,-0.0427 -0.2700973,0.3886 -0.4010096,0.34727 -0.1267777,-0.0413 0.013794,-0.47405 -0.1129982,-0.51677 -0.1171328,-0.0372 -0.2521832,0.3955 -0.369316,0.35829"
         style="fill:none;stroke:#000000;stroke-width:0.127;stroke-linecap:butt;stroke-linejoin:miter;stroke-miterlimit:4;stroke-opacity:1"
         inkscape:connector-curvature="0" />
      <path
         id="path12290"
         d="m -4.9770299,147.78534 c -0.034466,-0.14745 0.4630207,-0.27423 0.427189,-0.4203 -0.034466,-0.14746 -0.5291665,-0.0317 -0.5636153,-0.17915 -0.034466,-0.14883 0.4602622,-0.26458 0.4258134,-0.41479 -0.034466,-0.14745 -0.530546,-0.0303 -0.5649948,-0.17777 -0.034466,-0.14745 0.4616415,-0.2632 0.4258134,-0.41203 -0.013794,-0.0606 -0.1446954,-0.0717 -0.2604488,-0.0772"
         style="fill:none;stroke:#000000;stroke-width:0.127;stroke-linecap:butt;stroke-linejoin:miter;stroke-miterlimit:4;stroke-opacity:1"
         inkscape:connector-curvature="0" />
      <path
         id="path12288"
         d="m -4.9246671,147.81014 c 0.1667439,-0.0909 0.4850694,0.46027 0.6518132,0.36794 0.1667441,-0.0909 -0.1543402,-0.67937 0.012417,-0.7717 0.1667404,-0.0923 0.4892003,0.49747 0.6586995,0.40652 0.1639888,-0.091 -0.1570955,-0.68075 0.00688,-0.77032 0.1584748,-0.0868 0.4809384,0.50298 0.6407891,0.41616 0.033055,-0.0193 0.041342,-0.0675 0.041342,-0.12127"
         style="fill:none;stroke:#000000;stroke-width:0.127;stroke-linecap:butt;stroke-linejoin:miter;stroke-miterlimit:4;stroke-opacity:1"
         inkscape:connector-curvature="0" />
      <path
         id="path5797"
         d="m -4.9315534,147.86388 c 0.1378056,0.13781 -0.3210807,0.5967 -0.1832786,0.7345 0.1350469,0.13642 0.5939331,-0.32384 0.7289836,-0.18879 0.1378019,0.1378 -0.3210843,0.59669 -0.1832788,0.73587 0.1364227,0.13643 0.5966884,-0.32246 0.7331147,-0.18604 0.1391814,0.13781 -0.3210843,0.59807 -0.1818995,0.73725 0.1364229,0.13643 0.5966884,-0.32383 0.7331147,-0.18603 0.1322916,0.13229 -0.3265945,0.59256 -0.1943029,0.72485 0.1129983,0.113 0.4905799,-0.23427 0.6628376,-0.22738"
         style="fill:none;stroke:#000000;stroke-width:0.127;stroke-linecap:butt;stroke-linejoin:miter;stroke-miterlimit:4;stroke-opacity:1"
         inkscape:connector-curvature="0" />
    </g>
  </g>
</svg>
