<?xml version="1.0" encoding="UTF-8" standalone="no"?>
<!-- Created with Inkscape (http://www.inkscape.org/) -->

<svg
   xmlns:dc="http://purl.org/dc/elements/1.1/"
   xmlns:cc="http://creativecommons.org/ns#"
   xmlns:rdf="http://www.w3.org/1999/02/22-rdf-syntax-ns#"
   xmlns:svg="http://www.w3.org/2000/svg"
   xmlns="http://www.w3.org/2000/svg"
   xmlns:sodipodi="http://sodipodi.sourceforge.net/DTD/sodipodi-0.dtd"
   xmlns:inkscape="http://www.inkscape.org/namespaces/inkscape"
   width="5.8256001mm"
   height="5.8256001mm"
   viewBox="0 0 5.8256001 5.8256001"
   version="1.1"
   id="svg11378"
   inkscape:version="0.92.2 (5c3e80d, 2017-08-06)"
   sodipodi:docname="10.2.10.svg">
  <defs
     id="defs11372" />
  <sodipodi:namedview
     id="base"
     pagecolor="#ffffff"
     bordercolor="#666666"
     borderopacity="1.0"
     inkscape:pageopacity="0.0"
     inkscape:pageshadow="2"
     inkscape:zoom="9.514928"
     inkscape:cx="34.648564"
     inkscape:cy="-7.0450117"
     inkscape:document-units="mm"
     inkscape:current-layer="layer1"
     showgrid="false"
     inkscape:window-width="1920"
     inkscape:window-height="1018"
     inkscape:window-x="-8"
     inkscape:window-y="-8"
     inkscape:window-maximized="1" />
  <metadata
     id="metadata11375">
    <rdf:RDF>
      <cc:Work
         rdf:about="">
        <dc:format>image/svg+xml</dc:format>
        <dc:type
           rdf:resource="http://purl.org/dc/dcmitype/StillImage" />
        <dc:title></dc:title>
      </cc:Work>
    </rdf:RDF>
  </metadata>
  <g
     inkscape:label="Layer 1"
     inkscape:groupmode="layer"
     id="layer1"
     transform="translate(-103.19507,-145.92318)">
    <path
       inkscape:connector-curvature="0"
       style="fill:#ffffff;fill-opacity:1;fill-rule:nonzero;stroke:#000000;stroke-width:0.127;stroke-linecap:butt;stroke-linejoin:miter;stroke-miterlimit:4;stroke-opacity:1"
       d="m 104.05648,146.00362 -0.48782,0.50574 0.83784,0.5457 c 0,0 1.09279,0.6656 1.40423,1.46348 0.1626,0.41479 0.19568,1.13137 0.17638,1.40422 -0.0207,0.27147 -0.0785,1.67707 -0.0785,1.67707 l 0.62425,0.0772 0.0193,-2.16489 c 0,0 0.0579,-0.57878 0.15572,-0.91502 0.13642,-0.46854 0.7717,-0.86541 0.93568,-1.05282 0.27285,-0.31144 1.01424,-0.83923 1.01424,-0.83923 l -0.33073,-0.46853 -1.15066,0.83923 c 0,0 -0.50712,0.5264 -0.9164,0.5264 -0.41065,0 -0.5457,-0.23426 -0.74138,-0.40927 -0.19431,-0.17639 -1.4621,-1.18925 -1.4621,-1.18925 z"
       id="path10225" />
    <path
       inkscape:connector-curvature="0"
       style="fill:#ffffff;fill-opacity:1;fill-rule:nonzero;stroke:#000000;stroke-width:0.127;stroke-linecap:butt;stroke-linejoin:miter;stroke-miterlimit:4;stroke-opacity:1"
       d="M 103.78197,146.00362"
       id="path5761" />
  </g>
</svg>
